<?xml version="1.0" encoding="UTF-8" standalone="no"?><svg xmlns="http://www.w3.org/2000/svg" xmlns:xlink="http://www.w3.org/1999/xlink" clip-rule="evenodd" stroke-miterlimit="10" viewBox="0 0 1001 564"><desc>SVG generated by Keynote</desc><defs></defs><g transform="matrix(1.00, 0.00, -0.00, -1.00, 0.0, 564.0)"><g><clipPath id="clip0x6180070b0bc0"><path d="M 0.4 0.5 L 1000.4 0.5 L 1000.4 563.5 L 0.4 563.5 Z M 0.4 0.5 "></path></clipPath><g clip-path="url(#clip0x6180070b0bc0)"><image xlink:href="9AC271A4AA0E2241D295904022BA7921.png" width="1000.00" height="563.00" transform="matrix(1.00, 0.00, -0.00, -1.00, 0.0, 563.0)"></image></g></g><g><clipPath id="clip0x6000078a7ce0"><path d="M 213.6 116.9 L 803.2 116.9 L 803.2 470.1 L 213.6 470.1 Z M 213.6 116.9 "></path></clipPath><g clip-path="url(#clip0x6000078a7ce0)"><path d="M 215.0 469.0 L 802.0 469.0 L 802.0 118.0 L 215.0 118.0 Z M 214.6 469.1 " fill="#313744"></path></g></g><g><clipPath id="clip0x6000078a7f20"><path d="M 210.6 117.9 L 806.2 117.9 L 806.2 469.1 L 210.6 469.1 Z M 210.6 117.9 "></path></clipPath><g clip-path="url(#clip0x6000078a7f20)"><text xml:space="preserve" font-family="Helvetica-Light,Helvetica" font-size="32.0" fill="#FEFFFE" transform="matrix(1.00, 0.00, -0.00, -1.00, 337.7, 281.5)">I</text><text xml:space="preserve" font-family="Helvetica-Light,Helvetica" font-size="32.0" fill="#FEFFFE" transform="matrix(1.00, 0.00, -0.00, -1.00, 346.6, 281.5)">M</text><text xml:space="preserve" font-family="Helvetica-Light,Helvetica" font-size="32.0" fill="#FEFFFE" transform="matrix(1.00, 0.00, -0.00, -1.00, 373.3, 281.5)">A</text><text xml:space="preserve" font-family="Helvetica-Light,Helvetica" font-size="32.0" fill="#FEFFFE" transform="matrix(1.00, 0.00, -0.00, -1.00, 394.6, 281.5)">G</text><text xml:space="preserve" font-family="Helvetica-Light,Helvetica" font-size="32.0" fill="#FEFFFE" transform="matrix(1.00, 0.00, -0.00, -1.00, 419.5, 281.5)">E</text><text xml:space="preserve" font-family="Helvetica-Light,Helvetica" font-size="32.0" fill="#FEFFFE" transform="matrix(1.00, 0.00, -0.00, -1.00, 439.0, 281.5)"> </text><text xml:space="preserve" font-family="Helvetica-Light,Helvetica" font-size="32.0" fill="#FEFFFE" transform="matrix(1.00, 0.00, -0.00, -1.00, 447.9, 281.5)">P</text><text xml:space="preserve" font-family="Helvetica-Light,Helvetica" font-size="32.0" fill="#FEFFFE" transform="matrix(1.00, 0.00, -0.00, -1.00, 467.5, 281.5)">L</text><text xml:space="preserve" font-family="Helvetica-Light,Helvetica" font-size="32.0" fill="#FEFFFE" transform="matrix(1.00, 0.00, -0.00, -1.00, 485.3, 281.5)">A</text><text xml:space="preserve" font-family="Helvetica-Light,Helvetica" font-size="32.0" fill="#FEFFFE" transform="matrix(1.00, 0.00, -0.00, -1.00, 506.6, 281.5)">C</text><text xml:space="preserve" font-family="Helvetica-Light,Helvetica" font-size="32.0" fill="#FEFFFE" transform="matrix(1.00, 0.00, -0.00, -1.00, 529.7, 281.5)">E</text><text xml:space="preserve" font-family="Helvetica-Light,Helvetica" font-size="32.0" fill="#FEFFFE" transform="matrix(1.00, 0.00, -0.00, -1.00, 549.3, 281.5)">H</text><text xml:space="preserve" font-family="Helvetica-Light,Helvetica" font-size="32.0" fill="#FEFFFE" transform="matrix(1.00, 0.00, -0.00, -1.00, 572.4, 281.5)">O</text><text xml:space="preserve" font-family="Helvetica-Light,Helvetica" font-size="32.0" fill="#FEFFFE" transform="matrix(1.00, 0.00, -0.00, -1.00, 597.3, 281.5)">L</text><text xml:space="preserve" font-family="Helvetica-Light,Helvetica" font-size="32.0" fill="#FEFFFE" transform="matrix(1.00, 0.00, -0.00, -1.00, 615.1, 281.5)">D</text><text xml:space="preserve" font-family="Helvetica-Light,Helvetica" font-size="32.0" fill="#FEFFFE" transform="matrix(1.00, 0.00, -0.00, -1.00, 638.2, 281.5)">E</text><text xml:space="preserve" font-family="Helvetica-Light,Helvetica" font-size="32.0" fill="#FEFFFE" transform="matrix(1.00, 0.00, -0.00, -1.00, 657.7, 281.5)">R</text></g></g></g></svg>