<?xml version="1.0" encoding="UTF-8" standalone="no"?><svg xmlns="http://www.w3.org/2000/svg" xmlns:xlink="http://www.w3.org/1999/xlink" clip-rule="evenodd" stroke-miterlimit="10" viewBox="0 0 40 40"><desc>SVG generated by Keynote</desc><defs></defs><g transform="matrix(1.00, 0.00, -0.00, -1.00, 0.0, 40.0)"><path d="M 31.0 31.4 C 37.0 25.4 37.0 15.5 31.0 9.5 C 24.9 3.4 15.1 3.4 9.0 9.5 C 3.0 15.5 3.0 25.4 9.0 31.4 C 15.1 37.5 24.9 37.5 31.0 31.4 Z M 31.0 31.4 " fill="#5A6378"></path><path d="M 26.5 4.5 C 32.6 10.6 32.6 20.4 26.5 26.5 C 20.4 32.6 10.6 32.6 4.5 26.5 C -1.5 20.4 -1.5 10.6 4.5 4.5 C 10.6 -1.5 20.4 -1.5 26.5 4.5 Z M 26.5 4.5 " fill="none" stroke="#F6F6F6" stroke-width="6.00" transform="matrix(1.00, 0.00, 0.00, -1.00, 4.5, 36.0)"></path></g></svg>