<?xml version="1.0" encoding="UTF-8" standalone="no"?><svg xmlns="http://www.w3.org/2000/svg" xmlns:xlink="http://www.w3.org/1999/xlink" clip-rule="evenodd" stroke-miterlimit="10" viewBox="0 0 121 40"><desc>SVG generated by Keynote</desc><defs></defs><g transform="matrix(1.00, 0.00, -0.00, -1.00, 0.0, 40.0)"><g><clipPath id="clip0x6000080b4ee0"><path d="M 0.9 11.2 L 18.7 11.2 L 18.7 29.0 L 0.9 29.0 Z M 0.9 11.2 "></path></clipPath><g clip-path="url(#clip0x6000080b4ee0)"><path d="M 15.4 25.7 C 18.5 22.6 18.5 17.6 15.4 14.6 C 12.3 11.5 7.3 11.5 4.2 14.6 C 1.1 17.6 1.1 22.6 4.2 25.7 C 7.3 28.8 12.3 28.8 15.4 25.7 Z M 15.4 25.7 " fill="#62D7AD"></path></g></g><g><clipPath id="clip0x6000080b5360"><path d="M 20.7 -0.4 L 121.8 -0.4 L 121.8 40.6 L 20.7 40.6 Z M 20.7 -0.4 "></path></clipPath><g clip-path="url(#clip0x6000080b5360)"><text xml:space="preserve" font-family="Helvetica,Helvetica" font-size="24.0" fill="#E2E2E2" transform="matrix(1.00, 0.00, -0.00, -1.00, 26.7, 11.2)">A</text><text xml:space="preserve" font-family="Helvetica,Helvetica" font-size="24.0" fill="#E2E2E2" transform="matrix(1.00, 0.00, -0.00, -1.00, 42.7, 11.2)">m</text><text xml:space="preserve" font-family="Helvetica,Helvetica" font-size="24.0" fill="#E2E2E2" transform="matrix(1.00, 0.00, -0.00, -1.00, 62.7, 11.2)">e</text><text xml:space="preserve" font-family="Helvetica,Helvetica" font-size="24.0" fill="#E2E2E2" transform="matrix(1.00, 0.00, -0.00, -1.00, 76.1, 11.2)">r</text><text xml:space="preserve" font-family="Helvetica,Helvetica" font-size="24.0" fill="#E2E2E2" transform="matrix(1.00, 0.00, -0.00, -1.00, 84.1, 11.2)">i</text><text xml:space="preserve" font-family="Helvetica,Helvetica" font-size="24.0" fill="#E2E2E2" transform="matrix(1.00, 0.00, -0.00, -1.00, 89.4, 11.2)">c</text><text xml:space="preserve" font-family="Helvetica,Helvetica" font-size="24.0" fill="#E2E2E2" transform="matrix(1.00, 0.00, -0.00, -1.00, 101.4, 11.2)">a</text></g></g></g></svg>