<?xml version="1.0" encoding="UTF-8" standalone="no"?><svg xmlns="http://www.w3.org/2000/svg" xmlns:xlink="http://www.w3.org/1999/xlink" clip-rule="evenodd" stroke-miterlimit="10" viewBox="0 0 95 40"><desc>SVG generated by Keynote</desc><defs></defs><g transform="matrix(1.00, 0.00, -0.00, -1.00, 0.0, 40.0)"><g><clipPath id="clip0x6000080b5a20"><path d="M 0.9 10.6 L 18.7 10.6 L 18.7 28.4 L 0.9 28.4 Z M 0.9 10.6 "></path></clipPath><g clip-path="url(#clip0x6000080b5a20)"><path d="M 15.4 25.1 C 18.5 22.0 18.5 17.0 15.4 13.9 C 12.3 10.8 7.3 10.8 4.2 13.9 C 1.1 17.0 1.1 22.0 4.2 25.1 C 7.3 28.2 12.3 28.2 15.4 25.1 Z M 15.4 25.1 " fill="#EDC25F"></path></g></g><g><clipPath id="clip0x6000080b5ea0"><path d="M 20.7 -1.0 L 95.1 -1.0 L 95.1 40.0 L 20.7 40.0 Z M 20.7 -1.0 "></path></clipPath><g clip-path="url(#clip0x6000080b5ea0)"><text xml:space="preserve" font-family="Helvetica,Helvetica" font-size="24.0" fill="#E2E2E2" transform="matrix(1.00, 0.00, -0.00, -1.00, 26.7, 10.5)">A</text><text xml:space="preserve" font-family="Helvetica,Helvetica" font-size="24.0" fill="#E2E2E2" transform="matrix(1.00, 0.00, -0.00, -1.00, 42.7, 10.5)">f</text><text xml:space="preserve" font-family="Helvetica,Helvetica" font-size="24.0" fill="#E2E2E2" transform="matrix(1.00, 0.00, -0.00, -1.00, 49.4, 10.5)">r</text><text xml:space="preserve" font-family="Helvetica,Helvetica" font-size="24.0" fill="#E2E2E2" transform="matrix(1.00, 0.00, -0.00, -1.00, 57.4, 10.5)">i</text><text xml:space="preserve" font-family="Helvetica,Helvetica" font-size="24.0" fill="#E2E2E2" transform="matrix(1.00, 0.00, -0.00, -1.00, 62.7, 10.5)">c</text><text xml:space="preserve" font-family="Helvetica,Helvetica" font-size="24.0" fill="#E2E2E2" transform="matrix(1.00, 0.00, -0.00, -1.00, 74.7, 10.5)">a</text></g></g></g></svg>