<?xml version="1.0" encoding="UTF-8" standalone="no"?><svg xmlns="http://www.w3.org/2000/svg" xmlns:xlink="http://www.w3.org/1999/xlink" clip-rule="evenodd" stroke-miterlimit="10" viewBox="0 0 79 40"><desc>SVG generated by Keynote</desc><defs></defs><g transform="matrix(1.00, 0.00, -0.00, -1.00, 0.0, 40.0)"><g><clipPath id="clip0x6000080b44c0"><path d="M 0.1 11.1 L 17.9 11.1 L 17.9 28.9 L 0.1 28.9 Z M 0.1 11.1 "></path></clipPath><g clip-path="url(#clip0x6000080b44c0)"><path d="M 14.6 25.6 C 17.7 22.5 17.7 17.5 14.6 14.4 C 11.5 11.3 6.5 11.3 3.4 14.4 C 0.4 17.5 0.4 22.5 3.4 25.6 C 6.5 28.6 11.5 28.6 14.6 25.6 Z M 14.6 25.6 " fill="#54C6E1"></path></g></g><g><clipPath id="clip0x6000080b4940"><path d="M 20.0 -0.5 L 79.7 -0.5 L 79.7 40.5 L 20.0 40.5 Z M 20.0 -0.5 "></path></clipPath><g clip-path="url(#clip0x6000080b4940)"><text xml:space="preserve" font-family="Helvetica,Helvetica" font-size="24.0" fill="#E2E2E2" transform="matrix(1.00, 0.00, -0.00, -1.00, 26.0, 11.0)">A</text><text xml:space="preserve" font-family="Helvetica,Helvetica" font-size="24.0" fill="#E2E2E2" transform="matrix(1.00, 0.00, -0.00, -1.00, 42.0, 11.0)">s</text><text xml:space="preserve" font-family="Helvetica,Helvetica" font-size="24.0" fill="#E2E2E2" transform="matrix(1.00, 0.00, -0.00, -1.00, 54.0, 11.0)">i</text><text xml:space="preserve" font-family="Helvetica,Helvetica" font-size="24.0" fill="#E2E2E2" transform="matrix(1.00, 0.00, -0.00, -1.00, 59.3, 11.0)">a</text></g></g></g></svg>