<?xml version="1.0" encoding="UTF-8" standalone="no"?><svg xmlns="http://www.w3.org/2000/svg" xmlns:xlink="http://www.w3.org/1999/xlink" clip-rule="evenodd" stroke-miterlimit="10" viewBox="0 0 110 40"><desc>SVG generated by Keynote</desc><defs></defs><g transform="matrix(1.00, 0.00, -0.00, -1.00, 0.0, 40.0)"><g><clipPath id="clip0x610007aa07e0"><path d="M 0.1 11.2 L 17.9 11.2 L 17.9 29.0 L 0.1 29.0 Z M 0.1 11.2 "></path></clipPath><g clip-path="url(#clip0x610007aa07e0)"><path d="M 14.6 25.7 C 17.7 22.6 17.7 17.6 14.6 14.6 C 11.5 11.5 6.5 11.5 3.4 14.6 C 0.4 17.6 0.4 22.6 3.4 25.7 C 6.5 28.8 11.5 28.8 14.6 25.7 Z M 14.6 25.7 " fill="#FF607B"></path></g></g><g><clipPath id="clip0x610007aa0c60"><path d="M 20.0 -0.4 L 110.4 -0.4 L 110.4 40.6 L 20.0 40.6 Z M 20.0 -0.4 "></path></clipPath><g clip-path="url(#clip0x610007aa0c60)"><text xml:space="preserve" font-family="Helvetica,Helvetica" font-size="24.0" fill="#E2E2E2" transform="matrix(1.00, 0.00, -0.00, -1.00, 26.0, 11.2)">E</text><text xml:space="preserve" font-family="Helvetica,Helvetica" font-size="24.0" fill="#E2E2E2" transform="matrix(1.00, 0.00, -0.00, -1.00, 42.0, 11.2)">u</text><text xml:space="preserve" font-family="Helvetica,Helvetica" font-size="24.0" fill="#E2E2E2" transform="matrix(1.00, 0.00, -0.00, -1.00, 55.3, 11.2)">r</text><text xml:space="preserve" font-family="Helvetica,Helvetica" font-size="24.0" fill="#E2E2E2" transform="matrix(1.00, 0.00, -0.00, -1.00, 63.3, 11.2)">o</text><text xml:space="preserve" font-family="Helvetica,Helvetica" font-size="24.0" fill="#E2E2E2" transform="matrix(1.00, 0.00, -0.00, -1.00, 76.7, 11.2)">p</text><text xml:space="preserve" font-family="Helvetica,Helvetica" font-size="24.0" fill="#E2E2E2" transform="matrix(1.00, 0.00, -0.00, -1.00, 90.0, 11.2)">e</text></g></g></g></svg>