<?xml version="1.0" encoding="UTF-8" standalone="no"?><svg xmlns="http://www.w3.org/2000/svg" xmlns:xlink="http://www.w3.org/1999/xlink" clip-rule="evenodd" stroke-miterlimit="10" viewBox="0 0 1920 1080"><desc>SVG generated by Keynote</desc><defs></defs><g transform="matrix(1.00, 0.00, -0.00, -1.00, 0.0, 1080.0)"><path d="M 0.0 1080.0 L 1920.0 1080.0 L 1920.0 0.0 L 0.0 0.0 Z M 0.0 1080.0 " fill="#5A6378"></path><image xlink:href="../../836F46BD-DF04-44B3-8CAE-9EBA92595E3F/assets/520C9E05AD6AD63615395BDB5D5AA59E.png" width="1929.00" height="90.00" transform="matrix(1.00, 0.00, -0.00, -1.00, -4.6, 85.1)" opacity="0.15"></image><path d="M -2.0 80.0 L 1922.0 80.0 L 1922.0 -4.0 L -2.0 -4.0 Z M -1.6 80.1 " fill="#5A6378"></path><text xml:space="preserve" font-family="Helvetica,Helvetica" font-size="30.0" fill="#E2E2E2" transform="matrix(1.00, 0.00, -0.00, -1.00, 43.5, 26.1)">R</text><text xml:space="preserve" font-family="Helvetica,Helvetica" font-size="30.0" fill="#E2E2E2" transform="matrix(1.00, 0.00, -0.00, -1.00, 65.1, 26.1)">o</text><text xml:space="preserve" font-family="Helvetica,Helvetica" font-size="30.0" fill="#E2E2E2" transform="matrix(1.00, 0.00, -0.00, -1.00, 81.8, 26.1)">b</text><text xml:space="preserve" font-family="Helvetica,Helvetica" font-size="30.0" fill="#E2E2E2" transform="matrix(1.00, 0.00, -0.00, -1.00, 98.5, 26.1)">o</text><g><clipPath id="clip0x60000a4a9420"><path d="M 122.1 26.3 L 139.9 26.3 L 139.9 44.1 L 122.1 44.1 Z M 122.1 26.3 "></path></clipPath><g clip-path="url(#clip0x60000a4a9420)"><path d="M 123.0 43.0 L 139.0 43.0 L 139.0 27.0 L 123.0 27.0 Z M 123.1 43.1 " fill="#FF607B"></path></g></g><g><clipPath id="clip0x60000a4a9660"><path d="M 140.4 26.3 L 158.2 26.3 L 158.2 44.1 L 140.4 44.1 Z M 140.4 26.3 "></path></clipPath><g clip-path="url(#clip0x60000a4a9660)"><path d="M 141.0 43.0 L 157.0 43.0 L 157.0 27.0 L 141.0 27.0 Z M 141.4 43.1 " fill="#54C6E1"></path></g></g><g><clipPath id="clip0x60000a4a98a0"><path d="M 176.9 26.3 L 194.7 26.3 L 194.7 44.1 L 176.9 44.1 Z M 176.9 26.3 "></path></clipPath><g clip-path="url(#clip0x60000a4a98a0)"><path d="M 178.0 43.0 L 194.0 43.0 L 194.0 27.0 L 178.0 27.0 Z M 177.9 43.1 " fill="#62D7AD"></path></g></g><g><clipPath id="clip0x60000a4a9ae0"><path d="M 158.7 26.3 L 176.5 26.3 L 176.5 44.1 L 158.7 44.1 Z M 158.7 26.3 "></path></clipPath><g clip-path="url(#clip0x60000a4a9ae0)"><path d="M 160.0 43.0 L 175.0 43.0 L 175.0 27.0 L 160.0 27.0 Z M 159.7 43.1 " fill="#EDC25F"></path></g></g><g><clipPath id="clip0x60000a4a9d20"><path d="M 887.2 13.7 L 930.3 13.7 L 930.3 56.7 L 887.2 56.7 Z M 887.2 13.7 "></path></clipPath><g clip-path="url(#clip0x60000a4a9d20)"><path d="M 34.2 5.9 C 42.0 13.7 42.0 26.3 34.2 34.2 C 26.3 42.0 13.7 42.0 5.9 34.2 C -2.0 26.3 -2.0 13.7 5.9 5.9 C 13.7 -2.0 26.3 -2.0 34.2 5.9 Z M 34.2 5.9 " fill="none" stroke="#E2E2E2" stroke-width="1.00" transform="matrix(1.00, 0.00, 0.00, -1.00, 888.7, 55.2)"></path></g></g><g><clipPath id="clip0x60000a4a9f60"><path d="M 897.5 20.2 L 920.0 20.2 L 920.0 50.2 L 897.5 50.2 Z M 897.5 20.2 "></path></clipPath><g clip-path="url(#clip0x60000a4a9f60)"></g></g><g><clipPath id="clip0x60000a4aa0e0"><path d="M 938.5 13.7 L 981.5 13.7 L 981.5 56.7 L 938.5 56.7 Z M 938.5 13.7 "></path></clipPath><g clip-path="url(#clip0x60000a4aa0e0)"><path d="M 34.2 5.9 C 42.0 13.7 42.0 26.3 34.2 34.2 C 26.3 42.0 13.7 42.0 5.9 34.2 C -2.0 26.3 -2.0 13.7 5.9 5.9 C 13.7 -2.0 26.3 -2.0 34.2 5.9 Z M 34.2 5.9 " fill="none" stroke="#E2E2E2" stroke-width="1.00" transform="matrix(1.00, 0.00, 0.00, -1.00, 940.0, 55.2)"></path></g></g><g><clipPath id="clip0x60000a4aa320"><path d="M 945.2 20.2 L 974.8 20.2 L 974.8 50.2 L 945.2 50.2 Z M 945.2 20.2 "></path></clipPath><g clip-path="url(#clip0x60000a4aa320)"></g></g><g><clipPath id="clip0x60000a4aa4a0"><path d="M 989.7 13.7 L 1032.8 13.7 L 1032.8 56.7 L 989.7 56.7 Z M 989.7 13.7 "></path></clipPath><g clip-path="url(#clip0x60000a4aa4a0)"><path d="M 34.2 5.9 C 42.0 13.7 42.0 26.3 34.2 34.2 C 26.3 42.0 13.7 42.0 5.9 34.2 C -2.0 26.3 -2.0 13.7 5.9 5.9 C 13.7 -2.0 26.3 -2.0 34.2 5.9 Z M 34.2 5.9 " fill="none" stroke="#E2E2E2" stroke-width="1.00" transform="matrix(1.00, 0.00, 0.00, -1.00, 991.2, 55.2)"></path></g></g><g><clipPath id="clip0x60000a4aa6e0"><path d="M 1000.0 20.2 L 1022.5 20.2 L 1022.5 50.2 L 1000.0 50.2 Z M 1000.0 20.2 "></path></clipPath><g clip-path="url(#clip0x60000a4aa6e0)"></g></g><text xml:space="preserve" font-family="Helvetica,Helvetica" font-size="24.0" fill="#E2E2E2" transform="matrix(1.00, 0.00, -0.00, -1.00, 1845.9, 25.8)">1</text><text xml:space="preserve" font-family="Helvetica,Helvetica" font-size="24.0" fill="#E2E2E2" transform="matrix(1.00, 0.00, -0.00, -1.00, 1859.2, 25.8)">0</text><text xml:space="preserve" font-family="Helvetica,Helvetica" font-size="24.0" fill="#E2E2E2" transform="matrix(1.00, 0.00, -0.00, -1.00, 1872.6, 25.8)">9</text><text xml:space="preserve" font-family="Helvetica,Helvetica" font-size="50.0" fill="#F6F6F6" transform="matrix(1.00, 0.00, -0.00, -1.00, 546.0, 623.8)">A</text><text xml:space="preserve" font-family="Helvetica,Helvetica" font-size="50.0" fill="#F6F6F6" transform="matrix(1.00, 0.00, -0.00, -1.00, 576.6, 623.8)"> </text><text xml:space="preserve" font-family="Helvetica,Helvetica" font-size="50.0" fill="#F6F6F6" transform="matrix(1.00, 0.00, -0.00, -1.00, 590.5, 623.8)">B</text><text xml:space="preserve" font-family="Helvetica,Helvetica" font-size="50.0" fill="#F6F6F6" transform="matrix(1.00, 0.00, -0.00, -1.00, 623.8, 623.8)"> </text><text xml:space="preserve" font-family="Helvetica,Helvetica" font-size="50.0" fill="#F6F6F6" transform="matrix(1.00, 0.00, -0.00, -1.00, 637.7, 623.8)">C</text><text xml:space="preserve" font-family="Helvetica,Helvetica" font-size="50.0" fill="#F6F6F6" transform="matrix(1.00, 0.00, -0.00, -1.00, 673.8, 623.8)"> </text><text xml:space="preserve" font-family="Helvetica,Helvetica" font-size="50.0" fill="#F6F6F6" transform="matrix(1.00, 0.00, -0.00, -1.00, 687.7, 623.8)">D</text><text xml:space="preserve" font-family="Helvetica,Helvetica" font-size="50.0" fill="#F6F6F6" transform="matrix(1.00, 0.00, -0.00, -1.00, 723.8, 623.8)"> </text><text xml:space="preserve" font-family="Helvetica,Helvetica" font-size="50.0" fill="#F6F6F6" transform="matrix(1.00, 0.00, -0.00, -1.00, 737.7, 623.8)">E</text><text xml:space="preserve" font-family="Helvetica,Helvetica" font-size="50.0" fill="#F6F6F6" transform="matrix(1.00, 0.00, -0.00, -1.00, 771.1, 623.8)"> </text><text xml:space="preserve" font-family="Helvetica,Helvetica" font-size="50.0" fill="#F6F6F6" transform="matrix(1.00, 0.00, -0.00, -1.00, 784.9, 623.8)">F</text><text xml:space="preserve" font-family="Helvetica,Helvetica" font-size="50.0" fill="#F6F6F6" transform="matrix(1.00, 0.00, -0.00, -1.00, 815.5, 623.8)"> </text><text xml:space="preserve" font-family="Helvetica,Helvetica" font-size="50.0" fill="#F6F6F6" transform="matrix(1.00, 0.00, -0.00, -1.00, 829.4, 623.8)">G</text><text xml:space="preserve" font-family="Helvetica,Helvetica" font-size="50.0" fill="#F6F6F6" transform="matrix(1.00, 0.00, -0.00, -1.00, 868.2, 623.8)"> </text><text xml:space="preserve" font-family="Helvetica,Helvetica" font-size="50.0" fill="#F6F6F6" transform="matrix(1.00, 0.00, -0.00, -1.00, 882.1, 623.8)">H</text><text xml:space="preserve" font-family="Helvetica,Helvetica" font-size="50.0" fill="#F6F6F6" transform="matrix(1.00, 0.00, -0.00, -1.00, 918.2, 623.8)"> </text><text xml:space="preserve" font-family="Helvetica,Helvetica" font-size="50.0" fill="#F6F6F6" transform="matrix(1.00, 0.00, -0.00, -1.00, 932.1, 623.8)">I</text><text xml:space="preserve" font-family="Helvetica,Helvetica" font-size="50.0" fill="#F6F6F6" transform="matrix(1.00, 0.00, -0.00, -1.00, 946.0, 623.8)"> </text><text xml:space="preserve" font-family="Helvetica,Helvetica" font-size="50.0" fill="#F6F6F6" transform="matrix(1.00, 0.00, -0.00, -1.00, 959.9, 623.8)">J</text><text xml:space="preserve" font-family="Helvetica,Helvetica" font-size="50.0" fill="#F6F6F6" transform="matrix(1.00, 0.00, -0.00, -1.00, 984.9, 623.8)"> </text><text xml:space="preserve" font-family="Helvetica,Helvetica" font-size="50.0" fill="#F6F6F6" transform="matrix(1.00, 0.00, -0.00, -1.00, 998.8, 623.8)">K</text><text xml:space="preserve" font-family="Helvetica,Helvetica" font-size="50.0" fill="#F6F6F6" transform="matrix(1.00, 0.00, -0.00, -1.00, 1032.1, 623.8)"> </text><text xml:space="preserve" font-family="Helvetica,Helvetica" font-size="50.0" fill="#F6F6F6" transform="matrix(1.00, 0.00, -0.00, -1.00, 1046.0, 623.8)">L</text><text xml:space="preserve" font-family="Helvetica,Helvetica" font-size="50.0" fill="#F6F6F6" transform="matrix(1.00, 0.00, -0.00, -1.00, 1072.0, 623.8)"> </text><text xml:space="preserve" font-family="Helvetica,Helvetica" font-size="50.0" fill="#F6F6F6" transform="matrix(1.00, 0.00, -0.00, -1.00, 1085.9, 623.8)">M</text><text xml:space="preserve" font-family="Helvetica,Helvetica" font-size="50.0" fill="#F6F6F6" transform="matrix(1.00, 0.00, -0.00, -1.00, 1127.5, 623.8)"> </text><text xml:space="preserve" font-family="Helvetica,Helvetica" font-size="50.0" fill="#F6F6F6" transform="matrix(1.00, 0.00, -0.00, -1.00, 1141.4, 623.8)">N</text><text xml:space="preserve" font-family="Helvetica,Helvetica" font-size="50.0" fill="#F6F6F6" transform="matrix(1.00, 0.00, -0.00, -1.00, 1177.5, 623.8)"> </text><text xml:space="preserve" font-family="Helvetica,Helvetica" font-size="50.0" fill="#F6F6F6" transform="matrix(1.00, 0.00, -0.00, -1.00, 1191.4, 623.8)">O</text><text xml:space="preserve" font-family="Helvetica,Helvetica" font-size="50.0" fill="#F6F6F6" transform="matrix(1.00, 0.00, -0.00, -1.00, 1230.3, 623.8)"> </text><text xml:space="preserve" font-family="Helvetica,Helvetica" font-size="50.0" fill="#F6F6F6" transform="matrix(1.00, 0.00, -0.00, -1.00, 1244.2, 623.8)">P</text><text xml:space="preserve" font-family="Helvetica,Helvetica" font-size="50.0" fill="#F6F6F6" transform="matrix(1.00, 0.00, -0.00, -1.00, 1276.6, 623.8)"> </text><text xml:space="preserve" font-family="Helvetica,Helvetica" font-size="50.0" fill="#F6F6F6" transform="matrix(1.00, 0.00, -0.00, -1.00, 1290.5, 623.8)">R</text><text xml:space="preserve" font-family="Helvetica,Helvetica" font-size="50.0" fill="#F6F6F6" transform="matrix(1.00, 0.00, -0.00, -1.00, 1326.6, 623.8)"> </text><text xml:space="preserve" font-family="Helvetica,Helvetica" font-size="50.0" fill="#F6F6F6" transform="matrix(1.00, 0.00, -0.00, -1.00, 1340.5, 623.8)">S</text><text xml:space="preserve" font-family="Helvetica,Helvetica" font-size="50.0" fill="#F6F6F6" transform="matrix(1.00, 0.00, -0.00, -1.00, 600.1, 498.2)">T</text><text xml:space="preserve" font-family="Helvetica,Helvetica" font-size="50.0" fill="#F6F6F6" transform="matrix(1.00, 0.00, -0.00, -1.00, 629.7, 498.2)"> </text><text xml:space="preserve" font-family="Helvetica,Helvetica" font-size="50.0" fill="#F6F6F6" transform="matrix(1.00, 0.00, -0.00, -1.00, 643.6, 498.2)">U</text><text xml:space="preserve" font-family="Helvetica,Helvetica" font-size="50.0" fill="#F6F6F6" transform="matrix(1.00, 0.00, -0.00, -1.00, 679.7, 498.2)"> </text><text xml:space="preserve" font-family="Helvetica,Helvetica" font-size="50.0" fill="#F6F6F6" transform="matrix(1.00, 0.00, -0.00, -1.00, 693.6, 498.2)">V</text><text xml:space="preserve" font-family="Helvetica,Helvetica" font-size="50.0" fill="#F6F6F6" transform="matrix(1.00, 0.00, -0.00, -1.00, 727.0, 498.2)"> </text><text xml:space="preserve" font-family="Helvetica,Helvetica" font-size="50.0" fill="#F6F6F6" transform="matrix(1.00, 0.00, -0.00, -1.00, 740.0, 498.2)">Y</text><text xml:space="preserve" font-family="Helvetica,Helvetica" font-size="50.0" fill="#F6F6F6" transform="matrix(1.00, 0.00, -0.00, -1.00, 772.5, 498.2)"> </text><text xml:space="preserve" font-family="Helvetica,Helvetica" font-size="50.0" fill="#F6F6F6" transform="matrix(1.00, 0.00, -0.00, -1.00, 786.3, 498.2)">Z</text><text xml:space="preserve" font-family="Helvetica,Helvetica" font-size="50.0" fill="#F6F6F6" transform="matrix(1.00, 0.00, -0.00, -1.00, 816.9, 498.2)"> </text><text xml:space="preserve" font-family="Helvetica,Helvetica" font-size="50.0" fill="#F6F6F6" transform="matrix(1.00, 0.00, -0.00, -1.00, 830.7, 498.2)">a</text><text xml:space="preserve" font-family="Helvetica,Helvetica" font-size="50.0" fill="#F6F6F6" transform="matrix(1.00, 0.00, -0.00, -1.00, 858.6, 498.2)"> </text><text xml:space="preserve" font-family="Helvetica,Helvetica" font-size="50.0" fill="#F6F6F6" transform="matrix(1.00, 0.00, -0.00, -1.00, 872.4, 498.2)">b</text><text xml:space="preserve" font-family="Helvetica,Helvetica" font-size="50.0" fill="#F6F6F6" transform="matrix(1.00, 0.00, -0.00, -1.00, 900.3, 498.2)"> </text><text xml:space="preserve" font-family="Helvetica,Helvetica" font-size="50.0" fill="#F6F6F6" transform="matrix(1.00, 0.00, -0.00, -1.00, 914.1, 498.2)">c</text><text xml:space="preserve" font-family="Helvetica,Helvetica" font-size="50.0" fill="#F6F6F6" transform="matrix(1.00, 0.00, -0.00, -1.00, 939.1, 498.2)"> </text><text xml:space="preserve" font-family="Helvetica,Helvetica" font-size="50.0" fill="#F6F6F6" transform="matrix(1.00, 0.00, -0.00, -1.00, 953.0, 498.2)">d</text><text xml:space="preserve" font-family="Helvetica,Helvetica" font-size="50.0" fill="#F6F6F6" transform="matrix(1.00, 0.00, -0.00, -1.00, 980.8, 498.2)"> </text><text xml:space="preserve" font-family="Helvetica,Helvetica" font-size="50.0" fill="#F6F6F6" transform="matrix(1.00, 0.00, -0.00, -1.00, 994.7, 498.2)">e</text><text xml:space="preserve" font-family="Helvetica,Helvetica" font-size="50.0" fill="#F6F6F6" transform="matrix(1.00, 0.00, -0.00, -1.00, 1022.5, 498.2)"> </text><text xml:space="preserve" font-family="Helvetica,Helvetica" font-size="50.0" fill="#F6F6F6" transform="matrix(1.00, 0.00, -0.00, -1.00, 1036.4, 498.2)">f</text><text xml:space="preserve" font-family="Helvetica,Helvetica" font-size="50.0" fill="#F6F6F6" transform="matrix(1.00, 0.00, -0.00, -1.00, 1050.3, 498.2)"> </text><text xml:space="preserve" font-family="Helvetica,Helvetica" font-size="50.0" fill="#F6F6F6" transform="matrix(1.00, 0.00, -0.00, -1.00, 1064.2, 498.2)">g</text><text xml:space="preserve" font-family="Helvetica,Helvetica" font-size="50.0" fill="#F6F6F6" transform="matrix(1.00, 0.00, -0.00, -1.00, 1092.0, 498.2)"> </text><text xml:space="preserve" font-family="Helvetica,Helvetica" font-size="50.0" fill="#F6F6F6" transform="matrix(1.00, 0.00, -0.00, -1.00, 1105.9, 498.2)">h</text><text xml:space="preserve" font-family="Helvetica,Helvetica" font-size="50.0" fill="#F6F6F6" transform="matrix(1.00, 0.00, -0.00, -1.00, 1133.7, 498.2)"> </text><text xml:space="preserve" font-family="Helvetica,Helvetica" font-size="50.0" fill="#F6F6F6" transform="matrix(1.00, 0.00, -0.00, -1.00, 1147.6, 498.2)">i</text><text xml:space="preserve" font-family="Helvetica,Helvetica" font-size="50.0" fill="#F6F6F6" transform="matrix(1.00, 0.00, -0.00, -1.00, 1158.7, 498.2)"> </text><text xml:space="preserve" font-family="Helvetica,Helvetica" font-size="50.0" fill="#F6F6F6" transform="matrix(1.00, 0.00, -0.00, -1.00, 1172.6, 498.2)">k</text><text xml:space="preserve" font-family="Helvetica,Helvetica" font-size="50.0" fill="#F6F6F6" transform="matrix(1.00, 0.00, -0.00, -1.00, 1197.6, 498.2)"> </text><text xml:space="preserve" font-family="Helvetica,Helvetica" font-size="50.0" fill="#F6F6F6" transform="matrix(1.00, 0.00, -0.00, -1.00, 1211.5, 498.2)">l</text><text xml:space="preserve" font-family="Helvetica,Helvetica" font-size="50.0" fill="#F6F6F6" transform="matrix(1.00, 0.00, -0.00, -1.00, 1222.6, 498.2)"> </text><text xml:space="preserve" font-family="Helvetica,Helvetica" font-size="50.0" fill="#F6F6F6" transform="matrix(1.00, 0.00, -0.00, -1.00, 1236.5, 498.2)">m</text><text xml:space="preserve" font-family="Helvetica,Helvetica" font-size="50.0" fill="#F6F6F6" transform="matrix(1.00, 0.00, -0.00, -1.00, 1278.1, 498.2)"> </text><text xml:space="preserve" font-family="Helvetica,Helvetica" font-size="50.0" fill="#F6F6F6" transform="matrix(1.00, 0.00, -0.00, -1.00, 1292.0, 498.2)">n</text><text xml:space="preserve" font-family="Helvetica,Helvetica" font-size="50.0" fill="#F6F6F6" transform="matrix(1.00, 0.00, -0.00, -1.00, 1319.8, 498.2)"> </text><text xml:space="preserve" font-family="Helvetica,Helvetica" font-size="50.0" fill="#F6F6F6" transform="matrix(1.00, 0.00, -0.00, -1.00, 1333.7, 498.2)"> </text><text xml:space="preserve" font-family="Helvetica,Helvetica" font-size="50.0" fill="#F6F6F6" transform="matrix(1.00, 0.00, -0.00, -1.00, 620.6, 372.5)">o</text><text xml:space="preserve" font-family="Helvetica,Helvetica" font-size="50.0" fill="#F6F6F6" transform="matrix(1.00, 0.00, -0.00, -1.00, 648.4, 372.5)"> </text><text xml:space="preserve" font-family="Helvetica,Helvetica" font-size="50.0" fill="#F6F6F6" transform="matrix(1.00, 0.00, -0.00, -1.00, 662.3, 372.5)">p</text><text xml:space="preserve" font-family="Helvetica,Helvetica" font-size="50.0" fill="#F6F6F6" transform="matrix(1.00, 0.00, -0.00, -1.00, 690.1, 372.5)"> </text><text xml:space="preserve" font-family="Helvetica,Helvetica" font-size="50.0" fill="#F6F6F6" transform="matrix(1.00, 0.00, -0.00, -1.00, 704.0, 372.5)">r</text><text xml:space="preserve" font-family="Helvetica,Helvetica" font-size="50.0" fill="#F6F6F6" transform="matrix(1.00, 0.00, -0.00, -1.00, 720.6, 372.5)"> </text><text xml:space="preserve" font-family="Helvetica,Helvetica" font-size="50.0" fill="#F6F6F6" transform="matrix(1.00, 0.00, -0.00, -1.00, 734.5, 372.5)">s</text><text xml:space="preserve" font-family="Helvetica,Helvetica" font-size="50.0" fill="#F6F6F6" transform="matrix(1.00, 0.00, -0.00, -1.00, 759.5, 372.5)"> </text><text xml:space="preserve" font-family="Helvetica,Helvetica" font-size="50.0" fill="#F6F6F6" transform="matrix(1.00, 0.00, -0.00, -1.00, 773.4, 372.5)">t</text><text xml:space="preserve" font-family="Helvetica,Helvetica" font-size="50.0" fill="#F6F6F6" transform="matrix(1.00, 0.00, -0.00, -1.00, 787.3, 372.5)"> </text><text xml:space="preserve" font-family="Helvetica,Helvetica" font-size="50.0" fill="#F6F6F6" transform="matrix(1.00, 0.00, -0.00, -1.00, 801.2, 372.5)">u</text><text xml:space="preserve" font-family="Helvetica,Helvetica" font-size="50.0" fill="#F6F6F6" transform="matrix(1.00, 0.00, -0.00, -1.00, 829.0, 372.5)"> </text><text xml:space="preserve" font-family="Helvetica,Helvetica" font-size="50.0" fill="#F6F6F6" transform="matrix(1.00, 0.00, -0.00, -1.00, 842.9, 372.5)">v</text><text xml:space="preserve" font-family="Helvetica,Helvetica" font-size="50.0" fill="#F6F6F6" transform="matrix(1.00, 0.00, -0.00, -1.00, 867.9, 372.5)"> </text><text xml:space="preserve" font-family="Helvetica,Helvetica" font-size="50.0" fill="#F6F6F6" transform="matrix(1.00, 0.00, -0.00, -1.00, 881.7, 372.5)">y</text><text xml:space="preserve" font-family="Helvetica,Helvetica" font-size="50.0" fill="#F6F6F6" transform="matrix(1.00, 0.00, -0.00, -1.00, 906.7, 372.5)"> </text><text xml:space="preserve" font-family="Helvetica,Helvetica" font-size="50.0" fill="#F6F6F6" transform="matrix(1.00, 0.00, -0.00, -1.00, 920.6, 372.5)">w</text><text xml:space="preserve" font-family="Helvetica,Helvetica" font-size="50.0" fill="#F6F6F6" transform="matrix(1.00, 0.00, -0.00, -1.00, 956.7, 372.5)"> </text><text xml:space="preserve" font-family="Helvetica,Helvetica" font-size="50.0" fill="#F6F6F6" transform="matrix(1.00, 0.00, -0.00, -1.00, 970.6, 372.5)">1</text><text xml:space="preserve" font-family="Helvetica,Helvetica" font-size="50.0" fill="#F6F6F6" transform="matrix(1.00, 0.00, -0.00, -1.00, 998.4, 372.5)"> </text><text xml:space="preserve" font-family="Helvetica,Helvetica" font-size="50.0" fill="#F6F6F6" transform="matrix(1.00, 0.00, -0.00, -1.00, 1012.3, 372.5)">2</text><text xml:space="preserve" font-family="Helvetica,Helvetica" font-size="50.0" fill="#F6F6F6" transform="matrix(1.00, 0.00, -0.00, -1.00, 1040.1, 372.5)"> </text><text xml:space="preserve" font-family="Helvetica,Helvetica" font-size="50.0" fill="#F6F6F6" transform="matrix(1.00, 0.00, -0.00, -1.00, 1054.0, 372.5)">3</text><text xml:space="preserve" font-family="Helvetica,Helvetica" font-size="50.0" fill="#F6F6F6" transform="matrix(1.00, 0.00, -0.00, -1.00, 1081.8, 372.5)"> </text><text xml:space="preserve" font-family="Helvetica,Helvetica" font-size="50.0" fill="#F6F6F6" transform="matrix(1.00, 0.00, -0.00, -1.00, 1095.7, 372.5)">4</text><text xml:space="preserve" font-family="Helvetica,Helvetica" font-size="50.0" fill="#F6F6F6" transform="matrix(1.00, 0.00, -0.00, -1.00, 1123.5, 372.5)"> </text><text xml:space="preserve" font-family="Helvetica,Helvetica" font-size="50.0" fill="#F6F6F6" transform="matrix(1.00, 0.00, -0.00, -1.00, 1137.4, 372.5)">5</text><text xml:space="preserve" font-family="Helvetica,Helvetica" font-size="50.0" fill="#F6F6F6" transform="matrix(1.00, 0.00, -0.00, -1.00, 1165.2, 372.5)"> </text><text xml:space="preserve" font-family="Helvetica,Helvetica" font-size="50.0" fill="#F6F6F6" transform="matrix(1.00, 0.00, -0.00, -1.00, 1179.1, 372.5)">8</text><text xml:space="preserve" font-family="Helvetica,Helvetica" font-size="50.0" fill="#F6F6F6" transform="matrix(1.00, 0.00, -0.00, -1.00, 1206.9, 372.5)"> </text><text xml:space="preserve" font-family="Helvetica,Helvetica" font-size="50.0" fill="#F6F6F6" transform="matrix(1.00, 0.00, -0.00, -1.00, 1220.8, 372.5)">@</text><text xml:space="preserve" font-family="Helvetica,Helvetica" font-size="50.0" fill="#F6F6F6" transform="matrix(1.00, 0.00, -0.00, -1.00, 1271.6, 372.5)"> </text><text xml:space="preserve" font-family="Helvetica,Helvetica" font-size="50.0" fill="#F6F6F6" transform="matrix(1.00, 0.00, -0.00, -1.00, 1285.5, 372.5)">!</text></g></svg>