<?xml version="1.0" encoding="UTF-8" standalone="no"?><svg xmlns="http://www.w3.org/2000/svg" xmlns:xlink="http://www.w3.org/1999/xlink" clip-rule="evenodd" stroke-miterlimit="10" viewBox="0 0 1165 579"><desc>SVG generated by Keynote</desc><defs></defs><g transform="matrix(1.00, 0.00, -0.00, -1.00, 0.0, 579.0)"><path d="M 58.0 536.7 L 1098.0 536.7 " fill="none" stroke="#677188" stroke-width="1.00" transform="matrix(1.00, 0.00, 0.00, -1.00, 1.0, 577.2)"></path><path d="M 58.0 409.7 L 1098.0 409.7 " fill="none" stroke="#677188" stroke-width="1.00" transform="matrix(1.00, 0.00, 0.00, -1.00, 1.0, 577.2)"></path><path d="M 58.0 282.7 L 1098.0 282.7 " fill="none" stroke="#677188" stroke-width="1.00" transform="matrix(1.00, 0.00, 0.00, -1.00, 1.0, 577.2)"></path><path d="M 58.0 155.7 L 1098.0 155.7 " fill="none" stroke="#677188" stroke-width="1.00" transform="matrix(1.00, 0.00, 0.00, -1.00, 1.0, 577.2)"></path><path d="M 58.0 28.7 L 1098.0 28.7 " fill="none" stroke="#677188" stroke-width="1.00" transform="matrix(1.00, 0.00, 0.00, -1.00, 1.0, 577.2)"></path><g><clipPath id="clip0x6000054bd460"><path d="M 1148.5 24.7 L 1164.8 24.7 L 1164.8 55.7 L 1148.5 55.7 Z M 1148.5 24.7 "></path></clipPath><g clip-path="url(#clip0x6000054bd460)"><text xml:space="preserve" font-family="Helvetica,Helvetica" font-size="24.0" fill="#E2E2E2" transform="matrix(1.00, 0.00, -0.00, -1.00, 1150.0, 31.2)">0</text></g></g><g><clipPath id="clip0x6000054bd580"><path d="M 1115.1 151.7 L 1164.8 151.7 L 1164.8 182.7 L 1115.1 182.7 Z M 1115.1 151.7 "></path></clipPath><g clip-path="url(#clip0x6000054bd580)"><text xml:space="preserve" font-family="Helvetica,Helvetica" font-size="24.0" fill="#E2E2E2" transform="matrix(1.00, 0.00, -0.00, -1.00, 1116.6, 158.2)">1</text><text xml:space="preserve" font-family="Helvetica,Helvetica" font-size="24.0" fill="#E2E2E2" transform="matrix(1.00, 0.00, -0.00, -1.00, 1129.9, 158.2)">7</text><text xml:space="preserve" font-family="Helvetica,Helvetica" font-size="24.0" fill="#E2E2E2" transform="matrix(1.00, 0.00, -0.00, -1.00, 1143.3, 158.2)">.</text><text xml:space="preserve" font-family="Helvetica,Helvetica" font-size="24.0" fill="#E2E2E2" transform="matrix(1.00, 0.00, -0.00, -1.00, 1150.0, 158.2)">5</text></g></g><g><clipPath id="clip0x6000054bdbe0"><path d="M 1135.1 278.7 L 1164.8 278.7 L 1164.8 309.7 L 1135.1 309.7 Z M 1135.1 278.7 "></path></clipPath><g clip-path="url(#clip0x6000054bdbe0)"><text xml:space="preserve" font-family="Helvetica,Helvetica" font-size="24.0" fill="#E2E2E2" transform="matrix(1.00, 0.00, -0.00, -1.00, 1136.6, 285.2)">3</text><text xml:space="preserve" font-family="Helvetica,Helvetica" font-size="24.0" fill="#E2E2E2" transform="matrix(1.00, 0.00, -0.00, -1.00, 1150.0, 285.2)">5</text></g></g><g><clipPath id="clip0x6000054bde80"><path d="M 1115.1 405.7 L 1164.8 405.7 L 1164.8 436.7 L 1115.1 436.7 Z M 1115.1 405.7 "></path></clipPath><g clip-path="url(#clip0x6000054bde80)"><text xml:space="preserve" font-family="Helvetica,Helvetica" font-size="24.0" fill="#E2E2E2" transform="matrix(1.00, 0.00, -0.00, -1.00, 1116.6, 412.2)">5</text><text xml:space="preserve" font-family="Helvetica,Helvetica" font-size="24.0" fill="#E2E2E2" transform="matrix(1.00, 0.00, -0.00, -1.00, 1129.9, 412.2)">2</text><text xml:space="preserve" font-family="Helvetica,Helvetica" font-size="24.0" fill="#E2E2E2" transform="matrix(1.00, 0.00, -0.00, -1.00, 1143.3, 412.2)">.</text><text xml:space="preserve" font-family="Helvetica,Helvetica" font-size="24.0" fill="#E2E2E2" transform="matrix(1.00, 0.00, -0.00, -1.00, 1150.0, 412.2)">5</text></g></g><g><clipPath id="clip0x6000054be1e0"><path d="M 1135.1 532.7 L 1164.8 532.7 L 1164.8 563.7 L 1135.1 563.7 Z M 1135.1 532.7 "></path></clipPath><g clip-path="url(#clip0x6000054be1e0)"><text xml:space="preserve" font-family="Helvetica,Helvetica" font-size="24.0" fill="#E2E2E2" transform="matrix(1.00, 0.00, -0.00, -1.00, 1136.6, 539.2)">7</text><text xml:space="preserve" font-family="Helvetica,Helvetica" font-size="24.0" fill="#E2E2E2" transform="matrix(1.00, 0.00, -0.00, -1.00, 1150.0, 539.2)">0</text></g></g><g><clipPath id="clip0x6000054be480"><path d="M 26.7 24.7 L 43.1 24.7 L 43.1 55.7 L 26.7 55.7 Z M 26.7 24.7 "></path></clipPath><g clip-path="url(#clip0x6000054be480)"><text xml:space="preserve" font-family="Helvetica,Helvetica" font-size="24.0" fill="#E2E2E2" transform="matrix(1.00, 0.00, -0.00, -1.00, 28.2, 31.2)">0</text></g></g><g><clipPath id="clip0x6000054be6c0"><path d="M 13.4 151.7 L 43.1 151.7 L 43.1 182.7 L 13.4 182.7 Z M 13.4 151.7 "></path></clipPath><g clip-path="url(#clip0x6000054be6c0)"><text xml:space="preserve" font-family="Helvetica,Helvetica" font-size="24.0" fill="#E2E2E2" transform="matrix(1.00, 0.00, -0.00, -1.00, 14.9, 158.2)">2</text><text xml:space="preserve" font-family="Helvetica,Helvetica" font-size="24.0" fill="#E2E2E2" transform="matrix(1.00, 0.00, -0.00, -1.00, 28.2, 158.2)">5</text></g></g><g><clipPath id="clip0x6000054be960"><path d="M 13.4 278.7 L 43.1 278.7 L 43.1 309.7 L 13.4 309.7 Z M 13.4 278.7 "></path></clipPath><g clip-path="url(#clip0x6000054be960)"><text xml:space="preserve" font-family="Helvetica,Helvetica" font-size="24.0" fill="#E2E2E2" transform="matrix(1.00, 0.00, -0.00, -1.00, 14.9, 285.2)">5</text><text xml:space="preserve" font-family="Helvetica,Helvetica" font-size="24.0" fill="#E2E2E2" transform="matrix(1.00, 0.00, -0.00, -1.00, 28.2, 285.2)">0</text></g></g><g><clipPath id="clip0x6000054bec00"><path d="M 13.4 405.7 L 43.1 405.7 L 43.1 436.7 L 13.4 436.7 Z M 13.4 405.7 "></path></clipPath><g clip-path="url(#clip0x6000054bec00)"><text xml:space="preserve" font-family="Helvetica,Helvetica" font-size="24.0" fill="#E2E2E2" transform="matrix(1.00, 0.00, -0.00, -1.00, 14.9, 412.2)">7</text><text xml:space="preserve" font-family="Helvetica,Helvetica" font-size="24.0" fill="#E2E2E2" transform="matrix(1.00, 0.00, -0.00, -1.00, 28.2, 412.2)">5</text></g></g><g><clipPath id="clip0x6000054beea0"><path d="M 0.0 532.7 L 43.1 532.7 L 43.1 563.7 L 0.0 563.7 Z M 0.0 532.7 "></path></clipPath><g clip-path="url(#clip0x6000054beea0)"><text xml:space="preserve" font-family="Helvetica,Helvetica" font-size="24.0" fill="#E2E2E2" transform="matrix(1.00, 0.00, -0.00, -1.00, 1.5, 539.2)">1</text><text xml:space="preserve" font-family="Helvetica,Helvetica" font-size="24.0" fill="#E2E2E2" transform="matrix(1.00, 0.00, -0.00, -1.00, 14.9, 539.2)">0</text><text xml:space="preserve" font-family="Helvetica,Helvetica" font-size="24.0" fill="#E2E2E2" transform="matrix(1.00, 0.00, -0.00, -1.00, 28.3, 539.2)">0</text></g></g><g><clipPath id="clip0x6000054bf1a0"><path d="M 81.6 0.2 L 123.3 0.2 L 123.3 31.2 L 81.6 31.2 Z M 81.6 0.2 "></path></clipPath><g clip-path="url(#clip0x6000054bf1a0)"><text xml:space="preserve" font-family="Helvetica,Helvetica" font-size="24.0" fill="#E2E2E2" transform="matrix(1.00, 0.00, -0.00, -1.00, 83.1, 6.7)">J</text><text xml:space="preserve" font-family="Helvetica,Helvetica" font-size="24.0" fill="#E2E2E2" transform="matrix(1.00, 0.00, -0.00, -1.00, 95.1, 6.7)">a</text><text xml:space="preserve" font-family="Helvetica,Helvetica" font-size="24.0" fill="#E2E2E2" transform="matrix(1.00, 0.00, -0.00, -1.00, 108.4, 6.7)">n</text></g></g><g><clipPath id="clip0x6000054bf4a0"><path d="M 166.9 0.2 L 211.3 0.2 L 211.3 31.2 L 166.9 31.2 Z M 166.9 0.2 "></path></clipPath><g clip-path="url(#clip0x6000054bf4a0)"><text xml:space="preserve" font-family="Helvetica,Helvetica" font-size="24.0" fill="#E2E2E2" transform="matrix(1.00, 0.00, -0.00, -1.00, 168.4, 6.7)">F</text><text xml:space="preserve" font-family="Helvetica,Helvetica" font-size="24.0" fill="#E2E2E2" transform="matrix(1.00, 0.00, -0.00, -1.00, 183.1, 6.7)">e</text><text xml:space="preserve" font-family="Helvetica,Helvetica" font-size="24.0" fill="#E2E2E2" transform="matrix(1.00, 0.00, -0.00, -1.00, 196.4, 6.7)">b</text></g></g><g><clipPath id="clip0x6000054bf7a0"><path d="M 253.6 0.2 L 297.9 0.2 L 297.9 31.2 L 253.6 31.2 Z M 253.6 0.2 "></path></clipPath><g clip-path="url(#clip0x6000054bf7a0)"><text xml:space="preserve" font-family="Helvetica,Helvetica" font-size="24.0" fill="#E2E2E2" transform="matrix(1.00, 0.00, -0.00, -1.00, 255.1, 6.7)">M</text><text xml:space="preserve" font-family="Helvetica,Helvetica" font-size="24.0" fill="#E2E2E2" transform="matrix(1.00, 0.00, -0.00, -1.00, 275.1, 6.7)">a</text><text xml:space="preserve" font-family="Helvetica,Helvetica" font-size="24.0" fill="#E2E2E2" transform="matrix(1.00, 0.00, -0.00, -1.00, 288.4, 6.7)">r</text></g></g><g><clipPath id="clip0x6000054bfaa0"><path d="M 342.3 0.2 L 382.6 0.2 L 382.6 31.2 L 342.3 31.2 Z M 342.3 0.2 "></path></clipPath><g clip-path="url(#clip0x6000054bfaa0)"><text xml:space="preserve" font-family="Helvetica,Helvetica" font-size="24.0" fill="#E2E2E2" transform="matrix(1.00, 0.00, -0.00, -1.00, 343.8, 6.7)">A</text><text xml:space="preserve" font-family="Helvetica,Helvetica" font-size="24.0" fill="#E2E2E2" transform="matrix(1.00, 0.00, -0.00, -1.00, 359.8, 6.7)">p</text><text xml:space="preserve" font-family="Helvetica,Helvetica" font-size="24.0" fill="#E2E2E2" transform="matrix(1.00, 0.00, -0.00, -1.00, 373.1, 6.7)">r</text></g></g><g><clipPath id="clip0x6000054bfda0"><path d="M 424.9 0.2 L 473.3 0.2 L 473.3 31.2 L 424.9 31.2 Z M 424.9 0.2 "></path></clipPath><g clip-path="url(#clip0x6000054bfda0)"><text xml:space="preserve" font-family="Helvetica,Helvetica" font-size="24.0" fill="#E2E2E2" transform="matrix(1.00, 0.00, -0.00, -1.00, 426.4, 6.7)">M</text><text xml:space="preserve" font-family="Helvetica,Helvetica" font-size="24.0" fill="#E2E2E2" transform="matrix(1.00, 0.00, -0.00, -1.00, 446.4, 6.7)">a</text><text xml:space="preserve" font-family="Helvetica,Helvetica" font-size="24.0" fill="#E2E2E2" transform="matrix(1.00, 0.00, -0.00, -1.00, 459.8, 6.7)">y</text></g></g><g><clipPath id="clip0x6000056a00c0"><path d="M 514.9 0.2 L 556.6 0.2 L 556.6 31.2 L 514.9 31.2 Z M 514.9 0.2 "></path></clipPath><g clip-path="url(#clip0x6000056a00c0)"><text xml:space="preserve" font-family="Helvetica,Helvetica" font-size="24.0" fill="#E2E2E2" transform="matrix(1.00, 0.00, -0.00, -1.00, 516.4, 6.7)">J</text><text xml:space="preserve" font-family="Helvetica,Helvetica" font-size="24.0" fill="#E2E2E2" transform="matrix(1.00, 0.00, -0.00, -1.00, 528.4, 6.7)">u</text><text xml:space="preserve" font-family="Helvetica,Helvetica" font-size="24.0" fill="#E2E2E2" transform="matrix(1.00, 0.00, -0.00, -1.00, 541.8, 6.7)">n</text></g></g><g><clipPath id="clip0x6000056a03c0"><path d="M 605.6 0.2 L 639.3 0.2 L 639.3 31.2 L 605.6 31.2 Z M 605.6 0.2 "></path></clipPath><g clip-path="url(#clip0x6000056a03c0)"><text xml:space="preserve" font-family="Helvetica,Helvetica" font-size="24.0" fill="#E2E2E2" transform="matrix(1.00, 0.00, -0.00, -1.00, 607.1, 6.7)">J</text><text xml:space="preserve" font-family="Helvetica,Helvetica" font-size="24.0" fill="#E2E2E2" transform="matrix(1.00, 0.00, -0.00, -1.00, 619.1, 6.7)">u</text><text xml:space="preserve" font-family="Helvetica,Helvetica" font-size="24.0" fill="#E2E2E2" transform="matrix(1.00, 0.00, -0.00, -1.00, 632.4, 6.7)">l</text></g></g><g><clipPath id="clip0x6000056a06c0"><path d="M 686.2 0.2 L 731.9 0.2 L 731.9 31.2 L 686.2 31.2 Z M 686.2 0.2 "></path></clipPath><g clip-path="url(#clip0x6000056a06c0)"><text xml:space="preserve" font-family="Helvetica,Helvetica" font-size="24.0" fill="#E2E2E2" transform="matrix(1.00, 0.00, -0.00, -1.00, 687.7, 6.7)">A</text><text xml:space="preserve" font-family="Helvetica,Helvetica" font-size="24.0" fill="#E2E2E2" transform="matrix(1.00, 0.00, -0.00, -1.00, 703.7, 6.7)">u</text><text xml:space="preserve" font-family="Helvetica,Helvetica" font-size="24.0" fill="#E2E2E2" transform="matrix(1.00, 0.00, -0.00, -1.00, 717.1, 6.7)">g</text></g></g><g><clipPath id="clip0x6000056a09c0"><path d="M 772.9 0.2 L 818.6 0.2 L 818.6 31.2 L 772.9 31.2 Z M 772.9 0.2 "></path></clipPath><g clip-path="url(#clip0x6000056a09c0)"><text xml:space="preserve" font-family="Helvetica,Helvetica" font-size="24.0" fill="#E2E2E2" transform="matrix(1.00, 0.00, -0.00, -1.00, 774.4, 6.7)">S</text><text xml:space="preserve" font-family="Helvetica,Helvetica" font-size="24.0" fill="#E2E2E2" transform="matrix(1.00, 0.00, -0.00, -1.00, 790.4, 6.7)">e</text><text xml:space="preserve" font-family="Helvetica,Helvetica" font-size="24.0" fill="#E2E2E2" transform="matrix(1.00, 0.00, -0.00, -1.00, 803.8, 6.7)">p</text></g></g><g><clipPath id="clip0x6000056a0cc0"><path d="M 862.3 0.2 L 902.6 0.2 L 902.6 31.2 L 862.3 31.2 Z M 862.3 0.2 "></path></clipPath><g clip-path="url(#clip0x6000056a0cc0)"><text xml:space="preserve" font-family="Helvetica,Helvetica" font-size="24.0" fill="#E2E2E2" transform="matrix(1.00, 0.00, -0.00, -1.00, 863.8, 6.7)">O</text><text xml:space="preserve" font-family="Helvetica,Helvetica" font-size="24.0" fill="#E2E2E2" transform="matrix(1.00, 0.00, -0.00, -1.00, 882.4, 6.7)">c</text><text xml:space="preserve" font-family="Helvetica,Helvetica" font-size="24.0" fill="#E2E2E2" transform="matrix(1.00, 0.00, -0.00, -1.00, 894.4, 6.7)">t</text></g></g><g><clipPath id="clip0x6000056a0fc0"><path d="M 946.3 0.2 L 991.9 0.2 L 991.9 31.2 L 946.3 31.2 Z M 946.3 0.2 "></path></clipPath><g clip-path="url(#clip0x6000056a0fc0)"><text xml:space="preserve" font-family="Helvetica,Helvetica" font-size="24.0" fill="#E2E2E2" transform="matrix(1.00, 0.00, -0.00, -1.00, 947.8, 6.7)">N</text><text xml:space="preserve" font-family="Helvetica,Helvetica" font-size="24.0" fill="#E2E2E2" transform="matrix(1.00, 0.00, -0.00, -1.00, 965.1, 6.7)">o</text><text xml:space="preserve" font-family="Helvetica,Helvetica" font-size="24.0" fill="#E2E2E2" transform="matrix(1.00, 0.00, -0.00, -1.00, 978.4, 6.7)">v</text></g></g><g><clipPath id="clip0x6000056a12c0"><path d="M 1032.9 0.2 L 1078.6 0.2 L 1078.6 31.2 L 1032.9 31.2 Z M 1032.9 0.2 "></path></clipPath><g clip-path="url(#clip0x6000056a12c0)"><text xml:space="preserve" font-family="Helvetica,Helvetica" font-size="24.0" fill="#E2E2E2" transform="matrix(1.00, 0.00, -0.00, -1.00, 1034.4, 6.7)">D</text><text xml:space="preserve" font-family="Helvetica,Helvetica" font-size="24.0" fill="#E2E2E2" transform="matrix(1.00, 0.00, -0.00, -1.00, 1051.8, 6.7)">e</text><text xml:space="preserve" font-family="Helvetica,Helvetica" font-size="24.0" fill="#E2E2E2" transform="matrix(1.00, 0.00, -0.00, -1.00, 1065.1, 6.7)">c</text></g></g><g><clipPath id="clip0x6000056a15c0"><path d="M 59.1 40.2 L 1099.1 40.2 L 1099.1 548.2 L 59.1 548.2 Z M 59.1 40.2 "></path></clipPath><g clip-path="url(#clip0x6000056a15c0)"><path d="M 66.0 439.0 L 139.0 439.0 L 139.0 41.0 L 66.0 41.0 Z M 66.0 439.0 " fill="#62D7AD"></path></g></g><g><clipPath id="clip0x6000056a1800"><path d="M 59.1 40.2 L 1099.1 40.2 L 1099.1 548.2 L 59.1 548.2 Z M 59.1 40.2 "></path></clipPath><g clip-path="url(#clip0x6000056a1800)"><path d="M 153.0 352.0 L 225.0 352.0 L 225.0 41.0 L 153.0 41.0 Z M 153.0 352.0 " fill="#62D7AD"></path></g></g><g><clipPath id="clip0x6000056a1a40"><path d="M 59.1 40.2 L 1099.1 40.2 L 1099.1 548.2 L 59.1 548.2 Z M 59.1 40.2 "></path></clipPath><g clip-path="url(#clip0x6000056a1a40)"><path d="M 240.0 548.0 L 312.0 548.0 L 312.0 41.0 L 240.0 41.0 Z M 240.0 548.0 " fill="#62D7AD"></path></g></g><g><clipPath id="clip0x6000056a1c80"><path d="M 59.1 40.2 L 1099.1 40.2 L 1099.1 548.2 L 59.1 548.2 Z M 59.1 40.2 "></path></clipPath><g clip-path="url(#clip0x6000056a1c80)"><path d="M 326.0 461.0 L 399.0 461.0 L 399.0 41.0 L 326.0 41.0 Z M 326.0 461.0 " fill="#62D7AD"></path></g></g><g><clipPath id="clip0x6000056a1ec0"><path d="M 59.1 40.2 L 1099.1 40.2 L 1099.1 548.2 L 59.1 548.2 Z M 59.1 40.2 "></path></clipPath><g clip-path="url(#clip0x6000056a1ec0)"><path d="M 413.0 258.0 L 485.0 258.0 L 485.0 41.0 L 413.0 41.0 Z M 413.0 258.0 " fill="#62D7AD"></path></g></g><g><clipPath id="clip0x6000056a2100"><path d="M 59.1 40.2 L 1099.1 40.2 L 1099.1 548.2 L 59.1 548.2 Z M 59.1 40.2 "></path></clipPath><g clip-path="url(#clip0x6000056a2100)"><path d="M 500.0 330.0 L 572.0 330.0 L 572.0 41.0 L 500.0 41.0 Z M 500.0 330.0 " fill="#62D7AD"></path></g></g><g><clipPath id="clip0x6000056a2340"><path d="M 59.1 40.2 L 1099.1 40.2 L 1099.1 548.2 L 59.1 548.2 Z M 59.1 40.2 "></path></clipPath><g clip-path="url(#clip0x6000056a2340)"><path d="M 586.0 287.0 L 659.0 287.0 L 659.0 41.0 L 586.0 41.0 Z M 586.0 287.0 " fill="#62D7AD"></path></g></g><g><clipPath id="clip0x6000056a2580"><path d="M 59.1 40.2 L 1099.1 40.2 L 1099.1 548.2 L 59.1 548.2 Z M 59.1 40.2 "></path></clipPath><g clip-path="url(#clip0x6000056a2580)"><path d="M 673.0 345.0 L 745.0 345.0 L 745.0 41.0 L 673.0 41.0 Z M 673.0 345.0 " fill="#62D7AD"></path></g></g><g><clipPath id="clip0x6000056a27c0"><path d="M 59.1 40.2 L 1099.1 40.2 L 1099.1 548.2 L 59.1 548.2 Z M 59.1 40.2 "></path></clipPath><g clip-path="url(#clip0x6000056a27c0)"><path d="M 760.0 185.0 L 832.0 185.0 L 832.0 41.0 L 760.0 41.0 Z M 760.0 185.0 " fill="#62D7AD"></path></g></g><g><clipPath id="clip0x6000056a2a00"><path d="M 59.1 40.2 L 1099.1 40.2 L 1099.1 548.2 L 59.1 548.2 Z M 59.1 40.2 "></path></clipPath><g clip-path="url(#clip0x6000056a2a00)"><path d="M 846.0 432.0 L 919.0 432.0 L 919.0 41.0 L 846.0 41.0 Z M 846.0 432.0 " fill="#62D7AD"></path></g></g><g><clipPath id="clip0x6000056a2c40"><path d="M 59.1 40.2 L 1099.1 40.2 L 1099.1 548.2 L 59.1 548.2 Z M 59.1 40.2 "></path></clipPath><g clip-path="url(#clip0x6000056a2c40)"><path d="M 933.0 490.0 L 1005.0 490.0 L 1005.0 41.0 L 933.0 41.0 Z M 933.0 490.0 " fill="#62D7AD"></path></g></g><g><clipPath id="clip0x6000056a2e80"><path d="M 59.1 40.2 L 1099.1 40.2 L 1099.1 548.2 L 59.1 548.2 Z M 59.1 40.2 "></path></clipPath><g clip-path="url(#clip0x6000056a2e80)"><path d="M 1020.0 396.0 L 1092.0 396.0 L 1092.0 41.0 L 1020.0 41.0 Z M 1020.0 396.0 " fill="#62D7AD"></path></g></g><g><g><clipPath id="clip0x6000056a3120"><path d="M 55.5 36.6 L 1102.7 36.6 L 1102.7 551.8 L 55.5 551.8 Z M 55.5 36.6 "></path></clipPath><g clip-path="url(#clip0x6000056a3120)"><path d="M 0.0 401.3 L 86.7 355.6 L 173.3 218.4 L 260.0 0.0 L 346.7 81.3 L 433.3 121.9 L 520.0 188.0 L 606.7 167.6 L 693.3 259.1 L 780.0 81.3 L 866.7 55.9 L 953.3 86.4 " fill="none" stroke="#FF607B" stroke-width="6.00" transform="matrix(1.00, 0.00, 0.00, -1.00, 102.4, 527.9)"></path></g></g><g><clipPath id="clip0x6000056a3360"><path d="M 1.0 1.0 L 1164.0 1.0 L 1164.0 578.0 L 1.0 578.0 Z M 1.0 1.0 "></path></clipPath><g clip-path="url(#clip0x6000056a3360)"><path d="M 108.4 450.6 C 108.4 454.5 105.2 457.6 101.4 457.6 C 97.5 457.6 94.4 454.5 94.4 450.6 C 94.4 446.8 97.5 443.6 101.4 443.6 C 105.2 443.6 108.4 446.8 108.4 450.6 Z M 108.4 450.6 " fill="none" stroke="#FF607B" stroke-width="6.00" transform="matrix(1.00, 0.00, 0.00, -1.00, 1.0, 577.2)"></path><path d="M 195.0 404.9 C 195.0 408.8 191.9 411.9 188.0 411.9 C 184.2 411.9 181.0 408.8 181.0 404.9 C 181.0 401.1 184.2 397.9 188.0 397.9 C 191.9 397.9 195.0 401.1 195.0 404.9 Z M 195.0 404.9 " fill="none" stroke="#FF607B" stroke-width="6.00" transform="matrix(1.00, 0.00, 0.00, -1.00, 1.0, 577.2)"></path><path d="M 281.7 267.8 C 281.7 271.6 278.6 274.8 274.7 274.8 C 270.8 274.8 267.7 271.6 267.7 267.8 C 267.7 263.9 270.8 260.8 274.7 260.8 C 278.6 260.8 281.7 263.9 281.7 267.8 Z M 281.7 267.8 " fill="none" stroke="#FF607B" stroke-width="6.00" transform="matrix(1.00, 0.00, 0.00, -1.00, 1.0, 577.2)"></path><path d="M 368.4 49.3 C 368.4 53.2 365.2 56.3 361.4 56.3 C 357.5 56.3 354.4 53.2 354.4 49.3 C 354.4 45.5 357.5 42.3 361.4 42.3 C 365.2 42.3 368.4 45.5 368.4 49.3 Z M 368.4 49.3 " fill="none" stroke="#FF607B" stroke-width="6.00" transform="matrix(1.00, 0.00, 0.00, -1.00, 1.0, 577.2)"></path><path d="M 455.0 130.6 C 455.0 134.5 451.9 137.6 448.0 137.6 C 444.2 137.6 441.0 134.5 441.0 130.6 C 441.0 126.7 444.2 123.6 448.0 123.6 C 451.9 123.6 455.0 126.7 455.0 130.6 Z M 455.0 130.6 " fill="none" stroke="#FF607B" stroke-width="6.00" transform="matrix(1.00, 0.00, 0.00, -1.00, 1.0, 577.2)"></path><path d="M 541.7 171.2 C 541.7 175.1 538.6 178.2 534.7 178.2 C 530.8 178.2 527.7 175.1 527.7 171.2 C 527.7 167.4 530.8 164.2 534.7 164.2 C 538.6 164.2 541.7 167.4 541.7 171.2 Z M 541.7 171.2 " fill="none" stroke="#FF607B" stroke-width="6.00" transform="matrix(1.00, 0.00, 0.00, -1.00, 1.0, 577.2)"></path><path d="M 628.4 237.3 C 628.4 241.1 625.2 244.3 621.4 244.3 C 617.5 244.3 614.4 241.1 614.4 237.3 C 614.4 233.4 617.5 230.3 621.4 230.3 C 625.2 230.3 628.4 233.4 628.4 237.3 Z M 628.4 237.3 " fill="none" stroke="#FF607B" stroke-width="6.00" transform="matrix(1.00, 0.00, 0.00, -1.00, 1.0, 577.2)"></path><path d="M 715.0 217.0 C 715.0 220.8 711.9 224.0 708.0 224.0 C 704.2 224.0 701.0 220.8 701.0 217.0 C 701.0 213.1 704.2 210.0 708.0 210.0 C 711.9 210.0 715.0 213.1 715.0 217.0 Z M 715.0 217.0 " fill="none" stroke="#FF607B" stroke-width="6.00" transform="matrix(1.00, 0.00, 0.00, -1.00, 1.0, 577.2)"></path><path d="M 801.7 308.4 C 801.7 312.3 798.6 315.4 794.7 315.4 C 790.8 315.4 787.7 312.3 787.7 308.4 C 787.7 304.5 790.8 301.4 794.7 301.4 C 798.6 301.4 801.7 304.5 801.7 308.4 Z M 801.7 308.4 " fill="none" stroke="#FF607B" stroke-width="6.00" transform="matrix(1.00, 0.00, 0.00, -1.00, 1.0, 577.2)"></path><path d="M 888.4 130.6 C 888.4 134.5 885.2 137.6 881.4 137.6 C 877.5 137.6 874.4 134.5 874.4 130.6 C 874.4 126.7 877.5 123.6 881.4 123.6 C 885.2 123.6 888.4 126.7 888.4 130.6 Z M 888.4 130.6 " fill="none" stroke="#FF607B" stroke-width="6.00" transform="matrix(1.00, 0.00, 0.00, -1.00, 1.0, 577.2)"></path><path d="M 975.0 105.2 C 975.0 109.1 971.9 112.2 968.0 112.2 C 964.2 112.2 961.0 109.1 961.0 105.2 C 961.0 101.3 964.2 98.2 968.0 98.2 C 971.9 98.2 975.0 101.3 975.0 105.2 Z M 975.0 105.2 " fill="none" stroke="#FF607B" stroke-width="6.00" transform="matrix(1.00, 0.00, 0.00, -1.00, 1.0, 577.2)"></path><path d="M 1061.7 135.7 C 1061.7 139.5 1058.6 142.7 1054.7 142.7 C 1050.8 142.7 1047.7 139.5 1047.7 135.7 C 1047.7 131.8 1050.8 128.7 1054.7 128.7 C 1058.6 128.7 1061.7 131.8 1061.7 135.7 Z M 1061.7 135.7 " fill="none" stroke="#FF607B" stroke-width="6.00" transform="matrix(1.00, 0.00, 0.00, -1.00, 1.0, 577.2)"></path></g></g></g></g></svg>