<?xml version="1.0" encoding="UTF-8" standalone="no"?><svg xmlns="http://www.w3.org/2000/svg" xmlns:xlink="http://www.w3.org/1999/xlink" clip-rule="evenodd" stroke-miterlimit="10" viewBox="0 0 1050 518"><desc>SVG generated by Keynote</desc><defs></defs><g transform="matrix(1.00, 0.00, -0.00, -1.00, 0.0, 518.0)"><g><g><clipPath id="clip0x6180050ab3a0"><path d="M 1.5 1.6 L 1048.7 1.6 L 1048.7 516.8 L 1.5 516.8 Z M 1.5 1.6 "></path></clipPath><g clip-path="url(#clip0x6180050ab3a0)"><path d="M 0.0 401.3 L 86.7 355.6 L 173.3 218.4 L 260.0 0.0 L 346.7 81.3 L 433.3 121.9 L 520.0 188.0 L 606.7 167.6 L 693.3 259.1 L 780.0 81.3 L 866.7 55.9 L 953.3 86.4 " fill="none" stroke="#FF607B" stroke-width="6.00" transform="matrix(1.00, 0.00, 0.00, -1.00, 48.4, 492.9)"></path></g></g><g><clipPath id="clip0x6180050ab700"><path d="M 0.0 0.0 L 1050.0 0.0 L 1050.0 518.0 L 0.0 518.0 Z M 0.0 0.0 "></path></clipPath><g clip-path="url(#clip0x6180050ab700)"><path d="M 108.4 450.6 C 108.4 454.5 105.2 457.6 101.4 457.6 C 97.5 457.6 94.4 454.5 94.4 450.6 C 94.4 446.8 97.5 443.6 101.4 443.6 C 105.2 443.6 108.4 446.8 108.4 450.6 Z M 108.4 450.6 " fill="none" stroke="#FF607B" stroke-width="6.00" transform="matrix(1.00, 0.00, 0.00, -1.00, -53.0, 542.2)"></path><path d="M 195.0 404.9 C 195.0 408.8 191.9 411.9 188.0 411.9 C 184.2 411.9 181.0 408.8 181.0 404.9 C 181.0 401.1 184.2 397.9 188.0 397.9 C 191.9 397.9 195.0 401.1 195.0 404.9 Z M 195.0 404.9 " fill="none" stroke="#FF607B" stroke-width="6.00" transform="matrix(1.00, 0.00, 0.00, -1.00, -53.0, 542.2)"></path><path d="M 281.7 267.8 C 281.7 271.6 278.6 274.8 274.7 274.8 C 270.8 274.8 267.7 271.6 267.7 267.8 C 267.7 263.9 270.8 260.8 274.7 260.8 C 278.6 260.8 281.7 263.9 281.7 267.8 Z M 281.7 267.8 " fill="none" stroke="#FF607B" stroke-width="6.00" transform="matrix(1.00, 0.00, 0.00, -1.00, -53.0, 542.2)"></path><path d="M 368.4 49.3 C 368.4 53.2 365.2 56.3 361.4 56.3 C 357.5 56.3 354.4 53.2 354.4 49.3 C 354.4 45.5 357.5 42.3 361.4 42.3 C 365.2 42.3 368.4 45.5 368.4 49.3 Z M 368.4 49.3 " fill="none" stroke="#FF607B" stroke-width="6.00" transform="matrix(1.00, 0.00, 0.00, -1.00, -53.0, 542.2)"></path><path d="M 455.0 130.6 C 455.0 134.5 451.9 137.6 448.0 137.6 C 444.2 137.6 441.0 134.5 441.0 130.6 C 441.0 126.7 444.2 123.6 448.0 123.6 C 451.9 123.6 455.0 126.7 455.0 130.6 Z M 455.0 130.6 " fill="none" stroke="#FF607B" stroke-width="6.00" transform="matrix(1.00, 0.00, 0.00, -1.00, -53.0, 542.2)"></path><path d="M 541.7 171.2 C 541.7 175.1 538.6 178.2 534.7 178.2 C 530.8 178.2 527.7 175.1 527.7 171.2 C 527.7 167.4 530.8 164.2 534.7 164.2 C 538.6 164.2 541.7 167.4 541.7 171.2 Z M 541.7 171.2 " fill="none" stroke="#FF607B" stroke-width="6.00" transform="matrix(1.00, 0.00, 0.00, -1.00, -53.0, 542.2)"></path><path d="M 628.4 237.3 C 628.4 241.1 625.2 244.3 621.4 244.3 C 617.5 244.3 614.4 241.1 614.4 237.3 C 614.4 233.4 617.5 230.3 621.4 230.3 C 625.2 230.3 628.4 233.4 628.4 237.3 Z M 628.4 237.3 " fill="none" stroke="#FF607B" stroke-width="6.00" transform="matrix(1.00, 0.00, 0.00, -1.00, -53.0, 542.2)"></path><path d="M 715.0 217.0 C 715.0 220.8 711.9 224.0 708.0 224.0 C 704.2 224.0 701.0 220.8 701.0 217.0 C 701.0 213.1 704.2 210.0 708.0 210.0 C 711.9 210.0 715.0 213.1 715.0 217.0 Z M 715.0 217.0 " fill="none" stroke="#FF607B" stroke-width="6.00" transform="matrix(1.00, 0.00, 0.00, -1.00, -53.0, 542.2)"></path><path d="M 801.7 308.4 C 801.7 312.3 798.6 315.4 794.7 315.4 C 790.8 315.4 787.7 312.3 787.7 308.4 C 787.7 304.5 790.8 301.4 794.7 301.4 C 798.6 301.4 801.7 304.5 801.7 308.4 Z M 801.7 308.4 " fill="none" stroke="#FF607B" stroke-width="6.00" transform="matrix(1.00, 0.00, 0.00, -1.00, -53.0, 542.2)"></path><path d="M 888.4 130.6 C 888.4 134.5 885.2 137.6 881.4 137.6 C 877.5 137.6 874.4 134.5 874.4 130.6 C 874.4 126.7 877.5 123.6 881.4 123.6 C 885.2 123.6 888.4 126.7 888.4 130.6 Z M 888.4 130.6 " fill="none" stroke="#FF607B" stroke-width="6.00" transform="matrix(1.00, 0.00, 0.00, -1.00, -53.0, 542.2)"></path><path d="M 975.0 105.2 C 975.0 109.1 971.9 112.2 968.0 112.2 C 964.2 112.2 961.0 109.1 961.0 105.2 C 961.0 101.3 964.2 98.2 968.0 98.2 C 971.9 98.2 975.0 101.3 975.0 105.2 Z M 975.0 105.2 " fill="none" stroke="#FF607B" stroke-width="6.00" transform="matrix(1.00, 0.00, 0.00, -1.00, -53.0, 542.2)"></path><path d="M 1061.7 135.7 C 1061.7 139.5 1058.6 142.7 1054.7 142.7 C 1050.8 142.7 1047.7 139.5 1047.7 135.7 C 1047.7 131.8 1050.8 128.7 1054.7 128.7 C 1058.6 128.7 1061.7 131.8 1061.7 135.7 Z M 1061.7 135.7 " fill="none" stroke="#FF607B" stroke-width="6.00" transform="matrix(1.00, 0.00, 0.00, -1.00, -53.0, 542.2)"></path></g></g></g></g></svg>