<?xml version="1.0" encoding="UTF-8" standalone="no"?><svg xmlns="http://www.w3.org/2000/svg" xmlns:xlink="http://www.w3.org/1999/xlink" clip-rule="evenodd" stroke-miterlimit="10" viewBox="0 0 1165 579"><desc>SVG generated by Keynote</desc><defs></defs><g transform="matrix(1.00, 0.00, -0.00, -1.00, 0.0, 579.0)"><path d="M 58.0 536.7 L 1098.0 536.7 " fill="none" stroke="#677188" stroke-width="1.00" transform="matrix(1.00, 0.00, 0.00, -1.00, 1.0, 577.2)"></path><path d="M 58.0 409.7 L 1098.0 409.7 " fill="none" stroke="#677188" stroke-width="1.00" transform="matrix(1.00, 0.00, 0.00, -1.00, 1.0, 577.2)"></path><path d="M 58.0 282.7 L 1098.0 282.7 " fill="none" stroke="#677188" stroke-width="1.00" transform="matrix(1.00, 0.00, 0.00, -1.00, 1.0, 577.2)"></path><path d="M 58.0 155.7 L 1098.0 155.7 " fill="none" stroke="#677188" stroke-width="1.00" transform="matrix(1.00, 0.00, 0.00, -1.00, 1.0, 577.2)"></path><path d="M 58.0 28.7 L 1098.0 28.7 " fill="none" stroke="#677188" stroke-width="1.00" transform="matrix(1.00, 0.00, 0.00, -1.00, 1.0, 577.2)"></path><g><clipPath id="clip0x6000054ae7c0"><path d="M 1148.5 24.7 L 1164.8 24.7 L 1164.8 55.7 L 1148.5 55.7 Z M 1148.5 24.7 "></path></clipPath><g clip-path="url(#clip0x6000054ae7c0)"><text xml:space="preserve" font-family="Helvetica,Helvetica" font-size="24.0" fill="#E2E2E2" transform="matrix(1.00, 0.00, -0.00, -1.00, 1150.0, 31.2)">0</text></g></g><g><clipPath id="clip0x6000054aea00"><path d="M 1115.1 151.7 L 1164.8 151.7 L 1164.8 182.7 L 1115.1 182.7 Z M 1115.1 151.7 "></path></clipPath><g clip-path="url(#clip0x6000054aea00)"><text xml:space="preserve" font-family="Helvetica,Helvetica" font-size="24.0" fill="#E2E2E2" transform="matrix(1.00, 0.00, -0.00, -1.00, 1116.6, 158.2)">1</text><text xml:space="preserve" font-family="Helvetica,Helvetica" font-size="24.0" fill="#E2E2E2" transform="matrix(1.00, 0.00, -0.00, -1.00, 1129.9, 158.2)">7</text><text xml:space="preserve" font-family="Helvetica,Helvetica" font-size="24.0" fill="#E2E2E2" transform="matrix(1.00, 0.00, -0.00, -1.00, 1143.3, 158.2)">.</text><text xml:space="preserve" font-family="Helvetica,Helvetica" font-size="24.0" fill="#E2E2E2" transform="matrix(1.00, 0.00, -0.00, -1.00, 1150.0, 158.2)">5</text></g></g><g><clipPath id="clip0x6000054aed60"><path d="M 1135.1 278.7 L 1164.8 278.7 L 1164.8 309.7 L 1135.1 309.7 Z M 1135.1 278.7 "></path></clipPath><g clip-path="url(#clip0x6000054aed60)"><text xml:space="preserve" font-family="Helvetica,Helvetica" font-size="24.0" fill="#E2E2E2" transform="matrix(1.00, 0.00, -0.00, -1.00, 1136.6, 285.2)">3</text><text xml:space="preserve" font-family="Helvetica,Helvetica" font-size="24.0" fill="#E2E2E2" transform="matrix(1.00, 0.00, -0.00, -1.00, 1150.0, 285.2)">5</text></g></g><g><clipPath id="clip0x6000054af000"><path d="M 1115.1 405.7 L 1164.8 405.7 L 1164.8 436.7 L 1115.1 436.7 Z M 1115.1 405.7 "></path></clipPath><g clip-path="url(#clip0x6000054af000)"><text xml:space="preserve" font-family="Helvetica,Helvetica" font-size="24.0" fill="#E2E2E2" transform="matrix(1.00, 0.00, -0.00, -1.00, 1116.6, 412.2)">5</text><text xml:space="preserve" font-family="Helvetica,Helvetica" font-size="24.0" fill="#E2E2E2" transform="matrix(1.00, 0.00, -0.00, -1.00, 1129.9, 412.2)">2</text><text xml:space="preserve" font-family="Helvetica,Helvetica" font-size="24.0" fill="#E2E2E2" transform="matrix(1.00, 0.00, -0.00, -1.00, 1143.3, 412.2)">.</text><text xml:space="preserve" font-family="Helvetica,Helvetica" font-size="24.0" fill="#E2E2E2" transform="matrix(1.00, 0.00, -0.00, -1.00, 1150.0, 412.2)">5</text></g></g><g><clipPath id="clip0x6000054af360"><path d="M 1135.1 532.7 L 1164.8 532.7 L 1164.8 563.7 L 1135.1 563.7 Z M 1135.1 532.7 "></path></clipPath><g clip-path="url(#clip0x6000054af360)"><text xml:space="preserve" font-family="Helvetica,Helvetica" font-size="24.0" fill="#E2E2E2" transform="matrix(1.00, 0.00, -0.00, -1.00, 1136.6, 539.2)">7</text><text xml:space="preserve" font-family="Helvetica,Helvetica" font-size="24.0" fill="#E2E2E2" transform="matrix(1.00, 0.00, -0.00, -1.00, 1150.0, 539.2)">0</text></g></g><g><clipPath id="clip0x6000054af600"><path d="M 26.7 24.7 L 43.1 24.7 L 43.1 55.7 L 26.7 55.7 Z M 26.7 24.7 "></path></clipPath><g clip-path="url(#clip0x6000054af600)"><text xml:space="preserve" font-family="Helvetica,Helvetica" font-size="24.0" fill="#E2E2E2" transform="matrix(1.00, 0.00, -0.00, -1.00, 28.2, 31.2)">0</text></g></g><g><clipPath id="clip0x6000054af840"><path d="M 13.4 151.7 L 43.1 151.7 L 43.1 182.7 L 13.4 182.7 Z M 13.4 151.7 "></path></clipPath><g clip-path="url(#clip0x6000054af840)"><text xml:space="preserve" font-family="Helvetica,Helvetica" font-size="24.0" fill="#E2E2E2" transform="matrix(1.00, 0.00, -0.00, -1.00, 14.9, 158.2)">2</text><text xml:space="preserve" font-family="Helvetica,Helvetica" font-size="24.0" fill="#E2E2E2" transform="matrix(1.00, 0.00, -0.00, -1.00, 28.2, 158.2)">5</text></g></g><g><clipPath id="clip0x6000054afae0"><path d="M 13.4 278.7 L 43.1 278.7 L 43.1 309.7 L 13.4 309.7 Z M 13.4 278.7 "></path></clipPath><g clip-path="url(#clip0x6000054afae0)"><text xml:space="preserve" font-family="Helvetica,Helvetica" font-size="24.0" fill="#E2E2E2" transform="matrix(1.00, 0.00, -0.00, -1.00, 14.9, 285.2)">5</text><text xml:space="preserve" font-family="Helvetica,Helvetica" font-size="24.0" fill="#E2E2E2" transform="matrix(1.00, 0.00, -0.00, -1.00, 28.2, 285.2)">0</text></g></g><g><clipPath id="clip0x6000054afd80"><path d="M 13.4 405.7 L 43.1 405.7 L 43.1 436.7 L 13.4 436.7 Z M 13.4 405.7 "></path></clipPath><g clip-path="url(#clip0x6000054afd80)"><text xml:space="preserve" font-family="Helvetica,Helvetica" font-size="24.0" fill="#E2E2E2" transform="matrix(1.00, 0.00, -0.00, -1.00, 14.9, 412.2)">7</text><text xml:space="preserve" font-family="Helvetica,Helvetica" font-size="24.0" fill="#E2E2E2" transform="matrix(1.00, 0.00, -0.00, -1.00, 28.2, 412.2)">5</text></g></g><g><clipPath id="clip0x6000054b0020"><path d="M 0.0 532.7 L 43.1 532.7 L 43.1 563.7 L 0.0 563.7 Z M 0.0 532.7 "></path></clipPath><g clip-path="url(#clip0x6000054b0020)"><text xml:space="preserve" font-family="Helvetica,Helvetica" font-size="24.0" fill="#E2E2E2" transform="matrix(1.00, 0.00, -0.00, -1.00, 1.5, 539.2)">1</text><text xml:space="preserve" font-family="Helvetica,Helvetica" font-size="24.0" fill="#E2E2E2" transform="matrix(1.00, 0.00, -0.00, -1.00, 14.9, 539.2)">0</text><text xml:space="preserve" font-family="Helvetica,Helvetica" font-size="24.0" fill="#E2E2E2" transform="matrix(1.00, 0.00, -0.00, -1.00, 28.3, 539.2)">0</text></g></g><g><clipPath id="clip0x6000054b0320"><path d="M 81.6 0.2 L 123.3 0.2 L 123.3 31.2 L 81.6 31.2 Z M 81.6 0.2 "></path></clipPath><g clip-path="url(#clip0x6000054b0320)"><text xml:space="preserve" font-family="Helvetica,Helvetica" font-size="24.0" fill="#E2E2E2" transform="matrix(1.00, 0.00, -0.00, -1.00, 83.1, 6.7)">J</text><text xml:space="preserve" font-family="Helvetica,Helvetica" font-size="24.0" fill="#E2E2E2" transform="matrix(1.00, 0.00, -0.00, -1.00, 95.1, 6.7)">a</text><text xml:space="preserve" font-family="Helvetica,Helvetica" font-size="24.0" fill="#E2E2E2" transform="matrix(1.00, 0.00, -0.00, -1.00, 108.4, 6.7)">n</text></g></g><g><clipPath id="clip0x6000054b0620"><path d="M 166.9 0.2 L 211.3 0.2 L 211.3 31.2 L 166.9 31.2 Z M 166.9 0.2 "></path></clipPath><g clip-path="url(#clip0x6000054b0620)"><text xml:space="preserve" font-family="Helvetica,Helvetica" font-size="24.0" fill="#E2E2E2" transform="matrix(1.00, 0.00, -0.00, -1.00, 168.4, 6.7)">F</text><text xml:space="preserve" font-family="Helvetica,Helvetica" font-size="24.0" fill="#E2E2E2" transform="matrix(1.00, 0.00, -0.00, -1.00, 183.1, 6.7)">e</text><text xml:space="preserve" font-family="Helvetica,Helvetica" font-size="24.0" fill="#E2E2E2" transform="matrix(1.00, 0.00, -0.00, -1.00, 196.4, 6.7)">b</text></g></g><g><clipPath id="clip0x6000054b0920"><path d="M 253.6 0.2 L 297.9 0.2 L 297.9 31.2 L 253.6 31.2 Z M 253.6 0.2 "></path></clipPath><g clip-path="url(#clip0x6000054b0920)"><text xml:space="preserve" font-family="Helvetica,Helvetica" font-size="24.0" fill="#E2E2E2" transform="matrix(1.00, 0.00, -0.00, -1.00, 255.1, 6.7)">M</text><text xml:space="preserve" font-family="Helvetica,Helvetica" font-size="24.0" fill="#E2E2E2" transform="matrix(1.00, 0.00, -0.00, -1.00, 275.1, 6.7)">a</text><text xml:space="preserve" font-family="Helvetica,Helvetica" font-size="24.0" fill="#E2E2E2" transform="matrix(1.00, 0.00, -0.00, -1.00, 288.4, 6.7)">r</text></g></g><g><clipPath id="clip0x6000054b0c20"><path d="M 342.3 0.2 L 382.6 0.2 L 382.6 31.2 L 342.3 31.2 Z M 342.3 0.2 "></path></clipPath><g clip-path="url(#clip0x6000054b0c20)"><text xml:space="preserve" font-family="Helvetica,Helvetica" font-size="24.0" fill="#E2E2E2" transform="matrix(1.00, 0.00, -0.00, -1.00, 343.8, 6.7)">A</text><text xml:space="preserve" font-family="Helvetica,Helvetica" font-size="24.0" fill="#E2E2E2" transform="matrix(1.00, 0.00, -0.00, -1.00, 359.8, 6.7)">p</text><text xml:space="preserve" font-family="Helvetica,Helvetica" font-size="24.0" fill="#E2E2E2" transform="matrix(1.00, 0.00, -0.00, -1.00, 373.1, 6.7)">r</text></g></g><g><clipPath id="clip0x6000054b0f20"><path d="M 424.9 0.2 L 473.3 0.2 L 473.3 31.2 L 424.9 31.2 Z M 424.9 0.2 "></path></clipPath><g clip-path="url(#clip0x6000054b0f20)"><text xml:space="preserve" font-family="Helvetica,Helvetica" font-size="24.0" fill="#E2E2E2" transform="matrix(1.00, 0.00, -0.00, -1.00, 426.4, 6.7)">M</text><text xml:space="preserve" font-family="Helvetica,Helvetica" font-size="24.0" fill="#E2E2E2" transform="matrix(1.00, 0.00, -0.00, -1.00, 446.4, 6.7)">a</text><text xml:space="preserve" font-family="Helvetica,Helvetica" font-size="24.0" fill="#E2E2E2" transform="matrix(1.00, 0.00, -0.00, -1.00, 459.8, 6.7)">y</text></g></g><g><clipPath id="clip0x6000054b1220"><path d="M 514.9 0.2 L 556.6 0.2 L 556.6 31.2 L 514.9 31.2 Z M 514.9 0.2 "></path></clipPath><g clip-path="url(#clip0x6000054b1220)"><text xml:space="preserve" font-family="Helvetica,Helvetica" font-size="24.0" fill="#E2E2E2" transform="matrix(1.00, 0.00, -0.00, -1.00, 516.4, 6.7)">J</text><text xml:space="preserve" font-family="Helvetica,Helvetica" font-size="24.0" fill="#E2E2E2" transform="matrix(1.00, 0.00, -0.00, -1.00, 528.4, 6.7)">u</text><text xml:space="preserve" font-family="Helvetica,Helvetica" font-size="24.0" fill="#E2E2E2" transform="matrix(1.00, 0.00, -0.00, -1.00, 541.8, 6.7)">n</text></g></g><g><clipPath id="clip0x6000054b1520"><path d="M 605.6 0.2 L 639.3 0.2 L 639.3 31.2 L 605.6 31.2 Z M 605.6 0.2 "></path></clipPath><g clip-path="url(#clip0x6000054b1520)"><text xml:space="preserve" font-family="Helvetica,Helvetica" font-size="24.0" fill="#E2E2E2" transform="matrix(1.00, 0.00, -0.00, -1.00, 607.1, 6.7)">J</text><text xml:space="preserve" font-family="Helvetica,Helvetica" font-size="24.0" fill="#E2E2E2" transform="matrix(1.00, 0.00, -0.00, -1.00, 619.1, 6.7)">u</text><text xml:space="preserve" font-family="Helvetica,Helvetica" font-size="24.0" fill="#E2E2E2" transform="matrix(1.00, 0.00, -0.00, -1.00, 632.4, 6.7)">l</text></g></g><g><clipPath id="clip0x6000054b1820"><path d="M 686.2 0.2 L 731.9 0.2 L 731.9 31.2 L 686.2 31.2 Z M 686.2 0.2 "></path></clipPath><g clip-path="url(#clip0x6000054b1820)"><text xml:space="preserve" font-family="Helvetica,Helvetica" font-size="24.0" fill="#E2E2E2" transform="matrix(1.00, 0.00, -0.00, -1.00, 687.7, 6.7)">A</text><text xml:space="preserve" font-family="Helvetica,Helvetica" font-size="24.0" fill="#E2E2E2" transform="matrix(1.00, 0.00, -0.00, -1.00, 703.7, 6.7)">u</text><text xml:space="preserve" font-family="Helvetica,Helvetica" font-size="24.0" fill="#E2E2E2" transform="matrix(1.00, 0.00, -0.00, -1.00, 717.1, 6.7)">g</text></g></g><g><clipPath id="clip0x6000054b1b20"><path d="M 772.9 0.2 L 818.6 0.2 L 818.6 31.2 L 772.9 31.2 Z M 772.9 0.2 "></path></clipPath><g clip-path="url(#clip0x6000054b1b20)"><text xml:space="preserve" font-family="Helvetica,Helvetica" font-size="24.0" fill="#E2E2E2" transform="matrix(1.00, 0.00, -0.00, -1.00, 774.4, 6.7)">S</text><text xml:space="preserve" font-family="Helvetica,Helvetica" font-size="24.0" fill="#E2E2E2" transform="matrix(1.00, 0.00, -0.00, -1.00, 790.4, 6.7)">e</text><text xml:space="preserve" font-family="Helvetica,Helvetica" font-size="24.0" fill="#E2E2E2" transform="matrix(1.00, 0.00, -0.00, -1.00, 803.8, 6.7)">p</text></g></g><g><clipPath id="clip0x6000054b1e20"><path d="M 862.3 0.2 L 902.6 0.2 L 902.6 31.2 L 862.3 31.2 Z M 862.3 0.2 "></path></clipPath><g clip-path="url(#clip0x6000054b1e20)"><text xml:space="preserve" font-family="Helvetica,Helvetica" font-size="24.0" fill="#E2E2E2" transform="matrix(1.00, 0.00, -0.00, -1.00, 863.8, 6.7)">O</text><text xml:space="preserve" font-family="Helvetica,Helvetica" font-size="24.0" fill="#E2E2E2" transform="matrix(1.00, 0.00, -0.00, -1.00, 882.4, 6.7)">c</text><text xml:space="preserve" font-family="Helvetica,Helvetica" font-size="24.0" fill="#E2E2E2" transform="matrix(1.00, 0.00, -0.00, -1.00, 894.4, 6.7)">t</text></g></g><g><clipPath id="clip0x6000054b2120"><path d="M 946.3 0.2 L 991.9 0.2 L 991.9 31.2 L 946.3 31.2 Z M 946.3 0.2 "></path></clipPath><g clip-path="url(#clip0x6000054b2120)"><text xml:space="preserve" font-family="Helvetica,Helvetica" font-size="24.0" fill="#E2E2E2" transform="matrix(1.00, 0.00, -0.00, -1.00, 947.8, 6.7)">N</text><text xml:space="preserve" font-family="Helvetica,Helvetica" font-size="24.0" fill="#E2E2E2" transform="matrix(1.00, 0.00, -0.00, -1.00, 965.1, 6.7)">o</text><text xml:space="preserve" font-family="Helvetica,Helvetica" font-size="24.0" fill="#E2E2E2" transform="matrix(1.00, 0.00, -0.00, -1.00, 978.4, 6.7)">v</text></g></g><g><clipPath id="clip0x6000054b2420"><path d="M 1032.9 0.2 L 1078.6 0.2 L 1078.6 31.2 L 1032.9 31.2 Z M 1032.9 0.2 "></path></clipPath><g clip-path="url(#clip0x6000054b2420)"><text xml:space="preserve" font-family="Helvetica,Helvetica" font-size="24.0" fill="#E2E2E2" transform="matrix(1.00, 0.00, -0.00, -1.00, 1034.4, 6.7)">D</text><text xml:space="preserve" font-family="Helvetica,Helvetica" font-size="24.0" fill="#E2E2E2" transform="matrix(1.00, 0.00, -0.00, -1.00, 1051.8, 6.7)">e</text><text xml:space="preserve" font-family="Helvetica,Helvetica" font-size="24.0" fill="#E2E2E2" transform="matrix(1.00, 0.00, -0.00, -1.00, 1065.1, 6.7)">c</text></g></g></g></svg>