<?xml version="1.0" encoding="UTF-8" standalone="no"?><svg xmlns="http://www.w3.org/2000/svg" xmlns:xlink="http://www.w3.org/1999/xlink" clip-rule="evenodd" stroke-miterlimit="10" viewBox="0 0 353 254"><desc>SVG generated by Keynote</desc><defs></defs><g transform="matrix(1.00, 0.00, -0.00, -1.00, 0.0, 254.0)"><g><clipPath id="clip0x610004aba880"><path d="M 0.4 0.5 L 352.0 0.5 L 352.0 253.4 L 0.4 253.4 Z M 0.4 0.5 "></path></clipPath><g clip-path="url(#clip0x610004aba880)"><path d="M 1.0 252.0 L 351.0 252.0 L 351.0 2.0 L 1.0 2.0 Z M 1.4 252.4 " fill="#62D7AD"></path></g></g><g><clipPath id="clip0x610004abab20"><path d="M 55.6 115.0 L 296.8 115.0 L 296.8 251.0 L 55.6 251.0 Z M 55.6 115.0 "></path></clipPath><g clip-path="url(#clip0x610004abab20)"><text xml:space="preserve" font-family="Helvetica,Helvetica" font-size="80.0" fill="#F6F6F6" transform="matrix(1.00, 0.00, -0.00, -1.00, 76.1, 153.4)">2</text><text xml:space="preserve" font-family="Helvetica,Helvetica" font-size="80.0" fill="#F6F6F6" transform="matrix(1.00, 0.00, -0.00, -1.00, 120.6, 153.4)">.</text><text xml:space="preserve" font-family="Helvetica,Helvetica" font-size="80.0" fill="#F6F6F6" transform="matrix(1.00, 0.00, -0.00, -1.00, 142.8, 153.4)">3</text><text xml:space="preserve" font-family="Helvetica,Helvetica" font-size="80.0" fill="#F6F6F6" transform="matrix(1.00, 0.00, -0.00, -1.00, 187.3, 153.4)">0</text><text xml:space="preserve" font-family="Helvetica,Helvetica" font-size="80.0" fill="#F6F6F6" transform="matrix(1.00, 0.00, -0.00, -1.00, 231.8, 153.4)">0</text></g></g><g><clipPath id="clip0x610004abaee0"><path d="M 51.2 81.3 L 301.2 81.3 L 301.2 132.3 L 51.2 132.3 Z M 51.2 81.3 "></path></clipPath><g clip-path="url(#clip0x610004abaee0)"><text xml:space="preserve" font-family="Helvetica,Helvetica" font-size="30.0" fill="#F6F6F6" transform="matrix(1.00, 0.00, -0.00, -1.00, 59.2, 95.7)">S</text><text xml:space="preserve" font-family="Helvetica,Helvetica" font-size="30.0" fill="#F6F6F6" transform="matrix(1.00, 0.00, -0.00, -1.00, 79.2, 95.7)">A</text><text xml:space="preserve" font-family="Helvetica,Helvetica" font-size="30.0" fill="#F6F6F6" transform="matrix(1.00, 0.00, -0.00, -1.00, 99.2, 95.7)">L</text><text xml:space="preserve" font-family="Helvetica,Helvetica" font-size="30.0" fill="#F6F6F6" transform="matrix(1.00, 0.00, -0.00, -1.00, 115.9, 95.7)">E</text><text xml:space="preserve" font-family="Helvetica,Helvetica" font-size="30.0" fill="#F6F6F6" transform="matrix(1.00, 0.00, -0.00, -1.00, 135.9, 95.7)">S</text><text xml:space="preserve" font-family="Helvetica,Helvetica" font-size="30.0" fill="#F6F6F6" transform="matrix(1.00, 0.00, -0.00, -1.00, 155.9, 95.7)"> </text><text xml:space="preserve" font-family="Helvetica,Helvetica" font-size="30.0" fill="#F6F6F6" transform="matrix(1.00, 0.00, -0.00, -1.00, 164.2, 95.7)">B</text><text xml:space="preserve" font-family="Helvetica,Helvetica" font-size="30.0" fill="#F6F6F6" transform="matrix(1.00, 0.00, -0.00, -1.00, 184.2, 95.7)">Y</text><text xml:space="preserve" font-family="Helvetica,Helvetica" font-size="30.0" fill="#F6F6F6" transform="matrix(1.00, 0.00, -0.00, -1.00, 203.7, 95.7)"> </text><text xml:space="preserve" font-family="Helvetica,Helvetica" font-size="30.0" fill="#F6F6F6" transform="matrix(1.00, 0.00, -0.00, -1.00, 211.5, 95.7)">Y</text><text xml:space="preserve" font-family="Helvetica,Helvetica" font-size="30.0" fill="#F6F6F6" transform="matrix(1.00, 0.00, -0.00, -1.00, 231.5, 95.7)">E</text><text xml:space="preserve" font-family="Helvetica,Helvetica" font-size="30.0" fill="#F6F6F6" transform="matrix(1.00, 0.00, -0.00, -1.00, 251.5, 95.7)">A</text><text xml:space="preserve" font-family="Helvetica,Helvetica" font-size="30.0" fill="#F6F6F6" transform="matrix(1.00, 0.00, -0.00, -1.00, 271.5, 95.7)">R</text></g></g><g><clipPath id="clip0x610004abb5a0"><path d="M 32.8 24.7 L 319.5 24.7 L 319.5 82.7 L 32.8 82.7 Z M 32.8 24.7 "></path></clipPath><g clip-path="url(#clip0x610004abb5a0)"><text xml:space="preserve" font-family="Helvetica,Helvetica" font-size="20.0" fill="#F6F6F6" transform="matrix(1.00, 0.00, -0.00, -1.00, 41.1, 58.3)">U</text><text xml:space="preserve" font-family="Helvetica,Helvetica" font-size="20.0" fill="#F6F6F6" transform="matrix(1.00, 0.00, -0.00, -1.00, 55.6, 58.3)">t</text><text xml:space="preserve" font-family="Helvetica,Helvetica" font-size="20.0" fill="#F6F6F6" transform="matrix(1.00, 0.00, -0.00, -1.00, 61.1, 58.3)"> </text><text xml:space="preserve" font-family="Helvetica,Helvetica" font-size="20.0" fill="#F6F6F6" transform="matrix(1.00, 0.00, -0.00, -1.00, 66.7, 58.3)">w</text><text xml:space="preserve" font-family="Helvetica,Helvetica" font-size="20.0" fill="#F6F6F6" transform="matrix(1.00, 0.00, -0.00, -1.00, 81.1, 58.3)">i</text><text xml:space="preserve" font-family="Helvetica,Helvetica" font-size="20.0" fill="#F6F6F6" transform="matrix(1.00, 0.00, -0.00, -1.00, 85.6, 58.3)">s</text><text xml:space="preserve" font-family="Helvetica,Helvetica" font-size="20.0" fill="#F6F6F6" transform="matrix(1.00, 0.00, -0.00, -1.00, 95.6, 58.3)">i</text><text xml:space="preserve" font-family="Helvetica,Helvetica" font-size="20.0" fill="#F6F6F6" transform="matrix(1.00, 0.00, -0.00, -1.00, 100.0, 58.3)"> </text><text xml:space="preserve" font-family="Helvetica,Helvetica" font-size="20.0" fill="#F6F6F6" transform="matrix(1.00, 0.00, -0.00, -1.00, 105.6, 58.3)">e</text><text xml:space="preserve" font-family="Helvetica,Helvetica" font-size="20.0" fill="#F6F6F6" transform="matrix(1.00, 0.00, -0.00, -1.00, 116.7, 58.3)">n</text><text xml:space="preserve" font-family="Helvetica,Helvetica" font-size="20.0" fill="#F6F6F6" transform="matrix(1.00, 0.00, -0.00, -1.00, 127.8, 58.3)">i</text><text xml:space="preserve" font-family="Helvetica,Helvetica" font-size="20.0" fill="#F6F6F6" transform="matrix(1.00, 0.00, -0.00, -1.00, 132.3, 58.3)">m</text><text xml:space="preserve" font-family="Helvetica,Helvetica" font-size="20.0" fill="#F6F6F6" transform="matrix(1.00, 0.00, -0.00, -1.00, 149.0, 58.3)"> </text><text xml:space="preserve" font-family="Helvetica,Helvetica" font-size="20.0" fill="#F6F6F6" transform="matrix(1.00, 0.00, -0.00, -1.00, 154.5, 58.3)">a</text><text xml:space="preserve" font-family="Helvetica,Helvetica" font-size="20.0" fill="#F6F6F6" transform="matrix(1.00, 0.00, -0.00, -1.00, 165.6, 58.3)">d</text><text xml:space="preserve" font-family="Helvetica,Helvetica" font-size="20.0" fill="#F6F6F6" transform="matrix(1.00, 0.00, -0.00, -1.00, 176.8, 58.3)"> </text><text xml:space="preserve" font-family="Helvetica,Helvetica" font-size="20.0" fill="#F6F6F6" transform="matrix(1.00, 0.00, -0.00, -1.00, 182.3, 58.3)">m</text><text xml:space="preserve" font-family="Helvetica,Helvetica" font-size="20.0" fill="#F6F6F6" transform="matrix(1.00, 0.00, -0.00, -1.00, 199.0, 58.3)">i</text><text xml:space="preserve" font-family="Helvetica,Helvetica" font-size="20.0" fill="#F6F6F6" transform="matrix(1.00, 0.00, -0.00, -1.00, 203.4, 58.3)">n</text><text xml:space="preserve" font-family="Helvetica,Helvetica" font-size="20.0" fill="#F6F6F6" transform="matrix(1.00, 0.00, -0.00, -1.00, 214.5, 58.3)">i</text><text xml:space="preserve" font-family="Helvetica,Helvetica" font-size="20.0" fill="#F6F6F6" transform="matrix(1.00, 0.00, -0.00, -1.00, 219.0, 58.3)">m</text><text xml:space="preserve" font-family="Helvetica,Helvetica" font-size="20.0" fill="#F6F6F6" transform="matrix(1.00, 0.00, -0.00, -1.00, 235.7, 58.3)"> </text><text xml:space="preserve" font-family="Helvetica,Helvetica" font-size="20.0" fill="#F6F6F6" transform="matrix(1.00, 0.00, -0.00, -1.00, 241.2, 58.3)">v</text><text xml:space="preserve" font-family="Helvetica,Helvetica" font-size="20.0" fill="#F6F6F6" transform="matrix(1.00, 0.00, -0.00, -1.00, 251.2, 58.3)">e</text><text xml:space="preserve" font-family="Helvetica,Helvetica" font-size="20.0" fill="#F6F6F6" transform="matrix(1.00, 0.00, -0.00, -1.00, 262.3, 58.3)">n</text><text xml:space="preserve" font-family="Helvetica,Helvetica" font-size="20.0" fill="#F6F6F6" transform="matrix(1.00, 0.00, -0.00, -1.00, 273.5, 58.3)">i</text><text xml:space="preserve" font-family="Helvetica,Helvetica" font-size="20.0" fill="#F6F6F6" transform="matrix(1.00, 0.00, -0.00, -1.00, 277.9, 58.3)">a</text><text xml:space="preserve" font-family="Helvetica,Helvetica" font-size="20.0" fill="#F6F6F6" transform="matrix(1.00, 0.00, -0.00, -1.00, 289.0, 58.3)">m</text><text xml:space="preserve" font-family="Helvetica,Helvetica" font-size="20.0" fill="#F6F6F6" transform="matrix(1.00, 0.00, -0.00, -1.00, 305.7, 58.3)">,</text><text xml:space="preserve" font-family="Helvetica,Helvetica" font-size="20.0" fill="#F6F6F6" transform="matrix(1.00, 0.00, -0.00, -1.00, 311.2, 58.3)"> </text><text xml:space="preserve" font-family="Helvetica,Helvetica" font-size="20.0" fill="#F6F6F6" transform="matrix(1.00, 0.00, -0.00, -1.00, 62.2, 34.3)">q</text><text xml:space="preserve" font-family="Helvetica,Helvetica" font-size="20.0" fill="#F6F6F6" transform="matrix(1.00, 0.00, -0.00, -1.00, 73.4, 34.3)">u</text><text xml:space="preserve" font-family="Helvetica,Helvetica" font-size="20.0" fill="#F6F6F6" transform="matrix(1.00, 0.00, -0.00, -1.00, 84.5, 34.3)">i</text><text xml:space="preserve" font-family="Helvetica,Helvetica" font-size="20.0" fill="#F6F6F6" transform="matrix(1.00, 0.00, -0.00, -1.00, 88.9, 34.3)">s</text><text xml:space="preserve" font-family="Helvetica,Helvetica" font-size="20.0" fill="#F6F6F6" transform="matrix(1.00, 0.00, -0.00, -1.00, 98.9, 34.3)"> </text><text xml:space="preserve" font-family="Helvetica,Helvetica" font-size="20.0" fill="#F6F6F6" transform="matrix(1.00, 0.00, -0.00, -1.00, 104.5, 34.3)">n</text><text xml:space="preserve" font-family="Helvetica,Helvetica" font-size="20.0" fill="#F6F6F6" transform="matrix(1.00, 0.00, -0.00, -1.00, 115.6, 34.3)">o</text><text xml:space="preserve" font-family="Helvetica,Helvetica" font-size="20.0" fill="#F6F6F6" transform="matrix(1.00, 0.00, -0.00, -1.00, 126.7, 34.3)">s</text><text xml:space="preserve" font-family="Helvetica,Helvetica" font-size="20.0" fill="#F6F6F6" transform="matrix(1.00, 0.00, -0.00, -1.00, 136.7, 34.3)">t</text><text xml:space="preserve" font-family="Helvetica,Helvetica" font-size="20.0" fill="#F6F6F6" transform="matrix(1.00, 0.00, -0.00, -1.00, 142.3, 34.3)">r</text><text xml:space="preserve" font-family="Helvetica,Helvetica" font-size="20.0" fill="#F6F6F6" transform="matrix(1.00, 0.00, -0.00, -1.00, 148.9, 34.3)">u</text><text xml:space="preserve" font-family="Helvetica,Helvetica" font-size="20.0" fill="#F6F6F6" transform="matrix(1.00, 0.00, -0.00, -1.00, 160.1, 34.3)">d</text><text xml:space="preserve" font-family="Helvetica,Helvetica" font-size="20.0" fill="#F6F6F6" transform="matrix(1.00, 0.00, -0.00, -1.00, 171.2, 34.3)"> </text><text xml:space="preserve" font-family="Helvetica,Helvetica" font-size="20.0" fill="#F6F6F6" transform="matrix(1.00, 0.00, -0.00, -1.00, 176.8, 34.3)">e</text><text xml:space="preserve" font-family="Helvetica,Helvetica" font-size="20.0" fill="#F6F6F6" transform="matrix(1.00, 0.00, -0.00, -1.00, 187.9, 34.3)">x</text><text xml:space="preserve" font-family="Helvetica,Helvetica" font-size="20.0" fill="#F6F6F6" transform="matrix(1.00, 0.00, -0.00, -1.00, 197.9, 34.3)">e</text><text xml:space="preserve" font-family="Helvetica,Helvetica" font-size="20.0" fill="#F6F6F6" transform="matrix(1.00, 0.00, -0.00, -1.00, 209.0, 34.3)">r</text><text xml:space="preserve" font-family="Helvetica,Helvetica" font-size="20.0" fill="#F6F6F6" transform="matrix(1.00, 0.00, -0.00, -1.00, 215.7, 34.3)">c</text><text xml:space="preserve" font-family="Helvetica,Helvetica" font-size="20.0" fill="#F6F6F6" transform="matrix(1.00, 0.00, -0.00, -1.00, 225.7, 34.3)">i</text><text xml:space="preserve" font-family="Helvetica,Helvetica" font-size="20.0" fill="#F6F6F6" transform="matrix(1.00, 0.00, -0.00, -1.00, 230.1, 34.3)"> </text><text xml:space="preserve" font-family="Helvetica,Helvetica" font-size="20.0" fill="#F6F6F6" transform="matrix(1.00, 0.00, -0.00, -1.00, 235.7, 34.3)">t</text><text xml:space="preserve" font-family="Helvetica,Helvetica" font-size="20.0" fill="#F6F6F6" transform="matrix(1.00, 0.00, -0.00, -1.00, 241.2, 34.3)">a</text><text xml:space="preserve" font-family="Helvetica,Helvetica" font-size="20.0" fill="#F6F6F6" transform="matrix(1.00, 0.00, -0.00, -1.00, 252.3, 34.3)">t</text><text xml:space="preserve" font-family="Helvetica,Helvetica" font-size="20.0" fill="#F6F6F6" transform="matrix(1.00, 0.00, -0.00, -1.00, 257.9, 34.3)">i</text><text xml:space="preserve" font-family="Helvetica,Helvetica" font-size="20.0" fill="#F6F6F6" transform="matrix(1.00, 0.00, -0.00, -1.00, 262.3, 34.3)">o</text><text xml:space="preserve" font-family="Helvetica,Helvetica" font-size="20.0" fill="#F6F6F6" transform="matrix(1.00, 0.00, -0.00, -1.00, 273.5, 34.3)">n</text><text xml:space="preserve" font-family="Helvetica,Helvetica" font-size="20.0" fill="#F6F6F6" transform="matrix(1.00, 0.00, -0.00, -1.00, 284.6, 34.3)">.</text></g></g></g></svg>