<?xml version="1.0" encoding="UTF-8" standalone="no"?><svg xmlns="http://www.w3.org/2000/svg" xmlns:xlink="http://www.w3.org/1999/xlink" clip-rule="evenodd" stroke-miterlimit="10" viewBox="0 0 86 47"><desc>SVG generated by Keynote</desc><defs></defs><g transform="matrix(1.00, 0.00, -0.00, -1.00, 0.0, 47.0)"><g><clipPath id="clip0x618004eadec0"><path d="M 0.1 0.5 L 85.4 0.5 L 85.4 47.0 L 0.1 47.0 Z M 0.1 0.5 "></path></clipPath><g clip-path="url(#clip0x618004eadec0)"><path d="M 5.3 46.0 C 3.0 46.0 1.0 44.1 1.0 41.8 L 1.0 12.9 C 1.0 10.6 3.0 9.0 5.3 9.0 L 36.7 9.0 L 42.6 1.5 L 48.5 9.0 L 80.2 9.0 C 82.5 9.0 84.0 10.6 84.0 12.9 L 84.0 41.8 C 84.0 44.1 82.5 46.0 80.2 46.0 L 5.3 46.0 Z M 5.3 46.0 " fill="#BC465B"></path></g></g><g><clipPath id="clip0x618004eae0a0"><path d="M 16.1 9.2 L 65.4 9.2 L 65.4 46.2 L 16.1 46.2 Z M 16.1 9.2 "></path></clipPath><g clip-path="url(#clip0x618004eae0a0)"><text xml:space="preserve" font-family="Helvetica,Helvetica" font-size="22.0" fill="#F6F6F6" transform="matrix(1.00, 0.00, -0.00, -1.00, 21.6, 19.8)">+</text><text xml:space="preserve" font-family="Helvetica,Helvetica" font-size="22.0" fill="#F6F6F6" transform="matrix(1.00, 0.00, -0.00, -1.00, 34.5, 19.8)">6</text><text xml:space="preserve" font-family="Helvetica,Helvetica" font-size="22.0" fill="#F6F6F6" transform="matrix(1.00, 0.00, -0.00, -1.00, 46.7, 19.8)">3</text></g></g></g></svg>