<?xml version="1.0" encoding="UTF-8" standalone="no"?><svg xmlns="http://www.w3.org/2000/svg" xmlns:xlink="http://www.w3.org/1999/xlink" clip-rule="evenodd" stroke-miterlimit="10" viewBox="0 0 86 48"><desc>SVG generated by Keynote</desc><defs></defs><g transform="matrix(1.00, 0.00, -0.00, -1.00, 0.0, 48.0)"><g><clipPath id="clip0x618004ead2c0"><path d="M 0.7 0.6 L 85.9 0.6 L 85.9 47.1 L 0.7 47.1 Z M 0.7 0.6 "></path></clipPath><g clip-path="url(#clip0x618004ead2c0)"><path d="M 5.8 46.0 C 3.5 46.1 2.0 44.2 2.0 41.9 L 2.0 13.0 C 2.0 10.7 3.5 9.0 5.8 9.0 L 37.3 9.0 L 43.2 1.6 L 49.1 9.0 L 80.8 9.0 C 83.1 9.0 85.0 10.7 85.0 13.0 L 85.0 41.9 C 85.0 44.2 83.1 46.0 80.8 46.0 L 5.8 46.0 Z M 5.8 46.1 " fill="#F6F6F6"></path></g></g><g><clipPath id="clip0x618004ead740"><path d="M 10.5 8.3 L 72.0 8.3 L 72.0 45.3 L 10.5 45.3 Z M 10.5 8.3 "></path></clipPath><g clip-path="url(#clip0x618004ead740)"><text xml:space="preserve" font-family="Helvetica,Helvetica" font-size="22.0" fill="#FF607B" transform="matrix(1.00, 0.00, -0.00, -1.00, 16.0, 18.9)">+</text><text xml:space="preserve" font-family="Helvetica,Helvetica" font-size="22.0" fill="#FF607B" transform="matrix(1.00, 0.00, -0.00, -1.00, 28.8, 18.9)">1</text><text xml:space="preserve" font-family="Helvetica,Helvetica" font-size="22.0" fill="#FF607B" transform="matrix(1.00, 0.00, -0.00, -1.00, 41.1, 18.9)">3</text><text xml:space="preserve" font-family="Helvetica,Helvetica" font-size="22.0" fill="#FF607B" transform="matrix(1.00, 0.00, -0.00, -1.00, 53.3, 18.9)">5</text></g></g></g></svg>