<?xml version="1.0" encoding="UTF-8" standalone="no"?><svg xmlns="http://www.w3.org/2000/svg" xmlns:xlink="http://www.w3.org/1999/xlink" clip-rule="evenodd" stroke-miterlimit="10" viewBox="0 0 462 263"><desc>SVG generated by Keynote</desc><defs></defs><g transform="matrix(1.00, 0.00, -0.00, -1.00, 0.0, 263.0)"><g><clipPath id="clip0x618004eacc00"><path d="M -39.6 -3.1 L 501.9 -3.1 L 501.9 302.9 L -39.6 302.9 Z M -39.6 -3.1 "></path></clipPath><g clip-path="url(#clip0x618004eacc00)"><text xml:space="preserve" font-family="Helvetica,Helvetica" font-size="180.0" fill="#F6F6F6" transform="matrix(1.00, 0.00, -0.00, -1.00, 6.4, 83.3)">9</text><text xml:space="preserve" font-family="Helvetica,Helvetica" font-size="180.0" fill="#F6F6F6" transform="matrix(1.00, 0.00, -0.00, -1.00, 106.6, 83.3)">.</text><text xml:space="preserve" font-family="Helvetica,Helvetica" font-size="180.0" fill="#F6F6F6" transform="matrix(1.00, 0.00, -0.00, -1.00, 156.6, 83.3)">3</text><text xml:space="preserve" font-family="Helvetica,Helvetica" font-size="180.0" fill="#F6F6F6" transform="matrix(1.00, 0.00, -0.00, -1.00, 256.8, 83.3)">0</text><text xml:space="preserve" font-family="Helvetica,Helvetica" font-size="180.0" fill="#F6F6F6" transform="matrix(1.00, 0.00, -0.00, -1.00, 356.9, 83.3)">2</text></g></g><g><clipPath id="clip0x6000052a8760"><path d="M 63.9 -5.1 L 464.1 -5.1 L 464.1 68.4 L 63.9 68.4 Z M 63.9 -5.1 "></path></clipPath><g clip-path="url(#clip0x6000052a8760)"><text xml:space="preserve" font-family="Helvetica,Helvetica" font-size="43.0" fill="#F6F6F6" transform="matrix(1.00, 0.00, -0.00, -1.00, 87.6, 15.6)">S</text><text xml:space="preserve" font-family="Helvetica,Helvetica" font-size="43.0" fill="#F6F6F6" transform="matrix(1.00, 0.00, -0.00, -1.00, 116.3, 15.6)">a</text><text xml:space="preserve" font-family="Helvetica,Helvetica" font-size="43.0" fill="#F6F6F6" transform="matrix(1.00, 0.00, -0.00, -1.00, 140.2, 15.6)">l</text><text xml:space="preserve" font-family="Helvetica,Helvetica" font-size="43.0" fill="#F6F6F6" transform="matrix(1.00, 0.00, -0.00, -1.00, 149.8, 15.6)">e</text><text xml:space="preserve" font-family="Helvetica,Helvetica" font-size="43.0" fill="#F6F6F6" transform="matrix(1.00, 0.00, -0.00, -1.00, 173.7, 15.6)">s</text><text xml:space="preserve" font-family="Helvetica,Helvetica" font-size="43.0" fill="#F6F6F6" transform="matrix(1.00, 0.00, -0.00, -1.00, 195.2, 15.6)"> </text><text xml:space="preserve" font-family="Helvetica,Helvetica" font-size="43.0" fill="#F6F6F6" transform="matrix(1.00, 0.00, -0.00, -1.00, 207.2, 15.6)">i</text><text xml:space="preserve" font-family="Helvetica,Helvetica" font-size="43.0" fill="#F6F6F6" transform="matrix(1.00, 0.00, -0.00, -1.00, 216.7, 15.6)">n</text><text xml:space="preserve" font-family="Helvetica,Helvetica" font-size="43.0" fill="#F6F6F6" transform="matrix(1.00, 0.00, -0.00, -1.00, 240.6, 15.6)"> </text><text xml:space="preserve" font-family="Helvetica,Helvetica" font-size="43.0" fill="#F6F6F6" transform="matrix(1.00, 0.00, -0.00, -1.00, 252.6, 15.6)">1</text><text xml:space="preserve" font-family="Helvetica,Helvetica" font-size="43.0" fill="#F6F6F6" transform="matrix(1.00, 0.00, -0.00, -1.00, 276.5, 15.6)">2</text><text xml:space="preserve" font-family="Helvetica,Helvetica" font-size="43.0" fill="#F6F6F6" transform="matrix(1.00, 0.00, -0.00, -1.00, 300.4, 15.6)"> </text><text xml:space="preserve" font-family="Helvetica,Helvetica" font-size="43.0" fill="#F6F6F6" transform="matrix(1.00, 0.00, -0.00, -1.00, 312.4, 15.6)">m</text><text xml:space="preserve" font-family="Helvetica,Helvetica" font-size="43.0" fill="#F6F6F6" transform="matrix(1.00, 0.00, -0.00, -1.00, 348.2, 15.6)">o</text><text xml:space="preserve" font-family="Helvetica,Helvetica" font-size="43.0" fill="#F6F6F6" transform="matrix(1.00, 0.00, -0.00, -1.00, 372.1, 15.6)">n</text><text xml:space="preserve" font-family="Helvetica,Helvetica" font-size="43.0" fill="#F6F6F6" transform="matrix(1.00, 0.00, -0.00, -1.00, 396.0, 15.6)">t</text><text xml:space="preserve" font-family="Helvetica,Helvetica" font-size="43.0" fill="#F6F6F6" transform="matrix(1.00, 0.00, -0.00, -1.00, 408.0, 15.6)">h</text><text xml:space="preserve" font-family="Helvetica,Helvetica" font-size="43.0" fill="#F6F6F6" transform="matrix(1.00, 0.00, -0.00, -1.00, 431.9, 15.6)">s</text><text xml:space="preserve" font-family="Helvetica,Helvetica" font-size="43.0" fill="#F6F6F6" transform="matrix(1.00, 0.00, -0.00, -1.00, 453.4, 15.6)"> </text></g></g></g></svg>