<?xml version="1.0" encoding="UTF-8" standalone="no"?><svg xmlns="http://www.w3.org/2000/svg" xmlns:xlink="http://www.w3.org/1999/xlink" clip-rule="evenodd" stroke-miterlimit="10" viewBox="0 0 674 106"><desc>SVG generated by Keynote</desc><defs></defs><g transform="matrix(1.00, 0.00, -0.00, -1.00, 0.0, 106.0)"><g><clipPath id="clip0x610008eb8ba0"><path d="M 136.9 11.1 L 673.4 11.1 L 673.4 64.1 L 136.9 64.1 Z M 136.9 11.1 "></path></clipPath><g clip-path="url(#clip0x610008eb8ba0)"><text xml:space="preserve" font-family="Helvetica,Helvetica" font-size="18.0" fill="#E2E2E2" transform="matrix(1.00, 0.00, -0.00, -1.00, 141.4, 41.7)">L</text><text xml:space="preserve" font-family="Helvetica,Helvetica" font-size="18.0" fill="#E2E2E2" transform="matrix(1.00, 0.00, -0.00, -1.00, 151.4, 41.7)">o</text><text xml:space="preserve" font-family="Helvetica,Helvetica" font-size="18.0" fill="#E2E2E2" transform="matrix(1.00, 0.00, -0.00, -1.00, 161.4, 41.7)">r</text><text xml:space="preserve" font-family="Helvetica,Helvetica" font-size="18.0" fill="#E2E2E2" transform="matrix(1.00, 0.00, -0.00, -1.00, 167.4, 41.7)">e</text><text xml:space="preserve" font-family="Helvetica,Helvetica" font-size="18.0" fill="#E2E2E2" transform="matrix(1.00, 0.00, -0.00, -1.00, 177.4, 41.7)">m</text><text xml:space="preserve" font-family="Helvetica,Helvetica" font-size="18.0" fill="#E2E2E2" transform="matrix(1.00, 0.00, -0.00, -1.00, 192.4, 41.7)"> </text><text xml:space="preserve" font-family="Helvetica,Helvetica" font-size="18.0" fill="#E2E2E2" transform="matrix(1.00, 0.00, -0.00, -1.00, 197.4, 41.7)">i</text><text xml:space="preserve" font-family="Helvetica,Helvetica" font-size="18.0" fill="#E2E2E2" transform="matrix(1.00, 0.00, -0.00, -1.00, 201.4, 41.7)">p</text><text xml:space="preserve" font-family="Helvetica,Helvetica" font-size="18.0" fill="#E2E2E2" transform="matrix(1.00, 0.00, -0.00, -1.00, 211.4, 41.7)">s</text><text xml:space="preserve" font-family="Helvetica,Helvetica" font-size="18.0" fill="#E2E2E2" transform="matrix(1.00, 0.00, -0.00, -1.00, 220.4, 41.7)">u</text><text xml:space="preserve" font-family="Helvetica,Helvetica" font-size="18.0" fill="#E2E2E2" transform="matrix(1.00, 0.00, -0.00, -1.00, 230.5, 41.7)">m</text><text xml:space="preserve" font-family="Helvetica,Helvetica" font-size="18.0" fill="#E2E2E2" transform="matrix(1.00, 0.00, -0.00, -1.00, 245.5, 41.7)"> </text><text xml:space="preserve" font-family="Helvetica,Helvetica" font-size="18.0" fill="#E2E2E2" transform="matrix(1.00, 0.00, -0.00, -1.00, 250.5, 41.7)">d</text><text xml:space="preserve" font-family="Helvetica,Helvetica" font-size="18.0" fill="#E2E2E2" transform="matrix(1.00, 0.00, -0.00, -1.00, 260.5, 41.7)">o</text><text xml:space="preserve" font-family="Helvetica,Helvetica" font-size="18.0" fill="#E2E2E2" transform="matrix(1.00, 0.00, -0.00, -1.00, 270.5, 41.7)">l</text><text xml:space="preserve" font-family="Helvetica,Helvetica" font-size="18.0" fill="#E2E2E2" transform="matrix(1.00, 0.00, -0.00, -1.00, 274.5, 41.7)">o</text><text xml:space="preserve" font-family="Helvetica,Helvetica" font-size="18.0" fill="#E2E2E2" transform="matrix(1.00, 0.00, -0.00, -1.00, 284.5, 41.7)">r</text><text xml:space="preserve" font-family="Helvetica,Helvetica" font-size="18.0" fill="#E2E2E2" transform="matrix(1.00, 0.00, -0.00, -1.00, 290.5, 41.7)"> </text><text xml:space="preserve" font-family="Helvetica,Helvetica" font-size="18.0" fill="#E2E2E2" transform="matrix(1.00, 0.00, -0.00, -1.00, 295.5, 41.7)">s</text><text xml:space="preserve" font-family="Helvetica,Helvetica" font-size="18.0" fill="#E2E2E2" transform="matrix(1.00, 0.00, -0.00, -1.00, 304.5, 41.7)">i</text><text xml:space="preserve" font-family="Helvetica,Helvetica" font-size="18.0" fill="#E2E2E2" transform="matrix(1.00, 0.00, -0.00, -1.00, 308.5, 41.7)">t</text><text xml:space="preserve" font-family="Helvetica,Helvetica" font-size="18.0" fill="#E2E2E2" transform="matrix(1.00, 0.00, -0.00, -1.00, 313.5, 41.7)"> </text><text xml:space="preserve" font-family="Helvetica,Helvetica" font-size="18.0" fill="#E2E2E2" transform="matrix(1.00, 0.00, -0.00, -1.00, 318.5, 41.7)">a</text><text xml:space="preserve" font-family="Helvetica,Helvetica" font-size="18.0" fill="#E2E2E2" transform="matrix(1.00, 0.00, -0.00, -1.00, 328.5, 41.7)">m</text><text xml:space="preserve" font-family="Helvetica,Helvetica" font-size="18.0" fill="#E2E2E2" transform="matrix(1.00, 0.00, -0.00, -1.00, 343.5, 41.7)">e</text><text xml:space="preserve" font-family="Helvetica,Helvetica" font-size="18.0" fill="#E2E2E2" transform="matrix(1.00, 0.00, -0.00, -1.00, 353.5, 41.7)">t</text><text xml:space="preserve" font-family="Helvetica,Helvetica" font-size="18.0" fill="#E2E2E2" transform="matrix(1.00, 0.00, -0.00, -1.00, 358.5, 41.7)">,</text><text xml:space="preserve" font-family="Helvetica,Helvetica" font-size="18.0" fill="#E2E2E2" transform="matrix(1.00, 0.00, -0.00, -1.00, 363.5, 41.7)"> </text><text xml:space="preserve" font-family="Helvetica,Helvetica" font-size="18.0" fill="#E2E2E2" transform="matrix(1.00, 0.00, -0.00, -1.00, 368.5, 41.7)">c</text><text xml:space="preserve" font-family="Helvetica,Helvetica" font-size="18.0" fill="#E2E2E2" transform="matrix(1.00, 0.00, -0.00, -1.00, 377.5, 41.7)">o</text><text xml:space="preserve" font-family="Helvetica,Helvetica" font-size="18.0" fill="#E2E2E2" transform="matrix(1.00, 0.00, -0.00, -1.00, 387.5, 41.7)">n</text><text xml:space="preserve" font-family="Helvetica,Helvetica" font-size="18.0" fill="#E2E2E2" transform="matrix(1.00, 0.00, -0.00, -1.00, 397.5, 41.7)">s</text><text xml:space="preserve" font-family="Helvetica,Helvetica" font-size="18.0" fill="#E2E2E2" transform="matrix(1.00, 0.00, -0.00, -1.00, 406.5, 41.7)">e</text><text xml:space="preserve" font-family="Helvetica,Helvetica" font-size="18.0" fill="#E2E2E2" transform="matrix(1.00, 0.00, -0.00, -1.00, 416.5, 41.7)">c</text><text xml:space="preserve" font-family="Helvetica,Helvetica" font-size="18.0" fill="#E2E2E2" transform="matrix(1.00, 0.00, -0.00, -1.00, 425.5, 41.7)">t</text><text xml:space="preserve" font-family="Helvetica,Helvetica" font-size="18.0" fill="#E2E2E2" transform="matrix(1.00, 0.00, -0.00, -1.00, 430.5, 41.7)">e</text><text xml:space="preserve" font-family="Helvetica,Helvetica" font-size="18.0" fill="#E2E2E2" transform="matrix(1.00, 0.00, -0.00, -1.00, 440.6, 41.7)">t</text><text xml:space="preserve" font-family="Helvetica,Helvetica" font-size="18.0" fill="#E2E2E2" transform="matrix(1.00, 0.00, -0.00, -1.00, 445.6, 41.7)">u</text><text xml:space="preserve" font-family="Helvetica,Helvetica" font-size="18.0" fill="#E2E2E2" transform="matrix(1.00, 0.00, -0.00, -1.00, 455.6, 41.7)">e</text><text xml:space="preserve" font-family="Helvetica,Helvetica" font-size="18.0" fill="#E2E2E2" transform="matrix(1.00, 0.00, -0.00, -1.00, 465.6, 41.7)">r</text><text xml:space="preserve" font-family="Helvetica,Helvetica" font-size="18.0" fill="#E2E2E2" transform="matrix(1.00, 0.00, -0.00, -1.00, 471.6, 41.7)"> </text><text xml:space="preserve" font-family="Helvetica,Helvetica" font-size="18.0" fill="#E2E2E2" transform="matrix(1.00, 0.00, -0.00, -1.00, 476.6, 41.7)">a</text><text xml:space="preserve" font-family="Helvetica,Helvetica" font-size="18.0" fill="#E2E2E2" transform="matrix(1.00, 0.00, -0.00, -1.00, 486.6, 41.7)">d</text><text xml:space="preserve" font-family="Helvetica,Helvetica" font-size="18.0" fill="#E2E2E2" transform="matrix(1.00, 0.00, -0.00, -1.00, 496.6, 41.7)">i</text><text xml:space="preserve" font-family="Helvetica,Helvetica" font-size="18.0" fill="#E2E2E2" transform="matrix(1.00, 0.00, -0.00, -1.00, 500.6, 41.7)">p</text><text xml:space="preserve" font-family="Helvetica,Helvetica" font-size="18.0" fill="#E2E2E2" transform="matrix(1.00, 0.00, -0.00, -1.00, 510.6, 41.7)">i</text><text xml:space="preserve" font-family="Helvetica,Helvetica" font-size="18.0" fill="#E2E2E2" transform="matrix(1.00, 0.00, -0.00, -1.00, 514.6, 41.7)">s</text><text xml:space="preserve" font-family="Helvetica,Helvetica" font-size="18.0" fill="#E2E2E2" transform="matrix(1.00, 0.00, -0.00, -1.00, 523.6, 41.7)">c</text><text xml:space="preserve" font-family="Helvetica,Helvetica" font-size="18.0" fill="#E2E2E2" transform="matrix(1.00, 0.00, -0.00, -1.00, 532.6, 41.7)">i</text><text xml:space="preserve" font-family="Helvetica,Helvetica" font-size="18.0" fill="#E2E2E2" transform="matrix(1.00, 0.00, -0.00, -1.00, 536.6, 41.7)">n</text><text xml:space="preserve" font-family="Helvetica,Helvetica" font-size="18.0" fill="#E2E2E2" transform="matrix(1.00, 0.00, -0.00, -1.00, 546.6, 41.7)">g</text><text xml:space="preserve" font-family="Helvetica,Helvetica" font-size="18.0" fill="#E2E2E2" transform="matrix(1.00, 0.00, -0.00, -1.00, 556.7, 41.7)"> </text><text xml:space="preserve" font-family="Helvetica,Helvetica" font-size="18.0" fill="#E2E2E2" transform="matrix(1.00, 0.00, -0.00, -1.00, 561.7, 41.7)">e</text><text xml:space="preserve" font-family="Helvetica,Helvetica" font-size="18.0" fill="#E2E2E2" transform="matrix(1.00, 0.00, -0.00, -1.00, 571.7, 41.7)">l</text><text xml:space="preserve" font-family="Helvetica,Helvetica" font-size="18.0" fill="#E2E2E2" transform="matrix(1.00, 0.00, -0.00, -1.00, 575.7, 41.7)">i</text><text xml:space="preserve" font-family="Helvetica,Helvetica" font-size="18.0" fill="#E2E2E2" transform="matrix(1.00, 0.00, -0.00, -1.00, 579.7, 41.7)">t</text><text xml:space="preserve" font-family="Helvetica,Helvetica" font-size="18.0" fill="#E2E2E2" transform="matrix(1.00, 0.00, -0.00, -1.00, 584.7, 41.7)">,</text><text xml:space="preserve" font-family="Helvetica,Helvetica" font-size="18.0" fill="#E2E2E2" transform="matrix(1.00, 0.00, -0.00, -1.00, 589.7, 41.7)"> </text><text xml:space="preserve" font-family="Helvetica,Helvetica" font-size="18.0" fill="#E2E2E2" transform="matrix(1.00, 0.00, -0.00, -1.00, 594.7, 41.7)">s</text><text xml:space="preserve" font-family="Helvetica,Helvetica" font-size="18.0" fill="#E2E2E2" transform="matrix(1.00, 0.00, -0.00, -1.00, 603.7, 41.7)">e</text><text xml:space="preserve" font-family="Helvetica,Helvetica" font-size="18.0" fill="#E2E2E2" transform="matrix(1.00, 0.00, -0.00, -1.00, 613.7, 41.7)">d</text><text xml:space="preserve" font-family="Helvetica,Helvetica" font-size="18.0" fill="#E2E2E2" transform="matrix(1.00, 0.00, -0.00, -1.00, 623.7, 41.7)"> </text><text xml:space="preserve" font-family="Helvetica,Helvetica" font-size="18.0" fill="#E2E2E2" transform="matrix(1.00, 0.00, -0.00, -1.00, 628.7, 41.7)">d</text><text xml:space="preserve" font-family="Helvetica,Helvetica" font-size="18.0" fill="#E2E2E2" transform="matrix(1.00, 0.00, -0.00, -1.00, 638.7, 41.7)">i</text><text xml:space="preserve" font-family="Helvetica,Helvetica" font-size="18.0" fill="#E2E2E2" transform="matrix(1.00, 0.00, -0.00, -1.00, 642.7, 41.7)">a</text><text xml:space="preserve" font-family="Helvetica,Helvetica" font-size="18.0" fill="#E2E2E2" transform="matrix(1.00, 0.00, -0.00, -1.00, 652.7, 41.7)">m</text><text xml:space="preserve" font-family="Helvetica,Helvetica" font-size="18.0" fill="#E2E2E2" transform="matrix(1.00, 0.00, -0.00, -1.00, 667.7, 41.7)"> </text><text xml:space="preserve" font-family="Helvetica,Helvetica" font-size="18.0" fill="#E2E2E2" transform="matrix(1.00, 0.00, -0.00, -1.00, 141.4, 19.7)">n</text><text xml:space="preserve" font-family="Helvetica,Helvetica" font-size="18.0" fill="#E2E2E2" transform="matrix(1.00, 0.00, -0.00, -1.00, 151.4, 19.7)">o</text><text xml:space="preserve" font-family="Helvetica,Helvetica" font-size="18.0" fill="#E2E2E2" transform="matrix(1.00, 0.00, -0.00, -1.00, 161.4, 19.7)">n</text><text xml:space="preserve" font-family="Helvetica,Helvetica" font-size="18.0" fill="#E2E2E2" transform="matrix(1.00, 0.00, -0.00, -1.00, 171.4, 19.7)">u</text><text xml:space="preserve" font-family="Helvetica,Helvetica" font-size="18.0" fill="#E2E2E2" transform="matrix(1.00, 0.00, -0.00, -1.00, 181.5, 19.7)">m</text><text xml:space="preserve" font-family="Helvetica,Helvetica" font-size="18.0" fill="#E2E2E2" transform="matrix(1.00, 0.00, -0.00, -1.00, 196.5, 19.7)">m</text><text xml:space="preserve" font-family="Helvetica,Helvetica" font-size="18.0" fill="#E2E2E2" transform="matrix(1.00, 0.00, -0.00, -1.00, 211.4, 19.7)">y</text><text xml:space="preserve" font-family="Helvetica,Helvetica" font-size="18.0" fill="#E2E2E2" transform="matrix(1.00, 0.00, -0.00, -1.00, 220.4, 19.7)"> </text><text xml:space="preserve" font-family="Helvetica,Helvetica" font-size="18.0" fill="#E2E2E2" transform="matrix(1.00, 0.00, -0.00, -1.00, 225.4, 19.7)">n</text><text xml:space="preserve" font-family="Helvetica,Helvetica" font-size="18.0" fill="#E2E2E2" transform="matrix(1.00, 0.00, -0.00, -1.00, 235.5, 19.7)">i</text><text xml:space="preserve" font-family="Helvetica,Helvetica" font-size="18.0" fill="#E2E2E2" transform="matrix(1.00, 0.00, -0.00, -1.00, 239.5, 19.7)">b</text><text xml:space="preserve" font-family="Helvetica,Helvetica" font-size="18.0" fill="#E2E2E2" transform="matrix(1.00, 0.00, -0.00, -1.00, 249.5, 19.7)">h</text><text xml:space="preserve" font-family="Helvetica,Helvetica" font-size="18.0" fill="#E2E2E2" transform="matrix(1.00, 0.00, -0.00, -1.00, 259.5, 19.7)"> </text><text xml:space="preserve" font-family="Helvetica,Helvetica" font-size="18.0" fill="#E2E2E2" transform="matrix(1.00, 0.00, -0.00, -1.00, 264.5, 19.7)">e</text><text xml:space="preserve" font-family="Helvetica,Helvetica" font-size="18.0" fill="#E2E2E2" transform="matrix(1.00, 0.00, -0.00, -1.00, 274.5, 19.7)">u</text><text xml:space="preserve" font-family="Helvetica,Helvetica" font-size="18.0" fill="#E2E2E2" transform="matrix(1.00, 0.00, -0.00, -1.00, 284.5, 19.7)">i</text><text xml:space="preserve" font-family="Helvetica,Helvetica" font-size="18.0" fill="#E2E2E2" transform="matrix(1.00, 0.00, -0.00, -1.00, 288.5, 19.7)">s</text><text xml:space="preserve" font-family="Helvetica,Helvetica" font-size="18.0" fill="#E2E2E2" transform="matrix(1.00, 0.00, -0.00, -1.00, 297.5, 19.7)">m</text><text xml:space="preserve" font-family="Helvetica,Helvetica" font-size="18.0" fill="#E2E2E2" transform="matrix(1.00, 0.00, -0.00, -1.00, 312.5, 19.7)">o</text><text xml:space="preserve" font-family="Helvetica,Helvetica" font-size="18.0" fill="#E2E2E2" transform="matrix(1.00, 0.00, -0.00, -1.00, 322.5, 19.7)">d</text><text xml:space="preserve" font-family="Helvetica,Helvetica" font-size="18.0" fill="#E2E2E2" transform="matrix(1.00, 0.00, -0.00, -1.00, 332.5, 19.7)"> </text><text xml:space="preserve" font-family="Helvetica,Helvetica" font-size="18.0" fill="#E2E2E2" transform="matrix(1.00, 0.00, -0.00, -1.00, 337.5, 19.7)">t</text><text xml:space="preserve" font-family="Helvetica,Helvetica" font-size="18.0" fill="#E2E2E2" transform="matrix(1.00, 0.00, -0.00, -1.00, 342.5, 19.7)">i</text><text xml:space="preserve" font-family="Helvetica,Helvetica" font-size="18.0" fill="#E2E2E2" transform="matrix(1.00, 0.00, -0.00, -1.00, 346.5, 19.7)">n</text><text xml:space="preserve" font-family="Helvetica,Helvetica" font-size="18.0" fill="#E2E2E2" transform="matrix(1.00, 0.00, -0.00, -1.00, 356.6, 19.7)">c</text><text xml:space="preserve" font-family="Helvetica,Helvetica" font-size="18.0" fill="#E2E2E2" transform="matrix(1.00, 0.00, -0.00, -1.00, 365.6, 19.7)">i</text><text xml:space="preserve" font-family="Helvetica,Helvetica" font-size="18.0" fill="#E2E2E2" transform="matrix(1.00, 0.00, -0.00, -1.00, 369.6, 19.7)">d</text><text xml:space="preserve" font-family="Helvetica,Helvetica" font-size="18.0" fill="#E2E2E2" transform="matrix(1.00, 0.00, -0.00, -1.00, 379.6, 19.7)">u</text><text xml:space="preserve" font-family="Helvetica,Helvetica" font-size="18.0" fill="#E2E2E2" transform="matrix(1.00, 0.00, -0.00, -1.00, 389.6, 19.7)">n</text><text xml:space="preserve" font-family="Helvetica,Helvetica" font-size="18.0" fill="#E2E2E2" transform="matrix(1.00, 0.00, -0.00, -1.00, 399.6, 19.7)">t</text><text xml:space="preserve" font-family="Helvetica,Helvetica" font-size="18.0" fill="#E2E2E2" transform="matrix(1.00, 0.00, -0.00, -1.00, 404.6, 19.7)"> </text><text xml:space="preserve" font-family="Helvetica,Helvetica" font-size="18.0" fill="#E2E2E2" transform="matrix(1.00, 0.00, -0.00, -1.00, 409.6, 19.7)">u</text><text xml:space="preserve" font-family="Helvetica,Helvetica" font-size="18.0" fill="#E2E2E2" transform="matrix(1.00, 0.00, -0.00, -1.00, 419.6, 19.7)">t</text><text xml:space="preserve" font-family="Helvetica,Helvetica" font-size="18.0" fill="#E2E2E2" transform="matrix(1.00, 0.00, -0.00, -1.00, 424.6, 19.7)"> </text><text xml:space="preserve" font-family="Helvetica,Helvetica" font-size="18.0" fill="#E2E2E2" transform="matrix(1.00, 0.00, -0.00, -1.00, 429.6, 19.7)">l</text><text xml:space="preserve" font-family="Helvetica,Helvetica" font-size="18.0" fill="#E2E2E2" transform="matrix(1.00, 0.00, -0.00, -1.00, 433.6, 19.7)">a</text><text xml:space="preserve" font-family="Helvetica,Helvetica" font-size="18.0" fill="#E2E2E2" transform="matrix(1.00, 0.00, -0.00, -1.00, 443.6, 19.7)">o</text><text xml:space="preserve" font-family="Helvetica,Helvetica" font-size="18.0" fill="#E2E2E2" transform="matrix(1.00, 0.00, -0.00, -1.00, 453.6, 19.7)">r</text><text xml:space="preserve" font-family="Helvetica,Helvetica" font-size="18.0" fill="#E2E2E2" transform="matrix(1.00, 0.00, -0.00, -1.00, 459.6, 19.7)">e</text><text xml:space="preserve" font-family="Helvetica,Helvetica" font-size="18.0" fill="#E2E2E2" transform="matrix(1.00, 0.00, -0.00, -1.00, 469.6, 19.7)">e</text><text xml:space="preserve" font-family="Helvetica,Helvetica" font-size="18.0" fill="#E2E2E2" transform="matrix(1.00, 0.00, -0.00, -1.00, 479.7, 19.7)">t</text><text xml:space="preserve" font-family="Helvetica,Helvetica" font-size="18.0" fill="#E2E2E2" transform="matrix(1.00, 0.00, -0.00, -1.00, 484.7, 19.7)"> </text><text xml:space="preserve" font-family="Helvetica,Helvetica" font-size="18.0" fill="#E2E2E2" transform="matrix(1.00, 0.00, -0.00, -1.00, 489.7, 19.7)">d</text><text xml:space="preserve" font-family="Helvetica,Helvetica" font-size="18.0" fill="#E2E2E2" transform="matrix(1.00, 0.00, -0.00, -1.00, 499.7, 19.7)">o</text><text xml:space="preserve" font-family="Helvetica,Helvetica" font-size="18.0" fill="#E2E2E2" transform="matrix(1.00, 0.00, -0.00, -1.00, 509.7, 19.7)">l</text><text xml:space="preserve" font-family="Helvetica,Helvetica" font-size="18.0" fill="#E2E2E2" transform="matrix(1.00, 0.00, -0.00, -1.00, 513.7, 19.7)">o</text><text xml:space="preserve" font-family="Helvetica,Helvetica" font-size="18.0" fill="#E2E2E2" transform="matrix(1.00, 0.00, -0.00, -1.00, 523.7, 19.7)">r</text><text xml:space="preserve" font-family="Helvetica,Helvetica" font-size="18.0" fill="#E2E2E2" transform="matrix(1.00, 0.00, -0.00, -1.00, 529.7, 19.7)">e</text><text xml:space="preserve" font-family="Helvetica,Helvetica" font-size="18.0" fill="#E2E2E2" transform="matrix(1.00, 0.00, -0.00, -1.00, 539.7, 19.7)"> </text><text xml:space="preserve" font-family="Helvetica,Helvetica" font-size="18.0" fill="#E2E2E2" transform="matrix(1.00, 0.00, -0.00, -1.00, 544.7, 19.7)">m</text><text xml:space="preserve" font-family="Helvetica,Helvetica" font-size="18.0" fill="#E2E2E2" transform="matrix(1.00, 0.00, -0.00, -1.00, 559.7, 19.7)">a</text><text xml:space="preserve" font-family="Helvetica,Helvetica" font-size="18.0" fill="#E2E2E2" transform="matrix(1.00, 0.00, -0.00, -1.00, 569.7, 19.7)">g</text><text xml:space="preserve" font-family="Helvetica,Helvetica" font-size="18.0" fill="#E2E2E2" transform="matrix(1.00, 0.00, -0.00, -1.00, 579.7, 19.7)">n</text><text xml:space="preserve" font-family="Helvetica,Helvetica" font-size="18.0" fill="#E2E2E2" transform="matrix(1.00, 0.00, -0.00, -1.00, 589.7, 19.7)">a</text><text xml:space="preserve" font-family="Helvetica,Helvetica" font-size="18.0" fill="#E2E2E2" transform="matrix(1.00, 0.00, -0.00, -1.00, 599.8, 19.7)"> </text><text xml:space="preserve" font-family="Helvetica,Helvetica" font-size="18.0" fill="#E2E2E2" transform="matrix(1.00, 0.00, -0.00, -1.00, 604.8, 19.7)">a</text><text xml:space="preserve" font-family="Helvetica,Helvetica" font-size="18.0" fill="#E2E2E2" transform="matrix(1.00, 0.00, -0.00, -1.00, 614.8, 19.7)">l</text><text xml:space="preserve" font-family="Helvetica,Helvetica" font-size="18.0" fill="#E2E2E2" transform="matrix(1.00, 0.00, -0.00, -1.00, 618.8, 19.7)">i</text><text xml:space="preserve" font-family="Helvetica,Helvetica" font-size="18.0" fill="#E2E2E2" transform="matrix(1.00, 0.00, -0.00, -1.00, 622.8, 19.7)">q</text><text xml:space="preserve" font-family="Helvetica,Helvetica" font-size="18.0" fill="#E2E2E2" transform="matrix(1.00, 0.00, -0.00, -1.00, 632.8, 19.7)">u</text><text xml:space="preserve" font-family="Helvetica,Helvetica" font-size="18.0" fill="#E2E2E2" transform="matrix(1.00, 0.00, -0.00, -1.00, 642.8, 19.7)">a</text><text xml:space="preserve" font-family="Helvetica,Helvetica" font-size="18.0" fill="#E2E2E2" transform="matrix(1.00, 0.00, -0.00, -1.00, 652.8, 19.7)">.</text></g></g><g><clipPath id="clip0x6080078a8e20"><path d="M 135.5 61.9 L 270.5 61.9 L 270.5 92.9 L 135.5 92.9 Z M 135.5 61.9 "></path></clipPath><g clip-path="url(#clip0x6080078a8e20)"><text xml:space="preserve" font-family="Helvetica,Helvetica" font-size="18.0" fill="#E2E2E2" transform="matrix(1.00, 0.00, -0.00, -1.00, 140.0, 70.6)">I</text><text xml:space="preserve" font-family="Helvetica,Helvetica" font-size="18.0" fill="#E2E2E2" transform="matrix(1.00, 0.00, -0.00, -1.00, 145.0, 70.6)">N</text><text xml:space="preserve" font-family="Helvetica,Helvetica" font-size="18.0" fill="#E2E2E2" transform="matrix(1.00, 0.00, -0.00, -1.00, 158.0, 70.6)">F</text><text xml:space="preserve" font-family="Helvetica,Helvetica" font-size="18.0" fill="#E2E2E2" transform="matrix(1.00, 0.00, -0.00, -1.00, 169.0, 70.6)">O</text><text xml:space="preserve" font-family="Helvetica,Helvetica" font-size="18.0" fill="#E2E2E2" transform="matrix(1.00, 0.00, -0.00, -1.00, 183.0, 70.6)"> </text><text xml:space="preserve" font-family="Helvetica,Helvetica" font-size="18.0" fill="#E2E2E2" transform="matrix(1.00, 0.00, -0.00, -1.00, 188.0, 70.6)">O</text><text xml:space="preserve" font-family="Helvetica,Helvetica" font-size="18.0" fill="#E2E2E2" transform="matrix(1.00, 0.00, -0.00, -1.00, 202.0, 70.6)">F</text><text xml:space="preserve" font-family="Helvetica,Helvetica" font-size="18.0" fill="#E2E2E2" transform="matrix(1.00, 0.00, -0.00, -1.00, 213.0, 70.6)"> </text><text xml:space="preserve" font-family="Helvetica,Helvetica" font-size="18.0" fill="#E2E2E2" transform="matrix(1.00, 0.00, -0.00, -1.00, 218.0, 70.6)">B</text><text xml:space="preserve" font-family="Helvetica,Helvetica" font-size="18.0" fill="#E2E2E2" transform="matrix(1.00, 0.00, -0.00, -1.00, 230.0, 70.6)">L</text><text xml:space="preserve" font-family="Helvetica,Helvetica" font-size="18.0" fill="#E2E2E2" transform="matrix(1.00, 0.00, -0.00, -1.00, 240.0, 70.6)">U</text><text xml:space="preserve" font-family="Helvetica,Helvetica" font-size="18.0" fill="#E2E2E2" transform="matrix(1.00, 0.00, -0.00, -1.00, 253.0, 70.6)">E</text></g></g><g><clipPath id="clip0x6080078a9480"><path d="M -14.3 -15.0 L 140.6 -15.0 L 140.6 121.0 L -14.3 121.0 Z M -14.3 -15.0 "></path></clipPath><g clip-path="url(#clip0x6080078a9480)"><text xml:space="preserve" font-family="Helvetica,Helvetica" font-size="28.0" fill="#54C6E1" transform="matrix(1.00, 0.00, -0.00, -1.00, 6.2, 23.4)">%</text><text xml:space="preserve" font-family="Helvetica,Helvetica" font-size="80.0" fill="#54C6E1" transform="matrix(1.00, 0.00, -0.00, -1.00, 31.1, 23.4)">3</text><text xml:space="preserve" font-family="Helvetica,Helvetica" font-size="80.0" fill="#54C6E1" transform="matrix(1.00, 0.00, -0.00, -1.00, 75.6, 23.4)">3</text></g></g></g></svg>