<?xml version="1.0" encoding="UTF-8" standalone="no"?><svg xmlns="http://www.w3.org/2000/svg" xmlns:xlink="http://www.w3.org/1999/xlink" clip-rule="evenodd" stroke-miterlimit="10" viewBox="0 0 472 276"><desc>SVG generated by Keynote</desc><defs><linearGradient id="gradSh1.3" x1="0.0" y1="0.0" x2="100.0" y2="0.0" gradientUnits="userSpaceOnUse" gradientTransform="matrix(-4.76, 0.34, 0.16, 2.24, 474.7, 85.2)"><stop offset="0.00000" stop-color="#3B93A8"></stop><stop offset="0.00220" stop-color="#3B94A8"></stop><stop offset="0.15469" stop-color="#409EB4"></stop><stop offset="0.15836" stop-color="#409FB4"></stop><stop offset="0.51320" stop-color="#4AB5CE"></stop><stop offset="0.89736" stop-color="#3F9EB4"></stop><stop offset="0.90469" stop-color="#3F9EB3"></stop><stop offset="1.00000" stop-color="#3D98AD"></stop></linearGradient></defs><g transform="matrix(1.00, 0.00, -0.00, -1.00, 0.0, 276.0)"><g><clipPath id="clip0x600008cb0020"><path d="M 0.2 0.5 L 471.6 0.5 L 471.6 164.9 L 0.2 164.9 Z M 0.2 0.5 "></path></clipPath><g clip-path="url(#clip0x600008cb0020)"><image xlink:href="2FD052883F8281B23DF255D3C45D5BFB.png" width="469.00" height="161.00" transform="matrix(1.00, 0.00, -0.00, -1.00, 1.2, 162.9)" opacity="0.46"></image><path d="M 4.2 86.2 L 235.9 8.5 L 467.6 86.2 L 235.9 163.9 Z M 4.2 86.2 " fill="#FF607B" fill-opacity="0.92"></path></g></g><g><clipPath id="clip0x6180082ab400"><path d="M 0.2 111.2 L 471.6 111.2 L 471.6 275.6 L 0.2 275.6 Z M 0.2 111.2 "></path></clipPath><g clip-path="url(#clip0x6180082ab400)"><image xlink:href="../../0D2548E4-FE82-4977-9B4F-89B21C53903F/assets/2FD052883F8281B23DF255D3C45D5BFB.png" width="469.00" height="161.00" transform="matrix(1.00, 0.00, -0.00, -1.00, 1.2, 273.6)" opacity="0.50"></image><path d="M 4.2 196.9 L 235.9 119.2 L 467.6 196.9 L 235.9 274.6 Z M 4.2 196.9 " fill="#54C6E1"></path></g></g><g><clipPath id="clip0x6180082ab700"><path d="M 5.3 196.8 L 5.0 85.9 L 236.9 7.7 L 468.0 86.1 L 467.0 197.2 L 236.7 120.1 L 5.3 196.8 Z M 5.3 196.8 "></path></clipPath><g clip-path="url(#clip0x6180082ab700)"><g><clipPath id="clip0x6180082ab880"><path d="M 3.6 6.7 L 468.6 6.7 L 468.6 198.2 L 3.6 198.2 Z M 3.6 6.7 "></path></clipPath><g clip-path="url(#clip0x6180082ab880)"><path d="M 3.6 6.7 L 468.6 6.7 L 468.6 198.2 L 3.6 198.2 Z M 3.6 6.7 " fill="url(#gradSh1.3)"></path></g></g></g></g></g></svg>