<?xml version="1.0" encoding="UTF-8" standalone="no"?><svg xmlns="http://www.w3.org/2000/svg" xmlns:xlink="http://www.w3.org/1999/xlink" clip-rule="evenodd" stroke-miterlimit="10" viewBox="0 0 674 107"><desc>SVG generated by Keynote</desc><defs></defs><g transform="matrix(1.00, 0.00, -0.00, -1.00, 0.0, 107.0)"><g><clipPath id="clip0x6000092b74c0"><path d="M 136.7 11.8 L 673.2 11.8 L 673.2 64.8 L 136.7 64.8 Z M 136.7 11.8 "></path></clipPath><g clip-path="url(#clip0x6000092b74c0)"><text xml:space="preserve" font-family="Helvetica,Helvetica" font-size="18.0" fill="#D4D4D4" transform="matrix(1.00, 0.00, -0.00, -1.00, 141.2, 42.4)">L</text><text xml:space="preserve" font-family="Helvetica,Helvetica" font-size="18.0" fill="#D4D4D4" transform="matrix(1.00, 0.00, -0.00, -1.00, 151.2, 42.4)">o</text><text xml:space="preserve" font-family="Helvetica,Helvetica" font-size="18.0" fill="#D4D4D4" transform="matrix(1.00, 0.00, -0.00, -1.00, 161.2, 42.4)">r</text><text xml:space="preserve" font-family="Helvetica,Helvetica" font-size="18.0" fill="#D4D4D4" transform="matrix(1.00, 0.00, -0.00, -1.00, 167.2, 42.4)">e</text><text xml:space="preserve" font-family="Helvetica,Helvetica" font-size="18.0" fill="#D4D4D4" transform="matrix(1.00, 0.00, -0.00, -1.00, 177.3, 42.4)">m</text><text xml:space="preserve" font-family="Helvetica,Helvetica" font-size="18.0" fill="#D4D4D4" transform="matrix(1.00, 0.00, -0.00, -1.00, 192.3, 42.4)"> </text><text xml:space="preserve" font-family="Helvetica,Helvetica" font-size="18.0" fill="#D4D4D4" transform="matrix(1.00, 0.00, -0.00, -1.00, 197.2, 42.4)">i</text><text xml:space="preserve" font-family="Helvetica,Helvetica" font-size="18.0" fill="#D4D4D4" transform="matrix(1.00, 0.00, -0.00, -1.00, 201.3, 42.4)">p</text><text xml:space="preserve" font-family="Helvetica,Helvetica" font-size="18.0" fill="#D4D4D4" transform="matrix(1.00, 0.00, -0.00, -1.00, 211.3, 42.4)">s</text><text xml:space="preserve" font-family="Helvetica,Helvetica" font-size="18.0" fill="#D4D4D4" transform="matrix(1.00, 0.00, -0.00, -1.00, 220.3, 42.4)">u</text><text xml:space="preserve" font-family="Helvetica,Helvetica" font-size="18.0" fill="#D4D4D4" transform="matrix(1.00, 0.00, -0.00, -1.00, 230.3, 42.4)">m</text><text xml:space="preserve" font-family="Helvetica,Helvetica" font-size="18.0" fill="#D4D4D4" transform="matrix(1.00, 0.00, -0.00, -1.00, 245.3, 42.4)"> </text><text xml:space="preserve" font-family="Helvetica,Helvetica" font-size="18.0" fill="#D4D4D4" transform="matrix(1.00, 0.00, -0.00, -1.00, 250.3, 42.4)">d</text><text xml:space="preserve" font-family="Helvetica,Helvetica" font-size="18.0" fill="#D4D4D4" transform="matrix(1.00, 0.00, -0.00, -1.00, 260.3, 42.4)">o</text><text xml:space="preserve" font-family="Helvetica,Helvetica" font-size="18.0" fill="#D4D4D4" transform="matrix(1.00, 0.00, -0.00, -1.00, 270.3, 42.4)">l</text><text xml:space="preserve" font-family="Helvetica,Helvetica" font-size="18.0" fill="#D4D4D4" transform="matrix(1.00, 0.00, -0.00, -1.00, 274.3, 42.4)">o</text><text xml:space="preserve" font-family="Helvetica,Helvetica" font-size="18.0" fill="#D4D4D4" transform="matrix(1.00, 0.00, -0.00, -1.00, 284.3, 42.4)">r</text><text xml:space="preserve" font-family="Helvetica,Helvetica" font-size="18.0" fill="#D4D4D4" transform="matrix(1.00, 0.00, -0.00, -1.00, 290.3, 42.4)"> </text><text xml:space="preserve" font-family="Helvetica,Helvetica" font-size="18.0" fill="#D4D4D4" transform="matrix(1.00, 0.00, -0.00, -1.00, 295.3, 42.4)">s</text><text xml:space="preserve" font-family="Helvetica,Helvetica" font-size="18.0" fill="#D4D4D4" transform="matrix(1.00, 0.00, -0.00, -1.00, 304.3, 42.4)">i</text><text xml:space="preserve" font-family="Helvetica,Helvetica" font-size="18.0" fill="#D4D4D4" transform="matrix(1.00, 0.00, -0.00, -1.00, 308.3, 42.4)">t</text><text xml:space="preserve" font-family="Helvetica,Helvetica" font-size="18.0" fill="#D4D4D4" transform="matrix(1.00, 0.00, -0.00, -1.00, 313.3, 42.4)"> </text><text xml:space="preserve" font-family="Helvetica,Helvetica" font-size="18.0" fill="#D4D4D4" transform="matrix(1.00, 0.00, -0.00, -1.00, 318.3, 42.4)">a</text><text xml:space="preserve" font-family="Helvetica,Helvetica" font-size="18.0" fill="#D4D4D4" transform="matrix(1.00, 0.00, -0.00, -1.00, 328.3, 42.4)">m</text><text xml:space="preserve" font-family="Helvetica,Helvetica" font-size="18.0" fill="#D4D4D4" transform="matrix(1.00, 0.00, -0.00, -1.00, 343.3, 42.4)">e</text><text xml:space="preserve" font-family="Helvetica,Helvetica" font-size="18.0" fill="#D4D4D4" transform="matrix(1.00, 0.00, -0.00, -1.00, 353.3, 42.4)">t</text><text xml:space="preserve" font-family="Helvetica,Helvetica" font-size="18.0" fill="#D4D4D4" transform="matrix(1.00, 0.00, -0.00, -1.00, 358.3, 42.4)">,</text><text xml:space="preserve" font-family="Helvetica,Helvetica" font-size="18.0" fill="#D4D4D4" transform="matrix(1.00, 0.00, -0.00, -1.00, 363.3, 42.4)"> </text><text xml:space="preserve" font-family="Helvetica,Helvetica" font-size="18.0" fill="#D4D4D4" transform="matrix(1.00, 0.00, -0.00, -1.00, 368.3, 42.4)">c</text><text xml:space="preserve" font-family="Helvetica,Helvetica" font-size="18.0" fill="#D4D4D4" transform="matrix(1.00, 0.00, -0.00, -1.00, 377.3, 42.4)">o</text><text xml:space="preserve" font-family="Helvetica,Helvetica" font-size="18.0" fill="#D4D4D4" transform="matrix(1.00, 0.00, -0.00, -1.00, 387.3, 42.4)">n</text><text xml:space="preserve" font-family="Helvetica,Helvetica" font-size="18.0" fill="#D4D4D4" transform="matrix(1.00, 0.00, -0.00, -1.00, 397.4, 42.4)">s</text><text xml:space="preserve" font-family="Helvetica,Helvetica" font-size="18.0" fill="#D4D4D4" transform="matrix(1.00, 0.00, -0.00, -1.00, 406.4, 42.4)">e</text><text xml:space="preserve" font-family="Helvetica,Helvetica" font-size="18.0" fill="#D4D4D4" transform="matrix(1.00, 0.00, -0.00, -1.00, 416.4, 42.4)">c</text><text xml:space="preserve" font-family="Helvetica,Helvetica" font-size="18.0" fill="#D4D4D4" transform="matrix(1.00, 0.00, -0.00, -1.00, 425.4, 42.4)">t</text><text xml:space="preserve" font-family="Helvetica,Helvetica" font-size="18.0" fill="#D4D4D4" transform="matrix(1.00, 0.00, -0.00, -1.00, 430.4, 42.4)">e</text><text xml:space="preserve" font-family="Helvetica,Helvetica" font-size="18.0" fill="#D4D4D4" transform="matrix(1.00, 0.00, -0.00, -1.00, 440.4, 42.4)">t</text><text xml:space="preserve" font-family="Helvetica,Helvetica" font-size="18.0" fill="#D4D4D4" transform="matrix(1.00, 0.00, -0.00, -1.00, 445.4, 42.4)">u</text><text xml:space="preserve" font-family="Helvetica,Helvetica" font-size="18.0" fill="#D4D4D4" transform="matrix(1.00, 0.00, -0.00, -1.00, 455.4, 42.4)">e</text><text xml:space="preserve" font-family="Helvetica,Helvetica" font-size="18.0" fill="#D4D4D4" transform="matrix(1.00, 0.00, -0.00, -1.00, 465.4, 42.4)">r</text><text xml:space="preserve" font-family="Helvetica,Helvetica" font-size="18.0" fill="#D4D4D4" transform="matrix(1.00, 0.00, -0.00, -1.00, 471.4, 42.4)"> </text><text xml:space="preserve" font-family="Helvetica,Helvetica" font-size="18.0" fill="#D4D4D4" transform="matrix(1.00, 0.00, -0.00, -1.00, 476.4, 42.4)">a</text><text xml:space="preserve" font-family="Helvetica,Helvetica" font-size="18.0" fill="#D4D4D4" transform="matrix(1.00, 0.00, -0.00, -1.00, 486.4, 42.4)">d</text><text xml:space="preserve" font-family="Helvetica,Helvetica" font-size="18.0" fill="#D4D4D4" transform="matrix(1.00, 0.00, -0.00, -1.00, 496.4, 42.4)">i</text><text xml:space="preserve" font-family="Helvetica,Helvetica" font-size="18.0" fill="#D4D4D4" transform="matrix(1.00, 0.00, -0.00, -1.00, 500.4, 42.4)">p</text><text xml:space="preserve" font-family="Helvetica,Helvetica" font-size="18.0" fill="#D4D4D4" transform="matrix(1.00, 0.00, -0.00, -1.00, 510.4, 42.4)">i</text><text xml:space="preserve" font-family="Helvetica,Helvetica" font-size="18.0" fill="#D4D4D4" transform="matrix(1.00, 0.00, -0.00, -1.00, 514.4, 42.4)">s</text><text xml:space="preserve" font-family="Helvetica,Helvetica" font-size="18.0" fill="#D4D4D4" transform="matrix(1.00, 0.00, -0.00, -1.00, 523.4, 42.4)">c</text><text xml:space="preserve" font-family="Helvetica,Helvetica" font-size="18.0" fill="#D4D4D4" transform="matrix(1.00, 0.00, -0.00, -1.00, 532.4, 42.4)">i</text><text xml:space="preserve" font-family="Helvetica,Helvetica" font-size="18.0" fill="#D4D4D4" transform="matrix(1.00, 0.00, -0.00, -1.00, 536.4, 42.4)">n</text><text xml:space="preserve" font-family="Helvetica,Helvetica" font-size="18.0" fill="#D4D4D4" transform="matrix(1.00, 0.00, -0.00, -1.00, 546.5, 42.4)">g</text><text xml:space="preserve" font-family="Helvetica,Helvetica" font-size="18.0" fill="#D4D4D4" transform="matrix(1.00, 0.00, -0.00, -1.00, 556.5, 42.4)"> </text><text xml:space="preserve" font-family="Helvetica,Helvetica" font-size="18.0" fill="#D4D4D4" transform="matrix(1.00, 0.00, -0.00, -1.00, 561.5, 42.4)">e</text><text xml:space="preserve" font-family="Helvetica,Helvetica" font-size="18.0" fill="#D4D4D4" transform="matrix(1.00, 0.00, -0.00, -1.00, 571.5, 42.4)">l</text><text xml:space="preserve" font-family="Helvetica,Helvetica" font-size="18.0" fill="#D4D4D4" transform="matrix(1.00, 0.00, -0.00, -1.00, 575.5, 42.4)">i</text><text xml:space="preserve" font-family="Helvetica,Helvetica" font-size="18.0" fill="#D4D4D4" transform="matrix(1.00, 0.00, -0.00, -1.00, 579.5, 42.4)">t</text><text xml:space="preserve" font-family="Helvetica,Helvetica" font-size="18.0" fill="#D4D4D4" transform="matrix(1.00, 0.00, -0.00, -1.00, 584.5, 42.4)">,</text><text xml:space="preserve" font-family="Helvetica,Helvetica" font-size="18.0" fill="#D4D4D4" transform="matrix(1.00, 0.00, -0.00, -1.00, 589.5, 42.4)"> </text><text xml:space="preserve" font-family="Helvetica,Helvetica" font-size="18.0" fill="#D4D4D4" transform="matrix(1.00, 0.00, -0.00, -1.00, 594.5, 42.4)">s</text><text xml:space="preserve" font-family="Helvetica,Helvetica" font-size="18.0" fill="#D4D4D4" transform="matrix(1.00, 0.00, -0.00, -1.00, 603.5, 42.4)">e</text><text xml:space="preserve" font-family="Helvetica,Helvetica" font-size="18.0" fill="#D4D4D4" transform="matrix(1.00, 0.00, -0.00, -1.00, 613.5, 42.4)">d</text><text xml:space="preserve" font-family="Helvetica,Helvetica" font-size="18.0" fill="#D4D4D4" transform="matrix(1.00, 0.00, -0.00, -1.00, 623.5, 42.4)"> </text><text xml:space="preserve" font-family="Helvetica,Helvetica" font-size="18.0" fill="#D4D4D4" transform="matrix(1.00, 0.00, -0.00, -1.00, 628.5, 42.4)">d</text><text xml:space="preserve" font-family="Helvetica,Helvetica" font-size="18.0" fill="#D4D4D4" transform="matrix(1.00, 0.00, -0.00, -1.00, 638.5, 42.4)">i</text><text xml:space="preserve" font-family="Helvetica,Helvetica" font-size="18.0" fill="#D4D4D4" transform="matrix(1.00, 0.00, -0.00, -1.00, 642.5, 42.4)">a</text><text xml:space="preserve" font-family="Helvetica,Helvetica" font-size="18.0" fill="#D4D4D4" transform="matrix(1.00, 0.00, -0.00, -1.00, 652.5, 42.4)">m</text><text xml:space="preserve" font-family="Helvetica,Helvetica" font-size="18.0" fill="#D4D4D4" transform="matrix(1.00, 0.00, -0.00, -1.00, 667.5, 42.4)"> </text><text xml:space="preserve" font-family="Helvetica,Helvetica" font-size="18.0" fill="#D4D4D4" transform="matrix(1.00, 0.00, -0.00, -1.00, 141.2, 20.4)">n</text><text xml:space="preserve" font-family="Helvetica,Helvetica" font-size="18.0" fill="#D4D4D4" transform="matrix(1.00, 0.00, -0.00, -1.00, 151.2, 20.4)">o</text><text xml:space="preserve" font-family="Helvetica,Helvetica" font-size="18.0" fill="#D4D4D4" transform="matrix(1.00, 0.00, -0.00, -1.00, 161.2, 20.4)">n</text><text xml:space="preserve" font-family="Helvetica,Helvetica" font-size="18.0" fill="#D4D4D4" transform="matrix(1.00, 0.00, -0.00, -1.00, 171.3, 20.4)">u</text><text xml:space="preserve" font-family="Helvetica,Helvetica" font-size="18.0" fill="#D4D4D4" transform="matrix(1.00, 0.00, -0.00, -1.00, 181.3, 20.4)">m</text><text xml:space="preserve" font-family="Helvetica,Helvetica" font-size="18.0" fill="#D4D4D4" transform="matrix(1.00, 0.00, -0.00, -1.00, 196.3, 20.4)">m</text><text xml:space="preserve" font-family="Helvetica,Helvetica" font-size="18.0" fill="#D4D4D4" transform="matrix(1.00, 0.00, -0.00, -1.00, 211.3, 20.4)">y</text><text xml:space="preserve" font-family="Helvetica,Helvetica" font-size="18.0" fill="#D4D4D4" transform="matrix(1.00, 0.00, -0.00, -1.00, 220.3, 20.4)"> </text><text xml:space="preserve" font-family="Helvetica,Helvetica" font-size="18.0" fill="#D4D4D4" transform="matrix(1.00, 0.00, -0.00, -1.00, 225.3, 20.4)">n</text><text xml:space="preserve" font-family="Helvetica,Helvetica" font-size="18.0" fill="#D4D4D4" transform="matrix(1.00, 0.00, -0.00, -1.00, 235.3, 20.4)">i</text><text xml:space="preserve" font-family="Helvetica,Helvetica" font-size="18.0" fill="#D4D4D4" transform="matrix(1.00, 0.00, -0.00, -1.00, 239.3, 20.4)">b</text><text xml:space="preserve" font-family="Helvetica,Helvetica" font-size="18.0" fill="#D4D4D4" transform="matrix(1.00, 0.00, -0.00, -1.00, 249.3, 20.4)">h</text><text xml:space="preserve" font-family="Helvetica,Helvetica" font-size="18.0" fill="#D4D4D4" transform="matrix(1.00, 0.00, -0.00, -1.00, 259.3, 20.4)"> </text><text xml:space="preserve" font-family="Helvetica,Helvetica" font-size="18.0" fill="#D4D4D4" transform="matrix(1.00, 0.00, -0.00, -1.00, 264.3, 20.4)">e</text><text xml:space="preserve" font-family="Helvetica,Helvetica" font-size="18.0" fill="#D4D4D4" transform="matrix(1.00, 0.00, -0.00, -1.00, 274.3, 20.4)">u</text><text xml:space="preserve" font-family="Helvetica,Helvetica" font-size="18.0" fill="#D4D4D4" transform="matrix(1.00, 0.00, -0.00, -1.00, 284.3, 20.4)">i</text><text xml:space="preserve" font-family="Helvetica,Helvetica" font-size="18.0" fill="#D4D4D4" transform="matrix(1.00, 0.00, -0.00, -1.00, 288.3, 20.4)">s</text><text xml:space="preserve" font-family="Helvetica,Helvetica" font-size="18.0" fill="#D4D4D4" transform="matrix(1.00, 0.00, -0.00, -1.00, 297.3, 20.4)">m</text><text xml:space="preserve" font-family="Helvetica,Helvetica" font-size="18.0" fill="#D4D4D4" transform="matrix(1.00, 0.00, -0.00, -1.00, 312.3, 20.4)">o</text><text xml:space="preserve" font-family="Helvetica,Helvetica" font-size="18.0" fill="#D4D4D4" transform="matrix(1.00, 0.00, -0.00, -1.00, 322.3, 20.4)">d</text><text xml:space="preserve" font-family="Helvetica,Helvetica" font-size="18.0" fill="#D4D4D4" transform="matrix(1.00, 0.00, -0.00, -1.00, 332.4, 20.4)"> </text><text xml:space="preserve" font-family="Helvetica,Helvetica" font-size="18.0" fill="#D4D4D4" transform="matrix(1.00, 0.00, -0.00, -1.00, 337.4, 20.4)">t</text><text xml:space="preserve" font-family="Helvetica,Helvetica" font-size="18.0" fill="#D4D4D4" transform="matrix(1.00, 0.00, -0.00, -1.00, 342.4, 20.4)">i</text><text xml:space="preserve" font-family="Helvetica,Helvetica" font-size="18.0" fill="#D4D4D4" transform="matrix(1.00, 0.00, -0.00, -1.00, 346.4, 20.4)">n</text><text xml:space="preserve" font-family="Helvetica,Helvetica" font-size="18.0" fill="#D4D4D4" transform="matrix(1.00, 0.00, -0.00, -1.00, 356.4, 20.4)">c</text><text xml:space="preserve" font-family="Helvetica,Helvetica" font-size="18.0" fill="#D4D4D4" transform="matrix(1.00, 0.00, -0.00, -1.00, 365.4, 20.4)">i</text><text xml:space="preserve" font-family="Helvetica,Helvetica" font-size="18.0" fill="#D4D4D4" transform="matrix(1.00, 0.00, -0.00, -1.00, 369.4, 20.4)">d</text><text xml:space="preserve" font-family="Helvetica,Helvetica" font-size="18.0" fill="#D4D4D4" transform="matrix(1.00, 0.00, -0.00, -1.00, 379.4, 20.4)">u</text><text xml:space="preserve" font-family="Helvetica,Helvetica" font-size="18.0" fill="#D4D4D4" transform="matrix(1.00, 0.00, -0.00, -1.00, 389.4, 20.4)">n</text><text xml:space="preserve" font-family="Helvetica,Helvetica" font-size="18.0" fill="#D4D4D4" transform="matrix(1.00, 0.00, -0.00, -1.00, 399.4, 20.4)">t</text><text xml:space="preserve" font-family="Helvetica,Helvetica" font-size="18.0" fill="#D4D4D4" transform="matrix(1.00, 0.00, -0.00, -1.00, 404.4, 20.4)"> </text><text xml:space="preserve" font-family="Helvetica,Helvetica" font-size="18.0" fill="#D4D4D4" transform="matrix(1.00, 0.00, -0.00, -1.00, 409.4, 20.4)">u</text><text xml:space="preserve" font-family="Helvetica,Helvetica" font-size="18.0" fill="#D4D4D4" transform="matrix(1.00, 0.00, -0.00, -1.00, 419.4, 20.4)">t</text><text xml:space="preserve" font-family="Helvetica,Helvetica" font-size="18.0" fill="#D4D4D4" transform="matrix(1.00, 0.00, -0.00, -1.00, 424.4, 20.4)"> </text><text xml:space="preserve" font-family="Helvetica,Helvetica" font-size="18.0" fill="#D4D4D4" transform="matrix(1.00, 0.00, -0.00, -1.00, 429.4, 20.4)">l</text><text xml:space="preserve" font-family="Helvetica,Helvetica" font-size="18.0" fill="#D4D4D4" transform="matrix(1.00, 0.00, -0.00, -1.00, 433.4, 20.4)">a</text><text xml:space="preserve" font-family="Helvetica,Helvetica" font-size="18.0" fill="#D4D4D4" transform="matrix(1.00, 0.00, -0.00, -1.00, 443.4, 20.4)">o</text><text xml:space="preserve" font-family="Helvetica,Helvetica" font-size="18.0" fill="#D4D4D4" transform="matrix(1.00, 0.00, -0.00, -1.00, 453.5, 20.4)">r</text><text xml:space="preserve" font-family="Helvetica,Helvetica" font-size="18.0" fill="#D4D4D4" transform="matrix(1.00, 0.00, -0.00, -1.00, 459.4, 20.4)">e</text><text xml:space="preserve" font-family="Helvetica,Helvetica" font-size="18.0" fill="#D4D4D4" transform="matrix(1.00, 0.00, -0.00, -1.00, 469.5, 20.4)">e</text><text xml:space="preserve" font-family="Helvetica,Helvetica" font-size="18.0" fill="#D4D4D4" transform="matrix(1.00, 0.00, -0.00, -1.00, 479.5, 20.4)">t</text><text xml:space="preserve" font-family="Helvetica,Helvetica" font-size="18.0" fill="#D4D4D4" transform="matrix(1.00, 0.00, -0.00, -1.00, 484.5, 20.4)"> </text><text xml:space="preserve" font-family="Helvetica,Helvetica" font-size="18.0" fill="#D4D4D4" transform="matrix(1.00, 0.00, -0.00, -1.00, 489.5, 20.4)">d</text><text xml:space="preserve" font-family="Helvetica,Helvetica" font-size="18.0" fill="#D4D4D4" transform="matrix(1.00, 0.00, -0.00, -1.00, 499.5, 20.4)">o</text><text xml:space="preserve" font-family="Helvetica,Helvetica" font-size="18.0" fill="#D4D4D4" transform="matrix(1.00, 0.00, -0.00, -1.00, 509.5, 20.4)">l</text><text xml:space="preserve" font-family="Helvetica,Helvetica" font-size="18.0" fill="#D4D4D4" transform="matrix(1.00, 0.00, -0.00, -1.00, 513.5, 20.4)">o</text><text xml:space="preserve" font-family="Helvetica,Helvetica" font-size="18.0" fill="#D4D4D4" transform="matrix(1.00, 0.00, -0.00, -1.00, 523.5, 20.4)">r</text><text xml:space="preserve" font-family="Helvetica,Helvetica" font-size="18.0" fill="#D4D4D4" transform="matrix(1.00, 0.00, -0.00, -1.00, 529.5, 20.4)">e</text><text xml:space="preserve" font-family="Helvetica,Helvetica" font-size="18.0" fill="#D4D4D4" transform="matrix(1.00, 0.00, -0.00, -1.00, 539.5, 20.4)"> </text><text xml:space="preserve" font-family="Helvetica,Helvetica" font-size="18.0" fill="#D4D4D4" transform="matrix(1.00, 0.00, -0.00, -1.00, 544.5, 20.4)">m</text><text xml:space="preserve" font-family="Helvetica,Helvetica" font-size="18.0" fill="#D4D4D4" transform="matrix(1.00, 0.00, -0.00, -1.00, 559.5, 20.4)">a</text><text xml:space="preserve" font-family="Helvetica,Helvetica" font-size="18.0" fill="#D4D4D4" transform="matrix(1.00, 0.00, -0.00, -1.00, 569.5, 20.4)">g</text><text xml:space="preserve" font-family="Helvetica,Helvetica" font-size="18.0" fill="#D4D4D4" transform="matrix(1.00, 0.00, -0.00, -1.00, 579.5, 20.4)">n</text><text xml:space="preserve" font-family="Helvetica,Helvetica" font-size="18.0" fill="#D4D4D4" transform="matrix(1.00, 0.00, -0.00, -1.00, 589.6, 20.4)">a</text><text xml:space="preserve" font-family="Helvetica,Helvetica" font-size="18.0" fill="#D4D4D4" transform="matrix(1.00, 0.00, -0.00, -1.00, 599.6, 20.4)"> </text><text xml:space="preserve" font-family="Helvetica,Helvetica" font-size="18.0" fill="#D4D4D4" transform="matrix(1.00, 0.00, -0.00, -1.00, 604.6, 20.4)">a</text><text xml:space="preserve" font-family="Helvetica,Helvetica" font-size="18.0" fill="#D4D4D4" transform="matrix(1.00, 0.00, -0.00, -1.00, 614.6, 20.4)">l</text><text xml:space="preserve" font-family="Helvetica,Helvetica" font-size="18.0" fill="#D4D4D4" transform="matrix(1.00, 0.00, -0.00, -1.00, 618.6, 20.4)">i</text><text xml:space="preserve" font-family="Helvetica,Helvetica" font-size="18.0" fill="#D4D4D4" transform="matrix(1.00, 0.00, -0.00, -1.00, 622.6, 20.4)">q</text><text xml:space="preserve" font-family="Helvetica,Helvetica" font-size="18.0" fill="#D4D4D4" transform="matrix(1.00, 0.00, -0.00, -1.00, 632.6, 20.4)">u</text><text xml:space="preserve" font-family="Helvetica,Helvetica" font-size="18.0" fill="#D4D4D4" transform="matrix(1.00, 0.00, -0.00, -1.00, 642.6, 20.4)">a</text><text xml:space="preserve" font-family="Helvetica,Helvetica" font-size="18.0" fill="#D4D4D4" transform="matrix(1.00, 0.00, -0.00, -1.00, 652.6, 20.4)">.</text></g></g><g><clipPath id="clip0x6080078ab220"><path d="M 135.3 62.6 L 363.0 62.6 L 363.0 93.6 L 135.3 93.6 Z M 135.3 62.6 "></path></clipPath><g clip-path="url(#clip0x6080078ab220)"><text xml:space="preserve" font-family="Helvetica,Helvetica" font-size="18.0" fill="#D4D4D4" transform="matrix(1.00, 0.00, -0.00, -1.00, 139.8, 71.3)">P</text><text xml:space="preserve" font-family="Helvetica,Helvetica" font-size="18.0" fill="#D4D4D4" transform="matrix(1.00, 0.00, -0.00, -1.00, 151.8, 71.3)">I</text><text xml:space="preserve" font-family="Helvetica,Helvetica" font-size="18.0" fill="#D4D4D4" transform="matrix(1.00, 0.00, -0.00, -1.00, 156.8, 71.3)">N</text><text xml:space="preserve" font-family="Helvetica,Helvetica" font-size="18.0" fill="#D4D4D4" transform="matrix(1.00, 0.00, -0.00, -1.00, 169.8, 71.3)">K</text><text xml:space="preserve" font-family="Helvetica,Helvetica" font-size="18.0" fill="#D4D4D4" transform="matrix(1.00, 0.00, -0.00, -1.00, 181.8, 71.3)"> </text><text xml:space="preserve" font-family="Helvetica,Helvetica" font-size="18.0" fill="#D4D4D4" transform="matrix(1.00, 0.00, -0.00, -1.00, 186.8, 71.3)">I</text><text xml:space="preserve" font-family="Helvetica,Helvetica" font-size="18.0" fill="#D4D4D4" transform="matrix(1.00, 0.00, -0.00, -1.00, 191.8, 71.3)">N</text><text xml:space="preserve" font-family="Helvetica,Helvetica" font-size="18.0" fill="#D4D4D4" transform="matrix(1.00, 0.00, -0.00, -1.00, 204.8, 71.3)">F</text><text xml:space="preserve" font-family="Helvetica,Helvetica" font-size="18.0" fill="#D4D4D4" transform="matrix(1.00, 0.00, -0.00, -1.00, 215.8, 71.3)">O</text><text xml:space="preserve" font-family="Helvetica,Helvetica" font-size="18.0" fill="#D4D4D4" transform="matrix(1.00, 0.00, -0.00, -1.00, 229.8, 71.3)"> </text><text xml:space="preserve" font-family="Helvetica,Helvetica" font-size="18.0" fill="#D4D4D4" transform="matrix(1.00, 0.00, -0.00, -1.00, 234.8, 71.3)">P</text><text xml:space="preserve" font-family="Helvetica,Helvetica" font-size="18.0" fill="#D4D4D4" transform="matrix(1.00, 0.00, -0.00, -1.00, 246.8, 71.3)">E</text><text xml:space="preserve" font-family="Helvetica,Helvetica" font-size="18.0" fill="#D4D4D4" transform="matrix(1.00, 0.00, -0.00, -1.00, 258.8, 71.3)">R</text><text xml:space="preserve" font-family="Helvetica,Helvetica" font-size="18.0" fill="#D4D4D4" transform="matrix(1.00, 0.00, -0.00, -1.00, 271.8, 71.3)">C</text><text xml:space="preserve" font-family="Helvetica,Helvetica" font-size="18.0" fill="#D4D4D4" transform="matrix(1.00, 0.00, -0.00, -1.00, 284.8, 71.3)">E</text><text xml:space="preserve" font-family="Helvetica,Helvetica" font-size="18.0" fill="#D4D4D4" transform="matrix(1.00, 0.00, -0.00, -1.00, 296.8, 71.3)">N</text><text xml:space="preserve" font-family="Helvetica,Helvetica" font-size="18.0" fill="#D4D4D4" transform="matrix(1.00, 0.00, -0.00, -1.00, 309.8, 71.3)">T</text><text xml:space="preserve" font-family="Helvetica,Helvetica" font-size="18.0" fill="#D4D4D4" transform="matrix(1.00, 0.00, -0.00, -1.00, 319.5, 71.3)">A</text><text xml:space="preserve" font-family="Helvetica,Helvetica" font-size="18.0" fill="#D4D4D4" transform="matrix(1.00, 0.00, -0.00, -1.00, 331.5, 71.3)">G</text><text xml:space="preserve" font-family="Helvetica,Helvetica" font-size="18.0" fill="#D4D4D4" transform="matrix(1.00, 0.00, -0.00, -1.00, 345.5, 71.3)">E</text></g></g><g><clipPath id="clip0x6080078abb80"><path d="M -14.4 -14.3 L 140.4 -14.3 L 140.4 121.7 L -14.4 121.7 Z M -14.4 -14.3 "></path></clipPath><g clip-path="url(#clip0x6080078abb80)"><text xml:space="preserve" font-family="Helvetica,Helvetica" font-size="28.0" fill="#FF607B" transform="matrix(1.00, 0.00, -0.00, -1.00, 6.1, 24.1)">%</text><text xml:space="preserve" font-family="Helvetica,Helvetica" font-size="80.0" fill="#FF607B" transform="matrix(1.00, 0.00, -0.00, -1.00, 31.0, 24.1)">4</text><text xml:space="preserve" font-family="Helvetica,Helvetica" font-size="80.0" fill="#FF607B" transform="matrix(1.00, 0.00, -0.00, -1.00, 75.5, 24.1)">1</text></g></g></g></svg>