<?xml version="1.0" encoding="UTF-8" standalone="no"?><svg xmlns="http://www.w3.org/2000/svg" xmlns:xlink="http://www.w3.org/1999/xlink" clip-rule="evenodd" stroke-miterlimit="10" viewBox="0 0 602 317"><desc>SVG generated by Keynote</desc><defs><linearGradient id="gradSh1.2" x1="0.0" y1="0.0" x2="100.0" y2="0.0" gradientUnits="userSpaceOnUse" gradientTransform="matrix(-6.07, 0.44, 0.19, 2.58, 604.4, 87.2)"><stop offset="0.00000" stop-color="#C5465C"></stop><stop offset="0.00880" stop-color="#C6465C"></stop><stop offset="0.50073" stop-color="#EF5771"></stop><stop offset="1.00000" stop-color="#D04A61"></stop></linearGradient></defs><g transform="matrix(1.00, 0.00, -0.00, -1.00, 0.0, 317.0)"><g><clipPath id="clip0x6100086b5480"><path d="M 0.4 108.7 L 601.4 108.7 L 601.4 316.6 L 0.4 316.6 Z M 0.4 108.7 "></path></clipPath><g clip-path="url(#clip0x6100086b5480)"><image xlink:href="8D23F33C659746F29019A8A06ABED6D0.png" width="599.00" height="205.00" transform="matrix(1.00, 0.00, -0.00, -1.00, 1.4, 314.6)" opacity="0.50"></image><path d="M 4.4 216.2 L 300.9 116.7 L 597.4 216.2 L 300.9 315.6 Z M 4.4 216.2 " fill="#FF607B"></path></g></g><g><clipPath id="clip0x6100086b5720"><path d="M 5.1 215.9 L 5.0 102.0 L 301.9 1.9 L 597.1 102.3 L 596.0 216.4 L 301.2 117.8 L 5.1 215.9 Z M 5.1 215.9 "></path></clipPath><g clip-path="url(#clip0x6100086b5720)"><g><clipPath id="clip0x6100086b58a0"><path d="M 3.6 0.9 L 598.1 0.9 L 598.1 217.4 L 3.6 217.4 Z M 3.6 0.9 "></path></clipPath><g clip-path="url(#clip0x6100086b58a0)"><path d="M 3.6 0.9 L 598.1 0.9 L 598.1 217.4 L 3.6 217.4 Z M 3.6 0.9 " fill="url(#gradSh1.2)"></path></g></g></g></g></g></svg>