<?xml version="1.0" encoding="UTF-8" standalone="no"?><svg xmlns="http://www.w3.org/2000/svg" xmlns:xlink="http://www.w3.org/1999/xlink" clip-rule="evenodd" stroke-miterlimit="10" viewBox="0 0 322 304"><desc>SVG generated by Keynote</desc><defs></defs><g transform="matrix(1.00, 0.00, -0.00, -1.00, 0.0, 304.0)"><g><clipPath id="clip0x600001ab4040"><path d="M 33.4 48.0 L 288.6 48.0 L 288.6 303.2 L 33.4 303.2 Z M 33.4 48.0 "></path></clipPath><g clip-path="url(#clip0x600001ab4040)"><path d="M 249.8 264.4 C 298.8 215.4 298.8 135.9 249.8 86.8 C 200.8 37.8 121.2 37.8 72.2 86.8 C 23.2 135.9 23.2 215.4 72.2 264.4 C 121.2 313.5 200.8 313.5 249.8 264.4 Z M 249.8 264.4 " fill="#5A6378"></path><path d="M 214.4 36.8 C 263.4 85.8 263.4 165.3 214.4 214.4 C 165.3 263.4 85.8 263.4 36.8 214.4 C -12.3 165.3 -12.3 85.8 36.8 36.8 C 85.8 -12.3 165.3 -12.3 214.4 36.8 Z M 214.4 36.8 " fill="none" stroke="#E2E2E2" stroke-width="2.00" transform="matrix(1.00, 0.00, 0.00, -1.00, 35.4, 301.2)"></path></g></g><g><clipPath id="clip0x600001ab46a0"><path d="M 48.7 62.7 L 273.3 62.7 L 273.3 287.4 L 48.7 287.4 Z M 48.7 62.7 "></path></clipPath><g clip-path="url(#clip0x600001ab46a0)"><path d="M 237.9 252.0 C 280.4 209.5 280.4 140.6 237.9 98.1 C 195.4 55.6 126.6 55.6 84.1 98.1 C 41.6 140.6 41.6 209.5 84.1 252.0 C 126.6 294.5 195.4 294.5 237.9 252.0 Z M 237.9 252.0 " fill="#F6F6F6"></path><path d="M 185.7 31.9 C 228.2 74.4 228.2 143.3 185.7 185.7 C 143.3 228.2 74.4 228.2 31.9 185.7 C -10.6 143.3 -10.6 74.4 31.9 31.9 C 74.4 -10.6 143.3 -10.6 185.7 31.9 Z M 185.7 31.9 " fill="none" stroke="#E2E2E2" stroke-width="5.00" transform="matrix(1.00, 0.00, 0.00, -1.00, 52.2, 283.9)"></path></g></g><g><clipPath id="clip0x600001ab49a0"><path d="M 52.2 66.2 L 269.8 66.2 L 269.8 283.9 L 52.2 283.9 Z M 52.2 66.2 "></path></clipPath><g clip-path="url(#clip0x600001ab49a0)"><text xml:space="preserve" font-family="Helvetica,Helvetica" font-size="27.0" fill="#677188" transform="matrix(1.00, 0.00, -0.00, -1.00, 123.5, 181.6)">I</text><text xml:space="preserve" font-family="Helvetica,Helvetica" font-size="27.0" fill="#677188" transform="matrix(1.00, 0.00, -0.00, -1.00, 131.0, 181.6)">m</text><text xml:space="preserve" font-family="Helvetica,Helvetica" font-size="27.0" fill="#677188" transform="matrix(1.00, 0.00, -0.00, -1.00, 153.5, 181.6)">a</text><text xml:space="preserve" font-family="Helvetica,Helvetica" font-size="27.0" fill="#677188" transform="matrix(1.00, 0.00, -0.00, -1.00, 168.5, 181.6)">g</text><text xml:space="preserve" font-family="Helvetica,Helvetica" font-size="27.0" fill="#677188" transform="matrix(1.00, 0.00, -0.00, -1.00, 183.5, 181.6)">e</text><text xml:space="preserve" font-family="Helvetica,Helvetica" font-size="27.0" fill="#677188" transform="matrix(1.00, 0.00, -0.00, -1.00, 198.5, 181.6)"> </text><text xml:space="preserve" font-family="Helvetica,Helvetica" font-size="27.0" fill="#677188" transform="matrix(1.00, 0.00, -0.00, -1.00, 89.7, 149.6)">P</text><text xml:space="preserve" font-family="Helvetica,Helvetica" font-size="27.0" fill="#677188" transform="matrix(1.00, 0.00, -0.00, -1.00, 107.7, 149.6)">l</text><text xml:space="preserve" font-family="Helvetica,Helvetica" font-size="27.0" fill="#677188" transform="matrix(1.00, 0.00, -0.00, -1.00, 113.7, 149.6)">a</text><text xml:space="preserve" font-family="Helvetica,Helvetica" font-size="27.0" fill="#677188" transform="matrix(1.00, 0.00, -0.00, -1.00, 128.7, 149.6)">c</text><text xml:space="preserve" font-family="Helvetica,Helvetica" font-size="27.0" fill="#677188" transform="matrix(1.00, 0.00, -0.00, -1.00, 142.2, 149.6)">e</text><text xml:space="preserve" font-family="Helvetica,Helvetica" font-size="27.0" fill="#677188" transform="matrix(1.00, 0.00, -0.00, -1.00, 157.3, 149.6)">h</text><text xml:space="preserve" font-family="Helvetica,Helvetica" font-size="27.0" fill="#677188" transform="matrix(1.00, 0.00, -0.00, -1.00, 172.3, 149.6)">o</text><text xml:space="preserve" font-family="Helvetica,Helvetica" font-size="27.0" fill="#677188" transform="matrix(1.00, 0.00, -0.00, -1.00, 187.3, 149.6)">l</text><text xml:space="preserve" font-family="Helvetica,Helvetica" font-size="27.0" fill="#677188" transform="matrix(1.00, 0.00, -0.00, -1.00, 193.3, 149.6)">d</text><text xml:space="preserve" font-family="Helvetica,Helvetica" font-size="27.0" fill="#677188" transform="matrix(1.00, 0.00, -0.00, -1.00, 208.3, 149.6)">e</text><text xml:space="preserve" font-family="Helvetica,Helvetica" font-size="27.0" fill="#677188" transform="matrix(1.00, 0.00, -0.00, -1.00, 223.4, 149.6)">r</text></g></g><g><clipPath id="clip0x600001ab51e0"><path d="M 0.4 0.2 L 321.6 0.2 L 321.6 34.2 L 0.4 34.2 Z M 0.4 0.2 "></path></clipPath><g clip-path="url(#clip0x600001ab51e0)"><text xml:space="preserve" font-family="Helvetica,Helvetica" font-size="20.0" fill="#E2E2E2" transform="matrix(1.00, 0.00, -0.00, -1.00, 5.9, 9.8)">J</text><text xml:space="preserve" font-family="Helvetica,Helvetica" font-size="20.0" fill="#E2E2E2" transform="matrix(1.00, 0.00, -0.00, -1.00, 15.9, 9.8)">o</text><text xml:space="preserve" font-family="Helvetica,Helvetica" font-size="20.0" fill="#E2E2E2" transform="matrix(1.00, 0.00, -0.00, -1.00, 27.0, 9.8)">n</text><text xml:space="preserve" font-family="Helvetica,Helvetica" font-size="20.0" fill="#E2E2E2" transform="matrix(1.00, 0.00, -0.00, -1.00, 38.2, 9.8)">a</text><text xml:space="preserve" font-family="Helvetica,Helvetica" font-size="20.0" fill="#E2E2E2" transform="matrix(1.00, 0.00, -0.00, -1.00, 49.3, 9.8)">t</text><text xml:space="preserve" font-family="Helvetica,Helvetica" font-size="20.0" fill="#E2E2E2" transform="matrix(1.00, 0.00, -0.00, -1.00, 54.8, 9.8)">h</text><text xml:space="preserve" font-family="Helvetica,Helvetica" font-size="20.0" fill="#E2E2E2" transform="matrix(1.00, 0.00, -0.00, -1.00, 66.0, 9.8)">a</text><text xml:space="preserve" font-family="Helvetica,Helvetica" font-size="20.0" fill="#E2E2E2" transform="matrix(1.00, 0.00, -0.00, -1.00, 77.1, 9.8)">n</text><text xml:space="preserve" font-family="Helvetica,Helvetica" font-size="20.0" fill="#E2E2E2" transform="matrix(1.00, 0.00, -0.00, -1.00, 88.2, 9.8)"> </text><text xml:space="preserve" font-family="Helvetica,Helvetica" font-size="20.0" fill="#E2E2E2" transform="matrix(1.00, 0.00, -0.00, -1.00, 93.8, 9.8)">D</text><text xml:space="preserve" font-family="Helvetica,Helvetica" font-size="20.0" fill="#E2E2E2" transform="matrix(1.00, 0.00, -0.00, -1.00, 108.2, 9.8)">o</text><text xml:space="preserve" font-family="Helvetica,Helvetica" font-size="20.0" fill="#E2E2E2" transform="matrix(1.00, 0.00, -0.00, -1.00, 119.4, 9.8)">e</text><text xml:space="preserve" font-family="Helvetica,Helvetica" font-size="20.0" fill="#E2E2E2" transform="matrix(1.00, 0.00, -0.00, -1.00, 130.5, 9.8)"> </text><text xml:space="preserve" font-family="Helvetica,Helvetica" font-size="20.0" fill="#E2E2E2" transform="matrix(1.00, 0.00, -0.00, -1.00, 136.0, 9.8)">/</text><text xml:space="preserve" font-family="Helvetica,Helvetica" font-size="20.0" fill="#E2E2E2" transform="matrix(1.00, 0.00, -0.00, -1.00, 141.6, 9.8)"> </text><text xml:space="preserve" font-family="Helvetica,Helvetica" font-size="20.0" fill="#E2E2E2" transform="matrix(1.00, 0.00, -0.00, -1.00, 147.1, 9.8)">E</text><text xml:space="preserve" font-family="Helvetica,Helvetica" font-size="20.0" fill="#E2E2E2" transform="matrix(1.00, 0.00, -0.00, -1.00, 160.5, 9.8)">x</text><text xml:space="preserve" font-family="Helvetica,Helvetica" font-size="20.0" fill="#E2E2E2" transform="matrix(1.00, 0.00, -0.00, -1.00, 170.5, 9.8)">c</text><text xml:space="preserve" font-family="Helvetica,Helvetica" font-size="20.0" fill="#E2E2E2" transform="matrix(1.00, 0.00, -0.00, -1.00, 180.5, 9.8)">l</text><text xml:space="preserve" font-family="Helvetica,Helvetica" font-size="20.0" fill="#E2E2E2" transform="matrix(1.00, 0.00, -0.00, -1.00, 184.9, 9.8)">u</text><text xml:space="preserve" font-family="Helvetica,Helvetica" font-size="20.0" fill="#E2E2E2" transform="matrix(1.00, 0.00, -0.00, -1.00, 196.0, 9.8)">s</text><text xml:space="preserve" font-family="Helvetica,Helvetica" font-size="20.0" fill="#E2E2E2" transform="matrix(1.00, 0.00, -0.00, -1.00, 206.0, 9.8)">i</text><text xml:space="preserve" font-family="Helvetica,Helvetica" font-size="20.0" fill="#E2E2E2" transform="matrix(1.00, 0.00, -0.00, -1.00, 210.5, 9.8)">v</text><text xml:space="preserve" font-family="Helvetica,Helvetica" font-size="20.0" fill="#E2E2E2" transform="matrix(1.00, 0.00, -0.00, -1.00, 220.5, 9.8)">e</text><text xml:space="preserve" font-family="Helvetica,Helvetica" font-size="20.0" fill="#E2E2E2" transform="matrix(1.00, 0.00, -0.00, -1.00, 231.6, 9.8)"> </text><text xml:space="preserve" font-family="Helvetica,Helvetica" font-size="20.0" fill="#E2E2E2" transform="matrix(1.00, 0.00, -0.00, -1.00, 237.2, 9.8)">M</text><text xml:space="preserve" font-family="Helvetica,Helvetica" font-size="20.0" fill="#E2E2E2" transform="matrix(1.00, 0.00, -0.00, -1.00, 253.8, 9.8)">a</text><text xml:space="preserve" font-family="Helvetica,Helvetica" font-size="20.0" fill="#E2E2E2" transform="matrix(1.00, 0.00, -0.00, -1.00, 265.0, 9.8)">n</text><text xml:space="preserve" font-family="Helvetica,Helvetica" font-size="20.0" fill="#E2E2E2" transform="matrix(1.00, 0.00, -0.00, -1.00, 276.1, 9.8)">a</text><text xml:space="preserve" font-family="Helvetica,Helvetica" font-size="20.0" fill="#E2E2E2" transform="matrix(1.00, 0.00, -0.00, -1.00, 287.2, 9.8)">g</text><text xml:space="preserve" font-family="Helvetica,Helvetica" font-size="20.0" fill="#E2E2E2" transform="matrix(1.00, 0.00, -0.00, -1.00, 298.3, 9.8)">e</text><text xml:space="preserve" font-family="Helvetica,Helvetica" font-size="20.0" fill="#E2E2E2" transform="matrix(1.00, 0.00, -0.00, -1.00, 309.5, 9.8)">r</text></g></g></g></svg>