<?xml version="1.0" encoding="UTF-8" standalone="no"?><svg xmlns="http://www.w3.org/2000/svg" xmlns:xlink="http://www.w3.org/1999/xlink" clip-rule="evenodd" stroke-miterlimit="10" viewBox="0 0 820 32"><desc>SVG generated by Keynote</desc><defs></defs><g transform="matrix(1.00, 0.00, -0.00, -1.00, 0.0, 32.0)"><text xml:space="preserve" font-family="Helvetica,Helvetica" font-size="30.0" fill="#F6F6F6" transform="matrix(1.00, 0.00, -0.00, -1.00, -0.2, 8.7)">L</text><text xml:space="preserve" font-family="Helvetica,Helvetica" font-size="30.0" fill="#F6F6F6" transform="matrix(1.00, 0.00, -0.00, -1.00, 16.5, 8.7)">i</text><text xml:space="preserve" font-family="Helvetica,Helvetica" font-size="30.0" fill="#F6F6F6" transform="matrix(1.00, 0.00, -0.00, -1.00, 23.2, 8.7)">t</text><text xml:space="preserve" font-family="Helvetica,Helvetica" font-size="30.0" fill="#F6F6F6" transform="matrix(1.00, 0.00, -0.00, -1.00, 31.5, 8.7)">t</text><text xml:space="preserve" font-family="Helvetica,Helvetica" font-size="30.0" fill="#F6F6F6" transform="matrix(1.00, 0.00, -0.00, -1.00, 39.9, 8.7)">l</text><text xml:space="preserve" font-family="Helvetica,Helvetica" font-size="30.0" fill="#F6F6F6" transform="matrix(1.00, 0.00, -0.00, -1.00, 46.5, 8.7)">e</text><text xml:space="preserve" font-family="Helvetica,Helvetica" font-size="30.0" fill="#F6F6F6" transform="matrix(1.00, 0.00, -0.00, -1.00, 63.2, 8.7)"> </text><text xml:space="preserve" font-family="Helvetica,Helvetica" font-size="30.0" fill="#F6F6F6" transform="matrix(1.00, 0.00, -0.00, -1.00, 71.6, 8.7)">s</text><text xml:space="preserve" font-family="Helvetica,Helvetica" font-size="30.0" fill="#F6F6F6" transform="matrix(1.00, 0.00, -0.00, -1.00, 86.6, 8.7)">u</text><text xml:space="preserve" font-family="Helvetica,Helvetica" font-size="30.0" fill="#F6F6F6" transform="matrix(1.00, 0.00, -0.00, -1.00, 103.2, 8.7)">b</text><text xml:space="preserve" font-family="Helvetica,Helvetica" font-size="30.0" fill="#F6F6F6" transform="matrix(1.00, 0.00, -0.00, -1.00, 119.9, 8.7)">t</text><text xml:space="preserve" font-family="Helvetica,Helvetica" font-size="30.0" fill="#F6F6F6" transform="matrix(1.00, 0.00, -0.00, -1.00, 128.3, 8.7)">i</text><text xml:space="preserve" font-family="Helvetica,Helvetica" font-size="30.0" fill="#F6F6F6" transform="matrix(1.00, 0.00, -0.00, -1.00, 134.9, 8.7)">t</text><text xml:space="preserve" font-family="Helvetica,Helvetica" font-size="30.0" fill="#F6F6F6" transform="matrix(1.00, 0.00, -0.00, -1.00, 143.3, 8.7)">l</text><text xml:space="preserve" font-family="Helvetica,Helvetica" font-size="30.0" fill="#F6F6F6" transform="matrix(1.00, 0.00, -0.00, -1.00, 149.9, 8.7)">e</text><text xml:space="preserve" font-family="Helvetica,Helvetica" font-size="30.0" fill="#F6F6F6" transform="matrix(1.00, 0.00, -0.00, -1.00, 166.6, 8.7)"> </text><text xml:space="preserve" font-family="Helvetica,Helvetica" font-size="30.0" fill="#F6F6F6" transform="matrix(1.00, 0.00, -0.00, -1.00, 175.0, 8.7)">h</text><text xml:space="preserve" font-family="Helvetica,Helvetica" font-size="30.0" fill="#F6F6F6" transform="matrix(1.00, 0.00, -0.00, -1.00, 191.6, 8.7)">e</text><text xml:space="preserve" font-family="Helvetica,Helvetica" font-size="30.0" fill="#F6F6F6" transform="matrix(1.00, 0.00, -0.00, -1.00, 208.3, 8.7)">r</text><text xml:space="preserve" font-family="Helvetica,Helvetica" font-size="30.0" fill="#F6F6F6" transform="matrix(1.00, 0.00, -0.00, -1.00, 218.3, 8.7)">e</text><text xml:space="preserve" font-family="Helvetica,Helvetica" font-size="30.0" fill="#F6F6F6" transform="matrix(1.00, 0.00, -0.00, -1.00, 235.0, 8.7)"> </text><text xml:space="preserve" font-family="Helvetica,Helvetica" font-size="30.0" fill="#F6F6F6" transform="matrix(1.00, 0.00, -0.00, -1.00, 243.3, 8.7)">l</text><text xml:space="preserve" font-family="Helvetica,Helvetica" font-size="30.0" fill="#F6F6F6" transform="matrix(1.00, 0.00, -0.00, -1.00, 250.0, 8.7)">i</text><text xml:space="preserve" font-family="Helvetica,Helvetica" font-size="30.0" fill="#F6F6F6" transform="matrix(1.00, 0.00, -0.00, -1.00, 256.7, 8.7)">k</text><text xml:space="preserve" font-family="Helvetica,Helvetica" font-size="30.0" fill="#F6F6F6" transform="matrix(1.00, 0.00, -0.00, -1.00, 271.7, 8.7)">e</text><text xml:space="preserve" font-family="Helvetica,Helvetica" font-size="30.0" fill="#F6F6F6" transform="matrix(1.00, 0.00, -0.00, -1.00, 288.4, 8.7)"> </text><text xml:space="preserve" font-family="Helvetica,Helvetica" font-size="30.0" fill="#F6F6F6" transform="matrix(1.00, 0.00, -0.00, -1.00, 296.7, 8.7)">l</text><text xml:space="preserve" font-family="Helvetica,Helvetica" font-size="30.0" fill="#F6F6F6" transform="matrix(1.00, 0.00, -0.00, -1.00, 303.4, 8.7)">o</text><text xml:space="preserve" font-family="Helvetica,Helvetica" font-size="30.0" fill="#F6F6F6" transform="matrix(1.00, 0.00, -0.00, -1.00, 320.1, 8.7)">r</text><text xml:space="preserve" font-family="Helvetica,Helvetica" font-size="30.0" fill="#F6F6F6" transform="matrix(1.00, 0.00, -0.00, -1.00, 330.1, 8.7)">e</text><text xml:space="preserve" font-family="Helvetica,Helvetica" font-size="30.0" fill="#F6F6F6" transform="matrix(1.00, 0.00, -0.00, -1.00, 346.7, 8.7)">m</text><text xml:space="preserve" font-family="Helvetica,Helvetica" font-size="30.0" fill="#F6F6F6" transform="matrix(1.00, 0.00, -0.00, -1.00, 371.7, 8.7)"> </text><text xml:space="preserve" font-family="Helvetica,Helvetica" font-size="30.0" fill="#F6F6F6" transform="matrix(1.00, 0.00, -0.00, -1.00, 380.1, 8.7)">i</text><text xml:space="preserve" font-family="Helvetica,Helvetica" font-size="30.0" fill="#F6F6F6" transform="matrix(1.00, 0.00, -0.00, -1.00, 386.7, 8.7)">p</text><text xml:space="preserve" font-family="Helvetica,Helvetica" font-size="30.0" fill="#F6F6F6" transform="matrix(1.00, 0.00, -0.00, -1.00, 403.4, 8.7)">s</text><text xml:space="preserve" font-family="Helvetica,Helvetica" font-size="30.0" fill="#F6F6F6" transform="matrix(1.00, 0.00, -0.00, -1.00, 418.4, 8.7)">u</text><text xml:space="preserve" font-family="Helvetica,Helvetica" font-size="30.0" fill="#F6F6F6" transform="matrix(1.00, 0.00, -0.00, -1.00, 435.1, 8.7)">m</text><text xml:space="preserve" font-family="Helvetica,Helvetica" font-size="30.0" fill="#F6F6F6" transform="matrix(1.00, 0.00, -0.00, -1.00, 460.1, 8.7)"> </text><text xml:space="preserve" font-family="Helvetica,Helvetica" font-size="30.0" fill="#F6F6F6" transform="matrix(1.00, 0.00, -0.00, -1.00, 468.4, 8.7)">d</text><text xml:space="preserve" font-family="Helvetica,Helvetica" font-size="30.0" fill="#F6F6F6" transform="matrix(1.00, 0.00, -0.00, -1.00, 485.1, 8.7)">o</text><text xml:space="preserve" font-family="Helvetica,Helvetica" font-size="30.0" fill="#F6F6F6" transform="matrix(1.00, 0.00, -0.00, -1.00, 501.8, 8.7)">l</text><text xml:space="preserve" font-family="Helvetica,Helvetica" font-size="30.0" fill="#F6F6F6" transform="matrix(1.00, 0.00, -0.00, -1.00, 508.5, 8.7)">o</text><text xml:space="preserve" font-family="Helvetica,Helvetica" font-size="30.0" fill="#F6F6F6" transform="matrix(1.00, 0.00, -0.00, -1.00, 525.2, 8.7)">r</text><text xml:space="preserve" font-family="Helvetica,Helvetica" font-size="30.0" fill="#F6F6F6" transform="matrix(1.00, 0.00, -0.00, -1.00, 535.2, 8.7)"> </text><text xml:space="preserve" font-family="Helvetica,Helvetica" font-size="30.0" fill="#F6F6F6" transform="matrix(1.00, 0.00, -0.00, -1.00, 543.5, 8.7)">s</text><text xml:space="preserve" font-family="Helvetica,Helvetica" font-size="30.0" fill="#F6F6F6" transform="matrix(1.00, 0.00, -0.00, -1.00, 558.5, 8.7)">i</text><text xml:space="preserve" font-family="Helvetica,Helvetica" font-size="30.0" fill="#F6F6F6" transform="matrix(1.00, 0.00, -0.00, -1.00, 565.2, 8.7)">t</text><text xml:space="preserve" font-family="Helvetica,Helvetica" font-size="30.0" fill="#F6F6F6" transform="matrix(1.00, 0.00, -0.00, -1.00, 573.5, 8.7)"> </text><text xml:space="preserve" font-family="Helvetica,Helvetica" font-size="30.0" fill="#F6F6F6" transform="matrix(1.00, 0.00, -0.00, -1.00, 581.8, 8.7)">a</text><text xml:space="preserve" font-family="Helvetica,Helvetica" font-size="30.0" fill="#F6F6F6" transform="matrix(1.00, 0.00, -0.00, -1.00, 598.5, 8.7)">m</text><text xml:space="preserve" font-family="Helvetica,Helvetica" font-size="30.0" fill="#F6F6F6" transform="matrix(1.00, 0.00, -0.00, -1.00, 623.5, 8.7)">e</text><text xml:space="preserve" font-family="Helvetica,Helvetica" font-size="30.0" fill="#F6F6F6" transform="matrix(1.00, 0.00, -0.00, -1.00, 640.2, 8.7)">t</text><text xml:space="preserve" font-family="Helvetica,Helvetica" font-size="30.0" fill="#F6F6F6" transform="matrix(1.00, 0.00, -0.00, -1.00, 648.5, 8.7)"> </text><text xml:space="preserve" font-family="Helvetica,Helvetica" font-size="30.0" fill="#F6F6F6" transform="matrix(1.00, 0.00, -0.00, -1.00, 656.9, 8.7)">l</text><text xml:space="preserve" font-family="Helvetica,Helvetica" font-size="30.0" fill="#F6F6F6" transform="matrix(1.00, 0.00, -0.00, -1.00, 663.5, 8.7)">o</text><text xml:space="preserve" font-family="Helvetica,Helvetica" font-size="30.0" fill="#F6F6F6" transform="matrix(1.00, 0.00, -0.00, -1.00, 680.2, 8.7)">r</text><text xml:space="preserve" font-family="Helvetica,Helvetica" font-size="30.0" fill="#F6F6F6" transform="matrix(1.00, 0.00, -0.00, -1.00, 690.2, 8.7)">e</text><text xml:space="preserve" font-family="Helvetica,Helvetica" font-size="30.0" fill="#F6F6F6" transform="matrix(1.00, 0.00, -0.00, -1.00, 706.9, 8.7)">m</text><text xml:space="preserve" font-family="Helvetica,Helvetica" font-size="30.0" fill="#F6F6F6" transform="matrix(1.00, 0.00, -0.00, -1.00, 731.9, 8.7)"> </text><text xml:space="preserve" font-family="Helvetica,Helvetica" font-size="30.0" fill="#F6F6F6" transform="matrix(1.00, 0.00, -0.00, -1.00, 740.2, 8.7)">i</text><text xml:space="preserve" font-family="Helvetica,Helvetica" font-size="30.0" fill="#F6F6F6" transform="matrix(1.00, 0.00, -0.00, -1.00, 746.9, 8.7)">p</text><text xml:space="preserve" font-family="Helvetica,Helvetica" font-size="30.0" fill="#F6F6F6" transform="matrix(1.00, 0.00, -0.00, -1.00, 763.6, 8.7)">s</text><text xml:space="preserve" font-family="Helvetica,Helvetica" font-size="30.0" fill="#F6F6F6" transform="matrix(1.00, 0.00, -0.00, -1.00, 778.6, 8.7)">u</text><text xml:space="preserve" font-family="Helvetica,Helvetica" font-size="30.0" fill="#F6F6F6" transform="matrix(1.00, 0.00, -0.00, -1.00, 795.3, 8.7)">m</text></g></svg>