<?xml version="1.0" encoding="UTF-8" standalone="no"?><svg xmlns="http://www.w3.org/2000/svg" xmlns:xlink="http://www.w3.org/1999/xlink" clip-rule="evenodd" stroke-miterlimit="10" viewBox="0 0 248 249"><desc>SVG generated by Keynote</desc><defs></defs><g transform="matrix(1.00, 0.00, -0.00, -1.00, 0.0, 249.0)"><g><clipPath id="clip0x600001eb8ae0"><path d="M 0.1 0.6 L 247.8 0.6 L 247.8 248.4 L 0.1 248.4 Z M 0.1 0.6 "></path></clipPath><g clip-path="url(#clip0x600001eb8ae0)"><path d="M 205.5 35.3 C 252.5 82.3 252.5 158.5 205.5 205.5 C 158.5 252.5 82.3 252.5 35.3 205.5 C -11.8 158.5 -11.8 82.3 35.3 35.3 C 82.3 -11.8 158.5 -11.8 205.5 35.3 Z M 205.5 35.3 " fill="none" stroke="#62D7AD" stroke-opacity="0.90" stroke-width="5.00" transform="matrix(1.00, 0.00, 0.00, -1.00, 3.6, 244.9)"></path></g></g><g><clipPath id="clip0x600001eb8f60"><path d="M 62.9 62.9 L 185.0 62.9 L 185.0 186.0 L 62.9 186.0 Z M 62.9 62.9 "></path></clipPath><g clip-path="url(#clip0x600001eb8f60)"><text xml:space="preserve" font-family="Sosa-Regular,Sosa" font-size="80.0" fill="#62D7AD" transform="matrix(1.00, 0.00, -0.00, -1.00, 83.9, 107.4)">5</text></g></g></g></svg>