<?xml version="1.0" encoding="UTF-8" standalone="no"?><svg xmlns="http://www.w3.org/2000/svg" xmlns:xlink="http://www.w3.org/1999/xlink" clip-rule="evenodd" stroke-miterlimit="10" viewBox="0 0 249 249"><desc>SVG generated by Keynote</desc><defs></defs><g transform="matrix(1.00, 0.00, -0.00, -1.00, 0.0, 249.0)"><g><clipPath id="clip0x6180024a3ba0"><path d="M 0.2 0.8 L 248.0 0.8 L 248.0 248.5 L 0.2 248.5 Z M 0.2 0.8 "></path></clipPath><g clip-path="url(#clip0x6180024a3ba0)"><path d="M 205.5 35.3 C 252.5 82.3 252.5 158.5 205.5 205.5 C 158.5 252.5 82.3 252.5 35.3 205.5 C -11.8 158.5 -11.8 82.3 35.3 35.3 C 82.3 -11.8 158.5 -11.8 205.5 35.3 Z M 205.5 35.3 " fill="none" stroke="#FF607B" stroke-opacity="0.90" stroke-width="5.00" transform="matrix(1.00, 0.00, 0.00, -1.00, 3.7, 245.0)"></path></g></g><g><clipPath id="clip0x6180024a4260"><path d="M 63.1 62.8 L 185.2 62.8 L 185.2 185.9 L 63.1 185.9 Z M 63.1 62.8 "></path></clipPath><g clip-path="url(#clip0x6180024a4260)"><text xml:space="preserve" font-family="Sosa-Regular,Sosa" font-size="80.0" fill="#FF607B" transform="matrix(1.00, 0.00, -0.00, -1.00, 84.1, 107.2)">s</text></g></g></g></svg>