<?xml version="1.0" encoding="UTF-8" standalone="no"?><svg xmlns="http://www.w3.org/2000/svg" xmlns:xlink="http://www.w3.org/1999/xlink" clip-rule="evenodd" stroke-miterlimit="10" viewBox="0 0 576 44"><desc>SVG generated by Keynote</desc><defs></defs><g transform="matrix(1.00, 0.00, -0.00, -1.00, 0.0, 44.0)"><path d="M 566.6 31.8 L 565.5 30.8 L 520.8 1.3 L 8.0 -0.2 L 6.6 -0.2 " fill="none" stroke="#62D7AD" stroke-width="2.00" transform="matrix(-1.00, 0.00, 0.00, 1.00, 574.6, 5.2)"></path><path d="M 571.0 9.0 C 573.2 9.0 575.0 7.2 575.0 5.0 C 575.0 2.8 573.2 1.0 571.0 1.0 C 568.8 1.0 567.0 2.8 567.0 5.0 C 567.0 7.2 568.8 9.0 571.0 9.0 Z M 571.0 9.0 " fill="#62D7AD"></path><path d="M 3.3 35.3 C 1.4 36.6 0.9 39.0 2.2 40.9 C 3.4 42.7 5.9 43.2 7.7 42.0 C 9.6 40.8 10.1 38.3 8.8 36.4 C 7.6 34.6 5.1 34.1 3.3 35.3 Z M 3.3 35.3 " fill="#62D7AD"></path></g></svg>