<?xml version="1.0" encoding="UTF-8" standalone="no"?><svg xmlns="http://www.w3.org/2000/svg" xmlns:xlink="http://www.w3.org/1999/xlink" clip-rule="evenodd" stroke-miterlimit="10" viewBox="0 0 577 45"><desc>SVG generated by Keynote</desc><defs></defs><g transform="matrix(1.00, 0.00, -0.00, -1.00, 0.0, 45.0)"><path d="M 566.6 31.8 L 565.5 30.8 L 520.8 1.3 L 8.0 -0.2 L 6.6 -0.2 " fill="none" stroke="#62D7AD" stroke-width="2.00" transform="matrix(1.00, 0.00, 0.00, -1.00, 1.4, 39.7)"></path><path d="M 5.0 35.9 C 2.7 35.9 1.0 37.7 1.0 39.9 C 1.0 42.1 2.8 43.9 5.0 43.9 C 7.2 43.9 9.0 42.1 9.0 39.9 C 9.0 37.7 7.2 35.9 5.0 35.9 Z M 5.0 35.9 " fill="#62D7AD"></path><path d="M 572.7 9.5 C 574.5 8.3 575.0 5.8 573.8 4.0 C 572.6 2.2 570.1 1.7 568.2 2.9 C 566.4 4.1 565.9 6.6 567.1 8.4 C 568.4 10.3 570.8 10.8 572.7 9.5 Z M 572.7 9.5 " fill="#62D7AD"></path></g></svg>