<?xml version="1.0" encoding="UTF-8" standalone="no"?><svg xmlns="http://www.w3.org/2000/svg" xmlns:xlink="http://www.w3.org/1999/xlink" clip-rule="evenodd" stroke-miterlimit="10" viewBox="0 0 576 56"><desc>SVG generated by Keynote</desc><defs></defs><g transform="matrix(1.00, 0.00, -0.00, -1.00, 0.0, 56.0)"><path d="M 566.2 4.6 L 565.1 5.6 L 520.1 47.3 L 8.0 46.6 L 7.2 46.6 " fill="none" stroke="#EDC25F" stroke-width="2.00" transform="matrix(1.00, 0.00, 0.00, -1.00, 1.3, 52.8)"></path><path d="M 5.5 2.2 C 3.3 2.2 1.5 4.0 1.5 6.2 C 1.5 8.4 3.3 10.2 5.5 10.2 C 7.7 10.2 9.5 8.4 9.5 6.2 C 9.5 4.0 7.7 2.2 5.5 2.2 Z M 5.5 2.2 " fill="#EDC25F"></path><path d="M 567.0 53.1 C 568.6 54.6 571.1 54.6 572.6 52.9 C 574.1 51.3 574.1 48.8 572.4 47.3 C 570.8 45.8 568.3 45.9 566.8 47.5 C 565.3 49.1 565.4 51.6 567.0 53.1 Z M 567.0 53.1 " fill="#EDC25F"></path></g></svg>