<?xml version="1.0" encoding="UTF-8" standalone="no"?><svg xmlns="http://www.w3.org/2000/svg" xmlns:xlink="http://www.w3.org/1999/xlink" clip-rule="evenodd" stroke-miterlimit="10" viewBox="0 0 583 42"><desc>SVG generated by Keynote</desc><defs></defs><g transform="matrix(1.00, 0.00, -0.00, -1.00, 0.0, 42.0)"><path d="M 573.2 3.6 L 572.1 3.6 L 520.1 34.1 L 8.0 32.6 L 7.2 32.6 " fill="none" stroke="#FF607B" stroke-width="2.00" transform="matrix(1.00, 0.00, 0.00, -1.00, 1.8, 38.6)"></path><path d="M 6.0 2.0 C 3.8 2.0 2.0 3.8 2.0 6.0 C 2.0 8.2 3.8 10.0 6.0 10.0 C 8.2 10.0 10.0 8.2 10.0 6.0 C 10.0 3.8 8.2 2.0 6.0 2.0 Z M 6.0 2.0 " fill="#FF607B"></path><path d="M 575.6 40.0 C 577.5 41.1 580.0 40.4 581.1 38.5 C 582.2 36.6 581.5 34.1 579.6 33.0 C 577.7 31.9 575.2 32.6 574.1 34.5 C 573.0 36.4 573.7 38.9 575.6 40.0 Z M 575.6 40.0 " fill="#FF607B"></path></g></svg>