<?xml version="1.0" encoding="UTF-8" standalone="no"?><svg xmlns="http://www.w3.org/2000/svg" xmlns:xlink="http://www.w3.org/1999/xlink" clip-rule="evenodd" stroke-miterlimit="10" viewBox="0 0 1925 272"><desc>SVG generated by Keynote</desc><defs></defs><g transform="matrix(1.00, 0.00, -0.00, -1.00, 0.0, 272.0)"><path d="M 1.7 85.2 C 54.5 37.7 121.6 9.2 192.5 4.1 C 324.5 -5.4 446.6 66.3 577.8 75.3 C 742.2 86.5 896.8 -0.2 1060.5 2.3 C 1204.2 4.6 1334.6 73.5 1469.4 119.1 C 1615.3 168.4 1769.4 191.1 1924.0 185.7 L 1923.0 260.4 C 1760.9 282.2 1597.2 267.8 1442.7 219.1 C 1317.9 179.9 1197.3 117.4 1064.4 113.7 C 899.8 109.1 745.2 198.6 578.2 187.1 C 446.5 178.0 319.9 107.1 192.5 118.0 C 121.4 124.1 54.5 154.6 4.0 204.9 L 1.7 85.2 Z M 1.7 85.2 " fill="#E1E1E1"></path></g></svg>