<?xml version="1.0" encoding="UTF-8" standalone="no"?><svg xmlns="http://www.w3.org/2000/svg" xmlns:xlink="http://www.w3.org/1999/xlink" clip-rule="evenodd" stroke-miterlimit="10" viewBox="0 0 1046 158"><desc>SVG generated by Keynote</desc><defs></defs><g transform="matrix(1.00, 0.00, -0.00, -1.00, 0.0, 158.0)"><path d="M -0.4 135.1 L -0.4 133.6 L -0.4 1.7 L 1022.4 0.1 L 1024.6 0.1 " fill="none" stroke="#62D7AD" stroke-width="4.00" transform="matrix(1.00, 0.00, 0.00, -1.00, 8.4, 149.1)"></path><path d="M 1038.0 156.0 C 1041.9 156.0 1045.0 152.9 1045.0 149.0 C 1045.0 145.2 1041.9 142.0 1038.0 142.0 C 1034.1 142.0 1031.0 145.1 1031.0 149.0 C 1031.0 152.9 1034.1 156.0 1038.0 156.0 Z M 1038.0 156.0 " fill="#62D7AD"></path><path d="M 15.0 9.0 C 15.0 5.1 11.9 2.0 8.0 2.0 C 4.1 2.0 1.0 5.1 1.0 9.0 C 1.0 12.9 4.1 16.0 8.0 16.0 C 11.9 16.0 15.0 12.9 15.0 9.0 Z M 15.0 9.0 " fill="#62D7AD"></path></g></svg>