<?xml version="1.0" encoding="UTF-8" standalone="no"?><svg xmlns="http://www.w3.org/2000/svg" xmlns:xlink="http://www.w3.org/1999/xlink" clip-rule="evenodd" stroke-miterlimit="10" viewBox="0 0 685 106"><desc>SVG generated by Keynote</desc><defs></defs><g transform="matrix(1.00, 0.00, -0.00, -1.00, 0.0, 106.0)"><path d="M 11.8 90.3 L 14.0 90.3 L 172.8 90.3 L 172.8 0.0 L 668.1 2.3 L 669.8 2.3 " fill="none" stroke="#54C6E1" stroke-width="4.00" transform="matrix(1.00, 0.00, 0.00, -1.00, 1.2, 99.3)"></path><path d="M 676.0 104.0 C 679.9 104.0 683.0 100.8 683.0 97.0 C 683.0 93.1 679.8 90.0 676.0 90.0 C 672.1 90.0 669.0 93.1 669.0 97.0 C 669.0 100.9 672.2 104.0 676.0 104.0 Z M 676.0 104.0 " fill="#54C6E1"></path><path d="M 8.0 2.0 C 4.1 2.0 1.0 5.1 1.0 9.0 C 1.0 12.9 4.1 16.0 8.0 16.0 C 11.9 16.0 15.0 12.9 15.0 9.0 C 15.0 5.1 11.9 2.0 8.0 2.0 Z M 8.0 2.0 " fill="#54C6E1"></path></g></svg>