<?xml version="1.0" encoding="UTF-8" standalone="no"?><svg xmlns="http://www.w3.org/2000/svg" xmlns:xlink="http://www.w3.org/1999/xlink" clip-rule="evenodd" stroke-miterlimit="10" viewBox="0 0 451 451"><desc>SVG generated by Keynote</desc><defs></defs><g transform="matrix(1.00, 0.00, -0.00, -1.00, 0.0, 451.0)"><g><clipPath id="clip0x6000064bde80"><path d="M 0.4 0.4 L 450.4 0.4 L 450.4 450.4 L 0.4 450.4 Z M 0.4 0.4 "></path></clipPath><g clip-path="url(#clip0x6000064bde80)"><path d="M 0.0 450.0 L 450.0 450.0 L 450.0 0.0 L 0.0 0.0 Z M 0.0 450.0 " fill="#000000" fill-opacity="0.00"></path></g></g><g><clipPath id="clip0x6000064bddc0"><path d="M 0.4 0.4 L 450.4 0.4 L 450.4 450.4 L 0.4 450.4 Z M 0.4 0.4 "></path></clipPath><g clip-path="url(#clip0x6000064bddc0)"><g><g><clipPath id="clip0x6000064be120"><path d="M 0.0 0.0 L 451.0 0.0 L 451.0 451.0 L 0.0 451.0 Z M 0.0 0.0 "></path></clipPath><g clip-path="url(#clip0x6000064be120)"><g><g><clipPath id="clip0x6000064be2a0"><path d="M 0.0 0.0 L 451.0 0.0 L 451.0 451.0 L 0.0 451.0 Z M 0.0 0.0 "></path></clipPath><g clip-path="url(#clip0x6000064be2a0)"><path d="M 225.0 225.0 L 225.0 450.0 C 114.7 450.0 20.7 370.0 2.9 261.2 Z M 225.0 225.0 " fill="#62D7AD"></path></g></g></g></g></g><g><clipPath id="clip0x6000064be4e0"><path d="M 0.0 0.0 L 451.0 0.0 L 451.0 451.0 L 0.0 451.0 Z M 0.0 0.0 "></path></clipPath><g clip-path="url(#clip0x6000064be4e0)"><g><g><clipPath id="clip0x6000064be6c0"><path d="M 0.0 0.0 L 451.0 0.0 L 451.0 451.0 L 0.0 451.0 Z M 0.0 0.0 "></path></clipPath><g clip-path="url(#clip0x6000064be6c0)"><path d="M 225.0 225.0 L 2.9 261.2 C -17.1 138.5 66.2 22.9 188.8 2.9 C 191.4 2.5 193.9 2.1 196.5 1.8 Z M 225.0 225.0 " fill="#EDC25F"></path></g></g></g></g></g><g><clipPath id="clip0x6000064be900"><path d="M 0.0 0.0 L 451.0 0.0 L 451.0 451.0 L 0.0 451.0 Z M 0.0 0.0 "></path></clipPath><g clip-path="url(#clip0x6000064be900)"><g><g><clipPath id="clip0x6000064beae0"><path d="M 0.0 0.0 L 451.0 0.0 L 451.0 451.0 L 0.0 451.0 Z M 0.0 0.0 "></path></clipPath><g clip-path="url(#clip0x6000064beae0)"><path d="M 225.0 225.0 L 196.5 1.8 C 312.5 -13.0 420.6 63.6 445.0 178.0 Z M 225.0 225.0 " fill="#54C6E1"></path></g></g></g></g></g><g><clipPath id="clip0x6000064bed20"><path d="M 0.0 0.0 L 451.0 0.0 L 451.0 451.0 L 0.0 451.0 Z M 0.0 0.0 "></path></clipPath><g clip-path="url(#clip0x6000064bed20)"><g><g><clipPath id="clip0x6000064bef00"><path d="M 0.0 0.0 L 451.0 0.0 L 451.0 451.0 L 0.0 451.0 Z M 0.0 0.0 "></path></clipPath><g clip-path="url(#clip0x6000064bef00)"><path d="M 225.0 225.0 L 445.0 178.0 C 471.0 299.5 393.5 419.1 272.0 445.0 C 256.5 448.3 240.8 450.0 225.0 450.0 Z M 225.0 225.0 " fill="#FF607B"></path></g></g></g></g></g></g></g></g><g><clipPath id="clip0x6000064bf140"><path d="M 70.1 69.4 L 380.5 69.4 L 380.5 379.8 L 70.1 379.8 Z M 70.1 69.4 "></path></clipPath><g clip-path="url(#clip0x6000064bf140)"><path d="M 334.4 333.6 C 394.6 273.4 394.6 175.8 334.4 115.5 C 274.1 55.3 176.5 55.3 116.3 115.5 C 56.0 175.8 56.0 273.4 116.3 333.6 C 176.5 393.9 274.1 393.9 334.4 333.6 Z M 334.4 333.6 " fill="#5A6378"></path></g></g><g><clipPath id="clip0x6000064bf380"><path d="M 22.1 -4.5 L 428.5 -4.5 L 428.5 413.5 L 22.1 413.5 Z M 22.1 -4.5 "></path></clipPath><g clip-path="url(#clip0x6000064bf380)"><text xml:space="preserve" font-family="LastResort,LastResort" font-size="240.0" fill="#E2E2E2" transform="matrix(1.00, 0.00, -0.00, -1.00, 87.6, 148.6)"></text><text xml:space="preserve" font-family="LastResort,LastResort" font-size="240.0" fill="#E2E2E2" transform="matrix(1.00, 0.00, -0.00, -1.00, 363.0, 148.6)"></text><text xml:space="preserve" font-family="LastResort,LastResort" font-size="240.0" fill="#E2E2E2" transform="matrix(1.00, 0.00, -0.00, -1.00, 638.4, 148.6)"></text><text xml:space="preserve" font-family="LastResort,LastResort" font-size="240.0" fill="#E2E2E2" transform="matrix(1.00, 0.00, -0.00, -1.00, 913.8, 148.6)"></text><text xml:space="preserve" font-family="LastResort,LastResort" font-size="240.0" fill="#E2E2E2" transform="matrix(1.00, 0.00, -0.00, -1.00, 1189.2, 148.6)"></text><text xml:space="preserve" font-family="LastResort,LastResort" font-size="240.0" fill="#E2E2E2" transform="matrix(1.00, 0.00, -0.00, -1.00, 1464.6, 148.6)"></text><text xml:space="preserve" font-family="LastResort,LastResort" font-size="240.0" fill="#E2E2E2" transform="matrix(1.00, 0.00, -0.00, -1.00, 1740.0, 148.6)"></text><text xml:space="preserve" font-family="LastResort,LastResort" font-size="240.0" fill="#E2E2E2" transform="matrix(1.00, 0.00, -0.00, -1.00, 2015.4, 148.6)"></text><text xml:space="preserve" font-family="LastResort,LastResort" font-size="240.0" fill="#E2E2E2" transform="matrix(1.00, 0.00, -0.00, -1.00, 2290.7, 148.6)"></text><text xml:space="preserve" font-family="LastResort,LastResort" font-size="240.0" fill="#E2E2E2" transform="matrix(1.00, 0.00, -0.00, -1.00, 2566.1, 148.6)"></text><text xml:space="preserve" font-family="LastResort,LastResort" font-size="240.0" fill="#E2E2E2" transform="matrix(1.00, 0.00, -0.00, -1.00, 2841.5, 148.6)"></text><text xml:space="preserve" font-family="LastResort,LastResort" font-size="240.0" fill="#E2E2E2" transform="matrix(1.00, 0.00, -0.00, -1.00, 3116.9, 148.6)"></text><text xml:space="preserve" font-family="LastResort,LastResort" font-size="240.0" fill="#E2E2E2" transform="matrix(1.00, 0.00, -0.00, -1.00, 3392.3, 148.6)"></text><text xml:space="preserve" font-family="LastResort,LastResort" font-size="240.0" fill="#E2E2E2" transform="matrix(1.00, 0.00, -0.00, -1.00, 3667.7, 148.6)"></text><text xml:space="preserve" font-family="LastResort,LastResort" font-size="240.0" fill="#E2E2E2" transform="matrix(1.00, 0.00, -0.00, -1.00, 3943.1, 148.6)"></text><text xml:space="preserve" font-family="LastResort,LastResort" font-size="240.0" fill="#E2E2E2" transform="matrix(1.00, 0.00, -0.00, -1.00, 4218.5, 148.6)"></text><text xml:space="preserve" font-family="LastResort,LastResort" font-size="240.0" fill="#E2E2E2" transform="matrix(1.00, 0.00, -0.00, -1.00, 4493.9, 148.6)"></text><text xml:space="preserve" font-family="LastResort,LastResort" font-size="240.0" fill="#E2E2E2" transform="matrix(1.00, 0.00, -0.00, -1.00, 4769.3, 148.6)"></text><text xml:space="preserve" font-family="LastResort,LastResort" font-size="240.0" fill="#E2E2E2" transform="matrix(1.00, 0.00, -0.00, -1.00, 5044.6, 148.6)"></text><text xml:space="preserve" font-family="LastResort,LastResort" font-size="240.0" fill="#E2E2E2" transform="matrix(1.00, 0.00, -0.00, -1.00, 5320.0, 148.6)"></text><text xml:space="preserve" font-family="LastResort,LastResort" font-size="240.0" fill="#E2E2E2" transform="matrix(1.00, 0.00, -0.00, -1.00, 5595.4, 148.6)"></text><text xml:space="preserve" font-family="LastResort,LastResort" font-size="240.0" fill="#E2E2E2" transform="matrix(1.00, 0.00, -0.00, -1.00, 5870.8, 148.6)"></text><text xml:space="preserve" font-family="LastResort,LastResort" font-size="240.0" fill="#E2E2E2" transform="matrix(1.00, 0.00, -0.00, -1.00, 6146.2, 148.6)"></text><text xml:space="preserve" font-family="LastResort,LastResort" font-size="240.0" fill="#E2E2E2" transform="matrix(1.00, 0.00, -0.00, -1.00, 6421.6, 148.6)"></text><text xml:space="preserve" font-family="LastResort,LastResort" font-size="240.0" fill="#E2E2E2" transform="matrix(1.00, 0.00, -0.00, -1.00, 6697.0, 148.6)"></text><text xml:space="preserve" font-family="LastResort,LastResort" font-size="240.0" fill="#E2E2E2" transform="matrix(1.00, 0.00, -0.00, -1.00, 6972.4, 148.6)"></text><text xml:space="preserve" font-family="LastResort,LastResort" font-size="240.0" fill="#E2E2E2" transform="matrix(1.00, 0.00, -0.00, -1.00, 7247.8, 148.6)"></text><text xml:space="preserve" font-family="LastResort,LastResort" font-size="240.0" fill="#E2E2E2" transform="matrix(1.00, 0.00, -0.00, -1.00, 7523.2, 148.6)"></text><text xml:space="preserve" font-family="LastResort,LastResort" font-size="240.0" fill="#E2E2E2" transform="matrix(1.00, 0.00, -0.00, -1.00, 7798.6, 148.6)"></text><text xml:space="preserve" font-family="LastResort,LastResort" font-size="240.0" fill="#E2E2E2" transform="matrix(1.00, 0.00, -0.00, -1.00, 8073.9, 148.6)"></text><text xml:space="preserve" font-family="LastResort,LastResort" font-size="240.0" fill="#E2E2E2" transform="matrix(1.00, 0.00, -0.00, -1.00, 8349.3, 148.6)"></text><text xml:space="preserve" font-family="LastResort,LastResort" font-size="240.0" fill="#E2E2E2" transform="matrix(1.00, 0.00, -0.00, -1.00, 8624.7, 148.6)"></text><text xml:space="preserve" font-family="LastResort,LastResort" font-size="240.0" fill="#E2E2E2" transform="matrix(1.00, 0.00, -0.00, -1.00, 8900.1, 148.6)"></text><text xml:space="preserve" font-family="LastResort,LastResort" font-size="240.0" fill="#E2E2E2" transform="matrix(1.00, 0.00, -0.00, -1.00, 9175.5, 148.6)"></text><text xml:space="preserve" font-family="LastResort,LastResort" font-size="240.0" fill="#E2E2E2" transform="matrix(1.00, 0.00, -0.00, -1.00, 9450.9, 148.6)"></text><text xml:space="preserve" font-family="LastResort,LastResort" font-size="240.0" fill="#E2E2E2" transform="matrix(1.00, 0.00, -0.00, -1.00, 9726.3, 148.6)"></text><text xml:space="preserve" font-family="LastResort,LastResort" font-size="240.0" fill="#E2E2E2" transform="matrix(1.00, 0.00, -0.00, -1.00, 10001.7, 148.6)"></text><text xml:space="preserve" font-family="LastResort,LastResort" font-size="240.0" fill="#E2E2E2" transform="matrix(1.00, 0.00, -0.00, -1.00, 10277.1, 148.6)"></text><text xml:space="preserve" font-family="LastResort,LastResort" font-size="240.0" fill="#E2E2E2" transform="matrix(1.00, 0.00, -0.00, -1.00, 10552.5, 148.6)"></text><text xml:space="preserve" font-family="LastResort,LastResort" font-size="240.0" fill="#E2E2E2" transform="matrix(1.00, 0.00, -0.00, -1.00, 10827.9, 148.6)"></text><text xml:space="preserve" font-family="LastResort,LastResort" font-size="240.0" fill="#E2E2E2" transform="matrix(1.00, 0.00, -0.00, -1.00, 11103.2, 148.6)"></text><text xml:space="preserve" font-family="LastResort,LastResort" font-size="240.0" fill="#E2E2E2" transform="matrix(1.00, 0.00, -0.00, -1.00, 11378.6, 148.6)"></text><text xml:space="preserve" font-family="LastResort,LastResort" font-size="240.0" fill="#E2E2E2" transform="matrix(1.00, 0.00, -0.00, -1.00, 11654.0, 148.6)"></text><text xml:space="preserve" font-family="LastResort,LastResort" font-size="240.0" fill="#E2E2E2" transform="matrix(1.00, 0.00, -0.00, -1.00, 11929.4, 148.6)"></text><text xml:space="preserve" font-family="LastResort,LastResort" font-size="240.0" fill="#E2E2E2" transform="matrix(1.00, 0.00, -0.00, -1.00, 12204.8, 148.6)"></text><text xml:space="preserve" font-family="LastResort,LastResort" font-size="240.0" fill="#E2E2E2" transform="matrix(1.00, 0.00, -0.00, -1.00, 12480.2, 148.6)"></text><text xml:space="preserve" font-family="LastResort,LastResort" font-size="240.0" fill="#E2E2E2" transform="matrix(1.00, 0.00, -0.00, -1.00, 12755.6, 148.6)"></text><text xml:space="preserve" font-family="LastResort,LastResort" font-size="240.0" fill="#E2E2E2" transform="matrix(1.00, 0.00, -0.00, -1.00, 13031.0, 148.6)"></text><text xml:space="preserve" font-family="LastResort,LastResort" font-size="240.0" fill="#E2E2E2" transform="matrix(1.00, 0.00, -0.00, -1.00, 13306.4, 148.6)"></text><text xml:space="preserve" font-family="LastResort,LastResort" font-size="240.0" fill="#E2E2E2" transform="matrix(1.00, 0.00, -0.00, -1.00, 13581.8, 148.6)"></text><text xml:space="preserve" font-family="LastResort,LastResort" font-size="240.0" fill="#E2E2E2" transform="matrix(1.00, 0.00, -0.00, -1.00, 13857.1, 148.6)"></text><text xml:space="preserve" font-family="LastResort,LastResort" font-size="240.0" fill="#E2E2E2" transform="matrix(1.00, 0.00, -0.00, -1.00, 14132.5, 148.6)"></text><text xml:space="preserve" font-family="LastResort,LastResort" font-size="240.0" fill="#E2E2E2" transform="matrix(1.00, 0.00, -0.00, -1.00, 14407.9, 148.6)"></text><text xml:space="preserve" font-family="LastResort,LastResort" font-size="240.0" fill="#E2E2E2" transform="matrix(1.00, 0.00, -0.00, -1.00, 14683.3, 148.6)"></text><text xml:space="preserve" font-family="LastResort,LastResort" font-size="240.0" fill="#E2E2E2" transform="matrix(1.00, 0.00, -0.00, -1.00, 14958.7, 148.6)"></text><text xml:space="preserve" font-family="LastResort,LastResort" font-size="240.0" fill="#E2E2E2" transform="matrix(1.00, 0.00, -0.00, -1.00, 15234.1, 148.6)"></text><text xml:space="preserve" font-family="LastResort,LastResort" font-size="240.0" fill="#E2E2E2" transform="matrix(1.00, 0.00, -0.00, -1.00, 15509.5, 148.6)"></text><text xml:space="preserve" font-family="LastResort,LastResort" font-size="240.0" fill="#E2E2E2" transform="matrix(1.00, 0.00, -0.00, -1.00, 15784.9, 148.6)"></text><text xml:space="preserve" font-family="LastResort,LastResort" font-size="240.0" fill="#E2E2E2" transform="matrix(1.00, 0.00, -0.00, -1.00, 16060.3, 148.6)"></text><text xml:space="preserve" font-family="LastResort,LastResort" font-size="240.0" fill="#E2E2E2" transform="matrix(1.00, 0.00, -0.00, -1.00, 16335.7, 148.6)"></text><text xml:space="preserve" font-family="LastResort,LastResort" font-size="240.0" fill="#E2E2E2" transform="matrix(1.00, 0.00, -0.00, -1.00, 16611.1, 148.6)"></text><text xml:space="preserve" font-family="LastResort,LastResort" font-size="240.0" fill="#E2E2E2" transform="matrix(1.00, 0.00, -0.00, -1.00, 16886.4, 148.6)"></text><text xml:space="preserve" font-family="LastResort,LastResort" font-size="240.0" fill="#E2E2E2" transform="matrix(1.00, 0.00, -0.00, -1.00, 17161.8, 148.6)"></text><text xml:space="preserve" font-family="LastResort,LastResort" font-size="240.0" fill="#E2E2E2" transform="matrix(1.00, 0.00, -0.00, -1.00, 17437.2, 148.6)"></text><text xml:space="preserve" font-family="LastResort,LastResort" font-size="240.0" fill="#E2E2E2" transform="matrix(1.00, 0.00, -0.00, -1.00, 17712.6, 148.6)"></text><text xml:space="preserve" font-family="LastResort,LastResort" font-size="240.0" fill="#E2E2E2" transform="matrix(1.00, 0.00, -0.00, -1.00, 17988.0, 148.6)"></text><text xml:space="preserve" font-family="LastResort,LastResort" font-size="240.0" fill="#E2E2E2" transform="matrix(1.00, 0.00, -0.00, -1.00, 18263.4, 148.6)"></text><text xml:space="preserve" font-family="LastResort,LastResort" font-size="240.0" fill="#E2E2E2" transform="matrix(1.00, 0.00, -0.00, -1.00, 18538.8, 148.6)"></text><text xml:space="preserve" font-family="LastResort,LastResort" font-size="240.0" fill="#E2E2E2" transform="matrix(1.00, 0.00, -0.00, -1.00, 18814.2, 148.6)"></text><text xml:space="preserve" font-family="LastResort,LastResort" font-size="240.0" fill="#E2E2E2" transform="matrix(1.00, 0.00, -0.00, -1.00, 19089.6, 148.6)"></text><text xml:space="preserve" font-family="LastResort,LastResort" font-size="240.0" fill="#E2E2E2" transform="matrix(1.00, 0.00, -0.00, -1.00, 19365.0, 148.6)"></text><text xml:space="preserve" font-family="LastResort,LastResort" font-size="240.0" fill="#E2E2E2" transform="matrix(1.00, 0.00, -0.00, -1.00, 19640.4, 148.6)"></text><text xml:space="preserve" font-family="LastResort,LastResort" font-size="240.0" fill="#E2E2E2" transform="matrix(1.00, 0.00, -0.00, -1.00, 19915.7, 148.6)"></text><text xml:space="preserve" font-family="LastResort,LastResort" font-size="240.0" fill="#E2E2E2" transform="matrix(1.00, 0.00, -0.00, -1.00, 20191.1, 148.6)"></text><text xml:space="preserve" font-family="LastResort,LastResort" font-size="240.0" fill="#E2E2E2" transform="matrix(1.00, 0.00, -0.00, -1.00, 20466.5, 148.6)"></text><text xml:space="preserve" font-family="LastResort,LastResort" font-size="240.0" fill="#E2E2E2" transform="matrix(1.00, 0.00, -0.00, -1.00, 20741.9, 148.6)"></text><text xml:space="preserve" font-family="LastResort,LastResort" font-size="240.0" fill="#E2E2E2" transform="matrix(1.00, 0.00, -0.00, -1.00, 21017.3, 148.6)"></text><text xml:space="preserve" font-family="LastResort,LastResort" font-size="240.0" fill="#E2E2E2" transform="matrix(1.00, 0.00, -0.00, -1.00, 21292.7, 148.6)"></text><text xml:space="preserve" font-family="LastResort,LastResort" font-size="240.0" fill="#E2E2E2" transform="matrix(1.00, 0.00, -0.00, -1.00, 21568.1, 148.6)"></text><text xml:space="preserve" font-family="LastResort,LastResort" font-size="240.0" fill="#E2E2E2" transform="matrix(1.00, 0.00, -0.00, -1.00, 21843.5, 148.6)"></text><text xml:space="preserve" font-family="LastResort,LastResort" font-size="240.0" fill="#E2E2E2" transform="matrix(1.00, 0.00, -0.00, -1.00, 22118.9, 148.6)"></text><text xml:space="preserve" font-family="LastResort,LastResort" font-size="240.0" fill="#E2E2E2" transform="matrix(1.00, 0.00, -0.00, -1.00, 22394.3, 148.6)"></text><text xml:space="preserve" font-family="LastResort,LastResort" font-size="240.0" fill="#E2E2E2" transform="matrix(1.00, 0.00, -0.00, -1.00, 22669.6, 148.6)"></text><text xml:space="preserve" font-family="LastResort,LastResort" font-size="240.0" fill="#E2E2E2" transform="matrix(1.00, 0.00, -0.00, -1.00, 22945.0, 148.6)"></text><text xml:space="preserve" font-family="LastResort,LastResort" font-size="240.0" fill="#E2E2E2" transform="matrix(1.00, 0.00, -0.00, -1.00, 23220.4, 148.6)"></text><text xml:space="preserve" font-family="LastResort,LastResort" font-size="240.0" fill="#E2E2E2" transform="matrix(1.00, 0.00, -0.00, -1.00, 23495.8, 148.6)"></text><text xml:space="preserve" font-family="LastResort,LastResort" font-size="240.0" fill="#E2E2E2" transform="matrix(1.00, 0.00, -0.00, -1.00, 23771.2, 148.6)"></text><text xml:space="preserve" font-family="LastResort,LastResort" font-size="240.0" fill="#E2E2E2" transform="matrix(1.00, 0.00, -0.00, -1.00, 24046.6, 148.6)"></text><text xml:space="preserve" font-family="LastResort,LastResort" font-size="240.0" fill="#E2E2E2" transform="matrix(1.00, 0.00, -0.00, -1.00, 24322.0, 148.6)"></text><text xml:space="preserve" font-family="LastResort,LastResort" font-size="240.0" fill="#E2E2E2" transform="matrix(1.00, 0.00, -0.00, -1.00, 24597.4, 148.6)"></text><text xml:space="preserve" font-family="LastResort,LastResort" font-size="240.0" fill="#E2E2E2" transform="matrix(1.00, 0.00, -0.00, -1.00, 24872.8, 148.6)"></text><text xml:space="preserve" font-family="LastResort,LastResort" font-size="240.0" fill="#E2E2E2" transform="matrix(1.00, 0.00, -0.00, -1.00, 25148.2, 148.6)"></text><text xml:space="preserve" font-family="LastResort,LastResort" font-size="240.0" fill="#E2E2E2" transform="matrix(1.00, 0.00, -0.00, -1.00, 25423.6, 148.6)"></text><text xml:space="preserve" font-family="LastResort,LastResort" font-size="240.0" fill="#E2E2E2" transform="matrix(1.00, 0.00, -0.00, -1.00, 25698.9, 148.6)"></text><text xml:space="preserve" font-family="LastResort,LastResort" font-size="240.0" fill="#E2E2E2" transform="matrix(1.00, 0.00, -0.00, -1.00, 25974.3, 148.6)"></text><text xml:space="preserve" font-family="LastResort,LastResort" font-size="240.0" fill="#E2E2E2" transform="matrix(1.00, 0.00, -0.00, -1.00, 26249.7, 148.6)"></text><text xml:space="preserve" font-family="LastResort,LastResort" font-size="240.0" fill="#E2E2E2" transform="matrix(1.00, 0.00, -0.00, -1.00, 26525.1, 148.6)"></text><text xml:space="preserve" font-family="LastResort,LastResort" font-size="240.0" fill="#E2E2E2" transform="matrix(1.00, 0.00, -0.00, -1.00, 26800.5, 148.6)"></text><text xml:space="preserve" font-family="LastResort,LastResort" font-size="240.0" fill="#E2E2E2" transform="matrix(1.00, 0.00, -0.00, -1.00, 27075.9, 148.6)"></text><text xml:space="preserve" font-family="LastResort,LastResort" font-size="240.0" fill="#E2E2E2" transform="matrix(1.00, 0.00, -0.00, -1.00, 27351.3, 148.6)"></text><text xml:space="preserve" font-family="LastResort,LastResort" font-size="240.0" fill="#E2E2E2" transform="matrix(1.00, 0.00, -0.00, -1.00, 27626.7, 148.6)"></text><text xml:space="preserve" font-family="LastResort,LastResort" font-size="240.0" fill="#E2E2E2" transform="matrix(1.00, 0.00, -0.00, -1.00, 27902.1, 148.6)"></text><text xml:space="preserve" font-family="LastResort,LastResort" font-size="240.0" fill="#E2E2E2" transform="matrix(1.00, 0.00, -0.00, -1.00, 28177.5, 148.6)"></text><text xml:space="preserve" font-family="LastResort,LastResort" font-size="240.0" fill="#E2E2E2" transform="matrix(1.00, 0.00, -0.00, -1.00, 28452.9, 148.6)"></text><text xml:space="preserve" font-family="LastResort,LastResort" font-size="240.0" fill="#E2E2E2" transform="matrix(1.00, 0.00, -0.00, -1.00, 28728.2, 148.6)"></text><text xml:space="preserve" font-family="LastResort,LastResort" font-size="240.0" fill="#E2E2E2" transform="matrix(1.00, 0.00, -0.00, -1.00, 29003.6, 148.6)"></text><text xml:space="preserve" font-family="LastResort,LastResort" font-size="240.0" fill="#E2E2E2" transform="matrix(1.00, 0.00, -0.00, -1.00, 29279.0, 148.6)"></text><text xml:space="preserve" font-family="LastResort,LastResort" font-size="240.0" fill="#E2E2E2" transform="matrix(1.00, 0.00, -0.00, -1.00, 29554.4, 148.6)"></text><text xml:space="preserve" font-family="LastResort,LastResort" font-size="240.0" fill="#E2E2E2" transform="matrix(1.00, 0.00, -0.00, -1.00, 29829.8, 148.6)"></text><text xml:space="preserve" font-family="LastResort,LastResort" font-size="240.0" fill="#E2E2E2" transform="matrix(1.00, 0.00, -0.00, -1.00, 30105.2, 148.6)"></text><text xml:space="preserve" font-family="LastResort,LastResort" font-size="240.0" fill="#E2E2E2" transform="matrix(1.00, 0.00, -0.00, -1.00, 30380.6, 148.6)"></text><text xml:space="preserve" font-family="LastResort,LastResort" font-size="240.0" fill="#E2E2E2" transform="matrix(1.00, 0.00, -0.00, -1.00, 30656.0, 148.6)"></text><text xml:space="preserve" font-family="LastResort,LastResort" font-size="240.0" fill="#E2E2E2" transform="matrix(1.00, 0.00, -0.00, -1.00, 30931.4, 148.6)"></text><text xml:space="preserve" font-family="LastResort,LastResort" font-size="240.0" fill="#E2E2E2" transform="matrix(1.00, 0.00, -0.00, -1.00, 31206.8, 148.6)"></text><text xml:space="preserve" font-family="LastResort,LastResort" font-size="240.0" fill="#E2E2E2" transform="matrix(1.00, 0.00, -0.00, -1.00, 31482.1, 148.6)"></text><text xml:space="preserve" font-family="LastResort,LastResort" font-size="240.0" fill="#E2E2E2" transform="matrix(1.00, 0.00, -0.00, -1.00, 31757.5, 148.6)"></text><text xml:space="preserve" font-family="LastResort,LastResort" font-size="240.0" fill="#E2E2E2" transform="matrix(1.00, 0.00, -0.00, -1.00, 32032.9, 148.6)"></text><text xml:space="preserve" font-family="LastResort,LastResort" font-size="240.0" fill="#E2E2E2" transform="matrix(1.00, 0.00, -0.00, -1.00, 32308.3, 148.6)"></text><text xml:space="preserve" font-family="LastResort,LastResort" font-size="240.0" fill="#E2E2E2" transform="matrix(1.00, 0.00, -0.00, -1.00, 32583.7, 148.6)"></text><text xml:space="preserve" font-family="LastResort,LastResort" font-size="240.0" fill="#E2E2E2" transform="matrix(1.00, 0.00, -0.00, -1.00, 32859.1, 148.6)"></text><text xml:space="preserve" font-family="LastResort,LastResort" font-size="240.0" fill="#E2E2E2" transform="matrix(1.00, 0.00, -0.00, -1.00, 33134.5, 148.6)"></text><text xml:space="preserve" font-family="LastResort,LastResort" font-size="240.0" fill="#E2E2E2" transform="matrix(1.00, 0.00, -0.00, -1.00, 33409.9, 148.6)"></text><text xml:space="preserve" font-family="LastResort,LastResort" font-size="240.0" fill="#E2E2E2" transform="matrix(1.00, 0.00, -0.00, -1.00, 33685.3, 148.6)"></text><text xml:space="preserve" font-family="LastResort,LastResort" font-size="240.0" fill="#E2E2E2" transform="matrix(1.00, 0.00, -0.00, -1.00, 33960.7, 148.6)"></text><text xml:space="preserve" font-family="LastResort,LastResort" font-size="240.0" fill="#E2E2E2" transform="matrix(1.00, 0.00, -0.00, -1.00, 34236.1, 148.6)"></text><text xml:space="preserve" font-family="LastResort,LastResort" font-size="240.0" fill="#E2E2E2" transform="matrix(1.00, 0.00, -0.00, -1.00, 34511.4, 148.6)"></text><text xml:space="preserve" font-family="LastResort,LastResort" font-size="240.0" fill="#E2E2E2" transform="matrix(1.00, 0.00, -0.00, -1.00, 34786.8, 148.6)"></text><text xml:space="preserve" font-family="LastResort,LastResort" font-size="240.0" fill="#E2E2E2" transform="matrix(1.00, 0.00, -0.00, -1.00, 35062.2, 148.6)"></text><text xml:space="preserve" font-family="LastResort,LastResort" font-size="240.0" fill="#E2E2E2" transform="matrix(1.00, 0.00, -0.00, -1.00, 35337.6, 148.6)"></text><text xml:space="preserve" font-family="LastResort,LastResort" font-size="240.0" fill="#E2E2E2" transform="matrix(1.00, 0.00, -0.00, -1.00, 35613.0, 148.6)"></text><text xml:space="preserve" font-family="LastResort,LastResort" font-size="240.0" fill="#E2E2E2" transform="matrix(1.00, 0.00, -0.00, -1.00, 35888.4, 148.6)"></text><text xml:space="preserve" font-family="LastResort,LastResort" font-size="240.0" fill="#E2E2E2" transform="matrix(1.00, 0.00, -0.00, -1.00, 36163.8, 148.6)"></text><text xml:space="preserve" font-family="LastResort,LastResort" font-size="240.0" fill="#E2E2E2" transform="matrix(1.00, 0.00, -0.00, -1.00, 36439.2, 148.6)"></text><text xml:space="preserve" font-family="LastResort,LastResort" font-size="240.0" fill="#E2E2E2" transform="matrix(1.00, 0.00, -0.00, -1.00, 36714.6, 148.6)"></text><text xml:space="preserve" font-family="LastResort,LastResort" font-size="240.0" fill="#E2E2E2" transform="matrix(1.00, 0.00, -0.00, -1.00, 36990.0, 148.6)"></text><text xml:space="preserve" font-family="LastResort,LastResort" font-size="240.0" fill="#E2E2E2" transform="matrix(1.00, 0.00, -0.00, -1.00, 37265.4, 148.6)"></text><text xml:space="preserve" font-family="LastResort,LastResort" font-size="240.0" fill="#E2E2E2" transform="matrix(1.00, 0.00, -0.00, -1.00, 37540.7, 148.6)"></text><text xml:space="preserve" font-family="LastResort,LastResort" font-size="240.0" fill="#E2E2E2" transform="matrix(1.00, 0.00, -0.00, -1.00, 37816.1, 148.6)"></text><text xml:space="preserve" font-family="LastResort,LastResort" font-size="240.0" fill="#E2E2E2" transform="matrix(1.00, 0.00, -0.00, -1.00, 38091.5, 148.6)"></text><text xml:space="preserve" font-family="LastResort,LastResort" font-size="240.0" fill="#E2E2E2" transform="matrix(1.00, 0.00, -0.00, -1.00, 38366.9, 148.6)"></text><text xml:space="preserve" font-family="LastResort,LastResort" font-size="240.0" fill="#E2E2E2" transform="matrix(1.00, 0.00, -0.00, -1.00, 38642.3, 148.6)"></text><text xml:space="preserve" font-family="LastResort,LastResort" font-size="240.0" fill="#E2E2E2" transform="matrix(1.00, 0.00, -0.00, -1.00, 38917.7, 148.6)"></text><text xml:space="preserve" font-family="LastResort,LastResort" font-size="240.0" fill="#E2E2E2" transform="matrix(1.00, 0.00, -0.00, -1.00, 39193.1, 148.6)"></text><text xml:space="preserve" font-family="LastResort,LastResort" font-size="240.0" fill="#E2E2E2" transform="matrix(1.00, 0.00, -0.00, -1.00, 39468.5, 148.6)"></text><text xml:space="preserve" font-family="LastResort,LastResort" font-size="240.0" fill="#E2E2E2" transform="matrix(1.00, 0.00, -0.00, -1.00, 39743.9, 148.6)"></text><text xml:space="preserve" font-family="LastResort,LastResort" font-size="240.0" fill="#E2E2E2" transform="matrix(1.00, 0.00, -0.00, -1.00, 40019.3, 148.6)"></text><text xml:space="preserve" font-family="LastResort,LastResort" font-size="240.0" fill="#E2E2E2" transform="matrix(1.00, 0.00, -0.00, -1.00, 40294.6, 148.6)"></text><text xml:space="preserve" font-family="LastResort,LastResort" font-size="240.0" fill="#E2E2E2" transform="matrix(1.00, 0.00, -0.00, -1.00, 40570.0, 148.6)"></text><text xml:space="preserve" font-family="LastResort,LastResort" font-size="240.0" fill="#E2E2E2" transform="matrix(1.00, 0.00, -0.00, -1.00, 40845.4, 148.6)"></text><text xml:space="preserve" font-family="LastResort,LastResort" font-size="240.0" fill="#E2E2E2" transform="matrix(1.00, 0.00, -0.00, -1.00, 41120.8, 148.6)"></text><text xml:space="preserve" font-family="LastResort,LastResort" font-size="240.0" fill="#E2E2E2" transform="matrix(1.00, 0.00, -0.00, -1.00, 41396.2, 148.6)"></text><text xml:space="preserve" font-family="LastResort,LastResort" font-size="240.0" fill="#E2E2E2" transform="matrix(1.00, 0.00, -0.00, -1.00, 41671.6, 148.6)"></text><text xml:space="preserve" font-family="LastResort,LastResort" font-size="240.0" fill="#E2E2E2" transform="matrix(1.00, 0.00, -0.00, -1.00, 41947.0, 148.6)"></text><text xml:space="preserve" font-family="LastResort,LastResort" font-size="240.0" fill="#E2E2E2" transform="matrix(1.00, 0.00, -0.00, -1.00, 42222.4, 148.6)"></text><text xml:space="preserve" font-family="LastResort,LastResort" font-size="240.0" fill="#E2E2E2" transform="matrix(1.00, 0.00, -0.00, -1.00, 42497.8, 148.6)"></text><text xml:space="preserve" font-family="LastResort,LastResort" font-size="240.0" fill="#E2E2E2" transform="matrix(1.00, 0.00, -0.00, -1.00, 42773.2, 148.6)"></text><text xml:space="preserve" font-family="LastResort,LastResort" font-size="240.0" fill="#E2E2E2" transform="matrix(1.00, 0.00, -0.00, -1.00, 43048.6, 148.6)"></text><text xml:space="preserve" font-family="LastResort,LastResort" font-size="240.0" fill="#E2E2E2" transform="matrix(1.00, 0.00, -0.00, -1.00, 43323.9, 148.6)"></text><text xml:space="preserve" font-family="LastResort,LastResort" font-size="240.0" fill="#E2E2E2" transform="matrix(1.00, 0.00, -0.00, -1.00, 43599.3, 148.6)"></text><text xml:space="preserve" font-family="LastResort,LastResort" font-size="240.0" fill="#E2E2E2" transform="matrix(1.00, 0.00, -0.00, -1.00, 43874.7, 148.6)"></text><text xml:space="preserve" font-family="LastResort,LastResort" font-size="240.0" fill="#E2E2E2" transform="matrix(1.00, 0.00, -0.00, -1.00, 44150.1, 148.6)"></text><text xml:space="preserve" font-family="LastResort,LastResort" font-size="240.0" fill="#E2E2E2" transform="matrix(1.00, 0.00, -0.00, -1.00, 44425.5, 148.6)"></text><text xml:space="preserve" font-family="LastResort,LastResort" font-size="240.0" fill="#E2E2E2" transform="matrix(1.00, 0.00, -0.00, -1.00, 44700.9, 148.6)"></text><text xml:space="preserve" font-family="LastResort,LastResort" font-size="240.0" fill="#E2E2E2" transform="matrix(1.00, 0.00, -0.00, -1.00, 44976.3, 148.6)"></text><text xml:space="preserve" font-family="LastResort,LastResort" font-size="240.0" fill="#E2E2E2" transform="matrix(1.00, 0.00, -0.00, -1.00, 45251.7, 148.6)"></text><text xml:space="preserve" font-family="LastResort,LastResort" font-size="240.0" fill="#E2E2E2" transform="matrix(1.00, 0.00, -0.00, -1.00, 45527.1, 148.6)"></text><text xml:space="preserve" font-family="LastResort,LastResort" font-size="240.0" fill="#E2E2E2" transform="matrix(1.00, 0.00, -0.00, -1.00, 45802.5, 148.6)"></text><text xml:space="preserve" font-family="LastResort,LastResort" font-size="240.0" fill="#E2E2E2" transform="matrix(1.00, 0.00, -0.00, -1.00, 46077.9, 148.6)"></text><text xml:space="preserve" font-family="LastResort,LastResort" font-size="240.0" fill="#E2E2E2" transform="matrix(1.00, 0.00, -0.00, -1.00, 46353.2, 148.6)"></text><text xml:space="preserve" font-family="LastResort,LastResort" font-size="240.0" fill="#E2E2E2" transform="matrix(1.00, 0.00, -0.00, -1.00, 46628.6, 148.6)"></text><text xml:space="preserve" font-family="LastResort,LastResort" font-size="240.0" fill="#E2E2E2" transform="matrix(1.00, 0.00, -0.00, -1.00, 46904.0, 148.6)"></text><text xml:space="preserve" font-family="LastResort,LastResort" font-size="240.0" fill="#E2E2E2" transform="matrix(1.00, 0.00, -0.00, -1.00, 47179.4, 148.6)"></text><text xml:space="preserve" font-family="LastResort,LastResort" font-size="240.0" fill="#E2E2E2" transform="matrix(1.00, 0.00, -0.00, -1.00, 47454.8, 148.6)"></text><text xml:space="preserve" font-family="LastResort,LastResort" font-size="240.0" fill="#E2E2E2" transform="matrix(1.00, 0.00, -0.00, -1.00, 47730.2, 148.6)"></text><text xml:space="preserve" font-family="LastResort,LastResort" font-size="240.0" fill="#E2E2E2" transform="matrix(1.00, 0.00, -0.00, -1.00, 48005.6, 148.6)"></text><text xml:space="preserve" font-family="LastResort,LastResort" font-size="240.0" fill="#E2E2E2" transform="matrix(1.00, 0.00, -0.00, -1.00, 48281.0, 148.6)"></text><text xml:space="preserve" font-family="LastResort,LastResort" font-size="240.0" fill="#E2E2E2" transform="matrix(1.00, 0.00, -0.00, -1.00, 48556.4, 148.6)"></text><text xml:space="preserve" font-family="LastResort,LastResort" font-size="240.0" fill="#E2E2E2" transform="matrix(1.00, 0.00, -0.00, -1.00, 48831.8, 148.6)"></text><text xml:space="preserve" font-family="LastResort,LastResort" font-size="240.0" fill="#E2E2E2" transform="matrix(1.00, 0.00, -0.00, -1.00, 49107.1, 148.6)"></text><text xml:space="preserve" font-family="LastResort,LastResort" font-size="240.0" fill="#E2E2E2" transform="matrix(1.00, 0.00, -0.00, -1.00, 49382.5, 148.6)"></text><text xml:space="preserve" font-family="LastResort,LastResort" font-size="240.0" fill="#E2E2E2" transform="matrix(1.00, 0.00, -0.00, -1.00, 49657.9, 148.6)"></text><text xml:space="preserve" font-family="LastResort,LastResort" font-size="240.0" fill="#E2E2E2" transform="matrix(1.00, 0.00, -0.00, -1.00, 49933.3, 148.6)"></text><text xml:space="preserve" font-family="LastResort,LastResort" font-size="240.0" fill="#E2E2E2" transform="matrix(1.00, 0.00, -0.00, -1.00, 50208.7, 148.6)"></text><text xml:space="preserve" font-family="LastResort,LastResort" font-size="240.0" fill="#E2E2E2" transform="matrix(1.00, 0.00, -0.00, -1.00, 50484.1, 148.6)"></text><text xml:space="preserve" font-family="LastResort,LastResort" font-size="240.0" fill="#E2E2E2" transform="matrix(1.00, 0.00, -0.00, -1.00, 50759.5, 148.6)"></text><text xml:space="preserve" font-family="LastResort,LastResort" font-size="240.0" fill="#E2E2E2" transform="matrix(1.00, 0.00, -0.00, -1.00, 51034.9, 148.6)"></text><text xml:space="preserve" font-family="LastResort,LastResort" font-size="240.0" fill="#E2E2E2" transform="matrix(1.00, 0.00, -0.00, -1.00, 51310.3, 148.6)"></text><text xml:space="preserve" font-family="LastResort,LastResort" font-size="240.0" fill="#E2E2E2" transform="matrix(1.00, 0.00, -0.00, -1.00, 51585.7, 148.6)"></text><text xml:space="preserve" font-family="LastResort,LastResort" font-size="240.0" fill="#E2E2E2" transform="matrix(1.00, 0.00, -0.00, -1.00, 51861.1, 148.6)"></text><text xml:space="preserve" font-family="LastResort,LastResort" font-size="240.0" fill="#E2E2E2" transform="matrix(1.00, 0.00, -0.00, -1.00, 52136.4, 148.6)"></text><text xml:space="preserve" font-family="LastResort,LastResort" font-size="240.0" fill="#E2E2E2" transform="matrix(1.00, 0.00, -0.00, -1.00, 52411.8, 148.6)"></text><text xml:space="preserve" font-family="LastResort,LastResort" font-size="240.0" fill="#E2E2E2" transform="matrix(1.00, 0.00, -0.00, -1.00, 52687.2, 148.6)"></text><text xml:space="preserve" font-family="LastResort,LastResort" font-size="240.0" fill="#E2E2E2" transform="matrix(1.00, 0.00, -0.00, -1.00, 52962.6, 148.6)"></text><text xml:space="preserve" font-family="LastResort,LastResort" font-size="240.0" fill="#E2E2E2" transform="matrix(1.00, 0.00, -0.00, -1.00, 53238.0, 148.6)"></text><text xml:space="preserve" font-family="LastResort,LastResort" font-size="240.0" fill="#E2E2E2" transform="matrix(1.00, 0.00, -0.00, -1.00, 53513.4, 148.6)"></text><text xml:space="preserve" font-family="LastResort,LastResort" font-size="240.0" fill="#E2E2E2" transform="matrix(1.00, 0.00, -0.00, -1.00, 53788.8, 148.6)"></text><text xml:space="preserve" font-family="LastResort,LastResort" font-size="240.0" fill="#E2E2E2" transform="matrix(1.00, 0.00, -0.00, -1.00, 54064.2, 148.6)"></text><text xml:space="preserve" font-family="LastResort,LastResort" font-size="240.0" fill="#E2E2E2" transform="matrix(1.00, 0.00, -0.00, -1.00, 54339.6, 148.6)"></text><text xml:space="preserve" font-family="LastResort,LastResort" font-size="240.0" fill="#E2E2E2" transform="matrix(1.00, 0.00, -0.00, -1.00, 54615.0, 148.6)"></text><text xml:space="preserve" font-family="LastResort,LastResort" font-size="240.0" fill="#E2E2E2" transform="matrix(1.00, 0.00, -0.00, -1.00, 54890.4, 148.6)"></text><text xml:space="preserve" font-family="LastResort,LastResort" font-size="240.0" fill="#E2E2E2" transform="matrix(1.00, 0.00, -0.00, -1.00, 55165.7, 148.6)"></text><text xml:space="preserve" font-family="LastResort,LastResort" font-size="240.0" fill="#E2E2E2" transform="matrix(1.00, 0.00, -0.00, -1.00, 55441.1, 148.6)"></text><text xml:space="preserve" font-family="LastResort,LastResort" font-size="240.0" fill="#E2E2E2" transform="matrix(1.00, 0.00, -0.00, -1.00, 55716.5, 148.6)"></text><text xml:space="preserve" font-family="LastResort,LastResort" font-size="240.0" fill="#E2E2E2" transform="matrix(1.00, 0.00, -0.00, -1.00, 55991.9, 148.6)"></text><text xml:space="preserve" font-family="LastResort,LastResort" font-size="240.0" fill="#E2E2E2" transform="matrix(1.00, 0.00, -0.00, -1.00, 56267.3, 148.6)"></text><text xml:space="preserve" font-family="LastResort,LastResort" font-size="240.0" fill="#E2E2E2" transform="matrix(1.00, 0.00, -0.00, -1.00, 56542.7, 148.6)"></text><text xml:space="preserve" font-family="LastResort,LastResort" font-size="240.0" fill="#E2E2E2" transform="matrix(1.00, 0.00, -0.00, -1.00, 56818.1, 148.6)"></text><text xml:space="preserve" font-family="LastResort,LastResort" font-size="240.0" fill="#E2E2E2" transform="matrix(1.00, 0.00, -0.00, -1.00, 57093.5, 148.6)"></text><text xml:space="preserve" font-family="LastResort,LastResort" font-size="240.0" fill="#E2E2E2" transform="matrix(1.00, 0.00, -0.00, -1.00, 57368.9, 148.6)"></text><text xml:space="preserve" font-family="LastResort,LastResort" font-size="240.0" fill="#E2E2E2" transform="matrix(1.00, 0.00, -0.00, -1.00, 57644.3, 148.6)"></text><text xml:space="preserve" font-family="LastResort,LastResort" font-size="240.0" fill="#E2E2E2" transform="matrix(1.00, 0.00, -0.00, -1.00, 57919.6, 148.6)"></text><text xml:space="preserve" font-family="LastResort,LastResort" font-size="240.0" fill="#E2E2E2" transform="matrix(1.00, 0.00, -0.00, -1.00, 58195.0, 148.6)"></text><text xml:space="preserve" font-family="LastResort,LastResort" font-size="240.0" fill="#E2E2E2" transform="matrix(1.00, 0.00, -0.00, -1.00, 58470.4, 148.6)"></text><text xml:space="preserve" font-family="LastResort,LastResort" font-size="240.0" fill="#E2E2E2" transform="matrix(1.00, 0.00, -0.00, -1.00, 58745.8, 148.6)"></text><text xml:space="preserve" font-family="LastResort,LastResort" font-size="240.0" fill="#E2E2E2" transform="matrix(1.00, 0.00, -0.00, -1.00, 59021.2, 148.6)"></text><text xml:space="preserve" font-family="LastResort,LastResort" font-size="240.0" fill="#E2E2E2" transform="matrix(1.00, 0.00, -0.00, -1.00, 59296.6, 148.6)"></text><text xml:space="preserve" font-family="LastResort,LastResort" font-size="240.0" fill="#E2E2E2" transform="matrix(1.00, 0.00, -0.00, -1.00, 59572.0, 148.6)"></text><text xml:space="preserve" font-family="LastResort,LastResort" font-size="240.0" fill="#E2E2E2" transform="matrix(1.00, 0.00, -0.00, -1.00, 59847.4, 148.6)"></text><text xml:space="preserve" font-family="LastResort,LastResort" font-size="240.0" fill="#E2E2E2" transform="matrix(1.00, 0.00, -0.00, -1.00, 60122.8, 148.6)"></text><text xml:space="preserve" font-family="LastResort,LastResort" font-size="240.0" fill="#E2E2E2" transform="matrix(1.00, 0.00, -0.00, -1.00, 60398.2, 148.6)"></text><text xml:space="preserve" font-family="LastResort,LastResort" font-size="240.0" fill="#E2E2E2" transform="matrix(1.00, 0.00, -0.00, -1.00, 60673.6, 148.6)"></text><text xml:space="preserve" font-family="LastResort,LastResort" font-size="240.0" fill="#E2E2E2" transform="matrix(1.00, 0.00, -0.00, -1.00, 60948.9, 148.6)"></text><text xml:space="preserve" font-family="LastResort,LastResort" font-size="240.0" fill="#E2E2E2" transform="matrix(1.00, 0.00, -0.00, -1.00, 61224.3, 148.6)"></text><text xml:space="preserve" font-family="LastResort,LastResort" font-size="240.0" fill="#E2E2E2" transform="matrix(1.00, 0.00, -0.00, -1.00, 61499.7, 148.6)"></text><text xml:space="preserve" font-family="LastResort,LastResort" font-size="240.0" fill="#E2E2E2" transform="matrix(1.00, 0.00, -0.00, -1.00, 61775.1, 148.6)"></text><text xml:space="preserve" font-family="LastResort,LastResort" font-size="240.0" fill="#E2E2E2" transform="matrix(1.00, 0.00, -0.00, -1.00, 62050.5, 148.6)"></text><text xml:space="preserve" font-family="LastResort,LastResort" font-size="240.0" fill="#E2E2E2" transform="matrix(1.00, 0.00, -0.00, -1.00, 62325.9, 148.6)"></text><text xml:space="preserve" font-family="LastResort,LastResort" font-size="240.0" fill="#E2E2E2" transform="matrix(1.00, 0.00, -0.00, -1.00, 62601.3, 148.6)"></text><text xml:space="preserve" font-family="LastResort,LastResort" font-size="240.0" fill="#E2E2E2" transform="matrix(1.00, 0.00, -0.00, -1.00, 62876.7, 148.6)"></text><text xml:space="preserve" font-family="LastResort,LastResort" font-size="240.0" fill="#E2E2E2" transform="matrix(1.00, 0.00, -0.00, -1.00, 63152.1, 148.6)"></text><text xml:space="preserve" font-family="LastResort,LastResort" font-size="240.0" fill="#E2E2E2" transform="matrix(1.00, 0.00, -0.00, -1.00, 63427.5, 148.6)"></text><text xml:space="preserve" font-family="LastResort,LastResort" font-size="240.0" fill="#E2E2E2" transform="matrix(1.00, 0.00, -0.00, -1.00, 63702.9, 148.6)"></text><text xml:space="preserve" font-family="LastResort,LastResort" font-size="240.0" fill="#E2E2E2" transform="matrix(1.00, 0.00, -0.00, -1.00, 63978.2, 148.6)"></text><text xml:space="preserve" font-family="LastResort,LastResort" font-size="240.0" fill="#E2E2E2" transform="matrix(1.00, 0.00, -0.00, -1.00, 64253.6, 148.6)"></text><text xml:space="preserve" font-family="LastResort,LastResort" font-size="240.0" fill="#E2E2E2" transform="matrix(1.00, 0.00, -0.00, -1.00, 64529.0, 148.6)"></text><text xml:space="preserve" font-family="LastResort,LastResort" font-size="240.0" fill="#E2E2E2" transform="matrix(1.00, 0.00, -0.00, -1.00, 64804.4, 148.6)"></text><text xml:space="preserve" font-family="LastResort,LastResort" font-size="240.0" fill="#E2E2E2" transform="matrix(1.00, 0.00, -0.00, -1.00, 65079.8, 148.6)"></text><text xml:space="preserve" font-family="LastResort,LastResort" font-size="240.0" fill="#E2E2E2" transform="matrix(1.00, 0.00, -0.00, -1.00, 65355.2, 148.6)"></text><text xml:space="preserve" font-family="LastResort,LastResort" font-size="240.0" fill="#E2E2E2" transform="matrix(1.00, 0.00, -0.00, -1.00, 65630.6, 148.6)"></text><text xml:space="preserve" font-family="LastResort,LastResort" font-size="240.0" fill="#E2E2E2" transform="matrix(1.00, 0.00, -0.00, -1.00, 65906.0, 148.6)"></text><text xml:space="preserve" font-family="LastResort,LastResort" font-size="240.0" fill="#E2E2E2" transform="matrix(1.00, 0.00, -0.00, -1.00, 66181.4, 148.6)"></text><text xml:space="preserve" font-family="LastResort,LastResort" font-size="240.0" fill="#E2E2E2" transform="matrix(1.00, 0.00, -0.00, -1.00, 66456.8, 148.6)"></text><text xml:space="preserve" font-family="LastResort,LastResort" font-size="240.0" fill="#E2E2E2" transform="matrix(1.00, 0.00, -0.00, -1.00, 66732.1, 148.6)"></text><text xml:space="preserve" font-family="LastResort,LastResort" font-size="240.0" fill="#E2E2E2" transform="matrix(1.00, 0.00, -0.00, -1.00, 67007.5, 148.6)"></text><text xml:space="preserve" font-family="LastResort,LastResort" font-size="240.0" fill="#E2E2E2" transform="matrix(1.00, 0.00, -0.00, -1.00, 67282.9, 148.6)"></text><text xml:space="preserve" font-family="LastResort,LastResort" font-size="240.0" fill="#E2E2E2" transform="matrix(1.00, 0.00, -0.00, -1.00, 67558.3, 148.6)"></text><text xml:space="preserve" font-family="LastResort,LastResort" font-size="240.0" fill="#E2E2E2" transform="matrix(1.00, 0.00, -0.00, -1.00, 67833.7, 148.6)"></text><text xml:space="preserve" font-family="LastResort,LastResort" font-size="240.0" fill="#E2E2E2" transform="matrix(1.00, 0.00, -0.00, -1.00, 68109.1, 148.6)"></text><text xml:space="preserve" font-family="LastResort,LastResort" font-size="240.0" fill="#E2E2E2" transform="matrix(1.00, 0.00, -0.00, -1.00, 68384.5, 148.6)"></text><text xml:space="preserve" font-family="LastResort,LastResort" font-size="240.0" fill="#E2E2E2" transform="matrix(1.00, 0.00, -0.00, -1.00, 68659.9, 148.6)"></text><text xml:space="preserve" font-family="LastResort,LastResort" font-size="240.0" fill="#E2E2E2" transform="matrix(1.00, 0.00, -0.00, -1.00, 68935.3, 148.6)"></text><text xml:space="preserve" font-family="LastResort,LastResort" font-size="240.0" fill="#E2E2E2" transform="matrix(1.00, 0.00, -0.00, -1.00, 69210.7, 148.6)"></text><text xml:space="preserve" font-family="LastResort,LastResort" font-size="240.0" fill="#E2E2E2" transform="matrix(1.00, 0.00, -0.00, -1.00, 69486.1, 148.6)"></text><text xml:space="preserve" font-family="LastResort,LastResort" font-size="240.0" fill="#E2E2E2" transform="matrix(1.00, 0.00, -0.00, -1.00, 69761.4, 148.6)"></text><text xml:space="preserve" font-family="LastResort,LastResort" font-size="240.0" fill="#E2E2E2" transform="matrix(1.00, 0.00, -0.00, -1.00, 70036.8, 148.6)"></text><text xml:space="preserve" font-family="LastResort,LastResort" font-size="240.0" fill="#E2E2E2" transform="matrix(1.00, 0.00, -0.00, -1.00, 70312.2, 148.6)"></text></g></g><g><clipPath id="clip0x6000066a5580"><path d="M 322.3 330.0 L 383.9 330.0 L 383.9 391.5 L 322.3 391.5 Z M 322.3 330.0 "></path></clipPath><g clip-path="url(#clip0x6000066a5580)"><text xml:space="preserve" font-family="Sosa-Regular,Sosa" font-size="40.0" fill="#F6F6F6" transform="matrix(1.00, 0.00, -0.00, -1.00, 333.1, 352.2)">&lt;</text></g></g><g><clipPath id="clip0x6000066a57c0"><path d="M 308.4 43.1 L 370.0 43.1 L 370.0 104.7 L 308.4 104.7 Z M 308.4 43.1 "></path></clipPath><g clip-path="url(#clip0x6000066a57c0)"><text xml:space="preserve" font-family="Sosa-Regular,Sosa" font-size="40.0" fill="#F6F6F6" transform="matrix(1.00, 0.00, -0.00, -1.00, 319.2, 65.4)">@</text></g></g><g><clipPath id="clip0x6000066a5a00"><path d="M 40.3 97.3 L 101.9 97.3 L 101.9 158.8 L 40.3 158.8 Z M 40.3 97.3 "></path></clipPath><g clip-path="url(#clip0x6000066a5a00)"><text xml:space="preserve" font-family="Sosa-Regular,Sosa" font-size="40.0" fill="#F6F6F6" transform="matrix(1.00, 0.00, -0.00, -1.00, 51.1, 119.5)">e</text></g></g><g><clipPath id="clip0x6000066a5c40"><path d="M 55.4 328.9 L 125.5 328.9 L 125.5 390.5 L 55.4 390.5 Z M 55.4 328.9 "></path></clipPath><g clip-path="url(#clip0x6000066a5c40)"><text xml:space="preserve" font-family="Sosa-Regular,Sosa" font-size="40.0" fill="#F6F6F6" transform="matrix(1.00, 0.00, -0.00, -1.00, 70.4, 351.2)">h</text><text xml:space="preserve" font-family="Sosa-Regular,Sosa" font-size="40.0" fill="#F6F6F6" transform="matrix(1.00, 0.00, -0.00, -1.00, 110.4, 351.2)"> </text></g></g></g></svg>