<?xml version="1.0" encoding="UTF-8" standalone="no"?><svg xmlns="http://www.w3.org/2000/svg" xmlns:xlink="http://www.w3.org/1999/xlink" clip-rule="evenodd" stroke-miterlimit="10" viewBox="0 0 493 149"><desc>SVG generated by Keynote</desc><defs></defs><g transform="matrix(1.00, 0.00, -0.00, -1.00, 0.0, 149.0)"><g><clipPath id="clip0x6000076b8fc0"><path d="M 149.7 105.8 L 408.8 105.8 L 408.8 149.8 L 149.7 149.8 Z M 149.7 105.8 "></path></clipPath><g clip-path="url(#clip0x6000076b8fc0)"><text xml:space="preserve" font-family="Helvetica,Helvetica" font-size="26.0" fill="#E2E2E2" transform="matrix(1.00, 0.00, -0.00, -1.00, 156.2, 118.3)">U</text><text xml:space="preserve" font-family="Helvetica,Helvetica" font-size="26.0" fill="#E2E2E2" transform="matrix(1.00, 0.00, -0.00, -1.00, 175.0, 118.3)">N</text><text xml:space="preserve" font-family="Helvetica,Helvetica" font-size="26.0" fill="#E2E2E2" transform="matrix(1.00, 0.00, -0.00, -1.00, 193.7, 118.3)">I</text><text xml:space="preserve" font-family="Helvetica,Helvetica" font-size="26.0" fill="#E2E2E2" transform="matrix(1.00, 0.00, -0.00, -1.00, 201.0, 118.3)">Q</text><text xml:space="preserve" font-family="Helvetica,Helvetica" font-size="26.0" fill="#E2E2E2" transform="matrix(1.00, 0.00, -0.00, -1.00, 221.2, 118.3)">U</text><text xml:space="preserve" font-family="Helvetica,Helvetica" font-size="26.0" fill="#E2E2E2" transform="matrix(1.00, 0.00, -0.00, -1.00, 240.0, 118.3)">E</text><text xml:space="preserve" font-family="Helvetica,Helvetica" font-size="26.0" fill="#E2E2E2" transform="matrix(1.00, 0.00, -0.00, -1.00, 257.3, 118.3)"> </text><text xml:space="preserve" font-family="Helvetica,Helvetica" font-size="26.0" fill="#E2E2E2" transform="matrix(1.00, 0.00, -0.00, -1.00, 264.5, 118.3)">F</text><text xml:space="preserve" font-family="Helvetica,Helvetica" font-size="26.0" fill="#E2E2E2" transform="matrix(1.00, 0.00, -0.00, -1.00, 280.4, 118.3)">E</text><text xml:space="preserve" font-family="Helvetica,Helvetica" font-size="26.0" fill="#E2E2E2" transform="matrix(1.00, 0.00, -0.00, -1.00, 297.7, 118.3)">A</text><text xml:space="preserve" font-family="Helvetica,Helvetica" font-size="26.0" fill="#E2E2E2" transform="matrix(1.00, 0.00, -0.00, -1.00, 313.2, 118.3)">T</text><text xml:space="preserve" font-family="Helvetica,Helvetica" font-size="26.0" fill="#E2E2E2" transform="matrix(1.00, 0.00, -0.00, -1.00, 329.0, 118.3)">U</text><text xml:space="preserve" font-family="Helvetica,Helvetica" font-size="26.0" fill="#E2E2E2" transform="matrix(1.00, 0.00, -0.00, -1.00, 347.8, 118.3)">R</text><text xml:space="preserve" font-family="Helvetica,Helvetica" font-size="26.0" fill="#E2E2E2" transform="matrix(1.00, 0.00, -0.00, -1.00, 366.6, 118.3)">E</text><text xml:space="preserve" font-family="Helvetica,Helvetica" font-size="26.0" fill="#E2E2E2" transform="matrix(1.00, 0.00, -0.00, -1.00, 383.9, 118.3)">S</text></g></g><g><clipPath id="clip0x6000076b9aa0"><path d="M -25.2 -20.6 L 183.1 -20.6 L 183.1 164.1 L -25.2 164.1 Z M -25.2 -20.6 "></path></clipPath><g clip-path="url(#clip0x6000076b9aa0)"><text xml:space="preserve" font-family="Sosa-Regular,Sosa" font-size="120.0" fill="#54C6E1" transform="matrix(1.00, 0.00, -0.00, -1.00, 19.0, 46.2)">&gt;</text><text xml:space="preserve" font-family="Sosa-Regular,Sosa" font-size="120.0" fill="#54C6E1" transform="matrix(1.00, 0.00, -0.00, -1.00, 139.0, 46.2)"> </text></g></g><g><clipPath id="clip0x6000076b9d40"><path d="M 153.9 0.5 L 492.6 0.5 L 492.6 106.5 L 153.9 106.5 Z M 153.9 0.5 "></path></clipPath><g clip-path="url(#clip0x6000076b9d40)"><text xml:space="preserve" font-family="Helvetica,Helvetica" font-size="20.0" fill="#E2E2E2" transform="matrix(1.00, 0.00, -0.00, -1.00, 158.9, 82.1)">L</text><text xml:space="preserve" font-family="Helvetica,Helvetica" font-size="20.0" fill="#E2E2E2" transform="matrix(1.00, 0.00, -0.00, -1.00, 170.0, 82.1)">o</text><text xml:space="preserve" font-family="Helvetica,Helvetica" font-size="20.0" fill="#E2E2E2" transform="matrix(1.00, 0.00, -0.00, -1.00, 181.1, 82.1)">r</text><text xml:space="preserve" font-family="Helvetica,Helvetica" font-size="20.0" fill="#E2E2E2" transform="matrix(1.00, 0.00, -0.00, -1.00, 187.8, 82.1)">e</text><text xml:space="preserve" font-family="Helvetica,Helvetica" font-size="20.0" fill="#E2E2E2" transform="matrix(1.00, 0.00, -0.00, -1.00, 198.9, 82.1)">m</text><text xml:space="preserve" font-family="Helvetica,Helvetica" font-size="20.0" fill="#E2E2E2" transform="matrix(1.00, 0.00, -0.00, -1.00, 215.6, 82.1)"> </text><text xml:space="preserve" font-family="Helvetica,Helvetica" font-size="20.0" fill="#E2E2E2" transform="matrix(1.00, 0.00, -0.00, -1.00, 221.1, 82.1)">i</text><text xml:space="preserve" font-family="Helvetica,Helvetica" font-size="20.0" fill="#E2E2E2" transform="matrix(1.00, 0.00, -0.00, -1.00, 225.6, 82.1)">p</text><text xml:space="preserve" font-family="Helvetica,Helvetica" font-size="20.0" fill="#E2E2E2" transform="matrix(1.00, 0.00, -0.00, -1.00, 236.7, 82.1)">s</text><text xml:space="preserve" font-family="Helvetica,Helvetica" font-size="20.0" fill="#E2E2E2" transform="matrix(1.00, 0.00, -0.00, -1.00, 246.7, 82.1)">u</text><text xml:space="preserve" font-family="Helvetica,Helvetica" font-size="20.0" fill="#E2E2E2" transform="matrix(1.00, 0.00, -0.00, -1.00, 257.8, 82.1)">m</text><text xml:space="preserve" font-family="Helvetica,Helvetica" font-size="20.0" fill="#E2E2E2" transform="matrix(1.00, 0.00, -0.00, -1.00, 274.5, 82.1)"> </text><text xml:space="preserve" font-family="Helvetica,Helvetica" font-size="20.0" fill="#E2E2E2" transform="matrix(1.00, 0.00, -0.00, -1.00, 280.0, 82.1)">d</text><text xml:space="preserve" font-family="Helvetica,Helvetica" font-size="20.0" fill="#E2E2E2" transform="matrix(1.00, 0.00, -0.00, -1.00, 291.2, 82.1)">o</text><text xml:space="preserve" font-family="Helvetica,Helvetica" font-size="20.0" fill="#E2E2E2" transform="matrix(1.00, 0.00, -0.00, -1.00, 302.3, 82.1)">l</text><text xml:space="preserve" font-family="Helvetica,Helvetica" font-size="20.0" fill="#E2E2E2" transform="matrix(1.00, 0.00, -0.00, -1.00, 306.7, 82.1)">o</text><text xml:space="preserve" font-family="Helvetica,Helvetica" font-size="20.0" fill="#E2E2E2" transform="matrix(1.00, 0.00, -0.00, -1.00, 317.9, 82.1)">r</text><text xml:space="preserve" font-family="Helvetica,Helvetica" font-size="20.0" fill="#E2E2E2" transform="matrix(1.00, 0.00, -0.00, -1.00, 324.5, 82.1)"> </text><text xml:space="preserve" font-family="Helvetica,Helvetica" font-size="20.0" fill="#E2E2E2" transform="matrix(1.00, 0.00, -0.00, -1.00, 330.1, 82.1)">s</text><text xml:space="preserve" font-family="Helvetica,Helvetica" font-size="20.0" fill="#E2E2E2" transform="matrix(1.00, 0.00, -0.00, -1.00, 340.1, 82.1)">i</text><text xml:space="preserve" font-family="Helvetica,Helvetica" font-size="20.0" fill="#E2E2E2" transform="matrix(1.00, 0.00, -0.00, -1.00, 344.5, 82.1)">t</text><text xml:space="preserve" font-family="Helvetica,Helvetica" font-size="20.0" fill="#E2E2E2" transform="matrix(1.00, 0.00, -0.00, -1.00, 350.1, 82.1)"> </text><text xml:space="preserve" font-family="Helvetica,Helvetica" font-size="20.0" fill="#E2E2E2" transform="matrix(1.00, 0.00, -0.00, -1.00, 355.6, 82.1)">a</text><text xml:space="preserve" font-family="Helvetica,Helvetica" font-size="20.0" fill="#E2E2E2" transform="matrix(1.00, 0.00, -0.00, -1.00, 366.7, 82.1)">m</text><text xml:space="preserve" font-family="Helvetica,Helvetica" font-size="20.0" fill="#E2E2E2" transform="matrix(1.00, 0.00, -0.00, -1.00, 383.4, 82.1)">e</text><text xml:space="preserve" font-family="Helvetica,Helvetica" font-size="20.0" fill="#E2E2E2" transform="matrix(1.00, 0.00, -0.00, -1.00, 394.5, 82.1)">t</text><text xml:space="preserve" font-family="Helvetica,Helvetica" font-size="20.0" fill="#E2E2E2" transform="matrix(1.00, 0.00, -0.00, -1.00, 400.1, 82.1)">,</text><text xml:space="preserve" font-family="Helvetica,Helvetica" font-size="20.0" fill="#E2E2E2" transform="matrix(1.00, 0.00, -0.00, -1.00, 405.6, 82.1)"> </text><text xml:space="preserve" font-family="Helvetica,Helvetica" font-size="20.0" fill="#E2E2E2" transform="matrix(1.00, 0.00, -0.00, -1.00, 158.9, 58.1)">c</text><text xml:space="preserve" font-family="Helvetica,Helvetica" font-size="20.0" fill="#E2E2E2" transform="matrix(1.00, 0.00, -0.00, -1.00, 168.9, 58.1)">o</text><text xml:space="preserve" font-family="Helvetica,Helvetica" font-size="20.0" fill="#E2E2E2" transform="matrix(1.00, 0.00, -0.00, -1.00, 180.0, 58.1)">n</text><text xml:space="preserve" font-family="Helvetica,Helvetica" font-size="20.0" fill="#E2E2E2" transform="matrix(1.00, 0.00, -0.00, -1.00, 191.1, 58.1)">s</text><text xml:space="preserve" font-family="Helvetica,Helvetica" font-size="20.0" fill="#E2E2E2" transform="matrix(1.00, 0.00, -0.00, -1.00, 201.1, 58.1)">e</text><text xml:space="preserve" font-family="Helvetica,Helvetica" font-size="20.0" fill="#E2E2E2" transform="matrix(1.00, 0.00, -0.00, -1.00, 212.2, 58.1)">c</text><text xml:space="preserve" font-family="Helvetica,Helvetica" font-size="20.0" fill="#E2E2E2" transform="matrix(1.00, 0.00, -0.00, -1.00, 222.2, 58.1)">t</text><text xml:space="preserve" font-family="Helvetica,Helvetica" font-size="20.0" fill="#E2E2E2" transform="matrix(1.00, 0.00, -0.00, -1.00, 227.8, 58.1)">e</text><text xml:space="preserve" font-family="Helvetica,Helvetica" font-size="20.0" fill="#E2E2E2" transform="matrix(1.00, 0.00, -0.00, -1.00, 238.9, 58.1)">t</text><text xml:space="preserve" font-family="Helvetica,Helvetica" font-size="20.0" fill="#E2E2E2" transform="matrix(1.00, 0.00, -0.00, -1.00, 244.5, 58.1)">u</text><text xml:space="preserve" font-family="Helvetica,Helvetica" font-size="20.0" fill="#E2E2E2" transform="matrix(1.00, 0.00, -0.00, -1.00, 255.6, 58.1)">e</text><text xml:space="preserve" font-family="Helvetica,Helvetica" font-size="20.0" fill="#E2E2E2" transform="matrix(1.00, 0.00, -0.00, -1.00, 266.7, 58.1)">r</text><text xml:space="preserve" font-family="Helvetica,Helvetica" font-size="20.0" fill="#E2E2E2" transform="matrix(1.00, 0.00, -0.00, -1.00, 273.4, 58.1)"> </text><text xml:space="preserve" font-family="Helvetica,Helvetica" font-size="20.0" fill="#E2E2E2" transform="matrix(1.00, 0.00, -0.00, -1.00, 278.9, 58.1)">a</text><text xml:space="preserve" font-family="Helvetica,Helvetica" font-size="20.0" fill="#E2E2E2" transform="matrix(1.00, 0.00, -0.00, -1.00, 290.1, 58.1)">d</text><text xml:space="preserve" font-family="Helvetica,Helvetica" font-size="20.0" fill="#E2E2E2" transform="matrix(1.00, 0.00, -0.00, -1.00, 301.2, 58.1)">i</text><text xml:space="preserve" font-family="Helvetica,Helvetica" font-size="20.0" fill="#E2E2E2" transform="matrix(1.00, 0.00, -0.00, -1.00, 305.6, 58.1)">p</text><text xml:space="preserve" font-family="Helvetica,Helvetica" font-size="20.0" fill="#E2E2E2" transform="matrix(1.00, 0.00, -0.00, -1.00, 316.8, 58.1)">i</text><text xml:space="preserve" font-family="Helvetica,Helvetica" font-size="20.0" fill="#E2E2E2" transform="matrix(1.00, 0.00, -0.00, -1.00, 321.2, 58.1)">s</text><text xml:space="preserve" font-family="Helvetica,Helvetica" font-size="20.0" fill="#E2E2E2" transform="matrix(1.00, 0.00, -0.00, -1.00, 331.2, 58.1)">c</text><text xml:space="preserve" font-family="Helvetica,Helvetica" font-size="20.0" fill="#E2E2E2" transform="matrix(1.00, 0.00, -0.00, -1.00, 341.2, 58.1)">i</text><text xml:space="preserve" font-family="Helvetica,Helvetica" font-size="20.0" fill="#E2E2E2" transform="matrix(1.00, 0.00, -0.00, -1.00, 345.7, 58.1)">n</text><text xml:space="preserve" font-family="Helvetica,Helvetica" font-size="20.0" fill="#E2E2E2" transform="matrix(1.00, 0.00, -0.00, -1.00, 356.8, 58.1)">g</text><text xml:space="preserve" font-family="Helvetica,Helvetica" font-size="20.0" fill="#E2E2E2" transform="matrix(1.00, 0.00, -0.00, -1.00, 367.9, 58.1)"> </text><text xml:space="preserve" font-family="Helvetica,Helvetica" font-size="20.0" fill="#E2E2E2" transform="matrix(1.00, 0.00, -0.00, -1.00, 373.5, 58.1)">e</text><text xml:space="preserve" font-family="Helvetica,Helvetica" font-size="20.0" fill="#E2E2E2" transform="matrix(1.00, 0.00, -0.00, -1.00, 384.6, 58.1)">l</text><text xml:space="preserve" font-family="Helvetica,Helvetica" font-size="20.0" fill="#E2E2E2" transform="matrix(1.00, 0.00, -0.00, -1.00, 389.0, 58.1)">i</text><text xml:space="preserve" font-family="Helvetica,Helvetica" font-size="20.0" fill="#E2E2E2" transform="matrix(1.00, 0.00, -0.00, -1.00, 393.5, 58.1)">t</text><text xml:space="preserve" font-family="Helvetica,Helvetica" font-size="20.0" fill="#E2E2E2" transform="matrix(1.00, 0.00, -0.00, -1.00, 399.0, 58.1)">,</text><text xml:space="preserve" font-family="Helvetica,Helvetica" font-size="20.0" fill="#E2E2E2" transform="matrix(1.00, 0.00, -0.00, -1.00, 404.6, 58.1)"> </text><text xml:space="preserve" font-family="Helvetica,Helvetica" font-size="20.0" fill="#E2E2E2" transform="matrix(1.00, 0.00, -0.00, -1.00, 410.1, 58.1)">s</text><text xml:space="preserve" font-family="Helvetica,Helvetica" font-size="20.0" fill="#E2E2E2" transform="matrix(1.00, 0.00, -0.00, -1.00, 420.1, 58.1)">e</text><text xml:space="preserve" font-family="Helvetica,Helvetica" font-size="20.0" fill="#E2E2E2" transform="matrix(1.00, 0.00, -0.00, -1.00, 431.3, 58.1)">d</text><text xml:space="preserve" font-family="Helvetica,Helvetica" font-size="20.0" fill="#E2E2E2" transform="matrix(1.00, 0.00, -0.00, -1.00, 442.4, 58.1)"> </text><text xml:space="preserve" font-family="Helvetica,Helvetica" font-size="20.0" fill="#E2E2E2" transform="matrix(1.00, 0.00, -0.00, -1.00, 158.9, 34.1)">d</text><text xml:space="preserve" font-family="Helvetica,Helvetica" font-size="20.0" fill="#E2E2E2" transform="matrix(1.00, 0.00, -0.00, -1.00, 170.0, 34.1)">i</text><text xml:space="preserve" font-family="Helvetica,Helvetica" font-size="20.0" fill="#E2E2E2" transform="matrix(1.00, 0.00, -0.00, -1.00, 174.4, 34.1)">a</text><text xml:space="preserve" font-family="Helvetica,Helvetica" font-size="20.0" fill="#E2E2E2" transform="matrix(1.00, 0.00, -0.00, -1.00, 185.6, 34.1)">m</text><text xml:space="preserve" font-family="Helvetica,Helvetica" font-size="20.0" fill="#E2E2E2" transform="matrix(1.00, 0.00, -0.00, -1.00, 202.2, 34.1)"> </text><text xml:space="preserve" font-family="Helvetica,Helvetica" font-size="20.0" fill="#E2E2E2" transform="matrix(1.00, 0.00, -0.00, -1.00, 207.8, 34.1)">n</text><text xml:space="preserve" font-family="Helvetica,Helvetica" font-size="20.0" fill="#E2E2E2" transform="matrix(1.00, 0.00, -0.00, -1.00, 218.9, 34.1)">o</text><text xml:space="preserve" font-family="Helvetica,Helvetica" font-size="20.0" fill="#E2E2E2" transform="matrix(1.00, 0.00, -0.00, -1.00, 230.0, 34.1)">n</text><text xml:space="preserve" font-family="Helvetica,Helvetica" font-size="20.0" fill="#E2E2E2" transform="matrix(1.00, 0.00, -0.00, -1.00, 241.2, 34.1)">u</text><text xml:space="preserve" font-family="Helvetica,Helvetica" font-size="20.0" fill="#E2E2E2" transform="matrix(1.00, 0.00, -0.00, -1.00, 252.3, 34.1)">m</text><text xml:space="preserve" font-family="Helvetica,Helvetica" font-size="20.0" fill="#E2E2E2" transform="matrix(1.00, 0.00, -0.00, -1.00, 268.9, 34.1)">m</text><text xml:space="preserve" font-family="Helvetica,Helvetica" font-size="20.0" fill="#E2E2E2" transform="matrix(1.00, 0.00, -0.00, -1.00, 285.6, 34.1)">y</text><text xml:space="preserve" font-family="Helvetica,Helvetica" font-size="20.0" fill="#E2E2E2" transform="matrix(1.00, 0.00, -0.00, -1.00, 295.6, 34.1)"> </text><text xml:space="preserve" font-family="Helvetica,Helvetica" font-size="20.0" fill="#E2E2E2" transform="matrix(1.00, 0.00, -0.00, -1.00, 301.2, 34.1)">n</text><text xml:space="preserve" font-family="Helvetica,Helvetica" font-size="20.0" fill="#E2E2E2" transform="matrix(1.00, 0.00, -0.00, -1.00, 312.3, 34.1)">i</text><text xml:space="preserve" font-family="Helvetica,Helvetica" font-size="20.0" fill="#E2E2E2" transform="matrix(1.00, 0.00, -0.00, -1.00, 316.7, 34.1)">b</text><text xml:space="preserve" font-family="Helvetica,Helvetica" font-size="20.0" fill="#E2E2E2" transform="matrix(1.00, 0.00, -0.00, -1.00, 327.9, 34.1)">h</text><text xml:space="preserve" font-family="Helvetica,Helvetica" font-size="20.0" fill="#E2E2E2" transform="matrix(1.00, 0.00, -0.00, -1.00, 339.0, 34.1)"> </text><text xml:space="preserve" font-family="Helvetica,Helvetica" font-size="20.0" fill="#E2E2E2" transform="matrix(1.00, 0.00, -0.00, -1.00, 344.5, 34.1)">e</text><text xml:space="preserve" font-family="Helvetica,Helvetica" font-size="20.0" fill="#E2E2E2" transform="matrix(1.00, 0.00, -0.00, -1.00, 355.7, 34.1)">u</text><text xml:space="preserve" font-family="Helvetica,Helvetica" font-size="20.0" fill="#E2E2E2" transform="matrix(1.00, 0.00, -0.00, -1.00, 366.8, 34.1)">i</text><text xml:space="preserve" font-family="Helvetica,Helvetica" font-size="20.0" fill="#E2E2E2" transform="matrix(1.00, 0.00, -0.00, -1.00, 371.2, 34.1)">s</text><text xml:space="preserve" font-family="Helvetica,Helvetica" font-size="20.0" fill="#E2E2E2" transform="matrix(1.00, 0.00, -0.00, -1.00, 381.2, 34.1)">m</text><text xml:space="preserve" font-family="Helvetica,Helvetica" font-size="20.0" fill="#E2E2E2" transform="matrix(1.00, 0.00, -0.00, -1.00, 397.9, 34.1)">o</text><text xml:space="preserve" font-family="Helvetica,Helvetica" font-size="20.0" fill="#E2E2E2" transform="matrix(1.00, 0.00, -0.00, -1.00, 409.0, 34.1)">d</text><text xml:space="preserve" font-family="Helvetica,Helvetica" font-size="20.0" fill="#E2E2E2" transform="matrix(1.00, 0.00, -0.00, -1.00, 420.1, 34.1)"> </text><text xml:space="preserve" font-family="Helvetica,Helvetica" font-size="20.0" fill="#E2E2E2" transform="matrix(1.00, 0.00, -0.00, -1.00, 158.9, 10.1)">t</text><text xml:space="preserve" font-family="Helvetica,Helvetica" font-size="20.0" fill="#E2E2E2" transform="matrix(1.00, 0.00, -0.00, -1.00, 164.4, 10.1)">i</text><text xml:space="preserve" font-family="Helvetica,Helvetica" font-size="20.0" fill="#E2E2E2" transform="matrix(1.00, 0.00, -0.00, -1.00, 168.9, 10.1)">n</text><text xml:space="preserve" font-family="Helvetica,Helvetica" font-size="20.0" fill="#E2E2E2" transform="matrix(1.00, 0.00, -0.00, -1.00, 180.0, 10.1)">c</text><text xml:space="preserve" font-family="Helvetica,Helvetica" font-size="20.0" fill="#E2E2E2" transform="matrix(1.00, 0.00, -0.00, -1.00, 190.0, 10.1)">i</text><text xml:space="preserve" font-family="Helvetica,Helvetica" font-size="20.0" fill="#E2E2E2" transform="matrix(1.00, 0.00, -0.00, -1.00, 194.4, 10.1)">d</text><text xml:space="preserve" font-family="Helvetica,Helvetica" font-size="20.0" fill="#E2E2E2" transform="matrix(1.00, 0.00, -0.00, -1.00, 205.6, 10.1)">u</text><text xml:space="preserve" font-family="Helvetica,Helvetica" font-size="20.0" fill="#E2E2E2" transform="matrix(1.00, 0.00, -0.00, -1.00, 216.7, 10.1)">n</text><text xml:space="preserve" font-family="Helvetica,Helvetica" font-size="20.0" fill="#E2E2E2" transform="matrix(1.00, 0.00, -0.00, -1.00, 227.8, 10.1)">t</text><text xml:space="preserve" font-family="Helvetica,Helvetica" font-size="20.0" fill="#E2E2E2" transform="matrix(1.00, 0.00, -0.00, -1.00, 233.4, 10.1)"> </text><text xml:space="preserve" font-family="Helvetica,Helvetica" font-size="20.0" fill="#E2E2E2" transform="matrix(1.00, 0.00, -0.00, -1.00, 238.9, 10.1)">u</text><text xml:space="preserve" font-family="Helvetica,Helvetica" font-size="20.0" fill="#E2E2E2" transform="matrix(1.00, 0.00, -0.00, -1.00, 250.0, 10.1)">t</text><text xml:space="preserve" font-family="Helvetica,Helvetica" font-size="20.0" fill="#E2E2E2" transform="matrix(1.00, 0.00, -0.00, -1.00, 255.6, 10.1)"> </text><text xml:space="preserve" font-family="Helvetica,Helvetica" font-size="20.0" fill="#E2E2E2" transform="matrix(1.00, 0.00, -0.00, -1.00, 261.2, 10.1)">l</text><text xml:space="preserve" font-family="Helvetica,Helvetica" font-size="20.0" fill="#E2E2E2" transform="matrix(1.00, 0.00, -0.00, -1.00, 265.6, 10.1)">a</text><text xml:space="preserve" font-family="Helvetica,Helvetica" font-size="20.0" fill="#E2E2E2" transform="matrix(1.00, 0.00, -0.00, -1.00, 276.7, 10.1)">o</text><text xml:space="preserve" font-family="Helvetica,Helvetica" font-size="20.0" fill="#E2E2E2" transform="matrix(1.00, 0.00, -0.00, -1.00, 287.9, 10.1)">r</text><text xml:space="preserve" font-family="Helvetica,Helvetica" font-size="20.0" fill="#E2E2E2" transform="matrix(1.00, 0.00, -0.00, -1.00, 294.5, 10.1)">e</text><text xml:space="preserve" font-family="Helvetica,Helvetica" font-size="20.0" fill="#E2E2E2" transform="matrix(1.00, 0.00, -0.00, -1.00, 305.6, 10.1)">e</text><text xml:space="preserve" font-family="Helvetica,Helvetica" font-size="20.0" fill="#E2E2E2" transform="matrix(1.00, 0.00, -0.00, -1.00, 316.8, 10.1)">t</text><text xml:space="preserve" font-family="Helvetica,Helvetica" font-size="20.0" fill="#E2E2E2" transform="matrix(1.00, 0.00, -0.00, -1.00, 322.3, 10.1)"> </text><text xml:space="preserve" font-family="Helvetica,Helvetica" font-size="20.0" fill="#E2E2E2" transform="matrix(1.00, 0.00, -0.00, -1.00, 327.9, 10.1)">d</text><text xml:space="preserve" font-family="Helvetica,Helvetica" font-size="20.0" fill="#E2E2E2" transform="matrix(1.00, 0.00, -0.00, -1.00, 339.0, 10.1)">o</text><text xml:space="preserve" font-family="Helvetica,Helvetica" font-size="20.0" fill="#E2E2E2" transform="matrix(1.00, 0.00, -0.00, -1.00, 350.1, 10.1)">l</text><text xml:space="preserve" font-family="Helvetica,Helvetica" font-size="20.0" fill="#E2E2E2" transform="matrix(1.00, 0.00, -0.00, -1.00, 354.6, 10.1)">o</text><text xml:space="preserve" font-family="Helvetica,Helvetica" font-size="20.0" fill="#E2E2E2" transform="matrix(1.00, 0.00, -0.00, -1.00, 365.7, 10.1)">r</text><text xml:space="preserve" font-family="Helvetica,Helvetica" font-size="20.0" fill="#E2E2E2" transform="matrix(1.00, 0.00, -0.00, -1.00, 372.4, 10.1)">e</text><text xml:space="preserve" font-family="Helvetica,Helvetica" font-size="20.0" fill="#E2E2E2" transform="matrix(1.00, 0.00, -0.00, -1.00, 383.5, 10.1)"> </text><text xml:space="preserve" font-family="Helvetica,Helvetica" font-size="20.0" fill="#E2E2E2" transform="matrix(1.00, 0.00, -0.00, -1.00, 389.0, 10.1)">m</text><text xml:space="preserve" font-family="Helvetica,Helvetica" font-size="20.0" fill="#E2E2E2" transform="matrix(1.00, 0.00, -0.00, -1.00, 405.7, 10.1)">a</text><text xml:space="preserve" font-family="Helvetica,Helvetica" font-size="20.0" fill="#E2E2E2" transform="matrix(1.00, 0.00, -0.00, -1.00, 416.8, 10.1)">g</text><text xml:space="preserve" font-family="Helvetica,Helvetica" font-size="20.0" fill="#E2E2E2" transform="matrix(1.00, 0.00, -0.00, -1.00, 428.0, 10.1)">n</text><text xml:space="preserve" font-family="Helvetica,Helvetica" font-size="20.0" fill="#E2E2E2" transform="matrix(1.00, 0.00, -0.00, -1.00, 439.1, 10.1)">a</text></g></g></g></svg>