<?xml version="1.0" encoding="UTF-8" standalone="no"?><svg xmlns="http://www.w3.org/2000/svg" xmlns:xlink="http://www.w3.org/1999/xlink" clip-rule="evenodd" stroke-miterlimit="10" viewBox="0 0 483 388"><desc>SVG generated by Keynote</desc><defs></defs><g transform="matrix(1.00, 0.00, -0.00, -1.00, 0.0, 388.0)"><g><clipPath id="clip0x600005cb19a0"><path d="M 0.1 0.8 L 482.2 0.8 L 482.2 387.5 L 0.1 387.5 Z M 0.1 0.8 "></path></clipPath><g clip-path="url(#clip0x600005cb19a0)"><path d="M 1.0 386.0 L 481.0 386.0 L 481.0 2.0 L 1.0 2.0 Z M 1.1 386.5 " fill="#54C6E1"></path></g></g><g><clipPath id="clip0x600005cb20c0"><path d="M 135.9 261.9 L 346.7 261.9 L 346.7 315.9 L 135.9 315.9 Z M 135.9 261.9 "></path></clipPath><g clip-path="url(#clip0x600005cb20c0)"><text xml:space="preserve" font-family="Helvetica,Helvetica" font-size="32.0" fill="#F6F6F6" transform="matrix(1.00, 0.00, -0.00, -1.00, 144.4, 277.2)">P</text><text xml:space="preserve" font-family="Helvetica,Helvetica" font-size="32.0" fill="#F6F6F6" transform="matrix(1.00, 0.00, -0.00, -1.00, 165.7, 277.2)">r</text><text xml:space="preserve" font-family="Helvetica,Helvetica" font-size="32.0" fill="#F6F6F6" transform="matrix(1.00, 0.00, -0.00, -1.00, 176.4, 277.2)">o</text><text xml:space="preserve" font-family="Helvetica,Helvetica" font-size="32.0" fill="#F6F6F6" transform="matrix(1.00, 0.00, -0.00, -1.00, 194.2, 277.2)">j</text><text xml:space="preserve" font-family="Helvetica,Helvetica" font-size="32.0" fill="#F6F6F6" transform="matrix(1.00, 0.00, -0.00, -1.00, 201.3, 277.2)">e</text><text xml:space="preserve" font-family="Helvetica,Helvetica" font-size="32.0" fill="#F6F6F6" transform="matrix(1.00, 0.00, -0.00, -1.00, 219.1, 277.2)">c</text><text xml:space="preserve" font-family="Helvetica,Helvetica" font-size="32.0" fill="#F6F6F6" transform="matrix(1.00, 0.00, -0.00, -1.00, 235.1, 277.2)">t</text><text xml:space="preserve" font-family="Helvetica,Helvetica" font-size="32.0" fill="#F6F6F6" transform="matrix(1.00, 0.00, -0.00, -1.00, 244.0, 277.2)"> </text><text xml:space="preserve" font-family="Helvetica,Helvetica" font-size="32.0" fill="#F6F6F6" transform="matrix(1.00, 0.00, -0.00, -1.00, 252.3, 277.2)">T</text><text xml:space="preserve" font-family="Helvetica,Helvetica" font-size="32.0" fill="#F6F6F6" transform="matrix(1.00, 0.00, -0.00, -1.00, 270.7, 277.2)">i</text><text xml:space="preserve" font-family="Helvetica,Helvetica" font-size="32.0" fill="#F6F6F6" transform="matrix(1.00, 0.00, -0.00, -1.00, 277.8, 277.2)">t</text><text xml:space="preserve" font-family="Helvetica,Helvetica" font-size="32.0" fill="#F6F6F6" transform="matrix(1.00, 0.00, -0.00, -1.00, 286.7, 277.2)">l</text><text xml:space="preserve" font-family="Helvetica,Helvetica" font-size="32.0" fill="#F6F6F6" transform="matrix(1.00, 0.00, -0.00, -1.00, 293.8, 277.2)">e</text><text xml:space="preserve" font-family="Helvetica,Helvetica" font-size="32.0" fill="#F6F6F6" transform="matrix(1.00, 0.00, -0.00, -1.00, 311.6, 277.2)"> </text><text xml:space="preserve" font-family="Helvetica,Helvetica" font-size="32.0" fill="#F6F6F6" transform="matrix(1.00, 0.00, -0.00, -1.00, 320.5, 277.2)">2</text></g></g><g><clipPath id="clip0x600005cb2840"><path d="M 40.1 68.9 L 442.5 68.9 L 442.5 261.9 L 40.1 261.9 Z M 40.1 68.9 "></path></clipPath><g clip-path="url(#clip0x600005cb2840)"><text xml:space="preserve" font-family="Helvetica,Helvetica" font-size="22.0" fill="#F6F6F6" transform="matrix(1.00, 0.00, -0.00, -1.00, 73.2, 235.5)">L</text><text xml:space="preserve" font-family="Helvetica,Helvetica" font-size="22.0" fill="#F6F6F6" transform="matrix(1.00, 0.00, -0.00, -1.00, 85.4, 235.5)">o</text><text xml:space="preserve" font-family="Helvetica,Helvetica" font-size="22.0" fill="#F6F6F6" transform="matrix(1.00, 0.00, -0.00, -1.00, 97.7, 235.5)">r</text><text xml:space="preserve" font-family="Helvetica,Helvetica" font-size="22.0" fill="#F6F6F6" transform="matrix(1.00, 0.00, -0.00, -1.00, 105.0, 235.5)">e</text><text xml:space="preserve" font-family="Helvetica,Helvetica" font-size="22.0" fill="#F6F6F6" transform="matrix(1.00, 0.00, -0.00, -1.00, 117.2, 235.5)">m</text><text xml:space="preserve" font-family="Helvetica,Helvetica" font-size="22.0" fill="#F6F6F6" transform="matrix(1.00, 0.00, -0.00, -1.00, 135.5, 235.5)"> </text><text xml:space="preserve" font-family="Helvetica,Helvetica" font-size="22.0" fill="#F6F6F6" transform="matrix(1.00, 0.00, -0.00, -1.00, 141.7, 235.5)">i</text><text xml:space="preserve" font-family="Helvetica,Helvetica" font-size="22.0" fill="#F6F6F6" transform="matrix(1.00, 0.00, -0.00, -1.00, 146.5, 235.5)">p</text><text xml:space="preserve" font-family="Helvetica,Helvetica" font-size="22.0" fill="#F6F6F6" transform="matrix(1.00, 0.00, -0.00, -1.00, 158.8, 235.5)">s</text><text xml:space="preserve" font-family="Helvetica,Helvetica" font-size="22.0" fill="#F6F6F6" transform="matrix(1.00, 0.00, -0.00, -1.00, 169.8, 235.5)">u</text><text xml:space="preserve" font-family="Helvetica,Helvetica" font-size="22.0" fill="#F6F6F6" transform="matrix(1.00, 0.00, -0.00, -1.00, 182.0, 235.5)">m</text><text xml:space="preserve" font-family="Helvetica,Helvetica" font-size="22.0" fill="#F6F6F6" transform="matrix(1.00, 0.00, -0.00, -1.00, 200.4, 235.5)"> </text><text xml:space="preserve" font-family="Helvetica,Helvetica" font-size="22.0" fill="#F6F6F6" transform="matrix(1.00, 0.00, -0.00, -1.00, 206.5, 235.5)">d</text><text xml:space="preserve" font-family="Helvetica,Helvetica" font-size="22.0" fill="#F6F6F6" transform="matrix(1.00, 0.00, -0.00, -1.00, 218.7, 235.5)">o</text><text xml:space="preserve" font-family="Helvetica,Helvetica" font-size="22.0" fill="#F6F6F6" transform="matrix(1.00, 0.00, -0.00, -1.00, 230.9, 235.5)">l</text><text xml:space="preserve" font-family="Helvetica,Helvetica" font-size="22.0" fill="#F6F6F6" transform="matrix(1.00, 0.00, -0.00, -1.00, 235.8, 235.5)">o</text><text xml:space="preserve" font-family="Helvetica,Helvetica" font-size="22.0" fill="#F6F6F6" transform="matrix(1.00, 0.00, -0.00, -1.00, 248.1, 235.5)">r</text><text xml:space="preserve" font-family="Helvetica,Helvetica" font-size="22.0" fill="#F6F6F6" transform="matrix(1.00, 0.00, -0.00, -1.00, 255.4, 235.5)"> </text><text xml:space="preserve" font-family="Helvetica,Helvetica" font-size="22.0" fill="#F6F6F6" transform="matrix(1.00, 0.00, -0.00, -1.00, 261.5, 235.5)">s</text><text xml:space="preserve" font-family="Helvetica,Helvetica" font-size="22.0" fill="#F6F6F6" transform="matrix(1.00, 0.00, -0.00, -1.00, 272.5, 235.5)">i</text><text xml:space="preserve" font-family="Helvetica,Helvetica" font-size="22.0" fill="#F6F6F6" transform="matrix(1.00, 0.00, -0.00, -1.00, 277.4, 235.5)">t</text><text xml:space="preserve" font-family="Helvetica,Helvetica" font-size="22.0" fill="#F6F6F6" transform="matrix(1.00, 0.00, -0.00, -1.00, 283.5, 235.5)"> </text><text xml:space="preserve" font-family="Helvetica,Helvetica" font-size="22.0" fill="#F6F6F6" transform="matrix(1.00, 0.00, -0.00, -1.00, 289.6, 235.5)">a</text><text xml:space="preserve" font-family="Helvetica,Helvetica" font-size="22.0" fill="#F6F6F6" transform="matrix(1.00, 0.00, -0.00, -1.00, 301.9, 235.5)">m</text><text xml:space="preserve" font-family="Helvetica,Helvetica" font-size="22.0" fill="#F6F6F6" transform="matrix(1.00, 0.00, -0.00, -1.00, 320.2, 235.5)">e</text><text xml:space="preserve" font-family="Helvetica,Helvetica" font-size="22.0" fill="#F6F6F6" transform="matrix(1.00, 0.00, -0.00, -1.00, 332.4, 235.5)">t</text><text xml:space="preserve" font-family="Helvetica,Helvetica" font-size="22.0" fill="#F6F6F6" transform="matrix(1.00, 0.00, -0.00, -1.00, 338.5, 235.5)">,</text><text xml:space="preserve" font-family="Helvetica,Helvetica" font-size="22.0" fill="#F6F6F6" transform="matrix(1.00, 0.00, -0.00, -1.00, 344.6, 235.5)"> </text><text xml:space="preserve" font-family="Helvetica,Helvetica" font-size="22.0" fill="#F6F6F6" transform="matrix(1.00, 0.00, -0.00, -1.00, 350.7, 235.5)">c</text><text xml:space="preserve" font-family="Helvetica,Helvetica" font-size="22.0" fill="#F6F6F6" transform="matrix(1.00, 0.00, -0.00, -1.00, 361.7, 235.5)">o</text><text xml:space="preserve" font-family="Helvetica,Helvetica" font-size="22.0" fill="#F6F6F6" transform="matrix(1.00, 0.00, -0.00, -1.00, 374.0, 235.5)">n</text><text xml:space="preserve" font-family="Helvetica,Helvetica" font-size="22.0" fill="#F6F6F6" transform="matrix(1.00, 0.00, -0.00, -1.00, 386.2, 235.5)">s</text><text xml:space="preserve" font-family="Helvetica,Helvetica" font-size="22.0" fill="#F6F6F6" transform="matrix(1.00, 0.00, -0.00, -1.00, 397.2, 235.5)">e</text><text xml:space="preserve" font-family="Helvetica,Helvetica" font-size="22.0" fill="#F6F6F6" transform="matrix(1.00, 0.00, -0.00, -1.00, 409.5, 235.5)"> </text><text xml:space="preserve" font-family="Helvetica,Helvetica" font-size="22.0" fill="#F6F6F6" transform="matrix(1.00, 0.00, -0.00, -1.00, 49.3, 209.5)">a</text><text xml:space="preserve" font-family="Helvetica,Helvetica" font-size="22.0" fill="#F6F6F6" transform="matrix(1.00, 0.00, -0.00, -1.00, 61.6, 209.5)">d</text><text xml:space="preserve" font-family="Helvetica,Helvetica" font-size="22.0" fill="#F6F6F6" transform="matrix(1.00, 0.00, -0.00, -1.00, 73.8, 209.5)">i</text><text xml:space="preserve" font-family="Helvetica,Helvetica" font-size="22.0" fill="#F6F6F6" transform="matrix(1.00, 0.00, -0.00, -1.00, 78.7, 209.5)">p</text><text xml:space="preserve" font-family="Helvetica,Helvetica" font-size="22.0" fill="#F6F6F6" transform="matrix(1.00, 0.00, -0.00, -1.00, 90.9, 209.5)">i</text><text xml:space="preserve" font-family="Helvetica,Helvetica" font-size="22.0" fill="#F6F6F6" transform="matrix(1.00, 0.00, -0.00, -1.00, 95.8, 209.5)">s</text><text xml:space="preserve" font-family="Helvetica,Helvetica" font-size="22.0" fill="#F6F6F6" transform="matrix(1.00, 0.00, -0.00, -1.00, 106.8, 209.5)">c</text><text xml:space="preserve" font-family="Helvetica,Helvetica" font-size="22.0" fill="#F6F6F6" transform="matrix(1.00, 0.00, -0.00, -1.00, 117.8, 209.5)">i</text><text xml:space="preserve" font-family="Helvetica,Helvetica" font-size="22.0" fill="#F6F6F6" transform="matrix(1.00, 0.00, -0.00, -1.00, 122.7, 209.5)">n</text><text xml:space="preserve" font-family="Helvetica,Helvetica" font-size="22.0" fill="#F6F6F6" transform="matrix(1.00, 0.00, -0.00, -1.00, 134.9, 209.5)">g</text><text xml:space="preserve" font-family="Helvetica,Helvetica" font-size="22.0" fill="#F6F6F6" transform="matrix(1.00, 0.00, -0.00, -1.00, 147.2, 209.5)"> </text><text xml:space="preserve" font-family="Helvetica,Helvetica" font-size="22.0" fill="#F6F6F6" transform="matrix(1.00, 0.00, -0.00, -1.00, 153.3, 209.5)">e</text><text xml:space="preserve" font-family="Helvetica,Helvetica" font-size="22.0" fill="#F6F6F6" transform="matrix(1.00, 0.00, -0.00, -1.00, 165.5, 209.5)">l</text><text xml:space="preserve" font-family="Helvetica,Helvetica" font-size="22.0" fill="#F6F6F6" transform="matrix(1.00, 0.00, -0.00, -1.00, 170.4, 209.5)">i</text><text xml:space="preserve" font-family="Helvetica,Helvetica" font-size="22.0" fill="#F6F6F6" transform="matrix(1.00, 0.00, -0.00, -1.00, 175.3, 209.5)">t</text><text xml:space="preserve" font-family="Helvetica,Helvetica" font-size="22.0" fill="#F6F6F6" transform="matrix(1.00, 0.00, -0.00, -1.00, 181.4, 209.5)">,</text><text xml:space="preserve" font-family="Helvetica,Helvetica" font-size="22.0" fill="#F6F6F6" transform="matrix(1.00, 0.00, -0.00, -1.00, 187.5, 209.5)"> </text><text xml:space="preserve" font-family="Helvetica,Helvetica" font-size="22.0" fill="#F6F6F6" transform="matrix(1.00, 0.00, -0.00, -1.00, 193.6, 209.5)">s</text><text xml:space="preserve" font-family="Helvetica,Helvetica" font-size="22.0" fill="#F6F6F6" transform="matrix(1.00, 0.00, -0.00, -1.00, 204.6, 209.5)">e</text><text xml:space="preserve" font-family="Helvetica,Helvetica" font-size="22.0" fill="#F6F6F6" transform="matrix(1.00, 0.00, -0.00, -1.00, 216.9, 209.5)">d</text><text xml:space="preserve" font-family="Helvetica,Helvetica" font-size="22.0" fill="#F6F6F6" transform="matrix(1.00, 0.00, -0.00, -1.00, 229.1, 209.5)"> </text><text xml:space="preserve" font-family="Helvetica,Helvetica" font-size="22.0" fill="#F6F6F6" transform="matrix(1.00, 0.00, -0.00, -1.00, 235.2, 209.5)">d</text><text xml:space="preserve" font-family="Helvetica,Helvetica" font-size="22.0" fill="#F6F6F6" transform="matrix(1.00, 0.00, -0.00, -1.00, 247.5, 209.5)">i</text><text xml:space="preserve" font-family="Helvetica,Helvetica" font-size="22.0" fill="#F6F6F6" transform="matrix(1.00, 0.00, -0.00, -1.00, 252.4, 209.5)">a</text><text xml:space="preserve" font-family="Helvetica,Helvetica" font-size="22.0" fill="#F6F6F6" transform="matrix(1.00, 0.00, -0.00, -1.00, 264.6, 209.5)">m</text><text xml:space="preserve" font-family="Helvetica,Helvetica" font-size="22.0" fill="#F6F6F6" transform="matrix(1.00, 0.00, -0.00, -1.00, 282.9, 209.5)"> </text><text xml:space="preserve" font-family="Helvetica,Helvetica" font-size="22.0" fill="#F6F6F6" transform="matrix(1.00, 0.00, -0.00, -1.00, 289.0, 209.5)">n</text><text xml:space="preserve" font-family="Helvetica,Helvetica" font-size="22.0" fill="#F6F6F6" transform="matrix(1.00, 0.00, -0.00, -1.00, 301.3, 209.5)">o</text><text xml:space="preserve" font-family="Helvetica,Helvetica" font-size="22.0" fill="#F6F6F6" transform="matrix(1.00, 0.00, -0.00, -1.00, 313.5, 209.5)">n</text><text xml:space="preserve" font-family="Helvetica,Helvetica" font-size="22.0" fill="#F6F6F6" transform="matrix(1.00, 0.00, -0.00, -1.00, 325.8, 209.5)">u</text><text xml:space="preserve" font-family="Helvetica,Helvetica" font-size="22.0" fill="#F6F6F6" transform="matrix(1.00, 0.00, -0.00, -1.00, 338.0, 209.5)">m</text><text xml:space="preserve" font-family="Helvetica,Helvetica" font-size="22.0" fill="#F6F6F6" transform="matrix(1.00, 0.00, -0.00, -1.00, 356.3, 209.5)">m</text><text xml:space="preserve" font-family="Helvetica,Helvetica" font-size="22.0" fill="#F6F6F6" transform="matrix(1.00, 0.00, -0.00, -1.00, 374.6, 209.5)">y</text><text xml:space="preserve" font-family="Helvetica,Helvetica" font-size="22.0" fill="#F6F6F6" transform="matrix(1.00, 0.00, -0.00, -1.00, 385.6, 209.5)"> </text><text xml:space="preserve" font-family="Helvetica,Helvetica" font-size="22.0" fill="#F6F6F6" transform="matrix(1.00, 0.00, -0.00, -1.00, 391.8, 209.5)">n</text><text xml:space="preserve" font-family="Helvetica,Helvetica" font-size="22.0" fill="#F6F6F6" transform="matrix(1.00, 0.00, -0.00, -1.00, 404.0, 209.5)">i</text><text xml:space="preserve" font-family="Helvetica,Helvetica" font-size="22.0" fill="#F6F6F6" transform="matrix(1.00, 0.00, -0.00, -1.00, 408.9, 209.5)">b</text><text xml:space="preserve" font-family="Helvetica,Helvetica" font-size="22.0" fill="#F6F6F6" transform="matrix(1.00, 0.00, -0.00, -1.00, 421.1, 209.5)">h</text><text xml:space="preserve" font-family="Helvetica,Helvetica" font-size="22.0" fill="#F6F6F6" transform="matrix(1.00, 0.00, -0.00, -1.00, 433.4, 209.5)"> </text><text xml:space="preserve" font-family="Helvetica,Helvetica" font-size="22.0" fill="#F6F6F6" transform="matrix(1.00, 0.00, -0.00, -1.00, 73.1, 183.5)">e</text><text xml:space="preserve" font-family="Helvetica,Helvetica" font-size="22.0" fill="#F6F6F6" transform="matrix(1.00, 0.00, -0.00, -1.00, 85.4, 183.5)">u</text><text xml:space="preserve" font-family="Helvetica,Helvetica" font-size="22.0" fill="#F6F6F6" transform="matrix(1.00, 0.00, -0.00, -1.00, 97.6, 183.5)">i</text><text xml:space="preserve" font-family="Helvetica,Helvetica" font-size="22.0" fill="#F6F6F6" transform="matrix(1.00, 0.00, -0.00, -1.00, 102.5, 183.5)">s</text><text xml:space="preserve" font-family="Helvetica,Helvetica" font-size="22.0" fill="#F6F6F6" transform="matrix(1.00, 0.00, -0.00, -1.00, 113.5, 183.5)">m</text><text xml:space="preserve" font-family="Helvetica,Helvetica" font-size="22.0" fill="#F6F6F6" transform="matrix(1.00, 0.00, -0.00, -1.00, 131.8, 183.5)">o</text><text xml:space="preserve" font-family="Helvetica,Helvetica" font-size="22.0" fill="#F6F6F6" transform="matrix(1.00, 0.00, -0.00, -1.00, 144.1, 183.5)">d</text><text xml:space="preserve" font-family="Helvetica,Helvetica" font-size="22.0" fill="#F6F6F6" transform="matrix(1.00, 0.00, -0.00, -1.00, 156.3, 183.5)"> </text><text xml:space="preserve" font-family="Helvetica,Helvetica" font-size="22.0" fill="#F6F6F6" transform="matrix(1.00, 0.00, -0.00, -1.00, 162.4, 183.5)">t</text><text xml:space="preserve" font-family="Helvetica,Helvetica" font-size="22.0" fill="#F6F6F6" transform="matrix(1.00, 0.00, -0.00, -1.00, 168.5, 183.5)">i</text><text xml:space="preserve" font-family="Helvetica,Helvetica" font-size="22.0" fill="#F6F6F6" transform="matrix(1.00, 0.00, -0.00, -1.00, 173.4, 183.5)">n</text><text xml:space="preserve" font-family="Helvetica,Helvetica" font-size="22.0" fill="#F6F6F6" transform="matrix(1.00, 0.00, -0.00, -1.00, 185.7, 183.5)">c</text><text xml:space="preserve" font-family="Helvetica,Helvetica" font-size="22.0" fill="#F6F6F6" transform="matrix(1.00, 0.00, -0.00, -1.00, 196.7, 183.5)">i</text><text xml:space="preserve" font-family="Helvetica,Helvetica" font-size="22.0" fill="#F6F6F6" transform="matrix(1.00, 0.00, -0.00, -1.00, 201.6, 183.5)">d</text><text xml:space="preserve" font-family="Helvetica,Helvetica" font-size="22.0" fill="#F6F6F6" transform="matrix(1.00, 0.00, -0.00, -1.00, 213.8, 183.5)">u</text><text xml:space="preserve" font-family="Helvetica,Helvetica" font-size="22.0" fill="#F6F6F6" transform="matrix(1.00, 0.00, -0.00, -1.00, 226.0, 183.5)">n</text><text xml:space="preserve" font-family="Helvetica,Helvetica" font-size="22.0" fill="#F6F6F6" transform="matrix(1.00, 0.00, -0.00, -1.00, 238.3, 183.5)">t</text><text xml:space="preserve" font-family="Helvetica,Helvetica" font-size="22.0" fill="#F6F6F6" transform="matrix(1.00, 0.00, -0.00, -1.00, 244.4, 183.5)"> </text><text xml:space="preserve" font-family="Helvetica,Helvetica" font-size="22.0" fill="#F6F6F6" transform="matrix(1.00, 0.00, -0.00, -1.00, 250.5, 183.5)">u</text><text xml:space="preserve" font-family="Helvetica,Helvetica" font-size="22.0" fill="#F6F6F6" transform="matrix(1.00, 0.00, -0.00, -1.00, 262.7, 183.5)">t</text><text xml:space="preserve" font-family="Helvetica,Helvetica" font-size="22.0" fill="#F6F6F6" transform="matrix(1.00, 0.00, -0.00, -1.00, 268.8, 183.5)"> </text><text xml:space="preserve" font-family="Helvetica,Helvetica" font-size="22.0" fill="#F6F6F6" transform="matrix(1.00, 0.00, -0.00, -1.00, 275.0, 183.5)">l</text><text xml:space="preserve" font-family="Helvetica,Helvetica" font-size="22.0" fill="#F6F6F6" transform="matrix(1.00, 0.00, -0.00, -1.00, 279.8, 183.5)">a</text><text xml:space="preserve" font-family="Helvetica,Helvetica" font-size="22.0" fill="#F6F6F6" transform="matrix(1.00, 0.00, -0.00, -1.00, 292.1, 183.5)">o</text><text xml:space="preserve" font-family="Helvetica,Helvetica" font-size="22.0" fill="#F6F6F6" transform="matrix(1.00, 0.00, -0.00, -1.00, 304.3, 183.5)">r</text><text xml:space="preserve" font-family="Helvetica,Helvetica" font-size="22.0" fill="#F6F6F6" transform="matrix(1.00, 0.00, -0.00, -1.00, 311.7, 183.5)">e</text><text xml:space="preserve" font-family="Helvetica,Helvetica" font-size="22.0" fill="#F6F6F6" transform="matrix(1.00, 0.00, -0.00, -1.00, 323.9, 183.5)">e</text><text xml:space="preserve" font-family="Helvetica,Helvetica" font-size="22.0" fill="#F6F6F6" transform="matrix(1.00, 0.00, -0.00, -1.00, 336.1, 183.5)">t</text><text xml:space="preserve" font-family="Helvetica,Helvetica" font-size="22.0" fill="#F6F6F6" transform="matrix(1.00, 0.00, -0.00, -1.00, 342.2, 183.5)"> </text><text xml:space="preserve" font-family="Helvetica,Helvetica" font-size="22.0" fill="#F6F6F6" transform="matrix(1.00, 0.00, -0.00, -1.00, 348.3, 183.5)">d</text><text xml:space="preserve" font-family="Helvetica,Helvetica" font-size="22.0" fill="#F6F6F6" transform="matrix(1.00, 0.00, -0.00, -1.00, 360.6, 183.5)">o</text><text xml:space="preserve" font-family="Helvetica,Helvetica" font-size="22.0" fill="#F6F6F6" transform="matrix(1.00, 0.00, -0.00, -1.00, 372.8, 183.5)">l</text><text xml:space="preserve" font-family="Helvetica,Helvetica" font-size="22.0" fill="#F6F6F6" transform="matrix(1.00, 0.00, -0.00, -1.00, 377.7, 183.5)">o</text><text xml:space="preserve" font-family="Helvetica,Helvetica" font-size="22.0" fill="#F6F6F6" transform="matrix(1.00, 0.00, -0.00, -1.00, 390.0, 183.5)">r</text><text xml:space="preserve" font-family="Helvetica,Helvetica" font-size="22.0" fill="#F6F6F6" transform="matrix(1.00, 0.00, -0.00, -1.00, 397.3, 183.5)">e</text><text xml:space="preserve" font-family="Helvetica,Helvetica" font-size="22.0" fill="#F6F6F6" transform="matrix(1.00, 0.00, -0.00, -1.00, 409.5, 183.5)"> </text><text xml:space="preserve" font-family="Helvetica,Helvetica" font-size="22.0" fill="#F6F6F6" transform="matrix(1.00, 0.00, -0.00, -1.00, 64.0, 157.5)">m</text><text xml:space="preserve" font-family="Helvetica,Helvetica" font-size="22.0" fill="#F6F6F6" transform="matrix(1.00, 0.00, -0.00, -1.00, 82.3, 157.5)">a</text><text xml:space="preserve" font-family="Helvetica,Helvetica" font-size="22.0" fill="#F6F6F6" transform="matrix(1.00, 0.00, -0.00, -1.00, 94.6, 157.5)">g</text><text xml:space="preserve" font-family="Helvetica,Helvetica" font-size="22.0" fill="#F6F6F6" transform="matrix(1.00, 0.00, -0.00, -1.00, 106.8, 157.5)">n</text><text xml:space="preserve" font-family="Helvetica,Helvetica" font-size="22.0" fill="#F6F6F6" transform="matrix(1.00, 0.00, -0.00, -1.00, 119.0, 157.5)">a</text><text xml:space="preserve" font-family="Helvetica,Helvetica" font-size="22.0" fill="#F6F6F6" transform="matrix(1.00, 0.00, -0.00, -1.00, 131.3, 157.5)"> </text><text xml:space="preserve" font-family="Helvetica,Helvetica" font-size="22.0" fill="#F6F6F6" transform="matrix(1.00, 0.00, -0.00, -1.00, 137.4, 157.5)">a</text><text xml:space="preserve" font-family="Helvetica,Helvetica" font-size="22.0" fill="#F6F6F6" transform="matrix(1.00, 0.00, -0.00, -1.00, 149.6, 157.5)">l</text><text xml:space="preserve" font-family="Helvetica,Helvetica" font-size="22.0" fill="#F6F6F6" transform="matrix(1.00, 0.00, -0.00, -1.00, 154.5, 157.5)">i</text><text xml:space="preserve" font-family="Helvetica,Helvetica" font-size="22.0" fill="#F6F6F6" transform="matrix(1.00, 0.00, -0.00, -1.00, 159.4, 157.5)">q</text><text xml:space="preserve" font-family="Helvetica,Helvetica" font-size="22.0" fill="#F6F6F6" transform="matrix(1.00, 0.00, -0.00, -1.00, 171.7, 157.5)">u</text><text xml:space="preserve" font-family="Helvetica,Helvetica" font-size="22.0" fill="#F6F6F6" transform="matrix(1.00, 0.00, -0.00, -1.00, 183.9, 157.5)">a</text><text xml:space="preserve" font-family="Helvetica,Helvetica" font-size="22.0" fill="#F6F6F6" transform="matrix(1.00, 0.00, -0.00, -1.00, 196.1, 157.5)">m</text><text xml:space="preserve" font-family="Helvetica,Helvetica" font-size="22.0" fill="#F6F6F6" transform="matrix(1.00, 0.00, -0.00, -1.00, 214.5, 157.5)"> </text><text xml:space="preserve" font-family="Helvetica,Helvetica" font-size="22.0" fill="#F6F6F6" transform="matrix(1.00, 0.00, -0.00, -1.00, 220.6, 157.5)">e</text><text xml:space="preserve" font-family="Helvetica,Helvetica" font-size="22.0" fill="#F6F6F6" transform="matrix(1.00, 0.00, -0.00, -1.00, 232.8, 157.5)">r</text><text xml:space="preserve" font-family="Helvetica,Helvetica" font-size="22.0" fill="#F6F6F6" transform="matrix(1.00, 0.00, -0.00, -1.00, 240.1, 157.5)">a</text><text xml:space="preserve" font-family="Helvetica,Helvetica" font-size="22.0" fill="#F6F6F6" transform="matrix(1.00, 0.00, -0.00, -1.00, 252.4, 157.5)">t</text><text xml:space="preserve" font-family="Helvetica,Helvetica" font-size="22.0" fill="#F6F6F6" transform="matrix(1.00, 0.00, -0.00, -1.00, 258.5, 157.5)"> </text><text xml:space="preserve" font-family="Helvetica,Helvetica" font-size="22.0" fill="#F6F6F6" transform="matrix(1.00, 0.00, -0.00, -1.00, 264.6, 157.5)">v</text><text xml:space="preserve" font-family="Helvetica,Helvetica" font-size="22.0" fill="#F6F6F6" transform="matrix(1.00, 0.00, -0.00, -1.00, 275.6, 157.5)">o</text><text xml:space="preserve" font-family="Helvetica,Helvetica" font-size="22.0" fill="#F6F6F6" transform="matrix(1.00, 0.00, -0.00, -1.00, 287.8, 157.5)">l</text><text xml:space="preserve" font-family="Helvetica,Helvetica" font-size="22.0" fill="#F6F6F6" transform="matrix(1.00, 0.00, -0.00, -1.00, 292.7, 157.5)">u</text><text xml:space="preserve" font-family="Helvetica,Helvetica" font-size="22.0" fill="#F6F6F6" transform="matrix(1.00, 0.00, -0.00, -1.00, 305.0, 157.5)">t</text><text xml:space="preserve" font-family="Helvetica,Helvetica" font-size="22.0" fill="#F6F6F6" transform="matrix(1.00, 0.00, -0.00, -1.00, 311.1, 157.5)">p</text><text xml:space="preserve" font-family="Helvetica,Helvetica" font-size="22.0" fill="#F6F6F6" transform="matrix(1.00, 0.00, -0.00, -1.00, 323.3, 157.5)">a</text><text xml:space="preserve" font-family="Helvetica,Helvetica" font-size="22.0" fill="#F6F6F6" transform="matrix(1.00, 0.00, -0.00, -1.00, 335.5, 157.5)">t</text><text xml:space="preserve" font-family="Helvetica,Helvetica" font-size="22.0" fill="#F6F6F6" transform="matrix(1.00, 0.00, -0.00, -1.00, 341.7, 157.5)">.</text><text xml:space="preserve" font-family="Helvetica,Helvetica" font-size="22.0" fill="#F6F6F6" transform="matrix(1.00, 0.00, -0.00, -1.00, 347.8, 157.5)"> </text><text xml:space="preserve" font-family="Helvetica,Helvetica" font-size="22.0" fill="#F6F6F6" transform="matrix(1.00, 0.00, -0.00, -1.00, 353.9, 157.5)">U</text><text xml:space="preserve" font-family="Helvetica,Helvetica" font-size="22.0" fill="#F6F6F6" transform="matrix(1.00, 0.00, -0.00, -1.00, 369.8, 157.5)">t</text><text xml:space="preserve" font-family="Helvetica,Helvetica" font-size="22.0" fill="#F6F6F6" transform="matrix(1.00, 0.00, -0.00, -1.00, 375.9, 157.5)"> </text><text xml:space="preserve" font-family="Helvetica,Helvetica" font-size="22.0" fill="#F6F6F6" transform="matrix(1.00, 0.00, -0.00, -1.00, 382.0, 157.5)">w</text><text xml:space="preserve" font-family="Helvetica,Helvetica" font-size="22.0" fill="#F6F6F6" transform="matrix(1.00, 0.00, -0.00, -1.00, 397.9, 157.5)">i</text><text xml:space="preserve" font-family="Helvetica,Helvetica" font-size="22.0" fill="#F6F6F6" transform="matrix(1.00, 0.00, -0.00, -1.00, 402.8, 157.5)">s</text><text xml:space="preserve" font-family="Helvetica,Helvetica" font-size="22.0" fill="#F6F6F6" transform="matrix(1.00, 0.00, -0.00, -1.00, 413.8, 157.5)">i</text><text xml:space="preserve" font-family="Helvetica,Helvetica" font-size="22.0" fill="#F6F6F6" transform="matrix(1.00, 0.00, -0.00, -1.00, 418.7, 157.5)"> </text><text xml:space="preserve" font-family="Helvetica,Helvetica" font-size="22.0" fill="#F6F6F6" transform="matrix(1.00, 0.00, -0.00, -1.00, 65.2, 131.5)">e</text><text xml:space="preserve" font-family="Helvetica,Helvetica" font-size="22.0" fill="#F6F6F6" transform="matrix(1.00, 0.00, -0.00, -1.00, 77.5, 131.5)">n</text><text xml:space="preserve" font-family="Helvetica,Helvetica" font-size="22.0" fill="#F6F6F6" transform="matrix(1.00, 0.00, -0.00, -1.00, 89.7, 131.5)">i</text><text xml:space="preserve" font-family="Helvetica,Helvetica" font-size="22.0" fill="#F6F6F6" transform="matrix(1.00, 0.00, -0.00, -1.00, 94.6, 131.5)">m</text><text xml:space="preserve" font-family="Helvetica,Helvetica" font-size="22.0" fill="#F6F6F6" transform="matrix(1.00, 0.00, -0.00, -1.00, 112.9, 131.5)"> </text><text xml:space="preserve" font-family="Helvetica,Helvetica" font-size="22.0" fill="#F6F6F6" transform="matrix(1.00, 0.00, -0.00, -1.00, 119.0, 131.5)">a</text><text xml:space="preserve" font-family="Helvetica,Helvetica" font-size="22.0" fill="#F6F6F6" transform="matrix(1.00, 0.00, -0.00, -1.00, 131.3, 131.5)">d</text><text xml:space="preserve" font-family="Helvetica,Helvetica" font-size="22.0" fill="#F6F6F6" transform="matrix(1.00, 0.00, -0.00, -1.00, 143.5, 131.5)"> </text><text xml:space="preserve" font-family="Helvetica,Helvetica" font-size="22.0" fill="#F6F6F6" transform="matrix(1.00, 0.00, -0.00, -1.00, 149.6, 131.5)">m</text><text xml:space="preserve" font-family="Helvetica,Helvetica" font-size="22.0" fill="#F6F6F6" transform="matrix(1.00, 0.00, -0.00, -1.00, 167.9, 131.5)">i</text><text xml:space="preserve" font-family="Helvetica,Helvetica" font-size="22.0" fill="#F6F6F6" transform="matrix(1.00, 0.00, -0.00, -1.00, 172.8, 131.5)">n</text><text xml:space="preserve" font-family="Helvetica,Helvetica" font-size="22.0" fill="#F6F6F6" transform="matrix(1.00, 0.00, -0.00, -1.00, 185.1, 131.5)">i</text><text xml:space="preserve" font-family="Helvetica,Helvetica" font-size="22.0" fill="#F6F6F6" transform="matrix(1.00, 0.00, -0.00, -1.00, 190.0, 131.5)">m</text><text xml:space="preserve" font-family="Helvetica,Helvetica" font-size="22.0" fill="#F6F6F6" transform="matrix(1.00, 0.00, -0.00, -1.00, 208.3, 131.5)"> </text><text xml:space="preserve" font-family="Helvetica,Helvetica" font-size="22.0" fill="#F6F6F6" transform="matrix(1.00, 0.00, -0.00, -1.00, 214.4, 131.5)">v</text><text xml:space="preserve" font-family="Helvetica,Helvetica" font-size="22.0" fill="#F6F6F6" transform="matrix(1.00, 0.00, -0.00, -1.00, 225.4, 131.5)">e</text><text xml:space="preserve" font-family="Helvetica,Helvetica" font-size="22.0" fill="#F6F6F6" transform="matrix(1.00, 0.00, -0.00, -1.00, 237.6, 131.5)">n</text><text xml:space="preserve" font-family="Helvetica,Helvetica" font-size="22.0" fill="#F6F6F6" transform="matrix(1.00, 0.00, -0.00, -1.00, 249.9, 131.5)">i</text><text xml:space="preserve" font-family="Helvetica,Helvetica" font-size="22.0" fill="#F6F6F6" transform="matrix(1.00, 0.00, -0.00, -1.00, 254.8, 131.5)">a</text><text xml:space="preserve" font-family="Helvetica,Helvetica" font-size="22.0" fill="#F6F6F6" transform="matrix(1.00, 0.00, -0.00, -1.00, 267.0, 131.5)">m</text><text xml:space="preserve" font-family="Helvetica,Helvetica" font-size="22.0" fill="#F6F6F6" transform="matrix(1.00, 0.00, -0.00, -1.00, 285.3, 131.5)">,</text><text xml:space="preserve" font-family="Helvetica,Helvetica" font-size="22.0" fill="#F6F6F6" transform="matrix(1.00, 0.00, -0.00, -1.00, 291.5, 131.5)"> </text><text xml:space="preserve" font-family="Helvetica,Helvetica" font-size="22.0" fill="#F6F6F6" transform="matrix(1.00, 0.00, -0.00, -1.00, 297.6, 131.5)">q</text><text xml:space="preserve" font-family="Helvetica,Helvetica" font-size="22.0" fill="#F6F6F6" transform="matrix(1.00, 0.00, -0.00, -1.00, 309.8, 131.5)">u</text><text xml:space="preserve" font-family="Helvetica,Helvetica" font-size="22.0" fill="#F6F6F6" transform="matrix(1.00, 0.00, -0.00, -1.00, 322.0, 131.5)">i</text><text xml:space="preserve" font-family="Helvetica,Helvetica" font-size="22.0" fill="#F6F6F6" transform="matrix(1.00, 0.00, -0.00, -1.00, 326.9, 131.5)">s</text><text xml:space="preserve" font-family="Helvetica,Helvetica" font-size="22.0" fill="#F6F6F6" transform="matrix(1.00, 0.00, -0.00, -1.00, 337.9, 131.5)"> </text><text xml:space="preserve" font-family="Helvetica,Helvetica" font-size="22.0" fill="#F6F6F6" transform="matrix(1.00, 0.00, -0.00, -1.00, 344.0, 131.5)">n</text><text xml:space="preserve" font-family="Helvetica,Helvetica" font-size="22.0" fill="#F6F6F6" transform="matrix(1.00, 0.00, -0.00, -1.00, 356.3, 131.5)">o</text><text xml:space="preserve" font-family="Helvetica,Helvetica" font-size="22.0" fill="#F6F6F6" transform="matrix(1.00, 0.00, -0.00, -1.00, 368.5, 131.5)">s</text><text xml:space="preserve" font-family="Helvetica,Helvetica" font-size="22.0" fill="#F6F6F6" transform="matrix(1.00, 0.00, -0.00, -1.00, 379.5, 131.5)">t</text><text xml:space="preserve" font-family="Helvetica,Helvetica" font-size="22.0" fill="#F6F6F6" transform="matrix(1.00, 0.00, -0.00, -1.00, 385.6, 131.5)">r</text><text xml:space="preserve" font-family="Helvetica,Helvetica" font-size="22.0" fill="#F6F6F6" transform="matrix(1.00, 0.00, -0.00, -1.00, 393.0, 131.5)">u</text><text xml:space="preserve" font-family="Helvetica,Helvetica" font-size="22.0" fill="#F6F6F6" transform="matrix(1.00, 0.00, -0.00, -1.00, 405.2, 131.5)">d</text><text xml:space="preserve" font-family="Helvetica,Helvetica" font-size="22.0" fill="#F6F6F6" transform="matrix(1.00, 0.00, -0.00, -1.00, 417.4, 131.5)"> </text><text xml:space="preserve" font-family="Helvetica,Helvetica" font-size="22.0" fill="#F6F6F6" transform="matrix(1.00, 0.00, -0.00, -1.00, 81.7, 105.5)">e</text><text xml:space="preserve" font-family="Helvetica,Helvetica" font-size="22.0" fill="#F6F6F6" transform="matrix(1.00, 0.00, -0.00, -1.00, 94.0, 105.5)">x</text><text xml:space="preserve" font-family="Helvetica,Helvetica" font-size="22.0" fill="#F6F6F6" transform="matrix(1.00, 0.00, -0.00, -1.00, 105.0, 105.5)">e</text><text xml:space="preserve" font-family="Helvetica,Helvetica" font-size="22.0" fill="#F6F6F6" transform="matrix(1.00, 0.00, -0.00, -1.00, 117.2, 105.5)">r</text><text xml:space="preserve" font-family="Helvetica,Helvetica" font-size="22.0" fill="#F6F6F6" transform="matrix(1.00, 0.00, -0.00, -1.00, 124.5, 105.5)">c</text><text xml:space="preserve" font-family="Helvetica,Helvetica" font-size="22.0" fill="#F6F6F6" transform="matrix(1.00, 0.00, -0.00, -1.00, 135.5, 105.5)">i</text><text xml:space="preserve" font-family="Helvetica,Helvetica" font-size="22.0" fill="#F6F6F6" transform="matrix(1.00, 0.00, -0.00, -1.00, 140.4, 105.5)"> </text><text xml:space="preserve" font-family="Helvetica,Helvetica" font-size="22.0" fill="#F6F6F6" transform="matrix(1.00, 0.00, -0.00, -1.00, 146.5, 105.5)">t</text><text xml:space="preserve" font-family="Helvetica,Helvetica" font-size="22.0" fill="#F6F6F6" transform="matrix(1.00, 0.00, -0.00, -1.00, 152.7, 105.5)">a</text><text xml:space="preserve" font-family="Helvetica,Helvetica" font-size="22.0" fill="#F6F6F6" transform="matrix(1.00, 0.00, -0.00, -1.00, 164.9, 105.5)">t</text><text xml:space="preserve" font-family="Helvetica,Helvetica" font-size="22.0" fill="#F6F6F6" transform="matrix(1.00, 0.00, -0.00, -1.00, 171.0, 105.5)">i</text><text xml:space="preserve" font-family="Helvetica,Helvetica" font-size="22.0" fill="#F6F6F6" transform="matrix(1.00, 0.00, -0.00, -1.00, 175.9, 105.5)">o</text><text xml:space="preserve" font-family="Helvetica,Helvetica" font-size="22.0" fill="#F6F6F6" transform="matrix(1.00, 0.00, -0.00, -1.00, 188.1, 105.5)">n</text><text xml:space="preserve" font-family="Helvetica,Helvetica" font-size="22.0" fill="#F6F6F6" transform="matrix(1.00, 0.00, -0.00, -1.00, 200.4, 105.5)"> </text><text xml:space="preserve" font-family="Helvetica,Helvetica" font-size="22.0" fill="#F6F6F6" transform="matrix(1.00, 0.00, -0.00, -1.00, 206.5, 105.5)">u</text><text xml:space="preserve" font-family="Helvetica,Helvetica" font-size="22.0" fill="#F6F6F6" transform="matrix(1.00, 0.00, -0.00, -1.00, 218.7, 105.5)">l</text><text xml:space="preserve" font-family="Helvetica,Helvetica" font-size="22.0" fill="#F6F6F6" transform="matrix(1.00, 0.00, -0.00, -1.00, 223.6, 105.5)">l</text><text xml:space="preserve" font-family="Helvetica,Helvetica" font-size="22.0" fill="#F6F6F6" transform="matrix(1.00, 0.00, -0.00, -1.00, 228.5, 105.5)">a</text><text xml:space="preserve" font-family="Helvetica,Helvetica" font-size="22.0" fill="#F6F6F6" transform="matrix(1.00, 0.00, -0.00, -1.00, 240.7, 105.5)">m</text><text xml:space="preserve" font-family="Helvetica,Helvetica" font-size="22.0" fill="#F6F6F6" transform="matrix(1.00, 0.00, -0.00, -1.00, 259.1, 105.5)">c</text><text xml:space="preserve" font-family="Helvetica,Helvetica" font-size="22.0" fill="#F6F6F6" transform="matrix(1.00, 0.00, -0.00, -1.00, 270.1, 105.5)">o</text><text xml:space="preserve" font-family="Helvetica,Helvetica" font-size="22.0" fill="#F6F6F6" transform="matrix(1.00, 0.00, -0.00, -1.00, 282.3, 105.5)">r</text><text xml:space="preserve" font-family="Helvetica,Helvetica" font-size="22.0" fill="#F6F6F6" transform="matrix(1.00, 0.00, -0.00, -1.00, 289.6, 105.5)">p</text><text xml:space="preserve" font-family="Helvetica,Helvetica" font-size="22.0" fill="#F6F6F6" transform="matrix(1.00, 0.00, -0.00, -1.00, 301.9, 105.5)">e</text><text xml:space="preserve" font-family="Helvetica,Helvetica" font-size="22.0" fill="#F6F6F6" transform="matrix(1.00, 0.00, -0.00, -1.00, 314.1, 105.5)">r</text><text xml:space="preserve" font-family="Helvetica,Helvetica" font-size="22.0" fill="#F6F6F6" transform="matrix(1.00, 0.00, -0.00, -1.00, 321.4, 105.5)"> </text><text xml:space="preserve" font-family="Helvetica,Helvetica" font-size="22.0" fill="#F6F6F6" transform="matrix(1.00, 0.00, -0.00, -1.00, 327.5, 105.5)">s</text><text xml:space="preserve" font-family="Helvetica,Helvetica" font-size="22.0" fill="#F6F6F6" transform="matrix(1.00, 0.00, -0.00, -1.00, 338.5, 105.5)">u</text><text xml:space="preserve" font-family="Helvetica,Helvetica" font-size="22.0" fill="#F6F6F6" transform="matrix(1.00, 0.00, -0.00, -1.00, 350.8, 105.5)">s</text><text xml:space="preserve" font-family="Helvetica,Helvetica" font-size="22.0" fill="#F6F6F6" transform="matrix(1.00, 0.00, -0.00, -1.00, 361.8, 105.5)">c</text><text xml:space="preserve" font-family="Helvetica,Helvetica" font-size="22.0" fill="#F6F6F6" transform="matrix(1.00, 0.00, -0.00, -1.00, 372.8, 105.5)">i</text><text xml:space="preserve" font-family="Helvetica,Helvetica" font-size="22.0" fill="#F6F6F6" transform="matrix(1.00, 0.00, -0.00, -1.00, 377.7, 105.5)">p</text><text xml:space="preserve" font-family="Helvetica,Helvetica" font-size="22.0" fill="#F6F6F6" transform="matrix(1.00, 0.00, -0.00, -1.00, 389.9, 105.5)">i</text><text xml:space="preserve" font-family="Helvetica,Helvetica" font-size="22.0" fill="#F6F6F6" transform="matrix(1.00, 0.00, -0.00, -1.00, 394.8, 105.5)">t</text><text xml:space="preserve" font-family="Helvetica,Helvetica" font-size="22.0" fill="#F6F6F6" transform="matrix(1.00, 0.00, -0.00, -1.00, 400.9, 105.5)"> </text><text xml:space="preserve" font-family="Helvetica,Helvetica" font-size="22.0" fill="#F6F6F6" transform="matrix(1.00, 0.00, -0.00, -1.00, 121.5, 79.5)">l</text><text xml:space="preserve" font-family="Helvetica,Helvetica" font-size="22.0" fill="#F6F6F6" transform="matrix(1.00, 0.00, -0.00, -1.00, 126.4, 79.5)">o</text><text xml:space="preserve" font-family="Helvetica,Helvetica" font-size="22.0" fill="#F6F6F6" transform="matrix(1.00, 0.00, -0.00, -1.00, 138.6, 79.5)">b</text><text xml:space="preserve" font-family="Helvetica,Helvetica" font-size="22.0" fill="#F6F6F6" transform="matrix(1.00, 0.00, -0.00, -1.00, 150.8, 79.5)">o</text><text xml:space="preserve" font-family="Helvetica,Helvetica" font-size="22.0" fill="#F6F6F6" transform="matrix(1.00, 0.00, -0.00, -1.00, 163.1, 79.5)">r</text><text xml:space="preserve" font-family="Helvetica,Helvetica" font-size="22.0" fill="#F6F6F6" transform="matrix(1.00, 0.00, -0.00, -1.00, 170.4, 79.5)">t</text><text xml:space="preserve" font-family="Helvetica,Helvetica" font-size="22.0" fill="#F6F6F6" transform="matrix(1.00, 0.00, -0.00, -1.00, 176.5, 79.5)">i</text><text xml:space="preserve" font-family="Helvetica,Helvetica" font-size="22.0" fill="#F6F6F6" transform="matrix(1.00, 0.00, -0.00, -1.00, 181.4, 79.5)">s</text><text xml:space="preserve" font-family="Helvetica,Helvetica" font-size="22.0" fill="#F6F6F6" transform="matrix(1.00, 0.00, -0.00, -1.00, 192.4, 79.5)"> </text><text xml:space="preserve" font-family="Helvetica,Helvetica" font-size="22.0" fill="#F6F6F6" transform="matrix(1.00, 0.00, -0.00, -1.00, 198.5, 79.5)">n</text><text xml:space="preserve" font-family="Helvetica,Helvetica" font-size="22.0" fill="#F6F6F6" transform="matrix(1.00, 0.00, -0.00, -1.00, 210.7, 79.5)">i</text><text xml:space="preserve" font-family="Helvetica,Helvetica" font-size="22.0" fill="#F6F6F6" transform="matrix(1.00, 0.00, -0.00, -1.00, 215.6, 79.5)">s</text><text xml:space="preserve" font-family="Helvetica,Helvetica" font-size="22.0" fill="#F6F6F6" transform="matrix(1.00, 0.00, -0.00, -1.00, 226.6, 79.5)">l</text><text xml:space="preserve" font-family="Helvetica,Helvetica" font-size="22.0" fill="#F6F6F6" transform="matrix(1.00, 0.00, -0.00, -1.00, 231.5, 79.5)"> </text><text xml:space="preserve" font-family="Helvetica,Helvetica" font-size="22.0" fill="#F6F6F6" transform="matrix(1.00, 0.00, -0.00, -1.00, 237.6, 79.5)">u</text><text xml:space="preserve" font-family="Helvetica,Helvetica" font-size="22.0" fill="#F6F6F6" transform="matrix(1.00, 0.00, -0.00, -1.00, 249.9, 79.5)">t</text><text xml:space="preserve" font-family="Helvetica,Helvetica" font-size="22.0" fill="#F6F6F6" transform="matrix(1.00, 0.00, -0.00, -1.00, 256.0, 79.5)"> </text><text xml:space="preserve" font-family="Helvetica,Helvetica" font-size="22.0" fill="#F6F6F6" transform="matrix(1.00, 0.00, -0.00, -1.00, 262.1, 79.5)">a</text><text xml:space="preserve" font-family="Helvetica,Helvetica" font-size="22.0" fill="#F6F6F6" transform="matrix(1.00, 0.00, -0.00, -1.00, 274.3, 79.5)">l</text><text xml:space="preserve" font-family="Helvetica,Helvetica" font-size="22.0" fill="#F6F6F6" transform="matrix(1.00, 0.00, -0.00, -1.00, 279.2, 79.5)">i</text><text xml:space="preserve" font-family="Helvetica,Helvetica" font-size="22.0" fill="#F6F6F6" transform="matrix(1.00, 0.00, -0.00, -1.00, 284.1, 79.5)">q</text><text xml:space="preserve" font-family="Helvetica,Helvetica" font-size="22.0" fill="#F6F6F6" transform="matrix(1.00, 0.00, -0.00, -1.00, 296.4, 79.5)">u</text><text xml:space="preserve" font-family="Helvetica,Helvetica" font-size="22.0" fill="#F6F6F6" transform="matrix(1.00, 0.00, -0.00, -1.00, 308.6, 79.5)">i</text><text xml:space="preserve" font-family="Helvetica,Helvetica" font-size="22.0" fill="#F6F6F6" transform="matrix(1.00, 0.00, -0.00, -1.00, 313.5, 79.5)">p</text><text xml:space="preserve" font-family="Helvetica,Helvetica" font-size="22.0" fill="#F6F6F6" transform="matrix(1.00, 0.00, -0.00, -1.00, 325.7, 79.5)"> </text><text xml:space="preserve" font-family="Helvetica,Helvetica" font-size="22.0" fill="#F6F6F6" transform="matrix(1.00, 0.00, -0.00, -1.00, 331.8, 79.5)">e</text><text xml:space="preserve" font-family="Helvetica,Helvetica" font-size="22.0" fill="#F6F6F6" transform="matrix(1.00, 0.00, -0.00, -1.00, 344.1, 79.5)">x</text><text xml:space="preserve" font-family="Helvetica,Helvetica" font-size="22.0" fill="#F6F6F6" transform="matrix(1.00, 0.00, -0.00, -1.00, 355.1, 79.5)">.</text></g></g></g></svg>