<?xml version="1.0" encoding="UTF-8" standalone="no"?><svg xmlns="http://www.w3.org/2000/svg" xmlns:xlink="http://www.w3.org/1999/xlink" clip-rule="evenodd" stroke-miterlimit="10" viewBox="0 0 630 68"><desc>SVG generated by Keynote</desc><defs></defs><g transform="matrix(1.00, 0.00, -0.00, -1.00, 0.0, 68.0)"><text xml:space="preserve" font-family="Helvetica,Helvetica" font-size="84.0" fill="#F6F6F6" transform="matrix(1.00, 0.00, -0.00, -1.00, -0.7, 3.7)">O</text><text xml:space="preserve" font-family="Helvetica,Helvetica" font-size="84.0" fill="#F6F6F6" transform="matrix(1.00, 0.00, -0.00, -1.00, 64.7, 3.7)">U</text><text xml:space="preserve" font-family="Helvetica,Helvetica" font-size="84.0" fill="#F6F6F6" transform="matrix(1.00, 0.00, -0.00, -1.00, 125.3, 3.7)">R</text><text xml:space="preserve" font-family="Helvetica,Helvetica" font-size="84.0" fill="#F6F6F6" transform="matrix(1.00, 0.00, -0.00, -1.00, 186.0, 3.7)"> </text><text xml:space="preserve" font-family="Helvetica,Helvetica" font-size="84.0" fill="#F6F6F6" transform="matrix(1.00, 0.00, -0.00, -1.00, 209.3, 3.7)">S</text><text xml:space="preserve" font-family="Helvetica,Helvetica" font-size="84.0" fill="#F6F6F6" transform="matrix(1.00, 0.00, -0.00, -1.00, 265.4, 3.7)">E</text><text xml:space="preserve" font-family="Helvetica,Helvetica" font-size="84.0" fill="#F6F6F6" transform="matrix(1.00, 0.00, -0.00, -1.00, 321.4, 3.7)">R</text><text xml:space="preserve" font-family="Helvetica,Helvetica" font-size="84.0" fill="#F6F6F6" transform="matrix(1.00, 0.00, -0.00, -1.00, 380.6, 3.7)">V</text><text xml:space="preserve" font-family="Helvetica,Helvetica" font-size="84.0" fill="#F6F6F6" transform="matrix(1.00, 0.00, -0.00, -1.00, 436.6, 3.7)">I</text><text xml:space="preserve" font-family="Helvetica,Helvetica" font-size="84.0" fill="#F6F6F6" transform="matrix(1.00, 0.00, -0.00, -1.00, 459.9, 3.7)">C</text><text xml:space="preserve" font-family="Helvetica,Helvetica" font-size="84.0" fill="#F6F6F6" transform="matrix(1.00, 0.00, -0.00, -1.00, 520.6, 3.7)">E</text><text xml:space="preserve" font-family="Helvetica,Helvetica" font-size="84.0" fill="#F6F6F6" transform="matrix(1.00, 0.00, -0.00, -1.00, 576.6, 3.7)">S</text></g></svg>