<?xml version="1.0" encoding="UTF-8" standalone="no"?><svg xmlns="http://www.w3.org/2000/svg" xmlns:xlink="http://www.w3.org/1999/xlink" clip-rule="evenodd" stroke-miterlimit="10" viewBox="0 0 519 41"><desc>SVG generated by Keynote</desc><defs></defs><g transform="matrix(1.00, 0.00, -0.00, -1.00, 0.0, 41.0)"><g><clipPath id="clip0x6100072ab340"><path d="M -2.2 -2.4 L 39.5 -2.4 L 39.5 42.6 L -2.2 42.6 Z M -2.2 -2.4 "></path></clipPath><g clip-path="url(#clip0x6100072ab340)"></g></g><g><clipPath id="clip0x6100072ab520"><path d="M 47.7 3.1 L 518.2 3.1 L 518.2 37.1 L 47.7 37.1 Z M 47.7 3.1 "></path></clipPath><g clip-path="url(#clip0x6100072ab520)"><text xml:space="preserve" font-family="Helvetica,Helvetica" font-size="20.0" fill="#E2E2E2" transform="matrix(1.00, 0.00, -0.00, -1.00, 52.7, 12.7)">L</text><text xml:space="preserve" font-family="Helvetica,Helvetica" font-size="20.0" fill="#E2E2E2" transform="matrix(1.00, 0.00, -0.00, -1.00, 63.8, 12.7)">o</text><text xml:space="preserve" font-family="Helvetica,Helvetica" font-size="20.0" fill="#E2E2E2" transform="matrix(1.00, 0.00, -0.00, -1.00, 75.0, 12.7)">r</text><text xml:space="preserve" font-family="Helvetica,Helvetica" font-size="20.0" fill="#E2E2E2" transform="matrix(1.00, 0.00, -0.00, -1.00, 81.6, 12.7)">e</text><text xml:space="preserve" font-family="Helvetica,Helvetica" font-size="20.0" fill="#E2E2E2" transform="matrix(1.00, 0.00, -0.00, -1.00, 92.7, 12.7)">m</text><text xml:space="preserve" font-family="Helvetica,Helvetica" font-size="20.0" fill="#E2E2E2" transform="matrix(1.00, 0.00, -0.00, -1.00, 109.4, 12.7)"> </text><text xml:space="preserve" font-family="Helvetica,Helvetica" font-size="20.0" fill="#E2E2E2" transform="matrix(1.00, 0.00, -0.00, -1.00, 115.0, 12.7)">i</text><text xml:space="preserve" font-family="Helvetica,Helvetica" font-size="20.0" fill="#E2E2E2" transform="matrix(1.00, 0.00, -0.00, -1.00, 119.4, 12.7)">p</text><text xml:space="preserve" font-family="Helvetica,Helvetica" font-size="20.0" fill="#E2E2E2" transform="matrix(1.00, 0.00, -0.00, -1.00, 130.5, 12.7)">s</text><text xml:space="preserve" font-family="Helvetica,Helvetica" font-size="20.0" fill="#E2E2E2" transform="matrix(1.00, 0.00, -0.00, -1.00, 140.5, 12.7)">u</text><text xml:space="preserve" font-family="Helvetica,Helvetica" font-size="20.0" fill="#E2E2E2" transform="matrix(1.00, 0.00, -0.00, -1.00, 151.7, 12.7)">m</text><text xml:space="preserve" font-family="Helvetica,Helvetica" font-size="20.0" fill="#E2E2E2" transform="matrix(1.00, 0.00, -0.00, -1.00, 168.3, 12.7)"> </text><text xml:space="preserve" font-family="Helvetica,Helvetica" font-size="20.0" fill="#E2E2E2" transform="matrix(1.00, 0.00, -0.00, -1.00, 173.9, 12.7)">d</text><text xml:space="preserve" font-family="Helvetica,Helvetica" font-size="20.0" fill="#E2E2E2" transform="matrix(1.00, 0.00, -0.00, -1.00, 185.0, 12.7)">o</text><text xml:space="preserve" font-family="Helvetica,Helvetica" font-size="20.0" fill="#E2E2E2" transform="matrix(1.00, 0.00, -0.00, -1.00, 196.1, 12.7)">l</text><text xml:space="preserve" font-family="Helvetica,Helvetica" font-size="20.0" fill="#E2E2E2" transform="matrix(1.00, 0.00, -0.00, -1.00, 200.6, 12.7)">o</text><text xml:space="preserve" font-family="Helvetica,Helvetica" font-size="20.0" fill="#E2E2E2" transform="matrix(1.00, 0.00, -0.00, -1.00, 211.7, 12.7)">r</text><text xml:space="preserve" font-family="Helvetica,Helvetica" font-size="20.0" fill="#E2E2E2" transform="matrix(1.00, 0.00, -0.00, -1.00, 218.4, 12.7)"> </text><text xml:space="preserve" font-family="Helvetica,Helvetica" font-size="20.0" fill="#E2E2E2" transform="matrix(1.00, 0.00, -0.00, -1.00, 223.9, 12.7)">s</text><text xml:space="preserve" font-family="Helvetica,Helvetica" font-size="20.0" fill="#E2E2E2" transform="matrix(1.00, 0.00, -0.00, -1.00, 233.9, 12.7)">i</text><text xml:space="preserve" font-family="Helvetica,Helvetica" font-size="20.0" fill="#E2E2E2" transform="matrix(1.00, 0.00, -0.00, -1.00, 238.4, 12.7)">t</text><text xml:space="preserve" font-family="Helvetica,Helvetica" font-size="20.0" fill="#E2E2E2" transform="matrix(1.00, 0.00, -0.00, -1.00, 243.9, 12.7)"> </text><text xml:space="preserve" font-family="Helvetica,Helvetica" font-size="20.0" fill="#E2E2E2" transform="matrix(1.00, 0.00, -0.00, -1.00, 249.5, 12.7)">a</text><text xml:space="preserve" font-family="Helvetica,Helvetica" font-size="20.0" fill="#E2E2E2" transform="matrix(1.00, 0.00, -0.00, -1.00, 260.6, 12.7)">m</text><text xml:space="preserve" font-family="Helvetica,Helvetica" font-size="20.0" fill="#E2E2E2" transform="matrix(1.00, 0.00, -0.00, -1.00, 277.3, 12.7)">e</text><text xml:space="preserve" font-family="Helvetica,Helvetica" font-size="20.0" fill="#E2E2E2" transform="matrix(1.00, 0.00, -0.00, -1.00, 288.4, 12.7)">t</text><text xml:space="preserve" font-family="Helvetica,Helvetica" font-size="20.0" fill="#E2E2E2" transform="matrix(1.00, 0.00, -0.00, -1.00, 293.9, 12.7)">,</text><text xml:space="preserve" font-family="Helvetica,Helvetica" font-size="20.0" fill="#E2E2E2" transform="matrix(1.00, 0.00, -0.00, -1.00, 299.5, 12.7)"> </text><text xml:space="preserve" font-family="Helvetica,Helvetica" font-size="20.0" fill="#E2E2E2" transform="matrix(1.00, 0.00, -0.00, -1.00, 305.0, 12.7)">c</text><text xml:space="preserve" font-family="Helvetica,Helvetica" font-size="20.0" fill="#E2E2E2" transform="matrix(1.00, 0.00, -0.00, -1.00, 315.0, 12.7)">o</text><text xml:space="preserve" font-family="Helvetica,Helvetica" font-size="20.0" fill="#E2E2E2" transform="matrix(1.00, 0.00, -0.00, -1.00, 326.2, 12.7)">n</text><text xml:space="preserve" font-family="Helvetica,Helvetica" font-size="20.0" fill="#E2E2E2" transform="matrix(1.00, 0.00, -0.00, -1.00, 337.3, 12.7)">s</text><text xml:space="preserve" font-family="Helvetica,Helvetica" font-size="20.0" fill="#E2E2E2" transform="matrix(1.00, 0.00, -0.00, -1.00, 347.3, 12.7)">e</text><text xml:space="preserve" font-family="Helvetica,Helvetica" font-size="20.0" fill="#E2E2E2" transform="matrix(1.00, 0.00, -0.00, -1.00, 358.4, 12.7)">c</text><text xml:space="preserve" font-family="Helvetica,Helvetica" font-size="20.0" fill="#E2E2E2" transform="matrix(1.00, 0.00, -0.00, -1.00, 368.4, 12.7)">t</text><text xml:space="preserve" font-family="Helvetica,Helvetica" font-size="20.0" fill="#E2E2E2" transform="matrix(1.00, 0.00, -0.00, -1.00, 374.0, 12.7)">e</text><text xml:space="preserve" font-family="Helvetica,Helvetica" font-size="20.0" fill="#E2E2E2" transform="matrix(1.00, 0.00, -0.00, -1.00, 385.1, 12.7)">t</text><text xml:space="preserve" font-family="Helvetica,Helvetica" font-size="20.0" fill="#E2E2E2" transform="matrix(1.00, 0.00, -0.00, -1.00, 390.7, 12.7)">u</text><text xml:space="preserve" font-family="Helvetica,Helvetica" font-size="20.0" fill="#E2E2E2" transform="matrix(1.00, 0.00, -0.00, -1.00, 401.8, 12.7)">e</text><text xml:space="preserve" font-family="Helvetica,Helvetica" font-size="20.0" fill="#E2E2E2" transform="matrix(1.00, 0.00, -0.00, -1.00, 412.9, 12.7)">r</text><text xml:space="preserve" font-family="Helvetica,Helvetica" font-size="20.0" fill="#E2E2E2" transform="matrix(1.00, 0.00, -0.00, -1.00, 419.6, 12.7)"> </text><text xml:space="preserve" font-family="Helvetica,Helvetica" font-size="20.0" fill="#E2E2E2" transform="matrix(1.00, 0.00, -0.00, -1.00, 425.1, 12.7)">a</text><text xml:space="preserve" font-family="Helvetica,Helvetica" font-size="20.0" fill="#E2E2E2" transform="matrix(1.00, 0.00, -0.00, -1.00, 436.2, 12.7)">d</text><text xml:space="preserve" font-family="Helvetica,Helvetica" font-size="20.0" fill="#E2E2E2" transform="matrix(1.00, 0.00, -0.00, -1.00, 447.4, 12.7)">i</text><text xml:space="preserve" font-family="Helvetica,Helvetica" font-size="20.0" fill="#E2E2E2" transform="matrix(1.00, 0.00, -0.00, -1.00, 451.8, 12.7)">p</text><text xml:space="preserve" font-family="Helvetica,Helvetica" font-size="20.0" fill="#E2E2E2" transform="matrix(1.00, 0.00, -0.00, -1.00, 462.9, 12.7)">i</text><text xml:space="preserve" font-family="Helvetica,Helvetica" font-size="20.0" fill="#E2E2E2" transform="matrix(1.00, 0.00, -0.00, -1.00, 467.4, 12.7)">s</text><text xml:space="preserve" font-family="Helvetica,Helvetica" font-size="20.0" fill="#E2E2E2" transform="matrix(1.00, 0.00, -0.00, -1.00, 477.4, 12.7)">c</text><text xml:space="preserve" font-family="Helvetica,Helvetica" font-size="20.0" fill="#E2E2E2" transform="matrix(1.00, 0.00, -0.00, -1.00, 487.4, 12.7)">i</text><text xml:space="preserve" font-family="Helvetica,Helvetica" font-size="20.0" fill="#E2E2E2" transform="matrix(1.00, 0.00, -0.00, -1.00, 491.8, 12.7)">.</text></g></g></g></svg>