<?xml version="1.0" encoding="UTF-8" standalone="no"?><svg xmlns="http://www.w3.org/2000/svg" xmlns:xlink="http://www.w3.org/1999/xlink" clip-rule="evenodd" stroke-miterlimit="10" viewBox="0 0 207 11"><desc>SVG generated by Keynote</desc><defs></defs><g transform="matrix(1.00, 0.00, -0.00, -1.00, 0.0, 11.0)"><path d="M 6.8 0.2 L 8.0 0.2 L 196.5 0.2 L 197.8 0.2 " fill="none" stroke="#54C6E1" stroke-width="2.00" stroke-dasharray="2.0, 2.0" transform="matrix(1.00, 0.00, 0.00, -1.00, 1.2, 5.2)"></path><path d="M 202.0 9.0 C 204.2 9.0 206.0 7.2 206.0 5.0 C 206.0 2.8 204.2 1.0 202.0 1.0 C 199.8 1.0 198.0 2.8 198.0 5.0 C 198.0 7.2 199.8 9.0 202.0 9.0 Z M 202.0 9.0 " fill="#54C6E1"></path><path d="M 5.0 1.0 C 2.8 1.0 1.0 2.8 1.0 5.0 C 1.0 7.2 2.8 9.0 5.0 9.0 C 7.2 9.0 9.0 7.2 9.0 5.0 C 9.0 2.8 7.2 1.0 5.0 1.0 Z M 5.0 1.0 " fill="#54C6E1"></path></g></svg>