<?xml version="1.0" encoding="UTF-8" standalone="no"?><svg xmlns="http://www.w3.org/2000/svg" xmlns:xlink="http://www.w3.org/1999/xlink" clip-rule="evenodd" stroke-miterlimit="10" viewBox="0 0 794 52"><desc>SVG generated by Keynote</desc><defs></defs><g transform="matrix(1.00, 0.00, -0.00, -1.00, 0.0, 52.0)"><text xml:space="preserve" font-family="Helvetica,Helvetica" font-size="50.0" fill="#E2E2E2" transform="matrix(1.00, 0.00, -0.00, -1.00, 1.0, 12.8)">T</text><text xml:space="preserve" font-family="Helvetica,Helvetica" font-size="50.0" fill="#E2E2E2" transform="matrix(1.00, 0.00, -0.00, -1.00, 31.5, 12.8)">h</text><text xml:space="preserve" font-family="Helvetica,Helvetica" font-size="50.0" fill="#E2E2E2" transform="matrix(1.00, 0.00, -0.00, -1.00, 59.4, 12.8)">r</text><text xml:space="preserve" font-family="Helvetica,Helvetica" font-size="50.0" fill="#E2E2E2" transform="matrix(1.00, 0.00, -0.00, -1.00, 76.0, 12.8)">e</text><text xml:space="preserve" font-family="Helvetica,Helvetica" font-size="50.0" fill="#E2E2E2" transform="matrix(1.00, 0.00, -0.00, -1.00, 103.8, 12.8)">e</text><text xml:space="preserve" font-family="Helvetica,Helvetica" font-size="50.0" fill="#E2E2E2" transform="matrix(1.00, 0.00, -0.00, -1.00, 131.7, 12.8)"> </text><text xml:space="preserve" font-family="Helvetica,Helvetica" font-size="50.0" fill="#E2E2E2" transform="matrix(1.00, 0.00, -0.00, -1.00, 145.5, 12.8)">C</text><text xml:space="preserve" font-family="Helvetica,Helvetica" font-size="50.0" fill="#E2E2E2" transform="matrix(1.00, 0.00, -0.00, -1.00, 181.7, 12.8)">o</text><text xml:space="preserve" font-family="Helvetica,Helvetica" font-size="50.0" fill="#E2E2E2" transform="matrix(1.00, 0.00, -0.00, -1.00, 209.5, 12.8)">l</text><text xml:space="preserve" font-family="Helvetica,Helvetica" font-size="50.0" fill="#E2E2E2" transform="matrix(1.00, 0.00, -0.00, -1.00, 220.6, 12.8)">u</text><text xml:space="preserve" font-family="Helvetica,Helvetica" font-size="50.0" fill="#E2E2E2" transform="matrix(1.00, 0.00, -0.00, -1.00, 248.4, 12.8)">m</text><text xml:space="preserve" font-family="Helvetica,Helvetica" font-size="50.0" fill="#E2E2E2" transform="matrix(1.00, 0.00, -0.00, -1.00, 290.1, 12.8)">n</text><text xml:space="preserve" font-family="Helvetica,Helvetica" font-size="50.0" fill="#E2E2E2" transform="matrix(1.00, 0.00, -0.00, -1.00, 317.9, 12.8)">s</text><text xml:space="preserve" font-family="Helvetica,Helvetica" font-size="50.0" fill="#E2E2E2" transform="matrix(1.00, 0.00, -0.00, -1.00, 342.9, 12.8)"> </text><text xml:space="preserve" font-family="Helvetica,Helvetica" font-size="50.0" fill="#E2E2E2" transform="matrix(1.00, 0.00, -0.00, -1.00, 356.8, 12.8)">W</text><text xml:space="preserve" font-family="Helvetica,Helvetica" font-size="50.0" fill="#E2E2E2" transform="matrix(1.00, 0.00, -0.00, -1.00, 403.9, 12.8)">i</text><text xml:space="preserve" font-family="Helvetica,Helvetica" font-size="50.0" fill="#E2E2E2" transform="matrix(1.00, 0.00, -0.00, -1.00, 415.1, 12.8)">t</text><text xml:space="preserve" font-family="Helvetica,Helvetica" font-size="50.0" fill="#E2E2E2" transform="matrix(1.00, 0.00, -0.00, -1.00, 428.9, 12.8)">h</text><text xml:space="preserve" font-family="Helvetica,Helvetica" font-size="50.0" fill="#E2E2E2" transform="matrix(1.00, 0.00, -0.00, -1.00, 456.8, 12.8)"> </text><text xml:space="preserve" font-family="Helvetica,Helvetica" font-size="50.0" fill="#E2E2E2" transform="matrix(1.00, 0.00, -0.00, -1.00, 470.6, 12.8)">I</text><text xml:space="preserve" font-family="Helvetica,Helvetica" font-size="50.0" fill="#E2E2E2" transform="matrix(1.00, 0.00, -0.00, -1.00, 484.5, 12.8)">m</text><text xml:space="preserve" font-family="Helvetica,Helvetica" font-size="50.0" fill="#E2E2E2" transform="matrix(1.00, 0.00, -0.00, -1.00, 526.2, 12.8)">a</text><text xml:space="preserve" font-family="Helvetica,Helvetica" font-size="50.0" fill="#E2E2E2" transform="matrix(1.00, 0.00, -0.00, -1.00, 554.0, 12.8)">g</text><text xml:space="preserve" font-family="Helvetica,Helvetica" font-size="50.0" fill="#E2E2E2" transform="matrix(1.00, 0.00, -0.00, -1.00, 581.8, 12.8)">e</text><text xml:space="preserve" font-family="Helvetica,Helvetica" font-size="50.0" fill="#E2E2E2" transform="matrix(1.00, 0.00, -0.00, -1.00, 609.6, 12.8)"> </text><text xml:space="preserve" font-family="Helvetica,Helvetica" font-size="50.0" fill="#E2E2E2" transform="matrix(1.00, 0.00, -0.00, -1.00, 623.5, 12.8)">S</text><text xml:space="preserve" font-family="Helvetica,Helvetica" font-size="50.0" fill="#E2E2E2" transform="matrix(1.00, 0.00, -0.00, -1.00, 656.9, 12.8)">a</text><text xml:space="preserve" font-family="Helvetica,Helvetica" font-size="50.0" fill="#E2E2E2" transform="matrix(1.00, 0.00, -0.00, -1.00, 684.7, 12.8)">m</text><text xml:space="preserve" font-family="Helvetica,Helvetica" font-size="50.0" fill="#E2E2E2" transform="matrix(1.00, 0.00, -0.00, -1.00, 726.3, 12.8)">p</text><text xml:space="preserve" font-family="Helvetica,Helvetica" font-size="50.0" fill="#E2E2E2" transform="matrix(1.00, 0.00, -0.00, -1.00, 754.1, 12.8)">l</text><text xml:space="preserve" font-family="Helvetica,Helvetica" font-size="50.0" fill="#E2E2E2" transform="matrix(1.00, 0.00, -0.00, -1.00, 765.3, 12.8)">e</text></g></svg>