<?xml version="1.0" encoding="UTF-8" standalone="no"?><svg xmlns="http://www.w3.org/2000/svg" xmlns:xlink="http://www.w3.org/1999/xlink" clip-rule="evenodd" stroke-miterlimit="10" viewBox="0 0 1381 53"><desc>SVG generated by Keynote</desc><defs></defs><g transform="matrix(1.00, 0.00, -0.00, -1.00, 0.0, 53.0)"><text xml:space="preserve" font-family="Sosa-Regular,Sosa" font-size="50.0" fill="#F6F6F6" transform="matrix(1.00, 0.00, -0.00, -1.00, -2.1, 15.0)">@</text><text xml:space="preserve" font-family="Sosa-Regular,Sosa" font-size="50.0" fill="#F6F6F6" transform="matrix(1.00, 0.00, -0.00, -1.00, 47.9, 15.0)"> </text><text xml:space="preserve" font-family="Sosa-Regular,Sosa" font-size="50.0" fill="#F6F6F6" transform="matrix(1.00, 0.00, -0.00, -1.00, 58.6, 15.0)"> </text><text xml:space="preserve" font-family="Sosa-Regular,Sosa" font-size="50.0" fill="#F6F6F6" transform="matrix(1.00, 0.00, -0.00, -1.00, 69.3, 15.0)">A</text><text xml:space="preserve" font-family="Sosa-Regular,Sosa" font-size="50.0" fill="#F6F6F6" transform="matrix(1.00, 0.00, -0.00, -1.00, 119.3, 15.0)"> </text><text xml:space="preserve" font-family="Sosa-Regular,Sosa" font-size="50.0" fill="#F6F6F6" transform="matrix(1.00, 0.00, -0.00, -1.00, 130.0, 15.0)"> </text><text xml:space="preserve" font-family="Sosa-Regular,Sosa" font-size="50.0" fill="#F6F6F6" transform="matrix(1.00, 0.00, -0.00, -1.00, 140.7, 15.0)">E</text><text xml:space="preserve" font-family="Sosa-Regular,Sosa" font-size="50.0" fill="#F6F6F6" transform="matrix(1.00, 0.00, -0.00, -1.00, 190.7, 15.0)"> </text><text xml:space="preserve" font-family="Sosa-Regular,Sosa" font-size="50.0" fill="#F6F6F6" transform="matrix(1.00, 0.00, -0.00, -1.00, 201.3, 15.0)">F</text><text xml:space="preserve" font-family="Sosa-Regular,Sosa" font-size="50.0" fill="#F6F6F6" transform="matrix(1.00, 0.00, -0.00, -1.00, 251.3, 15.0)"> </text><text xml:space="preserve" font-family="Sosa-Regular,Sosa" font-size="50.0" fill="#F6F6F6" transform="matrix(1.00, 0.00, -0.00, -1.00, 262.0, 15.0)"> </text><text xml:space="preserve" font-family="Sosa-Regular,Sosa" font-size="50.0" fill="#F6F6F6" transform="matrix(1.00, 0.00, -0.00, -1.00, 272.7, 15.0)">G</text><text xml:space="preserve" font-family="Sosa-Regular,Sosa" font-size="50.0" fill="#F6F6F6" transform="matrix(1.00, 0.00, -0.00, -1.00, 322.7, 15.0)"> </text><text xml:space="preserve" font-family="Sosa-Regular,Sosa" font-size="50.0" fill="#F6F6F6" transform="matrix(1.00, 0.00, -0.00, -1.00, 333.4, 15.0)"> </text><text xml:space="preserve" font-family="Sosa-Regular,Sosa" font-size="50.0" fill="#F6F6F6" transform="matrix(1.00, 0.00, -0.00, -1.00, 344.1, 15.0)">I</text><text xml:space="preserve" font-family="Sosa-Regular,Sosa" font-size="50.0" fill="#F6F6F6" transform="matrix(1.00, 0.00, -0.00, -1.00, 394.1, 15.0)"> </text><text xml:space="preserve" font-family="Sosa-Regular,Sosa" font-size="50.0" fill="#F6F6F6" transform="matrix(1.00, 0.00, -0.00, -1.00, 404.8, 15.0)"> </text><text xml:space="preserve" font-family="Sosa-Regular,Sosa" font-size="50.0" fill="#F6F6F6" transform="matrix(1.00, 0.00, -0.00, -1.00, 415.5, 15.0)"> </text><text xml:space="preserve" font-family="Sosa-Regular,Sosa" font-size="50.0" fill="#F6F6F6" transform="matrix(1.00, 0.00, -0.00, -1.00, 426.2, 15.0)">B</text><text xml:space="preserve" font-family="Sosa-Regular,Sosa" font-size="50.0" fill="#F6F6F6" transform="matrix(1.00, 0.00, -0.00, -1.00, 476.2, 15.0)"> </text><text xml:space="preserve" font-family="Sosa-Regular,Sosa" font-size="50.0" fill="#F6F6F6" transform="matrix(1.00, 0.00, -0.00, -1.00, 486.9, 15.0)"> </text><text xml:space="preserve" font-family="Sosa-Regular,Sosa" font-size="50.0" fill="#F6F6F6" transform="matrix(1.00, 0.00, -0.00, -1.00, 497.5, 15.0)"> </text><text xml:space="preserve" font-family="Sosa-Regular,Sosa" font-size="50.0" fill="#F6F6F6" transform="matrix(1.00, 0.00, -0.00, -1.00, 508.2, 15.0)">C</text><text xml:space="preserve" font-family="Sosa-Regular,Sosa" font-size="50.0" fill="#F6F6F6" transform="matrix(1.00, 0.00, -0.00, -1.00, 558.2, 15.0)"> </text><text xml:space="preserve" font-family="Sosa-Regular,Sosa" font-size="50.0" fill="#F6F6F6" transform="matrix(1.00, 0.00, -0.00, -1.00, 568.9, 15.0)"> </text><text xml:space="preserve" font-family="Sosa-Regular,Sosa" font-size="50.0" fill="#F6F6F6" transform="matrix(1.00, 0.00, -0.00, -1.00, 579.6, 15.0)">D</text><text xml:space="preserve" font-family="Sosa-Regular,Sosa" font-size="50.0" fill="#F6F6F6" transform="matrix(1.00, 0.00, -0.00, -1.00, 629.6, 15.0)"> </text><text xml:space="preserve" font-family="Sosa-Regular,Sosa" font-size="50.0" fill="#F6F6F6" transform="matrix(1.00, 0.00, -0.00, -1.00, 640.3, 15.0)"> </text><text xml:space="preserve" font-family="Sosa-Regular,Sosa" font-size="50.0" fill="#F6F6F6" transform="matrix(1.00, 0.00, -0.00, -1.00, 651.0, 15.0)">O</text><text xml:space="preserve" font-family="Sosa-Regular,Sosa" font-size="50.0" fill="#F6F6F6" transform="matrix(1.00, 0.00, -0.00, -1.00, 701.0, 15.0)"> </text><text xml:space="preserve" font-family="Sosa-Regular,Sosa" font-size="50.0" fill="#F6F6F6" transform="matrix(1.00, 0.00, -0.00, -1.00, 711.7, 15.0)"> </text><text xml:space="preserve" font-family="Sosa-Regular,Sosa" font-size="50.0" fill="#F6F6F6" transform="matrix(1.00, 0.00, -0.00, -1.00, 722.4, 15.0)">P</text><text xml:space="preserve" font-family="Sosa-Regular,Sosa" font-size="50.0" fill="#F6F6F6" transform="matrix(1.00, 0.00, -0.00, -1.00, 772.4, 15.0)"> </text><text xml:space="preserve" font-family="Sosa-Regular,Sosa" font-size="50.0" fill="#F6F6F6" transform="matrix(1.00, 0.00, -0.00, -1.00, 783.1, 15.0)"> </text><text xml:space="preserve" font-family="Sosa-Regular,Sosa" font-size="50.0" fill="#F6F6F6" transform="matrix(1.00, 0.00, -0.00, -1.00, 793.7, 15.0)">Q</text><text xml:space="preserve" font-family="Sosa-Regular,Sosa" font-size="50.0" fill="#F6F6F6" transform="matrix(1.00, 0.00, -0.00, -1.00, 843.7, 15.0)"> </text><text xml:space="preserve" font-family="Sosa-Regular,Sosa" font-size="50.0" fill="#F6F6F6" transform="matrix(1.00, 0.00, -0.00, -1.00, 854.4, 15.0)">R</text><text xml:space="preserve" font-family="Sosa-Regular,Sosa" font-size="50.0" fill="#F6F6F6" transform="matrix(1.00, 0.00, -0.00, -1.00, 904.4, 15.0)"> </text><text xml:space="preserve" font-family="Sosa-Regular,Sosa" font-size="50.0" fill="#F6F6F6" transform="matrix(1.00, 0.00, -0.00, -1.00, 915.1, 15.0)">S</text><text xml:space="preserve" font-family="Sosa-Regular,Sosa" font-size="50.0" fill="#F6F6F6" transform="matrix(1.00, 0.00, -0.00, -1.00, 965.1, 15.0)"> </text><text xml:space="preserve" font-family="Sosa-Regular,Sosa" font-size="50.0" fill="#F6F6F6" transform="matrix(1.00, 0.00, -0.00, -1.00, 975.8, 15.0)">T</text><text xml:space="preserve" font-family="Sosa-Regular,Sosa" font-size="50.0" fill="#F6F6F6" transform="matrix(1.00, 0.00, -0.00, -1.00, 1025.8, 15.0)"> </text><text xml:space="preserve" font-family="Sosa-Regular,Sosa" font-size="50.0" fill="#F6F6F6" transform="matrix(1.00, 0.00, -0.00, -1.00, 1036.5, 15.0)">U</text><text xml:space="preserve" font-family="Sosa-Regular,Sosa" font-size="50.0" fill="#F6F6F6" transform="matrix(1.00, 0.00, -0.00, -1.00, 1086.5, 15.0)"> </text><text xml:space="preserve" font-family="Sosa-Regular,Sosa" font-size="50.0" fill="#F6F6F6" transform="matrix(1.00, 0.00, -0.00, -1.00, 1097.2, 15.0)">V</text><text xml:space="preserve" font-family="Sosa-Regular,Sosa" font-size="50.0" fill="#F6F6F6" transform="matrix(1.00, 0.00, -0.00, -1.00, 1147.2, 15.0)"> </text><text xml:space="preserve" font-family="Sosa-Regular,Sosa" font-size="50.0" fill="#F6F6F6" transform="matrix(1.00, 0.00, -0.00, -1.00, 1157.9, 15.0)">W</text><text xml:space="preserve" font-family="Sosa-Regular,Sosa" font-size="50.0" fill="#F6F6F6" transform="matrix(1.00, 0.00, -0.00, -1.00, 1207.9, 15.0)"> </text><text xml:space="preserve" font-family="Sosa-Regular,Sosa" font-size="50.0" fill="#F6F6F6" transform="matrix(1.00, 0.00, -0.00, -1.00, 1218.6, 15.0)">X</text><text xml:space="preserve" font-family="Sosa-Regular,Sosa" font-size="50.0" fill="#F6F6F6" transform="matrix(1.00, 0.00, -0.00, -1.00, 1268.6, 15.0)"> </text><text xml:space="preserve" font-family="Sosa-Regular,Sosa" font-size="50.0" fill="#F6F6F6" transform="matrix(1.00, 0.00, -0.00, -1.00, 1279.2, 15.0)">Y</text><text xml:space="preserve" font-family="Sosa-Regular,Sosa" font-size="50.0" fill="#F6F6F6" transform="matrix(1.00, 0.00, -0.00, -1.00, 1329.2, 15.0)"> </text><text xml:space="preserve" font-family="Sosa-Regular,Sosa" font-size="50.0" fill="#F6F6F6" transform="matrix(1.00, 0.00, -0.00, -1.00, 1339.9, 15.0)">Z</text></g></svg>