<?xml version="1.0" encoding="UTF-8" standalone="no"?><svg xmlns="http://www.w3.org/2000/svg" xmlns:xlink="http://www.w3.org/1999/xlink" clip-rule="evenodd" stroke-miterlimit="10" viewBox="0 0 484 505"><desc>SVG generated by Keynote</desc><defs></defs><g transform="matrix(1.00, 0.00, -0.00, -1.00, 0.0, 505.0)"><g><clipPath id="clip0x608004ca9780"><path d="M 0.6 0.1 L 483.9 0.1 L 483.9 483.4 L 0.6 483.4 Z M 0.6 0.1 "></path></clipPath><g clip-path="url(#clip0x608004ca9780)"><path d="M 412.4 411.9 C 506.4 318.0 506.4 165.6 412.4 71.6 C 318.5 -22.3 166.1 -22.3 72.1 71.6 C -21.9 165.6 -21.9 318.0 72.1 411.9 C 166.1 505.9 318.5 505.9 412.4 411.9 Z M 412.4 411.9 " fill="#42A2B8"></path></g></g><g><clipPath id="clip0x608004ca9e40"><path d="M 0.6 20.8 L 483.9 20.8 L 483.9 504.0 L 0.6 504.0 Z M 0.6 20.8 "></path></clipPath><g clip-path="url(#clip0x608004ca9e40)"><path d="M 412.4 432.6 C 506.4 338.6 506.4 186.2 412.4 92.3 C 318.5 -1.7 166.1 -1.7 72.1 92.3 C -21.9 186.2 -21.9 338.6 72.1 432.6 C 166.1 526.5 318.5 526.5 412.4 432.6 Z M 412.4 432.6 " fill="#54C6E1"></path></g></g><g><clipPath id="clip0x608004caa080"><path d="M 131.5 235.4 L 353.0 235.4 L 353.0 289.4 L 131.5 289.4 Z M 131.5 235.4 "></path></clipPath><g clip-path="url(#clip0x608004caa080)"><text xml:space="preserve" font-family="Helvetica,Helvetica" font-size="32.0" fill="#F6F6F6" transform="matrix(1.00, 0.00, -0.00, -1.00, 140.0, 250.8)">A</text><text xml:space="preserve" font-family="Helvetica,Helvetica" font-size="32.0" fill="#F6F6F6" transform="matrix(1.00, 0.00, -0.00, -1.00, 161.4, 250.8)">d</text><text xml:space="preserve" font-family="Helvetica,Helvetica" font-size="32.0" fill="#F6F6F6" transform="matrix(1.00, 0.00, -0.00, -1.00, 179.2, 250.8)">v</text><text xml:space="preserve" font-family="Helvetica,Helvetica" font-size="32.0" fill="#F6F6F6" transform="matrix(1.00, 0.00, -0.00, -1.00, 195.2, 250.8)">e</text><text xml:space="preserve" font-family="Helvetica,Helvetica" font-size="32.0" fill="#F6F6F6" transform="matrix(1.00, 0.00, -0.00, -1.00, 213.0, 250.8)">r</text><text xml:space="preserve" font-family="Helvetica,Helvetica" font-size="32.0" fill="#F6F6F6" transform="matrix(1.00, 0.00, -0.00, -1.00, 223.6, 250.8)">t</text><text xml:space="preserve" font-family="Helvetica,Helvetica" font-size="32.0" fill="#F6F6F6" transform="matrix(1.00, 0.00, -0.00, -1.00, 232.5, 250.8)">i</text><text xml:space="preserve" font-family="Helvetica,Helvetica" font-size="32.0" fill="#F6F6F6" transform="matrix(1.00, 0.00, -0.00, -1.00, 239.6, 250.8)">s</text><text xml:space="preserve" font-family="Helvetica,Helvetica" font-size="32.0" fill="#F6F6F6" transform="matrix(1.00, 0.00, -0.00, -1.00, 255.6, 250.8)">e</text><text xml:space="preserve" font-family="Helvetica,Helvetica" font-size="32.0" fill="#F6F6F6" transform="matrix(1.00, 0.00, -0.00, -1.00, 273.4, 250.8)">m</text><text xml:space="preserve" font-family="Helvetica,Helvetica" font-size="32.0" fill="#F6F6F6" transform="matrix(1.00, 0.00, -0.00, -1.00, 300.1, 250.8)">e</text><text xml:space="preserve" font-family="Helvetica,Helvetica" font-size="32.0" fill="#F6F6F6" transform="matrix(1.00, 0.00, -0.00, -1.00, 317.9, 250.8)">n</text><text xml:space="preserve" font-family="Helvetica,Helvetica" font-size="32.0" fill="#F6F6F6" transform="matrix(1.00, 0.00, -0.00, -1.00, 335.7, 250.8)">t</text></g></g><g><clipPath id="clip0x608004caa740"><path d="M 59.1 93.0 L 425.4 93.0 L 425.4 234.0 L 59.1 234.0 Z M 59.1 93.0 "></path></clipPath><g clip-path="url(#clip0x608004caa740)"><text xml:space="preserve" font-family="Helvetica,Helvetica" font-size="22.0" fill="#F6F6F6" transform="matrix(1.00, 0.00, -0.00, -1.00, 106.6, 207.6)">L</text><text xml:space="preserve" font-family="Helvetica,Helvetica" font-size="22.0" fill="#F6F6F6" transform="matrix(1.00, 0.00, -0.00, -1.00, 118.8, 207.6)">o</text><text xml:space="preserve" font-family="Helvetica,Helvetica" font-size="22.0" fill="#F6F6F6" transform="matrix(1.00, 0.00, -0.00, -1.00, 131.0, 207.6)">r</text><text xml:space="preserve" font-family="Helvetica,Helvetica" font-size="22.0" fill="#F6F6F6" transform="matrix(1.00, 0.00, -0.00, -1.00, 138.4, 207.6)">e</text><text xml:space="preserve" font-family="Helvetica,Helvetica" font-size="22.0" fill="#F6F6F6" transform="matrix(1.00, 0.00, -0.00, -1.00, 150.6, 207.6)">m</text><text xml:space="preserve" font-family="Helvetica,Helvetica" font-size="22.0" fill="#F6F6F6" transform="matrix(1.00, 0.00, -0.00, -1.00, 168.9, 207.6)"> </text><text xml:space="preserve" font-family="Helvetica,Helvetica" font-size="22.0" fill="#F6F6F6" transform="matrix(1.00, 0.00, -0.00, -1.00, 175.0, 207.6)">i</text><text xml:space="preserve" font-family="Helvetica,Helvetica" font-size="22.0" fill="#F6F6F6" transform="matrix(1.00, 0.00, -0.00, -1.00, 179.9, 207.6)">p</text><text xml:space="preserve" font-family="Helvetica,Helvetica" font-size="22.0" fill="#F6F6F6" transform="matrix(1.00, 0.00, -0.00, -1.00, 192.2, 207.6)">s</text><text xml:space="preserve" font-family="Helvetica,Helvetica" font-size="22.0" fill="#F6F6F6" transform="matrix(1.00, 0.00, -0.00, -1.00, 203.2, 207.6)">u</text><text xml:space="preserve" font-family="Helvetica,Helvetica" font-size="22.0" fill="#F6F6F6" transform="matrix(1.00, 0.00, -0.00, -1.00, 215.4, 207.6)">m</text><text xml:space="preserve" font-family="Helvetica,Helvetica" font-size="22.0" fill="#F6F6F6" transform="matrix(1.00, 0.00, -0.00, -1.00, 233.7, 207.6)"> </text><text xml:space="preserve" font-family="Helvetica,Helvetica" font-size="22.0" fill="#F6F6F6" transform="matrix(1.00, 0.00, -0.00, -1.00, 239.8, 207.6)">d</text><text xml:space="preserve" font-family="Helvetica,Helvetica" font-size="22.0" fill="#F6F6F6" transform="matrix(1.00, 0.00, -0.00, -1.00, 252.1, 207.6)">o</text><text xml:space="preserve" font-family="Helvetica,Helvetica" font-size="22.0" fill="#F6F6F6" transform="matrix(1.00, 0.00, -0.00, -1.00, 264.3, 207.6)">l</text><text xml:space="preserve" font-family="Helvetica,Helvetica" font-size="22.0" fill="#F6F6F6" transform="matrix(1.00, 0.00, -0.00, -1.00, 269.2, 207.6)">o</text><text xml:space="preserve" font-family="Helvetica,Helvetica" font-size="22.0" fill="#F6F6F6" transform="matrix(1.00, 0.00, -0.00, -1.00, 281.5, 207.6)">r</text><text xml:space="preserve" font-family="Helvetica,Helvetica" font-size="22.0" fill="#F6F6F6" transform="matrix(1.00, 0.00, -0.00, -1.00, 288.8, 207.6)"> </text><text xml:space="preserve" font-family="Helvetica,Helvetica" font-size="22.0" fill="#F6F6F6" transform="matrix(1.00, 0.00, -0.00, -1.00, 294.9, 207.6)">s</text><text xml:space="preserve" font-family="Helvetica,Helvetica" font-size="22.0" fill="#F6F6F6" transform="matrix(1.00, 0.00, -0.00, -1.00, 305.9, 207.6)">i</text><text xml:space="preserve" font-family="Helvetica,Helvetica" font-size="22.0" fill="#F6F6F6" transform="matrix(1.00, 0.00, -0.00, -1.00, 310.8, 207.6)">t</text><text xml:space="preserve" font-family="Helvetica,Helvetica" font-size="22.0" fill="#F6F6F6" transform="matrix(1.00, 0.00, -0.00, -1.00, 316.9, 207.6)"> </text><text xml:space="preserve" font-family="Helvetica,Helvetica" font-size="22.0" fill="#F6F6F6" transform="matrix(1.00, 0.00, -0.00, -1.00, 323.0, 207.6)">a</text><text xml:space="preserve" font-family="Helvetica,Helvetica" font-size="22.0" fill="#F6F6F6" transform="matrix(1.00, 0.00, -0.00, -1.00, 335.2, 207.6)">m</text><text xml:space="preserve" font-family="Helvetica,Helvetica" font-size="22.0" fill="#F6F6F6" transform="matrix(1.00, 0.00, -0.00, -1.00, 353.6, 207.6)">e</text><text xml:space="preserve" font-family="Helvetica,Helvetica" font-size="22.0" fill="#F6F6F6" transform="matrix(1.00, 0.00, -0.00, -1.00, 365.8, 207.6)">t</text><text xml:space="preserve" font-family="Helvetica,Helvetica" font-size="22.0" fill="#F6F6F6" transform="matrix(1.00, 0.00, -0.00, -1.00, 371.9, 207.6)">,</text><text xml:space="preserve" font-family="Helvetica,Helvetica" font-size="22.0" fill="#F6F6F6" transform="matrix(1.00, 0.00, -0.00, -1.00, 378.0, 207.6)"> </text><text xml:space="preserve" font-family="Helvetica,Helvetica" font-size="22.0" fill="#F6F6F6" transform="matrix(1.00, 0.00, -0.00, -1.00, 86.4, 181.6)">c</text><text xml:space="preserve" font-family="Helvetica,Helvetica" font-size="22.0" fill="#F6F6F6" transform="matrix(1.00, 0.00, -0.00, -1.00, 97.4, 181.6)">o</text><text xml:space="preserve" font-family="Helvetica,Helvetica" font-size="22.0" fill="#F6F6F6" transform="matrix(1.00, 0.00, -0.00, -1.00, 109.6, 181.6)">n</text><text xml:space="preserve" font-family="Helvetica,Helvetica" font-size="22.0" fill="#F6F6F6" transform="matrix(1.00, 0.00, -0.00, -1.00, 121.8, 181.6)">s</text><text xml:space="preserve" font-family="Helvetica,Helvetica" font-size="22.0" fill="#F6F6F6" transform="matrix(1.00, 0.00, -0.00, -1.00, 132.8, 181.6)">e</text><text xml:space="preserve" font-family="Helvetica,Helvetica" font-size="22.0" fill="#F6F6F6" transform="matrix(1.00, 0.00, -0.00, -1.00, 145.1, 181.6)">c</text><text xml:space="preserve" font-family="Helvetica,Helvetica" font-size="22.0" fill="#F6F6F6" transform="matrix(1.00, 0.00, -0.00, -1.00, 156.1, 181.6)">t</text><text xml:space="preserve" font-family="Helvetica,Helvetica" font-size="22.0" fill="#F6F6F6" transform="matrix(1.00, 0.00, -0.00, -1.00, 162.2, 181.6)">e</text><text xml:space="preserve" font-family="Helvetica,Helvetica" font-size="22.0" fill="#F6F6F6" transform="matrix(1.00, 0.00, -0.00, -1.00, 174.4, 181.6)">t</text><text xml:space="preserve" font-family="Helvetica,Helvetica" font-size="22.0" fill="#F6F6F6" transform="matrix(1.00, 0.00, -0.00, -1.00, 180.5, 181.6)">u</text><text xml:space="preserve" font-family="Helvetica,Helvetica" font-size="22.0" fill="#F6F6F6" transform="matrix(1.00, 0.00, -0.00, -1.00, 192.8, 181.6)">e</text><text xml:space="preserve" font-family="Helvetica,Helvetica" font-size="22.0" fill="#F6F6F6" transform="matrix(1.00, 0.00, -0.00, -1.00, 205.0, 181.6)">r</text><text xml:space="preserve" font-family="Helvetica,Helvetica" font-size="22.0" fill="#F6F6F6" transform="matrix(1.00, 0.00, -0.00, -1.00, 212.3, 181.6)"> </text><text xml:space="preserve" font-family="Helvetica,Helvetica" font-size="22.0" fill="#F6F6F6" transform="matrix(1.00, 0.00, -0.00, -1.00, 218.4, 181.6)">a</text><text xml:space="preserve" font-family="Helvetica,Helvetica" font-size="22.0" fill="#F6F6F6" transform="matrix(1.00, 0.00, -0.00, -1.00, 230.7, 181.6)">d</text><text xml:space="preserve" font-family="Helvetica,Helvetica" font-size="22.0" fill="#F6F6F6" transform="matrix(1.00, 0.00, -0.00, -1.00, 242.9, 181.6)">i</text><text xml:space="preserve" font-family="Helvetica,Helvetica" font-size="22.0" fill="#F6F6F6" transform="matrix(1.00, 0.00, -0.00, -1.00, 247.8, 181.6)">p</text><text xml:space="preserve" font-family="Helvetica,Helvetica" font-size="22.0" fill="#F6F6F6" transform="matrix(1.00, 0.00, -0.00, -1.00, 260.1, 181.6)">i</text><text xml:space="preserve" font-family="Helvetica,Helvetica" font-size="22.0" fill="#F6F6F6" transform="matrix(1.00, 0.00, -0.00, -1.00, 264.9, 181.6)">s</text><text xml:space="preserve" font-family="Helvetica,Helvetica" font-size="22.0" fill="#F6F6F6" transform="matrix(1.00, 0.00, -0.00, -1.00, 275.9, 181.6)">c</text><text xml:space="preserve" font-family="Helvetica,Helvetica" font-size="22.0" fill="#F6F6F6" transform="matrix(1.00, 0.00, -0.00, -1.00, 286.9, 181.6)">i</text><text xml:space="preserve" font-family="Helvetica,Helvetica" font-size="22.0" fill="#F6F6F6" transform="matrix(1.00, 0.00, -0.00, -1.00, 291.8, 181.6)">n</text><text xml:space="preserve" font-family="Helvetica,Helvetica" font-size="22.0" fill="#F6F6F6" transform="matrix(1.00, 0.00, -0.00, -1.00, 304.1, 181.6)">g</text><text xml:space="preserve" font-family="Helvetica,Helvetica" font-size="22.0" fill="#F6F6F6" transform="matrix(1.00, 0.00, -0.00, -1.00, 316.3, 181.6)"> </text><text xml:space="preserve" font-family="Helvetica,Helvetica" font-size="22.0" fill="#F6F6F6" transform="matrix(1.00, 0.00, -0.00, -1.00, 322.4, 181.6)">e</text><text xml:space="preserve" font-family="Helvetica,Helvetica" font-size="22.0" fill="#F6F6F6" transform="matrix(1.00, 0.00, -0.00, -1.00, 334.7, 181.6)">l</text><text xml:space="preserve" font-family="Helvetica,Helvetica" font-size="22.0" fill="#F6F6F6" transform="matrix(1.00, 0.00, -0.00, -1.00, 339.6, 181.6)">i</text><text xml:space="preserve" font-family="Helvetica,Helvetica" font-size="22.0" fill="#F6F6F6" transform="matrix(1.00, 0.00, -0.00, -1.00, 344.5, 181.6)">t</text><text xml:space="preserve" font-family="Helvetica,Helvetica" font-size="22.0" fill="#F6F6F6" transform="matrix(1.00, 0.00, -0.00, -1.00, 350.6, 181.6)">,</text><text xml:space="preserve" font-family="Helvetica,Helvetica" font-size="22.0" fill="#F6F6F6" transform="matrix(1.00, 0.00, -0.00, -1.00, 356.7, 181.6)"> </text><text xml:space="preserve" font-family="Helvetica,Helvetica" font-size="22.0" fill="#F6F6F6" transform="matrix(1.00, 0.00, -0.00, -1.00, 362.8, 181.6)">s</text><text xml:space="preserve" font-family="Helvetica,Helvetica" font-size="22.0" fill="#F6F6F6" transform="matrix(1.00, 0.00, -0.00, -1.00, 373.8, 181.6)">e</text><text xml:space="preserve" font-family="Helvetica,Helvetica" font-size="22.0" fill="#F6F6F6" transform="matrix(1.00, 0.00, -0.00, -1.00, 386.0, 181.6)">d</text><text xml:space="preserve" font-family="Helvetica,Helvetica" font-size="22.0" fill="#F6F6F6" transform="matrix(1.00, 0.00, -0.00, -1.00, 398.3, 181.6)"> </text><text xml:space="preserve" font-family="Helvetica,Helvetica" font-size="22.0" fill="#F6F6F6" transform="matrix(1.00, 0.00, -0.00, -1.00, 98.6, 155.6)">d</text><text xml:space="preserve" font-family="Helvetica,Helvetica" font-size="22.0" fill="#F6F6F6" transform="matrix(1.00, 0.00, -0.00, -1.00, 110.8, 155.6)">i</text><text xml:space="preserve" font-family="Helvetica,Helvetica" font-size="22.0" fill="#F6F6F6" transform="matrix(1.00, 0.00, -0.00, -1.00, 115.7, 155.6)">a</text><text xml:space="preserve" font-family="Helvetica,Helvetica" font-size="22.0" fill="#F6F6F6" transform="matrix(1.00, 0.00, -0.00, -1.00, 128.0, 155.6)">m</text><text xml:space="preserve" font-family="Helvetica,Helvetica" font-size="22.0" fill="#F6F6F6" transform="matrix(1.00, 0.00, -0.00, -1.00, 146.3, 155.6)"> </text><text xml:space="preserve" font-family="Helvetica,Helvetica" font-size="22.0" fill="#F6F6F6" transform="matrix(1.00, 0.00, -0.00, -1.00, 152.4, 155.6)">n</text><text xml:space="preserve" font-family="Helvetica,Helvetica" font-size="22.0" fill="#F6F6F6" transform="matrix(1.00, 0.00, -0.00, -1.00, 164.6, 155.6)">o</text><text xml:space="preserve" font-family="Helvetica,Helvetica" font-size="22.0" fill="#F6F6F6" transform="matrix(1.00, 0.00, -0.00, -1.00, 176.9, 155.6)">n</text><text xml:space="preserve" font-family="Helvetica,Helvetica" font-size="22.0" fill="#F6F6F6" transform="matrix(1.00, 0.00, -0.00, -1.00, 189.1, 155.6)">u</text><text xml:space="preserve" font-family="Helvetica,Helvetica" font-size="22.0" fill="#F6F6F6" transform="matrix(1.00, 0.00, -0.00, -1.00, 201.4, 155.6)">m</text><text xml:space="preserve" font-family="Helvetica,Helvetica" font-size="22.0" fill="#F6F6F6" transform="matrix(1.00, 0.00, -0.00, -1.00, 219.7, 155.6)">m</text><text xml:space="preserve" font-family="Helvetica,Helvetica" font-size="22.0" fill="#F6F6F6" transform="matrix(1.00, 0.00, -0.00, -1.00, 238.0, 155.6)">y</text><text xml:space="preserve" font-family="Helvetica,Helvetica" font-size="22.0" fill="#F6F6F6" transform="matrix(1.00, 0.00, -0.00, -1.00, 249.0, 155.6)"> </text><text xml:space="preserve" font-family="Helvetica,Helvetica" font-size="22.0" fill="#F6F6F6" transform="matrix(1.00, 0.00, -0.00, -1.00, 255.1, 155.6)">n</text><text xml:space="preserve" font-family="Helvetica,Helvetica" font-size="22.0" fill="#F6F6F6" transform="matrix(1.00, 0.00, -0.00, -1.00, 267.4, 155.6)">i</text><text xml:space="preserve" font-family="Helvetica,Helvetica" font-size="22.0" fill="#F6F6F6" transform="matrix(1.00, 0.00, -0.00, -1.00, 272.3, 155.6)">b</text><text xml:space="preserve" font-family="Helvetica,Helvetica" font-size="22.0" fill="#F6F6F6" transform="matrix(1.00, 0.00, -0.00, -1.00, 284.5, 155.6)">h</text><text xml:space="preserve" font-family="Helvetica,Helvetica" font-size="22.0" fill="#F6F6F6" transform="matrix(1.00, 0.00, -0.00, -1.00, 296.7, 155.6)"> </text><text xml:space="preserve" font-family="Helvetica,Helvetica" font-size="22.0" fill="#F6F6F6" transform="matrix(1.00, 0.00, -0.00, -1.00, 302.8, 155.6)">e</text><text xml:space="preserve" font-family="Helvetica,Helvetica" font-size="22.0" fill="#F6F6F6" transform="matrix(1.00, 0.00, -0.00, -1.00, 315.1, 155.6)">u</text><text xml:space="preserve" font-family="Helvetica,Helvetica" font-size="22.0" fill="#F6F6F6" transform="matrix(1.00, 0.00, -0.00, -1.00, 327.3, 155.6)">i</text><text xml:space="preserve" font-family="Helvetica,Helvetica" font-size="22.0" fill="#F6F6F6" transform="matrix(1.00, 0.00, -0.00, -1.00, 332.2, 155.6)">s</text><text xml:space="preserve" font-family="Helvetica,Helvetica" font-size="22.0" fill="#F6F6F6" transform="matrix(1.00, 0.00, -0.00, -1.00, 343.2, 155.6)">m</text><text xml:space="preserve" font-family="Helvetica,Helvetica" font-size="22.0" fill="#F6F6F6" transform="matrix(1.00, 0.00, -0.00, -1.00, 361.5, 155.6)">o</text><text xml:space="preserve" font-family="Helvetica,Helvetica" font-size="22.0" fill="#F6F6F6" transform="matrix(1.00, 0.00, -0.00, -1.00, 373.8, 155.6)">d</text><text xml:space="preserve" font-family="Helvetica,Helvetica" font-size="22.0" fill="#F6F6F6" transform="matrix(1.00, 0.00, -0.00, -1.00, 386.0, 155.6)"> </text><text xml:space="preserve" font-family="Helvetica,Helvetica" font-size="22.0" fill="#F6F6F6" transform="matrix(1.00, 0.00, -0.00, -1.00, 82.1, 129.6)">t</text><text xml:space="preserve" font-family="Helvetica,Helvetica" font-size="22.0" fill="#F6F6F6" transform="matrix(1.00, 0.00, -0.00, -1.00, 88.2, 129.6)">i</text><text xml:space="preserve" font-family="Helvetica,Helvetica" font-size="22.0" fill="#F6F6F6" transform="matrix(1.00, 0.00, -0.00, -1.00, 93.1, 129.6)">n</text><text xml:space="preserve" font-family="Helvetica,Helvetica" font-size="22.0" fill="#F6F6F6" transform="matrix(1.00, 0.00, -0.00, -1.00, 105.3, 129.6)">c</text><text xml:space="preserve" font-family="Helvetica,Helvetica" font-size="22.0" fill="#F6F6F6" transform="matrix(1.00, 0.00, -0.00, -1.00, 116.3, 129.6)">i</text><text xml:space="preserve" font-family="Helvetica,Helvetica" font-size="22.0" fill="#F6F6F6" transform="matrix(1.00, 0.00, -0.00, -1.00, 121.2, 129.6)">d</text><text xml:space="preserve" font-family="Helvetica,Helvetica" font-size="22.0" fill="#F6F6F6" transform="matrix(1.00, 0.00, -0.00, -1.00, 133.4, 129.6)">u</text><text xml:space="preserve" font-family="Helvetica,Helvetica" font-size="22.0" fill="#F6F6F6" transform="matrix(1.00, 0.00, -0.00, -1.00, 145.7, 129.6)">n</text><text xml:space="preserve" font-family="Helvetica,Helvetica" font-size="22.0" fill="#F6F6F6" transform="matrix(1.00, 0.00, -0.00, -1.00, 157.9, 129.6)">t</text><text xml:space="preserve" font-family="Helvetica,Helvetica" font-size="22.0" fill="#F6F6F6" transform="matrix(1.00, 0.00, -0.00, -1.00, 164.0, 129.6)"> </text><text xml:space="preserve" font-family="Helvetica,Helvetica" font-size="22.0" fill="#F6F6F6" transform="matrix(1.00, 0.00, -0.00, -1.00, 170.1, 129.6)">u</text><text xml:space="preserve" font-family="Helvetica,Helvetica" font-size="22.0" fill="#F6F6F6" transform="matrix(1.00, 0.00, -0.00, -1.00, 182.4, 129.6)">t</text><text xml:space="preserve" font-family="Helvetica,Helvetica" font-size="22.0" fill="#F6F6F6" transform="matrix(1.00, 0.00, -0.00, -1.00, 188.5, 129.6)"> </text><text xml:space="preserve" font-family="Helvetica,Helvetica" font-size="22.0" fill="#F6F6F6" transform="matrix(1.00, 0.00, -0.00, -1.00, 194.6, 129.6)">l</text><text xml:space="preserve" font-family="Helvetica,Helvetica" font-size="22.0" fill="#F6F6F6" transform="matrix(1.00, 0.00, -0.00, -1.00, 199.5, 129.6)">a</text><text xml:space="preserve" font-family="Helvetica,Helvetica" font-size="22.0" fill="#F6F6F6" transform="matrix(1.00, 0.00, -0.00, -1.00, 211.7, 129.6)">o</text><text xml:space="preserve" font-family="Helvetica,Helvetica" font-size="22.0" fill="#F6F6F6" transform="matrix(1.00, 0.00, -0.00, -1.00, 224.0, 129.6)">r</text><text xml:space="preserve" font-family="Helvetica,Helvetica" font-size="22.0" fill="#F6F6F6" transform="matrix(1.00, 0.00, -0.00, -1.00, 231.3, 129.6)">e</text><text xml:space="preserve" font-family="Helvetica,Helvetica" font-size="22.0" fill="#F6F6F6" transform="matrix(1.00, 0.00, -0.00, -1.00, 243.5, 129.6)">e</text><text xml:space="preserve" font-family="Helvetica,Helvetica" font-size="22.0" fill="#F6F6F6" transform="matrix(1.00, 0.00, -0.00, -1.00, 255.8, 129.6)">t</text><text xml:space="preserve" font-family="Helvetica,Helvetica" font-size="22.0" fill="#F6F6F6" transform="matrix(1.00, 0.00, -0.00, -1.00, 261.9, 129.6)"> </text><text xml:space="preserve" font-family="Helvetica,Helvetica" font-size="22.0" fill="#F6F6F6" transform="matrix(1.00, 0.00, -0.00, -1.00, 268.0, 129.6)">d</text><text xml:space="preserve" font-family="Helvetica,Helvetica" font-size="22.0" fill="#F6F6F6" transform="matrix(1.00, 0.00, -0.00, -1.00, 280.2, 129.6)">o</text><text xml:space="preserve" font-family="Helvetica,Helvetica" font-size="22.0" fill="#F6F6F6" transform="matrix(1.00, 0.00, -0.00, -1.00, 292.5, 129.6)">l</text><text xml:space="preserve" font-family="Helvetica,Helvetica" font-size="22.0" fill="#F6F6F6" transform="matrix(1.00, 0.00, -0.00, -1.00, 297.4, 129.6)">o</text><text xml:space="preserve" font-family="Helvetica,Helvetica" font-size="22.0" fill="#F6F6F6" transform="matrix(1.00, 0.00, -0.00, -1.00, 309.6, 129.6)">r</text><text xml:space="preserve" font-family="Helvetica,Helvetica" font-size="22.0" fill="#F6F6F6" transform="matrix(1.00, 0.00, -0.00, -1.00, 316.9, 129.6)">e</text><text xml:space="preserve" font-family="Helvetica,Helvetica" font-size="22.0" fill="#F6F6F6" transform="matrix(1.00, 0.00, -0.00, -1.00, 329.2, 129.6)"> </text><text xml:space="preserve" font-family="Helvetica,Helvetica" font-size="22.0" fill="#F6F6F6" transform="matrix(1.00, 0.00, -0.00, -1.00, 335.3, 129.6)">m</text><text xml:space="preserve" font-family="Helvetica,Helvetica" font-size="22.0" fill="#F6F6F6" transform="matrix(1.00, 0.00, -0.00, -1.00, 353.6, 129.6)">a</text><text xml:space="preserve" font-family="Helvetica,Helvetica" font-size="22.0" fill="#F6F6F6" transform="matrix(1.00, 0.00, -0.00, -1.00, 365.8, 129.6)">g</text><text xml:space="preserve" font-family="Helvetica,Helvetica" font-size="22.0" fill="#F6F6F6" transform="matrix(1.00, 0.00, -0.00, -1.00, 378.1, 129.6)">n</text><text xml:space="preserve" font-family="Helvetica,Helvetica" font-size="22.0" fill="#F6F6F6" transform="matrix(1.00, 0.00, -0.00, -1.00, 390.3, 129.6)">a</text><text xml:space="preserve" font-family="Helvetica,Helvetica" font-size="22.0" fill="#F6F6F6" transform="matrix(1.00, 0.00, -0.00, -1.00, 402.6, 129.6)"> </text><text xml:space="preserve" font-family="Helvetica,Helvetica" font-size="22.0" fill="#F6F6F6" transform="matrix(1.00, 0.00, -0.00, -1.00, 140.2, 103.6)">a</text><text xml:space="preserve" font-family="Helvetica,Helvetica" font-size="22.0" fill="#F6F6F6" transform="matrix(1.00, 0.00, -0.00, -1.00, 152.4, 103.6)">l</text><text xml:space="preserve" font-family="Helvetica,Helvetica" font-size="22.0" fill="#F6F6F6" transform="matrix(1.00, 0.00, -0.00, -1.00, 157.3, 103.6)">i</text><text xml:space="preserve" font-family="Helvetica,Helvetica" font-size="22.0" fill="#F6F6F6" transform="matrix(1.00, 0.00, -0.00, -1.00, 162.2, 103.6)">q</text><text xml:space="preserve" font-family="Helvetica,Helvetica" font-size="22.0" fill="#F6F6F6" transform="matrix(1.00, 0.00, -0.00, -1.00, 174.4, 103.6)">u</text><text xml:space="preserve" font-family="Helvetica,Helvetica" font-size="22.0" fill="#F6F6F6" transform="matrix(1.00, 0.00, -0.00, -1.00, 186.7, 103.6)">a</text><text xml:space="preserve" font-family="Helvetica,Helvetica" font-size="22.0" fill="#F6F6F6" transform="matrix(1.00, 0.00, -0.00, -1.00, 198.9, 103.6)">m</text><text xml:space="preserve" font-family="Helvetica,Helvetica" font-size="22.0" fill="#F6F6F6" transform="matrix(1.00, 0.00, -0.00, -1.00, 217.2, 103.6)"> </text><text xml:space="preserve" font-family="Helvetica,Helvetica" font-size="22.0" fill="#F6F6F6" transform="matrix(1.00, 0.00, -0.00, -1.00, 223.3, 103.6)">e</text><text xml:space="preserve" font-family="Helvetica,Helvetica" font-size="22.0" fill="#F6F6F6" transform="matrix(1.00, 0.00, -0.00, -1.00, 235.6, 103.6)">r</text><text xml:space="preserve" font-family="Helvetica,Helvetica" font-size="22.0" fill="#F6F6F6" transform="matrix(1.00, 0.00, -0.00, -1.00, 242.9, 103.6)">a</text><text xml:space="preserve" font-family="Helvetica,Helvetica" font-size="22.0" fill="#F6F6F6" transform="matrix(1.00, 0.00, -0.00, -1.00, 255.1, 103.6)">t</text><text xml:space="preserve" font-family="Helvetica,Helvetica" font-size="22.0" fill="#F6F6F6" transform="matrix(1.00, 0.00, -0.00, -1.00, 261.3, 103.6)"> </text><text xml:space="preserve" font-family="Helvetica,Helvetica" font-size="22.0" fill="#F6F6F6" transform="matrix(1.00, 0.00, -0.00, -1.00, 267.4, 103.6)">v</text><text xml:space="preserve" font-family="Helvetica,Helvetica" font-size="22.0" fill="#F6F6F6" transform="matrix(1.00, 0.00, -0.00, -1.00, 278.4, 103.6)">o</text><text xml:space="preserve" font-family="Helvetica,Helvetica" font-size="22.0" fill="#F6F6F6" transform="matrix(1.00, 0.00, -0.00, -1.00, 290.6, 103.6)">l</text><text xml:space="preserve" font-family="Helvetica,Helvetica" font-size="22.0" fill="#F6F6F6" transform="matrix(1.00, 0.00, -0.00, -1.00, 295.5, 103.6)">u</text><text xml:space="preserve" font-family="Helvetica,Helvetica" font-size="22.0" fill="#F6F6F6" transform="matrix(1.00, 0.00, -0.00, -1.00, 307.7, 103.6)">t</text><text xml:space="preserve" font-family="Helvetica,Helvetica" font-size="22.0" fill="#F6F6F6" transform="matrix(1.00, 0.00, -0.00, -1.00, 313.8, 103.6)">p</text><text xml:space="preserve" font-family="Helvetica,Helvetica" font-size="22.0" fill="#F6F6F6" transform="matrix(1.00, 0.00, -0.00, -1.00, 326.1, 103.6)">a</text><text xml:space="preserve" font-family="Helvetica,Helvetica" font-size="22.0" fill="#F6F6F6" transform="matrix(1.00, 0.00, -0.00, -1.00, 338.3, 103.6)">t</text></g></g><g><clipPath id="clip0x618004ab4700"><path d="M 119.2 256.8 L 365.4 256.8 L 365.4 477.8 L 119.2 477.8 Z M 119.2 256.8 "></path></clipPath><g clip-path="url(#clip0x618004ab4700)"><text xml:space="preserve" font-family="Helvetica,Helvetica" font-size="130.0" fill="#398EA2" transform="matrix(1.00, 0.00, -0.00, -1.00, 152.2, 319.2)">7</text><text xml:space="preserve" font-family="Helvetica,Helvetica" font-size="130.0" fill="#398EA2" transform="matrix(1.00, 0.00, -0.00, -1.00, 224.5, 319.2)">5</text><text xml:space="preserve" font-family="Helvetica,Helvetica" font-size="40.0" fill="#398EA2" transform="matrix(1.00, 0.00, -0.00, -1.00, 296.8, 319.2)">%</text></g></g></g></svg>