<?xml version="1.0" encoding="UTF-8" standalone="no"?><svg xmlns="http://www.w3.org/2000/svg" xmlns:xlink="http://www.w3.org/1999/xlink" clip-rule="evenodd" stroke-miterlimit="10" viewBox="0 0 1615 44"><desc>SVG generated by Keynote</desc><defs></defs><g transform="matrix(1.00, 0.00, -0.00, -1.00, 0.0, 44.0)"><text xml:space="preserve" font-family="FontAwesome,FontAwesome" font-size="40.0" fill="#F6F6F6" transform="matrix(1.00, 0.00, -0.00, -1.00, 2.3, 8.2)"> </text><text xml:space="preserve" font-family="FontAwesome,FontAwesome" font-size="40.0" fill="#F6F6F6" transform="matrix(1.00, 0.00, -0.00, -1.00, 12.3, 8.2)"> </text><text xml:space="preserve" font-family="FontAwesome,FontAwesome" font-size="40.0" fill="#F6F6F6" transform="matrix(1.00, 0.00, -0.00, -1.00, 22.3, 8.2)"> </text><text xml:space="preserve" font-family="FontAwesome,FontAwesome" font-size="40.0" fill="#F6F6F6" transform="matrix(1.00, 0.00, -0.00, -1.00, 32.3, 8.2)"> </text><text xml:space="preserve" font-family="FontAwesome,FontAwesome" font-size="40.0" fill="#F6F6F6" transform="matrix(1.00, 0.00, -0.00, -1.00, 42.3, 8.2)"> </text><text xml:space="preserve" font-family="FontAwesome,FontAwesome" font-size="40.0" fill="#F6F6F6" transform="matrix(1.00, 0.00, -0.00, -1.00, 52.3, 8.2)"> </text><text xml:space="preserve" font-family="FontAwesome,FontAwesome" font-size="40.0" fill="#F6F6F6" transform="matrix(1.00, 0.00, -0.00, -1.00, 62.3, 8.2)"> </text><text xml:space="preserve" font-family="FontAwesome,FontAwesome" font-size="40.0" fill="#F6F6F6" transform="matrix(1.00, 0.00, -0.00, -1.00, 72.3, 8.2)"> </text><text xml:space="preserve" font-family="FontAwesome,FontAwesome" font-size="40.0" fill="#F6F6F6" transform="matrix(1.00, 0.00, -0.00, -1.00, 82.3, 8.2)"> </text><text xml:space="preserve" font-family="FontAwesome,FontAwesome" font-size="40.0" fill="#F6F6F6" transform="matrix(1.00, 0.00, -0.00, -1.00, 92.3, 8.2)"> </text><text xml:space="preserve" font-family="FontAwesome,FontAwesome" font-size="40.0" fill="#F6F6F6" transform="matrix(1.00, 0.00, -0.00, -1.00, 102.3, 8.2)"> </text><text xml:space="preserve" font-family="FontAwesome,FontAwesome" font-size="40.0" fill="#F6F6F6" transform="matrix(1.00, 0.00, -0.00, -1.00, 112.3, 8.2)"> </text><text xml:space="preserve" font-family="FontAwesome,FontAwesome" font-size="40.0" fill="#F6F6F6" transform="matrix(1.00, 0.00, -0.00, -1.00, 122.2, 8.2)"> </text><text xml:space="preserve" font-family="FontAwesome,FontAwesome" font-size="40.0" fill="#F6F6F6" transform="matrix(1.00, 0.00, -0.00, -1.00, 132.2, 8.2)"> </text><text xml:space="preserve" font-family="FontAwesome,FontAwesome" font-size="40.0" fill="#F6F6F6" transform="matrix(1.00, 0.00, -0.00, -1.00, 142.2, 8.2)"> </text><text xml:space="preserve" font-family="FontAwesome,FontAwesome" font-size="40.0" fill="#F6F6F6" transform="matrix(1.00, 0.00, -0.00, -1.00, 152.2, 8.2)"> </text><text xml:space="preserve" font-family="FontAwesome,FontAwesome" font-size="40.0" fill="#F6F6F6" transform="matrix(1.00, 0.00, -0.00, -1.00, 162.3, 8.2)"> </text><text xml:space="preserve" font-family="FontAwesome,FontAwesome" font-size="40.0" fill="#F6F6F6" transform="matrix(1.00, 0.00, -0.00, -1.00, 172.3, 8.2)"> </text><text xml:space="preserve" font-family="FontAwesome,FontAwesome" font-size="40.0" fill="#F6F6F6" transform="matrix(1.00, 0.00, -0.00, -1.00, 182.3, 8.2)">○</text><text xml:space="preserve" font-family="FontAwesome,FontAwesome" font-size="40.0" fill="#F6F6F6" transform="matrix(1.00, 0.00, -0.00, -1.00, 205.4, 8.2)"> </text><text xml:space="preserve" font-family="FontAwesome,FontAwesome" font-size="40.0" fill="#F6F6F6" transform="matrix(1.00, 0.00, -0.00, -1.00, 215.4, 8.2)"> </text><text xml:space="preserve" font-family="FontAwesome,FontAwesome" font-size="40.0" fill="#F6F6F6" transform="matrix(1.00, 0.00, -0.00, -1.00, 225.4, 8.2)">○</text><text xml:space="preserve" font-family="FontAwesome,FontAwesome" font-size="40.0" fill="#F6F6F6" transform="matrix(1.00, 0.00, -0.00, -1.00, 248.5, 8.2)">␣</text><text xml:space="preserve" font-family="FontAwesome,FontAwesome" font-size="40.0" fill="#F6F6F6" transform="matrix(1.00, 0.00, -0.00, -1.00, 261.2, 8.2)"> </text><text xml:space="preserve" font-family="FontAwesome,FontAwesome" font-size="40.0" fill="#F6F6F6" transform="matrix(1.00, 0.00, -0.00, -1.00, 271.2, 8.2)"> </text><text xml:space="preserve" font-family="FontAwesome,FontAwesome" font-size="40.0" fill="#F6F6F6" transform="matrix(1.00, 0.00, -0.00, -1.00, 281.2, 8.2)"> </text><text xml:space="preserve" font-family="FontAwesome,FontAwesome" font-size="40.0" fill="#F6F6F6" transform="matrix(1.00, 0.00, -0.00, -1.00, 291.2, 8.2)"> </text><text xml:space="preserve" font-family="FontAwesome,FontAwesome" font-size="40.0" fill="#F6F6F6" transform="matrix(1.00, 0.00, -0.00, -1.00, 301.2, 8.2)"> </text><text xml:space="preserve" font-family="FontAwesome,FontAwesome" font-size="40.0" fill="#F6F6F6" transform="matrix(1.00, 0.00, -0.00, -1.00, 311.2, 8.2)"> </text><text xml:space="preserve" font-family="FontAwesome,FontAwesome" font-size="40.0" fill="#F6F6F6" transform="matrix(1.00, 0.00, -0.00, -1.00, 321.2, 8.2)"> </text><text xml:space="preserve" font-family="FontAwesome,FontAwesome" font-size="40.0" fill="#F6F6F6" transform="matrix(1.00, 0.00, -0.00, -1.00, 331.2, 8.2)"> </text><text xml:space="preserve" font-family="FontAwesome,FontAwesome" font-size="40.0" fill="#F6F6F6" transform="matrix(1.00, 0.00, -0.00, -1.00, 341.2, 8.2)"> </text><text xml:space="preserve" font-family="FontAwesome,FontAwesome" font-size="40.0" fill="#F6F6F6" transform="matrix(1.00, 0.00, -0.00, -1.00, 351.2, 8.2)"> </text><text xml:space="preserve" font-family="FontAwesome,FontAwesome" font-size="40.0" fill="#F6F6F6" transform="matrix(1.00, 0.00, -0.00, -1.00, 361.2, 8.2)"> </text><text xml:space="preserve" font-family="FontAwesome,FontAwesome" font-size="40.0" fill="#F6F6F6" transform="matrix(1.00, 0.00, -0.00, -1.00, 371.2, 8.2)"> </text><text xml:space="preserve" font-family="FontAwesome,FontAwesome" font-size="40.0" fill="#F6F6F6" transform="matrix(1.00, 0.00, -0.00, -1.00, 381.2, 8.2)"> </text><text xml:space="preserve" font-family="FontAwesome,FontAwesome" font-size="40.0" fill="#F6F6F6" transform="matrix(1.00, 0.00, -0.00, -1.00, 391.2, 8.2)"> </text><text xml:space="preserve" font-family="FontAwesome,FontAwesome" font-size="40.0" fill="#F6F6F6" transform="matrix(1.00, 0.00, -0.00, -1.00, 401.2, 8.2)"> </text><text xml:space="preserve" font-family="FontAwesome,FontAwesome" font-size="40.0" fill="#F6F6F6" transform="matrix(1.00, 0.00, -0.00, -1.00, 411.2, 8.2)"> </text><text xml:space="preserve" font-family="FontAwesome,FontAwesome" font-size="40.0" fill="#F6F6F6" transform="matrix(1.00, 0.00, -0.00, -1.00, 421.2, 8.2)"> </text><text xml:space="preserve" font-family="FontAwesome,FontAwesome" font-size="40.0" fill="#F6F6F6" transform="matrix(1.00, 0.00, -0.00, -1.00, 431.2, 8.2)"> </text><text xml:space="preserve" font-family="FontAwesome,FontAwesome" font-size="40.0" fill="#F6F6F6" transform="matrix(1.00, 0.00, -0.00, -1.00, 441.2, 8.2)"> </text><text xml:space="preserve" font-family="FontAwesome,FontAwesome" font-size="40.0" fill="#F6F6F6" transform="matrix(1.00, 0.00, -0.00, -1.00, 451.2, 8.2)"> </text><text xml:space="preserve" font-family="FontAwesome,FontAwesome" font-size="40.0" fill="#F6F6F6" transform="matrix(1.00, 0.00, -0.00, -1.00, 461.2, 8.2)"> </text><text xml:space="preserve" font-family="FontAwesome,FontAwesome" font-size="40.0" fill="#F6F6F6" transform="matrix(1.00, 0.00, -0.00, -1.00, 471.2, 8.2)"> </text><text xml:space="preserve" font-family="FontAwesome,FontAwesome" font-size="40.0" fill="#F6F6F6" transform="matrix(1.00, 0.00, -0.00, -1.00, 481.2, 8.2)"> </text><text xml:space="preserve" font-family="FontAwesome,FontAwesome" font-size="40.0" fill="#F6F6F6" transform="matrix(1.00, 0.00, -0.00, -1.00, 491.2, 8.2)"> </text><text xml:space="preserve" font-family="FontAwesome,FontAwesome" font-size="40.0" fill="#F6F6F6" transform="matrix(1.00, 0.00, -0.00, -1.00, 501.2, 8.2)"> </text><text xml:space="preserve" font-family="FontAwesome,FontAwesome" font-size="40.0" fill="#F6F6F6" transform="matrix(1.00, 0.00, -0.00, -1.00, 511.2, 8.2)"> </text><text xml:space="preserve" font-family="FontAwesome,FontAwesome" font-size="40.0" fill="#F6F6F6" transform="matrix(1.00, 0.00, -0.00, -1.00, 521.2, 8.2)"> </text><text xml:space="preserve" font-family="FontAwesome,FontAwesome" font-size="40.0" fill="#F6F6F6" transform="matrix(1.00, 0.00, -0.00, -1.00, 531.2, 8.2)"> </text><text xml:space="preserve" font-family="FontAwesome,FontAwesome" font-size="40.0" fill="#F6F6F6" transform="matrix(1.00, 0.00, -0.00, -1.00, 541.2, 8.2)"> </text><text xml:space="preserve" font-family="FontAwesome,FontAwesome" font-size="40.0" fill="#F6F6F6" transform="matrix(1.00, 0.00, -0.00, -1.00, 551.2, 8.2)"> </text><text xml:space="preserve" font-family="FontAwesome,FontAwesome" font-size="40.0" fill="#F6F6F6" transform="matrix(1.00, 0.00, -0.00, -1.00, 561.3, 8.2)"> </text><text xml:space="preserve" font-family="FontAwesome,FontAwesome" font-size="40.0" fill="#F6F6F6" transform="matrix(1.00, 0.00, -0.00, -1.00, 571.3, 8.2)"> </text><text xml:space="preserve" font-family="FontAwesome,FontAwesome" font-size="40.0" fill="#F6F6F6" transform="matrix(1.00, 0.00, -0.00, -1.00, 581.3, 8.2)"> </text><text xml:space="preserve" font-family="FontAwesome,FontAwesome" font-size="40.0" fill="#F6F6F6" transform="matrix(1.00, 0.00, -0.00, -1.00, 591.3, 8.2)"> </text></g></svg>