<?xml version="1.0" encoding="UTF-8" standalone="no"?><svg xmlns="http://www.w3.org/2000/svg" xmlns:xlink="http://www.w3.org/1999/xlink" clip-rule="evenodd" stroke-miterlimit="10" viewBox="0 0 1577 44"><desc>SVG generated by Keynote</desc><defs></defs><g transform="matrix(1.00, 0.00, -0.00, -1.00, 0.0, 44.0)"><text xml:space="preserve" font-family="FontAwesome,FontAwesome" font-size="40.0" fill="#F6F6F6" transform="matrix(1.00, 0.00, -0.00, -1.00, 1.6, 8.5)"> </text><text xml:space="preserve" font-family="FontAwesome,FontAwesome" font-size="40.0" fill="#F6F6F6" transform="matrix(1.00, 0.00, -0.00, -1.00, 11.6, 8.5)"> </text><text xml:space="preserve" font-family="FontAwesome,FontAwesome" font-size="40.0" fill="#F6F6F6" transform="matrix(1.00, 0.00, -0.00, -1.00, 21.6, 8.5)"> </text><text xml:space="preserve" font-family="FontAwesome,FontAwesome" font-size="40.0" fill="#F6F6F6" transform="matrix(1.00, 0.00, -0.00, -1.00, 31.6, 8.5)"> </text><text xml:space="preserve" font-family="FontAwesome,FontAwesome" font-size="40.0" fill="#F6F6F6" transform="matrix(1.00, 0.00, -0.00, -1.00, 41.6, 8.5)"> </text><text xml:space="preserve" font-family="FontAwesome,FontAwesome" font-size="40.0" fill="#F6F6F6" transform="matrix(1.00, 0.00, -0.00, -1.00, 51.6, 8.5)"> </text><text xml:space="preserve" font-family="FontAwesome,FontAwesome" font-size="40.0" fill="#F6F6F6" transform="matrix(1.00, 0.00, -0.00, -1.00, 61.6, 8.5)"> </text><text xml:space="preserve" font-family="FontAwesome,FontAwesome" font-size="40.0" fill="#F6F6F6" transform="matrix(1.00, 0.00, -0.00, -1.00, 71.6, 8.5)"> </text><text xml:space="preserve" font-family="FontAwesome,FontAwesome" font-size="40.0" fill="#F6F6F6" transform="matrix(1.00, 0.00, -0.00, -1.00, 81.6, 8.5)"> </text><text xml:space="preserve" font-family="FontAwesome,FontAwesome" font-size="40.0" fill="#F6F6F6" transform="matrix(1.00, 0.00, -0.00, -1.00, 91.6, 8.5)"> </text><text xml:space="preserve" font-family="FontAwesome,FontAwesome" font-size="40.0" fill="#F6F6F6" transform="matrix(1.00, 0.00, -0.00, -1.00, 101.6, 8.5)"> </text><text xml:space="preserve" font-family="FontAwesome,FontAwesome" font-size="40.0" fill="#F6F6F6" transform="matrix(1.00, 0.00, -0.00, -1.00, 111.6, 8.5)"> </text><text xml:space="preserve" font-family="FontAwesome,FontAwesome" font-size="40.0" fill="#F6F6F6" transform="matrix(1.00, 0.00, -0.00, -1.00, 121.6, 8.5)"> </text><text xml:space="preserve" font-family="FontAwesome,FontAwesome" font-size="40.0" fill="#F6F6F6" transform="matrix(1.00, 0.00, -0.00, -1.00, 131.6, 8.5)"> </text><text xml:space="preserve" font-family="FontAwesome,FontAwesome" font-size="40.0" fill="#F6F6F6" transform="matrix(1.00, 0.00, -0.00, -1.00, 141.6, 8.5)"> </text><text xml:space="preserve" font-family="FontAwesome,FontAwesome" font-size="40.0" fill="#F6F6F6" transform="matrix(1.00, 0.00, -0.00, -1.00, 151.6, 8.5)"> </text><text xml:space="preserve" font-family="FontAwesome,FontAwesome" font-size="40.0" fill="#F6F6F6" transform="matrix(1.00, 0.00, -0.00, -1.00, 161.6, 8.5)"> </text><text xml:space="preserve" font-family="FontAwesome,FontAwesome" font-size="40.0" fill="#F6F6F6" transform="matrix(1.00, 0.00, -0.00, -1.00, 171.6, 8.5)"> </text><text xml:space="preserve" font-family="FontAwesome,FontAwesome" font-size="40.0" fill="#F6F6F6" transform="matrix(1.00, 0.00, -0.00, -1.00, 181.6, 8.5)"> </text><text xml:space="preserve" font-family="FontAwesome,FontAwesome" font-size="40.0" fill="#F6F6F6" transform="matrix(1.00, 0.00, -0.00, -1.00, 191.6, 8.5)">∠</text><text xml:space="preserve" font-family="FontAwesome,FontAwesome" font-size="40.0" fill="#F6F6F6" transform="matrix(1.00, 0.00, -0.00, -1.00, 215.5, 8.5)"> </text><text xml:space="preserve" font-family="FontAwesome,FontAwesome" font-size="40.0" fill="#F6F6F6" transform="matrix(1.00, 0.00, -0.00, -1.00, 225.5, 8.5)"> </text><text xml:space="preserve" font-family="FontAwesome,FontAwesome" font-size="40.0" fill="#F6F6F6" transform="matrix(1.00, 0.00, -0.00, -1.00, 235.5, 8.5)">∠</text><text xml:space="preserve" font-family="FontAwesome,FontAwesome" font-size="40.0" fill="#F6F6F6" transform="matrix(1.00, 0.00, -0.00, -1.00, 259.4, 8.5)"> </text><text xml:space="preserve" font-family="FontAwesome,FontAwesome" font-size="40.0" fill="#F6F6F6" transform="matrix(1.00, 0.00, -0.00, -1.00, 269.4, 8.5)"> </text><text xml:space="preserve" font-family="FontAwesome,FontAwesome" font-size="40.0" fill="#F6F6F6" transform="matrix(1.00, 0.00, -0.00, -1.00, 279.4, 8.5)">∠</text><text xml:space="preserve" font-family="FontAwesome,FontAwesome" font-size="40.0" fill="#F6F6F6" transform="matrix(1.00, 0.00, -0.00, -1.00, 303.3, 8.5)"> </text><text xml:space="preserve" font-family="FontAwesome,FontAwesome" font-size="40.0" fill="#F6F6F6" transform="matrix(1.00, 0.00, -0.00, -1.00, 313.3, 8.5)"> </text><text xml:space="preserve" font-family="FontAwesome,FontAwesome" font-size="40.0" fill="#F6F6F6" transform="matrix(1.00, 0.00, -0.00, -1.00, 323.3, 8.5)">∠</text><text xml:space="preserve" font-family="FontAwesome,FontAwesome" font-size="40.0" fill="#F6F6F6" transform="matrix(1.00, 0.00, -0.00, -1.00, 347.2, 8.5)"> </text><text xml:space="preserve" font-family="FontAwesome,FontAwesome" font-size="40.0" fill="#F6F6F6" transform="matrix(1.00, 0.00, -0.00, -1.00, 357.2, 8.5)"> </text><text xml:space="preserve" font-family="FontAwesome,FontAwesome" font-size="40.0" fill="#F6F6F6" transform="matrix(1.00, 0.00, -0.00, -1.00, 367.2, 8.5)">∠</text><text xml:space="preserve" font-family="FontAwesome,FontAwesome" font-size="40.0" fill="#F6F6F6" transform="matrix(1.00, 0.00, -0.00, -1.00, 391.1, 8.5)"> </text><text xml:space="preserve" font-family="FontAwesome,FontAwesome" font-size="40.0" fill="#F6F6F6" transform="matrix(1.00, 0.00, -0.00, -1.00, 401.1, 8.5)"> </text><text xml:space="preserve" font-family="FontAwesome,FontAwesome" font-size="40.0" fill="#F6F6F6" transform="matrix(1.00, 0.00, -0.00, -1.00, 411.1, 8.5)">∠</text><text xml:space="preserve" font-family="FontAwesome,FontAwesome" font-size="40.0" fill="#F6F6F6" transform="matrix(1.00, 0.00, -0.00, -1.00, 435.0, 8.5)"> </text><text xml:space="preserve" font-family="FontAwesome,FontAwesome" font-size="40.0" fill="#F6F6F6" transform="matrix(1.00, 0.00, -0.00, -1.00, 445.0, 8.5)"> </text><text xml:space="preserve" font-family="FontAwesome,FontAwesome" font-size="40.0" fill="#F6F6F6" transform="matrix(1.00, 0.00, -0.00, -1.00, 455.0, 8.5)">∠</text><text xml:space="preserve" font-family="FontAwesome,FontAwesome" font-size="40.0" fill="#F6F6F6" transform="matrix(1.00, 0.00, -0.00, -1.00, 478.9, 8.5)"> </text><text xml:space="preserve" font-family="FontAwesome,FontAwesome" font-size="40.0" fill="#F6F6F6" transform="matrix(1.00, 0.00, -0.00, -1.00, 488.9, 8.5)"> </text><text xml:space="preserve" font-family="FontAwesome,FontAwesome" font-size="40.0" fill="#F6F6F6" transform="matrix(1.00, 0.00, -0.00, -1.00, 498.9, 8.5)">∠</text><text xml:space="preserve" font-family="FontAwesome,FontAwesome" font-size="40.0" fill="#F6F6F6" transform="matrix(1.00, 0.00, -0.00, -1.00, 522.9, 8.5)"> </text><text xml:space="preserve" font-family="FontAwesome,FontAwesome" font-size="40.0" fill="#F6F6F6" transform="matrix(1.00, 0.00, -0.00, -1.00, 532.9, 8.5)"> </text><text xml:space="preserve" font-family="FontAwesome,FontAwesome" font-size="40.0" fill="#F6F6F6" transform="matrix(1.00, 0.00, -0.00, -1.00, 542.9, 8.5)"></text><text xml:space="preserve" font-family="FontAwesome,FontAwesome" font-size="40.0" fill="#F6F6F6" transform="matrix(1.00, 0.00, -0.00, -1.00, 582.8, 8.5)"> </text><text xml:space="preserve" font-family="FontAwesome,FontAwesome" font-size="40.0" fill="#F6F6F6" transform="matrix(1.00, 0.00, -0.00, -1.00, 592.8, 8.5)"> </text><text xml:space="preserve" font-family="FontAwesome,FontAwesome" font-size="40.0" fill="#F6F6F6" transform="matrix(1.00, 0.00, -0.00, -1.00, 602.8, 8.5)"> </text><text xml:space="preserve" font-family="FontAwesome,FontAwesome" font-size="40.0" fill="#F6F6F6" transform="matrix(1.00, 0.00, -0.00, -1.00, 612.8, 8.5)"> </text><text xml:space="preserve" font-family="FontAwesome,FontAwesome" font-size="40.0" fill="#F6F6F6" transform="matrix(1.00, 0.00, -0.00, -1.00, 622.8, 8.5)">○</text><text xml:space="preserve" font-family="FontAwesome,FontAwesome" font-size="40.0" fill="#F6F6F6" transform="matrix(1.00, 0.00, -0.00, -1.00, 646.0, 8.5)"> </text><text xml:space="preserve" font-family="FontAwesome,FontAwesome" font-size="40.0" fill="#F6F6F6" transform="matrix(1.00, 0.00, -0.00, -1.00, 656.0, 8.5)"> </text><text xml:space="preserve" font-family="FontAwesome,FontAwesome" font-size="40.0" fill="#F6F6F6" transform="matrix(1.00, 0.00, -0.00, -1.00, 666.0, 8.5)">○</text><text xml:space="preserve" font-family="FontAwesome,FontAwesome" font-size="40.0" fill="#F6F6F6" transform="matrix(1.00, 0.00, -0.00, -1.00, 689.1, 8.5)"> </text><text xml:space="preserve" font-family="FontAwesome,FontAwesome" font-size="40.0" fill="#F6F6F6" transform="matrix(1.00, 0.00, -0.00, -1.00, 699.1, 8.5)"> </text><text xml:space="preserve" font-family="FontAwesome,FontAwesome" font-size="40.0" fill="#F6F6F6" transform="matrix(1.00, 0.00, -0.00, -1.00, 709.1, 8.5)"> </text><text xml:space="preserve" font-family="FontAwesome,FontAwesome" font-size="40.0" fill="#F6F6F6" transform="matrix(1.00, 0.00, -0.00, -1.00, 719.1, 8.5)"> </text><text xml:space="preserve" font-family="FontAwesome,FontAwesome" font-size="40.0" fill="#F6F6F6" transform="matrix(1.00, 0.00, -0.00, -1.00, 729.1, 8.5)">○</text><text xml:space="preserve" font-family="FontAwesome,FontAwesome" font-size="40.0" fill="#F6F6F6" transform="matrix(1.00, 0.00, -0.00, -1.00, 752.2, 8.5)"> </text><text xml:space="preserve" font-family="FontAwesome,FontAwesome" font-size="40.0" fill="#F6F6F6" transform="matrix(1.00, 0.00, -0.00, -1.00, 762.2, 8.5)"> </text><text xml:space="preserve" font-family="FontAwesome,FontAwesome" font-size="40.0" fill="#F6F6F6" transform="matrix(1.00, 0.00, -0.00, -1.00, 772.2, 8.5)"> </text><text xml:space="preserve" font-family="FontAwesome,FontAwesome" font-size="40.0" fill="#F6F6F6" transform="matrix(1.00, 0.00, -0.00, -1.00, 782.2, 8.5)"> </text><text xml:space="preserve" font-family="FontAwesome,FontAwesome" font-size="40.0" fill="#F6F6F6" transform="matrix(1.00, 0.00, -0.00, -1.00, 792.2, 8.5)"> </text><text xml:space="preserve" font-family="FontAwesome,FontAwesome" font-size="40.0" fill="#F6F6F6" transform="matrix(1.00, 0.00, -0.00, -1.00, 802.2, 8.5)"> </text><text xml:space="preserve" font-family="FontAwesome,FontAwesome" font-size="40.0" fill="#F6F6F6" transform="matrix(1.00, 0.00, -0.00, -1.00, 812.2, 8.5)">○</text><text xml:space="preserve" font-family="FontAwesome,FontAwesome" font-size="40.0" fill="#F6F6F6" transform="matrix(1.00, 0.00, -0.00, -1.00, 835.4, 8.5)"> </text><text xml:space="preserve" font-family="FontAwesome,FontAwesome" font-size="40.0" fill="#F6F6F6" transform="matrix(1.00, 0.00, -0.00, -1.00, 845.4, 8.5)"> </text><text xml:space="preserve" font-family="FontAwesome,FontAwesome" font-size="40.0" fill="#F6F6F6" transform="matrix(1.00, 0.00, -0.00, -1.00, 855.4, 8.5)"> </text><text xml:space="preserve" font-family="FontAwesome,FontAwesome" font-size="40.0" fill="#F6F6F6" transform="matrix(1.00, 0.00, -0.00, -1.00, 865.4, 8.5)"> </text><text xml:space="preserve" font-family="FontAwesome,FontAwesome" font-size="40.0" fill="#F6F6F6" transform="matrix(1.00, 0.00, -0.00, -1.00, 875.4, 8.5)"> </text><text xml:space="preserve" font-family="FontAwesome,FontAwesome" font-size="40.0" fill="#F6F6F6" transform="matrix(1.00, 0.00, -0.00, -1.00, 885.4, 8.5)"> </text><text xml:space="preserve" font-family="FontAwesome,FontAwesome" font-size="40.0" fill="#F6F6F6" transform="matrix(1.00, 0.00, -0.00, -1.00, 895.4, 8.5)"> </text><text xml:space="preserve" font-family="FontAwesome,FontAwesome" font-size="40.0" fill="#F6F6F6" transform="matrix(1.00, 0.00, -0.00, -1.00, 905.4, 8.5)"> </text></g></svg>