<?xml version="1.0" encoding="UTF-8" standalone="no"?><svg xmlns="http://www.w3.org/2000/svg" xmlns:xlink="http://www.w3.org/1999/xlink" clip-rule="evenodd" stroke-miterlimit="10" viewBox="0 0 1620 44"><desc>SVG generated by Keynote</desc><defs></defs><g transform="matrix(1.00, 0.00, -0.00, -1.00, 0.0, 44.0)"><text xml:space="preserve" font-family="FontAwesome,FontAwesome" font-size="40.0" fill="#F6F6F6" transform="matrix(1.00, 0.00, -0.00, -1.00, 1.4, 7.9)"> </text><text xml:space="preserve" font-family="FontAwesome,FontAwesome" font-size="40.0" fill="#F6F6F6" transform="matrix(1.00, 0.00, -0.00, -1.00, 11.4, 7.9)"> </text><text xml:space="preserve" font-family="FontAwesome,FontAwesome" font-size="40.0" fill="#F6F6F6" transform="matrix(1.00, 0.00, -0.00, -1.00, 21.4, 7.9)">*</text><text xml:space="preserve" font-family="FontAwesome,FontAwesome" font-size="40.0" fill="#F6F6F6" transform="matrix(1.00, 0.00, -0.00, -1.00, 40.7, 7.9)"> </text><text xml:space="preserve" font-family="FontAwesome,FontAwesome" font-size="40.0" fill="#F6F6F6" transform="matrix(1.00, 0.00, -0.00, -1.00, 50.7, 7.9)"> </text><text xml:space="preserve" font-family="FontAwesome,FontAwesome" font-size="40.0" fill="#F6F6F6" transform="matrix(1.00, 0.00, -0.00, -1.00, 60.7, 7.9)"> </text><text xml:space="preserve" font-family="FontAwesome,FontAwesome" font-size="40.0" fill="#F6F6F6" transform="matrix(1.00, 0.00, -0.00, -1.00, 70.7, 7.9)"> </text><text xml:space="preserve" font-family="FontAwesome,FontAwesome" font-size="40.0" fill="#F6F6F6" transform="matrix(1.00, 0.00, -0.00, -1.00, 80.7, 7.9)"> </text><text xml:space="preserve" font-family="FontAwesome,FontAwesome" font-size="40.0" fill="#F6F6F6" transform="matrix(1.00, 0.00, -0.00, -1.00, 90.7, 7.9)"> </text><text xml:space="preserve" font-family="FontAwesome,FontAwesome" font-size="40.0" fill="#F6F6F6" transform="matrix(1.00, 0.00, -0.00, -1.00, 100.7, 7.9)">○</text><text xml:space="preserve" font-family="FontAwesome,FontAwesome" font-size="40.0" fill="#F6F6F6" transform="matrix(1.00, 0.00, -0.00, -1.00, 123.8, 7.9)"> </text><text xml:space="preserve" font-family="FontAwesome,FontAwesome" font-size="40.0" fill="#F6F6F6" transform="matrix(1.00, 0.00, -0.00, -1.00, 133.8, 7.9)"> </text><text xml:space="preserve" font-family="FontAwesome,FontAwesome" font-size="40.0" fill="#F6F6F6" transform="matrix(1.00, 0.00, -0.00, -1.00, 143.8, 7.9)"> </text><text xml:space="preserve" font-family="FontAwesome,FontAwesome" font-size="40.0" fill="#F6F6F6" transform="matrix(1.00, 0.00, -0.00, -1.00, 153.8, 7.9)"> </text><text xml:space="preserve" font-family="FontAwesome,FontAwesome" font-size="40.0" fill="#F6F6F6" transform="matrix(1.00, 0.00, -0.00, -1.00, 163.8, 7.9)">|</text><text xml:space="preserve" font-family="FontAwesome,FontAwesome" font-size="40.0" fill="#F6F6F6" transform="matrix(1.00, 0.00, -0.00, -1.00, 178.7, 7.9)"> </text><text xml:space="preserve" font-family="FontAwesome,FontAwesome" font-size="40.0" fill="#F6F6F6" transform="matrix(1.00, 0.00, -0.00, -1.00, 188.7, 7.9)"> </text><text xml:space="preserve" font-family="FontAwesome,FontAwesome" font-size="40.0" fill="#F6F6F6" transform="matrix(1.00, 0.00, -0.00, -1.00, 198.7, 7.9)">|</text><text xml:space="preserve" font-family="FontAwesome,FontAwesome" font-size="40.0" fill="#F6F6F6" transform="matrix(1.00, 0.00, -0.00, -1.00, 213.7, 7.9)"> </text><text xml:space="preserve" font-family="FontAwesome,FontAwesome" font-size="40.0" fill="#F6F6F6" transform="matrix(1.00, 0.00, -0.00, -1.00, 223.7, 7.9)"> </text><text xml:space="preserve" font-family="FontAwesome,FontAwesome" font-size="40.0" fill="#F6F6F6" transform="matrix(1.00, 0.00, -0.00, -1.00, 233.7, 7.9)"> </text><text xml:space="preserve" font-family="FontAwesome,FontAwesome" font-size="40.0" fill="#F6F6F6" transform="matrix(1.00, 0.00, -0.00, -1.00, 243.7, 7.9)"> </text><text xml:space="preserve" font-family="FontAwesome,FontAwesome" font-size="40.0" fill="#F6F6F6" transform="matrix(1.00, 0.00, -0.00, -1.00, 253.7, 7.9)"> </text><text xml:space="preserve" font-family="FontAwesome,FontAwesome" font-size="40.0" fill="#F6F6F6" transform="matrix(1.00, 0.00, -0.00, -1.00, 263.7, 7.9)"> </text><text xml:space="preserve" font-family="FontAwesome,FontAwesome" font-size="40.0" fill="#F6F6F6" transform="matrix(1.00, 0.00, -0.00, -1.00, 273.6, 7.9)"> </text><text xml:space="preserve" font-family="FontAwesome,FontAwesome" font-size="40.0" fill="#F6F6F6" transform="matrix(1.00, 0.00, -0.00, -1.00, 283.6, 7.9)"> </text><text xml:space="preserve" font-family="FontAwesome,FontAwesome" font-size="40.0" fill="#F6F6F6" transform="matrix(1.00, 0.00, -0.00, -1.00, 293.6, 7.9)"> </text><text xml:space="preserve" font-family="FontAwesome,FontAwesome" font-size="40.0" fill="#F6F6F6" transform="matrix(1.00, 0.00, -0.00, -1.00, 303.6, 7.9)"> </text><text xml:space="preserve" font-family="FontAwesome,FontAwesome" font-size="40.0" fill="#F6F6F6" transform="matrix(1.00, 0.00, -0.00, -1.00, 313.6, 7.9)"> </text><text xml:space="preserve" font-family="FontAwesome,FontAwesome" font-size="40.0" fill="#F6F6F6" transform="matrix(1.00, 0.00, -0.00, -1.00, 323.6, 7.9)"> </text><text xml:space="preserve" font-family="FontAwesome,FontAwesome" font-size="40.0" fill="#F6F6F6" transform="matrix(1.00, 0.00, -0.00, -1.00, 333.6, 7.9)"> </text><text xml:space="preserve" font-family="FontAwesome,FontAwesome" font-size="40.0" fill="#F6F6F6" transform="matrix(1.00, 0.00, -0.00, -1.00, 343.6, 7.9)"> </text><text xml:space="preserve" font-family="FontAwesome,FontAwesome" font-size="40.0" fill="#F6F6F6" transform="matrix(1.00, 0.00, -0.00, -1.00, 353.6, 7.9)"> </text><text xml:space="preserve" font-family="FontAwesome,FontAwesome" font-size="40.0" fill="#F6F6F6" transform="matrix(1.00, 0.00, -0.00, -1.00, 363.6, 7.9)"> </text><text xml:space="preserve" font-family="FontAwesome,FontAwesome" font-size="40.0" fill="#F6F6F6" transform="matrix(1.00, 0.00, -0.00, -1.00, 373.6, 7.9)"> </text><text xml:space="preserve" font-family="FontAwesome,FontAwesome" font-size="40.0" fill="#F6F6F6" transform="matrix(1.00, 0.00, -0.00, -1.00, 383.6, 7.9)"> </text><text xml:space="preserve" font-family="FontAwesome,FontAwesome" font-size="40.0" fill="#F6F6F6" transform="matrix(1.00, 0.00, -0.00, -1.00, 393.6, 7.9)"> </text><text xml:space="preserve" font-family="FontAwesome,FontAwesome" font-size="40.0" fill="#F6F6F6" transform="matrix(1.00, 0.00, -0.00, -1.00, 403.6, 7.9)"> </text><text xml:space="preserve" font-family="FontAwesome,FontAwesome" font-size="40.0" fill="#F6F6F6" transform="matrix(1.00, 0.00, -0.00, -1.00, 413.6, 7.9)"> </text><text xml:space="preserve" font-family="FontAwesome,FontAwesome" font-size="40.0" fill="#F6F6F6" transform="matrix(1.00, 0.00, -0.00, -1.00, 423.6, 7.9)"> </text><text xml:space="preserve" font-family="FontAwesome,FontAwesome" font-size="40.0" fill="#F6F6F6" transform="matrix(1.00, 0.00, -0.00, -1.00, 433.6, 7.9)"> </text><text xml:space="preserve" font-family="FontAwesome,FontAwesome" font-size="40.0" fill="#F6F6F6" transform="matrix(1.00, 0.00, -0.00, -1.00, 443.6, 7.9)"> </text><text xml:space="preserve" font-family="FontAwesome,FontAwesome" font-size="40.0" fill="#F6F6F6" transform="matrix(1.00, 0.00, -0.00, -1.00, 453.6, 7.9)"> </text><text xml:space="preserve" font-family="FontAwesome,FontAwesome" font-size="40.0" fill="#F6F6F6" transform="matrix(1.00, 0.00, -0.00, -1.00, 463.6, 7.9)"> </text><text xml:space="preserve" font-family="FontAwesome,FontAwesome" font-size="40.0" fill="#F6F6F6" transform="matrix(1.00, 0.00, -0.00, -1.00, 473.6, 7.9)"> </text><text xml:space="preserve" font-family="FontAwesome,FontAwesome" font-size="40.0" fill="#F6F6F6" transform="matrix(1.00, 0.00, -0.00, -1.00, 483.6, 7.9)"> </text><text xml:space="preserve" font-family="FontAwesome,FontAwesome" font-size="40.0" fill="#F6F6F6" transform="matrix(1.00, 0.00, -0.00, -1.00, 493.6, 7.9)"> </text><text xml:space="preserve" font-family="FontAwesome,FontAwesome" font-size="40.0" fill="#F6F6F6" transform="matrix(1.00, 0.00, -0.00, -1.00, 503.6, 7.9)"> </text><text xml:space="preserve" font-family="FontAwesome,FontAwesome" font-size="40.0" fill="#F6F6F6" transform="matrix(1.00, 0.00, -0.00, -1.00, 513.6, 7.9)"> </text><text xml:space="preserve" font-family="FontAwesome,FontAwesome" font-size="40.0" fill="#F6F6F6" transform="matrix(1.00, 0.00, -0.00, -1.00, 523.6, 7.9)"> </text><text xml:space="preserve" font-family="FontAwesome,FontAwesome" font-size="40.0" fill="#F6F6F6" transform="matrix(1.00, 0.00, -0.00, -1.00, 533.6, 7.9)"> </text><text xml:space="preserve" font-family="FontAwesome,FontAwesome" font-size="40.0" fill="#F6F6F6" transform="matrix(1.00, 0.00, -0.00, -1.00, 543.6, 7.9)"> </text><text xml:space="preserve" font-family="FontAwesome,FontAwesome" font-size="40.0" fill="#F6F6F6" transform="matrix(1.00, 0.00, -0.00, -1.00, 553.6, 7.9)"> </text><text xml:space="preserve" font-family="FontAwesome,FontAwesome" font-size="40.0" fill="#F6F6F6" transform="matrix(1.00, 0.00, -0.00, -1.00, 563.6, 7.9)"> </text><text xml:space="preserve" font-family="FontAwesome,FontAwesome" font-size="40.0" fill="#F6F6F6" transform="matrix(1.00, 0.00, -0.00, -1.00, 573.6, 7.9)"> </text><text xml:space="preserve" font-family="FontAwesome,FontAwesome" font-size="40.0" fill="#F6F6F6" transform="matrix(1.00, 0.00, -0.00, -1.00, 583.6, 7.9)"> </text><text xml:space="preserve" font-family="FontAwesome,FontAwesome" font-size="40.0" fill="#F6F6F6" transform="matrix(1.00, 0.00, -0.00, -1.00, 593.6, 7.9)"> </text><text xml:space="preserve" font-family="FontAwesome,FontAwesome" font-size="40.0" fill="#F6F6F6" transform="matrix(1.00, 0.00, -0.00, -1.00, 603.6, 7.9)"> </text><text xml:space="preserve" font-family="FontAwesome,FontAwesome" font-size="40.0" fill="#F6F6F6" transform="matrix(1.00, 0.00, -0.00, -1.00, 613.6, 7.9)">◎</text><text xml:space="preserve" font-family="FontAwesome,FontAwesome" font-size="40.0" fill="#F6F6F6" transform="matrix(1.00, 0.00, -0.00, -1.00, 653.6, 7.9)"> </text><text xml:space="preserve" font-family="FontAwesome,FontAwesome" font-size="40.0" fill="#F6F6F6" transform="matrix(1.00, 0.00, -0.00, -1.00, 663.6, 7.9)"> </text></g></svg>