<?xml version="1.0" encoding="UTF-8" standalone="no"?><svg xmlns="http://www.w3.org/2000/svg" xmlns:xlink="http://www.w3.org/1999/xlink" clip-rule="evenodd" stroke-miterlimit="10" viewBox="0 0 1664 44"><desc>SVG generated by Keynote</desc><defs></defs><g transform="matrix(1.00, 0.00, -0.00, -1.00, 0.0, 44.0)"><text xml:space="preserve" font-family="FontAwesome,FontAwesome" font-size="40.0" fill="#F6F6F6" transform="matrix(1.00, 0.00, -0.00, -1.00, 2.0, 8.4)"> </text><text xml:space="preserve" font-family="FontAwesome,FontAwesome" font-size="40.0" fill="#F6F6F6" transform="matrix(1.00, 0.00, -0.00, -1.00, 12.0, 8.4)"> </text><text xml:space="preserve" font-family="FontAwesome,FontAwesome" font-size="40.0" fill="#F6F6F6" transform="matrix(1.00, 0.00, -0.00, -1.00, 22.0, 8.4)"> </text><text xml:space="preserve" font-family="FontAwesome,FontAwesome" font-size="40.0" fill="#F6F6F6" transform="matrix(1.00, 0.00, -0.00, -1.00, 32.0, 8.4)"> </text><text xml:space="preserve" font-family="FontAwesome,FontAwesome" font-size="40.0" fill="#F6F6F6" transform="matrix(1.00, 0.00, -0.00, -1.00, 42.0, 8.4)"> </text><text xml:space="preserve" font-family="FontAwesome,FontAwesome" font-size="40.0" fill="#F6F6F6" transform="matrix(1.00, 0.00, -0.00, -1.00, 52.0, 8.4)"> </text><text xml:space="preserve" font-family="FontAwesome,FontAwesome" font-size="40.0" fill="#F6F6F6" transform="matrix(1.00, 0.00, -0.00, -1.00, 62.0, 8.4)"> </text><text xml:space="preserve" font-family="FontAwesome,FontAwesome" font-size="40.0" fill="#F6F6F6" transform="matrix(1.00, 0.00, -0.00, -1.00, 72.0, 8.4)"> </text><text xml:space="preserve" font-family="FontAwesome,FontAwesome" font-size="40.0" fill="#F6F6F6" transform="matrix(1.00, 0.00, -0.00, -1.00, 82.0, 8.4)"> </text><text xml:space="preserve" font-family="FontAwesome,FontAwesome" font-size="40.0" fill="#F6F6F6" transform="matrix(1.00, 0.00, -0.00, -1.00, 92.0, 8.4)"> </text><text xml:space="preserve" font-family="FontAwesome,FontAwesome" font-size="40.0" fill="#F6F6F6" transform="matrix(1.00, 0.00, -0.00, -1.00, 102.0, 8.4)"> </text><text xml:space="preserve" font-family="FontAwesome,FontAwesome" font-size="40.0" fill="#F6F6F6" transform="matrix(1.00, 0.00, -0.00, -1.00, 112.0, 8.4)"> </text><text xml:space="preserve" font-family="FontAwesome,FontAwesome" font-size="40.0" fill="#F6F6F6" transform="matrix(1.00, 0.00, -0.00, -1.00, 122.0, 8.4)"> </text><text xml:space="preserve" font-family="FontAwesome,FontAwesome" font-size="40.0" fill="#F6F6F6" transform="matrix(1.00, 0.00, -0.00, -1.00, 132.0, 8.4)"> </text><text xml:space="preserve" font-family="FontAwesome,FontAwesome" font-size="40.0" fill="#F6F6F6" transform="matrix(1.00, 0.00, -0.00, -1.00, 142.0, 8.4)"> </text><text xml:space="preserve" font-family="FontAwesome,FontAwesome" font-size="40.0" fill="#F6F6F6" transform="matrix(1.00, 0.00, -0.00, -1.00, 152.0, 8.4)"> </text><text xml:space="preserve" font-family="FontAwesome,FontAwesome" font-size="40.0" fill="#F6F6F6" transform="matrix(1.00, 0.00, -0.00, -1.00, 162.0, 8.4)">○</text><text xml:space="preserve" font-family="FontAwesome,FontAwesome" font-size="40.0" fill="#F6F6F6" transform="matrix(1.00, 0.00, -0.00, -1.00, 185.1, 8.4)"> </text><text xml:space="preserve" font-family="FontAwesome,FontAwesome" font-size="40.0" fill="#F6F6F6" transform="matrix(1.00, 0.00, -0.00, -1.00, 195.1, 8.4)"> </text><text xml:space="preserve" font-family="FontAwesome,FontAwesome" font-size="40.0" fill="#F6F6F6" transform="matrix(1.00, 0.00, -0.00, -1.00, 205.1, 8.4)">⋆</text><text xml:space="preserve" font-family="FontAwesome,FontAwesome" font-size="40.0" fill="#F6F6F6" transform="matrix(1.00, 0.00, -0.00, -1.00, 223.0, 8.4)"> </text><text xml:space="preserve" font-family="FontAwesome,FontAwesome" font-size="40.0" fill="#F6F6F6" transform="matrix(1.00, 0.00, -0.00, -1.00, 233.0, 8.4)"> </text><text xml:space="preserve" font-family="FontAwesome,FontAwesome" font-size="40.0" fill="#F6F6F6" transform="matrix(1.00, 0.00, -0.00, -1.00, 243.0, 8.4)"> </text><text xml:space="preserve" font-family="FontAwesome,FontAwesome" font-size="40.0" fill="#F6F6F6" transform="matrix(1.00, 0.00, -0.00, -1.00, 253.0, 8.4)"> </text><text xml:space="preserve" font-family="FontAwesome,FontAwesome" font-size="40.0" fill="#F6F6F6" transform="matrix(1.00, 0.00, -0.00, -1.00, 263.0, 8.4)"> </text><text xml:space="preserve" font-family="FontAwesome,FontAwesome" font-size="40.0" fill="#F6F6F6" transform="matrix(1.00, 0.00, -0.00, -1.00, 273.0, 8.4)"> </text><text xml:space="preserve" font-family="FontAwesome,FontAwesome" font-size="40.0" fill="#F6F6F6" transform="matrix(1.00, 0.00, -0.00, -1.00, 283.0, 8.4)"> </text><text xml:space="preserve" font-family="FontAwesome,FontAwesome" font-size="40.0" fill="#F6F6F6" transform="matrix(1.00, 0.00, -0.00, -1.00, 293.0, 8.4)"> </text><text xml:space="preserve" font-family="FontAwesome,FontAwesome" font-size="40.0" fill="#F6F6F6" transform="matrix(1.00, 0.00, -0.00, -1.00, 303.0, 8.4)"> </text><text xml:space="preserve" font-family="FontAwesome,FontAwesome" font-size="40.0" fill="#F6F6F6" transform="matrix(1.00, 0.00, -0.00, -1.00, 313.0, 8.4)"> </text><text xml:space="preserve" font-family="FontAwesome,FontAwesome" font-size="40.0" fill="#F6F6F6" transform="matrix(1.00, 0.00, -0.00, -1.00, 323.0, 8.4)"> </text><text xml:space="preserve" font-family="FontAwesome,FontAwesome" font-size="40.0" fill="#F6F6F6" transform="matrix(1.00, 0.00, -0.00, -1.00, 333.0, 8.4)"> </text><text xml:space="preserve" font-family="FontAwesome,FontAwesome" font-size="40.0" fill="#F6F6F6" transform="matrix(1.00, 0.00, -0.00, -1.00, 343.0, 8.4)"> </text><text xml:space="preserve" font-family="FontAwesome,FontAwesome" font-size="40.0" fill="#F6F6F6" transform="matrix(1.00, 0.00, -0.00, -1.00, 353.0, 8.4)"> </text><text xml:space="preserve" font-family="FontAwesome,FontAwesome" font-size="40.0" fill="#F6F6F6" transform="matrix(1.00, 0.00, -0.00, -1.00, 363.0, 8.4)"> </text><text xml:space="preserve" font-family="FontAwesome,FontAwesome" font-size="40.0" fill="#F6F6F6" transform="matrix(1.00, 0.00, -0.00, -1.00, 373.0, 8.4)"> </text><text xml:space="preserve" font-family="FontAwesome,FontAwesome" font-size="40.0" fill="#F6F6F6" transform="matrix(1.00, 0.00, -0.00, -1.00, 383.0, 8.4)"> </text><text xml:space="preserve" font-family="FontAwesome,FontAwesome" font-size="40.0" fill="#F6F6F6" transform="matrix(1.00, 0.00, -0.00, -1.00, 393.1, 8.4)"> </text><text xml:space="preserve" font-family="FontAwesome,FontAwesome" font-size="40.0" fill="#F6F6F6" transform="matrix(1.00, 0.00, -0.00, -1.00, 403.1, 8.4)"> </text><text xml:space="preserve" font-family="FontAwesome,FontAwesome" font-size="40.0" fill="#F6F6F6" transform="matrix(1.00, 0.00, -0.00, -1.00, 413.1, 8.4)"> </text><text xml:space="preserve" font-family="FontAwesome,FontAwesome" font-size="40.0" fill="#F6F6F6" transform="matrix(1.00, 0.00, -0.00, -1.00, 423.1, 8.4)"> </text><text xml:space="preserve" font-family="FontAwesome,FontAwesome" font-size="40.0" fill="#F6F6F6" transform="matrix(1.00, 0.00, -0.00, -1.00, 433.1, 8.4)"> </text><text xml:space="preserve" font-family="FontAwesome,FontAwesome" font-size="40.0" fill="#F6F6F6" transform="matrix(1.00, 0.00, -0.00, -1.00, 443.1, 8.4)"> </text><text xml:space="preserve" font-family="FontAwesome,FontAwesome" font-size="40.0" fill="#F6F6F6" transform="matrix(1.00, 0.00, -0.00, -1.00, 453.1, 8.4)"> </text><text xml:space="preserve" font-family="FontAwesome,FontAwesome" font-size="40.0" fill="#F6F6F6" transform="matrix(1.00, 0.00, -0.00, -1.00, 463.1, 8.4)"> </text><text xml:space="preserve" font-family="FontAwesome,FontAwesome" font-size="40.0" fill="#F6F6F6" transform="matrix(1.00, 0.00, -0.00, -1.00, 473.1, 8.4)"> </text><text xml:space="preserve" font-family="FontAwesome,FontAwesome" font-size="40.0" fill="#F6F6F6" transform="matrix(1.00, 0.00, -0.00, -1.00, 483.1, 8.4)"> </text><text xml:space="preserve" font-family="FontAwesome,FontAwesome" font-size="40.0" fill="#F6F6F6" transform="matrix(1.00, 0.00, -0.00, -1.00, 493.1, 8.4)"> </text><text xml:space="preserve" font-family="FontAwesome,FontAwesome" font-size="40.0" fill="#F6F6F6" transform="matrix(1.00, 0.00, -0.00, -1.00, 503.0, 8.4)"> </text><text xml:space="preserve" font-family="FontAwesome,FontAwesome" font-size="40.0" fill="#F6F6F6" transform="matrix(1.00, 0.00, -0.00, -1.00, 513.0, 8.4)"> </text><text xml:space="preserve" font-family="FontAwesome,FontAwesome" font-size="40.0" fill="#F6F6F6" transform="matrix(1.00, 0.00, -0.00, -1.00, 523.0, 8.4)"> </text><text xml:space="preserve" font-family="FontAwesome,FontAwesome" font-size="40.0" fill="#F6F6F6" transform="matrix(1.00, 0.00, -0.00, -1.00, 533.0, 8.4)"> </text><text xml:space="preserve" font-family="FontAwesome,FontAwesome" font-size="40.0" fill="#F6F6F6" transform="matrix(1.00, 0.00, -0.00, -1.00, 543.0, 8.4)"> </text><text xml:space="preserve" font-family="FontAwesome,FontAwesome" font-size="40.0" fill="#F6F6F6" transform="matrix(1.00, 0.00, -0.00, -1.00, 553.0, 8.4)"> </text><text xml:space="preserve" font-family="FontAwesome,FontAwesome" font-size="40.0" fill="#F6F6F6" transform="matrix(1.00, 0.00, -0.00, -1.00, 563.0, 8.4)"> </text><text xml:space="preserve" font-family="FontAwesome,FontAwesome" font-size="40.0" fill="#F6F6F6" transform="matrix(1.00, 0.00, -0.00, -1.00, 573.0, 8.4)"> </text><text xml:space="preserve" font-family="FontAwesome,FontAwesome" font-size="40.0" fill="#F6F6F6" transform="matrix(1.00, 0.00, -0.00, -1.00, 583.0, 8.4)"> </text><text xml:space="preserve" font-family="FontAwesome,FontAwesome" font-size="40.0" fill="#F6F6F6" transform="matrix(1.00, 0.00, -0.00, -1.00, 593.0, 8.4)"> </text><text xml:space="preserve" font-family="FontAwesome,FontAwesome" font-size="40.0" fill="#F6F6F6" transform="matrix(1.00, 0.00, -0.00, -1.00, 603.0, 8.4)"> </text><text xml:space="preserve" font-family="FontAwesome,FontAwesome" font-size="40.0" fill="#F6F6F6" transform="matrix(1.00, 0.00, -0.00, -1.00, 613.0, 8.4)"> </text><text xml:space="preserve" font-family="FontAwesome,FontAwesome" font-size="40.0" fill="#F6F6F6" transform="matrix(1.00, 0.00, -0.00, -1.00, 623.0, 8.4)"> </text><text xml:space="preserve" font-family="FontAwesome,FontAwesome" font-size="40.0" fill="#F6F6F6" transform="matrix(1.00, 0.00, -0.00, -1.00, 633.0, 8.4)"> </text><text xml:space="preserve" font-family="FontAwesome,FontAwesome" font-size="40.0" fill="#F6F6F6" transform="matrix(1.00, 0.00, -0.00, -1.00, 643.0, 8.4)"> </text><text xml:space="preserve" font-family="FontAwesome,FontAwesome" font-size="40.0" fill="#F6F6F6" transform="matrix(1.00, 0.00, -0.00, -1.00, 653.0, 8.4)"> </text></g></svg>