<?xml version="1.0" encoding="UTF-8" standalone="no"?><svg xmlns="http://www.w3.org/2000/svg" xmlns:xlink="http://www.w3.org/1999/xlink" clip-rule="evenodd" stroke-miterlimit="10" viewBox="0 0 325 349"><desc>SVG generated by Keynote</desc><defs></defs><g transform="matrix(1.00, 0.00, -0.00, -1.00, 0.0, 349.0)"><path d="M 9.7 0.3 L 11.0 0.3 L 320.2 0.3 L 320.2 333.3 L 13.6 333.3 L 11.2 333.3 " fill="none" stroke="#E2E2E2" stroke-width="3.00" transform="matrix(1.00, 0.00, 0.00, -1.00, 1.3, 341.8)"></path><path d="M 8.5 3.0 C 5.5 3.0 3.0 5.5 3.0 8.5 C 3.0 11.5 5.5 14.0 8.5 14.0 C 11.5 14.0 14.0 11.5 14.0 8.5 C 14.0 5.5 11.5 3.0 8.5 3.0 Z M 8.5 3.0 " fill="#E2E2E2"></path><path d="M 7.0 336.0 C 4.0 336.0 1.5 338.5 1.5 341.5 C 1.5 344.5 4.0 347.0 7.0 347.0 C 10.0 347.0 12.5 344.5 12.5 341.5 C 12.5 338.5 10.0 336.0 7.0 336.0 Z M 7.0 336.0 " fill="#E2E2E2"></path></g></svg>