<?xml version="1.0" encoding="UTF-8" standalone="no"?><svg xmlns="http://www.w3.org/2000/svg" xmlns:xlink="http://www.w3.org/1999/xlink" clip-rule="evenodd" stroke-miterlimit="10" viewBox="0 0 332 14"><desc>SVG generated by Keynote</desc><defs></defs><g transform="matrix(1.00, 0.00, -0.00, -1.00, 0.0, 14.0)"><path d="M 9.5 0.4 L 11.0 0.4 L 317.5 0.4 L 319.5 0.4 " fill="none" stroke="#E2E2E2" stroke-width="3.00" transform="matrix(1.00, 0.00, 0.00, -1.00, 1.5, 6.9)"></path><path d="M 325.0 12.0 C 328.0 12.0 330.5 9.5 330.5 6.5 C 330.5 3.5 328.0 1.0 325.0 1.0 C 322.0 1.0 319.5 3.5 319.5 6.5 C 319.5 9.5 322.0 12.0 325.0 12.0 Z M 325.0 12.0 " fill="#E2E2E2"></path><path d="M 7.0 1.0 C 4.0 1.0 1.5 3.5 1.5 6.5 C 1.5 9.5 4.0 12.0 7.0 12.0 C 10.0 12.0 12.5 9.5 12.5 6.5 C 12.5 3.5 10.0 1.0 7.0 1.0 Z M 7.0 1.0 " fill="#E2E2E2"></path></g></svg>