<?xml version="1.0" encoding="UTF-8" standalone="no"?><svg xmlns="http://www.w3.org/2000/svg" xmlns:xlink="http://www.w3.org/1999/xlink" clip-rule="evenodd" stroke-miterlimit="10" viewBox="0 0 631 68"><desc>SVG generated by Keynote</desc><defs></defs><g transform="matrix(1.00, 0.00, -0.00, -1.00, 0.0, 68.0)"><text xml:space="preserve" font-family="Helvetica,Helvetica" font-size="84.0" fill="#F6F6F6" transform="matrix(1.00, 0.00, -0.00, -1.00, -5.7, 3.7)">I</text><text xml:space="preserve" font-family="Helvetica,Helvetica" font-size="84.0" fill="#F6F6F6" transform="matrix(1.00, 0.00, -0.00, -1.00, 17.6, 3.7)">N</text><text xml:space="preserve" font-family="Helvetica,Helvetica" font-size="84.0" fill="#F6F6F6" transform="matrix(1.00, 0.00, -0.00, -1.00, 78.3, 3.7)">F</text><text xml:space="preserve" font-family="Helvetica,Helvetica" font-size="84.0" fill="#F6F6F6" transform="matrix(1.00, 0.00, -0.00, -1.00, 129.6, 3.7)">O</text><text xml:space="preserve" font-family="Helvetica,Helvetica" font-size="84.0" fill="#F6F6F6" transform="matrix(1.00, 0.00, -0.00, -1.00, 194.9, 3.7)">G</text><text xml:space="preserve" font-family="Helvetica,Helvetica" font-size="84.0" fill="#F6F6F6" transform="matrix(1.00, 0.00, -0.00, -1.00, 260.2, 3.7)">R</text><text xml:space="preserve" font-family="Helvetica,Helvetica" font-size="84.0" fill="#F6F6F6" transform="matrix(1.00, 0.00, -0.00, -1.00, 320.9, 3.7)">A</text><text xml:space="preserve" font-family="Helvetica,Helvetica" font-size="84.0" fill="#F6F6F6" transform="matrix(1.00, 0.00, -0.00, -1.00, 376.9, 3.7)">P</text><text xml:space="preserve" font-family="Helvetica,Helvetica" font-size="84.0" fill="#F6F6F6" transform="matrix(1.00, 0.00, -0.00, -1.00, 433.0, 3.7)">H</text><text xml:space="preserve" font-family="Helvetica,Helvetica" font-size="84.0" fill="#F6F6F6" transform="matrix(1.00, 0.00, -0.00, -1.00, 493.7, 3.7)">I</text><text xml:space="preserve" font-family="Helvetica,Helvetica" font-size="84.0" fill="#F6F6F6" transform="matrix(1.00, 0.00, -0.00, -1.00, 517.0, 3.7)">C</text><text xml:space="preserve" font-family="Helvetica,Helvetica" font-size="84.0" fill="#F6F6F6" transform="matrix(1.00, 0.00, -0.00, -1.00, 577.7, 3.7)">S</text></g></svg>