<?xml version="1.0" encoding="UTF-8" standalone="no"?><svg xmlns="http://www.w3.org/2000/svg" xmlns:xlink="http://www.w3.org/1999/xlink" clip-rule="evenodd" stroke-miterlimit="10" viewBox="0 0 44 44"><desc>SVG generated by Keynote</desc><defs></defs><g transform="matrix(1.00, 0.00, -0.00, -1.00, 0.0, 44.0)"><g><clipPath id="clip0x6180056bede0"><path d="M 0.7 0.7 L 43.8 0.7 L 43.8 43.7 L 0.7 43.7 Z M 0.7 0.7 "></path></clipPath><g clip-path="url(#clip0x6180056bede0)"><path d="M 34.2 5.9 C 42.0 13.7 42.0 26.3 34.2 34.2 C 26.3 42.0 13.7 42.0 5.9 34.2 C -2.0 26.3 -2.0 13.7 5.9 5.9 C 13.7 -2.0 26.3 -2.0 34.2 5.9 Z M 34.2 5.9 " fill="none" stroke="#E2E2E2" stroke-width="1.00" transform="matrix(1.00, 0.00, 0.00, -1.00, 2.2, 42.2)"></path></g></g><g><clipPath id="clip0x6180056bf140"><path d="M 11.0 7.2 L 33.5 7.2 L 33.5 37.2 L 11.0 37.2 Z M 11.0 7.2 "></path></clipPath><g clip-path="url(#clip0x6180056bf140)"></g></g></g></svg>