<?xml version="1.0" encoding="UTF-8" standalone="no"?><svg xmlns="http://www.w3.org/2000/svg" xmlns:xlink="http://www.w3.org/1999/xlink" clip-rule="evenodd" stroke-miterlimit="10" viewBox="0 0 436 66"><desc>SVG generated by Keynote</desc><defs></defs><g transform="matrix(1.00, 0.00, -0.00, -1.00, 0.0, 66.0)"><g><clipPath id="clip0x6000060aa4a0"><path d="M 0.6 2.2 L 62.3 2.2 L 62.3 63.9 L 0.6 63.9 Z M 0.6 2.2 "></path></clipPath><g clip-path="url(#clip0x6000060aa4a0)"><path d="M 2.0 63.0 L 61.0 63.0 L 61.0 3.0 L 2.0 3.0 Z M 1.6 62.9 " fill="#EDC25F"></path></g></g><g><clipPath id="clip0x6000060aab60"><path d="M 7.9 -13.2 L 93.3 -13.2 L 93.3 73.9 L 7.9 73.9 Z M 7.9 -13.2 "></path></clipPath><g clip-path="url(#clip0x6000060aab60)"><text xml:space="preserve" font-family="LastResort,LastResort" font-size="50.0" fill="#F6F6F6" transform="matrix(1.00, 0.00, -0.00, -1.00, 21.4, 18.3)"></text><text xml:space="preserve" font-family="LastResort,LastResort" font-size="50.0" fill="#F6F6F6" transform="matrix(1.00, 0.00, -0.00, -1.00, 78.8, 18.3)"></text><text xml:space="preserve" font-family="LastResort,LastResort" font-size="50.0" fill="#F6F6F6" transform="matrix(1.00, 0.00, -0.00, -1.00, 136.2, 18.3)"></text><text xml:space="preserve" font-family="LastResort,LastResort" font-size="50.0" fill="#F6F6F6" transform="matrix(1.00, 0.00, -0.00, -1.00, 193.5, 18.3)"></text><text xml:space="preserve" font-family="LastResort,LastResort" font-size="50.0" fill="#F6F6F6" transform="matrix(1.00, 0.00, -0.00, -1.00, 250.9, 18.3)"></text><text xml:space="preserve" font-family="LastResort,LastResort" font-size="50.0" fill="#F6F6F6" transform="matrix(1.00, 0.00, -0.00, -1.00, 308.3, 18.3)"></text><text xml:space="preserve" font-family="LastResort,LastResort" font-size="50.0" fill="#F6F6F6" transform="matrix(1.00, 0.00, -0.00, -1.00, 365.7, 18.3)"></text><text xml:space="preserve" font-family="LastResort,LastResort" font-size="50.0" fill="#F6F6F6" transform="matrix(1.00, 0.00, -0.00, -1.00, 423.0, 18.3)"></text><text xml:space="preserve" font-family="LastResort,LastResort" font-size="50.0" fill="#F6F6F6" transform="matrix(1.00, 0.00, -0.00, -1.00, 480.4, 18.3)"></text><text xml:space="preserve" font-family="LastResort,LastResort" font-size="50.0" fill="#F6F6F6" transform="matrix(1.00, 0.00, -0.00, -1.00, 537.8, 18.3)"></text><text xml:space="preserve" font-family="LastResort,LastResort" font-size="50.0" fill="#F6F6F6" transform="matrix(1.00, 0.00, -0.00, -1.00, 595.1, 18.3)"></text><text xml:space="preserve" font-family="LastResort,LastResort" font-size="50.0" fill="#F6F6F6" transform="matrix(1.00, 0.00, -0.00, -1.00, 652.5, 18.3)"></text><text xml:space="preserve" font-family="LastResort,LastResort" font-size="50.0" fill="#F6F6F6" transform="matrix(1.00, 0.00, -0.00, -1.00, 709.9, 18.3)"></text><text xml:space="preserve" font-family="LastResort,LastResort" font-size="50.0" fill="#F6F6F6" transform="matrix(1.00, 0.00, -0.00, -1.00, 767.3, 18.3)"></text><text xml:space="preserve" font-family="LastResort,LastResort" font-size="50.0" fill="#F6F6F6" transform="matrix(1.00, 0.00, -0.00, -1.00, 824.6, 18.3)"></text><text xml:space="preserve" font-family="LastResort,LastResort" font-size="50.0" fill="#F6F6F6" transform="matrix(1.00, 0.00, -0.00, -1.00, 882.0, 18.3)"></text><text xml:space="preserve" font-family="LastResort,LastResort" font-size="50.0" fill="#F6F6F6" transform="matrix(1.00, 0.00, -0.00, -1.00, 939.4, 18.3)"></text><text xml:space="preserve" font-family="LastResort,LastResort" font-size="50.0" fill="#F6F6F6" transform="matrix(1.00, 0.00, -0.00, -1.00, 996.8, 18.3)"></text><text xml:space="preserve" font-family="LastResort,LastResort" font-size="50.0" fill="#F6F6F6" transform="matrix(1.00, 0.00, -0.00, -1.00, 1054.1, 18.3)"></text><text xml:space="preserve" font-family="LastResort,LastResort" font-size="50.0" fill="#F6F6F6" transform="matrix(1.00, 0.00, -0.00, -1.00, 1111.5, 18.3)"></text><text xml:space="preserve" font-family="LastResort,LastResort" font-size="50.0" fill="#F6F6F6" transform="matrix(1.00, 0.00, -0.00, -1.00, 1168.9, 18.3)"></text><text xml:space="preserve" font-family="LastResort,LastResort" font-size="50.0" fill="#F6F6F6" transform="matrix(1.00, 0.00, -0.00, -1.00, 1226.2, 18.3)"></text><text xml:space="preserve" font-family="LastResort,LastResort" font-size="50.0" fill="#F6F6F6" transform="matrix(1.00, 0.00, -0.00, -1.00, 1283.6, 18.3)"></text><text xml:space="preserve" font-family="LastResort,LastResort" font-size="50.0" fill="#F6F6F6" transform="matrix(1.00, 0.00, -0.00, -1.00, 1341.0, 18.3)"></text><text xml:space="preserve" font-family="LastResort,LastResort" font-size="50.0" fill="#F6F6F6" transform="matrix(1.00, 0.00, -0.00, -1.00, 1398.4, 18.3)"></text><text xml:space="preserve" font-family="LastResort,LastResort" font-size="50.0" fill="#F6F6F6" transform="matrix(1.00, 0.00, -0.00, -1.00, 1455.7, 18.3)"></text><text xml:space="preserve" font-family="LastResort,LastResort" font-size="50.0" fill="#F6F6F6" transform="matrix(1.00, 0.00, -0.00, -1.00, 1513.1, 18.3)"></text><text xml:space="preserve" font-family="LastResort,LastResort" font-size="50.0" fill="#F6F6F6" transform="matrix(1.00, 0.00, -0.00, -1.00, 1570.5, 18.3)"></text><text xml:space="preserve" font-family="LastResort,LastResort" font-size="50.0" fill="#F6F6F6" transform="matrix(1.00, 0.00, -0.00, -1.00, 1627.9, 18.3)"></text><text xml:space="preserve" font-family="LastResort,LastResort" font-size="50.0" fill="#F6F6F6" transform="matrix(1.00, 0.00, -0.00, -1.00, 1685.2, 18.3)"></text><text xml:space="preserve" font-family="LastResort,LastResort" font-size="50.0" fill="#F6F6F6" transform="matrix(1.00, 0.00, -0.00, -1.00, 1742.6, 18.3)"></text><text xml:space="preserve" font-family="LastResort,LastResort" font-size="50.0" fill="#F6F6F6" transform="matrix(1.00, 0.00, -0.00, -1.00, 1800.0, 18.3)"></text><text xml:space="preserve" font-family="LastResort,LastResort" font-size="50.0" fill="#F6F6F6" transform="matrix(1.00, 0.00, -0.00, -1.00, 1857.4, 18.3)"></text><text xml:space="preserve" font-family="LastResort,LastResort" font-size="50.0" fill="#F6F6F6" transform="matrix(1.00, 0.00, -0.00, -1.00, 1914.7, 18.3)"></text><text xml:space="preserve" font-family="LastResort,LastResort" font-size="50.0" fill="#F6F6F6" transform="matrix(1.00, 0.00, -0.00, -1.00, 1972.1, 18.3)"></text><text xml:space="preserve" font-family="LastResort,LastResort" font-size="50.0" fill="#F6F6F6" transform="matrix(1.00, 0.00, -0.00, -1.00, 2029.5, 18.3)"></text><text xml:space="preserve" font-family="LastResort,LastResort" font-size="50.0" fill="#F6F6F6" transform="matrix(1.00, 0.00, -0.00, -1.00, 2086.8, 18.3)"></text><text xml:space="preserve" font-family="LastResort,LastResort" font-size="50.0" fill="#F6F6F6" transform="matrix(1.00, 0.00, -0.00, -1.00, 2144.2, 18.3)"></text><text xml:space="preserve" font-family="LastResort,LastResort" font-size="50.0" fill="#F6F6F6" transform="matrix(1.00, 0.00, -0.00, -1.00, 2201.6, 18.3)"></text><text xml:space="preserve" font-family="LastResort,LastResort" font-size="50.0" fill="#F6F6F6" transform="matrix(1.00, 0.00, -0.00, -1.00, 2259.0, 18.3)"></text><text xml:space="preserve" font-family="LastResort,LastResort" font-size="50.0" fill="#F6F6F6" transform="matrix(1.00, 0.00, -0.00, -1.00, 2316.3, 18.3)"></text><text xml:space="preserve" font-family="LastResort,LastResort" font-size="50.0" fill="#F6F6F6" transform="matrix(1.00, 0.00, -0.00, -1.00, 2373.7, 18.3)"></text><text xml:space="preserve" font-family="LastResort,LastResort" font-size="50.0" fill="#F6F6F6" transform="matrix(1.00, 0.00, -0.00, -1.00, 2431.1, 18.3)"></text><text xml:space="preserve" font-family="LastResort,LastResort" font-size="50.0" fill="#F6F6F6" transform="matrix(1.00, 0.00, -0.00, -1.00, 2488.5, 18.3)"></text><text xml:space="preserve" font-family="LastResort,LastResort" font-size="50.0" fill="#F6F6F6" transform="matrix(1.00, 0.00, -0.00, -1.00, 2545.8, 18.3)"></text><text xml:space="preserve" font-family="LastResort,LastResort" font-size="50.0" fill="#F6F6F6" transform="matrix(1.00, 0.00, -0.00, -1.00, 2603.2, 18.3)"></text><text xml:space="preserve" font-family="LastResort,LastResort" font-size="50.0" fill="#F6F6F6" transform="matrix(1.00, 0.00, -0.00, -1.00, 2660.6, 18.3)"></text><text xml:space="preserve" font-family="LastResort,LastResort" font-size="50.0" fill="#F6F6F6" transform="matrix(1.00, 0.00, -0.00, -1.00, 2717.9, 18.3)"></text><text xml:space="preserve" font-family="LastResort,LastResort" font-size="50.0" fill="#F6F6F6" transform="matrix(1.00, 0.00, -0.00, -1.00, 2775.3, 18.3)"></text><text xml:space="preserve" font-family="LastResort,LastResort" font-size="50.0" fill="#F6F6F6" transform="matrix(1.00, 0.00, -0.00, -1.00, 2832.7, 18.3)"></text><text xml:space="preserve" font-family="LastResort,LastResort" font-size="50.0" fill="#F6F6F6" transform="matrix(1.00, 0.00, -0.00, -1.00, 2890.1, 18.3)"></text><text xml:space="preserve" font-family="LastResort,LastResort" font-size="50.0" fill="#F6F6F6" transform="matrix(1.00, 0.00, -0.00, -1.00, 2947.4, 18.3)"></text><text xml:space="preserve" font-family="LastResort,LastResort" font-size="50.0" fill="#F6F6F6" transform="matrix(1.00, 0.00, -0.00, -1.00, 3004.8, 18.3)"></text><text xml:space="preserve" font-family="LastResort,LastResort" font-size="50.0" fill="#F6F6F6" transform="matrix(1.00, 0.00, -0.00, -1.00, 3062.2, 18.3)"></text><text xml:space="preserve" font-family="LastResort,LastResort" font-size="50.0" fill="#F6F6F6" transform="matrix(1.00, 0.00, -0.00, -1.00, 3119.6, 18.3)"></text><text xml:space="preserve" font-family="LastResort,LastResort" font-size="50.0" fill="#F6F6F6" transform="matrix(1.00, 0.00, -0.00, -1.00, 3176.9, 18.3)"></text><text xml:space="preserve" font-family="LastResort,LastResort" font-size="50.0" fill="#F6F6F6" transform="matrix(1.00, 0.00, -0.00, -1.00, 3234.3, 18.3)"></text><text xml:space="preserve" font-family="LastResort,LastResort" font-size="50.0" fill="#F6F6F6" transform="matrix(1.00, 0.00, -0.00, -1.00, 3291.7, 18.3)"></text><text xml:space="preserve" font-family="LastResort,LastResort" font-size="50.0" fill="#F6F6F6" transform="matrix(1.00, 0.00, -0.00, -1.00, 3349.1, 18.3)"></text><text xml:space="preserve" font-family="LastResort,LastResort" font-size="50.0" fill="#F6F6F6" transform="matrix(1.00, 0.00, -0.00, -1.00, 3406.4, 18.3)"></text><text xml:space="preserve" font-family="LastResort,LastResort" font-size="50.0" fill="#F6F6F6" transform="matrix(1.00, 0.00, -0.00, -1.00, 3463.8, 18.3)"></text><text xml:space="preserve" font-family="LastResort,LastResort" font-size="50.0" fill="#F6F6F6" transform="matrix(1.00, 0.00, -0.00, -1.00, 3521.2, 18.3)"></text><text xml:space="preserve" font-family="LastResort,LastResort" font-size="50.0" fill="#F6F6F6" transform="matrix(1.00, 0.00, -0.00, -1.00, 3578.5, 18.3)"></text><text xml:space="preserve" font-family="LastResort,LastResort" font-size="50.0" fill="#F6F6F6" transform="matrix(1.00, 0.00, -0.00, -1.00, 3635.9, 18.3)"></text><text xml:space="preserve" font-family="LastResort,LastResort" font-size="50.0" fill="#F6F6F6" transform="matrix(1.00, 0.00, -0.00, -1.00, 3693.3, 18.3)"></text><text xml:space="preserve" font-family="LastResort,LastResort" font-size="50.0" fill="#F6F6F6" transform="matrix(1.00, 0.00, -0.00, -1.00, 3750.7, 18.3)"></text><text xml:space="preserve" font-family="LastResort,LastResort" font-size="50.0" fill="#F6F6F6" transform="matrix(1.00, 0.00, -0.00, -1.00, 3808.0, 18.3)"></text><text xml:space="preserve" font-family="LastResort,LastResort" font-size="50.0" fill="#F6F6F6" transform="matrix(1.00, 0.00, -0.00, -1.00, 3865.4, 18.3)"></text><text xml:space="preserve" font-family="LastResort,LastResort" font-size="50.0" fill="#F6F6F6" transform="matrix(1.00, 0.00, -0.00, -1.00, 3922.8, 18.3)"></text><text xml:space="preserve" font-family="LastResort,LastResort" font-size="50.0" fill="#F6F6F6" transform="matrix(1.00, 0.00, -0.00, -1.00, 3980.2, 18.3)"></text><text xml:space="preserve" font-family="LastResort,LastResort" font-size="50.0" fill="#F6F6F6" transform="matrix(1.00, 0.00, -0.00, -1.00, 4037.5, 18.3)"></text><text xml:space="preserve" font-family="LastResort,LastResort" font-size="50.0" fill="#F6F6F6" transform="matrix(1.00, 0.00, -0.00, -1.00, 4094.9, 18.3)"></text><text xml:space="preserve" font-family="LastResort,LastResort" font-size="50.0" fill="#F6F6F6" transform="matrix(1.00, 0.00, -0.00, -1.00, 4152.3, 18.3)"></text><text xml:space="preserve" font-family="LastResort,LastResort" font-size="50.0" fill="#F6F6F6" transform="matrix(1.00, 0.00, -0.00, -1.00, 4209.6, 18.3)"></text><text xml:space="preserve" font-family="LastResort,LastResort" font-size="50.0" fill="#F6F6F6" transform="matrix(1.00, 0.00, -0.00, -1.00, 4267.0, 18.3)"></text><text xml:space="preserve" font-family="LastResort,LastResort" font-size="50.0" fill="#F6F6F6" transform="matrix(1.00, 0.00, -0.00, -1.00, 4324.4, 18.3)"></text><text xml:space="preserve" font-family="LastResort,LastResort" font-size="50.0" fill="#F6F6F6" transform="matrix(1.00, 0.00, -0.00, -1.00, 4381.8, 18.3)"></text><text xml:space="preserve" font-family="LastResort,LastResort" font-size="50.0" fill="#F6F6F6" transform="matrix(1.00, 0.00, -0.00, -1.00, 4439.1, 18.3)"></text><text xml:space="preserve" font-family="LastResort,LastResort" font-size="50.0" fill="#F6F6F6" transform="matrix(1.00, 0.00, -0.00, -1.00, 4496.5, 18.3)"></text><text xml:space="preserve" font-family="LastResort,LastResort" font-size="50.0" fill="#F6F6F6" transform="matrix(1.00, 0.00, -0.00, -1.00, 4553.9, 18.3)"></text><text xml:space="preserve" font-family="LastResort,LastResort" font-size="50.0" fill="#F6F6F6" transform="matrix(1.00, 0.00, -0.00, -1.00, 4611.3, 18.3)"></text><text xml:space="preserve" font-family="LastResort,LastResort" font-size="50.0" fill="#F6F6F6" transform="matrix(1.00, 0.00, -0.00, -1.00, 4668.6, 18.3)"></text><text xml:space="preserve" font-family="LastResort,LastResort" font-size="50.0" fill="#F6F6F6" transform="matrix(1.00, 0.00, -0.00, -1.00, 4726.0, 18.3)"></text><text xml:space="preserve" font-family="LastResort,LastResort" font-size="50.0" fill="#F6F6F6" transform="matrix(1.00, 0.00, -0.00, -1.00, 4783.4, 18.3)"></text><text xml:space="preserve" font-family="LastResort,LastResort" font-size="50.0" fill="#F6F6F6" transform="matrix(1.00, 0.00, -0.00, -1.00, 4840.8, 18.3)"></text><text xml:space="preserve" font-family="LastResort,LastResort" font-size="50.0" fill="#F6F6F6" transform="matrix(1.00, 0.00, -0.00, -1.00, 4898.1, 18.3)"></text><text xml:space="preserve" font-family="LastResort,LastResort" font-size="50.0" fill="#F6F6F6" transform="matrix(1.00, 0.00, -0.00, -1.00, 4955.5, 18.3)"></text><text xml:space="preserve" font-family="LastResort,LastResort" font-size="50.0" fill="#F6F6F6" transform="matrix(1.00, 0.00, -0.00, -1.00, 5012.9, 18.3)"></text><text xml:space="preserve" font-family="LastResort,LastResort" font-size="50.0" fill="#F6F6F6" transform="matrix(1.00, 0.00, -0.00, -1.00, 5070.2, 18.3)"></text><text xml:space="preserve" font-family="LastResort,LastResort" font-size="50.0" fill="#F6F6F6" transform="matrix(1.00, 0.00, -0.00, -1.00, 5127.6, 18.3)"></text><text xml:space="preserve" font-family="LastResort,LastResort" font-size="50.0" fill="#F6F6F6" transform="matrix(1.00, 0.00, -0.00, -1.00, 5185.0, 18.3)"></text><text xml:space="preserve" font-family="LastResort,LastResort" font-size="50.0" fill="#F6F6F6" transform="matrix(1.00, 0.00, -0.00, -1.00, 5242.4, 18.3)"></text><text xml:space="preserve" font-family="LastResort,LastResort" font-size="50.0" fill="#F6F6F6" transform="matrix(1.00, 0.00, -0.00, -1.00, 5299.7, 18.3)"></text><text xml:space="preserve" font-family="LastResort,LastResort" font-size="50.0" fill="#F6F6F6" transform="matrix(1.00, 0.00, -0.00, -1.00, 5357.1, 18.3)"></text><text xml:space="preserve" font-family="LastResort,LastResort" font-size="50.0" fill="#F6F6F6" transform="matrix(1.00, 0.00, -0.00, -1.00, 5414.5, 18.3)"></text><text xml:space="preserve" font-family="LastResort,LastResort" font-size="50.0" fill="#F6F6F6" transform="matrix(1.00, 0.00, -0.00, -1.00, 5471.9, 18.3)"></text><text xml:space="preserve" font-family="LastResort,LastResort" font-size="50.0" fill="#F6F6F6" transform="matrix(1.00, 0.00, -0.00, -1.00, 5529.2, 18.3)"></text><text xml:space="preserve" font-family="LastResort,LastResort" font-size="50.0" fill="#F6F6F6" transform="matrix(1.00, 0.00, -0.00, -1.00, 5586.6, 18.3)"></text><text xml:space="preserve" font-family="LastResort,LastResort" font-size="50.0" fill="#F6F6F6" transform="matrix(1.00, 0.00, -0.00, -1.00, 5644.0, 18.3)"></text><text xml:space="preserve" font-family="LastResort,LastResort" font-size="50.0" fill="#F6F6F6" transform="matrix(1.00, 0.00, -0.00, -1.00, 5701.3, 18.3)"></text><text xml:space="preserve" font-family="LastResort,LastResort" font-size="50.0" fill="#F6F6F6" transform="matrix(1.00, 0.00, -0.00, -1.00, 5758.7, 18.3)"></text><text xml:space="preserve" font-family="LastResort,LastResort" font-size="50.0" fill="#F6F6F6" transform="matrix(1.00, 0.00, -0.00, -1.00, 5816.1, 18.3)"></text><text xml:space="preserve" font-family="LastResort,LastResort" font-size="50.0" fill="#F6F6F6" transform="matrix(1.00, 0.00, -0.00, -1.00, 5873.5, 18.3)"></text><text xml:space="preserve" font-family="LastResort,LastResort" font-size="50.0" fill="#F6F6F6" transform="matrix(1.00, 0.00, -0.00, -1.00, 5930.8, 18.3)"></text><text xml:space="preserve" font-family="LastResort,LastResort" font-size="50.0" fill="#F6F6F6" transform="matrix(1.00, 0.00, -0.00, -1.00, 5988.2, 18.3)"></text><text xml:space="preserve" font-family="LastResort,LastResort" font-size="50.0" fill="#F6F6F6" transform="matrix(1.00, 0.00, -0.00, -1.00, 6045.6, 18.3)"></text><text xml:space="preserve" font-family="LastResort,LastResort" font-size="50.0" fill="#F6F6F6" transform="matrix(1.00, 0.00, -0.00, -1.00, 6103.0, 18.3)"></text><text xml:space="preserve" font-family="LastResort,LastResort" font-size="50.0" fill="#F6F6F6" transform="matrix(1.00, 0.00, -0.00, -1.00, 6160.3, 18.3)"></text><text xml:space="preserve" font-family="LastResort,LastResort" font-size="50.0" fill="#F6F6F6" transform="matrix(1.00, 0.00, -0.00, -1.00, 6217.7, 18.3)"></text><text xml:space="preserve" font-family="LastResort,LastResort" font-size="50.0" fill="#F6F6F6" transform="matrix(1.00, 0.00, -0.00, -1.00, 6275.1, 18.3)"></text><text xml:space="preserve" font-family="LastResort,LastResort" font-size="50.0" fill="#F6F6F6" transform="matrix(1.00, 0.00, -0.00, -1.00, 6332.5, 18.3)"></text><text xml:space="preserve" font-family="LastResort,LastResort" font-size="50.0" fill="#F6F6F6" transform="matrix(1.00, 0.00, -0.00, -1.00, 6389.8, 18.3)"></text><text xml:space="preserve" font-family="LastResort,LastResort" font-size="50.0" fill="#F6F6F6" transform="matrix(1.00, 0.00, -0.00, -1.00, 6447.2, 18.3)"></text><text xml:space="preserve" font-family="LastResort,LastResort" font-size="50.0" fill="#F6F6F6" transform="matrix(1.00, 0.00, -0.00, -1.00, 6504.6, 18.3)"></text><text xml:space="preserve" font-family="LastResort,LastResort" font-size="50.0" fill="#F6F6F6" transform="matrix(1.00, 0.00, -0.00, -1.00, 6561.9, 18.3)"></text><text xml:space="preserve" font-family="LastResort,LastResort" font-size="50.0" fill="#F6F6F6" transform="matrix(1.00, 0.00, -0.00, -1.00, 6619.3, 18.3)"></text><text xml:space="preserve" font-family="LastResort,LastResort" font-size="50.0" fill="#F6F6F6" transform="matrix(1.00, 0.00, -0.00, -1.00, 6676.7, 18.3)"></text><text xml:space="preserve" font-family="LastResort,LastResort" font-size="50.0" fill="#F6F6F6" transform="matrix(1.00, 0.00, -0.00, -1.00, 6734.1, 18.3)"></text><text xml:space="preserve" font-family="LastResort,LastResort" font-size="50.0" fill="#F6F6F6" transform="matrix(1.00, 0.00, -0.00, -1.00, 6791.4, 18.3)"></text><text xml:space="preserve" font-family="LastResort,LastResort" font-size="50.0" fill="#F6F6F6" transform="matrix(1.00, 0.00, -0.00, -1.00, 6848.8, 18.3)"></text><text xml:space="preserve" font-family="LastResort,LastResort" font-size="50.0" fill="#F6F6F6" transform="matrix(1.00, 0.00, -0.00, -1.00, 6906.2, 18.3)"></text><text xml:space="preserve" font-family="LastResort,LastResort" font-size="50.0" fill="#F6F6F6" transform="matrix(1.00, 0.00, -0.00, -1.00, 6963.6, 18.3)"></text><text xml:space="preserve" font-family="LastResort,LastResort" font-size="50.0" fill="#F6F6F6" transform="matrix(1.00, 0.00, -0.00, -1.00, 7020.9, 18.3)"></text><text xml:space="preserve" font-family="LastResort,LastResort" font-size="50.0" fill="#F6F6F6" transform="matrix(1.00, 0.00, -0.00, -1.00, 7078.3, 18.3)"></text><text xml:space="preserve" font-family="LastResort,LastResort" font-size="50.0" fill="#F6F6F6" transform="matrix(1.00, 0.00, -0.00, -1.00, 7135.7, 18.3)"></text><text xml:space="preserve" font-family="LastResort,LastResort" font-size="50.0" fill="#F6F6F6" transform="matrix(1.00, 0.00, -0.00, -1.00, 7193.0, 18.3)"></text><text xml:space="preserve" font-family="LastResort,LastResort" font-size="50.0" fill="#F6F6F6" transform="matrix(1.00, 0.00, -0.00, -1.00, 7250.4, 18.3)"></text><text xml:space="preserve" font-family="LastResort,LastResort" font-size="50.0" fill="#F6F6F6" transform="matrix(1.00, 0.00, -0.00, -1.00, 7307.8, 18.3)"></text><text xml:space="preserve" font-family="LastResort,LastResort" font-size="50.0" fill="#F6F6F6" transform="matrix(1.00, 0.00, -0.00, -1.00, 7365.2, 18.3)"></text><text xml:space="preserve" font-family="LastResort,LastResort" font-size="50.0" fill="#F6F6F6" transform="matrix(1.00, 0.00, -0.00, -1.00, 7422.5, 18.3)"></text><text xml:space="preserve" font-family="LastResort,LastResort" font-size="50.0" fill="#F6F6F6" transform="matrix(1.00, 0.00, -0.00, -1.00, 7479.9, 18.3)"></text><text xml:space="preserve" font-family="LastResort,LastResort" font-size="50.0" fill="#F6F6F6" transform="matrix(1.00, 0.00, -0.00, -1.00, 7537.3, 18.3)"></text><text xml:space="preserve" font-family="LastResort,LastResort" font-size="50.0" fill="#F6F6F6" transform="matrix(1.00, 0.00, -0.00, -1.00, 7594.7, 18.3)"></text><text xml:space="preserve" font-family="LastResort,LastResort" font-size="50.0" fill="#F6F6F6" transform="matrix(1.00, 0.00, -0.00, -1.00, 7652.0, 18.3)"></text><text xml:space="preserve" font-family="LastResort,LastResort" font-size="50.0" fill="#F6F6F6" transform="matrix(1.00, 0.00, -0.00, -1.00, 7709.4, 18.3)"></text><text xml:space="preserve" font-family="LastResort,LastResort" font-size="50.0" fill="#F6F6F6" transform="matrix(1.00, 0.00, -0.00, -1.00, 7766.8, 18.3)"></text><text xml:space="preserve" font-family="LastResort,LastResort" font-size="50.0" fill="#F6F6F6" transform="matrix(1.00, 0.00, -0.00, -1.00, 7824.1, 18.3)"></text><text xml:space="preserve" font-family="LastResort,LastResort" font-size="50.0" fill="#F6F6F6" transform="matrix(1.00, 0.00, -0.00, -1.00, 7881.5, 18.3)"></text><text xml:space="preserve" font-family="LastResort,LastResort" font-size="50.0" fill="#F6F6F6" transform="matrix(1.00, 0.00, -0.00, -1.00, 7938.9, 18.3)"></text><text xml:space="preserve" font-family="LastResort,LastResort" font-size="50.0" fill="#F6F6F6" transform="matrix(1.00, 0.00, -0.00, -1.00, 7996.3, 18.3)"></text><text xml:space="preserve" font-family="LastResort,LastResort" font-size="50.0" fill="#F6F6F6" transform="matrix(1.00, 0.00, -0.00, -1.00, 8053.6, 18.3)"></text><text xml:space="preserve" font-family="LastResort,LastResort" font-size="50.0" fill="#F6F6F6" transform="matrix(1.00, 0.00, -0.00, -1.00, 8111.0, 18.3)"></text><text xml:space="preserve" font-family="LastResort,LastResort" font-size="50.0" fill="#F6F6F6" transform="matrix(1.00, 0.00, -0.00, -1.00, 8168.4, 18.3)"></text><text xml:space="preserve" font-family="LastResort,LastResort" font-size="50.0" fill="#F6F6F6" transform="matrix(1.00, 0.00, -0.00, -1.00, 8225.8, 18.3)"></text><text xml:space="preserve" font-family="LastResort,LastResort" font-size="50.0" fill="#F6F6F6" transform="matrix(1.00, 0.00, -0.00, -1.00, 8283.1, 18.3)"></text><text xml:space="preserve" font-family="LastResort,LastResort" font-size="50.0" fill="#F6F6F6" transform="matrix(1.00, 0.00, -0.00, -1.00, 8340.5, 18.3)"></text><text xml:space="preserve" font-family="LastResort,LastResort" font-size="50.0" fill="#F6F6F6" transform="matrix(1.00, 0.00, -0.00, -1.00, 8397.9, 18.3)"></text><text xml:space="preserve" font-family="LastResort,LastResort" font-size="50.0" fill="#F6F6F6" transform="matrix(1.00, 0.00, -0.00, -1.00, 8455.3, 18.3)"></text><text xml:space="preserve" font-family="LastResort,LastResort" font-size="50.0" fill="#F6F6F6" transform="matrix(1.00, 0.00, -0.00, -1.00, 8512.6, 18.3)"></text><text xml:space="preserve" font-family="LastResort,LastResort" font-size="50.0" fill="#F6F6F6" transform="matrix(1.00, 0.00, -0.00, -1.00, 8570.0, 18.3)"></text><text xml:space="preserve" font-family="LastResort,LastResort" font-size="50.0" fill="#F6F6F6" transform="matrix(1.00, 0.00, -0.00, -1.00, 8627.4, 18.3)"></text><text xml:space="preserve" font-family="LastResort,LastResort" font-size="50.0" fill="#F6F6F6" transform="matrix(1.00, 0.00, -0.00, -1.00, 8684.7, 18.3)"></text><text xml:space="preserve" font-family="LastResort,LastResort" font-size="50.0" fill="#F6F6F6" transform="matrix(1.00, 0.00, -0.00, -1.00, 8742.1, 18.3)"></text><text xml:space="preserve" font-family="LastResort,LastResort" font-size="50.0" fill="#F6F6F6" transform="matrix(1.00, 0.00, -0.00, -1.00, 8799.5, 18.3)"></text><text xml:space="preserve" font-family="LastResort,LastResort" font-size="50.0" fill="#F6F6F6" transform="matrix(1.00, 0.00, -0.00, -1.00, 8856.9, 18.3)"></text><text xml:space="preserve" font-family="LastResort,LastResort" font-size="50.0" fill="#F6F6F6" transform="matrix(1.00, 0.00, -0.00, -1.00, 8914.2, 18.3)"></text><text xml:space="preserve" font-family="LastResort,LastResort" font-size="50.0" fill="#F6F6F6" transform="matrix(1.00, 0.00, -0.00, -1.00, 8971.6, 18.3)"></text><text xml:space="preserve" font-family="LastResort,LastResort" font-size="50.0" fill="#F6F6F6" transform="matrix(1.00, 0.00, -0.00, -1.00, 9029.0, 18.3)"></text><text xml:space="preserve" font-family="LastResort,LastResort" font-size="50.0" fill="#F6F6F6" transform="matrix(1.00, 0.00, -0.00, -1.00, 9086.4, 18.3)"></text><text xml:space="preserve" font-family="LastResort,LastResort" font-size="50.0" fill="#F6F6F6" transform="matrix(1.00, 0.00, -0.00, -1.00, 9143.7, 18.3)"></text><text xml:space="preserve" font-family="LastResort,LastResort" font-size="50.0" fill="#F6F6F6" transform="matrix(1.00, 0.00, -0.00, -1.00, 9201.1, 18.3)"></text><text xml:space="preserve" font-family="LastResort,LastResort" font-size="50.0" fill="#F6F6F6" transform="matrix(1.00, 0.00, -0.00, -1.00, 9258.5, 18.3)"></text><text xml:space="preserve" font-family="LastResort,LastResort" font-size="50.0" fill="#F6F6F6" transform="matrix(1.00, 0.00, -0.00, -1.00, 9315.8, 18.3)"></text><text xml:space="preserve" font-family="LastResort,LastResort" font-size="50.0" fill="#F6F6F6" transform="matrix(1.00, 0.00, -0.00, -1.00, 9373.2, 18.3)"></text><text xml:space="preserve" font-family="LastResort,LastResort" font-size="50.0" fill="#F6F6F6" transform="matrix(1.00, 0.00, -0.00, -1.00, 9430.6, 18.3)"></text><text xml:space="preserve" font-family="LastResort,LastResort" font-size="50.0" fill="#F6F6F6" transform="matrix(1.00, 0.00, -0.00, -1.00, 9488.0, 18.3)"></text><text xml:space="preserve" font-family="LastResort,LastResort" font-size="50.0" fill="#F6F6F6" transform="matrix(1.00, 0.00, -0.00, -1.00, 9545.3, 18.3)"></text><text xml:space="preserve" font-family="LastResort,LastResort" font-size="50.0" fill="#F6F6F6" transform="matrix(1.00, 0.00, -0.00, -1.00, 9602.7, 18.3)"></text><text xml:space="preserve" font-family="LastResort,LastResort" font-size="50.0" fill="#F6F6F6" transform="matrix(1.00, 0.00, -0.00, -1.00, 9660.1, 18.3)"></text><text xml:space="preserve" font-family="LastResort,LastResort" font-size="50.0" fill="#F6F6F6" transform="matrix(1.00, 0.00, -0.00, -1.00, 9717.5, 18.3)"></text><text xml:space="preserve" font-family="LastResort,LastResort" font-size="50.0" fill="#F6F6F6" transform="matrix(1.00, 0.00, -0.00, -1.00, 9774.8, 18.3)"></text><text xml:space="preserve" font-family="LastResort,LastResort" font-size="50.0" fill="#F6F6F6" transform="matrix(1.00, 0.00, -0.00, -1.00, 9832.2, 18.3)"></text><text xml:space="preserve" font-family="LastResort,LastResort" font-size="50.0" fill="#F6F6F6" transform="matrix(1.00, 0.00, -0.00, -1.00, 9889.6, 18.3)"></text><text xml:space="preserve" font-family="LastResort,LastResort" font-size="50.0" fill="#F6F6F6" transform="matrix(1.00, 0.00, -0.00, -1.00, 9947.0, 18.3)"></text><text xml:space="preserve" font-family="LastResort,LastResort" font-size="50.0" fill="#F6F6F6" transform="matrix(1.00, 0.00, -0.00, -1.00, 10004.3, 18.3)"></text><text xml:space="preserve" font-family="LastResort,LastResort" font-size="50.0" fill="#F6F6F6" transform="matrix(1.00, 0.00, -0.00, -1.00, 10061.7, 18.3)"></text><text xml:space="preserve" font-family="LastResort,LastResort" font-size="50.0" fill="#F6F6F6" transform="matrix(1.00, 0.00, -0.00, -1.00, 10119.1, 18.3)"></text><text xml:space="preserve" font-family="LastResort,LastResort" font-size="50.0" fill="#F6F6F6" transform="matrix(1.00, 0.00, -0.00, -1.00, 10176.4, 18.3)"></text><text xml:space="preserve" font-family="LastResort,LastResort" font-size="50.0" fill="#F6F6F6" transform="matrix(1.00, 0.00, -0.00, -1.00, 10233.8, 18.3)"></text><text xml:space="preserve" font-family="LastResort,LastResort" font-size="50.0" fill="#F6F6F6" transform="matrix(1.00, 0.00, -0.00, -1.00, 10291.2, 18.3)"></text><text xml:space="preserve" font-family="LastResort,LastResort" font-size="50.0" fill="#F6F6F6" transform="matrix(1.00, 0.00, -0.00, -1.00, 10348.6, 18.3)"></text><text xml:space="preserve" font-family="LastResort,LastResort" font-size="50.0" fill="#F6F6F6" transform="matrix(1.00, 0.00, -0.00, -1.00, 10405.9, 18.3)"></text><text xml:space="preserve" font-family="LastResort,LastResort" font-size="50.0" fill="#F6F6F6" transform="matrix(1.00, 0.00, -0.00, -1.00, 10463.3, 18.3)"></text><text xml:space="preserve" font-family="LastResort,LastResort" font-size="50.0" fill="#F6F6F6" transform="matrix(1.00, 0.00, -0.00, -1.00, 10520.7, 18.3)"></text><text xml:space="preserve" font-family="LastResort,LastResort" font-size="50.0" fill="#F6F6F6" transform="matrix(1.00, 0.00, -0.00, -1.00, 10578.1, 18.3)"></text><text xml:space="preserve" font-family="LastResort,LastResort" font-size="50.0" fill="#F6F6F6" transform="matrix(1.00, 0.00, -0.00, -1.00, 10635.4, 18.3)"></text><text xml:space="preserve" font-family="LastResort,LastResort" font-size="50.0" fill="#F6F6F6" transform="matrix(1.00, 0.00, -0.00, -1.00, 10692.8, 18.3)"></text><text xml:space="preserve" font-family="LastResort,LastResort" font-size="50.0" fill="#F6F6F6" transform="matrix(1.00, 0.00, -0.00, -1.00, 10750.2, 18.3)"></text><text xml:space="preserve" font-family="LastResort,LastResort" font-size="50.0" fill="#F6F6F6" transform="matrix(1.00, 0.00, -0.00, -1.00, 10807.5, 18.3)"></text><text xml:space="preserve" font-family="LastResort,LastResort" font-size="50.0" fill="#F6F6F6" transform="matrix(1.00, 0.00, -0.00, -1.00, 10864.9, 18.3)"></text><text xml:space="preserve" font-family="LastResort,LastResort" font-size="50.0" fill="#F6F6F6" transform="matrix(1.00, 0.00, -0.00, -1.00, 10922.3, 18.3)"></text><text xml:space="preserve" font-family="LastResort,LastResort" font-size="50.0" fill="#F6F6F6" transform="matrix(1.00, 0.00, -0.00, -1.00, 10979.7, 18.3)"></text><text xml:space="preserve" font-family="LastResort,LastResort" font-size="50.0" fill="#F6F6F6" transform="matrix(1.00, 0.00, -0.00, -1.00, 11037.0, 18.3)"></text><text xml:space="preserve" font-family="LastResort,LastResort" font-size="50.0" fill="#F6F6F6" transform="matrix(1.00, 0.00, -0.00, -1.00, 11094.4, 18.3)"></text><text xml:space="preserve" font-family="LastResort,LastResort" font-size="50.0" fill="#F6F6F6" transform="matrix(1.00, 0.00, -0.00, -1.00, 11151.8, 18.3)"></text><text xml:space="preserve" font-family="LastResort,LastResort" font-size="50.0" fill="#F6F6F6" transform="matrix(1.00, 0.00, -0.00, -1.00, 11209.2, 18.3)"></text><text xml:space="preserve" font-family="LastResort,LastResort" font-size="50.0" fill="#F6F6F6" transform="matrix(1.00, 0.00, -0.00, -1.00, 11266.5, 18.3)"></text><text xml:space="preserve" font-family="LastResort,LastResort" font-size="50.0" fill="#F6F6F6" transform="matrix(1.00, 0.00, -0.00, -1.00, 11323.9, 18.3)"></text><text xml:space="preserve" font-family="LastResort,LastResort" font-size="50.0" fill="#F6F6F6" transform="matrix(1.00, 0.00, -0.00, -1.00, 11381.3, 18.3)"></text><text xml:space="preserve" font-family="LastResort,LastResort" font-size="50.0" fill="#F6F6F6" transform="matrix(1.00, 0.00, -0.00, -1.00, 11438.7, 18.3)"></text><text xml:space="preserve" font-family="LastResort,LastResort" font-size="50.0" fill="#F6F6F6" transform="matrix(1.00, 0.00, -0.00, -1.00, 11496.0, 18.3)"></text><text xml:space="preserve" font-family="LastResort,LastResort" font-size="50.0" fill="#F6F6F6" transform="matrix(1.00, 0.00, -0.00, -1.00, 11553.4, 18.3)"></text><text xml:space="preserve" font-family="LastResort,LastResort" font-size="50.0" fill="#F6F6F6" transform="matrix(1.00, 0.00, -0.00, -1.00, 11610.8, 18.3)"></text><text xml:space="preserve" font-family="LastResort,LastResort" font-size="50.0" fill="#F6F6F6" transform="matrix(1.00, 0.00, -0.00, -1.00, 11668.1, 18.3)"></text><text xml:space="preserve" font-family="LastResort,LastResort" font-size="50.0" fill="#F6F6F6" transform="matrix(1.00, 0.00, -0.00, -1.00, 11725.5, 18.3)"></text><text xml:space="preserve" font-family="LastResort,LastResort" font-size="50.0" fill="#F6F6F6" transform="matrix(1.00, 0.00, -0.00, -1.00, 11782.9, 18.3)"></text><text xml:space="preserve" font-family="LastResort,LastResort" font-size="50.0" fill="#F6F6F6" transform="matrix(1.00, 0.00, -0.00, -1.00, 11840.3, 18.3)"></text><text xml:space="preserve" font-family="LastResort,LastResort" font-size="50.0" fill="#F6F6F6" transform="matrix(1.00, 0.00, -0.00, -1.00, 11897.6, 18.3)"></text><text xml:space="preserve" font-family="LastResort,LastResort" font-size="50.0" fill="#F6F6F6" transform="matrix(1.00, 0.00, -0.00, -1.00, 11955.0, 18.3)"></text><text xml:space="preserve" font-family="LastResort,LastResort" font-size="50.0" fill="#F6F6F6" transform="matrix(1.00, 0.00, -0.00, -1.00, 12012.4, 18.3)"></text><text xml:space="preserve" font-family="LastResort,LastResort" font-size="50.0" fill="#F6F6F6" transform="matrix(1.00, 0.00, -0.00, -1.00, 12069.8, 18.3)"></text><text xml:space="preserve" font-family="LastResort,LastResort" font-size="50.0" fill="#F6F6F6" transform="matrix(1.00, 0.00, -0.00, -1.00, 12127.1, 18.3)"></text><text xml:space="preserve" font-family="LastResort,LastResort" font-size="50.0" fill="#F6F6F6" transform="matrix(1.00, 0.00, -0.00, -1.00, 12184.5, 18.3)"></text><text xml:space="preserve" font-family="LastResort,LastResort" font-size="50.0" fill="#F6F6F6" transform="matrix(1.00, 0.00, -0.00, -1.00, 12241.9, 18.3)"></text><text xml:space="preserve" font-family="LastResort,LastResort" font-size="50.0" fill="#F6F6F6" transform="matrix(1.00, 0.00, -0.00, -1.00, 12299.2, 18.3)"></text><text xml:space="preserve" font-family="LastResort,LastResort" font-size="50.0" fill="#F6F6F6" transform="matrix(1.00, 0.00, -0.00, -1.00, 12356.6, 18.3)"></text><text xml:space="preserve" font-family="LastResort,LastResort" font-size="50.0" fill="#F6F6F6" transform="matrix(1.00, 0.00, -0.00, -1.00, 12414.0, 18.3)"></text><text xml:space="preserve" font-family="LastResort,LastResort" font-size="50.0" fill="#F6F6F6" transform="matrix(1.00, 0.00, -0.00, -1.00, 12471.4, 18.3)"></text><text xml:space="preserve" font-family="LastResort,LastResort" font-size="50.0" fill="#F6F6F6" transform="matrix(1.00, 0.00, -0.00, -1.00, 12528.7, 18.3)"></text><text xml:space="preserve" font-family="LastResort,LastResort" font-size="50.0" fill="#F6F6F6" transform="matrix(1.00, 0.00, -0.00, -1.00, 12586.1, 18.3)"></text><text xml:space="preserve" font-family="LastResort,LastResort" font-size="50.0" fill="#F6F6F6" transform="matrix(1.00, 0.00, -0.00, -1.00, 12643.5, 18.3)"></text><text xml:space="preserve" font-family="LastResort,LastResort" font-size="50.0" fill="#F6F6F6" transform="matrix(1.00, 0.00, -0.00, -1.00, 12700.9, 18.3)"></text><text xml:space="preserve" font-family="LastResort,LastResort" font-size="50.0" fill="#F6F6F6" transform="matrix(1.00, 0.00, -0.00, -1.00, 12758.2, 18.3)"></text><text xml:space="preserve" font-family="LastResort,LastResort" font-size="50.0" fill="#F6F6F6" transform="matrix(1.00, 0.00, -0.00, -1.00, 12815.6, 18.3)"></text><text xml:space="preserve" font-family="LastResort,LastResort" font-size="50.0" fill="#F6F6F6" transform="matrix(1.00, 0.00, -0.00, -1.00, 12873.0, 18.3)"></text><text xml:space="preserve" font-family="LastResort,LastResort" font-size="50.0" fill="#F6F6F6" transform="matrix(1.00, 0.00, -0.00, -1.00, 12930.4, 18.3)"></text><text xml:space="preserve" font-family="LastResort,LastResort" font-size="50.0" fill="#F6F6F6" transform="matrix(1.00, 0.00, -0.00, -1.00, 12987.7, 18.3)"></text><text xml:space="preserve" font-family="LastResort,LastResort" font-size="50.0" fill="#F6F6F6" transform="matrix(1.00, 0.00, -0.00, -1.00, 13045.1, 18.3)"></text><text xml:space="preserve" font-family="LastResort,LastResort" font-size="50.0" fill="#F6F6F6" transform="matrix(1.00, 0.00, -0.00, -1.00, 13102.5, 18.3)"></text><text xml:space="preserve" font-family="LastResort,LastResort" font-size="50.0" fill="#F6F6F6" transform="matrix(1.00, 0.00, -0.00, -1.00, 13159.8, 18.3)"></text><text xml:space="preserve" font-family="LastResort,LastResort" font-size="50.0" fill="#F6F6F6" transform="matrix(1.00, 0.00, -0.00, -1.00, 13217.2, 18.3)"></text><text xml:space="preserve" font-family="LastResort,LastResort" font-size="50.0" fill="#F6F6F6" transform="matrix(1.00, 0.00, -0.00, -1.00, 13274.6, 18.3)"></text><text xml:space="preserve" font-family="LastResort,LastResort" font-size="50.0" fill="#F6F6F6" transform="matrix(1.00, 0.00, -0.00, -1.00, 13332.0, 18.3)"></text><text xml:space="preserve" font-family="LastResort,LastResort" font-size="50.0" fill="#F6F6F6" transform="matrix(1.00, 0.00, -0.00, -1.00, 13389.3, 18.3)"></text><text xml:space="preserve" font-family="LastResort,LastResort" font-size="50.0" fill="#F6F6F6" transform="matrix(1.00, 0.00, -0.00, -1.00, 13446.7, 18.3)"></text><text xml:space="preserve" font-family="LastResort,LastResort" font-size="50.0" fill="#F6F6F6" transform="matrix(1.00, 0.00, -0.00, -1.00, 13504.1, 18.3)"></text><text xml:space="preserve" font-family="LastResort,LastResort" font-size="50.0" fill="#F6F6F6" transform="matrix(1.00, 0.00, -0.00, -1.00, 13561.5, 18.3)"></text><text xml:space="preserve" font-family="LastResort,LastResort" font-size="50.0" fill="#F6F6F6" transform="matrix(1.00, 0.00, -0.00, -1.00, 13618.8, 18.3)"></text><text xml:space="preserve" font-family="LastResort,LastResort" font-size="50.0" fill="#F6F6F6" transform="matrix(1.00, 0.00, -0.00, -1.00, 13676.2, 18.3)"></text><text xml:space="preserve" font-family="LastResort,LastResort" font-size="50.0" fill="#F6F6F6" transform="matrix(1.00, 0.00, -0.00, -1.00, 13733.6, 18.3)"></text><text xml:space="preserve" font-family="LastResort,LastResort" font-size="50.0" fill="#F6F6F6" transform="matrix(1.00, 0.00, -0.00, -1.00, 13790.9, 18.3)"></text><text xml:space="preserve" font-family="LastResort,LastResort" font-size="50.0" fill="#F6F6F6" transform="matrix(1.00, 0.00, -0.00, -1.00, 13848.3, 18.3)"></text><text xml:space="preserve" font-family="LastResort,LastResort" font-size="50.0" fill="#F6F6F6" transform="matrix(1.00, 0.00, -0.00, -1.00, 13905.7, 18.3)"></text><text xml:space="preserve" font-family="LastResort,LastResort" font-size="50.0" fill="#F6F6F6" transform="matrix(1.00, 0.00, -0.00, -1.00, 13963.1, 18.3)"></text><text xml:space="preserve" font-family="LastResort,LastResort" font-size="50.0" fill="#F6F6F6" transform="matrix(1.00, 0.00, -0.00, -1.00, 14020.4, 18.3)"></text><text xml:space="preserve" font-family="LastResort,LastResort" font-size="50.0" fill="#F6F6F6" transform="matrix(1.00, 0.00, -0.00, -1.00, 14077.8, 18.3)"></text><text xml:space="preserve" font-family="LastResort,LastResort" font-size="50.0" fill="#F6F6F6" transform="matrix(1.00, 0.00, -0.00, -1.00, 14135.2, 18.3)"></text><text xml:space="preserve" font-family="LastResort,LastResort" font-size="50.0" fill="#F6F6F6" transform="matrix(1.00, 0.00, -0.00, -1.00, 14192.6, 18.3)"></text><text xml:space="preserve" font-family="LastResort,LastResort" font-size="50.0" fill="#F6F6F6" transform="matrix(1.00, 0.00, -0.00, -1.00, 14249.9, 18.3)"></text><text xml:space="preserve" font-family="LastResort,LastResort" font-size="50.0" fill="#F6F6F6" transform="matrix(1.00, 0.00, -0.00, -1.00, 14307.3, 18.3)"></text><text xml:space="preserve" font-family="LastResort,LastResort" font-size="50.0" fill="#F6F6F6" transform="matrix(1.00, 0.00, -0.00, -1.00, 14364.7, 18.3)"></text><text xml:space="preserve" font-family="LastResort,LastResort" font-size="50.0" fill="#F6F6F6" transform="matrix(1.00, 0.00, -0.00, -1.00, 14422.1, 18.3)"></text><text xml:space="preserve" font-family="LastResort,LastResort" font-size="50.0" fill="#F6F6F6" transform="matrix(1.00, 0.00, -0.00, -1.00, 14479.4, 18.3)"></text><text xml:space="preserve" font-family="LastResort,LastResort" font-size="50.0" fill="#F6F6F6" transform="matrix(1.00, 0.00, -0.00, -1.00, 14536.8, 18.3)"></text><text xml:space="preserve" font-family="LastResort,LastResort" font-size="50.0" fill="#F6F6F6" transform="matrix(1.00, 0.00, -0.00, -1.00, 14594.2, 18.3)"></text><text xml:space="preserve" font-family="LastResort,LastResort" font-size="50.0" fill="#F6F6F6" transform="matrix(1.00, 0.00, -0.00, -1.00, 14651.5, 18.3)"></text></g></g><g><clipPath id="clip0x6180058a5340"><path d="M 68.9 14.6 L 183.2 14.6 L 183.2 51.6 L 68.9 51.6 Z M 68.9 14.6 "></path></clipPath><g clip-path="url(#clip0x6180058a5340)"><text xml:space="preserve" font-family="Helvetica,Helvetica" font-size="22.0" fill="#E2E2E2" transform="matrix(1.00, 0.00, -0.00, -1.00, 74.4, 25.1)">W</text><text xml:space="preserve" font-family="Helvetica,Helvetica" font-size="22.0" fill="#E2E2E2" transform="matrix(1.00, 0.00, -0.00, -1.00, 94.7, 25.1)">e</text><text xml:space="preserve" font-family="Helvetica,Helvetica" font-size="22.0" fill="#E2E2E2" transform="matrix(1.00, 0.00, -0.00, -1.00, 107.0, 25.1)">b</text><text xml:space="preserve" font-family="Helvetica,Helvetica" font-size="22.0" fill="#E2E2E2" transform="matrix(1.00, 0.00, -0.00, -1.00, 119.2, 25.1)"> </text><text xml:space="preserve" font-family="Helvetica,Helvetica" font-size="22.0" fill="#E2E2E2" transform="matrix(1.00, 0.00, -0.00, -1.00, 125.3, 25.1)">P</text><text xml:space="preserve" font-family="Helvetica,Helvetica" font-size="22.0" fill="#E2E2E2" transform="matrix(1.00, 0.00, -0.00, -1.00, 140.0, 25.1)">a</text><text xml:space="preserve" font-family="Helvetica,Helvetica" font-size="22.0" fill="#E2E2E2" transform="matrix(1.00, 0.00, -0.00, -1.00, 152.2, 25.1)">g</text><text xml:space="preserve" font-family="Helvetica,Helvetica" font-size="22.0" fill="#E2E2E2" transform="matrix(1.00, 0.00, -0.00, -1.00, 164.5, 25.1)">e</text></g></g><g><clipPath id="clip0x6180058a5820"><path d="M 245.8 14.6 L 436.3 14.6 L 436.3 51.6 L 245.8 51.6 Z M 245.8 14.6 "></path></clipPath><g clip-path="url(#clip0x6180058a5820)"><text xml:space="preserve" font-family="Helvetica,Helvetica" font-size="22.0" fill="#E2E2E2" transform="matrix(1.00, 0.00, -0.00, -1.00, 251.3, 25.1)">:</text><text xml:space="preserve" font-family="Helvetica,Helvetica" font-size="22.0" fill="#E2E2E2" transform="matrix(1.00, 0.00, -0.00, -1.00, 257.4, 25.1)"> </text><text xml:space="preserve" font-family="Helvetica,Helvetica" font-size="22.0" fill="#E2E2E2" transform="matrix(1.00, 0.00, -0.00, -1.00, 263.5, 25.1)">w</text><text xml:space="preserve" font-family="Helvetica,Helvetica" font-size="22.0" fill="#E2E2E2" transform="matrix(1.00, 0.00, -0.00, -1.00, 279.4, 25.1)">w</text><text xml:space="preserve" font-family="Helvetica,Helvetica" font-size="22.0" fill="#E2E2E2" transform="matrix(1.00, 0.00, -0.00, -1.00, 295.3, 25.1)">w</text><text xml:space="preserve" font-family="Helvetica,Helvetica" font-size="22.0" fill="#E2E2E2" transform="matrix(1.00, 0.00, -0.00, -1.00, 310.0, 25.1)">.</text><text xml:space="preserve" font-family="Helvetica,Helvetica" font-size="22.0" fill="#E2E2E2" transform="matrix(1.00, 0.00, -0.00, -1.00, 316.1, 25.1)">p</text><text xml:space="preserve" font-family="Helvetica,Helvetica" font-size="22.0" fill="#E2E2E2" transform="matrix(1.00, 0.00, -0.00, -1.00, 328.3, 25.1)">r</text><text xml:space="preserve" font-family="Helvetica,Helvetica" font-size="22.0" fill="#E2E2E2" transform="matrix(1.00, 0.00, -0.00, -1.00, 335.7, 25.1)">o</text><text xml:space="preserve" font-family="Helvetica,Helvetica" font-size="22.0" fill="#E2E2E2" transform="matrix(1.00, 0.00, -0.00, -1.00, 347.9, 25.1)">j</text><text xml:space="preserve" font-family="Helvetica,Helvetica" font-size="22.0" fill="#E2E2E2" transform="matrix(1.00, 0.00, -0.00, -1.00, 352.8, 25.1)">e</text><text xml:space="preserve" font-family="Helvetica,Helvetica" font-size="22.0" fill="#E2E2E2" transform="matrix(1.00, 0.00, -0.00, -1.00, 365.0, 25.1)">c</text><text xml:space="preserve" font-family="Helvetica,Helvetica" font-size="22.0" fill="#E2E2E2" transform="matrix(1.00, 0.00, -0.00, -1.00, 376.0, 25.1)">t</text><text xml:space="preserve" font-family="Helvetica,Helvetica" font-size="22.0" fill="#E2E2E2" transform="matrix(1.00, 0.00, -0.00, -1.00, 382.1, 25.1)">.</text><text xml:space="preserve" font-family="Helvetica,Helvetica" font-size="22.0" fill="#E2E2E2" transform="matrix(1.00, 0.00, -0.00, -1.00, 388.3, 25.1)">c</text><text xml:space="preserve" font-family="Helvetica,Helvetica" font-size="22.0" fill="#E2E2E2" transform="matrix(1.00, 0.00, -0.00, -1.00, 399.3, 25.1)">o</text><text xml:space="preserve" font-family="Helvetica,Helvetica" font-size="22.0" fill="#E2E2E2" transform="matrix(1.00, 0.00, -0.00, -1.00, 411.5, 25.1)">m</text></g></g></g></svg>