<?xml version="1.0" encoding="UTF-8" standalone="no"?><svg xmlns="http://www.w3.org/2000/svg" xmlns:xlink="http://www.w3.org/1999/xlink" clip-rule="evenodd" stroke-miterlimit="10" viewBox="0 0 338 310"><desc>SVG generated by Keynote</desc><defs></defs><g transform="matrix(1.00, 0.00, -0.00, -1.00, 0.0, 310.0)"><g><clipPath id="clip0x608004ca2a00"><path d="M 34.0 39.6 L 304.0 39.6 L 304.0 309.6 L 34.0 309.6 Z M 34.0 39.6 "></path></clipPath><g clip-path="url(#clip0x608004ca2a00)"><path d="M 34.0 310.0 L 304.0 310.0 L 304.0 40.0 L 34.0 40.0 Z M 34.0 310.0 " fill="#000000" fill-opacity="0.00"></path></g></g><g><clipPath id="clip0x608004ca2ca0"><path d="M 34.0 39.6 L 304.0 39.6 L 304.0 309.6 L 34.0 309.6 Z M 34.0 39.6 "></path></clipPath><g clip-path="url(#clip0x608004ca2ca0)"><g><g><clipPath id="clip0x608004ca2e80"><path d="M 34.0 39.0 L 305.0 39.0 L 305.0 310.0 L 34.0 310.0 Z M 34.0 39.0 "></path></clipPath><g clip-path="url(#clip0x608004ca2e80)"><g><g><clipPath id="clip0x608004ca3060"><path d="M 34.0 39.0 L 305.0 39.0 L 305.0 310.0 L 34.0 310.0 Z M 34.0 39.0 "></path></clipPath><g clip-path="url(#clip0x608004ca3060)"><path d="M 169.0 175.0 L 259.3 275.3 C 203.9 325.2 118.6 320.7 68.7 265.3 C 18.8 209.9 23.3 124.6 78.7 74.7 C 134.1 24.8 219.4 29.3 269.3 84.7 Z M 169.0 175.0 " fill="#EDC25F"></path></g></g></g></g></g><g><clipPath id="clip0x608004ca32a0"><path d="M 34.0 39.0 L 305.0 39.0 L 305.0 310.0 L 34.0 310.0 Z M 34.0 39.0 "></path></clipPath><g clip-path="url(#clip0x608004ca32a0)"><g><g><clipPath id="clip0x608004ca3480"><path d="M 34.0 39.0 L 305.0 39.0 L 305.0 310.0 L 34.0 310.0 Z M 34.0 39.0 "></path></clipPath><g clip-path="url(#clip0x608004ca3480)"><path d="M 169.0 175.0 L 269.3 84.7 C 319.2 140.1 314.7 225.4 259.3 275.3 Z M 169.0 175.0 " fill="#677188"></path></g></g></g></g></g></g></g></g><g><clipPath id="clip0x608004ca36c0"><path d="M 57.5 63.2 L 280.5 63.2 L 280.5 286.1 L 57.5 286.1 Z M 57.5 63.2 "></path></clipPath><g clip-path="url(#clip0x608004ca36c0)"><path d="M 247.1 252.8 C 290.2 209.6 290.2 139.7 247.1 96.5 C 204.0 53.4 134.0 53.4 90.9 96.5 C 47.7 139.7 47.7 209.6 90.9 252.8 C 134.0 295.9 204.0 295.9 247.1 252.8 Z M 247.1 252.8 " fill="#5A6378"></path></g></g><g><clipPath id="clip0x608004ca3900"><path d="M 0.8 0.5 L 337.1 0.5 L 337.1 170.1 L 0.8 170.1 Z M 0.8 0.5 "></path></clipPath><g clip-path="url(#clip0x608004ca3900)"><path d="M 2.0 169.0 L 336.0 169.0 L 336.0 1.0 L 2.0 1.0 Z M 1.8 169.1 " fill="#5A6378"></path></g></g><g><clipPath id="clip0x608004ca3b40"><path d="M 47.5 108.9 L 290.4 108.9 L 290.4 162.9 L 47.5 162.9 Z M 47.5 108.9 "></path></clipPath><g clip-path="url(#clip0x608004ca3b40)"><text xml:space="preserve" font-family="Helvetica,Helvetica" font-size="32.0" fill="#EDC25F" transform="matrix(1.00, 0.00, -0.00, -1.00, 56.0, 124.3)">S</text><text xml:space="preserve" font-family="Helvetica,Helvetica" font-size="32.0" fill="#EDC25F" transform="matrix(1.00, 0.00, -0.00, -1.00, 77.4, 124.3)">e</text><text xml:space="preserve" font-family="Helvetica,Helvetica" font-size="32.0" fill="#EDC25F" transform="matrix(1.00, 0.00, -0.00, -1.00, 95.2, 124.3)">a</text><text xml:space="preserve" font-family="Helvetica,Helvetica" font-size="32.0" fill="#EDC25F" transform="matrix(1.00, 0.00, -0.00, -1.00, 113.0, 124.3)">r</text><text xml:space="preserve" font-family="Helvetica,Helvetica" font-size="32.0" fill="#EDC25F" transform="matrix(1.00, 0.00, -0.00, -1.00, 123.6, 124.3)">c</text><text xml:space="preserve" font-family="Helvetica,Helvetica" font-size="32.0" fill="#EDC25F" transform="matrix(1.00, 0.00, -0.00, -1.00, 139.6, 124.3)">h</text><text xml:space="preserve" font-family="Helvetica,Helvetica" font-size="32.0" fill="#EDC25F" transform="matrix(1.00, 0.00, -0.00, -1.00, 157.4, 124.3)"> </text><text xml:space="preserve" font-family="Helvetica,Helvetica" font-size="32.0" fill="#EDC25F" transform="matrix(1.00, 0.00, -0.00, -1.00, 166.3, 124.3)">E</text><text xml:space="preserve" font-family="Helvetica,Helvetica" font-size="32.0" fill="#EDC25F" transform="matrix(1.00, 0.00, -0.00, -1.00, 187.7, 124.3)">n</text><text xml:space="preserve" font-family="Helvetica,Helvetica" font-size="32.0" fill="#EDC25F" transform="matrix(1.00, 0.00, -0.00, -1.00, 205.5, 124.3)">g</text><text xml:space="preserve" font-family="Helvetica,Helvetica" font-size="32.0" fill="#EDC25F" transform="matrix(1.00, 0.00, -0.00, -1.00, 223.3, 124.3)">i</text><text xml:space="preserve" font-family="Helvetica,Helvetica" font-size="32.0" fill="#EDC25F" transform="matrix(1.00, 0.00, -0.00, -1.00, 230.4, 124.3)">n</text><text xml:space="preserve" font-family="Helvetica,Helvetica" font-size="32.0" fill="#EDC25F" transform="matrix(1.00, 0.00, -0.00, -1.00, 248.2, 124.3)">e</text><text xml:space="preserve" font-family="Helvetica,Helvetica" font-size="32.0" fill="#EDC25F" transform="matrix(1.00, 0.00, -0.00, -1.00, 266.0, 124.3)">s</text></g></g><g><clipPath id="clip0x608004ca4260"><path d="M 0.3 17.5 L 337.6 17.5 L 337.6 106.5 L 0.3 106.5 Z M 0.3 17.5 "></path></clipPath><g clip-path="url(#clip0x608004ca4260)"><text xml:space="preserve" font-family="Helvetica,Helvetica" font-size="22.0" fill="#E2E2E2" transform="matrix(1.00, 0.00, -0.00, -1.00, 16.7, 80.1)">V</text><text xml:space="preserve" font-family="Helvetica,Helvetica" font-size="22.0" fill="#E2E2E2" transform="matrix(1.00, 0.00, -0.00, -1.00, 30.2, 80.1)">e</text><text xml:space="preserve" font-family="Helvetica,Helvetica" font-size="22.0" fill="#E2E2E2" transform="matrix(1.00, 0.00, -0.00, -1.00, 42.4, 80.1)">l</text><text xml:space="preserve" font-family="Helvetica,Helvetica" font-size="22.0" fill="#E2E2E2" transform="matrix(1.00, 0.00, -0.00, -1.00, 47.3, 80.1)"> </text><text xml:space="preserve" font-family="Helvetica,Helvetica" font-size="22.0" fill="#E2E2E2" transform="matrix(1.00, 0.00, -0.00, -1.00, 53.4, 80.1)">i</text><text xml:space="preserve" font-family="Helvetica,Helvetica" font-size="22.0" fill="#E2E2E2" transform="matrix(1.00, 0.00, -0.00, -1.00, 58.3, 80.1)">l</text><text xml:space="preserve" font-family="Helvetica,Helvetica" font-size="22.0" fill="#E2E2E2" transform="matrix(1.00, 0.00, -0.00, -1.00, 63.2, 80.1)">l</text><text xml:space="preserve" font-family="Helvetica,Helvetica" font-size="22.0" fill="#E2E2E2" transform="matrix(1.00, 0.00, -0.00, -1.00, 68.1, 80.1)">u</text><text xml:space="preserve" font-family="Helvetica,Helvetica" font-size="22.0" fill="#E2E2E2" transform="matrix(1.00, 0.00, -0.00, -1.00, 80.3, 80.1)">m</text><text xml:space="preserve" font-family="Helvetica,Helvetica" font-size="22.0" fill="#E2E2E2" transform="matrix(1.00, 0.00, -0.00, -1.00, 98.7, 80.1)"> </text><text xml:space="preserve" font-family="Helvetica,Helvetica" font-size="22.0" fill="#E2E2E2" transform="matrix(1.00, 0.00, -0.00, -1.00, 104.8, 80.1)">d</text><text xml:space="preserve" font-family="Helvetica,Helvetica" font-size="22.0" fill="#E2E2E2" transform="matrix(1.00, 0.00, -0.00, -1.00, 117.0, 80.1)">o</text><text xml:space="preserve" font-family="Helvetica,Helvetica" font-size="22.0" fill="#E2E2E2" transform="matrix(1.00, 0.00, -0.00, -1.00, 129.3, 80.1)">l</text><text xml:space="preserve" font-family="Helvetica,Helvetica" font-size="22.0" fill="#E2E2E2" transform="matrix(1.00, 0.00, -0.00, -1.00, 134.1, 80.1)">o</text><text xml:space="preserve" font-family="Helvetica,Helvetica" font-size="22.0" fill="#E2E2E2" transform="matrix(1.00, 0.00, -0.00, -1.00, 146.4, 80.1)">r</text><text xml:space="preserve" font-family="Helvetica,Helvetica" font-size="22.0" fill="#E2E2E2" transform="matrix(1.00, 0.00, -0.00, -1.00, 153.7, 80.1)">e</text><text xml:space="preserve" font-family="Helvetica,Helvetica" font-size="22.0" fill="#E2E2E2" transform="matrix(1.00, 0.00, -0.00, -1.00, 166.0, 80.1)"> </text><text xml:space="preserve" font-family="Helvetica,Helvetica" font-size="22.0" fill="#E2E2E2" transform="matrix(1.00, 0.00, -0.00, -1.00, 172.1, 80.1)">e</text><text xml:space="preserve" font-family="Helvetica,Helvetica" font-size="22.0" fill="#E2E2E2" transform="matrix(1.00, 0.00, -0.00, -1.00, 184.3, 80.1)">u</text><text xml:space="preserve" font-family="Helvetica,Helvetica" font-size="22.0" fill="#E2E2E2" transform="matrix(1.00, 0.00, -0.00, -1.00, 196.5, 80.1)"> </text><text xml:space="preserve" font-family="Helvetica,Helvetica" font-size="22.0" fill="#E2E2E2" transform="matrix(1.00, 0.00, -0.00, -1.00, 202.6, 80.1)">f</text><text xml:space="preserve" font-family="Helvetica,Helvetica" font-size="22.0" fill="#E2E2E2" transform="matrix(1.00, 0.00, -0.00, -1.00, 208.8, 80.1)">e</text><text xml:space="preserve" font-family="Helvetica,Helvetica" font-size="22.0" fill="#E2E2E2" transform="matrix(1.00, 0.00, -0.00, -1.00, 221.0, 80.1)">u</text><text xml:space="preserve" font-family="Helvetica,Helvetica" font-size="22.0" fill="#E2E2E2" transform="matrix(1.00, 0.00, -0.00, -1.00, 233.2, 80.1)">g</text><text xml:space="preserve" font-family="Helvetica,Helvetica" font-size="22.0" fill="#E2E2E2" transform="matrix(1.00, 0.00, -0.00, -1.00, 245.5, 80.1)">i</text><text xml:space="preserve" font-family="Helvetica,Helvetica" font-size="22.0" fill="#E2E2E2" transform="matrix(1.00, 0.00, -0.00, -1.00, 250.4, 80.1)">a</text><text xml:space="preserve" font-family="Helvetica,Helvetica" font-size="22.0" fill="#E2E2E2" transform="matrix(1.00, 0.00, -0.00, -1.00, 262.6, 80.1)">t</text><text xml:space="preserve" font-family="Helvetica,Helvetica" font-size="22.0" fill="#E2E2E2" transform="matrix(1.00, 0.00, -0.00, -1.00, 268.7, 80.1)"> </text><text xml:space="preserve" font-family="Helvetica,Helvetica" font-size="22.0" fill="#E2E2E2" transform="matrix(1.00, 0.00, -0.00, -1.00, 274.8, 80.1)">n</text><text xml:space="preserve" font-family="Helvetica,Helvetica" font-size="22.0" fill="#E2E2E2" transform="matrix(1.00, 0.00, -0.00, -1.00, 287.1, 80.1)">u</text><text xml:space="preserve" font-family="Helvetica,Helvetica" font-size="22.0" fill="#E2E2E2" transform="matrix(1.00, 0.00, -0.00, -1.00, 299.3, 80.1)">l</text><text xml:space="preserve" font-family="Helvetica,Helvetica" font-size="22.0" fill="#E2E2E2" transform="matrix(1.00, 0.00, -0.00, -1.00, 304.2, 80.1)">l</text><text xml:space="preserve" font-family="Helvetica,Helvetica" font-size="22.0" fill="#E2E2E2" transform="matrix(1.00, 0.00, -0.00, -1.00, 309.1, 80.1)">a</text><text xml:space="preserve" font-family="Helvetica,Helvetica" font-size="22.0" fill="#E2E2E2" transform="matrix(1.00, 0.00, -0.00, -1.00, 321.3, 80.1)"> </text><text xml:space="preserve" font-family="Helvetica,Helvetica" font-size="22.0" fill="#E2E2E2" transform="matrix(1.00, 0.00, -0.00, -1.00, 7.0, 54.1)">f</text><text xml:space="preserve" font-family="Helvetica,Helvetica" font-size="22.0" fill="#E2E2E2" transform="matrix(1.00, 0.00, -0.00, -1.00, 13.1, 54.1)">a</text><text xml:space="preserve" font-family="Helvetica,Helvetica" font-size="22.0" fill="#E2E2E2" transform="matrix(1.00, 0.00, -0.00, -1.00, 25.3, 54.1)">c</text><text xml:space="preserve" font-family="Helvetica,Helvetica" font-size="22.0" fill="#E2E2E2" transform="matrix(1.00, 0.00, -0.00, -1.00, 36.3, 54.1)">i</text><text xml:space="preserve" font-family="Helvetica,Helvetica" font-size="22.0" fill="#E2E2E2" transform="matrix(1.00, 0.00, -0.00, -1.00, 41.2, 54.1)">l</text><text xml:space="preserve" font-family="Helvetica,Helvetica" font-size="22.0" fill="#E2E2E2" transform="matrix(1.00, 0.00, -0.00, -1.00, 46.1, 54.1)">i</text><text xml:space="preserve" font-family="Helvetica,Helvetica" font-size="22.0" fill="#E2E2E2" transform="matrix(1.00, 0.00, -0.00, -1.00, 51.0, 54.1)">s</text><text xml:space="preserve" font-family="Helvetica,Helvetica" font-size="22.0" fill="#E2E2E2" transform="matrix(1.00, 0.00, -0.00, -1.00, 62.0, 54.1)">i</text><text xml:space="preserve" font-family="Helvetica,Helvetica" font-size="22.0" fill="#E2E2E2" transform="matrix(1.00, 0.00, -0.00, -1.00, 66.9, 54.1)">s</text><text xml:space="preserve" font-family="Helvetica,Helvetica" font-size="22.0" fill="#E2E2E2" transform="matrix(1.00, 0.00, -0.00, -1.00, 77.9, 54.1)"> </text><text xml:space="preserve" font-family="Helvetica,Helvetica" font-size="22.0" fill="#E2E2E2" transform="matrix(1.00, 0.00, -0.00, -1.00, 84.0, 54.1)">a</text><text xml:space="preserve" font-family="Helvetica,Helvetica" font-size="22.0" fill="#E2E2E2" transform="matrix(1.00, 0.00, -0.00, -1.00, 96.2, 54.1)">t</text><text xml:space="preserve" font-family="Helvetica,Helvetica" font-size="22.0" fill="#E2E2E2" transform="matrix(1.00, 0.00, -0.00, -1.00, 102.3, 54.1)"> </text><text xml:space="preserve" font-family="Helvetica,Helvetica" font-size="22.0" fill="#E2E2E2" transform="matrix(1.00, 0.00, -0.00, -1.00, 108.5, 54.1)">v</text><text xml:space="preserve" font-family="Helvetica,Helvetica" font-size="22.0" fill="#E2E2E2" transform="matrix(1.00, 0.00, -0.00, -1.00, 119.5, 54.1)">e</text><text xml:space="preserve" font-family="Helvetica,Helvetica" font-size="22.0" fill="#E2E2E2" transform="matrix(1.00, 0.00, -0.00, -1.00, 131.7, 54.1)">r</text><text xml:space="preserve" font-family="Helvetica,Helvetica" font-size="22.0" fill="#E2E2E2" transform="matrix(1.00, 0.00, -0.00, -1.00, 139.0, 54.1)">o</text><text xml:space="preserve" font-family="Helvetica,Helvetica" font-size="22.0" fill="#E2E2E2" transform="matrix(1.00, 0.00, -0.00, -1.00, 151.3, 54.1)"> </text><text xml:space="preserve" font-family="Helvetica,Helvetica" font-size="22.0" fill="#E2E2E2" transform="matrix(1.00, 0.00, -0.00, -1.00, 157.4, 54.1)">e</text><text xml:space="preserve" font-family="Helvetica,Helvetica" font-size="22.0" fill="#E2E2E2" transform="matrix(1.00, 0.00, -0.00, -1.00, 169.6, 54.1)">r</text><text xml:space="preserve" font-family="Helvetica,Helvetica" font-size="22.0" fill="#E2E2E2" transform="matrix(1.00, 0.00, -0.00, -1.00, 176.9, 54.1)">o</text><text xml:space="preserve" font-family="Helvetica,Helvetica" font-size="22.0" fill="#E2E2E2" transform="matrix(1.00, 0.00, -0.00, -1.00, 189.2, 54.1)">s</text><text xml:space="preserve" font-family="Helvetica,Helvetica" font-size="22.0" fill="#E2E2E2" transform="matrix(1.00, 0.00, -0.00, -1.00, 200.2, 54.1)"> </text><text xml:space="preserve" font-family="Helvetica,Helvetica" font-size="22.0" fill="#E2E2E2" transform="matrix(1.00, 0.00, -0.00, -1.00, 206.3, 54.1)">e</text><text xml:space="preserve" font-family="Helvetica,Helvetica" font-size="22.0" fill="#E2E2E2" transform="matrix(1.00, 0.00, -0.00, -1.00, 218.5, 54.1)">t</text><text xml:space="preserve" font-family="Helvetica,Helvetica" font-size="22.0" fill="#E2E2E2" transform="matrix(1.00, 0.00, -0.00, -1.00, 224.6, 54.1)"> </text><text xml:space="preserve" font-family="Helvetica,Helvetica" font-size="22.0" fill="#E2E2E2" transform="matrix(1.00, 0.00, -0.00, -1.00, 230.7, 54.1)">a</text><text xml:space="preserve" font-family="Helvetica,Helvetica" font-size="22.0" fill="#E2E2E2" transform="matrix(1.00, 0.00, -0.00, -1.00, 243.0, 54.1)">c</text><text xml:space="preserve" font-family="Helvetica,Helvetica" font-size="22.0" fill="#E2E2E2" transform="matrix(1.00, 0.00, -0.00, -1.00, 254.0, 54.1)">c</text><text xml:space="preserve" font-family="Helvetica,Helvetica" font-size="22.0" fill="#E2E2E2" transform="matrix(1.00, 0.00, -0.00, -1.00, 265.0, 54.1)">u</text><text xml:space="preserve" font-family="Helvetica,Helvetica" font-size="22.0" fill="#E2E2E2" transform="matrix(1.00, 0.00, -0.00, -1.00, 277.2, 54.1)">m</text><text xml:space="preserve" font-family="Helvetica,Helvetica" font-size="22.0" fill="#E2E2E2" transform="matrix(1.00, 0.00, -0.00, -1.00, 295.5, 54.1)">s</text><text xml:space="preserve" font-family="Helvetica,Helvetica" font-size="22.0" fill="#E2E2E2" transform="matrix(1.00, 0.00, -0.00, -1.00, 306.5, 54.1)">a</text><text xml:space="preserve" font-family="Helvetica,Helvetica" font-size="22.0" fill="#E2E2E2" transform="matrix(1.00, 0.00, -0.00, -1.00, 318.8, 54.1)">n</text><text xml:space="preserve" font-family="Helvetica,Helvetica" font-size="22.0" fill="#E2E2E2" transform="matrix(1.00, 0.00, -0.00, -1.00, 331.0, 54.1)"> </text><text xml:space="preserve" font-family="Helvetica,Helvetica" font-size="22.0" fill="#E2E2E2" transform="matrix(1.00, 0.00, -0.00, -1.00, 43.0, 28.1)">e</text><text xml:space="preserve" font-family="Helvetica,Helvetica" font-size="22.0" fill="#E2E2E2" transform="matrix(1.00, 0.00, -0.00, -1.00, 55.3, 28.1)">t</text><text xml:space="preserve" font-family="Helvetica,Helvetica" font-size="22.0" fill="#E2E2E2" transform="matrix(1.00, 0.00, -0.00, -1.00, 61.4, 28.1)"> </text><text xml:space="preserve" font-family="Helvetica,Helvetica" font-size="22.0" fill="#E2E2E2" transform="matrix(1.00, 0.00, -0.00, -1.00, 67.5, 28.1)">i</text><text xml:space="preserve" font-family="Helvetica,Helvetica" font-size="22.0" fill="#E2E2E2" transform="matrix(1.00, 0.00, -0.00, -1.00, 72.4, 28.1)">u</text><text xml:space="preserve" font-family="Helvetica,Helvetica" font-size="22.0" fill="#E2E2E2" transform="matrix(1.00, 0.00, -0.00, -1.00, 84.6, 28.1)">s</text><text xml:space="preserve" font-family="Helvetica,Helvetica" font-size="22.0" fill="#E2E2E2" transform="matrix(1.00, 0.00, -0.00, -1.00, 95.6, 28.1)">t</text><text xml:space="preserve" font-family="Helvetica,Helvetica" font-size="22.0" fill="#E2E2E2" transform="matrix(1.00, 0.00, -0.00, -1.00, 101.7, 28.1)">o</text><text xml:space="preserve" font-family="Helvetica,Helvetica" font-size="22.0" fill="#E2E2E2" transform="matrix(1.00, 0.00, -0.00, -1.00, 114.0, 28.1)"> </text><text xml:space="preserve" font-family="Helvetica,Helvetica" font-size="22.0" fill="#E2E2E2" transform="matrix(1.00, 0.00, -0.00, -1.00, 120.1, 28.1)">o</text><text xml:space="preserve" font-family="Helvetica,Helvetica" font-size="22.0" fill="#E2E2E2" transform="matrix(1.00, 0.00, -0.00, -1.00, 132.3, 28.1)">d</text><text xml:space="preserve" font-family="Helvetica,Helvetica" font-size="22.0" fill="#E2E2E2" transform="matrix(1.00, 0.00, -0.00, -1.00, 144.6, 28.1)">i</text><text xml:space="preserve" font-family="Helvetica,Helvetica" font-size="22.0" fill="#E2E2E2" transform="matrix(1.00, 0.00, -0.00, -1.00, 149.4, 28.1)">o</text><text xml:space="preserve" font-family="Helvetica,Helvetica" font-size="22.0" fill="#E2E2E2" transform="matrix(1.00, 0.00, -0.00, -1.00, 161.7, 28.1)"> </text><text xml:space="preserve" font-family="Helvetica,Helvetica" font-size="22.0" fill="#E2E2E2" transform="matrix(1.00, 0.00, -0.00, -1.00, 167.8, 28.1)">d</text><text xml:space="preserve" font-family="Helvetica,Helvetica" font-size="22.0" fill="#E2E2E2" transform="matrix(1.00, 0.00, -0.00, -1.00, 180.0, 28.1)">i</text><text xml:space="preserve" font-family="Helvetica,Helvetica" font-size="22.0" fill="#E2E2E2" transform="matrix(1.00, 0.00, -0.00, -1.00, 184.9, 28.1)">g</text><text xml:space="preserve" font-family="Helvetica,Helvetica" font-size="22.0" fill="#E2E2E2" transform="matrix(1.00, 0.00, -0.00, -1.00, 197.2, 28.1)">n</text><text xml:space="preserve" font-family="Helvetica,Helvetica" font-size="22.0" fill="#E2E2E2" transform="matrix(1.00, 0.00, -0.00, -1.00, 209.4, 28.1)">i</text><text xml:space="preserve" font-family="Helvetica,Helvetica" font-size="22.0" fill="#E2E2E2" transform="matrix(1.00, 0.00, -0.00, -1.00, 214.3, 28.1)">s</text><text xml:space="preserve" font-family="Helvetica,Helvetica" font-size="22.0" fill="#E2E2E2" transform="matrix(1.00, 0.00, -0.00, -1.00, 225.3, 28.1)">s</text><text xml:space="preserve" font-family="Helvetica,Helvetica" font-size="22.0" fill="#E2E2E2" transform="matrix(1.00, 0.00, -0.00, -1.00, 236.3, 28.1)">i</text><text xml:space="preserve" font-family="Helvetica,Helvetica" font-size="22.0" fill="#E2E2E2" transform="matrix(1.00, 0.00, -0.00, -1.00, 241.2, 28.1)">m</text><text xml:space="preserve" font-family="Helvetica,Helvetica" font-size="22.0" fill="#E2E2E2" transform="matrix(1.00, 0.00, -0.00, -1.00, 259.5, 28.1)"> </text><text xml:space="preserve" font-family="Helvetica,Helvetica" font-size="22.0" fill="#E2E2E2" transform="matrix(1.00, 0.00, -0.00, -1.00, 265.6, 28.1)">q</text><text xml:space="preserve" font-family="Helvetica,Helvetica" font-size="22.0" fill="#E2E2E2" transform="matrix(1.00, 0.00, -0.00, -1.00, 277.9, 28.1)">u</text><text xml:space="preserve" font-family="Helvetica,Helvetica" font-size="22.0" fill="#E2E2E2" transform="matrix(1.00, 0.00, -0.00, -1.00, 290.1, 28.1)">i</text></g></g><g><clipPath id="clip0x608004ca6840"><path d="M 118.5 161.9 L 219.5 161.9 L 219.5 229.9 L 118.5 229.9 Z M 118.5 161.9 "></path></clipPath><g clip-path="url(#clip0x608004ca6840)"><text xml:space="preserve" font-family="Helvetica,Helvetica" font-size="40.0" fill="#E2E2E2" transform="matrix(1.00, 0.00, -0.00, -1.00, 129.0, 181.1)">7</text><text xml:space="preserve" font-family="Helvetica,Helvetica" font-size="40.0" fill="#E2E2E2" transform="matrix(1.00, 0.00, -0.00, -1.00, 151.2, 181.1)">4</text><text xml:space="preserve" font-family="Helvetica,Helvetica" font-size="40.0" fill="#E2E2E2" transform="matrix(1.00, 0.00, -0.00, -1.00, 173.5, 181.1)">%</text></g></g></g></svg>