<?xml version="1.0" encoding="UTF-8" standalone="no"?><svg xmlns="http://www.w3.org/2000/svg" xmlns:xlink="http://www.w3.org/1999/xlink" clip-rule="evenodd" stroke-miterlimit="10" viewBox="0 0 498 329"><desc>SVG generated by Keynote</desc><defs></defs><g transform="matrix(1.00, 0.00, -0.00, -1.00, 0.0, 329.0)"><g><clipPath id="clip0x618003eaf180"><path d="M 0.6 0.9 L 497.9 0.9 L 497.9 328.3 L 0.6 328.3 Z M 0.6 0.9 "></path></clipPath><g clip-path="url(#clip0x618003eaf180)"><image xlink:href="17159FDC46F16C8FB600B5985FE22B3E.png" width="495.00" height="325.00" transform="matrix(1.00, 0.00, -0.00, -1.00, 1.6, 327.3)"></image><path d="M 31.0 29.9 C 36.5 49.4 47.5 66.9 62.7 80.4 C 83.6 99.2 110.9 109.4 139.0 108.9 L 371.8 110.0 C 424.7 108.3 468.6 150.6 468.9 203.6 C 469.3 257.3 424.7 300.0 371.0 298.0 L 83.1 299.0 C 68.6 300.0 54.4 294.9 44.2 284.7 C 33.9 274.4 29.0 260.2 30.0 245.8 L 31.0 29.9 Z M 30.6 29.9 " fill="#DC526B"></path></g></g><g><clipPath id="clip0x618003eaf900"><path d="M 28.6 44.7 L 469.9 44.7 L 469.9 316.1 L 28.6 316.1 Z M 28.6 44.7 "></path></clipPath><g clip-path="url(#clip0x618003eaf900)"><path d="M 31.0 45.7 C 36.5 65.2 47.5 82.7 62.7 96.3 C 83.6 115.1 110.9 125.2 139.0 124.7 L 371.8 125.9 C 424.7 124.2 468.6 166.4 468.9 219.4 C 469.3 273.2 424.7 316.0 371.0 314.0 L 83.1 315.0 C 68.6 316.0 54.4 310.7 44.2 300.5 C 33.9 290.3 29.0 276.1 30.0 261.6 L 31.0 45.7 Z M 30.6 45.7 " fill="#FF607B"></path></g></g><g><clipPath id="clip0x618003eafb40"><path d="M 351.1 136.4 L 424.4 136.4 L 424.4 306.4 L 351.1 306.4 Z M 351.1 136.4 "></path></clipPath><g clip-path="url(#clip0x618003eafb40)"><text xml:space="preserve" font-family="Helvetica,Helvetica" font-size="100.0" fill="#F6F6F6" transform="matrix(1.00, 0.00, -0.00, -1.00, 376.6, 184.4)">l</text></g></g><g><clipPath id="clip0x618003eafd80"><path d="M 88.2 165.4 L 331.5 165.4 L 331.5 267.4 L 88.2 267.4 Z M 88.2 165.4 "></path></clipPath><g clip-path="url(#clip0x618003eafd80)"><text xml:space="preserve" font-family="Helvetica,Helvetica" font-size="60.0" fill="#F6F6F6" transform="matrix(1.00, 0.00, -0.00, -1.00, 103.2, 194.2)">I</text><text xml:space="preserve" font-family="Helvetica,Helvetica" font-size="60.0" fill="#F6F6F6" transform="matrix(1.00, 0.00, -0.00, -1.00, 119.8, 194.2)">D</text><text xml:space="preserve" font-family="Helvetica,Helvetica" font-size="60.0" fill="#F6F6F6" transform="matrix(1.00, 0.00, -0.00, -1.00, 163.2, 194.2)">E</text><text xml:space="preserve" font-family="Helvetica,Helvetica" font-size="60.0" fill="#F6F6F6" transform="matrix(1.00, 0.00, -0.00, -1.00, 203.2, 194.2)">A</text><text xml:space="preserve" font-family="Helvetica,Helvetica" font-size="60.0" fill="#F6F6F6" transform="matrix(1.00, 0.00, -0.00, -1.00, 238.8, 194.2)">T</text><text xml:space="preserve" font-family="Helvetica,Helvetica" font-size="60.0" fill="#F6F6F6" transform="matrix(1.00, 0.00, -0.00, -1.00, 275.4, 194.2)">E</text></g></g></g></svg>