<?xml version="1.0" encoding="UTF-8" standalone="no"?><svg xmlns="http://www.w3.org/2000/svg" xmlns:xlink="http://www.w3.org/1999/xlink" clip-rule="evenodd" stroke-miterlimit="10" viewBox="0 0 498 328"><desc>SVG generated by Keynote</desc><defs></defs><g transform="matrix(1.00, 0.00, -0.00, -1.00, 0.0, 328.0)"><g><clipPath id="clip0x6000044b9140"><path d="M 0.3 0.3 L 497.9 0.3 L 497.9 327.8 L 0.3 327.8 Z M 0.3 0.3 "></path></clipPath><g clip-path="url(#clip0x6000044b9140)"><image xlink:href="0F5ED80DEC00EE7C37F4DFCBE721F085.png" width="496.00" height="326.00" transform="matrix(1.00, 0.00, -0.00, -1.00, 1.3, 326.8)"></image><path d="M 30.0 29.3 C 36.1 48.8 47.2 66.3 62.4 79.9 C 83.3 98.7 110.6 108.8 138.7 108.3 L 371.7 109.5 C 424.6 107.8 468.6 150.1 468.9 203.1 C 469.2 256.9 424.6 300.0 370.8 298.0 L 82.8 299.0 C 68.3 300.0 54.1 294.5 43.9 284.2 C 33.6 274.0 28.0 259.8 29.0 245.3 L 30.0 29.3 Z M 30.3 29.3 " fill="#CBA751"></path></g></g><g><clipPath id="clip0x618003eb0920"><path d="M 28.3 44.2 L 469.6 44.2 L 469.6 315.6 L 28.3 315.6 Z M 28.3 44.2 "></path></clipPath><g clip-path="url(#clip0x618003eb0920)"><path d="M 30.0 45.2 C 36.1 64.7 47.2 82.2 62.3 95.7 C 83.3 114.5 110.6 124.7 138.7 124.2 L 371.5 125.4 C 424.4 123.7 468.3 165.9 468.6 218.9 C 468.9 272.7 424.4 316.0 370.6 314.0 L 82.7 314.0 C 68.3 315.0 54.1 310.2 43.9 300.0 C 33.6 289.7 28.0 275.6 29.0 261.1 L 30.0 45.2 Z M 30.3 45.2 " fill="#EDC25F"></path></g></g><g><clipPath id="clip0x618003eb0b60"><path d="M 58.2 149.9 L 175.9 149.9 L 175.9 319.9 L 58.2 319.9 Z M 58.2 149.9 "></path></clipPath><g clip-path="url(#clip0x618003eb0b60)"><text xml:space="preserve" font-family="Helvetica,Helvetica" font-size="100.0" fill="#F6F6F6" transform="matrix(1.00, 0.00, -0.00, -1.00, 83.7, 197.9)">Y</text></g></g><g><clipPath id="clip0x618003eb0da0"><path d="M 203.7 165.9 L 408.0 165.9 L 408.0 267.9 L 203.7 267.9 Z M 203.7 165.9 "></path></clipPath><g clip-path="url(#clip0x618003eb0da0)"><text xml:space="preserve" font-family="Helvetica,Helvetica" font-size="60.0" fill="#F6F6F6" transform="matrix(1.00, 0.00, -0.00, -1.00, 219.7, 194.7)">C</text><text xml:space="preserve" font-family="Helvetica,Helvetica" font-size="60.0" fill="#F6F6F6" transform="matrix(1.00, 0.00, -0.00, -1.00, 263.0, 194.7)">O</text><text xml:space="preserve" font-family="Helvetica,Helvetica" font-size="60.0" fill="#F6F6F6" transform="matrix(1.00, 0.00, -0.00, -1.00, 309.7, 194.7)">D</text><text xml:space="preserve" font-family="Helvetica,Helvetica" font-size="60.0" fill="#F6F6F6" transform="matrix(1.00, 0.00, -0.00, -1.00, 353.1, 194.7)">E</text></g></g></g></svg>