<?xml version="1.0" encoding="UTF-8" standalone="no"?><svg xmlns="http://www.w3.org/2000/svg" xmlns:xlink="http://www.w3.org/1999/xlink" clip-rule="evenodd" stroke-miterlimit="10" viewBox="0 0 499 329"><desc>SVG generated by Keynote</desc><defs></defs><g transform="matrix(1.00, 0.00, -0.00, -1.00, 0.0, 329.0)"><g><clipPath id="clip0x6000044bad60"><path d="M 0.4 0.9 L 498.1 0.9 L 498.1 328.4 L 0.4 328.4 Z M 0.4 0.9 "></path></clipPath><g clip-path="url(#clip0x6000044bad60)"><image xlink:href="632AF341E0726C4834AF26E56C843C33.png" width="496.00" height="326.00" transform="matrix(1.00, 0.00, -0.00, -1.00, 1.4, 327.4)"></image><path d="M 31.0 29.9 C 36.3 49.3 47.4 66.8 62.5 80.4 C 83.5 99.2 110.8 109.4 138.9 108.9 L 371.8 110.0 C 424.8 108.3 468.7 150.6 469.1 203.6 C 469.4 257.4 424.8 301.0 371.0 299.0 L 83.0 299.0 C 68.5 300.0 54.3 295.0 44.1 284.8 C 33.8 274.5 29.0 260.3 30.0 245.9 L 31.0 29.9 Z M 30.5 29.9 " fill="#4FB18F"></path></g></g><g><clipPath id="clip0x6000044bb060"><path d="M 28.4 44.8 L 469.8 44.8 L 469.8 316.1 L 28.4 316.1 Z M 28.4 44.8 "></path></clipPath><g clip-path="url(#clip0x6000044bb060)"><path d="M 31.0 45.8 C 36.3 65.2 47.4 82.7 62.5 96.3 C 83.5 115.1 110.7 125.3 138.9 124.8 L 371.6 125.9 C 424.6 124.2 468.5 166.5 468.8 219.4 C 469.1 273.2 424.6 316.0 370.8 314.0 L 82.9 315.0 C 68.5 316.0 54.3 310.8 44.1 300.5 C 33.8 290.3 29.0 276.1 30.0 261.7 L 31.0 45.8 Z M 30.5 45.8 " fill="#62D7AD"></path></g></g><g><clipPath id="clip0x6000044bb2a0"><path d="M 68.1 141.5 L 152.4 141.5 L 152.4 311.5 L 68.1 311.5 Z M 68.1 141.5 "></path></clipPath><g clip-path="url(#clip0x6000044bb2a0)"><text xml:space="preserve" font-family="Helvetica,Helvetica" font-size="100.0" fill="#F6F6F6" transform="matrix(1.00, 0.00, -0.00, -1.00, 93.6, 189.5)">r</text></g></g><g><clipPath id="clip0x6000044bb4e0"><path d="M 133.5 166.5 L 411.2 166.5 L 411.2 268.5 L 133.5 268.5 Z M 133.5 166.5 "></path></clipPath><g clip-path="url(#clip0x6000044bb4e0)"><text xml:space="preserve" font-family="Helvetica,Helvetica" font-size="60.0" fill="#F6F6F6" transform="matrix(1.00, 0.00, -0.00, -1.00, 149.5, 195.3)">L</text><text xml:space="preserve" font-family="Helvetica,Helvetica" font-size="60.0" fill="#F6F6F6" transform="matrix(1.00, 0.00, -0.00, -1.00, 182.9, 195.3)">A</text><text xml:space="preserve" font-family="Helvetica,Helvetica" font-size="60.0" fill="#F6F6F6" transform="matrix(1.00, 0.00, -0.00, -1.00, 222.9, 195.3)">U</text><text xml:space="preserve" font-family="Helvetica,Helvetica" font-size="60.0" fill="#F6F6F6" transform="matrix(1.00, 0.00, -0.00, -1.00, 266.3, 195.3)">N</text><text xml:space="preserve" font-family="Helvetica,Helvetica" font-size="60.0" fill="#F6F6F6" transform="matrix(1.00, 0.00, -0.00, -1.00, 309.6, 195.3)">C</text><text xml:space="preserve" font-family="Helvetica,Helvetica" font-size="60.0" fill="#F6F6F6" transform="matrix(1.00, 0.00, -0.00, -1.00, 353.0, 195.3)">H</text></g></g></g></svg>