<?xml version="1.0" encoding="UTF-8" standalone="no"?><svg xmlns="http://www.w3.org/2000/svg" xmlns:xlink="http://www.w3.org/1999/xlink" clip-rule="evenodd" stroke-miterlimit="10" viewBox="0 0 498 328"><desc>SVG generated by Keynote</desc><defs></defs><g transform="matrix(1.00, 0.00, -0.00, -1.00, 0.0, 328.0)"><g><clipPath id="clip0x610003aa6d80"><path d="M 0.3 0.4 L 497.7 0.4 L 497.7 327.8 L 0.3 327.8 Z M 0.3 0.4 "></path></clipPath><g clip-path="url(#clip0x610003aa6d80)"><image xlink:href="9DC63EE38AC18F2E2F388567A9E093E6.png" width="495.00" height="325.00" transform="matrix(1.00, 0.00, -0.00, -1.00, 1.3, 326.8)"></image><path d="M 30.0 29.4 C 36.2 48.9 47.3 66.4 62.4 80.0 C 83.3 98.8 110.6 108.9 138.7 108.4 L 371.5 109.6 C 424.4 107.9 468.4 150.2 468.7 203.1 C 469.0 256.9 424.4 300.0 370.7 298.0 L 82.8 299.0 C 68.3 300.0 54.2 294.4 43.9 284.2 C 33.7 274.0 28.0 259.8 29.0 245.3 L 30.0 29.4 Z M 30.4 29.4 " fill="#41A0B6"></path></g></g><g><clipPath id="clip0x6000044b8780"><path d="M 28.3 44.3 L 469.7 44.3 L 469.7 315.7 L 28.3 315.7 Z M 28.3 44.3 "></path></clipPath><g clip-path="url(#clip0x6000044b8780)"><path d="M 30.0 45.3 C 36.2 64.8 47.3 82.2 62.4 95.8 C 83.3 114.6 110.6 124.8 138.7 124.3 L 371.5 125.4 C 424.4 123.7 468.4 166.0 468.7 218.9 C 469.0 272.7 424.4 316.0 370.7 314.0 L 82.8 315.0 C 68.3 316.0 54.2 310.3 43.9 300.0 C 33.7 289.8 28.0 275.6 29.0 261.2 L 30.0 45.3 Z M 30.4 45.3 " fill="#54C6E1"></path></g></g><g><clipPath id="clip0x6000044b89c0"><path d="M 334.2 145.6 L 440.8 145.6 L 440.8 315.6 L 334.2 315.6 Z M 334.2 145.6 "></path></clipPath><g clip-path="url(#clip0x6000044b89c0)"><text xml:space="preserve" font-family="Helvetica,Helvetica" font-size="100.0" fill="#F6F6F6" transform="matrix(1.00, 0.00, -0.00, -1.00, 359.7, 193.6)">o</text></g></g><g><clipPath id="clip0x6000044b8c00"><path d="M 87.9 164.5 L 348.9 164.5 L 348.9 266.5 L 87.9 266.5 Z M 87.9 164.5 "></path></clipPath><g clip-path="url(#clip0x6000044b8c00)"><text xml:space="preserve" font-family="Helvetica,Helvetica" font-size="60.0" fill="#F6F6F6" transform="matrix(1.00, 0.00, -0.00, -1.00, 102.9, 193.3)">D</text><text xml:space="preserve" font-family="Helvetica,Helvetica" font-size="60.0" fill="#F6F6F6" transform="matrix(1.00, 0.00, -0.00, -1.00, 146.2, 193.3)">E</text><text xml:space="preserve" font-family="Helvetica,Helvetica" font-size="60.0" fill="#F6F6F6" transform="matrix(1.00, 0.00, -0.00, -1.00, 186.3, 193.3)">S</text><text xml:space="preserve" font-family="Helvetica,Helvetica" font-size="60.0" fill="#F6F6F6" transform="matrix(1.00, 0.00, -0.00, -1.00, 226.3, 193.3)">I</text><text xml:space="preserve" font-family="Helvetica,Helvetica" font-size="60.0" fill="#F6F6F6" transform="matrix(1.00, 0.00, -0.00, -1.00, 242.9, 193.3)">G</text><text xml:space="preserve" font-family="Helvetica,Helvetica" font-size="60.0" fill="#F6F6F6" transform="matrix(1.00, 0.00, -0.00, -1.00, 289.6, 193.3)">N</text></g></g></g></svg>