<?xml version="1.0" encoding="UTF-8" standalone="no"?><svg xmlns="http://www.w3.org/2000/svg" xmlns:xlink="http://www.w3.org/1999/xlink" clip-rule="evenodd" stroke-miterlimit="10" viewBox="0 0 178 34"><desc>SVG generated by Keynote</desc><defs></defs><g transform="matrix(1.00, 0.00, -0.00, -1.00, 0.0, 34.0)"><text xml:space="preserve" font-family="Helvetica,Helvetica" font-size="32.0" fill="#EDC25F" transform="matrix(1.00, 0.00, -0.00, -1.00, 0.2, 9.1)">S</text><text xml:space="preserve" font-family="Helvetica,Helvetica" font-size="32.0" fill="#EDC25F" transform="matrix(1.00, 0.00, -0.00, -1.00, 21.6, 9.1)">a</text><text xml:space="preserve" font-family="Helvetica,Helvetica" font-size="32.0" fill="#EDC25F" transform="matrix(1.00, 0.00, -0.00, -1.00, 39.4, 9.1)">l</text><text xml:space="preserve" font-family="Helvetica,Helvetica" font-size="32.0" fill="#EDC25F" transform="matrix(1.00, 0.00, -0.00, -1.00, 46.5, 9.1)">e</text><text xml:space="preserve" font-family="Helvetica,Helvetica" font-size="32.0" fill="#EDC25F" transform="matrix(1.00, 0.00, -0.00, -1.00, 64.3, 9.1)">s</text><text xml:space="preserve" font-family="Helvetica,Helvetica" font-size="32.0" fill="#EDC25F" transform="matrix(1.00, 0.00, -0.00, -1.00, 80.3, 9.1)"> </text><text xml:space="preserve" font-family="Helvetica,Helvetica" font-size="32.0" fill="#EDC25F" transform="matrix(1.00, 0.00, -0.00, -1.00, 89.2, 9.1)">G</text><text xml:space="preserve" font-family="Helvetica,Helvetica" font-size="32.0" fill="#EDC25F" transform="matrix(1.00, 0.00, -0.00, -1.00, 114.0, 9.1)">r</text><text xml:space="preserve" font-family="Helvetica,Helvetica" font-size="32.0" fill="#EDC25F" transform="matrix(1.00, 0.00, -0.00, -1.00, 124.7, 9.1)">a</text><text xml:space="preserve" font-family="Helvetica,Helvetica" font-size="32.0" fill="#EDC25F" transform="matrix(1.00, 0.00, -0.00, -1.00, 142.5, 9.1)">p</text><text xml:space="preserve" font-family="Helvetica,Helvetica" font-size="32.0" fill="#EDC25F" transform="matrix(1.00, 0.00, -0.00, -1.00, 160.3, 9.1)">h</text></g></svg>