<?xml version="1.0" encoding="UTF-8" standalone="no"?><svg xmlns="http://www.w3.org/2000/svg" xmlns:xlink="http://www.w3.org/1999/xlink" clip-rule="evenodd" stroke-miterlimit="10" viewBox="0 0 565 70"><desc>SVG generated by Keynote</desc><defs></defs><g transform="matrix(1.00, 0.00, -0.00, -1.00, 0.0, 70.0)"><g><clipPath id="clip0x600004ab3560"><path d="M 2.6 1.4 L 487.9 1.4 L 487.9 33.7 L 2.6 33.7 Z M 2.6 1.4 "></path></clipPath><g clip-path="url(#clip0x600004ab3560)"><path d="M 4.0 33.0 L 487.0 33.0 L 487.0 2.0 L 4.0 2.0 Z M 3.6 32.7 " fill="#677188"></path></g></g><g><clipPath id="clip0x600004ab3d40"><path d="M 2.6 1.6 L 394.3 1.6 L 394.3 33.7 L 2.6 33.7 Z M 2.6 1.6 "></path></clipPath><g clip-path="url(#clip0x600004ab3d40)"><path d="M 4.0 33.0 L 393.0 33.0 L 393.0 3.0 L 4.0 3.0 Z M 3.6 32.7 " fill="#62D7AD"></path></g></g><g><clipPath id="clip0x600004ab3f80"><path d="M 0.4 33.0 L 102.9 33.0 L 102.9 70.0 L 0.4 70.0 Z M 0.4 33.0 "></path></clipPath><g clip-path="url(#clip0x600004ab3f80)"><text xml:space="preserve" font-family="Helvetica,Helvetica" font-size="22.0" fill="#E2E2E2" transform="matrix(1.00, 0.00, -0.00, -1.00, 5.9, 43.5)">I</text><text xml:space="preserve" font-family="Helvetica,Helvetica" font-size="22.0" fill="#E2E2E2" transform="matrix(1.00, 0.00, -0.00, -1.00, 12.0, 43.5)">l</text><text xml:space="preserve" font-family="Helvetica,Helvetica" font-size="22.0" fill="#E2E2E2" transform="matrix(1.00, 0.00, -0.00, -1.00, 16.9, 43.5)">l</text><text xml:space="preserve" font-family="Helvetica,Helvetica" font-size="22.0" fill="#E2E2E2" transform="matrix(1.00, 0.00, -0.00, -1.00, 21.8, 43.5)">u</text><text xml:space="preserve" font-family="Helvetica,Helvetica" font-size="22.0" fill="#E2E2E2" transform="matrix(1.00, 0.00, -0.00, -1.00, 34.0, 43.5)">s</text><text xml:space="preserve" font-family="Helvetica,Helvetica" font-size="22.0" fill="#E2E2E2" transform="matrix(1.00, 0.00, -0.00, -1.00, 45.0, 43.5)">t</text><text xml:space="preserve" font-family="Helvetica,Helvetica" font-size="22.0" fill="#E2E2E2" transform="matrix(1.00, 0.00, -0.00, -1.00, 51.1, 43.5)">r</text><text xml:space="preserve" font-family="Helvetica,Helvetica" font-size="22.0" fill="#E2E2E2" transform="matrix(1.00, 0.00, -0.00, -1.00, 58.5, 43.5)">a</text><text xml:space="preserve" font-family="Helvetica,Helvetica" font-size="22.0" fill="#E2E2E2" transform="matrix(1.00, 0.00, -0.00, -1.00, 70.7, 43.5)">t</text><text xml:space="preserve" font-family="Helvetica,Helvetica" font-size="22.0" fill="#E2E2E2" transform="matrix(1.00, 0.00, -0.00, -1.00, 76.8, 43.5)">o</text><text xml:space="preserve" font-family="Helvetica,Helvetica" font-size="22.0" fill="#E2E2E2" transform="matrix(1.00, 0.00, -0.00, -1.00, 89.1, 43.5)">r</text></g></g><g><clipPath id="clip0x600004ab4580"><path d="M 491.8 0.7 L 564.5 0.7 L 564.5 34.8 L 491.8 34.8 Z M 491.8 0.7 "></path></clipPath><g clip-path="url(#clip0x600004ab4580)"><path d="M 500.3 34.0 C 498.9 33.8 498.0 32.6 498.0 31.3 L 498.0 22.8 L 492.8 17.6 L 498.0 12.4 L 498.0 4.2 C 498.0 2.8 498.9 2.0 500.3 2.0 L 561.0 2.0 C 562.4 2.0 564.0 2.8 564.0 4.2 L 564.0 31.3 C 564.0 32.6 562.4 34.0 561.0 34.0 L 500.3 34.0 Z M 500.3 33.8 " fill="#E2E2E2"></path></g></g><g><clipPath id="clip0x600004ab47c0"><path d="M 507.6 3.4 L 553.7 3.4 L 553.7 34.4 L 507.6 34.4 Z M 507.6 3.4 "></path></clipPath><g clip-path="url(#clip0x600004ab47c0)"><text xml:space="preserve" font-family="Helvetica,Helvetica" font-size="18.0" fill="#5A6378" transform="matrix(1.00, 0.00, -0.00, -1.00, 512.6, 12.1)">8</text><text xml:space="preserve" font-family="Helvetica,Helvetica" font-size="18.0" fill="#5A6378" transform="matrix(1.00, 0.00, -0.00, -1.00, 522.6, 12.1)">9</text><text xml:space="preserve" font-family="Helvetica,Helvetica" font-size="18.0" fill="#5A6378" transform="matrix(1.00, 0.00, -0.00, -1.00, 532.7, 12.1)">%</text></g></g></g></svg>