<?xml version="1.0" encoding="UTF-8" standalone="no"?><svg xmlns="http://www.w3.org/2000/svg" xmlns:xlink="http://www.w3.org/1999/xlink" clip-rule="evenodd" stroke-miterlimit="10" viewBox="0 0 481 307"><desc>SVG generated by Keynote</desc><defs></defs><g transform="matrix(1.00, 0.00, -0.00, -1.00, 0.0, 307.0)"><path d="M 46.7 274.0 L 456.7 274.0 " fill="none" stroke="#919191" stroke-width="1.00" stroke-dasharray="1.0, 2.0" transform="matrix(1.00, 0.00, 0.00, -1.00, 1.3, 305.5)"></path><path d="M 46.7 211.0 L 456.7 211.0 " fill="none" stroke="#919191" stroke-width="1.00" stroke-dasharray="1.0, 2.0" transform="matrix(1.00, 0.00, 0.00, -1.00, 1.3, 305.5)"></path><path d="M 46.7 148.0 L 456.7 148.0 " fill="none" stroke="#919191" stroke-width="1.00" stroke-dasharray="1.0, 2.0" transform="matrix(1.00, 0.00, 0.00, -1.00, 1.3, 305.5)"></path><path d="M 46.7 86.0 L 456.7 86.0 " fill="none" stroke="#919191" stroke-width="1.00" stroke-dasharray="1.0, 2.0" transform="matrix(1.00, 0.00, 0.00, -1.00, 1.3, 305.5)"></path><path d="M 46.7 23.0 L 456.7 23.0 " fill="none" stroke="#919191" stroke-width="1.00" stroke-dasharray="1.0, 2.0" transform="matrix(1.00, 0.00, 0.00, -1.00, 1.3, 305.5)"></path><path d="M 47.2 22.5 L 47.2 273.5 " fill="none" stroke="#919191" stroke-width="1.00" stroke-dasharray="1.0, 2.0" transform="matrix(1.00, 0.00, 0.00, -1.00, 1.3, 305.5)"></path><path d="M 183.2 22.5 L 183.2 273.5 " fill="none" stroke="#919191" stroke-width="1.00" stroke-dasharray="1.0, 2.0" transform="matrix(1.00, 0.00, 0.00, -1.00, 1.3, 305.5)"></path><path d="M 320.2 22.5 L 320.2 273.5 " fill="none" stroke="#919191" stroke-width="1.00" stroke-dasharray="1.0, 2.0" transform="matrix(1.00, 0.00, 0.00, -1.00, 1.3, 305.5)"></path><path d="M 457.2 22.5 L 457.2 273.5 " fill="none" stroke="#919191" stroke-width="1.00" stroke-dasharray="1.0, 2.0" transform="matrix(1.00, 0.00, 0.00, -1.00, 1.3, 305.5)"></path><g><clipPath id="clip0x6100042b2c00"><path d="M 10.8 81.8 L 34.8 81.8 L 34.8 106.8 L 10.8 106.8 Z M 10.8 81.8 "></path></clipPath><g clip-path="url(#clip0x6100042b2c00)"><text xml:space="preserve" font-family="Helvetica,Helvetica" font-size="18.9" fill="#E2E2E2" transform="matrix(1.00, 0.00, -0.00, -1.00, 12.3, 87.1)">2</text><text xml:space="preserve" font-family="Helvetica,Helvetica" font-size="18.9" fill="#E2E2E2" transform="matrix(1.00, 0.00, -0.00, -1.00, 22.8, 87.1)">5</text></g></g><g><clipPath id="clip0x6100042b2e40"><path d="M 10.8 144.5 L 34.8 144.5 L 34.8 169.5 L 10.8 169.5 Z M 10.8 144.5 "></path></clipPath><g clip-path="url(#clip0x6100042b2e40)"><text xml:space="preserve" font-family="Helvetica,Helvetica" font-size="18.9" fill="#E2E2E2" transform="matrix(1.00, 0.00, -0.00, -1.00, 12.3, 149.9)">5</text><text xml:space="preserve" font-family="Helvetica,Helvetica" font-size="18.9" fill="#E2E2E2" transform="matrix(1.00, 0.00, -0.00, -1.00, 22.8, 149.9)">0</text></g></g><g><clipPath id="clip0x6100042b3140"><path d="M 10.8 207.3 L 34.8 207.3 L 34.8 232.3 L 10.8 232.3 Z M 10.8 207.3 "></path></clipPath><g clip-path="url(#clip0x6100042b3140)"><text xml:space="preserve" font-family="Helvetica,Helvetica" font-size="18.9" fill="#E2E2E2" transform="matrix(1.00, 0.00, -0.00, -1.00, 12.3, 212.6)">7</text><text xml:space="preserve" font-family="Helvetica,Helvetica" font-size="18.9" fill="#E2E2E2" transform="matrix(1.00, 0.00, -0.00, -1.00, 22.8, 212.6)">5</text></g></g><g><clipPath id="clip0x6100042b36e0"><path d="M 0.3 270.0 L 34.8 270.0 L 34.8 295.0 L 0.3 295.0 Z M 0.3 270.0 "></path></clipPath><g clip-path="url(#clip0x6100042b36e0)"><text xml:space="preserve" font-family="Helvetica,Helvetica" font-size="18.9" fill="#E2E2E2" transform="matrix(1.00, 0.00, -0.00, -1.00, 1.8, 275.4)">1</text><text xml:space="preserve" font-family="Helvetica,Helvetica" font-size="18.9" fill="#E2E2E2" transform="matrix(1.00, 0.00, -0.00, -1.00, 12.3, 275.4)">0</text><text xml:space="preserve" font-family="Helvetica,Helvetica" font-size="18.9" fill="#E2E2E2" transform="matrix(1.00, 0.00, -0.00, -1.00, 22.8, 275.4)">0</text></g></g><g><clipPath id="clip0x6100042b3920"><path d="M 26.4 0.1 L 70.1 0.1 L 70.1 25.1 L 26.4 25.1 Z M 26.4 0.1 "></path></clipPath><g clip-path="url(#clip0x6100042b3920)"><text xml:space="preserve" font-family="Helvetica,Helvetica" font-size="18.9" fill="#E2E2E2" transform="matrix(1.00, 0.00, -0.00, -1.00, 27.9, 5.4)">2</text><text xml:space="preserve" font-family="Helvetica,Helvetica" font-size="18.9" fill="#E2E2E2" transform="matrix(1.00, 0.00, -0.00, -1.00, 38.4, 5.4)">0</text><text xml:space="preserve" font-family="Helvetica,Helvetica" font-size="18.9" fill="#E2E2E2" transform="matrix(1.00, 0.00, -0.00, -1.00, 49.0, 5.4)">1</text><text xml:space="preserve" font-family="Helvetica,Helvetica" font-size="18.9" fill="#E2E2E2" transform="matrix(1.00, 0.00, -0.00, -1.00, 58.1, 5.4)">1</text></g></g><g><clipPath id="clip0x600004ab4b20"><path d="M 162.4 0.1 L 207.4 0.1 L 207.4 25.1 L 162.4 25.1 Z M 162.4 0.1 "></path></clipPath><g clip-path="url(#clip0x600004ab4b20)"><text xml:space="preserve" font-family="Helvetica,Helvetica" font-size="18.9" fill="#E2E2E2" transform="matrix(1.00, 0.00, -0.00, -1.00, 163.9, 5.4)">2</text><text xml:space="preserve" font-family="Helvetica,Helvetica" font-size="18.9" fill="#E2E2E2" transform="matrix(1.00, 0.00, -0.00, -1.00, 174.4, 5.4)">0</text><text xml:space="preserve" font-family="Helvetica,Helvetica" font-size="18.9" fill="#E2E2E2" transform="matrix(1.00, 0.00, -0.00, -1.00, 184.9, 5.4)">1</text><text xml:space="preserve" font-family="Helvetica,Helvetica" font-size="18.9" fill="#E2E2E2" transform="matrix(1.00, 0.00, -0.00, -1.00, 195.4, 5.4)">2</text></g></g><g><clipPath id="clip0x600004ab5000"><path d="M 299.1 0.1 L 344.1 0.1 L 344.1 25.1 L 299.1 25.1 Z M 299.1 0.1 "></path></clipPath><g clip-path="url(#clip0x600004ab5000)"><text xml:space="preserve" font-family="Helvetica,Helvetica" font-size="18.9" fill="#E2E2E2" transform="matrix(1.00, 0.00, -0.00, -1.00, 300.6, 5.4)">2</text><text xml:space="preserve" font-family="Helvetica,Helvetica" font-size="18.9" fill="#E2E2E2" transform="matrix(1.00, 0.00, -0.00, -1.00, 311.1, 5.4)">0</text><text xml:space="preserve" font-family="Helvetica,Helvetica" font-size="18.9" fill="#E2E2E2" transform="matrix(1.00, 0.00, -0.00, -1.00, 321.6, 5.4)">1</text><text xml:space="preserve" font-family="Helvetica,Helvetica" font-size="18.9" fill="#E2E2E2" transform="matrix(1.00, 0.00, -0.00, -1.00, 332.1, 5.4)">3</text></g></g><g><clipPath id="clip0x600004ab5360"><path d="M 435.7 0.1 L 480.8 0.1 L 480.8 25.1 L 435.7 25.1 Z M 435.7 0.1 "></path></clipPath><g clip-path="url(#clip0x600004ab5360)"><text xml:space="preserve" font-family="Helvetica,Helvetica" font-size="18.9" fill="#E2E2E2" transform="matrix(1.00, 0.00, -0.00, -1.00, 437.2, 5.4)">2</text><text xml:space="preserve" font-family="Helvetica,Helvetica" font-size="18.9" fill="#E2E2E2" transform="matrix(1.00, 0.00, -0.00, -1.00, 447.8, 5.4)">0</text><text xml:space="preserve" font-family="Helvetica,Helvetica" font-size="18.9" fill="#E2E2E2" transform="matrix(1.00, 0.00, -0.00, -1.00, 458.3, 5.4)">1</text><text xml:space="preserve" font-family="Helvetica,Helvetica" font-size="18.9" fill="#E2E2E2" transform="matrix(1.00, 0.00, -0.00, -1.00, 468.8, 5.4)">4</text></g></g><g><g><clipPath id="clip0x600004ab5720"><path d="M 46.5 29.7 L 460.1 29.7 L 460.1 284.3 L 46.5 284.3 Z M 46.5 29.7 "></path></clipPath><g clip-path="url(#clip0x600004ab5720)"><path d="M 0.0 75.3 L 136.7 0.0 L 273.3 140.6 L 410.0 133.0 " fill="none" stroke="#EDC25F" stroke-width="3.00" transform="matrix(1.00, 0.00, 0.00, -1.00, 48.3, 187.1)"></path></g></g><g><clipPath id="clip0x600004ab5960"><path d="M 53.8 111.8 C 53.8 108.8 51.3 106.3 48.3 106.3 C 45.2 106.3 42.8 108.8 42.8 111.8 C 42.8 114.9 45.2 117.3 48.3 117.3 C 51.3 117.3 53.8 114.9 53.8 111.8 Z M 53.8 111.8 "></path></clipPath><g clip-path="url(#clip0x600004ab5960)"><g><clipPath id="clip0x600004ab5ae0"><path d="M 1.0 1.0 L 480.0 1.0 L 480.0 306.0 L 1.0 306.0 Z M 1.0 1.0 "></path></clipPath><g clip-path="url(#clip0x600004ab5ae0)"><path d="M 40.0 120.0 L 56.0 120.0 L 56.0 104.0 L 40.0 104.0 Z M 40.0 120.0 " fill="#5A6378"></path></g></g></g></g><g><clipPath id="clip0x600004ab5d20"><path d="M 1.0 1.0 L 480.0 1.0 L 480.0 306.0 L 1.0 306.0 Z M 1.0 1.0 "></path></clipPath><g clip-path="url(#clip0x600004ab5d20)"><path d="M 52.5 193.7 C 52.5 196.7 50.0 199.2 47.0 199.2 C 43.9 199.2 41.5 196.7 41.5 193.7 C 41.5 190.6 43.9 188.2 47.0 188.2 C 50.0 188.2 52.5 190.6 52.5 193.7 Z M 52.5 193.7 " fill="none" stroke="#EDC25F" stroke-width="3.00" transform="matrix(1.00, 0.00, 0.00, -1.00, 1.3, 305.5)"></path></g></g><g><clipPath id="clip0x600004ab5f60"><path d="M 190.4 187.1 C 190.4 184.1 188.0 181.6 184.9 181.6 C 181.9 181.6 179.4 184.1 179.4 187.1 C 179.4 190.2 181.9 192.6 184.9 192.6 C 188.0 192.6 190.4 190.2 190.4 187.1 Z M 190.4 187.1 "></path></clipPath><g clip-path="url(#clip0x600004ab5f60)"><g><clipPath id="clip0x600004ab60e0"><path d="M 1.0 1.0 L 480.0 1.0 L 480.0 306.0 L 1.0 306.0 Z M 1.0 1.0 "></path></clipPath><g clip-path="url(#clip0x600004ab60e0)"><path d="M 177.0 195.0 L 193.0 195.0 L 193.0 179.0 L 177.0 179.0 Z M 177.0 195.0 " fill="#5A6378"></path></g></g></g></g><g><clipPath id="clip0x600004ab6320"><path d="M 1.0 1.0 L 480.0 1.0 L 480.0 306.0 L 1.0 306.0 Z M 1.0 1.0 "></path></clipPath><g clip-path="url(#clip0x600004ab6320)"><path d="M 189.1 118.4 C 189.1 121.4 186.7 123.9 183.6 123.9 C 180.6 123.9 178.1 121.4 178.1 118.4 C 178.1 115.3 180.6 112.9 183.6 112.9 C 186.7 112.9 189.1 115.3 189.1 118.4 Z M 189.1 118.4 " fill="none" stroke="#EDC25F" stroke-width="3.00" transform="matrix(1.00, 0.00, 0.00, -1.00, 1.3, 305.5)"></path></g></g><g><clipPath id="clip0x600004ab6560"><path d="M 327.1 46.6 C 327.1 43.5 324.6 41.1 321.6 41.1 C 318.6 41.1 316.1 43.5 316.1 46.6 C 316.1 49.6 318.6 52.1 321.6 52.1 C 324.6 52.1 327.1 49.6 327.1 46.6 Z M 327.1 46.6 "></path></clipPath><g clip-path="url(#clip0x600004ab6560)"><g><clipPath id="clip0x600004ab66e0"><path d="M 1.0 1.0 L 480.0 1.0 L 480.0 306.0 L 1.0 306.0 Z M 1.0 1.0 "></path></clipPath><g clip-path="url(#clip0x600004ab66e0)"><path d="M 314.0 55.0 L 330.0 55.0 L 330.0 39.0 L 314.0 39.0 Z M 314.0 55.0 " fill="#5A6378"></path></g></g></g></g><g><clipPath id="clip0x600004ab6920"><path d="M 1.0 1.0 L 480.0 1.0 L 480.0 306.0 L 1.0 306.0 Z M 1.0 1.0 "></path></clipPath><g clip-path="url(#clip0x600004ab6920)"><path d="M 325.8 258.9 C 325.8 262.0 323.3 264.4 320.3 264.4 C 317.3 264.4 314.8 262.0 314.8 258.9 C 314.8 255.9 317.3 253.4 320.3 253.4 C 323.3 253.4 325.8 255.9 325.8 258.9 Z M 325.8 258.9 " fill="none" stroke="#EDC25F" stroke-width="3.00" transform="matrix(1.00, 0.00, 0.00, -1.00, 1.3, 305.5)"></path></g></g><g><clipPath id="clip0x600004ab6b60"><path d="M 463.8 54.1 C 463.8 51.1 461.3 48.6 458.3 48.6 C 455.2 48.6 452.8 51.1 452.8 54.1 C 452.8 57.1 455.2 59.6 458.3 59.6 C 461.3 59.6 463.8 57.1 463.8 54.1 Z M 463.8 54.1 "></path></clipPath><g clip-path="url(#clip0x600004ab6b60)"><g><clipPath id="clip0x600004ab6ce0"><path d="M 1.0 1.0 L 480.0 1.0 L 480.0 306.0 L 1.0 306.0 Z M 1.0 1.0 "></path></clipPath><g clip-path="url(#clip0x600004ab6ce0)"><path d="M 450.0 62.0 L 466.0 62.0 L 466.0 46.0 L 450.0 46.0 Z M 450.0 62.0 " fill="#5A6378"></path></g></g></g></g><g><clipPath id="clip0x600004ab6f20"><path d="M 1.0 1.0 L 480.0 1.0 L 480.0 306.0 L 1.0 306.0 Z M 1.0 1.0 "></path></clipPath><g clip-path="url(#clip0x600004ab6f20)"><path d="M 462.5 251.4 C 462.5 254.4 460.0 256.9 457.0 256.9 C 453.9 256.9 451.5 254.4 451.5 251.4 C 451.5 248.4 453.9 245.9 457.0 245.9 C 460.0 245.9 462.5 248.4 462.5 251.4 Z M 462.5 251.4 " fill="none" stroke="#EDC25F" stroke-width="3.00" transform="matrix(1.00, 0.00, 0.00, -1.00, 1.3, 305.5)"></path></g></g></g><g><g><clipPath id="clip0x600004ab71c0"><path d="M 46.5 29.7 L 460.1 29.7 L 460.1 284.3 L 46.5 284.3 Z M 46.5 29.7 "></path></clipPath><g clip-path="url(#clip0x600004ab71c0)"><path d="M 0.0 55.2 L 136.7 50.2 L 273.3 0.0 L 410.0 25.1 " fill="none" stroke="#62D7AD" stroke-width="3.00" transform="matrix(1.00, 0.00, 0.00, -1.00, 48.3, 111.8)"></path></g></g><g><clipPath id="clip0x600004ab7400"><path d="M 53.8 56.6 C 53.8 53.6 51.3 51.1 48.3 51.1 C 45.2 51.1 42.8 53.6 42.8 56.6 C 42.8 59.6 45.2 62.1 48.3 62.1 C 51.3 62.1 53.8 59.6 53.8 56.6 Z M 53.8 56.6 "></path></clipPath><g clip-path="url(#clip0x600004ab7400)"><g><clipPath id="clip0x600004ab7580"><path d="M 1.0 1.0 L 480.0 1.0 L 480.0 306.0 L 1.0 306.0 Z M 1.0 1.0 "></path></clipPath><g clip-path="url(#clip0x600004ab7580)"><path d="M 40.0 65.0 L 56.0 65.0 L 56.0 49.0 L 40.0 49.0 Z M 40.0 65.0 " fill="#5A6378"></path></g></g></g></g><g><clipPath id="clip0x600004ab77c0"><path d="M 1.0 1.0 L 480.0 1.0 L 480.0 306.0 L 1.0 306.0 Z M 1.0 1.0 "></path></clipPath><g clip-path="url(#clip0x600004ab77c0)"><path d="M 52.5 248.9 C 52.5 251.9 50.0 254.4 47.0 254.4 C 43.9 254.4 41.5 251.9 41.5 248.9 C 41.5 245.9 43.9 243.4 47.0 243.4 C 50.0 243.4 52.5 245.9 52.5 248.9 Z M 52.5 248.9 " fill="none" stroke="#62D7AD" stroke-width="3.00" transform="matrix(1.00, 0.00, 0.00, -1.00, 1.3, 305.5)"></path></g></g><g><clipPath id="clip0x600004ab7a00"><path d="M 190.4 61.6 C 190.4 58.6 188.0 56.1 184.9 56.1 C 181.9 56.1 179.4 58.6 179.4 61.6 C 179.4 64.7 181.9 67.1 184.9 67.1 C 188.0 67.1 190.4 64.7 190.4 61.6 Z M 190.4 61.6 "></path></clipPath><g clip-path="url(#clip0x600004ab7a00)"><g><clipPath id="clip0x600004ab7b80"><path d="M 1.0 1.0 L 480.0 1.0 L 480.0 306.0 L 1.0 306.0 Z M 1.0 1.0 "></path></clipPath><g clip-path="url(#clip0x600004ab7b80)"><path d="M 177.0 70.0 L 193.0 70.0 L 193.0 54.0 L 177.0 54.0 Z M 177.0 70.0 " fill="#5A6378"></path></g></g></g></g><g><clipPath id="clip0x600004ab7dc0"><path d="M 1.0 1.0 L 480.0 1.0 L 480.0 306.0 L 1.0 306.0 Z M 1.0 1.0 "></path></clipPath><g clip-path="url(#clip0x600004ab7dc0)"><path d="M 189.1 243.9 C 189.1 246.9 186.7 249.4 183.6 249.4 C 180.6 249.4 178.1 246.9 178.1 243.9 C 178.1 240.8 180.6 238.4 183.6 238.4 C 186.7 238.4 189.1 240.8 189.1 243.9 Z M 189.1 243.9 " fill="none" stroke="#62D7AD" stroke-width="3.00" transform="matrix(1.00, 0.00, 0.00, -1.00, 1.3, 305.5)"></path></g></g><g><clipPath id="clip0x600004ab8000"><path d="M 327.1 111.8 C 327.1 108.8 324.6 106.3 321.6 106.3 C 318.6 106.3 316.1 108.8 316.1 111.8 C 316.1 114.9 318.6 117.3 321.6 117.3 C 324.6 117.3 327.1 114.9 327.1 111.8 Z M 327.1 111.8 "></path></clipPath><g clip-path="url(#clip0x600004ab8000)"><g><clipPath id="clip0x600004ab8180"><path d="M 1.0 1.0 L 480.0 1.0 L 480.0 306.0 L 1.0 306.0 Z M 1.0 1.0 "></path></clipPath><g clip-path="url(#clip0x600004ab8180)"><path d="M 314.0 120.0 L 330.0 120.0 L 330.0 104.0 L 314.0 104.0 Z M 314.0 120.0 " fill="#5A6378"></path></g></g></g></g><g><clipPath id="clip0x600004ab83c0"><path d="M 1.0 1.0 L 480.0 1.0 L 480.0 306.0 L 1.0 306.0 Z M 1.0 1.0 "></path></clipPath><g clip-path="url(#clip0x600004ab83c0)"><path d="M 325.8 193.7 C 325.8 196.7 323.3 199.2 320.3 199.2 C 317.3 199.2 314.8 196.7 314.8 193.7 C 314.8 190.6 317.3 188.2 320.3 188.2 C 323.3 188.2 325.8 190.6 325.8 193.7 Z M 325.8 193.7 " fill="none" stroke="#62D7AD" stroke-width="3.00" transform="matrix(1.00, 0.00, 0.00, -1.00, 1.3, 305.5)"></path></g></g><g><clipPath id="clip0x600004ab8600"><path d="M 463.8 86.7 C 463.8 83.7 461.3 81.2 458.3 81.2 C 455.2 81.2 452.8 83.7 452.8 86.7 C 452.8 89.8 455.2 92.2 458.3 92.2 C 461.3 92.2 463.8 89.8 463.8 86.7 Z M 463.8 86.7 "></path></clipPath><g clip-path="url(#clip0x600004ab8600)"><g><clipPath id="clip0x600004ab8780"><path d="M 1.0 1.0 L 480.0 1.0 L 480.0 306.0 L 1.0 306.0 Z M 1.0 1.0 "></path></clipPath><g clip-path="url(#clip0x600004ab8780)"><path d="M 450.0 95.0 L 466.0 95.0 L 466.0 79.0 L 450.0 79.0 Z M 450.0 95.0 " fill="#5A6378"></path></g></g></g></g><g><clipPath id="clip0x600004ab89c0"><path d="M 1.0 1.0 L 480.0 1.0 L 480.0 306.0 L 1.0 306.0 Z M 1.0 1.0 "></path></clipPath><g clip-path="url(#clip0x600004ab89c0)"><path d="M 462.5 218.8 C 462.5 221.8 460.0 224.3 457.0 224.3 C 453.9 224.3 451.5 221.8 451.5 218.8 C 451.5 215.7 453.9 213.3 457.0 213.3 C 460.0 213.3 462.5 215.7 462.5 218.8 Z M 462.5 218.8 " fill="none" stroke="#62D7AD" stroke-width="3.00" transform="matrix(1.00, 0.00, 0.00, -1.00, 1.3, 305.5)"></path></g></g></g><g><g><clipPath id="clip0x600004ab8c60"><path d="M 46.5 29.7 L 460.1 29.7 L 460.1 284.3 L 46.5 284.3 Z M 46.5 29.7 "></path></clipPath><g clip-path="url(#clip0x600004ab8c60)"><path d="M 0.0 37.6 L 136.7 67.8 L 273.3 0.0 L 410.0 30.1 " fill="none" stroke="#54C6E1" stroke-width="3.00" transform="matrix(1.00, 0.00, 0.00, -1.00, 48.3, 207.2)"></path></g></g><g><clipPath id="clip0x600004ab8ea0"><path d="M 53.8 169.6 C 53.8 166.5 51.3 164.1 48.3 164.1 C 45.2 164.1 42.8 166.5 42.8 169.6 C 42.8 172.6 45.2 175.1 48.3 175.1 C 51.3 175.1 53.8 172.6 53.8 169.6 Z M 53.8 169.6 "></path></clipPath><g clip-path="url(#clip0x600004ab8ea0)"><g><clipPath id="clip0x600004ab9020"><path d="M 1.0 1.0 L 480.0 1.0 L 480.0 306.0 L 1.0 306.0 Z M 1.0 1.0 "></path></clipPath><g clip-path="url(#clip0x600004ab9020)"><path d="M 40.0 178.0 L 56.0 178.0 L 56.0 162.0 L 40.0 162.0 Z M 40.0 178.0 " fill="#5A6378"></path></g></g></g></g><g><clipPath id="clip0x600004ab9260"><path d="M 1.0 1.0 L 480.0 1.0 L 480.0 306.0 L 1.0 306.0 Z M 1.0 1.0 "></path></clipPath><g clip-path="url(#clip0x600004ab9260)"><path d="M 52.5 135.9 C 52.5 139.0 50.0 141.5 47.0 141.5 C 43.9 141.5 41.5 139.0 41.5 135.9 C 41.5 132.9 43.9 130.4 47.0 130.4 C 50.0 130.4 52.5 132.9 52.5 135.9 Z M 52.5 135.9 " fill="none" stroke="#54C6E1" stroke-width="3.00" transform="matrix(1.00, 0.00, 0.00, -1.00, 1.3, 305.5)"></path></g></g><g><clipPath id="clip0x600004ab94a0"><path d="M 190.4 139.4 C 190.4 136.4 188.0 133.9 184.9 133.9 C 181.9 133.9 179.4 136.4 179.4 139.4 C 179.4 142.5 181.9 144.9 184.9 144.9 C 188.0 144.9 190.4 142.5 190.4 139.4 Z M 190.4 139.4 "></path></clipPath><g clip-path="url(#clip0x600004ab94a0)"><g><clipPath id="clip0x600004ab9620"><path d="M 1.0 1.0 L 480.0 1.0 L 480.0 306.0 L 1.0 306.0 Z M 1.0 1.0 "></path></clipPath><g clip-path="url(#clip0x600004ab9620)"><path d="M 177.0 147.0 L 193.0 147.0 L 193.0 131.0 L 177.0 131.0 Z M 177.0 147.0 " fill="#5A6378"></path></g></g></g></g><g><clipPath id="clip0x600004ab9860"><path d="M 1.0 1.0 L 480.0 1.0 L 480.0 306.0 L 1.0 306.0 Z M 1.0 1.0 "></path></clipPath><g clip-path="url(#clip0x600004ab9860)"><path d="M 189.1 166.1 C 189.1 169.1 186.7 171.6 183.6 171.6 C 180.6 171.6 178.1 169.1 178.1 166.1 C 178.1 163.0 180.6 160.6 183.6 160.6 C 186.7 160.6 189.1 163.0 189.1 166.1 Z M 189.1 166.1 " fill="none" stroke="#54C6E1" stroke-width="3.00" transform="matrix(1.00, 0.00, 0.00, -1.00, 1.3, 305.5)"></path></g></g><g><clipPath id="clip0x600004ab9aa0"><path d="M 327.1 207.2 C 327.1 204.2 324.6 201.7 321.6 201.7 C 318.6 201.7 316.1 204.2 316.1 207.2 C 316.1 210.2 318.6 212.7 321.6 212.7 C 324.6 212.7 327.1 210.2 327.1 207.2 Z M 327.1 207.2 "></path></clipPath><g clip-path="url(#clip0x600004ab9aa0)"><g><clipPath id="clip0x600004ab9c20"><path d="M 1.0 1.0 L 480.0 1.0 L 480.0 306.0 L 1.0 306.0 Z M 1.0 1.0 "></path></clipPath><g clip-path="url(#clip0x600004ab9c20)"><path d="M 314.0 215.0 L 330.0 215.0 L 330.0 199.0 L 314.0 199.0 Z M 314.0 215.0 " fill="#5A6378"></path></g></g></g></g><g><clipPath id="clip0x600004ab9e60"><path d="M 1.0 1.0 L 480.0 1.0 L 480.0 306.0 L 1.0 306.0 Z M 1.0 1.0 "></path></clipPath><g clip-path="url(#clip0x600004ab9e60)"><path d="M 325.8 98.3 C 325.8 101.3 323.3 103.8 320.3 103.8 C 317.3 103.8 314.8 101.3 314.8 98.3 C 314.8 95.3 317.3 92.8 320.3 92.8 C 323.3 92.8 325.8 95.3 325.8 98.3 Z M 325.8 98.3 " fill="none" stroke="#54C6E1" stroke-width="3.00" transform="matrix(1.00, 0.00, 0.00, -1.00, 1.3, 305.5)"></path></g></g><g><clipPath id="clip0x600004aba0a0"><path d="M 463.8 177.1 C 463.8 174.0 461.3 171.6 458.3 171.6 C 455.2 171.6 452.8 174.0 452.8 177.1 C 452.8 180.1 455.2 182.6 458.3 182.6 C 461.3 182.6 463.8 180.1 463.8 177.1 Z M 463.8 177.1 "></path></clipPath><g clip-path="url(#clip0x600004aba0a0)"><g><clipPath id="clip0x600004aba220"><path d="M 1.0 1.0 L 480.0 1.0 L 480.0 306.0 L 1.0 306.0 Z M 1.0 1.0 "></path></clipPath><g clip-path="url(#clip0x600004aba220)"><path d="M 450.0 185.0 L 466.0 185.0 L 466.0 169.0 L 450.0 169.0 Z M 450.0 185.0 " fill="#5A6378"></path></g></g></g></g><g><clipPath id="clip0x600004aba460"><path d="M 1.0 1.0 L 480.0 1.0 L 480.0 306.0 L 1.0 306.0 Z M 1.0 1.0 "></path></clipPath><g clip-path="url(#clip0x600004aba460)"><path d="M 462.5 128.4 C 462.5 131.5 460.0 133.9 457.0 133.9 C 453.9 133.9 451.5 131.5 451.5 128.4 C 451.5 125.4 453.9 122.9 457.0 122.9 C 460.0 122.9 462.5 125.4 462.5 128.4 Z M 462.5 128.4 " fill="none" stroke="#54C6E1" stroke-width="3.00" transform="matrix(1.00, 0.00, 0.00, -1.00, 1.3, 305.5)"></path></g></g></g><g><g><clipPath id="clip0x600004aba700"><path d="M 46.5 29.7 L 460.1 29.7 L 460.1 284.3 L 46.5 284.3 Z M 46.5 29.7 "></path></clipPath><g clip-path="url(#clip0x600004aba700)"><path d="M 0.0 198.3 L 136.7 175.7 L 273.3 107.9 L 410.0 0.0 " fill="none" stroke="#FF607B" stroke-width="3.00" transform="matrix(1.00, 0.00, 0.00, -1.00, 48.3, 272.5)"></path></g></g><g><clipPath id="clip0x600004aba940"><path d="M 53.8 74.2 C 53.8 71.1 51.3 68.7 48.3 68.7 C 45.2 68.7 42.8 71.1 42.8 74.2 C 42.8 77.2 45.2 79.7 48.3 79.7 C 51.3 79.7 53.8 77.2 53.8 74.2 Z M 53.8 74.2 "></path></clipPath><g clip-path="url(#clip0x600004aba940)"><g><clipPath id="clip0x600004abaac0"><path d="M 1.0 1.0 L 480.0 1.0 L 480.0 306.0 L 1.0 306.0 Z M 1.0 1.0 "></path></clipPath><g clip-path="url(#clip0x600004abaac0)"><path d="M 40.0 82.0 L 56.0 82.0 L 56.0 66.0 L 40.0 66.0 Z M 40.0 82.0 " fill="#5A6378"></path></g></g></g></g><g><clipPath id="clip0x600004abad00"><path d="M 1.0 1.0 L 480.0 1.0 L 480.0 306.0 L 1.0 306.0 Z M 1.0 1.0 "></path></clipPath><g clip-path="url(#clip0x600004abad00)"><path d="M 52.5 231.3 C 52.5 234.4 50.0 236.8 47.0 236.8 C 43.9 236.8 41.5 234.4 41.5 231.3 C 41.5 228.3 43.9 225.8 47.0 225.8 C 50.0 225.8 52.5 228.3 52.5 231.3 Z M 52.5 231.3 " fill="none" stroke="#FF607B" stroke-width="3.00" transform="matrix(1.00, 0.00, 0.00, -1.00, 1.3, 305.5)"></path></g></g><g><clipPath id="clip0x600004abaf40"><path d="M 190.4 96.8 C 190.4 93.7 188.0 91.3 184.9 91.3 C 181.9 91.3 179.4 93.7 179.4 96.8 C 179.4 99.8 181.9 102.3 184.9 102.3 C 188.0 102.3 190.4 99.8 190.4 96.8 Z M 190.4 96.8 "></path></clipPath><g clip-path="url(#clip0x600004abaf40)"><g><clipPath id="clip0x600004abb0c0"><path d="M 1.0 1.0 L 480.0 1.0 L 480.0 306.0 L 1.0 306.0 Z M 1.0 1.0 "></path></clipPath><g clip-path="url(#clip0x600004abb0c0)"><path d="M 177.0 105.0 L 193.0 105.0 L 193.0 89.0 L 177.0 89.0 Z M 177.0 105.0 " fill="#5A6378"></path></g></g></g></g><g><clipPath id="clip0x600004abb300"><path d="M 1.0 1.0 L 480.0 1.0 L 480.0 306.0 L 1.0 306.0 Z M 1.0 1.0 "></path></clipPath><g clip-path="url(#clip0x600004abb300)"><path d="M 189.1 208.7 C 189.1 211.8 186.7 214.2 183.6 214.2 C 180.6 214.2 178.1 211.8 178.1 208.7 C 178.1 205.7 180.6 203.2 183.6 203.2 C 186.7 203.2 189.1 205.7 189.1 208.7 Z M 189.1 208.7 " fill="none" stroke="#FF607B" stroke-width="3.00" transform="matrix(1.00, 0.00, 0.00, -1.00, 1.3, 305.5)"></path></g></g><g><clipPath id="clip0x600004abb540"><path d="M 327.1 164.5 C 327.1 161.5 324.6 159.0 321.6 159.0 C 318.6 159.0 316.1 161.5 316.1 164.5 C 316.1 167.6 318.6 170.0 321.6 170.0 C 324.6 170.0 327.1 167.6 327.1 164.5 Z M 327.1 164.5 "></path></clipPath><g clip-path="url(#clip0x600004abb540)"><g><clipPath id="clip0x600004abb6c0"><path d="M 1.0 1.0 L 480.0 1.0 L 480.0 306.0 L 1.0 306.0 Z M 1.0 1.0 "></path></clipPath><g clip-path="url(#clip0x600004abb6c0)"><path d="M 314.0 173.0 L 330.0 173.0 L 330.0 157.0 L 314.0 157.0 Z M 314.0 173.0 " fill="#5A6378"></path></g></g></g></g><g><clipPath id="clip0x600004abb900"><path d="M 1.0 1.0 L 480.0 1.0 L 480.0 306.0 L 1.0 306.0 Z M 1.0 1.0 "></path></clipPath><g clip-path="url(#clip0x600004abb900)"><path d="M 325.8 141.0 C 325.8 144.0 323.3 146.5 320.3 146.5 C 317.3 146.5 314.8 144.0 314.8 141.0 C 314.8 137.9 317.3 135.5 320.3 135.5 C 323.3 135.5 325.8 137.9 325.8 141.0 Z M 325.8 141.0 " fill="none" stroke="#FF607B" stroke-width="3.00" transform="matrix(1.00, 0.00, 0.00, -1.00, 1.3, 305.5)"></path></g></g><g><clipPath id="clip0x600004abbb40"><path d="M 463.8 272.5 C 463.8 269.4 461.3 267.0 458.3 267.0 C 455.2 267.0 452.8 269.4 452.8 272.5 C 452.8 275.5 455.2 278.0 458.3 278.0 C 461.3 278.0 463.8 275.5 463.8 272.5 Z M 463.8 272.5 "></path></clipPath><g clip-path="url(#clip0x600004abbb40)"><g><clipPath id="clip0x600004abbcc0"><path d="M 1.0 1.0 L 480.0 1.0 L 480.0 306.0 L 1.0 306.0 Z M 1.0 1.0 "></path></clipPath><g clip-path="url(#clip0x600004abbcc0)"><path d="M 450.0 280.0 L 466.0 280.0 L 466.0 264.0 L 450.0 264.0 Z M 450.0 280.0 " fill="#5A6378"></path></g></g></g></g><g><clipPath id="clip0x600004abbf00"><path d="M 1.0 1.0 L 480.0 1.0 L 480.0 306.0 L 1.0 306.0 Z M 1.0 1.0 "></path></clipPath><g clip-path="url(#clip0x600004abbf00)"><path d="M 462.5 33.0 C 462.5 36.1 460.0 38.5 457.0 38.5 C 453.9 38.5 451.5 36.1 451.5 33.0 C 451.5 30.0 453.9 27.5 457.0 27.5 C 460.0 27.5 462.5 30.0 462.5 33.0 Z M 462.5 33.0 " fill="none" stroke="#FF607B" stroke-width="3.00" transform="matrix(1.00, 0.00, 0.00, -1.00, 1.3, 305.5)"></path></g></g></g></g></svg>