<?xml version="1.0" encoding="UTF-8" standalone="no"?><svg xmlns="http://www.w3.org/2000/svg" xmlns:xlink="http://www.w3.org/1999/xlink" clip-rule="evenodd" stroke-miterlimit="10" viewBox="0 0 291 291"><desc>SVG generated by Keynote</desc><defs></defs><g transform="matrix(1.00, 0.00, -0.00, -1.00, 0.0, 291.0)"><g><clipPath id="clip0x6100076b1d00"><path d="M 0.6 0.5 L 290.8 0.5 L 290.8 290.7 L 0.6 290.7 Z M 0.6 0.5 "></path></clipPath><g clip-path="url(#clip0x6100076b1d00)"><path d="M 247.6 247.5 C 303.8 191.2 303.8 100.0 247.6 43.7 C 191.3 -12.6 100.1 -12.6 43.8 43.7 C -12.5 100.0 -12.5 191.2 43.8 247.5 C 100.1 303.7 191.3 303.7 247.6 247.5 Z M 247.6 247.5 " fill="#62D7AD" fill-opacity="0.95"></path></g></g><g><clipPath id="clip0x6100076b1fa0"><path d="M 33.0 56.6 L 258.4 56.6 L 258.4 234.6 L 33.0 234.6 Z M 33.0 56.6 "></path></clipPath><g clip-path="url(#clip0x6100076b1fa0)"><text xml:space="preserve" font-family="Helvetica,Helvetica" font-size="20.0" fill="#F6F6F6" transform="matrix(1.00, 0.00, -0.00, -1.00, 50.1, 210.2)">L</text><text xml:space="preserve" font-family="Helvetica,Helvetica" font-size="20.0" fill="#F6F6F6" transform="matrix(1.00, 0.00, -0.00, -1.00, 61.2, 210.2)">o</text><text xml:space="preserve" font-family="Helvetica,Helvetica" font-size="20.0" fill="#F6F6F6" transform="matrix(1.00, 0.00, -0.00, -1.00, 72.4, 210.2)">r</text><text xml:space="preserve" font-family="Helvetica,Helvetica" font-size="20.0" fill="#F6F6F6" transform="matrix(1.00, 0.00, -0.00, -1.00, 79.0, 210.2)">e</text><text xml:space="preserve" font-family="Helvetica,Helvetica" font-size="20.0" fill="#F6F6F6" transform="matrix(1.00, 0.00, -0.00, -1.00, 90.1, 210.2)">m</text><text xml:space="preserve" font-family="Helvetica,Helvetica" font-size="20.0" fill="#F6F6F6" transform="matrix(1.00, 0.00, -0.00, -1.00, 106.8, 210.2)"> </text><text xml:space="preserve" font-family="Helvetica,Helvetica" font-size="20.0" fill="#F6F6F6" transform="matrix(1.00, 0.00, -0.00, -1.00, 112.4, 210.2)">i</text><text xml:space="preserve" font-family="Helvetica,Helvetica" font-size="20.0" fill="#F6F6F6" transform="matrix(1.00, 0.00, -0.00, -1.00, 116.8, 210.2)">p</text><text xml:space="preserve" font-family="Helvetica,Helvetica" font-size="20.0" fill="#F6F6F6" transform="matrix(1.00, 0.00, -0.00, -1.00, 127.9, 210.2)">s</text><text xml:space="preserve" font-family="Helvetica,Helvetica" font-size="20.0" fill="#F6F6F6" transform="matrix(1.00, 0.00, -0.00, -1.00, 137.9, 210.2)">u</text><text xml:space="preserve" font-family="Helvetica,Helvetica" font-size="20.0" fill="#F6F6F6" transform="matrix(1.00, 0.00, -0.00, -1.00, 149.1, 210.2)">m</text><text xml:space="preserve" font-family="Helvetica,Helvetica" font-size="20.0" fill="#F6F6F6" transform="matrix(1.00, 0.00, -0.00, -1.00, 165.7, 210.2)"> </text><text xml:space="preserve" font-family="Helvetica,Helvetica" font-size="20.0" fill="#F6F6F6" transform="matrix(1.00, 0.00, -0.00, -1.00, 171.3, 210.2)">d</text><text xml:space="preserve" font-family="Helvetica,Helvetica" font-size="20.0" fill="#F6F6F6" transform="matrix(1.00, 0.00, -0.00, -1.00, 182.4, 210.2)">o</text><text xml:space="preserve" font-family="Helvetica,Helvetica" font-size="20.0" fill="#F6F6F6" transform="matrix(1.00, 0.00, -0.00, -1.00, 193.5, 210.2)">l</text><text xml:space="preserve" font-family="Helvetica,Helvetica" font-size="20.0" fill="#F6F6F6" transform="matrix(1.00, 0.00, -0.00, -1.00, 198.0, 210.2)">o</text><text xml:space="preserve" font-family="Helvetica,Helvetica" font-size="20.0" fill="#F6F6F6" transform="matrix(1.00, 0.00, -0.00, -1.00, 209.1, 210.2)">r</text><text xml:space="preserve" font-family="Helvetica,Helvetica" font-size="20.0" fill="#F6F6F6" transform="matrix(1.00, 0.00, -0.00, -1.00, 215.8, 210.2)"> </text><text xml:space="preserve" font-family="Helvetica,Helvetica" font-size="20.0" fill="#F6F6F6" transform="matrix(1.00, 0.00, -0.00, -1.00, 221.3, 210.2)">s</text><text xml:space="preserve" font-family="Helvetica,Helvetica" font-size="20.0" fill="#F6F6F6" transform="matrix(1.00, 0.00, -0.00, -1.00, 231.3, 210.2)">i</text><text xml:space="preserve" font-family="Helvetica,Helvetica" font-size="20.0" fill="#F6F6F6" transform="matrix(1.00, 0.00, -0.00, -1.00, 235.8, 210.2)">t</text><text xml:space="preserve" font-family="Helvetica,Helvetica" font-size="20.0" fill="#F6F6F6" transform="matrix(1.00, 0.00, -0.00, -1.00, 241.3, 210.2)"> </text><text xml:space="preserve" font-family="Helvetica,Helvetica" font-size="20.0" fill="#F6F6F6" transform="matrix(1.00, 0.00, -0.00, -1.00, 60.7, 186.2)">a</text><text xml:space="preserve" font-family="Helvetica,Helvetica" font-size="20.0" fill="#F6F6F6" transform="matrix(1.00, 0.00, -0.00, -1.00, 71.8, 186.2)">m</text><text xml:space="preserve" font-family="Helvetica,Helvetica" font-size="20.0" fill="#F6F6F6" transform="matrix(1.00, 0.00, -0.00, -1.00, 88.4, 186.2)">e</text><text xml:space="preserve" font-family="Helvetica,Helvetica" font-size="20.0" fill="#F6F6F6" transform="matrix(1.00, 0.00, -0.00, -1.00, 99.6, 186.2)">t</text><text xml:space="preserve" font-family="Helvetica,Helvetica" font-size="20.0" fill="#F6F6F6" transform="matrix(1.00, 0.00, -0.00, -1.00, 105.1, 186.2)">,</text><text xml:space="preserve" font-family="Helvetica,Helvetica" font-size="20.0" fill="#F6F6F6" transform="matrix(1.00, 0.00, -0.00, -1.00, 110.7, 186.2)"> </text><text xml:space="preserve" font-family="Helvetica,Helvetica" font-size="20.0" fill="#F6F6F6" transform="matrix(1.00, 0.00, -0.00, -1.00, 116.2, 186.2)">c</text><text xml:space="preserve" font-family="Helvetica,Helvetica" font-size="20.0" fill="#F6F6F6" transform="matrix(1.00, 0.00, -0.00, -1.00, 126.2, 186.2)">o</text><text xml:space="preserve" font-family="Helvetica,Helvetica" font-size="20.0" fill="#F6F6F6" transform="matrix(1.00, 0.00, -0.00, -1.00, 137.3, 186.2)">n</text><text xml:space="preserve" font-family="Helvetica,Helvetica" font-size="20.0" fill="#F6F6F6" transform="matrix(1.00, 0.00, -0.00, -1.00, 148.5, 186.2)">s</text><text xml:space="preserve" font-family="Helvetica,Helvetica" font-size="20.0" fill="#F6F6F6" transform="matrix(1.00, 0.00, -0.00, -1.00, 158.5, 186.2)">e</text><text xml:space="preserve" font-family="Helvetica,Helvetica" font-size="20.0" fill="#F6F6F6" transform="matrix(1.00, 0.00, -0.00, -1.00, 169.6, 186.2)">c</text><text xml:space="preserve" font-family="Helvetica,Helvetica" font-size="20.0" fill="#F6F6F6" transform="matrix(1.00, 0.00, -0.00, -1.00, 179.6, 186.2)">t</text><text xml:space="preserve" font-family="Helvetica,Helvetica" font-size="20.0" fill="#F6F6F6" transform="matrix(1.00, 0.00, -0.00, -1.00, 185.2, 186.2)">e</text><text xml:space="preserve" font-family="Helvetica,Helvetica" font-size="20.0" fill="#F6F6F6" transform="matrix(1.00, 0.00, -0.00, -1.00, 196.3, 186.2)">t</text><text xml:space="preserve" font-family="Helvetica,Helvetica" font-size="20.0" fill="#F6F6F6" transform="matrix(1.00, 0.00, -0.00, -1.00, 201.8, 186.2)">u</text><text xml:space="preserve" font-family="Helvetica,Helvetica" font-size="20.0" fill="#F6F6F6" transform="matrix(1.00, 0.00, -0.00, -1.00, 213.0, 186.2)">e</text><text xml:space="preserve" font-family="Helvetica,Helvetica" font-size="20.0" fill="#F6F6F6" transform="matrix(1.00, 0.00, -0.00, -1.00, 224.1, 186.2)">r</text><text xml:space="preserve" font-family="Helvetica,Helvetica" font-size="20.0" fill="#F6F6F6" transform="matrix(1.00, 0.00, -0.00, -1.00, 230.8, 186.2)"> </text><text xml:space="preserve" font-family="Helvetica,Helvetica" font-size="20.0" fill="#F6F6F6" transform="matrix(1.00, 0.00, -0.00, -1.00, 39.5, 162.2)">a</text><text xml:space="preserve" font-family="Helvetica,Helvetica" font-size="20.0" fill="#F6F6F6" transform="matrix(1.00, 0.00, -0.00, -1.00, 50.7, 162.2)">d</text><text xml:space="preserve" font-family="Helvetica,Helvetica" font-size="20.0" fill="#F6F6F6" transform="matrix(1.00, 0.00, -0.00, -1.00, 61.8, 162.2)">i</text><text xml:space="preserve" font-family="Helvetica,Helvetica" font-size="20.0" fill="#F6F6F6" transform="matrix(1.00, 0.00, -0.00, -1.00, 66.2, 162.2)">p</text><text xml:space="preserve" font-family="Helvetica,Helvetica" font-size="20.0" fill="#F6F6F6" transform="matrix(1.00, 0.00, -0.00, -1.00, 77.4, 162.2)">i</text><text xml:space="preserve" font-family="Helvetica,Helvetica" font-size="20.0" fill="#F6F6F6" transform="matrix(1.00, 0.00, -0.00, -1.00, 81.8, 162.2)">s</text><text xml:space="preserve" font-family="Helvetica,Helvetica" font-size="20.0" fill="#F6F6F6" transform="matrix(1.00, 0.00, -0.00, -1.00, 91.8, 162.2)">c</text><text xml:space="preserve" font-family="Helvetica,Helvetica" font-size="20.0" fill="#F6F6F6" transform="matrix(1.00, 0.00, -0.00, -1.00, 101.8, 162.2)">i</text><text xml:space="preserve" font-family="Helvetica,Helvetica" font-size="20.0" fill="#F6F6F6" transform="matrix(1.00, 0.00, -0.00, -1.00, 106.3, 162.2)">n</text><text xml:space="preserve" font-family="Helvetica,Helvetica" font-size="20.0" fill="#F6F6F6" transform="matrix(1.00, 0.00, -0.00, -1.00, 117.4, 162.2)">g</text><text xml:space="preserve" font-family="Helvetica,Helvetica" font-size="20.0" fill="#F6F6F6" transform="matrix(1.00, 0.00, -0.00, -1.00, 128.5, 162.2)"> </text><text xml:space="preserve" font-family="Helvetica,Helvetica" font-size="20.0" fill="#F6F6F6" transform="matrix(1.00, 0.00, -0.00, -1.00, 134.1, 162.2)">e</text><text xml:space="preserve" font-family="Helvetica,Helvetica" font-size="20.0" fill="#F6F6F6" transform="matrix(1.00, 0.00, -0.00, -1.00, 145.2, 162.2)">l</text><text xml:space="preserve" font-family="Helvetica,Helvetica" font-size="20.0" fill="#F6F6F6" transform="matrix(1.00, 0.00, -0.00, -1.00, 149.6, 162.2)">i</text><text xml:space="preserve" font-family="Helvetica,Helvetica" font-size="20.0" fill="#F6F6F6" transform="matrix(1.00, 0.00, -0.00, -1.00, 154.1, 162.2)">t</text><text xml:space="preserve" font-family="Helvetica,Helvetica" font-size="20.0" fill="#F6F6F6" transform="matrix(1.00, 0.00, -0.00, -1.00, 159.6, 162.2)">,</text><text xml:space="preserve" font-family="Helvetica,Helvetica" font-size="20.0" fill="#F6F6F6" transform="matrix(1.00, 0.00, -0.00, -1.00, 165.2, 162.2)"> </text><text xml:space="preserve" font-family="Helvetica,Helvetica" font-size="20.0" fill="#F6F6F6" transform="matrix(1.00, 0.00, -0.00, -1.00, 170.7, 162.2)">s</text><text xml:space="preserve" font-family="Helvetica,Helvetica" font-size="20.0" fill="#F6F6F6" transform="matrix(1.00, 0.00, -0.00, -1.00, 180.7, 162.2)">e</text><text xml:space="preserve" font-family="Helvetica,Helvetica" font-size="20.0" fill="#F6F6F6" transform="matrix(1.00, 0.00, -0.00, -1.00, 191.9, 162.2)">d</text><text xml:space="preserve" font-family="Helvetica,Helvetica" font-size="20.0" fill="#F6F6F6" transform="matrix(1.00, 0.00, -0.00, -1.00, 203.0, 162.2)"> </text><text xml:space="preserve" font-family="Helvetica,Helvetica" font-size="20.0" fill="#F6F6F6" transform="matrix(1.00, 0.00, -0.00, -1.00, 208.5, 162.2)">d</text><text xml:space="preserve" font-family="Helvetica,Helvetica" font-size="20.0" fill="#F6F6F6" transform="matrix(1.00, 0.00, -0.00, -1.00, 219.7, 162.2)">i</text><text xml:space="preserve" font-family="Helvetica,Helvetica" font-size="20.0" fill="#F6F6F6" transform="matrix(1.00, 0.00, -0.00, -1.00, 224.1, 162.2)">a</text><text xml:space="preserve" font-family="Helvetica,Helvetica" font-size="20.0" fill="#F6F6F6" transform="matrix(1.00, 0.00, -0.00, -1.00, 235.2, 162.2)">m</text><text xml:space="preserve" font-family="Helvetica,Helvetica" font-size="20.0" fill="#F6F6F6" transform="matrix(1.00, 0.00, -0.00, -1.00, 251.9, 162.2)"> </text><text xml:space="preserve" font-family="Helvetica,Helvetica" font-size="20.0" fill="#F6F6F6" transform="matrix(1.00, 0.00, -0.00, -1.00, 39.5, 138.2)">n</text><text xml:space="preserve" font-family="Helvetica,Helvetica" font-size="20.0" fill="#F6F6F6" transform="matrix(1.00, 0.00, -0.00, -1.00, 50.7, 138.2)">o</text><text xml:space="preserve" font-family="Helvetica,Helvetica" font-size="20.0" fill="#F6F6F6" transform="matrix(1.00, 0.00, -0.00, -1.00, 61.8, 138.2)">n</text><text xml:space="preserve" font-family="Helvetica,Helvetica" font-size="20.0" fill="#F6F6F6" transform="matrix(1.00, 0.00, -0.00, -1.00, 72.9, 138.2)">u</text><text xml:space="preserve" font-family="Helvetica,Helvetica" font-size="20.0" fill="#F6F6F6" transform="matrix(1.00, 0.00, -0.00, -1.00, 84.0, 138.2)">m</text><text xml:space="preserve" font-family="Helvetica,Helvetica" font-size="20.0" fill="#F6F6F6" transform="matrix(1.00, 0.00, -0.00, -1.00, 100.7, 138.2)">m</text><text xml:space="preserve" font-family="Helvetica,Helvetica" font-size="20.0" fill="#F6F6F6" transform="matrix(1.00, 0.00, -0.00, -1.00, 117.4, 138.2)">y</text><text xml:space="preserve" font-family="Helvetica,Helvetica" font-size="20.0" fill="#F6F6F6" transform="matrix(1.00, 0.00, -0.00, -1.00, 127.4, 138.2)"> </text><text xml:space="preserve" font-family="Helvetica,Helvetica" font-size="20.0" fill="#F6F6F6" transform="matrix(1.00, 0.00, -0.00, -1.00, 132.9, 138.2)">n</text><text xml:space="preserve" font-family="Helvetica,Helvetica" font-size="20.0" fill="#F6F6F6" transform="matrix(1.00, 0.00, -0.00, -1.00, 144.0, 138.2)">i</text><text xml:space="preserve" font-family="Helvetica,Helvetica" font-size="20.0" fill="#F6F6F6" transform="matrix(1.00, 0.00, -0.00, -1.00, 148.5, 138.2)">b</text><text xml:space="preserve" font-family="Helvetica,Helvetica" font-size="20.0" fill="#F6F6F6" transform="matrix(1.00, 0.00, -0.00, -1.00, 159.6, 138.2)">h</text><text xml:space="preserve" font-family="Helvetica,Helvetica" font-size="20.0" fill="#F6F6F6" transform="matrix(1.00, 0.00, -0.00, -1.00, 170.7, 138.2)"> </text><text xml:space="preserve" font-family="Helvetica,Helvetica" font-size="20.0" fill="#F6F6F6" transform="matrix(1.00, 0.00, -0.00, -1.00, 176.3, 138.2)">e</text><text xml:space="preserve" font-family="Helvetica,Helvetica" font-size="20.0" fill="#F6F6F6" transform="matrix(1.00, 0.00, -0.00, -1.00, 187.4, 138.2)">u</text><text xml:space="preserve" font-family="Helvetica,Helvetica" font-size="20.0" fill="#F6F6F6" transform="matrix(1.00, 0.00, -0.00, -1.00, 198.5, 138.2)">i</text><text xml:space="preserve" font-family="Helvetica,Helvetica" font-size="20.0" fill="#F6F6F6" transform="matrix(1.00, 0.00, -0.00, -1.00, 203.0, 138.2)">s</text><text xml:space="preserve" font-family="Helvetica,Helvetica" font-size="20.0" fill="#F6F6F6" transform="matrix(1.00, 0.00, -0.00, -1.00, 213.0, 138.2)">m</text><text xml:space="preserve" font-family="Helvetica,Helvetica" font-size="20.0" fill="#F6F6F6" transform="matrix(1.00, 0.00, -0.00, -1.00, 229.7, 138.2)">o</text><text xml:space="preserve" font-family="Helvetica,Helvetica" font-size="20.0" fill="#F6F6F6" transform="matrix(1.00, 0.00, -0.00, -1.00, 240.8, 138.2)">d</text><text xml:space="preserve" font-family="Helvetica,Helvetica" font-size="20.0" fill="#F6F6F6" transform="matrix(1.00, 0.00, -0.00, -1.00, 251.9, 138.2)"> </text><text xml:space="preserve" font-family="Helvetica,Helvetica" font-size="20.0" fill="#F6F6F6" transform="matrix(1.00, 0.00, -0.00, -1.00, 64.0, 114.2)">t</text><text xml:space="preserve" font-family="Helvetica,Helvetica" font-size="20.0" fill="#F6F6F6" transform="matrix(1.00, 0.00, -0.00, -1.00, 69.5, 114.2)">i</text><text xml:space="preserve" font-family="Helvetica,Helvetica" font-size="20.0" fill="#F6F6F6" transform="matrix(1.00, 0.00, -0.00, -1.00, 74.0, 114.2)">n</text><text xml:space="preserve" font-family="Helvetica,Helvetica" font-size="20.0" fill="#F6F6F6" transform="matrix(1.00, 0.00, -0.00, -1.00, 85.1, 114.2)">c</text><text xml:space="preserve" font-family="Helvetica,Helvetica" font-size="20.0" fill="#F6F6F6" transform="matrix(1.00, 0.00, -0.00, -1.00, 95.1, 114.2)">i</text><text xml:space="preserve" font-family="Helvetica,Helvetica" font-size="20.0" fill="#F6F6F6" transform="matrix(1.00, 0.00, -0.00, -1.00, 99.6, 114.2)">d</text><text xml:space="preserve" font-family="Helvetica,Helvetica" font-size="20.0" fill="#F6F6F6" transform="matrix(1.00, 0.00, -0.00, -1.00, 110.7, 114.2)">u</text><text xml:space="preserve" font-family="Helvetica,Helvetica" font-size="20.0" fill="#F6F6F6" transform="matrix(1.00, 0.00, -0.00, -1.00, 121.8, 114.2)">n</text><text xml:space="preserve" font-family="Helvetica,Helvetica" font-size="20.0" fill="#F6F6F6" transform="matrix(1.00, 0.00, -0.00, -1.00, 132.9, 114.2)">t</text><text xml:space="preserve" font-family="Helvetica,Helvetica" font-size="20.0" fill="#F6F6F6" transform="matrix(1.00, 0.00, -0.00, -1.00, 138.5, 114.2)"> </text><text xml:space="preserve" font-family="Helvetica,Helvetica" font-size="20.0" fill="#F6F6F6" transform="matrix(1.00, 0.00, -0.00, -1.00, 144.0, 114.2)">u</text><text xml:space="preserve" font-family="Helvetica,Helvetica" font-size="20.0" fill="#F6F6F6" transform="matrix(1.00, 0.00, -0.00, -1.00, 155.2, 114.2)">t</text><text xml:space="preserve" font-family="Helvetica,Helvetica" font-size="20.0" fill="#F6F6F6" transform="matrix(1.00, 0.00, -0.00, -1.00, 160.7, 114.2)"> </text><text xml:space="preserve" font-family="Helvetica,Helvetica" font-size="20.0" fill="#F6F6F6" transform="matrix(1.00, 0.00, -0.00, -1.00, 166.3, 114.2)">l</text><text xml:space="preserve" font-family="Helvetica,Helvetica" font-size="20.0" fill="#F6F6F6" transform="matrix(1.00, 0.00, -0.00, -1.00, 170.7, 114.2)">a</text><text xml:space="preserve" font-family="Helvetica,Helvetica" font-size="20.0" fill="#F6F6F6" transform="matrix(1.00, 0.00, -0.00, -1.00, 181.8, 114.2)">o</text><text xml:space="preserve" font-family="Helvetica,Helvetica" font-size="20.0" fill="#F6F6F6" transform="matrix(1.00, 0.00, -0.00, -1.00, 193.0, 114.2)">r</text><text xml:space="preserve" font-family="Helvetica,Helvetica" font-size="20.0" fill="#F6F6F6" transform="matrix(1.00, 0.00, -0.00, -1.00, 199.6, 114.2)">e</text><text xml:space="preserve" font-family="Helvetica,Helvetica" font-size="20.0" fill="#F6F6F6" transform="matrix(1.00, 0.00, -0.00, -1.00, 210.8, 114.2)">e</text><text xml:space="preserve" font-family="Helvetica,Helvetica" font-size="20.0" fill="#F6F6F6" transform="matrix(1.00, 0.00, -0.00, -1.00, 221.9, 114.2)">t</text><text xml:space="preserve" font-family="Helvetica,Helvetica" font-size="20.0" fill="#F6F6F6" transform="matrix(1.00, 0.00, -0.00, -1.00, 227.4, 114.2)"> </text><text xml:space="preserve" font-family="Helvetica,Helvetica" font-size="20.0" fill="#F6F6F6" transform="matrix(1.00, 0.00, -0.00, -1.00, 46.7, 90.2)">d</text><text xml:space="preserve" font-family="Helvetica,Helvetica" font-size="20.0" fill="#F6F6F6" transform="matrix(1.00, 0.00, -0.00, -1.00, 57.9, 90.2)">o</text><text xml:space="preserve" font-family="Helvetica,Helvetica" font-size="20.0" fill="#F6F6F6" transform="matrix(1.00, 0.00, -0.00, -1.00, 69.0, 90.2)">l</text><text xml:space="preserve" font-family="Helvetica,Helvetica" font-size="20.0" fill="#F6F6F6" transform="matrix(1.00, 0.00, -0.00, -1.00, 73.4, 90.2)">o</text><text xml:space="preserve" font-family="Helvetica,Helvetica" font-size="20.0" fill="#F6F6F6" transform="matrix(1.00, 0.00, -0.00, -1.00, 84.6, 90.2)">r</text><text xml:space="preserve" font-family="Helvetica,Helvetica" font-size="20.0" fill="#F6F6F6" transform="matrix(1.00, 0.00, -0.00, -1.00, 91.2, 90.2)">e</text><text xml:space="preserve" font-family="Helvetica,Helvetica" font-size="20.0" fill="#F6F6F6" transform="matrix(1.00, 0.00, -0.00, -1.00, 102.4, 90.2)"> </text><text xml:space="preserve" font-family="Helvetica,Helvetica" font-size="20.0" fill="#F6F6F6" transform="matrix(1.00, 0.00, -0.00, -1.00, 107.9, 90.2)">m</text><text xml:space="preserve" font-family="Helvetica,Helvetica" font-size="20.0" fill="#F6F6F6" transform="matrix(1.00, 0.00, -0.00, -1.00, 124.6, 90.2)">a</text><text xml:space="preserve" font-family="Helvetica,Helvetica" font-size="20.0" fill="#F6F6F6" transform="matrix(1.00, 0.00, -0.00, -1.00, 135.7, 90.2)">g</text><text xml:space="preserve" font-family="Helvetica,Helvetica" font-size="20.0" fill="#F6F6F6" transform="matrix(1.00, 0.00, -0.00, -1.00, 146.8, 90.2)">n</text><text xml:space="preserve" font-family="Helvetica,Helvetica" font-size="20.0" fill="#F6F6F6" transform="matrix(1.00, 0.00, -0.00, -1.00, 158.0, 90.2)">a</text><text xml:space="preserve" font-family="Helvetica,Helvetica" font-size="20.0" fill="#F6F6F6" transform="matrix(1.00, 0.00, -0.00, -1.00, 169.1, 90.2)"> </text><text xml:space="preserve" font-family="Helvetica,Helvetica" font-size="20.0" fill="#F6F6F6" transform="matrix(1.00, 0.00, -0.00, -1.00, 174.6, 90.2)">a</text><text xml:space="preserve" font-family="Helvetica,Helvetica" font-size="20.0" fill="#F6F6F6" transform="matrix(1.00, 0.00, -0.00, -1.00, 185.8, 90.2)">l</text><text xml:space="preserve" font-family="Helvetica,Helvetica" font-size="20.0" fill="#F6F6F6" transform="matrix(1.00, 0.00, -0.00, -1.00, 190.2, 90.2)">i</text><text xml:space="preserve" font-family="Helvetica,Helvetica" font-size="20.0" fill="#F6F6F6" transform="matrix(1.00, 0.00, -0.00, -1.00, 194.7, 90.2)">q</text><text xml:space="preserve" font-family="Helvetica,Helvetica" font-size="20.0" fill="#F6F6F6" transform="matrix(1.00, 0.00, -0.00, -1.00, 205.8, 90.2)">u</text><text xml:space="preserve" font-family="Helvetica,Helvetica" font-size="20.0" fill="#F6F6F6" transform="matrix(1.00, 0.00, -0.00, -1.00, 216.9, 90.2)">a</text><text xml:space="preserve" font-family="Helvetica,Helvetica" font-size="20.0" fill="#F6F6F6" transform="matrix(1.00, 0.00, -0.00, -1.00, 228.0, 90.2)">m</text><text xml:space="preserve" font-family="Helvetica,Helvetica" font-size="20.0" fill="#F6F6F6" transform="matrix(1.00, 0.00, -0.00, -1.00, 244.7, 90.2)"> </text><text xml:space="preserve" font-family="Helvetica,Helvetica" font-size="20.0" fill="#F6F6F6" transform="matrix(1.00, 0.00, -0.00, -1.00, 87.9, 66.2)">e</text><text xml:space="preserve" font-family="Helvetica,Helvetica" font-size="20.0" fill="#F6F6F6" transform="matrix(1.00, 0.00, -0.00, -1.00, 99.0, 66.2)">r</text><text xml:space="preserve" font-family="Helvetica,Helvetica" font-size="20.0" fill="#F6F6F6" transform="matrix(1.00, 0.00, -0.00, -1.00, 105.7, 66.2)">a</text><text xml:space="preserve" font-family="Helvetica,Helvetica" font-size="20.0" fill="#F6F6F6" transform="matrix(1.00, 0.00, -0.00, -1.00, 116.8, 66.2)">t</text><text xml:space="preserve" font-family="Helvetica,Helvetica" font-size="20.0" fill="#F6F6F6" transform="matrix(1.00, 0.00, -0.00, -1.00, 122.3, 66.2)"> </text><text xml:space="preserve" font-family="Helvetica,Helvetica" font-size="20.0" fill="#F6F6F6" transform="matrix(1.00, 0.00, -0.00, -1.00, 127.9, 66.2)">v</text><text xml:space="preserve" font-family="Helvetica,Helvetica" font-size="20.0" fill="#F6F6F6" transform="matrix(1.00, 0.00, -0.00, -1.00, 137.9, 66.2)">o</text><text xml:space="preserve" font-family="Helvetica,Helvetica" font-size="20.0" fill="#F6F6F6" transform="matrix(1.00, 0.00, -0.00, -1.00, 149.0, 66.2)">l</text><text xml:space="preserve" font-family="Helvetica,Helvetica" font-size="20.0" fill="#F6F6F6" transform="matrix(1.00, 0.00, -0.00, -1.00, 153.5, 66.2)">u</text><text xml:space="preserve" font-family="Helvetica,Helvetica" font-size="20.0" fill="#F6F6F6" transform="matrix(1.00, 0.00, -0.00, -1.00, 164.6, 66.2)">t</text><text xml:space="preserve" font-family="Helvetica,Helvetica" font-size="20.0" fill="#F6F6F6" transform="matrix(1.00, 0.00, -0.00, -1.00, 170.2, 66.2)">p</text><text xml:space="preserve" font-family="Helvetica,Helvetica" font-size="20.0" fill="#F6F6F6" transform="matrix(1.00, 0.00, -0.00, -1.00, 181.3, 66.2)">a</text><text xml:space="preserve" font-family="Helvetica,Helvetica" font-size="20.0" fill="#F6F6F6" transform="matrix(1.00, 0.00, -0.00, -1.00, 192.4, 66.2)">t</text><text xml:space="preserve" font-family="Helvetica,Helvetica" font-size="20.0" fill="#F6F6F6" transform="matrix(1.00, 0.00, -0.00, -1.00, 198.0, 66.2)">.</text></g></g></g></svg>