<?xml version="1.0" encoding="UTF-8" standalone="no"?><svg xmlns="http://www.w3.org/2000/svg" xmlns:xlink="http://www.w3.org/1999/xlink" clip-rule="evenodd" stroke-miterlimit="10" viewBox="0 0 293 214"><desc>SVG generated by Keynote</desc><defs></defs><g transform="matrix(1.00, 0.00, -0.00, -1.00, 0.0, 214.0)"><path d="M 0.6 9.2 L 0.6 11.0 L 2.8 207.0 L 273.3 204.7 L 274.6 204.7 " fill="none" stroke="#EDC25F" stroke-width="3.00" stroke-dasharray="6.0, 6.0" transform="matrix(1.00, 0.00, 0.00, -1.00, 6.9, 212.2)"></path><path d="M 285.5 13.0 C 288.5 13.1 291.0 10.6 291.0 7.6 C 291.0 4.5 288.6 2.1 285.5 2.0 C 282.5 2.0 280.0 4.5 280.0 7.5 C 280.0 10.5 282.4 13.0 285.5 13.0 Z M 285.5 13.0 " fill="#EDC25F"></path><path d="M 1.9 206.9 C 1.9 210.0 4.3 212.5 7.4 212.5 C 10.4 212.5 12.9 210.1 12.9 207.1 C 13.0 204.0 10.6 201.5 7.5 201.5 C 4.5 201.5 2.0 203.9 1.9 206.9 Z M 1.9 206.9 " fill="#EDC25F"></path></g></svg>