<?xml version="1.0" encoding="UTF-8" standalone="no"?><svg xmlns="http://www.w3.org/2000/svg" xmlns:xlink="http://www.w3.org/1999/xlink" clip-rule="evenodd" stroke-miterlimit="10" viewBox="0 0 234 52"><desc>SVG generated by Keynote</desc><defs></defs><g transform="matrix(1.00, 0.00, -0.00, -1.00, 0.0, 52.0)"><path d="M 8.4 4.1 L 9.7 5.1 L 76.9 41.1 L 218.7 40.1 L 220.4 40.1 " fill="none" stroke="#FF607B" stroke-width="3.00" stroke-dasharray="6.0, 6.0" transform="matrix(1.00, 0.00, 0.00, -1.00, 2.6, 47.6)"></path><path d="M 227.0 13.0 C 230.0 13.0 232.5 10.6 232.5 7.6 C 232.5 4.5 230.1 2.0 227.0 2.0 C 224.0 2.0 221.5 4.5 221.5 7.5 C 221.5 10.5 223.9 13.0 227.0 13.0 Z M 227.0 13.0 " fill="#FF607B"></path><path d="M 4.9 40.5 C 2.2 42.0 1.2 45.3 2.6 48.0 C 4.1 50.7 7.4 51.7 10.1 50.2 C 12.7 48.8 13.8 45.5 12.3 42.8 C 10.9 40.1 7.6 39.1 4.9 40.5 Z M 4.9 40.5 " fill="#FF607B"></path></g></svg>