<?xml version="1.0" encoding="UTF-8" standalone="no"?><svg xmlns="http://www.w3.org/2000/svg" xmlns:xlink="http://www.w3.org/1999/xlink" clip-rule="evenodd" stroke-miterlimit="10" viewBox="0 0 291 292"><desc>SVG generated by Keynote</desc><defs></defs><g transform="matrix(1.00, 0.00, -0.00, -1.00, 0.0, 292.0)"><g><clipPath id="clip0x6080068a7980"><path d="M 0.1 0.9 L 290.2 0.9 L 290.2 291.0 L 0.1 291.0 Z M 0.1 0.9 "></path></clipPath><g clip-path="url(#clip0x6080068a7980)"><path d="M 247.0 247.8 C 303.3 191.6 303.3 100.3 247.0 44.1 C 190.8 -12.2 99.5 -12.2 43.3 44.1 C -13.0 100.3 -13.0 191.6 43.3 247.8 C 99.5 304.1 190.8 304.1 247.0 247.8 Z M 247.0 247.8 " fill="#FF607B" fill-opacity="0.95"></path></g></g><g><clipPath id="clip0x6080068a7c20"><path d="M 32.4 56.9 L 257.9 56.9 L 257.9 234.9 L 32.4 234.9 Z M 32.4 56.9 "></path></clipPath><g clip-path="url(#clip0x6080068a7c20)"><text xml:space="preserve" font-family="Helvetica,Helvetica" font-size="20.0" fill="#F6F6F6" transform="matrix(1.00, 0.00, -0.00, -1.00, 49.6, 210.5)">L</text><text xml:space="preserve" font-family="Helvetica,Helvetica" font-size="20.0" fill="#F6F6F6" transform="matrix(1.00, 0.00, -0.00, -1.00, 60.7, 210.5)">o</text><text xml:space="preserve" font-family="Helvetica,Helvetica" font-size="20.0" fill="#F6F6F6" transform="matrix(1.00, 0.00, -0.00, -1.00, 71.8, 210.5)">r</text><text xml:space="preserve" font-family="Helvetica,Helvetica" font-size="20.0" fill="#F6F6F6" transform="matrix(1.00, 0.00, -0.00, -1.00, 78.5, 210.5)">e</text><text xml:space="preserve" font-family="Helvetica,Helvetica" font-size="20.0" fill="#F6F6F6" transform="matrix(1.00, 0.00, -0.00, -1.00, 89.6, 210.5)">m</text><text xml:space="preserve" font-family="Helvetica,Helvetica" font-size="20.0" fill="#F6F6F6" transform="matrix(1.00, 0.00, -0.00, -1.00, 106.3, 210.5)"> </text><text xml:space="preserve" font-family="Helvetica,Helvetica" font-size="20.0" fill="#F6F6F6" transform="matrix(1.00, 0.00, -0.00, -1.00, 111.8, 210.5)">i</text><text xml:space="preserve" font-family="Helvetica,Helvetica" font-size="20.0" fill="#F6F6F6" transform="matrix(1.00, 0.00, -0.00, -1.00, 116.3, 210.5)">p</text><text xml:space="preserve" font-family="Helvetica,Helvetica" font-size="20.0" fill="#F6F6F6" transform="matrix(1.00, 0.00, -0.00, -1.00, 127.4, 210.5)">s</text><text xml:space="preserve" font-family="Helvetica,Helvetica" font-size="20.0" fill="#F6F6F6" transform="matrix(1.00, 0.00, -0.00, -1.00, 137.4, 210.5)">u</text><text xml:space="preserve" font-family="Helvetica,Helvetica" font-size="20.0" fill="#F6F6F6" transform="matrix(1.00, 0.00, -0.00, -1.00, 148.5, 210.5)">m</text><text xml:space="preserve" font-family="Helvetica,Helvetica" font-size="20.0" fill="#F6F6F6" transform="matrix(1.00, 0.00, -0.00, -1.00, 165.2, 210.5)"> </text><text xml:space="preserve" font-family="Helvetica,Helvetica" font-size="20.0" fill="#F6F6F6" transform="matrix(1.00, 0.00, -0.00, -1.00, 170.7, 210.5)">d</text><text xml:space="preserve" font-family="Helvetica,Helvetica" font-size="20.0" fill="#F6F6F6" transform="matrix(1.00, 0.00, -0.00, -1.00, 181.9, 210.5)">o</text><text xml:space="preserve" font-family="Helvetica,Helvetica" font-size="20.0" fill="#F6F6F6" transform="matrix(1.00, 0.00, -0.00, -1.00, 193.0, 210.5)">l</text><text xml:space="preserve" font-family="Helvetica,Helvetica" font-size="20.0" fill="#F6F6F6" transform="matrix(1.00, 0.00, -0.00, -1.00, 197.4, 210.5)">o</text><text xml:space="preserve" font-family="Helvetica,Helvetica" font-size="20.0" fill="#F6F6F6" transform="matrix(1.00, 0.00, -0.00, -1.00, 208.6, 210.5)">r</text><text xml:space="preserve" font-family="Helvetica,Helvetica" font-size="20.0" fill="#F6F6F6" transform="matrix(1.00, 0.00, -0.00, -1.00, 215.2, 210.5)"> </text><text xml:space="preserve" font-family="Helvetica,Helvetica" font-size="20.0" fill="#F6F6F6" transform="matrix(1.00, 0.00, -0.00, -1.00, 220.8, 210.5)">s</text><text xml:space="preserve" font-family="Helvetica,Helvetica" font-size="20.0" fill="#F6F6F6" transform="matrix(1.00, 0.00, -0.00, -1.00, 230.8, 210.5)">i</text><text xml:space="preserve" font-family="Helvetica,Helvetica" font-size="20.0" fill="#F6F6F6" transform="matrix(1.00, 0.00, -0.00, -1.00, 235.2, 210.5)">t</text><text xml:space="preserve" font-family="Helvetica,Helvetica" font-size="20.0" fill="#F6F6F6" transform="matrix(1.00, 0.00, -0.00, -1.00, 240.8, 210.5)"> </text><text xml:space="preserve" font-family="Helvetica,Helvetica" font-size="20.0" fill="#F6F6F6" transform="matrix(1.00, 0.00, -0.00, -1.00, 60.1, 186.5)">a</text><text xml:space="preserve" font-family="Helvetica,Helvetica" font-size="20.0" fill="#F6F6F6" transform="matrix(1.00, 0.00, -0.00, -1.00, 71.2, 186.5)">m</text><text xml:space="preserve" font-family="Helvetica,Helvetica" font-size="20.0" fill="#F6F6F6" transform="matrix(1.00, 0.00, -0.00, -1.00, 87.9, 186.5)">e</text><text xml:space="preserve" font-family="Helvetica,Helvetica" font-size="20.0" fill="#F6F6F6" transform="matrix(1.00, 0.00, -0.00, -1.00, 99.0, 186.5)">t</text><text xml:space="preserve" font-family="Helvetica,Helvetica" font-size="20.0" fill="#F6F6F6" transform="matrix(1.00, 0.00, -0.00, -1.00, 104.6, 186.5)">,</text><text xml:space="preserve" font-family="Helvetica,Helvetica" font-size="20.0" fill="#F6F6F6" transform="matrix(1.00, 0.00, -0.00, -1.00, 110.1, 186.5)"> </text><text xml:space="preserve" font-family="Helvetica,Helvetica" font-size="20.0" fill="#F6F6F6" transform="matrix(1.00, 0.00, -0.00, -1.00, 115.7, 186.5)">c</text><text xml:space="preserve" font-family="Helvetica,Helvetica" font-size="20.0" fill="#F6F6F6" transform="matrix(1.00, 0.00, -0.00, -1.00, 125.7, 186.5)">o</text><text xml:space="preserve" font-family="Helvetica,Helvetica" font-size="20.0" fill="#F6F6F6" transform="matrix(1.00, 0.00, -0.00, -1.00, 136.8, 186.5)">n</text><text xml:space="preserve" font-family="Helvetica,Helvetica" font-size="20.0" fill="#F6F6F6" transform="matrix(1.00, 0.00, -0.00, -1.00, 147.9, 186.5)">s</text><text xml:space="preserve" font-family="Helvetica,Helvetica" font-size="20.0" fill="#F6F6F6" transform="matrix(1.00, 0.00, -0.00, -1.00, 157.9, 186.5)">e</text><text xml:space="preserve" font-family="Helvetica,Helvetica" font-size="20.0" fill="#F6F6F6" transform="matrix(1.00, 0.00, -0.00, -1.00, 169.1, 186.5)">c</text><text xml:space="preserve" font-family="Helvetica,Helvetica" font-size="20.0" fill="#F6F6F6" transform="matrix(1.00, 0.00, -0.00, -1.00, 179.1, 186.5)">t</text><text xml:space="preserve" font-family="Helvetica,Helvetica" font-size="20.0" fill="#F6F6F6" transform="matrix(1.00, 0.00, -0.00, -1.00, 184.6, 186.5)">e</text><text xml:space="preserve" font-family="Helvetica,Helvetica" font-size="20.0" fill="#F6F6F6" transform="matrix(1.00, 0.00, -0.00, -1.00, 195.7, 186.5)">t</text><text xml:space="preserve" font-family="Helvetica,Helvetica" font-size="20.0" fill="#F6F6F6" transform="matrix(1.00, 0.00, -0.00, -1.00, 201.3, 186.5)">u</text><text xml:space="preserve" font-family="Helvetica,Helvetica" font-size="20.0" fill="#F6F6F6" transform="matrix(1.00, 0.00, -0.00, -1.00, 212.4, 186.5)">e</text><text xml:space="preserve" font-family="Helvetica,Helvetica" font-size="20.0" fill="#F6F6F6" transform="matrix(1.00, 0.00, -0.00, -1.00, 223.5, 186.5)">r</text><text xml:space="preserve" font-family="Helvetica,Helvetica" font-size="20.0" fill="#F6F6F6" transform="matrix(1.00, 0.00, -0.00, -1.00, 230.2, 186.5)"> </text><text xml:space="preserve" font-family="Helvetica,Helvetica" font-size="20.0" fill="#F6F6F6" transform="matrix(1.00, 0.00, -0.00, -1.00, 39.0, 162.5)">a</text><text xml:space="preserve" font-family="Helvetica,Helvetica" font-size="20.0" fill="#F6F6F6" transform="matrix(1.00, 0.00, -0.00, -1.00, 50.1, 162.5)">d</text><text xml:space="preserve" font-family="Helvetica,Helvetica" font-size="20.0" fill="#F6F6F6" transform="matrix(1.00, 0.00, -0.00, -1.00, 61.2, 162.5)">i</text><text xml:space="preserve" font-family="Helvetica,Helvetica" font-size="20.0" fill="#F6F6F6" transform="matrix(1.00, 0.00, -0.00, -1.00, 65.7, 162.5)">p</text><text xml:space="preserve" font-family="Helvetica,Helvetica" font-size="20.0" fill="#F6F6F6" transform="matrix(1.00, 0.00, -0.00, -1.00, 76.8, 162.5)">i</text><text xml:space="preserve" font-family="Helvetica,Helvetica" font-size="20.0" fill="#F6F6F6" transform="matrix(1.00, 0.00, -0.00, -1.00, 81.3, 162.5)">s</text><text xml:space="preserve" font-family="Helvetica,Helvetica" font-size="20.0" fill="#F6F6F6" transform="matrix(1.00, 0.00, -0.00, -1.00, 91.3, 162.5)">c</text><text xml:space="preserve" font-family="Helvetica,Helvetica" font-size="20.0" fill="#F6F6F6" transform="matrix(1.00, 0.00, -0.00, -1.00, 101.3, 162.5)">i</text><text xml:space="preserve" font-family="Helvetica,Helvetica" font-size="20.0" fill="#F6F6F6" transform="matrix(1.00, 0.00, -0.00, -1.00, 105.7, 162.5)">n</text><text xml:space="preserve" font-family="Helvetica,Helvetica" font-size="20.0" fill="#F6F6F6" transform="matrix(1.00, 0.00, -0.00, -1.00, 116.8, 162.5)">g</text><text xml:space="preserve" font-family="Helvetica,Helvetica" font-size="20.0" fill="#F6F6F6" transform="matrix(1.00, 0.00, -0.00, -1.00, 128.0, 162.5)"> </text><text xml:space="preserve" font-family="Helvetica,Helvetica" font-size="20.0" fill="#F6F6F6" transform="matrix(1.00, 0.00, -0.00, -1.00, 133.5, 162.5)">e</text><text xml:space="preserve" font-family="Helvetica,Helvetica" font-size="20.0" fill="#F6F6F6" transform="matrix(1.00, 0.00, -0.00, -1.00, 144.6, 162.5)">l</text><text xml:space="preserve" font-family="Helvetica,Helvetica" font-size="20.0" fill="#F6F6F6" transform="matrix(1.00, 0.00, -0.00, -1.00, 149.1, 162.5)">i</text><text xml:space="preserve" font-family="Helvetica,Helvetica" font-size="20.0" fill="#F6F6F6" transform="matrix(1.00, 0.00, -0.00, -1.00, 153.5, 162.5)">t</text><text xml:space="preserve" font-family="Helvetica,Helvetica" font-size="20.0" fill="#F6F6F6" transform="matrix(1.00, 0.00, -0.00, -1.00, 159.1, 162.5)">,</text><text xml:space="preserve" font-family="Helvetica,Helvetica" font-size="20.0" fill="#F6F6F6" transform="matrix(1.00, 0.00, -0.00, -1.00, 164.6, 162.5)"> </text><text xml:space="preserve" font-family="Helvetica,Helvetica" font-size="20.0" fill="#F6F6F6" transform="matrix(1.00, 0.00, -0.00, -1.00, 170.2, 162.5)">s</text><text xml:space="preserve" font-family="Helvetica,Helvetica" font-size="20.0" fill="#F6F6F6" transform="matrix(1.00, 0.00, -0.00, -1.00, 180.2, 162.5)">e</text><text xml:space="preserve" font-family="Helvetica,Helvetica" font-size="20.0" fill="#F6F6F6" transform="matrix(1.00, 0.00, -0.00, -1.00, 191.3, 162.5)">d</text><text xml:space="preserve" font-family="Helvetica,Helvetica" font-size="20.0" fill="#F6F6F6" transform="matrix(1.00, 0.00, -0.00, -1.00, 202.4, 162.5)"> </text><text xml:space="preserve" font-family="Helvetica,Helvetica" font-size="20.0" fill="#F6F6F6" transform="matrix(1.00, 0.00, -0.00, -1.00, 208.0, 162.5)">d</text><text xml:space="preserve" font-family="Helvetica,Helvetica" font-size="20.0" fill="#F6F6F6" transform="matrix(1.00, 0.00, -0.00, -1.00, 219.1, 162.5)">i</text><text xml:space="preserve" font-family="Helvetica,Helvetica" font-size="20.0" fill="#F6F6F6" transform="matrix(1.00, 0.00, -0.00, -1.00, 223.6, 162.5)">a</text><text xml:space="preserve" font-family="Helvetica,Helvetica" font-size="20.0" fill="#F6F6F6" transform="matrix(1.00, 0.00, -0.00, -1.00, 234.7, 162.5)">m</text><text xml:space="preserve" font-family="Helvetica,Helvetica" font-size="20.0" fill="#F6F6F6" transform="matrix(1.00, 0.00, -0.00, -1.00, 251.4, 162.5)"> </text><text xml:space="preserve" font-family="Helvetica,Helvetica" font-size="20.0" fill="#F6F6F6" transform="matrix(1.00, 0.00, -0.00, -1.00, 39.0, 138.5)">n</text><text xml:space="preserve" font-family="Helvetica,Helvetica" font-size="20.0" fill="#F6F6F6" transform="matrix(1.00, 0.00, -0.00, -1.00, 50.1, 138.5)">o</text><text xml:space="preserve" font-family="Helvetica,Helvetica" font-size="20.0" fill="#F6F6F6" transform="matrix(1.00, 0.00, -0.00, -1.00, 61.2, 138.5)">n</text><text xml:space="preserve" font-family="Helvetica,Helvetica" font-size="20.0" fill="#F6F6F6" transform="matrix(1.00, 0.00, -0.00, -1.00, 72.4, 138.5)">u</text><text xml:space="preserve" font-family="Helvetica,Helvetica" font-size="20.0" fill="#F6F6F6" transform="matrix(1.00, 0.00, -0.00, -1.00, 83.5, 138.5)">m</text><text xml:space="preserve" font-family="Helvetica,Helvetica" font-size="20.0" fill="#F6F6F6" transform="matrix(1.00, 0.00, -0.00, -1.00, 100.2, 138.5)">m</text><text xml:space="preserve" font-family="Helvetica,Helvetica" font-size="20.0" fill="#F6F6F6" transform="matrix(1.00, 0.00, -0.00, -1.00, 116.8, 138.5)">y</text><text xml:space="preserve" font-family="Helvetica,Helvetica" font-size="20.0" fill="#F6F6F6" transform="matrix(1.00, 0.00, -0.00, -1.00, 126.8, 138.5)"> </text><text xml:space="preserve" font-family="Helvetica,Helvetica" font-size="20.0" fill="#F6F6F6" transform="matrix(1.00, 0.00, -0.00, -1.00, 132.4, 138.5)">n</text><text xml:space="preserve" font-family="Helvetica,Helvetica" font-size="20.0" fill="#F6F6F6" transform="matrix(1.00, 0.00, -0.00, -1.00, 143.5, 138.5)">i</text><text xml:space="preserve" font-family="Helvetica,Helvetica" font-size="20.0" fill="#F6F6F6" transform="matrix(1.00, 0.00, -0.00, -1.00, 147.9, 138.5)">b</text><text xml:space="preserve" font-family="Helvetica,Helvetica" font-size="20.0" fill="#F6F6F6" transform="matrix(1.00, 0.00, -0.00, -1.00, 159.1, 138.5)">h</text><text xml:space="preserve" font-family="Helvetica,Helvetica" font-size="20.0" fill="#F6F6F6" transform="matrix(1.00, 0.00, -0.00, -1.00, 170.2, 138.5)"> </text><text xml:space="preserve" font-family="Helvetica,Helvetica" font-size="20.0" fill="#F6F6F6" transform="matrix(1.00, 0.00, -0.00, -1.00, 175.7, 138.5)">e</text><text xml:space="preserve" font-family="Helvetica,Helvetica" font-size="20.0" fill="#F6F6F6" transform="matrix(1.00, 0.00, -0.00, -1.00, 186.9, 138.5)">u</text><text xml:space="preserve" font-family="Helvetica,Helvetica" font-size="20.0" fill="#F6F6F6" transform="matrix(1.00, 0.00, -0.00, -1.00, 198.0, 138.5)">i</text><text xml:space="preserve" font-family="Helvetica,Helvetica" font-size="20.0" fill="#F6F6F6" transform="matrix(1.00, 0.00, -0.00, -1.00, 202.4, 138.5)">s</text><text xml:space="preserve" font-family="Helvetica,Helvetica" font-size="20.0" fill="#F6F6F6" transform="matrix(1.00, 0.00, -0.00, -1.00, 212.4, 138.5)">m</text><text xml:space="preserve" font-family="Helvetica,Helvetica" font-size="20.0" fill="#F6F6F6" transform="matrix(1.00, 0.00, -0.00, -1.00, 229.1, 138.5)">o</text><text xml:space="preserve" font-family="Helvetica,Helvetica" font-size="20.0" fill="#F6F6F6" transform="matrix(1.00, 0.00, -0.00, -1.00, 240.2, 138.5)">d</text><text xml:space="preserve" font-family="Helvetica,Helvetica" font-size="20.0" fill="#F6F6F6" transform="matrix(1.00, 0.00, -0.00, -1.00, 251.4, 138.5)"> </text><text xml:space="preserve" font-family="Helvetica,Helvetica" font-size="20.0" fill="#F6F6F6" transform="matrix(1.00, 0.00, -0.00, -1.00, 63.4, 114.5)">t</text><text xml:space="preserve" font-family="Helvetica,Helvetica" font-size="20.0" fill="#F6F6F6" transform="matrix(1.00, 0.00, -0.00, -1.00, 69.0, 114.5)">i</text><text xml:space="preserve" font-family="Helvetica,Helvetica" font-size="20.0" fill="#F6F6F6" transform="matrix(1.00, 0.00, -0.00, -1.00, 73.4, 114.5)">n</text><text xml:space="preserve" font-family="Helvetica,Helvetica" font-size="20.0" fill="#F6F6F6" transform="matrix(1.00, 0.00, -0.00, -1.00, 84.6, 114.5)">c</text><text xml:space="preserve" font-family="Helvetica,Helvetica" font-size="20.0" fill="#F6F6F6" transform="matrix(1.00, 0.00, -0.00, -1.00, 94.6, 114.5)">i</text><text xml:space="preserve" font-family="Helvetica,Helvetica" font-size="20.0" fill="#F6F6F6" transform="matrix(1.00, 0.00, -0.00, -1.00, 99.0, 114.5)">d</text><text xml:space="preserve" font-family="Helvetica,Helvetica" font-size="20.0" fill="#F6F6F6" transform="matrix(1.00, 0.00, -0.00, -1.00, 110.1, 114.5)">u</text><text xml:space="preserve" font-family="Helvetica,Helvetica" font-size="20.0" fill="#F6F6F6" transform="matrix(1.00, 0.00, -0.00, -1.00, 121.3, 114.5)">n</text><text xml:space="preserve" font-family="Helvetica,Helvetica" font-size="20.0" fill="#F6F6F6" transform="matrix(1.00, 0.00, -0.00, -1.00, 132.4, 114.5)">t</text><text xml:space="preserve" font-family="Helvetica,Helvetica" font-size="20.0" fill="#F6F6F6" transform="matrix(1.00, 0.00, -0.00, -1.00, 137.9, 114.5)"> </text><text xml:space="preserve" font-family="Helvetica,Helvetica" font-size="20.0" fill="#F6F6F6" transform="matrix(1.00, 0.00, -0.00, -1.00, 143.5, 114.5)">u</text><text xml:space="preserve" font-family="Helvetica,Helvetica" font-size="20.0" fill="#F6F6F6" transform="matrix(1.00, 0.00, -0.00, -1.00, 154.6, 114.5)">t</text><text xml:space="preserve" font-family="Helvetica,Helvetica" font-size="20.0" fill="#F6F6F6" transform="matrix(1.00, 0.00, -0.00, -1.00, 160.2, 114.5)"> </text><text xml:space="preserve" font-family="Helvetica,Helvetica" font-size="20.0" fill="#F6F6F6" transform="matrix(1.00, 0.00, -0.00, -1.00, 165.7, 114.5)">l</text><text xml:space="preserve" font-family="Helvetica,Helvetica" font-size="20.0" fill="#F6F6F6" transform="matrix(1.00, 0.00, -0.00, -1.00, 170.2, 114.5)">a</text><text xml:space="preserve" font-family="Helvetica,Helvetica" font-size="20.0" fill="#F6F6F6" transform="matrix(1.00, 0.00, -0.00, -1.00, 181.3, 114.5)">o</text><text xml:space="preserve" font-family="Helvetica,Helvetica" font-size="20.0" fill="#F6F6F6" transform="matrix(1.00, 0.00, -0.00, -1.00, 192.4, 114.5)">r</text><text xml:space="preserve" font-family="Helvetica,Helvetica" font-size="20.0" fill="#F6F6F6" transform="matrix(1.00, 0.00, -0.00, -1.00, 199.1, 114.5)">e</text><text xml:space="preserve" font-family="Helvetica,Helvetica" font-size="20.0" fill="#F6F6F6" transform="matrix(1.00, 0.00, -0.00, -1.00, 210.2, 114.5)">e</text><text xml:space="preserve" font-family="Helvetica,Helvetica" font-size="20.0" fill="#F6F6F6" transform="matrix(1.00, 0.00, -0.00, -1.00, 221.3, 114.5)">t</text><text xml:space="preserve" font-family="Helvetica,Helvetica" font-size="20.0" fill="#F6F6F6" transform="matrix(1.00, 0.00, -0.00, -1.00, 226.9, 114.5)"> </text><text xml:space="preserve" font-family="Helvetica,Helvetica" font-size="20.0" fill="#F6F6F6" transform="matrix(1.00, 0.00, -0.00, -1.00, 46.2, 90.5)">d</text><text xml:space="preserve" font-family="Helvetica,Helvetica" font-size="20.0" fill="#F6F6F6" transform="matrix(1.00, 0.00, -0.00, -1.00, 57.3, 90.5)">o</text><text xml:space="preserve" font-family="Helvetica,Helvetica" font-size="20.0" fill="#F6F6F6" transform="matrix(1.00, 0.00, -0.00, -1.00, 68.5, 90.5)">l</text><text xml:space="preserve" font-family="Helvetica,Helvetica" font-size="20.0" fill="#F6F6F6" transform="matrix(1.00, 0.00, -0.00, -1.00, 72.9, 90.5)">o</text><text xml:space="preserve" font-family="Helvetica,Helvetica" font-size="20.0" fill="#F6F6F6" transform="matrix(1.00, 0.00, -0.00, -1.00, 84.0, 90.5)">r</text><text xml:space="preserve" font-family="Helvetica,Helvetica" font-size="20.0" fill="#F6F6F6" transform="matrix(1.00, 0.00, -0.00, -1.00, 90.7, 90.5)">e</text><text xml:space="preserve" font-family="Helvetica,Helvetica" font-size="20.0" fill="#F6F6F6" transform="matrix(1.00, 0.00, -0.00, -1.00, 101.8, 90.5)"> </text><text xml:space="preserve" font-family="Helvetica,Helvetica" font-size="20.0" fill="#F6F6F6" transform="matrix(1.00, 0.00, -0.00, -1.00, 107.4, 90.5)">m</text><text xml:space="preserve" font-family="Helvetica,Helvetica" font-size="20.0" fill="#F6F6F6" transform="matrix(1.00, 0.00, -0.00, -1.00, 124.0, 90.5)">a</text><text xml:space="preserve" font-family="Helvetica,Helvetica" font-size="20.0" fill="#F6F6F6" transform="matrix(1.00, 0.00, -0.00, -1.00, 135.2, 90.5)">g</text><text xml:space="preserve" font-family="Helvetica,Helvetica" font-size="20.0" fill="#F6F6F6" transform="matrix(1.00, 0.00, -0.00, -1.00, 146.3, 90.5)">n</text><text xml:space="preserve" font-family="Helvetica,Helvetica" font-size="20.0" fill="#F6F6F6" transform="matrix(1.00, 0.00, -0.00, -1.00, 157.4, 90.5)">a</text><text xml:space="preserve" font-family="Helvetica,Helvetica" font-size="20.0" fill="#F6F6F6" transform="matrix(1.00, 0.00, -0.00, -1.00, 168.5, 90.5)"> </text><text xml:space="preserve" font-family="Helvetica,Helvetica" font-size="20.0" fill="#F6F6F6" transform="matrix(1.00, 0.00, -0.00, -1.00, 174.1, 90.5)">a</text><text xml:space="preserve" font-family="Helvetica,Helvetica" font-size="20.0" fill="#F6F6F6" transform="matrix(1.00, 0.00, -0.00, -1.00, 185.2, 90.5)">l</text><text xml:space="preserve" font-family="Helvetica,Helvetica" font-size="20.0" fill="#F6F6F6" transform="matrix(1.00, 0.00, -0.00, -1.00, 189.7, 90.5)">i</text><text xml:space="preserve" font-family="Helvetica,Helvetica" font-size="20.0" fill="#F6F6F6" transform="matrix(1.00, 0.00, -0.00, -1.00, 194.1, 90.5)">q</text><text xml:space="preserve" font-family="Helvetica,Helvetica" font-size="20.0" fill="#F6F6F6" transform="matrix(1.00, 0.00, -0.00, -1.00, 205.2, 90.5)">u</text><text xml:space="preserve" font-family="Helvetica,Helvetica" font-size="20.0" fill="#F6F6F6" transform="matrix(1.00, 0.00, -0.00, -1.00, 216.4, 90.5)">a</text><text xml:space="preserve" font-family="Helvetica,Helvetica" font-size="20.0" fill="#F6F6F6" transform="matrix(1.00, 0.00, -0.00, -1.00, 227.5, 90.5)">m</text><text xml:space="preserve" font-family="Helvetica,Helvetica" font-size="20.0" fill="#F6F6F6" transform="matrix(1.00, 0.00, -0.00, -1.00, 244.2, 90.5)"> </text><text xml:space="preserve" font-family="Helvetica,Helvetica" font-size="20.0" fill="#F6F6F6" transform="matrix(1.00, 0.00, -0.00, -1.00, 87.3, 66.5)">e</text><text xml:space="preserve" font-family="Helvetica,Helvetica" font-size="20.0" fill="#F6F6F6" transform="matrix(1.00, 0.00, -0.00, -1.00, 98.5, 66.5)">r</text><text xml:space="preserve" font-family="Helvetica,Helvetica" font-size="20.0" fill="#F6F6F6" transform="matrix(1.00, 0.00, -0.00, -1.00, 105.1, 66.5)">a</text><text xml:space="preserve" font-family="Helvetica,Helvetica" font-size="20.0" fill="#F6F6F6" transform="matrix(1.00, 0.00, -0.00, -1.00, 116.3, 66.5)">t</text><text xml:space="preserve" font-family="Helvetica,Helvetica" font-size="20.0" fill="#F6F6F6" transform="matrix(1.00, 0.00, -0.00, -1.00, 121.8, 66.5)"> </text><text xml:space="preserve" font-family="Helvetica,Helvetica" font-size="20.0" fill="#F6F6F6" transform="matrix(1.00, 0.00, -0.00, -1.00, 127.4, 66.5)">v</text><text xml:space="preserve" font-family="Helvetica,Helvetica" font-size="20.0" fill="#F6F6F6" transform="matrix(1.00, 0.00, -0.00, -1.00, 137.4, 66.5)">o</text><text xml:space="preserve" font-family="Helvetica,Helvetica" font-size="20.0" fill="#F6F6F6" transform="matrix(1.00, 0.00, -0.00, -1.00, 148.5, 66.5)">l</text><text xml:space="preserve" font-family="Helvetica,Helvetica" font-size="20.0" fill="#F6F6F6" transform="matrix(1.00, 0.00, -0.00, -1.00, 152.9, 66.5)">u</text><text xml:space="preserve" font-family="Helvetica,Helvetica" font-size="20.0" fill="#F6F6F6" transform="matrix(1.00, 0.00, -0.00, -1.00, 164.1, 66.5)">t</text><text xml:space="preserve" font-family="Helvetica,Helvetica" font-size="20.0" fill="#F6F6F6" transform="matrix(1.00, 0.00, -0.00, -1.00, 169.6, 66.5)">p</text><text xml:space="preserve" font-family="Helvetica,Helvetica" font-size="20.0" fill="#F6F6F6" transform="matrix(1.00, 0.00, -0.00, -1.00, 180.7, 66.5)">a</text><text xml:space="preserve" font-family="Helvetica,Helvetica" font-size="20.0" fill="#F6F6F6" transform="matrix(1.00, 0.00, -0.00, -1.00, 191.9, 66.5)">t</text><text xml:space="preserve" font-family="Helvetica,Helvetica" font-size="20.0" fill="#F6F6F6" transform="matrix(1.00, 0.00, -0.00, -1.00, 197.4, 66.5)">.</text></g></g></g></svg>