<?xml version="1.0" encoding="UTF-8" standalone="no"?><svg xmlns="http://www.w3.org/2000/svg" xmlns:xlink="http://www.w3.org/1999/xlink" clip-rule="evenodd" stroke-miterlimit="10" viewBox="0 0 267 34"><desc>SVG generated by Keynote</desc><defs></defs><g transform="matrix(1.00, 0.00, -0.00, -1.00, 0.0, 34.0)"><text xml:space="preserve" font-family="Helvetica,Helvetica" font-size="32.0" fill="#FEFFFE" transform="matrix(1.00, 0.00, -0.00, -1.00, -1.4, 8.6)">I</text><text xml:space="preserve" font-family="Helvetica,Helvetica" font-size="32.0" fill="#FEFFFE" transform="matrix(1.00, 0.00, -0.00, -1.00, 7.5, 8.6)">m</text><text xml:space="preserve" font-family="Helvetica,Helvetica" font-size="32.0" fill="#FEFFFE" transform="matrix(1.00, 0.00, -0.00, -1.00, 34.1, 8.6)">a</text><text xml:space="preserve" font-family="Helvetica,Helvetica" font-size="32.0" fill="#FEFFFE" transform="matrix(1.00, 0.00, -0.00, -1.00, 51.9, 8.6)">g</text><text xml:space="preserve" font-family="Helvetica,Helvetica" font-size="32.0" fill="#FEFFFE" transform="matrix(1.00, 0.00, -0.00, -1.00, 69.7, 8.6)">e</text><text xml:space="preserve" font-family="Helvetica,Helvetica" font-size="32.0" fill="#FEFFFE" transform="matrix(1.00, 0.00, -0.00, -1.00, 87.5, 8.6)"> </text><text xml:space="preserve" font-family="Helvetica,Helvetica" font-size="32.0" fill="#FEFFFE" transform="matrix(1.00, 0.00, -0.00, -1.00, 96.4, 8.6)">P</text><text xml:space="preserve" font-family="Helvetica,Helvetica" font-size="32.0" fill="#FEFFFE" transform="matrix(1.00, 0.00, -0.00, -1.00, 117.8, 8.6)">l</text><text xml:space="preserve" font-family="Helvetica,Helvetica" font-size="32.0" fill="#FEFFFE" transform="matrix(1.00, 0.00, -0.00, -1.00, 124.9, 8.6)">a</text><text xml:space="preserve" font-family="Helvetica,Helvetica" font-size="32.0" fill="#FEFFFE" transform="matrix(1.00, 0.00, -0.00, -1.00, 142.7, 8.6)">c</text><text xml:space="preserve" font-family="Helvetica,Helvetica" font-size="32.0" fill="#FEFFFE" transform="matrix(1.00, 0.00, -0.00, -1.00, 158.7, 8.6)">e</text><text xml:space="preserve" font-family="Helvetica,Helvetica" font-size="32.0" fill="#FEFFFE" transform="matrix(1.00, 0.00, -0.00, -1.00, 176.5, 8.6)">h</text><text xml:space="preserve" font-family="Helvetica,Helvetica" font-size="32.0" fill="#FEFFFE" transform="matrix(1.00, 0.00, -0.00, -1.00, 194.3, 8.6)">o</text><text xml:space="preserve" font-family="Helvetica,Helvetica" font-size="32.0" fill="#FEFFFE" transform="matrix(1.00, 0.00, -0.00, -1.00, 212.1, 8.6)">l</text><text xml:space="preserve" font-family="Helvetica,Helvetica" font-size="32.0" fill="#FEFFFE" transform="matrix(1.00, 0.00, -0.00, -1.00, 219.2, 8.6)">d</text><text xml:space="preserve" font-family="Helvetica,Helvetica" font-size="32.0" fill="#FEFFFE" transform="matrix(1.00, 0.00, -0.00, -1.00, 237.0, 8.6)">e</text><text xml:space="preserve" font-family="Helvetica,Helvetica" font-size="32.0" fill="#FEFFFE" transform="matrix(1.00, 0.00, -0.00, -1.00, 254.8, 8.6)">r</text></g></svg>