<?xml version="1.0" encoding="UTF-8" standalone="no"?><svg xmlns="http://www.w3.org/2000/svg" xmlns:xlink="http://www.w3.org/1999/xlink" clip-rule="evenodd" stroke-miterlimit="10" viewBox="0 0 381 56"><desc>SVG generated by Keynote</desc><defs></defs><g transform="matrix(1.00, 0.00, -0.00, -1.00, 0.0, 56.0)"><text xml:space="preserve" font-family="Helvetica,Helvetica" font-size="54.0" fill="#E2E2E2" transform="matrix(1.00, 0.00, -0.00, -1.00, -2.6, 13.7)">E</text><text xml:space="preserve" font-family="Helvetica,Helvetica" font-size="54.0" fill="#E2E2E2" transform="matrix(1.00, 0.00, -0.00, -1.00, 33.4, 13.7)">n</text><text xml:space="preserve" font-family="Helvetica,Helvetica" font-size="54.0" fill="#E2E2E2" transform="matrix(1.00, 0.00, -0.00, -1.00, 63.4, 13.7)">t</text><text xml:space="preserve" font-family="Helvetica,Helvetica" font-size="54.0" fill="#E2E2E2" transform="matrix(1.00, 0.00, -0.00, -1.00, 78.4, 13.7)">y</text><text xml:space="preserve" font-family="Helvetica,Helvetica" font-size="54.0" fill="#E2E2E2" transform="matrix(1.00, 0.00, -0.00, -1.00, 105.4, 13.7)">p</text><text xml:space="preserve" font-family="Helvetica,Helvetica" font-size="54.0" fill="#E2E2E2" transform="matrix(1.00, 0.00, -0.00, -1.00, 135.5, 13.7)">o</text><text xml:space="preserve" font-family="Helvetica,Helvetica" font-size="54.0" fill="#E2E2E2" transform="matrix(1.00, 0.00, -0.00, -1.00, 165.5, 13.7)"> </text><text xml:space="preserve" font-family="Helvetica,Helvetica" font-size="54.0" fill="#E2E2E2" transform="matrix(1.00, 0.00, -0.00, -1.00, 180.5, 13.7)">I</text><text xml:space="preserve" font-family="Helvetica,Helvetica" font-size="54.0" fill="#E2E2E2" transform="matrix(1.00, 0.00, -0.00, -1.00, 195.5, 13.7)">c</text><text xml:space="preserve" font-family="Helvetica,Helvetica" font-size="54.0" fill="#E2E2E2" transform="matrix(1.00, 0.00, -0.00, -1.00, 222.5, 13.7)">o</text><text xml:space="preserve" font-family="Helvetica,Helvetica" font-size="54.0" fill="#E2E2E2" transform="matrix(1.00, 0.00, -0.00, -1.00, 252.5, 13.7)">n</text><text xml:space="preserve" font-family="Helvetica,Helvetica" font-size="54.0" fill="#E2E2E2" transform="matrix(1.00, 0.00, -0.00, -1.00, 282.6, 13.7)"> </text><text xml:space="preserve" font-family="Helvetica,Helvetica" font-size="54.0" fill="#E2E2E2" transform="matrix(1.00, 0.00, -0.00, -1.00, 297.6, 13.7)">S</text><text xml:space="preserve" font-family="Helvetica,Helvetica" font-size="54.0" fill="#E2E2E2" transform="matrix(1.00, 0.00, -0.00, -1.00, 333.6, 13.7)">e</text><text xml:space="preserve" font-family="Helvetica,Helvetica" font-size="54.0" fill="#E2E2E2" transform="matrix(1.00, 0.00, -0.00, -1.00, 363.6, 13.7)">t</text></g></svg>