<?xml version="1.0" encoding="UTF-8" standalone="no"?><svg xmlns="http://www.w3.org/2000/svg" xmlns:xlink="http://www.w3.org/1999/xlink" clip-rule="evenodd" stroke-miterlimit="10" viewBox="0 0 73 19"><desc>SVG generated by Keynote</desc><defs></defs><g transform="matrix(1.00, 0.00, -0.00, -1.00, 0.0, 19.0)"><g><clipPath id="clip0x6180030b6860"><path d="M 0.1 0.3 L 17.9 0.3 L 17.9 18.1 L 0.1 18.1 Z M 0.1 0.3 "></path></clipPath><g clip-path="url(#clip0x6180030b6860)"><path d="M 1.0 17.0 L 17.0 17.0 L 17.0 1.0 L 1.0 1.0 Z M 1.1 17.1 " fill="#FF607B"></path></g></g><g><clipPath id="clip0x6180030b6500"><path d="M 18.4 0.3 L 36.2 0.3 L 36.2 18.1 L 18.4 18.1 Z M 18.4 0.3 "></path></clipPath><g clip-path="url(#clip0x6180030b6500)"><path d="M 19.0 17.0 L 35.0 17.0 L 35.0 1.0 L 19.0 1.0 Z M 19.4 17.1 " fill="#54C6E1"></path></g></g><g><clipPath id="clip0x6180030b6ec0"><path d="M 54.9 0.3 L 72.7 0.3 L 72.7 18.1 L 54.9 18.1 Z M 54.9 0.3 "></path></clipPath><g clip-path="url(#clip0x6180030b6ec0)"><path d="M 56.0 17.0 L 72.0 17.0 L 72.0 1.0 L 56.0 1.0 Z M 55.9 17.1 " fill="#62D7AD"></path></g></g><g><clipPath id="clip0x6180030b7100"><path d="M 36.7 0.3 L 54.5 0.3 L 54.5 18.1 L 36.7 18.1 Z M 36.7 0.3 "></path></clipPath><g clip-path="url(#clip0x6180030b7100)"><path d="M 38.0 17.0 L 53.0 17.0 L 53.0 1.0 L 38.0 1.0 Z M 37.7 17.1 " fill="#EDC25F"></path></g></g></g></svg>