<?xml version="1.0" encoding="UTF-8" standalone="no"?><svg xmlns="http://www.w3.org/2000/svg" xmlns:xlink="http://www.w3.org/1999/xlink" clip-rule="evenodd" stroke-miterlimit="10" viewBox="0 0 311 45"><desc>SVG generated by Keynote</desc><defs></defs><g transform="matrix(1.00, 0.00, -0.00, -1.00, 0.0, 45.0)"><text xml:space="preserve" font-family="Helvetica,Helvetica" font-size="54.0" fill="#E2E2E2" transform="matrix(1.00, 0.00, -0.00, -1.00, -2.6, 2.7)">P</text><text xml:space="preserve" font-family="Helvetica,Helvetica" font-size="54.0" fill="#E2E2E2" transform="matrix(1.00, 0.00, -0.00, -1.00, 33.5, 2.7)">o</text><text xml:space="preserve" font-family="Helvetica,Helvetica" font-size="54.0" fill="#E2E2E2" transform="matrix(1.00, 0.00, -0.00, -1.00, 63.5, 2.7)">r</text><text xml:space="preserve" font-family="Helvetica,Helvetica" font-size="54.0" fill="#E2E2E2" transform="matrix(1.00, 0.00, -0.00, -1.00, 81.5, 2.7)">t</text><text xml:space="preserve" font-family="Helvetica,Helvetica" font-size="54.0" fill="#E2E2E2" transform="matrix(1.00, 0.00, -0.00, -1.00, 96.5, 2.7)">f</text><text xml:space="preserve" font-family="Helvetica,Helvetica" font-size="54.0" fill="#E2E2E2" transform="matrix(1.00, 0.00, -0.00, -1.00, 111.5, 2.7)">o</text><text xml:space="preserve" font-family="Helvetica,Helvetica" font-size="54.0" fill="#E2E2E2" transform="matrix(1.00, 0.00, -0.00, -1.00, 141.5, 2.7)">l</text><text xml:space="preserve" font-family="Helvetica,Helvetica" font-size="54.0" fill="#E2E2E2" transform="matrix(1.00, 0.00, -0.00, -1.00, 153.5, 2.7)">i</text><text xml:space="preserve" font-family="Helvetica,Helvetica" font-size="54.0" fill="#E2E2E2" transform="matrix(1.00, 0.00, -0.00, -1.00, 165.5, 2.7)">o</text><text xml:space="preserve" font-family="Helvetica,Helvetica" font-size="54.0" fill="#E2E2E2" transform="matrix(1.00, 0.00, -0.00, -1.00, 195.6, 2.7)"> </text><text xml:space="preserve" font-family="Helvetica,Helvetica" font-size="54.0" fill="#E2E2E2" transform="matrix(1.00, 0.00, -0.00, -1.00, 210.6, 2.7)">G</text><text xml:space="preserve" font-family="Helvetica,Helvetica" font-size="54.0" fill="#E2E2E2" transform="matrix(1.00, 0.00, -0.00, -1.00, 252.6, 2.7)">r</text><text xml:space="preserve" font-family="Helvetica,Helvetica" font-size="54.0" fill="#E2E2E2" transform="matrix(1.00, 0.00, -0.00, -1.00, 270.5, 2.7)">i</text><text xml:space="preserve" font-family="Helvetica,Helvetica" font-size="54.0" fill="#E2E2E2" transform="matrix(1.00, 0.00, -0.00, -1.00, 282.5, 2.7)">d</text></g></svg>