<?xml version="1.0" encoding="UTF-8" standalone="no"?><svg xmlns="http://www.w3.org/2000/svg" xmlns:xlink="http://www.w3.org/1999/xlink" clip-rule="evenodd" stroke-miterlimit="10" viewBox="0 0 1920 1080"><desc>SVG generated by Keynote</desc><defs></defs><g transform="matrix(1.00, 0.00, -0.00, -1.00, 0.0, 1080.0)"><path d="M 0.0 1080.0 L 1920.0 1080.0 L 1920.0 0.0 L 0.0 0.0 Z M 0.0 1080.0 " fill="#5A6378"></path><path d="M 884.0 110.0 L 1028.0 110.0 L 1028.0 64.0 L 884.0 64.0 Z M 884.2 110.2 " fill="#F6F6F6"></path><g><clipPath id="clip0x6100034b91a0"><path d="M 881.2 63.2 L 1030.6 63.2 L 1030.6 111.2 L 881.2 111.2 Z M 881.2 63.2 "></path></clipPath><g clip-path="url(#clip0x6100034b91a0)"><text xml:space="preserve" font-family="Helvetica,Helvetica" font-size="28.0" fill="#7D89A5" transform="matrix(1.00, 0.00, -0.00, -1.00, 907.6, 76.7)">P</text><text xml:space="preserve" font-family="Helvetica,Helvetica" font-size="28.0" fill="#7D89A5" transform="matrix(1.00, 0.00, -0.00, -1.00, 926.3, 76.7)">r</text><text xml:space="preserve" font-family="Helvetica,Helvetica" font-size="28.0" fill="#7D89A5" transform="matrix(1.00, 0.00, -0.00, -1.00, 935.6, 76.7)">e</text><text xml:space="preserve" font-family="Helvetica,Helvetica" font-size="28.0" fill="#7D89A5" transform="matrix(1.00, 0.00, -0.00, -1.00, 951.2, 76.7)">s</text><text xml:space="preserve" font-family="Helvetica,Helvetica" font-size="28.0" fill="#7D89A5" transform="matrix(1.00, 0.00, -0.00, -1.00, 965.2, 76.7)">e</text><text xml:space="preserve" font-family="Helvetica,Helvetica" font-size="28.0" fill="#7D89A5" transform="matrix(1.00, 0.00, -0.00, -1.00, 980.8, 76.7)">n</text><text xml:space="preserve" font-family="Helvetica,Helvetica" font-size="28.0" fill="#7D89A5" transform="matrix(1.00, 0.00, -0.00, -1.00, 996.4, 76.7)">t</text></g></g></g></svg>