<?xml version="1.0" encoding="UTF-8" standalone="no"?><svg xmlns="http://www.w3.org/2000/svg" xmlns:xlink="http://www.w3.org/1999/xlink" clip-rule="evenodd" stroke-miterlimit="10" viewBox="0 0 773 203"><desc>SVG generated by Keynote</desc><defs></defs><g transform="matrix(1.00, 0.00, -0.00, -1.00, 0.0, 203.0)"><g><clipPath id="clip0x6000038a13e0"><path d="M 655.7 146.6 L 772.1 146.6 L 772.1 202.2 L 655.7 202.2 Z M 655.7 146.6 "></path></clipPath><g clip-path="url(#clip0x6000038a13e0)"><path d="M 659.5 201.0 C 658.0 201.2 657.0 200.0 657.0 198.5 L 657.0 150.4 C 657.0 148.8 658.0 148.0 659.5 148.0 L 753.9 148.0 C 755.5 148.0 757.0 148.8 757.0 150.4 L 757.0 164.4 L 771.1 174.4 L 757.0 184.4 L 757.0 198.5 C 757.0 200.0 755.5 201.0 753.9 201.0 L 659.5 201.0 Z M 659.5 201.2 " fill="#DCB557"></path></g></g><g><clipPath id="clip0x6000038a1f20"><path d="M 298.0 146.6 L 659.0 146.6 L 659.0 202.2 L 298.0 202.2 Z M 298.0 146.6 "></path></clipPath><g clip-path="url(#clip0x6000038a1f20)"><path d="M 299.0 201.0 L 658.0 201.0 L 658.0 148.0 L 299.0 148.0 Z M 299.0 201.2 " fill="#EDC25F"></path></g></g><g><clipPath id="clip0x6000038a2160"><path d="M 661.2 147.4 L 749.4 147.4 L 749.4 201.4 L 661.2 201.4 Z M 661.2 147.4 "></path></clipPath><g clip-path="url(#clip0x6000038a2160)"><text xml:space="preserve" font-family="Helvetica,Helvetica" font-size="32.0" fill="#F6F6F6" transform="matrix(1.00, 0.00, -0.00, -1.00, 669.7, 162.8)">2</text><text xml:space="preserve" font-family="Helvetica,Helvetica" font-size="32.0" fill="#F6F6F6" transform="matrix(1.00, 0.00, -0.00, -1.00, 687.5, 162.8)">0</text><text xml:space="preserve" font-family="Helvetica,Helvetica" font-size="32.0" fill="#F6F6F6" transform="matrix(1.00, 0.00, -0.00, -1.00, 705.3, 162.8)">0</text><text xml:space="preserve" font-family="Helvetica,Helvetica" font-size="32.0" fill="#F6F6F6" transform="matrix(1.00, 0.00, -0.00, -1.00, 723.1, 162.8)">8</text></g></g><g><clipPath id="clip0x6100032b5e40"><path d="M 304.5 155.9 L 578.3 155.9 L 578.3 192.9 L 304.5 192.9 Z M 304.5 155.9 "></path></clipPath><g clip-path="url(#clip0x6100032b5e40)"><text xml:space="preserve" font-family="Helvetica,Helvetica" font-size="22.0" fill="#F6F6F6" transform="matrix(1.00, 0.00, -0.00, -1.00, 310.0, 166.5)">S</text><text xml:space="preserve" font-family="Helvetica,Helvetica" font-size="22.0" fill="#F6F6F6" transform="matrix(1.00, 0.00, -0.00, -1.00, 324.7, 166.5)">o</text><text xml:space="preserve" font-family="Helvetica,Helvetica" font-size="22.0" fill="#F6F6F6" transform="matrix(1.00, 0.00, -0.00, -1.00, 337.0, 166.5)">m</text><text xml:space="preserve" font-family="Helvetica,Helvetica" font-size="22.0" fill="#F6F6F6" transform="matrix(1.00, 0.00, -0.00, -1.00, 355.3, 166.5)">e</text><text xml:space="preserve" font-family="Helvetica,Helvetica" font-size="22.0" fill="#F6F6F6" transform="matrix(1.00, 0.00, -0.00, -1.00, 367.5, 166.5)">t</text><text xml:space="preserve" font-family="Helvetica,Helvetica" font-size="22.0" fill="#F6F6F6" transform="matrix(1.00, 0.00, -0.00, -1.00, 373.6, 166.5)">h</text><text xml:space="preserve" font-family="Helvetica,Helvetica" font-size="22.0" fill="#F6F6F6" transform="matrix(1.00, 0.00, -0.00, -1.00, 385.9, 166.5)">i</text><text xml:space="preserve" font-family="Helvetica,Helvetica" font-size="22.0" fill="#F6F6F6" transform="matrix(1.00, 0.00, -0.00, -1.00, 390.8, 166.5)">n</text><text xml:space="preserve" font-family="Helvetica,Helvetica" font-size="22.0" fill="#F6F6F6" transform="matrix(1.00, 0.00, -0.00, -1.00, 403.0, 166.5)">g</text><text xml:space="preserve" font-family="Helvetica,Helvetica" font-size="22.0" fill="#F6F6F6" transform="matrix(1.00, 0.00, -0.00, -1.00, 415.2, 166.5)"> </text><text xml:space="preserve" font-family="Helvetica,Helvetica" font-size="22.0" fill="#F6F6F6" transform="matrix(1.00, 0.00, -0.00, -1.00, 421.3, 166.5)">a</text><text xml:space="preserve" font-family="Helvetica,Helvetica" font-size="22.0" fill="#F6F6F6" transform="matrix(1.00, 0.00, -0.00, -1.00, 433.6, 166.5)">b</text><text xml:space="preserve" font-family="Helvetica,Helvetica" font-size="22.0" fill="#F6F6F6" transform="matrix(1.00, 0.00, -0.00, -1.00, 445.8, 166.5)">o</text><text xml:space="preserve" font-family="Helvetica,Helvetica" font-size="22.0" fill="#F6F6F6" transform="matrix(1.00, 0.00, -0.00, -1.00, 458.1, 166.5)">u</text><text xml:space="preserve" font-family="Helvetica,Helvetica" font-size="22.0" fill="#F6F6F6" transform="matrix(1.00, 0.00, -0.00, -1.00, 470.3, 166.5)">t</text><text xml:space="preserve" font-family="Helvetica,Helvetica" font-size="22.0" fill="#F6F6F6" transform="matrix(1.00, 0.00, -0.00, -1.00, 476.4, 166.5)"> </text><text xml:space="preserve" font-family="Helvetica,Helvetica" font-size="22.0" fill="#F6F6F6" transform="matrix(1.00, 0.00, -0.00, -1.00, 482.5, 166.5)">c</text><text xml:space="preserve" font-family="Helvetica,Helvetica" font-size="22.0" fill="#F6F6F6" transform="matrix(1.00, 0.00, -0.00, -1.00, 493.5, 166.5)">o</text><text xml:space="preserve" font-family="Helvetica,Helvetica" font-size="22.0" fill="#F6F6F6" transform="matrix(1.00, 0.00, -0.00, -1.00, 505.8, 166.5)">m</text><text xml:space="preserve" font-family="Helvetica,Helvetica" font-size="22.0" fill="#F6F6F6" transform="matrix(1.00, 0.00, -0.00, -1.00, 524.1, 166.5)">p</text><text xml:space="preserve" font-family="Helvetica,Helvetica" font-size="22.0" fill="#F6F6F6" transform="matrix(1.00, 0.00, -0.00, -1.00, 536.3, 166.5)">a</text><text xml:space="preserve" font-family="Helvetica,Helvetica" font-size="22.0" fill="#F6F6F6" transform="matrix(1.00, 0.00, -0.00, -1.00, 548.6, 166.5)">n</text><text xml:space="preserve" font-family="Helvetica,Helvetica" font-size="22.0" fill="#F6F6F6" transform="matrix(1.00, 0.00, -0.00, -1.00, 560.8, 166.5)">y</text></g></g><g><clipPath id="clip0x6100032b60e0"><path d="M 403.0 2.8 L 757.2 2.8 L 757.2 132.8 L 403.0 132.8 Z M 403.0 2.8 "></path></clipPath><g clip-path="url(#clip0x6100032b60e0)"><text xml:space="preserve" font-family="Helvetica,Helvetica" font-size="20.0" fill="#E2E2E2" transform="matrix(1.00, 0.00, -0.00, -1.00, 408.0, 108.4)">V</text><text xml:space="preserve" font-family="Helvetica,Helvetica" font-size="20.0" fill="#E2E2E2" transform="matrix(1.00, 0.00, -0.00, -1.00, 420.2, 108.4)">e</text><text xml:space="preserve" font-family="Helvetica,Helvetica" font-size="20.0" fill="#E2E2E2" transform="matrix(1.00, 0.00, -0.00, -1.00, 431.3, 108.4)">l</text><text xml:space="preserve" font-family="Helvetica,Helvetica" font-size="20.0" fill="#E2E2E2" transform="matrix(1.00, 0.00, -0.00, -1.00, 435.8, 108.4)"> </text><text xml:space="preserve" font-family="Helvetica,Helvetica" font-size="20.0" fill="#E2E2E2" transform="matrix(1.00, 0.00, -0.00, -1.00, 441.3, 108.4)">i</text><text xml:space="preserve" font-family="Helvetica,Helvetica" font-size="20.0" fill="#E2E2E2" transform="matrix(1.00, 0.00, -0.00, -1.00, 445.8, 108.4)">l</text><text xml:space="preserve" font-family="Helvetica,Helvetica" font-size="20.0" fill="#E2E2E2" transform="matrix(1.00, 0.00, -0.00, -1.00, 450.2, 108.4)">l</text><text xml:space="preserve" font-family="Helvetica,Helvetica" font-size="20.0" fill="#E2E2E2" transform="matrix(1.00, 0.00, -0.00, -1.00, 454.7, 108.4)">u</text><text xml:space="preserve" font-family="Helvetica,Helvetica" font-size="20.0" fill="#E2E2E2" transform="matrix(1.00, 0.00, -0.00, -1.00, 465.8, 108.4)">m</text><text xml:space="preserve" font-family="Helvetica,Helvetica" font-size="20.0" fill="#E2E2E2" transform="matrix(1.00, 0.00, -0.00, -1.00, 482.5, 108.4)"> </text><text xml:space="preserve" font-family="Helvetica,Helvetica" font-size="20.0" fill="#E2E2E2" transform="matrix(1.00, 0.00, -0.00, -1.00, 488.0, 108.4)">d</text><text xml:space="preserve" font-family="Helvetica,Helvetica" font-size="20.0" fill="#E2E2E2" transform="matrix(1.00, 0.00, -0.00, -1.00, 499.2, 108.4)">o</text><text xml:space="preserve" font-family="Helvetica,Helvetica" font-size="20.0" fill="#E2E2E2" transform="matrix(1.00, 0.00, -0.00, -1.00, 510.3, 108.4)">l</text><text xml:space="preserve" font-family="Helvetica,Helvetica" font-size="20.0" fill="#E2E2E2" transform="matrix(1.00, 0.00, -0.00, -1.00, 514.7, 108.4)">o</text><text xml:space="preserve" font-family="Helvetica,Helvetica" font-size="20.0" fill="#E2E2E2" transform="matrix(1.00, 0.00, -0.00, -1.00, 525.9, 108.4)">r</text><text xml:space="preserve" font-family="Helvetica,Helvetica" font-size="20.0" fill="#E2E2E2" transform="matrix(1.00, 0.00, -0.00, -1.00, 532.5, 108.4)">e</text><text xml:space="preserve" font-family="Helvetica,Helvetica" font-size="20.0" fill="#E2E2E2" transform="matrix(1.00, 0.00, -0.00, -1.00, 543.6, 108.4)"> </text><text xml:space="preserve" font-family="Helvetica,Helvetica" font-size="20.0" fill="#E2E2E2" transform="matrix(1.00, 0.00, -0.00, -1.00, 549.2, 108.4)">e</text><text xml:space="preserve" font-family="Helvetica,Helvetica" font-size="20.0" fill="#E2E2E2" transform="matrix(1.00, 0.00, -0.00, -1.00, 560.3, 108.4)">u</text><text xml:space="preserve" font-family="Helvetica,Helvetica" font-size="20.0" fill="#E2E2E2" transform="matrix(1.00, 0.00, -0.00, -1.00, 571.5, 108.4)"> </text><text xml:space="preserve" font-family="Helvetica,Helvetica" font-size="20.0" fill="#E2E2E2" transform="matrix(1.00, 0.00, -0.00, -1.00, 577.0, 108.4)">f</text><text xml:space="preserve" font-family="Helvetica,Helvetica" font-size="20.0" fill="#E2E2E2" transform="matrix(1.00, 0.00, -0.00, -1.00, 582.6, 108.4)">e</text><text xml:space="preserve" font-family="Helvetica,Helvetica" font-size="20.0" fill="#E2E2E2" transform="matrix(1.00, 0.00, -0.00, -1.00, 593.7, 108.4)">u</text><text xml:space="preserve" font-family="Helvetica,Helvetica" font-size="20.0" fill="#E2E2E2" transform="matrix(1.00, 0.00, -0.00, -1.00, 604.8, 108.4)">g</text><text xml:space="preserve" font-family="Helvetica,Helvetica" font-size="20.0" fill="#E2E2E2" transform="matrix(1.00, 0.00, -0.00, -1.00, 615.9, 108.4)">i</text><text xml:space="preserve" font-family="Helvetica,Helvetica" font-size="20.0" fill="#E2E2E2" transform="matrix(1.00, 0.00, -0.00, -1.00, 620.4, 108.4)">a</text><text xml:space="preserve" font-family="Helvetica,Helvetica" font-size="20.0" fill="#E2E2E2" transform="matrix(1.00, 0.00, -0.00, -1.00, 631.5, 108.4)">t</text><text xml:space="preserve" font-family="Helvetica,Helvetica" font-size="20.0" fill="#E2E2E2" transform="matrix(1.00, 0.00, -0.00, -1.00, 637.1, 108.4)"> </text><text xml:space="preserve" font-family="Helvetica,Helvetica" font-size="20.0" fill="#E2E2E2" transform="matrix(1.00, 0.00, -0.00, -1.00, 642.6, 108.4)">n</text><text xml:space="preserve" font-family="Helvetica,Helvetica" font-size="20.0" fill="#E2E2E2" transform="matrix(1.00, 0.00, -0.00, -1.00, 653.7, 108.4)">u</text><text xml:space="preserve" font-family="Helvetica,Helvetica" font-size="20.0" fill="#E2E2E2" transform="matrix(1.00, 0.00, -0.00, -1.00, 664.9, 108.4)">l</text><text xml:space="preserve" font-family="Helvetica,Helvetica" font-size="20.0" fill="#E2E2E2" transform="matrix(1.00, 0.00, -0.00, -1.00, 669.3, 108.4)">l</text><text xml:space="preserve" font-family="Helvetica,Helvetica" font-size="20.0" fill="#E2E2E2" transform="matrix(1.00, 0.00, -0.00, -1.00, 673.8, 108.4)">a</text><text xml:space="preserve" font-family="Helvetica,Helvetica" font-size="20.0" fill="#E2E2E2" transform="matrix(1.00, 0.00, -0.00, -1.00, 684.9, 108.4)"> </text><text xml:space="preserve" font-family="Helvetica,Helvetica" font-size="20.0" fill="#E2E2E2" transform="matrix(1.00, 0.00, -0.00, -1.00, 408.0, 84.4)">f</text><text xml:space="preserve" font-family="Helvetica,Helvetica" font-size="20.0" fill="#E2E2E2" transform="matrix(1.00, 0.00, -0.00, -1.00, 413.5, 84.4)">a</text><text xml:space="preserve" font-family="Helvetica,Helvetica" font-size="20.0" fill="#E2E2E2" transform="matrix(1.00, 0.00, -0.00, -1.00, 424.7, 84.4)">c</text><text xml:space="preserve" font-family="Helvetica,Helvetica" font-size="20.0" fill="#E2E2E2" transform="matrix(1.00, 0.00, -0.00, -1.00, 434.7, 84.4)">i</text><text xml:space="preserve" font-family="Helvetica,Helvetica" font-size="20.0" fill="#E2E2E2" transform="matrix(1.00, 0.00, -0.00, -1.00, 439.1, 84.4)">l</text><text xml:space="preserve" font-family="Helvetica,Helvetica" font-size="20.0" fill="#E2E2E2" transform="matrix(1.00, 0.00, -0.00, -1.00, 443.5, 84.4)">i</text><text xml:space="preserve" font-family="Helvetica,Helvetica" font-size="20.0" fill="#E2E2E2" transform="matrix(1.00, 0.00, -0.00, -1.00, 448.0, 84.4)">s</text><text xml:space="preserve" font-family="Helvetica,Helvetica" font-size="20.0" fill="#E2E2E2" transform="matrix(1.00, 0.00, -0.00, -1.00, 458.0, 84.4)">i</text><text xml:space="preserve" font-family="Helvetica,Helvetica" font-size="20.0" fill="#E2E2E2" transform="matrix(1.00, 0.00, -0.00, -1.00, 462.4, 84.4)">s</text><text xml:space="preserve" font-family="Helvetica,Helvetica" font-size="20.0" fill="#E2E2E2" transform="matrix(1.00, 0.00, -0.00, -1.00, 472.4, 84.4)"> </text><text xml:space="preserve" font-family="Helvetica,Helvetica" font-size="20.0" fill="#E2E2E2" transform="matrix(1.00, 0.00, -0.00, -1.00, 478.0, 84.4)">a</text><text xml:space="preserve" font-family="Helvetica,Helvetica" font-size="20.0" fill="#E2E2E2" transform="matrix(1.00, 0.00, -0.00, -1.00, 489.1, 84.4)">t</text><text xml:space="preserve" font-family="Helvetica,Helvetica" font-size="20.0" fill="#E2E2E2" transform="matrix(1.00, 0.00, -0.00, -1.00, 494.7, 84.4)"> </text><text xml:space="preserve" font-family="Helvetica,Helvetica" font-size="20.0" fill="#E2E2E2" transform="matrix(1.00, 0.00, -0.00, -1.00, 500.2, 84.4)">v</text><text xml:space="preserve" font-family="Helvetica,Helvetica" font-size="20.0" fill="#E2E2E2" transform="matrix(1.00, 0.00, -0.00, -1.00, 510.2, 84.4)">e</text><text xml:space="preserve" font-family="Helvetica,Helvetica" font-size="20.0" fill="#E2E2E2" transform="matrix(1.00, 0.00, -0.00, -1.00, 521.4, 84.4)">r</text><text xml:space="preserve" font-family="Helvetica,Helvetica" font-size="20.0" fill="#E2E2E2" transform="matrix(1.00, 0.00, -0.00, -1.00, 528.0, 84.4)">o</text><text xml:space="preserve" font-family="Helvetica,Helvetica" font-size="20.0" fill="#E2E2E2" transform="matrix(1.00, 0.00, -0.00, -1.00, 539.1, 84.4)"> </text><text xml:space="preserve" font-family="Helvetica,Helvetica" font-size="20.0" fill="#E2E2E2" transform="matrix(1.00, 0.00, -0.00, -1.00, 544.7, 84.4)">e</text><text xml:space="preserve" font-family="Helvetica,Helvetica" font-size="20.0" fill="#E2E2E2" transform="matrix(1.00, 0.00, -0.00, -1.00, 555.8, 84.4)">r</text><text xml:space="preserve" font-family="Helvetica,Helvetica" font-size="20.0" fill="#E2E2E2" transform="matrix(1.00, 0.00, -0.00, -1.00, 562.5, 84.4)">o</text><text xml:space="preserve" font-family="Helvetica,Helvetica" font-size="20.0" fill="#E2E2E2" transform="matrix(1.00, 0.00, -0.00, -1.00, 573.6, 84.4)">s</text><text xml:space="preserve" font-family="Helvetica,Helvetica" font-size="20.0" fill="#E2E2E2" transform="matrix(1.00, 0.00, -0.00, -1.00, 583.6, 84.4)"> </text><text xml:space="preserve" font-family="Helvetica,Helvetica" font-size="20.0" fill="#E2E2E2" transform="matrix(1.00, 0.00, -0.00, -1.00, 589.2, 84.4)">e</text><text xml:space="preserve" font-family="Helvetica,Helvetica" font-size="20.0" fill="#E2E2E2" transform="matrix(1.00, 0.00, -0.00, -1.00, 600.3, 84.4)">t</text><text xml:space="preserve" font-family="Helvetica,Helvetica" font-size="20.0" fill="#E2E2E2" transform="matrix(1.00, 0.00, -0.00, -1.00, 605.8, 84.4)"> </text><text xml:space="preserve" font-family="Helvetica,Helvetica" font-size="20.0" fill="#E2E2E2" transform="matrix(1.00, 0.00, -0.00, -1.00, 611.4, 84.4)">a</text><text xml:space="preserve" font-family="Helvetica,Helvetica" font-size="20.0" fill="#E2E2E2" transform="matrix(1.00, 0.00, -0.00, -1.00, 622.5, 84.4)">c</text><text xml:space="preserve" font-family="Helvetica,Helvetica" font-size="20.0" fill="#E2E2E2" transform="matrix(1.00, 0.00, -0.00, -1.00, 632.5, 84.4)">c</text><text xml:space="preserve" font-family="Helvetica,Helvetica" font-size="20.0" fill="#E2E2E2" transform="matrix(1.00, 0.00, -0.00, -1.00, 642.5, 84.4)">u</text><text xml:space="preserve" font-family="Helvetica,Helvetica" font-size="20.0" fill="#E2E2E2" transform="matrix(1.00, 0.00, -0.00, -1.00, 653.6, 84.4)">m</text><text xml:space="preserve" font-family="Helvetica,Helvetica" font-size="20.0" fill="#E2E2E2" transform="matrix(1.00, 0.00, -0.00, -1.00, 670.3, 84.4)">s</text><text xml:space="preserve" font-family="Helvetica,Helvetica" font-size="20.0" fill="#E2E2E2" transform="matrix(1.00, 0.00, -0.00, -1.00, 680.3, 84.4)">a</text><text xml:space="preserve" font-family="Helvetica,Helvetica" font-size="20.0" fill="#E2E2E2" transform="matrix(1.00, 0.00, -0.00, -1.00, 691.4, 84.4)">n</text><text xml:space="preserve" font-family="Helvetica,Helvetica" font-size="20.0" fill="#E2E2E2" transform="matrix(1.00, 0.00, -0.00, -1.00, 702.6, 84.4)"> </text><text xml:space="preserve" font-family="Helvetica,Helvetica" font-size="20.0" fill="#E2E2E2" transform="matrix(1.00, 0.00, -0.00, -1.00, 708.1, 84.4)">e</text><text xml:space="preserve" font-family="Helvetica,Helvetica" font-size="20.0" fill="#E2E2E2" transform="matrix(1.00, 0.00, -0.00, -1.00, 719.2, 84.4)">t</text><text xml:space="preserve" font-family="Helvetica,Helvetica" font-size="20.0" fill="#E2E2E2" transform="matrix(1.00, 0.00, -0.00, -1.00, 724.8, 84.4)"> </text><text xml:space="preserve" font-family="Helvetica,Helvetica" font-size="20.0" fill="#E2E2E2" transform="matrix(1.00, 0.00, -0.00, -1.00, 408.0, 60.4)">i</text><text xml:space="preserve" font-family="Helvetica,Helvetica" font-size="20.0" fill="#E2E2E2" transform="matrix(1.00, 0.00, -0.00, -1.00, 412.4, 60.4)">u</text><text xml:space="preserve" font-family="Helvetica,Helvetica" font-size="20.0" fill="#E2E2E2" transform="matrix(1.00, 0.00, -0.00, -1.00, 423.5, 60.4)">s</text><text xml:space="preserve" font-family="Helvetica,Helvetica" font-size="20.0" fill="#E2E2E2" transform="matrix(1.00, 0.00, -0.00, -1.00, 433.5, 60.4)">t</text><text xml:space="preserve" font-family="Helvetica,Helvetica" font-size="20.0" fill="#E2E2E2" transform="matrix(1.00, 0.00, -0.00, -1.00, 439.1, 60.4)">o</text><text xml:space="preserve" font-family="Helvetica,Helvetica" font-size="20.0" fill="#E2E2E2" transform="matrix(1.00, 0.00, -0.00, -1.00, 450.2, 60.4)"> </text><text xml:space="preserve" font-family="Helvetica,Helvetica" font-size="20.0" fill="#E2E2E2" transform="matrix(1.00, 0.00, -0.00, -1.00, 455.8, 60.4)">o</text><text xml:space="preserve" font-family="Helvetica,Helvetica" font-size="20.0" fill="#E2E2E2" transform="matrix(1.00, 0.00, -0.00, -1.00, 466.9, 60.4)">d</text><text xml:space="preserve" font-family="Helvetica,Helvetica" font-size="20.0" fill="#E2E2E2" transform="matrix(1.00, 0.00, -0.00, -1.00, 478.0, 60.4)">i</text><text xml:space="preserve" font-family="Helvetica,Helvetica" font-size="20.0" fill="#E2E2E2" transform="matrix(1.00, 0.00, -0.00, -1.00, 482.5, 60.4)">o</text><text xml:space="preserve" font-family="Helvetica,Helvetica" font-size="20.0" fill="#E2E2E2" transform="matrix(1.00, 0.00, -0.00, -1.00, 493.6, 60.4)"> </text><text xml:space="preserve" font-family="Helvetica,Helvetica" font-size="20.0" fill="#E2E2E2" transform="matrix(1.00, 0.00, -0.00, -1.00, 499.2, 60.4)">d</text><text xml:space="preserve" font-family="Helvetica,Helvetica" font-size="20.0" fill="#E2E2E2" transform="matrix(1.00, 0.00, -0.00, -1.00, 510.3, 60.4)">i</text><text xml:space="preserve" font-family="Helvetica,Helvetica" font-size="20.0" fill="#E2E2E2" transform="matrix(1.00, 0.00, -0.00, -1.00, 514.7, 60.4)">g</text><text xml:space="preserve" font-family="Helvetica,Helvetica" font-size="20.0" fill="#E2E2E2" transform="matrix(1.00, 0.00, -0.00, -1.00, 525.9, 60.4)">n</text><text xml:space="preserve" font-family="Helvetica,Helvetica" font-size="20.0" fill="#E2E2E2" transform="matrix(1.00, 0.00, -0.00, -1.00, 537.0, 60.4)">i</text><text xml:space="preserve" font-family="Helvetica,Helvetica" font-size="20.0" fill="#E2E2E2" transform="matrix(1.00, 0.00, -0.00, -1.00, 541.4, 60.4)">s</text><text xml:space="preserve" font-family="Helvetica,Helvetica" font-size="20.0" fill="#E2E2E2" transform="matrix(1.00, 0.00, -0.00, -1.00, 551.4, 60.4)">s</text><text xml:space="preserve" font-family="Helvetica,Helvetica" font-size="20.0" fill="#E2E2E2" transform="matrix(1.00, 0.00, -0.00, -1.00, 561.4, 60.4)">i</text><text xml:space="preserve" font-family="Helvetica,Helvetica" font-size="20.0" fill="#E2E2E2" transform="matrix(1.00, 0.00, -0.00, -1.00, 565.9, 60.4)">m</text><text xml:space="preserve" font-family="Helvetica,Helvetica" font-size="20.0" fill="#E2E2E2" transform="matrix(1.00, 0.00, -0.00, -1.00, 582.5, 60.4)"> </text><text xml:space="preserve" font-family="Helvetica,Helvetica" font-size="20.0" fill="#E2E2E2" transform="matrix(1.00, 0.00, -0.00, -1.00, 588.1, 60.4)">q</text><text xml:space="preserve" font-family="Helvetica,Helvetica" font-size="20.0" fill="#E2E2E2" transform="matrix(1.00, 0.00, -0.00, -1.00, 599.2, 60.4)">u</text><text xml:space="preserve" font-family="Helvetica,Helvetica" font-size="20.0" fill="#E2E2E2" transform="matrix(1.00, 0.00, -0.00, -1.00, 610.4, 60.4)">i</text><text xml:space="preserve" font-family="Helvetica,Helvetica" font-size="20.0" fill="#E2E2E2" transform="matrix(1.00, 0.00, -0.00, -1.00, 614.8, 60.4)"> </text><text xml:space="preserve" font-family="Helvetica,Helvetica" font-size="20.0" fill="#E2E2E2" transform="matrix(1.00, 0.00, -0.00, -1.00, 620.4, 60.4)">b</text><text xml:space="preserve" font-family="Helvetica,Helvetica" font-size="20.0" fill="#E2E2E2" transform="matrix(1.00, 0.00, -0.00, -1.00, 631.5, 60.4)">l</text><text xml:space="preserve" font-family="Helvetica,Helvetica" font-size="20.0" fill="#E2E2E2" transform="matrix(1.00, 0.00, -0.00, -1.00, 635.9, 60.4)">a</text><text xml:space="preserve" font-family="Helvetica,Helvetica" font-size="20.0" fill="#E2E2E2" transform="matrix(1.00, 0.00, -0.00, -1.00, 647.1, 60.4)">n</text><text xml:space="preserve" font-family="Helvetica,Helvetica" font-size="20.0" fill="#E2E2E2" transform="matrix(1.00, 0.00, -0.00, -1.00, 658.2, 60.4)">d</text><text xml:space="preserve" font-family="Helvetica,Helvetica" font-size="20.0" fill="#E2E2E2" transform="matrix(1.00, 0.00, -0.00, -1.00, 669.3, 60.4)">i</text><text xml:space="preserve" font-family="Helvetica,Helvetica" font-size="20.0" fill="#E2E2E2" transform="matrix(1.00, 0.00, -0.00, -1.00, 673.8, 60.4)">t</text><text xml:space="preserve" font-family="Helvetica,Helvetica" font-size="20.0" fill="#E2E2E2" transform="matrix(1.00, 0.00, -0.00, -1.00, 679.3, 60.4)"> </text><text xml:space="preserve" font-family="Helvetica,Helvetica" font-size="20.0" fill="#E2E2E2" transform="matrix(1.00, 0.00, -0.00, -1.00, 408.0, 36.4)">p</text><text xml:space="preserve" font-family="Helvetica,Helvetica" font-size="20.0" fill="#E2E2E2" transform="matrix(1.00, 0.00, -0.00, -1.00, 419.1, 36.4)">r</text><text xml:space="preserve" font-family="Helvetica,Helvetica" font-size="20.0" fill="#E2E2E2" transform="matrix(1.00, 0.00, -0.00, -1.00, 425.8, 36.4)">a</text><text xml:space="preserve" font-family="Helvetica,Helvetica" font-size="20.0" fill="#E2E2E2" transform="matrix(1.00, 0.00, -0.00, -1.00, 436.9, 36.4)">e</text><text xml:space="preserve" font-family="Helvetica,Helvetica" font-size="20.0" fill="#E2E2E2" transform="matrix(1.00, 0.00, -0.00, -1.00, 448.0, 36.4)">s</text><text xml:space="preserve" font-family="Helvetica,Helvetica" font-size="20.0" fill="#E2E2E2" transform="matrix(1.00, 0.00, -0.00, -1.00, 458.0, 36.4)">e</text><text xml:space="preserve" font-family="Helvetica,Helvetica" font-size="20.0" fill="#E2E2E2" transform="matrix(1.00, 0.00, -0.00, -1.00, 469.1, 36.4)">n</text><text xml:space="preserve" font-family="Helvetica,Helvetica" font-size="20.0" fill="#E2E2E2" transform="matrix(1.00, 0.00, -0.00, -1.00, 480.3, 36.4)">t</text><text xml:space="preserve" font-family="Helvetica,Helvetica" font-size="20.0" fill="#E2E2E2" transform="matrix(1.00, 0.00, -0.00, -1.00, 485.8, 36.4)"> </text><text xml:space="preserve" font-family="Helvetica,Helvetica" font-size="20.0" fill="#E2E2E2" transform="matrix(1.00, 0.00, -0.00, -1.00, 491.4, 36.4)">l</text><text xml:space="preserve" font-family="Helvetica,Helvetica" font-size="20.0" fill="#E2E2E2" transform="matrix(1.00, 0.00, -0.00, -1.00, 495.8, 36.4)">u</text><text xml:space="preserve" font-family="Helvetica,Helvetica" font-size="20.0" fill="#E2E2E2" transform="matrix(1.00, 0.00, -0.00, -1.00, 506.9, 36.4)">p</text><text xml:space="preserve" font-family="Helvetica,Helvetica" font-size="20.0" fill="#E2E2E2" transform="matrix(1.00, 0.00, -0.00, -1.00, 518.1, 36.4)">t</text><text xml:space="preserve" font-family="Helvetica,Helvetica" font-size="20.0" fill="#E2E2E2" transform="matrix(1.00, 0.00, -0.00, -1.00, 523.6, 36.4)">a</text><text xml:space="preserve" font-family="Helvetica,Helvetica" font-size="20.0" fill="#E2E2E2" transform="matrix(1.00, 0.00, -0.00, -1.00, 534.8, 36.4)">t</text><text xml:space="preserve" font-family="Helvetica,Helvetica" font-size="20.0" fill="#E2E2E2" transform="matrix(1.00, 0.00, -0.00, -1.00, 540.3, 36.4)">u</text><text xml:space="preserve" font-family="Helvetica,Helvetica" font-size="20.0" fill="#E2E2E2" transform="matrix(1.00, 0.00, -0.00, -1.00, 551.4, 36.4)">m</text><text xml:space="preserve" font-family="Helvetica,Helvetica" font-size="20.0" fill="#E2E2E2" transform="matrix(1.00, 0.00, -0.00, -1.00, 568.1, 36.4)"> </text><text xml:space="preserve" font-family="Helvetica,Helvetica" font-size="20.0" fill="#E2E2E2" transform="matrix(1.00, 0.00, -0.00, -1.00, 573.6, 36.4)">z</text><text xml:space="preserve" font-family="Helvetica,Helvetica" font-size="20.0" fill="#E2E2E2" transform="matrix(1.00, 0.00, -0.00, -1.00, 583.6, 36.4)">z</text><text xml:space="preserve" font-family="Helvetica,Helvetica" font-size="20.0" fill="#E2E2E2" transform="matrix(1.00, 0.00, -0.00, -1.00, 593.6, 36.4)">r</text><text xml:space="preserve" font-family="Helvetica,Helvetica" font-size="20.0" fill="#E2E2E2" transform="matrix(1.00, 0.00, -0.00, -1.00, 600.3, 36.4)">i</text><text xml:space="preserve" font-family="Helvetica,Helvetica" font-size="20.0" fill="#E2E2E2" transform="matrix(1.00, 0.00, -0.00, -1.00, 604.8, 36.4)">l</text><text xml:space="preserve" font-family="Helvetica,Helvetica" font-size="20.0" fill="#E2E2E2" transform="matrix(1.00, 0.00, -0.00, -1.00, 609.2, 36.4)"> </text><text xml:space="preserve" font-family="Helvetica,Helvetica" font-size="20.0" fill="#E2E2E2" transform="matrix(1.00, 0.00, -0.00, -1.00, 614.8, 36.4)">d</text><text xml:space="preserve" font-family="Helvetica,Helvetica" font-size="20.0" fill="#E2E2E2" transform="matrix(1.00, 0.00, -0.00, -1.00, 625.9, 36.4)">e</text><text xml:space="preserve" font-family="Helvetica,Helvetica" font-size="20.0" fill="#E2E2E2" transform="matrix(1.00, 0.00, -0.00, -1.00, 637.0, 36.4)">l</text><text xml:space="preserve" font-family="Helvetica,Helvetica" font-size="20.0" fill="#E2E2E2" transform="matrix(1.00, 0.00, -0.00, -1.00, 641.5, 36.4)">e</text><text xml:space="preserve" font-family="Helvetica,Helvetica" font-size="20.0" fill="#E2E2E2" transform="matrix(1.00, 0.00, -0.00, -1.00, 652.6, 36.4)">n</text><text xml:space="preserve" font-family="Helvetica,Helvetica" font-size="20.0" fill="#E2E2E2" transform="matrix(1.00, 0.00, -0.00, -1.00, 663.7, 36.4)">i</text><text xml:space="preserve" font-family="Helvetica,Helvetica" font-size="20.0" fill="#E2E2E2" transform="matrix(1.00, 0.00, -0.00, -1.00, 668.2, 36.4)">t</text><text xml:space="preserve" font-family="Helvetica,Helvetica" font-size="20.0" fill="#E2E2E2" transform="matrix(1.00, 0.00, -0.00, -1.00, 673.7, 36.4)"> </text><text xml:space="preserve" font-family="Helvetica,Helvetica" font-size="20.0" fill="#E2E2E2" transform="matrix(1.00, 0.00, -0.00, -1.00, 679.3, 36.4)">a</text><text xml:space="preserve" font-family="Helvetica,Helvetica" font-size="20.0" fill="#E2E2E2" transform="matrix(1.00, 0.00, -0.00, -1.00, 690.4, 36.4)">u</text><text xml:space="preserve" font-family="Helvetica,Helvetica" font-size="20.0" fill="#E2E2E2" transform="matrix(1.00, 0.00, -0.00, -1.00, 701.5, 36.4)">g</text><text xml:space="preserve" font-family="Helvetica,Helvetica" font-size="20.0" fill="#E2E2E2" transform="matrix(1.00, 0.00, -0.00, -1.00, 712.6, 36.4)">u</text><text xml:space="preserve" font-family="Helvetica,Helvetica" font-size="20.0" fill="#E2E2E2" transform="matrix(1.00, 0.00, -0.00, -1.00, 723.8, 36.4)">e</text><text xml:space="preserve" font-family="Helvetica,Helvetica" font-size="20.0" fill="#E2E2E2" transform="matrix(1.00, 0.00, -0.00, -1.00, 734.9, 36.4)"> </text><text xml:space="preserve" font-family="Helvetica,Helvetica" font-size="20.0" fill="#E2E2E2" transform="matrix(1.00, 0.00, -0.00, -1.00, 408.0, 12.4)">d</text><text xml:space="preserve" font-family="Helvetica,Helvetica" font-size="20.0" fill="#E2E2E2" transform="matrix(1.00, 0.00, -0.00, -1.00, 419.1, 12.4)">u</text><text xml:space="preserve" font-family="Helvetica,Helvetica" font-size="20.0" fill="#E2E2E2" transform="matrix(1.00, 0.00, -0.00, -1.00, 430.2, 12.4)">i</text><text xml:space="preserve" font-family="Helvetica,Helvetica" font-size="20.0" fill="#E2E2E2" transform="matrix(1.00, 0.00, -0.00, -1.00, 434.7, 12.4)">s</text><text xml:space="preserve" font-family="Helvetica,Helvetica" font-size="20.0" fill="#E2E2E2" transform="matrix(1.00, 0.00, -0.00, -1.00, 444.7, 12.4)"> </text><text xml:space="preserve" font-family="Helvetica,Helvetica" font-size="20.0" fill="#E2E2E2" transform="matrix(1.00, 0.00, -0.00, -1.00, 450.2, 12.4)">d</text><text xml:space="preserve" font-family="Helvetica,Helvetica" font-size="20.0" fill="#E2E2E2" transform="matrix(1.00, 0.00, -0.00, -1.00, 461.4, 12.4)">o</text><text xml:space="preserve" font-family="Helvetica,Helvetica" font-size="20.0" fill="#E2E2E2" transform="matrix(1.00, 0.00, -0.00, -1.00, 472.5, 12.4)">l</text><text xml:space="preserve" font-family="Helvetica,Helvetica" font-size="20.0" fill="#E2E2E2" transform="matrix(1.00, 0.00, -0.00, -1.00, 476.9, 12.4)">o</text><text xml:space="preserve" font-family="Helvetica,Helvetica" font-size="20.0" fill="#E2E2E2" transform="matrix(1.00, 0.00, -0.00, -1.00, 488.1, 12.4)">r</text><text xml:space="preserve" font-family="Helvetica,Helvetica" font-size="20.0" fill="#E2E2E2" transform="matrix(1.00, 0.00, -0.00, -1.00, 494.7, 12.4)">e</text></g></g><g><clipPath id="clip0x6100032b9c80"><path d="M 273.8 -10.5 L 407.4 -10.5 L 407.4 174.1 L 273.8 174.1 Z M 273.8 -10.5 "></path></clipPath><g clip-path="url(#clip0x6100032b9c80)"><text xml:space="preserve" font-family="Sosa-Regular,Sosa" font-size="80.0" fill="#E2E2E2" transform="matrix(1.00, 0.00, -0.00, -1.00, 304.6, 56.2)">õ</text><text xml:space="preserve" font-family="Sosa-Regular,Sosa" font-size="80.0" fill="#E2E2E2" transform="matrix(1.00, 0.00, -0.00, -1.00, 384.6, 56.2)"> </text><text xml:space="preserve" font-family="Sosa-Regular,Sosa" font-size="120.0" fill="#E2E2E2" transform="matrix(1.00, 0.00, -0.00, -1.00, 401.7, 56.2)"> </text><text xml:space="preserve" font-family="Sosa-Regular,Sosa" font-size="120.0" fill="#E2E2E2" transform="matrix(1.00, 0.00, -0.00, -1.00, 427.4, 56.2)"> </text></g></g><g><clipPath id="clip0x6100032b9fe0"><path d="M 4.6 5.1 L 252.1 5.1 L 252.1 196.6 L 4.6 196.6 Z M 4.6 5.1 "></path></clipPath><g clip-path="url(#clip0x6100032b9fe0)"><path d="M 6.0 196.0 L 251.0 196.0 L 251.0 6.0 L 6.0 6.0 Z M 5.6 195.6 " fill="#677188"></path></g></g><g><clipPath id="clip0x6100032ba220"><path d="M 4.6 6.1 L 252.1 6.1 L 252.1 195.6 L 4.6 195.6 Z M 4.6 6.1 "></path></clipPath><g clip-path="url(#clip0x6100032ba220)"><text xml:space="preserve" font-family="Helvetica-Light,Helvetica" font-size="20.0" fill="#FEFFFE" transform="matrix(1.00, 0.00, -0.00, -1.00, 21.7, 93.2)">I</text><text xml:space="preserve" font-family="Helvetica-Light,Helvetica" font-size="20.0" fill="#FEFFFE" transform="matrix(1.00, 0.00, -0.00, -1.00, 27.2, 93.2)">M</text><text xml:space="preserve" font-family="Helvetica-Light,Helvetica" font-size="20.0" fill="#FEFFFE" transform="matrix(1.00, 0.00, -0.00, -1.00, 43.9, 93.2)">A</text><text xml:space="preserve" font-family="Helvetica-Light,Helvetica" font-size="20.0" fill="#FEFFFE" transform="matrix(1.00, 0.00, -0.00, -1.00, 57.2, 93.2)">G</text><text xml:space="preserve" font-family="Helvetica-Light,Helvetica" font-size="20.0" fill="#FEFFFE" transform="matrix(1.00, 0.00, -0.00, -1.00, 72.8, 93.2)">E</text><text xml:space="preserve" font-family="Helvetica-Light,Helvetica" font-size="20.0" fill="#FEFFFE" transform="matrix(1.00, 0.00, -0.00, -1.00, 85.0, 93.2)"> </text><text xml:space="preserve" font-family="Helvetica-Light,Helvetica" font-size="20.0" fill="#FEFFFE" transform="matrix(1.00, 0.00, -0.00, -1.00, 90.6, 93.2)">P</text><text xml:space="preserve" font-family="Helvetica-Light,Helvetica" font-size="20.0" fill="#FEFFFE" transform="matrix(1.00, 0.00, -0.00, -1.00, 102.8, 93.2)">L</text><text xml:space="preserve" font-family="Helvetica-Light,Helvetica" font-size="20.0" fill="#FEFFFE" transform="matrix(1.00, 0.00, -0.00, -1.00, 113.9, 93.2)">A</text><text xml:space="preserve" font-family="Helvetica-Light,Helvetica" font-size="20.0" fill="#FEFFFE" transform="matrix(1.00, 0.00, -0.00, -1.00, 127.2, 93.2)">C</text><text xml:space="preserve" font-family="Helvetica-Light,Helvetica" font-size="20.0" fill="#FEFFFE" transform="matrix(1.00, 0.00, -0.00, -1.00, 141.7, 93.2)">E</text><text xml:space="preserve" font-family="Helvetica-Light,Helvetica" font-size="20.0" fill="#FEFFFE" transform="matrix(1.00, 0.00, -0.00, -1.00, 153.9, 93.2)">H</text><text xml:space="preserve" font-family="Helvetica-Light,Helvetica" font-size="20.0" fill="#FEFFFE" transform="matrix(1.00, 0.00, -0.00, -1.00, 168.3, 93.2)">O</text><text xml:space="preserve" font-family="Helvetica-Light,Helvetica" font-size="20.0" fill="#FEFFFE" transform="matrix(1.00, 0.00, -0.00, -1.00, 183.9, 93.2)">L</text><text xml:space="preserve" font-family="Helvetica-Light,Helvetica" font-size="20.0" fill="#FEFFFE" transform="matrix(1.00, 0.00, -0.00, -1.00, 195.0, 93.2)">D</text><text xml:space="preserve" font-family="Helvetica-Light,Helvetica" font-size="20.0" fill="#FEFFFE" transform="matrix(1.00, 0.00, -0.00, -1.00, 209.5, 93.2)">E</text><text xml:space="preserve" font-family="Helvetica-Light,Helvetica" font-size="20.0" fill="#FEFFFE" transform="matrix(1.00, 0.00, -0.00, -1.00, 221.7, 93.2)">R</text></g></g><g><clipPath id="clip0x6100032baa60"><path d="M 0.7 0.5 L 256.0 0.5 L 256.0 201.2 L 0.7 201.2 Z M 0.7 0.5 "></path></clipPath><g clip-path="url(#clip0x6100032baa60)"><path d="M 0.3 0.2 L 251.3 0.2 L 251.3 196.2 L 0.3 196.2 Z M 0.0 0.0 " fill="none" stroke="#677188" stroke-width="2.00" transform="matrix(1.00, 0.00, 0.00, -1.00, 2.7, 199.2)"></path></g></g></g></svg>