<?xml version="1.0" encoding="UTF-8" standalone="no"?><svg xmlns="http://www.w3.org/2000/svg" xmlns:xlink="http://www.w3.org/1999/xlink" clip-rule="evenodd" stroke-miterlimit="10" viewBox="0 0 137 142"><desc>SVG generated by Keynote</desc><defs></defs><g transform="matrix(1.00, 0.00, -0.00, -1.00, 0.0, 142.0)"><g><clipPath id="clip0x6000046b81e0"><path d="M 0.1 3.2 L 136.1 3.2 L 136.1 139.2 L 0.1 139.2 Z M 0.1 3.2 "></path></clipPath><g clip-path="url(#clip0x6000046b81e0)"><path d="M 112.6 115.7 C 137.2 91.1 137.2 51.2 112.6 26.6 C 88.0 2.0 48.1 2.0 23.5 26.6 C -1.1 51.2 -1.1 91.1 23.5 115.7 C 48.1 140.3 88.0 140.3 112.6 115.7 Z M 112.6 115.7 " fill="#F6F6F6"></path><path d="M 107.5 18.5 C 132.2 43.1 132.2 82.9 107.5 107.5 C 82.9 132.2 43.1 132.2 18.5 107.5 C -6.2 82.9 -6.2 43.1 18.5 18.5 C 43.1 -6.2 82.9 -6.2 107.5 18.5 Z M 107.5 18.5 " fill="none" stroke="#F6F6F6" stroke-width="8.00" transform="matrix(1.00, 0.00, 0.00, -1.00, 5.1, 134.2)"></path></g></g><g><clipPath id="clip0x6000046b8c60"><path d="M -15.3 -27.1 L 151.4 -27.1 L 151.4 169.5 L -15.3 169.5 Z M -15.3 -27.1 "></path></clipPath><g clip-path="url(#clip0x6000046b8c60)"><image xlink:href="6B172B5D28E30130BF2BD13C27EEAECB.png" width="160.00" height="160.00" transform="matrix(0.62, 0.00, -0.00, -0.62, 18.1, 128.9)"></image><text xml:space="preserve" font-family="AppleColorEmoji,Apple Color Emoji" font-size="100.0" fill="#5A6378" transform="matrix(1.00, 0.00, -0.00, -1.00, 18.1, 36.9)">â³</text></g></g></g></svg>