<?xml version="1.0" encoding="UTF-8" standalone="no"?><svg xmlns="http://www.w3.org/2000/svg" xmlns:xlink="http://www.w3.org/1999/xlink" clip-rule="evenodd" stroke-miterlimit="10" viewBox="0 0 137 137"><desc>SVG generated by Keynote</desc><defs></defs><g transform="matrix(1.00, 0.00, -0.00, -1.00, 0.0, 137.0)"><g><clipPath id="clip0x6180040b7040"><path d="M 0.9 0.5 L 136.9 0.5 L 136.9 136.5 L 0.9 136.5 Z M 0.9 0.5 "></path></clipPath><g clip-path="url(#clip0x6180040b7040)"><path d="M 113.5 113.1 C 138.1 88.5 138.1 48.6 113.5 24.0 C 88.9 -0.6 49.0 -0.6 24.4 24.0 C -0.2 48.6 -0.2 88.5 24.4 113.1 C 49.0 137.7 88.9 137.7 113.5 113.1 Z M 113.5 113.1 " fill="#F6F6F6"></path><path d="M 107.5 18.5 C 132.2 43.1 132.2 82.9 107.5 107.5 C 82.9 132.2 43.1 132.2 18.5 107.5 C -6.2 82.9 -6.2 43.1 18.5 18.5 C 43.1 -6.2 82.9 -6.2 107.5 18.5 Z M 107.5 18.5 " fill="none" stroke="#F6F6F6" stroke-width="8.00" transform="matrix(1.00, 0.00, 0.00, -1.00, 5.9, 131.5)"></path></g></g><g><clipPath id="clip0x6180040b7520"><path d="M -16.0 -24.5 L 153.9 -24.5 L 153.9 149.7 L -16.0 149.7 Z M -16.0 -24.5 "></path></clipPath><g clip-path="url(#clip0x6180040b7520)"><text xml:space="preserve" font-family="LastResort,LastResort" font-size="100.0" fill="#566178" transform="matrix(1.00, 0.00, -0.00, -1.00, 11.6, 39.5)"></text><text xml:space="preserve" font-family="LastResort,LastResort" font-size="100.0" fill="#566178" transform="matrix(1.00, 0.00, -0.00, -1.00, 126.3, 39.5)"></text><text xml:space="preserve" font-family="LastResort,LastResort" font-size="100.0" fill="#566178" transform="matrix(1.00, 0.00, -0.00, -1.00, 241.1, 39.5)"></text><text xml:space="preserve" font-family="LastResort,LastResort" font-size="100.0" fill="#566178" transform="matrix(1.00, 0.00, -0.00, -1.00, 355.8, 39.5)"></text><text xml:space="preserve" font-family="LastResort,LastResort" font-size="100.0" fill="#566178" transform="matrix(1.00, 0.00, -0.00, -1.00, 470.6, 39.5)"></text><text xml:space="preserve" font-family="LastResort,LastResort" font-size="100.0" fill="#566178" transform="matrix(1.00, 0.00, -0.00, -1.00, 585.3, 39.5)"></text><text xml:space="preserve" font-family="LastResort,LastResort" font-size="100.0" fill="#566178" transform="matrix(1.00, 0.00, -0.00, -1.00, 700.1, 39.5)"></text><text xml:space="preserve" font-family="LastResort,LastResort" font-size="100.0" fill="#566178" transform="matrix(1.00, 0.00, -0.00, -1.00, 814.8, 39.5)"></text><text xml:space="preserve" font-family="LastResort,LastResort" font-size="100.0" fill="#566178" transform="matrix(1.00, 0.00, -0.00, -1.00, 929.5, 39.5)"></text><text xml:space="preserve" font-family="LastResort,LastResort" font-size="100.0" fill="#566178" transform="matrix(1.00, 0.00, -0.00, -1.00, 1044.3, 39.5)"></text><text xml:space="preserve" font-family="LastResort,LastResort" font-size="100.0" fill="#566178" transform="matrix(1.00, 0.00, -0.00, -1.00, 1159.0, 39.5)"></text><text xml:space="preserve" font-family="LastResort,LastResort" font-size="100.0" fill="#566178" transform="matrix(1.00, 0.00, -0.00, -1.00, 1273.8, 39.5)"></text><text xml:space="preserve" font-family="LastResort,LastResort" font-size="100.0" fill="#566178" transform="matrix(1.00, 0.00, -0.00, -1.00, 1388.5, 39.5)"></text><text xml:space="preserve" font-family="LastResort,LastResort" font-size="100.0" fill="#566178" transform="matrix(1.00, 0.00, -0.00, -1.00, 1503.3, 39.5)"></text><text xml:space="preserve" font-family="LastResort,LastResort" font-size="100.0" fill="#566178" transform="matrix(1.00, 0.00, -0.00, -1.00, 1618.0, 39.5)"></text><text xml:space="preserve" font-family="LastResort,LastResort" font-size="100.0" fill="#566178" transform="matrix(1.00, 0.00, -0.00, -1.00, 1732.8, 39.5)"></text><text xml:space="preserve" font-family="LastResort,LastResort" font-size="100.0" fill="#566178" transform="matrix(1.00, 0.00, -0.00, -1.00, 1847.5, 39.5)"></text><text xml:space="preserve" font-family="LastResort,LastResort" font-size="100.0" fill="#566178" transform="matrix(1.00, 0.00, -0.00, -1.00, 1962.3, 39.5)"></text><text xml:space="preserve" font-family="LastResort,LastResort" font-size="100.0" fill="#566178" transform="matrix(1.00, 0.00, -0.00, -1.00, 2077.0, 39.5)"></text><text xml:space="preserve" font-family="LastResort,LastResort" font-size="100.0" fill="#566178" transform="matrix(1.00, 0.00, -0.00, -1.00, 2191.7, 39.5)"></text><text xml:space="preserve" font-family="LastResort,LastResort" font-size="100.0" fill="#566178" transform="matrix(1.00, 0.00, -0.00, -1.00, 2306.5, 39.5)"></text><text xml:space="preserve" font-family="LastResort,LastResort" font-size="100.0" fill="#566178" transform="matrix(1.00, 0.00, -0.00, -1.00, 2421.2, 39.5)"></text><text xml:space="preserve" font-family="LastResort,LastResort" font-size="100.0" fill="#566178" transform="matrix(1.00, 0.00, -0.00, -1.00, 2536.0, 39.5)"></text><text xml:space="preserve" font-family="LastResort,LastResort" font-size="100.0" fill="#566178" transform="matrix(1.00, 0.00, -0.00, -1.00, 2650.7, 39.5)"></text><text xml:space="preserve" font-family="LastResort,LastResort" font-size="100.0" fill="#566178" transform="matrix(1.00, 0.00, -0.00, -1.00, 2765.5, 39.5)"></text><text xml:space="preserve" font-family="LastResort,LastResort" font-size="100.0" fill="#566178" transform="matrix(1.00, 0.00, -0.00, -1.00, 2880.2, 39.5)"></text><text xml:space="preserve" font-family="LastResort,LastResort" font-size="100.0" fill="#566178" transform="matrix(1.00, 0.00, -0.00, -1.00, 2995.0, 39.5)"></text><text xml:space="preserve" font-family="LastResort,LastResort" font-size="100.0" fill="#566178" transform="matrix(1.00, 0.00, -0.00, -1.00, 3109.7, 39.5)"></text><text xml:space="preserve" font-family="LastResort,LastResort" font-size="100.0" fill="#566178" transform="matrix(1.00, 0.00, -0.00, -1.00, 3224.5, 39.5)"></text><text xml:space="preserve" font-family="LastResort,LastResort" font-size="100.0" fill="#566178" transform="matrix(1.00, 0.00, -0.00, -1.00, 3339.2, 39.5)"></text><text xml:space="preserve" font-family="LastResort,LastResort" font-size="100.0" fill="#566178" transform="matrix(1.00, 0.00, -0.00, -1.00, 3454.0, 39.5)"></text><text xml:space="preserve" font-family="LastResort,LastResort" font-size="100.0" fill="#566178" transform="matrix(1.00, 0.00, -0.00, -1.00, 3568.7, 39.5)"></text><text xml:space="preserve" font-family="LastResort,LastResort" font-size="100.0" fill="#566178" transform="matrix(1.00, 0.00, -0.00, -1.00, 3683.4, 39.5)"></text><text xml:space="preserve" font-family="LastResort,LastResort" font-size="100.0" fill="#566178" transform="matrix(1.00, 0.00, -0.00, -1.00, 3798.2, 39.5)"></text><text xml:space="preserve" font-family="LastResort,LastResort" font-size="100.0" fill="#566178" transform="matrix(1.00, 0.00, -0.00, -1.00, 3912.9, 39.5)"></text><text xml:space="preserve" font-family="LastResort,LastResort" font-size="100.0" fill="#566178" transform="matrix(1.00, 0.00, -0.00, -1.00, 4027.7, 39.5)"></text><text xml:space="preserve" font-family="LastResort,LastResort" font-size="100.0" fill="#566178" transform="matrix(1.00, 0.00, -0.00, -1.00, 4142.4, 39.5)"></text><text xml:space="preserve" font-family="LastResort,LastResort" font-size="100.0" fill="#566178" transform="matrix(1.00, 0.00, -0.00, -1.00, 4257.2, 39.5)"></text><text xml:space="preserve" font-family="LastResort,LastResort" font-size="100.0" fill="#566178" transform="matrix(1.00, 0.00, -0.00, -1.00, 4371.9, 39.5)"></text><text xml:space="preserve" font-family="LastResort,LastResort" font-size="100.0" fill="#566178" transform="matrix(1.00, 0.00, -0.00, -1.00, 4486.7, 39.5)"></text><text xml:space="preserve" font-family="LastResort,LastResort" font-size="100.0" fill="#566178" transform="matrix(1.00, 0.00, -0.00, -1.00, 4601.4, 39.5)"></text><text xml:space="preserve" font-family="LastResort,LastResort" font-size="100.0" fill="#566178" transform="matrix(1.00, 0.00, -0.00, -1.00, 4716.2, 39.5)"></text><text xml:space="preserve" font-family="LastResort,LastResort" font-size="100.0" fill="#566178" transform="matrix(1.00, 0.00, -0.00, -1.00, 4830.9, 39.5)"></text><text xml:space="preserve" font-family="LastResort,LastResort" font-size="100.0" fill="#566178" transform="matrix(1.00, 0.00, -0.00, -1.00, 4945.7, 39.5)"></text><text xml:space="preserve" font-family="LastResort,LastResort" font-size="100.0" fill="#566178" transform="matrix(1.00, 0.00, -0.00, -1.00, 5060.4, 39.5)"></text><text xml:space="preserve" font-family="LastResort,LastResort" font-size="100.0" fill="#566178" transform="matrix(1.00, 0.00, -0.00, -1.00, 5175.1, 39.5)"></text><text xml:space="preserve" font-family="LastResort,LastResort" font-size="100.0" fill="#566178" transform="matrix(1.00, 0.00, -0.00, -1.00, 5289.9, 39.5)"></text><text xml:space="preserve" font-family="LastResort,LastResort" font-size="100.0" fill="#566178" transform="matrix(1.00, 0.00, -0.00, -1.00, 5404.6, 39.5)"></text><text xml:space="preserve" font-family="LastResort,LastResort" font-size="100.0" fill="#566178" transform="matrix(1.00, 0.00, -0.00, -1.00, 5519.4, 39.5)"></text><text xml:space="preserve" font-family="LastResort,LastResort" font-size="100.0" fill="#566178" transform="matrix(1.00, 0.00, -0.00, -1.00, 5634.1, 39.5)"></text><text xml:space="preserve" font-family="LastResort,LastResort" font-size="100.0" fill="#566178" transform="matrix(1.00, 0.00, -0.00, -1.00, 5748.9, 39.5)"></text><text xml:space="preserve" font-family="LastResort,LastResort" font-size="100.0" fill="#566178" transform="matrix(1.00, 0.00, -0.00, -1.00, 5863.6, 39.5)"></text><text xml:space="preserve" font-family="LastResort,LastResort" font-size="100.0" fill="#566178" transform="matrix(1.00, 0.00, -0.00, -1.00, 5978.4, 39.5)"></text><text xml:space="preserve" font-family="LastResort,LastResort" font-size="100.0" fill="#566178" transform="matrix(1.00, 0.00, -0.00, -1.00, 6093.1, 39.5)"></text><text xml:space="preserve" font-family="LastResort,LastResort" font-size="100.0" fill="#566178" transform="matrix(1.00, 0.00, -0.00, -1.00, 6207.9, 39.5)"></text><text xml:space="preserve" font-family="LastResort,LastResort" font-size="100.0" fill="#566178" transform="matrix(1.00, 0.00, -0.00, -1.00, 6322.6, 39.5)"></text><text xml:space="preserve" font-family="LastResort,LastResort" font-size="100.0" fill="#566178" transform="matrix(1.00, 0.00, -0.00, -1.00, 6437.4, 39.5)"></text><text xml:space="preserve" font-family="LastResort,LastResort" font-size="100.0" fill="#566178" transform="matrix(1.00, 0.00, -0.00, -1.00, 6552.1, 39.5)"></text><text xml:space="preserve" font-family="LastResort,LastResort" font-size="100.0" fill="#566178" transform="matrix(1.00, 0.00, -0.00, -1.00, 6666.8, 39.5)"></text><text xml:space="preserve" font-family="LastResort,LastResort" font-size="100.0" fill="#566178" transform="matrix(1.00, 0.00, -0.00, -1.00, 6781.6, 39.5)"></text><text xml:space="preserve" font-family="LastResort,LastResort" font-size="100.0" fill="#566178" transform="matrix(1.00, 0.00, -0.00, -1.00, 6896.3, 39.5)"></text><text xml:space="preserve" font-family="LastResort,LastResort" font-size="100.0" fill="#566178" transform="matrix(1.00, 0.00, -0.00, -1.00, 7011.1, 39.5)"></text><text xml:space="preserve" font-family="LastResort,LastResort" font-size="100.0" fill="#566178" transform="matrix(1.00, 0.00, -0.00, -1.00, 7125.8, 39.5)"></text><text xml:space="preserve" font-family="LastResort,LastResort" font-size="100.0" fill="#566178" transform="matrix(1.00, 0.00, -0.00, -1.00, 7240.6, 39.5)"></text><text xml:space="preserve" font-family="LastResort,LastResort" font-size="100.0" fill="#566178" transform="matrix(1.00, 0.00, -0.00, -1.00, 7355.3, 39.5)"></text><text xml:space="preserve" font-family="LastResort,LastResort" font-size="100.0" fill="#566178" transform="matrix(1.00, 0.00, -0.00, -1.00, 7470.1, 39.5)"></text><text xml:space="preserve" font-family="LastResort,LastResort" font-size="100.0" fill="#566178" transform="matrix(1.00, 0.00, -0.00, -1.00, 7584.8, 39.5)"></text><text xml:space="preserve" font-family="LastResort,LastResort" font-size="100.0" fill="#566178" transform="matrix(1.00, 0.00, -0.00, -1.00, 7699.6, 39.5)"></text><text xml:space="preserve" font-family="LastResort,LastResort" font-size="100.0" fill="#566178" transform="matrix(1.00, 0.00, -0.00, -1.00, 7814.3, 39.5)"></text><text xml:space="preserve" font-family="LastResort,LastResort" font-size="100.0" fill="#566178" transform="matrix(1.00, 0.00, -0.00, -1.00, 7929.1, 39.5)"></text><text xml:space="preserve" font-family="LastResort,LastResort" font-size="100.0" fill="#566178" transform="matrix(1.00, 0.00, -0.00, -1.00, 8043.8, 39.5)"></text><text xml:space="preserve" font-family="LastResort,LastResort" font-size="100.0" fill="#566178" transform="matrix(1.00, 0.00, -0.00, -1.00, 8158.5, 39.5)"></text><text xml:space="preserve" font-family="LastResort,LastResort" font-size="100.0" fill="#566178" transform="matrix(1.00, 0.00, -0.00, -1.00, 8273.3, 39.5)"></text><text xml:space="preserve" font-family="LastResort,LastResort" font-size="100.0" fill="#566178" transform="matrix(1.00, 0.00, -0.00, -1.00, 8388.0, 39.5)"></text><text xml:space="preserve" font-family="LastResort,LastResort" font-size="100.0" fill="#566178" transform="matrix(1.00, 0.00, -0.00, -1.00, 8502.8, 39.5)"></text><text xml:space="preserve" font-family="LastResort,LastResort" font-size="100.0" fill="#566178" transform="matrix(1.00, 0.00, -0.00, -1.00, 8617.5, 39.5)"></text><text xml:space="preserve" font-family="LastResort,LastResort" font-size="100.0" fill="#566178" transform="matrix(1.00, 0.00, -0.00, -1.00, 8732.3, 39.5)"></text><text xml:space="preserve" font-family="LastResort,LastResort" font-size="100.0" fill="#566178" transform="matrix(1.00, 0.00, -0.00, -1.00, 8847.0, 39.5)"></text><text xml:space="preserve" font-family="LastResort,LastResort" font-size="100.0" fill="#566178" transform="matrix(1.00, 0.00, -0.00, -1.00, 8961.8, 39.5)"></text><text xml:space="preserve" font-family="LastResort,LastResort" font-size="100.0" fill="#566178" transform="matrix(1.00, 0.00, -0.00, -1.00, 9076.5, 39.5)"></text><text xml:space="preserve" font-family="LastResort,LastResort" font-size="100.0" fill="#566178" transform="matrix(1.00, 0.00, -0.00, -1.00, 9191.3, 39.5)"></text><text xml:space="preserve" font-family="LastResort,LastResort" font-size="100.0" fill="#566178" transform="matrix(1.00, 0.00, -0.00, -1.00, 9306.0, 39.5)"></text><text xml:space="preserve" font-family="LastResort,LastResort" font-size="100.0" fill="#566178" transform="matrix(1.00, 0.00, -0.00, -1.00, 9420.8, 39.5)"></text><text xml:space="preserve" font-family="LastResort,LastResort" font-size="100.0" fill="#566178" transform="matrix(1.00, 0.00, -0.00, -1.00, 9535.5, 39.5)"></text><text xml:space="preserve" font-family="LastResort,LastResort" font-size="100.0" fill="#566178" transform="matrix(1.00, 0.00, -0.00, -1.00, 9650.2, 39.5)"></text><text xml:space="preserve" font-family="LastResort,LastResort" font-size="100.0" fill="#566178" transform="matrix(1.00, 0.00, -0.00, -1.00, 9765.0, 39.5)"></text><text xml:space="preserve" font-family="LastResort,LastResort" font-size="100.0" fill="#566178" transform="matrix(1.00, 0.00, -0.00, -1.00, 9879.7, 39.5)"></text><text xml:space="preserve" font-family="LastResort,LastResort" font-size="100.0" fill="#566178" transform="matrix(1.00, 0.00, -0.00, -1.00, 9994.5, 39.5)"></text><text xml:space="preserve" font-family="LastResort,LastResort" font-size="100.0" fill="#566178" transform="matrix(1.00, 0.00, -0.00, -1.00, 10109.2, 39.5)"></text><text xml:space="preserve" font-family="LastResort,LastResort" font-size="100.0" fill="#566178" transform="matrix(1.00, 0.00, -0.00, -1.00, 10224.0, 39.5)"></text><text xml:space="preserve" font-family="LastResort,LastResort" font-size="100.0" fill="#566178" transform="matrix(1.00, 0.00, -0.00, -1.00, 10338.7, 39.5)"></text><text xml:space="preserve" font-family="LastResort,LastResort" font-size="100.0" fill="#566178" transform="matrix(1.00, 0.00, -0.00, -1.00, 10453.5, 39.5)"></text><text xml:space="preserve" font-family="LastResort,LastResort" font-size="100.0" fill="#566178" transform="matrix(1.00, 0.00, -0.00, -1.00, 10568.2, 39.5)"></text><text xml:space="preserve" font-family="LastResort,LastResort" font-size="100.0" fill="#566178" transform="matrix(1.00, 0.00, -0.00, -1.00, 10683.0, 39.5)"></text><text xml:space="preserve" font-family="LastResort,LastResort" font-size="100.0" fill="#566178" transform="matrix(1.00, 0.00, -0.00, -1.00, 10797.7, 39.5)"></text><text xml:space="preserve" font-family="LastResort,LastResort" font-size="100.0" fill="#566178" transform="matrix(1.00, 0.00, -0.00, -1.00, 10912.5, 39.5)"></text><text xml:space="preserve" font-family="LastResort,LastResort" font-size="100.0" fill="#566178" transform="matrix(1.00, 0.00, -0.00, -1.00, 11027.2, 39.5)"></text><text xml:space="preserve" font-family="LastResort,LastResort" font-size="100.0" fill="#566178" transform="matrix(1.00, 0.00, -0.00, -1.00, 11141.9, 39.5)"></text><text xml:space="preserve" font-family="LastResort,LastResort" font-size="100.0" fill="#566178" transform="matrix(1.00, 0.00, -0.00, -1.00, 11256.7, 39.5)"></text><text xml:space="preserve" font-family="LastResort,LastResort" font-size="100.0" fill="#566178" transform="matrix(1.00, 0.00, -0.00, -1.00, 11371.4, 39.5)"></text><text xml:space="preserve" font-family="LastResort,LastResort" font-size="100.0" fill="#566178" transform="matrix(1.00, 0.00, -0.00, -1.00, 11486.2, 39.5)"></text><text xml:space="preserve" font-family="LastResort,LastResort" font-size="100.0" fill="#566178" transform="matrix(1.00, 0.00, -0.00, -1.00, 11600.9, 39.5)"></text><text xml:space="preserve" font-family="LastResort,LastResort" font-size="100.0" fill="#566178" transform="matrix(1.00, 0.00, -0.00, -1.00, 11715.7, 39.5)"></text><text xml:space="preserve" font-family="LastResort,LastResort" font-size="100.0" fill="#566178" transform="matrix(1.00, 0.00, -0.00, -1.00, 11830.4, 39.5)"></text><text xml:space="preserve" font-family="LastResort,LastResort" font-size="100.0" fill="#566178" transform="matrix(1.00, 0.00, -0.00, -1.00, 11945.2, 39.5)"></text><text xml:space="preserve" font-family="LastResort,LastResort" font-size="100.0" fill="#566178" transform="matrix(1.00, 0.00, -0.00, -1.00, 12059.9, 39.5)"></text><text xml:space="preserve" font-family="LastResort,LastResort" font-size="100.0" fill="#566178" transform="matrix(1.00, 0.00, -0.00, -1.00, 12174.7, 39.5)"></text><text xml:space="preserve" font-family="LastResort,LastResort" font-size="100.0" fill="#566178" transform="matrix(1.00, 0.00, -0.00, -1.00, 12289.4, 39.5)"></text><text xml:space="preserve" font-family="LastResort,LastResort" font-size="100.0" fill="#566178" transform="matrix(1.00, 0.00, -0.00, -1.00, 12404.2, 39.5)"></text><text xml:space="preserve" font-family="LastResort,LastResort" font-size="100.0" fill="#566178" transform="matrix(1.00, 0.00, -0.00, -1.00, 12518.9, 39.5)"></text><text xml:space="preserve" font-family="LastResort,LastResort" font-size="100.0" fill="#566178" transform="matrix(1.00, 0.00, -0.00, -1.00, 12633.6, 39.5)"></text><text xml:space="preserve" font-family="LastResort,LastResort" font-size="100.0" fill="#566178" transform="matrix(1.00, 0.00, -0.00, -1.00, 12748.4, 39.5)"></text><text xml:space="preserve" font-family="LastResort,LastResort" font-size="100.0" fill="#566178" transform="matrix(1.00, 0.00, -0.00, -1.00, 12863.1, 39.5)"></text><text xml:space="preserve" font-family="LastResort,LastResort" font-size="100.0" fill="#566178" transform="matrix(1.00, 0.00, -0.00, -1.00, 12977.9, 39.5)"></text><text xml:space="preserve" font-family="LastResort,LastResort" font-size="100.0" fill="#566178" transform="matrix(1.00, 0.00, -0.00, -1.00, 13092.6, 39.5)"></text><text xml:space="preserve" font-family="LastResort,LastResort" font-size="100.0" fill="#566178" transform="matrix(1.00, 0.00, -0.00, -1.00, 13207.4, 39.5)"></text><text xml:space="preserve" font-family="LastResort,LastResort" font-size="100.0" fill="#566178" transform="matrix(1.00, 0.00, -0.00, -1.00, 13322.1, 39.5)"></text><text xml:space="preserve" font-family="LastResort,LastResort" font-size="100.0" fill="#566178" transform="matrix(1.00, 0.00, -0.00, -1.00, 13436.9, 39.5)"></text><text xml:space="preserve" font-family="LastResort,LastResort" font-size="100.0" fill="#566178" transform="matrix(1.00, 0.00, -0.00, -1.00, 13551.6, 39.5)"></text><text xml:space="preserve" font-family="LastResort,LastResort" font-size="100.0" fill="#566178" transform="matrix(1.00, 0.00, -0.00, -1.00, 13666.4, 39.5)"></text><text xml:space="preserve" font-family="LastResort,LastResort" font-size="100.0" fill="#566178" transform="matrix(1.00, 0.00, -0.00, -1.00, 13781.1, 39.5)"></text><text xml:space="preserve" font-family="LastResort,LastResort" font-size="100.0" fill="#566178" transform="matrix(1.00, 0.00, -0.00, -1.00, 13895.9, 39.5)"></text><text xml:space="preserve" font-family="LastResort,LastResort" font-size="100.0" fill="#566178" transform="matrix(1.00, 0.00, -0.00, -1.00, 14010.6, 39.5)"></text><text xml:space="preserve" font-family="LastResort,LastResort" font-size="100.0" fill="#566178" transform="matrix(1.00, 0.00, -0.00, -1.00, 14125.3, 39.5)"></text><text xml:space="preserve" font-family="LastResort,LastResort" font-size="100.0" fill="#566178" transform="matrix(1.00, 0.00, -0.00, -1.00, 14240.1, 39.5)"></text><text xml:space="preserve" font-family="LastResort,LastResort" font-size="100.0" fill="#566178" transform="matrix(1.00, 0.00, -0.00, -1.00, 14354.8, 39.5)"></text><text xml:space="preserve" font-family="LastResort,LastResort" font-size="100.0" fill="#566178" transform="matrix(1.00, 0.00, -0.00, -1.00, 14469.6, 39.5)"></text><text xml:space="preserve" font-family="LastResort,LastResort" font-size="100.0" fill="#566178" transform="matrix(1.00, 0.00, -0.00, -1.00, 14584.3, 39.5)"></text><text xml:space="preserve" font-family="LastResort,LastResort" font-size="100.0" fill="#566178" transform="matrix(1.00, 0.00, -0.00, -1.00, 14699.1, 39.5)"></text><text xml:space="preserve" font-family="LastResort,LastResort" font-size="100.0" fill="#566178" transform="matrix(1.00, 0.00, -0.00, -1.00, 14813.8, 39.5)"></text><text xml:space="preserve" font-family="LastResort,LastResort" font-size="100.0" fill="#566178" transform="matrix(1.00, 0.00, -0.00, -1.00, 14928.6, 39.5)"></text><text xml:space="preserve" font-family="LastResort,LastResort" font-size="100.0" fill="#566178" transform="matrix(1.00, 0.00, -0.00, -1.00, 15043.3, 39.5)"></text><text xml:space="preserve" font-family="LastResort,LastResort" font-size="100.0" fill="#566178" transform="matrix(1.00, 0.00, -0.00, -1.00, 15158.1, 39.5)"></text><text xml:space="preserve" font-family="LastResort,LastResort" font-size="100.0" fill="#566178" transform="matrix(1.00, 0.00, -0.00, -1.00, 15272.8, 39.5)"></text><text xml:space="preserve" font-family="LastResort,LastResort" font-size="100.0" fill="#566178" transform="matrix(1.00, 0.00, -0.00, -1.00, 15387.6, 39.5)"></text><text xml:space="preserve" font-family="LastResort,LastResort" font-size="100.0" fill="#566178" transform="matrix(1.00, 0.00, -0.00, -1.00, 15502.3, 39.5)"></text><text xml:space="preserve" font-family="LastResort,LastResort" font-size="100.0" fill="#566178" transform="matrix(1.00, 0.00, -0.00, -1.00, 15617.0, 39.5)"></text><text xml:space="preserve" font-family="LastResort,LastResort" font-size="100.0" fill="#566178" transform="matrix(1.00, 0.00, -0.00, -1.00, 15731.8, 39.5)"></text><text xml:space="preserve" font-family="LastResort,LastResort" font-size="100.0" fill="#566178" transform="matrix(1.00, 0.00, -0.00, -1.00, 15846.5, 39.5)"></text><text xml:space="preserve" font-family="LastResort,LastResort" font-size="100.0" fill="#566178" transform="matrix(1.00, 0.00, -0.00, -1.00, 15961.3, 39.5)"></text><text xml:space="preserve" font-family="LastResort,LastResort" font-size="100.0" fill="#566178" transform="matrix(1.00, 0.00, -0.00, -1.00, 16076.0, 39.5)"></text><text xml:space="preserve" font-family="LastResort,LastResort" font-size="100.0" fill="#566178" transform="matrix(1.00, 0.00, -0.00, -1.00, 16190.8, 39.5)"></text><text xml:space="preserve" font-family="LastResort,LastResort" font-size="100.0" fill="#566178" transform="matrix(1.00, 0.00, -0.00, -1.00, 16305.5, 39.5)"></text><text xml:space="preserve" font-family="LastResort,LastResort" font-size="100.0" fill="#566178" transform="matrix(1.00, 0.00, -0.00, -1.00, 16420.3, 39.5)"></text><text xml:space="preserve" font-family="LastResort,LastResort" font-size="100.0" fill="#566178" transform="matrix(1.00, 0.00, -0.00, -1.00, 16535.0, 39.5)"></text><text xml:space="preserve" font-family="LastResort,LastResort" font-size="100.0" fill="#566178" transform="matrix(1.00, 0.00, -0.00, -1.00, 16649.8, 39.5)"></text><text xml:space="preserve" font-family="LastResort,LastResort" font-size="100.0" fill="#566178" transform="matrix(1.00, 0.00, -0.00, -1.00, 16764.5, 39.5)"></text><text xml:space="preserve" font-family="LastResort,LastResort" font-size="100.0" fill="#566178" transform="matrix(1.00, 0.00, -0.00, -1.00, 16879.2, 39.5)"></text><text xml:space="preserve" font-family="LastResort,LastResort" font-size="100.0" fill="#566178" transform="matrix(1.00, 0.00, -0.00, -1.00, 16994.0, 39.5)"></text><text xml:space="preserve" font-family="LastResort,LastResort" font-size="100.0" fill="#566178" transform="matrix(1.00, 0.00, -0.00, -1.00, 17108.7, 39.5)"></text><text xml:space="preserve" font-family="LastResort,LastResort" font-size="100.0" fill="#566178" transform="matrix(1.00, 0.00, -0.00, -1.00, 17223.5, 39.5)"></text><text xml:space="preserve" font-family="LastResort,LastResort" font-size="100.0" fill="#566178" transform="matrix(1.00, 0.00, -0.00, -1.00, 17338.2, 39.5)"></text><text xml:space="preserve" font-family="LastResort,LastResort" font-size="100.0" fill="#566178" transform="matrix(1.00, 0.00, -0.00, -1.00, 17453.0, 39.5)"></text><text xml:space="preserve" font-family="LastResort,LastResort" font-size="100.0" fill="#566178" transform="matrix(1.00, 0.00, -0.00, -1.00, 17567.7, 39.5)"></text><text xml:space="preserve" font-family="LastResort,LastResort" font-size="100.0" fill="#566178" transform="matrix(1.00, 0.00, -0.00, -1.00, 17682.5, 39.5)"></text><text xml:space="preserve" font-family="LastResort,LastResort" font-size="100.0" fill="#566178" transform="matrix(1.00, 0.00, -0.00, -1.00, 17797.2, 39.5)"></text><text xml:space="preserve" font-family="LastResort,LastResort" font-size="100.0" fill="#566178" transform="matrix(1.00, 0.00, -0.00, -1.00, 17912.0, 39.5)"></text><text xml:space="preserve" font-family="LastResort,LastResort" font-size="100.0" fill="#566178" transform="matrix(1.00, 0.00, -0.00, -1.00, 18026.7, 39.5)"></text><text xml:space="preserve" font-family="LastResort,LastResort" font-size="100.0" fill="#566178" transform="matrix(1.00, 0.00, -0.00, -1.00, 18141.5, 39.5)"></text><text xml:space="preserve" font-family="LastResort,LastResort" font-size="100.0" fill="#566178" transform="matrix(1.00, 0.00, -0.00, -1.00, 18256.2, 39.5)"></text><text xml:space="preserve" font-family="LastResort,LastResort" font-size="100.0" fill="#566178" transform="matrix(1.00, 0.00, -0.00, -1.00, 18370.9, 39.5)"></text><text xml:space="preserve" font-family="LastResort,LastResort" font-size="100.0" fill="#566178" transform="matrix(1.00, 0.00, -0.00, -1.00, 18485.7, 39.5)"></text><text xml:space="preserve" font-family="LastResort,LastResort" font-size="100.0" fill="#566178" transform="matrix(1.00, 0.00, -0.00, -1.00, 18600.4, 39.5)"></text><text xml:space="preserve" font-family="LastResort,LastResort" font-size="100.0" fill="#566178" transform="matrix(1.00, 0.00, -0.00, -1.00, 18715.2, 39.5)"></text><text xml:space="preserve" font-family="LastResort,LastResort" font-size="100.0" fill="#566178" transform="matrix(1.00, 0.00, -0.00, -1.00, 18829.9, 39.5)"></text><text xml:space="preserve" font-family="LastResort,LastResort" font-size="100.0" fill="#566178" transform="matrix(1.00, 0.00, -0.00, -1.00, 18944.7, 39.5)"></text><text xml:space="preserve" font-family="LastResort,LastResort" font-size="100.0" fill="#566178" transform="matrix(1.00, 0.00, -0.00, -1.00, 19059.4, 39.5)"></text><text xml:space="preserve" font-family="LastResort,LastResort" font-size="100.0" fill="#566178" transform="matrix(1.00, 0.00, -0.00, -1.00, 19174.2, 39.5)"></text><text xml:space="preserve" font-family="LastResort,LastResort" font-size="100.0" fill="#566178" transform="matrix(1.00, 0.00, -0.00, -1.00, 19288.9, 39.5)"></text><text xml:space="preserve" font-family="LastResort,LastResort" font-size="100.0" fill="#566178" transform="matrix(1.00, 0.00, -0.00, -1.00, 19403.7, 39.5)"></text><text xml:space="preserve" font-family="LastResort,LastResort" font-size="100.0" fill="#566178" transform="matrix(1.00, 0.00, -0.00, -1.00, 19518.4, 39.5)"></text><text xml:space="preserve" font-family="LastResort,LastResort" font-size="100.0" fill="#566178" transform="matrix(1.00, 0.00, -0.00, -1.00, 19633.2, 39.5)"></text><text xml:space="preserve" font-family="LastResort,LastResort" font-size="100.0" fill="#566178" transform="matrix(1.00, 0.00, -0.00, -1.00, 19747.9, 39.5)"></text><text xml:space="preserve" font-family="LastResort,LastResort" font-size="100.0" fill="#566178" transform="matrix(1.00, 0.00, -0.00, -1.00, 19862.6, 39.5)"></text><text xml:space="preserve" font-family="LastResort,LastResort" font-size="100.0" fill="#566178" transform="matrix(1.00, 0.00, -0.00, -1.00, 19977.4, 39.5)"></text><text xml:space="preserve" font-family="LastResort,LastResort" font-size="100.0" fill="#566178" transform="matrix(1.00, 0.00, -0.00, -1.00, 20092.1, 39.5)"></text><text xml:space="preserve" font-family="LastResort,LastResort" font-size="100.0" fill="#566178" transform="matrix(1.00, 0.00, -0.00, -1.00, 20206.9, 39.5)"></text><text xml:space="preserve" font-family="LastResort,LastResort" font-size="100.0" fill="#566178" transform="matrix(1.00, 0.00, -0.00, -1.00, 20321.6, 39.5)"></text><text xml:space="preserve" font-family="LastResort,LastResort" font-size="100.0" fill="#566178" transform="matrix(1.00, 0.00, -0.00, -1.00, 20436.4, 39.5)"></text><text xml:space="preserve" font-family="LastResort,LastResort" font-size="100.0" fill="#566178" transform="matrix(1.00, 0.00, -0.00, -1.00, 20551.1, 39.5)"></text><text xml:space="preserve" font-family="LastResort,LastResort" font-size="100.0" fill="#566178" transform="matrix(1.00, 0.00, -0.00, -1.00, 20665.9, 39.5)"></text><text xml:space="preserve" font-family="LastResort,LastResort" font-size="100.0" fill="#566178" transform="matrix(1.00, 0.00, -0.00, -1.00, 20780.6, 39.5)"></text><text xml:space="preserve" font-family="LastResort,LastResort" font-size="100.0" fill="#566178" transform="matrix(1.00, 0.00, -0.00, -1.00, 20895.4, 39.5)"></text><text xml:space="preserve" font-family="LastResort,LastResort" font-size="100.0" fill="#566178" transform="matrix(1.00, 0.00, -0.00, -1.00, 21010.1, 39.5)"></text><text xml:space="preserve" font-family="LastResort,LastResort" font-size="100.0" fill="#566178" transform="matrix(1.00, 0.00, -0.00, -1.00, 21124.9, 39.5)"></text><text xml:space="preserve" font-family="LastResort,LastResort" font-size="100.0" fill="#566178" transform="matrix(1.00, 0.00, -0.00, -1.00, 21239.6, 39.5)"></text><text xml:space="preserve" font-family="LastResort,LastResort" font-size="100.0" fill="#566178" transform="matrix(1.00, 0.00, -0.00, -1.00, 21354.3, 39.5)"></text><text xml:space="preserve" font-family="LastResort,LastResort" font-size="100.0" fill="#566178" transform="matrix(1.00, 0.00, -0.00, -1.00, 21469.1, 39.5)"></text><text xml:space="preserve" font-family="LastResort,LastResort" font-size="100.0" fill="#566178" transform="matrix(1.00, 0.00, -0.00, -1.00, 21583.8, 39.5)"></text><text xml:space="preserve" font-family="LastResort,LastResort" font-size="100.0" fill="#566178" transform="matrix(1.00, 0.00, -0.00, -1.00, 21698.6, 39.5)"></text><text xml:space="preserve" font-family="LastResort,LastResort" font-size="100.0" fill="#566178" transform="matrix(1.00, 0.00, -0.00, -1.00, 21813.3, 39.5)"></text><text xml:space="preserve" font-family="LastResort,LastResort" font-size="100.0" fill="#566178" transform="matrix(1.00, 0.00, -0.00, -1.00, 21928.1, 39.5)"></text><text xml:space="preserve" font-family="LastResort,LastResort" font-size="100.0" fill="#566178" transform="matrix(1.00, 0.00, -0.00, -1.00, 22042.8, 39.5)"></text><text xml:space="preserve" font-family="LastResort,LastResort" font-size="100.0" fill="#566178" transform="matrix(1.00, 0.00, -0.00, -1.00, 22157.6, 39.5)"></text><text xml:space="preserve" font-family="LastResort,LastResort" font-size="100.0" fill="#566178" transform="matrix(1.00, 0.00, -0.00, -1.00, 22272.3, 39.5)"></text><text xml:space="preserve" font-family="LastResort,LastResort" font-size="100.0" fill="#566178" transform="matrix(1.00, 0.00, -0.00, -1.00, 22387.1, 39.5)"></text><text xml:space="preserve" font-family="LastResort,LastResort" font-size="100.0" fill="#566178" transform="matrix(1.00, 0.00, -0.00, -1.00, 22501.8, 39.5)"></text><text xml:space="preserve" font-family="LastResort,LastResort" font-size="100.0" fill="#566178" transform="matrix(1.00, 0.00, -0.00, -1.00, 22616.6, 39.5)"></text><text xml:space="preserve" font-family="LastResort,LastResort" font-size="100.0" fill="#566178" transform="matrix(1.00, 0.00, -0.00, -1.00, 22731.3, 39.5)"></text><text xml:space="preserve" font-family="LastResort,LastResort" font-size="100.0" fill="#566178" transform="matrix(1.00, 0.00, -0.00, -1.00, 22846.0, 39.5)"></text><text xml:space="preserve" font-family="LastResort,LastResort" font-size="100.0" fill="#566178" transform="matrix(1.00, 0.00, -0.00, -1.00, 22960.8, 39.5)"></text><text xml:space="preserve" font-family="LastResort,LastResort" font-size="100.0" fill="#566178" transform="matrix(1.00, 0.00, -0.00, -1.00, 23075.5, 39.5)"></text><text xml:space="preserve" font-family="LastResort,LastResort" font-size="100.0" fill="#566178" transform="matrix(1.00, 0.00, -0.00, -1.00, 23190.3, 39.5)"></text><text xml:space="preserve" font-family="LastResort,LastResort" font-size="100.0" fill="#566178" transform="matrix(1.00, 0.00, -0.00, -1.00, 23305.0, 39.5)"></text><text xml:space="preserve" font-family="LastResort,LastResort" font-size="100.0" fill="#566178" transform="matrix(1.00, 0.00, -0.00, -1.00, 23419.8, 39.5)"></text><text xml:space="preserve" font-family="LastResort,LastResort" font-size="100.0" fill="#566178" transform="matrix(1.00, 0.00, -0.00, -1.00, 23534.5, 39.5)"></text><text xml:space="preserve" font-family="LastResort,LastResort" font-size="100.0" fill="#566178" transform="matrix(1.00, 0.00, -0.00, -1.00, 23649.3, 39.5)"></text><text xml:space="preserve" font-family="LastResort,LastResort" font-size="100.0" fill="#566178" transform="matrix(1.00, 0.00, -0.00, -1.00, 23764.0, 39.5)"></text><text xml:space="preserve" font-family="LastResort,LastResort" font-size="100.0" fill="#566178" transform="matrix(1.00, 0.00, -0.00, -1.00, 23878.8, 39.5)"></text><text xml:space="preserve" font-family="LastResort,LastResort" font-size="100.0" fill="#566178" transform="matrix(1.00, 0.00, -0.00, -1.00, 23993.5, 39.5)"></text><text xml:space="preserve" font-family="LastResort,LastResort" font-size="100.0" fill="#566178" transform="matrix(1.00, 0.00, -0.00, -1.00, 24108.3, 39.5)"></text><text xml:space="preserve" font-family="LastResort,LastResort" font-size="100.0" fill="#566178" transform="matrix(1.00, 0.00, -0.00, -1.00, 24223.0, 39.5)"></text><text xml:space="preserve" font-family="LastResort,LastResort" font-size="100.0" fill="#566178" transform="matrix(1.00, 0.00, -0.00, -1.00, 24337.7, 39.5)"></text><text xml:space="preserve" font-family="LastResort,LastResort" font-size="100.0" fill="#566178" transform="matrix(1.00, 0.00, -0.00, -1.00, 24452.5, 39.5)"></text><text xml:space="preserve" font-family="LastResort,LastResort" font-size="100.0" fill="#566178" transform="matrix(1.00, 0.00, -0.00, -1.00, 24567.2, 39.5)"></text><text xml:space="preserve" font-family="LastResort,LastResort" font-size="100.0" fill="#566178" transform="matrix(1.00, 0.00, -0.00, -1.00, 24682.0, 39.5)"></text><text xml:space="preserve" font-family="LastResort,LastResort" font-size="100.0" fill="#566178" transform="matrix(1.00, 0.00, -0.00, -1.00, 24796.7, 39.5)"></text><text xml:space="preserve" font-family="LastResort,LastResort" font-size="100.0" fill="#566178" transform="matrix(1.00, 0.00, -0.00, -1.00, 24911.5, 39.5)"></text><text xml:space="preserve" font-family="LastResort,LastResort" font-size="100.0" fill="#566178" transform="matrix(1.00, 0.00, -0.00, -1.00, 25026.2, 39.5)"></text><text xml:space="preserve" font-family="LastResort,LastResort" font-size="100.0" fill="#566178" transform="matrix(1.00, 0.00, -0.00, -1.00, 25141.0, 39.5)"></text><text xml:space="preserve" font-family="LastResort,LastResort" font-size="100.0" fill="#566178" transform="matrix(1.00, 0.00, -0.00, -1.00, 25255.7, 39.5)"></text><text xml:space="preserve" font-family="LastResort,LastResort" font-size="100.0" fill="#566178" transform="matrix(1.00, 0.00, -0.00, -1.00, 25370.5, 39.5)"></text><text xml:space="preserve" font-family="LastResort,LastResort" font-size="100.0" fill="#566178" transform="matrix(1.00, 0.00, -0.00, -1.00, 25485.2, 39.5)"></text><text xml:space="preserve" font-family="LastResort,LastResort" font-size="100.0" fill="#566178" transform="matrix(1.00, 0.00, -0.00, -1.00, 25600.0, 39.5)"></text><text xml:space="preserve" font-family="LastResort,LastResort" font-size="100.0" fill="#566178" transform="matrix(1.00, 0.00, -0.00, -1.00, 25714.7, 39.5)"></text><text xml:space="preserve" font-family="LastResort,LastResort" font-size="100.0" fill="#566178" transform="matrix(1.00, 0.00, -0.00, -1.00, 25829.4, 39.5)"></text><text xml:space="preserve" font-family="LastResort,LastResort" font-size="100.0" fill="#566178" transform="matrix(1.00, 0.00, -0.00, -1.00, 25944.2, 39.5)"></text><text xml:space="preserve" font-family="LastResort,LastResort" font-size="100.0" fill="#566178" transform="matrix(1.00, 0.00, -0.00, -1.00, 26058.9, 39.5)"></text><text xml:space="preserve" font-family="LastResort,LastResort" font-size="100.0" fill="#566178" transform="matrix(1.00, 0.00, -0.00, -1.00, 26173.7, 39.5)"></text><text xml:space="preserve" font-family="LastResort,LastResort" font-size="100.0" fill="#566178" transform="matrix(1.00, 0.00, -0.00, -1.00, 26288.4, 39.5)"></text><text xml:space="preserve" font-family="LastResort,LastResort" font-size="100.0" fill="#566178" transform="matrix(1.00, 0.00, -0.00, -1.00, 26403.2, 39.5)"></text><text xml:space="preserve" font-family="LastResort,LastResort" font-size="100.0" fill="#566178" transform="matrix(1.00, 0.00, -0.00, -1.00, 26517.9, 39.5)"></text><text xml:space="preserve" font-family="LastResort,LastResort" font-size="100.0" fill="#566178" transform="matrix(1.00, 0.00, -0.00, -1.00, 26632.7, 39.5)"></text><text xml:space="preserve" font-family="LastResort,LastResort" font-size="100.0" fill="#566178" transform="matrix(1.00, 0.00, -0.00, -1.00, 26747.4, 39.5)"></text><text xml:space="preserve" font-family="LastResort,LastResort" font-size="100.0" fill="#566178" transform="matrix(1.00, 0.00, -0.00, -1.00, 26862.2, 39.5)"></text><text xml:space="preserve" font-family="LastResort,LastResort" font-size="100.0" fill="#566178" transform="matrix(1.00, 0.00, -0.00, -1.00, 26976.9, 39.5)"></text><text xml:space="preserve" font-family="LastResort,LastResort" font-size="100.0" fill="#566178" transform="matrix(1.00, 0.00, -0.00, -1.00, 27091.7, 39.5)"></text><text xml:space="preserve" font-family="LastResort,LastResort" font-size="100.0" fill="#566178" transform="matrix(1.00, 0.00, -0.00, -1.00, 27206.4, 39.5)"></text><text xml:space="preserve" font-family="LastResort,LastResort" font-size="100.0" fill="#566178" transform="matrix(1.00, 0.00, -0.00, -1.00, 27321.1, 39.5)"></text><text xml:space="preserve" font-family="LastResort,LastResort" font-size="100.0" fill="#566178" transform="matrix(1.00, 0.00, -0.00, -1.00, 27435.9, 39.5)"></text><text xml:space="preserve" font-family="LastResort,LastResort" font-size="100.0" fill="#566178" transform="matrix(1.00, 0.00, -0.00, -1.00, 27550.6, 39.5)"></text><text xml:space="preserve" font-family="LastResort,LastResort" font-size="100.0" fill="#566178" transform="matrix(1.00, 0.00, -0.00, -1.00, 27665.4, 39.5)"></text><text xml:space="preserve" font-family="LastResort,LastResort" font-size="100.0" fill="#566178" transform="matrix(1.00, 0.00, -0.00, -1.00, 27780.1, 39.5)"></text><text xml:space="preserve" font-family="LastResort,LastResort" font-size="100.0" fill="#566178" transform="matrix(1.00, 0.00, -0.00, -1.00, 27894.9, 39.5)"></text><text xml:space="preserve" font-family="LastResort,LastResort" font-size="100.0" fill="#566178" transform="matrix(1.00, 0.00, -0.00, -1.00, 28009.6, 39.5)"></text><text xml:space="preserve" font-family="LastResort,LastResort" font-size="100.0" fill="#566178" transform="matrix(1.00, 0.00, -0.00, -1.00, 28124.4, 39.5)"></text><text xml:space="preserve" font-family="LastResort,LastResort" font-size="100.0" fill="#566178" transform="matrix(1.00, 0.00, -0.00, -1.00, 28239.1, 39.5)"></text><text xml:space="preserve" font-family="LastResort,LastResort" font-size="100.0" fill="#566178" transform="matrix(1.00, 0.00, -0.00, -1.00, 28353.9, 39.5)"></text><text xml:space="preserve" font-family="LastResort,LastResort" font-size="100.0" fill="#566178" transform="matrix(1.00, 0.00, -0.00, -1.00, 28468.6, 39.5)"></text><text xml:space="preserve" font-family="LastResort,LastResort" font-size="100.0" fill="#566178" transform="matrix(1.00, 0.00, -0.00, -1.00, 28583.4, 39.5)"></text><text xml:space="preserve" font-family="LastResort,LastResort" font-size="100.0" fill="#566178" transform="matrix(1.00, 0.00, -0.00, -1.00, 28698.1, 39.5)"></text><text xml:space="preserve" font-family="LastResort,LastResort" font-size="100.0" fill="#566178" transform="matrix(1.00, 0.00, -0.00, -1.00, 28812.8, 39.5)"></text><text xml:space="preserve" font-family="LastResort,LastResort" font-size="100.0" fill="#566178" transform="matrix(1.00, 0.00, -0.00, -1.00, 28927.6, 39.5)"></text><text xml:space="preserve" font-family="LastResort,LastResort" font-size="100.0" fill="#566178" transform="matrix(1.00, 0.00, -0.00, -1.00, 29042.3, 39.5)"></text><text xml:space="preserve" font-family="LastResort,LastResort" font-size="100.0" fill="#566178" transform="matrix(1.00, 0.00, -0.00, -1.00, 29157.1, 39.5)"></text><text xml:space="preserve" font-family="LastResort,LastResort" font-size="100.0" fill="#566178" transform="matrix(1.00, 0.00, -0.00, -1.00, 29271.8, 39.5)"></text></g></g></g></svg>