<?xml version="1.0" encoding="UTF-8" standalone="no"?><svg xmlns="http://www.w3.org/2000/svg" xmlns:xlink="http://www.w3.org/1999/xlink" clip-rule="evenodd" stroke-miterlimit="10" viewBox="0 0 288 288"><desc>SVG generated by Keynote</desc><defs></defs><g transform="matrix(1.00, 0.00, -0.00, -1.00, 0.0, 288.0)"><g><clipPath id="clip0x6080036b55a0"><path d="M 0.9 0.5 L 287.9 0.5 L 287.9 287.5 L 0.9 287.5 Z M 0.9 0.5 "></path></clipPath><g clip-path="url(#clip0x6080036b55a0)"><path d="M 245.2 244.8 C 300.8 189.1 300.8 98.9 245.2 43.2 C 189.5 -12.4 99.3 -12.4 43.6 43.2 C -12.1 98.9 -12.1 189.1 43.6 244.8 C 99.3 300.4 189.5 300.4 245.2 244.8 Z M 245.2 244.8 " fill="#FF607B" fill-opacity="0.80"></path></g></g><g><clipPath id="clip0x6080036b5c60"><path d="M 30.4 28.5 L 258.4 28.5 L 258.4 259.5 L 30.4 259.5 Z M 30.4 28.5 "></path></clipPath><g clip-path="url(#clip0x6080036b5c60)"><text xml:space="preserve" font-family="Sosa-Regular,Sosa" font-size="150.0" fill="#F6F6F6" transform="matrix(1.00, 0.00, -0.00, -1.00, 69.4, 111.9)">7</text></g></g></g></svg>