<?xml version="1.0" encoding="UTF-8" standalone="no"?><svg xmlns="http://www.w3.org/2000/svg" xmlns:xlink="http://www.w3.org/1999/xlink" clip-rule="evenodd" stroke-miterlimit="10" viewBox="0 0 85 84"><desc>SVG generated by Keynote</desc><defs></defs><g transform="matrix(1.00, 0.00, -0.00, -1.00, 0.0, 84.0)"><path d="M 22.9 37.5 C 22.9 37.4 23.0 37.4 23.1 37.3 C 23.0 37.3 22.9 37.3 22.9 37.2 C 22.8 37.3 22.7 37.5 22.6 37.6 C 22.6 37.6 22.7 37.5 22.8 37.5 C 22.8 37.4 22.9 37.5 22.9 37.5 C 22.9 37.5 22.9 37.5 22.9 37.5 Z M 44.3 22.5 C 44.1 22.6 44.3 22.7 44.4 22.6 C 44.4 22.6 44.4 22.6 44.5 22.6 C 44.5 22.7 44.4 22.8 44.3 22.9 C 43.8 23.0 44.0 22.6 44.3 22.5 C 44.3 22.5 44.3 22.5 44.3 22.5 Z M 68.6 18.3 C 69.0 18.4 68.6 18.2 68.5 18.1 C 68.7 18.1 68.6 17.8 68.8 17.8 C 68.9 17.8 69.0 17.9 69.0 18.0 C 68.9 18.0 68.7 18.0 68.7 18.0 C 68.9 18.1 69.1 18.0 69.1 18.1 C 68.8 18.2 69.0 18.3 69.1 18.4 C 68.8 18.4 68.7 18.6 68.6 18.3 C 68.6 18.3 68.6 18.3 68.6 18.3 Z M 8.1 63.1 C 8.1 63.2 8.1 63.3 8.0 63.2 C 8.0 63.1 8.0 63.0 8.1 63.0 C 8.0 62.9 7.9 63.0 7.9 62.8 C 8.1 62.8 8.3 62.9 8.4 63.0 C 8.3 62.9 8.2 63.4 8.1 63.1 C 8.1 63.1 8.1 63.1 8.1 63.1 Z M 11.2 52.9 C 11.5 52.7 11.0 52.8 11.2 52.5 C 11.4 52.6 11.6 52.6 11.5 52.8 C 11.4 52.8 11.3 53.0 11.2 52.9 C 11.2 52.9 11.2 52.9 11.2 52.9 Z M 57.9 17.4 C 57.9 17.6 58.2 17.5 58.1 17.7 C 58.0 17.7 57.9 17.7 57.7 17.7 C 57.7 17.6 57.7 17.5 57.9 17.4 C 57.9 17.4 57.9 17.4 57.9 17.4 Z M 71.6 16.8 C 72.0 17.1 72.5 16.8 72.4 17.0 C 72.5 17.2 72.0 17.5 72.1 17.3 C 72.0 17.1 71.3 16.8 71.6 16.8 C 71.6 16.8 71.6 16.8 71.6 16.8 Z M 45.2 18.8 C 45.7 18.8 45.4 18.4 45.8 18.5 C 45.7 18.5 45.7 18.6 45.7 18.7 C 45.7 18.7 45.9 18.6 45.9 18.7 C 45.7 18.8 45.4 18.9 45.2 18.8 C 45.2 18.8 45.2 18.8 45.2 18.8 Z M 18.4 42.2 C 18.4 42.3 18.4 42.3 18.5 42.3 C 18.3 42.6 18.4 42.6 18.2 42.7 C 18.0 42.6 18.2 42.4 18.4 42.3 C 18.4 42.2 18.4 42.2 18.4 42.2 C 18.4 42.2 18.4 42.2 18.4 42.2 Z M 13.4 48.9 C 13.5 48.9 13.6 48.8 13.6 49.1 C 13.2 49.2 13.2 48.9 13.3 48.6 C 13.2 48.5 13.1 48.5 13.1 48.5 C 13.0 48.6 12.9 48.6 12.9 48.7 C 13.1 48.9 12.5 48.8 12.5 49.3 C 12.5 49.1 12.1 49.2 12.4 49.0 C 12.2 49.0 12.3 48.8 12.2 48.7 C 12.2 48.9 12.0 49.2 12.2 49.2 C 12.2 49.4 12.1 49.5 12.0 49.5 C 11.8 49.5 12.1 49.2 11.9 49.3 C 11.8 49.3 11.8 49.3 11.8 49.4 C 11.8 49.4 11.9 49.5 11.9 49.6 C 11.7 49.8 11.7 49.4 11.5 49.8 C 11.6 49.9 11.6 49.8 11.7 49.8 C 11.7 50.0 11.6 50.0 11.6 50.2 C 11.5 50.2 11.5 50.0 11.5 50.1 C 11.6 50.3 11.1 50.4 11.2 50.7 C 11.6 50.7 11.1 50.7 11.4 51.1 C 11.2 51.1 11.1 50.9 11.0 51.1 C 11.4 51.2 11.0 51.9 11.6 51.4 C 11.4 51.8 11.7 52.0 11.9 51.8 C 11.5 52.3 11.9 52.2 11.8 52.5 C 11.7 52.7 11.7 52.3 11.6 52.4 C 11.7 52.1 11.6 52.2 11.7 52.0 C 11.6 52.0 11.6 51.9 11.6 51.9 C 11.6 52.2 11.2 52.3 11.1 52.1 C 11.2 52.0 11.3 52.1 11.4 52.0 C 11.1 51.9 11.5 51.8 11.4 51.8 C 11.1 51.8 11.1 51.3 10.9 51.7 C 11.0 51.7 11.1 51.7 11.2 51.8 C 11.1 51.9 11.1 51.9 11.1 52.0 C 10.9 52.0 10.8 51.9 10.7 52.0 C 10.6 52.1 10.6 52.2 10.7 52.3 C 10.8 52.1 11.0 52.0 10.9 52.3 C 10.7 52.0 10.7 52.7 10.6 52.3 C 10.3 52.6 10.5 52.9 10.3 52.8 C 10.2 53.0 10.5 53.0 10.4 53.2 C 10.1 53.4 10.3 53.5 10.0 53.9 C 10.3 54.0 9.9 53.9 9.9 54.0 C 10.0 54.1 10.1 54.1 10.1 54.1 C 9.9 54.2 9.7 54.5 9.7 55.0 C 9.6 55.1 9.5 54.9 9.5 55.2 C 9.6 55.5 9.2 55.8 9.4 56.2 C 9.2 56.1 9.1 56.4 9.2 56.5 C 9.1 56.5 8.9 56.3 8.9 56.5 C 9.0 56.7 9.1 56.5 9.1 56.8 C 8.9 56.7 9.1 57.1 8.9 57.0 C 8.9 56.9 8.9 56.8 8.8 56.7 C 8.8 56.8 8.7 56.7 8.7 56.8 C 8.9 56.9 8.6 57.0 8.6 57.1 C 8.7 57.1 8.7 57.2 8.8 57.3 C 8.7 57.4 8.7 57.6 8.7 57.6 C 8.5 57.8 8.6 57.5 8.5 57.7 C 8.9 57.9 8.3 58.0 8.5 58.5 C 8.3 58.5 8.2 58.7 8.1 59.0 C 8.2 59.0 8.2 58.7 8.3 58.7 C 8.2 59.1 8.5 58.7 8.4 59.0 C 8.1 59.5 8.0 59.9 7.7 60.4 C 7.8 60.5 7.8 61.0 7.8 60.9 C 7.8 60.8 7.5 61.1 7.4 61.3 C 7.7 61.5 7.9 61.8 8.0 61.9 C 7.8 61.9 7.8 61.9 7.6 61.9 C 7.4 62.2 7.6 62.4 7.3 62.6 C 7.4 62.6 7.4 62.8 7.4 62.9 C 7.3 62.8 7.2 62.7 7.1 62.6 C 7.1 62.8 7.0 62.8 7.0 63.0 C 7.4 63.3 6.8 63.4 7.2 63.6 C 7.1 63.9 7.0 63.8 6.9 64.1 C 7.0 64.1 7.1 64.1 7.1 64.2 C 7.1 64.0 7.0 63.9 7.2 63.8 C 7.2 64.2 7.9 63.3 7.9 63.9 C 7.8 63.9 7.7 63.8 7.7 63.9 C 7.7 64.3 7.9 64.1 7.9 64.0 C 8.0 64.2 7.8 64.5 8.1 64.3 C 8.0 64.8 8.0 64.5 7.8 64.6 C 7.8 65.6 7.6 66.7 7.2 68.0 C 7.5 68.0 7.2 68.7 7.0 68.9 C 7.1 69.3 7.1 69.6 6.9 69.7 C 7.1 69.8 6.7 70.1 6.9 70.2 C 6.9 70.0 7.0 70.0 7.0 70.1 C 6.9 70.6 6.7 71.4 6.9 71.7 C 6.6 71.9 6.6 72.2 6.7 72.5 C 6.6 72.5 6.6 72.3 6.6 72.4 C 6.7 72.5 6.8 73.0 6.6 73.1 C 6.7 73.0 6.4 72.8 6.4 73.0 C 6.5 73.0 6.5 73.3 6.6 73.2 C 6.5 73.5 6.6 73.7 6.5 73.9 C 6.5 73.7 6.5 73.6 6.3 73.6 C 6.4 73.7 6.5 73.9 6.3 74.0 C 6.6 74.0 6.4 74.3 6.5 74.6 C 6.4 74.7 6.3 74.7 6.3 75.0 C 6.5 75.1 6.5 74.6 6.6 74.9 C 6.5 74.9 6.4 75.1 6.6 75.1 C 6.5 75.4 6.6 75.6 6.4 75.8 C 6.5 75.5 6.2 75.7 6.2 75.8 C 6.2 75.9 6.2 76.0 6.2 76.0 C 6.3 76.0 6.3 75.9 6.4 75.8 C 6.3 76.1 6.6 76.1 6.4 76.2 C 6.4 76.1 6.3 76.1 6.3 76.2 C 6.6 76.2 6.4 76.9 6.2 76.7 C 6.3 76.7 6.3 76.4 6.2 76.4 C 6.1 76.5 6.3 76.9 6.1 76.8 C 6.0 76.6 6.2 76.6 6.1 76.3 C 6.0 76.3 6.0 76.1 5.9 76.0 C 5.9 76.4 6.1 76.5 5.9 76.6 C 5.9 76.8 6.1 76.7 6.1 77.0 C 6.0 77.4 5.8 77.1 5.8 77.2 C 5.9 77.6 6.1 77.4 6.3 77.3 C 6.3 77.6 6.4 77.7 6.4 78.0 C 6.3 78.0 6.2 78.0 6.1 77.8 C 6.2 77.8 6.3 77.5 6.2 77.5 C 5.9 77.6 5.8 77.8 5.8 78.2 C 6.0 78.1 5.9 78.1 5.9 78.5 C 6.2 78.4 5.9 78.7 6.0 78.7 C 6.1 78.7 6.1 78.5 6.1 78.4 C 6.2 78.4 6.3 78.5 6.3 78.6 C 6.2 78.7 6.4 78.7 6.3 79.0 C 6.1 79.0 6.1 78.8 6.0 78.8 C 6.0 78.9 6.1 78.9 6.1 79.1 C 5.9 79.2 5.7 79.2 5.5 79.2 C 5.4 79.1 5.4 78.8 5.3 79.0 C 5.2 78.4 5.5 79.0 5.6 78.8 C 5.3 78.6 5.6 78.7 5.6 78.3 C 5.6 78.2 5.5 78.2 5.5 78.1 C 5.4 78.2 5.3 78.4 5.2 78.1 C 5.4 78.1 5.4 77.9 5.5 77.7 C 5.4 77.8 5.3 78.2 5.3 77.8 C 5.3 77.6 5.6 77.7 5.5 77.5 C 5.5 77.5 5.5 77.4 5.4 77.4 C 5.4 77.8 5.2 77.3 5.2 77.6 C 5.1 77.2 5.4 77.5 5.3 77.3 C 5.2 77.3 5.4 76.9 5.2 76.9 C 5.3 77.0 5.3 77.3 5.1 77.3 C 5.1 77.0 5.0 75.8 5.3 76.3 C 5.2 76.1 4.9 75.3 5.0 75.3 C 5.0 75.6 5.2 75.6 5.3 75.6 C 5.1 75.1 5.2 74.9 5.0 74.4 C 5.0 74.9 4.7 74.5 4.5 74.8 C 4.5 75.0 4.5 75.2 4.6 75.2 C 4.8 75.2 4.7 74.9 4.6 74.8 C 4.7 74.8 4.9 74.8 5.1 74.8 C 4.9 75.5 5.0 75.8 5.0 76.1 C 5.0 75.9 4.7 76.6 4.7 76.3 C 4.8 76.2 4.8 75.9 4.9 75.6 C 4.8 75.6 4.7 75.6 4.7 75.6 C 4.7 75.5 4.7 75.3 4.6 75.3 C 4.7 75.7 4.5 75.9 4.6 76.1 C 4.6 76.1 4.5 76.1 4.5 76.1 C 4.5 76.2 4.5 76.2 4.4 76.2 C 4.4 76.1 4.5 75.9 4.4 75.9 C 4.3 76.2 4.2 76.2 4.1 76.5 C 3.9 76.4 3.7 76.8 3.6 76.4 C 3.8 76.3 3.9 76.1 4.0 76.1 C 4.0 76.0 4.0 75.7 3.9 75.6 C 3.8 75.7 3.7 76.0 3.5 76.0 C 3.5 75.8 3.4 75.6 3.6 75.5 C 3.7 75.9 3.8 75.3 4.0 75.1 C 3.9 75.2 3.8 75.3 3.7 75.3 C 3.7 75.0 3.9 74.8 3.6 74.8 C 3.6 74.4 3.8 74.5 3.8 74.2 C 3.5 74.4 3.7 74.0 3.4 74.2 C 3.4 73.7 3.6 74.1 3.7 73.9 C 3.6 73.8 3.6 73.7 3.5 73.6 C 3.7 73.4 3.7 73.0 3.9 72.9 C 3.9 72.8 4.0 72.7 4.0 72.5 C 4.0 72.5 3.9 72.4 3.9 72.3 C 3.9 72.3 4.0 72.2 3.9 72.1 C 3.6 72.6 3.6 72.5 3.4 73.0 C 3.5 73.1 3.5 73.1 3.6 73.0 C 3.6 73.4 3.5 73.5 3.5 73.8 C 3.3 73.8 3.1 73.9 3.2 74.2 C 3.0 74.1 3.0 74.2 2.9 74.1 C 3.0 73.9 3.1 73.7 3.2 73.5 C 3.1 73.5 3.0 73.5 3.0 73.4 C 3.1 73.3 3.2 73.1 3.1 73.0 C 3.2 73.0 3.2 73.0 3.3 73.1 C 3.4 72.6 3.1 72.8 3.3 72.4 C 3.1 72.4 3.1 72.7 3.0 72.5 C 3.0 72.1 3.1 72.1 3.2 71.9 C 3.1 71.9 3.1 71.9 3.1 71.8 C 3.2 71.5 3.4 72.3 3.7 71.9 C 3.5 71.9 3.6 71.5 3.7 71.4 C 3.8 71.6 3.6 71.8 3.7 71.8 C 3.8 71.1 4.0 71.8 4.1 71.1 C 4.1 71.1 4.0 71.1 3.9 71.1 C 3.9 71.4 3.8 71.4 3.6 71.3 C 3.5 71.6 3.3 71.7 3.4 71.9 C 3.1 71.8 3.4 71.7 3.5 71.4 C 3.3 71.4 3.2 71.7 3.1 71.7 C 3.3 71.1 3.0 70.9 3.4 70.3 C 3.2 70.4 3.4 70.0 3.2 70.0 C 3.2 70.5 2.7 70.3 2.7 70.3 C 2.6 70.7 3.0 70.6 3.1 70.8 C 2.9 70.9 2.8 70.8 2.6 70.7 C 2.7 70.4 2.6 70.5 2.5 70.2 C 2.7 70.0 3.1 69.9 3.2 70.2 C 3.1 70.1 3.1 69.7 3.2 69.7 C 3.2 70.1 3.3 69.7 3.4 69.9 C 3.5 69.6 3.4 69.1 3.6 68.7 C 3.4 68.7 3.4 68.6 3.3 68.6 C 3.5 69.0 3.1 69.0 3.0 69.4 C 3.0 69.2 2.9 69.3 2.8 69.3 C 3.0 69.0 2.8 68.8 3.0 68.6 C 3.0 68.5 2.9 68.5 2.9 68.5 C 3.1 68.1 3.0 68.2 2.9 67.8 C 3.0 67.7 3.3 67.9 3.5 68.0 C 3.4 67.8 3.5 67.3 3.3 67.6 C 3.3 67.2 3.6 67.4 3.6 67.0 C 3.4 67.0 3.4 67.3 3.2 67.1 C 3.2 66.8 3.4 67.0 3.3 66.8 C 3.5 66.8 3.6 66.8 3.6 66.5 C 3.5 66.7 3.6 66.5 3.5 66.4 C 3.4 66.5 3.4 66.6 3.3 66.7 C 3.4 66.2 3.5 66.1 3.5 65.7 C 3.7 65.9 3.8 65.7 3.8 65.9 C 3.7 65.7 4.0 65.4 3.9 65.2 C 3.8 65.4 3.8 65.6 3.7 65.7 C 3.7 64.9 3.6 64.5 4.0 63.8 C 4.0 64.0 4.0 64.1 4.0 64.2 C 4.0 64.1 4.1 64.0 4.1 64.0 C 4.1 64.2 4.0 64.4 4.1 64.6 C 3.9 64.8 3.9 64.4 3.9 64.6 C 4.0 64.7 3.8 65.1 4.0 65.0 C 3.9 64.6 4.2 64.3 4.5 64.1 C 4.3 63.7 4.2 64.1 3.9 63.6 C 4.0 63.7 4.1 63.6 4.2 63.5 C 3.9 63.5 4.1 63.1 4.1 63.1 C 4.2 63.2 4.2 63.9 4.5 63.6 C 4.0 63.7 4.8 62.9 4.4 63.0 C 4.4 62.6 4.7 62.8 4.5 62.5 C 4.6 62.5 4.7 62.6 4.7 62.5 C 4.7 62.3 4.7 62.3 4.6 62.2 C 4.4 62.8 4.2 62.6 4.1 62.9 C 4.1 62.9 4.1 62.8 4.1 62.8 C 4.0 62.8 4.0 62.8 4.0 62.7 C 4.3 62.7 4.0 62.4 4.2 62.4 C 4.2 62.5 4.2 62.6 4.3 62.6 C 4.4 62.1 4.6 62.2 4.8 61.6 C 4.7 61.8 4.7 61.5 4.8 61.2 C 4.9 60.9 5.1 61.1 5.2 60.7 C 4.7 60.7 5.3 60.4 5.2 59.8 C 5.4 59.9 5.7 59.4 5.5 59.2 C 5.6 59.2 5.6 59.0 5.7 58.8 C 5.8 58.8 5.8 59.0 5.8 58.9 C 5.9 58.7 5.6 58.8 5.7 58.6 C 5.8 58.4 6.0 58.5 6.0 58.2 C 5.9 58.2 5.9 58.3 5.8 58.1 C 6.0 57.9 6.0 57.7 5.8 57.8 C 5.9 57.4 6.2 57.7 6.3 57.3 C 6.1 57.4 6.1 57.4 6.1 57.2 C 6.3 57.1 6.4 57.1 6.5 57.1 C 6.4 56.9 6.3 57.0 6.5 56.7 C 6.4 56.7 6.3 56.6 6.3 56.6 C 6.3 56.5 6.4 56.3 6.4 56.2 C 6.3 56.5 6.5 56.5 6.5 56.6 C 6.6 56.3 7.0 55.9 6.6 56.2 C 6.7 55.8 6.9 56.1 6.9 55.8 C 6.7 55.9 6.9 55.8 7.0 55.5 C 6.7 55.4 7.0 55.3 7.1 55.1 C 6.9 55.1 6.8 55.0 6.9 54.8 C 7.0 54.9 7.1 54.8 7.1 54.6 C 7.0 54.6 6.8 54.9 6.9 54.5 C 7.1 54.4 7.3 54.5 7.4 54.2 C 7.6 54.2 7.4 54.5 7.6 54.5 C 7.5 54.2 7.7 54.2 7.9 53.8 C 7.5 53.8 7.7 53.0 7.4 53.3 C 7.5 53.2 7.3 52.9 7.5 52.9 C 7.5 53.1 7.7 52.9 7.8 52.9 C 7.8 52.8 8.1 52.4 8.0 52.4 C 7.8 52.7 7.7 52.7 7.5 52.7 C 7.7 52.2 7.9 51.8 8.1 51.9 C 8.0 51.9 8.1 51.8 8.0 51.7 C 8.0 51.9 7.6 51.9 7.7 51.7 C 7.9 51.8 8.0 51.7 8.1 51.6 C 7.9 51.5 8.5 50.9 8.2 50.9 C 8.2 51.3 7.9 51.4 7.8 51.1 C 8.1 51.0 8.3 50.7 8.4 50.8 C 8.4 50.7 8.4 50.6 8.4 50.5 C 8.3 50.3 8.2 50.5 8.1 50.4 C 8.2 50.3 8.2 50.1 8.3 50.1 C 8.2 50.5 8.5 50.0 8.4 50.4 C 8.5 50.2 8.7 50.2 8.8 50.0 C 8.7 50.0 8.7 49.9 8.7 49.9 C 8.7 50.1 8.6 50.2 8.4 50.0 C 8.5 49.7 8.7 49.9 8.8 49.6 C 8.8 49.4 8.7 49.0 8.9 48.8 C 8.7 49.2 9.0 48.9 9.0 49.1 C 8.7 49.4 8.9 49.5 8.9 49.7 C 9.1 49.6 9.3 49.4 9.1 49.3 C 9.0 49.4 9.1 49.5 9.1 49.6 C 9.0 49.5 8.9 49.4 9.0 49.3 C 9.2 49.2 9.2 48.8 9.3 49.1 C 9.3 48.9 9.6 48.7 9.6 48.4 C 9.5 48.7 9.3 48.8 9.1 48.8 C 9.2 48.6 9.5 48.5 9.4 48.4 C 9.2 48.3 9.1 48.7 8.9 48.7 C 8.9 48.4 9.6 48.2 9.0 48.3 C 9.2 48.2 9.3 48.0 9.4 47.9 C 9.3 48.1 9.6 48.1 9.7 48.0 C 9.8 47.8 9.8 47.7 9.8 47.6 C 9.7 47.9 9.4 47.9 9.5 47.8 C 9.6 47.8 9.5 47.7 9.5 47.6 C 9.6 47.6 9.7 47.3 9.8 47.3 C 9.7 47.2 9.6 47.4 9.6 47.4 C 9.6 47.2 9.5 46.8 9.8 46.8 C 9.7 46.9 9.6 47.0 9.7 47.1 C 10.2 46.7 10.5 46.7 10.9 46.2 C 10.8 46.3 10.8 46.4 10.9 46.4 C 11.1 46.0 11.3 45.9 11.4 46.0 C 11.5 45.8 11.5 45.6 11.5 45.4 C 11.2 45.6 11.3 45.8 11.2 45.8 C 11.2 45.7 10.8 45.8 10.6 45.9 C 10.5 46.3 10.3 46.2 10.2 46.6 C 10.0 46.4 10.0 46.9 9.8 46.7 C 10.3 46.5 10.3 46.0 10.7 45.6 C 10.8 45.7 10.9 45.8 11.1 45.7 C 11.3 45.4 11.0 45.4 11.2 45.2 C 11.4 45.1 11.3 45.3 11.5 45.2 C 11.5 45.1 11.6 44.8 11.8 44.8 C 11.6 45.2 12.0 44.8 11.9 45.1 C 12.0 45.0 12.1 45.0 12.1 44.9 C 11.7 45.1 12.1 44.4 11.8 44.6 C 12.0 44.1 12.2 44.8 12.4 44.4 C 12.2 44.5 12.3 44.2 12.5 44.0 C 12.7 44.0 12.9 43.7 13.1 43.5 C 12.9 43.6 12.9 43.7 12.9 43.4 C 12.8 43.5 12.7 43.7 12.7 43.8 C 12.6 43.8 12.5 43.8 12.5 43.8 C 12.6 43.5 12.5 43.6 12.5 43.5 C 12.6 43.4 12.7 43.2 12.8 43.2 C 12.8 43.2 12.8 43.1 12.8 43.1 C 12.5 43.4 12.6 42.9 12.4 43.1 C 12.3 43.2 12.6 43.2 12.4 43.4 C 12.1 43.5 12.3 43.1 12.2 42.9 C 12.0 43.0 12.1 43.4 11.9 43.3 C 11.8 43.0 12.2 42.7 12.4 42.5 C 12.2 42.3 12.8 42.0 12.5 41.8 C 12.6 41.8 12.7 41.8 12.8 41.7 C 12.7 41.5 13.0 41.6 13.0 41.5 C 12.9 41.5 12.9 41.4 12.8 41.5 C 13.1 41.2 13.1 41.1 13.4 40.6 C 13.5 40.6 13.6 40.6 13.8 40.6 C 13.7 40.8 13.7 40.9 13.7 41.0 C 14.1 40.4 13.4 40.5 14.0 40.3 C 13.9 40.2 13.5 40.4 13.6 40.1 C 14.1 39.9 14.3 39.3 14.7 39.6 C 15.0 39.4 14.9 39.0 15.2 39.0 C 15.3 38.9 15.3 38.8 15.2 38.8 C 15.1 38.8 14.9 38.9 14.8 38.9 C 14.7 39.2 14.5 39.1 14.8 39.1 C 14.6 39.4 14.5 39.4 14.3 39.5 C 14.5 39.0 14.9 38.8 14.7 38.6 C 14.9 38.5 15.0 38.5 15.2 38.5 C 15.1 38.4 15.4 37.9 15.6 38.0 C 15.3 38.3 15.3 38.7 15.6 38.5 C 16.0 37.7 16.6 37.6 16.9 36.8 C 17.0 36.9 17.1 37.0 17.2 36.9 C 17.1 36.8 17.1 36.8 17.1 36.7 C 17.2 36.5 17.4 36.4 17.6 36.2 C 17.7 36.3 17.8 36.3 18.0 36.3 C 17.9 36.1 17.9 35.6 18.0 35.5 C 17.9 35.6 18.2 35.6 18.3 35.5 C 18.1 35.4 19.1 34.9 18.7 35.0 C 19.0 34.7 19.2 34.6 19.2 34.7 C 19.3 34.5 19.4 34.4 19.4 34.3 C 19.7 34.4 20.0 33.7 20.2 33.7 C 20.0 33.9 20.1 34.1 20.3 33.9 C 20.2 33.7 20.6 33.2 20.7 33.1 C 20.7 33.2 20.8 33.4 20.6 33.6 C 21.0 33.3 20.8 33.1 20.8 32.8 C 21.0 33.0 21.0 32.7 21.1 32.6 C 21.3 32.6 21.1 32.7 21.2 32.8 C 21.4 32.7 21.5 32.7 21.7 32.5 C 21.5 32.4 21.7 32.3 21.8 32.3 C 21.8 32.1 21.8 32.0 22.0 31.8 C 22.0 32.2 23.1 31.2 22.7 31.3 C 22.8 30.9 23.1 31.2 23.3 30.9 C 23.3 30.8 23.5 30.7 23.3 30.7 C 23.5 30.5 23.5 30.8 23.8 30.5 C 23.5 30.4 24.1 30.3 23.8 30.1 C 24.2 30.2 24.1 29.7 24.5 29.7 C 24.5 29.7 24.6 29.6 24.5 29.6 C 24.5 29.5 24.1 29.7 24.3 29.5 C 24.7 29.4 24.6 29.5 24.7 29.6 C 25.3 28.9 26.2 28.3 27.0 27.7 C 26.9 27.7 26.9 27.7 27.0 27.5 C 27.5 27.6 28.2 26.8 28.3 26.6 C 28.5 26.7 28.9 26.2 29.0 26.2 C 28.9 26.3 28.9 26.6 29.1 26.5 C 29.0 26.2 29.3 26.2 29.4 25.9 C 29.6 26.0 30.1 25.4 30.0 25.9 C 30.1 25.8 30.2 25.8 30.3 25.8 C 30.2 25.6 30.3 25.6 30.0 25.6 C 30.7 25.4 30.7 25.1 31.2 25.0 C 31.2 24.9 30.8 25.0 31.0 24.8 C 31.1 24.8 31.1 24.9 31.1 24.9 C 31.2 24.8 31.2 24.7 31.3 24.8 C 31.3 24.9 31.2 24.9 31.3 25.1 C 31.4 24.9 31.7 25.1 31.7 24.9 C 31.4 25.0 31.4 24.6 31.7 24.7 C 31.6 24.9 32.3 24.2 32.5 24.0 C 32.8 24.1 32.3 24.2 32.4 24.3 C 32.8 24.0 32.8 24.1 32.8 23.8 C 33.1 23.7 33.2 23.8 33.5 23.5 C 33.7 23.4 33.5 23.7 33.7 23.6 C 33.7 23.5 33.7 23.3 33.9 23.2 C 34.6 23.3 35.3 22.1 36.1 22.4 C 35.9 22.4 36.1 22.1 36.4 22.0 C 36.4 22.0 36.4 22.1 36.5 22.1 C 36.5 22.0 36.5 21.9 36.7 21.8 C 36.8 21.9 36.8 22.0 36.9 21.9 C 36.9 21.7 37.2 21.8 37.3 21.6 C 37.4 21.7 37.0 21.8 37.0 22.0 C 37.5 21.9 37.5 21.6 37.9 21.5 C 37.7 21.6 38.1 21.6 38.2 21.7 C 38.0 21.5 38.3 21.3 38.0 21.3 C 38.1 21.2 38.3 21.1 38.4 21.2 C 38.3 21.2 38.2 21.3 38.2 21.3 C 38.4 21.2 38.7 21.3 38.7 21.1 C 38.5 21.1 38.5 21.1 38.4 21.0 C 38.4 20.9 38.4 20.8 38.5 20.8 C 38.5 21.3 39.1 20.8 39.1 20.6 C 39.3 20.9 39.3 20.8 39.4 21.0 C 39.7 20.8 39.5 20.7 39.7 20.5 C 39.7 20.8 39.8 20.9 40.1 20.9 C 39.9 20.7 40.3 20.6 40.1 20.4 C 40.8 20.0 41.0 20.2 41.5 20.0 C 41.5 19.9 41.3 19.9 41.4 19.8 C 41.7 19.8 41.9 19.8 42.1 19.8 C 42.1 19.7 41.9 19.7 42.1 19.6 C 42.5 19.6 42.5 19.8 42.8 19.9 C 43.1 19.6 43.0 19.7 43.2 19.5 C 43.1 19.5 42.9 19.5 43.0 19.4 C 43.3 19.5 43.5 19.6 43.5 19.6 C 43.4 19.7 43.3 19.7 43.2 19.7 C 43.2 19.9 42.9 19.9 43.2 20.0 C 42.9 20.0 42.7 20.1 42.3 20.2 C 42.5 20.4 42.1 20.4 42.2 20.5 C 42.6 20.3 42.7 20.4 43.1 20.3 C 42.9 20.1 43.3 20.1 43.4 20.1 C 43.4 20.0 43.6 19.9 43.5 19.8 C 43.8 19.6 43.8 19.8 44.1 19.6 C 44.1 19.7 44.1 19.8 44.2 19.8 C 44.2 19.5 44.4 19.8 44.5 19.7 C 44.4 19.6 44.8 19.5 44.8 19.4 C 44.7 19.4 44.5 19.5 44.5 19.4 C 44.9 19.3 44.5 19.2 44.4 19.1 C 44.4 19.2 44.4 19.5 44.3 19.4 C 44.6 19.1 43.6 19.3 44.0 19.2 C 44.3 19.1 44.2 19.0 44.5 18.9 C 45.0 19.1 44.6 19.4 45.1 19.6 C 45.2 19.4 45.4 19.3 45.3 19.2 C 45.4 19.2 45.5 19.3 45.6 19.3 C 45.6 19.1 45.2 19.2 45.5 19.0 C 45.7 19.0 45.6 19.3 45.8 19.2 C 45.9 19.0 45.4 19.1 45.7 19.0 C 46.1 19.2 45.6 18.9 45.9 18.8 C 46.0 18.8 46.0 18.8 46.1 18.8 C 46.2 18.8 46.2 19.0 46.3 19.0 C 46.2 18.7 46.4 19.0 46.7 18.9 C 46.7 18.6 46.4 18.9 46.4 18.7 C 46.7 18.8 46.8 18.5 46.9 18.5 C 46.8 18.7 47.3 18.5 47.4 18.7 C 47.3 18.5 47.4 18.5 47.7 18.3 C 47.8 18.6 48.1 18.3 48.3 18.5 C 48.3 18.4 48.3 18.3 48.4 18.2 C 48.3 18.2 48.1 18.2 48.1 18.1 C 48.2 18.1 48.3 18.1 48.4 18.0 C 48.6 18.1 48.3 18.6 48.9 18.4 C 48.8 18.2 49.0 18.1 49.2 17.9 C 49.1 17.8 49.0 18.0 48.9 17.9 C 49.1 17.7 49.3 17.8 49.5 17.9 C 49.8 17.7 50.3 17.7 50.8 17.5 C 50.9 17.6 50.4 17.7 50.7 17.7 C 50.9 17.7 50.8 17.6 51.0 17.5 C 51.0 18.3 52.4 17.4 52.6 17.6 C 52.6 17.5 53.1 17.5 53.0 17.3 C 52.7 17.5 52.5 17.3 52.3 17.2 C 52.0 17.4 52.6 17.3 52.4 17.5 C 52.3 17.3 51.9 17.5 51.9 17.4 C 52.3 17.3 51.7 17.2 52.0 17.0 C 52.3 16.9 53.0 16.6 52.9 16.8 C 52.9 16.8 52.7 16.8 52.7 16.9 C 53.2 16.9 53.4 16.7 53.6 16.5 C 53.8 16.6 54.5 16.2 54.3 16.4 C 54.4 16.5 53.9 16.4 54.0 16.6 C 54.8 16.5 54.8 16.3 55.3 16.4 C 55.1 16.2 55.8 16.0 55.7 16.1 C 55.8 16.2 56.0 16.4 56.2 16.1 C 56.2 16.3 56.4 16.3 56.6 16.4 C 56.6 16.2 56.4 16.2 56.4 16.1 C 56.6 16.0 56.8 16.0 56.9 16.0 C 56.9 16.1 56.9 16.2 57.0 16.2 C 57.2 16.0 57.8 15.8 57.8 15.9 C 57.5 16.2 58.3 16.0 57.8 16.2 C 58.0 16.2 58.0 16.3 58.1 16.3 C 58.1 16.2 58.1 16.1 58.1 16.0 C 58.5 16.0 58.3 16.3 58.6 16.3 C 58.6 16.2 58.8 16.1 58.8 16.1 C 58.7 16.1 58.7 16.1 58.5 16.1 C 58.7 15.8 58.2 16.0 58.2 15.8 C 58.5 15.8 58.5 15.9 58.7 16.0 C 59.1 15.8 58.9 15.9 59.4 15.9 C 59.4 15.9 59.2 15.9 59.3 15.8 C 59.8 15.8 59.8 16.1 60.2 16.0 C 60.1 16.0 59.7 16.2 60.0 16.2 C 60.2 16.1 60.3 15.9 60.6 15.8 C 60.6 15.9 60.6 16.0 60.7 16.0 C 60.9 15.9 60.9 15.7 61.0 15.7 C 61.0 15.7 61.2 15.7 61.3 15.6 C 61.4 15.8 61.3 15.8 61.4 15.9 C 61.7 15.8 61.8 15.4 62.1 15.5 C 62.1 15.7 62.3 15.6 62.6 15.6 C 62.6 15.8 63.1 15.7 63.5 15.8 C 63.4 15.6 63.7 15.6 63.6 15.4 C 63.5 15.5 63.4 15.4 63.3 15.3 C 63.7 15.3 63.9 15.7 64.1 15.4 C 64.3 15.5 64.5 15.6 64.7 15.7 C 64.8 15.5 64.3 15.5 64.5 15.4 C 64.5 15.5 64.6 15.5 64.7 15.4 C 64.7 15.6 64.9 15.7 65.0 15.8 C 65.2 15.6 65.7 15.9 65.5 15.6 C 65.9 15.6 65.6 15.9 65.9 15.9 C 65.8 15.7 66.2 15.7 66.0 15.5 C 66.4 15.5 66.3 15.8 66.2 15.9 C 66.5 15.9 66.6 15.8 66.8 15.9 C 66.6 15.7 67.2 15.6 66.9 15.7 C 66.8 15.9 67.2 15.8 67.3 15.9 C 67.1 15.8 67.3 15.8 67.1 15.7 C 67.3 15.6 67.7 15.6 68.0 15.8 C 68.3 15.7 68.6 15.7 68.4 15.9 C 68.8 15.8 68.6 15.8 68.9 15.9 C 68.9 15.8 68.9 15.8 68.8 15.8 C 69.3 15.8 69.2 15.9 69.7 15.9 C 69.6 16.2 70.0 16.2 70.1 16.3 C 69.9 16.3 69.7 16.2 69.5 16.2 C 69.5 16.3 69.6 16.3 69.5 16.3 C 69.5 16.3 69.4 16.2 69.3 16.2 C 69.7 16.4 68.8 16.5 69.1 16.3 C 69.1 16.4 69.1 16.4 69.2 16.4 C 69.1 16.2 69.1 16.3 69.2 16.1 C 69.0 16.1 68.9 15.9 68.8 16.1 C 68.8 16.1 69.0 16.1 69.0 16.2 C 68.6 16.3 68.9 16.0 68.5 16.0 C 68.5 16.2 68.6 16.3 68.7 16.4 C 68.4 16.4 68.1 16.3 68.0 16.2 C 67.7 16.3 68.1 16.4 67.8 16.5 C 67.7 16.4 67.8 16.2 67.6 16.2 C 67.3 16.3 67.7 16.4 67.5 16.4 C 67.2 16.3 67.6 16.1 67.3 16.1 C 67.3 16.4 66.9 16.0 67.0 16.2 C 67.2 16.2 67.2 16.4 67.1 16.3 C 66.6 16.0 66.3 16.7 65.8 16.2 C 65.8 16.3 65.7 16.3 65.7 16.4 C 66.1 16.5 66.6 16.5 66.7 16.8 C 67.0 16.7 66.9 16.6 67.0 16.5 C 67.3 16.7 67.3 16.8 67.1 17.0 C 66.5 17.1 66.3 16.9 65.9 16.8 C 65.7 17.0 65.9 16.9 66.0 17.0 C 64.9 16.8 65.7 17.4 65.3 17.3 C 65.3 17.2 65.3 17.2 65.1 17.2 C 65.1 17.2 65.0 17.2 65.0 17.3 C 65.0 17.3 65.1 17.3 65.0 17.4 C 64.8 17.5 64.9 17.3 64.9 17.2 C 65.1 17.2 65.2 17.1 65.2 17.0 C 65.0 17.1 64.7 17.0 64.6 17.2 C 64.3 16.9 64.7 16.6 64.6 16.4 C 64.6 16.3 64.4 16.9 64.2 17.0 C 63.8 17.0 63.8 17.2 63.5 17.2 C 63.4 17.0 63.8 17.1 63.8 16.9 C 63.7 17.0 63.7 16.9 63.6 16.9 C 63.4 16.9 63.4 17.1 63.2 17.1 C 63.1 17.0 63.1 17.1 62.9 17.2 C 62.7 17.1 63.1 17.0 62.8 17.0 C 62.6 17.0 62.4 17.2 62.4 17.2 C 62.3 17.1 62.4 17.0 62.3 17.0 C 62.0 17.2 61.9 17.2 62.3 17.3 C 62.0 17.2 61.9 17.3 61.9 17.5 C 62.4 17.5 62.5 17.5 62.7 17.7 C 62.8 17.5 62.9 17.7 63.1 17.7 C 62.9 17.4 63.3 17.7 63.3 17.5 C 63.2 17.5 63.1 17.4 63.1 17.4 C 63.5 17.4 63.5 17.4 63.9 17.1 C 63.9 17.2 63.9 17.3 64.0 17.3 C 63.9 17.4 63.5 17.3 63.5 17.5 C 63.8 17.7 63.9 17.4 64.2 17.6 C 64.3 17.5 63.9 17.4 64.2 17.4 C 64.3 17.5 64.5 17.6 64.7 17.6 C 64.9 17.6 65.0 17.5 65.1 17.4 C 65.2 17.5 65.2 17.6 65.3 17.6 C 65.3 17.5 65.2 17.4 65.3 17.4 C 65.8 17.6 66.2 17.8 66.7 17.7 C 66.5 17.6 66.1 17.4 66.3 17.4 C 66.5 17.6 66.8 17.3 67.0 17.5 C 67.1 17.6 66.8 17.4 66.9 17.8 C 67.1 17.7 67.2 17.8 67.3 17.8 C 67.3 17.7 67.6 17.7 67.5 17.6 C 67.3 17.6 67.3 17.8 67.2 17.7 C 67.4 17.2 67.9 17.9 68.3 17.9 C 68.5 17.8 68.1 17.7 68.4 17.7 C 68.5 17.6 68.6 18.0 68.4 18.1 C 68.2 18.0 68.1 18.2 68.1 18.0 C 68.0 18.0 67.9 18.0 67.9 18.1 C 68.0 18.1 68.0 18.2 68.1 18.3 C 67.9 18.2 67.8 18.6 67.7 18.4 C 67.8 18.4 67.8 18.3 67.9 18.3 C 67.4 18.3 67.2 18.1 66.9 18.1 C 67.1 18.2 66.9 18.1 66.9 18.3 C 67.2 18.2 67.6 18.4 67.3 18.4 C 67.1 18.2 67.0 18.8 66.8 18.5 C 67.0 18.5 67.0 18.4 67.0 18.4 C 66.8 18.3 66.8 18.2 66.7 18.2 C 66.0 18.4 65.6 17.9 64.6 18.4 C 64.3 18.4 64.9 18.3 64.9 18.1 C 64.8 18.1 64.8 18.1 64.7 18.1 C 64.7 18.3 64.5 18.1 64.4 18.2 C 64.4 18.1 64.0 18.2 63.7 18.1 C 63.7 18.2 63.8 18.3 63.7 18.3 C 63.0 18.0 61.7 18.5 61.2 18.3 C 61.2 18.4 61.0 18.5 61.0 18.6 C 60.6 18.5 60.8 18.4 60.3 18.6 C 60.1 18.7 60.3 18.5 60.4 18.4 C 59.7 18.6 59.0 18.5 58.6 18.7 C 58.4 18.8 58.6 18.6 58.2 18.6 C 58.2 18.9 57.4 18.6 57.3 18.9 C 57.1 19.0 56.5 18.7 56.8 18.9 C 56.4 19.0 56.6 18.7 56.5 18.7 C 56.2 18.8 56.6 19.2 56.4 19.2 C 56.4 19.0 56.2 19.2 56.0 19.0 C 56.2 19.0 56.3 18.9 56.3 18.8 C 56.1 19.0 56.1 18.8 55.8 18.9 C 55.6 19.1 55.1 19.3 54.8 19.1 C 54.8 19.2 54.9 19.2 55.0 19.3 C 54.8 19.3 54.5 19.1 54.6 19.4 C 54.2 19.5 54.0 19.3 53.8 19.5 C 53.6 19.7 53.8 19.3 53.3 19.5 C 53.3 19.6 52.4 19.8 52.1 19.7 C 52.2 20.0 52.1 19.8 51.9 19.8 C 51.9 19.9 52.0 19.9 51.9 20.0 C 51.8 19.9 51.8 20.0 51.7 20.0 C 51.7 19.7 51.4 20.2 51.3 20.0 C 51.4 20.0 51.4 19.8 51.3 19.8 C 51.3 20.0 50.8 19.8 50.9 20.0 C 51.0 20.0 51.3 19.9 51.2 20.1 C 50.9 20.2 51.0 20.0 50.7 20.0 C 50.8 20.1 50.9 20.1 50.8 20.2 C 50.5 20.2 50.8 20.2 50.6 20.1 C 50.4 20.1 50.2 20.3 50.2 20.4 C 50.2 20.4 50.1 20.3 50.0 20.3 C 49.6 20.3 48.6 20.8 48.1 20.7 C 48.0 20.8 48.0 20.9 48.0 21.0 C 47.7 21.0 47.8 21.0 47.5 21.0 C 47.5 21.1 47.5 21.2 47.5 21.3 C 47.2 21.5 47.4 21.0 47.2 21.1 C 47.3 21.5 47.0 21.0 46.8 21.1 C 46.8 21.2 46.7 21.3 46.8 21.4 C 46.5 21.5 46.4 21.2 46.1 21.4 C 46.2 21.4 46.4 22.0 46.5 22.1 C 46.4 22.1 46.3 22.0 46.2 22.1 C 46.2 21.8 45.9 21.2 45.6 21.6 C 45.8 21.4 45.9 21.5 45.9 21.6 C 45.6 21.8 45.4 21.7 45.2 21.8 C 45.2 22.0 45.4 21.9 45.4 22.1 C 45.3 22.2 45.3 22.2 45.4 22.3 C 45.1 22.4 45.0 22.2 44.7 22.5 C 44.7 22.4 44.8 22.3 44.9 22.3 C 44.8 22.2 44.8 22.1 45.0 22.0 C 45.0 22.1 45.0 22.3 45.2 22.1 C 45.2 22.1 45.1 22.0 45.1 21.9 C 44.9 21.9 44.4 22.0 44.4 22.1 C 44.5 22.1 44.7 22.1 44.7 22.3 C 44.3 22.4 44.2 22.2 43.8 22.2 C 43.4 22.5 42.6 22.8 42.8 23.0 C 42.5 23.0 42.6 23.0 42.3 23.1 C 42.4 23.2 42.0 23.3 42.1 23.4 C 42.4 23.2 42.3 23.3 42.6 23.1 C 42.7 23.2 42.6 23.3 42.5 23.4 C 42.5 23.3 42.3 23.3 42.2 23.5 C 42.2 23.5 42.5 23.6 42.2 23.7 C 42.2 23.6 42.2 23.6 42.1 23.7 C 42.0 23.6 42.0 23.5 41.9 23.4 C 42.0 23.3 42.2 23.2 42.2 23.1 C 42.1 23.1 42.1 23.1 42.0 23.1 C 42.0 23.2 41.6 23.3 41.6 23.4 C 41.8 23.3 41.9 23.4 41.8 23.5 C 41.7 23.5 41.5 23.5 41.4 23.6 C 41.8 23.6 41.7 23.7 41.9 23.8 C 41.6 24.0 41.5 23.7 41.2 24.0 C 41.1 23.8 41.0 23.7 41.1 23.6 C 40.7 23.4 40.3 24.0 40.1 24.0 C 40.2 24.0 40.3 23.7 40.1 23.8 C 40.1 23.8 39.9 23.9 39.9 23.9 C 40.0 24.3 40.3 24.4 40.5 24.5 C 40.3 24.5 40.3 24.6 40.2 24.7 C 40.1 24.6 40.1 24.3 39.9 24.3 C 40.0 24.6 39.6 24.5 39.6 24.8 C 39.7 24.7 39.9 24.7 39.8 24.8 C 39.7 24.7 39.5 24.9 39.4 24.8 C 39.6 24.6 39.6 24.4 39.7 24.4 C 39.6 24.4 39.8 24.2 39.5 24.3 C 39.4 24.5 39.4 24.7 39.1 24.8 C 39.0 24.8 39.0 24.6 38.9 24.7 C 39.0 24.8 38.7 25.0 38.8 24.8 C 38.7 24.8 38.6 24.8 38.5 24.8 C 38.8 24.9 38.1 25.5 38.3 25.6 C 38.2 25.4 38.0 25.2 37.9 25.2 C 37.9 25.4 37.6 25.4 37.2 25.6 C 37.4 25.8 37.2 25.7 37.0 25.8 C 37.0 25.9 37.2 25.9 37.1 25.9 C 36.9 26.0 36.9 26.0 36.8 25.9 C 36.6 26.0 36.5 26.1 36.4 26.1 C 36.5 26.1 36.5 26.1 36.6 26.2 C 36.0 26.3 35.8 26.7 35.3 26.9 C 35.6 26.9 35.5 26.6 35.3 26.7 C 35.2 26.8 35.2 26.9 35.1 27.0 C 35.3 27.0 35.2 27.0 35.0 27.1 C 34.8 27.3 35.2 27.3 35.1 27.4 C 34.9 27.4 34.9 27.3 34.8 27.3 C 34.7 27.4 34.6 27.4 34.6 27.5 C 34.8 27.5 34.6 27.6 34.5 27.8 C 34.5 27.5 34.4 27.5 34.2 27.7 C 34.1 27.7 34.2 27.5 34.1 27.6 C 34.0 27.6 34.0 28.0 33.7 27.9 C 33.7 27.9 33.7 27.8 33.7 27.8 C 33.6 28.0 33.3 27.9 33.0 28.0 C 33.3 28.0 33.3 28.2 33.4 28.2 C 33.2 28.2 33.1 28.5 32.8 28.5 C 33.1 28.3 32.6 28.1 32.4 28.3 C 32.5 28.4 32.7 28.2 32.8 28.5 C 32.8 28.6 32.4 28.6 32.4 28.8 C 32.5 28.8 32.5 28.7 32.6 28.7 C 32.5 28.8 32.7 28.8 32.6 28.9 C 32.4 28.7 32.5 29.0 32.4 29.1 C 32.3 29.1 31.9 29.0 31.9 29.2 C 32.0 29.2 32.1 29.1 32.2 29.2 C 31.8 29.6 31.5 29.4 31.3 29.9 C 31.2 29.8 31.1 29.8 31.0 29.9 C 31.0 30.0 31.0 30.1 30.9 30.1 C 30.7 30.2 30.5 30.2 30.2 30.3 C 30.2 30.2 30.2 30.1 30.0 30.3 C 30.0 30.3 30.1 30.3 30.0 30.4 C 30.0 30.3 29.9 30.3 29.9 30.4 C 30.0 30.4 30.0 30.5 30.0 30.5 C 30.1 30.4 30.2 30.4 30.2 30.3 C 30.3 30.4 30.4 30.5 30.5 30.5 C 30.2 30.8 30.0 30.5 29.9 30.8 C 29.7 30.6 29.6 30.6 29.6 30.3 C 29.5 30.5 29.4 30.6 29.4 30.8 C 29.6 30.6 29.7 30.8 29.8 30.9 C 29.7 31.0 29.7 31.1 29.7 31.1 C 29.4 31.2 29.7 30.7 29.3 31.0 C 29.7 31.0 29.2 31.3 29.0 31.4 C 29.1 31.4 29.2 31.4 29.1 31.5 C 28.8 31.9 28.4 31.4 28.4 31.9 C 28.3 31.8 28.2 31.9 28.1 31.9 C 28.3 31.6 28.3 31.6 28.4 31.5 C 28.3 31.4 28.3 31.5 28.2 31.5 C 28.3 31.6 28.2 31.6 28.1 31.7 C 28.1 31.8 28.3 32.0 28.2 32.3 C 28.1 32.2 28.1 32.1 28.0 32.2 C 28.0 32.4 27.9 31.9 27.6 32.2 C 27.7 32.2 27.8 32.3 27.8 32.4 C 27.7 32.6 27.7 32.5 27.5 32.7 C 27.2 32.6 27.4 32.3 27.4 32.2 C 27.3 32.3 27.3 32.6 27.0 32.6 C 27.2 32.6 27.2 32.8 27.1 33.0 C 26.9 33.0 26.9 32.7 26.7 32.9 C 26.7 33.0 26.7 33.2 26.9 33.1 C 26.6 33.3 26.8 33.4 26.5 33.6 C 26.5 33.5 26.5 33.5 26.6 33.4 C 26.6 33.4 26.5 33.3 26.4 33.4 C 26.4 33.6 26.1 33.9 26.0 34.1 C 25.5 34.2 25.4 34.8 25.0 35.0 C 25.0 34.7 24.6 35.4 24.3 35.4 C 24.3 35.5 24.3 36.0 24.3 35.8 C 24.0 35.7 23.9 35.9 23.8 36.0 C 23.8 36.0 23.8 36.1 23.9 36.1 C 23.6 36.4 23.4 36.4 23.2 36.4 C 23.0 36.8 22.4 37.1 22.1 37.7 C 21.8 37.6 21.8 37.8 21.4 38.0 C 21.6 38.1 21.4 38.3 21.2 38.5 C 21.3 38.6 21.1 38.7 21.2 38.8 C 21.4 38.6 21.5 38.8 21.6 38.8 C 21.3 38.9 21.5 39.3 21.2 39.4 C 21.3 39.1 21.2 38.8 21.0 38.6 C 20.8 38.9 20.6 39.1 20.4 39.0 C 20.5 39.1 20.6 39.1 20.7 39.1 C 20.6 39.2 20.6 39.3 20.5 39.4 C 20.4 39.4 20.5 39.2 20.3 39.3 C 20.3 39.4 20.3 39.5 20.3 39.6 C 20.1 39.6 20.3 39.4 20.2 39.3 C 19.8 39.7 20.3 39.7 20.1 40.0 C 20.0 40.0 19.9 39.8 19.7 40.0 C 19.7 40.2 19.8 40.3 19.7 40.5 C 19.5 40.6 19.5 40.3 19.3 40.4 C 19.4 40.5 19.3 40.6 19.2 40.6 C 19.3 40.7 19.3 40.8 19.2 40.9 C 19.1 40.8 19.1 41.0 19.0 41.1 C 19.0 41.0 18.6 41.1 18.7 41.3 C 18.7 41.3 18.8 41.2 18.9 41.2 C 18.7 41.4 18.7 41.5 18.6 41.6 C 18.3 41.4 18.3 41.9 17.9 42.1 C 17.8 42.4 18.2 42.3 18.0 42.6 C 17.8 42.7 17.9 42.5 17.8 42.4 C 17.7 42.4 17.4 42.6 17.5 42.7 C 17.6 42.8 17.7 42.6 17.7 42.6 C 17.7 42.9 17.5 42.8 17.4 42.9 C 17.5 42.9 17.5 43.1 17.5 43.2 C 17.2 43.8 17.0 43.7 16.7 43.8 C 16.7 43.9 16.6 44.0 16.7 44.0 C 16.7 43.8 17.0 43.7 16.9 43.9 C 16.8 43.9 16.7 44.2 16.7 44.3 C 16.8 44.3 16.9 44.1 17.0 44.2 C 16.9 44.6 16.7 44.3 16.7 44.6 C 16.5 44.5 16.6 44.4 16.6 44.3 C 16.5 44.4 16.5 44.5 16.4 44.5 C 16.4 44.4 16.3 44.3 16.3 44.2 C 16.3 44.4 16.0 44.6 16.3 44.6 C 16.1 44.9 16.0 45.2 16.2 45.1 C 16.1 45.4 16.0 45.1 16.0 45.4 C 15.8 45.2 15.8 45.1 15.5 45.2 C 15.6 45.3 15.6 45.5 15.7 45.5 C 15.5 45.9 15.2 45.9 15.0 46.0 C 15.3 46.0 15.0 46.0 15.0 46.3 C 14.9 46.4 14.8 46.2 14.6 46.5 C 15.1 46.3 14.5 47.0 14.8 47.0 C 14.4 47.3 14.4 47.3 14.2 47.7 C 14.1 47.6 14.1 47.4 14.1 47.2 C 14.2 47.4 14.5 47.0 14.4 46.9 C 14.4 46.9 14.3 46.9 14.3 46.9 C 14.1 47.2 14.0 47.4 13.8 47.5 C 13.9 47.6 13.9 47.8 14.1 47.8 C 13.7 48.0 13.8 48.5 13.5 48.5 C 13.6 48.4 13.6 48.3 13.5 48.3 C 13.5 48.4 13.5 48.6 13.6 48.7 C 13.8 48.5 13.8 48.4 13.8 48.2 C 13.9 48.4 14.1 48.1 14.0 48.4 C 13.8 48.2 13.9 48.9 13.8 48.7 C 13.9 48.4 13.5 48.9 13.4 48.9 C 13.4 48.9 13.4 48.9 13.4 48.9 Z M 66.7 18.2 C 67.0 18.1 66.7 17.9 66.5 17.9 C 66.5 18.0 66.6 18.1 66.6 18.2 C 66.6 18.1 66.7 18.1 66.7 18.2 C 66.7 18.2 66.7 18.2 66.7 18.2 Z M 63.6 15.6 C 63.6 15.8 64.0 15.6 64.2 15.7 C 64.2 15.6 64.1 15.6 64.2 15.5 C 64.0 15.4 64.0 15.7 63.6 15.6 C 63.6 15.6 63.6 15.6 63.6 15.6 Z M 53.1 17.5 C 53.1 17.5 53.3 17.4 53.3 17.5 C 53.5 17.5 53.4 17.4 53.4 17.3 C 53.6 17.2 53.4 17.6 53.7 17.4 C 53.8 17.0 53.1 17.1 53.1 17.5 C 53.1 17.5 53.1 17.5 53.1 17.5 Z M 12.9 44.3 C 12.7 44.4 12.8 44.0 12.6 44.0 C 12.4 44.6 12.8 44.3 12.4 44.9 C 12.5 44.9 12.5 44.9 12.6 44.9 C 12.7 44.6 12.6 44.5 12.9 44.8 C 12.9 44.6 12.6 44.4 12.9 44.3 C 12.9 44.3 12.9 44.3 12.9 44.3 Z M 8.8 50.2 C 8.9 50.2 8.9 50.2 9.0 50.2 C 9.0 50.0 9.0 50.0 9.2 49.7 C 8.9 49.7 8.8 49.9 8.8 50.2 C 8.8 50.2 8.8 50.2 8.8 50.2 Z M 3.0 68.2 C 3.0 68.3 3.0 68.4 3.0 68.4 C 3.1 68.4 3.3 68.6 3.3 68.3 C 3.3 68.3 3.3 68.3 3.2 68.4 C 3.2 68.3 3.2 68.1 3.1 68.2 C 3.1 68.2 3.1 68.2 3.0 68.2 C 3.0 68.2 3.0 68.2 3.0 68.2 Z M 4.1 76.3 C 3.9 75.9 3.5 76.8 4.1 76.3 C 4.1 76.3 4.1 76.3 4.1 76.3 C 4.1 76.3 4.1 76.3 4.1 76.3 Z M 6.2 75.5 C 6.3 75.5 6.3 75.4 6.3 75.4 C 6.3 75.1 6.4 75.4 6.5 75.3 C 6.4 75.0 6.2 75.4 6.1 75.1 C 6.0 75.1 6.2 75.4 6.2 75.5 C 6.2 75.5 6.2 75.5 6.2 75.5 Z M 28.6 31.6 C 28.8 31.4 28.7 31.2 28.6 31.0 C 28.5 31.1 28.4 31.2 28.3 31.1 C 28.1 31.4 28.5 31.1 28.6 31.1 C 28.7 31.2 28.5 31.4 28.6 31.6 C 28.6 31.6 28.6 31.6 28.6 31.6 Z M 29.2 31.0 C 29.2 30.8 29.3 30.7 29.3 30.6 C 29.1 30.7 29.1 30.7 29.0 30.6 C 29.0 30.8 29.2 30.8 29.2 31.0 C 29.2 31.0 29.2 31.0 29.2 31.0 Z M 27.9 31.8 C 27.9 31.8 27.8 31.7 27.8 31.6 C 27.7 31.7 27.6 31.7 27.5 31.8 C 27.5 31.8 27.5 31.9 27.6 31.9 C 27.7 31.9 27.7 31.8 27.8 31.7 C 27.8 31.8 27.8 31.8 27.9 31.8 C 27.9 31.8 27.9 31.8 27.9 31.8 Z M 29.7 30.3 C 30.1 30.0 30.1 29.6 30.2 29.2 C 30.0 29.5 29.9 30.0 29.7 30.0 C 29.5 30.3 29.8 30.1 29.9 30.1 C 29.9 30.2 29.8 30.2 29.7 30.3 C 29.7 30.3 29.7 30.3 29.7 30.3 Z M 33.2 27.8 C 33.4 27.9 33.4 27.5 33.7 27.4 C 33.6 27.4 33.5 27.4 33.5 27.3 C 33.1 27.5 33.5 27.6 33.2 27.8 C 33.2 27.8 33.2 27.8 33.2 27.8 Z M 35.2 26.5 C 35.4 26.3 35.0 26.4 35.0 26.3 C 34.8 26.4 34.5 26.5 34.6 26.7 C 34.8 26.4 34.9 26.4 35.2 26.5 C 35.2 26.5 35.2 26.5 35.2 26.5 Z M 36.6 25.6 C 36.8 25.4 36.4 25.5 36.4 25.2 C 36.3 25.3 36.4 25.4 36.4 25.5 C 36.3 25.5 36.2 25.5 36.1 25.5 C 36.3 25.6 36.5 25.4 36.6 25.6 C 36.6 25.6 36.6 25.6 36.6 25.6 Z M 23.1 35.8 C 23.2 35.6 23.1 35.5 23.4 35.3 C 23.0 35.7 22.8 35.1 22.3 35.7 C 22.5 35.6 22.5 35.7 22.4 35.7 C 22.3 36.0 22.6 35.6 22.6 35.9 C 22.7 35.8 22.5 35.7 22.6 35.5 C 22.9 35.5 23.0 35.5 23.1 35.8 C 23.1 35.8 23.1 35.8 23.1 35.8 Z M 22.2 35.5 C 22.0 35.6 22.3 35.9 22.1 35.8 C 22.0 35.9 22.1 35.9 22.1 36.0 C 22.2 35.9 22.2 35.9 22.2 36.0 C 22.3 35.8 22.4 35.6 22.2 35.5 C 22.2 35.5 22.2 35.5 22.2 35.5 Z M 23.5 34.2 C 23.3 34.5 23.2 34.5 23.2 34.7 C 22.9 34.6 23.1 35.0 22.8 34.9 C 22.6 35.2 22.9 35.1 23.0 35.1 C 22.8 35.4 22.8 35.0 22.6 35.3 C 22.7 35.5 23.0 35.1 23.1 35.3 C 23.3 35.2 23.2 35.1 23.2 34.9 C 23.3 34.9 23.4 35.0 23.4 35.0 C 23.6 34.8 23.7 34.9 23.8 34.7 C 23.7 34.5 23.6 34.6 23.5 34.8 C 23.6 34.5 23.6 34.4 23.9 34.2 C 23.8 34.5 24.6 33.9 24.3 33.7 C 24.1 33.9 24.3 33.9 24.2 34.0 C 23.9 34.1 23.8 34.3 23.5 34.2 C 23.5 34.2 23.5 34.2 23.5 34.2 Z M 27.4 31.4 C 27.5 31.4 27.6 31.4 27.7 31.3 C 27.8 31.4 27.6 31.5 27.8 31.5 C 28.0 31.4 28.0 31.3 28.1 31.2 C 28.0 31.2 27.5 31.3 27.6 31.1 C 27.5 31.1 27.4 31.1 27.3 31.3 C 27.6 31.3 27.0 31.5 26.9 31.6 C 27.1 31.8 26.6 31.7 26.6 32.0 C 26.8 32.0 27.0 31.6 27.1 31.5 C 27.1 31.6 27.7 31.5 27.4 31.4 C 27.4 31.4 27.4 31.4 27.4 31.4 Z M 21.8 36.2 C 21.8 36.3 21.6 36.4 21.8 36.3 C 21.8 36.5 21.6 36.5 21.8 36.6 C 21.8 36.7 21.7 36.8 21.6 36.9 C 21.6 36.8 21.8 36.6 21.6 36.6 C 21.5 36.8 21.5 36.6 21.3 36.8 C 21.3 36.6 21.2 36.7 21.1 36.5 C 21.1 36.6 20.9 36.8 21.1 36.9 C 20.8 37.1 20.9 36.6 20.6 37.0 C 20.5 36.9 20.8 36.6 20.9 36.6 C 20.8 36.4 20.4 37.0 20.2 37.2 C 20.5 37.1 20.4 37.4 20.5 37.6 C 20.3 37.7 20.4 37.5 20.2 37.6 C 20.0 37.7 20.1 37.9 20.0 37.8 C 19.9 37.9 20.0 38.0 20.1 38.1 C 19.9 38.2 19.8 37.9 19.6 38.2 C 20.0 38.2 19.9 38.4 19.5 38.7 C 19.6 38.8 19.7 38.7 19.8 38.7 C 19.8 38.8 19.5 38.9 19.4 38.9 C 19.3 39.0 19.5 39.0 19.5 38.9 C 19.5 39.0 19.5 39.1 19.5 39.2 C 19.8 38.9 20.3 38.2 21.1 37.8 C 20.8 37.8 20.9 37.6 21.2 37.5 C 21.3 37.5 21.2 37.6 21.1 37.7 C 21.5 37.6 21.1 37.3 21.5 37.0 C 21.8 36.9 21.4 37.3 21.7 37.2 C 21.8 37.0 21.8 36.8 22.0 36.9 C 22.1 36.6 22.0 36.4 22.4 36.1 C 22.1 36.2 21.7 36.0 21.6 36.3 C 21.6 36.3 21.7 36.2 21.8 36.2 C 21.8 36.2 21.8 36.2 21.8 36.2 Z M 29.0 30.5 C 29.1 30.4 29.1 30.3 29.2 30.3 C 29.4 30.1 29.0 30.2 29.0 30.2 C 28.9 30.3 28.9 30.4 29.0 30.5 C 29.0 30.5 29.0 30.5 29.0 30.5 Z M 54.6 18.8 C 54.9 18.8 54.8 18.6 55.1 18.5 C 54.9 18.5 54.8 18.4 54.4 18.5 C 54.4 18.6 54.5 18.8 54.6 18.8 C 54.6 18.8 54.6 18.8 54.6 18.8 Z M 28.1 31.0 C 28.1 31.3 28.2 30.6 28.3 30.8 C 28.5 30.5 28.1 30.9 28.1 30.5 C 28.0 30.8 27.8 30.7 27.7 31.0 C 27.8 31.1 27.9 31.0 28.1 30.8 C 28.2 30.9 28.1 30.9 28.1 31.0 C 28.1 31.0 28.1 31.0 28.1 31.0 Z M 50.9 19.2 C 50.7 19.4 51.2 19.4 51.4 19.5 C 51.3 19.2 51.3 19.3 50.9 19.2 C 50.9 19.2 50.9 19.2 50.9 19.2 Z M 56.9 18.1 C 57.0 17.9 56.5 18.2 56.6 17.9 C 56.5 17.9 56.5 18.0 56.5 18.1 C 56.4 18.0 56.1 18.1 56.2 17.9 C 56.1 17.8 56.6 17.9 56.4 17.7 C 56.6 17.7 56.6 17.7 56.7 17.7 C 56.4 17.8 56.6 17.9 56.9 17.9 C 56.9 17.8 56.7 17.8 56.9 17.7 C 56.9 17.8 57.1 17.9 57.1 18.2 C 57.4 18.1 57.2 17.8 57.6 17.8 C 57.5 17.7 57.3 17.7 57.2 17.7 C 57.2 17.5 57.5 17.8 57.4 17.5 C 57.5 17.6 57.7 17.7 57.8 17.9 C 57.5 18.0 57.4 18.1 57.2 18.3 C 57.4 18.4 57.6 17.9 58.0 18.0 C 57.9 17.9 58.1 17.9 58.0 17.7 C 58.3 17.7 58.2 18.0 58.2 18.0 C 58.3 18.1 58.8 18.0 58.7 17.8 C 58.8 18.0 59.4 17.8 59.4 17.6 C 59.6 17.7 59.8 17.4 59.9 17.7 C 60.0 17.6 60.3 17.6 60.5 17.6 C 60.5 17.4 60.1 17.5 60.1 17.4 C 60.0 17.2 60.5 17.4 60.5 17.2 C 60.5 17.2 60.5 17.1 60.5 17.1 C 60.3 17.2 60.1 17.2 59.9 17.3 C 59.8 17.3 59.9 17.2 59.9 17.1 C 59.8 17.3 59.2 17.6 59.1 17.2 C 58.7 17.4 58.4 17.3 58.3 17.5 C 58.0 17.5 58.4 17.4 58.3 17.3 C 57.6 17.6 56.7 17.4 56.1 17.8 C 56.0 17.8 56.0 17.7 56.0 17.6 C 55.2 17.9 55.9 18.0 55.3 18.0 C 55.3 17.9 55.6 17.8 55.5 17.7 C 55.3 17.7 55.3 17.8 55.0 17.8 C 55.0 17.9 55.0 18.0 55.0 18.1 C 54.8 18.1 54.8 17.9 54.7 17.8 C 54.4 17.9 54.5 18.0 54.3 17.8 C 54.0 18.0 53.8 18.1 53.5 18.1 C 53.3 18.2 53.7 18.4 54.0 18.4 C 54.0 18.4 53.9 18.5 53.9 18.5 C 53.6 18.4 53.4 18.1 52.9 18.2 C 53.4 18.3 52.7 18.3 52.6 18.2 C 52.4 18.3 52.6 18.5 52.8 18.4 C 52.8 18.5 52.6 18.5 52.6 18.4 C 52.6 18.7 53.1 18.7 53.6 18.5 C 53.5 18.8 54.0 18.4 53.8 18.8 C 54.2 18.6 53.8 18.5 54.3 18.5 C 54.3 18.4 54.2 18.3 54.1 18.3 C 54.5 18.1 54.4 18.4 54.8 18.3 C 54.8 18.1 54.6 18.2 54.5 18.1 C 55.0 18.2 55.1 18.2 55.5 18.4 C 55.5 18.2 55.4 18.1 55.9 18.1 C 55.9 18.1 55.9 18.2 55.9 18.2 C 55.7 18.2 55.7 18.6 56.2 18.5 C 56.3 18.3 56.1 18.4 55.9 18.4 C 56.0 18.3 56.2 18.2 56.4 18.1 C 56.5 18.2 56.6 18.2 56.5 18.3 C 56.6 18.4 56.6 18.1 56.9 18.1 C 56.9 18.1 56.9 18.1 56.9 18.1 Z M 32.6 27.7 C 32.7 27.6 32.7 27.6 32.8 27.5 C 32.8 27.3 32.6 27.5 32.5 27.4 C 32.4 27.5 32.6 27.6 32.6 27.7 C 32.6 27.7 32.6 27.7 32.6 27.7 Z M 30.4 29.1 C 30.5 29.2 30.5 29.0 30.7 28.9 C 30.7 28.7 30.5 28.9 30.4 28.8 C 30.2 28.9 30.6 29.0 30.4 29.1 C 30.4 29.1 30.4 29.1 30.4 29.1 Z M 31.3 28.5 C 31.5 28.5 31.3 28.3 31.2 28.5 C 31.1 28.4 31.1 28.3 31.2 28.2 C 31.0 28.1 31.1 28.4 30.9 28.5 C 31.0 28.5 31.1 28.5 31.3 28.5 C 31.3 28.5 31.3 28.5 31.3 28.5 Z M 31.6 28.2 C 31.7 28.1 31.8 28.1 32.0 27.9 C 31.9 27.9 31.5 28.2 31.4 28.3 C 31.4 28.5 31.9 28.1 31.6 28.2 C 31.6 28.2 31.6 28.2 31.6 28.2 Z M 47.2 20.0 C 47.3 20.0 47.3 19.9 47.3 19.8 C 47.6 20.0 48.0 19.8 47.8 20.2 C 48.0 19.9 48.4 20.1 48.6 20.1 C 48.8 20.0 48.7 19.9 48.8 19.8 C 49.1 19.8 48.7 19.9 48.8 20.0 C 48.9 20.1 48.9 19.8 49.2 19.8 C 49.1 19.5 49.5 19.8 49.3 19.5 C 49.5 19.5 49.6 19.4 49.8 19.3 C 49.7 19.2 49.5 19.3 49.4 19.2 C 49.3 19.0 49.4 19.4 49.6 19.3 C 49.5 19.5 49.1 19.3 49.0 19.5 C 48.9 19.3 49.3 19.4 49.2 19.2 C 49.1 19.3 49.0 19.3 49.0 19.4 C 48.9 19.4 48.8 19.3 48.7 19.3 C 48.8 19.2 48.8 19.3 48.8 19.3 C 49.0 19.3 48.5 19.1 48.9 19.0 C 48.8 18.9 48.7 19.0 48.7 18.9 C 48.5 18.8 48.8 19.3 48.4 19.2 C 48.2 19.5 49.0 19.3 48.9 19.7 C 48.4 19.8 48.6 19.4 48.2 19.5 C 48.2 19.6 48.2 19.7 48.1 19.7 C 48.2 19.8 48.3 19.7 48.4 19.7 C 48.4 19.7 48.3 19.8 48.2 19.8 C 48.2 19.9 48.3 19.8 48.3 19.9 C 47.9 19.9 47.8 19.6 48.1 19.4 C 48.1 19.2 47.7 19.4 47.6 19.5 C 47.7 19.6 47.6 19.6 47.7 19.8 C 47.8 19.7 47.8 19.7 47.8 19.6 C 48.0 19.6 47.8 19.7 47.9 19.8 C 47.7 19.8 47.6 19.7 47.5 19.8 C 47.5 19.8 47.5 19.7 47.5 19.6 C 47.4 19.7 47.3 19.7 47.2 19.7 C 47.3 19.8 47.2 19.9 47.2 20.0 C 47.2 20.0 47.2 20.0 47.2 20.0 Z M 52.1 19.1 C 52.4 19.1 52.2 19.0 52.0 19.0 C 52.1 18.9 52.2 18.9 52.3 18.8 C 52.2 18.8 52.1 18.8 51.8 18.9 C 52.0 18.6 51.7 18.3 51.2 18.5 C 51.2 18.8 51.6 18.8 51.5 19.0 C 51.8 18.8 52.0 18.9 52.1 19.1 C 52.1 19.1 52.1 19.1 52.1 19.1 Z M 28.9 30.2 C 29.1 30.0 29.2 29.9 29.4 29.8 C 29.2 29.7 28.7 29.9 28.9 30.2 C 28.9 30.2 28.9 30.2 28.9 30.2 Z M 19.1 39.4 C 19.0 39.4 19.0 39.4 19.0 39.4 C 18.8 39.7 19.2 39.4 19.2 39.6 C 19.2 39.5 19.3 39.4 19.4 39.4 C 19.3 39.3 19.0 39.6 19.1 39.3 C 19.1 39.3 19.0 39.3 19.1 39.4 C 19.1 39.4 19.1 39.4 19.1 39.4 Z M 32.3 27.6 C 32.4 27.5 32.2 27.3 32.6 27.1 C 32.4 27.1 32.3 27.2 32.2 27.4 C 32.2 27.4 32.3 27.5 32.3 27.6 C 32.3 27.6 32.3 27.6 32.3 27.6 Z M 46.0 20.7 C 46.3 20.8 46.2 20.4 46.7 20.4 C 46.4 20.2 46.2 20.6 46.0 20.7 C 46.0 20.7 46.0 20.7 46.0 20.7 Z M 61.2 17.2 C 61.1 17.2 61.3 17.1 61.0 17.0 C 60.9 17.1 60.8 17.2 60.7 17.3 C 60.9 17.4 61.4 17.2 61.6 17.5 C 61.8 17.4 61.8 17.2 61.9 17.1 C 61.8 17.1 61.7 17.1 61.7 17.1 C 61.6 17.3 61.4 16.9 61.2 17.2 C 61.2 17.2 61.2 17.2 61.2 17.2 Z M 50.8 19.1 C 50.6 19.1 50.9 18.9 50.9 18.8 C 51.0 18.8 51.0 18.9 51.1 19.0 C 51.2 18.9 51.2 18.8 51.2 18.7 C 50.9 18.7 50.5 18.8 50.7 18.5 C 50.3 18.6 50.6 18.8 50.4 18.9 C 50.2 18.8 50.4 18.7 50.3 18.5 C 50.3 18.6 50.1 18.8 50.1 18.6 C 49.7 18.9 50.0 19.2 50.4 19.4 C 50.6 19.1 50.3 19.1 50.8 19.1 C 50.8 19.1 50.8 19.1 50.8 19.1 Z M 39.5 23.1 C 39.6 23.1 39.7 23.0 39.7 23.1 C 39.9 22.9 39.9 22.6 40.0 22.4 C 39.9 22.2 39.8 22.5 39.9 22.6 C 39.8 22.5 39.6 22.5 39.4 22.5 C 39.2 22.5 39.4 22.9 39.2 22.6 C 39.1 22.8 39.2 22.8 38.9 22.9 C 39.4 22.8 38.8 23.0 38.8 23.2 C 39.1 23.1 39.3 23.0 39.2 22.8 C 39.4 22.8 39.6 22.8 39.7 22.9 C 39.8 23.0 39.6 23.0 39.5 23.1 C 39.5 23.1 39.5 23.1 39.5 23.1 Z M 40.3 22.1 C 40.3 22.2 40.2 22.2 40.1 22.3 C 40.2 22.3 40.2 22.4 40.3 22.5 C 40.5 22.3 40.5 22.2 40.6 22.3 C 40.9 22.3 40.5 22.1 40.8 22.1 C 40.8 22.0 40.6 22.1 40.6 22.0 C 40.6 22.2 40.5 22.3 40.3 22.1 C 40.3 22.1 40.3 22.1 40.3 22.1 Z M 43.2 21.3 C 43.4 21.2 43.0 21.2 43.1 21.0 C 43.0 21.1 42.6 21.2 42.6 21.1 C 42.3 20.9 42.1 21.5 42.0 21.2 C 41.9 21.3 42.0 21.4 42.0 21.4 C 42.3 21.2 42.3 21.4 42.1 21.5 C 42.2 21.6 42.4 21.5 42.5 21.4 C 42.5 21.3 42.3 21.3 42.3 21.2 C 42.6 21.2 42.9 21.3 43.2 21.3 C 43.2 21.3 43.2 21.3 43.2 21.3 Z M 12.8 47.9 C 12.9 47.7 13.0 47.6 13.0 47.4 C 12.9 47.5 12.9 47.6 12.9 47.7 C 12.8 47.7 12.8 47.6 12.9 47.5 C 12.7 47.5 12.6 47.9 12.8 47.9 C 12.8 47.9 12.8 47.9 12.8 47.9 Z M 13.8 46.2 C 13.9 46.1 14.0 45.9 13.9 45.8 C 13.7 45.9 13.9 45.9 13.8 46.0 C 13.7 46.1 13.7 46.1 13.6 46.1 C 13.5 46.2 13.6 46.2 13.6 46.3 C 13.6 46.3 13.6 46.3 13.5 46.3 C 13.5 46.6 13.7 46.0 13.8 46.2 C 13.8 46.2 13.8 46.2 13.8 46.2 Z M 41.6 21.8 C 41.5 21.7 41.4 21.7 41.2 21.8 C 41.3 21.9 41.1 21.9 41.0 22.0 C 41.3 22.0 41.3 21.9 41.6 21.8 C 41.6 21.8 41.6 21.8 41.6 21.8 Z M 21.0 36.4 C 21.3 36.3 21.1 36.1 21.5 35.9 C 21.4 35.9 21.4 35.8 21.3 35.8 C 21.3 36.1 21.1 36.1 21.0 36.4 C 21.0 36.4 21.0 36.4 21.0 36.4 Z M 5.4 72.3 C 5.3 72.2 5.4 72.5 5.2 72.5 C 5.5 72.6 5.0 72.7 5.1 73.3 C 5.0 73.3 5.0 73.3 5.0 73.2 C 4.9 73.6 5.2 73.1 5.3 73.0 C 5.3 72.7 5.5 72.6 5.4 72.3 C 5.4 72.3 5.4 72.3 5.4 72.3 Z M 58.3 17.0 C 58.3 17.0 58.4 17.0 58.4 17.0 C 58.5 17.0 58.5 17.0 58.6 17.0 C 58.6 16.7 58.2 16.7 58.4 16.4 C 58.4 16.4 58.3 16.4 58.4 16.5 C 58.0 17.1 57.5 16.2 56.9 16.7 C 56.8 16.7 56.9 16.7 56.8 16.8 C 56.9 16.8 56.9 16.8 56.9 16.8 C 57.0 16.6 57.6 16.8 57.3 16.9 C 57.4 17.0 57.4 16.9 57.4 16.9 C 57.5 16.9 57.6 16.9 57.6 16.9 C 57.6 16.8 57.4 16.8 57.4 16.7 C 57.7 16.7 58.1 16.8 57.9 17.0 C 58.1 17.0 58.2 16.9 58.3 16.8 C 58.4 16.8 58.4 16.9 58.3 17.0 C 58.3 17.0 58.3 17.0 58.3 17.0 Z M 60.8 16.6 C 61.1 16.7 61.0 16.5 61.3 16.5 C 61.1 16.3 60.9 16.6 60.6 16.5 C 60.6 16.6 60.8 16.6 60.8 16.6 C 60.8 16.6 60.8 16.6 60.8 16.6 Z M 55.2 17.1 C 55.3 16.9 55.0 16.9 54.7 17.0 C 54.7 17.2 55.0 17.2 55.2 17.1 C 55.2 17.1 55.2 17.1 55.2 17.1 Z M 56.5 16.9 C 56.7 16.8 56.1 16.9 56.2 16.7 C 56.1 16.7 56.0 16.8 55.9 16.7 C 55.9 16.8 55.9 16.8 55.7 16.9 C 55.7 17.0 56.0 16.9 56.0 17.0 C 56.2 16.8 56.2 16.8 56.5 16.9 C 56.5 16.9 56.5 16.9 56.5 16.9 Z M 56.7 16.9 C 56.8 16.8 56.6 16.5 56.3 16.6 C 56.4 16.7 56.5 16.8 56.7 16.9 C 56.7 16.9 56.7 16.9 56.7 16.9 Z M 35.6 24.1 C 35.7 24.1 35.5 24.0 35.6 23.9 C 35.6 23.8 35.1 24.1 35.5 23.8 C 35.2 23.7 35.3 24.1 35.1 24.1 C 35.2 24.1 35.3 24.2 35.2 24.2 C 35.2 24.4 35.5 24.0 35.6 24.1 C 35.6 24.1 35.6 24.1 35.6 24.1 Z M 36.1 23.9 C 36.2 23.8 36.1 23.8 36.0 23.8 C 36.0 23.7 36.2 23.7 36.3 23.6 C 36.3 23.7 35.9 23.5 35.9 23.3 C 35.5 23.7 35.9 23.7 36.1 23.9 C 36.1 23.9 36.1 23.9 36.1 23.9 Z M 36.4 23.5 C 36.8 23.5 37.1 23.3 37.2 23.0 C 36.9 22.9 36.4 23.2 36.4 23.5 C 36.4 23.5 36.4 23.5 36.4 23.5 Z M 33.6 25.1 C 34.3 25.0 35.1 24.1 34.1 24.5 C 34.2 24.6 33.7 25.0 33.3 25.1 C 33.4 25.2 33.1 25.5 33.1 25.4 C 32.9 25.7 33.8 25.1 33.6 25.1 C 33.6 25.1 33.6 25.1 33.6 25.1 Z M 37.4 22.5 C 37.3 22.7 37.7 22.9 37.4 22.9 C 37.3 23.0 37.5 22.9 37.5 23.0 C 37.7 22.9 38.2 22.4 38.3 22.6 C 38.4 22.5 38.4 22.3 38.7 22.2 C 38.6 22.1 37.8 22.8 37.5 22.6 C 37.5 22.5 37.8 22.3 37.4 22.5 C 37.4 22.5 37.4 22.5 37.4 22.5 Z M 20.2 35.7 C 20.3 35.8 20.5 35.4 20.6 35.6 C 20.6 35.3 20.8 35.2 20.9 34.9 C 21.0 34.9 21.1 35.1 21.4 34.9 C 21.3 34.8 21.2 34.9 21.2 34.7 C 21.4 34.5 21.5 34.7 21.7 34.4 C 21.5 34.2 22.2 33.8 22.0 33.7 C 21.8 33.8 22.0 33.9 21.7 34.1 C 21.6 34.2 21.6 34.1 21.5 34.1 C 21.4 34.0 21.7 34.0 21.7 33.8 C 21.6 33.8 21.4 33.9 21.3 33.9 C 21.2 34.0 21.4 33.9 21.5 34.0 C 21.2 34.3 21.2 33.7 20.9 34.0 C 21.1 34.1 21.1 34.1 21.2 34.3 C 21.0 34.3 20.7 34.8 20.8 34.4 C 20.7 34.4 20.6 34.7 20.7 34.8 C 20.6 34.9 20.5 34.9 20.5 34.8 C 20.2 35.2 20.3 35.4 20.5 35.4 C 20.6 35.6 20.3 35.4 20.2 35.7 C 20.2 35.7 20.2 35.7 20.2 35.7 Z M 31.0 26.7 C 30.9 26.9 31.2 26.5 31.4 26.4 C 31.2 26.5 31.1 26.3 30.9 26.4 C 31.0 26.4 31.0 26.5 30.8 26.6 C 30.8 26.7 31.2 26.5 31.0 26.7 C 31.0 26.7 31.0 26.7 31.0 26.7 Z M 39.2 22.0 C 39.3 22.0 39.7 21.7 40.0 21.7 C 39.8 21.4 39.4 22.1 39.2 21.8 C 39.1 21.9 39.4 21.9 39.2 22.0 C 39.2 22.0 39.2 22.0 39.2 22.0 Z M 23.0 33.2 C 23.1 33.1 23.0 33.1 22.9 33.1 C 22.9 33.0 23.1 32.9 23.2 32.8 C 22.9 32.9 23.1 32.6 22.9 32.5 C 23.0 32.5 23.1 32.4 23.0 32.4 C 23.3 32.6 23.4 31.8 22.9 32.2 C 23.1 32.2 23.0 32.3 22.9 32.5 C 22.6 32.6 22.6 32.9 22.3 32.8 C 22.2 32.9 22.3 33.0 22.1 33.2 C 21.9 33.1 21.7 33.2 21.7 32.9 C 21.4 33.2 21.9 33.3 21.6 33.6 C 21.3 33.8 21.6 33.4 21.5 33.3 C 21.4 33.4 21.4 33.3 21.3 33.3 C 21.2 33.4 21.3 33.5 21.4 33.4 C 21.5 33.5 21.3 33.8 21.2 33.6 C 21.2 33.8 21.8 33.8 21.9 33.5 C 22.0 33.3 22.3 33.6 22.1 33.7 C 22.3 33.7 22.2 33.2 22.4 33.5 C 22.5 33.5 22.6 33.4 22.7 33.3 C 22.6 33.3 22.6 33.3 22.5 33.3 C 22.6 33.2 22.7 33.1 22.8 33.0 C 22.8 33.1 22.8 33.2 23.0 33.2 C 23.0 33.2 23.0 33.2 23.0 33.2 Z M 38.0 22.5 C 38.3 22.4 38.3 22.3 38.4 22.1 C 38.3 22.1 37.9 22.4 38.0 22.5 C 38.0 22.5 38.0 22.5 38.0 22.5 Z M 18.7 36.6 C 18.7 36.6 18.8 36.4 18.9 36.5 C 18.7 36.8 19.0 36.6 19.1 37.0 C 19.3 36.6 19.0 36.2 18.6 36.5 C 18.3 36.8 18.9 36.3 18.7 36.6 C 18.7 36.6 18.7 36.6 18.7 36.6 Z M 19.6 35.8 C 19.6 35.5 19.2 35.9 19.0 36.0 C 19.0 35.9 18.9 35.9 18.9 35.8 C 18.9 36.3 19.3 36.0 19.3 36.5 C 19.6 36.2 19.8 36.2 19.9 35.8 C 19.9 35.8 19.9 35.9 19.9 35.9 C 19.7 36.1 19.6 35.8 19.9 35.7 C 19.8 35.7 19.6 35.8 19.5 35.9 C 19.5 35.9 19.6 35.9 19.7 36.0 C 19.5 36.2 19.5 36.0 19.4 36.1 C 19.3 36.1 19.5 35.7 19.6 35.8 C 19.6 35.8 19.6 35.8 19.6 35.8 Z M 9.2 52.3 C 9.2 52.1 8.9 52.3 8.6 52.2 C 8.5 52.4 8.5 52.5 8.5 52.6 C 8.7 52.6 8.8 52.4 8.9 52.3 C 9.1 52.5 8.7 52.6 8.8 52.7 C 9.0 53.0 8.9 52.2 9.2 52.3 C 9.2 52.3 9.2 52.3 9.2 52.3 Z M 26.2 29.9 C 26.3 29.8 26.2 29.8 26.2 29.8 C 26.1 29.7 26.3 29.6 26.3 29.7 C 26.4 29.6 26.2 29.7 26.3 29.5 C 26.3 29.4 26.1 29.7 26.1 29.8 C 26.0 29.9 26.0 29.6 25.9 29.6 C 25.7 29.7 25.9 29.8 25.6 29.9 C 25.8 29.9 26.0 29.9 26.2 29.9 C 26.2 29.9 26.2 29.9 26.2 29.9 Z M 18.5 37.3 C 18.5 37.4 18.4 37.0 18.7 36.9 C 18.9 36.6 18.4 36.9 18.6 36.7 C 18.4 36.9 18.3 37.2 18.1 37.5 C 18.1 37.7 18.5 37.1 18.3 37.5 C 18.4 37.5 18.4 37.4 18.4 37.4 C 18.4 37.3 18.4 37.3 18.5 37.3 C 18.5 37.3 18.5 37.3 18.5 37.3 Z M 18.4 36.8 C 18.4 36.7 18.3 36.8 18.4 36.8 C 18.3 36.9 18.1 36.8 18.2 36.7 C 17.9 36.7 18.2 37.0 17.9 37.1 C 18.1 37.1 18.3 37.1 18.0 37.3 C 17.9 37.6 18.4 36.9 18.4 36.8 C 18.4 36.8 18.4 36.8 18.4 36.8 Z M 10.4 49.4 C 10.3 49.4 10.3 49.6 10.2 49.7 C 10.1 49.5 10.6 48.8 10.7 48.8 C 10.7 48.7 10.7 48.6 10.8 48.6 C 10.8 48.6 10.8 48.3 10.7 48.4 C 10.7 48.4 10.8 48.2 10.7 48.2 C 10.9 47.9 10.8 48.3 10.9 48.3 C 10.9 47.9 11.0 48.0 11.2 47.7 C 11.0 47.7 10.9 48.1 10.7 47.9 C 10.7 48.3 10.4 48.6 10.2 48.7 C 10.5 48.5 10.1 49.6 9.9 50.1 C 9.8 50.0 9.7 50.2 9.5 50.4 C 9.3 50.4 9.7 50.5 9.7 50.2 C 9.8 50.3 9.6 50.6 9.5 50.8 C 9.7 50.6 9.7 50.8 9.8 50.7 C 10.0 50.4 9.8 50.7 9.7 50.5 C 9.7 50.5 9.8 50.4 9.8 50.3 C 9.9 50.9 10.2 49.6 10.0 50.0 C 10.2 49.7 10.3 49.8 10.4 49.4 C 10.4 49.4 10.4 49.4 10.4 49.4 Z M 15.3 41.5 C 15.3 41.4 15.4 41.1 15.5 41.1 C 15.6 40.7 15.3 40.9 15.6 40.5 C 15.5 40.5 15.4 40.7 15.3 40.6 C 15.3 40.8 15.2 41.0 15.4 41.1 C 15.3 41.2 15.3 41.3 15.2 41.4 C 15.2 41.3 15.2 41.2 15.3 41.1 C 15.2 41.0 15.1 41.0 14.9 41.2 C 15.0 41.4 15.1 41.4 15.3 41.5 C 15.3 41.5 15.3 41.5 15.3 41.5 Z M 15.7 40.5 C 15.7 40.5 15.8 40.5 15.9 40.5 C 16.1 40.5 15.7 40.3 15.8 40.2 C 15.9 40.1 15.9 40.2 16.0 40.2 C 16.1 40.1 16.1 40.0 16.3 39.9 C 16.3 39.6 15.9 40.1 15.8 40.1 C 15.7 40.3 15.9 40.3 15.7 40.5 C 15.7 40.5 15.7 40.5 15.7 40.5 Z M 17.7 38.2 C 17.8 38.3 17.7 38.0 17.8 38.0 C 17.6 37.9 17.5 38.2 17.5 37.9 C 17.2 38.1 17.2 38.1 17.1 38.4 C 16.8 38.4 17.2 38.5 17.3 38.2 C 17.3 38.3 17.3 38.4 17.3 38.5 C 16.9 38.4 17.0 39.1 17.0 38.7 C 17.1 38.7 17.2 38.7 17.3 38.7 C 17.2 38.5 17.7 38.1 17.7 38.2 C 17.7 38.2 17.7 38.2 17.7 38.2 Z M 24.4 30.9 C 24.1 31.2 24.1 31.2 23.8 31.5 C 23.8 31.4 23.8 31.4 23.8 31.3 C 23.7 31.3 23.6 31.4 23.5 31.6 C 23.6 31.6 23.6 31.5 23.6 31.5 C 23.9 31.4 23.7 31.6 23.8 31.7 C 24.2 31.6 24.2 31.1 24.5 31.2 C 24.6 31.0 24.4 31.1 24.4 30.9 C 24.4 30.9 24.4 30.9 24.4 30.9 Z M 4.0 71.8 C 4.0 71.8 4.0 72.0 4.1 72.0 C 4.1 71.8 4.1 71.7 4.0 71.6 C 4.0 71.8 3.7 71.8 3.7 72.1 C 3.8 72.0 4.0 72.1 4.0 71.8 C 4.0 71.8 4.0 71.8 4.0 71.8 Z M 17.0 39.0 C 16.9 38.9 16.8 38.9 16.9 38.8 C 16.8 38.7 16.7 39.0 16.6 38.9 C 16.5 39.0 16.6 39.0 16.6 39.1 C 16.7 39.2 16.8 38.9 16.9 39.1 C 16.8 39.2 16.8 39.2 16.8 39.2 C 16.7 39.4 16.9 39.2 17.0 39.0 C 17.0 39.0 17.0 39.0 17.0 39.0 Z M 8.6 53.1 C 8.7 52.9 8.5 53.0 8.5 53.1 C 8.4 52.8 8.2 53.2 8.0 53.1 C 8.2 53.1 8.2 52.7 8.3 52.6 C 8.3 52.5 8.1 52.6 8.2 52.3 C 8.1 52.2 8.0 52.6 8.2 52.6 C 8.0 52.6 8.1 53.0 7.9 52.9 C 7.7 53.3 7.8 53.4 7.9 53.5 C 8.0 53.1 8.2 53.4 8.3 53.1 C 8.4 53.1 8.3 53.2 8.3 53.3 C 8.4 53.3 8.5 53.1 8.6 53.1 C 8.6 53.1 8.6 53.1 8.6 53.1 Z M 13.4 44.0 C 13.5 43.8 13.4 43.8 13.2 43.7 C 13.2 43.8 13.2 43.9 13.1 44.1 C 13.2 44.1 13.3 43.8 13.4 44.0 C 13.4 44.0 13.4 44.0 13.4 44.0 Z M 9.0 51.5 C 9.1 51.5 9.1 51.5 9.1 51.5 C 9.2 51.2 9.3 51.2 9.4 51.2 C 9.4 51.0 9.3 51.0 9.2 51.0 C 9.3 51.3 9.1 51.1 9.0 51.4 C 9.0 51.4 9.1 51.5 9.0 51.5 C 9.0 51.5 9.0 51.5 9.0 51.5 Z M 12.2 45.7 C 12.2 45.6 12.2 45.7 12.1 45.7 C 12.0 45.5 12.4 45.2 12.4 45.0 C 12.3 45.0 12.0 45.4 12.3 44.9 C 12.1 44.9 11.9 45.4 11.8 45.6 C 11.7 45.5 11.9 45.2 11.7 45.1 C 11.6 45.4 11.5 45.7 11.7 45.9 C 12.0 45.6 12.0 45.8 12.2 45.7 C 12.2 45.7 12.2 45.7 12.2 45.7 Z M 11.8 46.1 C 11.9 46.1 11.9 46.0 12.0 45.9 C 11.7 45.9 11.7 46.1 11.4 46.5 C 11.4 46.5 11.5 46.6 11.5 46.6 C 11.4 46.7 11.4 46.8 11.3 46.8 C 11.7 46.6 11.7 46.4 11.8 46.0 C 11.9 46.0 11.9 46.0 11.8 46.1 C 11.8 46.1 11.8 46.1 11.8 46.1 Z M 19.8 35.3 C 19.6 35.3 19.5 35.3 19.3 35.5 C 19.4 35.6 19.6 35.6 19.8 35.3 C 19.8 35.3 19.8 35.3 19.8 35.3 Z M 8.8 51.8 C 8.8 52.1 8.9 51.6 8.6 51.7 C 8.5 51.9 8.3 52.0 8.2 52.0 C 8.2 52.5 8.6 51.7 8.8 51.8 C 8.8 51.8 8.8 51.8 8.8 51.8 Z M 9.1 50.1 C 9.2 50.0 9.4 50.1 9.2 50.1 C 9.1 50.4 9.5 50.0 9.3 50.3 C 9.4 50.2 9.7 49.9 9.7 49.7 C 9.5 49.6 9.4 50.0 9.3 49.9 C 9.2 49.9 9.2 49.8 9.3 49.8 C 9.2 49.8 9.2 49.9 9.1 50.1 C 9.1 50.1 9.1 50.1 9.1 50.1 Z M 10.1 48.9 C 9.9 49.0 9.7 49.1 9.6 49.4 C 9.8 49.3 10.0 49.2 10.1 48.9 C 10.1 48.9 10.1 48.9 10.1 48.9 Z M 4.0 66.5 C 4.1 66.2 3.8 66.4 3.8 66.4 C 3.7 66.7 3.9 66.7 3.8 66.9 C 4.0 66.9 3.8 66.6 4.0 66.5 C 4.0 66.5 4.0 66.5 4.0 66.5 Z M 3.8 67.3 C 3.6 67.3 3.6 67.7 3.5 67.7 C 3.8 68.0 3.2 68.2 3.5 68.2 C 3.5 68.3 3.4 68.4 3.4 68.5 C 3.8 68.3 3.7 67.6 3.8 67.3 C 3.8 67.3 3.8 67.3 3.8 67.3 Z M 10.5 47.2 C 10.7 47.0 10.3 47.1 10.4 46.9 C 10.4 46.8 10.1 47.3 10.2 47.0 C 9.9 47.3 10.5 47.1 10.5 47.2 C 10.5 47.2 10.5 47.2 10.5 47.2 Z M 12.9 42.9 C 13.0 43.0 13.1 42.6 13.2 42.5 C 13.2 42.5 13.1 42.6 13.1 42.6 C 13.0 42.6 13.0 42.5 13.1 42.4 C 12.9 42.4 13.0 42.8 12.9 42.9 C 12.9 42.9 12.9 42.9 12.9 42.9 Z M 13.1 49.1 C 12.8 49.2 12.6 49.3 12.8 49.5 C 12.6 49.6 12.6 49.3 12.5 49.4 C 12.4 49.7 12.3 49.5 12.2 49.9 C 12.0 49.8 11.9 50.1 11.8 50.0 C 11.8 49.9 12.1 49.8 12.0 49.6 C 11.9 49.7 11.8 49.6 11.9 49.6 C 12.1 49.4 12.0 50.0 12.2 49.7 C 12.1 49.5 12.7 49.3 12.8 49.0 C 12.9 49.2 13.2 48.9 13.1 49.1 C 13.1 49.1 13.1 49.1 13.1 49.1 Z M 12.0 50.5 C 11.9 50.7 11.5 50.6 11.5 50.6 C 11.6 50.6 11.7 50.4 11.6 50.3 C 11.6 50.3 11.6 50.4 11.5 50.4 C 11.7 50.0 11.8 50.2 12.0 50.2 C 11.9 50.4 11.8 50.4 11.9 50.5 C 11.9 50.5 11.9 50.4 12.0 50.5 C 12.0 50.5 12.0 50.5 12.0 50.5 Z M 7.1 54.0 C 7.2 53.9 7.1 53.8 7.1 53.7 C 7.4 53.8 7.2 53.2 7.4 53.2 C 7.4 53.4 7.4 53.6 7.4 53.7 C 7.5 53.6 7.5 53.6 7.5 53.5 C 7.6 53.5 7.5 53.8 7.6 53.9 C 7.5 53.9 7.6 54.1 7.5 54.1 C 7.5 53.7 7.0 54.2 7.1 54.0 C 7.1 54.0 7.1 54.0 7.1 54.0 Z M 11.5 45.1 C 11.3 45.0 10.7 45.1 10.7 44.6 C 10.9 44.7 11.1 44.7 11.3 44.8 C 11.3 44.6 11.5 44.6 11.4 44.3 C 12.1 44.2 11.2 44.6 11.5 45.1 C 11.5 45.1 11.5 45.1 11.5 45.1 Z M 12.2 43.6 C 12.3 43.8 12.4 43.6 12.5 43.7 C 12.3 43.8 12.1 44.4 12.1 44.2 C 12.1 44.0 12.0 43.9 12.2 43.6 C 12.2 43.6 12.2 43.6 12.2 43.6 Z M 44.3 19.5 C 44.1 19.8 43.8 19.5 44.0 19.4 C 44.0 19.6 44.4 19.3 44.3 19.5 C 44.3 19.5 44.3 19.5 44.3 19.5 Z M 35.7 26.8 C 36.0 26.8 36.1 26.6 36.2 26.8 C 36.0 26.9 35.9 26.8 35.8 26.9 C 35.8 27.0 35.7 27.1 35.6 27.1 C 35.7 27.0 35.7 26.9 35.7 26.8 C 35.7 26.8 35.7 26.8 35.7 26.8 Z M 19.1 41.1 C 19.2 41.2 19.3 41.1 19.4 41.2 C 19.1 41.4 19.0 41.7 19.0 42.0 C 18.9 41.9 18.8 41.9 18.8 41.9 C 19.1 41.5 19.1 41.3 19.1 41.1 C 19.1 41.1 19.1 41.1 19.1 41.1 Z M 19.7 40.9 C 19.7 40.8 19.4 40.8 19.6 40.6 C 19.7 40.7 20.0 40.6 20.0 40.7 C 19.8 40.7 19.8 40.8 19.7 40.9 C 19.7 40.9 19.7 40.9 19.7 40.9 Z M 10.9 54.0 C 10.8 54.2 11.0 54.0 11.1 54.0 C 11.0 54.2 10.9 54.4 10.8 54.4 C 10.9 54.3 10.7 54.0 10.9 54.0 C 10.9 54.0 10.9 54.0 10.9 54.0 Z M 11.9 50.7 C 12.1 50.2 12.3 50.5 12.6 50.1 C 12.6 50.4 12.4 50.7 12.5 50.9 C 12.4 50.9 12.3 51.0 12.2 50.9 C 12.3 50.7 12.4 50.7 12.4 50.6 C 12.2 50.6 12.3 50.6 12.2 50.4 C 12.1 50.6 12.1 50.7 12.1 50.7 C 12.0 50.7 11.9 50.8 11.9 50.7 C 11.9 50.7 11.9 50.7 11.9 50.7 Z M 10.4 53.7 C 10.4 53.9 10.1 54.0 10.2 53.8 C 10.3 53.9 10.2 53.7 10.3 53.7 C 10.3 54.0 10.5 53.5 10.6 53.7 C 10.5 53.8 10.6 53.9 10.7 53.9 C 10.6 54.0 10.6 54.2 10.5 54.2 C 10.5 54.1 10.6 54.0 10.5 54.0 C 10.5 54.0 10.5 54.1 10.4 54.0 C 10.5 53.9 10.5 53.8 10.4 53.7 C 10.4 53.7 10.4 53.7 10.4 53.7 Z M 11.0 52.5 C 10.9 52.8 10.7 52.7 10.5 52.7 C 10.7 52.4 11.0 52.5 11.2 52.3 C 11.0 52.5 11.1 52.9 11.0 52.9 C 11.0 52.8 11.1 52.6 11.0 52.5 C 11.0 52.5 11.0 52.5 11.0 52.5 Z M 69.1 16.9 C 68.9 16.8 68.7 16.7 68.4 16.6 C 68.3 16.8 68.8 17.2 68.6 17.0 C 68.3 17.0 68.5 16.8 68.3 16.8 C 68.5 17.0 67.4 17.0 67.3 16.7 C 67.5 16.8 67.6 16.7 67.5 16.6 C 68.0 16.6 68.2 16.5 68.5 16.4 C 68.8 16.7 69.5 16.8 69.9 16.5 C 70.1 16.9 70.6 16.6 70.9 16.9 C 71.0 16.8 70.6 16.6 70.9 16.6 C 71.1 16.8 71.0 16.9 71.2 17.0 C 71.2 16.9 71.2 16.8 71.3 16.8 C 71.3 16.9 71.5 16.9 71.5 17.0 C 71.0 16.9 71.5 17.2 71.1 17.2 C 70.9 17.1 71.3 16.9 70.8 16.9 C 70.6 17.0 70.5 17.0 70.5 17.2 C 70.4 17.2 70.3 17.2 70.2 17.2 C 70.4 17.0 69.6 17.3 69.9 17.0 C 70.0 17.0 70.2 17.1 70.4 17.0 C 70.3 16.8 70.1 16.9 69.8 17.0 C 69.6 16.8 69.8 16.8 69.7 16.7 C 69.4 16.8 69.7 17.0 69.6 17.1 C 69.6 17.1 69.7 17.1 69.7 17.1 C 69.3 16.9 69.2 17.1 69.0 17.1 C 69.1 17.0 68.7 16.9 69.1 16.9 C 69.1 16.9 69.1 16.9 69.1 16.9 Z M 72.6 17.0 C 72.7 17.0 72.8 17.0 72.9 17.0 C 72.9 17.2 72.5 17.2 72.7 17.3 C 72.3 17.3 72.8 17.1 72.6 17.0 C 72.6 17.0 72.6 17.0 72.6 17.0 Z M 70.7 16.1 C 70.6 15.9 70.6 16.4 70.5 16.4 C 70.7 16.3 70.9 16.3 71.0 16.5 C 70.7 16.4 70.6 16.4 70.3 16.5 C 70.6 16.2 70.0 16.2 69.9 16.0 C 70.1 16.0 70.3 15.9 70.6 15.9 C 70.5 16.0 71.0 16.1 70.7 16.1 C 70.7 16.1 70.7 16.1 70.7 16.1 Z M 71.5 16.0 C 71.5 16.1 72.0 16.0 71.9 16.2 C 71.6 16.2 71.5 16.2 71.6 16.4 C 71.4 16.4 71.3 16.3 71.2 16.3 C 71.1 16.1 71.4 16.1 71.5 16.0 C 71.4 16.0 71.4 16.0 71.5 16.0 C 71.5 16.0 71.5 16.0 71.5 16.0 Z M 3.2 74.0 C 3.4 73.9 3.3 74.3 3.3 74.4 C 3.5 74.3 3.5 74.3 3.6 74.6 C 3.3 74.5 3.4 74.9 3.1 75.1 C 3.3 75.1 3.4 74.9 3.4 75.2 C 3.4 75.5 3.4 75.7 3.5 76.1 C 3.3 76.2 3.3 76.0 3.2 75.9 C 3.2 76.2 3.1 76.1 3.1 76.3 C 3.2 76.3 3.2 76.4 3.1 76.5 C 3.1 76.1 2.9 77.0 2.8 76.6 C 2.9 76.6 2.9 76.5 2.8 76.4 C 3.1 76.5 3.0 76.0 3.1 75.9 C 2.7 75.7 2.9 75.2 3.0 74.6 C 3.1 74.5 3.2 74.7 3.2 74.6 C 3.1 74.6 3.1 74.4 3.1 74.3 C 3.2 74.3 3.3 74.2 3.3 74.1 C 3.3 74.1 3.2 74.1 3.2 74.0 C 3.2 74.0 3.2 74.0 3.2 74.0 Z M 53.1 16.2 C 53.0 15.9 52.4 16.2 52.3 16.3 C 52.3 16.0 53.4 15.8 53.1 16.2 C 53.1 16.2 53.1 16.2 53.1 16.2 Z M 56.8 15.3 C 56.6 15.3 56.8 15.5 56.6 15.5 C 56.6 15.3 56.3 15.7 56.3 15.6 C 56.4 15.4 56.5 15.4 56.8 15.3 C 56.8 15.3 56.8 15.3 56.8 15.3 Z M 60.4 14.9 C 60.1 15.0 60.5 15.0 60.5 15.1 C 60.2 15.1 60.0 15.1 60.0 15.0 C 60.2 15.0 60.3 14.8 60.4 14.9 C 60.4 14.9 60.4 14.9 60.4 14.9 Z M 55.0 15.4 C 54.8 15.4 55.1 15.1 55.2 15.2 C 54.9 15.3 55.4 15.3 55.6 15.2 C 55.6 15.5 55.5 15.4 55.7 15.6 C 55.3 15.7 55.6 15.4 55.3 15.5 C 55.2 15.6 55.4 15.5 55.4 15.7 C 55.3 15.7 55.2 15.7 55.1 15.7 C 55.1 15.6 55.1 15.5 55.0 15.5 C 55.2 15.4 55.3 15.4 55.2 15.3 C 55.1 15.3 55.1 15.4 55.0 15.4 C 55.0 15.4 55.0 15.4 55.0 15.4 Z M 2.9 79.2 C 2.9 79.4 3.0 79.2 3.0 79.1 C 2.9 79.1 2.6 79.0 2.7 78.8 C 2.9 79.2 3.0 78.7 3.1 78.9 C 2.9 79.0 3.2 79.2 3.1 79.4 C 3.0 79.5 2.7 79.3 2.9 79.2 C 2.9 79.2 2.9 79.2 2.9 79.2 Z M 3.0 78.5 C 2.9 78.5 2.9 78.6 2.9 78.7 C 2.8 78.6 2.7 78.8 2.7 78.6 C 2.8 78.6 2.8 78.1 2.8 78.4 C 2.7 78.7 2.9 78.3 3.0 78.2 C 3.0 78.3 3.2 78.6 3.0 78.6 C 3.0 78.5 3.0 78.5 3.0 78.5 C 3.0 78.5 3.0 78.5 3.0 78.5 Z M 2.9 72.0 C 2.8 71.9 2.7 72.1 2.7 72.2 C 2.7 71.6 2.8 71.2 2.8 71.0 C 2.8 71.2 3.0 71.2 3.1 71.1 C 3.0 71.3 3.1 71.4 3.0 71.5 C 2.8 71.2 2.9 71.7 2.9 72.0 C 2.9 72.0 2.9 72.0 2.9 72.0 Z M 2.9 72.0 " fill="#E2E2E2"></path><path d="M 69.6 2.8 C 69.5 2.9 69.5 3.1 69.4 3.0 C 69.3 3.0 69.4 3.1 69.4 3.1 C 69.4 3.2 69.4 3.1 69.3 3.1 C 69.3 3.1 69.2 3.2 69.2 3.2 C 69.3 3.3 69.4 3.1 69.5 3.2 C 69.6 3.2 69.6 2.9 69.7 3.1 C 69.8 2.9 69.7 3.0 69.6 2.8 Z M 67.6 2.4 C 67.6 2.1 67.3 2.1 67.4 2.0 C 67.5 1.9 67.9 1.9 67.7 2.0 C 67.6 2.1 67.6 2.5 67.6 2.4 Z M 70.3 3.5 C 70.2 3.5 70.1 3.6 70.1 3.6 C 70.0 3.5 70.1 3.3 70.2 3.4 C 70.2 3.4 70.2 3.4 70.3 3.5 Z M 70.2 8.0 C 70.2 8.1 70.3 8.1 70.4 8.1 C 70.4 7.9 70.4 7.8 70.2 7.8 C 70.3 7.8 70.4 7.9 70.2 8.0 Z M 73.9 12.7 C 73.9 12.7 73.9 12.7 73.9 12.8 C 73.9 12.8 73.9 12.8 73.9 12.8 C 74.1 12.9 74.5 12.7 74.4 12.5 C 74.4 12.5 74.4 12.6 74.4 12.6 C 74.3 12.5 74.3 12.4 74.2 12.5 C 74.2 12.5 74.3 12.6 74.2 12.7 C 74.2 12.6 74.1 12.7 74.1 12.7 C 74.0 12.5 74.3 12.5 74.2 12.2 C 73.8 12.2 74.0 12.6 73.9 12.7 Z M 71.5 10.2 C 71.5 10.2 71.5 10.2 71.5 10.2 C 71.5 10.2 71.5 10.2 71.5 10.2 C 71.5 10.2 71.5 10.2 71.5 10.2 Z M 70.6 6.3 C 70.7 6.3 70.6 6.2 70.6 6.2 C 70.5 6.2 70.5 6.2 70.5 6.2 C 70.5 6.3 70.5 6.4 70.6 6.3 Z M 68.4 4.0 C 68.6 4.2 68.4 4.3 68.6 4.5 C 68.6 4.4 68.6 4.4 68.7 4.3 C 68.7 4.5 68.7 4.5 68.8 4.6 C 68.6 4.6 68.7 4.8 68.9 4.9 C 68.8 5.1 68.9 5.3 69.0 5.4 C 69.1 5.2 69.1 5.3 69.2 5.1 C 69.1 5.2 69.3 5.4 69.1 5.4 C 69.0 5.4 69.2 5.6 69.3 5.4 C 69.3 5.5 69.5 5.5 69.5 5.7 C 69.4 5.7 69.1 5.8 69.2 6.0 C 69.3 5.8 69.5 6.0 69.7 5.8 C 69.7 5.9 69.4 6.0 69.5 6.2 C 69.6 6.0 69.6 6.1 69.6 6.2 C 69.7 6.2 69.8 6.2 69.8 6.3 C 69.8 6.3 69.7 6.4 69.7 6.4 C 69.7 6.5 69.7 6.6 69.5 6.7 C 69.6 6.7 69.6 6.7 69.6 6.8 C 69.7 6.9 69.6 6.6 69.7 6.6 C 69.8 6.7 69.7 6.9 69.6 7.0 C 70.0 7.0 69.7 7.3 69.8 7.4 C 69.9 7.4 69.9 7.3 69.8 7.2 C 70.0 7.1 70.0 7.3 70.2 7.2 C 70.2 7.3 70.4 7.5 70.2 7.7 C 70.3 7.6 70.4 7.5 70.5 7.4 C 70.6 7.4 70.6 7.4 70.6 7.5 C 70.6 7.5 70.6 7.5 70.6 7.5 C 70.5 7.5 70.4 7.6 70.4 7.6 C 70.5 7.7 70.6 7.6 70.7 7.7 C 70.5 7.8 70.5 7.9 70.5 8.1 C 70.5 8.1 70.5 8.1 70.6 8.1 C 70.6 8.1 70.6 8.0 70.6 8.0 C 70.6 8.0 70.7 8.0 70.7 8.1 C 70.7 8.1 70.8 8.1 70.7 8.1 C 70.7 8.1 70.7 8.1 70.7 8.1 C 70.7 8.1 70.7 8.2 70.8 8.2 C 70.8 8.3 70.7 8.2 70.6 8.4 C 70.6 8.4 70.6 8.4 70.6 8.4 C 70.6 8.4 70.6 8.4 70.6 8.4 C 70.7 8.4 70.7 8.4 70.7 8.4 C 70.7 8.4 70.7 8.4 70.7 8.4 C 70.7 8.4 70.7 8.5 70.7 8.5 C 70.7 8.5 70.7 8.5 70.7 8.5 C 70.7 8.5 70.7 8.5 70.7 8.5 C 70.7 8.5 70.7 8.5 70.7 8.5 C 70.8 8.5 70.9 8.5 71.0 8.5 C 71.0 8.5 70.9 8.6 70.9 8.6 C 71.0 8.8 71.2 8.7 71.3 8.8 C 71.4 8.9 71.2 8.8 71.1 8.8 C 71.3 8.9 71.1 9.1 71.1 9.3 C 71.1 9.3 71.2 9.3 71.2 9.3 C 71.2 9.3 71.2 9.3 71.2 9.3 C 71.2 9.3 71.2 9.3 71.2 9.3 C 71.3 9.3 71.3 9.3 71.3 9.4 C 71.3 9.4 71.3 9.4 71.3 9.4 C 71.3 9.4 71.3 9.4 71.3 9.4 C 71.3 9.4 71.3 9.5 71.3 9.5 C 71.3 9.5 71.3 9.5 71.5 9.6 C 71.4 9.7 71.3 9.8 71.4 10.0 C 71.6 9.9 71.3 9.7 71.6 9.6 C 71.6 9.6 71.5 9.6 71.5 9.5 C 71.6 9.5 71.6 9.6 71.7 9.5 C 71.8 9.7 71.4 9.8 71.6 9.9 C 71.6 9.9 71.7 9.9 71.8 9.8 C 71.8 9.9 71.8 9.9 71.8 10.0 C 71.7 9.9 71.7 10.0 71.7 10.1 C 71.7 10.1 71.7 10.1 71.7 10.1 C 71.9 10.2 71.5 10.2 71.6 10.3 C 71.7 10.3 71.8 10.2 71.8 10.2 C 71.7 10.3 71.8 10.4 71.9 10.4 C 71.8 10.4 71.8 10.4 71.8 10.4 C 71.8 10.5 71.9 10.5 71.9 10.5 C 71.9 10.5 71.8 10.6 71.8 10.6 C 71.8 10.7 71.9 10.8 71.9 10.9 C 72.0 10.8 72.0 10.7 72.1 10.7 C 72.1 10.8 72.1 10.9 72.0 11.0 C 72.2 11.0 72.2 11.2 72.0 11.3 C 71.9 11.3 72.2 11.6 72.4 11.4 C 72.4 11.7 72.5 11.7 72.7 12.1 C 72.6 12.2 72.6 11.9 72.5 12.0 C 72.3 11.9 72.8 12.2 72.7 12.4 C 72.9 12.4 73.1 12.4 73.1 12.7 C 73.1 12.7 73.0 12.6 73.1 12.6 C 72.8 12.7 73.2 12.9 73.3 13.1 C 73.6 13.2 73.5 12.8 73.6 13.0 C 73.8 12.9 73.6 12.8 73.7 12.7 C 73.6 12.6 73.7 12.9 73.5 12.8 C 73.5 12.8 73.5 12.7 73.6 12.6 C 73.5 12.6 73.4 12.7 73.4 12.6 C 73.5 12.6 73.5 12.5 73.5 12.4 C 73.5 12.5 73.6 12.5 73.6 12.5 C 73.5 12.4 73.5 12.4 73.4 12.4 C 73.6 12.3 73.6 12.4 73.7 12.4 C 73.8 12.4 73.8 12.3 73.9 12.4 C 73.8 12.4 73.8 12.4 73.8 12.5 C 73.8 12.5 73.8 12.5 73.8 12.5 C 73.9 12.4 73.9 12.3 73.9 12.2 C 73.8 12.2 73.8 12.2 73.7 12.2 C 73.9 12.0 73.9 12.3 74.0 12.1 C 73.9 12.2 74.0 11.8 73.8 11.9 C 73.9 12.0 73.6 12.2 73.7 12.0 C 73.8 11.9 73.7 11.8 73.8 11.7 C 73.9 11.8 74.0 11.8 74.0 12.0 C 74.2 11.7 74.0 12.1 74.3 11.9 C 74.3 12.1 74.6 12.0 74.5 12.1 C 74.4 12.2 74.3 12.0 74.3 12.1 C 74.4 12.2 74.5 12.1 74.6 12.2 C 74.6 12.4 74.5 12.6 74.7 12.7 L 74.1 13.1 C 74.2 13.2 74.2 13.4 73.9 13.5 C 73.9 13.6 74.0 13.5 74.1 13.6 C 74.1 13.8 73.9 13.5 73.8 13.7 C 74.1 13.9 74.1 14.2 74.3 14.3 C 74.2 14.4 74.2 14.6 74.3 14.7 C 74.5 14.6 74.2 14.6 74.4 14.5 C 74.5 14.5 74.6 14.6 74.8 14.5 C 75.0 14.8 74.6 14.8 74.5 14.9 C 74.5 15.0 74.6 15.0 74.6 15.1 C 74.7 15.0 74.7 15.0 74.6 14.9 C 74.7 14.9 74.8 14.9 74.9 14.9 C 74.7 15.1 75.0 15.1 74.7 15.3 C 76.2 16.6 76.3 14.5 76.5 14.3 L 77.6 15.1 C 77.7 14.7 76.6 13.3 76.5 13.0 C 76.5 13.0 76.6 12.9 76.6 12.9 C 76.6 12.8 76.4 12.8 76.3 12.7 C 76.4 12.6 76.4 12.7 76.4 12.5 C 76.3 12.5 76.3 12.6 76.2 12.6 C 76.2 12.5 76.4 12.4 76.2 12.3 C 76.1 12.3 76.2 12.4 76.2 12.5 C 76.0 12.6 76.2 12.3 76.0 12.4 C 76.0 12.3 76.1 12.2 76.2 12.3 C 76.3 12.1 75.9 12.1 76.2 12.0 C 76.1 12.0 76.0 12.0 76.1 11.9 C 76.1 11.9 76.0 11.9 75.9 12.0 C 75.9 11.9 76.1 11.7 75.9 11.9 C 75.9 11.6 75.6 11.1 75.5 11.2 C 75.3 11.0 75.6 10.9 75.5 10.9 C 75.2 10.9 75.4 10.7 75.2 10.4 C 75.0 10.6 75.2 10.4 75.1 10.3 C 75.0 10.3 75.0 10.4 74.9 10.4 C 75.1 10.2 74.8 9.9 74.6 9.9 C 74.5 9.8 74.6 9.7 74.5 9.7 C 74.6 9.6 74.7 9.7 74.7 9.8 C 74.8 9.6 74.7 9.5 74.9 9.4 C 74.8 9.3 74.5 9.7 74.4 9.6 C 74.3 9.5 74.6 9.5 74.5 9.3 C 74.3 9.6 74.5 9.1 74.4 9.0 C 74.1 9.1 74.2 8.5 74.0 8.6 C 73.9 8.4 74.1 8.4 74.0 8.3 C 73.6 8.2 73.6 7.8 73.3 7.4 C 73.4 7.4 73.6 7.5 73.5 7.4 C 73.2 7.2 73.4 7.2 73.3 7.0 C 73.2 7.1 73.1 6.9 73.0 7.0 C 73.0 6.6 72.4 6.2 72.4 5.7 C 72.3 5.6 72.3 5.7 72.2 5.7 C 72.3 5.5 72.0 5.4 72.1 5.3 C 71.9 5.3 72.1 5.1 71.9 5.3 C 71.9 5.2 71.9 5.2 71.9 5.1 C 72.0 5.0 72.3 5.3 72.2 5.1 C 71.5 4.8 71.8 4.3 71.4 4.2 C 71.4 4.0 71.5 4.0 71.4 3.9 C 71.5 3.9 71.6 3.8 71.7 3.9 C 71.8 3.6 71.3 3.9 71.4 3.7 C 71.3 3.6 71.3 3.9 71.4 3.9 C 71.3 4.0 71.3 3.9 71.2 4.1 C 71.2 3.9 71.3 3.7 71.1 3.5 C 71.1 3.5 71.2 3.5 71.2 3.5 C 71.4 3.3 71.1 3.5 71.0 3.4 C 71.0 3.5 70.9 3.5 70.9 3.6 C 70.9 3.6 70.8 3.6 70.8 3.5 C 71.0 3.4 70.8 3.5 70.8 3.3 C 70.6 3.3 70.3 3.5 70.4 3.6 C 70.5 3.7 70.5 3.4 70.6 3.5 C 70.7 3.7 70.3 4.3 70.8 4.1 C 70.9 4.1 70.6 4.2 70.6 4.1 C 70.7 3.9 70.8 4.1 70.9 4.0 C 70.9 4.1 70.9 4.2 71.0 4.3 C 70.7 4.5 70.7 4.3 70.7 4.3 C 70.6 4.6 70.9 4.6 70.9 4.8 C 70.9 4.9 71.0 4.5 71.0 4.4 C 71.2 4.6 71.2 4.9 71.1 5.3 C 71.2 5.3 71.2 5.2 71.3 5.2 C 71.3 5.3 71.3 5.3 71.2 5.3 C 71.3 5.4 71.4 5.4 71.5 5.5 C 71.5 5.6 71.5 5.8 71.4 5.9 C 71.5 6.0 71.5 5.8 71.6 5.8 C 71.5 6.1 71.8 5.9 71.7 6.2 C 71.6 6.3 71.5 6.0 71.4 6.0 C 71.4 6.1 71.3 6.1 71.3 6.2 C 71.6 6.2 71.6 6.2 71.7 6.5 C 71.8 6.4 71.8 6.4 71.8 6.3 C 71.9 6.2 71.8 6.6 72.0 6.3 C 72.0 6.4 71.9 6.6 72.1 6.5 C 72.0 6.8 72.0 6.8 72.1 7.0 C 72.0 7.2 71.9 7.1 71.8 7.0 C 71.8 7.2 71.8 7.2 71.6 7.1 C 71.6 7.1 71.7 7.0 71.7 7.0 C 71.7 6.9 71.5 7.0 71.4 6.8 C 71.4 6.7 71.5 6.8 71.6 6.7 C 71.5 6.7 71.3 6.7 71.5 6.5 C 71.4 6.5 71.2 6.6 71.1 6.5 C 71.1 6.4 71.2 6.4 71.1 6.3 C 71.3 6.2 71.3 6.5 71.4 6.3 C 71.3 6.2 71.2 6.3 71.1 6.1 C 71.0 6.1 70.9 6.1 70.8 6.1 C 70.8 6.2 70.9 6.2 70.9 6.3 C 70.7 6.4 71.1 6.4 71.0 6.6 C 71.2 6.5 71.4 6.8 71.3 6.9 C 71.4 6.8 71.7 7.0 71.6 7.1 C 71.5 7.1 71.3 7.2 71.3 7.3 C 71.5 7.2 71.5 7.3 71.6 7.2 C 71.6 7.5 72.0 7.4 72.0 7.6 C 71.8 7.5 71.7 7.5 71.5 7.4 C 71.4 7.5 71.3 7.7 71.2 7.8 C 71.5 7.6 71.2 8.0 71.4 7.9 C 71.4 7.8 71.4 7.7 71.5 7.6 C 71.6 7.8 71.8 7.5 71.9 7.7 C 71.6 7.8 71.6 8.0 71.5 8.0 C 71.7 8.0 71.6 8.0 71.7 7.9 C 71.8 8.1 71.6 8.3 71.6 8.1 C 71.6 8.2 71.5 8.2 71.6 8.3 C 71.7 8.1 71.7 8.4 71.9 8.3 C 72.0 8.3 71.9 8.2 71.9 8.1 C 71.9 8.1 71.8 8.2 71.8 8.1 C 72.0 8.0 71.6 7.8 71.9 7.8 C 71.9 8.0 72.2 7.9 72.1 8.0 C 72.0 7.9 72.0 8.0 72.0 8.1 C 72.1 8.2 72.2 8.3 72.3 8.3 C 72.3 8.2 72.2 8.1 72.3 8.0 C 72.5 8.3 72.2 8.5 72.1 8.4 C 72.1 8.4 72.1 8.4 72.0 8.4 C 72.1 8.7 72.2 8.6 72.3 8.6 C 72.3 8.8 72.3 8.9 72.2 9.2 C 72.3 9.2 72.2 9.1 72.4 9.0 C 72.5 9.2 72.3 9.3 72.4 9.5 C 72.5 9.4 72.5 9.3 72.6 9.2 C 72.7 9.5 72.8 9.2 73.0 9.4 C 72.5 9.4 73.0 9.6 72.7 9.6 C 72.9 9.9 73.0 10.2 72.7 10.3 C 72.8 10.3 72.8 10.2 72.7 10.2 C 72.8 10.3 72.6 10.5 72.5 10.4 C 72.6 10.3 72.6 9.9 72.5 10.2 C 72.4 9.9 72.7 9.7 72.7 9.4 C 72.6 9.4 72.6 9.4 72.6 9.4 C 72.6 9.6 72.5 9.9 72.3 9.9 C 72.3 9.7 72.2 9.6 72.0 9.5 C 72.2 9.3 72.1 9.4 72.0 9.3 C 72.0 9.2 72.2 9.1 72.1 9.0 C 72.1 9.0 72.0 9.1 71.9 9.1 C 71.9 8.9 71.8 9.0 71.7 8.8 C 71.8 8.7 71.9 8.9 72.1 8.8 C 71.9 8.4 71.9 8.9 71.6 8.6 C 71.6 8.5 71.8 8.5 71.7 8.4 C 71.3 8.3 71.3 7.7 70.9 7.4 C 70.9 7.3 71.1 7.4 71.1 7.3 C 70.9 7.3 70.9 7.1 70.7 6.9 C 71.0 6.7 70.6 6.6 70.4 6.6 C 70.5 6.5 70.6 6.5 70.6 6.5 C 70.5 6.4 70.4 6.3 70.3 6.3 C 70.3 6.2 70.3 6.2 70.4 6.2 C 70.4 6.1 70.4 6.2 70.5 6.2 C 70.5 6.2 70.5 6.2 70.5 6.2 C 70.5 6.2 70.6 6.1 70.6 6.1 C 70.6 6.1 70.6 6.0 70.7 6.0 C 70.7 6.0 70.7 6.0 70.7 6.1 C 70.9 6.0 71.0 6.0 71.1 5.8 C 70.9 5.8 71.0 5.6 70.8 5.5 C 70.9 5.5 71.0 5.5 71.0 5.7 C 71.1 5.6 71.3 5.5 71.2 5.4 C 71.1 5.5 71.1 5.5 71.1 5.5 C 71.0 5.6 71.0 5.5 70.9 5.5 C 70.9 5.4 71.0 5.4 71.0 5.3 C 71.0 5.1 70.7 5.8 70.6 5.1 C 70.5 5.2 70.6 5.3 70.4 5.3 C 70.4 5.1 70.5 4.9 70.3 4.6 C 70.0 4.7 69.9 4.7 69.8 5.0 C 69.9 4.9 70.0 4.8 70.2 4.9 C 70.0 5.1 70.0 5.2 70.1 5.4 C 70.2 5.4 70.3 5.3 70.3 5.4 C 70.1 5.7 70.4 5.8 70.4 6.1 C 70.3 6.0 70.2 6.0 70.1 6.0 C 70.1 5.8 70.2 5.9 70.2 5.8 C 70.0 5.8 70.0 5.7 70.0 5.7 C 70.0 5.7 70.0 5.7 69.9 5.7 C 70.0 5.6 70.0 5.6 70.0 5.6 C 70.0 5.6 70.0 5.6 69.9 5.6 C 70.0 5.6 70.0 5.5 69.9 5.5 C 69.9 5.5 70.0 5.5 70.0 5.4 C 69.9 5.3 69.5 5.3 69.6 5.0 C 69.7 4.9 69.5 5.0 69.5 5.1 C 69.4 5.2 69.6 4.8 69.3 5.1 C 69.3 4.8 69.5 5.0 69.6 4.8 C 69.5 4.7 69.5 4.9 69.4 4.8 C 69.3 4.7 69.5 4.6 69.5 4.6 C 69.4 4.5 69.4 4.7 69.2 4.6 C 69.3 4.5 69.2 4.3 69.1 4.2 C 69.1 4.3 69.1 4.4 68.9 4.5 C 68.7 4.3 69.1 4.3 68.9 4.1 C 68.8 4.2 68.9 4.3 68.8 4.3 C 68.7 4.4 68.8 4.2 68.7 4.1 C 68.9 4.0 68.8 4.1 69.0 3.9 C 69.0 4.0 69.0 4.0 69.0 4.0 C 69.2 4.0 68.9 3.7 68.8 4.0 C 68.8 3.9 68.8 3.9 68.8 3.8 C 68.8 3.8 68.8 3.9 68.7 3.9 C 68.7 3.8 68.7 3.7 68.6 3.6 C 68.5 3.7 68.7 3.9 68.4 4.0 Z M 72.9 8.9 C 72.9 9.0 72.7 9.1 72.6 9.1 C 72.5 9.0 72.6 8.8 72.6 8.7 C 72.7 8.8 72.8 8.7 72.9 8.9 Z M 73.9 10.6 C 73.8 10.8 73.8 11.1 73.6 11.1 C 73.7 10.8 73.6 10.8 73.9 10.6 Z M 73.3 11.5 C 73.3 11.4 73.1 11.7 73.0 11.5 C 73.3 11.5 73.2 11.3 73.2 11.1 C 73.3 11.0 73.4 10.9 73.4 11.0 C 73.4 11.1 73.2 11.1 73.2 11.2 C 73.4 11.2 73.5 11.3 73.6 11.1 C 73.6 11.5 73.6 11.3 73.8 11.3 C 73.7 11.7 73.5 11.9 73.1 11.8 C 73.3 11.7 73.1 11.7 73.0 11.7 C 73.2 11.6 73.3 11.6 73.3 11.5 Z M 73.3 10.6 C 73.2 10.4 73.1 10.4 73.2 10.3 C 73.2 10.4 73.3 10.4 73.4 10.4 C 73.3 10.3 73.4 10.2 73.5 10.3 C 73.3 10.5 73.2 10.7 73.4 10.8 C 73.2 10.8 73.3 11.0 72.9 11.1 C 72.7 10.9 73.0 10.6 73.3 10.6 Z M 70.1 4.2 C 70.1 4.4 70.1 4.4 70.2 4.4 C 70.1 4.4 70.3 4.5 70.2 4.6 C 70.1 4.5 70.1 4.6 70.2 4.7 C 69.9 4.8 70.1 4.4 69.9 4.4 C 69.9 4.5 69.9 4.6 69.8 4.7 C 69.8 4.6 69.7 4.6 69.8 4.6 C 69.9 4.6 69.6 4.5 69.8 4.4 C 69.8 4.4 69.8 4.5 69.9 4.4 C 69.8 4.3 69.9 4.2 69.9 4.1 C 70.0 4.2 70.0 4.3 70.1 4.3 C 70.1 4.2 70.1 4.2 70.1 4.2 Z M 68.4 3.3 C 68.4 3.5 68.4 3.6 68.4 3.8 C 68.5 3.7 68.7 3.3 68.6 3.5 C 68.7 3.6 68.5 3.6 68.5 3.7 C 68.7 3.5 69.0 4.0 68.8 4.1 C 68.7 4.0 68.7 4.1 68.6 4.1 C 68.5 3.9 68.3 3.9 68.2 3.8 C 68.3 3.6 68.2 3.3 67.9 3.2 C 68.1 2.9 67.7 2.9 67.8 2.6 C 67.7 2.6 67.7 2.9 67.6 2.7 C 67.7 2.6 67.8 2.6 67.8 2.5 C 67.8 2.5 67.7 2.6 67.6 2.5 C 67.7 2.5 67.7 2.4 67.7 2.4 C 67.8 2.6 67.9 2.2 68.0 2.4 C 68.0 2.5 67.8 2.5 67.9 2.6 C 68.0 2.7 68.1 2.7 68.2 2.6 C 68.2 2.7 68.3 2.7 68.3 2.7 C 68.1 2.8 68.5 3.0 68.2 2.9 C 68.2 2.9 68.2 2.8 68.1 2.8 C 68.0 2.9 68.1 3.0 68.3 3.0 C 68.2 3.2 68.1 3.1 68.1 3.2 C 68.3 3.2 68.3 3.0 68.4 3.1 C 68.4 3.0 68.3 3.0 68.4 3.0 C 68.4 3.2 68.5 3.2 68.6 3.3 C 68.5 3.3 68.5 3.5 68.4 3.3 Z M 69.3 2.4 C 69.4 2.4 69.4 2.3 69.5 2.3 C 69.4 2.4 69.5 2.5 69.5 2.5 C 69.5 2.5 69.6 2.5 69.6 2.5 C 69.5 2.6 69.4 2.5 69.3 2.4 Z M 67.3 2.0 C 67.3 1.9 67.3 1.9 67.3 1.8 C 67.4 1.8 67.5 1.9 67.6 1.7 C 67.7 1.9 67.4 1.8 67.3 2.0 Z M 69.8 4.2 C 69.7 4.3 70.0 4.1 70.0 4.2 C 69.9 4.1 69.8 4.0 70.0 3.9 C 70.0 4.1 70.0 4.1 70.2 4.2 C 69.9 4.2 70.1 4.4 69.9 4.5 C 69.8 4.5 69.7 4.5 69.7 4.3 C 69.7 4.3 69.7 4.1 69.8 4.2 Z M 69.6 3.8 C 69.7 3.8 69.5 3.6 69.7 3.6 C 69.7 3.7 69.8 3.7 69.9 3.6 C 69.9 3.7 69.9 3.7 69.9 3.8 C 69.8 3.9 69.7 3.8 69.6 3.8 C 69.6 3.8 69.6 3.9 69.6 3.8 Z M 66.9 23.5 C 66.8 23.3 66.8 23.6 66.7 23.7 C 66.6 23.6 66.5 23.8 66.4 23.7 C 66.4 23.7 66.5 23.6 66.5 23.5 C 66.6 23.6 66.6 23.6 66.6 23.6 C 66.6 23.6 66.5 23.5 66.6 23.4 C 66.7 23.6 66.7 23.4 66.8 23.3 C 66.9 23.4 67.0 23.4 66.9 23.5 Z M 67.1 23.7 C 67.2 23.7 67.0 23.5 67.2 23.5 C 67.2 23.6 67.3 23.6 67.4 23.5 C 67.4 23.6 67.4 23.6 67.4 23.7 C 67.3 23.8 67.2 23.7 67.1 23.7 C 67.1 23.7 67.1 23.8 67.1 23.7 Z M 76.4 11.8 C 76.4 11.8 76.3 11.8 76.3 11.7 C 76.3 11.7 76.2 11.8 76.2 11.9 C 76.3 11.9 76.2 12.0 76.3 12.0 C 76.3 11.9 76.4 11.9 76.4 11.8 Z M 65.0 24.4 C 64.9 24.5 64.9 24.5 64.9 24.6 C 65.0 24.6 65.0 24.6 65.1 24.6 C 65.0 24.6 65.0 24.5 65.1 24.4 L 65.0 24.4 Z M 68.9 23.1 C 69.0 23.2 69.0 23.2 69.0 23.2 C 69.0 23.1 69.1 23.1 69.1 23.1 C 69.1 23.1 69.0 23.1 69.0 23.1 C 69.0 23.1 69.0 23.1 69.0 23.1 C 69.0 23.0 68.9 23.1 68.9 23.1 Z M 75.6 17.0 C 75.5 17.0 75.5 17.1 75.5 17.2 C 75.6 17.2 75.6 17.3 75.6 17.4 C 75.7 17.4 75.7 17.3 75.8 17.4 C 75.7 17.3 75.7 17.2 75.6 17.0 Z M 62.2 23.2 C 62.2 24.2 62.7 25.1 63.6 25.7 C 63.6 25.5 63.3 25.5 63.3 25.4 C 64.1 25.2 66.3 24.9 64.7 24.0 C 64.9 24.2 65.1 24.1 65.3 24.0 C 65.4 24.0 65.3 24.2 65.4 24.2 C 65.4 24.2 65.5 24.2 65.5 24.2 C 65.6 24.1 65.6 23.9 65.6 23.8 C 65.7 23.9 65.8 24.1 65.8 24.2 C 66.0 24.1 65.9 23.8 65.9 23.6 C 66.0 23.5 66.1 23.4 66.2 23.2 C 66.4 23.3 66.4 23.0 66.5 23.1 C 66.5 22.9 66.5 22.9 66.5 22.7 C 66.6 22.7 66.5 22.9 66.7 22.9 C 66.7 22.7 67.0 22.5 66.8 22.3 C 66.7 22.3 66.8 22.5 66.7 22.7 C 66.6 22.6 66.7 22.5 66.7 22.3 C 67.1 22.1 67.5 22.0 67.9 21.8 C 67.9 22.1 67.6 22.1 67.4 22.4 C 67.4 22.3 67.4 22.3 67.3 22.3 C 67.2 22.5 67.3 22.6 67.4 22.8 C 67.3 22.8 67.3 22.9 67.2 23.0 C 67.3 22.9 67.4 23.0 67.5 23.0 C 67.5 23.1 67.4 23.0 67.3 23.0 C 67.3 23.0 67.4 23.1 67.4 23.1 C 67.2 23.1 67.4 23.2 67.3 23.2 C 67.3 23.3 67.5 23.3 67.4 23.5 C 67.6 23.4 67.4 23.5 67.6 23.6 C 67.6 23.5 67.6 23.5 67.6 23.4 C 67.6 23.4 67.6 23.5 67.7 23.5 C 67.7 23.5 67.8 23.5 67.8 23.5 C 67.8 23.4 67.8 23.4 67.7 23.4 C 67.9 23.4 67.8 23.5 67.9 23.5 C 67.8 23.6 67.7 23.6 67.6 23.6 C 67.8 23.7 67.9 23.5 68.1 23.5 C 68.1 23.5 68.0 23.4 68.0 23.5 C 67.8 23.5 68.0 23.4 67.9 23.3 C 68.1 23.3 67.9 23.4 68.0 23.4 C 68.1 23.4 68.1 23.3 68.3 23.3 C 68.3 23.3 68.2 23.2 68.2 23.2 C 68.2 23.2 68.3 23.2 68.3 23.1 C 68.4 23.2 68.5 23.3 68.6 23.3 C 68.5 23.2 68.6 23.2 68.7 23.2 C 68.7 23.2 68.6 23.2 68.6 23.2 C 68.6 23.1 68.8 23.2 68.8 23.1 C 68.8 23.0 68.8 23.1 68.7 23.0 C 69.0 23.0 69.2 23.0 69.4 23.0 C 69.5 22.9 69.5 22.8 69.6 22.9 C 69.6 22.8 69.7 22.7 69.6 22.7 C 69.9 22.8 69.6 22.8 69.9 22.7 C 69.9 22.7 69.9 22.6 69.8 22.6 C 69.8 22.5 69.9 22.7 70.0 22.7 C 70.0 22.6 70.0 22.6 70.0 22.6 C 70.0 22.5 70.1 22.5 70.1 22.4 C 70.2 22.4 70.2 22.4 70.2 22.5 C 70.3 22.4 70.4 22.4 70.4 22.3 C 70.3 22.4 70.4 22.2 70.5 22.2 C 70.6 22.2 70.4 22.3 70.5 22.3 C 71.4 22.1 72.0 21.8 72.8 21.4 C 73.3 21.5 73.6 21.2 73.9 21.0 C 74.0 20.9 73.9 20.9 73.9 20.9 L 74.0 20.9 C 74.0 20.9 74.0 20.9 74.0 20.9 C 74.1 21.0 74.3 20.7 74.5 20.6 C 74.6 20.5 74.9 20.5 75.0 20.4 C 75.1 20.4 75.3 20.2 75.5 20.2 C 75.6 20.2 75.7 20.4 75.7 20.2 C 75.8 20.3 75.7 20.3 75.7 20.4 C 75.7 20.4 75.8 20.3 75.8 20.3 C 75.8 20.3 75.8 20.4 75.8 20.4 C 76.5 20.2 77.1 19.7 77.7 19.6 C 77.9 19.3 78.1 19.3 78.2 19.6 C 78.5 19.5 78.7 19.4 78.9 19.2 C 78.9 19.3 79.0 19.3 79.1 19.3 C 79.1 19.3 79.1 19.4 79.1 19.5 C 79.3 19.4 79.3 19.4 79.3 19.6 C 79.3 19.6 79.2 19.6 79.2 19.6 C 79.2 19.8 79.2 19.9 79.4 19.9 C 79.8 19.7 80.3 19.0 80.2 18.2 C 80.1 18.3 80.2 18.4 80.2 18.4 C 79.5 18.4 79.5 17.6 79.0 17.4 C 79.1 16.8 79.1 16.4 79.0 16.0 L 78.7 16.0 C 78.7 16.1 78.6 16.1 78.6 16.3 C 78.5 16.0 78.3 15.8 78.2 15.5 C 78.3 15.4 78.4 15.4 78.4 15.4 C 78.4 14.7 77.8 15.2 77.6 15.1 C 77.4 15.0 77.5 14.7 77.4 14.5 C 77.4 14.3 77.2 14.3 77.1 14.1 C 77.1 14.0 77.2 14.0 77.3 14.0 L 77.4 13.7 C 77.2 13.6 76.9 13.7 77.0 13.9 C 76.9 13.9 76.9 13.8 76.8 13.8 C 76.9 13.4 77.2 13.1 77.0 12.8 C 76.9 12.7 76.9 12.8 76.8 12.8 C 76.8 13.0 76.8 13.3 76.7 13.3 C 76.4 13.2 76.7 13.0 76.7 12.7 C 76.5 12.5 76.5 12.1 76.0 12.0 C 76.0 12.1 75.9 12.1 75.8 12.2 C 75.8 12.1 75.6 12.0 75.5 12.0 C 75.5 11.9 75.6 11.9 75.6 11.7 C 75.7 11.7 75.7 11.8 75.7 11.7 C 75.5 11.7 75.5 11.9 75.2 11.7 C 75.3 11.5 75.6 11.3 75.4 11.0 C 75.2 11.2 74.8 11.1 74.4 11.0 C 74.4 11.2 74.1 11.1 74.0 11.2 C 73.9 11.1 74.0 11.0 73.9 10.9 C 74.2 10.8 74.6 10.8 74.7 10.4 C 74.5 10.4 74.4 10.3 74.4 10.1 L 73.8 10.2 L 73.1 9.8 L 74.0 11.6 L 74.6 13.0 L 73.8 12.1 L 72.2 11.2 L 72.2 11.3 C 72.4 11.5 72.5 11.6 72.4 11.8 C 72.5 11.9 72.5 11.9 72.6 11.8 C 72.5 12.0 72.8 11.9 72.7 12.1 C 72.8 12.1 72.8 12.1 72.9 12.1 C 73.0 12.1 72.8 12.2 72.8 12.2 C 72.9 12.2 73.0 12.3 73.1 12.3 C 73.0 12.4 73.1 12.5 73.1 12.6 C 73.2 12.7 73.3 12.5 73.2 12.4 C 73.4 12.4 73.3 12.6 73.5 12.7 C 73.4 12.8 73.2 12.6 73.2 12.6 C 73.2 12.7 73.2 12.8 73.3 12.9 C 73.3 12.8 73.3 12.8 73.3 12.8 C 73.4 12.9 73.4 12.9 73.7 12.9 C 73.6 13.0 73.5 12.9 73.5 13.0 C 73.5 13.0 73.5 12.9 73.4 12.9 C 73.4 13.1 73.5 13.1 73.5 13.2 C 73.7 13.1 73.5 13.0 73.6 13.0 C 73.7 13.0 73.7 13.1 73.7 13.1 C 73.6 13.2 73.5 13.3 73.5 13.3 C 73.5 13.4 73.6 13.2 73.7 13.3 C 73.7 13.3 73.6 13.3 73.6 13.3 C 73.6 13.4 73.7 13.4 73.7 13.4 C 73.6 13.5 73.7 13.6 73.5 13.5 C 73.5 13.6 73.7 13.6 73.6 13.7 C 73.7 13.7 73.7 13.7 73.8 13.7 C 73.5 13.8 74.0 13.9 73.8 14.1 C 74.0 14.0 74.0 14.2 74.0 14.3 C 74.1 14.6 74.3 14.7 74.3 14.9 C 74.4 14.8 74.3 15.1 74.5 15.1 C 74.4 15.1 74.5 15.2 74.4 15.2 C 74.5 15.2 74.5 15.3 74.6 15.2 C 74.5 15.3 74.5 15.3 74.5 15.4 C 74.6 15.4 74.6 15.5 74.7 15.5 C 74.7 15.5 74.6 15.6 74.6 15.7 C 74.8 15.8 75.0 15.9 75.1 16.1 C 75.1 16.1 75.2 16.1 75.2 16.0 C 75.2 16.0 75.2 16.1 75.2 16.2 C 75.2 16.1 75.4 16.0 75.3 16.0 C 75.3 15.9 75.5 16.0 75.5 15.9 C 75.4 15.9 75.5 15.9 75.5 15.8 C 75.4 15.7 75.4 15.9 75.3 15.9 C 75.3 15.8 75.4 15.8 75.3 15.7 C 75.4 15.7 75.4 15.8 75.5 15.8 C 75.5 15.7 75.5 15.7 75.5 15.7 C 75.5 15.7 75.5 15.7 75.5 15.7 C 75.4 15.7 75.4 15.5 75.4 15.5 C 75.4 15.5 75.3 15.1 75.2 15.2 C 75.2 15.1 75.3 15.1 75.3 15.1 C 75.1 14.9 75.1 14.7 75.0 14.6 C 75.0 14.6 75.2 14.8 75.3 14.9 C 75.3 14.8 75.4 14.8 75.4 14.9 C 75.4 15.0 75.4 14.9 75.3 14.9 C 75.2 14.9 75.3 15.0 75.3 14.9 C 75.4 15.2 75.7 15.2 75.7 15.6 C 75.8 15.6 75.8 15.5 75.8 15.5 C 75.9 15.7 75.8 15.6 75.8 15.7 C 75.9 15.8 75.9 15.7 75.9 15.6 C 76.0 15.6 75.9 15.7 75.9 15.8 C 76.0 15.7 76.0 15.7 76.2 15.8 C 76.1 15.9 76.1 15.7 76.0 15.7 C 76.1 15.8 75.9 15.9 76.1 16.0 C 76.1 16.0 76.0 16.0 76.0 16.0 C 76.1 16.1 76.1 16.1 76.3 16.2 C 76.2 16.2 76.2 16.3 76.1 16.3 C 76.3 16.3 76.5 16.5 76.4 16.6 C 76.4 16.6 76.7 16.8 76.6 16.9 C 76.6 17.0 76.7 16.8 76.7 16.8 C 76.7 16.9 76.7 16.9 76.7 17.0 C 76.9 16.9 77.2 17.2 77.3 17.0 C 77.3 17.3 77.0 17.1 77.0 17.4 C 76.9 17.3 77.0 17.3 77.0 17.2 C 76.9 17.3 77.0 17.1 76.8 17.1 C 76.8 17.2 76.8 17.1 76.8 17.2 C 76.9 17.2 76.9 17.3 76.9 17.3 C 76.7 17.3 76.4 17.5 76.2 17.6 C 76.1 17.5 76.3 17.2 75.9 17.2 C 75.8 17.4 75.8 17.7 76.1 17.7 C 76.0 17.8 75.9 17.8 75.9 17.8 C 75.6 17.7 75.5 17.4 75.1 17.4 C 75.0 17.6 75.1 17.7 75.2 17.7 C 75.1 17.8 75.1 17.8 75.1 17.8 C 74.8 17.7 74.6 17.9 74.4 18.0 C 74.3 18.0 74.3 17.9 74.2 17.9 L 74.2 18.2 C 73.9 18.2 73.8 18.0 73.7 17.9 C 73.8 17.8 73.9 17.9 73.9 17.9 C 74.0 17.9 73.9 17.9 73.9 18.0 C 73.9 18.1 74.2 18.2 74.1 18.0 C 74.0 17.9 74.0 17.7 74.0 17.5 C 74.0 17.5 74.0 17.6 74.1 17.6 C 74.2 17.6 74.2 17.4 74.3 17.3 C 74.4 17.4 74.4 17.5 74.5 17.6 C 74.5 17.5 74.4 17.4 74.4 17.3 C 74.6 17.2 75.1 17.6 75.2 17.2 C 75.1 17.2 75.1 17.2 75.0 17.2 C 74.9 17.2 74.9 17.0 74.9 16.9 C 74.6 16.8 74.6 17.2 74.4 17.2 C 74.3 17.1 74.3 17.0 74.3 16.9 C 73.8 16.8 73.7 17.3 73.4 17.4 C 73.5 17.5 73.7 17.8 73.5 17.9 C 73.4 17.4 72.8 17.5 72.6 17.8 C 72.5 17.8 72.5 17.7 72.3 17.7 C 72.2 17.9 72.3 18.1 72.3 18.3 C 72.2 18.2 72.2 18.1 72.2 18.1 C 72.2 18.0 72.1 18.0 72.0 18.0 C 71.9 18.1 71.7 18.2 71.7 18.6 C 71.7 18.5 71.7 18.3 71.5 18.4 L 71.6 18.2 C 71.4 18.4 71.3 18.6 71.0 18.6 C 71.0 18.6 70.9 18.6 71.0 18.5 C 70.9 18.5 70.8 18.6 70.7 18.6 C 70.8 18.7 70.9 18.7 70.9 18.9 C 70.9 18.9 70.8 18.9 70.8 19.0 C 70.7 18.9 70.7 18.8 70.6 18.8 C 70.5 19.0 70.7 19.0 70.7 19.1 C 70.5 19.0 70.4 18.7 70.1 18.8 C 70.0 19.2 70.7 19.1 70.8 19.4 C 70.7 19.5 70.6 19.5 70.6 19.5 C 70.6 19.4 70.6 19.4 70.6 19.3 C 70.4 19.2 70.3 19.4 70.1 19.4 C 70.0 19.4 70.0 19.3 69.9 19.3 L 70.0 19.0 C 69.7 18.9 69.9 19.4 69.8 19.3 C 69.7 19.4 69.9 19.6 69.9 19.7 C 69.7 19.7 69.3 19.7 69.4 19.5 C 69.4 19.4 69.5 19.5 69.6 19.5 C 69.5 19.4 69.5 19.3 69.3 19.2 C 69.3 19.3 69.3 19.5 69.2 19.7 C 69.2 19.6 69.1 19.6 69.1 19.5 C 69.1 19.7 68.9 19.6 68.8 19.6 C 68.7 19.8 68.9 19.8 68.9 19.9 C 68.9 19.9 68.9 19.9 68.9 19.8 C 69.0 19.8 69.0 19.9 69.0 19.9 C 68.9 20.0 68.7 19.9 68.6 19.9 C 68.6 20.0 68.6 20.1 68.6 20.2 C 68.6 20.3 68.5 20.1 68.4 20.1 C 68.4 20.3 68.5 20.4 68.7 20.5 C 68.5 20.6 68.1 20.3 67.9 20.5 C 68.0 20.6 68.1 20.6 68.2 20.6 C 68.1 20.6 68.0 20.6 67.9 20.6 C 67.9 20.7 67.9 20.7 67.9 20.7 C 67.7 20.7 67.7 20.8 67.5 20.9 C 67.4 20.9 67.4 20.7 67.3 20.6 C 67.2 20.6 67.4 20.7 67.3 20.8 C 67.2 20.9 67.0 20.8 66.9 20.9 C 66.9 21.0 67.0 21.1 67.0 21.3 C 67.2 21.2 67.2 21.3 67.3 21.2 C 67.3 21.2 67.1 21.2 67.1 21.0 C 67.1 21.0 67.2 21.0 67.3 21.0 C 67.3 21.1 67.5 21.2 67.5 21.3 C 67.6 21.4 67.8 21.4 67.8 21.3 C 67.8 21.6 67.0 21.5 67.0 21.3 C 66.9 21.4 66.8 21.5 66.7 21.6 C 66.6 21.6 66.7 21.4 66.6 21.3 C 66.2 21.2 66.2 21.7 66.0 21.6 C 66.0 21.7 66.0 21.8 66.0 21.9 C 65.9 21.9 65.9 21.7 65.7 21.8 C 65.7 21.9 65.7 21.9 65.6 22.0 C 65.5 22.0 65.4 21.9 65.3 21.8 C 65.4 21.6 65.5 21.7 65.7 21.7 L 65.7 21.5 C 65.6 21.5 65.4 21.7 65.3 21.5 C 65.2 21.8 64.9 21.7 64.6 21.7 C 64.6 21.8 64.7 21.9 64.8 21.9 C 65.0 21.9 65.1 21.7 65.3 21.9 C 64.9 22.1 64.5 22.3 64.1 22.5 C 63.9 22.5 64.0 22.3 63.8 22.3 C 63.9 22.6 63.6 22.9 63.3 22.8 C 63.5 22.6 63.7 22.6 63.7 22.4 C 63.4 21.9 62.6 22.8 62.5 23.2 C 62.6 23.2 62.7 23.1 62.9 23.2 C 62.9 23.2 62.9 23.4 62.9 23.5 C 62.8 23.6 62.6 23.2 62.4 23.4 C 62.3 23.4 62.4 23.2 62.2 23.2 Z M 72.5 11.8 C 72.5 11.8 72.4 11.7 72.5 11.6 C 72.6 11.7 72.6 11.8 72.5 11.8 Z M 75.5 14.8 C 75.5 14.7 75.4 14.8 75.3 14.7 C 75.3 14.7 75.4 14.7 75.4 14.7 C 75.4 14.7 75.4 14.8 75.4 14.8 C 75.5 14.7 75.5 14.6 75.4 14.6 C 75.3 14.6 75.3 14.5 75.2 14.4 C 75.3 14.5 75.3 14.5 75.4 14.4 C 75.4 14.5 75.6 14.8 75.5 14.8 Z M 72.0 18.2 C 72.0 18.3 72.1 18.6 72.1 18.7 C 72.0 18.6 71.9 18.3 72.0 18.2 Z M 68.0 23.1 C 68.0 23.0 68.0 23.0 68.0 23.0 C 68.1 23.1 68.2 23.0 68.3 23.1 C 68.2 23.1 68.1 23.1 68.0 23.1 Z M 67.8 22.9 C 67.8 23.0 67.9 23.0 67.9 22.9 C 67.9 22.9 67.9 22.9 68.0 22.9 C 67.9 23.0 68.0 23.1 67.9 23.1 C 67.9 23.0 67.8 23.1 67.8 22.9 Z M 67.7 23.3 C 67.6 23.3 67.6 23.3 67.6 23.3 C 67.6 23.2 67.4 23.3 67.4 23.2 C 67.6 23.2 67.6 23.2 67.7 23.3 Z M 65.4 23.3 C 65.5 23.3 65.5 23.5 65.6 23.6 C 65.7 23.3 65.7 23.2 65.6 22.9 C 66.1 23.1 66.0 22.5 66.4 22.6 C 66.3 22.8 66.1 23.3 65.8 23.2 C 65.7 23.3 65.8 23.5 65.8 23.6 C 65.7 23.7 65.5 23.6 65.5 23.7 C 65.3 23.7 65.2 23.4 65.4 23.3 Z M 68.4 20.4 C 68.4 20.3 68.3 20.2 68.2 20.2 C 68.2 20.2 68.3 20.3 68.4 20.4 Z M 75.5 16.7 C 75.7 16.9 75.8 17.0 76.0 17.0 C 76.0 16.9 75.9 16.9 76.0 16.7 C 76.1 16.7 76.0 16.9 76.1 16.9 C 76.1 16.6 75.9 16.4 75.7 16.4 C 75.8 16.5 75.9 16.6 75.9 16.7 C 75.9 16.8 75.9 16.8 75.8 16.8 C 75.7 16.8 75.7 16.6 75.5 16.7 Z M 75.5 16.7 " fill="#E2E2E2"></path></g></svg>