<?xml version="1.0" encoding="UTF-8" standalone="no"?><svg xmlns="http://www.w3.org/2000/svg" xmlns:xlink="http://www.w3.org/1999/xlink" clip-rule="evenodd" stroke-miterlimit="10" viewBox="0 0 85 89"><desc>SVG generated by Keynote</desc><defs></defs><g transform="matrix(1.00, 0.00, -0.00, -1.00, 0.0, 89.0)"><path d="M 62.6 48.9 C 62.6 49.0 62.5 49.1 62.5 49.2 C 62.5 49.2 62.6 49.2 62.7 49.3 C 62.7 49.1 62.8 49.0 62.9 48.8 C 62.9 48.8 62.8 48.9 62.8 48.9 C 62.7 49.0 62.7 49.0 62.6 48.9 C 62.6 48.9 62.6 48.9 62.6 48.9 Z M 41.2 65.8 C 41.4 65.8 41.1 65.7 41.0 65.7 C 41.0 65.7 41.0 65.8 41.0 65.8 C 40.9 65.7 41.0 65.6 41.1 65.5 C 41.6 65.3 41.4 65.7 41.2 65.8 C 41.2 65.8 41.2 65.8 41.2 65.8 Z M 16.6 70.6 C 16.2 70.5 16.6 70.7 16.7 70.8 C 16.5 70.8 16.6 71.1 16.4 71.1 C 16.3 71.0 16.3 71.0 16.2 70.9 C 16.3 70.9 16.5 70.9 16.5 70.8 C 16.4 70.8 16.1 70.9 16.1 70.8 C 16.5 70.7 16.2 70.6 16.1 70.5 C 16.4 70.5 16.5 70.3 16.6 70.6 C 16.6 70.6 16.6 70.6 16.6 70.6 Z M 76.7 21.5 C 76.7 21.4 76.7 21.3 76.8 21.3 C 76.8 21.5 76.8 21.5 76.7 21.6 C 76.8 21.6 76.9 21.6 76.9 21.7 C 76.7 21.8 76.5 21.7 76.4 21.6 C 76.6 21.7 76.6 21.2 76.7 21.5 C 76.7 21.5 76.7 21.5 76.7 21.5 Z M 73.8 32.1 C 73.6 32.5 74.1 32.3 73.9 32.6 C 73.7 32.5 73.5 32.5 73.6 32.3 C 73.7 32.3 73.7 32.1 73.8 32.1 C 73.8 32.1 73.8 32.1 73.8 32.1 Z M 27.5 71.4 C 27.4 71.2 27.2 71.3 27.2 71.2 C 27.4 71.1 27.5 71.1 27.6 71.1 C 27.7 71.2 27.6 71.3 27.5 71.4 C 27.5 71.4 27.5 71.4 27.5 71.4 Z M 13.6 72.1 C 13.1 71.8 12.6 72.0 12.8 71.9 C 12.7 71.7 13.2 71.4 13.1 71.6 C 13.2 71.8 13.9 72.1 13.6 72.1 C 13.6 72.1 13.6 72.1 13.6 72.1 Z M 40.3 69.6 C 39.8 69.6 40.1 70.0 39.7 69.9 C 39.8 69.9 39.8 69.8 39.9 69.7 C 39.8 69.8 39.7 69.8 39.7 69.8 C 39.9 69.6 40.1 69.5 40.3 69.6 C 40.3 69.6 40.3 69.6 40.3 69.6 Z M 67.1 43.6 C 67.1 43.5 67.1 43.5 67.0 43.4 C 67.2 43.2 67.1 43.1 67.3 43.0 C 67.5 43.1 67.3 43.3 67.1 43.5 C 67.1 43.5 67.1 43.6 67.1 43.6 C 67.1 43.6 67.1 43.6 67.1 43.6 Z M 71.8 36.5 C 71.7 36.4 71.6 36.6 71.7 36.3 C 72.0 36.1 72.0 36.4 72.0 36.7 C 72.0 36.8 72.1 36.8 72.2 36.8 C 72.2 36.7 72.3 36.7 72.4 36.6 C 72.1 36.4 72.7 36.5 72.7 35.9 C 72.8 36.2 73.1 36.1 72.8 36.3 C 73.0 36.3 72.9 36.5 73.1 36.5 C 73.0 36.3 73.2 36.0 73.0 36.0 C 73.0 35.9 73.1 35.8 73.2 35.7 C 73.4 35.7 73.1 36.0 73.3 36.0 C 73.4 35.9 73.4 35.9 73.5 35.8 C 73.4 35.8 73.3 35.8 73.3 35.7 C 73.5 35.4 73.5 35.8 73.7 35.4 C 73.6 35.3 73.5 35.4 73.4 35.4 C 73.4 35.2 73.6 35.2 73.6 35.0 C 73.7 35.0 73.6 35.2 73.7 35.1 C 73.5 34.8 74.0 34.8 73.9 34.4 C 73.5 34.4 74.0 34.4 73.8 34.0 C 73.9 34.0 74.1 34.3 74.2 34.1 C 73.7 34.0 74.1 33.2 73.5 33.7 C 73.7 33.4 73.4 33.1 73.2 33.4 C 73.5 32.8 73.2 32.9 73.3 32.7 C 73.4 32.4 73.4 32.8 73.5 32.7 C 73.4 33.0 73.5 33.0 73.4 33.1 C 73.5 33.1 73.5 33.2 73.5 33.3 C 73.5 33.0 73.9 32.8 74.0 33.0 C 73.9 33.2 73.8 33.0 73.7 33.1 C 74.0 33.2 73.6 33.3 73.7 33.4 C 74.0 33.3 74.0 33.8 74.2 33.4 C 74.1 33.4 74.0 33.4 73.9 33.3 C 74.0 33.2 74.0 33.2 74.0 33.1 C 74.2 33.1 74.3 33.2 74.4 33.1 C 74.5 33.0 74.5 32.9 74.4 32.8 C 74.3 33.0 74.1 33.1 74.2 32.8 C 74.4 33.0 74.4 32.4 74.5 32.7 C 74.8 32.4 74.5 32.1 74.8 32.2 C 74.8 32.0 74.6 32.1 74.7 31.8 C 75.0 31.6 74.7 31.5 75.0 31.1 C 74.8 31.0 75.1 31.1 75.2 31.0 C 75.1 30.9 75.0 30.9 74.9 30.9 C 75.1 30.8 75.3 30.4 75.3 30.0 C 75.4 29.9 75.5 30.0 75.5 29.7 C 75.4 29.4 75.8 29.1 75.6 28.7 C 75.8 28.7 75.8 28.5 75.8 28.4 C 75.9 28.3 76.1 28.6 76.1 28.4 C 76.0 28.2 75.9 28.4 75.9 28.1 C 76.1 28.2 75.8 27.8 76.0 27.8 C 76.1 27.9 76.1 28.0 76.1 28.2 C 76.2 28.0 76.3 28.1 76.3 28.0 C 76.1 27.9 76.3 27.8 76.4 27.7 C 76.3 27.7 76.2 27.6 76.2 27.6 C 76.2 27.4 76.3 27.3 76.2 27.2 C 76.4 27.0 76.3 27.3 76.4 27.1 C 76.0 26.9 76.6 26.8 76.4 26.3 C 76.6 26.2 76.7 26.1 76.8 25.8 C 76.7 25.7 76.7 26.0 76.6 26.0 C 76.7 25.6 76.4 26.1 76.5 25.8 C 76.8 25.2 76.9 24.8 77.2 24.2 C 77.0 24.2 77.0 23.7 77.1 23.7 C 77.1 23.8 77.4 23.5 77.5 23.3 C 77.2 23.2 77.0 22.8 76.8 22.7 C 77.0 22.7 77.0 22.7 77.3 22.7 C 77.5 22.4 77.2 22.1 77.6 22.0 C 77.4 22.0 77.4 21.8 77.4 21.6 C 77.5 21.7 77.6 21.8 77.7 21.9 C 77.7 21.7 77.8 21.7 77.8 21.5 C 77.4 21.3 78.1 21.1 77.6 20.9 C 77.7 20.6 77.8 20.7 77.9 20.4 C 77.8 20.4 77.7 20.4 77.7 20.3 C 77.7 20.5 77.8 20.6 77.6 20.7 C 77.6 20.3 77.0 21.3 76.9 20.6 C 77.0 20.6 77.1 20.7 77.1 20.6 C 77.1 20.2 76.9 20.4 76.9 20.5 C 76.8 20.3 77.0 20.0 76.7 20.2 C 76.7 19.7 76.8 20.0 77.0 19.8 C 77.0 18.9 77.1 17.7 77.5 16.4 C 77.3 16.3 77.6 15.6 77.7 15.4 C 77.6 15.0 77.6 14.6 77.8 14.5 C 77.6 14.4 78.0 14.1 77.8 14.0 C 77.8 14.2 77.7 14.3 77.7 14.1 C 77.9 13.6 78.0 12.8 77.8 12.4 C 78.1 12.3 78.1 11.9 78.0 11.7 C 78.1 11.6 78.1 11.8 78.1 11.7 C 78.0 11.6 77.9 11.1 78.1 11.0 C 78.0 11.1 78.3 11.3 78.3 11.1 C 78.2 11.1 78.2 10.8 78.1 10.9 C 78.2 10.5 78.1 10.3 78.2 10.1 C 78.2 10.3 78.2 10.4 78.4 10.5 C 78.3 10.3 78.2 10.1 78.4 10.0 C 78.1 10.0 78.3 9.7 78.2 9.4 C 78.3 9.3 78.4 9.2 78.4 9.0 C 78.2 8.9 78.2 9.4 78.1 9.1 C 78.2 9.1 78.3 8.8 78.1 8.9 C 78.2 8.6 78.1 8.4 78.3 8.1 C 78.2 8.4 78.5 8.2 78.5 8.1 C 78.5 8.0 78.5 7.9 78.4 7.9 C 78.4 7.9 78.4 8.1 78.3 8.1 C 78.4 7.9 78.1 7.8 78.3 7.7 C 78.3 7.8 78.4 7.8 78.4 7.7 C 78.1 7.7 78.3 7.0 78.5 7.2 C 78.4 7.2 78.4 7.5 78.5 7.5 C 78.5 7.4 78.4 7.0 78.6 7.1 C 78.7 7.3 78.5 7.3 78.6 7.6 C 78.7 7.6 78.7 7.8 78.8 7.9 C 78.8 7.5 78.6 7.4 78.8 7.3 C 78.8 7.1 78.6 7.2 78.6 6.9 C 78.7 6.4 78.9 6.8 78.9 6.7 C 78.8 6.3 78.6 6.4 78.4 6.6 C 78.4 6.3 78.3 6.2 78.3 5.8 C 78.4 5.8 78.5 5.9 78.6 6.0 C 78.5 6.0 78.4 6.3 78.5 6.3 C 78.8 6.3 78.9 6.0 78.9 5.6 C 78.6 5.7 78.8 5.7 78.8 5.3 C 78.5 5.4 78.8 5.1 78.7 5.1 C 78.6 5.1 78.6 5.3 78.6 5.4 C 78.5 5.4 78.4 5.3 78.4 5.2 C 78.4 5.1 78.3 5.1 78.4 4.8 C 78.6 4.8 78.6 5.0 78.7 5.0 C 78.7 4.9 78.6 4.8 78.6 4.7 C 78.7 4.6 79.0 4.6 79.2 4.6 C 79.3 4.7 79.3 5.0 79.4 4.8 C 79.5 5.4 79.2 4.8 79.1 5.0 C 79.4 5.2 79.1 5.1 79.1 5.5 C 79.1 5.6 79.2 5.6 79.2 5.7 C 79.2 5.7 79.4 5.4 79.5 5.7 C 79.3 5.7 79.3 5.9 79.2 6.1 C 79.3 6.1 79.4 5.7 79.4 6.1 C 79.4 6.3 79.1 6.1 79.2 6.4 C 79.2 6.4 79.2 6.5 79.3 6.5 C 79.3 6.1 79.4 6.6 79.5 6.3 C 79.6 6.6 79.3 6.4 79.3 6.6 C 79.5 6.6 79.2 7.0 79.5 7.0 C 79.4 6.8 79.4 6.6 79.6 6.6 C 79.6 6.9 79.7 8.1 79.4 7.6 C 79.5 7.8 79.8 8.7 79.6 8.6 C 79.7 8.3 79.5 8.4 79.4 8.3 C 79.6 8.8 79.5 9.1 79.7 9.6 C 79.7 9.0 80.0 9.5 80.2 9.1 C 80.2 9.0 80.2 8.8 80.1 8.7 C 79.9 8.8 80.0 9.0 80.1 9.1 C 79.9 9.1 79.8 9.1 79.6 9.1 C 79.8 8.5 79.6 8.1 79.7 7.8 C 79.7 8.1 80.0 7.3 80.0 7.6 C 79.9 7.7 79.9 8.1 79.8 8.3 C 79.9 8.3 79.9 8.3 80.0 8.3 C 80.0 8.4 80.0 8.6 80.1 8.6 C 80.0 8.3 80.2 8.1 80.1 7.8 C 80.1 7.8 80.2 7.8 80.2 7.8 C 80.2 7.7 80.2 7.7 80.2 7.7 C 80.3 7.8 80.2 8.0 80.3 8.0 C 80.4 7.8 80.5 7.7 80.6 7.4 C 80.8 7.5 81.0 7.1 81.1 7.5 C 80.9 7.6 80.8 7.8 80.7 7.8 C 80.7 7.9 80.7 8.2 80.8 8.3 C 80.9 8.2 81.0 7.9 81.1 7.9 C 81.2 8.1 81.3 8.3 81.1 8.4 C 81.0 8.0 80.9 8.7 80.7 8.8 C 80.8 8.8 80.9 8.7 81.0 8.6 C 81.0 9.0 80.8 9.1 81.1 9.2 C 81.1 9.6 80.9 9.5 80.9 9.8 C 81.2 9.6 81.0 10.0 81.3 9.8 C 81.3 10.3 81.1 9.9 81.0 10.1 C 81.0 10.2 81.1 10.3 81.2 10.4 C 81.0 10.6 81.0 11.1 80.8 11.1 C 80.8 11.3 80.7 11.3 80.7 11.5 C 80.7 11.6 80.8 11.6 80.8 11.7 C 80.8 11.8 80.7 11.9 80.8 11.9 C 81.1 11.4 81.1 11.6 81.3 11.0 C 81.2 11.0 81.2 10.9 81.1 11.0 C 81.1 10.6 81.2 10.5 81.2 10.2 C 81.4 10.2 81.6 10.1 81.5 9.8 C 81.7 9.9 81.7 9.8 81.8 9.9 C 81.7 10.1 81.6 10.3 81.5 10.5 C 81.6 10.5 81.7 10.5 81.7 10.6 C 81.6 10.7 81.5 10.9 81.6 11.1 C 81.5 11.0 81.5 11.0 81.4 10.9 C 81.3 11.4 81.6 11.3 81.4 11.7 C 81.6 11.6 81.6 11.4 81.7 11.6 C 81.7 11.9 81.6 12.0 81.5 12.2 C 81.6 12.2 81.7 12.2 81.6 12.3 C 81.5 12.5 81.3 11.7 81.1 12.2 C 81.2 12.2 81.1 12.6 81.0 12.7 C 80.9 12.5 81.1 12.3 81.0 12.3 C 80.9 13.0 80.7 12.3 80.6 13.1 C 80.6 13.1 80.7 13.1 80.8 13.1 C 80.8 12.8 81.0 12.8 81.1 12.8 C 81.2 12.5 81.4 12.4 81.3 12.2 C 81.6 12.3 81.3 12.4 81.3 12.7 C 81.4 12.7 81.5 12.4 81.6 12.4 C 81.4 13.1 81.7 13.2 81.3 13.8 C 81.6 13.7 81.3 14.2 81.5 14.2 C 81.5 13.6 82.0 13.9 82.1 13.8 C 82.1 13.4 81.7 13.6 81.6 13.3 C 81.8 13.3 81.9 13.3 82.2 13.4 C 82.1 13.7 82.1 13.7 82.2 13.9 C 82.0 14.1 81.7 14.3 81.6 14.0 C 81.6 14.0 81.7 14.5 81.5 14.5 C 81.6 14.1 81.4 14.5 81.4 14.3 C 81.2 14.6 81.4 15.1 81.2 15.5 C 81.3 15.5 81.3 15.6 81.4 15.6 C 81.3 15.2 81.7 15.2 81.7 14.8 C 81.7 15.0 81.9 14.9 81.9 14.8 C 81.8 15.2 81.9 15.4 81.7 15.7 C 81.8 15.7 81.8 15.7 81.9 15.7 C 81.7 16.1 81.8 16.0 81.9 16.4 C 81.7 16.5 81.4 16.3 81.3 16.2 C 81.3 16.4 81.2 17.0 81.5 16.7 C 81.4 17.0 81.2 16.9 81.1 17.3 C 81.3 17.3 81.3 17.0 81.6 17.1 C 81.6 17.4 81.3 17.2 81.5 17.5 C 81.3 17.5 81.2 17.5 81.1 17.8 C 81.3 17.6 81.2 17.8 81.3 17.9 C 81.3 17.8 81.4 17.7 81.4 17.6 C 81.3 18.1 81.3 18.2 81.3 18.6 C 81.1 18.5 81.0 18.7 81.0 18.4 C 81.1 18.7 80.8 18.9 80.9 19.1 C 81.0 19.0 81.0 18.7 81.1 18.6 C 81.0 19.4 81.2 19.9 80.8 20.6 C 80.8 20.4 80.8 20.3 80.8 20.2 C 80.8 20.3 80.7 20.4 80.7 20.4 C 80.7 20.2 80.8 19.9 80.7 19.8 C 80.9 19.6 80.9 20.0 80.9 19.7 C 80.8 19.7 81.0 19.3 80.8 19.4 C 80.9 19.8 80.6 20.1 80.3 20.3 C 80.6 20.7 80.6 20.3 80.9 20.8 C 80.8 20.8 80.7 20.8 80.7 20.9 C 80.9 20.9 80.7 21.3 80.7 21.4 C 80.6 21.2 80.6 20.5 80.3 20.8 C 80.8 20.7 80.1 21.5 80.4 21.4 C 80.4 21.9 80.2 21.7 80.3 21.9 C 80.3 21.9 80.2 21.9 80.1 22.0 C 80.1 22.1 80.2 22.2 80.2 22.2 C 80.4 21.7 80.6 21.9 80.7 21.5 C 80.7 21.6 80.7 21.6 80.8 21.6 C 80.8 21.6 80.8 21.6 80.8 21.7 C 80.6 21.7 80.8 22.0 80.6 22.1 C 80.6 22.0 80.6 21.9 80.5 21.9 C 80.5 22.4 80.3 22.3 80.0 22.9 C 80.2 22.7 80.1 23.0 80.1 23.3 C 80.0 23.6 79.8 23.4 79.7 23.8 C 80.1 23.9 79.5 24.2 79.7 24.8 C 79.5 24.6 79.2 25.2 79.4 25.4 C 79.3 25.4 79.3 25.7 79.2 25.8 C 79.1 25.8 79.1 25.6 79.1 25.8 C 79.1 25.9 79.3 25.8 79.2 26.0 C 79.1 26.2 79.0 26.1 78.9 26.4 C 79.0 26.5 79.0 26.3 79.1 26.5 C 79.0 26.8 78.9 27.0 79.1 26.8 C 79.1 27.3 78.8 27.0 78.7 27.4 C 78.8 27.3 78.9 27.3 78.8 27.5 C 78.7 27.6 78.6 27.6 78.5 27.6 C 78.6 27.8 78.6 27.7 78.5 28.0 C 78.6 28.1 78.6 28.1 78.7 28.1 C 78.7 28.3 78.6 28.5 78.5 28.5 C 78.7 28.2 78.5 28.3 78.5 28.1 C 78.3 28.4 78.0 28.9 78.3 28.5 C 78.3 28.9 78.1 28.7 78.1 29.0 C 78.3 28.9 78.1 29.0 78.0 29.3 C 78.3 29.3 78.0 29.5 78.0 29.7 C 78.1 29.7 78.2 29.8 78.1 30.0 C 78.0 29.9 78.0 30.0 77.9 30.2 C 78.0 30.2 78.2 29.9 78.1 30.3 C 77.9 30.4 77.8 30.4 77.6 30.7 C 77.4 30.7 77.6 30.4 77.4 30.4 C 77.5 30.7 77.3 30.7 77.2 31.0 C 77.6 31.0 77.4 31.9 77.6 31.5 C 77.6 31.7 77.8 31.9 77.6 31.9 C 77.6 31.8 77.3 32.0 77.3 32.0 C 77.3 32.1 77.0 32.5 77.1 32.5 C 77.2 32.2 77.4 32.2 77.6 32.2 C 77.5 32.7 77.2 33.2 77.0 33.1 C 77.1 33.1 77.1 33.2 77.1 33.2 C 77.1 33.0 77.5 33.0 77.4 33.2 C 77.3 33.1 77.1 33.2 77.0 33.4 C 77.2 33.5 76.7 34.1 77.0 34.0 C 76.9 33.7 77.3 33.6 77.3 33.8 C 77.1 33.9 76.8 34.3 76.7 34.1 C 76.7 34.3 76.8 34.4 76.8 34.5 C 76.9 34.6 77.0 34.4 77.1 34.5 C 77.0 34.7 77.0 34.9 76.9 34.9 C 77.0 34.5 76.7 35.0 76.7 34.6 C 76.6 34.8 76.5 34.8 76.4 35.0 C 76.5 35.0 76.5 35.1 76.5 35.2 C 76.5 35.0 76.6 34.8 76.8 34.9 C 76.7 35.3 76.5 35.2 76.4 35.4 C 76.5 35.6 76.5 36.1 76.3 36.2 C 76.5 35.8 76.2 36.2 76.2 35.9 C 76.5 35.6 76.3 35.5 76.2 35.3 C 76.1 35.4 75.9 35.6 76.1 35.8 C 76.2 35.6 76.1 35.6 76.1 35.4 C 76.2 35.5 76.3 35.6 76.3 35.7 C 76.1 35.8 76.0 36.2 75.9 35.9 C 75.9 36.2 75.6 36.4 75.6 36.7 C 75.8 36.4 75.9 36.2 76.1 36.2 C 76.1 36.5 75.8 36.6 75.9 36.7 C 76.1 36.7 76.2 36.3 76.3 36.3 C 76.4 36.7 75.7 36.9 76.2 36.7 C 76.1 36.9 76.0 37.1 75.9 37.1 C 76.0 36.9 75.6 37.0 75.6 37.1 C 75.5 37.3 75.5 37.4 75.5 37.5 C 75.6 37.2 75.9 37.1 75.8 37.3 C 75.7 37.3 75.8 37.4 75.8 37.5 C 75.7 37.5 75.6 37.8 75.5 37.9 C 75.6 37.9 75.7 37.8 75.7 37.8 C 75.7 38.0 75.8 38.3 75.5 38.3 C 75.6 38.2 75.7 38.1 75.6 38.0 C 75.1 38.4 74.9 38.5 74.5 39.0 C 74.5 38.9 74.5 38.8 74.4 38.8 C 74.2 39.2 74.0 39.4 73.9 39.3 C 73.8 39.5 73.9 39.7 73.9 39.8 C 74.1 39.6 74.0 39.5 74.2 39.4 C 74.2 39.5 74.6 39.4 74.8 39.3 C 74.8 38.9 75.1 39.0 75.2 38.5 C 75.3 38.7 75.4 38.2 75.5 38.4 C 75.0 38.7 75.1 39.2 74.7 39.6 C 74.6 39.5 74.5 39.4 74.3 39.6 C 74.1 39.9 74.4 39.8 74.2 40.1 C 74.0 40.1 74.0 39.9 73.9 40.1 C 73.9 40.2 73.8 40.5 73.6 40.5 C 73.8 40.1 73.4 40.5 73.5 40.2 C 73.4 40.3 73.3 40.4 73.3 40.4 C 73.6 40.2 73.3 40.9 73.6 40.7 C 73.4 41.2 73.2 40.5 73.0 40.9 C 73.2 40.8 73.1 41.1 72.9 41.4 C 72.7 41.4 72.5 41.7 72.3 41.9 C 72.5 41.8 72.6 41.7 72.5 42.0 C 72.7 41.9 72.8 41.7 72.8 41.5 C 72.9 41.6 72.9 41.6 73.0 41.5 C 72.9 41.8 73.0 41.8 73.0 41.9 C 72.9 41.9 72.8 42.2 72.7 42.2 C 72.7 42.2 72.7 42.3 72.7 42.3 C 72.9 41.9 72.9 42.5 73.1 42.3 C 73.2 42.1 72.9 42.1 73.1 41.9 C 73.4 41.8 73.2 42.2 73.3 42.4 C 73.5 42.3 73.4 42.0 73.6 42.0 C 73.7 42.3 73.4 42.6 73.1 42.9 C 73.4 43.0 72.8 43.4 73.0 43.6 C 72.9 43.6 72.8 43.6 72.8 43.6 C 72.9 43.8 72.6 43.8 72.5 43.9 C 72.6 43.9 72.7 44.0 72.8 43.9 C 72.5 44.2 72.5 44.3 72.3 44.8 C 72.1 44.8 72.0 44.8 71.9 44.8 C 71.9 44.7 71.9 44.6 71.9 44.5 C 71.5 45.0 72.2 44.9 71.7 45.2 C 71.8 45.2 72.1 45.0 72.1 45.3 C 71.6 45.5 71.4 46.2 71.0 45.9 C 70.6 46.2 70.8 46.6 70.5 46.6 C 70.4 46.7 70.4 46.8 70.4 46.9 C 70.6 46.8 70.8 46.8 70.9 46.7 C 71.0 46.4 71.2 46.4 70.8 46.5 C 71.0 46.2 71.2 46.1 71.4 46.0 C 71.2 46.5 70.8 46.8 71.0 47.0 C 70.8 47.1 70.6 47.1 70.5 47.2 C 70.5 47.3 70.3 47.8 70.1 47.7 C 70.3 47.4 70.4 47.0 70.1 47.2 C 69.7 48.0 69.1 48.3 68.7 49.1 C 68.7 49.0 68.6 48.9 68.5 49.0 C 68.6 49.1 68.6 49.1 68.6 49.2 C 68.4 49.4 68.3 49.5 68.1 49.8 C 68.0 49.7 67.9 49.7 67.7 49.8 C 67.8 50.0 67.9 50.5 67.7 50.6 C 67.8 50.4 67.4 50.5 67.4 50.6 C 67.6 50.7 66.6 51.2 67.0 51.2 C 66.7 51.5 66.5 51.6 66.4 51.5 C 66.4 51.7 66.3 51.8 66.3 52.0 C 66.0 51.9 65.7 52.6 65.5 52.6 C 65.8 52.4 65.6 52.2 65.4 52.4 C 65.5 52.6 65.1 53.2 65.0 53.3 C 65.0 53.2 64.9 53.0 65.0 52.8 C 64.7 53.2 64.9 53.3 64.9 53.6 C 64.7 53.4 64.7 53.8 64.7 53.8 C 64.4 53.9 64.6 53.8 64.5 53.7 C 64.3 53.8 64.2 53.8 64.0 54.0 C 64.2 54.1 64.0 54.2 63.9 54.3 C 63.9 54.4 63.9 54.6 63.8 54.8 C 63.7 54.3 62.6 55.5 63.0 55.4 C 62.9 55.7 62.6 55.5 62.4 55.8 C 62.4 55.9 62.2 56.0 62.4 56.0 C 62.2 56.2 62.2 55.9 62.0 56.3 C 62.2 56.3 61.6 56.5 61.9 56.7 C 61.5 56.5 61.6 57.1 61.2 57.1 C 61.2 57.2 61.2 57.2 61.2 57.3 C 61.2 57.4 61.6 57.1 61.4 57.3 C 61.0 57.5 61.1 57.3 61.0 57.3 C 60.4 58.0 59.5 58.7 58.7 59.4 C 58.8 59.4 58.8 59.4 58.7 59.6 C 58.2 59.5 57.5 60.4 57.4 60.6 C 57.2 60.5 56.8 61.1 56.7 61.0 C 56.8 61.0 56.8 60.7 56.6 60.8 C 56.7 61.1 56.4 61.1 56.3 61.4 C 56.1 61.3 55.6 62.0 55.7 61.5 C 55.6 61.5 55.5 61.6 55.4 61.6 C 55.5 61.8 55.4 61.8 55.7 61.8 C 55.0 62.1 55.0 62.3 54.5 62.5 C 54.5 62.6 54.9 62.5 54.7 62.7 C 54.6 62.6 54.6 62.6 54.6 62.6 C 54.5 62.6 54.5 62.7 54.4 62.7 C 54.4 62.6 54.5 62.5 54.4 62.3 C 54.2 62.6 54.0 62.4 54.0 62.6 C 54.3 62.5 54.3 62.9 54.0 62.9 C 54.1 62.7 53.4 63.3 53.2 63.6 C 52.9 63.5 53.4 63.4 53.3 63.3 C 52.8 63.7 52.8 63.6 52.9 63.8 C 52.6 63.9 52.4 63.9 52.2 64.2 C 52.0 64.2 52.2 64.0 52.0 64.1 C 51.9 64.2 51.9 64.3 51.8 64.5 C 51.1 64.4 50.3 65.7 49.5 65.5 C 49.8 65.5 49.6 65.7 49.3 65.9 C 49.2 65.8 49.2 65.7 49.1 65.8 C 49.2 65.9 49.1 66.0 48.9 66.1 C 48.9 66.0 48.9 65.9 48.8 66.0 C 48.8 66.2 48.5 66.2 48.4 66.4 C 48.2 66.2 48.6 66.1 48.6 65.9 C 48.1 66.1 48.1 66.3 47.7 66.4 C 47.9 66.3 47.5 66.4 47.4 66.3 C 47.6 66.5 47.4 66.7 47.6 66.7 C 47.5 66.8 47.3 66.9 47.3 66.8 C 47.3 66.8 47.4 66.7 47.4 66.7 C 47.3 66.8 46.9 66.7 47.0 66.9 C 47.1 66.9 47.2 66.9 47.2 67.0 C 47.2 67.1 47.2 67.2 47.1 67.3 C 47.2 66.7 46.5 67.3 46.5 67.4 C 46.3 67.2 46.3 67.2 46.3 67.1 C 45.9 67.3 46.1 67.4 45.9 67.6 C 45.9 67.3 45.9 67.2 45.5 67.2 C 45.7 67.4 45.3 67.5 45.6 67.7 C 44.8 68.2 44.6 68.0 44.1 68.2 C 44.1 68.3 44.3 68.3 44.2 68.4 C 43.9 68.4 43.7 68.4 43.5 68.4 C 43.5 68.6 43.6 68.5 43.5 68.6 C 43.1 68.6 43.1 68.4 42.8 68.4 C 42.5 68.7 42.5 68.5 42.4 68.8 C 42.5 68.8 42.7 68.8 42.5 68.9 C 42.2 68.8 42.1 68.7 42.0 68.7 C 42.2 68.6 42.3 68.6 42.4 68.6 C 42.4 68.4 42.6 68.3 42.4 68.3 C 42.6 68.3 42.9 68.2 43.2 68.0 C 43.0 67.9 43.5 67.8 43.3 67.7 C 43.0 67.9 42.8 67.8 42.5 68.0 C 42.6 68.2 42.2 68.2 42.1 68.2 C 42.2 68.3 41.9 68.4 42.0 68.5 C 41.8 68.7 41.7 68.5 41.5 68.7 C 41.4 68.6 41.4 68.5 41.3 68.6 C 41.3 68.8 41.1 68.6 41.0 68.6 C 41.2 68.8 40.7 68.9 40.8 69.0 C 40.9 69.0 41.0 68.9 41.1 68.9 C 40.6 69.1 41.0 69.1 41.2 69.2 C 41.1 69.2 41.2 68.9 41.3 69.0 C 41.0 69.3 41.9 69.0 41.6 69.1 C 41.3 69.2 41.3 69.3 41.0 69.4 C 40.6 69.2 40.9 68.9 40.5 68.8 C 40.3 69.0 40.1 69.1 40.2 69.2 C 40.1 69.2 40.0 69.1 39.9 69.1 C 39.9 69.3 40.3 69.2 40.0 69.3 C 39.9 69.4 39.9 69.1 39.7 69.2 C 39.6 69.4 40.1 69.3 39.8 69.4 C 39.5 69.3 39.9 69.5 39.6 69.6 C 39.6 69.6 39.5 69.6 39.4 69.7 C 39.4 69.6 39.4 69.4 39.2 69.5 C 39.3 69.8 39.1 69.4 38.8 69.5 C 38.8 69.8 39.1 69.6 39.1 69.8 C 38.8 69.7 38.7 70.0 38.6 70.0 C 38.7 69.7 38.2 70.0 38.1 69.8 C 38.2 70.0 38.1 69.9 37.8 70.2 C 37.7 69.9 37.4 70.3 37.2 70.0 C 37.2 70.1 37.2 70.2 37.1 70.3 C 37.2 70.3 37.4 70.3 37.4 70.4 C 37.3 70.4 37.2 70.4 37.1 70.5 C 36.9 70.4 37.2 69.9 36.5 70.1 C 36.7 70.4 36.4 70.5 36.3 70.6 C 36.4 70.8 36.5 70.5 36.6 70.6 C 36.4 70.8 36.2 70.7 36.0 70.7 C 35.7 70.9 35.2 70.9 34.7 71.1 C 34.5 71.0 35.1 70.9 34.7 70.9 C 34.6 70.9 34.7 71.1 34.5 71.1 C 34.4 70.3 33.0 71.3 32.8 71.0 C 32.8 71.2 32.3 71.2 32.4 71.4 C 32.7 71.2 33.0 71.4 33.1 71.4 C 33.4 71.3 32.8 71.3 33.1 71.2 C 33.1 71.3 33.5 71.1 33.5 71.3 C 33.1 71.4 33.8 71.4 33.5 71.7 C 33.1 71.7 32.4 72.1 32.5 71.8 C 32.5 71.9 32.7 71.9 32.7 71.8 C 32.3 71.8 32.0 72.0 31.9 72.2 C 31.7 72.1 30.9 72.5 31.1 72.3 C 31.0 72.2 31.6 72.3 31.5 72.1 C 30.7 72.3 30.7 72.4 30.1 72.4 C 30.3 72.5 29.6 72.8 29.7 72.7 C 29.6 72.5 29.4 72.4 29.2 72.7 C 29.2 72.5 29.0 72.4 28.8 72.4 C 28.8 72.6 29.0 72.6 29.0 72.7 C 28.8 72.7 28.6 72.8 28.5 72.8 C 28.5 72.7 28.5 72.6 28.3 72.6 C 28.2 72.8 27.6 73.0 27.6 72.9 C 27.8 72.6 27.1 72.8 27.5 72.6 C 27.4 72.6 27.4 72.5 27.2 72.5 C 27.3 72.6 27.3 72.7 27.3 72.8 C 26.9 72.9 27.1 72.5 26.7 72.6 C 26.7 72.6 26.6 72.7 26.6 72.8 C 26.7 72.7 26.7 72.7 26.9 72.7 C 26.7 73.0 27.2 72.8 27.2 73.0 C 26.9 73.1 26.8 72.9 26.7 72.8 C 26.3 73.0 26.5 72.9 26.0 72.9 C 26.0 73.0 26.1 73.0 26.1 73.1 C 25.5 73.1 25.6 72.7 25.2 72.9 C 25.3 72.8 25.6 72.7 25.4 72.7 C 25.1 72.8 25.1 73.0 24.7 73.0 C 24.7 73.0 24.7 72.9 24.6 72.9 C 24.5 73.0 24.5 73.1 24.3 73.2 C 24.3 73.1 24.1 73.2 24.0 73.2 C 23.9 73.1 24.1 73.0 23.9 73.0 C 23.6 73.0 23.5 73.4 23.3 73.4 C 23.2 73.2 23.0 73.3 22.7 73.3 C 22.7 73.1 22.2 73.2 21.8 73.1 C 21.9 73.3 21.6 73.3 21.7 73.4 C 21.8 73.4 21.9 73.5 22.0 73.5 C 21.6 73.6 21.4 73.2 21.2 73.5 C 21.0 73.4 20.8 73.3 20.6 73.2 C 20.5 73.3 21.0 73.4 20.8 73.5 C 20.7 73.4 20.7 73.4 20.6 73.5 C 20.6 73.3 20.4 73.2 20.3 73.1 C 20.0 73.3 19.5 73.0 19.8 73.3 C 19.4 73.3 19.6 73.0 19.4 73.0 C 19.5 73.2 19.0 73.2 19.3 73.4 C 18.9 73.4 18.9 73.1 19.1 73.0 C 18.7 73.0 18.6 73.1 18.5 73.0 C 18.6 73.2 18.1 73.3 18.4 73.2 C 18.5 73.0 18.1 73.1 18.0 73.0 C 18.1 73.1 17.9 73.1 18.2 73.2 C 17.9 73.3 17.5 73.3 17.3 73.1 C 16.9 73.2 16.6 73.2 16.8 73.0 C 16.5 73.1 16.6 73.1 16.3 73.0 C 16.3 73.1 16.4 73.1 16.4 73.1 C 16.0 73.1 16.1 73.0 15.5 73.0 C 15.6 72.7 15.2 72.7 15.1 72.6 C 15.3 72.6 15.5 72.7 15.7 72.7 C 15.8 72.6 15.6 72.6 15.7 72.5 C 15.7 72.6 15.8 72.6 15.9 72.7 C 15.6 72.5 16.4 72.4 16.1 72.6 C 16.1 72.5 16.1 72.5 16.0 72.5 C 16.1 72.7 16.1 72.6 16.0 72.8 C 16.2 72.8 16.3 73.0 16.4 72.8 C 16.4 72.7 16.2 72.8 16.2 72.7 C 16.7 72.6 16.3 72.9 16.7 72.9 C 16.8 72.7 16.6 72.6 16.5 72.5 C 16.8 72.5 17.1 72.5 17.2 72.7 C 17.5 72.6 17.2 72.5 17.4 72.4 C 17.5 72.5 17.5 72.7 17.7 72.7 C 17.9 72.6 17.6 72.5 17.8 72.5 C 18.0 72.6 17.6 72.8 18.0 72.8 C 17.9 72.5 18.3 72.9 18.3 72.7 C 18.1 72.7 18.1 72.5 18.2 72.6 C 18.7 72.9 19.0 72.2 19.5 72.6 C 19.5 72.6 19.5 72.6 19.6 72.5 C 19.2 72.4 18.7 72.4 18.6 72.1 C 18.3 72.2 18.3 72.3 18.3 72.4 C 18.0 72.2 18.0 72.1 18.2 71.9 C 18.8 71.8 19.0 72.0 19.4 72.1 C 19.6 71.9 19.3 72.0 19.3 71.9 C 20.4 72.1 19.5 71.5 19.9 71.6 C 19.9 71.7 20.0 71.7 20.1 71.7 C 20.1 71.7 20.3 71.7 20.3 71.6 C 20.2 71.6 20.2 71.6 20.2 71.5 C 20.5 71.4 20.4 71.6 20.4 71.7 C 20.2 71.7 20.1 71.8 20.0 71.9 C 20.3 71.8 20.5 71.9 20.7 71.7 C 21.0 72.0 20.6 72.3 20.7 72.4 C 20.7 72.6 20.9 72.0 21.1 71.9 C 21.5 71.9 21.5 71.7 21.8 71.7 C 21.9 71.9 21.5 71.8 21.5 71.9 C 21.6 71.9 21.6 72.0 21.7 72.0 C 21.9 72.0 21.9 71.8 22.1 71.7 C 22.2 71.9 22.2 71.8 22.4 71.7 C 22.6 71.8 22.2 71.9 22.5 71.9 C 22.7 71.9 22.9 71.7 22.9 71.7 C 23.0 71.7 22.9 71.8 23.0 71.9 C 23.3 71.7 23.4 71.7 23.0 71.6 C 23.3 71.6 23.4 71.5 23.4 71.3 C 22.9 71.4 22.8 71.4 22.6 71.2 C 22.5 71.4 22.4 71.2 22.2 71.2 C 22.3 71.5 22.0 71.2 21.9 71.4 C 22.1 71.4 22.2 71.4 22.2 71.5 C 21.8 71.5 21.8 71.5 21.4 71.8 C 21.4 71.7 21.3 71.6 21.3 71.6 C 21.4 71.5 21.8 71.5 21.8 71.4 C 21.5 71.2 21.4 71.5 21.1 71.3 C 21.0 71.4 21.3 71.5 21.1 71.5 C 21.0 71.4 20.8 71.3 20.6 71.2 C 20.4 71.3 20.3 71.4 20.1 71.4 C 20.1 71.4 20.1 71.3 19.9 71.3 C 19.9 71.4 20.1 71.5 19.9 71.5 C 19.4 71.3 19.1 71.1 18.6 71.2 C 18.8 71.3 19.2 71.5 19.0 71.5 C 18.7 71.3 18.4 71.6 18.2 71.4 C 18.1 71.3 18.5 71.5 18.4 71.1 C 18.2 71.2 18.0 71.1 17.9 71.1 C 17.9 71.2 17.7 71.1 17.7 71.3 C 17.9 71.3 18.0 71.1 18.0 71.2 C 17.8 71.7 17.3 71.0 17.0 71.0 C 16.7 71.1 17.1 71.2 16.9 71.2 C 16.7 71.3 16.6 70.9 16.9 70.8 C 17.1 70.9 17.1 70.7 17.2 70.9 C 17.2 70.9 17.4 70.9 17.4 70.8 C 17.2 70.8 17.3 70.7 17.2 70.6 C 17.4 70.7 17.4 70.3 17.6 70.5 C 17.4 70.5 17.4 70.6 17.4 70.6 C 17.9 70.6 18.0 70.8 18.3 70.8 C 18.2 70.7 18.3 70.8 18.3 70.6 C 18.1 70.6 17.7 70.5 17.9 70.5 C 18.1 70.7 18.2 70.1 18.4 70.4 C 18.3 70.4 18.3 70.5 18.2 70.5 C 18.4 70.6 18.4 70.7 18.6 70.7 C 19.2 70.5 19.7 71.0 20.7 70.5 C 21.0 70.5 20.4 70.6 20.4 70.8 C 20.5 70.8 20.5 70.8 20.6 70.8 C 20.6 70.6 20.8 70.8 20.9 70.6 C 20.9 70.8 21.3 70.6 21.5 70.8 C 21.6 70.7 21.5 70.6 21.6 70.6 C 22.3 70.8 23.6 70.4 24.1 70.6 C 24.1 70.4 24.3 70.4 24.3 70.3 C 24.7 70.3 24.6 70.5 25.0 70.2 C 25.2 70.2 25.0 70.4 24.9 70.4 C 25.6 70.3 26.3 70.4 26.7 70.1 C 26.9 70.0 26.7 70.2 27.2 70.2 C 27.2 69.9 27.9 70.2 28.0 69.9 C 28.3 69.8 28.8 70.1 28.6 69.8 C 28.9 69.8 28.7 70.1 28.9 70.0 C 29.1 70.0 28.7 69.6 29.0 69.5 C 29.0 69.7 29.2 69.6 29.4 69.7 C 29.2 69.8 29.1 69.8 29.1 69.9 C 29.2 69.8 29.2 69.9 29.5 69.8 C 29.7 69.7 30.3 69.4 30.5 69.6 C 30.5 69.6 30.5 69.5 30.4 69.5 C 30.6 69.4 30.8 69.6 30.8 69.3 C 31.2 69.2 31.4 69.4 31.6 69.2 C 31.7 69.0 31.6 69.4 32.1 69.2 C 32.1 69.1 33.0 68.8 33.3 68.9 C 33.2 68.7 33.3 68.9 33.5 68.9 C 33.5 68.8 33.4 68.7 33.5 68.7 C 33.5 68.7 33.6 68.7 33.7 68.6 C 33.7 68.9 34.0 68.4 34.1 68.6 C 34.0 68.7 34.0 68.8 34.1 68.8 C 34.1 68.6 34.6 68.8 34.5 68.6 C 34.4 68.6 34.1 68.7 34.2 68.6 C 34.5 68.4 34.4 68.7 34.7 68.6 C 34.6 68.5 34.5 68.5 34.6 68.4 C 34.9 68.4 34.6 68.4 34.8 68.5 C 35.0 68.5 35.2 68.3 35.2 68.2 C 35.2 68.2 35.3 68.3 35.4 68.3 C 35.9 68.2 36.8 67.7 37.4 67.8 C 37.4 67.7 37.5 67.6 37.4 67.5 C 37.7 67.5 37.7 67.5 38.0 67.4 C 37.9 67.4 37.9 67.3 37.9 67.2 C 38.2 67.0 38.0 67.4 38.2 67.3 C 38.1 66.9 38.4 67.4 38.6 67.3 C 38.6 67.2 38.7 67.2 38.6 67.1 C 39.0 66.9 39.1 67.2 39.3 67.0 C 39.2 67.0 39.0 66.5 38.9 66.3 C 39.0 66.4 39.1 66.4 39.3 66.4 C 39.2 66.6 39.5 67.2 39.9 66.8 C 39.7 67.0 39.5 66.9 39.5 66.8 C 39.8 66.6 40.0 66.7 40.3 66.6 C 40.3 66.4 40.0 66.5 40.0 66.2 C 40.1 66.2 40.1 66.2 40.1 66.1 C 40.4 66.0 40.4 66.1 40.7 65.9 C 40.8 66.0 40.7 66.0 40.6 66.0 C 40.6 66.2 40.7 66.3 40.5 66.4 C 40.4 66.3 40.5 66.1 40.2 66.2 C 40.3 66.3 40.3 66.4 40.3 66.5 C 40.5 66.4 41.1 66.4 41.1 66.3 C 40.9 66.2 40.8 66.3 40.8 66.1 C 41.1 66.0 41.3 66.1 41.6 66.1 C 42.1 65.8 42.9 65.5 42.7 65.3 C 43.0 65.2 42.9 65.2 43.2 65.2 C 43.0 65.0 43.4 64.9 43.3 64.8 C 43.1 65.0 43.1 64.9 42.8 65.1 C 42.8 65.0 42.8 64.9 42.9 64.8 C 43.0 64.9 43.1 64.9 43.3 64.8 C 43.3 64.7 43.0 64.7 43.2 64.6 C 43.2 64.6 43.3 64.6 43.4 64.5 C 43.4 64.6 43.5 64.7 43.5 64.8 C 43.4 64.9 43.3 65.0 43.3 65.1 C 43.4 65.1 43.4 65.1 43.5 65.1 C 43.5 65.0 43.9 64.9 43.8 64.8 C 43.7 64.9 43.6 64.8 43.7 64.7 C 43.7 64.7 44.0 64.7 44.0 64.5 C 43.7 64.6 43.8 64.5 43.6 64.4 C 43.9 64.2 43.9 64.5 44.3 64.2 C 44.4 64.3 44.4 64.5 44.4 64.6 C 44.8 64.8 45.2 64.2 45.4 64.1 C 45.3 64.1 45.2 64.4 45.4 64.3 C 45.4 64.3 45.6 64.2 45.6 64.1 C 45.5 63.8 45.2 63.7 45.0 63.6 C 45.1 63.6 45.1 63.5 45.3 63.4 C 45.4 63.5 45.4 63.8 45.6 63.7 C 45.5 63.5 45.9 63.5 45.9 63.3 C 45.7 63.4 45.6 63.3 45.7 63.2 C 45.8 63.4 46.0 63.2 46.0 63.3 C 45.9 63.5 45.9 63.6 45.8 63.7 C 45.9 63.6 45.7 63.9 46.0 63.8 C 46.1 63.6 46.1 63.4 46.4 63.2 C 46.5 63.2 46.5 63.4 46.6 63.3 C 46.5 63.2 46.8 63.0 46.7 63.2 C 46.8 63.2 46.9 63.2 47.0 63.1 C 46.7 63.1 47.4 62.4 47.2 62.4 C 47.3 62.6 47.5 62.8 47.6 62.8 C 47.6 62.5 47.9 62.6 48.3 62.3 C 48.1 62.1 48.3 62.2 48.5 62.1 C 48.5 62.0 48.3 62.0 48.4 61.9 C 48.6 61.9 48.6 61.9 48.7 61.9 C 48.9 61.9 49.0 61.8 49.1 61.8 C 49.0 61.7 49.0 61.7 48.9 61.7 C 49.6 61.5 49.7 61.1 50.2 60.8 C 49.9 60.9 50.1 61.2 50.2 61.0 C 50.3 61.0 50.4 60.9 50.4 60.8 C 50.2 60.7 50.3 60.8 50.5 60.6 C 50.7 60.4 50.3 60.4 50.4 60.3 C 50.6 60.3 50.6 60.4 50.7 60.4 C 50.8 60.4 50.9 60.3 50.9 60.2 C 50.7 60.3 50.9 60.1 51.0 59.9 C 51.0 60.2 51.1 60.2 51.3 59.9 C 51.4 60.0 51.3 60.1 51.4 60.1 C 51.5 60.0 51.5 59.7 51.8 59.7 C 51.8 59.7 51.8 59.8 51.8 59.8 C 52.0 59.6 52.3 59.7 52.5 59.6 C 52.2 59.6 52.2 59.4 52.1 59.4 C 52.4 59.4 52.5 59.0 52.7 59.1 C 52.4 59.3 52.9 59.4 53.1 59.3 C 53.0 59.1 52.8 59.3 52.7 59.1 C 52.7 58.9 53.1 59.0 53.1 58.8 C 53.0 58.7 53.0 58.9 52.9 58.8 C 53.0 58.7 52.8 58.8 52.9 58.7 C 53.1 58.8 53.0 58.5 53.1 58.5 C 53.2 58.4 53.6 58.5 53.6 58.3 C 53.5 58.2 53.4 58.4 53.4 58.3 C 53.7 57.9 54.0 58.0 54.2 57.5 C 54.3 57.6 54.4 57.6 54.6 57.5 C 54.5 57.4 54.5 57.3 54.6 57.2 C 54.8 57.2 55.0 57.1 55.3 57.0 C 55.3 57.1 55.3 57.3 55.6 57.0 C 55.6 57.0 55.4 57.1 55.5 57.0 C 55.5 57.0 55.6 56.9 55.6 56.9 C 55.6 56.9 55.5 56.8 55.5 56.8 C 55.4 56.9 55.4 56.9 55.3 57.0 C 55.2 56.9 55.1 56.9 55.1 56.9 C 55.3 56.5 55.5 56.8 55.6 56.5 C 55.9 56.7 56.0 56.7 55.9 57.0 C 56.1 56.8 56.2 56.6 56.1 56.4 C 55.9 56.7 55.8 56.4 55.7 56.4 C 55.8 56.3 55.8 56.2 55.8 56.1 C 56.1 56.1 55.9 56.5 56.2 56.3 C 55.8 56.3 56.3 55.9 56.5 55.8 C 56.4 55.8 56.3 55.9 56.4 55.7 C 56.7 55.2 57.1 55.7 57.1 55.3 C 57.2 55.4 57.3 55.3 57.4 55.3 C 57.2 55.5 57.2 55.6 57.1 55.7 C 57.2 55.7 57.3 55.7 57.4 55.6 C 57.3 55.6 57.3 55.5 57.5 55.5 C 57.5 55.3 57.3 55.1 57.3 54.9 C 57.4 54.9 57.4 55.0 57.5 54.9 C 57.5 54.7 57.7 55.2 58.0 54.8 C 57.9 54.8 57.8 54.8 57.7 54.7 C 57.8 54.5 57.8 54.6 58.0 54.3 C 58.3 54.4 58.1 54.7 58.2 54.9 C 58.3 54.7 58.3 54.4 58.5 54.4 C 58.3 54.4 58.3 54.2 58.4 54.0 C 58.6 53.9 58.6 54.2 58.8 54.1 C 58.9 54.0 58.8 53.8 58.7 53.8 C 59.0 53.6 58.7 53.5 59.0 53.3 C 59.1 53.4 59.0 53.5 58.9 53.5 C 59.0 53.5 59.0 53.6 59.1 53.6 C 59.1 53.3 59.4 53.0 59.5 52.7 C 60.0 52.6 60.1 52.0 60.5 51.7 C 60.5 52.0 60.9 51.3 61.2 51.3 C 61.3 51.2 61.2 50.6 61.3 50.8 C 61.5 51.0 61.6 50.7 61.8 50.6 C 61.7 50.6 61.7 50.5 61.6 50.5 C 61.9 50.1 62.1 50.2 62.3 50.1 C 62.6 49.6 63.2 49.4 63.4 48.7 C 63.7 48.7 63.8 48.6 64.1 48.3 C 64.0 48.2 64.2 48.0 64.3 47.7 C 64.2 47.7 64.4 47.5 64.3 47.4 C 64.1 47.6 64.0 47.4 63.9 47.5 C 64.2 47.3 64.0 47.0 64.4 46.8 C 64.2 47.2 64.3 47.4 64.5 47.6 C 64.7 47.3 64.9 47.1 65.1 47.1 C 65.0 47.0 64.9 47.0 64.8 47.1 C 64.9 46.9 65.0 46.8 65.0 46.7 C 65.1 46.8 65.1 46.9 65.2 46.8 C 65.2 46.7 65.2 46.6 65.2 46.5 C 65.4 46.5 65.2 46.7 65.3 46.8 C 65.7 46.4 65.2 46.4 65.4 46.1 C 65.5 46.1 65.7 46.2 65.8 46.0 C 65.8 45.9 65.7 45.8 65.8 45.5 C 66.0 45.4 66.1 45.7 66.2 45.5 C 66.2 45.5 66.2 45.4 66.3 45.4 C 66.2 45.3 66.2 45.2 66.3 45.1 C 66.4 45.1 66.5 44.9 66.5 44.8 C 66.6 44.9 66.9 44.7 66.8 44.6 C 66.8 44.5 66.7 44.7 66.6 44.7 C 66.8 44.5 66.8 44.4 66.9 44.2 C 67.3 44.4 67.2 43.9 67.6 43.6 C 67.7 43.3 67.3 43.5 67.5 43.1 C 67.7 43.0 67.6 43.3 67.8 43.3 C 67.8 43.3 68.1 43.0 68.0 42.9 C 67.9 42.9 67.8 43.1 67.8 43.1 C 67.8 42.7 68.0 42.9 68.1 42.8 C 68.0 42.7 68.0 42.6 67.9 42.5 C 68.2 41.8 68.5 42.0 68.8 41.8 C 68.7 41.8 68.8 41.7 68.7 41.6 C 68.7 41.8 68.4 42.0 68.5 41.7 C 68.6 41.8 68.7 41.4 68.7 41.3 C 68.6 41.3 68.5 41.6 68.4 41.4 C 68.5 41.1 68.8 41.4 68.7 41.0 C 68.9 41.1 68.8 41.2 68.8 41.3 C 68.9 41.2 68.9 41.1 69.0 41.1 C 69.0 41.2 69.1 41.3 69.2 41.4 C 69.1 41.2 69.4 40.9 69.1 41.0 C 69.3 40.7 69.4 40.3 69.1 40.5 C 69.2 40.2 69.4 40.5 69.4 40.2 C 69.5 40.3 69.6 40.4 69.8 40.3 C 69.8 40.2 69.8 40.1 69.7 40.0 C 69.9 39.6 70.1 39.6 70.4 39.5 C 70.0 39.5 70.3 39.4 70.3 39.1 C 70.4 39.1 70.6 39.3 70.7 38.9 C 70.3 39.2 70.8 38.5 70.5 38.5 C 70.8 38.1 70.8 38.1 71.1 37.7 C 71.2 37.8 71.2 38.0 71.1 38.2 C 71.1 38.0 70.8 38.5 70.9 38.5 C 70.9 38.5 71.0 38.5 71.0 38.5 C 71.2 38.2 71.3 38.0 71.5 37.9 C 71.4 37.8 71.4 37.6 71.2 37.5 C 71.6 37.3 71.4 36.9 71.7 36.8 C 71.6 36.9 71.6 37.0 71.7 37.0 C 71.7 36.9 71.8 36.7 71.6 36.7 C 71.4 36.9 71.4 36.9 71.5 37.1 C 71.4 37.0 71.1 37.3 71.2 37.0 C 71.4 37.1 71.3 36.4 71.4 36.7 C 71.4 37.0 71.7 36.4 71.8 36.5 C 71.8 36.5 71.8 36.5 71.8 36.5 Z M 18.5 70.7 C 18.2 70.8 18.6 71.0 18.8 71.0 C 18.7 70.9 18.7 70.8 18.7 70.7 C 18.6 70.8 18.5 70.8 18.5 70.7 C 18.5 70.7 18.5 70.7 18.5 70.7 Z M 21.7 73.3 C 21.7 73.1 21.3 73.3 21.1 73.2 C 21.1 73.3 21.2 73.3 21.1 73.3 C 21.3 73.5 21.3 73.2 21.7 73.3 C 21.7 73.3 21.7 73.3 21.7 73.3 Z M 32.4 71.1 C 32.3 71.2 32.1 71.3 32.1 71.2 C 32.0 71.2 32.0 71.3 32.0 71.4 C 31.8 71.5 32.0 71.1 31.7 71.3 C 31.6 71.7 32.4 71.6 32.4 71.1 C 32.4 71.1 32.4 71.1 32.4 71.1 Z M 72.5 41.0 C 72.7 41.0 72.6 41.3 72.8 41.3 C 73.0 40.8 72.6 41.1 73.0 40.4 C 72.9 40.4 72.9 40.4 72.8 40.4 C 72.7 40.8 72.8 40.8 72.6 40.6 C 72.5 40.8 72.8 41.0 72.5 41.0 C 72.5 41.0 72.5 41.0 72.5 41.0 Z M 76.4 34.8 C 76.3 34.8 76.3 34.8 76.2 34.8 C 76.2 35.1 76.2 35.0 76.0 35.3 C 76.3 35.4 76.4 35.1 76.4 34.8 C 76.4 34.8 76.4 34.8 76.4 34.8 Z M 81.7 16.0 C 81.7 15.9 81.7 15.8 81.7 15.8 C 81.6 15.8 81.4 15.6 81.4 15.9 C 81.5 16.0 81.5 15.9 81.5 15.8 C 81.5 15.9 81.5 16.1 81.7 16.1 C 81.7 16.0 81.7 16.0 81.7 16.0 C 81.7 16.0 81.7 16.0 81.7 16.0 Z M 80.5 7.6 C 80.7 8.0 81.2 7.0 80.5 7.6 C 80.5 7.6 80.5 7.6 80.5 7.6 C 80.5 7.6 80.5 7.6 80.5 7.6 Z M 78.4 8.4 C 78.4 8.4 78.4 8.5 78.4 8.5 C 78.4 8.8 78.3 8.5 78.2 8.7 C 78.3 9.0 78.5 8.6 78.6 8.9 C 78.7 8.8 78.4 8.6 78.4 8.4 C 78.4 8.4 78.4 8.4 78.4 8.4 Z M 56.9 55.6 C 56.8 55.8 56.8 56.0 56.9 56.2 C 57.1 56.1 57.2 56.0 57.3 56.0 C 57.5 55.7 57.0 56.1 57.0 56.1 C 56.9 55.9 57.1 55.7 56.9 55.6 C 56.9 55.6 56.9 55.6 56.9 55.6 Z M 56.3 56.2 C 56.3 56.4 56.2 56.5 56.3 56.7 C 56.4 56.5 56.5 56.6 56.5 56.6 C 56.6 56.4 56.3 56.5 56.3 56.2 C 56.3 56.2 56.3 56.2 56.3 56.2 Z M 57.7 55.2 C 57.6 55.3 57.7 55.4 57.8 55.5 C 57.9 55.4 58.0 55.4 58.1 55.3 C 58.1 55.2 58.0 55.2 58.0 55.1 C 57.9 55.2 57.9 55.3 57.8 55.4 C 57.8 55.3 57.7 55.3 57.7 55.2 C 57.7 55.2 57.7 55.2 57.7 55.2 Z M 55.8 57.0 C 55.4 57.3 55.4 57.7 55.3 58.1 C 55.6 57.8 55.6 57.3 55.9 57.3 C 56.1 57.0 55.7 57.2 55.7 57.2 C 55.7 57.1 55.8 57.1 55.8 57.0 C 55.8 57.0 55.8 57.0 55.8 57.0 Z M 52.3 59.8 C 52.1 59.8 52.1 60.1 51.9 60.2 C 52.0 60.3 52.0 60.3 52.1 60.3 C 52.4 60.1 52.0 60.0 52.3 59.8 C 52.3 59.8 52.3 59.8 52.3 59.8 Z M 50.4 61.3 C 50.2 61.5 50.5 61.3 50.5 61.5 C 50.7 61.3 51.0 61.2 50.9 61.0 C 50.7 61.3 50.6 61.3 50.4 61.3 C 50.4 61.3 50.4 61.3 50.4 61.3 Z M 48.9 62.2 C 48.7 62.5 49.1 62.4 49.1 62.6 C 49.2 62.5 49.1 62.5 49.1 62.4 C 49.2 62.4 49.3 62.4 49.4 62.3 C 49.3 62.2 49.0 62.4 48.9 62.2 C 48.9 62.2 48.9 62.2 48.9 62.2 Z M 62.4 50.8 C 62.3 50.9 62.5 51.0 62.2 51.3 C 62.6 50.8 62.8 51.4 63.2 50.8 C 63.1 50.8 63.1 50.7 63.2 50.8 C 63.3 50.5 62.9 50.9 63.0 50.6 C 62.8 50.7 63.1 50.8 63.0 51.0 C 62.7 51.0 62.5 51.0 62.4 50.8 C 62.4 50.8 62.4 50.8 62.4 50.8 Z M 63.4 50.9 C 63.6 50.8 63.3 50.6 63.5 50.6 C 63.6 50.5 63.5 50.5 63.5 50.5 C 63.4 50.5 63.4 50.5 63.3 50.5 C 63.3 50.7 63.2 50.8 63.4 50.9 C 63.4 50.9 63.4 50.9 63.4 50.9 Z M 62.1 52.4 C 62.3 52.1 62.4 52.1 62.4 51.8 C 62.7 51.9 62.5 51.6 62.8 51.6 C 63.0 51.3 62.7 51.5 62.6 51.5 C 62.8 51.2 62.8 51.5 63.0 51.2 C 62.8 51.0 62.6 51.4 62.5 51.2 C 62.3 51.4 62.4 51.5 62.3 51.7 C 62.3 51.7 62.2 51.6 62.1 51.6 C 62.0 51.9 61.9 51.7 61.8 51.9 C 61.8 52.1 61.9 52.1 62.1 51.8 C 62.0 52.1 62.0 52.3 61.7 52.4 C 61.7 52.2 61.0 52.9 61.3 53.0 C 61.5 52.8 61.3 52.8 61.3 52.7 C 61.7 52.5 61.8 52.3 62.1 52.4 C 62.1 52.4 62.1 52.4 62.1 52.4 Z M 58.2 55.6 C 58.1 55.6 58.0 55.7 57.9 55.8 C 57.8 55.7 57.9 55.6 57.7 55.6 C 57.6 55.7 57.6 55.8 57.5 55.9 C 57.6 55.9 58.1 55.8 57.9 56.0 C 58.1 56.0 58.2 55.9 58.3 55.8 C 58.0 55.8 58.5 55.6 58.7 55.4 C 58.5 55.3 59.0 55.2 59.0 55.0 C 58.8 55.0 58.6 55.4 58.5 55.5 C 58.5 55.4 57.8 55.5 58.2 55.6 C 58.2 55.6 58.2 55.6 58.2 55.6 Z M 63.8 50.2 C 63.8 50.1 63.9 49.9 63.8 50.0 C 63.8 49.9 64.0 49.9 63.7 49.7 C 63.8 49.7 63.9 49.6 63.9 49.5 C 64.0 49.6 63.8 49.8 64.0 49.8 C 64.0 49.6 64.1 49.7 64.2 49.5 C 64.3 49.7 64.4 49.6 64.5 49.8 C 64.5 49.7 64.6 49.5 64.5 49.4 C 64.8 49.2 64.6 49.7 65.0 49.3 C 65.1 49.4 64.8 49.7 64.7 49.7 C 64.8 49.9 65.1 49.2 65.4 49.0 C 65.1 49.2 65.1 48.8 65.1 48.6 C 65.2 48.5 65.2 48.7 65.4 48.6 C 65.5 48.4 65.5 48.3 65.6 48.3 C 65.7 48.2 65.6 48.2 65.5 48.1 C 65.7 47.9 65.8 48.2 65.9 47.9 C 65.6 48.0 65.7 47.7 66.1 47.4 C 66.0 47.3 65.9 47.4 65.8 47.4 C 65.7 47.3 66.1 47.2 66.2 47.2 C 66.3 47.0 66.1 47.1 66.0 47.2 C 66.0 47.1 66.0 47.0 66.1 46.8 C 65.7 47.2 65.3 47.9 64.5 48.5 C 64.7 48.5 64.6 48.6 64.4 48.8 C 64.3 48.8 64.4 48.7 64.4 48.6 C 64.1 48.7 64.4 49.0 64.0 49.3 C 63.8 49.5 64.1 49.0 63.8 49.2 C 63.8 49.3 63.8 49.5 63.6 49.5 C 63.4 49.8 63.6 50.0 63.2 50.4 C 63.5 50.2 63.9 50.4 64.0 50.1 C 64.0 50.1 63.9 50.2 63.8 50.2 C 63.8 50.2 63.8 50.2 63.8 50.2 Z M 56.6 56.7 C 56.5 56.8 56.5 57.0 56.4 56.9 C 56.2 57.1 56.5 57.0 56.6 57.0 C 56.7 56.9 56.7 56.8 56.6 56.7 C 56.6 56.7 56.6 56.7 56.6 56.7 Z M 30.8 69.9 C 30.4 69.9 30.5 70.1 30.3 70.2 C 30.5 70.2 30.6 70.4 31.0 70.2 C 30.9 70.1 30.9 69.9 30.8 69.9 C 30.8 69.9 30.8 69.9 30.8 69.9 Z M 57.4 56.1 C 57.5 55.8 57.4 56.5 57.2 56.4 C 57.1 56.7 57.5 56.3 57.4 56.6 C 57.5 56.4 57.8 56.4 57.9 56.1 C 57.8 56.0 57.6 56.2 57.5 56.3 C 57.4 56.3 57.5 56.2 57.4 56.1 C 57.4 56.1 57.4 56.1 57.4 56.1 Z M 34.5 69.5 C 34.7 69.2 34.2 69.2 34.0 69.2 C 34.1 69.4 34.2 69.3 34.5 69.5 C 34.5 69.5 34.5 69.5 34.5 69.5 Z M 28.4 70.7 C 28.3 70.9 28.8 70.6 28.7 70.9 C 28.9 70.8 28.9 70.8 28.9 70.7 C 29.0 70.7 29.3 70.7 29.2 70.8 C 29.3 71.0 28.8 70.9 29.0 71.1 C 28.8 71.1 28.8 71.0 28.7 71.0 C 29.0 71.0 28.8 70.8 28.4 70.8 C 28.5 71.0 28.6 70.9 28.5 71.1 C 28.5 71.0 28.3 70.9 28.2 70.6 C 27.9 70.7 28.2 71.0 27.8 71.0 C 27.8 71.1 28.1 71.1 28.2 71.1 C 28.2 71.3 27.8 71.0 27.9 71.3 C 27.8 71.2 27.6 71.1 27.6 70.9 C 27.8 70.8 28.0 70.7 28.2 70.5 C 28.0 70.4 27.8 70.9 27.4 70.8 C 27.4 70.9 27.2 70.9 27.3 71.1 C 27.0 71.1 27.1 70.8 27.2 70.8 C 27.1 70.7 26.6 70.9 26.6 71.0 C 26.6 70.9 25.9 71.0 26.0 71.2 C 25.8 71.1 25.5 71.4 25.4 71.2 C 25.3 71.2 25.1 71.3 24.8 71.3 C 24.8 71.5 25.2 71.3 25.2 71.5 C 25.3 71.6 24.8 71.5 24.9 71.6 C 24.9 71.7 24.9 71.7 24.9 71.8 C 25.1 71.7 25.3 71.6 25.4 71.5 C 25.6 71.5 25.4 71.6 25.5 71.7 C 25.6 71.6 26.2 71.3 26.2 71.6 C 26.6 71.5 26.9 71.5 27.1 71.3 C 27.3 71.3 26.9 71.4 27.1 71.5 C 27.8 71.2 28.7 71.3 29.2 70.9 C 29.4 70.9 29.4 71.1 29.4 71.2 C 30.2 70.9 29.4 70.8 30.1 70.7 C 30.1 70.9 29.8 70.9 29.9 71.1 C 30.1 71.0 30.1 70.9 30.4 70.9 C 30.4 70.8 30.4 70.7 30.4 70.7 C 30.6 70.6 30.6 70.9 30.7 70.9 C 31.0 70.8 30.9 70.7 31.1 70.9 C 31.4 70.7 31.6 70.6 31.9 70.6 C 32.1 70.5 31.7 70.3 31.4 70.3 C 31.4 70.3 31.5 70.2 31.4 70.2 C 31.8 70.3 32.0 70.6 32.5 70.5 C 32.1 70.4 32.7 70.3 32.8 70.5 C 33.0 70.4 32.8 70.2 32.6 70.3 C 32.7 70.2 32.8 70.2 32.8 70.3 C 32.8 70.0 32.3 70.0 31.8 70.2 C 31.9 69.9 31.4 70.3 31.6 69.9 C 31.2 70.1 31.6 70.2 31.1 70.3 C 31.1 70.3 31.2 70.4 31.3 70.5 C 30.9 70.6 31.0 70.3 30.6 70.4 C 30.6 70.6 30.8 70.5 30.9 70.6 C 30.4 70.5 30.2 70.5 29.9 70.4 C 29.9 70.5 30.0 70.7 29.5 70.7 C 29.5 70.6 29.5 70.6 29.5 70.5 C 29.7 70.5 29.7 70.2 29.1 70.3 C 29.1 70.4 29.3 70.4 29.4 70.4 C 29.4 70.5 29.2 70.6 29.0 70.6 C 28.9 70.6 28.7 70.6 28.9 70.5 C 28.8 70.4 28.7 70.7 28.4 70.7 C 28.4 70.7 28.4 70.7 28.4 70.7 Z M 52.9 59.9 C 52.9 59.9 52.8 60.0 52.7 60.1 C 52.8 60.2 53.0 60.1 53.0 60.1 C 53.2 60.0 52.9 59.9 52.9 59.9 C 52.9 59.9 52.9 59.9 52.9 59.9 Z M 55.2 58.2 C 55.1 58.1 55.1 58.4 54.9 58.5 C 54.9 58.7 55.1 58.5 55.2 58.6 C 55.4 58.4 54.9 58.4 55.2 58.2 C 55.2 58.2 55.2 58.2 55.2 58.2 Z M 54.2 59.0 C 54.1 58.9 54.2 59.1 54.4 59.0 C 54.4 59.1 54.4 59.2 54.4 59.3 C 54.6 59.3 54.5 59.0 54.7 58.9 C 54.6 58.9 54.4 58.9 54.2 59.0 C 54.2 59.0 54.2 59.0 54.2 59.0 Z M 53.9 59.2 C 53.9 59.4 53.7 59.3 53.6 59.6 C 53.7 59.6 54.1 59.3 54.1 59.2 C 54.1 59.0 53.7 59.3 53.9 59.2 C 53.9 59.2 53.9 59.2 53.9 59.2 Z M 38.2 68.5 C 38.2 68.5 38.2 68.6 38.2 68.6 C 37.8 68.5 37.5 68.7 37.7 68.3 C 37.4 68.6 37.1 68.4 36.8 68.5 C 36.6 68.5 36.8 68.7 36.6 68.7 C 36.3 68.8 36.7 68.6 36.6 68.5 C 36.5 68.4 36.6 68.8 36.2 68.7 C 36.4 69.0 35.9 68.8 36.1 69.1 C 35.9 69.0 35.9 69.2 35.7 69.2 C 35.7 69.3 35.9 69.3 36.0 69.4 C 36.2 69.5 36.1 69.2 35.9 69.3 C 35.9 69.1 36.3 69.2 36.4 69.1 C 36.6 69.2 36.1 69.2 36.3 69.3 C 36.4 69.3 36.4 69.2 36.4 69.2 C 36.6 69.2 36.7 69.2 36.8 69.3 C 36.7 69.3 36.7 69.3 36.7 69.2 C 36.5 69.3 36.9 69.5 36.6 69.6 C 36.7 69.6 36.8 69.6 36.8 69.7 C 37.0 69.8 36.7 69.2 37.1 69.3 C 37.3 69.0 36.5 69.3 36.6 68.9 C 37.1 68.8 36.9 69.1 37.3 69.0 C 37.3 68.9 37.2 68.9 37.3 68.8 C 37.3 68.7 37.2 68.8 37.0 68.8 C 37.0 68.8 37.2 68.7 37.3 68.7 C 37.3 68.7 37.2 68.7 37.2 68.6 C 37.5 68.6 37.6 68.9 37.3 69.1 C 37.4 69.3 37.8 69.1 37.9 69.0 C 37.7 68.9 37.9 68.9 37.7 68.7 C 37.6 68.8 37.7 68.8 37.7 68.9 C 37.5 68.9 37.6 68.8 37.6 68.7 C 37.8 68.7 37.8 68.8 38.0 68.6 C 38.0 68.7 37.9 68.8 38.0 68.8 C 38.1 68.8 38.1 68.8 38.2 68.7 C 38.2 68.6 38.3 68.6 38.2 68.5 C 38.2 68.5 38.2 68.5 38.2 68.5 Z M 33.3 69.5 C 33.0 69.6 33.2 69.7 33.4 69.6 C 33.3 69.7 33.2 69.8 33.1 69.8 C 33.2 69.9 33.3 69.8 33.6 69.8 C 33.4 70.1 33.8 70.3 34.2 70.2 C 34.3 69.8 33.9 69.8 34.0 69.6 C 33.7 69.8 33.4 69.7 33.3 69.5 C 33.3 69.5 33.3 69.5 33.3 69.5 Z M 56.6 57.1 C 56.5 57.2 56.3 57.3 56.2 57.5 C 56.3 57.6 56.9 57.3 56.6 57.1 C 56.6 57.1 56.6 57.1 56.6 57.1 Z M 66.5 46.6 C 66.5 46.6 66.6 46.6 66.6 46.6 C 66.7 46.3 66.4 46.6 66.4 46.4 C 66.3 46.5 66.2 46.6 66.2 46.7 C 66.2 46.7 66.6 46.4 66.4 46.7 C 66.5 46.7 66.5 46.7 66.5 46.6 C 66.5 46.6 66.5 46.6 66.5 46.6 Z M 53.2 59.9 C 53.1 60.1 53.4 60.2 53.0 60.4 C 53.2 60.4 53.2 60.3 53.4 60.2 C 53.4 60.1 53.3 60.0 53.2 59.9 C 53.2 59.9 53.2 59.9 53.2 59.9 Z M 39.5 67.7 C 39.2 67.6 39.3 68.0 38.8 68.1 C 39.1 68.2 39.3 67.9 39.5 67.7 C 39.5 67.7 39.5 67.7 39.5 67.7 Z M 24.1 71.7 C 24.2 71.7 24.1 71.8 24.3 71.8 C 24.4 71.7 24.5 71.6 24.7 71.6 C 24.4 71.4 23.9 71.7 23.7 71.4 C 23.5 71.4 23.5 71.6 23.4 71.8 C 23.5 71.7 23.6 71.8 23.6 71.8 C 23.7 71.5 23.9 72.0 24.1 71.7 C 24.1 71.7 24.1 71.7 24.1 71.7 Z M 34.6 69.5 C 34.8 69.5 34.6 69.7 34.5 69.8 C 34.4 69.8 34.4 69.7 34.4 69.6 C 34.2 69.7 34.2 69.8 34.2 69.9 C 34.6 69.9 34.9 69.8 34.8 70.1 C 35.1 70.0 34.9 69.8 35.0 69.7 C 35.2 69.8 35.1 69.9 35.1 70.1 C 35.2 70.0 35.3 69.8 35.4 70.0 C 35.8 69.6 35.5 69.4 35.1 69.2 C 34.8 69.5 35.2 69.5 34.6 69.5 C 34.6 69.5 34.6 69.5 34.6 69.5 Z M 46.0 65.0 C 46.0 64.9 45.8 65.0 45.8 65.0 C 45.7 65.2 45.6 65.5 45.5 65.7 C 45.6 65.9 45.8 65.6 45.6 65.5 C 45.8 65.6 46.0 65.6 46.1 65.6 C 46.3 65.5 46.2 65.2 46.4 65.4 C 46.5 65.2 46.4 65.3 46.7 65.2 C 46.1 65.2 46.8 65.0 46.7 64.8 C 46.5 64.9 46.2 65.1 46.4 65.2 C 46.1 65.2 45.9 65.3 45.8 65.2 C 45.8 65.1 45.9 65.0 46.0 65.0 C 46.0 65.0 46.0 65.0 46.0 65.0 Z M 45.2 66.0 C 45.3 65.9 45.3 65.9 45.5 65.8 C 45.4 65.8 45.3 65.8 45.3 65.7 C 45.1 65.8 45.0 65.9 44.9 65.8 C 44.7 65.9 45.1 66.0 44.7 66.1 C 44.8 66.1 44.9 66.0 44.9 66.1 C 44.9 66.0 45.0 65.9 45.2 66.0 C 45.2 66.0 45.2 66.0 45.2 66.0 Z M 42.4 67.0 C 42.1 67.1 42.5 67.0 42.4 67.2 C 42.5 67.2 43.0 67.0 43.0 67.2 C 43.2 67.4 43.4 66.7 43.5 67.0 C 43.6 66.9 43.6 66.9 43.5 66.8 C 43.3 67.0 43.2 66.8 43.4 66.7 C 43.3 66.7 43.2 66.8 43.0 66.8 C 43.1 66.9 43.2 66.9 43.2 67.0 C 42.9 67.0 42.6 67.0 42.4 67.0 C 42.4 67.0 42.4 67.0 42.4 67.0 Z M 72.4 37.4 C 72.3 37.6 72.3 37.8 72.3 37.9 C 72.4 37.9 72.4 37.7 72.4 37.6 C 72.5 37.6 72.5 37.7 72.4 37.8 C 72.6 37.8 72.7 37.4 72.4 37.4 C 72.4 37.4 72.4 37.4 72.4 37.4 Z M 71.5 39.2 C 71.4 39.4 71.4 39.5 71.5 39.6 C 71.6 39.5 71.4 39.5 71.5 39.4 C 71.6 39.3 71.7 39.3 71.8 39.3 C 71.8 39.2 71.7 39.2 71.7 39.1 C 71.7 39.1 71.8 39.1 71.8 39.1 C 71.8 38.8 71.7 39.4 71.5 39.2 C 71.5 39.2 71.5 39.2 71.5 39.2 Z M 43.9 66.4 C 44.0 66.5 44.1 66.5 44.3 66.4 C 44.2 66.3 44.4 66.2 44.5 66.2 C 44.3 66.1 44.2 66.3 43.9 66.4 C 43.9 66.4 43.9 66.4 43.9 66.4 Z M 64.6 49.9 C 64.3 50.1 64.5 50.2 64.1 50.5 C 64.2 50.5 64.2 50.6 64.3 50.6 C 64.3 50.3 64.5 50.3 64.6 49.9 C 64.6 49.9 64.6 49.9 64.6 49.9 Z M 79.3 11.8 C 79.4 11.9 79.4 11.6 79.5 11.5 C 79.2 11.5 79.7 11.3 79.6 10.7 C 79.7 10.7 79.7 10.8 79.7 10.9 C 79.8 10.4 79.5 11.0 79.4 11.0 C 79.4 11.4 79.3 11.5 79.3 11.8 C 79.3 11.8 79.3 11.8 79.3 11.8 Z M 27.0 71.9 C 27.1 71.8 27.0 71.8 26.9 71.8 C 26.9 71.8 26.8 71.8 26.8 71.8 C 26.8 72.1 27.1 72.1 26.9 72.4 C 27.0 72.4 27.0 72.4 27.0 72.3 C 27.4 71.7 27.9 72.6 28.5 72.1 C 28.6 72.1 28.5 72.0 28.5 72.0 C 28.5 72.0 28.5 72.0 28.4 71.9 C 28.4 72.2 27.8 72.0 28.0 71.9 C 28.0 71.8 27.9 71.9 27.9 71.9 C 27.9 71.9 27.8 71.9 27.7 71.9 C 27.8 72.0 27.9 72.0 28.0 72.1 C 27.6 72.1 27.3 72.0 27.4 71.8 C 27.2 71.8 27.2 72.0 27.1 72.0 C 26.9 72.0 26.9 71.9 27.0 71.9 C 27.0 71.9 27.0 71.9 27.0 71.9 Z M 24.5 72.2 C 24.2 72.2 24.4 72.4 24.1 72.4 C 24.3 72.5 24.5 72.3 24.8 72.4 C 24.7 72.3 24.6 72.3 24.5 72.2 C 24.5 72.2 24.5 72.2 24.5 72.2 Z M 30.2 71.6 C 30.2 71.8 30.4 71.8 30.7 71.8 C 30.7 71.5 30.5 71.6 30.2 71.6 C 30.2 71.6 30.2 71.6 30.2 71.6 Z M 28.9 71.9 C 28.6 72.0 29.3 71.8 29.2 72.1 C 29.3 72.0 29.4 72.0 29.5 72.1 C 29.5 72.0 29.5 71.9 29.7 71.9 C 29.7 71.8 29.4 71.9 29.4 71.8 C 29.2 71.9 29.2 71.9 28.9 71.9 C 28.9 71.9 28.9 71.9 28.9 71.9 Z M 28.7 71.9 C 28.6 72.0 28.8 72.2 29.1 72.2 C 29.0 72.1 28.9 72.0 28.7 71.9 C 28.7 71.9 28.7 71.9 28.7 71.9 Z M 50.0 63.7 C 49.9 63.8 50.1 63.8 50.0 63.9 C 50.0 64.0 50.5 63.7 50.1 64.0 C 50.4 64.1 50.3 63.7 50.5 63.7 C 50.4 63.6 50.3 63.6 50.4 63.5 C 50.4 63.4 50.1 63.8 50.0 63.7 C 50.0 63.7 50.0 63.7 50.0 63.7 Z M 49.5 64.0 C 49.4 64.1 49.5 64.1 49.6 64.0 C 49.6 64.1 49.4 64.2 49.3 64.2 C 49.3 64.2 49.7 64.4 49.7 64.5 C 50.1 64.1 49.7 64.1 49.5 64.0 C 49.5 64.0 49.5 64.0 49.5 64.0 Z M 49.2 64.3 C 48.8 64.4 48.4 64.6 48.3 64.9 C 48.7 65.0 49.2 64.6 49.2 64.3 C 49.2 64.3 49.2 64.3 49.2 64.3 Z M 52.0 62.6 C 51.4 62.8 50.5 63.7 51.5 63.2 C 51.4 63.1 52.0 62.6 52.3 62.5 C 52.3 62.5 52.5 62.1 52.6 62.2 C 52.7 61.9 51.8 62.5 52.0 62.6 C 52.0 62.6 52.0 62.6 52.0 62.6 Z M 48.2 65.4 C 48.3 65.3 47.9 65.1 48.2 65.1 C 48.3 65.0 48.1 65.0 48.1 64.9 C 47.9 65.1 47.4 65.6 47.3 65.4 C 47.2 65.5 47.2 65.7 46.9 65.8 C 46.9 65.9 47.7 65.1 48.1 65.3 C 48.1 65.4 47.8 65.6 48.2 65.4 C 48.2 65.4 48.2 65.4 48.2 65.4 Z M 65.4 50.6 C 65.3 50.5 65.1 50.9 65.1 50.7 C 65.1 51.0 64.8 51.1 64.8 51.4 C 64.7 51.4 64.5 51.2 64.2 51.5 C 64.3 51.6 64.4 51.4 64.4 51.7 C 64.2 51.9 64.1 51.7 63.9 52.1 C 64.2 52.2 63.4 52.7 63.7 52.8 C 63.8 52.7 63.7 52.6 64.0 52.4 C 64.0 52.3 64.1 52.4 64.2 52.3 C 64.2 52.5 63.9 52.4 63.9 52.6 C 64.1 52.7 64.2 52.5 64.3 52.6 C 64.4 52.4 64.3 52.5 64.2 52.4 C 64.4 52.1 64.5 52.7 64.8 52.4 C 64.6 52.3 64.5 52.3 64.5 52.1 C 64.7 52.0 64.9 51.6 64.9 51.9 C 65.0 52.0 65.1 51.6 65.0 51.6 C 65.1 51.4 65.1 51.4 65.2 51.5 C 65.4 51.1 65.3 50.9 65.1 50.9 C 65.0 50.7 65.3 50.9 65.4 50.6 C 65.4 50.6 65.4 50.6 65.4 50.6 Z M 54.6 60.8 C 54.7 60.5 54.4 61.0 54.2 61.1 C 54.5 60.9 54.5 61.2 54.8 61.0 C 54.7 61.0 54.7 60.9 54.8 60.8 C 54.8 60.7 54.4 61.0 54.6 60.8 C 54.6 60.8 54.6 60.8 54.6 60.8 Z M 46.4 66.1 C 46.2 66.0 45.8 66.4 45.6 66.4 C 45.7 66.7 46.1 66.0 46.4 66.2 C 46.5 66.1 46.2 66.2 46.4 66.1 C 46.4 66.1 46.4 66.1 46.4 66.1 Z M 62.7 53.5 C 62.6 53.6 62.7 53.5 62.7 53.5 C 62.7 53.6 62.6 53.7 62.5 53.8 C 62.7 53.8 62.5 54.0 62.7 54.1 C 62.6 54.2 62.6 54.2 62.6 54.3 C 62.4 54.1 62.3 54.9 62.8 54.4 C 62.6 54.4 62.6 54.4 62.8 54.1 C 63.1 54.0 63.1 53.7 63.3 53.8 C 63.4 53.6 63.4 53.5 63.6 53.3 C 63.7 53.4 64.0 53.2 64.0 53.6 C 64.3 53.2 63.8 53.2 64.0 52.8 C 64.3 52.6 64.0 53.1 64.2 53.2 C 64.3 53.1 64.3 53.2 64.4 53.2 C 64.5 53.0 64.3 52.9 64.2 53.0 C 64.2 53.0 64.4 52.6 64.4 52.8 C 64.5 52.6 63.8 52.7 63.8 53.0 C 63.7 53.2 63.4 53.0 63.5 52.8 C 63.4 52.8 63.4 53.3 63.2 53.0 C 63.1 53.1 63.0 53.2 63.0 53.3 C 63.0 53.3 63.1 53.3 63.1 53.3 C 63.0 53.4 62.9 53.5 62.8 53.6 C 62.8 53.5 62.8 53.4 62.7 53.5 C 62.7 53.5 62.7 53.5 62.7 53.5 Z M 47.6 65.5 C 47.3 65.6 47.3 65.7 47.2 65.9 C 47.3 65.9 47.7 65.6 47.6 65.5 C 47.6 65.5 47.6 65.5 47.6 65.5 Z M 67.0 49.5 C 66.9 49.5 66.8 49.7 66.8 49.6 C 66.9 49.3 66.6 49.5 66.5 49.1 C 66.4 49.6 66.6 50.0 67.1 49.6 C 67.3 49.2 66.8 49.9 67.0 49.5 C 67.0 49.5 67.0 49.5 67.0 49.5 Z M 66.1 50.4 C 66.0 50.7 66.5 50.2 66.6 50.2 C 66.7 50.2 66.7 50.2 66.8 50.3 C 66.8 49.8 66.4 50.2 66.3 49.7 C 66.0 49.9 65.8 50.0 65.7 50.4 C 65.8 50.4 65.8 50.3 65.8 50.3 C 65.9 50.1 66.0 50.4 65.8 50.6 C 65.9 50.6 66.0 50.4 66.2 50.2 C 66.1 50.3 66.0 50.3 66.0 50.2 C 66.1 50.0 66.2 50.2 66.3 50.0 C 66.3 50.1 66.2 50.5 66.1 50.4 C 66.1 50.4 66.1 50.4 66.1 50.4 Z M 75.9 32.7 C 75.9 32.9 76.2 32.6 76.5 32.7 C 76.6 32.6 76.6 32.5 76.6 32.3 C 76.4 32.4 76.3 32.6 76.2 32.6 C 76.0 32.5 76.4 32.4 76.2 32.2 C 76.0 32.0 76.2 32.7 75.9 32.7 C 75.9 32.7 75.9 32.7 75.9 32.7 Z M 59.4 57.1 C 59.4 57.2 59.4 57.2 59.5 57.2 C 59.5 57.2 59.4 57.4 59.3 57.3 C 59.2 57.4 59.5 57.3 59.3 57.5 C 59.4 57.6 59.5 57.3 59.5 57.2 C 59.7 57.1 59.7 57.3 59.8 57.4 C 60.0 57.2 59.8 57.2 60.0 57.0 C 59.8 57.0 59.6 57.1 59.4 57.1 C 59.4 57.1 59.4 57.1 59.4 57.1 Z M 67.1 48.7 C 67.1 48.6 67.2 49.1 66.9 49.2 C 66.7 49.5 67.2 49.1 67.0 49.4 C 67.2 49.2 67.3 48.8 67.6 48.5 C 67.5 48.3 67.2 48.9 67.3 48.6 C 67.3 48.5 67.2 48.6 67.3 48.6 C 67.2 48.7 67.2 48.7 67.1 48.7 C 67.1 48.7 67.1 48.7 67.1 48.7 Z M 67.2 49.3 C 67.3 49.3 67.3 49.2 67.3 49.2 C 67.4 49.1 67.5 49.2 67.4 49.3 C 67.7 49.3 67.4 49.1 67.7 48.8 C 67.5 48.9 67.4 48.9 67.7 48.7 C 67.7 48.4 67.2 49.1 67.2 49.3 C 67.2 49.3 67.2 49.3 67.2 49.3 Z M 74.8 35.8 C 74.9 35.8 74.9 35.6 75.0 35.4 C 75.1 35.7 74.7 36.4 74.5 36.4 C 74.5 36.5 74.5 36.6 74.4 36.6 C 74.5 36.6 74.5 36.8 74.5 36.8 C 74.6 36.8 74.5 36.9 74.6 37.0 C 74.4 37.2 74.5 36.8 74.4 36.9 C 74.4 37.3 74.3 37.2 74.1 37.5 C 74.2 37.5 74.4 37.1 74.6 37.2 C 74.6 36.8 74.8 36.6 75.1 36.4 C 74.7 36.6 75.1 35.5 75.3 35.0 C 75.4 35.1 75.5 34.9 75.6 34.7 C 75.9 34.6 75.5 34.5 75.5 34.8 C 75.3 34.8 75.6 34.4 75.6 34.3 C 75.5 34.4 75.4 34.3 75.3 34.3 C 75.2 34.7 75.4 34.4 75.5 34.5 C 75.4 34.6 75.4 34.7 75.3 34.8 C 75.3 34.2 75.0 35.5 75.2 35.0 C 75.0 35.4 74.8 35.4 74.8 35.8 C 74.8 35.8 74.8 35.8 74.8 35.8 Z M 70.3 44.1 C 70.3 44.1 70.2 44.5 70.1 44.4 C 70.0 44.9 70.3 44.6 70.1 45.1 C 70.1 45.1 70.2 44.9 70.3 44.9 C 70.3 44.7 70.4 44.6 70.2 44.5 C 70.3 44.3 70.3 44.2 70.4 44.1 C 70.4 44.2 70.4 44.3 70.3 44.4 C 70.4 44.5 70.6 44.5 70.7 44.3 C 70.6 44.1 70.5 44.1 70.3 44.1 C 70.3 44.1 70.3 44.1 70.3 44.1 Z M 69.9 45.1 C 69.9 45.1 69.8 45.2 69.7 45.1 C 69.5 45.1 69.9 45.3 69.8 45.4 C 69.7 45.5 69.7 45.4 69.6 45.4 C 69.5 45.6 69.5 45.7 69.4 45.8 C 69.3 46.1 69.7 45.6 69.8 45.5 C 69.9 45.4 69.7 45.3 69.9 45.1 C 69.9 45.1 69.9 45.1 69.9 45.1 Z M 68.0 47.7 C 67.8 47.6 67.9 47.9 67.8 48.0 C 68.0 48.0 68.1 47.7 68.2 48.0 C 68.4 47.8 68.4 47.7 68.6 47.5 C 68.8 47.4 68.4 47.4 68.3 47.7 C 68.3 47.6 68.4 47.5 68.3 47.4 C 68.7 47.4 68.6 46.7 68.6 47.1 C 68.5 47.1 68.4 47.2 68.3 47.2 C 68.4 47.3 67.9 47.9 68.0 47.7 C 68.0 47.7 68.0 47.7 68.0 47.7 Z M 61.3 55.9 C 61.5 55.5 61.5 55.5 61.8 55.3 C 61.9 55.3 61.9 55.4 61.9 55.4 C 62.0 55.4 62.0 55.3 62.1 55.1 C 62.1 55.1 62.1 55.2 62.1 55.2 C 61.7 55.4 61.9 55.2 61.9 55.0 C 61.5 55.2 61.5 55.7 61.2 55.6 C 61.1 55.8 61.2 55.7 61.3 55.9 C 61.3 55.9 61.3 55.9 61.3 55.9 Z M 80.7 12.3 C 80.7 12.3 80.7 12.1 80.6 12.1 C 80.6 12.3 80.6 12.4 80.7 12.5 C 80.7 12.3 81.0 12.3 81.0 11.9 C 80.9 12.1 80.7 12.0 80.7 12.3 C 80.7 12.3 80.7 12.3 80.7 12.3 Z M 68.6 46.8 C 68.7 46.9 68.8 46.9 68.7 47.0 C 68.8 47.1 69.0 46.8 69.1 46.9 C 69.1 46.8 69.0 46.7 69.1 46.6 C 69.0 46.6 68.8 46.9 68.8 46.7 C 68.8 46.6 68.8 46.6 68.9 46.6 C 68.9 46.4 68.7 46.6 68.6 46.8 C 68.6 46.8 68.6 46.8 68.6 46.8 Z M 76.4 31.9 C 76.4 32.0 76.5 31.9 76.6 31.8 C 76.7 32.1 76.9 31.7 77.1 31.8 C 76.9 31.8 76.9 32.3 76.8 32.3 C 76.8 32.4 77.0 32.4 76.9 32.7 C 77.1 32.7 77.0 32.3 76.9 32.3 C 77.1 32.3 77.0 31.9 77.2 32.0 C 77.4 31.6 77.3 31.5 77.1 31.4 C 77.1 31.8 76.8 31.5 76.8 31.9 C 76.7 31.8 76.8 31.7 76.8 31.7 C 76.6 31.6 76.6 31.8 76.4 31.9 C 76.4 31.9 76.4 31.9 76.4 31.9 Z M 72.1 41.4 C 72.0 41.6 72.1 41.6 72.2 41.7 C 72.2 41.6 72.3 41.5 72.4 41.3 C 72.3 41.3 72.2 41.6 72.1 41.4 C 72.1 41.4 72.1 41.4 72.1 41.4 Z M 76.1 33.5 C 76.0 33.5 76.0 33.5 76.0 33.5 C 76.0 33.8 75.8 33.8 75.7 33.9 C 75.7 34.0 75.8 34.0 75.9 34.0 C 75.9 33.8 76.1 33.9 76.2 33.6 C 76.1 33.6 76.1 33.5 76.1 33.5 C 76.1 33.5 76.1 33.5 76.1 33.5 Z M 73.2 39.6 C 73.1 39.7 73.2 39.6 73.2 39.6 C 73.3 39.8 73.0 40.1 73.0 40.3 C 73.1 40.4 73.3 39.9 73.1 40.4 C 73.3 40.4 73.4 39.9 73.6 39.7 C 73.7 39.8 73.5 40.1 73.7 40.2 C 73.8 39.9 73.8 39.5 73.6 39.3 C 73.4 39.7 73.3 39.5 73.2 39.6 C 73.2 39.6 73.2 39.6 73.2 39.6 Z M 73.5 39.2 C 73.4 39.2 73.5 39.3 73.4 39.4 C 73.7 39.3 73.7 39.1 73.9 38.7 C 73.9 38.7 73.9 38.7 73.8 38.7 C 73.9 38.6 73.9 38.5 74.0 38.4 C 73.6 38.7 73.7 38.8 73.5 39.3 C 73.5 39.3 73.5 39.2 73.5 39.2 C 73.5 39.2 73.5 39.2 73.5 39.2 Z M 65.9 50.9 C 66.0 50.9 66.2 50.9 66.4 50.7 C 66.2 50.6 66.1 50.7 65.9 50.9 C 65.9 50.9 65.9 50.9 65.9 50.9 Z M 76.3 33.1 C 76.3 32.8 76.2 33.4 76.5 33.3 C 76.6 33.1 76.8 32.9 76.9 32.9 C 76.9 32.5 76.5 33.3 76.3 33.1 C 76.3 33.1 76.3 33.1 76.3 33.1 Z M 76.0 35.0 C 76.0 35.1 75.7 35.0 75.9 34.9 C 76.1 34.7 75.7 35.1 75.9 34.7 C 75.8 34.8 75.5 35.2 75.5 35.4 C 75.7 35.5 75.8 35.1 75.9 35.1 C 76.0 35.1 75.9 35.2 75.9 35.3 C 76.0 35.3 76.0 35.1 76.0 35.0 C 76.0 35.0 76.0 35.0 76.0 35.0 Z M 75.2 36.3 C 75.3 36.1 75.5 36.0 75.6 35.7 C 75.4 35.8 75.2 35.9 75.2 36.3 C 75.2 36.3 75.2 36.3 75.2 36.3 Z M 80.7 17.8 C 80.7 18.1 80.9 17.9 81.0 17.9 C 81.1 17.6 80.9 17.6 81.0 17.3 C 80.8 17.4 81.0 17.7 80.7 17.8 C 80.7 17.8 80.7 17.8 80.7 17.8 Z M 81.0 16.9 C 81.1 16.9 81.1 16.5 81.2 16.5 C 80.9 16.3 81.5 16.0 81.2 16.0 C 81.3 15.9 81.3 15.9 81.3 15.7 C 81.0 16.0 81.0 16.6 81.0 16.9 C 81.0 16.9 81.0 16.9 81.0 16.9 Z M 74.8 38.0 C 74.6 38.2 75.1 38.0 74.9 38.3 C 75.0 38.3 75.2 37.8 75.1 38.2 C 75.4 37.8 74.8 38.0 74.8 38.0 C 74.8 38.0 74.8 38.0 74.8 38.0 Z M 72.6 42.5 C 72.5 42.4 72.4 42.8 72.3 42.9 C 72.3 42.9 72.4 42.8 72.4 42.8 C 72.5 42.8 72.5 42.9 72.4 43.0 C 72.6 43.0 72.5 42.6 72.6 42.5 C 72.6 42.5 72.6 42.5 72.6 42.5 Z M 72.2 36.2 C 72.4 36.1 72.6 36.0 72.4 35.8 C 72.6 35.7 72.6 36.0 72.7 35.8 C 72.8 35.5 72.9 35.7 73.0 35.3 C 73.2 35.4 73.3 35.1 73.4 35.1 C 73.4 35.3 73.1 35.5 73.2 35.6 C 73.3 35.5 73.4 35.6 73.3 35.6 C 73.1 35.9 73.2 35.2 72.9 35.5 C 73.1 35.7 72.5 36.0 72.4 36.3 C 72.3 36.1 72.1 36.4 72.2 36.2 C 72.2 36.2 72.2 36.2 72.2 36.2 Z M 73.2 34.7 C 73.3 34.5 73.7 34.6 73.7 34.6 C 73.6 34.6 73.5 34.8 73.5 34.9 C 73.6 34.8 73.6 34.8 73.6 34.8 C 73.4 35.2 73.4 35.0 73.2 35.1 C 73.2 34.8 73.4 34.8 73.3 34.7 C 73.3 34.7 73.3 34.8 73.2 34.7 C 73.2 34.7 73.2 34.7 73.2 34.7 Z M 77.9 30.9 C 77.8 30.9 77.9 31.0 77.9 31.1 C 77.7 31.0 77.8 31.6 77.7 31.7 C 77.6 31.5 77.7 31.3 77.7 31.1 C 77.6 31.2 77.5 31.2 77.6 31.4 C 77.4 31.3 77.5 31.0 77.4 30.9 C 77.5 30.9 77.4 30.8 77.5 30.7 C 77.5 31.2 78.0 30.7 77.9 30.9 C 77.9 30.9 77.9 30.9 77.9 30.9 Z M 73.9 40.2 C 74.1 40.3 74.7 40.1 74.7 40.6 C 74.5 40.6 74.3 40.5 74.1 40.4 C 74.1 40.7 73.9 40.7 74.0 40.9 C 73.3 41.1 74.2 40.6 73.9 40.2 C 73.9 40.2 73.9 40.2 73.9 40.2 Z M 73.3 41.7 C 73.2 41.6 73.1 41.8 73.0 41.7 C 73.2 41.5 73.4 40.9 73.3 41.1 C 73.3 41.4 73.5 41.4 73.3 41.7 C 73.3 41.7 73.3 41.7 73.3 41.7 Z M 41.2 68.8 C 41.4 68.6 41.7 68.8 41.6 69.0 C 41.6 68.8 41.2 69.1 41.2 68.8 C 41.2 68.8 41.2 68.8 41.2 68.8 Z M 49.8 61.0 C 49.5 61.0 49.4 61.2 49.3 61.1 C 49.5 60.9 49.5 61.0 49.7 60.9 C 49.7 60.8 49.8 60.6 49.9 60.7 C 49.8 60.8 49.8 60.9 49.8 61.0 C 49.8 61.0 49.8 61.0 49.8 61.0 Z M 66.4 44.8 C 66.3 44.8 66.2 44.8 66.1 44.7 C 66.4 44.5 66.5 44.2 66.5 43.9 C 66.6 43.9 66.7 44.0 66.7 44.0 C 66.4 44.4 66.4 44.6 66.4 44.8 C 66.4 44.8 66.4 44.8 66.4 44.8 Z M 65.8 45.1 C 65.8 45.2 66.1 45.2 65.9 45.4 C 65.8 45.3 65.5 45.5 65.5 45.3 C 65.7 45.3 65.7 45.3 65.8 45.1 C 65.8 45.1 65.8 45.1 65.8 45.1 Z M 74.2 31.0 C 74.3 30.8 74.0 31.1 73.9 31.0 C 74.0 30.9 74.1 30.7 74.2 30.6 C 74.1 30.8 74.4 31.0 74.2 31.0 C 74.2 31.0 74.2 31.0 74.2 31.0 Z M 73.2 34.5 C 73.1 35.0 72.9 34.7 72.6 35.1 C 72.6 34.9 72.8 34.5 72.7 34.3 C 72.8 34.4 72.8 34.3 72.9 34.3 C 72.9 34.5 72.8 34.5 72.7 34.6 C 72.9 34.6 72.9 34.6 73.0 34.8 C 73.1 34.6 73.1 34.5 73.1 34.5 C 73.2 34.5 73.3 34.4 73.2 34.5 C 73.2 34.5 73.2 34.5 73.2 34.5 Z M 74.6 31.3 C 74.6 31.1 74.9 31.0 74.8 31.2 C 74.7 31.1 74.8 31.3 74.7 31.3 C 74.8 31.0 74.6 31.5 74.5 31.3 C 74.5 31.2 74.5 31.1 74.4 31.1 C 74.4 31.0 74.4 30.8 74.5 30.8 C 74.5 30.9 74.5 31.0 74.5 31.0 C 74.5 31.0 74.6 30.9 74.6 31.0 C 74.5 31.1 74.6 31.2 74.6 31.3 C 74.6 31.3 74.6 31.3 74.6 31.3 Z M 74.1 32.6 C 74.2 32.3 74.4 32.4 74.5 32.3 C 74.4 32.6 74.1 32.6 73.9 32.8 C 74.1 32.5 73.9 32.2 74.1 32.1 C 74.1 32.3 74.0 32.5 74.1 32.6 C 74.1 32.6 74.1 32.6 74.1 32.6 Z M 16.2 72.0 C 16.4 72.1 16.6 72.2 16.8 72.3 C 16.9 72.1 16.5 71.7 16.6 71.9 C 16.9 71.9 16.7 72.1 16.9 72.1 C 16.7 71.9 17.9 71.9 17.9 72.2 C 17.7 72.1 17.7 72.2 17.7 72.3 C 17.2 72.3 17.1 72.4 16.7 72.5 C 16.5 72.2 15.8 72.1 15.3 72.3 C 15.1 72.0 14.6 72.3 14.3 72.0 C 14.2 72.1 14.6 72.2 14.3 72.3 C 14.1 72.0 14.2 72.0 14.0 71.9 C 14.0 72.0 14.0 72.1 13.9 72.1 C 13.9 72.0 13.7 72.0 13.7 71.9 C 14.2 72.0 13.7 71.6 14.1 71.6 C 14.3 71.7 13.9 71.9 14.4 72.0 C 14.6 71.9 14.7 71.9 14.7 71.7 C 14.8 71.7 14.9 71.7 15.0 71.7 C 14.8 71.9 15.7 71.6 15.3 71.9 C 15.2 71.9 15.0 71.8 14.8 71.9 C 14.9 72.1 15.2 72.0 15.5 71.9 C 15.6 72.1 15.4 72.1 15.5 72.2 C 15.8 72.1 15.5 71.9 15.7 71.8 C 15.6 71.8 15.5 71.8 15.5 71.8 C 15.9 72.0 16.1 71.8 16.3 71.8 C 16.1 71.9 16.5 72.0 16.2 72.0 C 16.2 72.0 16.2 72.0 16.2 72.0 Z M 12.6 71.9 C 12.5 71.9 12.4 71.9 12.3 71.9 C 12.3 71.7 12.7 71.7 12.4 71.5 C 12.9 71.6 12.4 71.7 12.6 71.9 C 12.6 71.9 12.6 71.9 12.6 71.9 Z M 14.5 72.8 C 14.6 73.0 14.6 72.5 14.7 72.5 C 14.5 72.6 14.3 72.6 14.2 72.4 C 14.5 72.5 14.6 72.5 14.9 72.4 C 14.6 72.7 15.2 72.7 15.3 72.9 C 15.1 72.9 14.9 73.0 14.6 72.9 C 14.7 72.9 14.2 72.8 14.5 72.8 C 14.5 72.8 14.5 72.8 14.5 72.8 Z M 13.7 72.9 C 13.6 72.8 13.2 72.9 13.3 72.6 C 13.6 72.7 13.7 72.7 13.6 72.5 C 13.8 72.5 13.9 72.6 14.0 72.6 C 14.1 72.8 13.8 72.8 13.7 72.9 C 13.8 72.9 13.8 72.9 13.7 72.9 C 13.7 72.9 13.7 72.9 13.7 72.9 Z M 81.5 10.0 C 81.2 10.1 81.4 9.7 81.4 9.6 C 81.2 9.7 81.2 9.6 81.1 9.4 C 81.4 9.5 81.3 9.1 81.6 8.9 C 81.4 8.8 81.3 9.1 81.3 8.8 C 81.3 8.5 81.2 8.2 81.2 7.8 C 81.4 7.7 81.4 7.9 81.5 8.0 C 81.5 7.7 81.6 7.8 81.6 7.6 C 81.5 7.7 81.5 7.5 81.6 7.4 C 81.6 7.8 81.8 6.9 81.9 7.3 C 81.8 7.3 81.8 7.4 81.9 7.5 C 81.6 7.4 81.7 7.9 81.6 8.0 C 82.0 8.2 81.8 8.8 81.7 9.4 C 81.6 9.4 81.5 9.2 81.5 9.4 C 81.6 9.4 81.5 9.6 81.6 9.7 C 81.5 9.7 81.4 9.8 81.4 9.9 C 81.4 9.9 81.5 9.9 81.5 10.0 C 81.5 10.0 81.5 10.0 81.5 10.0 Z M 32.4 72.5 C 32.4 72.8 33.0 72.5 33.2 72.4 C 33.2 72.7 32.1 72.9 32.4 72.5 C 32.4 72.5 32.4 72.5 32.4 72.5 Z M 28.6 73.5 C 28.8 73.5 28.6 73.3 28.8 73.3 C 28.8 73.5 29.1 73.0 29.2 73.2 C 29.0 73.4 28.9 73.4 28.6 73.5 C 28.6 73.5 28.6 73.5 28.6 73.5 Z M 25.0 73.9 C 25.3 73.9 24.8 73.8 24.9 73.7 C 25.1 73.7 25.4 73.7 25.4 73.9 C 25.2 73.8 25.0 74.1 25.0 73.9 C 25.0 73.9 25.0 73.9 25.0 73.9 Z M 30.4 73.4 C 30.7 73.4 30.3 73.7 30.2 73.6 C 30.5 73.5 30.0 73.4 29.8 73.5 C 29.8 73.3 29.9 73.3 29.8 73.2 C 30.1 73.0 29.9 73.4 30.1 73.3 C 30.2 73.1 30.1 73.2 30.1 73.0 C 30.1 73.0 30.2 73.0 30.3 73.0 C 30.4 73.1 30.4 73.2 30.4 73.3 C 30.3 73.3 30.2 73.4 30.2 73.4 C 30.3 73.4 30.3 73.4 30.4 73.4 C 30.4 73.4 30.4 73.4 30.4 73.4 Z M 81.8 4.6 C 81.8 4.4 81.7 4.6 81.7 4.7 C 81.8 4.7 82.1 4.8 81.9 5.0 C 81.8 4.6 81.7 5.1 81.6 4.9 C 81.8 4.8 81.5 4.6 81.6 4.4 C 81.7 4.3 82.0 4.5 81.8 4.6 C 81.8 4.6 81.8 4.6 81.8 4.6 Z M 81.7 5.3 C 81.8 5.3 81.8 5.2 81.8 5.1 C 81.9 5.2 82.0 5.0 82.0 5.2 C 81.9 5.2 81.9 5.7 81.8 5.4 C 81.9 5.1 81.7 5.5 81.7 5.6 C 81.7 5.5 81.5 5.2 81.7 5.2 C 81.7 5.3 81.7 5.3 81.7 5.3 C 81.7 5.3 81.7 5.3 81.7 5.3 Z M 81.8 12.1 C 82.0 12.2 82.0 12.0 82.0 11.9 C 82.0 12.4 81.9 12.9 81.9 13.2 C 81.9 12.9 81.7 12.9 81.7 13.0 C 81.7 12.8 81.6 12.7 81.7 12.6 C 81.9 12.9 81.8 12.4 81.8 12.1 C 81.8 12.1 81.8 12.1 81.8 12.1 Z M 81.8 12.1 " fill="#E2E2E2"></path><path d="M 15.3 86.1 C 15.4 86.0 15.5 85.8 15.6 86.0 C 15.6 85.9 15.6 85.8 15.5 85.8 C 15.6 85.7 15.6 85.8 15.6 85.9 C 15.7 85.8 15.7 85.7 15.8 85.7 C 15.7 85.6 15.5 85.8 15.4 85.7 C 15.4 85.8 15.4 86.1 15.3 85.9 C 15.1 86.0 15.3 86.0 15.3 86.1 Z M 17.4 86.5 C 17.4 86.8 17.7 86.9 17.5 86.9 C 17.4 87.1 17.0 87.0 17.2 86.9 C 17.4 86.8 17.3 86.4 17.4 86.5 Z M 14.7 85.4 C 14.8 85.4 14.9 85.3 14.9 85.3 C 15.0 85.4 14.9 85.6 14.8 85.5 C 14.8 85.5 14.8 85.5 14.7 85.4 Z M 14.8 80.9 C 14.8 80.8 14.7 80.8 14.7 80.8 C 14.6 81.0 14.6 81.1 14.8 81.1 C 14.7 81.1 14.6 81.0 14.8 80.9 Z M 11.3 76.2 C 11.2 76.2 11.2 76.1 11.2 76.1 C 11.2 76.1 11.2 76.1 11.2 76.1 C 11.0 76.0 10.6 76.1 10.7 76.4 C 10.7 76.3 10.7 76.3 10.8 76.3 C 10.8 76.3 10.8 76.4 10.9 76.4 C 10.9 76.3 10.8 76.2 10.9 76.2 C 10.9 76.2 11.0 76.2 11.1 76.1 C 11.2 76.4 10.8 76.4 10.9 76.7 C 11.3 76.6 11.1 76.2 11.3 76.2 Z M 13.6 78.7 C 13.6 78.7 13.6 78.7 13.6 78.7 C 13.6 78.7 13.6 78.7 13.6 78.6 C 13.6 78.7 13.6 78.7 13.6 78.7 Z M 14.4 82.6 C 14.4 82.6 14.4 82.7 14.4 82.7 C 14.5 82.7 14.5 82.7 14.6 82.7 C 14.5 82.6 14.5 82.5 14.4 82.6 Z M 16.6 85.0 C 16.4 84.7 16.5 84.7 16.4 84.5 C 16.4 84.5 16.4 84.5 16.3 84.6 C 16.3 84.4 16.3 84.5 16.2 84.3 C 16.4 84.3 16.3 84.2 16.1 84.1 C 16.2 83.8 16.1 83.7 16.0 83.5 C 15.9 83.7 15.9 83.6 15.8 83.8 C 15.9 83.7 15.7 83.5 15.9 83.5 C 16.0 83.6 15.8 83.3 15.7 83.5 C 15.7 83.4 15.5 83.4 15.5 83.2 C 15.6 83.3 15.9 83.1 15.8 82.9 C 15.7 83.1 15.6 82.9 15.4 83.1 C 15.3 83.0 15.6 82.9 15.5 82.8 C 15.4 82.9 15.4 82.8 15.4 82.7 C 15.3 82.7 15.3 82.7 15.2 82.6 C 15.3 82.6 15.3 82.6 15.3 82.5 C 15.3 82.4 15.3 82.3 15.5 82.2 C 15.5 82.2 15.4 82.2 15.4 82.1 C 15.3 82.0 15.4 82.3 15.3 82.4 C 15.3 82.2 15.3 82.0 15.4 81.9 C 15.0 81.9 15.3 81.7 15.2 81.5 C 15.2 81.5 15.2 81.6 15.2 81.7 C 15.1 81.8 15.0 81.6 14.9 81.8 C 14.8 81.6 14.7 81.4 14.8 81.2 C 14.7 81.3 14.6 81.4 14.5 81.5 C 14.5 81.5 14.5 81.5 14.4 81.4 C 14.4 81.4 14.4 81.4 14.5 81.4 C 14.5 81.4 14.6 81.3 14.6 81.3 C 14.5 81.2 14.4 81.3 14.3 81.2 C 14.6 81.1 14.6 81.0 14.5 80.8 C 14.5 80.8 14.5 80.8 14.5 80.8 C 14.5 80.8 14.5 80.9 14.4 80.9 C 14.4 80.9 14.4 80.9 14.4 80.8 C 14.3 80.8 14.3 80.8 14.3 80.8 C 14.4 80.8 14.4 80.8 14.4 80.8 C 14.3 80.8 14.3 80.7 14.3 80.7 C 14.3 80.6 14.4 80.7 14.5 80.5 C 14.5 80.5 14.5 80.5 14.5 80.5 C 14.5 80.5 14.4 80.5 14.4 80.5 C 14.4 80.5 14.4 80.5 14.3 80.5 C 14.4 80.5 14.4 80.5 14.4 80.5 C 14.4 80.5 14.4 80.4 14.4 80.4 C 14.4 80.4 14.4 80.4 14.4 80.4 C 14.4 80.4 14.4 80.4 14.4 80.4 C 14.4 80.4 14.4 80.4 14.4 80.4 C 14.3 80.4 14.1 80.4 14.0 80.4 C 14.0 80.3 14.1 80.3 14.2 80.3 C 14.0 80.1 13.9 80.2 13.7 80.1 C 13.7 80.0 13.9 80.1 13.9 80.1 C 13.7 80.0 14.0 79.8 13.9 79.5 C 13.9 79.6 13.9 79.6 13.8 79.6 C 13.8 79.6 13.8 79.6 13.8 79.6 C 13.8 79.6 13.8 79.6 13.8 79.6 C 13.8 79.6 13.8 79.5 13.8 79.5 C 13.8 79.5 13.8 79.5 13.8 79.5 C 13.8 79.5 13.8 79.5 13.8 79.5 C 13.8 79.5 13.8 79.4 13.8 79.4 C 13.8 79.4 13.7 79.3 13.6 79.3 C 13.7 79.2 13.8 79.1 13.7 78.9 C 13.5 79.0 13.8 79.2 13.4 79.2 C 13.5 79.3 13.5 79.3 13.6 79.4 C 13.5 79.4 13.5 79.3 13.4 79.4 C 13.3 79.2 13.6 79.1 13.5 78.9 C 13.4 79.0 13.4 79.0 13.3 79.1 C 13.2 79.0 13.3 79.0 13.3 78.9 C 13.4 79.0 13.4 78.9 13.4 78.8 C 13.4 78.8 13.4 78.8 13.4 78.8 C 13.2 78.7 13.6 78.7 13.5 78.6 C 13.4 78.6 13.3 78.7 13.3 78.6 C 13.4 78.6 13.3 78.5 13.2 78.5 C 13.2 78.5 13.3 78.5 13.3 78.4 C 13.3 78.4 13.2 78.4 13.2 78.4 C 13.2 78.3 13.3 78.3 13.3 78.3 C 13.3 78.2 13.2 78.1 13.2 78.0 C 13.0 78.1 13.1 78.2 12.9 78.2 C 12.9 78.1 12.9 78.0 13.1 77.9 C 12.9 77.9 12.9 77.7 13.1 77.6 C 13.2 77.6 12.9 77.3 12.7 77.5 C 12.7 77.1 12.6 77.2 12.4 76.8 C 12.5 76.6 12.5 77.0 12.6 76.9 C 12.8 76.9 12.3 76.7 12.4 76.5 C 12.2 76.5 12.0 76.4 12.0 76.2 C 12.1 76.1 12.1 76.2 12.0 76.3 C 12.3 76.2 11.9 75.9 11.8 75.7 C 11.6 75.7 11.6 76.1 11.5 75.9 C 11.3 75.9 11.5 76.1 11.4 76.2 C 11.5 76.3 11.5 75.9 11.6 76.0 C 11.6 76.1 11.6 76.2 11.5 76.3 C 11.6 76.2 11.7 76.2 11.7 76.2 C 11.6 76.3 11.6 76.4 11.6 76.4 C 11.6 76.4 11.6 76.4 11.5 76.4 C 11.6 76.4 11.6 76.5 11.7 76.5 C 11.5 76.6 11.5 76.5 11.4 76.4 C 11.3 76.5 11.3 76.5 11.3 76.5 C 11.3 76.5 11.3 76.4 11.3 76.4 C 11.3 76.4 11.3 76.4 11.3 76.4 C 11.2 76.5 11.2 76.6 11.2 76.6 C 11.3 76.6 11.3 76.7 11.4 76.7 C 11.2 76.8 11.2 76.5 11.1 76.7 C 11.3 76.7 11.1 77.0 11.3 77.0 C 11.2 76.9 11.5 76.7 11.4 76.9 C 11.3 76.9 11.4 77.1 11.3 77.1 C 11.2 77.0 11.1 77.1 11.1 76.9 C 10.9 77.1 11.1 76.7 10.8 77.0 C 10.8 76.7 10.5 76.9 10.6 76.8 C 10.7 76.7 10.8 76.9 10.8 76.7 C 10.7 76.6 10.6 76.8 10.6 76.7 C 10.5 76.5 10.6 76.2 10.4 76.1 L 11.0 75.8 C 10.9 75.6 10.9 75.5 11.2 75.4 C 11.2 75.2 11.1 75.3 11.0 75.3 C 11.0 75.0 11.2 75.3 11.3 75.2 C 11.1 75.0 11.0 74.7 10.9 74.5 C 10.9 74.4 11.0 74.2 10.8 74.2 C 10.7 74.2 11.0 74.3 10.8 74.4 C 10.6 74.3 10.5 74.2 10.3 74.4 C 10.1 74.1 10.6 74.1 10.7 73.9 C 10.6 73.9 10.6 73.8 10.6 73.8 C 10.5 73.8 10.5 73.9 10.5 73.9 C 10.4 74.0 10.3 73.9 10.2 74.0 C 10.5 73.8 10.1 73.7 10.4 73.5 C 9.0 72.3 8.8 74.3 8.7 74.5 L 7.6 73.7 C 7.5 74.1 8.5 75.5 8.6 75.8 C 8.6 75.8 8.5 76.0 8.5 75.9 C 8.5 76.0 8.7 76.0 8.8 76.1 C 8.7 76.3 8.7 76.1 8.7 76.3 C 8.8 76.4 8.8 76.2 8.9 76.2 C 8.9 76.3 8.7 76.4 8.9 76.5 C 9.0 76.5 8.9 76.4 8.9 76.3 C 9.1 76.2 8.9 76.6 9.1 76.5 C 9.1 76.5 9.0 76.6 8.9 76.6 C 8.8 76.7 9.2 76.7 8.9 76.8 C 9.0 76.8 9.1 76.9 9.0 76.9 C 9.0 77.0 9.1 76.9 9.2 76.9 C 9.2 76.9 9.0 77.1 9.2 77.0 C 9.2 77.2 9.4 77.7 9.6 77.6 C 9.8 77.9 9.5 77.9 9.6 77.9 C 9.8 78.0 9.7 78.2 9.8 78.4 C 10.0 78.2 9.9 78.5 10.0 78.6 C 10.0 78.5 10.1 78.5 10.1 78.4 C 10.0 78.7 10.3 78.9 10.4 79.0 C 10.6 79.1 10.4 79.2 10.6 79.2 C 10.5 79.2 10.4 79.2 10.4 79.1 C 10.3 79.3 10.4 79.3 10.2 79.4 C 10.3 79.6 10.6 79.1 10.7 79.3 C 10.7 79.4 10.4 79.3 10.6 79.5 C 10.7 79.3 10.6 79.7 10.7 79.9 C 11.0 79.8 10.8 80.4 11.1 80.2 C 11.2 80.5 10.9 80.5 11.1 80.6 C 11.4 80.7 11.4 81.1 11.7 81.4 C 11.6 81.4 11.4 81.4 11.5 81.5 C 11.8 81.6 11.7 81.6 11.7 81.8 C 11.8 81.8 11.9 81.9 12.0 81.8 C 12.0 82.2 12.7 82.7 12.6 83.2 C 12.7 83.2 12.8 83.2 12.8 83.1 C 12.7 83.3 13.0 83.5 12.9 83.6 C 13.1 83.5 12.9 83.7 13.1 83.6 C 13.1 83.7 13.1 83.7 13.1 83.8 C 13.0 83.9 12.7 83.6 12.8 83.7 C 13.5 84.0 13.2 84.6 13.6 84.7 C 13.6 84.8 13.5 84.9 13.5 85.0 C 13.5 85.0 13.4 85.1 13.3 85.0 C 13.2 85.2 13.7 85.0 13.6 85.2 C 13.7 85.3 13.7 85.0 13.6 84.9 C 13.7 84.9 13.7 85.0 13.8 84.8 C 13.8 85.0 13.7 85.2 13.9 85.4 C 13.8 85.4 13.8 85.4 13.7 85.4 C 13.6 85.6 13.9 85.4 13.9 85.5 C 14.0 85.4 14.1 85.4 14.1 85.3 C 14.1 85.3 14.1 85.3 14.2 85.4 C 14.0 85.5 14.2 85.4 14.2 85.6 C 14.3 85.6 14.7 85.4 14.6 85.3 C 14.4 85.2 14.5 85.5 14.3 85.4 C 14.2 85.2 14.7 84.6 14.2 84.8 C 14.1 84.8 14.3 84.7 14.4 84.8 C 14.2 85.0 14.2 84.8 14.1 84.9 C 14.1 84.8 14.1 84.7 14.0 84.6 C 14.3 84.4 14.3 84.6 14.3 84.6 C 14.4 84.4 14.1 84.3 14.1 84.1 C 14.1 84.0 14.0 84.3 14.0 84.5 C 13.8 84.3 13.8 84.0 13.9 83.6 C 13.8 83.5 13.8 83.7 13.7 83.7 C 13.7 83.6 13.7 83.6 13.8 83.5 C 13.7 83.5 13.6 83.5 13.5 83.4 C 13.5 83.3 13.5 83.1 13.6 83.0 C 13.5 82.9 13.6 83.1 13.4 83.1 C 13.5 82.8 13.2 83.0 13.3 82.7 C 13.5 82.6 13.5 82.8 13.6 82.9 C 13.6 82.8 13.7 82.8 13.7 82.7 C 13.4 82.7 13.4 82.7 13.3 82.4 C 13.2 82.5 13.2 82.5 13.3 82.6 C 13.1 82.7 13.3 82.3 13.0 82.6 C 13.0 82.4 13.1 82.3 12.9 82.4 C 13.1 82.1 13.0 82.1 12.9 81.8 C 13.0 81.7 13.2 81.7 13.2 81.9 C 13.2 81.7 13.2 81.7 13.4 81.8 C 13.5 81.8 13.4 81.9 13.3 81.9 C 13.3 82.0 13.6 81.9 13.6 82.1 C 13.6 82.2 13.5 82.1 13.5 82.2 C 13.6 82.2 13.7 82.2 13.6 82.4 C 13.6 82.4 13.8 82.3 13.9 82.4 C 13.9 82.5 13.8 82.5 13.9 82.6 C 13.7 82.7 13.7 82.4 13.6 82.5 C 13.7 82.7 13.9 82.6 13.9 82.8 C 14.0 82.8 14.1 82.8 14.2 82.8 C 14.2 82.7 14.2 82.7 14.1 82.6 C 14.3 82.5 14.0 82.5 14.0 82.3 C 13.8 82.4 13.6 82.1 13.7 82.0 C 13.6 82.1 13.4 81.9 13.5 81.8 C 13.5 81.8 13.7 81.7 13.7 81.6 C 13.6 81.7 13.5 81.6 13.4 81.7 C 13.5 81.4 13.0 81.5 13.0 81.3 C 13.2 81.4 13.4 81.4 13.5 81.5 C 13.7 81.4 13.7 81.2 13.8 81.1 C 13.6 81.3 13.8 80.9 13.6 81.0 C 13.6 81.1 13.7 81.2 13.6 81.3 C 13.5 81.1 13.3 81.4 13.2 81.2 C 13.4 81.1 13.5 80.9 13.5 80.9 C 13.4 80.8 13.5 80.9 13.3 81.0 C 13.3 80.8 13.4 80.6 13.5 80.8 C 13.4 80.7 13.5 80.7 13.4 80.6 C 13.3 80.8 13.3 80.4 13.2 80.5 C 13.0 80.6 13.2 80.7 13.1 80.8 C 13.2 80.7 13.3 80.7 13.3 80.8 C 13.0 80.9 13.4 81.0 13.2 81.1 C 13.2 80.9 12.8 81.0 13.0 80.9 C 13.0 81.0 13.1 80.8 13.0 80.8 C 13.0 80.7 12.9 80.6 12.7 80.6 C 12.8 80.7 12.8 80.8 12.7 80.8 C 12.5 80.5 12.9 80.4 12.9 80.5 C 12.9 80.5 13.0 80.5 13.0 80.5 C 13.0 80.1 12.8 80.3 12.7 80.3 C 12.8 80.1 12.8 80.0 12.8 79.6 C 12.7 79.7 12.8 79.8 12.7 79.9 C 12.5 79.7 12.8 79.6 12.6 79.4 C 12.6 79.5 12.5 79.6 12.5 79.7 C 12.4 79.4 12.3 79.7 12.1 79.5 C 12.5 79.4 12.0 79.3 12.4 79.2 C 12.1 79.0 12.1 78.7 12.4 78.5 C 12.3 78.6 12.3 78.7 12.4 78.7 C 12.3 78.6 12.5 78.4 12.5 78.5 C 12.4 78.6 12.5 79.0 12.6 78.7 C 12.7 79.0 12.4 79.2 12.4 79.5 C 12.4 79.4 12.5 79.5 12.5 79.4 C 12.4 79.3 12.6 78.9 12.7 79.0 C 12.7 79.2 12.9 79.3 13.0 79.4 C 12.9 79.6 13.0 79.5 13.1 79.6 C 13.1 79.7 12.9 79.8 12.9 79.9 C 13.0 79.9 13.1 79.8 13.1 79.8 C 13.2 80.0 13.3 79.9 13.4 80.1 C 13.2 80.1 13.1 80.0 13.0 80.1 C 13.1 80.4 13.1 79.9 13.5 80.3 C 13.4 80.4 13.3 80.4 13.3 80.5 C 13.7 80.6 13.7 81.2 14.2 81.5 C 14.1 81.6 13.9 81.5 13.9 81.6 C 14.1 81.6 14.2 81.8 14.4 82.0 C 14.1 82.2 14.5 82.3 14.6 82.4 C 14.5 82.4 14.4 82.4 14.4 82.4 C 14.5 82.5 14.6 82.6 14.8 82.6 C 14.7 82.7 14.7 82.7 14.6 82.7 C 14.6 82.8 14.6 82.7 14.6 82.7 C 14.6 82.7 14.6 82.7 14.5 82.7 C 14.5 82.7 14.5 82.8 14.4 82.8 C 14.4 82.8 14.4 82.9 14.3 82.9 C 14.3 82.9 14.3 82.9 14.3 82.8 C 14.1 82.9 14.0 82.9 13.9 83.1 C 14.1 83.1 14.0 83.3 14.2 83.4 C 14.1 83.4 14.0 83.4 14.0 83.2 C 13.9 83.3 13.7 83.3 13.8 83.5 C 13.9 83.4 13.9 83.4 13.9 83.4 C 14.0 83.3 14.0 83.4 14.1 83.4 C 14.1 83.5 14.0 83.5 14.0 83.6 C 14.0 83.8 14.3 83.1 14.4 83.8 C 14.5 83.7 14.4 83.6 14.6 83.6 C 14.6 83.8 14.5 84.0 14.7 84.3 C 15.0 84.3 15.1 84.2 15.2 84.0 C 15.1 84.0 15.0 84.1 14.8 84.0 C 15.0 83.8 15.0 83.7 14.9 83.5 C 14.8 83.5 14.7 83.6 14.7 83.5 C 14.9 83.2 14.6 83.1 14.7 82.8 C 14.7 82.9 14.8 82.9 14.9 82.9 C 14.9 83.1 14.8 83.0 14.8 83.1 C 15.0 83.1 15.0 83.2 15.0 83.2 C 15.0 83.2 15.0 83.3 15.1 83.2 C 15.1 83.3 15.0 83.3 15.0 83.3 C 15.1 83.3 15.1 83.3 15.1 83.3 C 15.0 83.4 15.0 83.4 15.1 83.4 C 15.1 83.5 15.0 83.5 15.0 83.5 C 15.1 83.6 15.5 83.6 15.4 83.9 C 15.3 84.0 15.5 83.9 15.5 83.8 C 15.6 83.7 15.4 84.1 15.7 83.9 C 15.7 84.1 15.5 84.0 15.4 84.1 C 15.5 84.2 15.5 84.0 15.6 84.1 C 15.7 84.2 15.5 84.3 15.5 84.4 C 15.6 84.4 15.6 84.2 15.8 84.3 C 15.7 84.4 15.7 84.6 15.9 84.7 C 15.9 84.6 15.9 84.5 16.1 84.4 C 16.3 84.6 15.9 84.6 16.1 84.8 C 16.2 84.7 16.1 84.7 16.2 84.6 C 16.3 84.6 16.2 84.8 16.3 84.8 C 16.1 84.9 16.1 84.9 16.0 85.0 C 16.0 85.0 16.0 84.9 16.0 84.9 C 15.8 84.9 16.1 85.2 16.2 84.9 C 16.2 85.0 16.2 85.1 16.1 85.1 C 16.2 85.2 16.2 85.0 16.3 85.0 C 16.3 85.1 16.3 85.2 16.4 85.4 C 16.4 85.2 16.3 85.1 16.6 85.0 Z M 12.1 80.0 C 12.2 79.9 12.3 79.8 12.4 79.7 C 12.6 79.9 12.5 80.0 12.5 80.2 C 12.4 80.0 12.2 80.2 12.1 80.0 Z M 11.2 78.2 C 11.3 78.1 11.3 77.7 11.5 77.8 C 11.4 78.1 11.4 78.1 11.2 78.2 Z M 11.8 77.4 C 11.8 77.4 12.0 77.2 12.1 77.4 C 11.8 77.4 11.9 77.6 11.9 77.8 C 11.8 77.9 11.7 77.9 11.7 77.8 C 11.7 77.8 11.9 77.7 11.8 77.7 C 11.7 77.7 11.6 77.6 11.5 77.7 C 11.5 77.4 11.5 77.6 11.3 77.5 C 11.4 77.2 11.6 76.9 12.0 77.0 C 11.8 77.2 12.0 77.2 12.1 77.2 C 11.9 77.3 11.8 77.2 11.8 77.4 Z M 11.8 78.3 C 11.9 78.4 11.9 78.5 11.9 78.5 C 11.9 78.5 11.8 78.5 11.7 78.5 C 11.8 78.5 11.7 78.7 11.6 78.5 C 11.8 78.4 11.9 78.2 11.7 78.1 C 11.9 78.1 11.8 77.8 12.2 77.7 C 12.3 77.9 12.1 78.3 11.8 78.3 Z M 14.9 84.7 C 14.9 84.6 14.9 84.5 14.8 84.5 C 14.8 84.5 14.7 84.4 14.8 84.3 C 14.8 84.4 14.9 84.3 14.8 84.2 C 15.1 84.1 14.8 84.5 15.0 84.5 C 15.1 84.4 15.1 84.3 15.2 84.2 C 15.2 84.3 15.3 84.3 15.2 84.4 C 15.1 84.3 15.4 84.5 15.2 84.5 C 15.2 84.5 15.2 84.5 15.1 84.5 C 15.2 84.6 15.0 84.7 15.1 84.8 C 15.0 84.7 15.0 84.6 14.9 84.7 C 14.9 84.7 14.9 84.7 14.9 84.7 Z M 16.5 85.6 C 16.6 85.5 16.6 85.3 16.6 85.2 C 16.4 85.2 16.3 85.6 16.3 85.5 C 16.2 85.4 16.5 85.3 16.4 85.2 C 16.3 85.4 16.0 85.0 16.2 84.8 C 16.2 84.9 16.3 84.9 16.4 84.8 C 16.5 85.0 16.6 85.0 16.8 85.1 C 16.7 85.4 16.8 85.7 17.1 85.7 C 16.9 86.0 17.3 86.0 17.1 86.3 C 17.3 86.3 17.2 86.1 17.3 86.2 C 17.2 86.4 17.1 86.3 17.1 86.5 C 17.2 86.5 17.3 86.4 17.3 86.4 C 17.2 86.5 17.3 86.5 17.2 86.6 C 17.1 86.3 17.1 86.7 16.9 86.6 C 16.9 86.4 17.2 86.5 17.1 86.3 C 17.0 86.2 16.9 86.2 16.8 86.3 C 16.7 86.2 16.7 86.2 16.6 86.2 C 16.9 86.2 16.4 86.0 16.7 86.0 C 16.7 86.0 16.8 86.1 16.9 86.2 C 17.0 86.0 16.9 86.0 16.7 85.9 C 16.8 85.8 16.9 85.8 16.9 85.7 C 16.7 85.7 16.7 85.9 16.6 85.9 C 16.6 85.9 16.6 86.0 16.6 86.0 C 16.6 85.7 16.4 85.7 16.4 85.6 C 16.5 85.7 16.4 85.5 16.5 85.6 Z M 15.7 86.5 C 15.6 86.6 15.5 86.6 15.5 86.6 C 15.5 86.5 15.5 86.5 15.5 86.4 C 15.4 86.4 15.4 86.5 15.4 86.4 C 15.5 86.3 15.6 86.5 15.7 86.5 Z M 17.6 87.0 C 17.6 87.0 17.6 87.1 17.7 87.1 C 17.5 87.2 17.4 87.1 17.4 87.2 C 17.3 87.0 17.6 87.1 17.6 87.0 Z M 15.2 84.7 C 15.3 84.6 15.0 84.8 15.0 84.7 C 15.1 84.8 15.2 84.9 15.0 85.0 C 15.0 84.9 14.9 84.8 14.8 84.7 C 15.1 84.7 14.9 84.5 15.1 84.4 C 15.1 84.4 15.3 84.5 15.3 84.6 C 15.2 84.6 15.3 84.8 15.2 84.7 Z M 15.4 85.1 C 15.3 85.1 15.5 85.3 15.3 85.3 C 15.3 85.2 15.2 85.2 15.1 85.3 C 15.0 85.2 15.1 85.2 15.0 85.1 C 15.2 85.0 15.3 85.1 15.4 85.1 C 15.3 85.1 15.4 85.0 15.4 85.1 Z M 18.4 65.4 C 18.5 65.6 18.5 65.3 18.5 65.3 C 18.6 65.3 18.8 65.1 18.9 65.2 C 18.8 65.3 18.8 65.4 18.7 65.4 C 18.7 65.4 18.7 65.3 18.6 65.3 C 18.7 65.4 18.7 65.5 18.7 65.5 C 18.6 65.4 18.5 65.6 18.4 65.7 C 18.4 65.5 18.2 65.6 18.4 65.4 Z M 18.2 65.2 C 18.1 65.3 18.3 65.4 18.1 65.5 C 18.1 65.4 18.0 65.4 17.9 65.4 C 17.8 65.4 17.9 65.3 17.8 65.3 C 18.0 65.1 18.0 65.3 18.1 65.2 C 18.1 65.2 18.2 65.2 18.2 65.2 Z M 8.7 77.0 C 8.7 77.1 8.8 77.0 8.8 77.1 C 8.8 77.1 8.9 77.0 8.9 76.9 C 8.9 76.9 8.9 76.8 8.8 76.8 C 8.8 77.0 8.7 76.9 8.7 77.0 Z M 20.3 64.6 C 20.4 64.5 20.4 64.5 20.4 64.4 C 20.3 64.4 20.3 64.4 20.2 64.4 C 20.2 64.4 20.2 64.5 20.2 64.5 L 20.3 64.6 Z M 16.4 65.8 C 16.3 65.8 16.3 65.7 16.2 65.7 C 16.2 65.8 16.2 65.8 16.2 65.8 C 16.2 65.8 16.2 65.8 16.3 65.8 C 16.3 65.9 16.2 65.9 16.2 65.9 C 16.3 66.0 16.4 65.9 16.4 65.8 Z M 9.6 71.8 C 9.7 71.8 9.7 71.7 9.7 71.6 C 9.6 71.7 9.5 71.6 9.5 71.5 C 9.4 71.4 9.4 71.5 9.4 71.5 C 9.5 71.5 9.5 71.7 9.6 71.8 Z M 23.1 65.8 C 23.0 64.8 22.6 63.9 21.8 63.3 C 21.7 63.5 22.0 63.5 22.0 63.6 C 21.2 63.8 19.0 64.1 20.6 64.9 C 20.4 64.8 20.2 64.9 20.0 65.0 C 19.9 64.9 19.9 64.8 19.9 64.8 C 19.9 64.8 19.8 64.8 19.7 64.8 C 19.7 64.9 19.7 65.1 19.6 65.1 C 19.6 65.0 19.5 64.9 19.5 64.8 C 19.2 64.8 19.4 65.2 19.4 65.3 C 19.3 65.5 19.2 65.6 19.1 65.8 C 18.9 65.7 18.9 66.0 18.8 65.9 C 18.7 66.0 18.8 66.1 18.7 66.3 C 18.6 66.2 18.7 66.0 18.6 66.0 C 18.5 66.2 18.2 66.5 18.4 66.7 C 18.5 66.6 18.5 66.4 18.5 66.3 C 18.6 66.4 18.6 66.5 18.6 66.7 C 18.1 66.8 17.7 67.0 17.3 67.1 C 17.3 66.8 17.6 66.8 17.8 66.6 C 17.9 66.6 17.9 66.7 18.0 66.6 C 18.0 66.4 17.9 66.3 17.9 66.2 C 18.0 66.1 17.9 66.1 18.1 66.0 C 18.0 66.0 17.9 66.0 17.7 65.9 C 17.8 65.8 17.8 66.0 18.0 66.0 C 17.9 65.9 17.9 65.9 17.8 65.9 C 18.0 65.9 17.8 65.7 18.0 65.8 C 17.9 65.6 17.8 65.6 17.8 65.5 C 17.7 65.5 17.9 65.4 17.7 65.4 C 17.6 65.5 17.7 65.5 17.7 65.5 C 17.6 65.6 17.6 65.4 17.6 65.4 C 17.6 65.4 17.5 65.4 17.5 65.4 C 17.4 65.5 17.5 65.5 17.5 65.6 C 17.4 65.6 17.5 65.5 17.4 65.4 C 17.5 65.4 17.6 65.4 17.6 65.4 C 17.5 65.2 17.4 65.5 17.2 65.4 C 17.2 65.5 17.3 65.5 17.3 65.4 C 17.5 65.5 17.3 65.6 17.3 65.7 C 17.2 65.6 17.3 65.6 17.3 65.5 C 17.2 65.5 17.1 65.6 17.0 65.6 C 17.0 65.7 17.0 65.7 17.1 65.7 C 17.0 65.8 16.9 65.7 16.9 65.8 C 16.9 65.7 16.8 65.7 16.7 65.6 C 16.8 65.7 16.7 65.7 16.6 65.7 C 16.6 65.8 16.6 65.8 16.7 65.7 C 16.7 65.8 16.5 65.8 16.5 65.8 C 16.4 66.0 16.5 65.8 16.5 65.9 C 16.3 66.0 16.0 66.0 15.8 65.9 C 15.8 66.0 15.8 66.1 15.6 66.0 C 15.7 66.2 15.6 66.2 15.6 66.2 C 15.4 66.1 15.7 66.2 15.4 66.2 C 15.4 66.2 15.4 66.3 15.5 66.3 C 15.4 66.4 15.4 66.2 15.3 66.2 C 15.3 66.3 15.3 66.4 15.2 66.3 C 15.2 66.4 15.2 66.4 15.1 66.5 C 15.1 66.5 15.0 66.5 15.0 66.4 C 15.0 66.5 14.9 66.5 14.8 66.6 C 15.0 66.5 14.8 66.7 14.8 66.7 C 14.7 66.7 14.9 66.6 14.7 66.6 C 13.9 66.7 13.3 67.0 12.5 67.5 C 12.0 67.4 11.7 67.7 11.3 67.9 C 11.3 67.9 11.3 67.9 11.3 68.0 L 11.2 68.0 C 11.2 67.9 11.2 68.0 11.3 68.0 C 11.2 67.9 11.0 68.2 10.8 68.3 C 10.6 68.4 10.4 68.3 10.2 68.4 C 10.1 68.5 9.9 68.6 9.7 68.6 C 9.6 68.6 9.6 68.4 9.5 68.6 C 9.4 68.6 9.5 68.5 9.5 68.5 C 9.6 68.4 9.5 68.5 9.5 68.5 C 9.4 68.5 9.5 68.5 9.5 68.4 C 8.8 68.6 8.1 69.1 7.5 69.2 C 7.3 69.5 7.1 69.5 7.0 69.2 C 6.8 69.3 6.5 69.3 6.3 69.6 C 6.3 69.5 6.2 69.5 6.1 69.5 C 6.1 69.5 6.2 69.3 6.1 69.3 C 6.0 69.3 5.9 69.4 5.9 69.2 C 5.9 69.1 6.0 69.2 6.0 69.2 C 6.1 69.0 6.0 68.9 5.9 68.8 C 5.4 69.1 4.9 69.8 5.0 70.5 C 5.0 70.4 5.0 70.4 5.0 70.3 C 5.7 70.4 5.6 71.2 6.2 71.4 C 6.0 71.9 6.1 72.4 6.1 72.7 L 6.4 72.8 C 6.5 72.7 6.5 72.6 6.5 72.5 C 6.7 72.7 6.8 73.0 6.9 73.3 C 6.9 73.4 6.8 73.4 6.7 73.4 C 6.7 74.0 7.3 73.6 7.6 73.7 C 7.8 73.8 7.6 74.1 7.7 74.3 C 7.8 74.5 8.0 74.5 8.1 74.7 C 8.0 74.8 7.9 74.8 7.8 74.8 L 7.7 75.1 C 8.0 75.2 8.2 75.1 8.1 74.9 C 8.3 74.9 8.2 75.0 8.3 75.0 C 8.2 75.4 7.9 75.7 8.1 76.0 C 8.2 76.1 8.2 76.0 8.3 76.0 C 8.3 75.8 8.3 75.5 8.4 75.5 C 8.7 75.6 8.4 75.8 8.4 76.1 C 8.6 76.3 8.6 76.7 9.1 76.8 C 9.1 76.7 9.2 76.7 9.3 76.6 C 9.3 76.7 9.5 76.8 9.6 76.8 C 9.6 76.9 9.5 77.0 9.5 77.1 C 9.4 77.1 9.4 77.0 9.4 77.1 C 9.6 77.2 9.6 76.9 9.9 77.1 C 9.8 77.3 9.5 77.5 9.6 77.8 C 9.9 77.7 10.3 77.7 10.6 77.9 C 10.7 77.7 10.9 77.8 11.1 77.7 C 11.2 77.7 11.1 77.9 11.2 77.9 C 10.9 78.0 10.5 78.0 10.4 78.4 C 10.6 78.5 10.6 78.6 10.7 78.7 L 11.3 78.7 L 12.0 79.0 L 11.1 77.3 L 10.5 75.8 L 11.3 76.7 L 12.9 77.7 L 12.9 77.6 C 12.7 77.4 12.6 77.3 12.7 77.1 C 12.6 77.0 12.6 77.0 12.5 77.0 C 12.6 76.9 12.3 76.9 12.4 76.8 C 12.3 76.7 12.3 76.8 12.2 76.8 C 12.2 76.7 12.3 76.7 12.3 76.6 C 12.2 76.6 12.1 76.5 12.0 76.6 C 12.1 76.4 12.0 76.4 12.0 76.3 C 11.9 76.2 11.8 76.4 11.9 76.5 C 11.7 76.4 11.8 76.2 11.7 76.2 C 11.7 76.1 11.9 76.3 11.9 76.2 C 11.9 76.2 11.9 76.0 11.8 76.0 C 11.8 76.1 11.8 76.1 11.8 76.1 C 11.7 76.0 11.7 76.0 11.5 76.0 C 11.5 75.9 11.6 76.0 11.6 75.9 C 11.6 75.9 11.6 75.9 11.7 76.0 C 11.7 75.8 11.6 75.8 11.6 75.7 C 11.4 75.7 11.6 75.8 11.5 75.9 C 11.4 75.9 11.5 75.8 11.4 75.7 C 11.5 75.6 11.6 75.6 11.6 75.5 C 11.6 75.4 11.5 75.6 11.4 75.6 C 11.4 75.5 11.5 75.5 11.6 75.5 C 11.5 75.4 11.5 75.5 11.4 75.5 C 11.5 75.4 11.4 75.3 11.6 75.4 C 11.6 75.2 11.4 75.3 11.5 75.1 C 11.4 75.1 11.4 75.2 11.4 75.1 C 11.6 75.1 11.1 75.0 11.3 74.8 C 11.2 74.9 11.1 74.6 11.2 74.5 C 11.0 74.3 10.8 74.2 10.9 73.9 C 10.7 74.1 10.9 73.7 10.7 73.8 C 10.8 73.7 10.7 73.7 10.7 73.7 C 10.7 73.6 10.6 73.6 10.6 73.6 C 10.6 73.6 10.6 73.5 10.6 73.4 C 10.5 73.4 10.6 73.3 10.5 73.3 C 10.5 73.3 10.5 73.3 10.5 73.2 C 10.3 73.0 10.2 73.0 10.1 72.7 C 10.0 72.7 10.0 72.8 10.0 72.8 C 9.9 72.8 10.0 72.7 10.0 72.7 C 10.0 72.7 9.7 72.8 9.9 72.9 C 9.8 72.9 9.7 72.8 9.7 72.9 C 9.8 72.9 9.7 72.9 9.6 73.0 C 9.8 73.1 9.8 73.0 9.8 72.9 C 9.9 73.0 9.7 73.0 9.8 73.2 C 9.7 73.2 9.8 73.0 9.7 73.1 C 9.7 73.1 9.7 73.1 9.7 73.1 C 9.7 73.1 9.7 73.1 9.7 73.1 C 9.7 73.2 9.8 73.3 9.7 73.3 C 9.7 73.4 9.8 73.7 9.9 73.6 C 9.9 73.7 9.9 73.7 9.9 73.8 C 10.0 73.9 10.1 74.1 10.2 74.2 C 10.1 74.2 9.9 74.0 9.9 73.9 C 9.8 74.0 9.7 74.0 9.7 73.9 C 9.7 73.8 9.8 74.0 9.8 73.9 C 9.9 73.9 9.8 73.8 9.8 73.9 C 9.8 73.6 9.4 73.6 9.4 73.2 C 9.4 73.2 9.4 73.3 9.4 73.4 C 9.3 73.2 9.4 73.2 9.4 73.1 C 9.2 73.1 9.3 73.1 9.3 73.2 C 9.2 73.2 9.2 73.1 9.2 73.1 C 9.1 73.1 9.1 73.1 9.0 73.1 C 9.0 73.0 9.1 73.1 9.2 73.1 C 9.1 73.0 9.2 72.9 9.1 72.9 C 9.1 72.8 9.1 72.8 9.2 72.8 C 9.1 72.7 9.0 72.7 8.9 72.6 C 8.9 72.6 8.9 72.6 9.0 72.5 C 8.9 72.5 8.7 72.4 8.8 72.2 C 8.8 72.2 8.5 72.1 8.6 72.0 C 8.6 71.8 8.5 72.0 8.5 72.0 C 8.5 72.0 8.5 71.9 8.5 71.8 C 8.3 71.9 8.0 71.6 7.9 71.8 C 7.9 71.5 8.2 71.7 8.2 71.5 C 8.3 71.5 8.1 71.5 8.2 71.6 C 8.3 71.5 8.2 71.7 8.4 71.7 C 8.4 71.6 8.4 71.7 8.4 71.6 C 8.3 71.6 8.3 71.5 8.3 71.5 C 8.5 71.5 8.8 71.3 9.0 71.2 C 9.1 71.3 8.9 71.6 9.2 71.6 C 9.3 71.4 9.4 71.1 9.1 71.1 C 9.2 71.1 9.3 71.1 9.3 71.0 C 9.6 71.1 9.7 71.4 10.1 71.4 C 10.2 71.2 10.1 71.2 10.0 71.1 C 10.0 71.1 10.1 71.0 10.1 71.0 C 10.4 71.2 10.6 70.9 10.8 70.8 C 10.9 70.8 10.9 70.9 11.0 70.9 L 11.0 70.7 C 11.3 70.7 11.4 70.8 11.5 71.0 C 11.4 71.1 11.3 71.0 11.3 71.0 C 11.2 70.9 11.3 70.9 11.3 70.8 C 11.3 70.8 11.0 70.7 11.0 70.9 C 11.2 70.9 11.2 71.2 11.2 71.4 C 11.2 71.3 11.2 71.2 11.1 71.2 C 11.0 71.3 11.0 71.4 10.9 71.5 C 10.8 71.5 10.8 71.3 10.7 71.3 C 10.7 71.3 10.8 71.5 10.8 71.5 C 10.5 71.6 10.1 71.3 10.0 71.6 C 10.1 71.7 10.1 71.6 10.2 71.6 C 10.3 71.7 10.2 71.8 10.2 71.9 C 10.5 72.0 10.5 71.7 10.8 71.7 C 10.9 71.7 10.9 71.8 10.9 71.9 C 11.4 72.1 11.5 71.6 11.8 71.5 C 11.7 71.4 11.5 71.1 11.7 70.9 C 11.7 71.5 12.3 71.4 12.6 71.1 C 12.7 71.1 12.7 71.1 12.8 71.1 C 13.0 71.0 12.9 70.8 12.9 70.6 C 13.0 70.6 13.0 70.7 13.0 70.8 C 13.0 70.9 13.1 70.9 13.2 70.9 C 13.3 70.8 13.5 70.7 13.5 70.3 C 13.5 70.4 13.5 70.6 13.7 70.5 L 13.6 70.7 C 13.8 70.5 13.9 70.3 14.2 70.3 C 14.2 70.3 14.3 70.3 14.2 70.4 C 14.3 70.4 14.4 70.3 14.5 70.3 C 14.4 70.2 14.4 70.2 14.3 70.0 C 14.3 70.0 14.4 70.0 14.4 69.9 C 14.5 70.0 14.5 70.1 14.6 70.1 C 14.7 70.0 14.5 69.9 14.5 69.8 C 14.7 69.9 14.8 70.2 15.1 70.1 C 15.2 69.7 14.5 69.8 14.5 69.5 C 14.5 69.4 14.6 69.4 14.6 69.4 C 14.6 69.5 14.6 69.5 14.6 69.6 C 14.8 69.7 14.9 69.5 15.1 69.5 C 15.2 69.5 15.2 69.6 15.3 69.7 L 15.2 69.9 C 15.5 70.0 15.3 69.5 15.5 69.6 C 15.5 69.5 15.3 69.3 15.3 69.2 C 15.5 69.2 15.9 69.3 15.8 69.5 C 15.8 69.5 15.7 69.4 15.7 69.4 C 15.7 69.6 15.7 69.7 15.9 69.7 C 15.9 69.6 16.0 69.4 16.0 69.2 C 16.1 69.3 16.1 69.4 16.1 69.4 C 16.1 69.3 16.3 69.3 16.5 69.3 C 16.5 69.2 16.4 69.1 16.3 69.0 C 16.3 69.0 16.3 69.1 16.3 69.1 C 16.3 69.1 16.2 69.0 16.2 69.0 C 16.3 68.9 16.5 69.0 16.6 69.0 C 16.6 68.9 16.6 68.9 16.6 68.7 C 16.7 68.7 16.7 68.8 16.8 68.8 C 16.8 68.6 16.7 68.5 16.6 68.4 C 16.8 68.4 17.1 68.6 17.3 68.5 C 17.3 68.4 17.2 68.4 17.0 68.3 C 17.1 68.3 17.2 68.3 17.3 68.3 C 17.3 68.3 17.3 68.3 17.3 68.2 C 17.5 68.3 17.6 68.1 17.7 68.0 C 17.8 68.1 17.8 68.2 17.9 68.3 C 18.1 68.3 17.9 68.2 17.9 68.2 C 18.0 68.1 18.2 68.2 18.3 68.1 C 18.3 68.0 18.2 67.9 18.3 67.7 C 18.1 67.7 18.0 67.6 17.9 67.7 C 17.9 67.8 18.1 67.8 18.1 67.9 C 18.1 68.0 18.0 68.0 18.0 68.0 C 17.9 67.8 17.7 67.7 17.8 67.6 C 17.6 67.6 17.5 67.5 17.5 67.7 C 17.4 67.3 18.2 67.5 18.3 67.7 C 18.3 67.5 18.4 67.5 18.5 67.4 C 18.7 67.4 18.6 67.6 18.7 67.7 C 19.0 67.8 19.1 67.3 19.3 67.3 C 19.3 67.3 19.2 67.2 19.3 67.1 C 19.3 67.0 19.4 67.2 19.5 67.2 C 19.5 67.1 19.6 67.0 19.6 67.0 C 19.8 67.0 19.9 67.1 19.9 67.2 C 19.9 67.3 19.7 67.3 19.6 67.3 L 19.5 67.5 C 19.6 67.5 19.9 67.3 19.9 67.5 C 20.0 67.2 20.4 67.3 20.7 67.3 C 20.6 67.2 20.5 67.1 20.4 67.1 C 20.3 67.1 20.1 67.3 20.0 67.1 C 20.4 66.9 20.8 66.7 21.2 66.5 C 21.3 66.5 21.3 66.7 21.5 66.7 C 21.4 66.4 21.7 66.1 21.9 66.3 C 21.8 66.4 21.6 66.4 21.5 66.6 C 21.8 67.1 22.7 66.2 22.8 65.9 C 22.6 65.8 22.6 65.9 22.4 65.8 C 22.3 65.8 22.3 65.7 22.3 65.5 C 22.5 65.4 22.7 65.8 22.9 65.6 C 22.9 65.7 22.9 65.8 23.1 65.8 Z M 12.6 77.0 C 12.6 77.1 12.7 77.2 12.6 77.2 C 12.5 77.1 12.5 77.1 12.6 77.0 Z M 9.7 74.0 C 9.6 74.1 9.8 74.0 9.8 74.1 C 9.8 74.1 9.8 74.2 9.8 74.1 C 9.8 74.1 9.7 74.1 9.7 74.1 C 9.7 74.2 9.7 74.2 9.7 74.2 C 9.9 74.2 9.8 74.4 9.9 74.4 C 9.8 74.3 9.8 74.4 9.8 74.5 C 9.8 74.3 9.5 74.1 9.7 74.0 Z M 13.2 70.7 C 13.2 70.6 13.1 70.3 13.1 70.2 C 13.2 70.3 13.3 70.6 13.2 70.7 Z M 17.3 65.9 C 17.3 65.9 17.3 65.9 17.3 66.0 C 17.2 65.9 17.0 66.0 17.0 65.8 C 17.1 65.9 17.2 65.8 17.3 65.9 Z M 17.5 66.0 C 17.4 66.0 17.4 66.0 17.3 66.0 C 17.4 66.0 17.4 66.1 17.3 66.0 C 17.3 66.0 17.3 65.8 17.4 65.8 C 17.3 66.0 17.5 65.9 17.5 66.0 Z M 17.6 65.6 C 17.6 65.7 17.6 65.6 17.7 65.6 C 17.7 65.7 17.9 65.7 17.9 65.8 C 17.7 65.7 17.7 65.7 17.6 65.6 Z M 19.9 65.7 C 19.7 65.7 19.8 65.5 19.7 65.4 C 19.6 65.6 19.6 65.8 19.6 66.0 C 19.2 65.9 19.2 66.5 18.8 66.4 C 18.9 66.2 19.2 65.7 19.4 65.8 C 19.5 65.7 19.4 65.5 19.5 65.4 C 19.5 65.3 19.8 65.4 19.8 65.2 C 19.9 65.3 20.1 65.5 19.9 65.7 Z M 16.8 68.6 C 16.9 68.7 16.9 68.7 17.0 68.8 C 17.0 68.7 16.9 68.6 16.8 68.6 Z M 9.6 72.1 C 9.5 72.0 9.4 71.8 9.2 71.8 C 9.2 71.9 9.2 72.0 9.2 72.1 C 9.0 72.1 9.2 71.9 9.0 71.9 C 9.1 72.2 9.2 72.4 9.5 72.4 C 9.4 72.3 9.3 72.2 9.3 72.1 C 9.3 72.1 9.3 72.1 9.3 72.0 C 9.5 72.1 9.5 72.3 9.6 72.1 Z M 9.6 72.1 " fill="#E2E2E2"></path></g></svg>