<?xml version="1.0" encoding="UTF-8" standalone="no"?><svg xmlns="http://www.w3.org/2000/svg" xmlns:xlink="http://www.w3.org/1999/xlink" clip-rule="evenodd" stroke-miterlimit="10" viewBox="0 0 288 288"><desc>SVG generated by Keynote</desc><defs></defs><g transform="matrix(1.00, 0.00, -0.00, -1.00, 0.0, 288.0)"><g><clipPath id="clip0x6180036a7f80"><path d="M 0.2 0.5 L 287.3 0.5 L 287.3 287.5 L 0.2 287.5 Z M 0.2 0.5 "></path></clipPath><g clip-path="url(#clip0x6180036a7f80)"><path d="M 244.5 244.8 C 300.2 189.1 300.2 98.9 244.5 43.2 C 188.8 -12.4 98.6 -12.4 42.9 43.2 C -12.7 98.9 -12.7 189.1 42.9 244.8 C 98.6 300.4 188.8 300.4 244.5 244.8 Z M 244.5 244.8 " fill="#EDC25F" fill-opacity="0.80"></path></g></g><g><clipPath id="clip0x6180036a8400"><path d="M 29.7 28.5 L 257.8 28.5 L 257.8 259.5 L 29.7 259.5 Z M 29.7 28.5 "></path></clipPath><g clip-path="url(#clip0x6180036a8400)"><text xml:space="preserve" font-family="Sosa-Regular,Sosa" font-size="150.0" fill="#F6F6F6" transform="matrix(1.00, 0.00, -0.00, -1.00, 68.7, 111.9)">:</text></g></g></g></svg>