<?xml version="1.0" encoding="UTF-8" standalone="no"?><svg xmlns="http://www.w3.org/2000/svg" xmlns:xlink="http://www.w3.org/1999/xlink" clip-rule="evenodd" stroke-miterlimit="10" viewBox="0 0 323 279"><desc>SVG generated by Keynote</desc><defs></defs><g transform="matrix(1.00, 0.00, -0.00, -1.00, 0.0, 279.0)"><g><clipPath id="clip0x6080050a1860"><path d="M -44.7 -16.3 L 367.6 -16.3 L 367.6 323.7 L -44.7 323.7 Z M -44.7 -16.3 "></path></clipPath><g clip-path="url(#clip0x6080050a1860)"><text xml:space="preserve" font-family="Helvetica,Helvetica" font-size="200.0" fill="#54C6E1" transform="matrix(1.00, 0.00, -0.00, -1.00, 5.3, 79.7)">4</text><text xml:space="preserve" font-family="Helvetica,Helvetica" font-size="200.0" fill="#54C6E1" transform="matrix(1.00, 0.00, -0.00, -1.00, 116.5, 79.7)">7</text><text xml:space="preserve" font-family="Helvetica,Helvetica" font-size="100.0" fill="#54C6E1" transform="matrix(1.00, 0.00, -0.00, -1.00, 227.7, 79.7)">%</text></g></g><g><clipPath id="clip0x6080050a1d40"><path d="M 5.0 -5.6 L 309.6 -5.6 L 309.6 67.9 L 5.0 67.9 Z M 5.0 -5.6 "></path></clipPath><g clip-path="url(#clip0x6080050a1d40)"><text xml:space="preserve" font-family="Helvetica,Helvetica" font-size="43.0" fill="#E2E2E2" transform="matrix(1.00, 0.00, -0.00, -1.00, 15.8, 15.1)">w</text><text xml:space="preserve" font-family="Helvetica,Helvetica" font-size="43.0" fill="#E2E2E2" transform="matrix(1.00, 0.00, -0.00, -1.00, 46.9, 15.1)">e</text><text xml:space="preserve" font-family="Helvetica,Helvetica" font-size="43.0" fill="#E2E2E2" transform="matrix(1.00, 0.00, -0.00, -1.00, 70.8, 15.1)">e</text><text xml:space="preserve" font-family="Helvetica,Helvetica" font-size="43.0" fill="#E2E2E2" transform="matrix(1.00, 0.00, -0.00, -1.00, 94.7, 15.1)">k</text><text xml:space="preserve" font-family="Helvetica,Helvetica" font-size="43.0" fill="#E2E2E2" transform="matrix(1.00, 0.00, -0.00, -1.00, 116.2, 15.1)">d</text><text xml:space="preserve" font-family="Helvetica,Helvetica" font-size="43.0" fill="#E2E2E2" transform="matrix(1.00, 0.00, -0.00, -1.00, 140.1, 15.1)">a</text><text xml:space="preserve" font-family="Helvetica,Helvetica" font-size="43.0" fill="#E2E2E2" transform="matrix(1.00, 0.00, -0.00, -1.00, 164.1, 15.1)">y</text><text xml:space="preserve" font-family="Helvetica,Helvetica" font-size="43.0" fill="#E2E2E2" transform="matrix(1.00, 0.00, -0.00, -1.00, 185.6, 15.1)"> </text><text xml:space="preserve" font-family="Helvetica,Helvetica" font-size="43.0" fill="#E2E2E2" transform="matrix(1.00, 0.00, -0.00, -1.00, 197.5, 15.1)">s</text><text xml:space="preserve" font-family="Helvetica,Helvetica" font-size="43.0" fill="#E2E2E2" transform="matrix(1.00, 0.00, -0.00, -1.00, 219.0, 15.1)">a</text><text xml:space="preserve" font-family="Helvetica,Helvetica" font-size="43.0" fill="#E2E2E2" transform="matrix(1.00, 0.00, -0.00, -1.00, 242.9, 15.1)">l</text><text xml:space="preserve" font-family="Helvetica,Helvetica" font-size="43.0" fill="#E2E2E2" transform="matrix(1.00, 0.00, -0.00, -1.00, 252.5, 15.1)">e</text><text xml:space="preserve" font-family="Helvetica,Helvetica" font-size="43.0" fill="#E2E2E2" transform="matrix(1.00, 0.00, -0.00, -1.00, 276.4, 15.1)">s</text></g></g></g></svg>