<?xml version="1.0" encoding="UTF-8" standalone="no"?><svg xmlns="http://www.w3.org/2000/svg" xmlns:xlink="http://www.w3.org/1999/xlink" clip-rule="evenodd" stroke-miterlimit="10" viewBox="0 0 816 68"><desc>SVG generated by Keynote</desc><defs></defs><g transform="matrix(1.00, 0.00, -0.00, -1.00, 0.0, 68.0)"><text xml:space="preserve" font-family="Helvetica,Helvetica" font-size="84.0" fill="#F6F6F6" transform="matrix(1.00, 0.00, -0.00, -1.00, -2.0, 3.7)">S</text><text xml:space="preserve" font-family="Helvetica,Helvetica" font-size="84.0" fill="#F6F6F6" transform="matrix(1.00, 0.00, -0.00, -1.00, 54.0, 3.7)">A</text><text xml:space="preserve" font-family="Helvetica,Helvetica" font-size="84.0" fill="#F6F6F6" transform="matrix(1.00, 0.00, -0.00, -1.00, 110.0, 3.7)">L</text><text xml:space="preserve" font-family="Helvetica,Helvetica" font-size="84.0" fill="#F6F6F6" transform="matrix(1.00, 0.00, -0.00, -1.00, 156.8, 3.7)">E</text><text xml:space="preserve" font-family="Helvetica,Helvetica" font-size="84.0" fill="#F6F6F6" transform="matrix(1.00, 0.00, -0.00, -1.00, 212.8, 3.7)">S</text><text xml:space="preserve" font-family="Helvetica,Helvetica" font-size="84.0" fill="#F6F6F6" transform="matrix(1.00, 0.00, -0.00, -1.00, 268.8, 3.7)"> </text><text xml:space="preserve" font-family="Helvetica,Helvetica" font-size="84.0" fill="#F6F6F6" transform="matrix(1.00, 0.00, -0.00, -1.00, 292.1, 3.7)">S</text><text xml:space="preserve" font-family="Helvetica,Helvetica" font-size="84.0" fill="#F6F6F6" transform="matrix(1.00, 0.00, -0.00, -1.00, 348.2, 3.7)">T</text><text xml:space="preserve" font-family="Helvetica,Helvetica" font-size="84.0" fill="#F6F6F6" transform="matrix(1.00, 0.00, -0.00, -1.00, 399.5, 3.7)">R</text><text xml:space="preserve" font-family="Helvetica,Helvetica" font-size="84.0" fill="#F6F6F6" transform="matrix(1.00, 0.00, -0.00, -1.00, 460.1, 3.7)">A</text><text xml:space="preserve" font-family="Helvetica,Helvetica" font-size="84.0" fill="#F6F6F6" transform="matrix(1.00, 0.00, -0.00, -1.00, 510.0, 3.7)">T</text><text xml:space="preserve" font-family="Helvetica,Helvetica" font-size="84.0" fill="#F6F6F6" transform="matrix(1.00, 0.00, -0.00, -1.00, 561.3, 3.7)">E</text><text xml:space="preserve" font-family="Helvetica,Helvetica" font-size="84.0" fill="#F6F6F6" transform="matrix(1.00, 0.00, -0.00, -1.00, 617.3, 3.7)">G</text><text xml:space="preserve" font-family="Helvetica,Helvetica" font-size="84.0" fill="#F6F6F6" transform="matrix(1.00, 0.00, -0.00, -1.00, 682.6, 3.7)">I</text><text xml:space="preserve" font-family="Helvetica,Helvetica" font-size="84.0" fill="#F6F6F6" transform="matrix(1.00, 0.00, -0.00, -1.00, 705.9, 3.7)">E</text><text xml:space="preserve" font-family="Helvetica,Helvetica" font-size="84.0" fill="#F6F6F6" transform="matrix(1.00, 0.00, -0.00, -1.00, 762.0, 3.7)">S</text></g></svg>