<?xml version="1.0" encoding="UTF-8" standalone="no"?><svg xmlns="http://www.w3.org/2000/svg" xmlns:xlink="http://www.w3.org/1999/xlink" clip-rule="evenodd" stroke-miterlimit="10" viewBox="0 0 283 310"><desc>SVG generated by Keynote</desc><defs></defs><g transform="matrix(1.00, 0.00, -0.00, -1.00, 0.0, 310.0)"><g><clipPath id="clip0x6000068b0ec0"><path d="M 31.1 88.4 L 252.1 88.4 L 252.1 309.4 L 31.1 309.4 Z M 31.1 88.4 "></path></clipPath><g clip-path="url(#clip0x6000068b0ec0)"><path d="M 31.0 309.0 L 252.0 309.0 L 252.0 88.0 L 31.0 88.0 Z M 31.0 309.0 " fill="#000000" fill-opacity="0.00"></path></g></g><g><clipPath id="clip0x6000068b0fe0"><path d="M 31.1 88.4 L 252.1 88.4 L 252.1 309.4 L 31.1 309.4 Z M 31.1 88.4 "></path></clipPath><g clip-path="url(#clip0x6000068b0fe0)"><g><g><clipPath id="clip0x6000068b11c0"><path d="M 31.0 88.0 L 253.0 88.0 L 253.0 310.0 L 31.0 310.0 Z M 31.0 88.0 "></path></clipPath><g clip-path="url(#clip0x6000068b11c0)"><g><g><clipPath id="clip0x6000068b13a0"><path d="M 31.0 88.0 L 253.0 88.0 L 253.0 310.0 L 31.0 310.0 Z M 31.0 88.0 "></path></clipPath><g clip-path="url(#clip0x6000068b13a0)"><path d="M 142.0 199.0 L 249.2 223.7 C 235.5 282.9 176.4 319.8 117.3 306.2 C 110.5 304.6 103.9 302.4 97.6 299.6 Z M 142.0 199.0 " fill="#D8B255"></path></g></g></g></g></g><g><clipPath id="clip0x6000068b15e0"><path d="M 31.0 88.0 L 253.0 88.0 L 253.0 310.0 L 31.0 310.0 Z M 31.0 88.0 "></path></clipPath><g clip-path="url(#clip0x6000068b15e0)"><g><g><clipPath id="clip0x6000068b17c0"><path d="M 31.0 88.0 L 253.0 88.0 L 253.0 310.0 L 31.0 310.0 Z M 31.0 88.0 "></path></clipPath><g clip-path="url(#clip0x6000068b17c0)"><path d="M 142.0 199.0 L 97.6 299.6 C 42.0 275.1 16.8 210.2 41.4 154.6 C 65.9 99.0 130.8 73.8 186.4 98.4 C 234.7 119.7 261.1 172.3 249.2 223.7 Z M 142.0 199.0 " fill="#EDC25F"></path></g></g></g></g></g></g></g></g><g><clipPath id="clip0x6000068b1a00"><path d="M 49.2 106.3 L 234.3 106.3 L 234.3 291.3 L 49.2 291.3 Z M 49.2 106.3 "></path></clipPath><g clip-path="url(#clip0x6000068b1a00)"><path d="M 206.5 263.5 C 242.2 227.8 242.2 169.8 206.5 134.1 C 170.7 98.3 112.8 98.3 77.0 134.1 C 41.3 169.8 41.3 227.8 77.0 263.5 C 112.8 299.3 170.7 299.3 206.5 263.5 Z M 206.5 263.5 " fill="#5A6378"></path></g></g><g><clipPath id="clip0x6000068b1c40"><path d="M 89.4 152.4 L 194.1 152.4 L 194.1 245.2 L 89.4 245.2 Z M 89.4 152.4 "></path></clipPath><g clip-path="url(#clip0x6000068b1c40)"><text xml:space="preserve" font-family="Sosa-Regular,Sosa" font-size="60.0" fill="#E2E2E2" transform="matrix(1.00, 0.00, -0.00, -1.00, 111.8, 185.8)">ä</text><text xml:space="preserve" font-family="Sosa-Regular,Sosa" font-size="60.0" fill="#E2E2E2" transform="matrix(1.00, 0.00, -0.00, -1.00, 171.8, 185.8)"> </text></g></g><g><clipPath id="clip0x6000068b1ee0"><path d="M 13.3 34.7 L 270.2 34.7 L 270.2 78.7 L 13.3 78.7 Z M 13.3 34.7 "></path></clipPath><g clip-path="url(#clip0x6000068b1ee0)"><text xml:space="preserve" font-family="Helvetica,Helvetica" font-size="26.0" fill="#E2E2E2" transform="matrix(1.00, 0.00, -0.00, -1.00, 40.1, 47.2)">L</text><text xml:space="preserve" font-family="Helvetica,Helvetica" font-size="26.0" fill="#E2E2E2" transform="matrix(1.00, 0.00, -0.00, -1.00, 54.6, 47.2)">i</text><text xml:space="preserve" font-family="Helvetica,Helvetica" font-size="26.0" fill="#E2E2E2" transform="matrix(1.00, 0.00, -0.00, -1.00, 60.4, 47.2)">n</text><text xml:space="preserve" font-family="Helvetica,Helvetica" font-size="26.0" fill="#E2E2E2" transform="matrix(1.00, 0.00, -0.00, -1.00, 74.8, 47.2)">k</text><text xml:space="preserve" font-family="Helvetica,Helvetica" font-size="26.0" fill="#E2E2E2" transform="matrix(1.00, 0.00, -0.00, -1.00, 87.8, 47.2)">s</text><text xml:space="preserve" font-family="Helvetica,Helvetica" font-size="26.0" fill="#E2E2E2" transform="matrix(1.00, 0.00, -0.00, -1.00, 100.8, 47.2)"> </text><text xml:space="preserve" font-family="Helvetica,Helvetica" font-size="26.0" fill="#E2E2E2" transform="matrix(1.00, 0.00, -0.00, -1.00, 108.0, 47.2)">t</text><text xml:space="preserve" font-family="Helvetica,Helvetica" font-size="26.0" fill="#E2E2E2" transform="matrix(1.00, 0.00, -0.00, -1.00, 115.3, 47.2)">o</text><text xml:space="preserve" font-family="Helvetica,Helvetica" font-size="26.0" fill="#E2E2E2" transform="matrix(1.00, 0.00, -0.00, -1.00, 129.7, 47.2)"> </text><text xml:space="preserve" font-family="Helvetica,Helvetica" font-size="26.0" fill="#E2E2E2" transform="matrix(1.00, 0.00, -0.00, -1.00, 136.9, 47.2)">W</text><text xml:space="preserve" font-family="Helvetica,Helvetica" font-size="26.0" fill="#E2E2E2" transform="matrix(1.00, 0.00, -0.00, -1.00, 161.0, 47.2)">e</text><text xml:space="preserve" font-family="Helvetica,Helvetica" font-size="26.0" fill="#E2E2E2" transform="matrix(1.00, 0.00, -0.00, -1.00, 175.5, 47.2)">b</text><text xml:space="preserve" font-family="Helvetica,Helvetica" font-size="26.0" fill="#E2E2E2" transform="matrix(1.00, 0.00, -0.00, -1.00, 190.0, 47.2)">s</text><text xml:space="preserve" font-family="Helvetica,Helvetica" font-size="26.0" fill="#E2E2E2" transform="matrix(1.00, 0.00, -0.00, -1.00, 203.0, 47.2)">i</text><text xml:space="preserve" font-family="Helvetica,Helvetica" font-size="26.0" fill="#E2E2E2" transform="matrix(1.00, 0.00, -0.00, -1.00, 208.7, 47.2)">t</text><text xml:space="preserve" font-family="Helvetica,Helvetica" font-size="26.0" fill="#E2E2E2" transform="matrix(1.00, 0.00, -0.00, -1.00, 216.0, 47.2)">e</text><text xml:space="preserve" font-family="Helvetica,Helvetica" font-size="26.0" fill="#E2E2E2" transform="matrix(1.00, 0.00, -0.00, -1.00, 230.4, 47.2)">s</text></g></g><g><clipPath id="clip0x6000068b2720"><path d="M 0.4 -0.5 L 283.1 -0.5 L 283.1 36.5 L 0.4 36.5 Z M 0.4 -0.5 "></path></clipPath><g clip-path="url(#clip0x6000068b2720)"><text xml:space="preserve" font-family="Helvetica,Helvetica" font-size="22.0" fill="#E2E2E2" transform="matrix(1.00, 0.00, -0.00, -1.00, 15.2, 10.1)">L</text><text xml:space="preserve" font-family="Helvetica,Helvetica" font-size="22.0" fill="#E2E2E2" transform="matrix(1.00, 0.00, -0.00, -1.00, 27.5, 10.1)">o</text><text xml:space="preserve" font-family="Helvetica,Helvetica" font-size="22.0" fill="#E2E2E2" transform="matrix(1.00, 0.00, -0.00, -1.00, 39.7, 10.1)">r</text><text xml:space="preserve" font-family="Helvetica,Helvetica" font-size="22.0" fill="#E2E2E2" transform="matrix(1.00, 0.00, -0.00, -1.00, 47.0, 10.1)">e</text><text xml:space="preserve" font-family="Helvetica,Helvetica" font-size="22.0" fill="#E2E2E2" transform="matrix(1.00, 0.00, -0.00, -1.00, 59.3, 10.1)">m</text><text xml:space="preserve" font-family="Helvetica,Helvetica" font-size="22.0" fill="#E2E2E2" transform="matrix(1.00, 0.00, -0.00, -1.00, 77.6, 10.1)"> </text><text xml:space="preserve" font-family="Helvetica,Helvetica" font-size="22.0" fill="#E2E2E2" transform="matrix(1.00, 0.00, -0.00, -1.00, 83.7, 10.1)">i</text><text xml:space="preserve" font-family="Helvetica,Helvetica" font-size="22.0" fill="#E2E2E2" transform="matrix(1.00, 0.00, -0.00, -1.00, 88.6, 10.1)">p</text><text xml:space="preserve" font-family="Helvetica,Helvetica" font-size="22.0" fill="#E2E2E2" transform="matrix(1.00, 0.00, -0.00, -1.00, 100.8, 10.1)">s</text><text xml:space="preserve" font-family="Helvetica,Helvetica" font-size="22.0" fill="#E2E2E2" transform="matrix(1.00, 0.00, -0.00, -1.00, 111.8, 10.1)">m</text><text xml:space="preserve" font-family="Helvetica,Helvetica" font-size="22.0" fill="#E2E2E2" transform="matrix(1.00, 0.00, -0.00, -1.00, 130.1, 10.1)"> </text><text xml:space="preserve" font-family="Helvetica,Helvetica" font-size="22.0" fill="#E2E2E2" transform="matrix(1.00, 0.00, -0.00, -1.00, 136.3, 10.1)">d</text><text xml:space="preserve" font-family="Helvetica,Helvetica" font-size="22.0" fill="#E2E2E2" transform="matrix(1.00, 0.00, -0.00, -1.00, 148.5, 10.1)">o</text><text xml:space="preserve" font-family="Helvetica,Helvetica" font-size="22.0" fill="#E2E2E2" transform="matrix(1.00, 0.00, -0.00, -1.00, 160.7, 10.1)">l</text><text xml:space="preserve" font-family="Helvetica,Helvetica" font-size="22.0" fill="#E2E2E2" transform="matrix(1.00, 0.00, -0.00, -1.00, 165.6, 10.1)">o</text><text xml:space="preserve" font-family="Helvetica,Helvetica" font-size="22.0" fill="#E2E2E2" transform="matrix(1.00, 0.00, -0.00, -1.00, 177.9, 10.1)">r</text><text xml:space="preserve" font-family="Helvetica,Helvetica" font-size="22.0" fill="#E2E2E2" transform="matrix(1.00, 0.00, -0.00, -1.00, 185.2, 10.1)"> </text><text xml:space="preserve" font-family="Helvetica,Helvetica" font-size="22.0" fill="#E2E2E2" transform="matrix(1.00, 0.00, -0.00, -1.00, 191.3, 10.1)">s</text><text xml:space="preserve" font-family="Helvetica,Helvetica" font-size="22.0" fill="#E2E2E2" transform="matrix(1.00, 0.00, -0.00, -1.00, 202.3, 10.1)">i</text><text xml:space="preserve" font-family="Helvetica,Helvetica" font-size="22.0" fill="#E2E2E2" transform="matrix(1.00, 0.00, -0.00, -1.00, 207.2, 10.1)">t</text><text xml:space="preserve" font-family="Helvetica,Helvetica" font-size="22.0" fill="#E2E2E2" transform="matrix(1.00, 0.00, -0.00, -1.00, 213.3, 10.1)"> </text><text xml:space="preserve" font-family="Helvetica,Helvetica" font-size="22.0" fill="#E2E2E2" transform="matrix(1.00, 0.00, -0.00, -1.00, 219.4, 10.1)">a</text><text xml:space="preserve" font-family="Helvetica,Helvetica" font-size="22.0" fill="#E2E2E2" transform="matrix(1.00, 0.00, -0.00, -1.00, 231.7, 10.1)">m</text><text xml:space="preserve" font-family="Helvetica,Helvetica" font-size="22.0" fill="#E2E2E2" transform="matrix(1.00, 0.00, -0.00, -1.00, 250.0, 10.1)">e</text><text xml:space="preserve" font-family="Helvetica,Helvetica" font-size="22.0" fill="#E2E2E2" transform="matrix(1.00, 0.00, -0.00, -1.00, 262.2, 10.1)">t</text></g></g></g></svg>