<?xml version="1.0" encoding="UTF-8" standalone="no"?><svg xmlns="http://www.w3.org/2000/svg" xmlns:xlink="http://www.w3.org/1999/xlink" clip-rule="evenodd" stroke-miterlimit="10" viewBox="0 0 283 310"><desc>SVG generated by Keynote</desc><defs></defs><g transform="matrix(1.00, 0.00, -0.00, -1.00, 0.0, 310.0)"><g><clipPath id="clip0x618005cb69e0"><path d="M 30.6 88.4 L 251.6 88.4 L 251.6 309.4 L 30.6 309.4 Z M 30.6 88.4 "></path></clipPath><g clip-path="url(#clip0x618005cb69e0)"><path d="M 31.0 309.0 L 252.0 309.0 L 252.0 88.0 L 31.0 88.0 Z M 31.0 309.0 " fill="#000000" fill-opacity="0.00"></path></g></g><g><clipPath id="clip0x618005cb7100"><path d="M 30.6 88.4 L 251.6 88.4 L 251.6 309.4 L 30.6 309.4 Z M 30.6 88.4 "></path></clipPath><g clip-path="url(#clip0x618005cb7100)"><g><g><clipPath id="clip0x618005cb7460"><path d="M 30.0 88.0 L 252.0 88.0 L 252.0 310.0 L 30.0 310.0 Z M 30.0 88.0 "></path></clipPath><g clip-path="url(#clip0x618005cb7460)"><g><g><clipPath id="clip0x618005cb7fa0"><path d="M 30.0 88.0 L 252.0 88.0 L 252.0 310.0 L 30.0 310.0 Z M 30.0 88.0 "></path></clipPath><g clip-path="url(#clip0x618005cb7fa0)"><path d="M 141.0 199.0 L 248.2 223.7 C 243.0 246.4 230.7 266.8 213.2 282.0 Z M 141.0 199.0 " fill="#3F9FB5"></path></g></g></g></g></g><g><clipPath id="clip0x618005cb81e0"><path d="M 30.0 88.0 L 252.0 88.0 L 252.0 310.0 L 30.0 310.0 Z M 30.0 88.0 "></path></clipPath><g clip-path="url(#clip0x618005cb81e0)"><g><g><clipPath id="clip0x618005cb83c0"><path d="M 30.0 88.0 L 252.0 88.0 L 252.0 310.0 L 30.0 310.0 Z M 30.0 88.0 "></path></clipPath><g clip-path="url(#clip0x618005cb83c0)"><path d="M 141.0 199.0 L 213.2 282.0 C 167.3 321.9 97.8 317.0 58.0 271.2 C 18.1 225.3 23.0 155.8 68.8 116.0 C 114.7 76.1 184.2 81.0 224.0 126.8 C 247.1 153.4 256.1 189.4 248.2 223.7 Z M 141.0 199.0 " fill="#54C6E1"></path></g></g></g></g></g></g></g></g><g><clipPath id="clip0x618005cb8600"><path d="M 48.7 106.3 L 233.8 106.3 L 233.8 291.3 L 48.7 291.3 Z M 48.7 106.3 "></path></clipPath><g clip-path="url(#clip0x618005cb8600)"><path d="M 206.0 263.5 C 241.7 227.8 241.7 169.8 206.0 134.1 C 170.2 98.3 112.3 98.3 76.5 134.1 C 40.8 169.8 40.8 227.8 76.5 263.5 C 112.3 299.3 170.2 299.3 206.0 263.5 Z M 206.0 263.5 " fill="#5A6378"></path></g></g><g><clipPath id="clip0x618005cb8840"><path d="M 95.3 152.4 L 187.2 152.4 L 187.2 245.2 L 95.3 245.2 Z M 95.3 152.4 "></path></clipPath><g clip-path="url(#clip0x618005cb8840)"><text xml:space="preserve" font-family="Sosa-Regular,Sosa" font-size="60.0" fill="#E2E2E2" transform="matrix(1.00, 0.00, -0.00, -1.00, 111.2, 185.8)">Ä</text></g></g><g><clipPath id="clip0x618005cb8a80"><path d="M 12.8 34.7 L 269.7 34.7 L 269.7 78.7 L 12.8 78.7 Z M 12.8 34.7 "></path></clipPath><g clip-path="url(#clip0x618005cb8a80)"><text xml:space="preserve" font-family="Helvetica,Helvetica" font-size="26.0" fill="#E2E2E2" transform="matrix(1.00, 0.00, -0.00, -1.00, 86.3, 47.2)">S</text><text xml:space="preserve" font-family="Helvetica,Helvetica" font-size="26.0" fill="#E2E2E2" transform="matrix(1.00, 0.00, -0.00, -1.00, 103.6, 47.2)">h</text><text xml:space="preserve" font-family="Helvetica,Helvetica" font-size="26.0" fill="#E2E2E2" transform="matrix(1.00, 0.00, -0.00, -1.00, 118.1, 47.2)">o</text><text xml:space="preserve" font-family="Helvetica,Helvetica" font-size="26.0" fill="#E2E2E2" transform="matrix(1.00, 0.00, -0.00, -1.00, 132.6, 47.2)">p</text><text xml:space="preserve" font-family="Helvetica,Helvetica" font-size="26.0" fill="#E2E2E2" transform="matrix(1.00, 0.00, -0.00, -1.00, 147.0, 47.2)">p</text><text xml:space="preserve" font-family="Helvetica,Helvetica" font-size="26.0" fill="#E2E2E2" transform="matrix(1.00, 0.00, -0.00, -1.00, 161.5, 47.2)">i</text><text xml:space="preserve" font-family="Helvetica,Helvetica" font-size="26.0" fill="#E2E2E2" transform="matrix(1.00, 0.00, -0.00, -1.00, 167.3, 47.2)">n</text><text xml:space="preserve" font-family="Helvetica,Helvetica" font-size="26.0" fill="#E2E2E2" transform="matrix(1.00, 0.00, -0.00, -1.00, 181.8, 47.2)">g</text></g></g><g><clipPath id="clip0x618005cb8f60"><path d="M -0.1 -0.5 L 282.6 -0.5 L 282.6 36.5 L -0.1 36.5 Z M -0.1 -0.5 "></path></clipPath><g clip-path="url(#clip0x618005cb8f60)"><text xml:space="preserve" font-family="Helvetica,Helvetica" font-size="22.0" fill="#E2E2E2" transform="matrix(1.00, 0.00, -0.00, -1.00, 14.7, 10.1)">L</text><text xml:space="preserve" font-family="Helvetica,Helvetica" font-size="22.0" fill="#E2E2E2" transform="matrix(1.00, 0.00, -0.00, -1.00, 26.9, 10.1)">o</text><text xml:space="preserve" font-family="Helvetica,Helvetica" font-size="22.0" fill="#E2E2E2" transform="matrix(1.00, 0.00, -0.00, -1.00, 39.2, 10.1)">r</text><text xml:space="preserve" font-family="Helvetica,Helvetica" font-size="22.0" fill="#E2E2E2" transform="matrix(1.00, 0.00, -0.00, -1.00, 46.5, 10.1)">e</text><text xml:space="preserve" font-family="Helvetica,Helvetica" font-size="22.0" fill="#E2E2E2" transform="matrix(1.00, 0.00, -0.00, -1.00, 58.7, 10.1)">m</text><text xml:space="preserve" font-family="Helvetica,Helvetica" font-size="22.0" fill="#E2E2E2" transform="matrix(1.00, 0.00, -0.00, -1.00, 77.1, 10.1)"> </text><text xml:space="preserve" font-family="Helvetica,Helvetica" font-size="22.0" fill="#E2E2E2" transform="matrix(1.00, 0.00, -0.00, -1.00, 83.2, 10.1)">i</text><text xml:space="preserve" font-family="Helvetica,Helvetica" font-size="22.0" fill="#E2E2E2" transform="matrix(1.00, 0.00, -0.00, -1.00, 88.1, 10.1)">p</text><text xml:space="preserve" font-family="Helvetica,Helvetica" font-size="22.0" fill="#E2E2E2" transform="matrix(1.00, 0.00, -0.00, -1.00, 100.3, 10.1)">s</text><text xml:space="preserve" font-family="Helvetica,Helvetica" font-size="22.0" fill="#E2E2E2" transform="matrix(1.00, 0.00, -0.00, -1.00, 111.3, 10.1)">m</text><text xml:space="preserve" font-family="Helvetica,Helvetica" font-size="22.0" fill="#E2E2E2" transform="matrix(1.00, 0.00, -0.00, -1.00, 129.6, 10.1)"> </text><text xml:space="preserve" font-family="Helvetica,Helvetica" font-size="22.0" fill="#E2E2E2" transform="matrix(1.00, 0.00, -0.00, -1.00, 135.7, 10.1)">d</text><text xml:space="preserve" font-family="Helvetica,Helvetica" font-size="22.0" fill="#E2E2E2" transform="matrix(1.00, 0.00, -0.00, -1.00, 148.0, 10.1)">o</text><text xml:space="preserve" font-family="Helvetica,Helvetica" font-size="22.0" fill="#E2E2E2" transform="matrix(1.00, 0.00, -0.00, -1.00, 160.2, 10.1)">l</text><text xml:space="preserve" font-family="Helvetica,Helvetica" font-size="22.0" fill="#E2E2E2" transform="matrix(1.00, 0.00, -0.00, -1.00, 165.1, 10.1)">o</text><text xml:space="preserve" font-family="Helvetica,Helvetica" font-size="22.0" fill="#E2E2E2" transform="matrix(1.00, 0.00, -0.00, -1.00, 177.4, 10.1)">r</text><text xml:space="preserve" font-family="Helvetica,Helvetica" font-size="22.0" fill="#E2E2E2" transform="matrix(1.00, 0.00, -0.00, -1.00, 184.7, 10.1)"> </text><text xml:space="preserve" font-family="Helvetica,Helvetica" font-size="22.0" fill="#E2E2E2" transform="matrix(1.00, 0.00, -0.00, -1.00, 190.8, 10.1)">s</text><text xml:space="preserve" font-family="Helvetica,Helvetica" font-size="22.0" fill="#E2E2E2" transform="matrix(1.00, 0.00, -0.00, -1.00, 201.8, 10.1)">i</text><text xml:space="preserve" font-family="Helvetica,Helvetica" font-size="22.0" fill="#E2E2E2" transform="matrix(1.00, 0.00, -0.00, -1.00, 206.7, 10.1)">t</text><text xml:space="preserve" font-family="Helvetica,Helvetica" font-size="22.0" fill="#E2E2E2" transform="matrix(1.00, 0.00, -0.00, -1.00, 212.8, 10.1)"> </text><text xml:space="preserve" font-family="Helvetica,Helvetica" font-size="22.0" fill="#E2E2E2" transform="matrix(1.00, 0.00, -0.00, -1.00, 218.9, 10.1)">a</text><text xml:space="preserve" font-family="Helvetica,Helvetica" font-size="22.0" fill="#E2E2E2" transform="matrix(1.00, 0.00, -0.00, -1.00, 231.1, 10.1)">m</text><text xml:space="preserve" font-family="Helvetica,Helvetica" font-size="22.0" fill="#E2E2E2" transform="matrix(1.00, 0.00, -0.00, -1.00, 249.5, 10.1)">e</text><text xml:space="preserve" font-family="Helvetica,Helvetica" font-size="22.0" fill="#E2E2E2" transform="matrix(1.00, 0.00, -0.00, -1.00, 261.7, 10.1)">t</text></g></g></g></svg>