<?xml version="1.0" encoding="UTF-8" standalone="no"?><svg xmlns="http://www.w3.org/2000/svg" xmlns:xlink="http://www.w3.org/1999/xlink" clip-rule="evenodd" stroke-miterlimit="10" viewBox="0 0 283 310"><desc>SVG generated by Keynote</desc><defs></defs><g transform="matrix(1.00, 0.00, -0.00, -1.00, 0.0, 310.0)"><g><clipPath id="clip0x6000068b3b60"><path d="M 31.1 88.4 L 252.1 88.4 L 252.1 309.4 L 31.1 309.4 Z M 31.1 88.4 "></path></clipPath><g clip-path="url(#clip0x6000068b3b60)"><path d="M 31.0 309.0 L 252.0 309.0 L 252.0 88.0 L 31.0 88.0 Z M 31.0 309.0 " fill="#000000" fill-opacity="0.00"></path></g></g><g><clipPath id="clip0x6000068b3c80"><path d="M 31.1 88.4 L 252.1 88.4 L 252.1 309.4 L 31.1 309.4 Z M 31.1 88.4 "></path></clipPath><g clip-path="url(#clip0x6000068b3c80)"><g><g><clipPath id="clip0x6000068b3e60"><path d="M 31.0 88.0 L 253.0 88.0 L 253.0 310.0 L 31.0 310.0 Z M 31.0 88.0 "></path></clipPath><g clip-path="url(#clip0x6000068b3e60)"><g><g><clipPath id="clip0x6000068b4040"><path d="M 31.0 88.0 L 253.0 88.0 L 253.0 310.0 L 31.0 310.0 Z M 31.0 88.0 "></path></clipPath><g clip-path="url(#clip0x6000068b4040)"><path d="M 142.0 199.0 L 249.2 223.7 C 238.5 270.2 199.1 304.4 151.6 308.6 Z M 142.0 199.0 " fill="#CB485F"></path></g></g></g></g></g><g><clipPath id="clip0x6000068b4280"><path d="M 31.0 88.0 L 253.0 88.0 L 253.0 310.0 L 31.0 310.0 Z M 31.0 88.0 "></path></clipPath><g clip-path="url(#clip0x6000068b4280)"><g><g><clipPath id="clip0x6000068b4460"><path d="M 31.0 88.0 L 253.0 88.0 L 253.0 310.0 L 31.0 310.0 Z M 31.0 88.0 "></path></clipPath><g clip-path="url(#clip0x6000068b4460)"><path d="M 142.0 199.0 L 151.6 308.6 C 91.1 313.9 37.7 269.1 32.4 208.6 C 27.1 148.1 71.9 94.7 132.4 89.4 C 192.9 84.1 246.3 128.9 251.6 189.4 C 252.6 200.9 251.8 212.5 249.2 223.7 Z M 142.0 199.0 " fill="#FF607B"></path></g></g></g></g></g></g></g></g><g><clipPath id="clip0x6000068b46a0"><path d="M 49.2 106.3 L 234.3 106.3 L 234.3 291.3 L 49.2 291.3 Z M 49.2 106.3 "></path></clipPath><g clip-path="url(#clip0x6000068b46a0)"><path d="M 206.5 263.5 C 242.2 227.8 242.2 169.8 206.5 134.1 C 170.7 98.3 112.8 98.3 77.0 134.1 C 41.3 169.8 41.3 227.8 77.0 263.5 C 112.8 299.3 170.7 299.3 206.5 263.5 Z M 206.5 263.5 " fill="#5A6378"></path></g></g><g><clipPath id="clip0x6000068b48e0"><path d="M 95.1 141.7 L 188.4 141.7 L 188.4 255.9 L 95.1 255.9 Z M 95.1 141.7 "></path></clipPath><g clip-path="url(#clip0x6000068b48e0)"><text xml:space="preserve" font-family="LucidaGrande,Lucida Grande" font-size="60.0" fill="#E2E2E2" transform="matrix(1.00, 0.00, -0.00, -1.00, 121.0, 178.6)">Ĉ</text><text xml:space="preserve" font-family="Sosa-Regular,Sosa" font-size="60.0" fill="#E2E2E2" transform="matrix(1.00, 0.00, -0.00, -1.00, 162.5, 178.6)"> </text></g></g><g><clipPath id="clip0x6000068b4b80"><path d="M 13.3 34.7 L 270.2 34.7 L 270.2 78.7 L 13.3 78.7 Z M 13.3 34.7 "></path></clipPath><g clip-path="url(#clip0x6000068b4b80)"><text xml:space="preserve" font-family="Helvetica,Helvetica" font-size="26.0" fill="#E2E2E2" transform="matrix(1.00, 0.00, -0.00, -1.00, 68.8, 47.2)">C</text><text xml:space="preserve" font-family="Helvetica,Helvetica" font-size="26.0" fill="#E2E2E2" transform="matrix(1.00, 0.00, -0.00, -1.00, 87.6, 47.2)">r</text><text xml:space="preserve" font-family="Helvetica,Helvetica" font-size="26.0" fill="#E2E2E2" transform="matrix(1.00, 0.00, -0.00, -1.00, 96.2, 47.2)">e</text><text xml:space="preserve" font-family="Helvetica,Helvetica" font-size="26.0" fill="#E2E2E2" transform="matrix(1.00, 0.00, -0.00, -1.00, 110.7, 47.2)">d</text><text xml:space="preserve" font-family="Helvetica,Helvetica" font-size="26.0" fill="#E2E2E2" transform="matrix(1.00, 0.00, -0.00, -1.00, 125.1, 47.2)">i</text><text xml:space="preserve" font-family="Helvetica,Helvetica" font-size="26.0" fill="#E2E2E2" transform="matrix(1.00, 0.00, -0.00, -1.00, 130.9, 47.2)">t</text><text xml:space="preserve" font-family="Helvetica,Helvetica" font-size="26.0" fill="#E2E2E2" transform="matrix(1.00, 0.00, -0.00, -1.00, 138.1, 47.2)"> </text><text xml:space="preserve" font-family="Helvetica,Helvetica" font-size="26.0" fill="#E2E2E2" transform="matrix(1.00, 0.00, -0.00, -1.00, 145.4, 47.2)">C</text><text xml:space="preserve" font-family="Helvetica,Helvetica" font-size="26.0" fill="#E2E2E2" transform="matrix(1.00, 0.00, -0.00, -1.00, 164.1, 47.2)">a</text><text xml:space="preserve" font-family="Helvetica,Helvetica" font-size="26.0" fill="#E2E2E2" transform="matrix(1.00, 0.00, -0.00, -1.00, 178.6, 47.2)">r</text><text xml:space="preserve" font-family="Helvetica,Helvetica" font-size="26.0" fill="#E2E2E2" transform="matrix(1.00, 0.00, -0.00, -1.00, 187.3, 47.2)">d</text><text xml:space="preserve" font-family="Helvetica,Helvetica" font-size="26.0" fill="#E2E2E2" transform="matrix(1.00, 0.00, -0.00, -1.00, 201.7, 47.2)">s</text></g></g><g><clipPath id="clip0x6000068b51e0"><path d="M 0.4 -0.5 L 283.1 -0.5 L 283.1 36.5 L 0.4 36.5 Z M 0.4 -0.5 "></path></clipPath><g clip-path="url(#clip0x6000068b51e0)"><text xml:space="preserve" font-family="Helvetica,Helvetica" font-size="22.0" fill="#E2E2E2" transform="matrix(1.00, 0.00, -0.00, -1.00, 15.2, 10.1)">L</text><text xml:space="preserve" font-family="Helvetica,Helvetica" font-size="22.0" fill="#E2E2E2" transform="matrix(1.00, 0.00, -0.00, -1.00, 27.4, 10.1)">o</text><text xml:space="preserve" font-family="Helvetica,Helvetica" font-size="22.0" fill="#E2E2E2" transform="matrix(1.00, 0.00, -0.00, -1.00, 39.7, 10.1)">r</text><text xml:space="preserve" font-family="Helvetica,Helvetica" font-size="22.0" fill="#E2E2E2" transform="matrix(1.00, 0.00, -0.00, -1.00, 47.0, 10.1)">e</text><text xml:space="preserve" font-family="Helvetica,Helvetica" font-size="22.0" fill="#E2E2E2" transform="matrix(1.00, 0.00, -0.00, -1.00, 59.2, 10.1)">m</text><text xml:space="preserve" font-family="Helvetica,Helvetica" font-size="22.0" fill="#E2E2E2" transform="matrix(1.00, 0.00, -0.00, -1.00, 77.6, 10.1)"> </text><text xml:space="preserve" font-family="Helvetica,Helvetica" font-size="22.0" fill="#E2E2E2" transform="matrix(1.00, 0.00, -0.00, -1.00, 83.7, 10.1)">i</text><text xml:space="preserve" font-family="Helvetica,Helvetica" font-size="22.0" fill="#E2E2E2" transform="matrix(1.00, 0.00, -0.00, -1.00, 88.6, 10.1)">p</text><text xml:space="preserve" font-family="Helvetica,Helvetica" font-size="22.0" fill="#E2E2E2" transform="matrix(1.00, 0.00, -0.00, -1.00, 100.8, 10.1)">s</text><text xml:space="preserve" font-family="Helvetica,Helvetica" font-size="22.0" fill="#E2E2E2" transform="matrix(1.00, 0.00, -0.00, -1.00, 111.8, 10.1)">m</text><text xml:space="preserve" font-family="Helvetica,Helvetica" font-size="22.0" fill="#E2E2E2" transform="matrix(1.00, 0.00, -0.00, -1.00, 130.1, 10.1)"> </text><text xml:space="preserve" font-family="Helvetica,Helvetica" font-size="22.0" fill="#E2E2E2" transform="matrix(1.00, 0.00, -0.00, -1.00, 136.2, 10.1)">d</text><text xml:space="preserve" font-family="Helvetica,Helvetica" font-size="22.0" fill="#E2E2E2" transform="matrix(1.00, 0.00, -0.00, -1.00, 148.5, 10.1)">o</text><text xml:space="preserve" font-family="Helvetica,Helvetica" font-size="22.0" fill="#E2E2E2" transform="matrix(1.00, 0.00, -0.00, -1.00, 160.7, 10.1)">l</text><text xml:space="preserve" font-family="Helvetica,Helvetica" font-size="22.0" fill="#E2E2E2" transform="matrix(1.00, 0.00, -0.00, -1.00, 165.6, 10.1)">o</text><text xml:space="preserve" font-family="Helvetica,Helvetica" font-size="22.0" fill="#E2E2E2" transform="matrix(1.00, 0.00, -0.00, -1.00, 177.8, 10.1)">r</text><text xml:space="preserve" font-family="Helvetica,Helvetica" font-size="22.0" fill="#E2E2E2" transform="matrix(1.00, 0.00, -0.00, -1.00, 185.2, 10.1)"> </text><text xml:space="preserve" font-family="Helvetica,Helvetica" font-size="22.0" fill="#E2E2E2" transform="matrix(1.00, 0.00, -0.00, -1.00, 191.3, 10.1)">s</text><text xml:space="preserve" font-family="Helvetica,Helvetica" font-size="22.0" fill="#E2E2E2" transform="matrix(1.00, 0.00, -0.00, -1.00, 202.3, 10.1)">i</text><text xml:space="preserve" font-family="Helvetica,Helvetica" font-size="22.0" fill="#E2E2E2" transform="matrix(1.00, 0.00, -0.00, -1.00, 207.2, 10.1)">t</text><text xml:space="preserve" font-family="Helvetica,Helvetica" font-size="22.0" fill="#E2E2E2" transform="matrix(1.00, 0.00, -0.00, -1.00, 213.3, 10.1)"> </text><text xml:space="preserve" font-family="Helvetica,Helvetica" font-size="22.0" fill="#E2E2E2" transform="matrix(1.00, 0.00, -0.00, -1.00, 219.4, 10.1)">a</text><text xml:space="preserve" font-family="Helvetica,Helvetica" font-size="22.0" fill="#E2E2E2" transform="matrix(1.00, 0.00, -0.00, -1.00, 231.6, 10.1)">m</text><text xml:space="preserve" font-family="Helvetica,Helvetica" font-size="22.0" fill="#E2E2E2" transform="matrix(1.00, 0.00, -0.00, -1.00, 250.0, 10.1)">e</text><text xml:space="preserve" font-family="Helvetica,Helvetica" font-size="22.0" fill="#E2E2E2" transform="matrix(1.00, 0.00, -0.00, -1.00, 262.2, 10.1)">t</text></g></g></g></svg>