<?xml version="1.0" encoding="UTF-8" standalone="no"?><svg xmlns="http://www.w3.org/2000/svg" xmlns:xlink="http://www.w3.org/1999/xlink" clip-rule="evenodd" stroke-miterlimit="10" viewBox="0 0 283 310"><desc>SVG generated by Keynote</desc><defs></defs><g transform="matrix(1.00, 0.00, -0.00, -1.00, 0.0, 310.0)"><g><clipPath id="clip0x610005ea0540"><path d="M 30.6 88.4 L 251.6 88.4 L 251.6 309.4 L 30.6 309.4 Z M 30.6 88.4 "></path></clipPath><g clip-path="url(#clip0x610005ea0540)"><path d="M 31.0 309.0 L 252.0 309.0 L 252.0 88.0 L 31.0 88.0 Z M 31.0 309.0 " fill="#000000" fill-opacity="0.00"></path></g></g><g><clipPath id="clip0x610005ea0600"><path d="M 30.6 88.4 L 251.6 88.4 L 251.6 309.4 L 30.6 309.4 Z M 30.6 88.4 "></path></clipPath><g clip-path="url(#clip0x610005ea0600)"><g><g><clipPath id="clip0x610005ea07e0"><path d="M 30.0 88.0 L 252.0 88.0 L 252.0 310.0 L 30.0 310.0 Z M 30.0 88.0 "></path></clipPath><g clip-path="url(#clip0x610005ea07e0)"><g><g><clipPath id="clip0x610005ea09c0"><path d="M 30.0 88.0 L 252.0 88.0 L 252.0 310.0 L 30.0 310.0 Z M 30.0 88.0 "></path></clipPath><g clip-path="url(#clip0x610005ea09c0)"><path d="M 141.0 199.0 L 248.2 223.7 C 237.5 270.2 198.1 304.4 150.6 308.6 Z M 141.0 199.0 " fill="#55BE97"></path></g></g></g></g></g><g><clipPath id="clip0x610005ea0c00"><path d="M 30.0 88.0 L 252.0 88.0 L 252.0 310.0 L 30.0 310.0 Z M 30.0 88.0 "></path></clipPath><g clip-path="url(#clip0x610005ea0c00)"><g><g><clipPath id="clip0x610005ea0de0"><path d="M 30.0 88.0 L 252.0 88.0 L 252.0 310.0 L 30.0 310.0 Z M 30.0 88.0 "></path></clipPath><g clip-path="url(#clip0x610005ea0de0)"><path d="M 141.0 199.0 L 150.6 308.6 C 90.1 313.9 36.7 269.1 31.4 208.6 C 26.1 148.1 70.9 94.7 131.4 89.4 C 191.9 84.1 245.3 128.9 250.6 189.4 C 251.6 200.9 250.8 212.5 248.2 223.7 Z M 141.0 199.0 " fill="#62D7AD"></path></g></g></g></g></g></g></g></g><g><clipPath id="clip0x610005ea1020"><path d="M 48.7 106.3 L 233.8 106.3 L 233.8 291.3 L 48.7 291.3 Z M 48.7 106.3 "></path></clipPath><g clip-path="url(#clip0x610005ea1020)"><path d="M 206.0 263.5 C 241.7 227.8 241.7 169.8 206.0 134.1 C 170.2 98.3 112.3 98.3 76.5 134.1 C 40.8 169.8 40.8 227.8 76.5 263.5 C 112.3 299.3 170.2 299.3 206.0 263.5 Z M 206.0 263.5 " fill="#5A6378"></path></g></g><g><clipPath id="clip0x610005ea1260"><path d="M 82.5 152.4 L 200.0 152.4 L 200.0 245.2 L 82.5 245.2 Z M 82.5 152.4 "></path></clipPath><g clip-path="url(#clip0x610005ea1260)"><text xml:space="preserve" font-family="Sosa-Regular,Sosa" font-size="60.0" fill="#E2E2E2" transform="matrix(1.00, 0.00, -0.00, -1.00, 111.3, 185.8)">Ö</text><text xml:space="preserve" font-family="Sosa-Regular,Sosa" font-size="60.0" fill="#E2E2E2" transform="matrix(1.00, 0.00, -0.00, -1.00, 171.3, 185.8)"> </text><text xml:space="preserve" font-family="Sosa-Regular,Sosa" font-size="60.0" fill="#E2E2E2" transform="matrix(1.00, 0.00, -0.00, -1.00, 184.1, 185.8)"> </text></g></g><g><clipPath id="clip0x610005ea1560"><path d="M 12.8 34.7 L 269.7 34.7 L 269.7 78.7 L 12.8 78.7 Z M 12.8 34.7 "></path></clipPath><g clip-path="url(#clip0x610005ea1560)"><text xml:space="preserve" font-family="Helvetica,Helvetica" font-size="26.0" fill="#E2E2E2" transform="matrix(1.00, 0.00, -0.00, -1.00, 44.5, 47.2)">D</text><text xml:space="preserve" font-family="Helvetica,Helvetica" font-size="26.0" fill="#E2E2E2" transform="matrix(1.00, 0.00, -0.00, -1.00, 63.2, 47.2)">i</text><text xml:space="preserve" font-family="Helvetica,Helvetica" font-size="26.0" fill="#E2E2E2" transform="matrix(1.00, 0.00, -0.00, -1.00, 69.0, 47.2)">r</text><text xml:space="preserve" font-family="Helvetica,Helvetica" font-size="26.0" fill="#E2E2E2" transform="matrix(1.00, 0.00, -0.00, -1.00, 77.7, 47.2)">e</text><text xml:space="preserve" font-family="Helvetica,Helvetica" font-size="26.0" fill="#E2E2E2" transform="matrix(1.00, 0.00, -0.00, -1.00, 92.1, 47.2)">c</text><text xml:space="preserve" font-family="Helvetica,Helvetica" font-size="26.0" fill="#E2E2E2" transform="matrix(1.00, 0.00, -0.00, -1.00, 105.1, 47.2)">t</text><text xml:space="preserve" font-family="Helvetica,Helvetica" font-size="26.0" fill="#E2E2E2" transform="matrix(1.00, 0.00, -0.00, -1.00, 112.4, 47.2)"> </text><text xml:space="preserve" font-family="Helvetica,Helvetica" font-size="26.0" fill="#E2E2E2" transform="matrix(1.00, 0.00, -0.00, -1.00, 119.6, 47.2)">M</text><text xml:space="preserve" font-family="Helvetica,Helvetica" font-size="26.0" fill="#E2E2E2" transform="matrix(1.00, 0.00, -0.00, -1.00, 141.2, 47.2)">e</text><text xml:space="preserve" font-family="Helvetica,Helvetica" font-size="26.0" fill="#E2E2E2" transform="matrix(1.00, 0.00, -0.00, -1.00, 155.7, 47.2)">s</text><text xml:space="preserve" font-family="Helvetica,Helvetica" font-size="26.0" fill="#E2E2E2" transform="matrix(1.00, 0.00, -0.00, -1.00, 168.7, 47.2)">s</text><text xml:space="preserve" font-family="Helvetica,Helvetica" font-size="26.0" fill="#E2E2E2" transform="matrix(1.00, 0.00, -0.00, -1.00, 181.7, 47.2)">a</text><text xml:space="preserve" font-family="Helvetica,Helvetica" font-size="26.0" fill="#E2E2E2" transform="matrix(1.00, 0.00, -0.00, -1.00, 196.2, 47.2)">g</text><text xml:space="preserve" font-family="Helvetica,Helvetica" font-size="26.0" fill="#E2E2E2" transform="matrix(1.00, 0.00, -0.00, -1.00, 210.6, 47.2)">e</text><text xml:space="preserve" font-family="Helvetica,Helvetica" font-size="26.0" fill="#E2E2E2" transform="matrix(1.00, 0.00, -0.00, -1.00, 225.1, 47.2)">s</text></g></g><g><clipPath id="clip0x610005ea1ce0"><path d="M -0.1 -0.5 L 282.6 -0.5 L 282.6 36.5 L -0.1 36.5 Z M -0.1 -0.5 "></path></clipPath><g clip-path="url(#clip0x610005ea1ce0)"><text xml:space="preserve" font-family="Helvetica,Helvetica" font-size="22.0" fill="#E2E2E2" transform="matrix(1.00, 0.00, -0.00, -1.00, 14.7, 10.1)">L</text><text xml:space="preserve" font-family="Helvetica,Helvetica" font-size="22.0" fill="#E2E2E2" transform="matrix(1.00, 0.00, -0.00, -1.00, 27.0, 10.1)">o</text><text xml:space="preserve" font-family="Helvetica,Helvetica" font-size="22.0" fill="#E2E2E2" transform="matrix(1.00, 0.00, -0.00, -1.00, 39.2, 10.1)">r</text><text xml:space="preserve" font-family="Helvetica,Helvetica" font-size="22.0" fill="#E2E2E2" transform="matrix(1.00, 0.00, -0.00, -1.00, 46.5, 10.1)">e</text><text xml:space="preserve" font-family="Helvetica,Helvetica" font-size="22.0" fill="#E2E2E2" transform="matrix(1.00, 0.00, -0.00, -1.00, 58.8, 10.1)">m</text><text xml:space="preserve" font-family="Helvetica,Helvetica" font-size="22.0" fill="#E2E2E2" transform="matrix(1.00, 0.00, -0.00, -1.00, 77.1, 10.1)"> </text><text xml:space="preserve" font-family="Helvetica,Helvetica" font-size="22.0" fill="#E2E2E2" transform="matrix(1.00, 0.00, -0.00, -1.00, 83.2, 10.1)">i</text><text xml:space="preserve" font-family="Helvetica,Helvetica" font-size="22.0" fill="#E2E2E2" transform="matrix(1.00, 0.00, -0.00, -1.00, 88.1, 10.1)">p</text><text xml:space="preserve" font-family="Helvetica,Helvetica" font-size="22.0" fill="#E2E2E2" transform="matrix(1.00, 0.00, -0.00, -1.00, 100.3, 10.1)">s</text><text xml:space="preserve" font-family="Helvetica,Helvetica" font-size="22.0" fill="#E2E2E2" transform="matrix(1.00, 0.00, -0.00, -1.00, 111.3, 10.1)">m</text><text xml:space="preserve" font-family="Helvetica,Helvetica" font-size="22.0" fill="#E2E2E2" transform="matrix(1.00, 0.00, -0.00, -1.00, 129.7, 10.1)"> </text><text xml:space="preserve" font-family="Helvetica,Helvetica" font-size="22.0" fill="#E2E2E2" transform="matrix(1.00, 0.00, -0.00, -1.00, 135.8, 10.1)">d</text><text xml:space="preserve" font-family="Helvetica,Helvetica" font-size="22.0" fill="#E2E2E2" transform="matrix(1.00, 0.00, -0.00, -1.00, 148.0, 10.1)">o</text><text xml:space="preserve" font-family="Helvetica,Helvetica" font-size="22.0" fill="#E2E2E2" transform="matrix(1.00, 0.00, -0.00, -1.00, 160.2, 10.1)">l</text><text xml:space="preserve" font-family="Helvetica,Helvetica" font-size="22.0" fill="#E2E2E2" transform="matrix(1.00, 0.00, -0.00, -1.00, 165.1, 10.1)">o</text><text xml:space="preserve" font-family="Helvetica,Helvetica" font-size="22.0" fill="#E2E2E2" transform="matrix(1.00, 0.00, -0.00, -1.00, 177.4, 10.1)">r</text><text xml:space="preserve" font-family="Helvetica,Helvetica" font-size="22.0" fill="#E2E2E2" transform="matrix(1.00, 0.00, -0.00, -1.00, 184.7, 10.1)"> </text><text xml:space="preserve" font-family="Helvetica,Helvetica" font-size="22.0" fill="#E2E2E2" transform="matrix(1.00, 0.00, -0.00, -1.00, 190.8, 10.1)">s</text><text xml:space="preserve" font-family="Helvetica,Helvetica" font-size="22.0" fill="#E2E2E2" transform="matrix(1.00, 0.00, -0.00, -1.00, 201.8, 10.1)">i</text><text xml:space="preserve" font-family="Helvetica,Helvetica" font-size="22.0" fill="#E2E2E2" transform="matrix(1.00, 0.00, -0.00, -1.00, 206.7, 10.1)">t</text><text xml:space="preserve" font-family="Helvetica,Helvetica" font-size="22.0" fill="#E2E2E2" transform="matrix(1.00, 0.00, -0.00, -1.00, 212.8, 10.1)"> </text><text xml:space="preserve" font-family="Helvetica,Helvetica" font-size="22.0" fill="#E2E2E2" transform="matrix(1.00, 0.00, -0.00, -1.00, 218.9, 10.1)">a</text><text xml:space="preserve" font-family="Helvetica,Helvetica" font-size="22.0" fill="#E2E2E2" transform="matrix(1.00, 0.00, -0.00, -1.00, 231.2, 10.1)">m</text><text xml:space="preserve" font-family="Helvetica,Helvetica" font-size="22.0" fill="#E2E2E2" transform="matrix(1.00, 0.00, -0.00, -1.00, 249.5, 10.1)">e</text><text xml:space="preserve" font-family="Helvetica,Helvetica" font-size="22.0" fill="#E2E2E2" transform="matrix(1.00, 0.00, -0.00, -1.00, 261.7, 10.1)">t</text></g></g></g></svg>