<?xml version="1.0" encoding="UTF-8" standalone="no"?><svg xmlns="http://www.w3.org/2000/svg" xmlns:xlink="http://www.w3.org/1999/xlink" clip-rule="evenodd" stroke-miterlimit="10" viewBox="0 0 565 70"><desc>SVG generated by Keynote</desc><defs></defs><g transform="matrix(1.00, 0.00, -0.00, -1.00, 0.0, 70.0)"><g><clipPath id="clip0x6100042bfe00"><path d="M 2.5 1.1 L 487.8 1.1 L 487.8 33.4 L 2.5 33.4 Z M 2.5 1.1 "></path></clipPath><g clip-path="url(#clip0x6100042bfe00)"><path d="M 3.0 32.0 L 487.0 32.0 L 487.0 2.0 L 3.0 2.0 Z M 3.5 32.4 " fill="#677188"></path></g></g><g><clipPath id="clip0x6100042bfc80"><path d="M 2.5 1.3 L 420.3 1.3 L 420.3 33.4 L 2.5 33.4 Z M 2.5 1.3 "></path></clipPath><g clip-path="url(#clip0x6100042bfc80)"><path d="M 3.0 32.0 L 419.0 32.0 L 419.0 2.0 L 3.0 2.0 Z M 3.5 32.4 " fill="#54C6E1"></path></g></g><g><clipPath id="clip0x6100044a0000"><path d="M 0.3 32.7 L 131.7 32.7 L 131.7 69.7 L 0.3 69.7 Z M 0.3 32.7 "></path></clipPath><g clip-path="url(#clip0x6100044a0000)"><text xml:space="preserve" font-family="Helvetica,Helvetica" font-size="22.0" fill="#E2E2E2" transform="matrix(1.00, 0.00, -0.00, -1.00, 5.8, 43.3)">W</text><text xml:space="preserve" font-family="Helvetica,Helvetica" font-size="22.0" fill="#E2E2E2" transform="matrix(1.00, 0.00, -0.00, -1.00, 26.2, 43.3)">e</text><text xml:space="preserve" font-family="Helvetica,Helvetica" font-size="22.0" fill="#E2E2E2" transform="matrix(1.00, 0.00, -0.00, -1.00, 38.4, 43.3)">b</text><text xml:space="preserve" font-family="Helvetica,Helvetica" font-size="22.0" fill="#E2E2E2" transform="matrix(1.00, 0.00, -0.00, -1.00, 50.6, 43.3)"> </text><text xml:space="preserve" font-family="Helvetica,Helvetica" font-size="22.0" fill="#E2E2E2" transform="matrix(1.00, 0.00, -0.00, -1.00, 56.7, 43.3)">D</text><text xml:space="preserve" font-family="Helvetica,Helvetica" font-size="22.0" fill="#E2E2E2" transform="matrix(1.00, 0.00, -0.00, -1.00, 72.6, 43.3)">e</text><text xml:space="preserve" font-family="Helvetica,Helvetica" font-size="22.0" fill="#E2E2E2" transform="matrix(1.00, 0.00, -0.00, -1.00, 84.9, 43.3)">s</text><text xml:space="preserve" font-family="Helvetica,Helvetica" font-size="22.0" fill="#E2E2E2" transform="matrix(1.00, 0.00, -0.00, -1.00, 95.9, 43.3)">i</text><text xml:space="preserve" font-family="Helvetica,Helvetica" font-size="22.0" fill="#E2E2E2" transform="matrix(1.00, 0.00, -0.00, -1.00, 100.8, 43.3)">g</text><text xml:space="preserve" font-family="Helvetica,Helvetica" font-size="22.0" fill="#E2E2E2" transform="matrix(1.00, 0.00, -0.00, -1.00, 113.0, 43.3)">n</text></g></g><g><clipPath id="clip0x6100044a0600"><path d="M 492.4 0.0 L 564.9 0.0 L 564.9 34.1 L 492.4 34.1 Z M 492.4 0.0 "></path></clipPath><g clip-path="url(#clip0x6100044a0600)"><path d="M 500.6 33.0 C 499.2 33.1 498.0 32.0 498.0 30.6 L 498.0 21.2 L 493.4 16.0 L 498.0 10.8 L 498.0 3.6 C 498.0 2.2 499.2 1.0 500.6 1.0 L 561.3 1.0 C 562.7 1.0 564.0 2.2 564.0 3.6 L 564.0 30.6 C 564.0 32.0 562.7 33.0 561.3 33.0 L 500.6 33.0 Z M 500.6 33.1 " fill="#E2E2E2"></path></g></g><g><clipPath id="clip0x6100044a0840"><path d="M 507.9 2.8 L 554.0 2.8 L 554.0 33.8 L 507.9 33.8 Z M 507.9 2.8 "></path></clipPath><g clip-path="url(#clip0x6100044a0840)"><text xml:space="preserve" font-family="Helvetica,Helvetica" font-size="18.0" fill="#5A6378" transform="matrix(1.00, 0.00, -0.00, -1.00, 512.9, 11.4)">9</text><text xml:space="preserve" font-family="Helvetica,Helvetica" font-size="18.0" fill="#5A6378" transform="matrix(1.00, 0.00, -0.00, -1.00, 522.9, 11.4)">3</text><text xml:space="preserve" font-family="Helvetica,Helvetica" font-size="18.0" fill="#5A6378" transform="matrix(1.00, 0.00, -0.00, -1.00, 533.0, 11.4)">%</text></g></g></g></svg>