<?xml version="1.0" encoding="UTF-8" standalone="no"?><svg xmlns="http://www.w3.org/2000/svg" xmlns:xlink="http://www.w3.org/1999/xlink" clip-rule="evenodd" stroke-miterlimit="10" viewBox="0 0 567 70"><desc>SVG generated by Keynote</desc><defs></defs><g transform="matrix(1.00, 0.00, -0.00, -1.00, 0.0, 70.0)"><g><clipPath id="clip0x608004aaaaa0"><path d="M 4.5 1.3 L 489.8 1.3 L 489.8 33.3 L 4.5 33.3 Z M 4.5 1.3 "></path></clipPath><g clip-path="url(#clip0x608004aaaaa0)"><path d="M 5.0 32.0 L 489.0 32.0 L 489.0 2.0 L 5.0 2.0 Z M 5.5 32.3 " fill="#677188"></path></g></g><g><clipPath id="clip0x608004aab280"><path d="M 4.5 1.7 L 407.7 1.7 L 407.7 33.3 L 4.5 33.3 Z M 4.5 1.7 "></path></clipPath><g clip-path="url(#clip0x608004aab280)"><path d="M 5.0 32.0 L 407.0 32.0 L 407.0 3.0 L 5.0 3.0 Z M 5.5 32.3 " fill="#FF607B"></path></g></g><g><clipPath id="clip0x608004aab4c0"><path d="M 0.5 32.5 L 117.7 32.5 L 117.7 69.5 L 0.5 69.5 Z M 0.5 32.5 "></path></clipPath><g clip-path="url(#clip0x608004aab4c0)"><text xml:space="preserve" font-family="Helvetica,Helvetica" font-size="22.0" fill="#E2E2E2" transform="matrix(1.00, 0.00, -0.00, -1.00, 6.5, 43.1)">P</text><text xml:space="preserve" font-family="Helvetica,Helvetica" font-size="22.0" fill="#E2E2E2" transform="matrix(1.00, 0.00, -0.00, -1.00, 21.1, 43.1)">h</text><text xml:space="preserve" font-family="Helvetica,Helvetica" font-size="22.0" fill="#E2E2E2" transform="matrix(1.00, 0.00, -0.00, -1.00, 33.4, 43.1)">o</text><text xml:space="preserve" font-family="Helvetica,Helvetica" font-size="22.0" fill="#E2E2E2" transform="matrix(1.00, 0.00, -0.00, -1.00, 45.6, 43.1)">t</text><text xml:space="preserve" font-family="Helvetica,Helvetica" font-size="22.0" fill="#E2E2E2" transform="matrix(1.00, 0.00, -0.00, -1.00, 51.7, 43.1)">o</text><text xml:space="preserve" font-family="Helvetica,Helvetica" font-size="22.0" fill="#E2E2E2" transform="matrix(1.00, 0.00, -0.00, -1.00, 64.0, 43.1)">s</text><text xml:space="preserve" font-family="Helvetica,Helvetica" font-size="22.0" fill="#E2E2E2" transform="matrix(1.00, 0.00, -0.00, -1.00, 75.0, 43.1)">h</text><text xml:space="preserve" font-family="Helvetica,Helvetica" font-size="22.0" fill="#E2E2E2" transform="matrix(1.00, 0.00, -0.00, -1.00, 87.2, 43.1)">o</text><text xml:space="preserve" font-family="Helvetica,Helvetica" font-size="22.0" fill="#E2E2E2" transform="matrix(1.00, 0.00, -0.00, -1.00, 99.5, 43.1)">p</text></g></g><g><clipPath id="clip0x608004aaba00"><path d="M 493.4 0.3 L 566.5 0.3 L 566.5 34.4 L 493.4 34.4 Z M 493.4 0.3 "></path></clipPath><g clip-path="url(#clip0x608004aaba00)"><path d="M 502.2 33.0 C 500.9 33.4 500.0 32.2 500.0 30.8 L 500.0 21.5 L 494.4 16.3 L 500.0 11.0 L 500.0 3.8 C 500.0 2.4 500.9 1.0 502.2 1.0 L 563.0 1.0 C 564.4 1.0 566.0 2.4 566.0 3.8 L 566.0 30.8 C 566.0 32.2 564.4 33.0 563.0 33.0 L 502.2 33.0 Z M 502.2 33.4 " fill="#E2E2E2"></path></g></g><g><clipPath id="clip0x608004aabc40"><path d="M 509.6 3.0 L 555.6 3.0 L 555.6 34.0 L 509.6 34.0 Z M 509.6 3.0 "></path></clipPath><g clip-path="url(#clip0x608004aabc40)"><text xml:space="preserve" font-family="Helvetica,Helvetica" font-size="18.0" fill="#5A6378" transform="matrix(1.00, 0.00, -0.00, -1.00, 514.6, 11.7)">9</text><text xml:space="preserve" font-family="Helvetica,Helvetica" font-size="18.0" fill="#5A6378" transform="matrix(1.00, 0.00, -0.00, -1.00, 524.6, 11.7)">0</text><text xml:space="preserve" font-family="Helvetica,Helvetica" font-size="18.0" fill="#5A6378" transform="matrix(1.00, 0.00, -0.00, -1.00, 534.6, 11.7)">%</text></g></g></g></svg>