<?xml version="1.0" encoding="UTF-8" standalone="no"?><svg xmlns="http://www.w3.org/2000/svg" xmlns:xlink="http://www.w3.org/1999/xlink" clip-rule="evenodd" stroke-miterlimit="10" viewBox="0 0 532 531"><desc>SVG generated by Keynote</desc><defs></defs><g transform="matrix(1.00, 0.00, -0.00, -1.00, 0.0, 531.0)"><g><clipPath id="clip0x600004ea2340"><path d="M 0.6 0.3 L 531.0 0.3 L 531.0 530.7 L 0.6 530.7 Z M 0.6 0.3 "></path></clipPath><g clip-path="url(#clip0x600004ea2340)"><path d="M 445.1 76.4 C 546.9 178.2 546.9 343.2 445.1 445.1 C 343.2 546.9 178.2 546.9 76.4 445.1 C -25.5 343.2 -25.5 178.2 76.4 76.4 C 178.2 -25.5 343.2 -25.5 445.1 76.4 Z M 445.1 76.4 " fill="none" stroke="#E2E2E2" stroke-width="7.00" transform="matrix(1.00, 0.00, 0.00, -1.00, 5.1, 526.2)"></path></g></g><g><clipPath id="clip0x600004ea2820"><path d="M 24.6 24.3 L 507.0 24.3 L 507.0 506.6 L 24.6 506.6 Z M 24.6 24.3 "></path></clipPath><g clip-path="url(#clip0x600004ea2820)"><path d="M 433.9 433.5 C 526.7 340.7 526.7 190.2 433.9 97.4 C 341.0 4.6 190.6 4.6 97.7 97.4 C 4.9 190.2 4.9 340.7 97.7 433.5 C 190.6 526.4 341.0 526.4 433.9 433.5 Z M 433.9 433.5 " fill="#F6F6F6"></path><path d="M 405.7 69.6 C 498.5 162.4 498.5 312.9 405.7 405.7 C 312.9 498.5 162.4 498.5 69.6 405.7 C -23.2 312.9 -23.2 162.4 69.6 69.6 C 162.4 -23.2 312.9 -23.2 405.7 69.6 Z M 405.7 69.6 " fill="none" stroke="#E2E2E2" stroke-width="5.00" transform="matrix(1.00, 0.00, 0.00, -1.00, 28.1, 503.1)"></path></g></g><g><clipPath id="clip0x600004ea2b20"><path d="M 28.1 27.8 L 503.5 27.8 L 503.5 503.1 L 28.1 503.1 Z M 28.1 27.8 "></path></clipPath><g clip-path="url(#clip0x600004ea2b20)"><text xml:space="preserve" font-family="Helvetica,Helvetica" font-size="27.0" fill="#677188" transform="matrix(1.00, 0.00, -0.00, -1.00, 153.2, 255.8)">I</text><text xml:space="preserve" font-family="Helvetica,Helvetica" font-size="27.0" fill="#677188" transform="matrix(1.00, 0.00, -0.00, -1.00, 160.7, 255.8)">m</text><text xml:space="preserve" font-family="Helvetica,Helvetica" font-size="27.0" fill="#677188" transform="matrix(1.00, 0.00, -0.00, -1.00, 183.2, 255.8)">a</text><text xml:space="preserve" font-family="Helvetica,Helvetica" font-size="27.0" fill="#677188" transform="matrix(1.00, 0.00, -0.00, -1.00, 198.2, 255.8)">g</text><text xml:space="preserve" font-family="Helvetica,Helvetica" font-size="27.0" fill="#677188" transform="matrix(1.00, 0.00, -0.00, -1.00, 213.3, 255.8)">e</text><text xml:space="preserve" font-family="Helvetica,Helvetica" font-size="27.0" fill="#677188" transform="matrix(1.00, 0.00, -0.00, -1.00, 228.3, 255.8)"> </text><text xml:space="preserve" font-family="Helvetica,Helvetica" font-size="27.0" fill="#677188" transform="matrix(1.00, 0.00, -0.00, -1.00, 235.8, 255.8)">P</text><text xml:space="preserve" font-family="Helvetica,Helvetica" font-size="27.0" fill="#677188" transform="matrix(1.00, 0.00, -0.00, -1.00, 253.8, 255.8)">l</text><text xml:space="preserve" font-family="Helvetica,Helvetica" font-size="27.0" fill="#677188" transform="matrix(1.00, 0.00, -0.00, -1.00, 259.8, 255.8)">a</text><text xml:space="preserve" font-family="Helvetica,Helvetica" font-size="27.0" fill="#677188" transform="matrix(1.00, 0.00, -0.00, -1.00, 274.8, 255.8)">c</text><text xml:space="preserve" font-family="Helvetica,Helvetica" font-size="27.0" fill="#677188" transform="matrix(1.00, 0.00, -0.00, -1.00, 288.3, 255.8)">e</text><text xml:space="preserve" font-family="Helvetica,Helvetica" font-size="27.0" fill="#677188" transform="matrix(1.00, 0.00, -0.00, -1.00, 303.3, 255.8)">h</text><text xml:space="preserve" font-family="Helvetica,Helvetica" font-size="27.0" fill="#677188" transform="matrix(1.00, 0.00, -0.00, -1.00, 318.4, 255.8)">o</text><text xml:space="preserve" font-family="Helvetica,Helvetica" font-size="27.0" fill="#677188" transform="matrix(1.00, 0.00, -0.00, -1.00, 333.4, 255.8)">l</text><text xml:space="preserve" font-family="Helvetica,Helvetica" font-size="27.0" fill="#677188" transform="matrix(1.00, 0.00, -0.00, -1.00, 339.4, 255.8)">d</text><text xml:space="preserve" font-family="Helvetica,Helvetica" font-size="27.0" fill="#677188" transform="matrix(1.00, 0.00, -0.00, -1.00, 354.4, 255.8)">e</text><text xml:space="preserve" font-family="Helvetica,Helvetica" font-size="27.0" fill="#677188" transform="matrix(1.00, 0.00, -0.00, -1.00, 369.4, 255.8)">r</text></g></g></g></svg>