<?xml version="1.0" encoding="UTF-8" standalone="no"?><svg xmlns="http://www.w3.org/2000/svg" xmlns:xlink="http://www.w3.org/1999/xlink" clip-rule="evenodd" stroke-miterlimit="10" viewBox="0 0 269 241"><desc>SVG generated by Keynote</desc><defs></defs><g transform="matrix(1.00, 0.00, -0.00, -1.00, 0.0, 241.0)"><g><clipPath id="clip0x6000082aaec0"><path d="M 0.0 0.4 L 268.1 0.4 L 268.1 240.9 L 0.0 240.9 Z M 0.0 0.4 "></path></clipPath><g clip-path="url(#clip0x6000082aaec0)"><g opacity="0.87"><g><clipPath id="clip0x6000082ab640"><path d="M 1.0 1.0 L 268.0 1.0 L 268.0 240.0 L 1.0 240.0 Z M 1.0 1.0 "></path></clipPath><g clip-path="url(#clip0x6000082ab640)"><path d="M 19.2 238.0 C 16.2 237.9 14.0 235.5 14.0 232.6 L 14.0 202.4 L 3.9 192.6 L 14.0 182.7 L 14.0 8.7 C 14.0 5.8 16.2 3.0 19.2 3.0 L 259.8 3.0 C 262.8 3.0 265.0 5.8 265.0 8.7 L 265.0 232.6 C 265.0 235.5 262.8 238.0 259.8 238.0 L 19.2 238.0 Z M 19.2 237.9 " fill="#677188" fill-opacity="0.70"></path><path d="M 5.3 -0.1 C 2.4 0.0 0.1 2.4 0.1 5.3 L 0.1 35.5 L -10.0 45.3 L 0.1 55.2 L 0.1 229.2 C 0.1 232.1 2.4 234.9 5.3 234.9 L 246.0 234.9 C 248.9 234.9 251.1 232.1 251.1 229.2 L 251.1 5.3 C 251.1 2.4 248.9 -0.1 246.0 -0.1 L 5.3 -0.1 Z M 5.3 0.0 " fill="none" stroke="#54C6E1" stroke-width="4.00" transform="matrix(1.00, 0.00, 0.00, -1.00, 13.9, 237.9)"></path></g></g></g></g></g><g><clipPath id="clip0x6000082ab940"><path d="M 0.1 0.6 L 268.1 0.6 L 268.1 240.9 L 0.1 240.9 Z M 0.1 0.6 "></path></clipPath><g clip-path="url(#clip0x6000082ab940)"><path d="M 5.3 -0.1 C 2.4 0.0 0.1 2.4 0.1 5.3 L 0.1 36.0 L -9.9 45.9 L 0.1 55.8 L 0.1 229.0 C 0.1 232.0 2.4 233.9 5.3 233.9 L 246.0 233.9 C 248.9 233.9 251.1 232.0 251.1 229.0 L 251.1 5.3 C 251.1 2.4 248.9 -0.1 246.0 -0.1 L 5.3 -0.1 Z M 5.3 0.0 " fill="none" stroke="#54C6E1" stroke-width="4.00" transform="matrix(1.00, 0.00, 0.00, -1.00, 13.9, 237.9)"></path></g></g><g><clipPath id="clip0x6000082abb80"><path d="M 83.9 175.3 L 206.2 175.3 L 206.2 223.3 L 83.9 223.3 Z M 83.9 175.3 "></path></clipPath><g clip-path="url(#clip0x6000082abb80)"><text xml:space="preserve" font-family="Helvetica,Helvetica" font-size="28.0" fill="#54C6E1" transform="matrix(1.00, 0.00, -0.00, -1.00, 95.3, 188.8)">E</text><text xml:space="preserve" font-family="Helvetica,Helvetica" font-size="28.0" fill="#54C6E1" transform="matrix(1.00, 0.00, -0.00, -1.00, 113.9, 188.8)">U</text><text xml:space="preserve" font-family="Helvetica,Helvetica" font-size="28.0" fill="#54C6E1" transform="matrix(1.00, 0.00, -0.00, -1.00, 134.2, 188.8)">R</text><text xml:space="preserve" font-family="Helvetica,Helvetica" font-size="28.0" fill="#54C6E1" transform="matrix(1.00, 0.00, -0.00, -1.00, 154.4, 188.8)">O</text><text xml:space="preserve" font-family="Helvetica,Helvetica" font-size="28.0" fill="#54C6E1" transform="matrix(1.00, 0.00, -0.00, -1.00, 176.2, 188.8)">P</text></g></g><g><clipPath id="clip0x6000082abf40"><path d="M 45.0 21.2 L 245.1 21.2 L 245.1 176.2 L 45.0 176.2 Z M 45.0 21.2 "></path></clipPath><g clip-path="url(#clip0x6000082abf40)"><text xml:space="preserve" font-family="Helvetica,Helvetica" font-size="18.0" fill="#E2E2E2" transform="matrix(1.00, 0.00, -0.00, -1.00, 59.0, 146.3)">L</text><text xml:space="preserve" font-family="Helvetica,Helvetica" font-size="18.0" fill="#E2E2E2" transform="matrix(1.00, 0.00, -0.00, -1.00, 69.0, 146.3)">o</text><text xml:space="preserve" font-family="Helvetica,Helvetica" font-size="18.0" fill="#E2E2E2" transform="matrix(1.00, 0.00, -0.00, -1.00, 79.1, 146.3)">r</text><text xml:space="preserve" font-family="Helvetica,Helvetica" font-size="18.0" fill="#E2E2E2" transform="matrix(1.00, 0.00, -0.00, -1.00, 85.1, 146.3)">e</text><text xml:space="preserve" font-family="Helvetica,Helvetica" font-size="18.0" fill="#E2E2E2" transform="matrix(1.00, 0.00, -0.00, -1.00, 95.1, 146.3)">m</text><text xml:space="preserve" font-family="Helvetica,Helvetica" font-size="18.0" fill="#E2E2E2" transform="matrix(1.00, 0.00, -0.00, -1.00, 110.1, 146.3)"> </text><text xml:space="preserve" font-family="Helvetica,Helvetica" font-size="18.0" fill="#E2E2E2" transform="matrix(1.00, 0.00, -0.00, -1.00, 115.1, 146.3)">i</text><text xml:space="preserve" font-family="Helvetica,Helvetica" font-size="18.0" fill="#E2E2E2" transform="matrix(1.00, 0.00, -0.00, -1.00, 119.1, 146.3)">p</text><text xml:space="preserve" font-family="Helvetica,Helvetica" font-size="18.0" fill="#E2E2E2" transform="matrix(1.00, 0.00, -0.00, -1.00, 129.1, 146.3)">s</text><text xml:space="preserve" font-family="Helvetica,Helvetica" font-size="18.0" fill="#E2E2E2" transform="matrix(1.00, 0.00, -0.00, -1.00, 138.1, 146.3)">u</text><text xml:space="preserve" font-family="Helvetica,Helvetica" font-size="18.0" fill="#E2E2E2" transform="matrix(1.00, 0.00, -0.00, -1.00, 148.1, 146.3)">m</text><text xml:space="preserve" font-family="Helvetica,Helvetica" font-size="18.0" fill="#E2E2E2" transform="matrix(1.00, 0.00, -0.00, -1.00, 163.1, 146.3)"> </text><text xml:space="preserve" font-family="Helvetica,Helvetica" font-size="18.0" fill="#E2E2E2" transform="matrix(1.00, 0.00, -0.00, -1.00, 168.1, 146.3)">d</text><text xml:space="preserve" font-family="Helvetica,Helvetica" font-size="18.0" fill="#E2E2E2" transform="matrix(1.00, 0.00, -0.00, -1.00, 178.1, 146.3)">o</text><text xml:space="preserve" font-family="Helvetica,Helvetica" font-size="18.0" fill="#E2E2E2" transform="matrix(1.00, 0.00, -0.00, -1.00, 188.1, 146.3)">l</text><text xml:space="preserve" font-family="Helvetica,Helvetica" font-size="18.0" fill="#E2E2E2" transform="matrix(1.00, 0.00, -0.00, -1.00, 192.1, 146.3)">o</text><text xml:space="preserve" font-family="Helvetica,Helvetica" font-size="18.0" fill="#E2E2E2" transform="matrix(1.00, 0.00, -0.00, -1.00, 202.1, 146.3)">r</text><text xml:space="preserve" font-family="Helvetica,Helvetica" font-size="18.0" fill="#E2E2E2" transform="matrix(1.00, 0.00, -0.00, -1.00, 208.1, 146.3)"> </text><text xml:space="preserve" font-family="Helvetica,Helvetica" font-size="18.0" fill="#E2E2E2" transform="matrix(1.00, 0.00, -0.00, -1.00, 213.1, 146.3)">s</text><text xml:space="preserve" font-family="Helvetica,Helvetica" font-size="18.0" fill="#E2E2E2" transform="matrix(1.00, 0.00, -0.00, -1.00, 222.1, 146.3)">i</text><text xml:space="preserve" font-family="Helvetica,Helvetica" font-size="18.0" fill="#E2E2E2" transform="matrix(1.00, 0.00, -0.00, -1.00, 226.1, 146.3)">t</text><text xml:space="preserve" font-family="Helvetica,Helvetica" font-size="18.0" fill="#E2E2E2" transform="matrix(1.00, 0.00, -0.00, -1.00, 231.1, 146.3)"> </text><text xml:space="preserve" font-family="Helvetica,Helvetica" font-size="18.0" fill="#E2E2E2" transform="matrix(1.00, 0.00, -0.00, -1.00, 68.5, 124.3)">a</text><text xml:space="preserve" font-family="Helvetica,Helvetica" font-size="18.0" fill="#E2E2E2" transform="matrix(1.00, 0.00, -0.00, -1.00, 78.5, 124.3)">m</text><text xml:space="preserve" font-family="Helvetica,Helvetica" font-size="18.0" fill="#E2E2E2" transform="matrix(1.00, 0.00, -0.00, -1.00, 93.5, 124.3)">e</text><text xml:space="preserve" font-family="Helvetica,Helvetica" font-size="18.0" fill="#E2E2E2" transform="matrix(1.00, 0.00, -0.00, -1.00, 103.5, 124.3)">t</text><text xml:space="preserve" font-family="Helvetica,Helvetica" font-size="18.0" fill="#E2E2E2" transform="matrix(1.00, 0.00, -0.00, -1.00, 108.5, 124.3)">,</text><text xml:space="preserve" font-family="Helvetica,Helvetica" font-size="18.0" fill="#E2E2E2" transform="matrix(1.00, 0.00, -0.00, -1.00, 113.5, 124.3)"> </text><text xml:space="preserve" font-family="Helvetica,Helvetica" font-size="18.0" fill="#E2E2E2" transform="matrix(1.00, 0.00, -0.00, -1.00, 118.5, 124.3)">c</text><text xml:space="preserve" font-family="Helvetica,Helvetica" font-size="18.0" fill="#E2E2E2" transform="matrix(1.00, 0.00, -0.00, -1.00, 127.5, 124.3)">o</text><text xml:space="preserve" font-family="Helvetica,Helvetica" font-size="18.0" fill="#E2E2E2" transform="matrix(1.00, 0.00, -0.00, -1.00, 137.5, 124.3)">n</text><text xml:space="preserve" font-family="Helvetica,Helvetica" font-size="18.0" fill="#E2E2E2" transform="matrix(1.00, 0.00, -0.00, -1.00, 147.6, 124.3)">s</text><text xml:space="preserve" font-family="Helvetica,Helvetica" font-size="18.0" fill="#E2E2E2" transform="matrix(1.00, 0.00, -0.00, -1.00, 156.6, 124.3)">e</text><text xml:space="preserve" font-family="Helvetica,Helvetica" font-size="18.0" fill="#E2E2E2" transform="matrix(1.00, 0.00, -0.00, -1.00, 166.6, 124.3)">c</text><text xml:space="preserve" font-family="Helvetica,Helvetica" font-size="18.0" fill="#E2E2E2" transform="matrix(1.00, 0.00, -0.00, -1.00, 175.6, 124.3)">t</text><text xml:space="preserve" font-family="Helvetica,Helvetica" font-size="18.0" fill="#E2E2E2" transform="matrix(1.00, 0.00, -0.00, -1.00, 180.6, 124.3)">e</text><text xml:space="preserve" font-family="Helvetica,Helvetica" font-size="18.0" fill="#E2E2E2" transform="matrix(1.00, 0.00, -0.00, -1.00, 190.6, 124.3)">t</text><text xml:space="preserve" font-family="Helvetica,Helvetica" font-size="18.0" fill="#E2E2E2" transform="matrix(1.00, 0.00, -0.00, -1.00, 195.6, 124.3)">u</text><text xml:space="preserve" font-family="Helvetica,Helvetica" font-size="18.0" fill="#E2E2E2" transform="matrix(1.00, 0.00, -0.00, -1.00, 205.6, 124.3)">e</text><text xml:space="preserve" font-family="Helvetica,Helvetica" font-size="18.0" fill="#E2E2E2" transform="matrix(1.00, 0.00, -0.00, -1.00, 215.6, 124.3)">r</text><text xml:space="preserve" font-family="Helvetica,Helvetica" font-size="18.0" fill="#E2E2E2" transform="matrix(1.00, 0.00, -0.00, -1.00, 221.6, 124.3)"> </text><text xml:space="preserve" font-family="Helvetica,Helvetica" font-size="18.0" fill="#E2E2E2" transform="matrix(1.00, 0.00, -0.00, -1.00, 71.5, 102.3)">a</text><text xml:space="preserve" font-family="Helvetica,Helvetica" font-size="18.0" fill="#E2E2E2" transform="matrix(1.00, 0.00, -0.00, -1.00, 81.5, 102.3)">d</text><text xml:space="preserve" font-family="Helvetica,Helvetica" font-size="18.0" fill="#E2E2E2" transform="matrix(1.00, 0.00, -0.00, -1.00, 91.5, 102.3)">i</text><text xml:space="preserve" font-family="Helvetica,Helvetica" font-size="18.0" fill="#E2E2E2" transform="matrix(1.00, 0.00, -0.00, -1.00, 95.5, 102.3)">p</text><text xml:space="preserve" font-family="Helvetica,Helvetica" font-size="18.0" fill="#E2E2E2" transform="matrix(1.00, 0.00, -0.00, -1.00, 105.6, 102.3)">i</text><text xml:space="preserve" font-family="Helvetica,Helvetica" font-size="18.0" fill="#E2E2E2" transform="matrix(1.00, 0.00, -0.00, -1.00, 109.6, 102.3)">s</text><text xml:space="preserve" font-family="Helvetica,Helvetica" font-size="18.0" fill="#E2E2E2" transform="matrix(1.00, 0.00, -0.00, -1.00, 118.6, 102.3)">c</text><text xml:space="preserve" font-family="Helvetica,Helvetica" font-size="18.0" fill="#E2E2E2" transform="matrix(1.00, 0.00, -0.00, -1.00, 127.6, 102.3)">i</text><text xml:space="preserve" font-family="Helvetica,Helvetica" font-size="18.0" fill="#E2E2E2" transform="matrix(1.00, 0.00, -0.00, -1.00, 131.6, 102.3)">n</text><text xml:space="preserve" font-family="Helvetica,Helvetica" font-size="18.0" fill="#E2E2E2" transform="matrix(1.00, 0.00, -0.00, -1.00, 141.6, 102.3)">g</text><text xml:space="preserve" font-family="Helvetica,Helvetica" font-size="18.0" fill="#E2E2E2" transform="matrix(1.00, 0.00, -0.00, -1.00, 151.6, 102.3)"> </text><text xml:space="preserve" font-family="Helvetica,Helvetica" font-size="18.0" fill="#E2E2E2" transform="matrix(1.00, 0.00, -0.00, -1.00, 156.6, 102.3)">e</text><text xml:space="preserve" font-family="Helvetica,Helvetica" font-size="18.0" fill="#E2E2E2" transform="matrix(1.00, 0.00, -0.00, -1.00, 166.6, 102.3)">l</text><text xml:space="preserve" font-family="Helvetica,Helvetica" font-size="18.0" fill="#E2E2E2" transform="matrix(1.00, 0.00, -0.00, -1.00, 170.6, 102.3)">i</text><text xml:space="preserve" font-family="Helvetica,Helvetica" font-size="18.0" fill="#E2E2E2" transform="matrix(1.00, 0.00, -0.00, -1.00, 174.6, 102.3)">t</text><text xml:space="preserve" font-family="Helvetica,Helvetica" font-size="18.0" fill="#E2E2E2" transform="matrix(1.00, 0.00, -0.00, -1.00, 179.6, 102.3)">,</text><text xml:space="preserve" font-family="Helvetica,Helvetica" font-size="18.0" fill="#E2E2E2" transform="matrix(1.00, 0.00, -0.00, -1.00, 184.6, 102.3)"> </text><text xml:space="preserve" font-family="Helvetica,Helvetica" font-size="18.0" fill="#E2E2E2" transform="matrix(1.00, 0.00, -0.00, -1.00, 189.6, 102.3)">s</text><text xml:space="preserve" font-family="Helvetica,Helvetica" font-size="18.0" fill="#E2E2E2" transform="matrix(1.00, 0.00, -0.00, -1.00, 198.6, 102.3)">e</text><text xml:space="preserve" font-family="Helvetica,Helvetica" font-size="18.0" fill="#E2E2E2" transform="matrix(1.00, 0.00, -0.00, -1.00, 208.6, 102.3)">d</text><text xml:space="preserve" font-family="Helvetica,Helvetica" font-size="18.0" fill="#E2E2E2" transform="matrix(1.00, 0.00, -0.00, -1.00, 218.6, 102.3)"> </text><text xml:space="preserve" font-family="Helvetica,Helvetica" font-size="18.0" fill="#E2E2E2" transform="matrix(1.00, 0.00, -0.00, -1.00, 64.0, 80.3)">d</text><text xml:space="preserve" font-family="Helvetica,Helvetica" font-size="18.0" fill="#E2E2E2" transform="matrix(1.00, 0.00, -0.00, -1.00, 74.0, 80.3)">i</text><text xml:space="preserve" font-family="Helvetica,Helvetica" font-size="18.0" fill="#E2E2E2" transform="matrix(1.00, 0.00, -0.00, -1.00, 78.0, 80.3)">a</text><text xml:space="preserve" font-family="Helvetica,Helvetica" font-size="18.0" fill="#E2E2E2" transform="matrix(1.00, 0.00, -0.00, -1.00, 88.1, 80.3)">m</text><text xml:space="preserve" font-family="Helvetica,Helvetica" font-size="18.0" fill="#E2E2E2" transform="matrix(1.00, 0.00, -0.00, -1.00, 103.0, 80.3)"> </text><text xml:space="preserve" font-family="Helvetica,Helvetica" font-size="18.0" fill="#E2E2E2" transform="matrix(1.00, 0.00, -0.00, -1.00, 108.0, 80.3)">n</text><text xml:space="preserve" font-family="Helvetica,Helvetica" font-size="18.0" fill="#E2E2E2" transform="matrix(1.00, 0.00, -0.00, -1.00, 118.1, 80.3)">o</text><text xml:space="preserve" font-family="Helvetica,Helvetica" font-size="18.0" fill="#E2E2E2" transform="matrix(1.00, 0.00, -0.00, -1.00, 128.1, 80.3)">n</text><text xml:space="preserve" font-family="Helvetica,Helvetica" font-size="18.0" fill="#E2E2E2" transform="matrix(1.00, 0.00, -0.00, -1.00, 138.1, 80.3)">u</text><text xml:space="preserve" font-family="Helvetica,Helvetica" font-size="18.0" fill="#E2E2E2" transform="matrix(1.00, 0.00, -0.00, -1.00, 148.1, 80.3)">m</text><text xml:space="preserve" font-family="Helvetica,Helvetica" font-size="18.0" fill="#E2E2E2" transform="matrix(1.00, 0.00, -0.00, -1.00, 163.1, 80.3)">m</text><text xml:space="preserve" font-family="Helvetica,Helvetica" font-size="18.0" fill="#E2E2E2" transform="matrix(1.00, 0.00, -0.00, -1.00, 178.1, 80.3)">y</text><text xml:space="preserve" font-family="Helvetica,Helvetica" font-size="18.0" fill="#E2E2E2" transform="matrix(1.00, 0.00, -0.00, -1.00, 187.1, 80.3)"> </text><text xml:space="preserve" font-family="Helvetica,Helvetica" font-size="18.0" fill="#E2E2E2" transform="matrix(1.00, 0.00, -0.00, -1.00, 192.1, 80.3)">n</text><text xml:space="preserve" font-family="Helvetica,Helvetica" font-size="18.0" fill="#E2E2E2" transform="matrix(1.00, 0.00, -0.00, -1.00, 202.1, 80.3)">i</text><text xml:space="preserve" font-family="Helvetica,Helvetica" font-size="18.0" fill="#E2E2E2" transform="matrix(1.00, 0.00, -0.00, -1.00, 206.1, 80.3)">b</text><text xml:space="preserve" font-family="Helvetica,Helvetica" font-size="18.0" fill="#E2E2E2" transform="matrix(1.00, 0.00, -0.00, -1.00, 216.1, 80.3)">h</text><text xml:space="preserve" font-family="Helvetica,Helvetica" font-size="18.0" fill="#E2E2E2" transform="matrix(1.00, 0.00, -0.00, -1.00, 226.1, 80.3)"> </text><text xml:space="preserve" font-family="Helvetica,Helvetica" font-size="18.0" fill="#E2E2E2" transform="matrix(1.00, 0.00, -0.00, -1.00, 59.0, 58.3)">a</text><text xml:space="preserve" font-family="Helvetica,Helvetica" font-size="18.0" fill="#E2E2E2" transform="matrix(1.00, 0.00, -0.00, -1.00, 69.0, 58.3)">l</text><text xml:space="preserve" font-family="Helvetica,Helvetica" font-size="18.0" fill="#E2E2E2" transform="matrix(1.00, 0.00, -0.00, -1.00, 73.0, 58.3)">i</text><text xml:space="preserve" font-family="Helvetica,Helvetica" font-size="18.0" fill="#E2E2E2" transform="matrix(1.00, 0.00, -0.00, -1.00, 77.0, 58.3)">q</text><text xml:space="preserve" font-family="Helvetica,Helvetica" font-size="18.0" fill="#E2E2E2" transform="matrix(1.00, 0.00, -0.00, -1.00, 87.0, 58.3)">u</text><text xml:space="preserve" font-family="Helvetica,Helvetica" font-size="18.0" fill="#E2E2E2" transform="matrix(1.00, 0.00, -0.00, -1.00, 97.1, 58.3)">a</text><text xml:space="preserve" font-family="Helvetica,Helvetica" font-size="18.0" fill="#E2E2E2" transform="matrix(1.00, 0.00, -0.00, -1.00, 107.1, 58.3)">m</text><text xml:space="preserve" font-family="Helvetica,Helvetica" font-size="18.0" fill="#E2E2E2" transform="matrix(1.00, 0.00, -0.00, -1.00, 122.1, 58.3)"> </text><text xml:space="preserve" font-family="Helvetica,Helvetica" font-size="18.0" fill="#E2E2E2" transform="matrix(1.00, 0.00, -0.00, -1.00, 127.1, 58.3)">e</text><text xml:space="preserve" font-family="Helvetica,Helvetica" font-size="18.0" fill="#E2E2E2" transform="matrix(1.00, 0.00, -0.00, -1.00, 137.1, 58.3)">r</text><text xml:space="preserve" font-family="Helvetica,Helvetica" font-size="18.0" fill="#E2E2E2" transform="matrix(1.00, 0.00, -0.00, -1.00, 143.1, 58.3)">a</text><text xml:space="preserve" font-family="Helvetica,Helvetica" font-size="18.0" fill="#E2E2E2" transform="matrix(1.00, 0.00, -0.00, -1.00, 153.1, 58.3)">t</text><text xml:space="preserve" font-family="Helvetica,Helvetica" font-size="18.0" fill="#E2E2E2" transform="matrix(1.00, 0.00, -0.00, -1.00, 158.1, 58.3)"> </text><text xml:space="preserve" font-family="Helvetica,Helvetica" font-size="18.0" fill="#E2E2E2" transform="matrix(1.00, 0.00, -0.00, -1.00, 163.1, 58.3)">v</text><text xml:space="preserve" font-family="Helvetica,Helvetica" font-size="18.0" fill="#E2E2E2" transform="matrix(1.00, 0.00, -0.00, -1.00, 172.1, 58.3)">o</text><text xml:space="preserve" font-family="Helvetica,Helvetica" font-size="18.0" fill="#E2E2E2" transform="matrix(1.00, 0.00, -0.00, -1.00, 182.1, 58.3)">l</text><text xml:space="preserve" font-family="Helvetica,Helvetica" font-size="18.0" fill="#E2E2E2" transform="matrix(1.00, 0.00, -0.00, -1.00, 186.1, 58.3)">u</text><text xml:space="preserve" font-family="Helvetica,Helvetica" font-size="18.0" fill="#E2E2E2" transform="matrix(1.00, 0.00, -0.00, -1.00, 196.1, 58.3)">t</text><text xml:space="preserve" font-family="Helvetica,Helvetica" font-size="18.0" fill="#E2E2E2" transform="matrix(1.00, 0.00, -0.00, -1.00, 201.1, 58.3)">p</text><text xml:space="preserve" font-family="Helvetica,Helvetica" font-size="18.0" fill="#E2E2E2" transform="matrix(1.00, 0.00, -0.00, -1.00, 211.1, 58.3)">a</text><text xml:space="preserve" font-family="Helvetica,Helvetica" font-size="18.0" fill="#E2E2E2" transform="matrix(1.00, 0.00, -0.00, -1.00, 221.1, 58.3)">t</text><text xml:space="preserve" font-family="Helvetica,Helvetica" font-size="18.0" fill="#E2E2E2" transform="matrix(1.00, 0.00, -0.00, -1.00, 226.1, 58.3)">.</text><text xml:space="preserve" font-family="Helvetica,Helvetica" font-size="18.0" fill="#E2E2E2" transform="matrix(1.00, 0.00, -0.00, -1.00, 231.1, 58.3)"> </text><text xml:space="preserve" font-family="Helvetica,Helvetica" font-size="18.0" fill="#E2E2E2" transform="matrix(1.00, 0.00, -0.00, -1.00, 57.5, 36.3)">U</text><text xml:space="preserve" font-family="Helvetica,Helvetica" font-size="18.0" fill="#E2E2E2" transform="matrix(1.00, 0.00, -0.00, -1.00, 70.5, 36.3)">t</text><text xml:space="preserve" font-family="Helvetica,Helvetica" font-size="18.0" fill="#E2E2E2" transform="matrix(1.00, 0.00, -0.00, -1.00, 75.5, 36.3)"> </text><text xml:space="preserve" font-family="Helvetica,Helvetica" font-size="18.0" fill="#E2E2E2" transform="matrix(1.00, 0.00, -0.00, -1.00, 80.5, 36.3)">w</text><text xml:space="preserve" font-family="Helvetica,Helvetica" font-size="18.0" fill="#E2E2E2" transform="matrix(1.00, 0.00, -0.00, -1.00, 93.5, 36.3)">i</text><text xml:space="preserve" font-family="Helvetica,Helvetica" font-size="18.0" fill="#E2E2E2" transform="matrix(1.00, 0.00, -0.00, -1.00, 97.5, 36.3)">s</text><text xml:space="preserve" font-family="Helvetica,Helvetica" font-size="18.0" fill="#E2E2E2" transform="matrix(1.00, 0.00, -0.00, -1.00, 106.5, 36.3)">i</text><text xml:space="preserve" font-family="Helvetica,Helvetica" font-size="18.0" fill="#E2E2E2" transform="matrix(1.00, 0.00, -0.00, -1.00, 110.5, 36.3)"> </text><text xml:space="preserve" font-family="Helvetica,Helvetica" font-size="18.0" fill="#E2E2E2" transform="matrix(1.00, 0.00, -0.00, -1.00, 115.5, 36.3)">e</text><text xml:space="preserve" font-family="Helvetica,Helvetica" font-size="18.0" fill="#E2E2E2" transform="matrix(1.00, 0.00, -0.00, -1.00, 125.6, 36.3)">n</text><text xml:space="preserve" font-family="Helvetica,Helvetica" font-size="18.0" fill="#E2E2E2" transform="matrix(1.00, 0.00, -0.00, -1.00, 135.6, 36.3)">i</text><text xml:space="preserve" font-family="Helvetica,Helvetica" font-size="18.0" fill="#E2E2E2" transform="matrix(1.00, 0.00, -0.00, -1.00, 139.6, 36.3)">m</text><text xml:space="preserve" font-family="Helvetica,Helvetica" font-size="18.0" fill="#E2E2E2" transform="matrix(1.00, 0.00, -0.00, -1.00, 154.6, 36.3)"> </text><text xml:space="preserve" font-family="Helvetica,Helvetica" font-size="18.0" fill="#E2E2E2" transform="matrix(1.00, 0.00, -0.00, -1.00, 159.6, 36.3)">a</text><text xml:space="preserve" font-family="Helvetica,Helvetica" font-size="18.0" fill="#E2E2E2" transform="matrix(1.00, 0.00, -0.00, -1.00, 169.6, 36.3)">d</text><text xml:space="preserve" font-family="Helvetica,Helvetica" font-size="18.0" fill="#E2E2E2" transform="matrix(1.00, 0.00, -0.00, -1.00, 179.6, 36.3)"> </text><text xml:space="preserve" font-family="Helvetica,Helvetica" font-size="18.0" fill="#E2E2E2" transform="matrix(1.00, 0.00, -0.00, -1.00, 184.6, 36.3)">m</text><text xml:space="preserve" font-family="Helvetica,Helvetica" font-size="18.0" fill="#E2E2E2" transform="matrix(1.00, 0.00, -0.00, -1.00, 199.6, 36.3)">i</text><text xml:space="preserve" font-family="Helvetica,Helvetica" font-size="18.0" fill="#E2E2E2" transform="matrix(1.00, 0.00, -0.00, -1.00, 203.6, 36.3)">n</text><text xml:space="preserve" font-family="Helvetica,Helvetica" font-size="18.0" fill="#E2E2E2" transform="matrix(1.00, 0.00, -0.00, -1.00, 213.6, 36.3)">i</text><text xml:space="preserve" font-family="Helvetica,Helvetica" font-size="18.0" fill="#E2E2E2" transform="matrix(1.00, 0.00, -0.00, -1.00, 217.6, 36.3)">m</text><text xml:space="preserve" font-family="Helvetica,Helvetica" font-size="18.0" fill="#E2E2E2" transform="matrix(1.00, 0.00, -0.00, -1.00, 232.6, 36.3)"> </text></g></g></g></svg>