<?xml version="1.0" encoding="UTF-8" standalone="no"?><svg xmlns="http://www.w3.org/2000/svg" xmlns:xlink="http://www.w3.org/1999/xlink" clip-rule="evenodd" stroke-miterlimit="10" viewBox="0 0 270 192"><desc>SVG generated by Keynote</desc><defs></defs><g transform="matrix(1.00, 0.00, -0.00, -1.00, 0.0, 192.0)"><g><clipPath id="clip0x6000082a6a80"><path d="M 1.0 0.7 L 269.4 0.7 L 269.4 191.2 L 1.0 191.2 Z M 1.0 0.7 "></path></clipPath><g clip-path="url(#clip0x6000082a6a80)"><g opacity="0.90"><g><clipPath id="clip0x6000082a7200"><path d="M 1.0 1.0 L 269.0 1.0 L 269.0 191.0 L 1.0 191.0 Z M 1.0 1.0 "></path></clipPath><g clip-path="url(#clip0x6000082a7200)"><path d="M 9.3 188.0 C 6.3 188.2 4.0 185.8 4.0 182.9 L 4.0 9.1 C 4.0 6.1 6.3 4.0 9.3 4.0 L 249.9 4.0 C 252.9 4.0 255.0 6.1 255.0 9.1 L 255.0 125.8 L 265.5 135.7 L 255.0 145.6 L 255.0 182.9 C 255.0 185.8 252.9 188.0 249.9 188.0 L 9.3 188.0 Z M 9.3 188.2 " fill="#677188" fill-opacity="0.70"></path><path d="M 5.3 0.2 C 2.4 0.0 0.0 2.4 0.0 5.3 L 0.0 179.1 C 0.0 182.1 2.4 184.2 5.3 184.2 L 246.0 184.2 C 248.9 184.2 251.0 182.1 251.0 179.1 L 251.0 62.4 L 261.5 52.5 L 251.0 42.6 L 251.0 5.3 C 251.0 2.4 248.9 0.2 246.0 0.2 L 5.3 0.2 Z M 5.3 0.0 " fill="none" stroke="#FF607B" stroke-width="4.00" transform="matrix(1.00, 0.00, 0.00, -1.00, 4.0, 188.2)"></path></g></g></g></g></g><g><clipPath id="clip0x6000082a7500"><path d="M 1.0 1.0 L 269.4 1.0 L 269.4 191.2 L 1.0 191.2 Z M 1.0 1.0 "></path></clipPath><g clip-path="url(#clip0x6000082a7500)"><path d="M 5.3 0.2 C 2.4 0.0 0.0 2.4 0.0 5.3 L 0.0 178.8 C 0.0 181.8 2.4 184.2 5.3 184.2 L 246.0 184.2 C 248.9 184.2 251.0 181.8 251.0 178.8 L 251.0 62.4 L 261.5 52.5 L 251.0 42.6 L 251.0 5.3 C 251.0 2.4 248.9 0.2 246.0 0.2 L 5.3 0.2 Z M 5.3 0.0 " fill="none" stroke="#62D7AD" stroke-width="4.00" transform="matrix(1.00, 0.00, 0.00, -1.00, 4.0, 188.2)"></path></g></g><g><clipPath id="clip0x6000082a7740"><path d="M 76.3 126.1 L 194.0 126.1 L 194.0 174.1 L 76.3 174.1 Z M 76.3 126.1 "></path></clipPath><g clip-path="url(#clip0x6000082a7740)"><text xml:space="preserve" font-family="Helvetica,Helvetica" font-size="28.0" fill="#62D7AD" transform="matrix(1.00, 0.00, -0.00, -1.00, 83.8, 139.6)">A</text><text xml:space="preserve" font-family="Helvetica,Helvetica" font-size="28.0" fill="#62D7AD" transform="matrix(1.00, 0.00, -0.00, -1.00, 102.5, 139.6)">F</text><text xml:space="preserve" font-family="Helvetica,Helvetica" font-size="28.0" fill="#62D7AD" transform="matrix(1.00, 0.00, -0.00, -1.00, 119.6, 139.6)">R</text><text xml:space="preserve" font-family="Helvetica,Helvetica" font-size="28.0" fill="#62D7AD" transform="matrix(1.00, 0.00, -0.00, -1.00, 139.8, 139.6)">I</text><text xml:space="preserve" font-family="Helvetica,Helvetica" font-size="28.0" fill="#62D7AD" transform="matrix(1.00, 0.00, -0.00, -1.00, 147.6, 139.6)">C</text><text xml:space="preserve" font-family="Helvetica,Helvetica" font-size="28.0" fill="#62D7AD" transform="matrix(1.00, 0.00, -0.00, -1.00, 167.8, 139.6)">A</text></g></g><g><clipPath id="clip0x6000082a7b60"><path d="M 35.1 15.7 L 235.2 15.7 L 235.2 134.7 L 35.1 134.7 Z M 35.1 15.7 "></path></clipPath><g clip-path="url(#clip0x6000082a7b60)"><text xml:space="preserve" font-family="Helvetica,Helvetica" font-size="18.0" fill="#E2E2E2" transform="matrix(1.00, 0.00, -0.00, -1.00, 49.1, 112.3)">L</text><text xml:space="preserve" font-family="Helvetica,Helvetica" font-size="18.0" fill="#E2E2E2" transform="matrix(1.00, 0.00, -0.00, -1.00, 59.2, 112.3)">o</text><text xml:space="preserve" font-family="Helvetica,Helvetica" font-size="18.0" fill="#E2E2E2" transform="matrix(1.00, 0.00, -0.00, -1.00, 69.2, 112.3)">r</text><text xml:space="preserve" font-family="Helvetica,Helvetica" font-size="18.0" fill="#E2E2E2" transform="matrix(1.00, 0.00, -0.00, -1.00, 75.2, 112.3)">e</text><text xml:space="preserve" font-family="Helvetica,Helvetica" font-size="18.0" fill="#E2E2E2" transform="matrix(1.00, 0.00, -0.00, -1.00, 85.2, 112.3)">m</text><text xml:space="preserve" font-family="Helvetica,Helvetica" font-size="18.0" fill="#E2E2E2" transform="matrix(1.00, 0.00, -0.00, -1.00, 100.2, 112.3)"> </text><text xml:space="preserve" font-family="Helvetica,Helvetica" font-size="18.0" fill="#E2E2E2" transform="matrix(1.00, 0.00, -0.00, -1.00, 105.2, 112.3)">i</text><text xml:space="preserve" font-family="Helvetica,Helvetica" font-size="18.0" fill="#E2E2E2" transform="matrix(1.00, 0.00, -0.00, -1.00, 109.2, 112.3)">p</text><text xml:space="preserve" font-family="Helvetica,Helvetica" font-size="18.0" fill="#E2E2E2" transform="matrix(1.00, 0.00, -0.00, -1.00, 119.2, 112.3)">s</text><text xml:space="preserve" font-family="Helvetica,Helvetica" font-size="18.0" fill="#E2E2E2" transform="matrix(1.00, 0.00, -0.00, -1.00, 128.2, 112.3)">u</text><text xml:space="preserve" font-family="Helvetica,Helvetica" font-size="18.0" fill="#E2E2E2" transform="matrix(1.00, 0.00, -0.00, -1.00, 138.2, 112.3)">m</text><text xml:space="preserve" font-family="Helvetica,Helvetica" font-size="18.0" fill="#E2E2E2" transform="matrix(1.00, 0.00, -0.00, -1.00, 153.2, 112.3)"> </text><text xml:space="preserve" font-family="Helvetica,Helvetica" font-size="18.0" fill="#E2E2E2" transform="matrix(1.00, 0.00, -0.00, -1.00, 158.2, 112.3)">d</text><text xml:space="preserve" font-family="Helvetica,Helvetica" font-size="18.0" fill="#E2E2E2" transform="matrix(1.00, 0.00, -0.00, -1.00, 168.2, 112.3)">o</text><text xml:space="preserve" font-family="Helvetica,Helvetica" font-size="18.0" fill="#E2E2E2" transform="matrix(1.00, 0.00, -0.00, -1.00, 178.2, 112.3)">l</text><text xml:space="preserve" font-family="Helvetica,Helvetica" font-size="18.0" fill="#E2E2E2" transform="matrix(1.00, 0.00, -0.00, -1.00, 182.2, 112.3)">o</text><text xml:space="preserve" font-family="Helvetica,Helvetica" font-size="18.0" fill="#E2E2E2" transform="matrix(1.00, 0.00, -0.00, -1.00, 192.2, 112.3)">r</text><text xml:space="preserve" font-family="Helvetica,Helvetica" font-size="18.0" fill="#E2E2E2" transform="matrix(1.00, 0.00, -0.00, -1.00, 198.2, 112.3)"> </text><text xml:space="preserve" font-family="Helvetica,Helvetica" font-size="18.0" fill="#E2E2E2" transform="matrix(1.00, 0.00, -0.00, -1.00, 203.2, 112.3)">s</text><text xml:space="preserve" font-family="Helvetica,Helvetica" font-size="18.0" fill="#E2E2E2" transform="matrix(1.00, 0.00, -0.00, -1.00, 212.2, 112.3)">i</text><text xml:space="preserve" font-family="Helvetica,Helvetica" font-size="18.0" fill="#E2E2E2" transform="matrix(1.00, 0.00, -0.00, -1.00, 216.2, 112.3)">t</text><text xml:space="preserve" font-family="Helvetica,Helvetica" font-size="18.0" fill="#E2E2E2" transform="matrix(1.00, 0.00, -0.00, -1.00, 221.2, 112.3)"> </text><text xml:space="preserve" font-family="Helvetica,Helvetica" font-size="18.0" fill="#E2E2E2" transform="matrix(1.00, 0.00, -0.00, -1.00, 58.6, 90.3)">a</text><text xml:space="preserve" font-family="Helvetica,Helvetica" font-size="18.0" fill="#E2E2E2" transform="matrix(1.00, 0.00, -0.00, -1.00, 68.6, 90.3)">m</text><text xml:space="preserve" font-family="Helvetica,Helvetica" font-size="18.0" fill="#E2E2E2" transform="matrix(1.00, 0.00, -0.00, -1.00, 83.6, 90.3)">e</text><text xml:space="preserve" font-family="Helvetica,Helvetica" font-size="18.0" fill="#E2E2E2" transform="matrix(1.00, 0.00, -0.00, -1.00, 93.7, 90.3)">t</text><text xml:space="preserve" font-family="Helvetica,Helvetica" font-size="18.0" fill="#E2E2E2" transform="matrix(1.00, 0.00, -0.00, -1.00, 98.6, 90.3)">,</text><text xml:space="preserve" font-family="Helvetica,Helvetica" font-size="18.0" fill="#E2E2E2" transform="matrix(1.00, 0.00, -0.00, -1.00, 103.6, 90.3)"> </text><text xml:space="preserve" font-family="Helvetica,Helvetica" font-size="18.0" fill="#E2E2E2" transform="matrix(1.00, 0.00, -0.00, -1.00, 108.6, 90.3)">c</text><text xml:space="preserve" font-family="Helvetica,Helvetica" font-size="18.0" fill="#E2E2E2" transform="matrix(1.00, 0.00, -0.00, -1.00, 117.6, 90.3)">o</text><text xml:space="preserve" font-family="Helvetica,Helvetica" font-size="18.0" fill="#E2E2E2" transform="matrix(1.00, 0.00, -0.00, -1.00, 127.7, 90.3)">n</text><text xml:space="preserve" font-family="Helvetica,Helvetica" font-size="18.0" fill="#E2E2E2" transform="matrix(1.00, 0.00, -0.00, -1.00, 137.7, 90.3)">s</text><text xml:space="preserve" font-family="Helvetica,Helvetica" font-size="18.0" fill="#E2E2E2" transform="matrix(1.00, 0.00, -0.00, -1.00, 146.7, 90.3)">e</text><text xml:space="preserve" font-family="Helvetica,Helvetica" font-size="18.0" fill="#E2E2E2" transform="matrix(1.00, 0.00, -0.00, -1.00, 156.7, 90.3)">c</text><text xml:space="preserve" font-family="Helvetica,Helvetica" font-size="18.0" fill="#E2E2E2" transform="matrix(1.00, 0.00, -0.00, -1.00, 165.7, 90.3)">t</text><text xml:space="preserve" font-family="Helvetica,Helvetica" font-size="18.0" fill="#E2E2E2" transform="matrix(1.00, 0.00, -0.00, -1.00, 170.7, 90.3)">e</text><text xml:space="preserve" font-family="Helvetica,Helvetica" font-size="18.0" fill="#E2E2E2" transform="matrix(1.00, 0.00, -0.00, -1.00, 180.7, 90.3)">t</text><text xml:space="preserve" font-family="Helvetica,Helvetica" font-size="18.0" fill="#E2E2E2" transform="matrix(1.00, 0.00, -0.00, -1.00, 185.7, 90.3)">u</text><text xml:space="preserve" font-family="Helvetica,Helvetica" font-size="18.0" fill="#E2E2E2" transform="matrix(1.00, 0.00, -0.00, -1.00, 195.7, 90.3)">e</text><text xml:space="preserve" font-family="Helvetica,Helvetica" font-size="18.0" fill="#E2E2E2" transform="matrix(1.00, 0.00, -0.00, -1.00, 205.7, 90.3)">r</text><text xml:space="preserve" font-family="Helvetica,Helvetica" font-size="18.0" fill="#E2E2E2" transform="matrix(1.00, 0.00, -0.00, -1.00, 211.7, 90.3)"> </text><text xml:space="preserve" font-family="Helvetica,Helvetica" font-size="18.0" fill="#E2E2E2" transform="matrix(1.00, 0.00, -0.00, -1.00, 61.6, 68.3)">a</text><text xml:space="preserve" font-family="Helvetica,Helvetica" font-size="18.0" fill="#E2E2E2" transform="matrix(1.00, 0.00, -0.00, -1.00, 71.6, 68.3)">d</text><text xml:space="preserve" font-family="Helvetica,Helvetica" font-size="18.0" fill="#E2E2E2" transform="matrix(1.00, 0.00, -0.00, -1.00, 81.7, 68.3)">i</text><text xml:space="preserve" font-family="Helvetica,Helvetica" font-size="18.0" fill="#E2E2E2" transform="matrix(1.00, 0.00, -0.00, -1.00, 85.7, 68.3)">p</text><text xml:space="preserve" font-family="Helvetica,Helvetica" font-size="18.0" fill="#E2E2E2" transform="matrix(1.00, 0.00, -0.00, -1.00, 95.7, 68.3)">i</text><text xml:space="preserve" font-family="Helvetica,Helvetica" font-size="18.0" fill="#E2E2E2" transform="matrix(1.00, 0.00, -0.00, -1.00, 99.7, 68.3)">s</text><text xml:space="preserve" font-family="Helvetica,Helvetica" font-size="18.0" fill="#E2E2E2" transform="matrix(1.00, 0.00, -0.00, -1.00, 108.7, 68.3)">c</text><text xml:space="preserve" font-family="Helvetica,Helvetica" font-size="18.0" fill="#E2E2E2" transform="matrix(1.00, 0.00, -0.00, -1.00, 117.7, 68.3)">i</text><text xml:space="preserve" font-family="Helvetica,Helvetica" font-size="18.0" fill="#E2E2E2" transform="matrix(1.00, 0.00, -0.00, -1.00, 121.7, 68.3)">n</text><text xml:space="preserve" font-family="Helvetica,Helvetica" font-size="18.0" fill="#E2E2E2" transform="matrix(1.00, 0.00, -0.00, -1.00, 131.7, 68.3)">g</text><text xml:space="preserve" font-family="Helvetica,Helvetica" font-size="18.0" fill="#E2E2E2" transform="matrix(1.00, 0.00, -0.00, -1.00, 141.7, 68.3)"> </text><text xml:space="preserve" font-family="Helvetica,Helvetica" font-size="18.0" fill="#E2E2E2" transform="matrix(1.00, 0.00, -0.00, -1.00, 146.7, 68.3)">e</text><text xml:space="preserve" font-family="Helvetica,Helvetica" font-size="18.0" fill="#E2E2E2" transform="matrix(1.00, 0.00, -0.00, -1.00, 156.7, 68.3)">l</text><text xml:space="preserve" font-family="Helvetica,Helvetica" font-size="18.0" fill="#E2E2E2" transform="matrix(1.00, 0.00, -0.00, -1.00, 160.7, 68.3)">i</text><text xml:space="preserve" font-family="Helvetica,Helvetica" font-size="18.0" fill="#E2E2E2" transform="matrix(1.00, 0.00, -0.00, -1.00, 164.7, 68.3)">t</text><text xml:space="preserve" font-family="Helvetica,Helvetica" font-size="18.0" fill="#E2E2E2" transform="matrix(1.00, 0.00, -0.00, -1.00, 169.7, 68.3)">,</text><text xml:space="preserve" font-family="Helvetica,Helvetica" font-size="18.0" fill="#E2E2E2" transform="matrix(1.00, 0.00, -0.00, -1.00, 174.7, 68.3)"> </text><text xml:space="preserve" font-family="Helvetica,Helvetica" font-size="18.0" fill="#E2E2E2" transform="matrix(1.00, 0.00, -0.00, -1.00, 179.7, 68.3)">s</text><text xml:space="preserve" font-family="Helvetica,Helvetica" font-size="18.0" fill="#E2E2E2" transform="matrix(1.00, 0.00, -0.00, -1.00, 188.7, 68.3)">e</text><text xml:space="preserve" font-family="Helvetica,Helvetica" font-size="18.0" fill="#E2E2E2" transform="matrix(1.00, 0.00, -0.00, -1.00, 198.7, 68.3)">d</text><text xml:space="preserve" font-family="Helvetica,Helvetica" font-size="18.0" fill="#E2E2E2" transform="matrix(1.00, 0.00, -0.00, -1.00, 208.7, 68.3)"> </text><text xml:space="preserve" font-family="Helvetica,Helvetica" font-size="18.0" fill="#E2E2E2" transform="matrix(1.00, 0.00, -0.00, -1.00, 54.1, 46.3)">d</text><text xml:space="preserve" font-family="Helvetica,Helvetica" font-size="18.0" fill="#E2E2E2" transform="matrix(1.00, 0.00, -0.00, -1.00, 64.1, 46.3)">i</text><text xml:space="preserve" font-family="Helvetica,Helvetica" font-size="18.0" fill="#E2E2E2" transform="matrix(1.00, 0.00, -0.00, -1.00, 68.1, 46.3)">a</text><text xml:space="preserve" font-family="Helvetica,Helvetica" font-size="18.0" fill="#E2E2E2" transform="matrix(1.00, 0.00, -0.00, -1.00, 78.2, 46.3)">m</text><text xml:space="preserve" font-family="Helvetica,Helvetica" font-size="18.0" fill="#E2E2E2" transform="matrix(1.00, 0.00, -0.00, -1.00, 93.2, 46.3)"> </text><text xml:space="preserve" font-family="Helvetica,Helvetica" font-size="18.0" fill="#E2E2E2" transform="matrix(1.00, 0.00, -0.00, -1.00, 98.2, 46.3)">n</text><text xml:space="preserve" font-family="Helvetica,Helvetica" font-size="18.0" fill="#E2E2E2" transform="matrix(1.00, 0.00, -0.00, -1.00, 108.2, 46.3)">o</text><text xml:space="preserve" font-family="Helvetica,Helvetica" font-size="18.0" fill="#E2E2E2" transform="matrix(1.00, 0.00, -0.00, -1.00, 118.2, 46.3)">n</text><text xml:space="preserve" font-family="Helvetica,Helvetica" font-size="18.0" fill="#E2E2E2" transform="matrix(1.00, 0.00, -0.00, -1.00, 128.2, 46.3)">u</text><text xml:space="preserve" font-family="Helvetica,Helvetica" font-size="18.0" fill="#E2E2E2" transform="matrix(1.00, 0.00, -0.00, -1.00, 138.2, 46.3)">m</text><text xml:space="preserve" font-family="Helvetica,Helvetica" font-size="18.0" fill="#E2E2E2" transform="matrix(1.00, 0.00, -0.00, -1.00, 153.2, 46.3)">m</text><text xml:space="preserve" font-family="Helvetica,Helvetica" font-size="18.0" fill="#E2E2E2" transform="matrix(1.00, 0.00, -0.00, -1.00, 168.2, 46.3)">y</text><text xml:space="preserve" font-family="Helvetica,Helvetica" font-size="18.0" fill="#E2E2E2" transform="matrix(1.00, 0.00, -0.00, -1.00, 177.2, 46.3)"> </text><text xml:space="preserve" font-family="Helvetica,Helvetica" font-size="18.0" fill="#E2E2E2" transform="matrix(1.00, 0.00, -0.00, -1.00, 182.2, 46.3)">n</text><text xml:space="preserve" font-family="Helvetica,Helvetica" font-size="18.0" fill="#E2E2E2" transform="matrix(1.00, 0.00, -0.00, -1.00, 192.2, 46.3)">i</text><text xml:space="preserve" font-family="Helvetica,Helvetica" font-size="18.0" fill="#E2E2E2" transform="matrix(1.00, 0.00, -0.00, -1.00, 196.2, 46.3)">b</text><text xml:space="preserve" font-family="Helvetica,Helvetica" font-size="18.0" fill="#E2E2E2" transform="matrix(1.00, 0.00, -0.00, -1.00, 206.2, 46.3)">h</text><text xml:space="preserve" font-family="Helvetica,Helvetica" font-size="18.0" fill="#E2E2E2" transform="matrix(1.00, 0.00, -0.00, -1.00, 216.2, 46.3)"> </text><text xml:space="preserve" font-family="Helvetica,Helvetica" font-size="18.0" fill="#E2E2E2" transform="matrix(1.00, 0.00, -0.00, -1.00, 49.1, 24.3)">a</text><text xml:space="preserve" font-family="Helvetica,Helvetica" font-size="18.0" fill="#E2E2E2" transform="matrix(1.00, 0.00, -0.00, -1.00, 59.1, 24.3)">l</text><text xml:space="preserve" font-family="Helvetica,Helvetica" font-size="18.0" fill="#E2E2E2" transform="matrix(1.00, 0.00, -0.00, -1.00, 63.1, 24.3)">i</text><text xml:space="preserve" font-family="Helvetica,Helvetica" font-size="18.0" fill="#E2E2E2" transform="matrix(1.00, 0.00, -0.00, -1.00, 67.1, 24.3)">q</text><text xml:space="preserve" font-family="Helvetica,Helvetica" font-size="18.0" fill="#E2E2E2" transform="matrix(1.00, 0.00, -0.00, -1.00, 77.2, 24.3)">u</text><text xml:space="preserve" font-family="Helvetica,Helvetica" font-size="18.0" fill="#E2E2E2" transform="matrix(1.00, 0.00, -0.00, -1.00, 87.2, 24.3)">a</text><text xml:space="preserve" font-family="Helvetica,Helvetica" font-size="18.0" fill="#E2E2E2" transform="matrix(1.00, 0.00, -0.00, -1.00, 97.2, 24.3)">m</text><text xml:space="preserve" font-family="Helvetica,Helvetica" font-size="18.0" fill="#E2E2E2" transform="matrix(1.00, 0.00, -0.00, -1.00, 112.2, 24.3)"> </text><text xml:space="preserve" font-family="Helvetica,Helvetica" font-size="18.0" fill="#E2E2E2" transform="matrix(1.00, 0.00, -0.00, -1.00, 117.2, 24.3)">e</text><text xml:space="preserve" font-family="Helvetica,Helvetica" font-size="18.0" fill="#E2E2E2" transform="matrix(1.00, 0.00, -0.00, -1.00, 127.2, 24.3)">r</text><text xml:space="preserve" font-family="Helvetica,Helvetica" font-size="18.0" fill="#E2E2E2" transform="matrix(1.00, 0.00, -0.00, -1.00, 133.2, 24.3)">a</text><text xml:space="preserve" font-family="Helvetica,Helvetica" font-size="18.0" fill="#E2E2E2" transform="matrix(1.00, 0.00, -0.00, -1.00, 143.2, 24.3)">t</text><text xml:space="preserve" font-family="Helvetica,Helvetica" font-size="18.0" fill="#E2E2E2" transform="matrix(1.00, 0.00, -0.00, -1.00, 148.2, 24.3)"> </text><text xml:space="preserve" font-family="Helvetica,Helvetica" font-size="18.0" fill="#E2E2E2" transform="matrix(1.00, 0.00, -0.00, -1.00, 153.2, 24.3)">v</text><text xml:space="preserve" font-family="Helvetica,Helvetica" font-size="18.0" fill="#E2E2E2" transform="matrix(1.00, 0.00, -0.00, -1.00, 162.2, 24.3)">o</text><text xml:space="preserve" font-family="Helvetica,Helvetica" font-size="18.0" fill="#E2E2E2" transform="matrix(1.00, 0.00, -0.00, -1.00, 172.2, 24.3)">l</text><text xml:space="preserve" font-family="Helvetica,Helvetica" font-size="18.0" fill="#E2E2E2" transform="matrix(1.00, 0.00, -0.00, -1.00, 176.2, 24.3)">u</text><text xml:space="preserve" font-family="Helvetica,Helvetica" font-size="18.0" fill="#E2E2E2" transform="matrix(1.00, 0.00, -0.00, -1.00, 186.2, 24.3)">t</text><text xml:space="preserve" font-family="Helvetica,Helvetica" font-size="18.0" fill="#E2E2E2" transform="matrix(1.00, 0.00, -0.00, -1.00, 191.2, 24.3)">p</text><text xml:space="preserve" font-family="Helvetica,Helvetica" font-size="18.0" fill="#E2E2E2" transform="matrix(1.00, 0.00, -0.00, -1.00, 201.2, 24.3)">a</text><text xml:space="preserve" font-family="Helvetica,Helvetica" font-size="18.0" fill="#E2E2E2" transform="matrix(1.00, 0.00, -0.00, -1.00, 211.2, 24.3)">t</text><text xml:space="preserve" font-family="Helvetica,Helvetica" font-size="18.0" fill="#E2E2E2" transform="matrix(1.00, 0.00, -0.00, -1.00, 216.2, 24.3)">.</text></g></g></g></svg>