<?xml version="1.0" encoding="UTF-8" standalone="no"?><svg xmlns="http://www.w3.org/2000/svg" xmlns:xlink="http://www.w3.org/1999/xlink" clip-rule="evenodd" stroke-miterlimit="10" viewBox="0 0 195 216"><desc>SVG generated by Keynote</desc><defs></defs><g transform="matrix(1.00, 0.00, -0.00, -1.00, 0.0, 216.0)"><g><clipPath id="clip0x6180076a6cc0"><path d="M 0.9 0.6 L 194.1 0.6 L 194.1 215.4 L 0.9 215.4 Z M 0.9 0.6 "></path></clipPath><g clip-path="url(#clip0x6180076a6cc0)"><image xlink:href="73ADEAB9162AB01A5D1A9E5126369783.png" width="191.00" height="213.00" transform="matrix(1.00, 0.00, -0.00, -1.00, 1.9, 214.4)" opacity="0.75"></image><path d="M 52.0 68.7 C 5.6 111.3 37.2 188.5 100.1 186.4 C 161.0 184.3 187.9 108.8 142.0 68.7 L 97.2 29.6 L 52.0 68.7 Z M 52.0 68.7 " fill="#FF607B"></path></g></g><g><clipPath id="clip0x608006cb4100"><path d="M 47.9 71.0 L 147.1 71.0 L 147.1 170.2 L 47.9 170.2 Z M 47.9 71.0 "></path></clipPath><g clip-path="url(#clip0x608006cb4100)"><path d="M 131.8 155.0 C 150.8 136.0 150.8 105.2 131.8 86.3 C 112.9 67.3 82.1 67.3 63.1 86.3 C 44.1 105.2 44.1 136.0 63.1 155.0 C 82.1 174.0 112.9 174.0 131.8 155.0 Z M 131.8 155.0 " fill="#BF4358"></path></g></g><g><clipPath id="clip0x608006cb4340"><path d="M 47.6 79.6 L 147.3 79.6 L 147.3 161.6 L 47.6 161.6 Z M 47.6 79.6 "></path></clipPath><g clip-path="url(#clip0x608006cb4340)"><text xml:space="preserve" font-family="Helvetica,Helvetica" font-size="48.0" fill="#FF607B" transform="matrix(1.00, 0.00, -0.00, -1.00, 60.1, 102.7)">7</text><text xml:space="preserve" font-family="Helvetica,Helvetica" font-size="48.0" fill="#FF607B" transform="matrix(1.00, 0.00, -0.00, -1.00, 86.8, 102.7)">8</text><text xml:space="preserve" font-family="Helvetica,Helvetica" font-size="24.0" fill="#FF607B" transform="matrix(1.00, 0.00, -0.00, -1.00, 113.5, 102.7)">%</text></g></g></g></svg>