<?xml version="1.0" encoding="UTF-8" standalone="no"?><svg xmlns="http://www.w3.org/2000/svg" xmlns:xlink="http://www.w3.org/1999/xlink" clip-rule="evenodd" stroke-miterlimit="10" viewBox="0 0 591 591"><desc>SVG generated by Keynote</desc><defs></defs><g transform="matrix(1.00, 0.00, -0.00, -1.00, 0.0, 591.0)"><path d="M 502.5 502.2 C 616.7 388.0 616.7 202.9 502.5 88.8 C 388.3 -25.4 203.2 -25.4 89.1 88.8 C -25.1 202.9 -25.1 388.0 89.1 502.2 C 203.2 616.4 388.3 616.4 502.5 502.2 Z M 502.5 502.2 " fill="#677188"></path><path d="M 499.0 85.6 C 613.2 199.8 613.2 384.9 499.0 499.0 C 384.9 613.2 199.8 613.2 85.6 499.0 C -28.5 384.9 -28.5 199.8 85.6 85.6 C 199.8 -28.5 384.9 -28.5 499.0 85.6 Z M 499.0 85.6 " fill="none" stroke="#E2E2E2" stroke-width="3.00" transform="matrix(1.00, 0.00, 0.00, -1.00, 3.4, 587.8)"></path><g><clipPath id="clip0x6080056a39c0"><path d="M 1.8 3.1 L 589.7 3.1 L 589.7 587.8 L 1.8 587.8 Z M 1.8 3.1 "></path></clipPath><g clip-path="url(#clip0x6080056a39c0)"><text xml:space="preserve" font-family="Helvetica-Light,Helvetica" font-size="32.0" fill="#FEFFFE" transform="matrix(1.00, 0.00, -0.00, -1.00, 125.1, 283.4)">I</text><text xml:space="preserve" font-family="Helvetica-Light,Helvetica" font-size="32.0" fill="#FEFFFE" transform="matrix(1.00, 0.00, -0.00, -1.00, 134.0, 283.4)">M</text><text xml:space="preserve" font-family="Helvetica-Light,Helvetica" font-size="32.0" fill="#FEFFFE" transform="matrix(1.00, 0.00, -0.00, -1.00, 160.6, 283.4)">A</text><text xml:space="preserve" font-family="Helvetica-Light,Helvetica" font-size="32.0" fill="#FEFFFE" transform="matrix(1.00, 0.00, -0.00, -1.00, 182.0, 283.4)">G</text><text xml:space="preserve" font-family="Helvetica-Light,Helvetica" font-size="32.0" fill="#FEFFFE" transform="matrix(1.00, 0.00, -0.00, -1.00, 206.9, 283.4)">E</text><text xml:space="preserve" font-family="Helvetica-Light,Helvetica" font-size="32.0" fill="#FEFFFE" transform="matrix(1.00, 0.00, -0.00, -1.00, 226.4, 283.4)"> </text><text xml:space="preserve" font-family="Helvetica-Light,Helvetica" font-size="32.0" fill="#FEFFFE" transform="matrix(1.00, 0.00, -0.00, -1.00, 235.3, 283.4)">P</text><text xml:space="preserve" font-family="Helvetica-Light,Helvetica" font-size="32.0" fill="#FEFFFE" transform="matrix(1.00, 0.00, -0.00, -1.00, 254.9, 283.4)">L</text><text xml:space="preserve" font-family="Helvetica-Light,Helvetica" font-size="32.0" fill="#FEFFFE" transform="matrix(1.00, 0.00, -0.00, -1.00, 272.7, 283.4)">A</text><text xml:space="preserve" font-family="Helvetica-Light,Helvetica" font-size="32.0" fill="#FEFFFE" transform="matrix(1.00, 0.00, -0.00, -1.00, 294.0, 283.4)">C</text><text xml:space="preserve" font-family="Helvetica-Light,Helvetica" font-size="32.0" fill="#FEFFFE" transform="matrix(1.00, 0.00, -0.00, -1.00, 317.1, 283.4)">E</text><text xml:space="preserve" font-family="Helvetica-Light,Helvetica" font-size="32.0" fill="#FEFFFE" transform="matrix(1.00, 0.00, -0.00, -1.00, 336.7, 283.4)">H</text><text xml:space="preserve" font-family="Helvetica-Light,Helvetica" font-size="32.0" fill="#FEFFFE" transform="matrix(1.00, 0.00, -0.00, -1.00, 359.8, 283.4)">O</text><text xml:space="preserve" font-family="Helvetica-Light,Helvetica" font-size="32.0" fill="#FEFFFE" transform="matrix(1.00, 0.00, -0.00, -1.00, 384.7, 283.4)">L</text><text xml:space="preserve" font-family="Helvetica-Light,Helvetica" font-size="32.0" fill="#FEFFFE" transform="matrix(1.00, 0.00, -0.00, -1.00, 402.5, 283.4)">D</text><text xml:space="preserve" font-family="Helvetica-Light,Helvetica" font-size="32.0" fill="#FEFFFE" transform="matrix(1.00, 0.00, -0.00, -1.00, 425.6, 283.4)">E</text><text xml:space="preserve" font-family="Helvetica-Light,Helvetica" font-size="32.0" fill="#FEFFFE" transform="matrix(1.00, 0.00, -0.00, -1.00, 445.1, 283.4)">R</text></g></g></g></svg>