<?xml version="1.0" encoding="UTF-8" standalone="no"?><svg xmlns="http://www.w3.org/2000/svg" xmlns:xlink="http://www.w3.org/1999/xlink" clip-rule="evenodd" stroke-miterlimit="10" viewBox="0 0 146 49"><desc>SVG generated by Keynote</desc><defs></defs><g transform="matrix(1.00, 0.00, -0.00, -1.00, 0.0, 49.0)"><path d="M 1.0 47.0 L 145.0 47.0 L 145.0 1.0 L 1.0 1.0 Z M 1.2 47.2 " fill="#F6F6F6"></path><g><clipPath id="clip0x6000038ba6a0"><path d="M -1.8 0.2 L 147.6 0.2 L 147.6 48.2 L -1.8 48.2 Z M -1.8 0.2 "></path></clipPath><g clip-path="url(#clip0x6000038ba6a0)"><text xml:space="preserve" font-family="Helvetica,Helvetica" font-size="28.0" fill="#7D89A5" transform="matrix(1.00, 0.00, -0.00, -1.00, 24.6, 13.7)">P</text><text xml:space="preserve" font-family="Helvetica,Helvetica" font-size="28.0" fill="#7D89A5" transform="matrix(1.00, 0.00, -0.00, -1.00, 43.3, 13.7)">r</text><text xml:space="preserve" font-family="Helvetica,Helvetica" font-size="28.0" fill="#7D89A5" transform="matrix(1.00, 0.00, -0.00, -1.00, 52.6, 13.7)">e</text><text xml:space="preserve" font-family="Helvetica,Helvetica" font-size="28.0" fill="#7D89A5" transform="matrix(1.00, 0.00, -0.00, -1.00, 68.2, 13.7)">s</text><text xml:space="preserve" font-family="Helvetica,Helvetica" font-size="28.0" fill="#7D89A5" transform="matrix(1.00, 0.00, -0.00, -1.00, 82.2, 13.7)">e</text><text xml:space="preserve" font-family="Helvetica,Helvetica" font-size="28.0" fill="#7D89A5" transform="matrix(1.00, 0.00, -0.00, -1.00, 97.8, 13.7)">n</text><text xml:space="preserve" font-family="Helvetica,Helvetica" font-size="28.0" fill="#7D89A5" transform="matrix(1.00, 0.00, -0.00, -1.00, 113.4, 13.7)">t</text></g></g></g></svg>