<?xml version="1.0" encoding="UTF-8" standalone="no"?><svg xmlns="http://www.w3.org/2000/svg" xmlns:xlink="http://www.w3.org/1999/xlink" clip-rule="evenodd" stroke-miterlimit="10" viewBox="0 0 1423 669"><desc>SVG generated by Keynote</desc><defs></defs><g transform="matrix(1.00, 0.00, -0.00, -1.00, 0.0, 669.0)"><path d="M 84.5 498.8 L 1419.5 498.8 " fill="none" stroke="#677188" stroke-width="1.00" transform="matrix(1.00, 0.00, 0.00, -1.00, 1.5, 667.3)"></path><path d="M 84.5 378.8 L 1419.5 378.8 " fill="none" stroke="#677188" stroke-width="1.00" transform="matrix(1.00, 0.00, 0.00, -1.00, 1.5, 667.3)"></path><path d="M 84.5 258.8 L 1419.5 258.8 " fill="none" stroke="#677188" stroke-width="1.00" transform="matrix(1.00, 0.00, 0.00, -1.00, 1.5, 667.3)"></path><path d="M 84.5 138.8 L 1419.5 138.8 " fill="none" stroke="#677188" stroke-width="1.00" transform="matrix(1.00, 0.00, 0.00, -1.00, 1.5, 667.3)"></path><g><clipPath id="clip0x610005cb8780"><path d="M 0.5 150.4 L 67.6 150.4 L 67.6 187.4 L 0.5 187.4 Z M 0.5 150.4 "></path></clipPath><g clip-path="url(#clip0x610005cb8780)"><text xml:space="preserve" font-family="Helvetica,Helvetica" font-size="28.8" fill="#E2E2E2" transform="matrix(1.00, 0.00, -0.00, -1.00, 2.0, 158.0)">1</text><text xml:space="preserve" font-family="Helvetica,Helvetica" font-size="28.8" fill="#E2E2E2" transform="matrix(1.00, 0.00, -0.00, -1.00, 18.0, 158.0)">7</text><text xml:space="preserve" font-family="Helvetica,Helvetica" font-size="28.8" fill="#E2E2E2" transform="matrix(1.00, 0.00, -0.00, -1.00, 34.1, 158.0)">5</text><text xml:space="preserve" font-family="Helvetica,Helvetica" font-size="28.8" fill="#E2E2E2" transform="matrix(1.00, 0.00, -0.00, -1.00, 50.1, 158.0)">0</text></g></g><g><clipPath id="clip0x610005cb8ae0"><path d="M 0.5 270.1 L 67.6 270.1 L 67.6 307.1 L 0.5 307.1 Z M 0.5 270.1 "></path></clipPath><g clip-path="url(#clip0x610005cb8ae0)"><text xml:space="preserve" font-family="Helvetica,Helvetica" font-size="28.8" fill="#E2E2E2" transform="matrix(1.00, 0.00, -0.00, -1.00, 2.0, 277.7)">3</text><text xml:space="preserve" font-family="Helvetica,Helvetica" font-size="28.8" fill="#E2E2E2" transform="matrix(1.00, 0.00, -0.00, -1.00, 18.0, 277.7)">5</text><text xml:space="preserve" font-family="Helvetica,Helvetica" font-size="28.8" fill="#E2E2E2" transform="matrix(1.00, 0.00, -0.00, -1.00, 34.1, 277.7)">0</text><text xml:space="preserve" font-family="Helvetica,Helvetica" font-size="28.8" fill="#E2E2E2" transform="matrix(1.00, 0.00, -0.00, -1.00, 50.1, 277.7)">0</text></g></g><g><clipPath id="clip0x610005cb8e40"><path d="M 0.5 389.9 L 67.6 389.9 L 67.6 426.9 L 0.5 426.9 Z M 0.5 389.9 "></path></clipPath><g clip-path="url(#clip0x610005cb8e40)"><text xml:space="preserve" font-family="Helvetica,Helvetica" font-size="28.8" fill="#E2E2E2" transform="matrix(1.00, 0.00, -0.00, -1.00, 2.0, 397.5)">5</text><text xml:space="preserve" font-family="Helvetica,Helvetica" font-size="28.8" fill="#E2E2E2" transform="matrix(1.00, 0.00, -0.00, -1.00, 18.0, 397.5)">2</text><text xml:space="preserve" font-family="Helvetica,Helvetica" font-size="28.8" fill="#E2E2E2" transform="matrix(1.00, 0.00, -0.00, -1.00, 34.1, 397.5)">5</text><text xml:space="preserve" font-family="Helvetica,Helvetica" font-size="28.8" fill="#E2E2E2" transform="matrix(1.00, 0.00, -0.00, -1.00, 50.1, 397.5)">0</text></g></g><g><clipPath id="clip0x610005cb91a0"><path d="M 0.5 509.6 L 67.6 509.6 L 67.6 546.6 L 0.5 546.6 Z M 0.5 509.6 "></path></clipPath><g clip-path="url(#clip0x610005cb91a0)"><text xml:space="preserve" font-family="Helvetica,Helvetica" font-size="28.8" fill="#E2E2E2" transform="matrix(1.00, 0.00, -0.00, -1.00, 2.0, 517.2)">7</text><text xml:space="preserve" font-family="Helvetica,Helvetica" font-size="28.8" fill="#E2E2E2" transform="matrix(1.00, 0.00, -0.00, -1.00, 18.0, 517.2)">0</text><text xml:space="preserve" font-family="Helvetica,Helvetica" font-size="28.8" fill="#E2E2E2" transform="matrix(1.00, 0.00, -0.00, -1.00, 34.1, 517.2)">0</text><text xml:space="preserve" font-family="Helvetica,Helvetica" font-size="28.8" fill="#E2E2E2" transform="matrix(1.00, 0.00, -0.00, -1.00, 50.1, 517.2)">0</text></g></g><path d="M 84.0 617.8 L 1419.0 617.8 " fill="none" stroke="#677188" stroke-width="1.00" stroke-linecap="square" transform="matrix(1.00, 0.00, 0.00, -1.00, 1.5, 667.3)"></path><g><clipPath id="clip0x610005cb95c0"><path d="M 219.3 0.2 L 286.4 0.2 L 286.4 37.2 L 219.3 37.2 Z M 219.3 0.2 "></path></clipPath><g clip-path="url(#clip0x610005cb95c0)"><text xml:space="preserve" font-family="Helvetica,Helvetica" font-size="28.8" fill="#E2E2E2" transform="matrix(1.00, 0.00, -0.00, -1.00, 220.8, 7.8)">2</text><text xml:space="preserve" font-family="Helvetica,Helvetica" font-size="28.8" fill="#E2E2E2" transform="matrix(1.00, 0.00, -0.00, -1.00, 236.8, 7.8)">0</text><text xml:space="preserve" font-family="Helvetica,Helvetica" font-size="28.8" fill="#E2E2E2" transform="matrix(1.00, 0.00, -0.00, -1.00, 252.9, 7.8)">1</text><text xml:space="preserve" font-family="Helvetica,Helvetica" font-size="28.8" fill="#E2E2E2" transform="matrix(1.00, 0.00, -0.00, -1.00, 268.9, 7.8)">0</text></g></g><g><clipPath id="clip0x610005cb9920"><path d="M 554.1 0.2 L 619.1 0.2 L 619.1 37.2 L 554.1 37.2 Z M 554.1 0.2 "></path></clipPath><g clip-path="url(#clip0x610005cb9920)"><text xml:space="preserve" font-family="Helvetica,Helvetica" font-size="28.8" fill="#E2E2E2" transform="matrix(1.00, 0.00, -0.00, -1.00, 555.6, 7.8)">2</text><text xml:space="preserve" font-family="Helvetica,Helvetica" font-size="28.8" fill="#E2E2E2" transform="matrix(1.00, 0.00, -0.00, -1.00, 571.7, 7.8)">0</text><text xml:space="preserve" font-family="Helvetica,Helvetica" font-size="28.8" fill="#E2E2E2" transform="matrix(1.00, 0.00, -0.00, -1.00, 587.7, 7.8)">1</text><text xml:space="preserve" font-family="Helvetica,Helvetica" font-size="28.8" fill="#E2E2E2" transform="matrix(1.00, 0.00, -0.00, -1.00, 601.6, 7.8)">1</text></g></g><g><clipPath id="clip0x610005cb9c80"><path d="M 886.8 0.2 L 953.9 0.2 L 953.9 37.2 L 886.8 37.2 Z M 886.8 0.2 "></path></clipPath><g clip-path="url(#clip0x610005cb9c80)"><text xml:space="preserve" font-family="Helvetica,Helvetica" font-size="28.8" fill="#E2E2E2" transform="matrix(1.00, 0.00, -0.00, -1.00, 888.3, 7.8)">2</text><text xml:space="preserve" font-family="Helvetica,Helvetica" font-size="28.8" fill="#E2E2E2" transform="matrix(1.00, 0.00, -0.00, -1.00, 904.3, 7.8)">0</text><text xml:space="preserve" font-family="Helvetica,Helvetica" font-size="28.8" fill="#E2E2E2" transform="matrix(1.00, 0.00, -0.00, -1.00, 920.4, 7.8)">1</text><text xml:space="preserve" font-family="Helvetica,Helvetica" font-size="28.8" fill="#E2E2E2" transform="matrix(1.00, 0.00, -0.00, -1.00, 936.4, 7.8)">2</text></g></g><g><clipPath id="clip0x610005cb9fe0"><path d="M 1220.6 0.2 L 1287.6 0.2 L 1287.6 37.2 L 1220.6 37.2 Z M 1220.6 0.2 "></path></clipPath><g clip-path="url(#clip0x610005cb9fe0)"><text xml:space="preserve" font-family="Helvetica,Helvetica" font-size="28.8" fill="#E2E2E2" transform="matrix(1.00, 0.00, -0.00, -1.00, 1222.1, 7.8)">2</text><text xml:space="preserve" font-family="Helvetica,Helvetica" font-size="28.8" fill="#E2E2E2" transform="matrix(1.00, 0.00, -0.00, -1.00, 1238.1, 7.8)">0</text><text xml:space="preserve" font-family="Helvetica,Helvetica" font-size="28.8" fill="#E2E2E2" transform="matrix(1.00, 0.00, -0.00, -1.00, 1254.1, 7.8)">1</text><text xml:space="preserve" font-family="Helvetica,Helvetica" font-size="28.8" fill="#E2E2E2" transform="matrix(1.00, 0.00, -0.00, -1.00, 1270.1, 7.8)">3</text></g></g><g><clipPath id="clip0x610005cba340"><path d="M 86.0 49.1 L 1421.0 49.1 L 1421.0 528.1 L 86.0 528.1 Z M 86.0 49.1 "></path></clipPath><g clip-path="url(#clip0x610005cba340)"><path d="M 321.0 207.0 L 381.0 207.0 L 381.0 50.0 L 321.0 50.0 Z M 321.0 207.0 " fill="#62D7AD"></path></g></g><g><clipPath id="clip0x610005cba580"><path d="M 86.0 49.1 L 1421.0 49.1 L 1421.0 528.1 L 86.0 528.1 Z M 86.0 49.1 "></path></clipPath><g clip-path="url(#clip0x610005cba580)"><path d="M 655.0 200.0 L 715.0 200.0 L 715.0 50.0 L 655.0 50.0 Z M 655.0 200.0 " fill="#62D7AD"></path></g></g><g><clipPath id="clip0x610005cba7c0"><path d="M 86.0 49.1 L 1421.0 49.1 L 1421.0 528.1 L 86.0 528.1 Z M 86.0 49.1 "></path></clipPath><g clip-path="url(#clip0x610005cba7c0)"><path d="M 989.0 254.0 L 1048.0 254.0 L 1048.0 50.0 L 989.0 50.0 Z M 989.0 254.0 " fill="#62D7AD"></path></g></g><g><clipPath id="clip0x610005cbaa00"><path d="M 86.0 49.1 L 1421.0 49.1 L 1421.0 528.1 L 86.0 528.1 Z M 86.0 49.1 "></path></clipPath><g clip-path="url(#clip0x610005cbaa00)"><path d="M 1323.0 268.0 L 1382.0 268.0 L 1382.0 50.0 L 1323.0 50.0 Z M 1323.0 268.0 " fill="#62D7AD"></path></g></g><g><clipPath id="clip0x610005cbac40"><path d="M 86.0 49.1 L 1421.0 49.1 L 1421.0 528.1 L 86.0 528.1 Z M 86.0 49.1 "></path></clipPath><g clip-path="url(#clip0x610005cbac40)"><path d="M 256.0 186.0 L 315.0 186.0 L 315.0 50.0 L 256.0 50.0 Z M 256.0 186.0 " fill="#EDC25F"></path></g></g><g><clipPath id="clip0x610005cbae80"><path d="M 86.0 49.1 L 1421.0 49.1 L 1421.0 528.1 L 86.0 528.1 Z M 86.0 49.1 "></path></clipPath><g clip-path="url(#clip0x610005cbae80)"><path d="M 590.0 213.0 L 649.0 213.0 L 649.0 50.0 L 590.0 50.0 Z M 590.0 213.0 " fill="#EDC25F"></path></g></g><g><clipPath id="clip0x610005cbb0c0"><path d="M 86.0 49.1 L 1421.0 49.1 L 1421.0 528.1 L 86.0 528.1 Z M 86.0 49.1 "></path></clipPath><g clip-path="url(#clip0x610005cbb0c0)"><path d="M 923.0 391.0 L 983.0 391.0 L 983.0 50.0 L 923.0 50.0 Z M 923.0 391.0 " fill="#EDC25F"></path></g></g><g><clipPath id="clip0x610005cbb300"><path d="M 86.0 49.1 L 1421.0 49.1 L 1421.0 528.1 L 86.0 528.1 Z M 86.0 49.1 "></path></clipPath><g clip-path="url(#clip0x610005cbb300)"><path d="M 1257.0 289.0 L 1317.0 289.0 L 1317.0 50.0 L 1257.0 50.0 Z M 1257.0 289.0 " fill="#EDC25F"></path></g></g><g><clipPath id="clip0x610005cbb540"><path d="M 86.0 49.1 L 1421.0 49.1 L 1421.0 528.1 L 86.0 528.1 Z M 86.0 49.1 "></path></clipPath><g clip-path="url(#clip0x610005cbb540)"><path d="M 190.0 138.0 L 250.0 138.0 L 250.0 50.0 L 190.0 50.0 Z M 190.0 138.0 " fill="#54C6E1"></path></g></g><g><clipPath id="clip0x610005cbb780"><path d="M 86.0 49.1 L 1421.0 49.1 L 1421.0 528.1 L 86.0 528.1 Z M 86.0 49.1 "></path></clipPath><g clip-path="url(#clip0x610005cbb780)"><path d="M 524.0 124.0 L 584.0 124.0 L 584.0 50.0 L 524.0 50.0 Z M 524.0 124.0 " fill="#54C6E1"></path></g></g><g><clipPath id="clip0x610005cbb9c0"><path d="M 86.0 49.1 L 1421.0 49.1 L 1421.0 528.1 L 86.0 528.1 Z M 86.0 49.1 "></path></clipPath><g clip-path="url(#clip0x610005cbb9c0)"><path d="M 858.0 419.0 L 917.0 419.0 L 917.0 50.0 L 858.0 50.0 Z M 858.0 419.0 " fill="#54C6E1"></path></g></g><g><clipPath id="clip0x610005cbbc00"><path d="M 86.0 49.1 L 1421.0 49.1 L 1421.0 528.1 L 86.0 528.1 Z M 86.0 49.1 "></path></clipPath><g clip-path="url(#clip0x610005cbbc00)"><path d="M 1192.0 337.0 L 1251.0 337.0 L 1251.0 50.0 L 1192.0 50.0 Z M 1192.0 337.0 " fill="#54C6E1"></path></g></g><g><clipPath id="clip0x610005cbbe40"><path d="M 86.0 49.1 L 1421.0 49.1 L 1421.0 528.1 L 86.0 528.1 Z M 86.0 49.1 "></path></clipPath><g clip-path="url(#clip0x610005cbbe40)"><path d="M 125.0 172.0 L 184.0 172.0 L 184.0 50.0 L 125.0 50.0 Z M 125.0 172.0 " fill="#FF607B"></path></g></g><g><clipPath id="clip0x610005cbc080"><path d="M 86.0 49.1 L 1421.0 49.1 L 1421.0 528.1 L 86.0 528.1 Z M 86.0 49.1 "></path></clipPath><g clip-path="url(#clip0x610005cbc080)"><path d="M 458.0 295.0 L 518.0 295.0 L 518.0 50.0 L 458.0 50.0 Z M 458.0 295.0 " fill="#FF607B"></path></g></g><g><clipPath id="clip0x610005cbc2c0"><path d="M 86.0 49.1 L 1421.0 49.1 L 1421.0 528.1 L 86.0 528.1 Z M 86.0 49.1 "></path></clipPath><g clip-path="url(#clip0x610005cbc2c0)"><path d="M 792.0 460.0 L 852.0 460.0 L 852.0 50.0 L 792.0 50.0 Z M 792.0 460.0 " fill="#FF607B"></path></g></g><g><clipPath id="clip0x610005cbc500"><path d="M 86.0 49.1 L 1421.0 49.1 L 1421.0 528.1 L 86.0 528.1 Z M 86.0 49.1 "></path></clipPath><g clip-path="url(#clip0x610005cbc500)"><path d="M 1126.0 528.0 L 1186.0 528.0 L 1186.0 50.0 L 1126.0 50.0 Z M 1126.0 528.0 " fill="#FF607B"></path></g></g><path d="M 168.0 660.0 L 194.0 660.0 L 194.0 634.0 L 168.0 634.0 Z M 168.0 660.0 " fill="#FF607B"></path><text xml:space="preserve" font-family="Helvetica,Helvetica" font-size="34.2" fill="#E2E2E2" transform="matrix(1.00, 0.00, -0.00, -1.00, 214.1, 634.2)">F</text><text xml:space="preserve" font-family="Helvetica,Helvetica" font-size="34.2" fill="#E2E2E2" transform="matrix(1.00, 0.00, -0.00, -1.00, 235.0, 634.2)">o</text><text xml:space="preserve" font-family="Helvetica,Helvetica" font-size="34.2" fill="#E2E2E2" transform="matrix(1.00, 0.00, -0.00, -1.00, 254.0, 634.2)">l</text><text xml:space="preserve" font-family="Helvetica,Helvetica" font-size="34.2" fill="#E2E2E2" transform="matrix(1.00, 0.00, -0.00, -1.00, 261.6, 634.2)">l</text><text xml:space="preserve" font-family="Helvetica,Helvetica" font-size="34.2" fill="#E2E2E2" transform="matrix(1.00, 0.00, -0.00, -1.00, 269.2, 634.2)">o</text><text xml:space="preserve" font-family="Helvetica,Helvetica" font-size="34.2" fill="#E2E2E2" transform="matrix(1.00, 0.00, -0.00, -1.00, 288.3, 634.2)">w</text><text xml:space="preserve" font-family="Helvetica,Helvetica" font-size="34.2" fill="#E2E2E2" transform="matrix(1.00, 0.00, -0.00, -1.00, 313.0, 634.2)">e</text><text xml:space="preserve" font-family="Helvetica,Helvetica" font-size="34.2" fill="#E2E2E2" transform="matrix(1.00, 0.00, -0.00, -1.00, 332.0, 634.2)">r</text><text xml:space="preserve" font-family="Helvetica,Helvetica" font-size="34.2" fill="#E2E2E2" transform="matrix(1.00, 0.00, -0.00, -1.00, 343.4, 634.2)">s</text><path d="M 477.0 660.0 L 503.0 660.0 L 503.0 634.0 L 477.0 634.0 Z M 477.0 660.0 " fill="#54C6E1"></path><text xml:space="preserve" font-family="Helvetica,Helvetica" font-size="34.2" fill="#E2E2E2" transform="matrix(1.00, 0.00, -0.00, -1.00, 523.3, 634.2)">F</text><text xml:space="preserve" font-family="Helvetica,Helvetica" font-size="34.2" fill="#E2E2E2" transform="matrix(1.00, 0.00, -0.00, -1.00, 544.1, 634.2)">o</text><text xml:space="preserve" font-family="Helvetica,Helvetica" font-size="34.2" fill="#E2E2E2" transform="matrix(1.00, 0.00, -0.00, -1.00, 563.2, 634.2)">l</text><text xml:space="preserve" font-family="Helvetica,Helvetica" font-size="34.2" fill="#E2E2E2" transform="matrix(1.00, 0.00, -0.00, -1.00, 570.7, 634.2)">l</text><text xml:space="preserve" font-family="Helvetica,Helvetica" font-size="34.2" fill="#E2E2E2" transform="matrix(1.00, 0.00, -0.00, -1.00, 578.3, 634.2)">o</text><text xml:space="preserve" font-family="Helvetica,Helvetica" font-size="34.2" fill="#E2E2E2" transform="matrix(1.00, 0.00, -0.00, -1.00, 597.3, 634.2)">w</text><text xml:space="preserve" font-family="Helvetica,Helvetica" font-size="34.2" fill="#E2E2E2" transform="matrix(1.00, 0.00, -0.00, -1.00, 622.0, 634.2)">i</text><text xml:space="preserve" font-family="Helvetica,Helvetica" font-size="34.2" fill="#E2E2E2" transform="matrix(1.00, 0.00, -0.00, -1.00, 629.6, 634.2)">n</text><text xml:space="preserve" font-family="Helvetica,Helvetica" font-size="34.2" fill="#E2E2E2" transform="matrix(1.00, 0.00, -0.00, -1.00, 648.6, 634.2)">g</text><path d="M 784.0 660.0 L 811.0 660.0 L 811.0 634.0 L 784.0 634.0 Z M 784.0 660.0 " fill="#EDC25F"></path><text xml:space="preserve" font-family="Helvetica,Helvetica" font-size="34.2" fill="#E2E2E2" transform="matrix(1.00, 0.00, -0.00, -1.00, 830.5, 634.2)">F</text><text xml:space="preserve" font-family="Helvetica,Helvetica" font-size="34.2" fill="#E2E2E2" transform="matrix(1.00, 0.00, -0.00, -1.00, 851.4, 634.2)">a</text><text xml:space="preserve" font-family="Helvetica,Helvetica" font-size="34.2" fill="#E2E2E2" transform="matrix(1.00, 0.00, -0.00, -1.00, 870.4, 634.2)">v</text><text xml:space="preserve" font-family="Helvetica,Helvetica" font-size="34.2" fill="#E2E2E2" transform="matrix(1.00, 0.00, -0.00, -1.00, 887.5, 634.2)">o</text><text xml:space="preserve" font-family="Helvetica,Helvetica" font-size="34.2" fill="#E2E2E2" transform="matrix(1.00, 0.00, -0.00, -1.00, 906.6, 634.2)">r</text><text xml:space="preserve" font-family="Helvetica,Helvetica" font-size="34.2" fill="#E2E2E2" transform="matrix(1.00, 0.00, -0.00, -1.00, 917.9, 634.2)">i</text><text xml:space="preserve" font-family="Helvetica,Helvetica" font-size="34.2" fill="#E2E2E2" transform="matrix(1.00, 0.00, -0.00, -1.00, 925.6, 634.2)">t</text><text xml:space="preserve" font-family="Helvetica,Helvetica" font-size="34.2" fill="#E2E2E2" transform="matrix(1.00, 0.00, -0.00, -1.00, 935.0, 634.2)">e</text><text xml:space="preserve" font-family="Helvetica,Helvetica" font-size="34.2" fill="#E2E2E2" transform="matrix(1.00, 0.00, -0.00, -1.00, 954.1, 634.2)">s</text><path d="M 1088.0 660.0 L 1114.0 660.0 L 1114.0 634.0 L 1088.0 634.0 Z M 1088.0 660.0 " fill="#62D7AD"></path><text xml:space="preserve" font-family="Helvetica,Helvetica" font-size="34.2" fill="#E2E2E2" transform="matrix(1.00, 0.00, -0.00, -1.00, 1134.0, 634.2)">R</text><text xml:space="preserve" font-family="Helvetica,Helvetica" font-size="34.2" fill="#E2E2E2" transform="matrix(1.00, 0.00, -0.00, -1.00, 1158.7, 634.2)">e</text><text xml:space="preserve" font-family="Helvetica,Helvetica" font-size="34.2" fill="#E2E2E2" transform="matrix(1.00, 0.00, -0.00, -1.00, 1177.7, 634.2)">t</text><text xml:space="preserve" font-family="Helvetica,Helvetica" font-size="34.2" fill="#E2E2E2" transform="matrix(1.00, 0.00, -0.00, -1.00, 1187.2, 634.2)">w</text><text xml:space="preserve" font-family="Helvetica,Helvetica" font-size="34.2" fill="#E2E2E2" transform="matrix(1.00, 0.00, -0.00, -1.00, 1211.9, 634.2)">e</text><text xml:space="preserve" font-family="Helvetica,Helvetica" font-size="34.2" fill="#E2E2E2" transform="matrix(1.00, 0.00, -0.00, -1.00, 1230.9, 634.2)">e</text><text xml:space="preserve" font-family="Helvetica,Helvetica" font-size="34.2" fill="#E2E2E2" transform="matrix(1.00, 0.00, -0.00, -1.00, 1250.0, 634.2)">t</text><text xml:space="preserve" font-family="Helvetica,Helvetica" font-size="34.2" fill="#E2E2E2" transform="matrix(1.00, 0.00, -0.00, -1.00, 1259.5, 634.2)">s</text></g></svg>