<?xml version="1.0" encoding="UTF-8" standalone="no"?><svg xmlns="http://www.w3.org/2000/svg" xmlns:xlink="http://www.w3.org/1999/xlink" clip-rule="evenodd" stroke-miterlimit="10" viewBox="0 0 593 249"><desc>SVG generated by Keynote</desc><defs></defs><g transform="matrix(1.00, 0.00, -0.00, -1.00, 0.0, 249.0)"><g><clipPath id="clip0x6000066bfb00"><path d="M -37.0 1.1 L 1298.0 1.1 L 1298.0 480.1 L -37.0 480.1 Z M -37.0 1.1 "></path></clipPath><g clip-path="url(#clip0x6000066bfb00)"><path d="M 198.0 159.0 L 258.0 159.0 L 258.0 2.0 L 198.0 2.0 Z M 198.0 159.0 " fill="#62D7AD"></path></g></g><g><clipPath id="clip0x6000066bfda0"><path d="M -37.0 1.1 L 1298.0 1.1 L 1298.0 480.1 L -37.0 480.1 Z M -37.0 1.1 "></path></clipPath><g clip-path="url(#clip0x6000066bfda0)"><path d="M 532.0 152.0 L 592.0 152.0 L 592.0 2.0 L 532.0 2.0 Z M 532.0 152.0 " fill="#62D7AD"></path></g></g><g><clipPath id="clip0x6000066bff20"><path d="M -37.0 1.1 L 1298.0 1.1 L 1298.0 480.1 L -37.0 480.1 Z M -37.0 1.1 "></path></clipPath><g clip-path="url(#clip0x6000066bff20)"><path d="M 133.0 138.0 L 192.0 138.0 L 192.0 2.0 L 133.0 2.0 Z M 133.0 138.0 " fill="#EDC25F"></path></g></g><g><clipPath id="clip0x6000068a0120"><path d="M -37.0 1.1 L 1298.0 1.1 L 1298.0 480.1 L -37.0 480.1 Z M -37.0 1.1 "></path></clipPath><g clip-path="url(#clip0x6000068a0120)"><path d="M 467.0 165.0 L 526.0 165.0 L 526.0 2.0 L 467.0 2.0 Z M 467.0 165.0 " fill="#EDC25F"></path></g></g><g><clipPath id="clip0x6000068a03c0"><path d="M -37.0 1.1 L 1298.0 1.1 L 1298.0 480.1 L -37.0 480.1 Z M -37.0 1.1 "></path></clipPath><g clip-path="url(#clip0x6000068a03c0)"><path d="M 67.0 90.0 L 127.0 90.0 L 127.0 2.0 L 67.0 2.0 Z M 67.0 90.0 " fill="#54C6E1"></path></g></g><g><clipPath id="clip0x6000068a0600"><path d="M -37.0 1.1 L 1298.0 1.1 L 1298.0 480.1 L -37.0 480.1 Z M -37.0 1.1 "></path></clipPath><g clip-path="url(#clip0x6000068a0600)"><path d="M 401.0 76.0 L 461.0 76.0 L 461.0 2.0 L 401.0 2.0 Z M 401.0 76.0 " fill="#54C6E1"></path></g></g><g><clipPath id="clip0x6000068a0840"><path d="M -37.0 1.1 L 1298.0 1.1 L 1298.0 480.1 L -37.0 480.1 Z M -37.0 1.1 "></path></clipPath><g clip-path="url(#clip0x6000068a0840)"><path d="M 2.0 124.0 L 61.0 124.0 L 61.0 2.0 L 2.0 2.0 Z M 2.0 124.0 " fill="#FF607B"></path></g></g><g><clipPath id="clip0x6000068a0a80"><path d="M -37.0 1.1 L 1298.0 1.1 L 1298.0 480.1 L -37.0 480.1 Z M -37.0 1.1 "></path></clipPath><g clip-path="url(#clip0x6000068a0a80)"><path d="M 335.0 247.0 L 395.0 247.0 L 395.0 2.0 L 335.0 2.0 Z M 335.0 247.0 " fill="#FF607B"></path></g></g></g></svg>