<?xml version="1.0" encoding="UTF-8" standalone="no"?><svg xmlns="http://www.w3.org/2000/svg" xmlns:xlink="http://www.w3.org/1999/xlink" clip-rule="evenodd" stroke-miterlimit="10" viewBox="0 0 259 249"><desc>SVG generated by Keynote</desc><defs></defs><g transform="matrix(1.00, 0.00, -0.00, -1.00, 0.0, 249.0)"><g><clipPath id="clip0x608005aaca20"><path d="M -371.0 1.1 L 964.0 1.1 L 964.0 480.1 L -371.0 480.1 Z M -371.0 1.1 "></path></clipPath><g clip-path="url(#clip0x608005aaca20)"><path d="M 198.0 152.0 L 258.0 152.0 L 258.0 2.0 L 198.0 2.0 Z M 198.0 152.0 " fill="#62D7AD"></path></g></g><g><clipPath id="clip0x608005aacc00"><path d="M -371.0 1.1 L 964.0 1.1 L 964.0 480.1 L -371.0 480.1 Z M -371.0 1.1 "></path></clipPath><g clip-path="url(#clip0x608005aacc00)"><path d="M 133.0 165.0 L 192.0 165.0 L 192.0 2.0 L 133.0 2.0 Z M 133.0 165.0 " fill="#EDC25F"></path></g></g><g><clipPath id="clip0x608005aace40"><path d="M -371.0 1.1 L 964.0 1.1 L 964.0 480.1 L -371.0 480.1 Z M -371.0 1.1 "></path></clipPath><g clip-path="url(#clip0x608005aace40)"><path d="M 67.0 76.0 L 127.0 76.0 L 127.0 2.0 L 67.0 2.0 Z M 67.0 76.0 " fill="#54C6E1"></path></g></g><g><clipPath id="clip0x608005aad080"><path d="M -371.0 1.1 L 964.0 1.1 L 964.0 480.1 L -371.0 480.1 Z M -371.0 1.1 "></path></clipPath><g clip-path="url(#clip0x608005aad080)"><path d="M 1.0 247.0 L 61.0 247.0 L 61.0 2.0 L 1.0 2.0 Z M 1.0 247.0 " fill="#FF607B"></path></g></g></g></svg>