<?xml version="1.0" encoding="UTF-8" standalone="no"?><svg xmlns="http://www.w3.org/2000/svg" xmlns:xlink="http://www.w3.org/1999/xlink" clip-rule="evenodd" stroke-miterlimit="10" viewBox="0 0 585 56"><desc>SVG generated by Keynote</desc><defs></defs><g transform="matrix(1.00, 0.00, -0.00, -1.00, 0.0, 56.0)"><text xml:space="preserve" font-family="Helvetica,Helvetica" font-size="54.0" fill="#E2E2E2" transform="matrix(1.00, 0.00, -0.00, -1.00, -3.1, 13.7)">E</text><text xml:space="preserve" font-family="Helvetica,Helvetica" font-size="54.0" fill="#E2E2E2" transform="matrix(1.00, 0.00, -0.00, -1.00, 32.9, 13.7)">f</text><text xml:space="preserve" font-family="Helvetica,Helvetica" font-size="54.0" fill="#E2E2E2" transform="matrix(1.00, 0.00, -0.00, -1.00, 47.9, 13.7)">ï¬</text><text xml:space="preserve" font-family="Helvetica,Helvetica" font-size="54.0" fill="#E2E2E2" transform="matrix(1.00, 0.00, -0.00, -1.00, 74.9, 13.7)">c</text><text xml:space="preserve" font-family="Helvetica,Helvetica" font-size="54.0" fill="#E2E2E2" transform="matrix(1.00, 0.00, -0.00, -1.00, 101.9, 13.7)">i</text><text xml:space="preserve" font-family="Helvetica,Helvetica" font-size="54.0" fill="#E2E2E2" transform="matrix(1.00, 0.00, -0.00, -1.00, 113.9, 13.7)">e</text><text xml:space="preserve" font-family="Helvetica,Helvetica" font-size="54.0" fill="#E2E2E2" transform="matrix(1.00, 0.00, -0.00, -1.00, 143.9, 13.7)">n</text><text xml:space="preserve" font-family="Helvetica,Helvetica" font-size="54.0" fill="#E2E2E2" transform="matrix(1.00, 0.00, -0.00, -1.00, 174.0, 13.7)">c</text><text xml:space="preserve" font-family="Helvetica,Helvetica" font-size="54.0" fill="#E2E2E2" transform="matrix(1.00, 0.00, -0.00, -1.00, 201.0, 13.7)">y</text><text xml:space="preserve" font-family="Helvetica,Helvetica" font-size="54.0" fill="#E2E2E2" transform="matrix(1.00, 0.00, -0.00, -1.00, 228.0, 13.7)"> </text><text xml:space="preserve" font-family="Helvetica,Helvetica" font-size="54.0" fill="#E2E2E2" transform="matrix(1.00, 0.00, -0.00, -1.00, 240.0, 13.7)">A</text><text xml:space="preserve" font-family="Helvetica,Helvetica" font-size="54.0" fill="#E2E2E2" transform="matrix(1.00, 0.00, -0.00, -1.00, 276.0, 13.7)">n</text><text xml:space="preserve" font-family="Helvetica,Helvetica" font-size="54.0" fill="#E2E2E2" transform="matrix(1.00, 0.00, -0.00, -1.00, 306.1, 13.7)">a</text><text xml:space="preserve" font-family="Helvetica,Helvetica" font-size="54.0" fill="#E2E2E2" transform="matrix(1.00, 0.00, -0.00, -1.00, 336.1, 13.7)">l</text><text xml:space="preserve" font-family="Helvetica,Helvetica" font-size="54.0" fill="#E2E2E2" transform="matrix(1.00, 0.00, -0.00, -1.00, 348.1, 13.7)">y</text><text xml:space="preserve" font-family="Helvetica,Helvetica" font-size="54.0" fill="#E2E2E2" transform="matrix(1.00, 0.00, -0.00, -1.00, 375.1, 13.7)">z</text><text xml:space="preserve" font-family="Helvetica,Helvetica" font-size="54.0" fill="#E2E2E2" transform="matrix(1.00, 0.00, -0.00, -1.00, 402.1, 13.7)">e</text><text xml:space="preserve" font-family="Helvetica,Helvetica" font-size="54.0" fill="#E2E2E2" transform="matrix(1.00, 0.00, -0.00, -1.00, 432.2, 13.7)"> </text><text xml:space="preserve" font-family="Helvetica,Helvetica" font-size="54.0" fill="#E2E2E2" transform="matrix(1.00, 0.00, -0.00, -1.00, 447.2, 13.7)">C</text><text xml:space="preserve" font-family="Helvetica,Helvetica" font-size="54.0" fill="#E2E2E2" transform="matrix(1.00, 0.00, -0.00, -1.00, 486.2, 13.7)">i</text><text xml:space="preserve" font-family="Helvetica,Helvetica" font-size="54.0" fill="#E2E2E2" transform="matrix(1.00, 0.00, -0.00, -1.00, 498.2, 13.7)">r</text><text xml:space="preserve" font-family="Helvetica,Helvetica" font-size="54.0" fill="#E2E2E2" transform="matrix(1.00, 0.00, -0.00, -1.00, 516.2, 13.7)">c</text><text xml:space="preserve" font-family="Helvetica,Helvetica" font-size="54.0" fill="#E2E2E2" transform="matrix(1.00, 0.00, -0.00, -1.00, 543.2, 13.7)">l</text><text xml:space="preserve" font-family="Helvetica,Helvetica" font-size="54.0" fill="#E2E2E2" transform="matrix(1.00, 0.00, -0.00, -1.00, 555.2, 13.7)">e</text></g></svg>