<?xml version="1.0" encoding="UTF-8" standalone="no"?><svg xmlns="http://www.w3.org/2000/svg" xmlns:xlink="http://www.w3.org/1999/xlink" clip-rule="evenodd" stroke-miterlimit="10" viewBox="0 0 271 271"><desc>SVG generated by Keynote</desc><defs></defs><g transform="matrix(1.00, 0.00, -0.00, -1.00, 0.0, 271.0)"><g><clipPath id="clip0x6000052b0080"><path d="M 0.6 0.7 L 270.6 0.7 L 270.6 270.7 L 0.6 270.7 Z M 0.6 0.7 "></path></clipPath><g clip-path="url(#clip0x6000052b0080)"><path d="M 1.0 271.0 L 271.0 271.0 L 271.0 1.0 L 1.0 1.0 Z M 1.0 271.0 " fill="#000000" fill-opacity="0.00"></path></g></g><g><clipPath id="clip0x6000012aaec0"><path d="M 0.6 0.7 L 270.6 0.7 L 270.6 270.7 L 0.6 270.7 Z M 0.6 0.7 "></path></clipPath><g clip-path="url(#clip0x6000012aaec0)"><g><g><clipPath id="clip0x600000abbd80"><path d="M 0.0 0.0 L 271.0 0.0 L 271.0 271.0 L 0.0 271.0 Z M 0.0 0.0 "></path></clipPath><g clip-path="url(#clip0x600000abbd80)"><g><g><clipPath id="clip0x6000012b4820"><path d="M 0.0 0.0 L 271.0 0.0 L 271.0 271.0 L 0.0 271.0 Z M 0.0 0.0 "></path></clipPath><g clip-path="url(#clip0x6000012b4820)"><path d="M 136.0 136.0 L 136.0 271.0 C 61.4 271.0 1.0 210.6 1.0 136.0 C 1.0 61.4 61.4 1.0 136.0 1.0 C 171.8 1.0 206.1 15.2 231.5 40.5 Z M 136.0 136.0 " fill="#54C6E1"></path></g></g></g></g></g><g><clipPath id="clip0x6000012abe80"><path d="M 0.0 0.0 L 271.0 0.0 L 271.0 271.0 L 0.0 271.0 Z M 0.0 0.0 "></path></clipPath><g clip-path="url(#clip0x6000012abe80)"><g><g><clipPath id="clip0x6000014b43a0"><path d="M 0.0 0.0 L 271.0 0.0 L 271.0 271.0 L 0.0 271.0 Z M 0.0 0.0 "></path></clipPath><g clip-path="url(#clip0x6000014b43a0)"><path d="M 136.0 136.0 L 231.5 40.5 C 284.2 93.3 284.2 178.7 231.5 231.5 C 206.1 256.8 171.8 271.0 136.0 271.0 Z M 136.0 136.0 " fill="#5A6378"></path></g></g></g></g></g></g></g></g><g><clipPath id="clip0x6000014b4d60"><path d="M 16.4 16.6 L 254.6 16.6 L 254.6 254.9 L 16.4 254.9 Z M 16.4 16.6 "></path></clipPath><g clip-path="url(#clip0x6000014b4d60)"><path d="M 219.0 219.3 C 265.1 173.2 265.1 98.4 219.0 52.2 C 172.9 6.1 98.1 6.1 52.0 52.2 C 5.8 98.4 5.8 173.2 52.0 219.3 C 98.1 265.4 172.9 265.4 219.0 219.3 Z M 219.0 219.3 " fill="#5A6378"></path></g></g></g></svg>