<?xml version="1.0" encoding="UTF-8" standalone="no"?><svg xmlns="http://www.w3.org/2000/svg" xmlns:xlink="http://www.w3.org/1999/xlink" clip-rule="evenodd" stroke-miterlimit="10" viewBox="0 0 271 271"><desc>SVG generated by Keynote</desc><defs></defs><g transform="matrix(1.00, 0.00, -0.00, -1.00, 0.0, 271.0)"><g><clipPath id="clip0x6000052b7ca0"><path d="M 0.6 0.7 L 270.6 0.7 L 270.6 270.7 L 0.6 270.7 Z M 0.6 0.7 "></path></clipPath><g clip-path="url(#clip0x6000052b7ca0)"><path d="M 1.0 271.0 L 271.0 271.0 L 271.0 1.0 L 1.0 1.0 Z M 1.0 271.0 " fill="#000000" fill-opacity="0.00"></path></g></g><g><clipPath id="clip0x6000052b8060"><path d="M 0.6 0.7 L 270.6 0.7 L 270.6 270.7 L 0.6 270.7 Z M 0.6 0.7 "></path></clipPath><g clip-path="url(#clip0x6000052b8060)"><g><g><clipPath id="clip0x6000052b81e0"><path d="M 0.0 0.0 L 271.0 0.0 L 271.0 271.0 L 0.0 271.0 Z M 0.0 0.0 "></path></clipPath><g clip-path="url(#clip0x6000052b81e0)"><g><g><clipPath id="clip0x6000052b83c0"><path d="M 0.0 0.0 L 271.0 0.0 L 271.0 271.0 L 0.0 271.0 Z M 0.0 0.0 "></path></clipPath><g clip-path="url(#clip0x6000052b83c0)"><path d="M 136.0 136.0 L 136.0 271.0 C 61.4 271.0 1.0 210.6 1.0 136.0 C 1.0 61.4 61.4 1.0 136.0 1.0 C 184.2 1.0 228.8 26.7 252.9 68.5 Z M 136.0 136.0 " fill="#62D7AD"></path></g></g></g></g></g><g><clipPath id="clip0x6000052b8600"><path d="M 0.0 0.0 L 271.0 0.0 L 271.0 271.0 L 0.0 271.0 Z M 0.0 0.0 "></path></clipPath><g clip-path="url(#clip0x6000052b8600)"><g><g><clipPath id="clip0x6000052b87e0"><path d="M 0.0 0.0 L 271.0 0.0 L 271.0 271.0 L 0.0 271.0 Z M 0.0 0.0 "></path></clipPath><g clip-path="url(#clip0x6000052b87e0)"><path d="M 136.0 136.0 L 252.9 68.5 C 290.2 133.1 268.1 215.6 203.5 252.9 C 183.0 264.8 159.7 271.0 136.0 271.0 Z M 136.0 136.0 " fill="#5A6378"></path></g></g></g></g></g></g></g></g><g><clipPath id="clip0x6000052b8a20"><path d="M 16.4 16.6 L 254.6 16.6 L 254.6 254.9 L 16.4 254.9 Z M 16.4 16.6 "></path></clipPath><g clip-path="url(#clip0x6000052b8a20)"><path d="M 219.0 219.3 C 265.2 173.2 265.2 98.4 219.0 52.2 C 172.9 6.1 98.1 6.1 52.0 52.2 C 5.9 98.4 5.9 173.2 52.0 219.3 C 98.1 265.4 172.9 265.4 219.0 219.3 Z M 219.0 219.3 " fill="#5A6378"></path></g></g></g></svg>