<?xml version="1.0" encoding="UTF-8" standalone="no"?><svg xmlns="http://www.w3.org/2000/svg" xmlns:xlink="http://www.w3.org/1999/xlink" clip-rule="evenodd" stroke-miterlimit="10" viewBox="0 0 822 68"><desc>SVG generated by Keynote</desc><defs></defs><g transform="matrix(1.00, 0.00, -0.00, -1.00, 0.0, 68.0)"><text xml:space="preserve" font-family="Helvetica,Helvetica" font-size="84.0" fill="#F6F6F6" transform="matrix(1.00, 0.00, -0.00, -1.00, -2.2, 3.7)">C</text><text xml:space="preserve" font-family="Helvetica,Helvetica" font-size="84.0" fill="#F6F6F6" transform="matrix(1.00, 0.00, -0.00, -1.00, 58.5, 3.7)">O</text><text xml:space="preserve" font-family="Helvetica,Helvetica" font-size="84.0" fill="#F6F6F6" transform="matrix(1.00, 0.00, -0.00, -1.00, 123.8, 3.7)">M</text><text xml:space="preserve" font-family="Helvetica,Helvetica" font-size="84.0" fill="#F6F6F6" transform="matrix(1.00, 0.00, -0.00, -1.00, 193.8, 3.7)">P</text><text xml:space="preserve" font-family="Helvetica,Helvetica" font-size="84.0" fill="#F6F6F6" transform="matrix(1.00, 0.00, -0.00, -1.00, 243.7, 3.7)">A</text><text xml:space="preserve" font-family="Helvetica,Helvetica" font-size="84.0" fill="#F6F6F6" transform="matrix(1.00, 0.00, -0.00, -1.00, 299.7, 3.7)">N</text><text xml:space="preserve" font-family="Helvetica,Helvetica" font-size="84.0" fill="#F6F6F6" transform="matrix(1.00, 0.00, -0.00, -1.00, 360.4, 3.7)">Y</text><text xml:space="preserve" font-family="Helvetica,Helvetica" font-size="84.0" fill="#F6F6F6" transform="matrix(1.00, 0.00, -0.00, -1.00, 414.9, 3.7)"> </text><text xml:space="preserve" font-family="Helvetica,Helvetica" font-size="84.0" fill="#F6F6F6" transform="matrix(1.00, 0.00, -0.00, -1.00, 436.8, 3.7)">T</text><text xml:space="preserve" font-family="Helvetica,Helvetica" font-size="84.0" fill="#F6F6F6" transform="matrix(1.00, 0.00, -0.00, -1.00, 488.1, 3.7)">I</text><text xml:space="preserve" font-family="Helvetica,Helvetica" font-size="84.0" fill="#F6F6F6" transform="matrix(1.00, 0.00, -0.00, -1.00, 511.4, 3.7)">M</text><text xml:space="preserve" font-family="Helvetica,Helvetica" font-size="84.0" fill="#F6F6F6" transform="matrix(1.00, 0.00, -0.00, -1.00, 581.4, 3.7)">E</text><text xml:space="preserve" font-family="Helvetica,Helvetica" font-size="84.0" fill="#F6F6F6" transform="matrix(1.00, 0.00, -0.00, -1.00, 637.4, 3.7)">L</text><text xml:space="preserve" font-family="Helvetica,Helvetica" font-size="84.0" fill="#F6F6F6" transform="matrix(1.00, 0.00, -0.00, -1.00, 684.1, 3.7)">I</text><text xml:space="preserve" font-family="Helvetica,Helvetica" font-size="84.0" fill="#F6F6F6" transform="matrix(1.00, 0.00, -0.00, -1.00, 707.4, 3.7)">N</text><text xml:space="preserve" font-family="Helvetica,Helvetica" font-size="84.0" fill="#F6F6F6" transform="matrix(1.00, 0.00, -0.00, -1.00, 768.1, 3.7)">E</text></g></svg>