<?xml version="1.0" encoding="UTF-8" standalone="no"?><svg xmlns="http://www.w3.org/2000/svg" xmlns:xlink="http://www.w3.org/1999/xlink" clip-rule="evenodd" stroke-miterlimit="10" viewBox="0 0 524 228"><desc>SVG generated by Keynote</desc><defs></defs><g transform="matrix(1.00, 0.00, -0.00, -1.00, 0.0, 228.0)"><g><clipPath id="clip0x6080058a98a0"><path d="M 0.2 0.1 L 523.8 0.1 L 523.8 119.0 L 0.2 119.0 Z M 0.2 0.1 "></path></clipPath><g clip-path="url(#clip0x6080058a98a0)"><image xlink:href="C20416BECB461B071C26C17936F37277.png" width="522.00" height="117.00" transform="matrix(1.00, 0.00, -0.00, -1.00, 1.2, 118.0)" opacity="0.50"></image><path d="M 444.3 100.7 C 545.0 79.1 545.0 44.0 444.3 22.3 C 343.6 0.6 180.4 0.6 79.7 22.3 C -21.0 44.0 -21.0 79.1 79.7 100.7 C 180.4 122.4 343.6 122.4 444.3 100.7 Z M 444.3 100.7 " fill="#EB546E"></path></g></g><g><clipPath id="clip0x618005ca8e80"><path d="M 3.2 62.9 L 520.8 62.9 L 520.8 175.9 L 3.2 175.9 Z M 3.2 62.9 "></path></clipPath><g clip-path="url(#clip0x618005ca8e80)"><path d="M 4.0 175.0 L 520.0 175.0 L 520.0 64.0 L 4.0 64.0 Z M 4.2 174.9 " fill="#E9546E"></path></g></g><g><clipPath id="clip0x6180050b8f00"><path d="M 3.2 114.7 L 520.8 114.7 L 520.8 227.7 L 3.2 227.7 Z M 3.2 114.7 "></path></clipPath><g clip-path="url(#clip0x6180050b8f00)"><path d="M 444.3 210.4 C 545.0 188.8 545.0 153.7 444.3 132.0 C 343.6 110.3 180.4 110.3 79.7 132.0 C -21.0 153.7 -21.0 188.8 79.7 210.4 C 180.4 232.1 343.6 232.1 444.3 210.4 Z M 444.3 210.4 " fill="#FF607B"></path></g></g><g><clipPath id="clip0x6180050b7be0"><path d="M 207.1 15.7 L 316.9 15.7 L 316.9 102.5 L 207.1 102.5 Z M 207.1 15.7 "></path></clipPath><g clip-path="url(#clip0x6180050b7be0)"><text xml:space="preserve" font-family="Sosa-Regular,Sosa" font-size="56.0" fill="#B94155" transform="matrix(1.00, 0.00, -0.00, -1.00, 234.0, 46.9)">h</text><text xml:space="preserve" font-family="Sosa-Regular,Sosa" font-size="56.0" fill="#F6F6F6" transform="matrix(1.00, 0.00, -0.00, -1.00, 290.0, 46.9)"> </text><text xml:space="preserve" font-family="Sosa-Regular,Sosa" font-size="56.0" fill="#F6F6F6" transform="matrix(1.00, 0.00, -0.00, -1.00, 302.0, 46.9)"> </text></g></g></g></svg>