<?xml version="1.0" encoding="UTF-8" standalone="no"?><svg xmlns="http://www.w3.org/2000/svg" xmlns:xlink="http://www.w3.org/1999/xlink" clip-rule="evenodd" stroke-miterlimit="10" viewBox="0 0 480 22"><desc>SVG generated by Keynote</desc><defs></defs><g transform="matrix(1.00, 0.00, -0.00, -1.00, 0.0, 22.0)"><text xml:space="preserve" font-family="Helvetica,Helvetica" font-size="20.0" fill="#E2E2E2" transform="matrix(1.00, 0.00, -0.00, -1.00, 1.9, 6.5)">t</text><text xml:space="preserve" font-family="Helvetica,Helvetica" font-size="20.0" fill="#E2E2E2" transform="matrix(1.00, 0.00, -0.00, -1.00, 7.4, 6.5)">a</text><text xml:space="preserve" font-family="Helvetica,Helvetica" font-size="20.0" fill="#E2E2E2" transform="matrix(1.00, 0.00, -0.00, -1.00, 18.5, 6.5)">t</text><text xml:space="preserve" font-family="Helvetica,Helvetica" font-size="20.0" fill="#E2E2E2" transform="matrix(1.00, 0.00, -0.00, -1.00, 24.1, 6.5)">i</text><text xml:space="preserve" font-family="Helvetica,Helvetica" font-size="20.0" fill="#E2E2E2" transform="matrix(1.00, 0.00, -0.00, -1.00, 28.5, 6.5)">o</text><text xml:space="preserve" font-family="Helvetica,Helvetica" font-size="20.0" fill="#E2E2E2" transform="matrix(1.00, 0.00, -0.00, -1.00, 39.7, 6.5)">n</text><text xml:space="preserve" font-family="Helvetica,Helvetica" font-size="20.0" fill="#E2E2E2" transform="matrix(1.00, 0.00, -0.00, -1.00, 50.8, 6.5)"> </text><text xml:space="preserve" font-family="Helvetica,Helvetica" font-size="20.0" fill="#E2E2E2" transform="matrix(1.00, 0.00, -0.00, -1.00, 56.3, 6.5)">u</text><text xml:space="preserve" font-family="Helvetica,Helvetica" font-size="20.0" fill="#E2E2E2" transform="matrix(1.00, 0.00, -0.00, -1.00, 67.5, 6.5)">l</text><text xml:space="preserve" font-family="Helvetica,Helvetica" font-size="20.0" fill="#E2E2E2" transform="matrix(1.00, 0.00, -0.00, -1.00, 71.9, 6.5)">l</text><text xml:space="preserve" font-family="Helvetica,Helvetica" font-size="20.0" fill="#E2E2E2" transform="matrix(1.00, 0.00, -0.00, -1.00, 76.4, 6.5)">a</text><text xml:space="preserve" font-family="Helvetica,Helvetica" font-size="20.0" fill="#E2E2E2" transform="matrix(1.00, 0.00, -0.00, -1.00, 87.5, 6.5)">m</text><text xml:space="preserve" font-family="Helvetica,Helvetica" font-size="20.0" fill="#E2E2E2" transform="matrix(1.00, 0.00, -0.00, -1.00, 104.2, 6.5)">c</text><text xml:space="preserve" font-family="Helvetica,Helvetica" font-size="20.0" fill="#E2E2E2" transform="matrix(1.00, 0.00, -0.00, -1.00, 114.2, 6.5)">o</text><text xml:space="preserve" font-family="Helvetica,Helvetica" font-size="20.0" fill="#E2E2E2" transform="matrix(1.00, 0.00, -0.00, -1.00, 125.3, 6.5)">r</text><text xml:space="preserve" font-family="Helvetica,Helvetica" font-size="20.0" fill="#E2E2E2" transform="matrix(1.00, 0.00, -0.00, -1.00, 131.9, 6.5)">p</text><text xml:space="preserve" font-family="Helvetica,Helvetica" font-size="20.0" fill="#E2E2E2" transform="matrix(1.00, 0.00, -0.00, -1.00, 143.1, 6.5)">e</text><text xml:space="preserve" font-family="Helvetica,Helvetica" font-size="20.0" fill="#E2E2E2" transform="matrix(1.00, 0.00, -0.00, -1.00, 154.2, 6.5)">r</text><text xml:space="preserve" font-family="Helvetica,Helvetica" font-size="20.0" fill="#E2E2E2" transform="matrix(1.00, 0.00, -0.00, -1.00, 160.9, 6.5)"> </text><text xml:space="preserve" font-family="Helvetica,Helvetica" font-size="20.0" fill="#E2E2E2" transform="matrix(1.00, 0.00, -0.00, -1.00, 166.4, 6.5)">s</text><text xml:space="preserve" font-family="Helvetica,Helvetica" font-size="20.0" fill="#E2E2E2" transform="matrix(1.00, 0.00, -0.00, -1.00, 176.4, 6.5)">u</text><text xml:space="preserve" font-family="Helvetica,Helvetica" font-size="20.0" fill="#E2E2E2" transform="matrix(1.00, 0.00, -0.00, -1.00, 187.5, 6.5)">s</text><text xml:space="preserve" font-family="Helvetica,Helvetica" font-size="20.0" fill="#E2E2E2" transform="matrix(1.00, 0.00, -0.00, -1.00, 197.5, 6.5)">c</text><text xml:space="preserve" font-family="Helvetica,Helvetica" font-size="20.0" fill="#E2E2E2" transform="matrix(1.00, 0.00, -0.00, -1.00, 207.5, 6.5)">i</text><text xml:space="preserve" font-family="Helvetica,Helvetica" font-size="20.0" fill="#E2E2E2" transform="matrix(1.00, 0.00, -0.00, -1.00, 212.0, 6.5)">p</text><text xml:space="preserve" font-family="Helvetica,Helvetica" font-size="20.0" fill="#E2E2E2" transform="matrix(1.00, 0.00, -0.00, -1.00, 223.1, 6.5)">i</text><text xml:space="preserve" font-family="Helvetica,Helvetica" font-size="20.0" fill="#E2E2E2" transform="matrix(1.00, 0.00, -0.00, -1.00, 227.6, 6.5)">t</text><text xml:space="preserve" font-family="Helvetica,Helvetica" font-size="20.0" fill="#E2E2E2" transform="matrix(1.00, 0.00, -0.00, -1.00, 233.1, 6.5)"> </text><text xml:space="preserve" font-family="Helvetica,Helvetica" font-size="20.0" fill="#E2E2E2" transform="matrix(1.00, 0.00, -0.00, -1.00, 238.7, 6.5)">l</text><text xml:space="preserve" font-family="Helvetica,Helvetica" font-size="20.0" fill="#E2E2E2" transform="matrix(1.00, 0.00, -0.00, -1.00, 243.1, 6.5)">o</text><text xml:space="preserve" font-family="Helvetica,Helvetica" font-size="20.0" fill="#E2E2E2" transform="matrix(1.00, 0.00, -0.00, -1.00, 254.2, 6.5)">b</text><text xml:space="preserve" font-family="Helvetica,Helvetica" font-size="20.0" fill="#E2E2E2" transform="matrix(1.00, 0.00, -0.00, -1.00, 265.4, 6.5)">o</text><text xml:space="preserve" font-family="Helvetica,Helvetica" font-size="20.0" fill="#E2E2E2" transform="matrix(1.00, 0.00, -0.00, -1.00, 276.5, 6.5)">r</text><text xml:space="preserve" font-family="Helvetica,Helvetica" font-size="20.0" fill="#E2E2E2" transform="matrix(1.00, 0.00, -0.00, -1.00, 283.2, 6.5)">t</text><text xml:space="preserve" font-family="Helvetica,Helvetica" font-size="20.0" fill="#E2E2E2" transform="matrix(1.00, 0.00, -0.00, -1.00, 288.7, 6.5)">i</text><text xml:space="preserve" font-family="Helvetica,Helvetica" font-size="20.0" fill="#E2E2E2" transform="matrix(1.00, 0.00, -0.00, -1.00, 293.2, 6.5)">s</text><text xml:space="preserve" font-family="Helvetica,Helvetica" font-size="20.0" fill="#E2E2E2" transform="matrix(1.00, 0.00, -0.00, -1.00, 303.2, 6.5)"> </text><text xml:space="preserve" font-family="Helvetica,Helvetica" font-size="20.0" fill="#E2E2E2" transform="matrix(1.00, 0.00, -0.00, -1.00, 308.7, 6.5)">n</text><text xml:space="preserve" font-family="Helvetica,Helvetica" font-size="20.0" fill="#E2E2E2" transform="matrix(1.00, 0.00, -0.00, -1.00, 319.8, 6.5)">i</text><text xml:space="preserve" font-family="Helvetica,Helvetica" font-size="20.0" fill="#E2E2E2" transform="matrix(1.00, 0.00, -0.00, -1.00, 324.3, 6.5)">s</text><text xml:space="preserve" font-family="Helvetica,Helvetica" font-size="20.0" fill="#E2E2E2" transform="matrix(1.00, 0.00, -0.00, -1.00, 334.3, 6.5)">l</text><text xml:space="preserve" font-family="Helvetica,Helvetica" font-size="20.0" fill="#E2E2E2" transform="matrix(1.00, 0.00, -0.00, -1.00, 338.7, 6.5)"> </text><text xml:space="preserve" font-family="Helvetica,Helvetica" font-size="20.0" fill="#E2E2E2" transform="matrix(1.00, 0.00, -0.00, -1.00, 344.3, 6.5)">u</text><text xml:space="preserve" font-family="Helvetica,Helvetica" font-size="20.0" fill="#E2E2E2" transform="matrix(1.00, 0.00, -0.00, -1.00, 355.4, 6.5)">t</text><text xml:space="preserve" font-family="Helvetica,Helvetica" font-size="20.0" fill="#E2E2E2" transform="matrix(1.00, 0.00, -0.00, -1.00, 361.0, 6.5)"> </text><text xml:space="preserve" font-family="Helvetica,Helvetica" font-size="20.0" fill="#E2E2E2" transform="matrix(1.00, 0.00, -0.00, -1.00, 366.5, 6.5)">a</text><text xml:space="preserve" font-family="Helvetica,Helvetica" font-size="20.0" fill="#E2E2E2" transform="matrix(1.00, 0.00, -0.00, -1.00, 377.6, 6.5)">l</text><text xml:space="preserve" font-family="Helvetica,Helvetica" font-size="20.0" fill="#E2E2E2" transform="matrix(1.00, 0.00, -0.00, -1.00, 382.1, 6.5)">i</text><text xml:space="preserve" font-family="Helvetica,Helvetica" font-size="20.0" fill="#E2E2E2" transform="matrix(1.00, 0.00, -0.00, -1.00, 386.5, 6.5)">q</text><text xml:space="preserve" font-family="Helvetica,Helvetica" font-size="20.0" fill="#E2E2E2" transform="matrix(1.00, 0.00, -0.00, -1.00, 397.7, 6.5)">u</text><text xml:space="preserve" font-family="Helvetica,Helvetica" font-size="20.0" fill="#E2E2E2" transform="matrix(1.00, 0.00, -0.00, -1.00, 408.8, 6.5)">i</text><text xml:space="preserve" font-family="Helvetica,Helvetica" font-size="20.0" fill="#E2E2E2" transform="matrix(1.00, 0.00, -0.00, -1.00, 413.2, 6.5)">p</text><text xml:space="preserve" font-family="Helvetica,Helvetica" font-size="20.0" fill="#E2E2E2" transform="matrix(1.00, 0.00, -0.00, -1.00, 424.4, 6.5)"> </text><text xml:space="preserve" font-family="Helvetica,Helvetica" font-size="20.0" fill="#E2E2E2" transform="matrix(1.00, 0.00, -0.00, -1.00, 429.9, 6.5)">e</text><text xml:space="preserve" font-family="Helvetica,Helvetica" font-size="20.0" fill="#E2E2E2" transform="matrix(1.00, 0.00, -0.00, -1.00, 441.0, 6.5)">x</text><text xml:space="preserve" font-family="Helvetica,Helvetica" font-size="20.0" fill="#E2E2E2" transform="matrix(1.00, 0.00, -0.00, -1.00, 451.0, 6.5)"> </text><text xml:space="preserve" font-family="Helvetica,Helvetica" font-size="20.0" fill="#E2E2E2" transform="matrix(1.00, 0.00, -0.00, -1.00, 456.6, 6.5)">e</text><text xml:space="preserve" font-family="Helvetica,Helvetica" font-size="20.0" fill="#E2E2E2" transform="matrix(1.00, 0.00, -0.00, -1.00, 467.7, 6.5)">a</text></g></svg>