<?xml version="1.0" encoding="UTF-8" standalone="no"?><svg xmlns="http://www.w3.org/2000/svg" xmlns:xlink="http://www.w3.org/1999/xlink" clip-rule="evenodd" stroke-miterlimit="10" viewBox="0 0 261 23"><desc>SVG generated by Keynote</desc><defs></defs><g transform="matrix(1.00, 0.00, -0.00, -1.00, 0.0, 23.0)"><text xml:space="preserve" font-family="Helvetica,Helvetica" font-size="20.0" fill="#E2E2E2" transform="matrix(1.00, 0.00, -0.00, -1.00, 0.9, 6.5)">p</text><text xml:space="preserve" font-family="Helvetica,Helvetica" font-size="20.0" fill="#E2E2E2" transform="matrix(1.00, 0.00, -0.00, -1.00, 12.0, 6.5)">l</text><text xml:space="preserve" font-family="Helvetica,Helvetica" font-size="20.0" fill="#E2E2E2" transform="matrix(1.00, 0.00, -0.00, -1.00, 16.4, 6.5)">a</text><text xml:space="preserve" font-family="Helvetica,Helvetica" font-size="20.0" fill="#E2E2E2" transform="matrix(1.00, 0.00, -0.00, -1.00, 27.6, 6.5)">c</text><text xml:space="preserve" font-family="Helvetica,Helvetica" font-size="20.0" fill="#E2E2E2" transform="matrix(1.00, 0.00, -0.00, -1.00, 37.6, 6.5)">e</text><text xml:space="preserve" font-family="Helvetica,Helvetica" font-size="20.0" fill="#E2E2E2" transform="matrix(1.00, 0.00, -0.00, -1.00, 48.7, 6.5)">r</text><text xml:space="preserve" font-family="Helvetica,Helvetica" font-size="20.0" fill="#E2E2E2" transform="matrix(1.00, 0.00, -0.00, -1.00, 55.3, 6.5)">a</text><text xml:space="preserve" font-family="Helvetica,Helvetica" font-size="20.0" fill="#E2E2E2" transform="matrix(1.00, 0.00, -0.00, -1.00, 66.5, 6.5)">t</text><text xml:space="preserve" font-family="Helvetica,Helvetica" font-size="20.0" fill="#E2E2E2" transform="matrix(1.00, 0.00, -0.00, -1.00, 72.0, 6.5)"> </text><text xml:space="preserve" font-family="Helvetica,Helvetica" font-size="20.0" fill="#E2E2E2" transform="matrix(1.00, 0.00, -0.00, -1.00, 77.6, 6.5)">f</text><text xml:space="preserve" font-family="Helvetica,Helvetica" font-size="20.0" fill="#E2E2E2" transform="matrix(1.00, 0.00, -0.00, -1.00, 83.1, 6.5)">a</text><text xml:space="preserve" font-family="Helvetica,Helvetica" font-size="20.0" fill="#E2E2E2" transform="matrix(1.00, 0.00, -0.00, -1.00, 94.3, 6.5)">c</text><text xml:space="preserve" font-family="Helvetica,Helvetica" font-size="20.0" fill="#E2E2E2" transform="matrix(1.00, 0.00, -0.00, -1.00, 104.3, 6.5)">e</text><text xml:space="preserve" font-family="Helvetica,Helvetica" font-size="20.0" fill="#E2E2E2" transform="matrix(1.00, 0.00, -0.00, -1.00, 115.4, 6.5)">r</text><text xml:space="preserve" font-family="Helvetica,Helvetica" font-size="20.0" fill="#E2E2E2" transform="matrix(1.00, 0.00, -0.00, -1.00, 122.0, 6.5)"> </text><text xml:space="preserve" font-family="Helvetica,Helvetica" font-size="20.0" fill="#E2E2E2" transform="matrix(1.00, 0.00, -0.00, -1.00, 127.6, 6.5)">p</text><text xml:space="preserve" font-family="Helvetica,Helvetica" font-size="20.0" fill="#E2E2E2" transform="matrix(1.00, 0.00, -0.00, -1.00, 138.7, 6.5)">o</text><text xml:space="preserve" font-family="Helvetica,Helvetica" font-size="20.0" fill="#E2E2E2" transform="matrix(1.00, 0.00, -0.00, -1.00, 149.9, 6.5)">s</text><text xml:space="preserve" font-family="Helvetica,Helvetica" font-size="20.0" fill="#E2E2E2" transform="matrix(1.00, 0.00, -0.00, -1.00, 159.9, 6.5)">s</text><text xml:space="preserve" font-family="Helvetica,Helvetica" font-size="20.0" fill="#E2E2E2" transform="matrix(1.00, 0.00, -0.00, -1.00, 169.9, 6.5)">i</text><text xml:space="preserve" font-family="Helvetica,Helvetica" font-size="20.0" fill="#E2E2E2" transform="matrix(1.00, 0.00, -0.00, -1.00, 174.3, 6.5)">m</text><text xml:space="preserve" font-family="Helvetica,Helvetica" font-size="20.0" fill="#E2E2E2" transform="matrix(1.00, 0.00, -0.00, -1.00, 191.0, 6.5)"> </text><text xml:space="preserve" font-family="Helvetica,Helvetica" font-size="20.0" fill="#E2E2E2" transform="matrix(1.00, 0.00, -0.00, -1.00, 196.5, 6.5)">a</text><text xml:space="preserve" font-family="Helvetica,Helvetica" font-size="20.0" fill="#E2E2E2" transform="matrix(1.00, 0.00, -0.00, -1.00, 207.6, 6.5)">s</text><text xml:space="preserve" font-family="Helvetica,Helvetica" font-size="20.0" fill="#E2E2E2" transform="matrix(1.00, 0.00, -0.00, -1.00, 217.6, 6.5)">s</text><text xml:space="preserve" font-family="Helvetica,Helvetica" font-size="20.0" fill="#E2E2E2" transform="matrix(1.00, 0.00, -0.00, -1.00, 227.6, 6.5)">u</text><text xml:space="preserve" font-family="Helvetica,Helvetica" font-size="20.0" fill="#E2E2E2" transform="matrix(1.00, 0.00, -0.00, -1.00, 238.8, 6.5)">m</text><text xml:space="preserve" font-family="Helvetica,Helvetica" font-size="20.0" fill="#E2E2E2" transform="matrix(1.00, 0.00, -0.00, -1.00, 255.4, 6.5)">.</text></g></svg>