<?xml version="1.0" encoding="UTF-8" standalone="no"?><svg xmlns="http://www.w3.org/2000/svg" xmlns:xlink="http://www.w3.org/1999/xlink" clip-rule="evenodd" stroke-miterlimit="10" viewBox="0 0 481 23"><desc>SVG generated by Keynote</desc><defs></defs><g transform="matrix(1.00, 0.00, -0.00, -1.00, 0.0, 23.0)"><text xml:space="preserve" font-family="Helvetica,Helvetica" font-size="20.0" fill="#E2E2E2" transform="matrix(1.00, 0.00, -0.00, -1.00, 1.9, 6.5)">v</text><text xml:space="preserve" font-family="Helvetica,Helvetica" font-size="20.0" fill="#E2E2E2" transform="matrix(1.00, 0.00, -0.00, -1.00, 11.9, 6.5)">e</text><text xml:space="preserve" font-family="Helvetica,Helvetica" font-size="20.0" fill="#E2E2E2" transform="matrix(1.00, 0.00, -0.00, -1.00, 23.1, 6.5)">l</text><text xml:space="preserve" font-family="Helvetica,Helvetica" font-size="20.0" fill="#E2E2E2" transform="matrix(1.00, 0.00, -0.00, -1.00, 27.5, 6.5)"> </text><text xml:space="preserve" font-family="Helvetica,Helvetica" font-size="20.0" fill="#E2E2E2" transform="matrix(1.00, 0.00, -0.00, -1.00, 33.1, 6.5)">i</text><text xml:space="preserve" font-family="Helvetica,Helvetica" font-size="20.0" fill="#E2E2E2" transform="matrix(1.00, 0.00, -0.00, -1.00, 37.5, 6.5)">l</text><text xml:space="preserve" font-family="Helvetica,Helvetica" font-size="20.0" fill="#E2E2E2" transform="matrix(1.00, 0.00, -0.00, -1.00, 42.0, 6.5)">l</text><text xml:space="preserve" font-family="Helvetica,Helvetica" font-size="20.0" fill="#E2E2E2" transform="matrix(1.00, 0.00, -0.00, -1.00, 46.4, 6.5)">u</text><text xml:space="preserve" font-family="Helvetica,Helvetica" font-size="20.0" fill="#E2E2E2" transform="matrix(1.00, 0.00, -0.00, -1.00, 57.5, 6.5)">m</text><text xml:space="preserve" font-family="Helvetica,Helvetica" font-size="20.0" fill="#E2E2E2" transform="matrix(1.00, 0.00, -0.00, -1.00, 74.2, 6.5)"> </text><text xml:space="preserve" font-family="Helvetica,Helvetica" font-size="20.0" fill="#E2E2E2" transform="matrix(1.00, 0.00, -0.00, -1.00, 79.8, 6.5)">d</text><text xml:space="preserve" font-family="Helvetica,Helvetica" font-size="20.0" fill="#E2E2E2" transform="matrix(1.00, 0.00, -0.00, -1.00, 90.9, 6.5)">o</text><text xml:space="preserve" font-family="Helvetica,Helvetica" font-size="20.0" fill="#E2E2E2" transform="matrix(1.00, 0.00, -0.00, -1.00, 102.0, 6.5)">l</text><text xml:space="preserve" font-family="Helvetica,Helvetica" font-size="20.0" fill="#E2E2E2" transform="matrix(1.00, 0.00, -0.00, -1.00, 106.5, 6.5)">o</text><text xml:space="preserve" font-family="Helvetica,Helvetica" font-size="20.0" fill="#E2E2E2" transform="matrix(1.00, 0.00, -0.00, -1.00, 117.6, 6.5)">r</text><text xml:space="preserve" font-family="Helvetica,Helvetica" font-size="20.0" fill="#E2E2E2" transform="matrix(1.00, 0.00, -0.00, -1.00, 124.2, 6.5)">e</text><text xml:space="preserve" font-family="Helvetica,Helvetica" font-size="20.0" fill="#E2E2E2" transform="matrix(1.00, 0.00, -0.00, -1.00, 135.4, 6.5)"> </text><text xml:space="preserve" font-family="Helvetica,Helvetica" font-size="20.0" fill="#E2E2E2" transform="matrix(1.00, 0.00, -0.00, -1.00, 140.9, 6.5)">e</text><text xml:space="preserve" font-family="Helvetica,Helvetica" font-size="20.0" fill="#E2E2E2" transform="matrix(1.00, 0.00, -0.00, -1.00, 152.0, 6.5)">u</text><text xml:space="preserve" font-family="Helvetica,Helvetica" font-size="20.0" fill="#E2E2E2" transform="matrix(1.00, 0.00, -0.00, -1.00, 163.2, 6.5)"> </text><text xml:space="preserve" font-family="Helvetica,Helvetica" font-size="20.0" fill="#E2E2E2" transform="matrix(1.00, 0.00, -0.00, -1.00, 168.7, 6.5)">f</text><text xml:space="preserve" font-family="Helvetica,Helvetica" font-size="20.0" fill="#E2E2E2" transform="matrix(1.00, 0.00, -0.00, -1.00, 174.3, 6.5)">e</text><text xml:space="preserve" font-family="Helvetica,Helvetica" font-size="20.0" fill="#E2E2E2" transform="matrix(1.00, 0.00, -0.00, -1.00, 185.4, 6.5)">u</text><text xml:space="preserve" font-family="Helvetica,Helvetica" font-size="20.0" fill="#E2E2E2" transform="matrix(1.00, 0.00, -0.00, -1.00, 196.5, 6.5)">g</text><text xml:space="preserve" font-family="Helvetica,Helvetica" font-size="20.0" fill="#E2E2E2" transform="matrix(1.00, 0.00, -0.00, -1.00, 207.7, 6.5)">i</text><text xml:space="preserve" font-family="Helvetica,Helvetica" font-size="20.0" fill="#E2E2E2" transform="matrix(1.00, 0.00, -0.00, -1.00, 212.1, 6.5)">a</text><text xml:space="preserve" font-family="Helvetica,Helvetica" font-size="20.0" fill="#E2E2E2" transform="matrix(1.00, 0.00, -0.00, -1.00, 223.2, 6.5)">t</text><text xml:space="preserve" font-family="Helvetica,Helvetica" font-size="20.0" fill="#E2E2E2" transform="matrix(1.00, 0.00, -0.00, -1.00, 228.8, 6.5)"> </text><text xml:space="preserve" font-family="Helvetica,Helvetica" font-size="20.0" fill="#E2E2E2" transform="matrix(1.00, 0.00, -0.00, -1.00, 234.3, 6.5)">n</text><text xml:space="preserve" font-family="Helvetica,Helvetica" font-size="20.0" fill="#E2E2E2" transform="matrix(1.00, 0.00, -0.00, -1.00, 245.5, 6.5)">u</text><text xml:space="preserve" font-family="Helvetica,Helvetica" font-size="20.0" fill="#E2E2E2" transform="matrix(1.00, 0.00, -0.00, -1.00, 256.6, 6.5)">l</text><text xml:space="preserve" font-family="Helvetica,Helvetica" font-size="20.0" fill="#E2E2E2" transform="matrix(1.00, 0.00, -0.00, -1.00, 261.0, 6.5)">l</text><text xml:space="preserve" font-family="Helvetica,Helvetica" font-size="20.0" fill="#E2E2E2" transform="matrix(1.00, 0.00, -0.00, -1.00, 265.5, 6.5)">a</text><text xml:space="preserve" font-family="Helvetica,Helvetica" font-size="20.0" fill="#E2E2E2" transform="matrix(1.00, 0.00, -0.00, -1.00, 276.6, 6.5)"> </text><text xml:space="preserve" font-family="Helvetica,Helvetica" font-size="20.0" fill="#E2E2E2" transform="matrix(1.00, 0.00, -0.00, -1.00, 282.2, 6.5)">f</text><text xml:space="preserve" font-family="Helvetica,Helvetica" font-size="20.0" fill="#E2E2E2" transform="matrix(1.00, 0.00, -0.00, -1.00, 287.7, 6.5)">a</text><text xml:space="preserve" font-family="Helvetica,Helvetica" font-size="20.0" fill="#E2E2E2" transform="matrix(1.00, 0.00, -0.00, -1.00, 298.8, 6.5)">c</text><text xml:space="preserve" font-family="Helvetica,Helvetica" font-size="20.0" fill="#E2E2E2" transform="matrix(1.00, 0.00, -0.00, -1.00, 308.8, 6.5)">i</text><text xml:space="preserve" font-family="Helvetica,Helvetica" font-size="20.0" fill="#E2E2E2" transform="matrix(1.00, 0.00, -0.00, -1.00, 313.3, 6.5)">l</text><text xml:space="preserve" font-family="Helvetica,Helvetica" font-size="20.0" fill="#E2E2E2" transform="matrix(1.00, 0.00, -0.00, -1.00, 317.7, 6.5)">i</text><text xml:space="preserve" font-family="Helvetica,Helvetica" font-size="20.0" fill="#E2E2E2" transform="matrix(1.00, 0.00, -0.00, -1.00, 322.2, 6.5)">s</text><text xml:space="preserve" font-family="Helvetica,Helvetica" font-size="20.0" fill="#E2E2E2" transform="matrix(1.00, 0.00, -0.00, -1.00, 332.2, 6.5)">i</text><text xml:space="preserve" font-family="Helvetica,Helvetica" font-size="20.0" fill="#E2E2E2" transform="matrix(1.00, 0.00, -0.00, -1.00, 336.6, 6.5)">s</text><text xml:space="preserve" font-family="Helvetica,Helvetica" font-size="20.0" fill="#E2E2E2" transform="matrix(1.00, 0.00, -0.00, -1.00, 346.6, 6.5)"> </text><text xml:space="preserve" font-family="Helvetica,Helvetica" font-size="20.0" fill="#E2E2E2" transform="matrix(1.00, 0.00, -0.00, -1.00, 352.2, 6.5)">a</text><text xml:space="preserve" font-family="Helvetica,Helvetica" font-size="20.0" fill="#E2E2E2" transform="matrix(1.00, 0.00, -0.00, -1.00, 363.3, 6.5)">t</text><text xml:space="preserve" font-family="Helvetica,Helvetica" font-size="20.0" fill="#E2E2E2" transform="matrix(1.00, 0.00, -0.00, -1.00, 368.9, 6.5)"> </text><text xml:space="preserve" font-family="Helvetica,Helvetica" font-size="20.0" fill="#E2E2E2" transform="matrix(1.00, 0.00, -0.00, -1.00, 374.4, 6.5)">v</text><text xml:space="preserve" font-family="Helvetica,Helvetica" font-size="20.0" fill="#E2E2E2" transform="matrix(1.00, 0.00, -0.00, -1.00, 384.4, 6.5)">e</text><text xml:space="preserve" font-family="Helvetica,Helvetica" font-size="20.0" fill="#E2E2E2" transform="matrix(1.00, 0.00, -0.00, -1.00, 395.5, 6.5)">r</text><text xml:space="preserve" font-family="Helvetica,Helvetica" font-size="20.0" fill="#E2E2E2" transform="matrix(1.00, 0.00, -0.00, -1.00, 402.2, 6.5)">o</text><text xml:space="preserve" font-family="Helvetica,Helvetica" font-size="20.0" fill="#E2E2E2" transform="matrix(1.00, 0.00, -0.00, -1.00, 413.3, 6.5)"> </text><text xml:space="preserve" font-family="Helvetica,Helvetica" font-size="20.0" fill="#E2E2E2" transform="matrix(1.00, 0.00, -0.00, -1.00, 418.9, 6.5)">e</text><text xml:space="preserve" font-family="Helvetica,Helvetica" font-size="20.0" fill="#E2E2E2" transform="matrix(1.00, 0.00, -0.00, -1.00, 430.0, 6.5)">r</text><text xml:space="preserve" font-family="Helvetica,Helvetica" font-size="20.0" fill="#E2E2E2" transform="matrix(1.00, 0.00, -0.00, -1.00, 436.7, 6.5)">o</text><text xml:space="preserve" font-family="Helvetica,Helvetica" font-size="20.0" fill="#E2E2E2" transform="matrix(1.00, 0.00, -0.00, -1.00, 447.8, 6.5)">s</text><text xml:space="preserve" font-family="Helvetica,Helvetica" font-size="20.0" fill="#E2E2E2" transform="matrix(1.00, 0.00, -0.00, -1.00, 457.8, 6.5)"> </text><text xml:space="preserve" font-family="Helvetica,Helvetica" font-size="20.0" fill="#E2E2E2" transform="matrix(1.00, 0.00, -0.00, -1.00, 463.4, 6.5)">e</text><text xml:space="preserve" font-family="Helvetica,Helvetica" font-size="20.0" fill="#E2E2E2" transform="matrix(1.00, 0.00, -0.00, -1.00, 474.5, 6.5)">t</text></g></svg>