<?xml version="1.0" encoding="UTF-8" standalone="no"?><svg xmlns="http://www.w3.org/2000/svg" xmlns:xlink="http://www.w3.org/1999/xlink" clip-rule="evenodd" stroke-miterlimit="10" viewBox="0 0 244 244"><desc>SVG generated by Keynote</desc><defs></defs><g transform="matrix(1.00, 0.00, -0.00, -1.00, 0.0, 244.0)"><g><clipPath id="clip0x610001ab9200"><path d="M 0.3 0.3 L 243.1 0.3 L 243.1 243.1 L 0.3 243.1 Z M 0.3 0.3 "></path></clipPath><g clip-path="url(#clip0x610001ab9200)"><path d="M 206.8 206.8 C 253.8 159.8 253.8 83.6 206.8 36.5 C 159.8 -10.5 83.6 -10.5 36.5 36.5 C -10.5 83.6 -10.5 159.8 36.5 206.8 C 83.6 253.8 159.8 253.8 206.8 206.8 Z M 206.8 206.8 " fill="#FF607B" fill-opacity="0.90"></path></g></g><g><clipPath id="clip0x610001ab9860"><path d="M 60.6 59.8 L 182.7 59.8 L 182.7 182.9 L 60.6 182.9 Z M 60.6 59.8 "></path></clipPath><g clip-path="url(#clip0x610001ab9860)"><text xml:space="preserve" font-family="Sosa-Regular,Sosa" font-size="80.0" fill="#F6F6F6" transform="matrix(1.00, 0.00, -0.00, -1.00, 81.7, 104.3)">s</text></g></g></g></svg>