<?xml version="1.0" encoding="UTF-8" standalone="no"?><svg xmlns="http://www.w3.org/2000/svg" xmlns:xlink="http://www.w3.org/1999/xlink" clip-rule="evenodd" stroke-miterlimit="10" viewBox="0 0 244 244"><desc>SVG generated by Keynote</desc><defs></defs><g transform="matrix(1.00, 0.00, -0.00, -1.00, 0.0, 244.0)"><g><clipPath id="clip0x600001eab1c0"><path d="M 0.4 0.5 L 243.2 0.5 L 243.2 243.2 L 0.4 243.2 Z M 0.4 0.5 "></path></clipPath><g clip-path="url(#clip0x600001eab1c0)"><path d="M 206.9 207.0 C 253.9 160.0 253.9 83.7 206.9 36.7 C 159.9 -10.3 83.7 -10.3 36.6 36.7 C -10.4 83.7 -10.4 160.0 36.6 207.0 C 83.7 254.0 159.9 254.0 206.9 207.0 Z M 206.9 207.0 " fill="#54C6E1" fill-opacity="0.90"></path></g></g><g><clipPath id="clip0x600001eab640"><path d="M 60.7 60.3 L 182.8 60.3 L 182.8 183.4 L 60.7 183.4 Z M 60.7 60.3 "></path></clipPath><g clip-path="url(#clip0x600001eab640)"><text xml:space="preserve" font-family="Sosa-Regular,Sosa" font-size="80.0" fill="#F6F6F6" transform="matrix(1.00, 0.00, -0.00, -1.00, 81.8, 104.8)">Z</text></g></g></g></svg>