<?xml version="1.0" encoding="UTF-8" standalone="no"?><svg xmlns="http://www.w3.org/2000/svg" xmlns:xlink="http://www.w3.org/1999/xlink" clip-rule="evenodd" stroke-miterlimit="10" viewBox="0 0 437 66"><desc>SVG generated by Keynote</desc><defs></defs><g transform="matrix(1.00, 0.00, -0.00, -1.00, 0.0, 66.0)"><g><clipPath id="clip0x610006ca7c80"><path d="M 1.0 2.0 L 62.7 2.0 L 62.7 63.7 L 1.0 63.7 Z M 1.0 2.0 "></path></clipPath><g clip-path="url(#clip0x610006ca7c80)"><path d="M 2.0 63.0 L 62.0 63.0 L 62.0 3.0 L 2.0 3.0 Z M 2.0 62.7 " fill="#EDC25F"></path></g></g><g><clipPath id="clip0x610006ca8340"><path d="M 8.3 -13.4 L 93.7 -13.4 L 93.7 73.6 L 8.3 73.6 Z M 8.3 -13.4 "></path></clipPath><g clip-path="url(#clip0x610006ca8340)"><text xml:space="preserve" font-family="LastResort,LastResort" font-size="50.0" fill="#F6F6F6" transform="matrix(1.00, 0.00, -0.00, -1.00, 21.8, 18.0)"></text><text xml:space="preserve" font-family="LastResort,LastResort" font-size="50.0" fill="#F6F6F6" transform="matrix(1.00, 0.00, -0.00, -1.00, 79.2, 18.0)"></text><text xml:space="preserve" font-family="LastResort,LastResort" font-size="50.0" fill="#F6F6F6" transform="matrix(1.00, 0.00, -0.00, -1.00, 136.6, 18.0)"></text><text xml:space="preserve" font-family="LastResort,LastResort" font-size="50.0" fill="#F6F6F6" transform="matrix(1.00, 0.00, -0.00, -1.00, 193.9, 18.0)"></text><text xml:space="preserve" font-family="LastResort,LastResort" font-size="50.0" fill="#F6F6F6" transform="matrix(1.00, 0.00, -0.00, -1.00, 251.3, 18.0)"></text><text xml:space="preserve" font-family="LastResort,LastResort" font-size="50.0" fill="#F6F6F6" transform="matrix(1.00, 0.00, -0.00, -1.00, 308.7, 18.0)"></text><text xml:space="preserve" font-family="LastResort,LastResort" font-size="50.0" fill="#F6F6F6" transform="matrix(1.00, 0.00, -0.00, -1.00, 366.1, 18.0)"></text><text xml:space="preserve" font-family="LastResort,LastResort" font-size="50.0" fill="#F6F6F6" transform="matrix(1.00, 0.00, -0.00, -1.00, 423.4, 18.0)"></text><text xml:space="preserve" font-family="LastResort,LastResort" font-size="50.0" fill="#F6F6F6" transform="matrix(1.00, 0.00, -0.00, -1.00, 480.8, 18.0)"></text><text xml:space="preserve" font-family="LastResort,LastResort" font-size="50.0" fill="#F6F6F6" transform="matrix(1.00, 0.00, -0.00, -1.00, 538.2, 18.0)"></text><text xml:space="preserve" font-family="LastResort,LastResort" font-size="50.0" fill="#F6F6F6" transform="matrix(1.00, 0.00, -0.00, -1.00, 595.5, 18.0)"></text><text xml:space="preserve" font-family="LastResort,LastResort" font-size="50.0" fill="#F6F6F6" transform="matrix(1.00, 0.00, -0.00, -1.00, 652.9, 18.0)"></text><text xml:space="preserve" font-family="LastResort,LastResort" font-size="50.0" fill="#F6F6F6" transform="matrix(1.00, 0.00, -0.00, -1.00, 710.3, 18.0)"></text><text xml:space="preserve" font-family="LastResort,LastResort" font-size="50.0" fill="#F6F6F6" transform="matrix(1.00, 0.00, -0.00, -1.00, 767.7, 18.0)"></text><text xml:space="preserve" font-family="LastResort,LastResort" font-size="50.0" fill="#F6F6F6" transform="matrix(1.00, 0.00, -0.00, -1.00, 825.0, 18.0)"></text><text xml:space="preserve" font-family="LastResort,LastResort" font-size="50.0" fill="#F6F6F6" transform="matrix(1.00, 0.00, -0.00, -1.00, 882.4, 18.0)"></text><text xml:space="preserve" font-family="LastResort,LastResort" font-size="50.0" fill="#F6F6F6" transform="matrix(1.00, 0.00, -0.00, -1.00, 939.8, 18.0)"></text><text xml:space="preserve" font-family="LastResort,LastResort" font-size="50.0" fill="#F6F6F6" transform="matrix(1.00, 0.00, -0.00, -1.00, 997.2, 18.0)"></text><text xml:space="preserve" font-family="LastResort,LastResort" font-size="50.0" fill="#F6F6F6" transform="matrix(1.00, 0.00, -0.00, -1.00, 1054.5, 18.0)"></text><text xml:space="preserve" font-family="LastResort,LastResort" font-size="50.0" fill="#F6F6F6" transform="matrix(1.00, 0.00, -0.00, -1.00, 1111.9, 18.0)"></text><text xml:space="preserve" font-family="LastResort,LastResort" font-size="50.0" fill="#F6F6F6" transform="matrix(1.00, 0.00, -0.00, -1.00, 1169.3, 18.0)"></text><text xml:space="preserve" font-family="LastResort,LastResort" font-size="50.0" fill="#F6F6F6" transform="matrix(1.00, 0.00, -0.00, -1.00, 1226.7, 18.0)"></text><text xml:space="preserve" font-family="LastResort,LastResort" font-size="50.0" fill="#F6F6F6" transform="matrix(1.00, 0.00, -0.00, -1.00, 1284.0, 18.0)"></text><text xml:space="preserve" font-family="LastResort,LastResort" font-size="50.0" fill="#F6F6F6" transform="matrix(1.00, 0.00, -0.00, -1.00, 1341.4, 18.0)"></text><text xml:space="preserve" font-family="LastResort,LastResort" font-size="50.0" fill="#F6F6F6" transform="matrix(1.00, 0.00, -0.00, -1.00, 1398.8, 18.0)"></text><text xml:space="preserve" font-family="LastResort,LastResort" font-size="50.0" fill="#F6F6F6" transform="matrix(1.00, 0.00, -0.00, -1.00, 1456.1, 18.0)"></text><text xml:space="preserve" font-family="LastResort,LastResort" font-size="50.0" fill="#F6F6F6" transform="matrix(1.00, 0.00, -0.00, -1.00, 1513.5, 18.0)"></text><text xml:space="preserve" font-family="LastResort,LastResort" font-size="50.0" fill="#F6F6F6" transform="matrix(1.00, 0.00, -0.00, -1.00, 1570.9, 18.0)"></text><text xml:space="preserve" font-family="LastResort,LastResort" font-size="50.0" fill="#F6F6F6" transform="matrix(1.00, 0.00, -0.00, -1.00, 1628.3, 18.0)"></text><text xml:space="preserve" font-family="LastResort,LastResort" font-size="50.0" fill="#F6F6F6" transform="matrix(1.00, 0.00, -0.00, -1.00, 1685.6, 18.0)"></text><text xml:space="preserve" font-family="LastResort,LastResort" font-size="50.0" fill="#F6F6F6" transform="matrix(1.00, 0.00, -0.00, -1.00, 1743.0, 18.0)"></text><text xml:space="preserve" font-family="LastResort,LastResort" font-size="50.0" fill="#F6F6F6" transform="matrix(1.00, 0.00, -0.00, -1.00, 1800.4, 18.0)"></text><text xml:space="preserve" font-family="LastResort,LastResort" font-size="50.0" fill="#F6F6F6" transform="matrix(1.00, 0.00, -0.00, -1.00, 1857.8, 18.0)"></text><text xml:space="preserve" font-family="LastResort,LastResort" font-size="50.0" fill="#F6F6F6" transform="matrix(1.00, 0.00, -0.00, -1.00, 1915.1, 18.0)"></text><text xml:space="preserve" font-family="LastResort,LastResort" font-size="50.0" fill="#F6F6F6" transform="matrix(1.00, 0.00, -0.00, -1.00, 1972.5, 18.0)"></text><text xml:space="preserve" font-family="LastResort,LastResort" font-size="50.0" fill="#F6F6F6" transform="matrix(1.00, 0.00, -0.00, -1.00, 2029.9, 18.0)"></text><text xml:space="preserve" font-family="LastResort,LastResort" font-size="50.0" fill="#F6F6F6" transform="matrix(1.00, 0.00, -0.00, -1.00, 2087.2, 18.0)"></text><text xml:space="preserve" font-family="LastResort,LastResort" font-size="50.0" fill="#F6F6F6" transform="matrix(1.00, 0.00, -0.00, -1.00, 2144.6, 18.0)"></text><text xml:space="preserve" font-family="LastResort,LastResort" font-size="50.0" fill="#F6F6F6" transform="matrix(1.00, 0.00, -0.00, -1.00, 2202.0, 18.0)"></text><text xml:space="preserve" font-family="LastResort,LastResort" font-size="50.0" fill="#F6F6F6" transform="matrix(1.00, 0.00, -0.00, -1.00, 2259.4, 18.0)"></text><text xml:space="preserve" font-family="LastResort,LastResort" font-size="50.0" fill="#F6F6F6" transform="matrix(1.00, 0.00, -0.00, -1.00, 2316.7, 18.0)"></text><text xml:space="preserve" font-family="LastResort,LastResort" font-size="50.0" fill="#F6F6F6" transform="matrix(1.00, 0.00, -0.00, -1.00, 2374.1, 18.0)"></text><text xml:space="preserve" font-family="LastResort,LastResort" font-size="50.0" fill="#F6F6F6" transform="matrix(1.00, 0.00, -0.00, -1.00, 2431.5, 18.0)"></text><text xml:space="preserve" font-family="LastResort,LastResort" font-size="50.0" fill="#F6F6F6" transform="matrix(1.00, 0.00, -0.00, -1.00, 2488.9, 18.0)"></text><text xml:space="preserve" font-family="LastResort,LastResort" font-size="50.0" fill="#F6F6F6" transform="matrix(1.00, 0.00, -0.00, -1.00, 2546.2, 18.0)"></text><text xml:space="preserve" font-family="LastResort,LastResort" font-size="50.0" fill="#F6F6F6" transform="matrix(1.00, 0.00, -0.00, -1.00, 2603.6, 18.0)"></text><text xml:space="preserve" font-family="LastResort,LastResort" font-size="50.0" fill="#F6F6F6" transform="matrix(1.00, 0.00, -0.00, -1.00, 2661.0, 18.0)"></text><text xml:space="preserve" font-family="LastResort,LastResort" font-size="50.0" fill="#F6F6F6" transform="matrix(1.00, 0.00, -0.00, -1.00, 2718.4, 18.0)"></text><text xml:space="preserve" font-family="LastResort,LastResort" font-size="50.0" fill="#F6F6F6" transform="matrix(1.00, 0.00, -0.00, -1.00, 2775.7, 18.0)"></text><text xml:space="preserve" font-family="LastResort,LastResort" font-size="50.0" fill="#F6F6F6" transform="matrix(1.00, 0.00, -0.00, -1.00, 2833.1, 18.0)"></text><text xml:space="preserve" font-family="LastResort,LastResort" font-size="50.0" fill="#F6F6F6" transform="matrix(1.00, 0.00, -0.00, -1.00, 2890.5, 18.0)"></text><text xml:space="preserve" font-family="LastResort,LastResort" font-size="50.0" fill="#F6F6F6" transform="matrix(1.00, 0.00, -0.00, -1.00, 2947.8, 18.0)"></text><text xml:space="preserve" font-family="LastResort,LastResort" font-size="50.0" fill="#F6F6F6" transform="matrix(1.00, 0.00, -0.00, -1.00, 3005.2, 18.0)"></text><text xml:space="preserve" font-family="LastResort,LastResort" font-size="50.0" fill="#F6F6F6" transform="matrix(1.00, 0.00, -0.00, -1.00, 3062.6, 18.0)"></text><text xml:space="preserve" font-family="LastResort,LastResort" font-size="50.0" fill="#F6F6F6" transform="matrix(1.00, 0.00, -0.00, -1.00, 3120.0, 18.0)"></text><text xml:space="preserve" font-family="LastResort,LastResort" font-size="50.0" fill="#F6F6F6" transform="matrix(1.00, 0.00, -0.00, -1.00, 3177.3, 18.0)"></text><text xml:space="preserve" font-family="LastResort,LastResort" font-size="50.0" fill="#F6F6F6" transform="matrix(1.00, 0.00, -0.00, -1.00, 3234.7, 18.0)"></text><text xml:space="preserve" font-family="LastResort,LastResort" font-size="50.0" fill="#F6F6F6" transform="matrix(1.00, 0.00, -0.00, -1.00, 3292.1, 18.0)"></text><text xml:space="preserve" font-family="LastResort,LastResort" font-size="50.0" fill="#F6F6F6" transform="matrix(1.00, 0.00, -0.00, -1.00, 3349.5, 18.0)"></text><text xml:space="preserve" font-family="LastResort,LastResort" font-size="50.0" fill="#F6F6F6" transform="matrix(1.00, 0.00, -0.00, -1.00, 3406.8, 18.0)"></text><text xml:space="preserve" font-family="LastResort,LastResort" font-size="50.0" fill="#F6F6F6" transform="matrix(1.00, 0.00, -0.00, -1.00, 3464.2, 18.0)"></text><text xml:space="preserve" font-family="LastResort,LastResort" font-size="50.0" fill="#F6F6F6" transform="matrix(1.00, 0.00, -0.00, -1.00, 3521.6, 18.0)"></text><text xml:space="preserve" font-family="LastResort,LastResort" font-size="50.0" fill="#F6F6F6" transform="matrix(1.00, 0.00, -0.00, -1.00, 3578.9, 18.0)"></text><text xml:space="preserve" font-family="LastResort,LastResort" font-size="50.0" fill="#F6F6F6" transform="matrix(1.00, 0.00, -0.00, -1.00, 3636.3, 18.0)"></text><text xml:space="preserve" font-family="LastResort,LastResort" font-size="50.0" fill="#F6F6F6" transform="matrix(1.00, 0.00, -0.00, -1.00, 3693.7, 18.0)"></text><text xml:space="preserve" font-family="LastResort,LastResort" font-size="50.0" fill="#F6F6F6" transform="matrix(1.00, 0.00, -0.00, -1.00, 3751.1, 18.0)"></text><text xml:space="preserve" font-family="LastResort,LastResort" font-size="50.0" fill="#F6F6F6" transform="matrix(1.00, 0.00, -0.00, -1.00, 3808.4, 18.0)"></text><text xml:space="preserve" font-family="LastResort,LastResort" font-size="50.0" fill="#F6F6F6" transform="matrix(1.00, 0.00, -0.00, -1.00, 3865.8, 18.0)"></text><text xml:space="preserve" font-family="LastResort,LastResort" font-size="50.0" fill="#F6F6F6" transform="matrix(1.00, 0.00, -0.00, -1.00, 3923.2, 18.0)"></text><text xml:space="preserve" font-family="LastResort,LastResort" font-size="50.0" fill="#F6F6F6" transform="matrix(1.00, 0.00, -0.00, -1.00, 3980.6, 18.0)"></text><text xml:space="preserve" font-family="LastResort,LastResort" font-size="50.0" fill="#F6F6F6" transform="matrix(1.00, 0.00, -0.00, -1.00, 4037.9, 18.0)"></text><text xml:space="preserve" font-family="LastResort,LastResort" font-size="50.0" fill="#F6F6F6" transform="matrix(1.00, 0.00, -0.00, -1.00, 4095.3, 18.0)"></text><text xml:space="preserve" font-family="LastResort,LastResort" font-size="50.0" fill="#F6F6F6" transform="matrix(1.00, 0.00, -0.00, -1.00, 4152.7, 18.0)"></text><text xml:space="preserve" font-family="LastResort,LastResort" font-size="50.0" fill="#F6F6F6" transform="matrix(1.00, 0.00, -0.00, -1.00, 4210.0, 18.0)"></text><text xml:space="preserve" font-family="LastResort,LastResort" font-size="50.0" fill="#F6F6F6" transform="matrix(1.00, 0.00, -0.00, -1.00, 4267.4, 18.0)"></text><text xml:space="preserve" font-family="LastResort,LastResort" font-size="50.0" fill="#F6F6F6" transform="matrix(1.00, 0.00, -0.00, -1.00, 4324.8, 18.0)"></text><text xml:space="preserve" font-family="LastResort,LastResort" font-size="50.0" fill="#F6F6F6" transform="matrix(1.00, 0.00, -0.00, -1.00, 4382.2, 18.0)"></text><text xml:space="preserve" font-family="LastResort,LastResort" font-size="50.0" fill="#F6F6F6" transform="matrix(1.00, 0.00, -0.00, -1.00, 4439.5, 18.0)"></text><text xml:space="preserve" font-family="LastResort,LastResort" font-size="50.0" fill="#F6F6F6" transform="matrix(1.00, 0.00, -0.00, -1.00, 4496.9, 18.0)"></text><text xml:space="preserve" font-family="LastResort,LastResort" font-size="50.0" fill="#F6F6F6" transform="matrix(1.00, 0.00, -0.00, -1.00, 4554.3, 18.0)"></text><text xml:space="preserve" font-family="LastResort,LastResort" font-size="50.0" fill="#F6F6F6" transform="matrix(1.00, 0.00, -0.00, -1.00, 4611.7, 18.0)"></text><text xml:space="preserve" font-family="LastResort,LastResort" font-size="50.0" fill="#F6F6F6" transform="matrix(1.00, 0.00, -0.00, -1.00, 4669.0, 18.0)"></text><text xml:space="preserve" font-family="LastResort,LastResort" font-size="50.0" fill="#F6F6F6" transform="matrix(1.00, 0.00, -0.00, -1.00, 4726.4, 18.0)"></text><text xml:space="preserve" font-family="LastResort,LastResort" font-size="50.0" fill="#F6F6F6" transform="matrix(1.00, 0.00, -0.00, -1.00, 4783.8, 18.0)"></text><text xml:space="preserve" font-family="LastResort,LastResort" font-size="50.0" fill="#F6F6F6" transform="matrix(1.00, 0.00, -0.00, -1.00, 4841.2, 18.0)"></text><text xml:space="preserve" font-family="LastResort,LastResort" font-size="50.0" fill="#F6F6F6" transform="matrix(1.00, 0.00, -0.00, -1.00, 4898.5, 18.0)"></text><text xml:space="preserve" font-family="LastResort,LastResort" font-size="50.0" fill="#F6F6F6" transform="matrix(1.00, 0.00, -0.00, -1.00, 4955.9, 18.0)"></text><text xml:space="preserve" font-family="LastResort,LastResort" font-size="50.0" fill="#F6F6F6" transform="matrix(1.00, 0.00, -0.00, -1.00, 5013.3, 18.0)"></text><text xml:space="preserve" font-family="LastResort,LastResort" font-size="50.0" fill="#F6F6F6" transform="matrix(1.00, 0.00, -0.00, -1.00, 5070.6, 18.0)"></text><text xml:space="preserve" font-family="LastResort,LastResort" font-size="50.0" fill="#F6F6F6" transform="matrix(1.00, 0.00, -0.00, -1.00, 5128.0, 18.0)"></text><text xml:space="preserve" font-family="LastResort,LastResort" font-size="50.0" fill="#F6F6F6" transform="matrix(1.00, 0.00, -0.00, -1.00, 5185.4, 18.0)"></text><text xml:space="preserve" font-family="LastResort,LastResort" font-size="50.0" fill="#F6F6F6" transform="matrix(1.00, 0.00, -0.00, -1.00, 5242.8, 18.0)"></text><text xml:space="preserve" font-family="LastResort,LastResort" font-size="50.0" fill="#F6F6F6" transform="matrix(1.00, 0.00, -0.00, -1.00, 5300.1, 18.0)"></text><text xml:space="preserve" font-family="LastResort,LastResort" font-size="50.0" fill="#F6F6F6" transform="matrix(1.00, 0.00, -0.00, -1.00, 5357.5, 18.0)"></text><text xml:space="preserve" font-family="LastResort,LastResort" font-size="50.0" fill="#F6F6F6" transform="matrix(1.00, 0.00, -0.00, -1.00, 5414.9, 18.0)"></text><text xml:space="preserve" font-family="LastResort,LastResort" font-size="50.0" fill="#F6F6F6" transform="matrix(1.00, 0.00, -0.00, -1.00, 5472.3, 18.0)"></text><text xml:space="preserve" font-family="LastResort,LastResort" font-size="50.0" fill="#F6F6F6" transform="matrix(1.00, 0.00, -0.00, -1.00, 5529.6, 18.0)"></text><text xml:space="preserve" font-family="LastResort,LastResort" font-size="50.0" fill="#F6F6F6" transform="matrix(1.00, 0.00, -0.00, -1.00, 5587.0, 18.0)"></text><text xml:space="preserve" font-family="LastResort,LastResort" font-size="50.0" fill="#F6F6F6" transform="matrix(1.00, 0.00, -0.00, -1.00, 5644.4, 18.0)"></text><text xml:space="preserve" font-family="LastResort,LastResort" font-size="50.0" fill="#F6F6F6" transform="matrix(1.00, 0.00, -0.00, -1.00, 5701.7, 18.0)"></text><text xml:space="preserve" font-family="LastResort,LastResort" font-size="50.0" fill="#F6F6F6" transform="matrix(1.00, 0.00, -0.00, -1.00, 5759.1, 18.0)"></text><text xml:space="preserve" font-family="LastResort,LastResort" font-size="50.0" fill="#F6F6F6" transform="matrix(1.00, 0.00, -0.00, -1.00, 5816.5, 18.0)"></text><text xml:space="preserve" font-family="LastResort,LastResort" font-size="50.0" fill="#F6F6F6" transform="matrix(1.00, 0.00, -0.00, -1.00, 5873.9, 18.0)"></text><text xml:space="preserve" font-family="LastResort,LastResort" font-size="50.0" fill="#F6F6F6" transform="matrix(1.00, 0.00, -0.00, -1.00, 5931.2, 18.0)"></text><text xml:space="preserve" font-family="LastResort,LastResort" font-size="50.0" fill="#F6F6F6" transform="matrix(1.00, 0.00, -0.00, -1.00, 5988.6, 18.0)"></text><text xml:space="preserve" font-family="LastResort,LastResort" font-size="50.0" fill="#F6F6F6" transform="matrix(1.00, 0.00, -0.00, -1.00, 6046.0, 18.0)"></text><text xml:space="preserve" font-family="LastResort,LastResort" font-size="50.0" fill="#F6F6F6" transform="matrix(1.00, 0.00, -0.00, -1.00, 6103.4, 18.0)"></text><text xml:space="preserve" font-family="LastResort,LastResort" font-size="50.0" fill="#F6F6F6" transform="matrix(1.00, 0.00, -0.00, -1.00, 6160.7, 18.0)"></text><text xml:space="preserve" font-family="LastResort,LastResort" font-size="50.0" fill="#F6F6F6" transform="matrix(1.00, 0.00, -0.00, -1.00, 6218.1, 18.0)"></text><text xml:space="preserve" font-family="LastResort,LastResort" font-size="50.0" fill="#F6F6F6" transform="matrix(1.00, 0.00, -0.00, -1.00, 6275.5, 18.0)"></text><text xml:space="preserve" font-family="LastResort,LastResort" font-size="50.0" fill="#F6F6F6" transform="matrix(1.00, 0.00, -0.00, -1.00, 6332.9, 18.0)"></text><text xml:space="preserve" font-family="LastResort,LastResort" font-size="50.0" fill="#F6F6F6" transform="matrix(1.00, 0.00, -0.00, -1.00, 6390.2, 18.0)"></text><text xml:space="preserve" font-family="LastResort,LastResort" font-size="50.0" fill="#F6F6F6" transform="matrix(1.00, 0.00, -0.00, -1.00, 6447.6, 18.0)"></text><text xml:space="preserve" font-family="LastResort,LastResort" font-size="50.0" fill="#F6F6F6" transform="matrix(1.00, 0.00, -0.00, -1.00, 6505.0, 18.0)"></text><text xml:space="preserve" font-family="LastResort,LastResort" font-size="50.0" fill="#F6F6F6" transform="matrix(1.00, 0.00, -0.00, -1.00, 6562.3, 18.0)"></text><text xml:space="preserve" font-family="LastResort,LastResort" font-size="50.0" fill="#F6F6F6" transform="matrix(1.00, 0.00, -0.00, -1.00, 6619.7, 18.0)"></text><text xml:space="preserve" font-family="LastResort,LastResort" font-size="50.0" fill="#F6F6F6" transform="matrix(1.00, 0.00, -0.00, -1.00, 6677.1, 18.0)"></text><text xml:space="preserve" font-family="LastResort,LastResort" font-size="50.0" fill="#F6F6F6" transform="matrix(1.00, 0.00, -0.00, -1.00, 6734.5, 18.0)"></text><text xml:space="preserve" font-family="LastResort,LastResort" font-size="50.0" fill="#F6F6F6" transform="matrix(1.00, 0.00, -0.00, -1.00, 6791.8, 18.0)"></text><text xml:space="preserve" font-family="LastResort,LastResort" font-size="50.0" fill="#F6F6F6" transform="matrix(1.00, 0.00, -0.00, -1.00, 6849.2, 18.0)"></text><text xml:space="preserve" font-family="LastResort,LastResort" font-size="50.0" fill="#F6F6F6" transform="matrix(1.00, 0.00, -0.00, -1.00, 6906.6, 18.0)"></text><text xml:space="preserve" font-family="LastResort,LastResort" font-size="50.0" fill="#F6F6F6" transform="matrix(1.00, 0.00, -0.00, -1.00, 6964.0, 18.0)"></text><text xml:space="preserve" font-family="LastResort,LastResort" font-size="50.0" fill="#F6F6F6" transform="matrix(1.00, 0.00, -0.00, -1.00, 7021.3, 18.0)"></text><text xml:space="preserve" font-family="LastResort,LastResort" font-size="50.0" fill="#F6F6F6" transform="matrix(1.00, 0.00, -0.00, -1.00, 7078.7, 18.0)"></text><text xml:space="preserve" font-family="LastResort,LastResort" font-size="50.0" fill="#F6F6F6" transform="matrix(1.00, 0.00, -0.00, -1.00, 7136.1, 18.0)"></text><text xml:space="preserve" font-family="LastResort,LastResort" font-size="50.0" fill="#F6F6F6" transform="matrix(1.00, 0.00, -0.00, -1.00, 7193.4, 18.0)"></text><text xml:space="preserve" font-family="LastResort,LastResort" font-size="50.0" fill="#F6F6F6" transform="matrix(1.00, 0.00, -0.00, -1.00, 7250.8, 18.0)"></text><text xml:space="preserve" font-family="LastResort,LastResort" font-size="50.0" fill="#F6F6F6" transform="matrix(1.00, 0.00, -0.00, -1.00, 7308.2, 18.0)"></text><text xml:space="preserve" font-family="LastResort,LastResort" font-size="50.0" fill="#F6F6F6" transform="matrix(1.00, 0.00, -0.00, -1.00, 7365.6, 18.0)"></text><text xml:space="preserve" font-family="LastResort,LastResort" font-size="50.0" fill="#F6F6F6" transform="matrix(1.00, 0.00, -0.00, -1.00, 7422.9, 18.0)"></text><text xml:space="preserve" font-family="LastResort,LastResort" font-size="50.0" fill="#F6F6F6" transform="matrix(1.00, 0.00, -0.00, -1.00, 7480.3, 18.0)"></text><text xml:space="preserve" font-family="LastResort,LastResort" font-size="50.0" fill="#F6F6F6" transform="matrix(1.00, 0.00, -0.00, -1.00, 7537.7, 18.0)"></text><text xml:space="preserve" font-family="LastResort,LastResort" font-size="50.0" fill="#F6F6F6" transform="matrix(1.00, 0.00, -0.00, -1.00, 7595.1, 18.0)"></text><text xml:space="preserve" font-family="LastResort,LastResort" font-size="50.0" fill="#F6F6F6" transform="matrix(1.00, 0.00, -0.00, -1.00, 7652.4, 18.0)"></text><text xml:space="preserve" font-family="LastResort,LastResort" font-size="50.0" fill="#F6F6F6" transform="matrix(1.00, 0.00, -0.00, -1.00, 7709.8, 18.0)"></text><text xml:space="preserve" font-family="LastResort,LastResort" font-size="50.0" fill="#F6F6F6" transform="matrix(1.00, 0.00, -0.00, -1.00, 7767.2, 18.0)"></text><text xml:space="preserve" font-family="LastResort,LastResort" font-size="50.0" fill="#F6F6F6" transform="matrix(1.00, 0.00, -0.00, -1.00, 7824.6, 18.0)"></text><text xml:space="preserve" font-family="LastResort,LastResort" font-size="50.0" fill="#F6F6F6" transform="matrix(1.00, 0.00, -0.00, -1.00, 7881.9, 18.0)"></text><text xml:space="preserve" font-family="LastResort,LastResort" font-size="50.0" fill="#F6F6F6" transform="matrix(1.00, 0.00, -0.00, -1.00, 7939.3, 18.0)"></text><text xml:space="preserve" font-family="LastResort,LastResort" font-size="50.0" fill="#F6F6F6" transform="matrix(1.00, 0.00, -0.00, -1.00, 7996.7, 18.0)"></text><text xml:space="preserve" font-family="LastResort,LastResort" font-size="50.0" fill="#F6F6F6" transform="matrix(1.00, 0.00, -0.00, -1.00, 8054.0, 18.0)"></text><text xml:space="preserve" font-family="LastResort,LastResort" font-size="50.0" fill="#F6F6F6" transform="matrix(1.00, 0.00, -0.00, -1.00, 8111.4, 18.0)"></text><text xml:space="preserve" font-family="LastResort,LastResort" font-size="50.0" fill="#F6F6F6" transform="matrix(1.00, 0.00, -0.00, -1.00, 8168.8, 18.0)"></text><text xml:space="preserve" font-family="LastResort,LastResort" font-size="50.0" fill="#F6F6F6" transform="matrix(1.00, 0.00, -0.00, -1.00, 8226.2, 18.0)"></text><text xml:space="preserve" font-family="LastResort,LastResort" font-size="50.0" fill="#F6F6F6" transform="matrix(1.00, 0.00, -0.00, -1.00, 8283.5, 18.0)"></text><text xml:space="preserve" font-family="LastResort,LastResort" font-size="50.0" fill="#F6F6F6" transform="matrix(1.00, 0.00, -0.00, -1.00, 8340.9, 18.0)"></text><text xml:space="preserve" font-family="LastResort,LastResort" font-size="50.0" fill="#F6F6F6" transform="matrix(1.00, 0.00, -0.00, -1.00, 8398.3, 18.0)"></text><text xml:space="preserve" font-family="LastResort,LastResort" font-size="50.0" fill="#F6F6F6" transform="matrix(1.00, 0.00, -0.00, -1.00, 8455.7, 18.0)"></text><text xml:space="preserve" font-family="LastResort,LastResort" font-size="50.0" fill="#F6F6F6" transform="matrix(1.00, 0.00, -0.00, -1.00, 8513.0, 18.0)"></text><text xml:space="preserve" font-family="LastResort,LastResort" font-size="50.0" fill="#F6F6F6" transform="matrix(1.00, 0.00, -0.00, -1.00, 8570.4, 18.0)"></text><text xml:space="preserve" font-family="LastResort,LastResort" font-size="50.0" fill="#F6F6F6" transform="matrix(1.00, 0.00, -0.00, -1.00, 8627.8, 18.0)"></text><text xml:space="preserve" font-family="LastResort,LastResort" font-size="50.0" fill="#F6F6F6" transform="matrix(1.00, 0.00, -0.00, -1.00, 8685.1, 18.0)"></text><text xml:space="preserve" font-family="LastResort,LastResort" font-size="50.0" fill="#F6F6F6" transform="matrix(1.00, 0.00, -0.00, -1.00, 8742.5, 18.0)"></text><text xml:space="preserve" font-family="LastResort,LastResort" font-size="50.0" fill="#F6F6F6" transform="matrix(1.00, 0.00, -0.00, -1.00, 8799.9, 18.0)"></text><text xml:space="preserve" font-family="LastResort,LastResort" font-size="50.0" fill="#F6F6F6" transform="matrix(1.00, 0.00, -0.00, -1.00, 8857.3, 18.0)"></text><text xml:space="preserve" font-family="LastResort,LastResort" font-size="50.0" fill="#F6F6F6" transform="matrix(1.00, 0.00, -0.00, -1.00, 8914.6, 18.0)"></text><text xml:space="preserve" font-family="LastResort,LastResort" font-size="50.0" fill="#F6F6F6" transform="matrix(1.00, 0.00, -0.00, -1.00, 8972.0, 18.0)"></text><text xml:space="preserve" font-family="LastResort,LastResort" font-size="50.0" fill="#F6F6F6" transform="matrix(1.00, 0.00, -0.00, -1.00, 9029.4, 18.0)"></text><text xml:space="preserve" font-family="LastResort,LastResort" font-size="50.0" fill="#F6F6F6" transform="matrix(1.00, 0.00, -0.00, -1.00, 9086.8, 18.0)"></text><text xml:space="preserve" font-family="LastResort,LastResort" font-size="50.0" fill="#F6F6F6" transform="matrix(1.00, 0.00, -0.00, -1.00, 9144.1, 18.0)"></text><text xml:space="preserve" font-family="LastResort,LastResort" font-size="50.0" fill="#F6F6F6" transform="matrix(1.00, 0.00, -0.00, -1.00, 9201.5, 18.0)"></text><text xml:space="preserve" font-family="LastResort,LastResort" font-size="50.0" fill="#F6F6F6" transform="matrix(1.00, 0.00, -0.00, -1.00, 9258.9, 18.0)"></text><text xml:space="preserve" font-family="LastResort,LastResort" font-size="50.0" fill="#F6F6F6" transform="matrix(1.00, 0.00, -0.00, -1.00, 9316.3, 18.0)"></text><text xml:space="preserve" font-family="LastResort,LastResort" font-size="50.0" fill="#F6F6F6" transform="matrix(1.00, 0.00, -0.00, -1.00, 9373.6, 18.0)"></text><text xml:space="preserve" font-family="LastResort,LastResort" font-size="50.0" fill="#F6F6F6" transform="matrix(1.00, 0.00, -0.00, -1.00, 9431.0, 18.0)"></text><text xml:space="preserve" font-family="LastResort,LastResort" font-size="50.0" fill="#F6F6F6" transform="matrix(1.00, 0.00, -0.00, -1.00, 9488.4, 18.0)"></text><text xml:space="preserve" font-family="LastResort,LastResort" font-size="50.0" fill="#F6F6F6" transform="matrix(1.00, 0.00, -0.00, -1.00, 9545.7, 18.0)"></text><text xml:space="preserve" font-family="LastResort,LastResort" font-size="50.0" fill="#F6F6F6" transform="matrix(1.00, 0.00, -0.00, -1.00, 9603.1, 18.0)"></text><text xml:space="preserve" font-family="LastResort,LastResort" font-size="50.0" fill="#F6F6F6" transform="matrix(1.00, 0.00, -0.00, -1.00, 9660.5, 18.0)"></text><text xml:space="preserve" font-family="LastResort,LastResort" font-size="50.0" fill="#F6F6F6" transform="matrix(1.00, 0.00, -0.00, -1.00, 9717.9, 18.0)"></text><text xml:space="preserve" font-family="LastResort,LastResort" font-size="50.0" fill="#F6F6F6" transform="matrix(1.00, 0.00, -0.00, -1.00, 9775.2, 18.0)"></text><text xml:space="preserve" font-family="LastResort,LastResort" font-size="50.0" fill="#F6F6F6" transform="matrix(1.00, 0.00, -0.00, -1.00, 9832.6, 18.0)"></text><text xml:space="preserve" font-family="LastResort,LastResort" font-size="50.0" fill="#F6F6F6" transform="matrix(1.00, 0.00, -0.00, -1.00, 9890.0, 18.0)"></text><text xml:space="preserve" font-family="LastResort,LastResort" font-size="50.0" fill="#F6F6F6" transform="matrix(1.00, 0.00, -0.00, -1.00, 9947.4, 18.0)"></text><text xml:space="preserve" font-family="LastResort,LastResort" font-size="50.0" fill="#F6F6F6" transform="matrix(1.00, 0.00, -0.00, -1.00, 10004.7, 18.0)"></text><text xml:space="preserve" font-family="LastResort,LastResort" font-size="50.0" fill="#F6F6F6" transform="matrix(1.00, 0.00, -0.00, -1.00, 10062.1, 18.0)"></text><text xml:space="preserve" font-family="LastResort,LastResort" font-size="50.0" fill="#F6F6F6" transform="matrix(1.00, 0.00, -0.00, -1.00, 10119.5, 18.0)"></text><text xml:space="preserve" font-family="LastResort,LastResort" font-size="50.0" fill="#F6F6F6" transform="matrix(1.00, 0.00, -0.00, -1.00, 10176.8, 18.0)"></text><text xml:space="preserve" font-family="LastResort,LastResort" font-size="50.0" fill="#F6F6F6" transform="matrix(1.00, 0.00, -0.00, -1.00, 10234.2, 18.0)"></text><text xml:space="preserve" font-family="LastResort,LastResort" font-size="50.0" fill="#F6F6F6" transform="matrix(1.00, 0.00, -0.00, -1.00, 10291.6, 18.0)"></text><text xml:space="preserve" font-family="LastResort,LastResort" font-size="50.0" fill="#F6F6F6" transform="matrix(1.00, 0.00, -0.00, -1.00, 10349.0, 18.0)"></text><text xml:space="preserve" font-family="LastResort,LastResort" font-size="50.0" fill="#F6F6F6" transform="matrix(1.00, 0.00, -0.00, -1.00, 10406.3, 18.0)"></text><text xml:space="preserve" font-family="LastResort,LastResort" font-size="50.0" fill="#F6F6F6" transform="matrix(1.00, 0.00, -0.00, -1.00, 10463.7, 18.0)"></text><text xml:space="preserve" font-family="LastResort,LastResort" font-size="50.0" fill="#F6F6F6" transform="matrix(1.00, 0.00, -0.00, -1.00, 10521.1, 18.0)"></text><text xml:space="preserve" font-family="LastResort,LastResort" font-size="50.0" fill="#F6F6F6" transform="matrix(1.00, 0.00, -0.00, -1.00, 10578.5, 18.0)"></text><text xml:space="preserve" font-family="LastResort,LastResort" font-size="50.0" fill="#F6F6F6" transform="matrix(1.00, 0.00, -0.00, -1.00, 10635.8, 18.0)"></text><text xml:space="preserve" font-family="LastResort,LastResort" font-size="50.0" fill="#F6F6F6" transform="matrix(1.00, 0.00, -0.00, -1.00, 10693.2, 18.0)"></text><text xml:space="preserve" font-family="LastResort,LastResort" font-size="50.0" fill="#F6F6F6" transform="matrix(1.00, 0.00, -0.00, -1.00, 10750.6, 18.0)"></text><text xml:space="preserve" font-family="LastResort,LastResort" font-size="50.0" fill="#F6F6F6" transform="matrix(1.00, 0.00, -0.00, -1.00, 10807.9, 18.0)"></text><text xml:space="preserve" font-family="LastResort,LastResort" font-size="50.0" fill="#F6F6F6" transform="matrix(1.00, 0.00, -0.00, -1.00, 10865.3, 18.0)"></text><text xml:space="preserve" font-family="LastResort,LastResort" font-size="50.0" fill="#F6F6F6" transform="matrix(1.00, 0.00, -0.00, -1.00, 10922.7, 18.0)"></text><text xml:space="preserve" font-family="LastResort,LastResort" font-size="50.0" fill="#F6F6F6" transform="matrix(1.00, 0.00, -0.00, -1.00, 10980.1, 18.0)"></text><text xml:space="preserve" font-family="LastResort,LastResort" font-size="50.0" fill="#F6F6F6" transform="matrix(1.00, 0.00, -0.00, -1.00, 11037.4, 18.0)"></text><text xml:space="preserve" font-family="LastResort,LastResort" font-size="50.0" fill="#F6F6F6" transform="matrix(1.00, 0.00, -0.00, -1.00, 11094.8, 18.0)"></text><text xml:space="preserve" font-family="LastResort,LastResort" font-size="50.0" fill="#F6F6F6" transform="matrix(1.00, 0.00, -0.00, -1.00, 11152.2, 18.0)"></text><text xml:space="preserve" font-family="LastResort,LastResort" font-size="50.0" fill="#F6F6F6" transform="matrix(1.00, 0.00, -0.00, -1.00, 11209.6, 18.0)"></text><text xml:space="preserve" font-family="LastResort,LastResort" font-size="50.0" fill="#F6F6F6" transform="matrix(1.00, 0.00, -0.00, -1.00, 11266.9, 18.0)"></text><text xml:space="preserve" font-family="LastResort,LastResort" font-size="50.0" fill="#F6F6F6" transform="matrix(1.00, 0.00, -0.00, -1.00, 11324.3, 18.0)"></text><text xml:space="preserve" font-family="LastResort,LastResort" font-size="50.0" fill="#F6F6F6" transform="matrix(1.00, 0.00, -0.00, -1.00, 11381.7, 18.0)"></text><text xml:space="preserve" font-family="LastResort,LastResort" font-size="50.0" fill="#F6F6F6" transform="matrix(1.00, 0.00, -0.00, -1.00, 11439.1, 18.0)"></text><text xml:space="preserve" font-family="LastResort,LastResort" font-size="50.0" fill="#F6F6F6" transform="matrix(1.00, 0.00, -0.00, -1.00, 11496.4, 18.0)"></text><text xml:space="preserve" font-family="LastResort,LastResort" font-size="50.0" fill="#F6F6F6" transform="matrix(1.00, 0.00, -0.00, -1.00, 11553.8, 18.0)"></text><text xml:space="preserve" font-family="LastResort,LastResort" font-size="50.0" fill="#F6F6F6" transform="matrix(1.00, 0.00, -0.00, -1.00, 11611.2, 18.0)"></text><text xml:space="preserve" font-family="LastResort,LastResort" font-size="50.0" fill="#F6F6F6" transform="matrix(1.00, 0.00, -0.00, -1.00, 11668.5, 18.0)"></text><text xml:space="preserve" font-family="LastResort,LastResort" font-size="50.0" fill="#F6F6F6" transform="matrix(1.00, 0.00, -0.00, -1.00, 11725.9, 18.0)"></text><text xml:space="preserve" font-family="LastResort,LastResort" font-size="50.0" fill="#F6F6F6" transform="matrix(1.00, 0.00, -0.00, -1.00, 11783.3, 18.0)"></text><text xml:space="preserve" font-family="LastResort,LastResort" font-size="50.0" fill="#F6F6F6" transform="matrix(1.00, 0.00, -0.00, -1.00, 11840.7, 18.0)"></text><text xml:space="preserve" font-family="LastResort,LastResort" font-size="50.0" fill="#F6F6F6" transform="matrix(1.00, 0.00, -0.00, -1.00, 11898.0, 18.0)"></text><text xml:space="preserve" font-family="LastResort,LastResort" font-size="50.0" fill="#F6F6F6" transform="matrix(1.00, 0.00, -0.00, -1.00, 11955.4, 18.0)"></text><text xml:space="preserve" font-family="LastResort,LastResort" font-size="50.0" fill="#F6F6F6" transform="matrix(1.00, 0.00, -0.00, -1.00, 12012.8, 18.0)"></text><text xml:space="preserve" font-family="LastResort,LastResort" font-size="50.0" fill="#F6F6F6" transform="matrix(1.00, 0.00, -0.00, -1.00, 12070.2, 18.0)"></text><text xml:space="preserve" font-family="LastResort,LastResort" font-size="50.0" fill="#F6F6F6" transform="matrix(1.00, 0.00, -0.00, -1.00, 12127.5, 18.0)"></text><text xml:space="preserve" font-family="LastResort,LastResort" font-size="50.0" fill="#F6F6F6" transform="matrix(1.00, 0.00, -0.00, -1.00, 12184.9, 18.0)"></text><text xml:space="preserve" font-family="LastResort,LastResort" font-size="50.0" fill="#F6F6F6" transform="matrix(1.00, 0.00, -0.00, -1.00, 12242.3, 18.0)"></text><text xml:space="preserve" font-family="LastResort,LastResort" font-size="50.0" fill="#F6F6F6" transform="matrix(1.00, 0.00, -0.00, -1.00, 12299.6, 18.0)"></text><text xml:space="preserve" font-family="LastResort,LastResort" font-size="50.0" fill="#F6F6F6" transform="matrix(1.00, 0.00, -0.00, -1.00, 12357.0, 18.0)"></text><text xml:space="preserve" font-family="LastResort,LastResort" font-size="50.0" fill="#F6F6F6" transform="matrix(1.00, 0.00, -0.00, -1.00, 12414.4, 18.0)"></text><text xml:space="preserve" font-family="LastResort,LastResort" font-size="50.0" fill="#F6F6F6" transform="matrix(1.00, 0.00, -0.00, -1.00, 12471.8, 18.0)"></text><text xml:space="preserve" font-family="LastResort,LastResort" font-size="50.0" fill="#F6F6F6" transform="matrix(1.00, 0.00, -0.00, -1.00, 12529.1, 18.0)"></text><text xml:space="preserve" font-family="LastResort,LastResort" font-size="50.0" fill="#F6F6F6" transform="matrix(1.00, 0.00, -0.00, -1.00, 12586.5, 18.0)"></text><text xml:space="preserve" font-family="LastResort,LastResort" font-size="50.0" fill="#F6F6F6" transform="matrix(1.00, 0.00, -0.00, -1.00, 12643.9, 18.0)"></text><text xml:space="preserve" font-family="LastResort,LastResort" font-size="50.0" fill="#F6F6F6" transform="matrix(1.00, 0.00, -0.00, -1.00, 12701.3, 18.0)"></text><text xml:space="preserve" font-family="LastResort,LastResort" font-size="50.0" fill="#F6F6F6" transform="matrix(1.00, 0.00, -0.00, -1.00, 12758.6, 18.0)"></text><text xml:space="preserve" font-family="LastResort,LastResort" font-size="50.0" fill="#F6F6F6" transform="matrix(1.00, 0.00, -0.00, -1.00, 12816.0, 18.0)"></text><text xml:space="preserve" font-family="LastResort,LastResort" font-size="50.0" fill="#F6F6F6" transform="matrix(1.00, 0.00, -0.00, -1.00, 12873.4, 18.0)"></text><text xml:space="preserve" font-family="LastResort,LastResort" font-size="50.0" fill="#F6F6F6" transform="matrix(1.00, 0.00, -0.00, -1.00, 12930.8, 18.0)"></text><text xml:space="preserve" font-family="LastResort,LastResort" font-size="50.0" fill="#F6F6F6" transform="matrix(1.00, 0.00, -0.00, -1.00, 12988.1, 18.0)"></text><text xml:space="preserve" font-family="LastResort,LastResort" font-size="50.0" fill="#F6F6F6" transform="matrix(1.00, 0.00, -0.00, -1.00, 13045.5, 18.0)"></text><text xml:space="preserve" font-family="LastResort,LastResort" font-size="50.0" fill="#F6F6F6" transform="matrix(1.00, 0.00, -0.00, -1.00, 13102.9, 18.0)"></text><text xml:space="preserve" font-family="LastResort,LastResort" font-size="50.0" fill="#F6F6F6" transform="matrix(1.00, 0.00, -0.00, -1.00, 13160.2, 18.0)"></text><text xml:space="preserve" font-family="LastResort,LastResort" font-size="50.0" fill="#F6F6F6" transform="matrix(1.00, 0.00, -0.00, -1.00, 13217.6, 18.0)"></text><text xml:space="preserve" font-family="LastResort,LastResort" font-size="50.0" fill="#F6F6F6" transform="matrix(1.00, 0.00, -0.00, -1.00, 13275.0, 18.0)"></text><text xml:space="preserve" font-family="LastResort,LastResort" font-size="50.0" fill="#F6F6F6" transform="matrix(1.00, 0.00, -0.00, -1.00, 13332.4, 18.0)"></text><text xml:space="preserve" font-family="LastResort,LastResort" font-size="50.0" fill="#F6F6F6" transform="matrix(1.00, 0.00, -0.00, -1.00, 13389.7, 18.0)"></text><text xml:space="preserve" font-family="LastResort,LastResort" font-size="50.0" fill="#F6F6F6" transform="matrix(1.00, 0.00, -0.00, -1.00, 13447.1, 18.0)"></text><text xml:space="preserve" font-family="LastResort,LastResort" font-size="50.0" fill="#F6F6F6" transform="matrix(1.00, 0.00, -0.00, -1.00, 13504.5, 18.0)"></text><text xml:space="preserve" font-family="LastResort,LastResort" font-size="50.0" fill="#F6F6F6" transform="matrix(1.00, 0.00, -0.00, -1.00, 13561.9, 18.0)"></text><text xml:space="preserve" font-family="LastResort,LastResort" font-size="50.0" fill="#F6F6F6" transform="matrix(1.00, 0.00, -0.00, -1.00, 13619.2, 18.0)"></text><text xml:space="preserve" font-family="LastResort,LastResort" font-size="50.0" fill="#F6F6F6" transform="matrix(1.00, 0.00, -0.00, -1.00, 13676.6, 18.0)"></text><text xml:space="preserve" font-family="LastResort,LastResort" font-size="50.0" fill="#F6F6F6" transform="matrix(1.00, 0.00, -0.00, -1.00, 13734.0, 18.0)"></text><text xml:space="preserve" font-family="LastResort,LastResort" font-size="50.0" fill="#F6F6F6" transform="matrix(1.00, 0.00, -0.00, -1.00, 13791.3, 18.0)"></text><text xml:space="preserve" font-family="LastResort,LastResort" font-size="50.0" fill="#F6F6F6" transform="matrix(1.00, 0.00, -0.00, -1.00, 13848.7, 18.0)"></text><text xml:space="preserve" font-family="LastResort,LastResort" font-size="50.0" fill="#F6F6F6" transform="matrix(1.00, 0.00, -0.00, -1.00, 13906.1, 18.0)"></text><text xml:space="preserve" font-family="LastResort,LastResort" font-size="50.0" fill="#F6F6F6" transform="matrix(1.00, 0.00, -0.00, -1.00, 13963.5, 18.0)"></text><text xml:space="preserve" font-family="LastResort,LastResort" font-size="50.0" fill="#F6F6F6" transform="matrix(1.00, 0.00, -0.00, -1.00, 14020.8, 18.0)"></text><text xml:space="preserve" font-family="LastResort,LastResort" font-size="50.0" fill="#F6F6F6" transform="matrix(1.00, 0.00, -0.00, -1.00, 14078.2, 18.0)"></text><text xml:space="preserve" font-family="LastResort,LastResort" font-size="50.0" fill="#F6F6F6" transform="matrix(1.00, 0.00, -0.00, -1.00, 14135.6, 18.0)"></text><text xml:space="preserve" font-family="LastResort,LastResort" font-size="50.0" fill="#F6F6F6" transform="matrix(1.00, 0.00, -0.00, -1.00, 14193.0, 18.0)"></text><text xml:space="preserve" font-family="LastResort,LastResort" font-size="50.0" fill="#F6F6F6" transform="matrix(1.00, 0.00, -0.00, -1.00, 14250.3, 18.0)"></text><text xml:space="preserve" font-family="LastResort,LastResort" font-size="50.0" fill="#F6F6F6" transform="matrix(1.00, 0.00, -0.00, -1.00, 14307.7, 18.0)"></text><text xml:space="preserve" font-family="LastResort,LastResort" font-size="50.0" fill="#F6F6F6" transform="matrix(1.00, 0.00, -0.00, -1.00, 14365.1, 18.0)"></text><text xml:space="preserve" font-family="LastResort,LastResort" font-size="50.0" fill="#F6F6F6" transform="matrix(1.00, 0.00, -0.00, -1.00, 14422.5, 18.0)"></text><text xml:space="preserve" font-family="LastResort,LastResort" font-size="50.0" fill="#F6F6F6" transform="matrix(1.00, 0.00, -0.00, -1.00, 14479.8, 18.0)"></text><text xml:space="preserve" font-family="LastResort,LastResort" font-size="50.0" fill="#F6F6F6" transform="matrix(1.00, 0.00, -0.00, -1.00, 14537.2, 18.0)"></text><text xml:space="preserve" font-family="LastResort,LastResort" font-size="50.0" fill="#F6F6F6" transform="matrix(1.00, 0.00, -0.00, -1.00, 14594.6, 18.0)"></text><text xml:space="preserve" font-family="LastResort,LastResort" font-size="50.0" fill="#F6F6F6" transform="matrix(1.00, 0.00, -0.00, -1.00, 14651.9, 18.0)"></text></g></g><g><clipPath id="clip0x6080062a9d80"><path d="M 69.3 14.3 L 183.6 14.3 L 183.6 51.3 L 69.3 51.3 Z M 69.3 14.3 "></path></clipPath><g clip-path="url(#clip0x6080062a9d80)"><text xml:space="preserve" font-family="Helvetica,Helvetica" font-size="22.0" fill="#FEFFFF" transform="matrix(1.00, 0.00, -0.00, -1.00, 74.8, 24.9)">W</text><text xml:space="preserve" font-family="Helvetica,Helvetica" font-size="22.0" fill="#FEFFFF" transform="matrix(1.00, 0.00, -0.00, -1.00, 95.1, 24.9)">e</text><text xml:space="preserve" font-family="Helvetica,Helvetica" font-size="22.0" fill="#FEFFFF" transform="matrix(1.00, 0.00, -0.00, -1.00, 107.4, 24.9)">b</text><text xml:space="preserve" font-family="Helvetica,Helvetica" font-size="22.0" fill="#FEFFFF" transform="matrix(1.00, 0.00, -0.00, -1.00, 119.6, 24.9)"> </text><text xml:space="preserve" font-family="Helvetica,Helvetica" font-size="22.0" fill="#FEFFFF" transform="matrix(1.00, 0.00, -0.00, -1.00, 125.7, 24.9)">P</text><text xml:space="preserve" font-family="Helvetica,Helvetica" font-size="22.0" fill="#FEFFFF" transform="matrix(1.00, 0.00, -0.00, -1.00, 140.4, 24.9)">a</text><text xml:space="preserve" font-family="Helvetica,Helvetica" font-size="22.0" fill="#FEFFFF" transform="matrix(1.00, 0.00, -0.00, -1.00, 152.6, 24.9)">g</text><text xml:space="preserve" font-family="Helvetica,Helvetica" font-size="22.0" fill="#FEFFFF" transform="matrix(1.00, 0.00, -0.00, -1.00, 164.9, 24.9)">e</text></g></g><g><clipPath id="clip0x6080062aa260"><path d="M 246.2 14.3 L 436.7 14.3 L 436.7 51.3 L 246.2 51.3 Z M 246.2 14.3 "></path></clipPath><g clip-path="url(#clip0x6080062aa260)"><text xml:space="preserve" font-family="Helvetica,Helvetica" font-size="22.0" fill="#FEFFFF" transform="matrix(1.00, 0.00, -0.00, -1.00, 251.7, 24.9)">:</text><text xml:space="preserve" font-family="Helvetica,Helvetica" font-size="22.0" fill="#FEFFFF" transform="matrix(1.00, 0.00, -0.00, -1.00, 257.8, 24.9)"> </text><text xml:space="preserve" font-family="Helvetica,Helvetica" font-size="22.0" fill="#FEFFFF" transform="matrix(1.00, 0.00, -0.00, -1.00, 263.9, 24.9)">w</text><text xml:space="preserve" font-family="Helvetica,Helvetica" font-size="22.0" fill="#FEFFFF" transform="matrix(1.00, 0.00, -0.00, -1.00, 279.8, 24.9)">w</text><text xml:space="preserve" font-family="Helvetica,Helvetica" font-size="22.0" fill="#FEFFFF" transform="matrix(1.00, 0.00, -0.00, -1.00, 295.7, 24.9)">w</text><text xml:space="preserve" font-family="Helvetica,Helvetica" font-size="22.0" fill="#FEFFFF" transform="matrix(1.00, 0.00, -0.00, -1.00, 310.4, 24.9)">.</text><text xml:space="preserve" font-family="Helvetica,Helvetica" font-size="22.0" fill="#FEFFFF" transform="matrix(1.00, 0.00, -0.00, -1.00, 316.5, 24.9)">p</text><text xml:space="preserve" font-family="Helvetica,Helvetica" font-size="22.0" fill="#FEFFFF" transform="matrix(1.00, 0.00, -0.00, -1.00, 328.7, 24.9)">r</text><text xml:space="preserve" font-family="Helvetica,Helvetica" font-size="22.0" fill="#FEFFFF" transform="matrix(1.00, 0.00, -0.00, -1.00, 336.1, 24.9)">o</text><text xml:space="preserve" font-family="Helvetica,Helvetica" font-size="22.0" fill="#FEFFFF" transform="matrix(1.00, 0.00, -0.00, -1.00, 348.3, 24.9)">j</text><text xml:space="preserve" font-family="Helvetica,Helvetica" font-size="22.0" fill="#FEFFFF" transform="matrix(1.00, 0.00, -0.00, -1.00, 353.2, 24.9)">e</text><text xml:space="preserve" font-family="Helvetica,Helvetica" font-size="22.0" fill="#FEFFFF" transform="matrix(1.00, 0.00, -0.00, -1.00, 365.4, 24.9)">c</text><text xml:space="preserve" font-family="Helvetica,Helvetica" font-size="22.0" fill="#FEFFFF" transform="matrix(1.00, 0.00, -0.00, -1.00, 376.4, 24.9)">t</text><text xml:space="preserve" font-family="Helvetica,Helvetica" font-size="22.0" fill="#FEFFFF" transform="matrix(1.00, 0.00, -0.00, -1.00, 382.5, 24.9)">.</text><text xml:space="preserve" font-family="Helvetica,Helvetica" font-size="22.0" fill="#FEFFFF" transform="matrix(1.00, 0.00, -0.00, -1.00, 388.7, 24.9)">c</text><text xml:space="preserve" font-family="Helvetica,Helvetica" font-size="22.0" fill="#FEFFFF" transform="matrix(1.00, 0.00, -0.00, -1.00, 399.7, 24.9)">o</text><text xml:space="preserve" font-family="Helvetica,Helvetica" font-size="22.0" fill="#FEFFFF" transform="matrix(1.00, 0.00, -0.00, -1.00, 411.9, 24.9)">m</text></g></g></g></svg>