<?xml version="1.0" encoding="UTF-8" standalone="no"?><svg xmlns="http://www.w3.org/2000/svg" xmlns:xlink="http://www.w3.org/1999/xlink" clip-rule="evenodd" stroke-miterlimit="10" viewBox="0 0 270 78"><desc>SVG generated by Keynote</desc><defs></defs><g transform="matrix(1.00, 0.00, -0.00, -1.00, 0.0, 78.0)"><g><clipPath id="clip0x610007cbf260"><path d="M 1.8 1.5 L 268.2 1.5 L 268.2 47.5 L 1.8 47.5 Z M 1.8 1.5 "></path></clipPath><g clip-path="url(#clip0x610007cbf260)"><text xml:space="preserve" font-family="Helvetica,Helvetica" font-size="16.0" fill="#E2E2E2" transform="matrix(1.00, 0.00, -0.00, -1.00, 5.8, 28.2)">L</text><text xml:space="preserve" font-family="Helvetica,Helvetica" font-size="16.0" fill="#E2E2E2" transform="matrix(1.00, 0.00, -0.00, -1.00, 14.7, 28.2)">o</text><text xml:space="preserve" font-family="Helvetica,Helvetica" font-size="16.0" fill="#E2E2E2" transform="matrix(1.00, 0.00, -0.00, -1.00, 23.6, 28.2)">r</text><text xml:space="preserve" font-family="Helvetica,Helvetica" font-size="16.0" fill="#E2E2E2" transform="matrix(1.00, 0.00, -0.00, -1.00, 29.0, 28.2)">e</text><text xml:space="preserve" font-family="Helvetica,Helvetica" font-size="16.0" fill="#E2E2E2" transform="matrix(1.00, 0.00, -0.00, -1.00, 37.9, 28.2)">m</text><text xml:space="preserve" font-family="Helvetica,Helvetica" font-size="16.0" fill="#E2E2E2" transform="matrix(1.00, 0.00, -0.00, -1.00, 51.2, 28.2)"> </text><text xml:space="preserve" font-family="Helvetica,Helvetica" font-size="16.0" fill="#E2E2E2" transform="matrix(1.00, 0.00, -0.00, -1.00, 55.6, 28.2)">i</text><text xml:space="preserve" font-family="Helvetica,Helvetica" font-size="16.0" fill="#E2E2E2" transform="matrix(1.00, 0.00, -0.00, -1.00, 59.2, 28.2)">p</text><text xml:space="preserve" font-family="Helvetica,Helvetica" font-size="16.0" fill="#E2E2E2" transform="matrix(1.00, 0.00, -0.00, -1.00, 68.1, 28.2)">s</text><text xml:space="preserve" font-family="Helvetica,Helvetica" font-size="16.0" fill="#E2E2E2" transform="matrix(1.00, 0.00, -0.00, -1.00, 76.1, 28.2)">u</text><text xml:space="preserve" font-family="Helvetica,Helvetica" font-size="16.0" fill="#E2E2E2" transform="matrix(1.00, 0.00, -0.00, -1.00, 85.0, 28.2)">m</text><text xml:space="preserve" font-family="Helvetica,Helvetica" font-size="16.0" fill="#E2E2E2" transform="matrix(1.00, 0.00, -0.00, -1.00, 98.3, 28.2)"> </text><text xml:space="preserve" font-family="Helvetica,Helvetica" font-size="16.0" fill="#E2E2E2" transform="matrix(1.00, 0.00, -0.00, -1.00, 102.8, 28.2)">d</text><text xml:space="preserve" font-family="Helvetica,Helvetica" font-size="16.0" fill="#E2E2E2" transform="matrix(1.00, 0.00, -0.00, -1.00, 111.7, 28.2)">o</text><text xml:space="preserve" font-family="Helvetica,Helvetica" font-size="16.0" fill="#E2E2E2" transform="matrix(1.00, 0.00, -0.00, -1.00, 120.6, 28.2)">l</text><text xml:space="preserve" font-family="Helvetica,Helvetica" font-size="16.0" fill="#E2E2E2" transform="matrix(1.00, 0.00, -0.00, -1.00, 124.1, 28.2)">o</text><text xml:space="preserve" font-family="Helvetica,Helvetica" font-size="16.0" fill="#E2E2E2" transform="matrix(1.00, 0.00, -0.00, -1.00, 133.0, 28.2)">r</text><text xml:space="preserve" font-family="Helvetica,Helvetica" font-size="16.0" fill="#E2E2E2" transform="matrix(1.00, 0.00, -0.00, -1.00, 138.4, 28.2)"> </text><text xml:space="preserve" font-family="Helvetica,Helvetica" font-size="16.0" fill="#E2E2E2" transform="matrix(1.00, 0.00, -0.00, -1.00, 142.8, 28.2)">s</text><text xml:space="preserve" font-family="Helvetica,Helvetica" font-size="16.0" fill="#E2E2E2" transform="matrix(1.00, 0.00, -0.00, -1.00, 150.8, 28.2)">i</text><text xml:space="preserve" font-family="Helvetica,Helvetica" font-size="16.0" fill="#E2E2E2" transform="matrix(1.00, 0.00, -0.00, -1.00, 154.4, 28.2)">t</text><text xml:space="preserve" font-family="Helvetica,Helvetica" font-size="16.0" fill="#E2E2E2" transform="matrix(1.00, 0.00, -0.00, -1.00, 158.8, 28.2)"> </text><text xml:space="preserve" font-family="Helvetica,Helvetica" font-size="16.0" fill="#E2E2E2" transform="matrix(1.00, 0.00, -0.00, -1.00, 163.2, 28.2)">a</text><text xml:space="preserve" font-family="Helvetica,Helvetica" font-size="16.0" fill="#E2E2E2" transform="matrix(1.00, 0.00, -0.00, -1.00, 172.2, 28.2)">m</text><text xml:space="preserve" font-family="Helvetica,Helvetica" font-size="16.0" fill="#E2E2E2" transform="matrix(1.00, 0.00, -0.00, -1.00, 185.5, 28.2)">e</text><text xml:space="preserve" font-family="Helvetica,Helvetica" font-size="16.0" fill="#E2E2E2" transform="matrix(1.00, 0.00, -0.00, -1.00, 194.4, 28.2)">t</text><text xml:space="preserve" font-family="Helvetica,Helvetica" font-size="16.0" fill="#E2E2E2" transform="matrix(1.00, 0.00, -0.00, -1.00, 198.8, 28.2)">,</text><text xml:space="preserve" font-family="Helvetica,Helvetica" font-size="16.0" fill="#E2E2E2" transform="matrix(1.00, 0.00, -0.00, -1.00, 203.3, 28.2)"> </text><text xml:space="preserve" font-family="Helvetica,Helvetica" font-size="16.0" fill="#E2E2E2" transform="matrix(1.00, 0.00, -0.00, -1.00, 207.7, 28.2)">c</text><text xml:space="preserve" font-family="Helvetica,Helvetica" font-size="16.0" fill="#E2E2E2" transform="matrix(1.00, 0.00, -0.00, -1.00, 215.7, 28.2)">o</text><text xml:space="preserve" font-family="Helvetica,Helvetica" font-size="16.0" fill="#E2E2E2" transform="matrix(1.00, 0.00, -0.00, -1.00, 224.6, 28.2)">n</text><text xml:space="preserve" font-family="Helvetica,Helvetica" font-size="16.0" fill="#E2E2E2" transform="matrix(1.00, 0.00, -0.00, -1.00, 233.5, 28.2)">s</text><text xml:space="preserve" font-family="Helvetica,Helvetica" font-size="16.0" fill="#E2E2E2" transform="matrix(1.00, 0.00, -0.00, -1.00, 241.5, 28.2)">e</text><text xml:space="preserve" font-family="Helvetica,Helvetica" font-size="16.0" fill="#E2E2E2" transform="matrix(1.00, 0.00, -0.00, -1.00, 250.4, 28.2)">c</text><text xml:space="preserve" font-family="Helvetica,Helvetica" font-size="16.0" fill="#E2E2E2" transform="matrix(1.00, 0.00, -0.00, -1.00, 258.4, 28.2)"> </text><text xml:space="preserve" font-family="Helvetica,Helvetica" font-size="16.0" fill="#E2E2E2" transform="matrix(1.00, 0.00, -0.00, -1.00, 5.8, 9.2)">a</text><text xml:space="preserve" font-family="Helvetica,Helvetica" font-size="16.0" fill="#E2E2E2" transform="matrix(1.00, 0.00, -0.00, -1.00, 14.7, 9.2)">d</text><text xml:space="preserve" font-family="Helvetica,Helvetica" font-size="16.0" fill="#E2E2E2" transform="matrix(1.00, 0.00, -0.00, -1.00, 23.6, 9.2)">i</text><text xml:space="preserve" font-family="Helvetica,Helvetica" font-size="16.0" fill="#E2E2E2" transform="matrix(1.00, 0.00, -0.00, -1.00, 27.2, 9.2)">p</text><text xml:space="preserve" font-family="Helvetica,Helvetica" font-size="16.0" fill="#E2E2E2" transform="matrix(1.00, 0.00, -0.00, -1.00, 36.1, 9.2)">i</text><text xml:space="preserve" font-family="Helvetica,Helvetica" font-size="16.0" fill="#E2E2E2" transform="matrix(1.00, 0.00, -0.00, -1.00, 39.7, 9.2)">s</text><text xml:space="preserve" font-family="Helvetica,Helvetica" font-size="16.0" fill="#E2E2E2" transform="matrix(1.00, 0.00, -0.00, -1.00, 47.7, 9.2)">c</text><text xml:space="preserve" font-family="Helvetica,Helvetica" font-size="16.0" fill="#E2E2E2" transform="matrix(1.00, 0.00, -0.00, -1.00, 55.7, 9.2)">i</text><text xml:space="preserve" font-family="Helvetica,Helvetica" font-size="16.0" fill="#E2E2E2" transform="matrix(1.00, 0.00, -0.00, -1.00, 59.2, 9.2)">n</text><text xml:space="preserve" font-family="Helvetica,Helvetica" font-size="16.0" fill="#E2E2E2" transform="matrix(1.00, 0.00, -0.00, -1.00, 68.1, 9.2)">g</text><text xml:space="preserve" font-family="Helvetica,Helvetica" font-size="16.0" fill="#E2E2E2" transform="matrix(1.00, 0.00, -0.00, -1.00, 77.0, 9.2)"> </text><text xml:space="preserve" font-family="Helvetica,Helvetica" font-size="16.0" fill="#E2E2E2" transform="matrix(1.00, 0.00, -0.00, -1.00, 81.5, 9.2)">e</text><text xml:space="preserve" font-family="Helvetica,Helvetica" font-size="16.0" fill="#E2E2E2" transform="matrix(1.00, 0.00, -0.00, -1.00, 90.4, 9.2)">l</text><text xml:space="preserve" font-family="Helvetica,Helvetica" font-size="16.0" fill="#E2E2E2" transform="matrix(1.00, 0.00, -0.00, -1.00, 93.9, 9.2)">i</text><text xml:space="preserve" font-family="Helvetica,Helvetica" font-size="16.0" fill="#E2E2E2" transform="matrix(1.00, 0.00, -0.00, -1.00, 97.5, 9.2)">t</text><text xml:space="preserve" font-family="Helvetica,Helvetica" font-size="16.0" fill="#E2E2E2" transform="matrix(1.00, 0.00, -0.00, -1.00, 101.9, 9.2)">,</text><text xml:space="preserve" font-family="Helvetica,Helvetica" font-size="16.0" fill="#E2E2E2" transform="matrix(1.00, 0.00, -0.00, -1.00, 106.4, 9.2)"> </text><text xml:space="preserve" font-family="Helvetica,Helvetica" font-size="16.0" fill="#E2E2E2" transform="matrix(1.00, 0.00, -0.00, -1.00, 110.8, 9.2)">s</text><text xml:space="preserve" font-family="Helvetica,Helvetica" font-size="16.0" fill="#E2E2E2" transform="matrix(1.00, 0.00, -0.00, -1.00, 118.8, 9.2)">e</text><text xml:space="preserve" font-family="Helvetica,Helvetica" font-size="16.0" fill="#E2E2E2" transform="matrix(1.00, 0.00, -0.00, -1.00, 127.7, 9.2)">d</text><text xml:space="preserve" font-family="Helvetica,Helvetica" font-size="16.0" fill="#E2E2E2" transform="matrix(1.00, 0.00, -0.00, -1.00, 136.6, 9.2)"> </text><text xml:space="preserve" font-family="Helvetica,Helvetica" font-size="16.0" fill="#E2E2E2" transform="matrix(1.00, 0.00, -0.00, -1.00, 141.1, 9.2)">d</text><text xml:space="preserve" font-family="Helvetica,Helvetica" font-size="16.0" fill="#E2E2E2" transform="matrix(1.00, 0.00, -0.00, -1.00, 150.0, 9.2)">i</text><text xml:space="preserve" font-family="Helvetica,Helvetica" font-size="16.0" fill="#E2E2E2" transform="matrix(1.00, 0.00, -0.00, -1.00, 153.5, 9.2)">a</text><text xml:space="preserve" font-family="Helvetica,Helvetica" font-size="16.0" fill="#E2E2E2" transform="matrix(1.00, 0.00, -0.00, -1.00, 162.4, 9.2)">m</text><text xml:space="preserve" font-family="Helvetica,Helvetica" font-size="16.0" fill="#E2E2E2" transform="matrix(1.00, 0.00, -0.00, -1.00, 175.7, 9.2)"> </text><text xml:space="preserve" font-family="Helvetica,Helvetica" font-size="16.0" fill="#E2E2E2" transform="matrix(1.00, 0.00, -0.00, -1.00, 180.2, 9.2)">n</text><text xml:space="preserve" font-family="Helvetica,Helvetica" font-size="16.0" fill="#E2E2E2" transform="matrix(1.00, 0.00, -0.00, -1.00, 189.1, 9.2)">o</text><text xml:space="preserve" font-family="Helvetica,Helvetica" font-size="16.0" fill="#E2E2E2" transform="matrix(1.00, 0.00, -0.00, -1.00, 198.0, 9.2)">n</text><text xml:space="preserve" font-family="Helvetica,Helvetica" font-size="16.0" fill="#E2E2E2" transform="matrix(1.00, 0.00, -0.00, -1.00, 206.9, 9.2)">u</text><text xml:space="preserve" font-family="Helvetica,Helvetica" font-size="16.0" fill="#E2E2E2" transform="matrix(1.00, 0.00, -0.00, -1.00, 215.8, 9.2)">m</text><text xml:space="preserve" font-family="Helvetica,Helvetica" font-size="16.0" fill="#E2E2E2" transform="matrix(1.00, 0.00, -0.00, -1.00, 229.1, 9.2)">m</text><text xml:space="preserve" font-family="Helvetica,Helvetica" font-size="16.0" fill="#E2E2E2" transform="matrix(1.00, 0.00, -0.00, -1.00, 242.4, 9.2)">y</text><text xml:space="preserve" font-family="Helvetica,Helvetica" font-size="16.0" fill="#E2E2E2" transform="matrix(1.00, 0.00, -0.00, -1.00, 249.3, 9.2)">.</text></g></g><g><clipPath id="clip0x6180078b1a00"><path d="M 1.5 45.9 L 237.9 45.9 L 237.9 76.9 L 1.5 76.9 Z M 1.5 45.9 "></path></clipPath><g clip-path="url(#clip0x6180078b1a00)"><text xml:space="preserve" font-family="Helvetica,Helvetica" font-size="18.0" fill="#E2E2E2" transform="matrix(1.00, 0.00, -0.00, -1.00, 6.0, 54.5)">L</text><text xml:space="preserve" font-family="Helvetica,Helvetica" font-size="18.0" fill="#E2E2E2" transform="matrix(1.00, 0.00, -0.00, -1.00, 16.0, 54.5)">O</text><text xml:space="preserve" font-family="Helvetica,Helvetica" font-size="18.0" fill="#E2E2E2" transform="matrix(1.00, 0.00, -0.00, -1.00, 30.0, 54.5)">R</text><text xml:space="preserve" font-family="Helvetica,Helvetica" font-size="18.0" fill="#E2E2E2" transform="matrix(1.00, 0.00, -0.00, -1.00, 43.0, 54.5)">E</text><text xml:space="preserve" font-family="Helvetica,Helvetica" font-size="18.0" fill="#E2E2E2" transform="matrix(1.00, 0.00, -0.00, -1.00, 55.0, 54.5)">M</text><text xml:space="preserve" font-family="Helvetica,Helvetica" font-size="18.0" fill="#E2E2E2" transform="matrix(1.00, 0.00, -0.00, -1.00, 70.0, 54.5)"> </text><text xml:space="preserve" font-family="Helvetica,Helvetica" font-size="18.0" fill="#E2E2E2" transform="matrix(1.00, 0.00, -0.00, -1.00, 74.6, 54.5)">T</text><text xml:space="preserve" font-family="Helvetica,Helvetica" font-size="18.0" fill="#E2E2E2" transform="matrix(1.00, 0.00, -0.00, -1.00, 85.6, 54.5)">E</text><text xml:space="preserve" font-family="Helvetica,Helvetica" font-size="18.0" fill="#E2E2E2" transform="matrix(1.00, 0.00, -0.00, -1.00, 97.6, 54.5)">X</text><text xml:space="preserve" font-family="Helvetica,Helvetica" font-size="18.0" fill="#E2E2E2" transform="matrix(1.00, 0.00, -0.00, -1.00, 109.7, 54.5)">T</text><text xml:space="preserve" font-family="Helvetica,Helvetica" font-size="18.0" fill="#E2E2E2" transform="matrix(1.00, 0.00, -0.00, -1.00, 120.3, 54.5)"> </text><text xml:space="preserve" font-family="Helvetica,Helvetica" font-size="18.0" fill="#E2E2E2" transform="matrix(1.00, 0.00, -0.00, -1.00, 125.3, 54.5)">G</text><text xml:space="preserve" font-family="Helvetica,Helvetica" font-size="18.0" fill="#E2E2E2" transform="matrix(1.00, 0.00, -0.00, -1.00, 139.3, 54.5)">O</text><text xml:space="preserve" font-family="Helvetica,Helvetica" font-size="18.0" fill="#E2E2E2" transform="matrix(1.00, 0.00, -0.00, -1.00, 153.3, 54.5)">E</text><text xml:space="preserve" font-family="Helvetica,Helvetica" font-size="18.0" fill="#E2E2E2" transform="matrix(1.00, 0.00, -0.00, -1.00, 165.3, 54.5)">S</text><text xml:space="preserve" font-family="Helvetica,Helvetica" font-size="18.0" fill="#E2E2E2" transform="matrix(1.00, 0.00, -0.00, -1.00, 177.3, 54.5)"> </text><text xml:space="preserve" font-family="Helvetica,Helvetica" font-size="18.0" fill="#E2E2E2" transform="matrix(1.00, 0.00, -0.00, -1.00, 182.3, 54.5)">H</text><text xml:space="preserve" font-family="Helvetica,Helvetica" font-size="18.0" fill="#E2E2E2" transform="matrix(1.00, 0.00, -0.00, -1.00, 195.3, 54.5)">E</text><text xml:space="preserve" font-family="Helvetica,Helvetica" font-size="18.0" fill="#E2E2E2" transform="matrix(1.00, 0.00, -0.00, -1.00, 207.3, 54.5)">R</text><text xml:space="preserve" font-family="Helvetica,Helvetica" font-size="18.0" fill="#E2E2E2" transform="matrix(1.00, 0.00, -0.00, -1.00, 220.3, 54.5)">E</text></g></g></g></svg>