<?xml version="1.0" encoding="UTF-8" standalone="no"?><svg xmlns="http://www.w3.org/2000/svg" xmlns:xlink="http://www.w3.org/1999/xlink" clip-rule="evenodd" stroke-miterlimit="10" viewBox="0 0 61 62"><desc>SVG generated by Keynote</desc><defs></defs><g transform="matrix(1.00, 0.00, -0.00, -1.00, 0.0, 62.0)"><g><clipPath id="clip0x6180078b0800"><path d="M 0.2 0.8 L 61.0 0.8 L 61.0 61.6 L 0.2 61.6 Z M 0.2 0.8 "></path></clipPath><g clip-path="url(#clip0x6180078b0800)"><path d="M 44.2 7.6 C 54.3 17.7 54.3 34.1 44.2 44.2 C 34.1 54.3 17.7 54.3 7.6 44.2 C -2.5 34.1 -2.5 17.7 7.6 7.6 C 17.7 -2.5 34.1 -2.5 44.2 7.6 Z M 44.2 7.6 " fill="none" stroke="#EDC25F" stroke-width="7.00" transform="matrix(1.00, 0.00, 0.00, -1.00, 4.7, 57.1)"></path></g></g><g><clipPath id="clip0x6180078b0c80"><path d="M 13.8 13.2 L 47.4 13.2 L 47.4 49.2 L 13.8 49.2 Z M 13.8 13.2 "></path></clipPath><g clip-path="url(#clip0x6180078b0c80)"><text xml:space="preserve" font-family="FontAwesome,FontAwesome" font-size="24.0" fill="#EDC25F" transform="matrix(1.00, 0.00, -0.00, -1.00, 20.3, 22.6)">◎</text></g></g></g></svg>