<?xml version="1.0" encoding="UTF-8" standalone="no"?><svg xmlns="http://www.w3.org/2000/svg" xmlns:xlink="http://www.w3.org/1999/xlink" clip-rule="evenodd" stroke-miterlimit="10" viewBox="0 0 1920 1080"><desc>SVG generated by Keynote</desc><defs></defs><g transform="matrix(1.00, 0.00, -0.00, -1.00, 0.0, 1080.0)"><path d="M 0.0 1080.0 L 1920.0 1080.0 L 1920.0 0.0 L 0.0 0.0 Z M 0.0 1080.0 " fill="#5A6378"></path><image xlink:href="../../836F46BD-DF04-44B3-8CAE-9EBA92595E3F/assets/520C9E05AD6AD63615395BDB5D5AA59E.png" width="1929.00" height="90.00" transform="matrix(1.00, 0.00, -0.00, -1.00, -4.6, 85.1)" opacity="0.15"></image><path d="M -2.0 80.0 L 1922.0 80.0 L 1922.0 -4.0 L -2.0 -4.0 Z M -1.6 80.1 " fill="#5A6378"></path><text xml:space="preserve" font-family="Helvetica,Helvetica" font-size="30.0" fill="#E2E2E2" transform="matrix(1.00, 0.00, -0.00, -1.00, 43.5, 26.1)">R</text><text xml:space="preserve" font-family="Helvetica,Helvetica" font-size="30.0" fill="#E2E2E2" transform="matrix(1.00, 0.00, -0.00, -1.00, 65.1, 26.1)">o</text><text xml:space="preserve" font-family="Helvetica,Helvetica" font-size="30.0" fill="#E2E2E2" transform="matrix(1.00, 0.00, -0.00, -1.00, 81.8, 26.1)">b</text><text xml:space="preserve" font-family="Helvetica,Helvetica" font-size="30.0" fill="#E2E2E2" transform="matrix(1.00, 0.00, -0.00, -1.00, 98.5, 26.1)">o</text><g><clipPath id="clip0x600007ca1500"><path d="M 122.1 26.3 L 139.9 26.3 L 139.9 44.1 L 122.1 44.1 Z M 122.1 26.3 "></path></clipPath><g clip-path="url(#clip0x600007ca1500)"><path d="M 123.0 43.0 L 139.0 43.0 L 139.0 27.0 L 123.0 27.0 Z M 123.1 43.1 " fill="#FF607B"></path></g></g><g><clipPath id="clip0x600007ca1740"><path d="M 140.4 26.3 L 158.2 26.3 L 158.2 44.1 L 140.4 44.1 Z M 140.4 26.3 "></path></clipPath><g clip-path="url(#clip0x600007ca1740)"><path d="M 141.0 43.0 L 157.0 43.0 L 157.0 27.0 L 141.0 27.0 Z M 141.4 43.1 " fill="#54C6E1"></path></g></g><g><clipPath id="clip0x600007ca1980"><path d="M 176.9 26.3 L 194.7 26.3 L 194.7 44.1 L 176.9 44.1 Z M 176.9 26.3 "></path></clipPath><g clip-path="url(#clip0x600007ca1980)"><path d="M 178.0 43.0 L 194.0 43.0 L 194.0 27.0 L 178.0 27.0 Z M 177.9 43.1 " fill="#62D7AD"></path></g></g><g><clipPath id="clip0x600007ca1bc0"><path d="M 158.7 26.3 L 176.5 26.3 L 176.5 44.1 L 158.7 44.1 Z M 158.7 26.3 "></path></clipPath><g clip-path="url(#clip0x600007ca1bc0)"><path d="M 160.0 43.0 L 175.0 43.0 L 175.0 27.0 L 160.0 27.0 Z M 159.7 43.1 " fill="#EDC25F"></path></g></g><g><clipPath id="clip0x600007ca1e00"><path d="M 887.2 13.7 L 930.3 13.7 L 930.3 56.7 L 887.2 56.7 Z M 887.2 13.7 "></path></clipPath><g clip-path="url(#clip0x600007ca1e00)"><path d="M 34.2 5.9 C 42.0 13.7 42.0 26.3 34.2 34.2 C 26.3 42.0 13.7 42.0 5.9 34.2 C -2.0 26.3 -2.0 13.7 5.9 5.9 C 13.7 -2.0 26.3 -2.0 34.2 5.9 Z M 34.2 5.9 " fill="none" stroke="#E2E2E2" stroke-width="1.00" transform="matrix(1.00, 0.00, 0.00, -1.00, 888.7, 55.2)"></path></g></g><g><clipPath id="clip0x600007ca2040"><path d="M 897.5 20.2 L 920.0 20.2 L 920.0 50.2 L 897.5 50.2 Z M 897.5 20.2 "></path></clipPath><g clip-path="url(#clip0x600007ca2040)"></g></g><g><clipPath id="clip0x600007ca21c0"><path d="M 938.5 13.7 L 981.5 13.7 L 981.5 56.7 L 938.5 56.7 Z M 938.5 13.7 "></path></clipPath><g clip-path="url(#clip0x600007ca21c0)"><path d="M 34.2 5.9 C 42.0 13.7 42.0 26.3 34.2 34.2 C 26.3 42.0 13.7 42.0 5.9 34.2 C -2.0 26.3 -2.0 13.7 5.9 5.9 C 13.7 -2.0 26.3 -2.0 34.2 5.9 Z M 34.2 5.9 " fill="none" stroke="#E2E2E2" stroke-width="1.00" transform="matrix(1.00, 0.00, 0.00, -1.00, 940.0, 55.2)"></path></g></g><g><clipPath id="clip0x600007ca2400"><path d="M 945.2 20.2 L 974.8 20.2 L 974.8 50.2 L 945.2 50.2 Z M 945.2 20.2 "></path></clipPath><g clip-path="url(#clip0x600007ca2400)"></g></g><g><clipPath id="clip0x600007ca2580"><path d="M 989.7 13.7 L 1032.8 13.7 L 1032.8 56.7 L 989.7 56.7 Z M 989.7 13.7 "></path></clipPath><g clip-path="url(#clip0x600007ca2580)"><path d="M 34.2 5.9 C 42.0 13.7 42.0 26.3 34.2 34.2 C 26.3 42.0 13.7 42.0 5.9 34.2 C -2.0 26.3 -2.0 13.7 5.9 5.9 C 13.7 -2.0 26.3 -2.0 34.2 5.9 Z M 34.2 5.9 " fill="none" stroke="#E2E2E2" stroke-width="1.00" transform="matrix(1.00, 0.00, 0.00, -1.00, 991.2, 55.2)"></path></g></g><g><clipPath id="clip0x600007ca27c0"><path d="M 1000.0 20.2 L 1022.5 20.2 L 1022.5 50.2 L 1000.0 50.2 Z M 1000.0 20.2 "></path></clipPath><g clip-path="url(#clip0x600007ca27c0)"></g></g><text xml:space="preserve" font-family="Helvetica,Helvetica" font-size="24.0" fill="#E2E2E2" transform="matrix(1.00, 0.00, -0.00, -1.00, 1852.6, 25.8)">9</text><text xml:space="preserve" font-family="Helvetica,Helvetica" font-size="24.0" fill="#E2E2E2" transform="matrix(1.00, 0.00, -0.00, -1.00, 1865.9, 25.8)">0</text></g></svg>