<?xml version="1.0" encoding="UTF-8" standalone="no"?><svg xmlns="http://www.w3.org/2000/svg" xmlns:xlink="http://www.w3.org/1999/xlink" clip-rule="evenodd" stroke-miterlimit="10" viewBox="0 0 685 106"><desc>SVG generated by Keynote</desc><defs></defs><g transform="matrix(1.00, 0.00, -0.00, -1.00, 0.0, 106.0)"><path d="M 12.4 90.3 L 14.0 90.3 L 172.4 90.3 L 172.4 0.0 L 668.1 2.3 L 670.4 2.3 " fill="none" stroke="#54C6E1" stroke-width="4.00" transform="matrix(1.00, 0.00, 0.00, -1.00, 1.6, 99.3)"></path><path d="M 677.0 104.0 C 680.9 104.0 684.0 100.8 684.0 97.0 C 684.0 93.1 680.8 90.0 677.0 90.0 C 673.1 90.0 670.0 93.1 670.0 97.0 C 670.0 100.9 673.2 104.0 677.0 104.0 Z M 677.0 104.0 " fill="#54C6E1"></path><path d="M 9.0 2.0 C 5.1 2.0 2.0 5.1 2.0 9.0 C 2.0 12.9 5.1 16.0 9.0 16.0 C 12.9 16.0 16.0 12.9 16.0 9.0 C 16.0 5.1 12.9 2.0 9.0 2.0 Z M 9.0 2.0 " fill="#54C6E1"></path></g></svg>