<?xml version="1.0" encoding="UTF-8" standalone="no"?><svg xmlns="http://www.w3.org/2000/svg" xmlns:xlink="http://www.w3.org/1999/xlink" clip-rule="evenodd" stroke-miterlimit="10" viewBox="0 0 1047 159"><desc>SVG generated by Keynote</desc><defs></defs><g transform="matrix(1.00, 0.00, -0.00, -1.00, 0.0, 159.0)"><path d="M 0.3 135.1 L 0.3 133.6 L 0.3 1.7 L 1022.4 0.1 L 1024.3 0.1 " fill="none" stroke="#62D7AD" stroke-width="4.00" transform="matrix(1.00, 0.00, 0.00, -1.00, 8.7, 150.1)"></path><path d="M 1038.0 157.0 C 1041.9 157.0 1045.0 153.9 1045.0 150.0 C 1045.0 146.2 1041.9 143.0 1038.0 143.0 C 1034.1 143.0 1031.0 146.1 1031.0 150.0 C 1031.0 153.9 1034.1 157.0 1038.0 157.0 Z M 1038.0 157.0 " fill="#62D7AD"></path><path d="M 16.0 10.0 C 16.0 6.1 12.9 3.0 9.0 3.0 C 5.1 3.0 2.0 6.1 2.0 10.0 C 2.0 13.9 5.1 17.0 9.0 17.0 C 12.9 17.0 16.0 13.9 16.0 10.0 Z M 16.0 10.0 " fill="#62D7AD"></path></g></svg>