<?xml version="1.0" encoding="UTF-8" standalone="no"?><svg xmlns="http://www.w3.org/2000/svg" xmlns:xlink="http://www.w3.org/1999/xlink" clip-rule="evenodd" stroke-miterlimit="10" viewBox="0 0 511 102"><desc>SVG generated by Keynote</desc><defs></defs><g transform="matrix(1.00, 0.00, -0.00, -1.00, 0.0, 102.0)"><g><clipPath id="clip0x6180072a87c0"><path d="M 121.5 61.1 L 327.9 61.1 L 327.9 102.1 L 121.5 102.1 Z M 121.5 61.1 "></path></clipPath><g clip-path="url(#clip0x6180072a87c0)"><text xml:space="preserve" font-family="Helvetica,Helvetica" font-size="24.0" fill="#E2E2E2" transform="matrix(1.00, 0.00, -0.00, -1.00, 127.5, 72.6)">P</text><text xml:space="preserve" font-family="Helvetica,Helvetica" font-size="24.0" fill="#E2E2E2" transform="matrix(1.00, 0.00, -0.00, -1.00, 143.5, 72.6)">o</text><text xml:space="preserve" font-family="Helvetica,Helvetica" font-size="24.0" fill="#E2E2E2" transform="matrix(1.00, 0.00, -0.00, -1.00, 156.9, 72.6)">w</text><text xml:space="preserve" font-family="Helvetica,Helvetica" font-size="24.0" fill="#E2E2E2" transform="matrix(1.00, 0.00, -0.00, -1.00, 174.2, 72.6)">e</text><text xml:space="preserve" font-family="Helvetica,Helvetica" font-size="24.0" fill="#E2E2E2" transform="matrix(1.00, 0.00, -0.00, -1.00, 187.5, 72.6)">r</text><text xml:space="preserve" font-family="Helvetica,Helvetica" font-size="24.0" fill="#E2E2E2" transform="matrix(1.00, 0.00, -0.00, -1.00, 195.5, 72.6)">f</text><text xml:space="preserve" font-family="Helvetica,Helvetica" font-size="24.0" fill="#E2E2E2" transform="matrix(1.00, 0.00, -0.00, -1.00, 202.2, 72.6)">u</text><text xml:space="preserve" font-family="Helvetica,Helvetica" font-size="24.0" fill="#E2E2E2" transform="matrix(1.00, 0.00, -0.00, -1.00, 215.5, 72.6)">l</text><text xml:space="preserve" font-family="Helvetica,Helvetica" font-size="24.0" fill="#E2E2E2" transform="matrix(1.00, 0.00, -0.00, -1.00, 220.9, 72.6)"> </text><text xml:space="preserve" font-family="Helvetica,Helvetica" font-size="24.0" fill="#E2E2E2" transform="matrix(1.00, 0.00, -0.00, -1.00, 227.5, 72.6)">B</text><text xml:space="preserve" font-family="Helvetica,Helvetica" font-size="24.0" fill="#E2E2E2" transform="matrix(1.00, 0.00, -0.00, -1.00, 243.6, 72.6)">a</text><text xml:space="preserve" font-family="Helvetica,Helvetica" font-size="24.0" fill="#E2E2E2" transform="matrix(1.00, 0.00, -0.00, -1.00, 256.9, 72.6)">c</text><text xml:space="preserve" font-family="Helvetica,Helvetica" font-size="24.0" fill="#E2E2E2" transform="matrix(1.00, 0.00, -0.00, -1.00, 268.9, 72.6)">k</text><text xml:space="preserve" font-family="Helvetica,Helvetica" font-size="24.0" fill="#E2E2E2" transform="matrix(1.00, 0.00, -0.00, -1.00, 280.9, 72.6)">e</text><text xml:space="preserve" font-family="Helvetica,Helvetica" font-size="24.0" fill="#E2E2E2" transform="matrix(1.00, 0.00, -0.00, -1.00, 294.3, 72.6)">n</text><text xml:space="preserve" font-family="Helvetica,Helvetica" font-size="24.0" fill="#E2E2E2" transform="matrix(1.00, 0.00, -0.00, -1.00, 307.6, 72.6)">d</text></g></g><g><clipPath id="clip0x6180072a9420"><path d="M 120.9 0.2 L 510.2 0.2 L 510.2 58.2 L 120.9 58.2 Z M 120.9 0.2 "></path></clipPath><g clip-path="url(#clip0x6180072a9420)"><text xml:space="preserve" font-family="Helvetica,Helvetica" font-size="20.0" fill="#E2E2E2" transform="matrix(1.00, 0.00, -0.00, -1.00, 125.9, 33.8)">L</text><text xml:space="preserve" font-family="Helvetica,Helvetica" font-size="20.0" fill="#E2E2E2" transform="matrix(1.00, 0.00, -0.00, -1.00, 137.0, 33.8)">o</text><text xml:space="preserve" font-family="Helvetica,Helvetica" font-size="20.0" fill="#E2E2E2" transform="matrix(1.00, 0.00, -0.00, -1.00, 148.2, 33.8)">r</text><text xml:space="preserve" font-family="Helvetica,Helvetica" font-size="20.0" fill="#E2E2E2" transform="matrix(1.00, 0.00, -0.00, -1.00, 154.8, 33.8)">e</text><text xml:space="preserve" font-family="Helvetica,Helvetica" font-size="20.0" fill="#E2E2E2" transform="matrix(1.00, 0.00, -0.00, -1.00, 166.0, 33.8)">m</text><text xml:space="preserve" font-family="Helvetica,Helvetica" font-size="20.0" fill="#E2E2E2" transform="matrix(1.00, 0.00, -0.00, -1.00, 182.6, 33.8)"> </text><text xml:space="preserve" font-family="Helvetica,Helvetica" font-size="20.0" fill="#E2E2E2" transform="matrix(1.00, 0.00, -0.00, -1.00, 188.2, 33.8)">i</text><text xml:space="preserve" font-family="Helvetica,Helvetica" font-size="20.0" fill="#E2E2E2" transform="matrix(1.00, 0.00, -0.00, -1.00, 192.6, 33.8)">p</text><text xml:space="preserve" font-family="Helvetica,Helvetica" font-size="20.0" fill="#E2E2E2" transform="matrix(1.00, 0.00, -0.00, -1.00, 203.7, 33.8)">s</text><text xml:space="preserve" font-family="Helvetica,Helvetica" font-size="20.0" fill="#E2E2E2" transform="matrix(1.00, 0.00, -0.00, -1.00, 213.7, 33.8)">u</text><text xml:space="preserve" font-family="Helvetica,Helvetica" font-size="20.0" fill="#E2E2E2" transform="matrix(1.00, 0.00, -0.00, -1.00, 224.9, 33.8)">m</text><text xml:space="preserve" font-family="Helvetica,Helvetica" font-size="20.0" fill="#E2E2E2" transform="matrix(1.00, 0.00, -0.00, -1.00, 241.5, 33.8)"> </text><text xml:space="preserve" font-family="Helvetica,Helvetica" font-size="20.0" fill="#E2E2E2" transform="matrix(1.00, 0.00, -0.00, -1.00, 247.1, 33.8)">d</text><text xml:space="preserve" font-family="Helvetica,Helvetica" font-size="20.0" fill="#E2E2E2" transform="matrix(1.00, 0.00, -0.00, -1.00, 258.2, 33.8)">o</text><text xml:space="preserve" font-family="Helvetica,Helvetica" font-size="20.0" fill="#E2E2E2" transform="matrix(1.00, 0.00, -0.00, -1.00, 269.3, 33.8)">l</text><text xml:space="preserve" font-family="Helvetica,Helvetica" font-size="20.0" fill="#E2E2E2" transform="matrix(1.00, 0.00, -0.00, -1.00, 273.8, 33.8)">o</text><text xml:space="preserve" font-family="Helvetica,Helvetica" font-size="20.0" fill="#E2E2E2" transform="matrix(1.00, 0.00, -0.00, -1.00, 284.9, 33.8)">r</text><text xml:space="preserve" font-family="Helvetica,Helvetica" font-size="20.0" fill="#E2E2E2" transform="matrix(1.00, 0.00, -0.00, -1.00, 291.6, 33.8)"> </text><text xml:space="preserve" font-family="Helvetica,Helvetica" font-size="20.0" fill="#E2E2E2" transform="matrix(1.00, 0.00, -0.00, -1.00, 297.1, 33.8)">s</text><text xml:space="preserve" font-family="Helvetica,Helvetica" font-size="20.0" fill="#E2E2E2" transform="matrix(1.00, 0.00, -0.00, -1.00, 307.1, 33.8)">i</text><text xml:space="preserve" font-family="Helvetica,Helvetica" font-size="20.0" fill="#E2E2E2" transform="matrix(1.00, 0.00, -0.00, -1.00, 311.6, 33.8)">t</text><text xml:space="preserve" font-family="Helvetica,Helvetica" font-size="20.0" fill="#E2E2E2" transform="matrix(1.00, 0.00, -0.00, -1.00, 317.1, 33.8)"> </text><text xml:space="preserve" font-family="Helvetica,Helvetica" font-size="20.0" fill="#E2E2E2" transform="matrix(1.00, 0.00, -0.00, -1.00, 322.7, 33.8)">a</text><text xml:space="preserve" font-family="Helvetica,Helvetica" font-size="20.0" fill="#E2E2E2" transform="matrix(1.00, 0.00, -0.00, -1.00, 333.8, 33.8)">m</text><text xml:space="preserve" font-family="Helvetica,Helvetica" font-size="20.0" fill="#E2E2E2" transform="matrix(1.00, 0.00, -0.00, -1.00, 350.5, 33.8)">e</text><text xml:space="preserve" font-family="Helvetica,Helvetica" font-size="20.0" fill="#E2E2E2" transform="matrix(1.00, 0.00, -0.00, -1.00, 361.6, 33.8)">t</text><text xml:space="preserve" font-family="Helvetica,Helvetica" font-size="20.0" fill="#E2E2E2" transform="matrix(1.00, 0.00, -0.00, -1.00, 367.2, 33.8)">,</text><text xml:space="preserve" font-family="Helvetica,Helvetica" font-size="20.0" fill="#E2E2E2" transform="matrix(1.00, 0.00, -0.00, -1.00, 372.7, 33.8)"> </text><text xml:space="preserve" font-family="Helvetica,Helvetica" font-size="20.0" fill="#E2E2E2" transform="matrix(1.00, 0.00, -0.00, -1.00, 378.3, 33.8)">c</text><text xml:space="preserve" font-family="Helvetica,Helvetica" font-size="20.0" fill="#E2E2E2" transform="matrix(1.00, 0.00, -0.00, -1.00, 388.3, 33.8)">o</text><text xml:space="preserve" font-family="Helvetica,Helvetica" font-size="20.0" fill="#E2E2E2" transform="matrix(1.00, 0.00, -0.00, -1.00, 399.4, 33.8)">n</text><text xml:space="preserve" font-family="Helvetica,Helvetica" font-size="20.0" fill="#E2E2E2" transform="matrix(1.00, 0.00, -0.00, -1.00, 410.5, 33.8)">s</text><text xml:space="preserve" font-family="Helvetica,Helvetica" font-size="20.0" fill="#E2E2E2" transform="matrix(1.00, 0.00, -0.00, -1.00, 420.5, 33.8)">e</text><text xml:space="preserve" font-family="Helvetica,Helvetica" font-size="20.0" fill="#E2E2E2" transform="matrix(1.00, 0.00, -0.00, -1.00, 431.6, 33.8)">c</text><text xml:space="preserve" font-family="Helvetica,Helvetica" font-size="20.0" fill="#E2E2E2" transform="matrix(1.00, 0.00, -0.00, -1.00, 441.6, 33.8)">t</text><text xml:space="preserve" font-family="Helvetica,Helvetica" font-size="20.0" fill="#E2E2E2" transform="matrix(1.00, 0.00, -0.00, -1.00, 447.2, 33.8)">e</text><text xml:space="preserve" font-family="Helvetica,Helvetica" font-size="20.0" fill="#E2E2E2" transform="matrix(1.00, 0.00, -0.00, -1.00, 458.3, 33.8)">t</text><text xml:space="preserve" font-family="Helvetica,Helvetica" font-size="20.0" fill="#E2E2E2" transform="matrix(1.00, 0.00, -0.00, -1.00, 463.9, 33.8)">u</text><text xml:space="preserve" font-family="Helvetica,Helvetica" font-size="20.0" fill="#E2E2E2" transform="matrix(1.00, 0.00, -0.00, -1.00, 475.0, 33.8)">e</text><text xml:space="preserve" font-family="Helvetica,Helvetica" font-size="20.0" fill="#E2E2E2" transform="matrix(1.00, 0.00, -0.00, -1.00, 486.1, 33.8)">r</text><text xml:space="preserve" font-family="Helvetica,Helvetica" font-size="20.0" fill="#E2E2E2" transform="matrix(1.00, 0.00, -0.00, -1.00, 492.8, 33.8)"> </text><text xml:space="preserve" font-family="Helvetica,Helvetica" font-size="20.0" fill="#E2E2E2" transform="matrix(1.00, 0.00, -0.00, -1.00, 125.9, 9.8)">a</text><text xml:space="preserve" font-family="Helvetica,Helvetica" font-size="20.0" fill="#E2E2E2" transform="matrix(1.00, 0.00, -0.00, -1.00, 137.0, 9.8)">d</text><text xml:space="preserve" font-family="Helvetica,Helvetica" font-size="20.0" fill="#E2E2E2" transform="matrix(1.00, 0.00, -0.00, -1.00, 148.2, 9.8)">i</text><text xml:space="preserve" font-family="Helvetica,Helvetica" font-size="20.0" fill="#E2E2E2" transform="matrix(1.00, 0.00, -0.00, -1.00, 152.6, 9.8)">p</text><text xml:space="preserve" font-family="Helvetica,Helvetica" font-size="20.0" fill="#E2E2E2" transform="matrix(1.00, 0.00, -0.00, -1.00, 163.7, 9.8)">i</text><text xml:space="preserve" font-family="Helvetica,Helvetica" font-size="20.0" fill="#E2E2E2" transform="matrix(1.00, 0.00, -0.00, -1.00, 168.2, 9.8)">s</text><text xml:space="preserve" font-family="Helvetica,Helvetica" font-size="20.0" fill="#E2E2E2" transform="matrix(1.00, 0.00, -0.00, -1.00, 178.2, 9.8)">c</text><text xml:space="preserve" font-family="Helvetica,Helvetica" font-size="20.0" fill="#E2E2E2" transform="matrix(1.00, 0.00, -0.00, -1.00, 188.2, 9.8)">i</text><text xml:space="preserve" font-family="Helvetica,Helvetica" font-size="20.0" fill="#E2E2E2" transform="matrix(1.00, 0.00, -0.00, -1.00, 192.6, 9.8)">n</text><text xml:space="preserve" font-family="Helvetica,Helvetica" font-size="20.0" fill="#E2E2E2" transform="matrix(1.00, 0.00, -0.00, -1.00, 203.8, 9.8)">g</text><text xml:space="preserve" font-family="Helvetica,Helvetica" font-size="20.0" fill="#E2E2E2" transform="matrix(1.00, 0.00, -0.00, -1.00, 214.9, 9.8)"> </text><text xml:space="preserve" font-family="Helvetica,Helvetica" font-size="20.0" fill="#E2E2E2" transform="matrix(1.00, 0.00, -0.00, -1.00, 220.5, 9.8)">e</text><text xml:space="preserve" font-family="Helvetica,Helvetica" font-size="20.0" fill="#E2E2E2" transform="matrix(1.00, 0.00, -0.00, -1.00, 231.6, 9.8)">l</text><text xml:space="preserve" font-family="Helvetica,Helvetica" font-size="20.0" fill="#E2E2E2" transform="matrix(1.00, 0.00, -0.00, -1.00, 236.0, 9.8)">i</text><text xml:space="preserve" font-family="Helvetica,Helvetica" font-size="20.0" fill="#E2E2E2" transform="matrix(1.00, 0.00, -0.00, -1.00, 240.5, 9.8)">t</text><text xml:space="preserve" font-family="Helvetica,Helvetica" font-size="20.0" fill="#E2E2E2" transform="matrix(1.00, 0.00, -0.00, -1.00, 246.0, 9.8)">,</text><text xml:space="preserve" font-family="Helvetica,Helvetica" font-size="20.0" fill="#E2E2E2" transform="matrix(1.00, 0.00, -0.00, -1.00, 251.6, 9.8)"> </text><text xml:space="preserve" font-family="Helvetica,Helvetica" font-size="20.0" fill="#E2E2E2" transform="matrix(1.00, 0.00, -0.00, -1.00, 257.1, 9.8)">s</text><text xml:space="preserve" font-family="Helvetica,Helvetica" font-size="20.0" fill="#E2E2E2" transform="matrix(1.00, 0.00, -0.00, -1.00, 267.1, 9.8)">e</text><text xml:space="preserve" font-family="Helvetica,Helvetica" font-size="20.0" fill="#E2E2E2" transform="matrix(1.00, 0.00, -0.00, -1.00, 278.3, 9.8)">d</text><text xml:space="preserve" font-family="Helvetica,Helvetica" font-size="20.0" fill="#E2E2E2" transform="matrix(1.00, 0.00, -0.00, -1.00, 289.4, 9.8)"> </text><text xml:space="preserve" font-family="Helvetica,Helvetica" font-size="20.0" fill="#E2E2E2" transform="matrix(1.00, 0.00, -0.00, -1.00, 294.9, 9.8)">d</text><text xml:space="preserve" font-family="Helvetica,Helvetica" font-size="20.0" fill="#E2E2E2" transform="matrix(1.00, 0.00, -0.00, -1.00, 306.1, 9.8)">i</text><text xml:space="preserve" font-family="Helvetica,Helvetica" font-size="20.0" fill="#E2E2E2" transform="matrix(1.00, 0.00, -0.00, -1.00, 310.5, 9.8)">a</text><text xml:space="preserve" font-family="Helvetica,Helvetica" font-size="20.0" fill="#E2E2E2" transform="matrix(1.00, 0.00, -0.00, -1.00, 321.6, 9.8)">m</text><text xml:space="preserve" font-family="Helvetica,Helvetica" font-size="20.0" fill="#E2E2E2" transform="matrix(1.00, 0.00, -0.00, -1.00, 338.3, 9.8)"> </text><text xml:space="preserve" font-family="Helvetica,Helvetica" font-size="20.0" fill="#E2E2E2" transform="matrix(1.00, 0.00, -0.00, -1.00, 343.9, 9.8)">n</text><text xml:space="preserve" font-family="Helvetica,Helvetica" font-size="20.0" fill="#E2E2E2" transform="matrix(1.00, 0.00, -0.00, -1.00, 355.0, 9.8)">o</text><text xml:space="preserve" font-family="Helvetica,Helvetica" font-size="20.0" fill="#E2E2E2" transform="matrix(1.00, 0.00, -0.00, -1.00, 366.1, 9.8)">n</text><text xml:space="preserve" font-family="Helvetica,Helvetica" font-size="20.0" fill="#E2E2E2" transform="matrix(1.00, 0.00, -0.00, -1.00, 377.2, 9.8)">u</text><text xml:space="preserve" font-family="Helvetica,Helvetica" font-size="20.0" fill="#E2E2E2" transform="matrix(1.00, 0.00, -0.00, -1.00, 388.4, 9.8)">m</text><text xml:space="preserve" font-family="Helvetica,Helvetica" font-size="20.0" fill="#E2E2E2" transform="matrix(1.00, 0.00, -0.00, -1.00, 405.0, 9.8)">m</text><text xml:space="preserve" font-family="Helvetica,Helvetica" font-size="20.0" fill="#E2E2E2" transform="matrix(1.00, 0.00, -0.00, -1.00, 421.7, 9.8)">y</text><text xml:space="preserve" font-family="Helvetica,Helvetica" font-size="20.0" fill="#E2E2E2" transform="matrix(1.00, 0.00, -0.00, -1.00, 431.7, 9.8)"> </text><text xml:space="preserve" font-family="Helvetica,Helvetica" font-size="20.0" fill="#E2E2E2" transform="matrix(1.00, 0.00, -0.00, -1.00, 437.2, 9.8)">n</text><text xml:space="preserve" font-family="Helvetica,Helvetica" font-size="20.0" fill="#E2E2E2" transform="matrix(1.00, 0.00, -0.00, -1.00, 448.4, 9.8)">i</text><text xml:space="preserve" font-family="Helvetica,Helvetica" font-size="20.0" fill="#E2E2E2" transform="matrix(1.00, 0.00, -0.00, -1.00, 452.8, 9.8)">b</text><text xml:space="preserve" font-family="Helvetica,Helvetica" font-size="20.0" fill="#E2E2E2" transform="matrix(1.00, 0.00, -0.00, -1.00, 463.9, 9.8)">h</text><text xml:space="preserve" font-family="Helvetica,Helvetica" font-size="20.0" fill="#E2E2E2" transform="matrix(1.00, 0.00, -0.00, -1.00, 475.1, 9.8)">.</text></g></g><g><clipPath id="clip0x6100072bf680"><path d="M 11.7 12.5 L 88.4 12.5 L 88.4 89.2 L 11.7 89.2 Z M 11.7 12.5 "></path></clipPath><g clip-path="url(#clip0x6100072bf680)"><text xml:space="preserve" font-family="Sosa-Regular,Sosa" font-size="50.0" fill="#404756" transform="matrix(1.00, 0.00, -0.00, -1.00, 25.1, 40.3)">D</text></g></g><g><clipPath id="clip0x6100072bf8c0"><path d="M 0.1 0.8 L 100.1 0.8 L 100.1 100.8 L 0.1 100.8 Z M 0.1 0.8 "></path></clipPath><g clip-path="url(#clip0x6100072bf8c0)"><path d="M 79.3 13.6 C 97.5 31.8 97.5 61.2 79.3 79.3 C 61.2 97.5 31.8 97.5 13.6 79.3 C -4.5 61.2 -4.5 31.8 13.6 13.6 C 31.8 -4.5 61.2 -4.5 79.3 13.6 Z M 79.3 13.6 " fill="none" stroke="#404756" stroke-width="5.00" transform="matrix(1.00, 0.00, 0.00, -1.00, 3.6, 97.3)"></path></g></g></g></svg>