<?xml version="1.0" encoding="UTF-8" standalone="no"?><svg xmlns="http://www.w3.org/2000/svg" xmlns:xlink="http://www.w3.org/1999/xlink" clip-rule="evenodd" stroke-miterlimit="10" viewBox="0 0 136 166"><desc>SVG generated by Keynote</desc><defs></defs><g transform="matrix(1.00, 0.00, -0.00, -1.00, 0.0, 166.0)"><g><clipPath id="clip0x608005eb87e0"><path d="M 28.3 35.3 L 107.3 35.3 L 107.3 144.8 L 28.3 144.8 Z M 28.3 35.3 "></path></clipPath><g clip-path="url(#clip0x608005eb87e0)"><path d="M 34.4 86.4 C 19.9 111.8 38.0 143.4 67.2 143.8 C 96.9 144.2 115.9 112.3 101.3 86.4 L 67.9 36.3 L 34.4 86.4 Z M 34.4 86.4 " fill="#42A2B8"></path></g></g><g><clipPath id="clip0x608005eb8b40"><path d="M 0.3 0.4 L 135.3 0.4 L 135.3 165.9 L 0.3 165.9 Z M 0.3 0.4 "></path></clipPath><g clip-path="url(#clip0x608005eb8b40)"><image xlink:href="../../FEB58641-FFD2-4F2A-AAA5-D27F70B7E547/assets/98CC28AA32E08CE2712113644225E813.png" width="133.00" height="164.00" transform="matrix(1.00, 0.00, -0.00, -1.00, 1.3, 164.9)" opacity="0.75"></image><path d="M 34.4 79.5 C 19.9 104.8 38.0 136.5 67.2 136.9 C 96.9 137.3 115.9 105.3 101.3 79.5 L 67.9 29.4 L 34.4 79.5 Z M 34.4 79.5 " fill="#54C6E1"></path></g></g><g><clipPath id="clip0x6180064b42e0"><path d="M 1.1 11.3 L 134.6 11.3 L 134.6 168.8 L 1.1 168.8 Z M 1.1 11.3 "></path></clipPath><g clip-path="url(#clip0x6180064b42e0)"><image xlink:href="../../1C573440-36AB-4E0A-9233-52176A10D723/assets/6B172B5D28E30130BF2BD13C27EEAECB.png" width="160.00" height="160.00" transform="matrix(0.50, 0.00, -0.00, -0.50, 27.8, 136.6)"></image><text xml:space="preserve" font-family="AppleColorEmoji,Apple Color Emoji" font-size="80.0" fill="#F6F6F6" transform="matrix(1.00, 0.00, -0.00, -1.00, 27.8, 62.6)">â³</text></g></g></g></svg>