<?xml version="1.0" encoding="UTF-8" standalone="no"?><svg xmlns="http://www.w3.org/2000/svg" xmlns:xlink="http://www.w3.org/1999/xlink" clip-rule="evenodd" stroke-miterlimit="10" viewBox="0 0 136 166"><desc>SVG generated by Keynote</desc><defs></defs><g transform="matrix(1.00, 0.00, -0.00, -1.00, 0.0, 166.0)"><g><clipPath id="clip0x6180064b3500"><path d="M 28.7 35.3 L 107.7 35.3 L 107.7 144.8 L 28.7 144.8 Z M 28.7 35.3 "></path></clipPath><g clip-path="url(#clip0x6180064b3500)"><path d="M 34.8 86.4 C 20.3 111.8 38.4 143.4 67.6 143.8 C 97.3 144.2 116.3 112.3 101.7 86.4 L 68.3 36.3 L 34.8 86.4 Z M 34.8 86.4 " fill="#E1556E"></path></g></g><g><clipPath id="clip0x6180064b37a0"><path d="M 0.7 0.4 L 135.7 0.4 L 135.7 165.9 L 0.7 165.9 Z M 0.7 0.4 "></path></clipPath><g clip-path="url(#clip0x6180064b37a0)"><image xlink:href="98CC28AA32E08CE2712113644225E813.png" width="133.00" height="164.00" transform="matrix(1.00, 0.00, -0.00, -1.00, 1.7, 164.9)" opacity="0.75"></image><path d="M 34.8 79.5 C 20.3 104.8 38.4 136.5 67.6 136.9 C 97.3 137.3 116.3 105.3 101.7 79.5 L 68.3 29.4 L 34.8 79.5 Z M 34.8 79.5 " fill="#FF607B"></path></g></g><g><clipPath id="clip0x6180064b3aa0"><path d="M 8.9 13.8 L 127.5 13.8 L 127.5 149.4 L 8.9 149.4 Z M 8.9 13.8 "></path></clipPath><g clip-path="url(#clip0x6180064b3aa0)"><text xml:space="preserve" font-family="ZapfDingbatsITC,Zapf Dingbats" font-size="80.0" fill="#F6F6F6" transform="matrix(1.00, 0.00, -0.00, -1.00, 29.2, 64.7)">✒</text></g></g></g></svg>