<?xml version="1.0" encoding="UTF-8" standalone="no"?><svg xmlns="http://www.w3.org/2000/svg" xmlns:xlink="http://www.w3.org/1999/xlink" clip-rule="evenodd" stroke-miterlimit="10" viewBox="0 0 136 166"><desc>SVG generated by Keynote</desc><defs></defs><g transform="matrix(1.00, 0.00, -0.00, -1.00, 0.0, 166.0)"><g><clipPath id="clip0x600006ebbf00"><path d="M 28.6 35.3 L 107.7 35.3 L 107.7 144.8 L 28.6 144.8 Z M 28.6 35.3 "></path></clipPath><g clip-path="url(#clip0x600006ebbf00)"><path d="M 34.8 86.4 C 20.2 111.8 38.3 143.4 67.6 143.8 C 97.3 144.2 116.2 112.3 101.7 86.4 L 68.2 36.3 L 34.8 86.4 Z M 34.8 86.4 " fill="#C19E4C"></path></g></g><g><clipPath id="clip0x600006ebc1a0"><path d="M 0.6 0.4 L 135.7 0.4 L 135.7 165.9 L 0.6 165.9 Z M 0.6 0.4 "></path></clipPath><g clip-path="url(#clip0x600006ebc1a0)"><image xlink:href="../../FEB58641-FFD2-4F2A-AAA5-D27F70B7E547/assets/98CC28AA32E08CE2712113644225E813.png" width="133.00" height="164.00" transform="matrix(1.00, 0.00, -0.00, -1.00, 1.6, 164.9)" opacity="0.75"></image><path d="M 34.8 79.5 C 20.2 104.8 38.3 136.5 67.6 136.9 C 97.3 137.3 116.2 105.3 101.7 79.5 L 68.2 29.4 L 34.8 79.5 Z M 34.8 79.5 " fill="#EDC25F"></path></g></g><g><clipPath id="clip0x600006ebc4a0"><path d="M 0.1 16.0 L 136.2 16.0 L 136.2 155.4 L 0.1 155.4 Z M 0.1 16.0 "></path></clipPath><g clip-path="url(#clip0x600006ebc4a0)"><text xml:space="preserve" font-family="LastResort,LastResort" font-size="80.0" fill="#F6F6F6" transform="matrix(1.00, 0.00, -0.00, -1.00, 22.3, 66.4)"></text><text xml:space="preserve" font-family="LastResort,LastResort" font-size="80.0" fill="#F6F6F6" transform="matrix(1.00, 0.00, -0.00, -1.00, 114.1, 66.4)"></text><text xml:space="preserve" font-family="LastResort,LastResort" font-size="80.0" fill="#F6F6F6" transform="matrix(1.00, 0.00, -0.00, -1.00, 205.9, 66.4)"></text><text xml:space="preserve" font-family="LastResort,LastResort" font-size="80.0" fill="#F6F6F6" transform="matrix(1.00, 0.00, -0.00, -1.00, 297.7, 66.4)"></text><text xml:space="preserve" font-family="LastResort,LastResort" font-size="80.0" fill="#F6F6F6" transform="matrix(1.00, 0.00, -0.00, -1.00, 389.5, 66.4)"></text><text xml:space="preserve" font-family="LastResort,LastResort" font-size="80.0" fill="#F6F6F6" transform="matrix(1.00, 0.00, -0.00, -1.00, 481.2, 66.4)"></text><text xml:space="preserve" font-family="LastResort,LastResort" font-size="80.0" fill="#F6F6F6" transform="matrix(1.00, 0.00, -0.00, -1.00, 573.0, 66.4)"></text><text xml:space="preserve" font-family="LastResort,LastResort" font-size="80.0" fill="#F6F6F6" transform="matrix(1.00, 0.00, -0.00, -1.00, 664.8, 66.4)"></text><text xml:space="preserve" font-family="LastResort,LastResort" font-size="80.0" fill="#F6F6F6" transform="matrix(1.00, 0.00, -0.00, -1.00, 756.6, 66.4)"></text><text xml:space="preserve" font-family="LastResort,LastResort" font-size="80.0" fill="#F6F6F6" transform="matrix(1.00, 0.00, -0.00, -1.00, 848.4, 66.4)"></text><text xml:space="preserve" font-family="LastResort,LastResort" font-size="80.0" fill="#F6F6F6" transform="matrix(1.00, 0.00, -0.00, -1.00, 940.2, 66.4)"></text><text xml:space="preserve" font-family="LastResort,LastResort" font-size="80.0" fill="#F6F6F6" transform="matrix(1.00, 0.00, -0.00, -1.00, 1032.0, 66.4)"></text><text xml:space="preserve" font-family="LastResort,LastResort" font-size="80.0" fill="#F6F6F6" transform="matrix(1.00, 0.00, -0.00, -1.00, 1123.8, 66.4)"></text><text xml:space="preserve" font-family="LastResort,LastResort" font-size="80.0" fill="#F6F6F6" transform="matrix(1.00, 0.00, -0.00, -1.00, 1215.6, 66.4)"></text><text xml:space="preserve" font-family="LastResort,LastResort" font-size="80.0" fill="#F6F6F6" transform="matrix(1.00, 0.00, -0.00, -1.00, 1307.4, 66.4)"></text><text xml:space="preserve" font-family="LastResort,LastResort" font-size="80.0" fill="#F6F6F6" transform="matrix(1.00, 0.00, -0.00, -1.00, 1399.2, 66.4)"></text><text xml:space="preserve" font-family="LastResort,LastResort" font-size="80.0" fill="#F6F6F6" transform="matrix(1.00, 0.00, -0.00, -1.00, 1491.0, 66.4)"></text><text xml:space="preserve" font-family="LastResort,LastResort" font-size="80.0" fill="#F6F6F6" transform="matrix(1.00, 0.00, -0.00, -1.00, 1582.8, 66.4)"></text><text xml:space="preserve" font-family="LastResort,LastResort" font-size="80.0" fill="#F6F6F6" transform="matrix(1.00, 0.00, -0.00, -1.00, 1674.6, 66.4)"></text><text xml:space="preserve" font-family="LastResort,LastResort" font-size="80.0" fill="#F6F6F6" transform="matrix(1.00, 0.00, -0.00, -1.00, 1766.4, 66.4)"></text><text xml:space="preserve" font-family="LastResort,LastResort" font-size="80.0" fill="#F6F6F6" transform="matrix(1.00, 0.00, -0.00, -1.00, 1858.2, 66.4)"></text><text xml:space="preserve" font-family="LastResort,LastResort" font-size="80.0" fill="#F6F6F6" transform="matrix(1.00, 0.00, -0.00, -1.00, 1950.0, 66.4)"></text><text xml:space="preserve" font-family="LastResort,LastResort" font-size="80.0" fill="#F6F6F6" transform="matrix(1.00, 0.00, -0.00, -1.00, 2041.8, 66.4)"></text><text xml:space="preserve" font-family="LastResort,LastResort" font-size="80.0" fill="#F6F6F6" transform="matrix(1.00, 0.00, -0.00, -1.00, 2133.6, 66.4)"></text><text xml:space="preserve" font-family="LastResort,LastResort" font-size="80.0" fill="#F6F6F6" transform="matrix(1.00, 0.00, -0.00, -1.00, 2225.4, 66.4)"></text><text xml:space="preserve" font-family="LastResort,LastResort" font-size="80.0" fill="#F6F6F6" transform="matrix(1.00, 0.00, -0.00, -1.00, 2317.2, 66.4)"></text><text xml:space="preserve" font-family="LastResort,LastResort" font-size="80.0" fill="#F6F6F6" transform="matrix(1.00, 0.00, -0.00, -1.00, 2409.0, 66.4)"></text><text xml:space="preserve" font-family="LastResort,LastResort" font-size="80.0" fill="#F6F6F6" transform="matrix(1.00, 0.00, -0.00, -1.00, 2500.8, 66.4)"></text><text xml:space="preserve" font-family="LastResort,LastResort" font-size="80.0" fill="#F6F6F6" transform="matrix(1.00, 0.00, -0.00, -1.00, 2592.6, 66.4)"></text><text xml:space="preserve" font-family="LastResort,LastResort" font-size="80.0" fill="#F6F6F6" transform="matrix(1.00, 0.00, -0.00, -1.00, 2684.4, 66.4)"></text><text xml:space="preserve" font-family="LastResort,LastResort" font-size="80.0" fill="#F6F6F6" transform="matrix(1.00, 0.00, -0.00, -1.00, 2776.2, 66.4)"></text><text xml:space="preserve" font-family="LastResort,LastResort" font-size="80.0" fill="#F6F6F6" transform="matrix(1.00, 0.00, -0.00, -1.00, 2868.0, 66.4)"></text><text xml:space="preserve" font-family="LastResort,LastResort" font-size="80.0" fill="#F6F6F6" transform="matrix(1.00, 0.00, -0.00, -1.00, 2959.8, 66.4)"></text><text xml:space="preserve" font-family="LastResort,LastResort" font-size="80.0" fill="#F6F6F6" transform="matrix(1.00, 0.00, -0.00, -1.00, 3051.6, 66.4)"></text><text xml:space="preserve" font-family="LastResort,LastResort" font-size="80.0" fill="#F6F6F6" transform="matrix(1.00, 0.00, -0.00, -1.00, 3143.4, 66.4)"></text><text xml:space="preserve" font-family="LastResort,LastResort" font-size="80.0" fill="#F6F6F6" transform="matrix(1.00, 0.00, -0.00, -1.00, 3235.2, 66.4)"></text><text xml:space="preserve" font-family="LastResort,LastResort" font-size="80.0" fill="#F6F6F6" transform="matrix(1.00, 0.00, -0.00, -1.00, 3327.0, 66.4)"></text><text xml:space="preserve" font-family="LastResort,LastResort" font-size="80.0" fill="#F6F6F6" transform="matrix(1.00, 0.00, -0.00, -1.00, 3418.7, 66.4)"></text><text xml:space="preserve" font-family="LastResort,LastResort" font-size="80.0" fill="#F6F6F6" transform="matrix(1.00, 0.00, -0.00, -1.00, 3510.5, 66.4)"></text><text xml:space="preserve" font-family="LastResort,LastResort" font-size="80.0" fill="#F6F6F6" transform="matrix(1.00, 0.00, -0.00, -1.00, 3602.3, 66.4)"></text><text xml:space="preserve" font-family="LastResort,LastResort" font-size="80.0" fill="#F6F6F6" transform="matrix(1.00, 0.00, -0.00, -1.00, 3694.1, 66.4)"></text><text xml:space="preserve" font-family="LastResort,LastResort" font-size="80.0" fill="#F6F6F6" transform="matrix(1.00, 0.00, -0.00, -1.00, 3785.9, 66.4)"></text><text xml:space="preserve" font-family="LastResort,LastResort" font-size="80.0" fill="#F6F6F6" transform="matrix(1.00, 0.00, -0.00, -1.00, 3877.7, 66.4)"></text><text xml:space="preserve" font-family="LastResort,LastResort" font-size="80.0" fill="#F6F6F6" transform="matrix(1.00, 0.00, -0.00, -1.00, 3969.5, 66.4)"></text><text xml:space="preserve" font-family="LastResort,LastResort" font-size="80.0" fill="#F6F6F6" transform="matrix(1.00, 0.00, -0.00, -1.00, 4061.3, 66.4)"></text><text xml:space="preserve" font-family="LastResort,LastResort" font-size="80.0" fill="#F6F6F6" transform="matrix(1.00, 0.00, -0.00, -1.00, 4153.1, 66.4)"></text><text xml:space="preserve" font-family="LastResort,LastResort" font-size="80.0" fill="#F6F6F6" transform="matrix(1.00, 0.00, -0.00, -1.00, 4244.9, 66.4)"></text><text xml:space="preserve" font-family="LastResort,LastResort" font-size="80.0" fill="#F6F6F6" transform="matrix(1.00, 0.00, -0.00, -1.00, 4336.7, 66.4)"></text><text xml:space="preserve" font-family="LastResort,LastResort" font-size="80.0" fill="#F6F6F6" transform="matrix(1.00, 0.00, -0.00, -1.00, 4428.5, 66.4)"></text><text xml:space="preserve" font-family="LastResort,LastResort" font-size="80.0" fill="#F6F6F6" transform="matrix(1.00, 0.00, -0.00, -1.00, 4520.3, 66.4)"></text><text xml:space="preserve" font-family="LastResort,LastResort" font-size="80.0" fill="#F6F6F6" transform="matrix(1.00, 0.00, -0.00, -1.00, 4612.1, 66.4)"></text><text xml:space="preserve" font-family="LastResort,LastResort" font-size="80.0" fill="#F6F6F6" transform="matrix(1.00, 0.00, -0.00, -1.00, 4703.9, 66.4)"></text><text xml:space="preserve" font-family="LastResort,LastResort" font-size="80.0" fill="#F6F6F6" transform="matrix(1.00, 0.00, -0.00, -1.00, 4795.7, 66.4)"></text><text xml:space="preserve" font-family="LastResort,LastResort" font-size="80.0" fill="#F6F6F6" transform="matrix(1.00, 0.00, -0.00, -1.00, 4887.5, 66.4)"></text><text xml:space="preserve" font-family="LastResort,LastResort" font-size="80.0" fill="#F6F6F6" transform="matrix(1.00, 0.00, -0.00, -1.00, 4979.3, 66.4)"></text><text xml:space="preserve" font-family="LastResort,LastResort" font-size="80.0" fill="#F6F6F6" transform="matrix(1.00, 0.00, -0.00, -1.00, 5071.1, 66.4)"></text><text xml:space="preserve" font-family="LastResort,LastResort" font-size="80.0" fill="#F6F6F6" transform="matrix(1.00, 0.00, -0.00, -1.00, 5162.9, 66.4)"></text><text xml:space="preserve" font-family="LastResort,LastResort" font-size="80.0" fill="#F6F6F6" transform="matrix(1.00, 0.00, -0.00, -1.00, 5254.7, 66.4)"></text><text xml:space="preserve" font-family="LastResort,LastResort" font-size="80.0" fill="#F6F6F6" transform="matrix(1.00, 0.00, -0.00, -1.00, 5346.5, 66.4)"></text><text xml:space="preserve" font-family="LastResort,LastResort" font-size="80.0" fill="#F6F6F6" transform="matrix(1.00, 0.00, -0.00, -1.00, 5438.3, 66.4)"></text><text xml:space="preserve" font-family="LastResort,LastResort" font-size="80.0" fill="#F6F6F6" transform="matrix(1.00, 0.00, -0.00, -1.00, 5530.1, 66.4)"></text><text xml:space="preserve" font-family="LastResort,LastResort" font-size="80.0" fill="#F6F6F6" transform="matrix(1.00, 0.00, -0.00, -1.00, 5621.9, 66.4)"></text><text xml:space="preserve" font-family="LastResort,LastResort" font-size="80.0" fill="#F6F6F6" transform="matrix(1.00, 0.00, -0.00, -1.00, 5713.7, 66.4)"></text><text xml:space="preserve" font-family="LastResort,LastResort" font-size="80.0" fill="#F6F6F6" transform="matrix(1.00, 0.00, -0.00, -1.00, 5805.5, 66.4)"></text><text xml:space="preserve" font-family="LastResort,LastResort" font-size="80.0" fill="#F6F6F6" transform="matrix(1.00, 0.00, -0.00, -1.00, 5897.3, 66.4)"></text><text xml:space="preserve" font-family="LastResort,LastResort" font-size="80.0" fill="#F6F6F6" transform="matrix(1.00, 0.00, -0.00, -1.00, 5989.1, 66.4)"></text><text xml:space="preserve" font-family="LastResort,LastResort" font-size="80.0" fill="#F6F6F6" transform="matrix(1.00, 0.00, -0.00, -1.00, 6080.9, 66.4)"></text><text xml:space="preserve" font-family="LastResort,LastResort" font-size="80.0" fill="#F6F6F6" transform="matrix(1.00, 0.00, -0.00, -1.00, 6172.7, 66.4)"></text><text xml:space="preserve" font-family="LastResort,LastResort" font-size="80.0" fill="#F6F6F6" transform="matrix(1.00, 0.00, -0.00, -1.00, 6264.5, 66.4)"></text><text xml:space="preserve" font-family="LastResort,LastResort" font-size="80.0" fill="#F6F6F6" transform="matrix(1.00, 0.00, -0.00, -1.00, 6356.2, 66.4)"></text><text xml:space="preserve" font-family="LastResort,LastResort" font-size="80.0" fill="#F6F6F6" transform="matrix(1.00, 0.00, -0.00, -1.00, 6448.0, 66.4)"></text><text xml:space="preserve" font-family="LastResort,LastResort" font-size="80.0" fill="#F6F6F6" transform="matrix(1.00, 0.00, -0.00, -1.00, 6539.8, 66.4)"></text><text xml:space="preserve" font-family="LastResort,LastResort" font-size="80.0" fill="#F6F6F6" transform="matrix(1.00, 0.00, -0.00, -1.00, 6631.6, 66.4)"></text><text xml:space="preserve" font-family="LastResort,LastResort" font-size="80.0" fill="#F6F6F6" transform="matrix(1.00, 0.00, -0.00, -1.00, 6723.4, 66.4)"></text><text xml:space="preserve" font-family="LastResort,LastResort" font-size="80.0" fill="#F6F6F6" transform="matrix(1.00, 0.00, -0.00, -1.00, 6815.2, 66.4)"></text><text xml:space="preserve" font-family="LastResort,LastResort" font-size="80.0" fill="#F6F6F6" transform="matrix(1.00, 0.00, -0.00, -1.00, 6907.0, 66.4)"></text><text xml:space="preserve" font-family="LastResort,LastResort" font-size="80.0" fill="#F6F6F6" transform="matrix(1.00, 0.00, -0.00, -1.00, 6998.8, 66.4)"></text><text xml:space="preserve" font-family="LastResort,LastResort" font-size="80.0" fill="#F6F6F6" transform="matrix(1.00, 0.00, -0.00, -1.00, 7090.6, 66.4)"></text><text xml:space="preserve" font-family="LastResort,LastResort" font-size="80.0" fill="#F6F6F6" transform="matrix(1.00, 0.00, -0.00, -1.00, 7182.4, 66.4)"></text><text xml:space="preserve" font-family="LastResort,LastResort" font-size="80.0" fill="#F6F6F6" transform="matrix(1.00, 0.00, -0.00, -1.00, 7274.2, 66.4)"></text><text xml:space="preserve" font-family="LastResort,LastResort" font-size="80.0" fill="#F6F6F6" transform="matrix(1.00, 0.00, -0.00, -1.00, 7366.0, 66.4)"></text><text xml:space="preserve" font-family="LastResort,LastResort" font-size="80.0" fill="#F6F6F6" transform="matrix(1.00, 0.00, -0.00, -1.00, 7457.8, 66.4)"></text><text xml:space="preserve" font-family="LastResort,LastResort" font-size="80.0" fill="#F6F6F6" transform="matrix(1.00, 0.00, -0.00, -1.00, 7549.6, 66.4)"></text><text xml:space="preserve" font-family="LastResort,LastResort" font-size="80.0" fill="#F6F6F6" transform="matrix(1.00, 0.00, -0.00, -1.00, 7641.4, 66.4)"></text><text xml:space="preserve" font-family="LastResort,LastResort" font-size="80.0" fill="#F6F6F6" transform="matrix(1.00, 0.00, -0.00, -1.00, 7733.2, 66.4)"></text><text xml:space="preserve" font-family="LastResort,LastResort" font-size="80.0" fill="#F6F6F6" transform="matrix(1.00, 0.00, -0.00, -1.00, 7825.0, 66.4)"></text><text xml:space="preserve" font-family="LastResort,LastResort" font-size="80.0" fill="#F6F6F6" transform="matrix(1.00, 0.00, -0.00, -1.00, 7916.8, 66.4)"></text><text xml:space="preserve" font-family="LastResort,LastResort" font-size="80.0" fill="#F6F6F6" transform="matrix(1.00, 0.00, -0.00, -1.00, 8008.6, 66.4)"></text><text xml:space="preserve" font-family="LastResort,LastResort" font-size="80.0" fill="#F6F6F6" transform="matrix(1.00, 0.00, -0.00, -1.00, 8100.4, 66.4)"></text><text xml:space="preserve" font-family="LastResort,LastResort" font-size="80.0" fill="#F6F6F6" transform="matrix(1.00, 0.00, -0.00, -1.00, 8192.2, 66.4)"></text><text xml:space="preserve" font-family="LastResort,LastResort" font-size="80.0" fill="#F6F6F6" transform="matrix(1.00, 0.00, -0.00, -1.00, 8284.0, 66.4)"></text><text xml:space="preserve" font-family="LastResort,LastResort" font-size="80.0" fill="#F6F6F6" transform="matrix(1.00, 0.00, -0.00, -1.00, 8375.8, 66.4)"></text><text xml:space="preserve" font-family="LastResort,LastResort" font-size="80.0" fill="#F6F6F6" transform="matrix(1.00, 0.00, -0.00, -1.00, 8467.6, 66.4)"></text><text xml:space="preserve" font-family="LastResort,LastResort" font-size="80.0" fill="#F6F6F6" transform="matrix(1.00, 0.00, -0.00, -1.00, 8559.4, 66.4)"></text><text xml:space="preserve" font-family="LastResort,LastResort" font-size="80.0" fill="#F6F6F6" transform="matrix(1.00, 0.00, -0.00, -1.00, 8651.2, 66.4)"></text><text xml:space="preserve" font-family="LastResort,LastResort" font-size="80.0" fill="#F6F6F6" transform="matrix(1.00, 0.00, -0.00, -1.00, 8743.0, 66.4)"></text><text xml:space="preserve" font-family="LastResort,LastResort" font-size="80.0" fill="#F6F6F6" transform="matrix(1.00, 0.00, -0.00, -1.00, 8834.8, 66.4)"></text><text xml:space="preserve" font-family="LastResort,LastResort" font-size="80.0" fill="#F6F6F6" transform="matrix(1.00, 0.00, -0.00, -1.00, 8926.6, 66.4)"></text><text xml:space="preserve" font-family="LastResort,LastResort" font-size="80.0" fill="#F6F6F6" transform="matrix(1.00, 0.00, -0.00, -1.00, 9018.4, 66.4)"></text><text xml:space="preserve" font-family="LastResort,LastResort" font-size="80.0" fill="#F6F6F6" transform="matrix(1.00, 0.00, -0.00, -1.00, 9110.2, 66.4)"></text><text xml:space="preserve" font-family="LastResort,LastResort" font-size="80.0" fill="#F6F6F6" transform="matrix(1.00, 0.00, -0.00, -1.00, 9202.0, 66.4)"></text><text xml:space="preserve" font-family="LastResort,LastResort" font-size="80.0" fill="#F6F6F6" transform="matrix(1.00, 0.00, -0.00, -1.00, 9293.7, 66.4)"></text><text xml:space="preserve" font-family="LastResort,LastResort" font-size="80.0" fill="#F6F6F6" transform="matrix(1.00, 0.00, -0.00, -1.00, 9385.5, 66.4)"></text><text xml:space="preserve" font-family="LastResort,LastResort" font-size="80.0" fill="#F6F6F6" transform="matrix(1.00, 0.00, -0.00, -1.00, 9477.3, 66.4)"></text><text xml:space="preserve" font-family="LastResort,LastResort" font-size="80.0" fill="#F6F6F6" transform="matrix(1.00, 0.00, -0.00, -1.00, 9569.1, 66.4)"></text><text xml:space="preserve" font-family="LastResort,LastResort" font-size="80.0" fill="#F6F6F6" transform="matrix(1.00, 0.00, -0.00, -1.00, 9660.9, 66.4)"></text><text xml:space="preserve" font-family="LastResort,LastResort" font-size="80.0" fill="#F6F6F6" transform="matrix(1.00, 0.00, -0.00, -1.00, 9752.7, 66.4)"></text><text xml:space="preserve" font-family="LastResort,LastResort" font-size="80.0" fill="#F6F6F6" transform="matrix(1.00, 0.00, -0.00, -1.00, 9844.5, 66.4)"></text><text xml:space="preserve" font-family="LastResort,LastResort" font-size="80.0" fill="#F6F6F6" transform="matrix(1.00, 0.00, -0.00, -1.00, 9936.3, 66.4)"></text><text xml:space="preserve" font-family="LastResort,LastResort" font-size="80.0" fill="#F6F6F6" transform="matrix(1.00, 0.00, -0.00, -1.00, 10028.1, 66.4)"></text><text xml:space="preserve" font-family="LastResort,LastResort" font-size="80.0" fill="#F6F6F6" transform="matrix(1.00, 0.00, -0.00, -1.00, 10119.9, 66.4)"></text><text xml:space="preserve" font-family="LastResort,LastResort" font-size="80.0" fill="#F6F6F6" transform="matrix(1.00, 0.00, -0.00, -1.00, 10211.7, 66.4)"></text><text xml:space="preserve" font-family="LastResort,LastResort" font-size="80.0" fill="#F6F6F6" transform="matrix(1.00, 0.00, -0.00, -1.00, 10303.5, 66.4)"></text><text xml:space="preserve" font-family="LastResort,LastResort" font-size="80.0" fill="#F6F6F6" transform="matrix(1.00, 0.00, -0.00, -1.00, 10395.3, 66.4)"></text><text xml:space="preserve" font-family="LastResort,LastResort" font-size="80.0" fill="#F6F6F6" transform="matrix(1.00, 0.00, -0.00, -1.00, 10487.1, 66.4)"></text><text xml:space="preserve" font-family="LastResort,LastResort" font-size="80.0" fill="#F6F6F6" transform="matrix(1.00, 0.00, -0.00, -1.00, 10578.9, 66.4)"></text><text xml:space="preserve" font-family="LastResort,LastResort" font-size="80.0" fill="#F6F6F6" transform="matrix(1.00, 0.00, -0.00, -1.00, 10670.7, 66.4)"></text><text xml:space="preserve" font-family="LastResort,LastResort" font-size="80.0" fill="#F6F6F6" transform="matrix(1.00, 0.00, -0.00, -1.00, 10762.5, 66.4)"></text><text xml:space="preserve" font-family="LastResort,LastResort" font-size="80.0" fill="#F6F6F6" transform="matrix(1.00, 0.00, -0.00, -1.00, 10854.3, 66.4)"></text><text xml:space="preserve" font-family="LastResort,LastResort" font-size="80.0" fill="#F6F6F6" transform="matrix(1.00, 0.00, -0.00, -1.00, 10946.1, 66.4)"></text><text xml:space="preserve" font-family="LastResort,LastResort" font-size="80.0" fill="#F6F6F6" transform="matrix(1.00, 0.00, -0.00, -1.00, 11037.9, 66.4)"></text><text xml:space="preserve" font-family="LastResort,LastResort" font-size="80.0" fill="#F6F6F6" transform="matrix(1.00, 0.00, -0.00, -1.00, 11129.7, 66.4)"></text><text xml:space="preserve" font-family="LastResort,LastResort" font-size="80.0" fill="#F6F6F6" transform="matrix(1.00, 0.00, -0.00, -1.00, 11221.5, 66.4)"></text><text xml:space="preserve" font-family="LastResort,LastResort" font-size="80.0" fill="#F6F6F6" transform="matrix(1.00, 0.00, -0.00, -1.00, 11313.3, 66.4)"></text><text xml:space="preserve" font-family="LastResort,LastResort" font-size="80.0" fill="#F6F6F6" transform="matrix(1.00, 0.00, -0.00, -1.00, 11405.1, 66.4)"></text><text xml:space="preserve" font-family="LastResort,LastResort" font-size="80.0" fill="#F6F6F6" transform="matrix(1.00, 0.00, -0.00, -1.00, 11496.9, 66.4)"></text><text xml:space="preserve" font-family="LastResort,LastResort" font-size="80.0" fill="#F6F6F6" transform="matrix(1.00, 0.00, -0.00, -1.00, 11588.7, 66.4)"></text><text xml:space="preserve" font-family="LastResort,LastResort" font-size="80.0" fill="#F6F6F6" transform="matrix(1.00, 0.00, -0.00, -1.00, 11680.5, 66.4)"></text><text xml:space="preserve" font-family="LastResort,LastResort" font-size="80.0" fill="#F6F6F6" transform="matrix(1.00, 0.00, -0.00, -1.00, 11772.3, 66.4)"></text><text xml:space="preserve" font-family="LastResort,LastResort" font-size="80.0" fill="#F6F6F6" transform="matrix(1.00, 0.00, -0.00, -1.00, 11864.1, 66.4)"></text><text xml:space="preserve" font-family="LastResort,LastResort" font-size="80.0" fill="#F6F6F6" transform="matrix(1.00, 0.00, -0.00, -1.00, 11955.9, 66.4)"></text><text xml:space="preserve" font-family="LastResort,LastResort" font-size="80.0" fill="#F6F6F6" transform="matrix(1.00, 0.00, -0.00, -1.00, 12047.7, 66.4)"></text><text xml:space="preserve" font-family="LastResort,LastResort" font-size="80.0" fill="#F6F6F6" transform="matrix(1.00, 0.00, -0.00, -1.00, 12139.5, 66.4)"></text><text xml:space="preserve" font-family="LastResort,LastResort" font-size="80.0" fill="#F6F6F6" transform="matrix(1.00, 0.00, -0.00, -1.00, 12231.2, 66.4)"></text><text xml:space="preserve" font-family="LastResort,LastResort" font-size="80.0" fill="#F6F6F6" transform="matrix(1.00, 0.00, -0.00, -1.00, 12323.0, 66.4)"></text><text xml:space="preserve" font-family="LastResort,LastResort" font-size="80.0" fill="#F6F6F6" transform="matrix(1.00, 0.00, -0.00, -1.00, 12414.8, 66.4)"></text><text xml:space="preserve" font-family="LastResort,LastResort" font-size="80.0" fill="#F6F6F6" transform="matrix(1.00, 0.00, -0.00, -1.00, 12506.6, 66.4)"></text><text xml:space="preserve" font-family="LastResort,LastResort" font-size="80.0" fill="#F6F6F6" transform="matrix(1.00, 0.00, -0.00, -1.00, 12598.4, 66.4)"></text><text xml:space="preserve" font-family="LastResort,LastResort" font-size="80.0" fill="#F6F6F6" transform="matrix(1.00, 0.00, -0.00, -1.00, 12690.2, 66.4)"></text><text xml:space="preserve" font-family="LastResort,LastResort" font-size="80.0" fill="#F6F6F6" transform="matrix(1.00, 0.00, -0.00, -1.00, 12782.0, 66.4)"></text><text xml:space="preserve" font-family="LastResort,LastResort" font-size="80.0" fill="#F6F6F6" transform="matrix(1.00, 0.00, -0.00, -1.00, 12873.8, 66.4)"></text><text xml:space="preserve" font-family="LastResort,LastResort" font-size="80.0" fill="#F6F6F6" transform="matrix(1.00, 0.00, -0.00, -1.00, 12965.6, 66.4)"></text><text xml:space="preserve" font-family="LastResort,LastResort" font-size="80.0" fill="#F6F6F6" transform="matrix(1.00, 0.00, -0.00, -1.00, 13057.4, 66.4)"></text><text xml:space="preserve" font-family="LastResort,LastResort" font-size="80.0" fill="#F6F6F6" transform="matrix(1.00, 0.00, -0.00, -1.00, 13149.2, 66.4)"></text><text xml:space="preserve" font-family="LastResort,LastResort" font-size="80.0" fill="#F6F6F6" transform="matrix(1.00, 0.00, -0.00, -1.00, 13241.0, 66.4)"></text><text xml:space="preserve" font-family="LastResort,LastResort" font-size="80.0" fill="#F6F6F6" transform="matrix(1.00, 0.00, -0.00, -1.00, 13332.8, 66.4)"></text><text xml:space="preserve" font-family="LastResort,LastResort" font-size="80.0" fill="#F6F6F6" transform="matrix(1.00, 0.00, -0.00, -1.00, 13424.6, 66.4)"></text><text xml:space="preserve" font-family="LastResort,LastResort" font-size="80.0" fill="#F6F6F6" transform="matrix(1.00, 0.00, -0.00, -1.00, 13516.4, 66.4)"></text><text xml:space="preserve" font-family="LastResort,LastResort" font-size="80.0" fill="#F6F6F6" transform="matrix(1.00, 0.00, -0.00, -1.00, 13608.2, 66.4)"></text><text xml:space="preserve" font-family="LastResort,LastResort" font-size="80.0" fill="#F6F6F6" transform="matrix(1.00, 0.00, -0.00, -1.00, 13700.0, 66.4)"></text><text xml:space="preserve" font-family="LastResort,LastResort" font-size="80.0" fill="#F6F6F6" transform="matrix(1.00, 0.00, -0.00, -1.00, 13791.8, 66.4)"></text><text xml:space="preserve" font-family="LastResort,LastResort" font-size="80.0" fill="#F6F6F6" transform="matrix(1.00, 0.00, -0.00, -1.00, 13883.6, 66.4)"></text><text xml:space="preserve" font-family="LastResort,LastResort" font-size="80.0" fill="#F6F6F6" transform="matrix(1.00, 0.00, -0.00, -1.00, 13975.4, 66.4)"></text><text xml:space="preserve" font-family="LastResort,LastResort" font-size="80.0" fill="#F6F6F6" transform="matrix(1.00, 0.00, -0.00, -1.00, 14067.2, 66.4)"></text><text xml:space="preserve" font-family="LastResort,LastResort" font-size="80.0" fill="#F6F6F6" transform="matrix(1.00, 0.00, -0.00, -1.00, 14159.0, 66.4)"></text><text xml:space="preserve" font-family="LastResort,LastResort" font-size="80.0" fill="#F6F6F6" transform="matrix(1.00, 0.00, -0.00, -1.00, 14250.8, 66.4)"></text><text xml:space="preserve" font-family="LastResort,LastResort" font-size="80.0" fill="#F6F6F6" transform="matrix(1.00, 0.00, -0.00, -1.00, 14342.6, 66.4)"></text><text xml:space="preserve" font-family="LastResort,LastResort" font-size="80.0" fill="#F6F6F6" transform="matrix(1.00, 0.00, -0.00, -1.00, 14434.4, 66.4)"></text><text xml:space="preserve" font-family="LastResort,LastResort" font-size="80.0" fill="#F6F6F6" transform="matrix(1.00, 0.00, -0.00, -1.00, 14526.2, 66.4)"></text><text xml:space="preserve" font-family="LastResort,LastResort" font-size="80.0" fill="#F6F6F6" transform="matrix(1.00, 0.00, -0.00, -1.00, 14618.0, 66.4)"></text><text xml:space="preserve" font-family="LastResort,LastResort" font-size="80.0" fill="#F6F6F6" transform="matrix(1.00, 0.00, -0.00, -1.00, 14709.8, 66.4)"></text><text xml:space="preserve" font-family="LastResort,LastResort" font-size="80.0" fill="#F6F6F6" transform="matrix(1.00, 0.00, -0.00, -1.00, 14801.6, 66.4)"></text><text xml:space="preserve" font-family="LastResort,LastResort" font-size="80.0" fill="#F6F6F6" transform="matrix(1.00, 0.00, -0.00, -1.00, 14893.4, 66.4)"></text><text xml:space="preserve" font-family="LastResort,LastResort" font-size="80.0" fill="#F6F6F6" transform="matrix(1.00, 0.00, -0.00, -1.00, 14985.2, 66.4)"></text><text xml:space="preserve" font-family="LastResort,LastResort" font-size="80.0" fill="#F6F6F6" transform="matrix(1.00, 0.00, -0.00, -1.00, 15077.0, 66.4)"></text><text xml:space="preserve" font-family="LastResort,LastResort" font-size="80.0" fill="#F6F6F6" transform="matrix(1.00, 0.00, -0.00, -1.00, 15168.7, 66.4)"></text><text xml:space="preserve" font-family="LastResort,LastResort" font-size="80.0" fill="#F6F6F6" transform="matrix(1.00, 0.00, -0.00, -1.00, 15260.5, 66.4)"></text><text xml:space="preserve" font-family="LastResort,LastResort" font-size="80.0" fill="#F6F6F6" transform="matrix(1.00, 0.00, -0.00, -1.00, 15352.3, 66.4)"></text><text xml:space="preserve" font-family="LastResort,LastResort" font-size="80.0" fill="#F6F6F6" transform="matrix(1.00, 0.00, -0.00, -1.00, 15444.1, 66.4)"></text><text xml:space="preserve" font-family="LastResort,LastResort" font-size="80.0" fill="#F6F6F6" transform="matrix(1.00, 0.00, -0.00, -1.00, 15535.9, 66.4)"></text><text xml:space="preserve" font-family="LastResort,LastResort" font-size="80.0" fill="#F6F6F6" transform="matrix(1.00, 0.00, -0.00, -1.00, 15627.7, 66.4)"></text><text xml:space="preserve" font-family="LastResort,LastResort" font-size="80.0" fill="#F6F6F6" transform="matrix(1.00, 0.00, -0.00, -1.00, 15719.5, 66.4)"></text><text xml:space="preserve" font-family="LastResort,LastResort" font-size="80.0" fill="#F6F6F6" transform="matrix(1.00, 0.00, -0.00, -1.00, 15811.3, 66.4)"></text><text xml:space="preserve" font-family="LastResort,LastResort" font-size="80.0" fill="#F6F6F6" transform="matrix(1.00, 0.00, -0.00, -1.00, 15903.1, 66.4)"></text><text xml:space="preserve" font-family="LastResort,LastResort" font-size="80.0" fill="#F6F6F6" transform="matrix(1.00, 0.00, -0.00, -1.00, 15994.9, 66.4)"></text><text xml:space="preserve" font-family="LastResort,LastResort" font-size="80.0" fill="#F6F6F6" transform="matrix(1.00, 0.00, -0.00, -1.00, 16086.7, 66.4)"></text><text xml:space="preserve" font-family="LastResort,LastResort" font-size="80.0" fill="#F6F6F6" transform="matrix(1.00, 0.00, -0.00, -1.00, 16178.5, 66.4)"></text><text xml:space="preserve" font-family="LastResort,LastResort" font-size="80.0" fill="#F6F6F6" transform="matrix(1.00, 0.00, -0.00, -1.00, 16270.3, 66.4)"></text><text xml:space="preserve" font-family="LastResort,LastResort" font-size="80.0" fill="#F6F6F6" transform="matrix(1.00, 0.00, -0.00, -1.00, 16362.1, 66.4)"></text><text xml:space="preserve" font-family="LastResort,LastResort" font-size="80.0" fill="#F6F6F6" transform="matrix(1.00, 0.00, -0.00, -1.00, 16453.9, 66.4)"></text><text xml:space="preserve" font-family="LastResort,LastResort" font-size="80.0" fill="#F6F6F6" transform="matrix(1.00, 0.00, -0.00, -1.00, 16545.7, 66.4)"></text><text xml:space="preserve" font-family="LastResort,LastResort" font-size="80.0" fill="#F6F6F6" transform="matrix(1.00, 0.00, -0.00, -1.00, 16637.5, 66.4)"></text><text xml:space="preserve" font-family="LastResort,LastResort" font-size="80.0" fill="#F6F6F6" transform="matrix(1.00, 0.00, -0.00, -1.00, 16729.3, 66.4)"></text><text xml:space="preserve" font-family="LastResort,LastResort" font-size="80.0" fill="#F6F6F6" transform="matrix(1.00, 0.00, -0.00, -1.00, 16821.1, 66.4)"></text><text xml:space="preserve" font-family="LastResort,LastResort" font-size="80.0" fill="#F6F6F6" transform="matrix(1.00, 0.00, -0.00, -1.00, 16912.9, 66.4)"></text><text xml:space="preserve" font-family="LastResort,LastResort" font-size="80.0" fill="#F6F6F6" transform="matrix(1.00, 0.00, -0.00, -1.00, 17004.7, 66.4)"></text><text xml:space="preserve" font-family="LastResort,LastResort" font-size="80.0" fill="#F6F6F6" transform="matrix(1.00, 0.00, -0.00, -1.00, 17096.5, 66.4)"></text><text xml:space="preserve" font-family="LastResort,LastResort" font-size="80.0" fill="#F6F6F6" transform="matrix(1.00, 0.00, -0.00, -1.00, 17188.3, 66.4)"></text><text xml:space="preserve" font-family="LastResort,LastResort" font-size="80.0" fill="#F6F6F6" transform="matrix(1.00, 0.00, -0.00, -1.00, 17280.1, 66.4)"></text><text xml:space="preserve" font-family="LastResort,LastResort" font-size="80.0" fill="#F6F6F6" transform="matrix(1.00, 0.00, -0.00, -1.00, 17371.9, 66.4)"></text><text xml:space="preserve" font-family="LastResort,LastResort" font-size="80.0" fill="#F6F6F6" transform="matrix(1.00, 0.00, -0.00, -1.00, 17463.7, 66.4)"></text><text xml:space="preserve" font-family="LastResort,LastResort" font-size="80.0" fill="#F6F6F6" transform="matrix(1.00, 0.00, -0.00, -1.00, 17555.5, 66.4)"></text><text xml:space="preserve" font-family="LastResort,LastResort" font-size="80.0" fill="#F6F6F6" transform="matrix(1.00, 0.00, -0.00, -1.00, 17647.3, 66.4)"></text><text xml:space="preserve" font-family="LastResort,LastResort" font-size="80.0" fill="#F6F6F6" transform="matrix(1.00, 0.00, -0.00, -1.00, 17739.1, 66.4)"></text><text xml:space="preserve" font-family="LastResort,LastResort" font-size="80.0" fill="#F6F6F6" transform="matrix(1.00, 0.00, -0.00, -1.00, 17830.9, 66.4)"></text><text xml:space="preserve" font-family="LastResort,LastResort" font-size="80.0" fill="#F6F6F6" transform="matrix(1.00, 0.00, -0.00, -1.00, 17922.7, 66.4)"></text><text xml:space="preserve" font-family="LastResort,LastResort" font-size="80.0" fill="#F6F6F6" transform="matrix(1.00, 0.00, -0.00, -1.00, 18014.5, 66.4)"></text><text xml:space="preserve" font-family="LastResort,LastResort" font-size="80.0" fill="#F6F6F6" transform="matrix(1.00, 0.00, -0.00, -1.00, 18106.2, 66.4)"></text><text xml:space="preserve" font-family="LastResort,LastResort" font-size="80.0" fill="#F6F6F6" transform="matrix(1.00, 0.00, -0.00, -1.00, 18198.0, 66.4)"></text><text xml:space="preserve" font-family="LastResort,LastResort" font-size="80.0" fill="#F6F6F6" transform="matrix(1.00, 0.00, -0.00, -1.00, 18289.8, 66.4)"></text><text xml:space="preserve" font-family="LastResort,LastResort" font-size="80.0" fill="#F6F6F6" transform="matrix(1.00, 0.00, -0.00, -1.00, 18381.6, 66.4)"></text><text xml:space="preserve" font-family="LastResort,LastResort" font-size="80.0" fill="#F6F6F6" transform="matrix(1.00, 0.00, -0.00, -1.00, 18473.4, 66.4)"></text><text xml:space="preserve" font-family="LastResort,LastResort" font-size="80.0" fill="#F6F6F6" transform="matrix(1.00, 0.00, -0.00, -1.00, 18565.2, 66.4)"></text><text xml:space="preserve" font-family="LastResort,LastResort" font-size="80.0" fill="#F6F6F6" transform="matrix(1.00, 0.00, -0.00, -1.00, 18657.0, 66.4)"></text><text xml:space="preserve" font-family="LastResort,LastResort" font-size="80.0" fill="#F6F6F6" transform="matrix(1.00, 0.00, -0.00, -1.00, 18748.8, 66.4)"></text><text xml:space="preserve" font-family="LastResort,LastResort" font-size="80.0" fill="#F6F6F6" transform="matrix(1.00, 0.00, -0.00, -1.00, 18840.6, 66.4)"></text><text xml:space="preserve" font-family="LastResort,LastResort" font-size="80.0" fill="#F6F6F6" transform="matrix(1.00, 0.00, -0.00, -1.00, 18932.4, 66.4)"></text><text xml:space="preserve" font-family="LastResort,LastResort" font-size="80.0" fill="#F6F6F6" transform="matrix(1.00, 0.00, -0.00, -1.00, 19024.2, 66.4)"></text><text xml:space="preserve" font-family="LastResort,LastResort" font-size="80.0" fill="#F6F6F6" transform="matrix(1.00, 0.00, -0.00, -1.00, 19116.0, 66.4)"></text><text xml:space="preserve" font-family="LastResort,LastResort" font-size="80.0" fill="#F6F6F6" transform="matrix(1.00, 0.00, -0.00, -1.00, 19207.8, 66.4)"></text><text xml:space="preserve" font-family="LastResort,LastResort" font-size="80.0" fill="#F6F6F6" transform="matrix(1.00, 0.00, -0.00, -1.00, 19299.6, 66.4)"></text><text xml:space="preserve" font-family="LastResort,LastResort" font-size="80.0" fill="#F6F6F6" transform="matrix(1.00, 0.00, -0.00, -1.00, 19391.4, 66.4)"></text><text xml:space="preserve" font-family="LastResort,LastResort" font-size="80.0" fill="#F6F6F6" transform="matrix(1.00, 0.00, -0.00, -1.00, 19483.2, 66.4)"></text><text xml:space="preserve" font-family="LastResort,LastResort" font-size="80.0" fill="#F6F6F6" transform="matrix(1.00, 0.00, -0.00, -1.00, 19575.0, 66.4)"></text><text xml:space="preserve" font-family="LastResort,LastResort" font-size="80.0" fill="#F6F6F6" transform="matrix(1.00, 0.00, -0.00, -1.00, 19666.8, 66.4)"></text><text xml:space="preserve" font-family="LastResort,LastResort" font-size="80.0" fill="#F6F6F6" transform="matrix(1.00, 0.00, -0.00, -1.00, 19758.6, 66.4)"></text><text xml:space="preserve" font-family="LastResort,LastResort" font-size="80.0" fill="#F6F6F6" transform="matrix(1.00, 0.00, -0.00, -1.00, 19850.4, 66.4)"></text><text xml:space="preserve" font-family="LastResort,LastResort" font-size="80.0" fill="#F6F6F6" transform="matrix(1.00, 0.00, -0.00, -1.00, 19942.2, 66.4)"></text><text xml:space="preserve" font-family="LastResort,LastResort" font-size="80.0" fill="#F6F6F6" transform="matrix(1.00, 0.00, -0.00, -1.00, 20034.0, 66.4)"></text><text xml:space="preserve" font-family="LastResort,LastResort" font-size="80.0" fill="#F6F6F6" transform="matrix(1.00, 0.00, -0.00, -1.00, 20125.8, 66.4)"></text><text xml:space="preserve" font-family="LastResort,LastResort" font-size="80.0" fill="#F6F6F6" transform="matrix(1.00, 0.00, -0.00, -1.00, 20217.6, 66.4)"></text><text xml:space="preserve" font-family="LastResort,LastResort" font-size="80.0" fill="#F6F6F6" transform="matrix(1.00, 0.00, -0.00, -1.00, 20309.4, 66.4)"></text><text xml:space="preserve" font-family="LastResort,LastResort" font-size="80.0" fill="#F6F6F6" transform="matrix(1.00, 0.00, -0.00, -1.00, 20401.2, 66.4)"></text><text xml:space="preserve" font-family="LastResort,LastResort" font-size="80.0" fill="#F6F6F6" transform="matrix(1.00, 0.00, -0.00, -1.00, 20493.0, 66.4)"></text><text xml:space="preserve" font-family="LastResort,LastResort" font-size="80.0" fill="#F6F6F6" transform="matrix(1.00, 0.00, -0.00, -1.00, 20584.8, 66.4)"></text><text xml:space="preserve" font-family="LastResort,LastResort" font-size="80.0" fill="#F6F6F6" transform="matrix(1.00, 0.00, -0.00, -1.00, 20676.6, 66.4)"></text><text xml:space="preserve" font-family="LastResort,LastResort" font-size="80.0" fill="#F6F6F6" transform="matrix(1.00, 0.00, -0.00, -1.00, 20768.4, 66.4)"></text><text xml:space="preserve" font-family="LastResort,LastResort" font-size="80.0" fill="#F6F6F6" transform="matrix(1.00, 0.00, -0.00, -1.00, 20860.2, 66.4)"></text><text xml:space="preserve" font-family="LastResort,LastResort" font-size="80.0" fill="#F6F6F6" transform="matrix(1.00, 0.00, -0.00, -1.00, 20952.0, 66.4)"></text><text xml:space="preserve" font-family="LastResort,LastResort" font-size="80.0" fill="#F6F6F6" transform="matrix(1.00, 0.00, -0.00, -1.00, 21043.7, 66.4)"></text><text xml:space="preserve" font-family="LastResort,LastResort" font-size="80.0" fill="#F6F6F6" transform="matrix(1.00, 0.00, -0.00, -1.00, 21135.5, 66.4)"></text><text xml:space="preserve" font-family="LastResort,LastResort" font-size="80.0" fill="#F6F6F6" transform="matrix(1.00, 0.00, -0.00, -1.00, 21227.3, 66.4)"></text><text xml:space="preserve" font-family="LastResort,LastResort" font-size="80.0" fill="#F6F6F6" transform="matrix(1.00, 0.00, -0.00, -1.00, 21319.1, 66.4)"></text><text xml:space="preserve" font-family="LastResort,LastResort" font-size="80.0" fill="#F6F6F6" transform="matrix(1.00, 0.00, -0.00, -1.00, 21410.9, 66.4)"></text><text xml:space="preserve" font-family="LastResort,LastResort" font-size="80.0" fill="#F6F6F6" transform="matrix(1.00, 0.00, -0.00, -1.00, 21502.7, 66.4)"></text><text xml:space="preserve" font-family="LastResort,LastResort" font-size="80.0" fill="#F6F6F6" transform="matrix(1.00, 0.00, -0.00, -1.00, 21594.5, 66.4)"></text><text xml:space="preserve" font-family="LastResort,LastResort" font-size="80.0" fill="#F6F6F6" transform="matrix(1.00, 0.00, -0.00, -1.00, 21686.3, 66.4)"></text><text xml:space="preserve" font-family="LastResort,LastResort" font-size="80.0" fill="#F6F6F6" transform="matrix(1.00, 0.00, -0.00, -1.00, 21778.1, 66.4)"></text><text xml:space="preserve" font-family="LastResort,LastResort" font-size="80.0" fill="#F6F6F6" transform="matrix(1.00, 0.00, -0.00, -1.00, 21869.9, 66.4)"></text><text xml:space="preserve" font-family="LastResort,LastResort" font-size="80.0" fill="#F6F6F6" transform="matrix(1.00, 0.00, -0.00, -1.00, 21961.7, 66.4)"></text><text xml:space="preserve" font-family="LastResort,LastResort" font-size="80.0" fill="#F6F6F6" transform="matrix(1.00, 0.00, -0.00, -1.00, 22053.5, 66.4)"></text><text xml:space="preserve" font-family="LastResort,LastResort" font-size="80.0" fill="#F6F6F6" transform="matrix(1.00, 0.00, -0.00, -1.00, 22145.3, 66.4)"></text><text xml:space="preserve" font-family="LastResort,LastResort" font-size="80.0" fill="#F6F6F6" transform="matrix(1.00, 0.00, -0.00, -1.00, 22237.1, 66.4)"></text><text xml:space="preserve" font-family="LastResort,LastResort" font-size="80.0" fill="#F6F6F6" transform="matrix(1.00, 0.00, -0.00, -1.00, 22328.9, 66.4)"></text><text xml:space="preserve" font-family="LastResort,LastResort" font-size="80.0" fill="#F6F6F6" transform="matrix(1.00, 0.00, -0.00, -1.00, 22420.7, 66.4)"></text><text xml:space="preserve" font-family="LastResort,LastResort" font-size="80.0" fill="#F6F6F6" transform="matrix(1.00, 0.00, -0.00, -1.00, 22512.5, 66.4)"></text><text xml:space="preserve" font-family="LastResort,LastResort" font-size="80.0" fill="#F6F6F6" transform="matrix(1.00, 0.00, -0.00, -1.00, 22604.3, 66.4)"></text><text xml:space="preserve" font-family="LastResort,LastResort" font-size="80.0" fill="#F6F6F6" transform="matrix(1.00, 0.00, -0.00, -1.00, 22696.1, 66.4)"></text><text xml:space="preserve" font-family="LastResort,LastResort" font-size="80.0" fill="#F6F6F6" transform="matrix(1.00, 0.00, -0.00, -1.00, 22787.9, 66.4)"></text><text xml:space="preserve" font-family="LastResort,LastResort" font-size="80.0" fill="#F6F6F6" transform="matrix(1.00, 0.00, -0.00, -1.00, 22879.7, 66.4)"></text><text xml:space="preserve" font-family="LastResort,LastResort" font-size="80.0" fill="#F6F6F6" transform="matrix(1.00, 0.00, -0.00, -1.00, 22971.5, 66.4)"></text><text xml:space="preserve" font-family="LastResort,LastResort" font-size="80.0" fill="#F6F6F6" transform="matrix(1.00, 0.00, -0.00, -1.00, 23063.3, 66.4)"></text><text xml:space="preserve" font-family="LastResort,LastResort" font-size="80.0" fill="#F6F6F6" transform="matrix(1.00, 0.00, -0.00, -1.00, 23155.1, 66.4)"></text><text xml:space="preserve" font-family="LastResort,LastResort" font-size="80.0" fill="#F6F6F6" transform="matrix(1.00, 0.00, -0.00, -1.00, 23246.9, 66.4)"></text><text xml:space="preserve" font-family="LastResort,LastResort" font-size="80.0" fill="#F6F6F6" transform="matrix(1.00, 0.00, -0.00, -1.00, 23338.7, 66.4)"></text><text xml:space="preserve" font-family="LastResort,LastResort" font-size="80.0" fill="#F6F6F6" transform="matrix(1.00, 0.00, -0.00, -1.00, 23430.5, 66.4)"></text></g></g></g></svg>