<?xml version="1.0" encoding="UTF-8" standalone="no"?><svg xmlns="http://www.w3.org/2000/svg" xmlns:xlink="http://www.w3.org/1999/xlink" clip-rule="evenodd" stroke-miterlimit="10" viewBox="0 0 132 132"><desc>SVG generated by Keynote</desc><defs></defs><g transform="matrix(1.00, 0.00, -0.00, -1.00, 0.0, 132.0)"><g><clipPath id="clip0x600006ca1f20"><path d="M 0.6 0.6 L 131.7 0.6 L 131.7 131.8 L 0.6 131.8 Z M 0.6 0.6 "></path></clipPath><g clip-path="url(#clip0x600006ca1f20)"><path d="M 111.8 111.9 C 137.0 86.6 137.0 45.8 111.8 20.5 C 86.6 -4.7 45.7 -4.7 20.5 20.5 C -4.7 45.8 -4.7 86.6 20.5 111.9 C 45.7 137.1 86.6 137.1 111.8 111.9 Z M 111.8 111.9 " fill="#FF607B"></path></g></g><g><clipPath id="clip0x600006ca25e0"><path d="M 27.8 27.9 L 104.5 27.9 L 104.5 104.5 L 27.8 104.5 Z M 27.8 27.9 "></path></clipPath><g clip-path="url(#clip0x600006ca25e0)"><text xml:space="preserve" font-family="Sosa-Regular,Sosa" font-size="50.0" fill="#F6F6F6" transform="matrix(1.00, 0.00, -0.00, -1.00, 41.1, 55.7)">Z</text></g></g></g></svg>