<?xml version="1.0" encoding="UTF-8" standalone="no"?><svg xmlns="http://www.w3.org/2000/svg" xmlns:xlink="http://www.w3.org/1999/xlink" clip-rule="evenodd" stroke-miterlimit="10" viewBox="0 0 132 133"><desc>SVG generated by Keynote</desc><defs></defs><g transform="matrix(1.00, 0.00, -0.00, -1.00, 0.0, 133.0)"><g><clipPath id="clip0x6180060b4b80"><path d="M 0.6 0.9 L 131.8 0.9 L 131.8 132.0 L 0.6 132.0 Z M 0.6 0.9 "></path></clipPath><g clip-path="url(#clip0x6180060b4b80)"><path d="M 111.9 112.1 C 137.1 86.9 137.1 46.0 111.9 20.8 C 86.7 -4.4 45.8 -4.4 20.6 20.8 C -4.7 46.0 -4.7 86.9 20.6 112.1 C 45.8 137.4 86.7 137.4 111.9 112.1 Z M 111.9 112.1 " fill="#404756"></path></g></g><g><clipPath id="clip0x6180060b4dc0"><path d="M 27.9 28.1 L 104.6 28.1 L 104.6 104.8 L 27.9 104.8 Z M 27.9 28.1 "></path></clipPath><g clip-path="url(#clip0x6180060b4dc0)"><text xml:space="preserve" font-family="Sosa-Regular,Sosa" font-size="50.0" fill="#F6F6F6" transform="matrix(1.00, 0.00, -0.00, -1.00, 41.2, 55.9)">[</text></g></g></g></svg>