<?xml version="1.0" encoding="UTF-8" standalone="no"?><svg xmlns="http://www.w3.org/2000/svg" xmlns:xlink="http://www.w3.org/1999/xlink" clip-rule="evenodd" stroke-miterlimit="10" viewBox="0 0 132 132"><desc>SVG generated by Keynote</desc><defs></defs><g transform="matrix(1.00, 0.00, -0.00, -1.00, 0.0, 132.0)"><g><clipPath id="clip0x610005eb8fc0"><path d="M 0.2 0.6 L 131.3 0.6 L 131.3 131.8 L 0.2 131.8 Z M 0.2 0.6 "></path></clipPath><g clip-path="url(#clip0x610005eb8fc0)"><path d="M 111.4 111.9 C 136.6 86.6 136.6 45.8 111.4 20.5 C 86.2 -4.7 45.3 -4.7 20.1 20.5 C -5.1 45.8 -5.1 86.6 20.1 111.9 C 45.3 137.1 86.2 137.1 111.4 111.9 Z M 111.4 111.9 " fill="#62D7AD"></path></g></g><g><clipPath id="clip0x610005eb94a0"><path d="M 27.4 27.9 L 104.1 27.9 L 104.1 104.5 L 27.4 104.5 Z M 27.4 27.9 "></path></clipPath><g clip-path="url(#clip0x610005eb94a0)"><text xml:space="preserve" font-family="Sosa-Regular,Sosa" font-size="50.0" fill="#F6F6F6" transform="matrix(1.00, 0.00, -0.00, -1.00, 40.8, 55.7)">Y</text></g></g></g></svg>