<?xml version="1.0" encoding="UTF-8" standalone="no"?><svg xmlns="http://www.w3.org/2000/svg" xmlns:xlink="http://www.w3.org/1999/xlink" clip-rule="evenodd" stroke-miterlimit="10" viewBox="0 0 317 191"><desc>SVG generated by Keynote</desc><defs></defs><g transform="matrix(1.00, 0.00, -0.00, -1.00, 0.0, 191.0)"><g><clipPath id="clip0x618003ab6da0"><path d="M 0.5 0.8 L 316.6 0.8 L 316.6 190.7 L 0.5 190.7 Z M 0.5 0.8 "></path></clipPath><g clip-path="url(#clip0x618003ab6da0)"><path d="M 1.5 6.8 L 2.0 184.7 C 2.0 187.4 3.7 190.0 6.5 190.0 L 310.6 190.0 C 313.4 190.0 316.0 187.4 316.0 184.7 L 316.0 6.8 C 316.0 4.1 313.4 2.0 310.6 2.0 L 6.5 2.0 C 3.7 2.0 1.5 4.1 1.5 6.8 Z M 1.5 6.8 " fill="#62D7AD"></path></g></g><g><clipPath id="clip0x618003ab5de0"><path d="M 0.5 0.8 L 136.3 0.8 L 136.3 190.7 L 0.5 190.7 Z M 0.5 0.8 "></path></clipPath><g clip-path="url(#clip0x618003ab5de0)"><path d="M 1.5 6.8 L 2.0 184.7 C 2.0 187.4 3.7 190.0 6.5 190.0 L 130.3 190.0 C 133.0 190.0 135.0 187.4 135.0 184.7 L 135.0 6.8 C 135.0 4.1 133.0 2.0 130.3 2.0 L 6.5 2.0 C 3.7 2.0 1.5 4.1 1.5 6.8 Z M 1.5 6.8 " fill="#55BE99"></path></g></g><g><clipPath id="clip0x618003ab6e60"><path d="M 34.6 27.8 L 102.2 27.8 L 102.2 163.8 L 34.6 163.8 Z M 34.6 27.8 "></path></clipPath><g clip-path="url(#clip0x618003ab6e60)"><text xml:space="preserve" font-family="Helvetica,Helvetica" font-size="80.0" fill="#F6F6F6" transform="matrix(1.00, 0.00, -0.00, -1.00, 55.1, 66.2)">r</text></g></g><g><clipPath id="clip0x618003ab5f00"><path d="M 146.3 60.3 L 306.0 60.3 L 306.0 131.3 L 146.3 131.3 Z M 146.3 60.3 "></path></clipPath><g clip-path="url(#clip0x618003ab5f00)"><text xml:space="preserve" font-family="Helvetica,Helvetica" font-size="42.0" fill="#F6F6F6" transform="matrix(1.00, 0.00, -0.00, -1.00, 156.8, 80.4)">L</text><text xml:space="preserve" font-family="Helvetica,Helvetica" font-size="42.0" fill="#F6F6F6" transform="matrix(1.00, 0.00, -0.00, -1.00, 180.1, 80.4)">a</text><text xml:space="preserve" font-family="Helvetica,Helvetica" font-size="42.0" fill="#F6F6F6" transform="matrix(1.00, 0.00, -0.00, -1.00, 203.5, 80.4)">u</text><text xml:space="preserve" font-family="Helvetica,Helvetica" font-size="42.0" fill="#F6F6F6" transform="matrix(1.00, 0.00, -0.00, -1.00, 226.9, 80.4)">n</text><text xml:space="preserve" font-family="Helvetica,Helvetica" font-size="42.0" fill="#F6F6F6" transform="matrix(1.00, 0.00, -0.00, -1.00, 250.2, 80.4)">c</text><text xml:space="preserve" font-family="Helvetica,Helvetica" font-size="42.0" fill="#F6F6F6" transform="matrix(1.00, 0.00, -0.00, -1.00, 271.2, 80.4)">h</text></g></g></g></svg>