<?xml version="1.0" encoding="UTF-8" standalone="no"?><svg xmlns="http://www.w3.org/2000/svg" xmlns:xlink="http://www.w3.org/1999/xlink" clip-rule="evenodd" stroke-miterlimit="10" viewBox="0 0 338 191"><desc>SVG generated by Keynote</desc><defs></defs><g transform="matrix(1.00, 0.00, -0.00, -1.00, 0.0, 191.0)"><g><clipPath id="clip0x6100036aa560"><path d="M 0.4 0.8 L 316.5 0.8 L 316.5 190.7 L 0.4 190.7 Z M 0.4 0.8 "></path></clipPath><g clip-path="url(#clip0x6100036aa560)"><path d="M 1.4 6.8 L 1.0 184.7 C 1.0 187.4 3.6 190.0 6.4 190.0 L 310.5 190.0 C 313.3 190.0 316.0 187.4 316.0 184.7 L 316.0 6.8 C 316.0 4.1 313.3 2.0 310.5 2.0 L 6.4 2.0 C 3.6 2.0 1.4 4.1 1.4 6.8 Z M 1.4 6.8 " fill="#FF607B"></path></g></g><g><clipPath id="clip0x6100036aac20"><path d="M 1.5 0.8 L 137.3 0.8 L 137.3 190.7 L 1.5 190.7 Z M 1.5 0.8 "></path></clipPath><g clip-path="url(#clip0x6100036aac20)"><path d="M 2.5 6.8 L 3.0 184.7 C 3.0 187.4 4.7 190.0 7.5 190.0 L 131.3 190.0 C 134.0 190.0 136.0 187.4 136.0 184.7 L 136.0 6.8 C 136.0 4.1 134.0 2.0 131.3 2.0 L 7.5 2.0 C 4.7 2.0 2.5 4.1 2.5 6.8 Z M 2.5 6.8 " fill="#E3556F"></path></g></g><g><clipPath id="clip0x6100036aaf80"><path d="M 40.0 27.8 L 98.8 27.8 L 98.8 163.8 L 40.0 163.8 Z M 40.0 27.8 "></path></clipPath><g clip-path="url(#clip0x6100036aaf80)"><text xml:space="preserve" font-family="Helvetica,Helvetica" font-size="80.0" fill="#F6F6F6" transform="matrix(1.00, 0.00, -0.00, -1.00, 60.5, 66.2)">l</text></g></g><g><clipPath id="clip0x6100036ab1c0"><path d="M 174.3 60.3 L 278.0 60.3 L 278.0 131.3 L 174.3 131.3 Z M 174.3 60.3 "></path></clipPath><g clip-path="url(#clip0x6100036ab1c0)"><text xml:space="preserve" font-family="Helvetica,Helvetica" font-size="42.0" fill="#F6F6F6" transform="matrix(1.00, 0.00, -0.00, -1.00, 185.3, 80.4)">I</text><text xml:space="preserve" font-family="Helvetica,Helvetica" font-size="42.0" fill="#F6F6F6" transform="matrix(1.00, 0.00, -0.00, -1.00, 197.0, 80.4)">d</text><text xml:space="preserve" font-family="Helvetica,Helvetica" font-size="42.0" fill="#F6F6F6" transform="matrix(1.00, 0.00, -0.00, -1.00, 220.3, 80.4)">e</text><text xml:space="preserve" font-family="Helvetica,Helvetica" font-size="42.0" fill="#F6F6F6" transform="matrix(1.00, 0.00, -0.00, -1.00, 243.7, 80.4)">a</text></g></g><g><clipPath id="clip0x6100036ab520"><path d="M 337.7 122.5 L 337.7 69.0 L 311.1 69.0 L 311.1 122.5 Z M 337.7 122.5 "></path></clipPath><g clip-path="url(#clip0x6100036ab520)"><path d="M 336.7 95.8 L 312.0 70.0 L 312.0 121.5 Z M 336.7 95.8 " fill="#FF607B"></path></g></g></g></svg>