<?xml version="1.0" encoding="UTF-8" standalone="no"?><svg xmlns="http://www.w3.org/2000/svg" xmlns:xlink="http://www.w3.org/1999/xlink" clip-rule="evenodd" stroke-miterlimit="10" viewBox="0 0 337 191"><desc>SVG generated by Keynote</desc><defs></defs><g transform="matrix(1.00, 0.00, -0.00, -1.00, 0.0, 191.0)"><g><clipPath id="clip0x608003cb9e60"><path d="M 0.1 0.8 L 316.3 0.8 L 316.3 190.7 L 0.1 190.7 Z M 0.1 0.8 "></path></clipPath><g clip-path="url(#clip0x608003cb9e60)"><path d="M 1.1 6.8 L 1.0 184.7 C 1.0 187.4 3.4 190.0 6.1 190.0 L 310.3 190.0 C 313.0 190.0 315.0 187.4 315.0 184.7 L 315.0 6.8 C 315.0 4.1 313.0 2.0 310.3 2.0 L 6.1 2.0 C 3.4 2.0 1.1 4.1 1.1 6.8 Z M 1.1 6.8 " fill="#EDC25F"></path></g></g><g><clipPath id="clip0x608003cba640"><path d="M 0.4 0.8 L 136.2 0.8 L 136.2 190.7 L 0.4 190.7 Z M 0.4 0.8 "></path></clipPath><g clip-path="url(#clip0x608003cba640)"><path d="M 1.4 6.8 L 1.0 184.7 C 1.0 187.4 3.6 190.0 6.4 190.0 L 130.2 190.0 C 132.9 190.0 135.0 187.4 135.0 184.7 L 135.0 6.8 C 135.0 4.1 132.9 2.0 130.2 2.0 L 6.4 2.0 C 3.6 2.0 1.4 4.1 1.4 6.8 Z M 1.4 6.8 " fill="#D4AE55"></path></g></g><g><clipPath id="clip0x608003cba880"><path d="M 21.1 40.3 L 115.5 40.3 L 115.5 176.3 L 21.1 176.3 Z M 21.1 40.3 "></path></clipPath><g clip-path="url(#clip0x608003cba880)"><text xml:space="preserve" font-family="Helvetica,Helvetica" font-size="80.0" fill="#F6F6F6" transform="matrix(1.00, 0.00, -0.00, -1.00, 41.6, 78.7)">Y</text></g></g><g><clipPath id="clip0x608003cbaac0"><path d="M 165.9 60.3 L 288.3 60.3 L 288.3 131.3 L 165.9 131.3 Z M 165.9 60.3 "></path></clipPath><g clip-path="url(#clip0x608003cbaac0)"><text xml:space="preserve" font-family="Helvetica,Helvetica" font-size="42.0" fill="#F6F6F6" transform="matrix(1.00, 0.00, -0.00, -1.00, 176.4, 80.4)">C</text><text xml:space="preserve" font-family="Helvetica,Helvetica" font-size="42.0" fill="#F6F6F6" transform="matrix(1.00, 0.00, -0.00, -1.00, 206.7, 80.4)">o</text><text xml:space="preserve" font-family="Helvetica,Helvetica" font-size="42.0" fill="#F6F6F6" transform="matrix(1.00, 0.00, -0.00, -1.00, 230.1, 80.4)">d</text><text xml:space="preserve" font-family="Helvetica,Helvetica" font-size="42.0" fill="#F6F6F6" transform="matrix(1.00, 0.00, -0.00, -1.00, 253.4, 80.4)">e</text></g></g><g><clipPath id="clip0x608003cbae20"><path d="M 336.7 122.5 L 336.7 69.0 L 310.1 69.0 L 310.1 122.5 Z M 336.7 122.5 "></path></clipPath><g clip-path="url(#clip0x608003cbae20)"><path d="M 335.7 95.8 L 311.0 70.0 L 311.0 121.5 Z M 335.7 95.8 " fill="#EDC25F"></path></g></g></g></svg>