<?xml version="1.0" encoding="UTF-8" standalone="no"?><svg xmlns="http://www.w3.org/2000/svg" xmlns:xlink="http://www.w3.org/1999/xlink" clip-rule="evenodd" stroke-miterlimit="10" viewBox="0 0 890 68"><desc>SVG generated by Keynote</desc><defs></defs><g transform="matrix(1.00, 0.00, -0.00, -1.00, 0.0, 68.0)"><text xml:space="preserve" font-family="Helvetica,Helvetica" font-size="84.0" fill="#F6F6F6" transform="matrix(1.00, 0.00, -0.00, -1.00, -5.6, 3.7)">E</text><text xml:space="preserve" font-family="Helvetica,Helvetica" font-size="84.0" fill="#F6F6F6" transform="matrix(1.00, 0.00, -0.00, -1.00, 50.4, 3.7)">F</text><text xml:space="preserve" font-family="Helvetica,Helvetica" font-size="84.0" fill="#F6F6F6" transform="matrix(1.00, 0.00, -0.00, -1.00, 101.7, 3.7)">F</text><text xml:space="preserve" font-family="Helvetica,Helvetica" font-size="84.0" fill="#F6F6F6" transform="matrix(1.00, 0.00, -0.00, -1.00, 153.0, 3.7)">I</text><text xml:space="preserve" font-family="Helvetica,Helvetica" font-size="84.0" fill="#F6F6F6" transform="matrix(1.00, 0.00, -0.00, -1.00, 176.3, 3.7)">C</text><text xml:space="preserve" font-family="Helvetica,Helvetica" font-size="84.0" fill="#F6F6F6" transform="matrix(1.00, 0.00, -0.00, -1.00, 237.0, 3.7)">I</text><text xml:space="preserve" font-family="Helvetica,Helvetica" font-size="84.0" fill="#F6F6F6" transform="matrix(1.00, 0.00, -0.00, -1.00, 260.3, 3.7)">E</text><text xml:space="preserve" font-family="Helvetica,Helvetica" font-size="84.0" fill="#F6F6F6" transform="matrix(1.00, 0.00, -0.00, -1.00, 316.3, 3.7)">N</text><text xml:space="preserve" font-family="Helvetica,Helvetica" font-size="84.0" fill="#F6F6F6" transform="matrix(1.00, 0.00, -0.00, -1.00, 377.0, 3.7)">C</text><text xml:space="preserve" font-family="Helvetica,Helvetica" font-size="84.0" fill="#F6F6F6" transform="matrix(1.00, 0.00, -0.00, -1.00, 437.7, 3.7)">Y</text><text xml:space="preserve" font-family="Helvetica,Helvetica" font-size="84.0" fill="#F6F6F6" transform="matrix(1.00, 0.00, -0.00, -1.00, 492.3, 3.7)"> </text><text xml:space="preserve" font-family="Helvetica,Helvetica" font-size="84.0" fill="#F6F6F6" transform="matrix(1.00, 0.00, -0.00, -1.00, 511.0, 3.7)">A</text><text xml:space="preserve" font-family="Helvetica,Helvetica" font-size="84.0" fill="#F6F6F6" transform="matrix(1.00, 0.00, -0.00, -1.00, 567.0, 3.7)">N</text><text xml:space="preserve" font-family="Helvetica,Helvetica" font-size="84.0" fill="#F6F6F6" transform="matrix(1.00, 0.00, -0.00, -1.00, 627.7, 3.7)">A</text><text xml:space="preserve" font-family="Helvetica,Helvetica" font-size="84.0" fill="#F6F6F6" transform="matrix(1.00, 0.00, -0.00, -1.00, 683.7, 3.7)">L</text><text xml:space="preserve" font-family="Helvetica,Helvetica" font-size="84.0" fill="#F6F6F6" transform="matrix(1.00, 0.00, -0.00, -1.00, 724.2, 3.7)">Y</text><text xml:space="preserve" font-family="Helvetica,Helvetica" font-size="84.0" fill="#F6F6F6" transform="matrix(1.00, 0.00, -0.00, -1.00, 780.3, 3.7)">Z</text><text xml:space="preserve" font-family="Helvetica,Helvetica" font-size="84.0" fill="#F6F6F6" transform="matrix(1.00, 0.00, -0.00, -1.00, 831.6, 3.7)">E</text><text xml:space="preserve" font-family="Helvetica,Helvetica" font-size="84.0" fill="#F6F6F6" transform="matrix(1.00, 0.00, -0.00, -1.00, 887.6, 3.7)"> </text></g></svg>