<?xml version="1.0" encoding="UTF-8" standalone="no"?><svg xmlns="http://www.w3.org/2000/svg" xmlns:xlink="http://www.w3.org/1999/xlink" clip-rule="evenodd" stroke-miterlimit="10" viewBox="0 0 567 70"><desc>SVG generated by Keynote</desc><defs></defs><g transform="matrix(1.00, 0.00, -0.00, -1.00, 0.0, 70.0)"><g><clipPath id="clip0x6100044abb80"><path d="M 4.2 1.3 L 489.5 1.3 L 489.5 33.3 L 4.2 33.3 Z M 4.2 1.3 "></path></clipPath><g clip-path="url(#clip0x6100044abb80)"><path d="M 5.0 32.0 L 489.0 32.0 L 489.0 2.0 L 5.0 2.0 Z M 5.2 32.3 " fill="#E2E2E2"></path></g></g><g><clipPath id="clip0x6100044abdc0"><path d="M 4.2 1.7 L 407.4 1.7 L 407.4 33.3 L 4.2 33.3 Z M 4.2 1.7 "></path></clipPath><g clip-path="url(#clip0x6100044abdc0)"><path d="M 5.0 32.0 L 406.0 32.0 L 406.0 3.0 L 5.0 3.0 Z M 5.2 32.3 " fill="#FF607B"></path></g></g><g><clipPath id="clip0x6100044ab640"><path d="M 0.2 32.5 L 117.4 32.5 L 117.4 69.5 L 0.2 69.5 Z M 0.2 32.5 "></path></clipPath><g clip-path="url(#clip0x6100044ab640)"><text xml:space="preserve" font-family="Helvetica,Helvetica" font-size="22.0" fill="#E2E2E2" transform="matrix(1.00, 0.00, -0.00, -1.00, 6.2, 43.1)">P</text><text xml:space="preserve" font-family="Helvetica,Helvetica" font-size="22.0" fill="#E2E2E2" transform="matrix(1.00, 0.00, -0.00, -1.00, 20.9, 43.1)">h</text><text xml:space="preserve" font-family="Helvetica,Helvetica" font-size="22.0" fill="#E2E2E2" transform="matrix(1.00, 0.00, -0.00, -1.00, 33.1, 43.1)">o</text><text xml:space="preserve" font-family="Helvetica,Helvetica" font-size="22.0" fill="#E2E2E2" transform="matrix(1.00, 0.00, -0.00, -1.00, 45.3, 43.1)">t</text><text xml:space="preserve" font-family="Helvetica,Helvetica" font-size="22.0" fill="#E2E2E2" transform="matrix(1.00, 0.00, -0.00, -1.00, 51.4, 43.1)">o</text><text xml:space="preserve" font-family="Helvetica,Helvetica" font-size="22.0" fill="#E2E2E2" transform="matrix(1.00, 0.00, -0.00, -1.00, 63.7, 43.1)">s</text><text xml:space="preserve" font-family="Helvetica,Helvetica" font-size="22.0" fill="#E2E2E2" transform="matrix(1.00, 0.00, -0.00, -1.00, 74.7, 43.1)">h</text><text xml:space="preserve" font-family="Helvetica,Helvetica" font-size="22.0" fill="#E2E2E2" transform="matrix(1.00, 0.00, -0.00, -1.00, 86.9, 43.1)">o</text><text xml:space="preserve" font-family="Helvetica,Helvetica" font-size="22.0" fill="#E2E2E2" transform="matrix(1.00, 0.00, -0.00, -1.00, 99.2, 43.1)">p</text></g></g><g><clipPath id="clip0x6100044ac5a0"><path d="M 493.1 0.3 L 566.2 0.3 L 566.2 34.4 L 493.1 34.4 Z M 493.1 0.3 "></path></clipPath><g clip-path="url(#clip0x6100044ac5a0)"><path d="M 502.0 33.0 C 500.6 33.4 499.0 32.2 499.0 30.8 L 499.0 21.5 L 494.1 16.3 L 499.0 11.0 L 499.0 3.8 C 499.0 2.4 500.6 1.0 502.0 1.0 L 562.7 1.0 C 564.1 1.0 565.0 2.4 565.0 3.8 L 565.0 30.8 C 565.0 32.2 564.1 33.0 562.7 33.0 L 502.0 33.0 Z M 502.0 33.4 " fill="#677188"></path></g></g><g><clipPath id="clip0x6100044abc40"><path d="M 509.3 3.0 L 555.3 3.0 L 555.3 34.0 L 509.3 34.0 Z M 509.3 3.0 "></path></clipPath><g clip-path="url(#clip0x6100044abc40)"><text xml:space="preserve" font-family="Helvetica,Helvetica" font-size="18.0" fill="#F6F6F6" transform="matrix(1.00, 0.00, -0.00, -1.00, 514.3, 11.7)">9</text><text xml:space="preserve" font-family="Helvetica,Helvetica" font-size="18.0" fill="#F6F6F6" transform="matrix(1.00, 0.00, -0.00, -1.00, 524.3, 11.7)">0</text><text xml:space="preserve" font-family="Helvetica,Helvetica" font-size="18.0" fill="#F6F6F6" transform="matrix(1.00, 0.00, -0.00, -1.00, 534.3, 11.7)">%</text></g></g></g></svg>