<?xml version="1.0" encoding="UTF-8" standalone="no"?><svg xmlns="http://www.w3.org/2000/svg" xmlns:xlink="http://www.w3.org/1999/xlink" clip-rule="evenodd" stroke-miterlimit="10" viewBox="0 0 358 259"><desc>SVG generated by Keynote</desc><defs></defs><g transform="matrix(1.00, 0.00, -0.00, -1.00, 0.0, 259.0)"><g><clipPath id="clip0x6100044ac9c0"><path d="M 0.8 0.7 L 357.4 0.7 L 357.4 258.6 L 0.8 258.6 Z M 0.8 0.7 "></path></clipPath><g clip-path="url(#clip0x6100044ac9c0)"><path d="M 0.2 -0.4 L 349.2 -0.4 L 349.2 250.6 L 0.2 250.6 Z M 0.0 0.0 " fill="none" stroke="#FF607B" stroke-width="5.00" transform="matrix(1.00, 0.00, 0.00, -1.00, 4.3, 255.1)"></path></g></g><g><clipPath id="clip0x6100044acc00"><path d="M 58.5 114.8 L 299.7 114.8 L 299.7 250.8 L 58.5 250.8 Z M 58.5 114.8 "></path></clipPath><g clip-path="url(#clip0x6100044acc00)"><text xml:space="preserve" font-family="Helvetica,Helvetica" font-size="80.0" fill="#FF607B" transform="matrix(1.00, 0.00, -0.00, -1.00, 79.0, 153.2)">5</text><text xml:space="preserve" font-family="Helvetica,Helvetica" font-size="80.0" fill="#FF607B" transform="matrix(1.00, 0.00, -0.00, -1.00, 123.5, 153.2)">.</text><text xml:space="preserve" font-family="Helvetica,Helvetica" font-size="80.0" fill="#FF607B" transform="matrix(1.00, 0.00, -0.00, -1.00, 145.7, 153.2)">4</text><text xml:space="preserve" font-family="Helvetica,Helvetica" font-size="80.0" fill="#FF607B" transform="matrix(1.00, 0.00, -0.00, -1.00, 190.2, 153.2)">3</text><text xml:space="preserve" font-family="Helvetica,Helvetica" font-size="80.0" fill="#FF607B" transform="matrix(1.00, 0.00, -0.00, -1.00, 234.7, 153.2)">2</text></g></g><g><clipPath id="clip0x6100044acfc0"><path d="M 58.6 81.1 L 299.6 81.1 L 299.6 132.1 L 58.6 132.1 Z M 58.6 81.1 "></path></clipPath><g clip-path="url(#clip0x6100044acfc0)"><text xml:space="preserve" font-family="Helvetica,Helvetica" font-size="30.0" fill="#E2E2E2" transform="matrix(1.00, 0.00, -0.00, -1.00, 66.6, 95.5)">S</text><text xml:space="preserve" font-family="Helvetica,Helvetica" font-size="30.0" fill="#E2E2E2" transform="matrix(1.00, 0.00, -0.00, -1.00, 86.6, 95.5)">U</text><text xml:space="preserve" font-family="Helvetica,Helvetica" font-size="30.0" fill="#E2E2E2" transform="matrix(1.00, 0.00, -0.00, -1.00, 108.2, 95.5)">C</text><text xml:space="preserve" font-family="Helvetica,Helvetica" font-size="30.0" fill="#E2E2E2" transform="matrix(1.00, 0.00, -0.00, -1.00, 129.9, 95.5)">C</text><text xml:space="preserve" font-family="Helvetica,Helvetica" font-size="30.0" fill="#E2E2E2" transform="matrix(1.00, 0.00, -0.00, -1.00, 151.6, 95.5)">E</text><text xml:space="preserve" font-family="Helvetica,Helvetica" font-size="30.0" fill="#E2E2E2" transform="matrix(1.00, 0.00, -0.00, -1.00, 171.6, 95.5)">S</text><text xml:space="preserve" font-family="Helvetica,Helvetica" font-size="30.0" fill="#E2E2E2" transform="matrix(1.00, 0.00, -0.00, -1.00, 191.6, 95.5)">S</text><text xml:space="preserve" font-family="Helvetica,Helvetica" font-size="30.0" fill="#E2E2E2" transform="matrix(1.00, 0.00, -0.00, -1.00, 211.6, 95.5)"> </text><text xml:space="preserve" font-family="Helvetica,Helvetica" font-size="30.0" fill="#E2E2E2" transform="matrix(1.00, 0.00, -0.00, -1.00, 219.9, 95.5)">I</text><text xml:space="preserve" font-family="Helvetica,Helvetica" font-size="30.0" fill="#E2E2E2" transform="matrix(1.00, 0.00, -0.00, -1.00, 228.3, 95.5)">N</text><text xml:space="preserve" font-family="Helvetica,Helvetica" font-size="30.0" fill="#E2E2E2" transform="matrix(1.00, 0.00, -0.00, -1.00, 249.9, 95.5)">F</text><text xml:space="preserve" font-family="Helvetica,Helvetica" font-size="30.0" fill="#E2E2E2" transform="matrix(1.00, 0.00, -0.00, -1.00, 268.3, 95.5)">O</text></g></g><g><clipPath id="clip0x6100044ad620"><path d="M 35.7 24.5 L 322.4 24.5 L 322.4 82.5 L 35.7 82.5 Z M 35.7 24.5 "></path></clipPath><g clip-path="url(#clip0x6100044ad620)"><text xml:space="preserve" font-family="Helvetica,Helvetica" font-size="20.0" fill="#E2E2E2" transform="matrix(1.00, 0.00, -0.00, -1.00, 44.0, 58.1)">U</text><text xml:space="preserve" font-family="Helvetica,Helvetica" font-size="20.0" fill="#E2E2E2" transform="matrix(1.00, 0.00, -0.00, -1.00, 58.5, 58.1)">t</text><text xml:space="preserve" font-family="Helvetica,Helvetica" font-size="20.0" fill="#E2E2E2" transform="matrix(1.00, 0.00, -0.00, -1.00, 64.0, 58.1)"> </text><text xml:space="preserve" font-family="Helvetica,Helvetica" font-size="20.0" fill="#E2E2E2" transform="matrix(1.00, 0.00, -0.00, -1.00, 69.6, 58.1)">w</text><text xml:space="preserve" font-family="Helvetica,Helvetica" font-size="20.0" fill="#E2E2E2" transform="matrix(1.00, 0.00, -0.00, -1.00, 84.0, 58.1)">i</text><text xml:space="preserve" font-family="Helvetica,Helvetica" font-size="20.0" fill="#E2E2E2" transform="matrix(1.00, 0.00, -0.00, -1.00, 88.5, 58.1)">s</text><text xml:space="preserve" font-family="Helvetica,Helvetica" font-size="20.0" fill="#E2E2E2" transform="matrix(1.00, 0.00, -0.00, -1.00, 98.5, 58.1)">i</text><text xml:space="preserve" font-family="Helvetica,Helvetica" font-size="20.0" fill="#E2E2E2" transform="matrix(1.00, 0.00, -0.00, -1.00, 102.9, 58.1)"> </text><text xml:space="preserve" font-family="Helvetica,Helvetica" font-size="20.0" fill="#E2E2E2" transform="matrix(1.00, 0.00, -0.00, -1.00, 108.5, 58.1)">e</text><text xml:space="preserve" font-family="Helvetica,Helvetica" font-size="20.0" fill="#E2E2E2" transform="matrix(1.00, 0.00, -0.00, -1.00, 119.6, 58.1)">n</text><text xml:space="preserve" font-family="Helvetica,Helvetica" font-size="20.0" fill="#E2E2E2" transform="matrix(1.00, 0.00, -0.00, -1.00, 130.7, 58.1)">i</text><text xml:space="preserve" font-family="Helvetica,Helvetica" font-size="20.0" fill="#E2E2E2" transform="matrix(1.00, 0.00, -0.00, -1.00, 135.2, 58.1)">m</text><text xml:space="preserve" font-family="Helvetica,Helvetica" font-size="20.0" fill="#E2E2E2" transform="matrix(1.00, 0.00, -0.00, -1.00, 151.9, 58.1)"> </text><text xml:space="preserve" font-family="Helvetica,Helvetica" font-size="20.0" fill="#E2E2E2" transform="matrix(1.00, 0.00, -0.00, -1.00, 157.4, 58.1)">a</text><text xml:space="preserve" font-family="Helvetica,Helvetica" font-size="20.0" fill="#E2E2E2" transform="matrix(1.00, 0.00, -0.00, -1.00, 168.5, 58.1)">d</text><text xml:space="preserve" font-family="Helvetica,Helvetica" font-size="20.0" fill="#E2E2E2" transform="matrix(1.00, 0.00, -0.00, -1.00, 179.7, 58.1)"> </text><text xml:space="preserve" font-family="Helvetica,Helvetica" font-size="20.0" fill="#E2E2E2" transform="matrix(1.00, 0.00, -0.00, -1.00, 185.2, 58.1)">m</text><text xml:space="preserve" font-family="Helvetica,Helvetica" font-size="20.0" fill="#E2E2E2" transform="matrix(1.00, 0.00, -0.00, -1.00, 201.9, 58.1)">i</text><text xml:space="preserve" font-family="Helvetica,Helvetica" font-size="20.0" fill="#E2E2E2" transform="matrix(1.00, 0.00, -0.00, -1.00, 206.3, 58.1)">n</text><text xml:space="preserve" font-family="Helvetica,Helvetica" font-size="20.0" fill="#E2E2E2" transform="matrix(1.00, 0.00, -0.00, -1.00, 217.4, 58.1)">i</text><text xml:space="preserve" font-family="Helvetica,Helvetica" font-size="20.0" fill="#E2E2E2" transform="matrix(1.00, 0.00, -0.00, -1.00, 221.9, 58.1)">m</text><text xml:space="preserve" font-family="Helvetica,Helvetica" font-size="20.0" fill="#E2E2E2" transform="matrix(1.00, 0.00, -0.00, -1.00, 238.6, 58.1)"> </text><text xml:space="preserve" font-family="Helvetica,Helvetica" font-size="20.0" fill="#E2E2E2" transform="matrix(1.00, 0.00, -0.00, -1.00, 244.1, 58.1)">v</text><text xml:space="preserve" font-family="Helvetica,Helvetica" font-size="20.0" fill="#E2E2E2" transform="matrix(1.00, 0.00, -0.00, -1.00, 254.1, 58.1)">e</text><text xml:space="preserve" font-family="Helvetica,Helvetica" font-size="20.0" fill="#E2E2E2" transform="matrix(1.00, 0.00, -0.00, -1.00, 265.2, 58.1)">n</text><text xml:space="preserve" font-family="Helvetica,Helvetica" font-size="20.0" fill="#E2E2E2" transform="matrix(1.00, 0.00, -0.00, -1.00, 276.4, 58.1)">i</text><text xml:space="preserve" font-family="Helvetica,Helvetica" font-size="20.0" fill="#E2E2E2" transform="matrix(1.00, 0.00, -0.00, -1.00, 280.8, 58.1)">a</text><text xml:space="preserve" font-family="Helvetica,Helvetica" font-size="20.0" fill="#E2E2E2" transform="matrix(1.00, 0.00, -0.00, -1.00, 291.9, 58.1)">m</text><text xml:space="preserve" font-family="Helvetica,Helvetica" font-size="20.0" fill="#E2E2E2" transform="matrix(1.00, 0.00, -0.00, -1.00, 308.6, 58.1)">,</text><text xml:space="preserve" font-family="Helvetica,Helvetica" font-size="20.0" fill="#E2E2E2" transform="matrix(1.00, 0.00, -0.00, -1.00, 314.1, 58.1)"> </text><text xml:space="preserve" font-family="Helvetica,Helvetica" font-size="20.0" fill="#E2E2E2" transform="matrix(1.00, 0.00, -0.00, -1.00, 65.1, 34.1)">q</text><text xml:space="preserve" font-family="Helvetica,Helvetica" font-size="20.0" fill="#E2E2E2" transform="matrix(1.00, 0.00, -0.00, -1.00, 76.3, 34.1)">u</text><text xml:space="preserve" font-family="Helvetica,Helvetica" font-size="20.0" fill="#E2E2E2" transform="matrix(1.00, 0.00, -0.00, -1.00, 87.4, 34.1)">i</text><text xml:space="preserve" font-family="Helvetica,Helvetica" font-size="20.0" fill="#E2E2E2" transform="matrix(1.00, 0.00, -0.00, -1.00, 91.8, 34.1)">s</text><text xml:space="preserve" font-family="Helvetica,Helvetica" font-size="20.0" fill="#E2E2E2" transform="matrix(1.00, 0.00, -0.00, -1.00, 101.8, 34.1)"> </text><text xml:space="preserve" font-family="Helvetica,Helvetica" font-size="20.0" fill="#E2E2E2" transform="matrix(1.00, 0.00, -0.00, -1.00, 107.4, 34.1)">n</text><text xml:space="preserve" font-family="Helvetica,Helvetica" font-size="20.0" fill="#E2E2E2" transform="matrix(1.00, 0.00, -0.00, -1.00, 118.5, 34.1)">o</text><text xml:space="preserve" font-family="Helvetica,Helvetica" font-size="20.0" fill="#E2E2E2" transform="matrix(1.00, 0.00, -0.00, -1.00, 129.6, 34.1)">s</text><text xml:space="preserve" font-family="Helvetica,Helvetica" font-size="20.0" fill="#E2E2E2" transform="matrix(1.00, 0.00, -0.00, -1.00, 139.6, 34.1)">t</text><text xml:space="preserve" font-family="Helvetica,Helvetica" font-size="20.0" fill="#E2E2E2" transform="matrix(1.00, 0.00, -0.00, -1.00, 145.2, 34.1)">r</text><text xml:space="preserve" font-family="Helvetica,Helvetica" font-size="20.0" fill="#E2E2E2" transform="matrix(1.00, 0.00, -0.00, -1.00, 151.8, 34.1)">u</text><text xml:space="preserve" font-family="Helvetica,Helvetica" font-size="20.0" fill="#E2E2E2" transform="matrix(1.00, 0.00, -0.00, -1.00, 163.0, 34.1)">d</text><text xml:space="preserve" font-family="Helvetica,Helvetica" font-size="20.0" fill="#E2E2E2" transform="matrix(1.00, 0.00, -0.00, -1.00, 174.1, 34.1)"> </text><text xml:space="preserve" font-family="Helvetica,Helvetica" font-size="20.0" fill="#E2E2E2" transform="matrix(1.00, 0.00, -0.00, -1.00, 179.7, 34.1)">e</text><text xml:space="preserve" font-family="Helvetica,Helvetica" font-size="20.0" fill="#E2E2E2" transform="matrix(1.00, 0.00, -0.00, -1.00, 190.8, 34.1)">x</text><text xml:space="preserve" font-family="Helvetica,Helvetica" font-size="20.0" fill="#E2E2E2" transform="matrix(1.00, 0.00, -0.00, -1.00, 200.8, 34.1)">e</text><text xml:space="preserve" font-family="Helvetica,Helvetica" font-size="20.0" fill="#E2E2E2" transform="matrix(1.00, 0.00, -0.00, -1.00, 211.9, 34.1)">r</text><text xml:space="preserve" font-family="Helvetica,Helvetica" font-size="20.0" fill="#E2E2E2" transform="matrix(1.00, 0.00, -0.00, -1.00, 218.6, 34.1)">c</text><text xml:space="preserve" font-family="Helvetica,Helvetica" font-size="20.0" fill="#E2E2E2" transform="matrix(1.00, 0.00, -0.00, -1.00, 228.6, 34.1)">i</text><text xml:space="preserve" font-family="Helvetica,Helvetica" font-size="20.0" fill="#E2E2E2" transform="matrix(1.00, 0.00, -0.00, -1.00, 233.0, 34.1)"> </text><text xml:space="preserve" font-family="Helvetica,Helvetica" font-size="20.0" fill="#E2E2E2" transform="matrix(1.00, 0.00, -0.00, -1.00, 238.6, 34.1)">t</text><text xml:space="preserve" font-family="Helvetica,Helvetica" font-size="20.0" fill="#E2E2E2" transform="matrix(1.00, 0.00, -0.00, -1.00, 244.1, 34.1)">a</text><text xml:space="preserve" font-family="Helvetica,Helvetica" font-size="20.0" fill="#E2E2E2" transform="matrix(1.00, 0.00, -0.00, -1.00, 255.2, 34.1)">t</text><text xml:space="preserve" font-family="Helvetica,Helvetica" font-size="20.0" fill="#E2E2E2" transform="matrix(1.00, 0.00, -0.00, -1.00, 260.8, 34.1)">i</text><text xml:space="preserve" font-family="Helvetica,Helvetica" font-size="20.0" fill="#E2E2E2" transform="matrix(1.00, 0.00, -0.00, -1.00, 265.2, 34.1)">o</text><text xml:space="preserve" font-family="Helvetica,Helvetica" font-size="20.0" fill="#E2E2E2" transform="matrix(1.00, 0.00, -0.00, -1.00, 276.4, 34.1)">n</text><text xml:space="preserve" font-family="Helvetica,Helvetica" font-size="20.0" fill="#E2E2E2" transform="matrix(1.00, 0.00, -0.00, -1.00, 287.5, 34.1)">.</text></g></g></g></svg>