<?xml version="1.0" encoding="UTF-8" standalone="no"?><svg xmlns="http://www.w3.org/2000/svg" xmlns:xlink="http://www.w3.org/1999/xlink" clip-rule="evenodd" stroke-miterlimit="10" viewBox="0 0 160 397"><desc>SVG generated by Keynote</desc><defs><linearGradient id="gradSh1.8" x1="0.0" y1="0.0" x2="100.0" y2="0.0" gradientUnits="userSpaceOnUse" gradientTransform="matrix(1.59, 0.00, 0.00, -3.65, 0.1, 182.5)"><stop offset="0.00000" stop-color="#EEC35F"></stop><stop offset="0.00220" stop-color="#EDC35F"></stop><stop offset="1.00000" stop-color="#D9B256"></stop></linearGradient></defs><g transform="matrix(1.00, 0.00, -0.00, -1.00, 0.0, 397.0)"><g><clipPath id="clip0x600009cac0c0"><path d="M 1.1 363.6 L 2.0 33.9 L 80.2 1.2 L 158.0 33.9 L 158.0 363.8 L 80.0 331.6 L 1.1 363.6 Z M 1.1 363.6 "></path></clipPath><g clip-path="url(#clip0x600009cac0c0)"><g><clipPath id="clip0x600009cac1e0"><path d="M 0.1 0.2 L 159.1 0.2 L 159.1 364.8 L 0.1 364.8 Z M 0.1 0.2 "></path></clipPath><g clip-path="url(#clip0x600009cac1e0)"><path d="M 0.1 0.2 L 159.1 0.2 L 159.1 364.8 L 0.1 364.8 Z M 0.1 0.2 " fill="url(#gradSh1.8)"></path></g></g></g></g><g><clipPath id="clip0x6180086bb3c0"><path d="M 0.1 330.3 L 159.3 330.3 L 159.3 396.3 L 0.1 396.3 Z M 0.1 330.3 "></path></clipPath><g clip-path="url(#clip0x6180086bb3c0)"><path d="M 1.1 363.3 L 79.7 331.3 L 158.3 363.3 L 79.7 395.3 Z M 1.1 363.3 " fill="#E1B959"></path></g></g></g></svg>