<?xml version="1.0" encoding="UTF-8" standalone="no"?><svg xmlns="http://www.w3.org/2000/svg" xmlns:xlink="http://www.w3.org/1999/xlink" clip-rule="evenodd" stroke-miterlimit="10" viewBox="0 0 160 429"><desc>SVG generated by Keynote</desc><defs><linearGradient id="gradSh1.6" x1="0.0" y1="0.0" x2="100.0" y2="0.0" gradientUnits="userSpaceOnUse" gradientTransform="matrix(1.59, 0.00, 0.00, -3.96, 0.1, 198.8)"><stop offset="0.00000" stop-color="#FF607B"></stop><stop offset="0.01320" stop-color="#FE607B"></stop><stop offset="1.00000" stop-color="#D74D65"></stop></linearGradient></defs><g transform="matrix(1.00, 0.00, -0.00, -1.00, 0.0, 429.0)"><g><clipPath id="clip0x6100090a0a20"><path d="M 0.2 1.3 L 159.3 1.3 L 159.3 67.3 L 0.2 67.3 Z M 0.2 1.3 "></path></clipPath><g clip-path="url(#clip0x6100090a0a20)"><path d="M 1.2 34.3 L 79.8 2.3 L 158.3 34.3 L 79.8 66.3 Z M 1.2 34.3 " fill="#FF607B" fill-opacity="0.92"></path></g></g><g><clipPath id="clip0x6100090a0540"><path d="M 0.2 362.0 L 159.3 362.0 L 159.3 428.0 L 0.2 428.0 Z M 0.2 362.0 "></path></clipPath><g clip-path="url(#clip0x6100090a0540)"><path d="M 1.2 395.0 L 79.8 363.0 L 158.3 395.0 L 79.8 427.0 Z M 1.2 395.0 " fill="#EE5670"></path></g></g><g><clipPath id="clip0x6100090a0180"><path d="M 1.1 395.8 L 2.0 34.4 L 80.3 1.7 L 158.0 34.5 L 158.0 395.9 L 80.1 363.8 L 1.1 395.8 Z M 1.1 395.8 "></path></clipPath><g clip-path="url(#clip0x6100090a0180)"><g><clipPath id="clip0x6100090a1500"><path d="M 0.1 0.7 L 159.2 0.7 L 159.2 396.9 L 0.1 396.9 Z M 0.1 0.7 "></path></clipPath><g clip-path="url(#clip0x6100090a1500)"><path d="M 0.1 0.7 L 159.2 0.7 L 159.2 396.9 L 0.1 396.9 Z M 0.1 0.7 " fill="url(#gradSh1.6)"></path></g></g></g></g></g></svg>