<?xml version="1.0" encoding="UTF-8" standalone="no"?><svg xmlns="http://www.w3.org/2000/svg" xmlns:xlink="http://www.w3.org/1999/xlink" clip-rule="evenodd" stroke-miterlimit="10" viewBox="0 0 154 154"><desc>SVG generated by Keynote</desc><defs></defs><g transform="matrix(1.00, 0.00, -0.00, -1.00, 0.0, 154.0)"><g><clipPath id="clip0x608007cbed80"><path d="M 32.1 58.5 L 121.9 58.5 L 121.9 148.2 L 32.1 148.2 Z M 32.1 58.5 "></path></clipPath><g clip-path="url(#clip0x608007cbed80)"><path d="M 108.1 134.4 C 125.2 117.2 125.2 89.5 108.1 72.3 C 90.9 55.2 63.1 55.2 46.0 72.3 C 28.9 89.5 28.9 117.2 46.0 134.4 C 63.1 151.5 90.9 151.5 108.1 134.4 Z M 108.1 134.4 " fill="#404756"></path></g></g><g><clipPath id="clip0x608007cbf0e0"><path d="M 0.9 76.9 L 77.0 153.1 L 153.2 76.9 L 77.0 0.8 Z M 0.9 76.9 "></path></clipPath><g clip-path="url(#clip0x608007cbf0e0)"><image xlink:href="../../1EA97D9C-1B42-4FD9-8B98-B9945FAEBD61/assets/3F560DFC90E833ED7530BA47DB617797.png" width="106.00" height="106.00" transform="matrix(0.71, 0.71, 0.71, -0.71, 2.3, 76.9)" opacity="0.75"></image><path d="M 41.9 76.9 L 77.0 41.8 L 112.2 76.9 Z M 41.9 76.9 " fill="#404756"></path></g></g><g><clipPath id="clip0x60000a0ae1c0"><path d="M 51.4 78.5 L 102.7 78.5 L 102.7 126.5 L 51.4 126.5 Z M 51.4 78.5 "></path></clipPath><g clip-path="url(#clip0x60000a0ae1c0)"></g></g></g></svg>