<?xml version="1.0" encoding="UTF-8" standalone="no"?><svg xmlns="http://www.w3.org/2000/svg" xmlns:xlink="http://www.w3.org/1999/xlink" clip-rule="evenodd" stroke-miterlimit="10" viewBox="0 0 153 154"><desc>SVG generated by Keynote</desc><defs></defs><g transform="matrix(1.00, 0.00, -0.00, -1.00, 0.0, 154.0)"><g><clipPath id="clip0x60000a0ac840"><path d="M 31.9 58.7 L 121.6 58.7 L 121.6 148.5 L 31.9 148.5 Z M 31.9 58.7 "></path></clipPath><g clip-path="url(#clip0x60000a0ac840)"><path d="M 107.8 134.6 C 124.9 117.5 124.9 89.7 107.8 72.5 C 90.6 55.4 62.8 55.4 45.7 72.5 C 28.6 89.7 28.6 117.5 45.7 134.6 C 62.8 151.7 90.6 151.7 107.8 134.6 Z M 107.8 134.6 " fill="#404756"></path></g></g><g><clipPath id="clip0x60000a0ad0e0"><path d="M 0.6 77.1 L 76.7 153.3 L 152.9 77.1 L 76.7 1.0 Z M 0.6 77.1 "></path></clipPath><g clip-path="url(#clip0x60000a0ad0e0)"><image xlink:href="3F560DFC90E833ED7530BA47DB617797.png" width="106.00" height="106.00" transform="matrix(0.71, 0.71, 0.71, -0.71, 2.0, 77.1)" opacity="0.75"></image><path d="M 41.6 77.1 L 76.7 42.0 L 111.9 77.1 Z M 41.6 77.1 " fill="#404756"></path></g></g><g><clipPath id="clip0x6180086bb7e0"><path d="M 50.0 78.7 L 103.5 78.7 L 103.5 126.7 L 50.0 126.7 Z M 50.0 78.7 "></path></clipPath><g clip-path="url(#clip0x6180086bb7e0)"></g></g></g></svg>