<?xml version="1.0" encoding="UTF-8" standalone="no"?><svg xmlns="http://www.w3.org/2000/svg" xmlns:xlink="http://www.w3.org/1999/xlink" clip-rule="evenodd" stroke-miterlimit="10" viewBox="0 0 160 513"><desc>SVG generated by Keynote</desc><defs><linearGradient id="gradSh1.7" x1="0.0" y1="0.0" x2="100.0" y2="0.0" gradientUnits="userSpaceOnUse" gradientTransform="matrix(1.59, 0.00, 0.00, -4.80, 0.9, 240.8)"><stop offset="0.00000" stop-color="#55C6E1"></stop><stop offset="0.01026" stop-color="#54C6E1"></stop><stop offset="1.00000" stop-color="#45A9C1"></stop></linearGradient></defs><g transform="matrix(1.00, 0.00, -0.00, -1.00, 0.0, 513.0)"><g><clipPath id="clip0x6100096a1b00"><path d="M 0.8 446.2 L 159.9 446.2 L 159.9 512.2 L 0.8 512.2 Z M 0.8 446.2 "></path></clipPath><g clip-path="url(#clip0x6100096a1b00)"><path d="M 1.8 479.2 L 80.4 447.2 L 158.9 479.2 L 80.4 511.2 Z M 1.8 479.2 " fill="#4BB8D0"></path></g></g><g><clipPath id="clip0x6100096a1da0"><path d="M 1.9 479.7 L 3.0 34.4 L 81.0 1.7 L 159.0 34.5 L 159.0 479.9 L 80.8 447.7 L 1.9 479.7 Z M 1.9 479.7 "></path></clipPath><g clip-path="url(#clip0x6100096a1da0)"><g><clipPath id="clip0x6100096a1f20"><path d="M 0.9 0.7 L 159.9 0.7 L 159.9 480.9 L 0.9 480.9 Z M 0.9 0.7 "></path></clipPath><g clip-path="url(#clip0x6100096a1f20)"><path d="M 0.9 0.7 L 159.9 0.7 L 159.9 480.9 L 0.9 480.9 Z M 0.9 0.7 " fill="url(#gradSh1.7)"></path></g></g></g></g></g></svg>