<?xml version="1.0" encoding="UTF-8" standalone="no"?><svg xmlns="http://www.w3.org/2000/svg" xmlns:xlink="http://www.w3.org/1999/xlink" clip-rule="evenodd" stroke-miterlimit="10" viewBox="0 0 390 56"><desc>SVG generated by Keynote</desc><defs></defs><g transform="matrix(1.00, 0.00, -0.00, -1.00, 0.0, 56.0)"><text xml:space="preserve" font-family="Helvetica,Helvetica" font-size="54.0" fill="#E2E2E2" transform="matrix(1.00, 0.00, -0.00, -1.00, 1.4, 13.7)">A</text><text xml:space="preserve" font-family="Helvetica,Helvetica" font-size="54.0" fill="#E2E2E2" transform="matrix(1.00, 0.00, -0.00, -1.00, 37.4, 13.7)">b</text><text xml:space="preserve" font-family="Helvetica,Helvetica" font-size="54.0" fill="#E2E2E2" transform="matrix(1.00, 0.00, -0.00, -1.00, 67.4, 13.7)">o</text><text xml:space="preserve" font-family="Helvetica,Helvetica" font-size="54.0" fill="#E2E2E2" transform="matrix(1.00, 0.00, -0.00, -1.00, 97.5, 13.7)">u</text><text xml:space="preserve" font-family="Helvetica,Helvetica" font-size="54.0" fill="#E2E2E2" transform="matrix(1.00, 0.00, -0.00, -1.00, 127.5, 13.7)">t</text><text xml:space="preserve" font-family="Helvetica,Helvetica" font-size="54.0" fill="#E2E2E2" transform="matrix(1.00, 0.00, -0.00, -1.00, 142.5, 13.7)"> </text><text xml:space="preserve" font-family="Helvetica,Helvetica" font-size="54.0" fill="#E2E2E2" transform="matrix(1.00, 0.00, -0.00, -1.00, 157.5, 13.7)">C</text><text xml:space="preserve" font-family="Helvetica,Helvetica" font-size="54.0" fill="#E2E2E2" transform="matrix(1.00, 0.00, -0.00, -1.00, 196.5, 13.7)">o</text><text xml:space="preserve" font-family="Helvetica,Helvetica" font-size="54.0" fill="#E2E2E2" transform="matrix(1.00, 0.00, -0.00, -1.00, 226.6, 13.7)">m</text><text xml:space="preserve" font-family="Helvetica,Helvetica" font-size="54.0" fill="#E2E2E2" transform="matrix(1.00, 0.00, -0.00, -1.00, 271.5, 13.7)">p</text><text xml:space="preserve" font-family="Helvetica,Helvetica" font-size="54.0" fill="#E2E2E2" transform="matrix(1.00, 0.00, -0.00, -1.00, 301.6, 13.7)">a</text><text xml:space="preserve" font-family="Helvetica,Helvetica" font-size="54.0" fill="#E2E2E2" transform="matrix(1.00, 0.00, -0.00, -1.00, 331.6, 13.7)">n</text><text xml:space="preserve" font-family="Helvetica,Helvetica" font-size="54.0" fill="#E2E2E2" transform="matrix(1.00, 0.00, -0.00, -1.00, 361.7, 13.7)">y</text></g></svg>