<?xml version="1.0" encoding="UTF-8" standalone="no"?><svg xmlns="http://www.w3.org/2000/svg" xmlns:xlink="http://www.w3.org/1999/xlink" clip-rule="evenodd" stroke-miterlimit="10" viewBox="0 0 676 78"><desc>SVG generated by Keynote</desc><defs></defs><g transform="matrix(1.00, 0.00, -0.00, -1.00, 0.0, 78.0)"><g><clipPath id="clip0x610001ab1340"><path d="M 2.3 0.4 L 675.7 0.4 L 675.7 32.7 L 2.3 32.7 Z M 2.3 0.4 "></path></clipPath><g clip-path="url(#clip0x610001ab1340)"><path d="M 3.0 32.0 L 675.0 32.0 L 675.0 1.0 L 3.0 1.0 Z M 3.3 31.7 " fill="#677188"></path></g></g><g><clipPath id="clip0x610001ab1b20"><path d="M 2.3 0.5 L 613.4 0.5 L 613.4 32.7 L 2.3 32.7 Z M 2.3 0.5 "></path></clipPath><g clip-path="url(#clip0x610001ab1b20)"><path d="M 3.0 32.0 L 612.0 32.0 L 612.0 2.0 L 3.0 2.0 Z M 3.3 31.7 " fill="#54C6E1"></path></g></g><g><clipPath id="clip0x610001ab1d60"><path d="M 0.1 32.0 L 131.6 32.0 L 131.6 69.0 L 0.1 69.0 Z M 0.1 32.0 "></path></clipPath><g clip-path="url(#clip0x610001ab1d60)"><text xml:space="preserve" font-family="Helvetica,Helvetica" font-size="22.0" fill="#E2E2E2" transform="matrix(1.00, 0.00, -0.00, -1.00, 5.6, 42.5)">W</text><text xml:space="preserve" font-family="Helvetica,Helvetica" font-size="22.0" fill="#E2E2E2" transform="matrix(1.00, 0.00, -0.00, -1.00, 26.0, 42.5)">e</text><text xml:space="preserve" font-family="Helvetica,Helvetica" font-size="22.0" fill="#E2E2E2" transform="matrix(1.00, 0.00, -0.00, -1.00, 38.2, 42.5)">b</text><text xml:space="preserve" font-family="Helvetica,Helvetica" font-size="22.0" fill="#E2E2E2" transform="matrix(1.00, 0.00, -0.00, -1.00, 50.5, 42.5)"> </text><text xml:space="preserve" font-family="Helvetica,Helvetica" font-size="22.0" fill="#E2E2E2" transform="matrix(1.00, 0.00, -0.00, -1.00, 56.6, 42.5)">D</text><text xml:space="preserve" font-family="Helvetica,Helvetica" font-size="22.0" fill="#E2E2E2" transform="matrix(1.00, 0.00, -0.00, -1.00, 72.5, 42.5)">e</text><text xml:space="preserve" font-family="Helvetica,Helvetica" font-size="22.0" fill="#E2E2E2" transform="matrix(1.00, 0.00, -0.00, -1.00, 84.7, 42.5)">s</text><text xml:space="preserve" font-family="Helvetica,Helvetica" font-size="22.0" fill="#E2E2E2" transform="matrix(1.00, 0.00, -0.00, -1.00, 95.7, 42.5)">i</text><text xml:space="preserve" font-family="Helvetica,Helvetica" font-size="22.0" fill="#E2E2E2" transform="matrix(1.00, 0.00, -0.00, -1.00, 100.6, 42.5)">g</text><text xml:space="preserve" font-family="Helvetica,Helvetica" font-size="22.0" fill="#E2E2E2" transform="matrix(1.00, 0.00, -0.00, -1.00, 112.9, 42.5)">n</text></g></g><g><clipPath id="clip0x610001ab2300"><path d="M 578.4 37.7 L 646.2 37.7 L 646.2 76.9 L 578.4 76.9 Z M 578.4 37.7 "></path></clipPath><g clip-path="url(#clip0x610001ab2300)"><path d="M 581.9 76.0 C 580.5 75.9 579.0 74.8 579.0 73.4 L 579.0 46.3 C 579.0 45.0 580.5 44.0 581.9 44.0 L 606.7 44.0 L 611.9 38.7 L 617.1 44.0 L 642.7 44.0 C 644.1 44.0 645.0 45.0 645.0 46.3 L 645.0 73.4 C 645.0 74.8 644.1 76.0 642.7 76.0 L 581.9 76.0 Z M 581.9 75.9 " fill="#E2E2E2"></path></g></g><g><clipPath id="clip0x610001ab2540"><path d="M 589.3 45.6 L 635.3 45.6 L 635.3 76.6 L 589.3 76.6 Z M 589.3 45.6 "></path></clipPath><g clip-path="url(#clip0x610001ab2540)"><text xml:space="preserve" font-family="Helvetica,Helvetica" font-size="18.0" fill="#5A6378" transform="matrix(1.00, 0.00, -0.00, -1.00, 594.3, 54.2)">9</text><text xml:space="preserve" font-family="Helvetica,Helvetica" font-size="18.0" fill="#5A6378" transform="matrix(1.00, 0.00, -0.00, -1.00, 604.3, 54.2)">3</text><text xml:space="preserve" font-family="Helvetica,Helvetica" font-size="18.0" fill="#5A6378" transform="matrix(1.00, 0.00, -0.00, -1.00, 614.3, 54.2)">%</text></g></g></g></svg>