<?xml version="1.0" encoding="UTF-8" standalone="no"?><svg xmlns="http://www.w3.org/2000/svg" xmlns:xlink="http://www.w3.org/1999/xlink" clip-rule="evenodd" stroke-miterlimit="10" viewBox="0 0 676 78"><desc>SVG generated by Keynote</desc><defs></defs><g transform="matrix(1.00, 0.00, -0.00, -1.00, 0.0, 78.0)"><g><clipPath id="clip0x608001eb2d20"><path d="M 2.3 1.1 L 675.7 1.1 L 675.7 33.0 L 2.3 33.0 Z M 2.3 1.1 "></path></clipPath><g clip-path="url(#clip0x608001eb2d20)"><path d="M 3.0 32.0 L 675.0 32.0 L 675.0 2.0 L 3.0 2.0 Z M 3.3 32.0 " fill="#677188"></path></g></g><g><clipPath id="clip0x608001eb2fc0"><path d="M 2.3 0.9 L 567.7 0.9 L 567.7 33.0 L 2.3 33.0 Z M 2.3 0.9 "></path></clipPath><g clip-path="url(#clip0x608001eb2fc0)"><path d="M 3.0 32.0 L 567.0 32.0 L 567.0 2.0 L 3.0 2.0 Z M 3.3 32.0 " fill="#EDC25F"></path></g></g><g><clipPath id="clip0x608001eb3200"><path d="M 0.1 32.3 L 118.1 32.3 L 118.1 69.3 L 0.1 69.3 Z M 0.1 32.3 "></path></clipPath><g clip-path="url(#clip0x608001eb3200)"><text xml:space="preserve" font-family="Helvetica,Helvetica" font-size="22.0" fill="#E2E2E2" transform="matrix(1.00, 0.00, -0.00, -1.00, 5.6, 42.9)">W</text><text xml:space="preserve" font-family="Helvetica,Helvetica" font-size="22.0" fill="#E2E2E2" transform="matrix(1.00, 0.00, -0.00, -1.00, 26.0, 42.9)">o</text><text xml:space="preserve" font-family="Helvetica,Helvetica" font-size="22.0" fill="#E2E2E2" transform="matrix(1.00, 0.00, -0.00, -1.00, 38.2, 42.9)">r</text><text xml:space="preserve" font-family="Helvetica,Helvetica" font-size="22.0" fill="#E2E2E2" transform="matrix(1.00, 0.00, -0.00, -1.00, 45.6, 42.9)">d</text><text xml:space="preserve" font-family="Helvetica,Helvetica" font-size="22.0" fill="#E2E2E2" transform="matrix(1.00, 0.00, -0.00, -1.00, 57.8, 42.9)">p</text><text xml:space="preserve" font-family="Helvetica,Helvetica" font-size="22.0" fill="#E2E2E2" transform="matrix(1.00, 0.00, -0.00, -1.00, 70.0, 42.9)">r</text><text xml:space="preserve" font-family="Helvetica,Helvetica" font-size="22.0" fill="#E2E2E2" transform="matrix(1.00, 0.00, -0.00, -1.00, 77.4, 42.9)">e</text><text xml:space="preserve" font-family="Helvetica,Helvetica" font-size="22.0" fill="#E2E2E2" transform="matrix(1.00, 0.00, -0.00, -1.00, 89.6, 42.9)">s</text><text xml:space="preserve" font-family="Helvetica,Helvetica" font-size="22.0" fill="#E2E2E2" transform="matrix(1.00, 0.00, -0.00, -1.00, 100.6, 42.9)">s</text></g></g><g><clipPath id="clip0x608001eb3740"><path d="M 531.3 38.1 L 599.1 38.1 L 599.1 77.3 L 531.3 77.3 Z M 531.3 38.1 "></path></clipPath><g clip-path="url(#clip0x608001eb3740)"><path d="M 534.9 76.0 C 533.5 76.3 532.0 75.1 532.0 73.7 L 532.0 46.7 C 532.0 45.3 533.5 44.0 534.9 44.0 L 559.6 44.0 L 564.8 39.1 L 570.0 44.0 L 595.6 44.0 C 597.0 44.0 598.0 45.3 598.0 46.7 L 598.0 73.7 C 598.0 75.1 597.0 76.0 595.6 76.0 L 534.9 76.0 Z M 534.9 76.3 " fill="#E2E2E2"></path></g></g><g><clipPath id="clip0x608001eb3980"><path d="M 542.2 45.9 L 588.2 45.9 L 588.2 76.9 L 542.2 76.9 Z M 542.2 45.9 "></path></clipPath><g clip-path="url(#clip0x608001eb3980)"><text xml:space="preserve" font-family="Helvetica,Helvetica" font-size="18.0" fill="#5A6378" transform="matrix(1.00, 0.00, -0.00, -1.00, 547.2, 54.6)">8</text><text xml:space="preserve" font-family="Helvetica,Helvetica" font-size="18.0" fill="#5A6378" transform="matrix(1.00, 0.00, -0.00, -1.00, 557.2, 54.6)">6</text><text xml:space="preserve" font-family="Helvetica,Helvetica" font-size="18.0" fill="#5A6378" transform="matrix(1.00, 0.00, -0.00, -1.00, 567.2, 54.6)">%</text></g></g></g></svg>