<?xml version="1.0" encoding="UTF-8" standalone="no"?><svg xmlns="http://www.w3.org/2000/svg" xmlns:xlink="http://www.w3.org/1999/xlink" clip-rule="evenodd" stroke-miterlimit="10" viewBox="0 0 679 78"><desc>SVG generated by Keynote</desc><defs></defs><g transform="matrix(1.00, 0.00, -0.00, -1.00, 0.0, 78.0)"><g><clipPath id="clip0x608001eb1700"><path d="M 4.3 0.4 L 678.2 0.4 L 678.2 32.4 L 4.3 32.4 Z M 4.3 0.4 "></path></clipPath><g clip-path="url(#clip0x608001eb1700)"><path d="M 5.0 31.0 L 677.0 31.0 L 677.0 1.0 L 5.0 1.0 Z M 5.3 31.4 " fill="#677188"></path></g></g><g><clipPath id="clip0x608001eb1d00"><path d="M 4.3 0.9 L 587.6 0.9 L 587.6 32.4 L 4.3 32.4 Z M 4.3 0.9 "></path></clipPath><g clip-path="url(#clip0x608001eb1d00)"><path d="M 5.0 31.0 L 587.0 31.0 L 587.0 2.0 L 5.0 2.0 Z M 5.3 31.4 " fill="#FF607B"></path></g></g><g><clipPath id="clip0x608001eb1f40"><path d="M 0.3 31.7 L 117.5 31.7 L 117.5 68.7 L 0.3 68.7 Z M 0.3 31.7 "></path></clipPath><g clip-path="url(#clip0x608001eb1f40)"><text xml:space="preserve" font-family="Helvetica,Helvetica" font-size="22.0" fill="#E2E2E2" transform="matrix(1.00, 0.00, -0.00, -1.00, 6.3, 42.2)">P</text><text xml:space="preserve" font-family="Helvetica,Helvetica" font-size="22.0" fill="#E2E2E2" transform="matrix(1.00, 0.00, -0.00, -1.00, 21.0, 42.2)">h</text><text xml:space="preserve" font-family="Helvetica,Helvetica" font-size="22.0" fill="#E2E2E2" transform="matrix(1.00, 0.00, -0.00, -1.00, 33.2, 42.2)">o</text><text xml:space="preserve" font-family="Helvetica,Helvetica" font-size="22.0" fill="#E2E2E2" transform="matrix(1.00, 0.00, -0.00, -1.00, 45.5, 42.2)">t</text><text xml:space="preserve" font-family="Helvetica,Helvetica" font-size="22.0" fill="#E2E2E2" transform="matrix(1.00, 0.00, -0.00, -1.00, 51.6, 42.2)">o</text><text xml:space="preserve" font-family="Helvetica,Helvetica" font-size="22.0" fill="#E2E2E2" transform="matrix(1.00, 0.00, -0.00, -1.00, 63.8, 42.2)">s</text><text xml:space="preserve" font-family="Helvetica,Helvetica" font-size="22.0" fill="#E2E2E2" transform="matrix(1.00, 0.00, -0.00, -1.00, 74.8, 42.2)">h</text><text xml:space="preserve" font-family="Helvetica,Helvetica" font-size="22.0" fill="#E2E2E2" transform="matrix(1.00, 0.00, -0.00, -1.00, 87.1, 42.2)">o</text><text xml:space="preserve" font-family="Helvetica,Helvetica" font-size="22.0" fill="#E2E2E2" transform="matrix(1.00, 0.00, -0.00, -1.00, 99.3, 42.2)">p</text></g></g><g><clipPath id="clip0x608001eb2480"><path d="M 550.8 38.4 L 618.7 38.4 L 618.7 77.6 L 550.8 77.6 Z M 550.8 38.4 "></path></clipPath><g clip-path="url(#clip0x608001eb2480)"><path d="M 554.4 77.0 C 553.0 76.6 552.0 75.4 552.0 74.0 L 552.0 47.0 C 552.0 45.6 553.0 44.0 554.4 44.0 L 579.1 44.0 L 584.3 39.4 L 589.6 44.0 L 615.1 44.0 C 616.5 44.0 618.0 45.6 618.0 47.0 L 618.0 74.0 C 618.0 75.4 616.5 77.0 615.1 77.0 L 554.4 77.0 Z M 554.4 76.6 " fill="#E2E2E2"></path></g></g><g><clipPath id="clip0x608001eb26c0"><path d="M 561.7 46.2 L 607.8 46.2 L 607.8 77.2 L 561.7 77.2 Z M 561.7 46.2 "></path></clipPath><g clip-path="url(#clip0x608001eb26c0)"><text xml:space="preserve" font-family="Helvetica,Helvetica" font-size="18.0" fill="#5A6378" transform="matrix(1.00, 0.00, -0.00, -1.00, 566.7, 54.9)">9</text><text xml:space="preserve" font-family="Helvetica,Helvetica" font-size="18.0" fill="#5A6378" transform="matrix(1.00, 0.00, -0.00, -1.00, 576.8, 54.9)">0</text><text xml:space="preserve" font-family="Helvetica,Helvetica" font-size="18.0" fill="#5A6378" transform="matrix(1.00, 0.00, -0.00, -1.00, 586.8, 54.9)">%</text></g></g></g></svg>