<?xml version="1.0" encoding="UTF-8" standalone="no"?><svg xmlns="http://www.w3.org/2000/svg" xmlns:xlink="http://www.w3.org/1999/xlink" clip-rule="evenodd" stroke-miterlimit="10" viewBox="0 0 167 138"><desc>SVG generated by Keynote</desc><defs></defs><g transform="matrix(1.00, 0.00, -0.00, -1.00, 0.0, 138.0)"><path d="M 79.8 42.4 C 80.0 42.4 80.1 42.4 80.2 42.4 C 80.2 42.3 80.1 42.3 80.2 42.1 C 80.0 42.2 79.8 42.2 79.5 42.1 C 79.5 42.2 79.6 42.2 79.7 42.2 C 79.9 42.3 79.8 42.4 79.8 42.4 C 79.8 42.4 79.8 42.4 79.8 42.4 Z M 115.4 59.1 C 115.2 58.9 115.2 59.3 115.3 59.4 C 115.4 59.4 115.4 59.3 115.5 59.4 C 115.3 59.6 115.1 59.5 114.9 59.4 C 114.5 58.8 115.1 58.9 115.4 59.1 C 115.4 59.1 115.4 59.1 115.4 59.1 Z M 135.5 94.3 C 135.7 95.0 135.8 94.2 135.8 94.1 C 136.0 94.4 136.3 94.0 136.4 94.4 C 136.3 94.6 136.3 94.7 136.2 94.9 C 136.1 94.7 136.1 94.4 136.0 94.4 C 136.0 94.6 136.2 95.0 136.1 95.1 C 135.9 94.5 135.8 95.0 135.7 95.2 C 135.6 94.7 135.3 94.6 135.5 94.3 C 135.5 94.3 135.5 94.3 135.5 94.3 Z M 35.2 47.4 C 35.0 47.4 34.8 47.5 34.8 47.3 C 35.0 47.2 35.1 47.2 35.3 47.2 C 35.3 47.1 35.2 47.0 35.3 46.9 C 35.6 47.1 35.6 47.4 35.6 47.5 C 35.5 47.4 34.8 47.7 35.2 47.4 C 35.2 47.4 35.2 47.4 35.2 47.4 Z M 51.6 42.1 C 52.2 42.1 51.6 41.7 52.2 41.7 C 52.2 41.9 52.3 42.1 52.0 42.2 C 51.9 42.1 51.7 42.2 51.6 42.1 C 51.6 42.1 51.6 42.1 51.6 42.1 Z M 130.5 76.5 C 130.4 76.6 130.6 76.9 130.4 76.9 C 130.3 76.8 130.2 76.6 130.1 76.4 C 130.2 76.3 130.4 76.3 130.5 76.5 C 130.5 76.5 130.5 76.5 130.5 76.5 Z M 139.1 98.8 C 139.0 99.6 139.6 100.4 139.3 100.2 C 139.1 100.6 138.5 99.8 138.7 99.8 C 139.0 99.6 138.9 98.2 139.1 98.8 C 139.1 98.8 139.1 98.8 139.1 98.8 Z M 120.7 58.6 C 121.1 59.3 121.5 58.7 121.5 59.3 C 121.4 59.2 121.3 59.2 121.2 59.2 C 121.3 59.3 121.4 59.4 121.4 59.5 C 121.1 59.2 120.8 59.0 120.7 58.6 C 120.7 58.6 120.7 58.6 120.7 58.6 Z M 70.9 41.2 C 70.8 41.2 70.8 41.2 70.8 41.3 C 70.4 41.3 70.4 41.5 70.1 41.3 C 70.1 41.0 70.5 41.1 70.8 41.2 C 70.8 41.1 70.9 41.1 70.9 41.2 C 70.9 41.2 70.9 41.2 70.9 41.2 Z M 58.7 41.0 C 58.7 41.2 59.0 41.2 58.6 41.4 C 58.1 41.1 58.5 40.9 58.9 40.7 C 58.9 40.6 58.9 40.4 58.9 40.3 C 58.7 40.4 58.6 40.3 58.4 40.3 C 58.4 40.7 58.0 40.1 57.3 40.4 C 57.6 40.2 57.2 40.0 57.7 40.0 C 57.5 39.8 57.8 39.8 57.8 39.6 C 57.6 39.8 57.1 39.8 57.2 40.1 C 57.0 40.1 56.8 40.1 56.6 40.1 C 56.4 39.9 57.1 40.0 56.9 39.7 C 56.7 39.8 56.7 39.7 56.6 39.7 C 56.6 39.8 56.7 39.9 56.5 40.0 C 56.0 39.9 56.5 39.6 55.9 39.7 C 55.8 39.9 56.0 39.9 56.0 40.0 C 55.8 40.2 55.8 40.0 55.5 40.2 C 55.4 40.1 55.7 40.0 55.4 40.0 C 55.3 40.4 54.8 39.8 54.4 40.2 C 54.8 40.7 54.3 40.1 54.1 40.7 C 54.0 40.6 54.2 40.2 53.8 40.2 C 54.1 40.8 52.7 40.9 53.9 41.2 C 53.3 41.3 53.2 41.8 53.7 41.8 C 52.7 41.9 53.1 42.1 52.7 42.2 C 52.3 42.3 52.9 42.1 52.6 41.9 C 53.0 41.9 52.9 41.7 53.2 41.8 C 53.2 41.7 53.3 41.6 53.3 41.6 C 53.0 41.8 52.4 41.5 52.7 41.2 C 52.9 41.2 52.7 41.5 53.0 41.5 C 52.8 41.1 53.3 41.5 53.3 41.2 C 53.0 41.0 53.5 40.6 53.0 40.6 C 53.0 40.8 53.0 40.9 53.1 41.0 C 52.9 41.1 52.8 41.1 52.6 41.1 C 52.5 40.9 52.5 40.7 52.4 40.7 C 52.1 40.7 52.0 40.8 52.0 40.9 C 52.3 40.9 52.7 41.0 52.2 41.2 C 52.3 40.7 51.5 41.2 51.8 40.9 C 51.3 40.8 51.1 41.3 50.9 41.0 C 50.7 41.0 50.9 41.3 50.5 41.3 C 50.0 41.2 50.1 41.5 49.4 41.5 C 49.4 41.9 49.3 41.4 49.0 41.5 C 49.1 41.6 49.1 41.7 49.1 41.9 C 48.8 41.7 48.2 41.8 47.6 42.1 C 47.5 42.1 47.5 41.9 47.1 42.0 C 46.8 42.5 46.2 42.2 45.8 42.7 C 45.7 42.6 45.3 42.7 45.1 42.8 C 45.0 42.7 45.2 42.4 44.9 42.5 C 44.7 42.8 45.1 42.7 44.7 42.9 C 44.7 42.7 44.3 43.3 44.2 43.0 C 44.4 42.9 44.5 42.7 44.6 42.6 C 44.4 42.7 44.4 42.5 44.3 42.6 C 44.4 42.9 43.9 42.7 43.8 42.7 C 43.9 42.8 43.9 42.9 43.8 43.0 C 43.5 43.1 43.3 43.2 43.2 43.3 C 42.8 43.3 43.3 43.0 43.0 43.1 C 43.0 43.7 42.5 43.2 41.9 43.8 C 41.7 43.6 41.3 43.6 40.9 43.7 C 40.9 43.9 41.3 43.7 41.4 43.8 C 40.7 44.0 41.6 43.9 41.2 44.1 C 40.2 44.2 39.6 44.4 38.5 44.6 C 38.6 44.8 37.9 45.2 37.9 45.1 C 38.1 45.0 37.3 44.9 37.0 45.0 C 37.1 45.5 36.7 46.0 36.7 46.2 C 36.5 46.0 36.6 46.0 36.4 45.7 C 35.8 45.8 35.6 46.2 35.1 46.0 C 35.2 46.2 35.0 46.3 34.8 46.5 C 34.8 46.3 34.9 46.1 34.9 45.9 C 34.6 46.0 34.6 45.9 34.3 46.1 C 34.3 46.8 33.5 46.2 33.6 46.9 C 33.2 47.0 33.1 46.8 32.7 46.9 C 32.8 47.0 32.8 47.2 32.7 47.3 C 32.9 47.1 33.1 46.8 33.3 47.0 C 32.8 47.3 34.6 47.2 33.8 47.9 C 33.7 47.8 33.8 47.6 33.5 47.6 C 33.0 47.9 33.5 48.0 33.7 47.9 C 33.3 48.2 32.9 48.3 33.3 48.4 C 32.5 48.8 33.0 48.4 32.7 48.4 C 31.2 49.2 29.4 50.1 27.3 50.8 C 27.4 51.1 26.2 51.3 25.7 51.3 C 25.3 51.8 24.7 52.2 24.4 52.0 C 24.4 52.3 23.6 52.1 23.7 52.4 C 23.9 52.3 24.1 52.3 23.9 52.5 C 23.0 52.8 21.7 53.3 21.3 53.8 C 20.9 53.6 20.4 54.0 20.1 54.3 C 20.0 54.2 20.2 54.0 20.0 54.1 C 20.0 54.3 19.3 54.9 19.0 54.8 C 19.3 54.7 19.4 54.3 19.0 54.4 C 19.1 54.6 18.7 54.8 18.9 54.9 C 18.3 55.1 18.1 55.4 17.6 55.5 C 18.0 55.3 18.1 55.1 18.1 54.9 C 17.9 55.2 17.7 55.4 17.3 55.3 C 17.6 55.6 17.0 55.6 16.6 56.1 C 16.4 56.0 16.2 56.0 15.9 56.2 C 15.8 56.5 16.6 56.1 16.2 56.4 C 16.1 56.3 15.6 56.4 15.9 56.6 C 15.3 56.8 15.1 57.1 14.6 57.1 C 15.2 56.9 14.6 56.8 14.4 56.9 C 14.3 56.9 14.2 57.0 14.2 57.1 C 14.2 57.2 14.5 57.0 14.6 57.1 C 14.1 57.2 14.3 57.6 14.0 57.5 C 14.2 57.4 14.1 57.3 13.9 57.3 C 14.1 57.7 12.9 58.1 13.1 57.7 C 13.2 57.8 13.6 57.6 13.6 57.4 C 13.4 57.4 12.9 57.9 12.9 57.6 C 13.2 57.4 13.3 57.5 13.7 57.2 C 13.6 57.1 13.8 56.9 13.9 56.7 C 13.3 57.1 13.3 57.4 13.0 57.2 C 12.8 57.4 13.1 57.6 12.6 57.8 C 11.8 58.1 12.3 57.6 12.1 57.6 C 11.5 58.1 11.9 58.3 12.3 58.3 C 11.8 58.6 11.7 58.8 11.1 59.1 C 11.1 59.0 11.1 58.9 11.3 58.7 C 11.3 58.7 11.9 58.6 11.7 58.5 C 11.5 58.2 11.0 58.3 10.4 58.7 C 10.7 58.9 10.6 58.7 10.0 59.1 C 10.3 59.3 9.7 59.2 9.8 59.4 C 9.9 59.5 10.1 59.3 10.3 59.2 C 10.4 59.3 10.4 59.5 10.2 59.6 C 10.0 59.6 10.0 59.8 9.5 60.0 C 9.4 59.8 9.6 59.6 9.6 59.4 C 9.4 59.6 9.4 59.7 9.3 59.9 C 9.0 59.8 8.8 59.5 8.6 59.2 C 8.8 59.0 9.2 58.8 8.8 58.8 C 9.7 58.2 9.0 59.1 9.3 59.0 C 9.5 58.4 9.5 58.9 10.1 58.5 C 10.3 58.4 10.3 58.3 10.3 58.2 C 10.3 58.2 9.8 58.2 10.2 57.9 C 10.3 58.0 10.6 58.0 10.9 57.8 C 10.9 57.7 10.2 58.0 10.8 57.6 C 11.1 57.5 11.0 57.9 11.4 57.6 C 11.4 57.6 11.5 57.5 11.5 57.4 C 10.9 57.8 11.5 57.2 11.0 57.3 C 11.5 56.9 11.3 57.5 11.6 57.2 C 11.5 57.1 12.3 57.0 12.1 56.7 C 12.0 57.0 11.5 57.2 11.4 57.0 C 11.9 56.8 13.6 55.5 13.1 56.3 C 13.3 56.0 14.4 54.9 14.4 55.1 C 14.0 55.3 14.1 55.5 14.1 55.6 C 14.7 54.9 15.2 54.9 15.9 54.2 C 15.0 54.6 15.5 53.9 14.8 54.0 C 14.6 54.2 14.3 54.3 14.3 54.5 C 14.5 54.6 14.8 54.3 14.9 54.1 C 15.0 54.3 15.1 54.5 15.2 54.7 C 14.1 55.0 13.7 55.5 13.2 55.7 C 13.6 55.5 12.2 55.9 12.7 55.6 C 12.9 55.6 13.4 55.3 13.9 55.2 C 13.8 55.1 13.8 55.0 13.7 54.9 C 13.9 54.8 14.2 54.7 14.1 54.6 C 13.6 55.0 13.2 54.9 12.9 55.3 C 12.9 55.3 12.9 55.2 12.8 55.2 C 12.8 55.2 12.7 55.3 12.7 55.2 C 12.8 55.1 13.1 55.0 13.1 54.9 C 12.6 55.1 12.5 54.9 12.0 55.1 C 11.9 54.8 11.2 54.9 11.8 54.4 C 12.0 54.6 12.4 54.5 12.5 54.6 C 12.7 54.5 13.1 54.3 13.2 54.0 C 12.9 54.0 12.5 54.2 12.4 54.0 C 12.7 53.8 12.9 53.5 13.2 53.6 C 12.6 54.1 13.6 53.6 14.0 53.7 C 13.9 53.6 13.7 53.6 13.5 53.6 C 14.0 53.3 14.4 53.3 14.2 53.0 C 14.8 52.5 14.8 52.9 15.2 52.6 C 14.8 52.5 15.4 52.3 15.0 52.2 C 15.7 51.7 15.4 52.3 15.6 52.2 C 15.8 52.1 15.8 52.0 16.0 51.8 C 16.4 51.8 17.1 51.4 17.3 51.6 C 17.6 51.5 17.7 51.5 18.0 51.4 C 18.0 51.3 18.0 51.1 18.2 51.0 C 18.2 51.1 18.5 51.0 18.5 50.9 C 17.5 51.0 17.8 50.9 16.8 51.1 C 16.8 51.2 16.7 51.3 16.9 51.3 C 16.4 51.7 16.1 51.6 15.7 51.9 C 15.5 51.8 15.2 51.5 14.9 52.0 C 14.9 51.7 14.7 51.7 14.9 51.5 C 15.2 51.5 15.5 51.4 15.9 51.3 C 15.9 51.2 15.8 51.1 16.0 51.0 C 16.2 51.0 16.5 51.0 16.6 50.7 C 16.7 50.8 16.6 50.9 16.6 51.0 C 17.4 50.7 17.0 50.6 17.6 50.4 C 17.5 50.3 17.1 50.5 17.3 50.2 C 17.8 49.8 18.0 49.9 18.3 49.8 C 18.3 49.8 18.3 49.7 18.4 49.6 C 18.9 49.6 17.8 50.5 18.6 50.4 C 18.5 50.2 19.2 49.9 19.4 50.0 C 19.3 50.3 18.8 50.2 18.8 50.4 C 20.0 49.8 19.0 50.7 20.3 50.2 C 20.2 50.1 20.2 50.0 20.1 49.9 C 19.7 50.2 19.6 50.0 19.5 49.8 C 19.0 50.0 18.7 49.8 18.5 50.1 C 18.4 49.6 18.8 49.9 19.3 49.7 C 19.1 49.5 18.7 49.7 18.6 49.5 C 19.7 49.2 19.7 48.8 20.8 48.6 C 20.5 48.5 21.3 48.3 21.2 48.2 C 20.4 48.6 20.4 47.9 20.2 47.9 C 19.7 48.2 20.2 48.4 19.9 48.7 C 19.6 48.6 19.7 48.4 19.6 48.1 C 20.1 47.9 20.0 47.9 20.3 47.6 C 20.7 47.6 21.2 47.9 20.9 48.3 C 20.9 48.2 21.5 47.7 21.6 47.9 C 21.0 48.2 21.7 48.0 21.4 48.2 C 22.0 48.2 22.7 47.5 23.3 47.4 C 23.2 47.3 23.4 47.2 23.3 47.1 C 22.9 47.5 22.5 47.1 21.9 47.4 C 22.2 47.2 22.0 47.2 21.8 47.1 C 22.4 47.0 22.7 46.7 23.2 46.7 C 23.1 46.6 23.1 46.5 23.0 46.5 C 23.8 46.3 23.7 46.3 24.1 45.9 C 24.4 45.9 24.3 46.4 24.3 46.7 C 24.5 46.5 25.4 46.1 24.8 46.1 C 25.3 45.8 25.3 46.2 25.8 46.0 C 25.7 45.7 25.3 46.0 25.3 45.6 C 25.8 45.3 25.6 45.8 26.0 45.4 C 26.1 45.6 26.2 45.7 26.6 45.5 C 26.2 45.5 26.6 45.4 26.6 45.3 C 26.4 45.3 26.2 45.3 26.1 45.3 C 26.9 45.0 27.1 45.0 27.6 44.6 C 27.5 45.0 27.9 44.9 27.5 45.2 C 27.9 44.9 28.5 45.0 28.6 44.7 C 28.3 44.8 28.0 44.9 27.7 44.9 C 29.0 44.2 29.5 43.7 30.7 43.6 C 30.5 43.7 30.2 43.8 30.3 43.9 C 30.4 43.8 30.6 43.7 30.6 43.8 C 30.2 44.0 29.9 44.1 29.7 44.3 C 29.3 44.3 29.8 44.0 29.5 44.1 C 29.5 44.3 28.7 44.4 29.1 44.6 C 29.6 44.2 30.3 44.2 30.7 44.4 C 31.0 43.8 30.5 44.0 30.9 43.3 C 31.0 43.5 31.1 43.5 31.3 43.4 C 31.0 43.2 31.8 43.1 31.9 43.0 C 31.7 43.3 30.7 43.9 31.4 43.9 C 30.9 43.5 32.6 43.6 32.2 43.3 C 32.8 43.0 32.7 43.4 32.9 43.0 C 33.0 43.1 33.0 43.2 33.2 43.1 C 33.4 43.1 33.4 43.0 33.4 42.9 C 32.5 43.1 32.6 42.7 32.0 42.9 C 32.1 42.9 32.2 42.8 32.2 42.8 C 32.1 42.7 32.1 42.7 32.3 42.6 C 32.4 42.9 32.7 42.4 33.0 42.5 C 32.8 42.6 32.6 42.7 32.7 42.8 C 33.5 42.4 33.4 42.8 34.5 42.5 C 34.2 42.5 34.6 42.3 34.9 42.1 C 35.4 42.0 35.4 42.4 36.0 42.2 C 35.7 41.6 36.6 42.0 37.3 41.4 C 37.3 41.7 38.3 41.5 38.4 41.2 C 38.5 41.3 38.8 41.1 39.0 41.1 C 39.1 41.2 38.9 41.3 39.1 41.3 C 39.3 41.2 39.0 41.0 39.3 40.9 C 39.7 40.8 39.7 41.1 40.2 40.9 C 40.1 40.7 39.9 40.9 40.1 40.6 C 40.5 40.6 40.9 40.5 40.5 40.3 C 41.1 40.1 40.9 40.6 41.5 40.4 C 41.3 40.4 41.3 40.3 41.6 40.2 C 41.9 40.3 41.9 40.4 42.0 40.4 C 42.1 40.2 42.1 40.2 42.6 40.1 C 42.6 40.0 42.5 39.9 42.5 39.8 C 42.7 39.8 43.0 39.6 43.1 39.7 C 42.7 39.8 42.9 39.9 42.7 40.1 C 43.2 40.0 44.0 40.0 43.3 39.9 C 43.9 39.6 43.7 40.0 44.1 39.8 C 43.8 39.7 44.1 39.8 44.6 39.6 C 44.5 39.3 44.9 39.5 45.2 39.4 C 45.1 39.2 45.1 39.1 45.4 39.0 C 45.4 39.1 45.6 39.1 45.9 39.0 C 45.9 38.9 45.2 39.0 45.8 38.8 C 46.2 38.8 46.2 39.1 46.7 39.0 C 46.9 39.2 46.3 39.3 46.5 39.5 C 46.8 39.1 47.0 39.3 47.6 39.2 C 47.2 38.8 48.5 38.4 47.8 38.3 C 48.0 38.3 48.2 37.9 48.4 38.1 C 48.2 38.2 48.6 38.3 48.6 38.4 C 48.9 38.3 49.5 38.3 49.5 38.1 C 49.0 38.3 48.9 38.0 48.7 37.9 C 49.5 37.6 50.3 37.6 50.3 37.8 C 50.2 37.8 50.4 37.7 50.4 37.6 C 50.1 37.8 49.8 37.4 50.1 37.3 C 50.1 37.6 50.4 37.6 50.7 37.6 C 50.6 37.4 51.8 37.5 51.5 37.2 C 51.1 37.5 50.7 37.2 51.0 36.9 C 51.3 37.1 52.0 37.1 51.9 37.3 C 52.0 37.2 52.2 37.1 52.3 37.0 C 52.4 36.8 52.1 36.9 52.1 36.7 C 52.3 36.6 52.6 36.5 52.7 36.6 C 52.1 36.8 53.0 36.7 52.4 37.0 C 52.8 36.9 52.9 37.0 53.2 37.0 C 53.2 36.9 53.3 36.9 53.4 36.8 C 53.1 37.0 52.8 36.9 52.9 36.7 C 53.4 36.5 53.4 36.8 53.8 36.7 C 53.9 36.5 54.5 36.1 54.8 36.2 C 54.2 36.3 54.9 36.4 54.6 36.5 C 54.0 36.5 53.9 36.7 53.7 37.0 C 54.0 37.1 54.4 37.1 54.4 36.8 C 54.1 36.8 54.2 36.9 54.0 37.0 C 54.0 36.9 54.1 36.7 54.3 36.7 C 54.6 36.8 55.1 36.5 54.8 36.9 C 55.1 36.7 55.6 36.9 56.0 36.6 C 55.5 36.7 55.2 36.6 55.0 36.5 C 55.4 36.3 55.8 36.5 55.8 36.3 C 55.7 36.1 55.1 36.3 55.0 36.1 C 55.4 35.8 56.2 36.4 55.6 36.0 C 55.8 36.0 56.2 35.9 56.3 36.0 C 56.0 36.1 56.4 36.3 56.5 36.4 C 56.8 36.3 57.0 36.3 57.1 36.1 C 56.7 36.3 56.3 36.0 56.6 36.0 C 56.7 36.1 56.8 35.9 56.9 35.8 C 57.0 36.0 57.4 35.8 57.5 35.9 C 57.5 35.8 57.3 35.8 57.2 35.7 C 57.5 35.6 57.9 35.2 58.1 35.5 C 57.9 35.6 57.7 35.6 57.7 35.7 C 58.5 35.9 58.8 36.2 59.7 36.2 C 59.6 36.2 59.5 36.3 59.6 36.4 C 60.2 36.3 60.6 36.4 60.5 36.6 C 60.9 36.5 61.0 36.4 61.2 36.2 C 60.8 36.1 60.7 36.4 60.5 36.2 C 60.6 36.1 60.1 35.8 59.9 35.6 C 59.3 35.9 59.2 35.5 58.6 35.8 C 58.8 35.5 58.1 35.8 58.3 35.5 C 58.9 35.8 59.5 35.4 60.4 35.5 C 60.3 35.7 60.2 35.9 60.6 36.0 C 61.2 36.0 60.9 35.7 61.3 35.7 C 61.5 35.9 61.3 36.0 61.5 36.0 C 61.6 35.9 62.1 35.9 62.2 36.1 C 61.6 36.1 62.4 36.3 62.0 36.5 C 62.2 36.4 62.3 36.5 62.4 36.5 C 61.8 36.3 63.0 36.1 62.5 35.9 C 63.3 35.7 62.6 36.5 63.3 36.4 C 63.0 36.3 63.4 36.1 63.9 36.2 C 64.0 36.4 64.5 36.4 64.9 36.5 C 64.7 36.3 64.6 36.3 64.9 36.2 C 64.7 36.1 64.4 36.1 64.2 36.2 C 64.2 36.1 64.1 36.0 64.0 36.0 C 64.5 35.9 64.3 35.8 64.4 35.7 C 64.6 35.8 65.0 35.8 65.0 35.9 C 65.0 35.8 65.2 35.8 65.2 35.7 C 64.6 35.8 65.3 35.4 64.9 35.4 C 64.6 35.4 64.8 35.6 64.4 35.6 C 64.1 35.3 64.7 35.3 64.9 35.0 C 64.6 34.9 64.2 35.2 64.1 34.9 C 64.5 34.6 65.1 34.8 65.6 34.8 C 65.5 34.5 66.4 34.9 66.5 34.5 C 66.5 34.6 66.6 34.7 66.8 34.7 C 66.9 34.5 67.1 34.8 67.2 34.8 C 67.2 34.6 67.2 34.5 67.1 34.5 C 67.7 34.6 67.8 34.6 68.5 34.4 C 68.7 34.6 68.8 34.7 68.8 34.9 C 68.7 35.0 68.5 35.0 68.4 35.1 C 69.4 35.1 68.7 34.4 69.4 34.8 C 69.4 34.7 68.9 34.4 69.3 34.4 C 69.9 34.7 70.8 34.4 70.7 35.1 C 71.3 35.3 71.7 34.9 71.9 35.2 C 72.1 35.2 72.1 35.1 72.2 35.0 C 72.0 34.9 71.8 34.7 71.6 34.6 C 71.3 34.7 71.2 34.5 71.5 34.8 C 71.0 34.9 70.9 34.7 70.6 34.6 C 71.3 34.4 71.9 34.7 71.9 34.3 C 72.2 34.4 72.3 34.6 72.5 34.8 C 72.6 34.6 73.3 34.6 73.4 34.8 C 72.9 34.7 72.3 35.0 72.8 35.2 C 74.0 35.1 74.7 35.6 75.8 35.4 C 75.8 35.5 75.7 35.7 75.9 35.7 C 75.9 35.6 76.0 35.5 76.1 35.4 C 76.4 35.5 76.6 35.6 77.1 35.6 C 77.0 35.8 77.1 36.0 77.3 36.1 C 77.5 35.8 78.0 35.4 78.2 35.5 C 78.0 35.5 78.3 35.8 78.5 35.9 C 78.4 35.5 79.7 36.3 79.3 35.9 C 79.9 36.0 80.2 36.1 80.2 36.2 C 80.4 36.2 80.5 36.2 80.7 36.2 C 80.8 36.5 81.8 36.4 81.9 36.6 C 81.6 36.4 81.5 36.8 81.8 36.8 C 82.0 36.6 83.0 36.6 83.2 36.7 C 83.1 36.8 83.0 37.0 82.5 37.0 C 83.3 37.2 83.4 36.8 83.7 36.6 C 83.6 37.0 84.0 36.8 84.2 36.7 C 84.4 36.9 84.1 36.8 84.1 37.0 C 84.4 37.1 84.5 37.3 84.8 37.4 C 84.8 37.1 85.2 37.3 85.3 37.4 C 85.4 37.2 85.7 37.1 86.0 37.2 C 85.5 37.5 87.9 38.1 87.4 37.7 C 87.9 37.6 87.8 38.0 88.4 38.2 C 88.5 38.0 88.9 38.2 88.6 38.0 C 89.1 38.0 88.7 38.3 89.3 38.3 C 89.2 38.0 89.9 38.5 89.9 38.1 C 90.0 38.6 90.6 38.2 91.0 38.7 C 91.0 38.6 91.2 38.7 91.2 38.6 C 91.3 38.5 90.7 38.2 91.1 38.3 C 91.6 38.6 91.3 38.6 91.3 38.8 C 92.7 39.1 94.3 39.8 95.7 40.4 C 95.6 40.2 95.6 40.1 95.9 40.2 C 96.2 40.8 97.9 41.2 98.2 41.2 C 98.2 41.5 99.2 41.6 99.2 41.8 C 99.1 41.7 98.7 41.8 99.0 42.0 C 99.3 41.8 99.5 42.1 100.0 42.0 C 100.0 42.4 101.1 42.5 100.5 42.8 C 100.7 42.9 100.7 43.0 100.8 43.1 C 101.0 42.8 101.2 42.9 100.9 42.6 C 101.7 43.2 102.0 43.1 102.6 43.7 C 102.8 43.6 102.3 43.2 102.7 43.4 C 102.7 43.4 102.7 43.5 102.6 43.5 C 102.8 43.6 102.9 43.5 102.9 43.6 C 102.8 43.8 102.6 43.6 102.5 43.9 C 102.8 43.9 102.9 44.4 103.1 44.2 C 102.7 43.9 103.2 43.7 103.4 44.1 C 103.1 44.1 104.4 44.6 104.9 44.7 C 105.0 45.1 104.4 44.5 104.4 44.7 C 105.2 45.1 105.1 45.2 105.3 44.9 C 105.7 45.3 105.8 45.5 106.3 45.6 C 106.5 45.9 106.1 45.7 106.3 45.9 C 106.5 45.9 106.7 45.9 107.0 46.0 C 107.4 46.9 109.4 47.2 109.7 48.4 C 109.5 48.0 110.0 48.2 110.4 48.5 C 110.4 48.6 110.3 48.6 110.4 48.7 C 110.5 48.6 110.7 48.6 110.9 48.8 C 110.9 48.9 110.8 49.0 110.9 49.1 C 111.2 48.9 111.3 49.4 111.6 49.4 C 111.5 49.7 111.1 49.2 110.9 49.3 C 111.5 49.9 111.7 49.8 112.1 50.2 C 111.9 50.0 112.1 50.5 112.2 50.6 C 112.2 50.3 112.7 50.5 112.5 50.2 C 112.7 50.3 113.0 50.5 112.9 50.6 C 112.8 50.6 112.7 50.4 112.6 50.5 C 112.9 50.6 113.0 51.1 113.2 51.0 C 113.1 50.8 113.1 50.7 113.2 50.6 C 113.3 50.6 113.4 50.5 113.5 50.6 C 112.8 50.8 114.0 51.4 114.1 51.3 C 114.0 51.7 114.1 51.7 113.9 51.8 C 114.3 52.2 114.4 51.9 114.7 52.0 C 114.5 52.2 114.2 52.3 114.5 52.7 C 114.6 52.4 115.1 52.8 115.2 52.4 C 116.2 53.2 116.1 53.6 116.7 54.1 C 116.8 54.1 116.6 53.9 116.8 54.0 C 117.0 54.3 117.2 54.6 117.3 54.8 C 117.5 54.8 117.4 54.6 117.6 54.7 C 117.8 55.3 117.5 55.4 117.8 55.8 C 118.3 56.1 118.1 56.1 118.5 56.1 C 118.4 56.0 118.3 55.8 118.5 55.9 C 118.6 56.3 118.5 56.6 118.6 56.7 C 118.4 56.6 118.2 56.4 118.2 56.3 C 118.0 56.3 117.7 56.1 117.9 56.4 C 117.6 56.1 117.3 55.8 116.9 55.4 C 116.9 55.7 116.5 55.1 116.5 55.4 C 117.0 55.8 117.0 56.0 117.4 56.4 C 117.5 56.1 117.8 56.6 117.9 56.8 C 118.0 56.7 118.3 57.0 118.3 56.8 C 118.7 57.0 118.5 57.2 118.9 57.4 C 118.9 57.5 118.7 57.6 118.8 57.7 C 119.1 57.6 119.0 58.0 119.1 58.1 C 119.2 57.8 119.6 58.4 119.7 58.3 C 119.6 58.2 119.4 58.0 119.5 57.9 C 120.0 58.5 119.7 57.9 119.8 57.6 C 119.7 57.7 119.3 57.8 119.4 57.6 C 120.0 57.9 119.1 56.7 119.4 57.2 C 119.7 57.5 119.8 57.4 120.1 57.8 C 120.2 58.5 119.5 58.2 119.7 58.8 C 120.0 58.9 120.2 59.1 120.4 59.0 C 120.3 59.1 120.3 59.2 120.4 59.4 C 120.6 59.4 120.3 58.8 120.6 59.1 C 120.7 59.3 120.3 59.4 120.7 59.7 C 121.0 59.7 120.5 59.1 120.8 59.4 C 120.9 60.0 120.8 59.2 121.2 59.6 C 121.2 59.7 121.3 59.7 121.4 59.9 C 121.3 60.0 121.1 60.0 121.2 60.2 C 121.6 60.0 121.3 60.5 121.6 60.7 C 122.0 60.7 121.4 60.3 121.7 60.2 C 121.8 60.8 122.2 60.7 122.3 60.9 C 121.9 60.8 122.5 61.4 122.4 61.6 C 122.5 61.4 122.6 61.6 123.1 61.8 C 122.7 62.2 123.4 62.4 123.2 62.7 C 123.3 62.7 123.5 62.8 123.6 62.8 C 123.5 62.6 123.4 62.5 123.6 62.4 C 123.6 62.5 123.7 62.7 123.8 62.8 C 123.8 63.1 123.1 62.9 123.7 63.7 C 123.9 63.4 124.2 63.7 124.5 63.8 C 124.7 63.6 124.2 63.5 124.3 63.4 C 124.7 63.5 124.7 64.0 124.7 64.2 C 125.2 64.6 125.5 65.3 126.1 65.9 C 126.0 66.2 125.5 65.4 125.7 66.0 C 125.9 66.1 126.0 65.9 126.1 66.2 C 125.1 66.6 127.3 68.3 127.0 68.6 C 127.3 68.6 127.6 69.3 127.8 69.1 C 127.3 68.8 127.4 68.3 127.4 68.0 C 127.0 67.7 127.4 68.5 127.1 68.2 C 127.2 68.1 126.7 67.6 127.0 67.6 C 127.4 68.1 127.0 67.1 127.4 67.4 C 127.8 68.0 128.7 68.8 128.2 68.8 C 128.3 68.7 128.2 68.5 128.1 68.5 C 128.4 69.2 128.8 69.4 129.0 69.6 C 129.1 69.9 130.0 70.8 129.7 70.6 C 129.6 70.8 129.4 70.0 129.2 70.2 C 129.9 71.3 130.0 71.3 130.3 72.1 C 130.4 71.7 131.1 72.7 131.0 72.7 C 130.8 72.8 130.7 73.1 131.2 73.4 C 131.0 73.5 131.1 73.8 131.1 74.1 C 131.4 74.1 131.2 73.8 131.4 73.7 C 131.5 73.9 131.7 74.2 131.8 74.4 C 131.7 74.5 131.6 74.5 131.6 74.7 C 131.9 74.9 132.6 75.7 132.5 75.7 C 132.0 75.5 132.6 76.5 132.0 75.9 C 132.1 76.1 132.0 76.2 132.2 76.4 C 132.3 76.4 132.4 76.3 132.5 76.3 C 132.8 76.8 132.3 76.7 132.5 77.2 C 132.6 77.1 132.7 77.3 132.8 77.3 C 132.7 77.2 132.6 77.2 132.5 76.9 C 133.0 77.0 132.5 76.4 132.8 76.3 C 133.0 76.8 132.8 76.9 132.8 77.2 C 133.3 77.7 133.1 77.5 133.3 78.2 C 133.4 78.1 133.3 77.9 133.5 77.9 C 133.8 78.8 133.3 78.9 133.7 79.4 C 133.7 79.3 133.2 78.9 133.4 79.2 C 133.7 79.6 134.0 79.6 134.2 80.1 C 134.1 80.2 134.0 80.2 134.1 80.4 C 134.3 80.6 134.5 80.5 134.6 80.7 C 134.5 80.7 134.7 81.0 134.8 81.1 C 134.7 81.4 134.6 81.1 134.6 81.4 C 134.8 81.8 135.4 81.9 135.5 82.3 C 135.2 82.4 135.5 82.8 135.7 83.1 C 135.4 83.3 135.8 84.1 135.9 84.6 C 136.1 84.4 136.2 85.0 136.4 84.8 C 136.3 84.5 136.3 84.4 136.4 84.3 C 136.7 84.9 136.3 85.2 136.8 85.6 C 136.7 85.9 136.7 86.2 136.8 86.6 C 136.9 86.6 136.7 85.8 137.0 86.2 C 136.9 86.3 137.0 86.4 137.1 86.5 C 136.8 86.6 136.9 86.9 136.8 87.2 C 137.1 87.5 137.1 88.4 137.2 87.9 C 137.5 88.5 136.9 88.3 137.1 88.7 C 137.3 88.4 137.6 89.2 137.7 88.7 C 137.9 89.3 137.5 89.4 137.3 89.2 C 137.4 89.8 137.7 89.8 137.6 90.2 C 137.8 89.8 138.2 90.6 137.9 90.2 C 137.6 90.2 138.0 90.8 137.9 91.0 C 138.0 90.7 138.1 91.0 138.1 90.6 C 138.3 91.0 138.5 91.6 138.4 92.1 C 138.7 92.6 138.9 93.1 138.6 92.9 C 138.8 93.4 138.7 93.2 138.8 93.8 C 138.9 93.8 138.9 93.6 138.9 93.6 C 139.1 94.3 138.9 94.2 139.2 95.1 C 138.8 95.1 139.0 95.7 138.9 95.9 C 138.8 95.5 138.8 95.2 138.8 94.9 C 138.6 94.8 138.6 95.2 138.5 94.9 C 138.6 94.9 138.6 94.7 138.6 94.6 C 138.5 95.2 138.0 93.9 138.4 94.3 C 138.3 94.3 138.3 94.3 138.3 94.5 C 138.5 94.3 138.4 94.3 138.7 94.3 C 138.6 94.1 138.8 93.7 138.5 93.7 C 138.4 93.7 138.5 94.0 138.5 94.1 C 138.1 93.3 138.7 93.7 138.5 93.2 C 138.2 93.1 138.2 93.4 138.1 93.6 C 137.9 93.1 137.8 92.6 137.9 92.4 C 137.7 91.9 137.7 92.5 137.5 92.2 C 137.6 92.0 137.7 91.9 137.7 91.6 C 137.4 91.2 137.5 91.9 137.4 91.5 C 137.4 91.0 137.8 91.7 137.7 91.0 C 137.3 91.3 137.5 90.5 137.4 90.6 C 137.5 90.9 137.2 91.0 137.3 90.8 C 137.4 89.9 136.4 89.6 136.6 88.7 C 136.6 88.7 136.5 88.6 136.4 88.6 C 136.5 89.2 136.7 90.1 136.4 90.3 C 136.7 90.8 136.9 90.7 137.0 90.7 C 136.9 91.4 136.8 91.3 136.3 91.1 C 136.0 90.2 136.0 89.7 135.9 89.1 C 135.6 88.8 135.9 89.2 135.8 89.3 C 135.4 87.4 135.2 89.0 135.0 88.4 C 135.1 88.3 135.1 88.2 135.1 88.0 C 135.0 88.0 135.0 87.7 134.9 87.7 C 134.9 87.8 134.9 87.9 134.8 87.9 C 134.5 87.5 134.8 87.6 134.9 87.5 C 135.1 87.9 135.2 88.1 135.3 88.1 C 135.0 87.7 135.1 87.2 134.8 87.0 C 135.0 86.5 135.5 87.0 135.7 86.7 C 135.9 86.7 135.0 86.6 134.8 86.3 C 134.6 85.8 134.3 85.8 134.1 85.3 C 134.3 85.1 134.4 85.8 134.6 85.7 C 134.6 85.5 134.6 85.5 134.6 85.3 C 134.4 85.0 134.2 85.1 134.0 84.8 C 134.2 84.6 134.0 84.6 133.9 84.4 C 133.8 84.0 134.1 84.5 134.0 84.1 C 133.9 83.7 133.5 83.6 133.5 83.5 C 133.6 83.4 133.7 83.4 133.6 83.2 C 133.3 82.9 133.3 82.8 133.3 83.4 C 133.2 82.9 133.0 82.7 132.8 82.9 C 133.1 83.6 133.2 83.8 133.0 84.2 C 133.3 84.2 133.2 84.5 133.2 84.8 C 133.6 84.5 133.4 85.1 133.6 85.2 C 133.6 85.0 133.6 84.8 133.6 84.7 C 133.9 85.4 133.8 85.4 134.4 85.9 C 134.3 86.0 134.3 86.0 134.3 86.1 C 134.1 86.0 134.0 85.4 133.8 85.5 C 133.7 86.0 134.1 86.0 134.0 86.6 C 134.3 86.7 134.1 86.1 134.3 86.5 C 134.2 86.7 134.2 87.0 134.2 87.4 C 134.4 87.7 134.6 87.8 134.7 88.1 C 134.7 88.2 134.6 88.2 134.7 88.5 C 134.8 88.4 134.8 88.1 134.9 88.4 C 134.9 89.3 134.9 89.9 135.3 90.7 C 135.3 90.4 135.3 89.7 135.4 90.0 C 135.4 90.4 135.8 90.8 135.7 91.3 C 135.7 91.5 135.7 90.8 135.3 91.1 C 135.5 91.4 135.5 91.7 135.5 91.9 C 135.6 91.8 135.7 92.3 135.9 92.1 C 135.8 91.8 135.5 91.8 135.6 91.7 C 136.3 91.7 135.7 92.9 135.9 93.5 C 136.1 93.9 136.0 93.2 136.3 93.6 C 136.4 93.9 135.9 94.2 135.7 93.8 C 135.7 93.4 135.4 93.4 135.6 93.2 C 135.6 93.1 135.6 92.9 135.5 93.0 C 135.5 93.2 135.4 93.2 135.3 93.3 C 135.3 93.0 134.8 93.1 135.0 92.7 C 135.1 92.9 135.2 93.0 135.2 93.0 C 134.9 92.2 135.0 91.9 135.0 91.3 C 134.9 91.7 134.9 91.4 134.7 91.4 C 134.9 91.8 134.9 92.5 134.7 92.1 C 134.9 91.8 134.1 91.8 134.3 91.4 C 134.4 91.6 134.5 91.5 134.7 91.6 C 134.6 91.3 134.8 91.2 134.7 90.9 C 134.0 90.0 134.4 89.0 133.3 87.6 C 133.1 87.0 133.6 88.0 133.7 87.9 C 133.7 87.8 133.7 87.7 133.7 87.6 C 133.4 87.7 133.6 87.3 133.3 87.2 C 133.6 87.1 133.1 86.5 133.1 86.1 C 133.0 86.1 132.9 86.2 132.9 86.0 C 132.7 84.8 131.5 83.0 131.4 82.1 C 131.2 82.2 131.1 81.8 130.9 81.8 C 130.7 81.2 131.0 81.4 130.5 80.8 C 130.3 80.4 130.7 80.8 130.7 80.8 C 130.1 79.8 129.9 78.7 129.3 78.2 C 129.1 77.9 129.5 78.1 129.2 77.4 C 128.9 77.6 128.8 76.2 128.3 76.3 C 128.1 75.9 128.1 74.9 128.0 75.4 C 127.6 74.9 128.1 75.1 128.0 74.9 C 127.8 74.5 127.5 75.3 127.3 74.9 C 127.6 74.8 127.3 74.6 127.3 74.2 C 127.5 74.5 127.6 74.7 127.8 74.7 C 127.5 74.5 127.7 74.4 127.4 74.0 C 127.1 73.8 126.4 73.0 126.6 72.6 C 126.5 72.6 126.4 72.7 126.4 72.8 C 126.2 72.6 126.3 72.1 126.0 72.3 C 125.7 71.8 125.8 71.4 125.3 71.2 C 125.1 71.0 125.6 71.1 125.1 70.4 C 124.9 70.5 124.1 69.3 124.0 68.8 C 123.8 69.0 124.0 68.7 123.9 68.6 C 123.8 68.6 123.7 68.7 123.6 68.6 C 123.7 68.5 123.5 68.4 123.4 68.4 C 123.8 68.2 123.0 68.0 123.2 67.8 C 123.3 67.9 123.5 67.8 123.4 67.6 C 123.2 67.8 123.1 67.0 123.0 67.2 C 123.0 67.4 123.3 67.7 123.1 67.7 C 122.6 67.3 123.0 67.3 122.8 67.0 C 122.8 67.0 122.8 67.3 122.6 67.1 C 122.4 66.8 122.6 67.1 122.6 66.7 C 122.5 66.6 122.1 66.4 122.0 66.3 C 122.0 66.3 122.1 66.1 122.0 66.1 C 121.7 65.4 120.4 64.3 120.2 63.5 C 120.1 63.5 119.9 63.4 119.8 63.6 C 119.7 63.1 119.6 63.2 119.4 62.8 C 119.3 62.9 119.2 63.0 119.2 63.0 C 118.7 62.7 119.4 62.7 119.1 62.5 C 118.7 62.8 119.1 62.2 118.8 61.9 C 118.7 62.0 118.6 61.9 118.5 62.0 C 118.1 61.6 118.4 61.4 118.0 61.1 C 118.1 61.2 117.6 61.8 117.3 62.0 C 117.4 61.8 117.3 61.7 117.2 61.5 C 117.6 61.5 118.2 60.8 117.5 60.5 C 117.8 60.7 117.8 60.9 117.6 60.9 C 117.2 60.6 117.2 60.3 116.9 60.0 C 116.7 60.1 116.9 60.4 116.6 60.5 C 116.5 60.4 116.5 60.4 116.4 60.5 C 116.1 60.1 116.2 60.0 115.8 59.7 C 115.9 59.6 116.0 59.7 116.0 59.9 C 116.2 59.7 116.3 59.6 116.5 59.8 C 116.4 59.9 116.1 60.0 116.5 60.2 C 116.6 60.1 116.7 60.0 116.8 60.0 C 116.6 59.7 116.2 59.1 116.0 59.1 C 116.1 59.3 116.2 59.5 115.9 59.6 C 115.6 59.1 115.7 58.8 115.5 58.4 C 114.9 57.9 113.9 57.0 113.7 57.4 C 113.5 57.0 113.6 57.1 113.3 56.8 C 113.2 57.0 112.9 56.5 112.8 56.7 C 113.2 57.0 113.1 57.0 113.5 57.2 C 113.4 57.3 113.2 57.4 113.1 57.3 C 113.1 57.2 113.0 57.0 112.7 56.8 C 112.7 56.9 112.8 57.3 112.5 57.0 C 112.5 57.0 112.5 56.9 112.4 56.8 C 112.5 56.7 112.6 56.6 112.6 56.5 C 112.8 56.6 113.0 56.7 113.2 56.7 C 113.1 56.6 113.1 56.5 113.1 56.4 C 112.9 56.5 112.6 56.0 112.4 56.1 C 112.6 56.2 112.6 56.4 112.4 56.3 C 112.4 56.2 112.2 55.9 112.0 55.9 C 112.3 56.4 112.1 56.2 112.2 56.6 C 111.7 56.3 112.0 56.1 111.4 55.8 C 111.5 55.6 111.6 55.5 111.8 55.5 C 111.8 54.9 110.8 54.6 110.6 54.4 C 110.7 54.5 111.1 54.4 110.9 54.2 C 110.8 54.3 110.6 54.1 110.6 54.1 C 110.2 54.4 110.3 54.8 110.3 55.2 C 110.1 55.0 110.0 55.0 109.8 54.9 C 109.8 54.7 110.3 54.6 110.0 54.4 C 109.8 54.6 109.6 54.0 109.3 54.2 C 109.5 54.3 109.5 54.5 109.3 54.4 C 109.5 54.3 109.0 54.1 109.1 54.0 C 109.5 54.1 109.7 54.0 109.9 54.1 C 109.7 53.9 110.2 54.1 109.8 53.8 C 109.5 53.8 109.3 53.9 108.9 53.6 C 108.8 53.4 109.1 53.3 108.8 53.1 C 108.8 53.4 108.3 53.1 108.7 53.1 C 108.5 53.0 108.5 52.9 108.4 52.8 C 108.5 53.2 107.2 52.7 107.3 52.9 C 107.5 52.6 107.6 52.4 107.6 52.2 C 107.2 52.3 107.1 52.0 106.5 51.6 C 106.4 51.9 106.4 51.6 106.1 51.4 C 106.0 51.5 106.2 51.7 106.0 51.6 C 105.8 51.4 105.8 51.3 105.8 51.2 C 105.6 51.1 105.4 51.0 105.3 50.8 C 105.3 50.9 105.3 51.0 105.3 51.1 C 104.7 50.4 104.1 50.4 103.4 50.0 C 103.7 50.2 103.9 49.9 103.7 49.8 C 103.5 49.8 103.3 49.7 103.2 49.7 C 103.3 50.0 103.3 49.9 102.9 49.7 C 102.6 49.6 102.9 50.1 102.6 50.0 C 102.4 49.7 102.6 49.7 102.5 49.5 C 102.4 49.5 102.3 49.4 102.2 49.3 C 102.3 49.6 102.0 49.5 101.8 49.5 C 102.1 49.3 102.0 49.2 101.5 49.1 C 101.5 48.9 101.8 49.0 101.6 48.8 C 101.6 48.8 101.1 48.9 100.9 48.5 C 101.0 48.6 101.0 48.5 101.1 48.5 C 100.7 48.4 100.6 48.0 100.3 47.8 C 100.5 48.1 100.3 48.2 100.3 48.4 C 100.1 48.1 99.6 48.1 99.5 47.8 C 99.9 48.0 99.8 47.3 99.5 47.2 C 99.3 47.4 99.8 47.6 99.5 47.8 C 99.3 47.9 99.1 47.4 98.9 47.5 C 98.8 47.7 99.1 47.6 99.1 47.7 C 98.8 47.6 99.1 47.9 98.9 47.8 C 98.9 47.5 98.6 47.8 98.5 47.7 C 98.3 47.6 98.2 47.1 97.9 47.2 C 97.9 47.3 98.1 47.3 98.1 47.4 C 97.4 47.3 97.3 46.8 96.6 46.8 C 96.5 46.7 96.4 46.6 96.3 46.4 C 96.2 46.6 96.1 46.6 95.9 46.5 C 95.7 46.3 95.5 46.1 95.1 45.9 C 95.3 45.7 95.5 45.7 95.0 45.5 C 94.9 45.6 95.1 45.7 94.9 45.6 C 94.9 45.6 94.8 45.5 94.8 45.6 C 94.8 45.6 94.7 45.7 94.7 45.7 C 94.9 45.8 95.0 45.8 95.1 45.9 C 95.1 46.0 95.1 46.1 95.1 46.2 C 94.5 46.1 94.7 45.7 94.3 45.7 C 94.4 45.3 94.3 45.2 94.7 45.1 C 94.3 45.0 94.0 45.1 93.9 45.2 C 94.3 45.3 94.0 45.6 94.1 45.7 C 93.9 45.6 93.8 45.7 93.7 45.7 C 93.4 45.5 94.1 45.4 93.6 45.2 C 93.9 45.6 93.1 45.3 92.8 45.1 C 92.9 45.2 93.0 45.3 92.8 45.3 C 91.9 45.2 92.3 44.4 91.6 44.7 C 91.7 44.5 91.5 44.5 91.4 44.4 C 91.9 44.4 92.0 44.4 92.2 44.4 C 92.2 44.3 92.1 44.3 92.0 44.2 C 91.9 44.3 91.8 44.3 91.6 44.2 C 91.5 44.3 91.4 44.6 91.0 44.7 C 91.0 44.6 91.1 44.5 91.0 44.5 C 90.7 44.6 91.2 44.1 90.5 44.0 C 90.6 44.1 90.6 44.2 90.5 44.4 C 90.2 44.4 90.3 44.3 89.8 44.3 C 89.8 43.8 90.2 43.9 90.4 43.7 C 90.1 43.7 89.8 43.9 89.6 43.6 C 89.8 43.8 89.5 43.9 89.2 43.9 C 88.9 43.8 89.3 43.5 89.0 43.4 C 88.7 43.4 88.6 43.6 88.8 43.8 C 88.3 43.6 88.3 43.9 87.9 43.7 C 87.9 43.6 88.0 43.6 88.2 43.7 C 88.2 43.6 88.3 43.5 88.1 43.4 C 87.8 43.6 87.1 43.4 86.7 43.5 C 86.2 42.9 85.4 43.3 84.8 43.0 C 85.1 42.8 83.9 42.7 83.7 42.4 C 83.5 42.4 82.8 42.8 83.0 42.7 C 83.0 42.3 82.6 42.4 82.4 42.2 C 82.3 42.3 82.3 42.4 82.3 42.5 C 81.6 42.4 81.6 42.1 81.4 41.9 C 80.7 42.0 79.9 41.5 79.0 41.6 C 78.8 41.3 78.7 41.4 78.2 41.1 C 78.1 41.4 77.7 41.3 77.3 41.3 C 77.4 41.5 77.1 41.4 77.0 41.6 C 77.4 41.6 77.2 41.9 77.4 42.0 C 77.0 41.7 76.7 42.2 76.4 41.9 C 76.8 41.8 77.0 41.5 77.1 41.2 C 76.5 41.2 76.3 41.1 76.2 40.9 C 76.1 41.0 76.2 41.2 76.3 41.3 C 76.1 41.3 75.9 41.2 75.8 41.2 C 75.7 41.1 76.0 41.0 75.8 41.0 C 75.6 41.1 75.5 41.1 75.4 41.2 C 75.2 40.9 75.6 41.0 75.6 40.9 C 74.9 40.7 75.2 41.3 74.8 41.3 C 74.7 41.1 74.8 40.9 74.4 40.8 C 74.3 41.0 74.3 41.2 73.9 41.2 C 73.7 41.1 73.9 40.8 73.6 40.8 C 73.6 40.9 73.5 40.8 73.4 40.7 C 73.4 40.9 73.3 40.9 73.1 41.0 C 73.1 40.9 72.8 40.9 72.7 41.0 C 72.7 40.8 72.3 40.5 72.2 40.7 C 72.2 40.8 72.4 40.8 72.4 40.9 C 72.1 40.8 71.9 40.9 71.7 40.9 C 71.7 40.4 71.2 40.8 70.5 40.5 C 70.2 40.7 70.6 40.9 70.1 41.1 C 69.8 40.9 70.2 40.8 70.1 40.6 C 70.0 40.6 69.6 40.4 69.6 40.6 C 69.6 40.7 69.8 40.7 69.8 40.7 C 69.5 41.0 69.5 40.7 69.3 40.6 C 69.3 40.8 69.1 40.8 69.0 41.0 C 68.1 41.1 68.1 40.7 67.7 40.5 C 67.7 40.6 67.4 40.6 67.4 40.7 C 67.7 40.6 68.0 40.8 67.7 40.8 C 67.7 40.7 67.2 40.9 67.1 40.9 C 67.2 41.1 67.5 41.0 67.4 41.2 C 66.9 41.3 67.1 40.9 66.7 41.1 C 66.7 41.0 66.9 40.9 67.0 40.9 C 66.8 40.9 66.6 40.9 66.6 40.8 C 66.8 40.7 66.7 40.5 66.8 40.4 C 66.6 40.6 66.1 40.4 66.4 40.7 C 65.9 40.7 65.3 40.9 65.7 41.1 C 65.3 41.1 65.5 40.8 65.2 41.0 C 65.2 40.7 65.3 40.6 65.0 40.4 C 65.0 40.5 64.7 40.6 64.8 40.8 C 64.1 40.9 63.9 40.6 63.6 40.4 C 63.9 40.8 63.5 40.5 63.2 40.8 C 63.0 40.7 63.2 40.3 62.6 40.5 C 63.2 40.8 61.9 40.6 62.2 41.0 C 61.5 40.9 61.5 40.9 60.8 40.9 C 60.9 40.7 61.0 40.6 61.3 40.5 C 61.1 40.8 62.0 40.7 61.9 40.5 C 61.9 40.5 61.9 40.4 61.9 40.4 C 61.4 40.5 61.0 40.5 60.7 40.3 C 60.7 40.5 60.4 40.6 60.5 40.9 C 60.0 40.7 59.5 41.2 59.2 40.9 C 59.4 40.9 59.6 40.9 59.5 40.7 C 59.3 40.8 59.1 40.9 59.1 41.1 C 59.5 41.1 59.6 41.1 59.8 40.9 C 59.6 41.1 60.3 41.2 59.9 41.3 C 59.8 41.0 59.0 41.6 59.3 41.3 C 59.7 41.1 58.7 41.2 58.7 41.0 C 58.7 41.0 58.7 41.0 58.7 41.0 Z M 134.7 91.1 C 135.0 91.5 135.0 90.9 134.9 90.5 C 134.8 90.6 134.8 90.7 134.6 90.8 C 134.7 90.9 134.8 91.0 134.7 91.1 C 134.7 91.1 134.7 91.1 134.7 91.1 Z M 136.3 84.8 C 135.9 84.8 136.4 85.5 136.5 85.9 C 136.5 85.7 136.5 85.6 136.6 85.8 C 136.7 85.4 136.3 85.4 136.3 84.8 C 136.3 84.8 136.3 84.8 136.3 84.8 Z M 127.4 69.3 C 127.6 69.4 127.8 69.6 127.7 69.7 C 127.8 69.8 127.9 69.7 128.0 69.7 C 128.2 70.0 127.6 69.8 128.0 70.2 C 128.5 70.1 128.0 69.1 127.4 69.3 C 127.4 69.3 127.4 69.3 127.4 69.3 Z M 63.8 36.9 C 63.6 36.7 64.1 36.5 63.9 36.3 C 63.1 36.5 63.7 36.8 62.6 36.8 C 62.7 36.9 62.8 36.9 62.8 37.0 C 63.3 36.9 63.3 36.7 63.2 37.2 C 63.5 37.1 63.5 36.6 63.8 36.9 C 63.8 36.9 63.8 36.9 63.8 36.9 Z M 53.0 37.2 C 53.1 37.3 53.1 37.3 53.2 37.4 C 53.5 37.3 53.4 37.2 53.9 37.2 C 53.8 36.9 53.3 37.0 53.0 37.2 C 53.0 37.2 53.0 37.2 53.0 37.2 Z M 23.6 46.4 C 23.5 46.4 23.4 46.5 23.3 46.5 C 23.4 46.6 23.3 47.1 23.8 46.8 C 23.8 46.7 23.7 46.7 23.6 46.8 C 23.6 46.6 23.9 46.5 23.8 46.4 C 23.6 46.5 23.6 46.4 23.6 46.4 C 23.6 46.4 23.6 46.4 23.6 46.4 Z M 12.3 55.0 C 12.8 54.4 11.0 54.8 12.3 55.0 C 12.3 55.0 12.3 55.0 12.3 55.0 C 12.3 55.0 12.3 55.0 12.3 55.0 Z M 15.0 56.7 C 15.0 56.7 15.1 56.6 15.1 56.6 C 15.6 56.3 15.2 56.7 15.6 56.7 C 15.9 56.3 15.1 56.4 15.6 56.0 C 15.4 55.9 15.2 56.5 15.0 56.7 C 15.0 56.7 15.0 56.7 15.0 56.7 Z M 92.2 44.7 C 92.6 44.8 92.8 44.6 93.0 44.4 C 92.7 44.3 92.5 44.2 92.5 44.0 C 91.9 44.0 92.7 44.3 92.8 44.4 C 92.7 44.6 92.3 44.5 92.2 44.7 C 92.2 44.7 92.2 44.7 92.2 44.7 Z M 93.5 45.1 C 93.7 45.0 93.9 45.0 94.0 44.9 C 93.8 44.8 93.8 44.7 93.8 44.6 C 93.5 44.7 93.7 44.9 93.5 45.1 C 93.5 45.1 93.5 45.1 93.5 45.1 Z M 91.2 44.1 C 91.4 44.1 91.4 43.9 91.5 43.8 C 91.2 43.7 91.2 43.6 90.9 43.5 C 90.9 43.6 90.9 43.7 90.9 43.8 C 91.1 43.9 91.1 43.8 91.3 43.8 C 91.3 43.9 91.3 44.0 91.2 44.1 C 91.2 44.1 91.2 44.1 91.2 44.1 Z M 94.8 45.2 C 95.5 45.5 95.9 45.3 96.5 45.2 C 96.0 45.0 95.3 45.3 95.0 45.0 C 94.6 44.9 95.1 45.2 95.1 45.3 C 95.0 45.3 94.9 45.3 94.8 45.2 C 94.8 45.2 94.8 45.2 94.8 45.2 Z M 100.7 47.9 C 100.8 48.1 101.2 47.9 101.5 48.2 C 101.5 48.1 101.5 48.0 101.5 47.9 C 101.0 47.5 101.1 48.1 100.7 47.9 C 100.7 47.9 100.7 47.9 100.7 47.9 Z M 103.9 49.5 C 104.2 49.6 103.8 49.3 104.0 49.2 C 103.7 49.0 103.3 48.8 103.2 49.0 C 103.6 49.1 103.7 49.1 103.9 49.5 C 103.9 49.5 103.9 49.5 103.9 49.5 Z M 106.0 50.8 C 106.4 50.9 106.0 50.5 106.3 50.3 C 106.2 50.3 106.1 50.4 106.1 50.5 C 106.0 50.4 105.9 50.3 105.8 50.2 C 105.8 50.4 106.2 50.6 106.0 50.8 C 106.0 50.8 106.0 50.8 106.0 50.8 Z M 82.0 41.4 C 82.3 41.4 82.3 41.1 82.8 41.3 C 82.0 41.1 82.5 40.4 81.5 40.4 C 81.6 40.5 81.5 40.6 81.5 40.5 C 81.1 40.6 81.8 40.7 81.4 40.9 C 81.7 40.9 81.5 40.6 81.9 40.6 C 82.1 40.9 82.3 41.1 82.0 41.4 C 82.0 41.4 82.0 41.4 82.0 41.4 Z M 81.5 40.2 C 81.3 40.1 81.2 40.5 81.1 40.3 C 81.0 40.2 81.0 40.3 81.0 40.4 C 81.1 40.4 81.1 40.5 81.1 40.5 C 81.3 40.5 81.6 40.4 81.5 40.2 C 81.5 40.2 81.5 40.2 81.5 40.2 Z M 84.3 40.7 C 83.8 40.7 83.7 40.5 83.4 40.7 C 83.3 40.3 83.1 40.7 82.8 40.4 C 82.3 40.4 82.7 40.5 82.8 40.7 C 82.3 40.7 82.7 40.4 82.2 40.4 C 82.1 40.7 82.7 40.7 82.6 41.0 C 82.9 41.1 83.0 40.9 83.2 40.9 C 83.4 40.9 83.3 41.0 83.3 41.1 C 83.8 41.1 83.7 41.3 84.0 41.4 C 84.2 41.2 84.0 41.1 83.6 41.0 C 84.1 41.0 84.3 40.9 84.7 41.1 C 84.3 41.3 85.8 41.7 85.8 41.2 C 85.4 41.1 85.4 41.3 85.3 41.4 C 84.8 41.0 84.5 41.0 84.3 40.7 C 84.3 40.7 84.3 40.7 84.3 40.7 Z M 91.3 43.2 C 91.4 43.3 91.5 43.4 91.7 43.5 C 91.7 43.7 91.5 43.5 91.6 43.8 C 91.9 43.9 92.0 43.8 92.2 43.9 C 92.1 43.7 91.6 43.3 92.0 43.3 C 91.9 43.1 91.7 43.0 91.5 42.9 C 91.6 43.4 91.0 42.8 90.7 42.7 C 90.7 43.1 90.3 42.5 90.0 42.7 C 90.1 42.9 90.7 42.9 91.0 43.0 C 90.8 43.0 91.5 43.7 91.3 43.2 C 91.3 43.2 91.3 43.2 91.3 43.2 Z M 80.4 40.2 C 80.4 40.2 80.1 40.2 80.3 40.3 C 80.2 40.4 79.9 40.2 80.0 40.6 C 79.8 40.6 79.7 40.5 79.6 40.5 C 79.6 40.4 80.0 40.5 79.9 40.2 C 79.6 40.3 79.7 40.2 79.4 40.2 C 79.6 40.0 79.4 39.9 79.6 39.6 C 79.4 39.8 79.1 39.7 79.1 39.9 C 78.6 39.8 79.3 39.6 78.6 39.5 C 78.7 39.3 79.1 39.4 79.3 39.5 C 79.4 39.3 78.5 39.3 78.0 39.2 C 78.4 39.4 78.0 39.6 77.8 39.8 C 77.6 39.7 77.8 39.6 77.5 39.5 C 77.3 39.4 77.2 39.6 77.1 39.4 C 76.9 39.4 77.0 39.6 77.0 39.7 C 76.7 39.7 76.9 39.4 76.5 39.4 C 76.8 39.8 76.4 39.8 75.8 39.6 C 75.8 39.7 76.0 39.8 76.0 39.9 C 75.9 40.1 75.6 39.7 75.5 39.6 C 75.2 39.7 75.4 39.8 75.6 39.8 C 75.5 39.9 75.3 39.9 75.2 40.0 C 75.8 40.1 76.9 40.1 78.1 40.6 C 77.9 40.4 78.2 40.3 78.5 40.5 C 78.5 40.6 78.4 40.6 78.2 40.6 C 78.6 40.9 78.7 40.3 79.3 40.6 C 79.7 40.7 78.9 40.7 79.3 40.9 C 79.5 40.8 79.7 40.7 79.8 41.0 C 80.2 40.9 80.4 40.6 81.0 40.7 C 80.7 40.6 80.6 40.0 80.2 40.0 C 80.2 40.1 80.3 40.1 80.4 40.2 C 80.4 40.2 80.4 40.2 80.4 40.2 Z M 93.8 44.4 C 94.1 44.6 94.2 44.5 94.2 44.6 C 94.7 44.7 94.3 44.3 94.2 44.3 C 94.0 44.2 93.9 44.3 93.8 44.4 C 93.8 44.4 93.8 44.4 93.8 44.4 Z M 126.7 72.1 C 127.0 72.6 127.2 72.3 127.4 72.7 C 127.3 72.4 127.4 72.2 127.1 71.7 C 126.9 71.8 126.7 71.9 126.7 72.1 C 126.7 72.1 126.7 72.1 126.7 72.1 Z M 92.5 43.8 C 92.1 44.0 93.0 43.7 93.0 43.9 C 93.4 43.9 92.7 43.6 93.1 43.5 C 92.7 43.5 92.6 43.3 92.1 43.3 C 92.1 43.4 92.4 43.5 92.8 43.6 C 92.8 43.8 92.6 43.7 92.5 43.8 C 92.5 43.8 92.5 43.8 92.5 43.8 Z M 124.0 66.8 C 123.6 66.6 123.9 67.4 123.9 67.6 C 124.2 67.5 124.1 67.4 124.0 66.8 C 124.0 66.8 124.0 66.8 124.0 66.8 Z M 129.1 75.3 C 129.5 75.4 128.8 74.7 129.1 74.8 C 129.0 74.5 128.9 74.5 128.8 74.6 C 128.9 74.4 128.6 74.1 128.8 74.1 C 129.0 73.9 129.1 74.7 129.3 74.3 C 129.4 74.6 129.3 74.6 129.4 74.8 C 129.2 74.4 129.1 74.7 129.3 75.2 C 129.5 75.1 129.3 74.9 129.6 75.1 C 129.5 75.2 129.5 75.5 129.2 75.6 C 129.4 76.1 129.6 75.6 129.9 76.1 C 130.0 76.0 129.8 75.7 129.8 75.5 C 130.1 75.4 129.9 76.1 130.2 75.8 C 130.0 76.0 130.1 76.4 129.9 76.5 C 129.6 76.2 129.3 76.0 129.0 75.7 C 129.0 76.1 129.8 76.3 129.8 76.9 C 130.0 76.7 130.1 77.1 130.3 76.8 C 130.4 77.3 130.0 77.2 130.0 77.2 C 129.9 77.3 130.4 78.1 130.5 77.9 C 130.4 78.1 130.9 79.0 131.2 78.9 C 131.1 79.2 131.7 79.5 131.4 79.8 C 131.6 79.9 131.8 80.3 131.9 80.6 C 132.2 80.6 131.8 80.0 131.9 79.9 C 132.1 79.7 132.2 80.6 132.3 80.4 C 132.4 80.4 132.4 80.4 132.5 80.4 C 132.3 80.1 132.1 79.8 131.9 79.6 C 131.8 79.4 132.0 79.6 132.1 79.5 C 131.9 79.3 131.1 78.6 131.5 78.3 C 131.1 77.8 131.0 77.3 130.7 77.1 C 130.5 76.8 130.9 77.3 131.0 77.0 C 130.1 76.1 129.8 74.6 129.0 74.0 C 128.9 73.8 129.1 73.8 129.2 73.7 C 128.4 72.6 128.6 73.8 128.2 72.8 C 128.4 72.7 128.6 73.1 128.8 73.0 C 128.6 72.7 128.4 72.7 128.2 72.2 C 128.2 72.3 128.1 72.3 128.0 72.4 C 127.8 72.1 128.1 72.0 128.1 71.8 C 127.8 71.4 127.7 71.6 127.8 71.2 C 127.5 70.9 127.2 70.6 127.0 70.1 C 126.7 69.9 126.7 70.6 127.0 71.1 C 126.9 71.1 126.8 71.0 126.7 71.0 C 126.6 70.4 127.0 70.1 126.5 69.3 C 126.7 70.0 126.2 69.1 126.3 68.9 C 126.1 68.6 126.0 69.0 126.1 69.2 C 126.0 69.2 126.0 69.0 126.1 68.9 C 125.7 69.1 126.0 69.9 126.6 70.5 C 126.1 70.4 127.0 71.0 126.3 70.9 C 126.8 71.5 126.7 70.8 127.1 71.5 C 127.1 71.4 127.1 71.2 127.2 71.1 C 127.5 71.6 127.1 71.6 127.5 72.1 C 127.8 72.1 127.5 71.8 127.6 71.7 C 127.8 72.4 127.9 72.7 127.9 73.2 C 128.1 73.2 128.2 73.0 128.5 73.7 C 128.4 73.8 128.4 73.8 128.3 73.8 C 128.2 73.5 127.7 73.6 128.2 74.4 C 128.4 74.4 128.2 74.1 128.1 73.9 C 128.3 73.9 128.5 74.2 128.7 74.5 C 128.8 74.7 128.8 74.9 128.6 74.7 C 128.5 74.9 129.0 74.8 129.1 75.3 C 129.1 75.3 129.1 75.3 129.1 75.3 Z M 100.3 47.1 C 100.5 47.1 100.6 47.1 100.8 47.2 C 100.9 47.1 100.6 46.9 100.6 46.8 C 100.4 46.6 100.5 47.0 100.3 47.1 C 100.3 47.1 100.3 47.1 100.3 47.1 Z M 96.8 45.3 C 96.7 45.5 97.0 45.3 97.3 45.5 C 97.5 45.3 97.1 45.2 97.2 45.1 C 96.8 44.9 97.1 45.5 96.8 45.3 C 96.8 45.3 96.8 45.3 96.8 45.3 Z M 98.3 46.0 C 98.4 46.2 98.5 45.9 98.2 45.8 C 98.3 45.7 98.4 45.6 98.6 45.7 C 98.6 45.3 98.3 45.7 98.0 45.4 C 98.0 45.6 98.2 45.8 98.3 46.0 C 98.3 46.0 98.3 46.0 98.3 46.0 Z M 98.9 46.2 C 99.1 46.1 99.2 46.4 99.5 46.4 C 99.5 46.2 98.8 46.0 98.6 46.0 C 98.4 46.1 99.2 46.5 98.9 46.2 C 98.9 46.2 98.9 46.2 98.9 46.2 Z M 120.6 62.0 C 120.7 62.1 120.7 62.0 120.8 62.0 C 120.8 62.6 121.3 63.0 120.7 62.8 C 121.2 63.1 121.2 63.6 121.4 64.0 C 121.6 64.2 121.7 63.9 121.9 64.2 C 122.1 64.5 121.6 64.1 121.6 64.2 C 121.5 64.4 121.9 64.2 122.1 64.7 C 122.4 64.3 122.4 65.1 122.6 64.7 C 122.7 65.0 122.8 65.0 123.1 65.3 C 123.2 65.2 122.9 64.9 123.0 64.7 C 123.1 64.4 122.7 64.7 123.0 65.0 C 122.7 65.0 122.6 64.3 122.4 64.3 C 122.5 64.0 122.7 64.6 122.8 64.3 C 122.7 64.3 122.6 64.2 122.5 64.2 C 122.4 64.0 122.4 63.8 122.4 63.7 C 122.5 63.8 122.5 63.8 122.5 63.9 C 122.6 64.1 122.6 63.4 123.0 63.9 C 123.0 63.7 122.8 63.5 123.0 63.5 C 123.0 63.2 122.4 63.9 122.3 63.3 C 121.8 63.1 122.7 64.1 122.1 64.2 C 121.6 63.5 122.2 63.6 121.8 63.1 C 121.7 63.1 121.6 63.2 121.5 63.1 C 121.5 63.2 121.6 63.4 121.7 63.5 C 121.7 63.5 121.5 63.3 121.4 63.2 C 121.4 63.3 121.4 63.4 121.4 63.4 C 121.1 62.9 121.5 62.7 121.9 63.0 C 122.1 62.8 121.6 62.3 121.4 62.2 C 121.4 62.5 121.3 62.3 121.2 62.6 C 121.3 62.7 121.4 62.6 121.4 62.6 C 121.6 62.8 121.3 62.7 121.2 62.8 C 121.1 62.5 121.2 62.4 120.9 62.3 C 121.0 62.3 121.1 62.3 121.2 62.2 C 121.1 62.1 121.0 62.0 120.9 61.9 C 120.8 62.0 120.7 61.9 120.6 62.0 C 120.6 62.0 120.6 62.0 120.6 62.0 Z M 124.8 68.5 C 125.0 68.9 125.1 68.6 124.9 68.4 C 125.0 68.4 125.2 68.6 125.3 68.7 C 125.3 68.5 125.2 68.4 125.0 68.0 C 125.5 68.2 125.6 67.6 125.1 67.0 C 124.6 67.1 124.9 67.6 124.5 67.6 C 125.0 67.9 125.0 68.3 124.8 68.5 C 124.8 68.5 124.8 68.5 124.8 68.5 Z M 94.3 44.2 C 94.5 44.3 94.8 44.4 95.1 44.5 C 95.1 44.3 94.3 43.8 94.3 44.2 C 94.3 44.2 94.3 44.2 94.3 44.2 Z M 74.7 39.6 C 74.5 39.6 74.5 39.6 74.5 39.5 C 74.1 39.6 74.7 39.8 74.5 39.9 C 74.6 40.0 74.8 40.0 74.9 40.0 C 74.9 39.9 74.4 39.7 74.8 39.7 C 74.8 39.6 74.7 39.6 74.7 39.6 C 74.7 39.6 74.7 39.6 74.7 39.6 Z M 100.2 46.7 C 100.5 46.7 100.5 46.3 101.0 46.7 C 100.9 46.5 100.7 46.4 100.4 46.3 C 100.3 46.4 100.3 46.6 100.2 46.7 C 100.2 46.7 100.2 46.7 100.2 46.7 Z M 118.8 60.6 C 118.9 61.0 119.4 60.7 119.7 61.4 C 119.7 60.9 119.2 60.8 118.8 60.6 C 118.8 60.6 118.8 60.6 118.8 60.6 Z M 132.8 81.6 C 132.8 81.4 132.9 81.7 132.9 81.2 C 132.7 81.1 132.6 81.0 132.4 80.8 C 132.4 81.3 132.9 81.9 132.7 82.4 C 132.9 82.7 133.1 82.6 133.3 82.6 C 133.2 82.5 133.2 82.4 133.3 82.3 C 132.9 82.2 133.3 81.8 132.8 81.6 C 132.8 81.6 132.8 81.6 132.8 81.6 Z M 124.0 66.7 C 123.9 66.4 124.3 66.7 124.5 66.7 C 124.6 66.9 124.4 66.9 124.3 67.0 C 124.5 67.2 124.6 67.2 124.8 67.0 C 124.5 66.6 124.2 66.1 124.6 66.2 C 124.4 65.8 124.3 66.2 124.1 66.0 C 124.1 65.7 124.3 65.9 124.5 65.7 C 124.4 65.7 123.9 65.5 124.2 65.4 C 123.5 65.0 123.4 65.5 123.4 66.2 C 123.9 66.4 123.7 65.9 124.0 66.7 C 124.0 66.7 124.0 66.7 124.0 66.7 Z M 111.3 53.1 C 111.3 53.2 111.5 53.4 111.5 53.4 C 111.9 53.5 112.2 53.4 112.6 53.4 C 112.7 53.2 112.2 53.1 112.3 53.4 C 112.3 53.2 112.1 52.9 112.1 52.7 C 111.9 52.5 111.5 52.8 111.7 52.5 C 111.4 52.4 111.5 52.5 111.2 52.2 C 111.6 52.8 110.9 52.1 110.7 52.3 C 111.0 52.6 111.3 52.8 111.4 52.6 C 111.6 52.9 111.8 53.1 111.7 53.3 C 111.7 53.4 111.5 53.2 111.3 53.1 C 111.3 53.1 111.3 53.1 111.3 53.1 Z M 113.1 53.7 C 113.0 53.6 112.9 53.6 112.8 53.5 C 112.8 53.6 112.8 53.7 112.7 53.8 C 113.0 54.0 113.1 54.0 113.1 54.2 C 113.3 54.5 113.2 53.9 113.6 54.3 C 113.6 54.2 113.4 54.1 113.4 54.0 C 113.3 54.1 113.1 54.0 113.1 53.7 C 113.1 53.7 113.1 53.7 113.1 53.7 Z M 116.2 57.0 C 116.5 57.3 116.2 56.8 116.4 56.8 C 116.3 56.8 115.8 56.2 116.1 56.1 C 116.1 55.7 115.1 55.7 115.5 55.5 C 115.3 55.4 115.3 55.5 115.2 55.5 C 115.6 55.8 115.5 56.0 115.2 55.8 C 115.2 55.9 115.4 56.1 115.6 56.2 C 115.7 56.1 115.6 56.0 115.7 55.9 C 115.9 56.3 116.0 56.6 116.2 57.0 C 116.2 57.0 116.2 57.0 116.2 57.0 Z M 59.4 39.6 C 59.7 39.6 59.9 39.6 60.1 39.5 C 60.0 39.3 59.8 39.5 59.7 39.5 C 59.6 39.4 59.7 39.4 59.9 39.3 C 59.7 39.1 59.2 39.4 59.4 39.6 C 59.4 39.6 59.4 39.6 59.4 39.6 Z M 62.2 39.3 C 62.6 39.3 62.8 39.3 62.8 39.1 C 62.7 39.0 62.7 39.2 62.5 39.2 C 62.4 39.2 62.3 39.1 62.2 39.0 C 62.1 39.0 62.1 39.1 62.1 39.2 C 62.0 39.2 61.9 39.2 61.9 39.1 C 61.6 39.4 62.4 39.0 62.2 39.3 C 62.2 39.3 62.2 39.3 62.2 39.3 Z M 114.5 55.2 C 114.5 55.1 114.5 54.9 114.2 54.7 C 114.2 54.9 113.9 54.7 113.8 54.5 C 113.9 54.9 114.1 54.9 114.5 55.2 C 114.5 55.2 114.5 55.2 114.5 55.2 Z M 79.6 39.5 C 80.0 39.7 80.0 39.3 80.5 39.6 C 80.5 39.5 80.6 39.4 80.6 39.4 C 80.2 39.5 80.0 39.4 79.6 39.5 C 79.6 39.5 79.6 39.5 79.6 39.5 Z M 19.4 52.7 C 19.4 52.5 19.0 52.8 18.9 52.7 C 19.0 53.1 18.4 52.6 17.6 53.2 C 17.5 53.2 17.6 53.1 17.7 53.0 C 16.9 53.3 18.0 53.1 18.2 53.3 C 18.7 52.9 18.9 53.0 19.4 52.7 C 19.4 52.7 19.4 52.7 19.4 52.7 Z M 131.4 77.0 C 131.3 77.0 131.4 77.1 131.4 77.2 C 131.4 77.2 131.5 77.3 131.5 77.4 C 131.8 77.3 131.7 76.7 132.2 76.9 C 132.1 76.8 132.1 76.8 132.0 76.8 C 131.1 76.4 131.8 75.4 130.9 74.7 C 130.8 74.6 130.8 74.6 130.7 74.6 C 130.8 74.7 130.7 74.8 130.7 74.8 C 131.1 74.8 131.2 75.7 130.9 75.4 C 130.8 75.5 130.9 75.6 130.9 75.6 C 131.0 75.7 131.0 75.8 131.1 75.9 C 131.2 75.8 131.1 75.6 131.2 75.5 C 131.3 76.0 131.5 76.6 131.1 76.4 C 131.3 76.7 131.4 76.7 131.6 76.9 C 131.7 77.1 131.5 77.2 131.4 77.0 C 131.4 77.0 131.4 77.0 131.4 77.0 Z M 133.3 80.7 C 133.4 81.2 133.6 80.9 133.7 81.4 C 133.8 81.0 133.4 80.8 133.3 80.3 C 133.3 80.4 133.4 80.6 133.3 80.7 C 133.3 80.7 133.3 80.7 133.3 80.7 Z M 129.3 72.3 C 129.6 72.3 129.4 71.9 129.2 71.5 C 128.9 71.6 129.1 71.9 129.3 72.3 C 129.3 72.3 129.3 72.3 129.3 72.3 Z M 130.3 74.1 C 130.6 74.5 130.1 73.6 130.5 73.7 C 130.3 73.5 130.2 73.3 130.3 73.2 C 130.2 73.1 130.1 73.2 129.9 72.9 C 129.8 73.0 130.1 73.4 130.0 73.4 C 130.3 73.7 130.3 73.7 130.3 74.1 C 130.3 74.1 130.3 74.1 130.3 74.1 Z M 130.5 74.4 C 130.7 74.6 130.9 74.1 130.7 73.8 C 130.6 74.0 130.5 74.1 130.5 74.4 C 130.5 74.4 130.5 74.4 130.5 74.4 Z M 107.1 48.6 C 107.3 48.7 107.3 48.5 107.5 48.6 C 107.5 48.5 106.8 48.0 107.4 48.4 C 107.4 48.0 107.0 48.3 106.8 48.0 C 106.8 48.2 106.8 48.3 106.7 48.2 C 106.5 48.3 107.3 48.5 107.1 48.6 C 107.1 48.6 107.1 48.6 107.1 48.6 Z M 107.8 49.1 C 108.0 49.2 107.9 49.1 107.9 49.0 C 107.9 49.0 108.1 49.1 108.3 49.2 C 108.2 49.3 108.2 48.8 108.3 48.6 C 107.6 48.3 107.9 48.9 107.8 49.1 C 107.8 49.1 107.8 49.1 107.8 49.1 Z M 108.5 49.4 C 108.8 49.8 109.4 50.2 109.8 50.2 C 109.7 49.7 108.9 49.3 108.5 49.4 C 108.5 49.4 108.5 49.4 108.5 49.4 Z M 104.5 46.8 C 105.1 47.5 106.8 48.0 105.5 47.0 C 105.5 47.2 104.5 46.8 104.1 46.4 C 104.1 46.5 103.5 46.4 103.6 46.3 C 103.1 46.2 104.5 47.0 104.5 46.8 C 104.5 46.8 104.5 46.8 104.5 46.8 Z M 110.5 50.1 C 110.3 50.1 110.3 50.6 110.0 50.3 C 109.9 50.2 110.0 50.4 109.9 50.5 C 110.3 50.7 111.2 51.1 111.1 51.3 C 111.3 51.4 111.5 51.3 111.8 51.6 C 111.9 51.5 110.4 50.8 110.4 50.2 C 110.5 50.2 111.0 50.5 110.5 50.1 C 110.5 50.1 110.5 50.1 110.5 50.1 Z M 79.8 38.0 C 79.7 38.2 80.3 38.2 80.1 38.4 C 80.5 38.2 80.8 38.4 81.1 38.2 C 81.2 38.3 81.1 38.7 81.6 38.8 C 81.7 38.6 81.4 38.6 81.7 38.5 C 82.1 38.5 81.9 38.8 82.5 38.8 C 82.5 38.4 83.7 38.9 83.7 38.5 C 83.4 38.5 83.3 38.7 82.9 38.5 C 82.7 38.5 82.8 38.4 82.6 38.3 C 82.8 38.1 83.0 38.5 83.2 38.3 C 83.2 38.2 82.8 38.1 82.8 37.9 C 82.6 37.9 82.9 38.1 82.8 38.2 C 82.2 38.1 82.8 37.6 82.2 37.6 C 82.3 37.9 82.3 37.9 82.1 38.1 C 81.9 37.9 81.2 38.0 81.6 37.8 C 81.6 37.6 81.2 37.8 81.2 37.9 C 81.0 37.9 80.9 37.8 80.9 37.7 C 80.3 37.7 80.2 37.9 80.3 38.2 C 80.2 38.4 80.1 38.0 79.8 38.0 C 79.8 38.0 79.8 38.0 79.8 38.0 Z M 100.3 44.5 C 99.9 44.5 100.7 44.6 101.0 44.8 C 100.6 44.6 100.9 44.4 100.5 44.1 C 100.6 44.3 100.5 44.3 100.3 44.2 C 100.2 44.3 100.7 44.6 100.3 44.5 C 100.3 44.5 100.3 44.5 100.3 44.5 Z M 112.5 52.1 C 112.5 52.4 113.2 52.7 113.5 53.0 C 113.7 52.7 112.6 52.5 112.7 52.1 C 112.5 52.0 112.7 52.3 112.5 52.1 C 112.5 52.1 112.5 52.1 112.5 52.1 Z M 85.3 39.3 C 85.4 39.3 85.3 39.3 85.3 39.2 C 85.3 39.1 85.7 39.3 85.9 39.3 C 85.6 39.1 86.0 39.1 86.0 38.8 C 86.2 38.9 86.3 38.9 86.3 38.8 C 86.2 39.3 87.3 38.8 86.4 38.5 C 86.5 38.8 86.4 38.7 86.0 38.7 C 85.6 38.5 85.2 38.6 85.1 38.3 C 84.8 38.3 84.7 38.4 84.3 38.3 C 84.3 38.1 84.0 37.9 84.3 37.7 C 83.6 37.5 84.0 38.2 83.4 38.1 C 82.9 37.9 83.7 37.9 83.6 37.7 C 83.5 37.7 83.6 37.6 83.5 37.5 C 83.3 37.5 83.3 37.7 83.5 37.7 C 83.4 37.8 82.8 37.9 83.0 37.7 C 82.7 37.7 83.4 38.5 83.9 38.3 C 84.1 38.3 84.0 38.8 83.8 38.7 C 83.8 38.9 84.4 38.5 84.2 38.9 C 84.4 39.0 84.6 39.0 84.8 39.1 C 84.8 39.0 84.7 39.0 84.7 38.9 C 84.9 38.9 85.1 39.0 85.3 39.0 C 85.1 39.1 85.1 39.2 85.3 39.3 C 85.3 39.3 85.3 39.3 85.3 39.3 Z M 111.0 50.9 C 111.3 51.1 111.5 51.1 111.7 51.2 C 111.8 51.0 111.0 50.6 111.0 50.9 C 111.0 50.9 111.0 50.9 111.0 50.9 Z M 77.5 37.1 C 77.5 37.1 77.8 37.1 77.8 37.3 C 77.3 37.3 77.8 37.5 77.4 37.9 C 78.0 37.7 78.2 37.2 77.5 36.9 C 77.0 36.9 78.1 37.1 77.5 37.1 C 77.5 37.1 77.5 37.1 77.5 37.1 Z M 79.2 37.4 C 79.5 37.3 78.7 37.1 78.5 37.0 C 78.5 36.9 78.5 36.8 78.5 36.8 C 78.0 37.1 78.6 37.3 78.1 37.7 C 78.7 37.9 78.9 38.0 79.4 37.9 C 79.4 37.8 79.2 37.9 79.2 37.9 C 78.9 37.8 79.2 37.5 79.5 37.7 C 79.4 37.6 79.1 37.5 78.9 37.5 C 78.9 37.5 79.0 37.6 79.0 37.7 C 78.7 37.7 78.8 37.5 78.6 37.5 C 78.6 37.4 79.2 37.3 79.2 37.4 C 79.2 37.4 79.2 37.4 79.2 37.4 Z M 50.7 39.3 C 51.0 39.2 50.3 39.0 50.3 38.7 C 50.0 38.7 49.9 38.8 49.7 38.9 C 49.8 39.0 50.2 38.9 50.4 39.0 C 50.4 39.4 49.9 39.1 49.8 39.3 C 49.7 39.7 50.5 39.0 50.7 39.3 C 50.7 39.3 50.7 39.3 50.7 39.3 Z M 92.3 40.8 C 92.5 40.8 92.4 40.7 92.3 40.7 C 92.4 40.6 92.6 40.7 92.6 40.8 C 92.8 40.8 92.5 40.6 92.8 40.7 C 92.9 40.6 92.4 40.6 92.4 40.6 C 92.0 40.5 92.4 40.3 92.3 40.2 C 92.0 40.1 92.1 40.3 91.7 40.2 C 91.9 40.4 92.1 40.6 92.3 40.8 C 92.3 40.8 92.3 40.8 92.3 40.8 Z M 76.5 37.5 C 76.4 37.5 76.9 37.1 77.2 37.4 C 77.7 37.4 76.9 37.1 77.4 37.1 C 77.0 37.0 76.5 37.2 76.0 37.2 C 75.8 37.3 76.7 37.3 76.2 37.3 C 76.2 37.4 76.4 37.4 76.4 37.4 C 76.5 37.4 76.5 37.4 76.5 37.5 C 76.5 37.5 76.5 37.5 76.5 37.5 Z M 77.1 36.9 C 77.1 36.8 77.0 36.9 76.9 36.9 C 76.8 36.9 76.8 36.7 77.0 36.7 C 76.8 36.4 76.7 36.9 76.3 36.7 C 76.5 36.9 76.5 37.1 76.1 36.9 C 75.7 37.1 76.9 37.1 77.1 36.9 C 77.1 36.9 77.1 36.9 77.1 36.9 Z M 55.5 38.3 C 55.4 38.2 55.1 38.2 54.8 38.3 C 55.1 38.0 56.3 38.0 56.5 38.1 C 56.6 38.0 56.7 38.0 56.8 38.0 C 56.8 38.0 57.1 37.8 56.9 37.8 C 56.9 37.7 57.2 37.7 57.2 37.6 C 57.6 37.6 57.1 37.8 57.2 37.9 C 57.7 37.6 57.6 37.8 58.2 37.8 C 58.1 37.5 57.4 37.7 57.4 37.4 C 57.0 37.7 56.4 37.6 56.1 37.4 C 56.6 37.7 54.9 38.2 54.1 38.2 C 54.1 38.1 53.8 38.2 53.4 38.1 C 53.2 37.9 53.3 38.4 53.8 38.2 C 53.8 38.4 53.1 38.4 52.9 38.5 C 53.2 38.5 53.1 38.7 53.2 38.7 C 53.8 38.6 53.3 38.6 53.4 38.4 C 53.5 38.4 53.6 38.4 53.8 38.4 C 53.1 38.9 54.9 38.2 54.3 38.4 C 54.9 38.2 54.9 38.5 55.5 38.3 C 55.5 38.3 55.5 38.3 55.5 38.3 Z M 69.1 37.2 C 69.2 37.1 69.7 37.0 69.7 37.2 C 70.3 37.0 69.8 36.8 70.4 36.8 C 70.4 36.7 70.1 36.7 70.1 36.6 C 69.9 36.7 69.6 36.7 69.7 37.0 C 69.4 37.0 69.3 37.0 69.1 37.1 C 69.2 37.0 69.3 36.9 69.6 36.9 C 69.6 36.7 69.5 36.6 69.1 36.6 C 69.0 36.8 69.1 37.0 69.1 37.2 C 69.1 37.2 69.1 37.2 69.1 37.2 Z M 70.6 36.8 C 70.6 36.9 70.7 37.0 70.7 37.1 C 70.9 37.3 70.8 36.8 71.0 36.8 C 71.2 36.8 71.1 36.9 71.1 37.0 C 71.4 37.0 71.6 36.9 71.7 37.0 C 72.1 36.9 71.3 36.8 71.2 36.7 C 70.9 36.7 71.0 36.9 70.6 36.8 C 70.6 36.8 70.6 36.8 70.6 36.8 Z M 74.8 37.2 C 74.9 37.5 75.0 37.1 75.2 37.2 C 75.1 37.0 74.7 37.1 75.0 36.8 C 74.6 36.7 74.6 36.7 74.1 36.7 C 73.9 36.5 74.1 36.9 74.6 36.8 C 74.5 36.9 74.3 36.9 74.3 37.0 C 74.0 36.6 73.3 37.3 73.7 36.9 C 73.8 37.0 73.9 37.1 74.0 37.2 C 74.1 37.0 75.0 37.2 74.8 37.2 C 74.8 37.2 74.8 37.2 74.8 37.2 Z M 89.4 39.4 C 88.7 39.3 88.7 39.3 88.2 39.1 C 88.2 39.0 88.2 39.0 88.3 39.0 C 88.2 38.8 88.0 38.8 87.8 38.8 C 87.7 38.9 87.9 38.9 87.9 38.9 C 88.3 39.1 87.9 39.1 87.8 39.2 C 88.3 39.6 88.9 39.3 89.1 39.7 C 89.4 39.7 89.1 39.5 89.4 39.4 C 89.4 39.4 89.4 39.4 89.4 39.4 Z M 19.1 50.6 C 19.1 50.7 18.8 50.8 18.9 51.0 C 19.1 50.8 19.3 50.7 19.5 50.5 C 19.0 50.7 18.9 50.3 18.4 50.6 C 18.6 50.6 18.7 50.9 19.1 50.6 C 19.1 50.6 19.1 50.6 19.1 50.6 Z M 73.4 37.1 C 73.4 37.0 73.4 36.9 73.6 36.8 C 73.6 36.7 73.2 36.7 73.2 36.6 C 73.0 36.6 73.1 36.7 72.9 36.7 C 72.9 36.9 73.3 36.8 73.1 37.1 C 73.0 37.1 73.0 37.0 73.0 37.0 C 72.7 37.1 73.1 37.2 73.4 37.1 C 73.4 37.1 73.4 37.1 73.4 37.1 Z M 49.2 39.4 C 49.4 39.3 49.2 39.3 49.0 39.3 C 49.4 38.9 48.6 39.0 48.6 38.7 C 48.8 38.9 49.4 38.6 49.5 38.7 C 49.7 38.6 49.4 38.4 49.9 38.3 C 49.8 38.1 49.3 38.4 49.5 38.5 C 49.3 38.3 48.8 38.7 48.8 38.4 C 48.1 38.5 48.0 38.7 48.0 39.0 C 48.6 38.8 48.4 39.2 48.9 39.0 C 49.0 39.1 48.8 39.1 48.7 39.2 C 48.7 39.3 49.0 39.3 49.2 39.4 C 49.2 39.4 49.2 39.4 49.2 39.4 Z M 64.5 37.2 C 64.9 37.1 64.8 36.9 64.8 36.7 C 64.7 36.8 64.5 36.8 64.2 36.9 C 64.3 37.0 64.7 36.9 64.5 37.2 C 64.5 37.2 64.5 37.2 64.5 37.2 Z M 51.5 38.6 C 51.6 38.6 51.7 38.6 51.7 38.5 C 52.0 38.4 52.2 38.6 52.3 38.7 C 52.5 38.6 52.4 38.4 52.4 38.3 C 52.1 38.6 52.1 38.2 51.6 38.4 C 51.7 38.5 51.6 38.5 51.5 38.6 C 51.5 38.6 51.5 38.6 51.5 38.6 Z M 61.5 37.2 C 61.6 37.2 61.5 37.1 61.5 37.2 C 61.6 36.9 62.3 37.0 62.5 36.9 C 62.5 36.7 61.7 36.8 62.6 36.6 C 62.4 36.5 61.7 36.7 61.3 36.7 C 61.3 36.5 61.9 36.4 61.8 36.2 C 61.4 36.3 60.9 36.5 60.8 36.9 C 61.5 36.9 61.3 37.1 61.5 37.2 C 61.5 37.2 61.5 37.2 61.5 37.2 Z M 60.7 37.1 C 60.8 37.3 60.9 37.1 61.2 37.1 C 60.8 36.8 60.6 37.0 59.8 37.0 C 59.8 37.1 59.8 37.1 59.8 37.2 C 59.7 37.2 59.5 37.2 59.4 37.2 C 60.1 37.4 60.2 37.2 60.9 37.1 C 60.9 37.1 60.8 37.1 60.7 37.1 C 60.7 37.1 60.7 37.1 60.7 37.1 Z M 79.9 37.3 C 79.7 37.2 79.6 37.0 79.2 36.9 C 79.2 37.2 79.4 37.3 79.9 37.3 C 79.9 37.3 79.9 37.3 79.9 37.3 Z M 50.9 38.5 C 50.5 38.8 51.3 38.5 51.0 38.3 C 50.6 38.2 50.3 38.2 50.2 38.0 C 49.6 38.5 50.9 38.2 50.9 38.5 C 50.9 38.5 50.9 38.5 50.9 38.5 Z M 53.5 37.5 C 53.7 37.5 53.7 37.8 53.5 37.6 C 53.1 37.7 53.9 37.8 53.2 37.8 C 53.5 37.9 54.2 37.9 54.4 37.7 C 54.4 37.5 53.8 37.7 53.8 37.5 C 53.8 37.4 53.8 37.4 53.9 37.4 C 53.8 37.3 53.7 37.4 53.5 37.5 C 53.5 37.5 53.5 37.5 53.5 37.5 Z M 55.8 37.5 C 55.5 37.4 55.2 37.3 54.7 37.4 C 55.1 37.5 55.3 37.7 55.8 37.5 C 55.8 37.5 55.8 37.5 55.8 37.5 Z M 26.9 45.9 C 27.3 45.7 26.9 45.6 26.8 45.6 C 26.4 45.8 26.5 45.9 26.1 46.0 C 26.3 46.2 26.6 45.8 26.9 45.9 C 26.9 45.9 26.9 45.9 26.9 45.9 Z M 25.5 46.4 C 25.4 46.3 24.9 46.6 24.8 46.5 C 24.7 47.0 23.8 46.6 24.0 46.9 C 23.9 46.9 23.7 46.9 23.5 47.0 C 24.1 47.2 25.0 46.6 25.5 46.4 C 25.5 46.4 25.5 46.4 25.5 46.4 Z M 58.3 36.6 C 58.7 36.6 58.1 36.3 58.5 36.3 C 58.5 36.2 57.7 36.2 58.2 36.1 C 57.6 36.0 58.3 36.5 58.3 36.6 C 58.3 36.6 58.3 36.6 58.3 36.6 Z M 65.5 35.7 C 65.5 35.9 66.0 35.8 66.2 35.8 C 66.2 35.7 66.0 35.7 65.9 35.7 C 66.0 35.6 66.1 35.6 66.2 35.5 C 66.1 35.4 65.7 35.7 65.5 35.7 C 65.5 35.7 65.5 35.7 65.5 35.7 Z M 58.1 40.9 C 57.8 40.7 57.5 40.5 57.4 40.9 C 57.1 40.7 57.5 40.6 57.2 40.5 C 56.8 40.7 56.9 40.4 56.3 40.6 C 56.4 40.3 55.9 40.4 55.8 40.2 C 56.0 40.1 56.4 40.4 56.5 40.1 C 56.3 40.2 56.4 39.9 56.5 40.0 C 57.0 40.1 56.0 40.4 56.6 40.5 C 56.7 40.1 57.5 40.6 58.0 40.5 C 57.9 40.7 58.4 40.8 58.1 40.9 C 58.1 40.9 58.1 40.9 58.1 40.9 Z M 55.4 40.8 C 55.1 40.8 54.8 40.4 54.9 40.4 C 54.9 40.5 55.3 40.4 55.3 40.3 C 55.2 40.3 55.2 40.3 55.2 40.2 C 55.8 40.2 55.6 40.4 55.8 40.5 C 55.5 40.7 55.4 40.6 55.3 40.7 C 55.3 40.7 55.4 40.7 55.4 40.8 C 55.4 40.8 55.4 40.8 55.4 40.8 Z M 46.7 38.5 C 46.8 38.6 46.9 38.4 47.0 38.3 C 47.1 38.7 47.8 38.0 48.0 38.2 C 47.8 38.4 47.4 38.5 47.3 38.6 C 47.5 38.6 47.5 38.7 47.7 38.5 C 47.7 38.7 47.3 38.8 47.2 39.0 C 47.1 38.9 47.0 39.1 46.9 39.0 C 47.4 38.8 46.4 38.6 46.7 38.5 C 46.7 38.5 46.7 38.5 46.7 38.5 Z M 61.6 35.9 C 61.7 35.7 61.0 35.2 61.5 34.8 C 61.7 35.0 61.8 35.2 61.8 35.5 C 62.1 35.3 62.3 35.5 62.5 35.3 C 63.2 36.0 62.0 35.3 61.6 35.9 C 61.6 35.9 61.6 35.9 61.6 35.9 Z M 64.0 35.5 C 63.9 35.7 64.2 35.7 64.2 35.9 C 63.9 35.7 63.0 36.0 63.3 35.9 C 63.6 35.8 63.6 35.5 64.0 35.5 C 64.0 35.5 64.0 35.5 64.0 35.5 Z M 119.2 57.8 C 118.8 57.6 118.9 57.1 119.2 57.2 C 118.9 57.3 119.5 57.7 119.2 57.8 C 119.2 57.8 119.2 57.8 119.2 57.8 Z M 103.8 50.4 C 104.1 50.7 104.4 50.7 104.3 50.9 C 103.9 50.8 104.0 50.7 103.7 50.5 C 103.7 50.6 103.4 50.6 103.5 50.4 C 103.6 50.5 103.7 50.4 103.8 50.4 C 103.8 50.4 103.8 50.4 103.8 50.4 Z M 72.7 41.1 C 72.7 41.2 72.9 41.2 72.8 41.4 C 72.4 41.3 71.9 41.4 71.6 41.6 C 71.6 41.5 71.6 41.4 71.6 41.3 C 72.2 41.4 72.4 41.2 72.7 41.1 C 72.7 41.1 72.7 41.1 72.7 41.1 Z M 73.5 41.6 C 73.5 41.5 73.3 41.2 73.6 41.2 C 73.6 41.4 74.1 41.6 73.9 41.7 C 73.8 41.5 73.7 41.5 73.5 41.6 C 73.5 41.6 73.5 41.6 73.5 41.6 Z M 49.9 42.5 C 49.6 42.6 50.1 42.7 50.1 42.8 C 49.9 42.8 49.5 42.9 49.4 42.8 C 49.6 42.8 49.7 42.3 49.9 42.5 C 49.9 42.5 49.9 42.5 49.9 42.5 Z M 55.1 40.9 C 55.9 40.7 55.6 41.2 56.4 41.2 C 56.1 41.4 55.4 41.4 55.3 41.7 C 55.3 41.5 55.1 41.5 55.1 41.4 C 55.3 41.3 55.4 41.4 55.7 41.4 C 55.5 41.2 55.6 41.2 55.6 41.0 C 55.4 41.0 55.3 41.1 55.2 41.1 C 55.2 41.0 54.9 41.0 55.1 40.9 C 55.1 40.9 55.1 40.9 55.1 40.9 Z M 49.9 41.9 C 49.6 42.0 49.3 41.7 49.6 41.7 C 49.6 41.8 49.8 41.6 49.9 41.7 C 49.5 41.9 50.2 41.7 50.1 42.0 C 49.8 42.0 49.8 42.1 49.8 42.3 C 49.7 42.3 49.4 42.4 49.4 42.3 C 49.5 42.3 49.7 42.2 49.7 42.2 C 49.6 42.2 49.5 42.2 49.5 42.1 C 49.8 42.1 49.9 42.0 49.9 41.9 C 49.9 41.9 49.9 41.9 49.9 41.9 Z M 51.9 41.4 C 51.5 41.5 51.4 41.3 51.3 41.1 C 51.8 41.1 52.0 41.4 52.4 41.5 C 52.0 41.5 51.6 41.9 51.4 41.8 C 51.6 41.7 51.9 41.6 51.9 41.4 C 51.9 41.4 51.9 41.4 51.9 41.4 Z M 137.6 94.5 C 137.6 94.0 137.7 93.7 137.6 93.2 C 137.4 93.1 137.1 94.1 137.2 93.7 C 137.0 93.2 137.4 93.5 137.4 93.1 C 137.1 93.5 136.6 91.6 136.9 91.5 C 136.9 91.8 137.1 91.8 137.2 91.7 C 137.4 92.5 137.7 92.7 137.9 93.3 C 137.7 93.8 138.0 95.1 138.5 95.7 C 138.2 96.2 138.9 96.9 138.7 97.6 C 138.8 97.7 138.8 97.0 139.0 97.5 C 138.8 97.9 138.6 97.7 138.6 98.2 C 138.7 98.2 138.9 98.0 139.0 98.3 C 138.8 98.3 138.9 98.6 138.8 98.7 C 138.6 97.7 138.5 98.8 138.3 98.1 C 138.3 97.7 138.8 98.3 138.5 97.5 C 138.4 97.2 138.2 96.9 138.0 97.0 C 138.0 96.8 137.9 96.7 137.8 96.6 C 138.2 96.8 137.4 95.4 137.9 96.0 C 137.9 96.1 138.0 96.5 138.2 96.8 C 138.4 96.5 138.1 96.1 137.9 95.6 C 138.0 95.4 138.2 95.7 138.2 95.4 C 137.9 95.0 137.9 95.6 137.7 95.4 C 137.7 95.5 137.7 95.7 137.7 95.7 C 137.7 94.9 137.4 94.7 137.3 94.4 C 137.5 94.6 137.4 93.9 137.6 94.5 C 137.6 94.5 137.6 94.5 137.6 94.5 Z M 139.4 100.5 C 139.4 100.7 139.5 100.9 139.5 101.1 C 139.3 101.2 139.1 100.5 139.0 101.0 C 138.9 100.2 139.3 101.0 139.4 100.5 C 139.4 100.5 139.4 100.5 139.4 100.5 Z M 139.5 96.9 C 139.6 96.6 139.1 96.8 139.1 96.6 C 139.2 97.0 139.4 97.4 139.1 97.5 C 139.1 97.0 139.0 96.8 138.8 96.3 C 139.3 96.7 139.0 95.7 139.2 95.5 C 139.3 95.8 139.5 96.1 139.6 96.6 C 139.5 96.6 139.6 97.4 139.5 96.9 C 139.5 96.9 139.5 96.9 139.5 96.9 Z M 140.1 98.2 C 140.0 98.3 140.3 99.1 140.0 99.0 C 139.9 98.5 139.8 98.3 139.6 98.5 C 139.5 98.2 139.6 98.1 139.5 97.8 C 139.8 97.5 139.9 98.1 140.0 98.2 C 140.0 98.1 140.0 98.0 140.1 98.2 C 140.1 98.2 140.1 98.2 140.1 98.2 Z M 15.2 51.8 C 15.5 52.0 14.8 52.2 14.6 52.2 C 14.9 52.3 14.9 52.4 14.5 52.7 C 14.5 52.4 14.0 52.8 13.5 52.7 C 13.5 53.0 14.0 52.8 13.5 53.1 C 13.1 53.3 12.8 53.6 12.2 54.0 C 11.9 53.9 12.2 53.7 12.3 53.5 C 11.9 53.8 11.9 53.5 11.6 53.7 C 11.7 53.8 11.5 54.0 11.3 54.0 C 11.8 53.6 10.4 54.1 11.0 53.7 C 11.0 53.8 11.1 53.7 11.3 53.5 C 11.3 53.9 12.0 53.4 12.2 53.4 C 12.2 52.8 13.1 52.5 14.2 52.1 C 14.3 52.2 14.0 52.4 14.3 52.3 C 14.3 52.2 14.6 52.1 14.7 51.9 C 14.7 52.0 14.9 52.0 15.1 52.0 C 15.1 51.9 15.1 51.9 15.2 51.8 C 15.2 51.8 15.2 51.8 15.2 51.8 Z M 129.2 68.7 C 129.5 68.5 128.8 67.8 128.5 67.6 C 128.9 67.4 129.8 69.0 129.2 68.7 C 129.2 68.7 129.2 68.7 129.2 68.7 Z M 132.6 74.0 C 132.5 73.7 132.4 74.0 132.3 73.8 C 132.5 73.7 131.7 73.4 131.9 73.2 C 132.3 73.4 132.4 73.6 132.6 74.0 C 132.6 74.0 132.6 74.0 132.6 74.0 Z M 135.2 79.3 C 134.9 78.9 135.2 79.6 135.0 79.6 C 134.9 79.2 134.7 78.8 134.9 78.7 C 135.0 79.1 135.4 79.2 135.2 79.3 C 135.2 79.3 135.2 79.3 135.2 79.3 Z M 131.4 71.3 C 131.3 70.9 131.9 71.3 131.8 71.5 C 131.5 71.1 131.7 71.8 132.0 72.1 C 131.7 72.2 131.7 72.1 131.5 72.3 C 131.2 71.9 131.7 72.1 131.5 71.8 C 131.2 71.6 131.4 71.9 131.2 72.0 C 131.1 71.8 131.1 71.7 131.0 71.5 C 131.1 71.5 131.2 71.4 131.3 71.3 C 131.4 71.5 131.5 71.7 131.6 71.5 C 131.6 71.4 131.5 71.4 131.4 71.3 C 131.4 71.3 131.4 71.3 131.4 71.3 Z M 6.9 56.2 C 6.7 56.4 7.0 56.3 7.2 56.2 C 7.2 56.1 7.1 55.6 7.5 55.7 C 7.0 56.2 7.8 55.9 7.6 56.2 C 7.3 56.1 7.1 56.5 6.8 56.7 C 6.6 56.6 6.7 56.1 6.9 56.2 C 6.9 56.2 6.9 56.2 6.9 56.2 Z M 8.1 55.7 C 8.0 55.6 7.9 55.7 7.7 55.8 C 7.8 55.5 7.5 55.6 7.7 55.4 C 7.8 55.5 8.6 55.1 8.2 55.4 C 7.7 55.6 8.4 55.5 8.6 55.4 C 8.4 55.5 8.1 56.0 8.0 55.8 C 8.1 55.8 8.2 55.7 8.1 55.7 C 8.1 55.7 8.1 55.7 8.1 55.7 Z M 18.0 49.6 C 18.0 49.4 17.7 49.5 17.6 49.5 C 18.4 49.1 19.1 48.8 19.5 48.6 C 19.1 48.8 19.2 49.0 19.5 49.0 C 19.0 49.1 19.0 49.3 18.8 49.2 C 19.0 48.9 18.5 49.3 18.0 49.6 C 18.0 49.6 18.0 49.6 18.0 49.6 Z M 18.0 49.6 " fill="#62D7AD"></path><path d="M 155.5 91.1 C 155.4 91.0 155.2 91.0 155.2 90.8 C 155.2 90.8 155.1 90.9 155.0 91.0 C 155.0 90.9 155.1 90.9 155.1 90.8 C 155.0 90.8 154.9 90.8 154.8 90.7 C 154.7 90.9 155.0 91.0 155.0 91.1 C 155.1 91.1 155.5 91.1 155.3 91.3 C 155.5 91.4 155.4 91.2 155.5 91.1 Z M 155.1 88.4 C 155.5 88.3 155.4 87.8 155.5 88.0 C 155.8 88.1 155.9 88.6 155.7 88.4 C 155.5 88.3 155.0 88.5 155.1 88.4 Z M 155.0 92.1 C 154.9 92.1 154.8 92.0 154.7 92.0 C 154.8 91.9 155.1 91.8 155.1 92.0 C 155.0 92.0 155.0 92.1 155.0 92.1 Z M 149.4 94.1 C 149.3 94.1 149.3 94.2 149.4 94.3 C 149.6 94.3 149.8 94.2 149.7 94.0 C 149.7 94.1 149.6 94.3 149.4 94.1 Z M 145.3 100.5 C 145.3 100.6 145.2 100.6 145.2 100.7 C 145.2 100.7 145.2 100.7 145.2 100.7 C 145.2 101.0 145.5 101.3 145.8 101.2 C 145.7 101.1 145.7 101.2 145.6 101.1 C 145.7 101.0 145.8 101.0 145.7 100.9 C 145.6 101.0 145.6 101.1 145.5 101.0 C 145.5 100.9 145.4 100.9 145.3 100.8 C 145.6 100.6 145.7 101.0 146.1 100.7 C 145.8 100.3 145.4 100.7 145.3 100.5 Z M 147.3 96.6 C 147.3 96.6 147.3 96.6 147.3 96.6 C 147.3 96.5 147.3 96.6 147.2 96.6 C 147.3 96.6 147.3 96.6 147.3 96.6 Z M 151.7 93.8 C 151.7 93.8 151.8 93.8 151.8 93.8 C 151.8 93.7 151.7 93.6 151.7 93.6 C 151.7 93.7 151.5 93.7 151.7 93.8 Z M 153.6 90.1 C 153.3 90.4 153.2 90.3 153.0 90.5 C 153.1 90.5 153.2 90.5 153.2 90.6 C 153.0 90.7 153.1 90.6 153.0 90.8 C 152.9 90.6 152.7 90.8 152.7 91.1 C 152.4 91.0 152.2 91.3 152.1 91.5 C 152.4 91.4 152.3 91.5 152.5 91.6 C 152.3 91.5 152.3 91.9 152.1 91.6 C 152.1 91.4 152.0 91.8 152.2 91.8 C 152.0 91.9 152.2 92.0 152.0 92.2 C 151.9 92.0 151.6 91.7 151.5 92.0 C 151.7 92.0 151.5 92.3 151.9 92.4 C 151.7 92.5 151.5 92.1 151.4 92.4 C 151.6 92.4 151.5 92.5 151.4 92.5 C 151.4 92.6 151.4 92.7 151.3 92.8 C 151.3 92.8 151.2 92.8 151.2 92.8 C 151.1 92.8 150.9 92.8 150.7 92.6 C 150.7 92.7 150.7 92.8 150.6 92.7 C 150.6 92.9 150.9 92.7 151.0 92.8 C 150.8 92.9 150.6 92.9 150.4 92.9 C 150.6 93.3 150.1 93.1 149.9 93.3 C 150.0 93.4 150.1 93.3 150.2 93.2 C 150.5 93.4 150.2 93.5 150.4 93.6 C 150.2 93.7 150.1 94.0 149.8 93.9 C 150.0 94.0 150.2 94.0 150.4 94.2 C 150.3 94.2 150.3 94.3 150.3 94.3 C 150.2 94.3 150.2 94.4 150.2 94.3 C 150.2 94.2 150.0 94.1 150.0 94.1 C 150.0 94.3 150.0 94.4 150.0 94.5 C 149.8 94.2 149.6 94.4 149.4 94.5 C 149.4 94.5 149.4 94.5 149.4 94.5 C 149.5 94.5 149.6 94.5 149.6 94.5 C 149.6 94.6 149.6 94.6 149.5 94.7 C 149.6 94.7 149.6 94.8 149.5 94.7 C 149.5 94.7 149.5 94.7 149.5 94.7 C 149.5 94.7 149.5 94.8 149.5 94.8 C 149.3 94.8 149.4 94.7 149.2 94.7 C 149.2 94.7 149.2 94.7 149.1 94.7 C 149.1 94.7 149.1 94.7 149.1 94.7 C 149.1 94.8 149.1 94.8 149.2 94.8 C 149.1 94.8 149.1 94.8 149.1 94.8 C 149.1 94.8 149.1 94.8 149.1 94.8 C 149.1 94.8 149.1 94.8 149.1 94.8 C 149.1 94.8 149.1 94.8 149.1 94.8 C 149.0 94.8 149.0 94.8 149.0 94.8 C 149.0 95.0 149.2 95.1 149.2 95.2 C 149.1 95.3 149.0 95.2 148.9 95.1 C 148.8 95.4 149.0 95.6 148.9 95.8 C 148.8 95.9 148.8 95.6 148.8 95.5 C 148.8 95.8 148.5 95.6 148.2 95.7 C 148.2 95.8 148.3 95.8 148.3 95.8 C 148.3 95.9 148.3 95.9 148.3 95.9 C 148.3 95.9 148.3 95.9 148.3 95.9 C 148.3 95.9 148.2 95.9 148.2 96.0 C 148.2 96.0 148.2 96.0 148.2 96.0 C 148.2 96.0 148.2 96.0 148.2 96.0 C 148.1 96.0 148.1 96.0 148.1 96.0 C 148.0 96.1 148.0 96.1 148.0 96.3 C 147.8 96.3 147.6 96.1 147.5 96.4 C 147.7 96.5 147.8 96.1 148.0 96.5 C 148.1 96.4 148.1 96.3 148.1 96.3 C 148.2 96.4 148.1 96.4 148.2 96.5 C 148.0 96.7 147.8 96.3 147.6 96.6 C 147.7 96.6 147.8 96.7 147.9 96.8 C 147.8 96.9 147.8 96.8 147.7 96.9 C 147.7 96.7 147.6 96.7 147.5 96.7 C 147.5 96.7 147.6 96.7 147.6 96.8 C 147.5 97.0 147.3 96.6 147.2 96.8 C 147.3 96.8 147.4 96.9 147.4 97.0 C 147.3 96.9 147.2 97.1 147.2 97.1 C 147.2 97.1 147.2 97.1 147.1 97.0 C 147.1 97.1 147.1 97.1 147.1 97.2 C 147.1 97.2 147.0 97.1 146.9 97.1 C 146.8 97.2 146.7 97.3 146.6 97.4 C 146.8 97.5 146.9 97.4 147.0 97.6 C 146.9 97.6 146.7 97.7 146.5 97.5 C 146.6 97.8 146.4 97.8 146.2 97.7 C 146.1 97.6 145.9 98.1 146.2 98.2 C 145.8 98.3 145.9 98.5 145.5 98.9 C 145.3 98.8 145.8 98.7 145.5 98.6 C 145.5 98.3 145.4 99.0 145.2 99.0 C 145.2 99.2 145.2 99.5 144.9 99.7 C 144.9 99.6 145.0 99.5 145.0 99.6 C 144.9 99.3 144.7 99.9 144.5 100.1 C 144.5 100.4 145.0 100.2 144.8 100.4 C 145.0 100.6 145.1 100.3 145.2 100.4 C 145.3 100.2 144.9 100.4 145.0 100.2 C 145.0 100.2 145.1 100.2 145.3 100.2 C 145.2 100.1 145.1 100.0 145.1 100.0 C 145.3 100.1 145.3 100.0 145.4 100.0 C 145.4 100.1 145.4 100.1 145.4 100.1 C 145.5 100.1 145.5 100.0 145.5 99.9 C 145.7 100.0 145.6 100.2 145.5 100.3 C 145.6 100.3 145.7 100.4 145.7 100.4 C 145.6 100.4 145.6 100.4 145.6 100.4 C 145.6 100.4 145.6 100.4 145.6 100.4 C 145.7 100.5 145.8 100.5 145.9 100.4 C 145.8 100.3 145.8 100.3 145.9 100.2 C 146.1 100.3 145.7 100.4 146.0 100.5 C 145.9 100.3 146.4 100.4 146.2 100.1 C 146.2 100.3 145.8 100.0 146.1 100.1 C 146.2 100.2 146.3 100.0 146.5 100.1 C 146.4 100.2 146.4 100.4 146.2 100.4 C 146.6 100.6 146.1 100.5 146.5 100.8 C 146.2 100.8 146.5 101.2 146.3 101.1 C 146.2 101.0 146.3 100.7 146.1 100.9 C 146.1 101.0 146.3 101.1 146.2 101.2 C 146.0 101.3 145.6 101.3 145.6 101.6 L 144.9 101.1 C 144.8 101.2 144.6 101.3 144.3 100.9 C 144.2 101.0 144.3 101.1 144.3 101.2 C 144.0 101.3 144.3 101.0 144.1 101.0 C 143.9 101.3 143.6 101.5 143.5 101.8 C 143.3 101.8 143.0 101.8 143.1 102.0 C 143.2 102.1 143.1 101.8 143.3 102.0 C 143.3 102.1 143.2 102.3 143.5 102.5 C 143.3 102.9 143.1 102.3 142.8 102.3 C 142.8 102.4 142.7 102.4 142.7 102.5 C 142.8 102.6 142.8 102.5 142.9 102.5 C 143.0 102.6 143.0 102.7 143.1 102.8 C 142.7 102.6 142.8 103.0 142.4 102.8 C 141.6 105.1 144.2 104.3 144.4 104.5 L 144.0 106.2 C 144.5 106.1 145.7 104.2 146.1 103.9 C 146.1 103.9 146.3 104.0 146.2 104.0 C 146.3 103.9 146.3 103.7 146.3 103.6 C 146.5 103.6 146.4 103.7 146.6 103.6 C 146.6 103.5 146.5 103.5 146.4 103.4 C 146.5 103.3 146.7 103.6 146.8 103.3 C 146.7 103.1 146.6 103.3 146.5 103.3 C 146.3 103.2 146.8 103.2 146.6 103.1 C 146.7 103.0 146.8 103.1 146.8 103.2 C 147.0 103.4 146.8 102.8 147.1 103.1 C 147.1 103.0 147.1 102.9 147.2 103.0 C 147.3 102.9 147.1 102.8 147.1 102.8 C 147.1 102.7 147.4 102.9 147.2 102.6 C 147.5 102.6 148.0 102.1 147.8 101.9 C 148.0 101.6 148.2 102.0 148.2 101.8 C 148.1 101.5 148.4 101.5 148.6 101.3 C 148.4 101.1 148.7 101.1 148.8 101.0 C 148.7 101.0 148.6 101.0 148.5 100.9 C 148.9 101.0 149.1 100.5 149.0 100.3 C 149.1 100.1 149.3 100.2 149.3 100.0 C 149.4 100.1 149.3 100.2 149.2 100.3 C 149.5 100.4 149.5 100.2 149.7 100.4 C 149.8 100.2 149.2 100.0 149.3 99.8 C 149.4 99.7 149.5 100.1 149.7 99.9 C 149.3 99.8 150.0 99.8 150.1 99.6 C 149.8 99.3 150.6 99.2 150.3 98.9 C 150.6 98.7 150.7 99.0 150.7 98.8 C 150.7 98.3 151.2 98.1 151.5 97.6 C 151.5 97.7 151.6 98.0 151.6 97.8 C 151.7 97.4 151.8 97.6 152.0 97.4 C 151.9 97.3 152.0 97.2 151.8 97.1 C 152.3 96.9 152.6 95.9 153.2 95.7 C 153.3 95.6 153.1 95.6 153.1 95.5 C 153.3 95.5 153.4 95.1 153.6 95.2 C 153.4 95.0 153.8 95.1 153.5 94.9 C 153.6 94.9 153.6 94.9 153.7 94.9 C 153.9 95.0 153.6 95.4 153.8 95.2 C 153.9 94.3 154.6 94.4 154.7 93.8 C 154.8 93.7 154.9 93.9 155.0 93.8 C 155.1 93.8 155.2 93.9 155.1 94.0 C 155.5 94.1 154.9 93.5 155.2 93.6 C 155.3 93.4 155.0 93.6 154.9 93.8 C 154.7 93.6 154.9 93.6 154.7 93.6 C 154.9 93.5 155.1 93.5 155.3 93.2 C 155.4 93.2 155.4 93.3 155.4 93.4 C 155.7 93.5 155.3 93.1 155.4 93.0 C 155.3 93.1 155.2 92.9 155.1 93.0 C 155.1 93.0 155.1 92.9 155.2 92.8 C 155.4 93.0 155.2 92.7 155.4 92.7 C 155.4 92.5 154.9 92.2 154.9 92.4 C 154.9 92.6 155.2 92.4 155.1 92.6 C 154.9 92.8 153.9 92.6 154.4 93.1 C 154.5 93.1 154.3 92.9 154.4 92.8 C 154.6 92.9 154.5 93.0 154.6 93.1 C 154.5 93.2 154.4 93.2 154.3 93.4 C 153.9 93.2 154.2 93.1 154.1 93.0 C 153.8 93.0 153.9 93.4 153.7 93.4 C 153.6 93.6 154.0 93.5 154.1 93.4 C 154.0 93.8 153.6 93.9 153.2 94.0 C 153.1 94.1 153.3 94.1 153.3 94.1 C 153.3 94.2 153.2 94.2 153.1 94.1 C 153.1 94.3 153.1 94.4 153.1 94.6 C 152.9 94.6 152.7 94.6 152.5 94.6 C 152.4 94.7 152.7 94.6 152.8 94.8 C 152.4 94.8 152.7 95.1 152.3 95.1 C 152.2 94.9 152.4 94.8 152.4 94.7 C 152.3 94.6 152.2 94.6 152.1 94.6 C 152.2 95.0 152.2 95.0 151.9 95.3 C 152.0 95.3 152.1 95.2 152.2 95.2 C 152.4 95.4 151.9 95.3 152.3 95.5 C 152.1 95.6 151.9 95.5 152.1 95.7 C 151.7 95.6 151.7 95.8 151.4 96.0 C 151.2 95.9 151.2 95.7 151.4 95.6 C 151.1 95.7 151.1 95.6 151.1 95.4 C 151.2 95.3 151.3 95.4 151.4 95.5 C 151.4 95.4 151.2 95.1 151.4 95.0 C 151.5 94.9 151.4 95.2 151.6 95.1 C 151.6 95.0 151.5 94.9 151.8 94.9 C 151.8 94.8 151.6 94.7 151.7 94.5 C 151.8 94.5 151.8 94.5 151.9 94.5 C 152.1 94.6 151.7 94.7 152.0 94.8 C 152.2 94.6 151.9 94.5 152.1 94.3 C 152.1 94.2 152.1 94.1 152.0 93.9 C 151.9 94.0 151.9 94.1 151.9 94.2 C 151.6 94.0 151.7 94.4 151.5 94.4 C 151.7 94.6 151.4 95.0 151.3 94.9 C 151.4 95.0 151.3 95.4 151.1 95.3 C 151.1 95.3 150.9 95.0 150.7 95.1 C 151.0 95.2 150.8 95.3 151.0 95.4 C 150.6 95.5 150.9 96.0 150.7 96.1 C 150.7 95.8 150.7 95.6 150.7 95.4 C 150.5 95.2 150.3 95.3 150.1 95.2 C 150.5 95.4 149.9 95.3 150.1 95.5 C 150.2 95.5 150.4 95.3 150.5 95.4 C 150.3 95.6 150.7 95.8 150.6 95.9 C 150.3 95.7 150.1 95.7 150.0 95.7 C 150.0 95.9 150.1 95.7 150.2 95.9 C 150.0 96.0 149.7 95.9 149.9 95.8 C 149.8 95.8 149.7 95.8 149.7 95.9 C 150.0 96.0 149.6 96.1 149.7 96.2 C 149.9 96.4 149.9 96.2 150.1 96.2 C 150.0 96.1 149.9 96.1 150.0 96.0 C 150.2 96.3 150.2 95.7 150.4 96.0 C 150.2 96.1 150.5 96.4 150.3 96.3 C 150.3 96.2 150.2 96.3 150.1 96.3 C 150.0 96.4 149.9 96.6 150.0 96.7 C 150.1 96.6 150.2 96.5 150.3 96.7 C 150.0 97.0 149.7 96.7 149.8 96.6 C 149.8 96.5 149.7 96.5 149.7 96.5 C 149.3 96.7 149.6 96.8 149.7 96.9 C 149.3 96.9 149.2 97.0 148.8 97.1 C 148.9 97.2 149.0 97.0 149.1 97.2 C 149.0 97.4 148.8 97.1 148.6 97.4 C 148.7 97.4 148.9 97.4 149.0 97.5 C 148.7 97.7 149.1 97.7 148.9 98.0 C 148.7 97.5 148.7 98.2 148.5 97.8 C 148.4 98.2 148.0 98.4 147.7 98.1 C 147.8 98.2 147.9 98.2 147.8 98.1 C 147.8 98.2 147.4 98.1 147.5 97.9 C 147.7 98.0 148.2 97.7 147.7 97.8 C 148.0 97.5 148.4 97.8 148.8 97.7 C 148.7 97.7 148.7 97.6 148.7 97.6 C 148.5 97.7 148.1 97.7 148.0 97.5 C 148.3 97.4 148.3 97.2 148.4 96.9 C 148.7 97.0 148.5 97.0 148.6 96.7 C 148.8 96.7 149.0 97.0 149.1 96.8 C 149.0 96.8 148.9 96.7 148.8 96.6 C 149.0 96.5 148.9 96.4 149.1 96.2 C 149.2 96.4 149.1 96.5 149.2 96.7 C 149.6 96.4 149.0 96.5 149.3 96.0 C 149.4 96.0 149.5 96.2 149.6 96.1 C 149.6 95.5 150.3 95.2 150.4 94.6 C 150.6 94.6 150.6 94.9 150.7 94.8 C 150.6 94.6 150.8 94.5 150.9 94.1 C 151.3 94.4 151.3 93.9 151.3 93.7 C 151.4 93.8 151.4 93.9 151.5 93.8 C 151.5 93.7 151.5 93.5 151.6 93.4 C 151.6 93.4 151.7 93.4 151.7 93.5 C 151.8 93.5 151.8 93.5 151.7 93.6 C 151.7 93.6 151.7 93.6 151.7 93.6 C 151.8 93.6 151.9 93.7 151.9 93.7 C 152.0 93.7 152.0 93.7 152.1 93.8 C 152.1 93.8 152.0 93.8 152.0 93.8 C 152.1 94.0 152.3 94.2 152.5 94.2 C 152.4 93.9 152.7 93.9 152.7 93.7 C 152.8 93.8 152.8 93.9 152.7 94.0 C 152.8 94.1 152.9 94.3 153.0 94.1 C 152.9 94.1 152.9 94.0 152.8 94.1 C 152.8 94.0 152.9 93.9 152.8 93.9 C 152.9 93.8 153.0 93.8 153.1 93.9 C 153.3 93.7 152.3 93.7 153.1 93.3 C 152.9 93.2 152.9 93.4 152.9 93.2 C 153.1 93.0 153.4 93.0 153.6 92.6 C 153.4 92.3 153.4 92.2 153.0 92.2 C 153.0 92.3 153.2 92.4 153.2 92.7 C 152.9 92.5 152.7 92.6 152.5 92.7 C 152.6 92.9 152.7 93.0 152.7 93.1 C 152.2 92.9 152.2 93.4 151.9 93.4 C 151.9 93.3 151.9 93.1 151.9 93.0 C 152.1 92.9 152.0 93.1 152.2 93.0 C 152.0 92.9 152.1 92.9 152.2 92.8 C 152.2 92.8 152.2 92.7 152.2 92.7 C 152.2 92.7 152.2 92.7 152.3 92.7 C 152.3 92.7 152.3 92.7 152.3 92.7 C 152.3 92.7 152.4 92.7 152.4 92.6 C 152.4 92.6 152.4 92.6 152.5 92.6 C 152.6 92.5 152.4 92.0 152.8 92.0 C 153.0 92.1 152.7 91.8 152.7 92.0 C 152.5 91.9 153.0 91.9 152.7 91.7 C 152.9 91.5 152.8 91.9 153.1 91.8 C 153.2 91.7 152.9 91.8 152.9 91.6 C 153.1 91.5 153.2 91.7 153.3 91.7 C 153.3 91.5 153.1 91.6 153.2 91.4 C 153.4 91.4 153.5 91.3 153.6 91.1 C 153.5 91.0 153.3 91.1 153.2 90.9 C 153.3 90.6 153.5 91.1 153.6 90.7 C 153.5 90.7 153.4 90.8 153.4 90.8 C 153.2 90.6 153.5 90.7 153.6 90.5 C 153.7 90.7 153.6 90.7 153.9 90.8 C 153.8 90.8 153.8 90.8 153.8 90.8 C 153.9 91.1 154.1 90.5 153.7 90.6 C 153.8 90.5 153.9 90.5 153.9 90.6 C 154.0 90.5 153.9 90.5 153.8 90.4 C 153.9 90.3 154.0 90.3 154.2 90.2 C 154.0 90.1 153.8 90.3 153.6 90.1 Z M 149.5 97.7 C 149.4 97.7 149.2 97.6 149.1 97.5 C 149.2 97.2 149.4 97.3 149.6 97.2 C 149.5 97.4 149.8 97.6 149.5 97.7 Z M 147.8 99.7 C 147.6 99.7 147.2 99.8 147.2 99.5 C 147.5 99.5 147.5 99.4 147.8 99.7 Z M 146.5 99.4 C 146.6 99.3 146.2 99.2 146.4 99.0 C 146.6 99.4 146.8 99.1 147.0 99.0 C 147.1 99.1 147.2 99.2 147.1 99.3 C 147.0 99.3 146.9 99.1 146.8 99.2 C 146.9 99.3 146.9 99.6 147.1 99.5 C 146.6 99.7 146.9 99.6 146.9 99.9 C 146.5 99.9 146.0 99.7 146.0 99.3 C 146.3 99.5 146.1 99.2 146.1 99.1 C 146.3 99.3 146.3 99.4 146.5 99.4 Z M 147.6 98.9 C 147.8 98.8 147.8 98.7 147.9 98.7 C 147.8 98.8 147.8 98.9 147.9 99.0 C 147.9 98.9 148.2 98.9 148.0 99.1 C 147.7 98.9 147.5 98.9 147.5 99.2 C 147.3 98.9 147.1 99.1 146.8 98.7 C 147.0 98.4 147.4 98.6 147.6 98.9 Z M 154.0 92.3 C 153.8 92.3 153.8 92.3 153.9 92.5 C 153.8 92.4 153.7 92.6 153.6 92.5 C 153.7 92.5 153.6 92.5 153.5 92.6 C 153.2 92.3 153.8 92.4 153.7 92.2 C 153.6 92.2 153.4 92.1 153.3 92.1 C 153.4 92.1 153.4 91.9 153.4 92.0 C 153.5 92.2 153.5 91.8 153.7 91.9 C 153.7 92.0 153.6 92.0 153.7 92.1 C 153.8 91.9 153.9 92.1 154.1 92.0 C 154.0 92.1 153.9 92.2 154.0 92.3 C 154.0 92.2 154.1 92.2 154.0 92.3 Z M 154.4 89.8 C 154.2 89.9 154.0 89.9 153.8 89.9 C 154.0 90.1 154.5 90.1 154.3 90.2 C 154.2 90.3 154.0 90.0 154.0 90.1 C 154.3 90.2 153.8 90.8 153.6 90.6 C 153.6 90.5 153.6 90.5 153.5 90.4 C 153.7 90.2 153.6 90.0 153.7 89.8 C 154.0 89.8 154.4 89.5 154.3 89.1 C 154.7 89.3 154.6 88.7 155.0 88.8 C 154.9 88.6 154.7 88.8 154.7 88.6 C 155.0 88.7 155.0 88.8 155.2 88.7 C 155.1 88.7 155.0 88.6 155.0 88.5 C 155.1 88.6 155.2 88.5 155.2 88.5 C 155.0 88.8 155.5 88.7 155.4 88.9 C 155.2 89.0 155.2 88.6 155.0 88.9 C 155.0 89.0 154.9 89.1 155.1 89.2 C 155.1 89.3 155.1 89.4 155.1 89.4 C 154.9 89.2 154.9 89.8 154.8 89.4 C 154.8 89.4 154.9 89.3 154.9 89.2 C 154.7 89.1 154.7 89.3 154.6 89.5 C 154.5 89.4 154.5 89.3 154.4 89.4 C 154.4 89.6 154.7 89.5 154.7 89.7 C 154.7 89.6 154.8 89.6 154.8 89.6 C 154.5 89.7 154.6 89.9 154.5 90.0 C 154.5 89.9 154.3 90.0 154.4 89.8 Z M 155.8 90.5 C 156.0 90.6 156.1 90.6 156.1 90.7 C 156.0 90.7 155.9 90.8 155.8 90.8 C 155.9 90.8 155.9 90.8 155.9 90.9 C 155.7 90.8 155.9 90.6 155.8 90.5 Z M 155.6 87.9 C 155.6 87.9 155.7 87.8 155.7 87.8 C 155.9 87.9 155.7 88.1 156.0 88.1 C 155.8 88.3 155.8 87.9 155.6 87.9 Z M 153.9 91.9 C 153.7 91.8 154.1 92.1 154.0 92.1 C 154.1 92.0 154.1 91.8 154.3 92.0 C 154.2 92.1 154.1 92.1 154.1 92.3 C 153.9 92.0 153.8 92.3 153.5 92.2 C 153.6 92.1 153.6 91.9 153.7 91.8 C 153.8 91.9 154.0 91.7 153.9 91.9 Z M 154.2 91.5 C 154.4 91.5 154.4 91.2 154.6 91.4 C 154.5 91.6 154.5 91.6 154.7 91.7 C 154.6 91.8 154.5 91.8 154.4 91.9 C 154.2 91.8 154.3 91.6 154.3 91.5 C 154.3 91.5 154.2 91.5 154.2 91.5 Z M 129.0 96.8 C 129.2 96.6 128.8 96.6 128.7 96.6 C 128.8 96.5 128.4 96.4 128.5 96.2 C 128.6 96.3 128.7 96.3 128.8 96.3 C 128.8 96.4 128.7 96.4 128.7 96.5 C 128.8 96.4 128.9 96.3 129.0 96.3 C 128.9 96.5 129.1 96.5 129.2 96.6 C 129.1 96.7 129.2 96.9 129.0 96.8 Z M 128.8 97.1 C 128.9 97.1 129.0 96.9 129.2 97.1 C 129.0 97.2 129.0 97.3 129.2 97.3 C 129.2 97.5 129.1 97.4 129.0 97.5 C 128.8 97.4 128.9 97.3 128.8 97.1 C 128.8 97.2 128.8 97.1 128.8 97.1 Z M 147.5 103.3 C 147.5 103.3 147.5 103.2 147.5 103.2 C 147.5 103.1 147.4 103.1 147.3 103.1 C 147.3 103.2 147.2 103.2 147.2 103.3 C 147.4 103.2 147.4 103.4 147.5 103.3 Z M 127.0 94.8 C 127.0 94.8 126.9 94.7 126.8 94.8 C 126.8 94.9 126.8 94.9 126.9 95.0 C 126.9 94.9 127.0 94.9 127.0 94.9 L 127.0 94.8 Z M 130.3 99.1 C 130.3 99.1 130.3 99.1 130.3 99.2 C 130.4 99.2 130.4 99.3 130.5 99.2 C 130.5 99.2 130.4 99.2 130.4 99.2 C 130.4 99.1 130.5 99.2 130.5 99.2 C 130.6 99.1 130.4 99.0 130.3 99.1 Z M 140.7 104.6 C 140.7 104.5 140.6 104.5 140.5 104.5 C 140.6 104.7 140.4 104.7 140.3 104.8 C 140.3 104.9 140.4 104.9 140.4 105.0 C 140.5 104.8 140.6 104.7 140.7 104.6 Z M 127.3 90.8 C 126.1 91.4 125.2 92.4 124.9 93.6 C 125.1 93.6 125.0 93.3 125.1 93.2 C 125.7 94.1 127.0 96.6 127.4 94.3 C 127.3 94.6 127.5 94.8 127.7 95.0 C 127.7 95.1 127.5 95.1 127.4 95.2 C 127.5 95.2 127.5 95.3 127.6 95.4 C 127.7 95.4 127.9 95.3 128.0 95.4 C 127.9 95.5 127.8 95.6 127.7 95.7 C 127.9 96.0 128.2 95.6 128.4 95.6 C 128.6 95.6 128.8 95.7 129.1 95.7 C 129.1 96.1 129.4 95.9 129.3 96.1 C 129.5 96.1 129.6 95.9 129.8 95.9 C 129.9 96.1 129.6 96.1 129.6 96.2 C 129.9 96.2 130.3 96.5 130.5 96.1 C 130.4 96.0 130.1 96.2 130.0 96.2 C 130.0 96.0 130.2 96.0 130.4 96.0 C 130.8 96.4 131.2 96.9 131.5 97.3 C 131.1 97.4 131.0 97.1 130.6 96.9 C 130.6 96.8 130.7 96.8 130.6 96.7 C 130.3 96.7 130.3 96.9 130.1 97.0 C 130.0 97.0 129.9 97.0 129.8 96.9 C 129.9 97.0 129.8 97.1 129.9 97.3 C 129.7 97.3 129.9 97.2 129.8 97.0 C 129.7 97.1 129.7 97.1 129.7 97.2 C 129.7 97.0 129.6 97.3 129.6 97.1 C 129.4 97.2 129.5 97.4 129.3 97.4 C 129.4 97.6 129.2 97.4 129.2 97.7 C 129.3 97.7 129.3 97.6 129.4 97.5 C 129.5 97.6 129.3 97.7 129.3 97.8 C 129.4 97.8 129.4 97.8 129.4 97.8 C 129.5 97.9 129.5 97.8 129.5 97.7 C 129.6 97.9 129.4 97.8 129.4 97.9 C 129.3 97.9 129.3 97.8 129.2 97.7 C 129.1 97.9 129.4 98.0 129.5 98.2 C 129.6 98.2 129.5 98.1 129.4 98.1 C 129.5 97.9 129.7 98.0 129.7 97.9 C 129.7 98.1 129.6 98.0 129.6 98.0 C 129.6 98.2 129.8 98.2 129.8 98.3 C 129.9 98.3 129.9 98.3 129.9 98.2 C 130.0 98.2 130.0 98.4 130.1 98.3 C 130.0 98.5 130.0 98.6 130.0 98.7 C 130.1 98.5 130.1 98.7 130.1 98.9 C 130.2 98.8 130.2 98.7 130.1 98.7 C 130.3 98.7 130.2 98.9 130.3 98.9 C 130.5 98.9 130.3 98.8 130.4 98.8 C 130.6 99.1 130.7 99.4 130.7 99.6 C 130.9 99.6 131.0 99.6 131.0 99.8 C 131.1 99.7 131.1 99.8 131.2 99.7 C 131.2 100.0 131.1 99.7 131.3 100.1 C 131.3 100.0 131.3 100.0 131.3 99.9 C 131.5 99.9 131.3 100.1 131.4 100.1 C 131.4 100.1 131.5 100.1 131.5 100.2 C 131.6 100.2 131.6 100.2 131.8 100.2 C 131.7 100.3 131.8 100.4 131.7 100.4 C 131.8 100.5 131.9 100.6 132.0 100.6 C 131.8 100.4 132.1 100.6 132.2 100.6 C 132.2 100.7 132.0 100.5 132.1 100.6 C 132.6 101.6 133.3 102.3 134.1 103.0 C 134.3 103.7 134.7 103.9 135.2 104.3 C 135.2 104.3 135.2 104.2 135.3 104.2 L 135.3 104.3 C 135.3 104.3 135.3 104.3 135.3 104.3 C 135.2 104.4 135.7 104.6 135.9 104.7 C 136.1 104.9 136.1 105.2 136.3 105.4 C 136.4 105.5 136.7 105.6 136.8 105.9 C 136.8 105.9 136.6 106.1 136.8 106.1 C 136.9 106.2 136.7 106.1 136.7 106.1 C 136.6 106.2 136.8 106.2 136.8 106.2 C 136.8 106.3 136.7 106.3 136.7 106.3 C 137.2 107.0 138.1 107.6 138.6 108.3 C 138.9 108.4 139.0 108.7 138.7 108.9 C 138.9 109.2 139.1 109.5 139.5 109.6 C 139.4 109.6 139.4 109.7 139.5 109.8 C 139.5 109.9 139.3 109.9 139.3 109.9 C 139.4 110.1 139.4 110.1 139.2 110.2 C 139.1 110.2 139.1 110.2 139.1 110.1 C 138.9 110.2 138.8 110.3 138.8 110.5 C 139.3 110.9 140.4 111.2 141.2 110.7 C 141.1 110.7 141.1 110.8 141.0 110.8 C 140.8 110.0 141.8 109.7 141.8 108.9 C 142.5 108.8 143.0 108.6 143.4 108.3 L 143.4 108.0 C 143.2 108.0 143.1 107.9 143.0 108.0 C 143.2 107.7 143.4 107.4 143.7 107.2 C 143.9 107.1 143.9 107.3 144.0 107.3 C 144.8 107.1 143.9 106.5 144.0 106.2 C 144.0 105.9 144.4 105.9 144.6 105.7 C 144.8 105.6 144.8 105.3 145.0 105.1 C 145.1 105.2 145.2 105.3 145.2 105.4 L 145.6 105.3 C 145.6 105.0 145.4 104.8 145.2 104.9 C 145.1 104.8 145.2 104.8 145.2 104.7 C 145.7 104.6 146.2 104.8 146.6 104.5 C 146.6 104.4 146.5 104.4 146.4 104.3 C 146.2 104.3 145.8 104.5 145.7 104.3 C 145.8 103.9 146.2 104.2 146.5 104.1 C 146.7 103.7 147.1 103.5 147.0 102.9 C 146.9 102.9 146.9 102.8 146.7 102.8 C 146.8 102.6 146.9 102.4 146.8 102.2 C 147.0 102.2 147.1 102.3 147.2 102.3 C 147.3 102.3 147.1 102.4 147.3 102.4 C 147.3 102.2 147.0 102.2 147.1 101.8 C 147.4 101.9 147.7 102.1 148.0 101.8 C 147.7 101.5 147.6 101.0 147.6 100.5 C 147.4 100.6 147.4 100.2 147.2 100.1 C 147.2 100.0 147.4 100.0 147.4 99.8 C 147.7 100.2 147.9 100.7 148.4 100.6 C 148.4 100.4 148.5 100.2 148.6 100.1 L 148.3 99.4 L 148.4 98.4 L 146.7 100.2 L 145.2 101.7 L 146.0 100.3 L 146.4 97.9 L 146.3 97.9 C 146.2 98.2 146.0 98.4 145.7 98.4 C 145.7 98.5 145.7 98.6 145.8 98.7 C 145.5 98.6 145.7 98.9 145.5 98.9 C 145.5 99.0 145.5 99.0 145.6 99.1 C 145.6 99.2 145.5 99.0 145.4 99.1 C 145.4 99.2 145.3 99.3 145.4 99.4 C 145.2 99.4 145.2 99.5 145.0 99.6 C 145.0 99.8 145.3 99.8 145.4 99.7 C 145.4 99.9 145.1 99.8 145.1 100.1 C 144.9 100.0 145.1 99.7 145.1 99.7 C 145.0 99.8 144.8 99.8 144.8 100.0 C 144.9 100.0 144.9 99.9 145.0 99.9 C 144.8 100.1 144.9 100.1 145.0 100.4 C 144.8 100.4 144.9 100.2 144.8 100.3 C 144.8 100.2 144.8 100.2 144.8 100.1 C 144.6 100.1 144.7 100.3 144.6 100.4 C 144.7 100.6 144.7 100.3 144.8 100.4 C 144.8 100.5 144.7 100.5 144.7 100.5 C 144.5 100.5 144.4 100.4 144.3 100.4 C 144.2 100.5 144.5 100.5 144.5 100.6 C 144.4 100.7 144.4 100.5 144.4 100.5 C 144.2 100.5 144.3 100.6 144.4 100.7 C 144.2 100.6 144.1 100.7 144.1 100.5 C 144.0 100.5 144.1 100.7 143.9 100.7 C 143.9 100.8 144.0 100.8 144.0 100.9 C 143.8 100.6 143.9 101.3 143.5 101.2 C 143.7 101.2 143.5 101.4 143.3 101.4 C 143.1 101.7 143.1 102.0 142.7 102.0 C 143.0 102.1 142.5 102.1 142.6 102.4 C 142.5 102.3 142.5 102.4 142.5 102.3 C 142.4 102.4 142.4 102.5 142.5 102.6 C 142.4 102.5 142.3 102.5 142.2 102.6 C 142.3 102.7 142.1 102.7 142.2 102.8 C 142.2 102.8 142.1 102.8 142.0 102.8 C 141.9 103.1 141.9 103.3 141.6 103.6 C 141.7 103.6 141.7 103.6 141.8 103.6 C 141.8 103.7 141.7 103.7 141.6 103.7 C 141.7 103.7 141.9 103.9 141.9 103.7 C 142.0 103.7 141.9 104.0 142.0 104.0 C 142.0 103.9 142.0 103.9 142.2 104.0 C 142.2 103.8 142.1 103.8 142.0 103.8 C 142.1 103.7 142.2 103.8 142.3 103.7 C 142.3 103.8 142.1 103.8 142.2 103.9 C 142.2 103.9 142.3 103.9 142.2 103.9 C 142.3 103.8 142.3 103.9 142.3 103.9 C 142.3 103.8 142.5 103.7 142.5 103.7 C 142.6 103.7 142.9 103.4 142.8 103.3 C 142.9 103.3 142.9 103.4 143.0 103.3 C 143.1 103.1 143.3 102.9 143.4 102.8 C 143.4 102.9 143.3 103.1 143.2 103.3 C 143.3 103.3 143.3 103.4 143.2 103.5 C 143.1 103.5 143.3 103.4 143.2 103.3 C 143.1 103.2 143.1 103.4 143.2 103.4 C 142.9 103.5 143.0 104.0 142.5 104.1 C 142.5 104.2 142.7 104.1 142.7 104.1 C 142.5 104.3 142.5 104.2 142.4 104.3 C 142.4 104.5 142.4 104.4 142.5 104.3 C 142.6 104.4 142.5 104.4 142.4 104.4 C 142.6 104.5 142.5 104.6 142.5 104.7 C 142.4 104.7 142.5 104.6 142.5 104.5 C 142.4 104.7 142.2 104.5 142.3 104.7 C 142.2 104.7 142.2 104.7 142.2 104.6 C 142.0 104.8 142.1 104.8 142.0 105.1 C 142.0 105.0 141.9 105.0 141.9 104.9 C 141.9 105.1 141.8 105.4 141.6 105.4 C 141.6 105.4 141.5 105.8 141.4 105.7 C 141.2 105.8 141.4 105.8 141.4 105.8 C 141.4 105.9 141.3 105.9 141.3 105.9 C 141.4 106.1 141.2 106.6 141.4 106.7 C 141.1 106.8 141.2 106.3 140.9 106.4 C 141.0 106.2 141.0 106.5 141.1 106.4 C 141.0 106.2 141.3 106.3 141.2 106.1 C 141.1 106.1 141.1 106.1 141.0 106.1 C 141.1 106.2 141.0 106.2 140.9 106.3 C 140.9 106.0 140.5 105.8 140.3 105.6 C 140.4 105.4 140.8 105.5 140.6 105.1 C 140.4 105.0 140.0 105.1 140.1 105.4 C 140.0 105.4 140.0 105.3 139.9 105.3 C 139.9 104.9 140.2 104.6 140.0 104.1 C 139.8 104.1 139.7 104.2 139.7 104.4 C 139.6 104.4 139.6 104.3 139.5 104.3 C 139.6 103.9 139.2 103.8 139.0 103.5 C 138.9 103.4 139.1 103.4 139.0 103.3 L 138.7 103.4 C 138.6 103.0 138.7 102.9 138.9 102.7 C 139.0 102.7 139.0 102.8 139.0 102.9 C 138.9 103.0 138.9 102.9 138.8 102.9 C 138.7 103.0 138.7 103.3 138.9 103.2 C 138.9 103.0 139.2 103.0 139.4 102.8 C 139.4 102.9 139.3 102.9 139.4 103.0 C 139.5 103.1 139.6 103.1 139.8 103.1 C 139.8 103.3 139.6 103.3 139.6 103.4 C 139.6 103.5 139.8 103.3 139.9 103.2 C 140.1 103.5 139.9 104.2 140.3 104.2 C 140.3 104.1 140.2 104.1 140.2 103.9 C 140.3 103.8 140.4 103.8 140.6 103.7 C 140.5 103.3 140.1 103.5 140.0 103.1 C 140.0 103.0 140.2 103.0 140.3 103.0 C 140.3 102.3 139.6 102.4 139.4 102.0 C 139.3 102.2 139.0 102.5 138.7 102.4 C 139.3 102.1 138.9 101.4 138.4 101.3 C 138.5 101.1 138.5 101.1 138.4 100.9 C 138.2 100.9 138.0 101.0 137.8 101.1 C 137.7 100.9 137.9 100.9 138.0 100.9 C 138.0 100.8 138.1 100.7 138.0 100.6 C 137.8 100.6 137.6 100.3 137.1 100.5 C 137.3 100.4 137.4 100.3 137.2 100.2 L 137.5 100.2 C 137.2 100.0 136.9 100.0 136.8 99.6 C 136.8 99.6 136.8 99.5 136.9 99.5 C 136.9 99.4 136.8 99.4 136.7 99.3 C 136.6 99.4 136.5 99.5 136.4 99.6 C 136.4 99.6 136.3 99.6 136.2 99.6 C 136.3 99.4 136.4 99.4 136.4 99.2 C 136.2 99.2 136.2 99.5 136.1 99.5 C 136.1 99.2 136.4 98.9 136.2 98.6 C 135.6 98.7 136.1 99.5 135.7 99.7 C 135.6 99.7 135.5 99.6 135.5 99.5 C 135.6 99.4 135.7 99.5 135.8 99.5 C 135.8 99.1 135.6 99.1 135.4 98.9 C 135.4 98.8 135.5 98.7 135.5 98.6 L 135.9 98.6 C 135.9 98.2 135.3 98.6 135.4 98.4 C 135.2 98.4 135.1 98.7 135.0 98.8 C 134.9 98.6 134.8 98.1 135.0 98.0 C 135.2 98.0 135.0 98.2 135.1 98.3 C 135.2 98.2 135.3 98.0 135.4 97.9 C 135.1 97.9 134.9 97.9 134.7 97.9 C 134.7 97.8 134.8 97.8 134.8 97.7 C 134.6 97.7 134.7 97.5 134.6 97.3 C 134.4 97.4 134.4 97.5 134.3 97.6 C 134.3 97.7 134.3 97.6 134.4 97.6 C 134.4 97.7 134.3 97.7 134.3 97.7 C 134.2 97.7 134.2 97.4 134.2 97.3 C 134.0 97.3 134.0 97.4 133.8 97.4 C 133.7 97.4 133.9 97.3 133.8 97.2 C 133.6 97.3 133.5 97.4 133.4 97.6 C 133.3 97.4 133.4 96.9 133.2 96.7 C 133.1 96.8 133.1 96.9 133.1 97.1 C 133.0 97.0 133.0 96.9 133.0 96.7 C 132.9 96.7 132.9 96.8 132.9 96.8 C 132.8 96.5 132.6 96.5 132.4 96.4 C 132.4 96.3 132.6 96.2 132.7 96.0 C 132.6 95.8 132.6 96.1 132.5 96.1 C 132.4 96.0 132.4 95.7 132.2 95.6 C 132.1 95.7 132.0 95.8 131.8 95.9 C 131.9 96.1 131.8 96.2 131.9 96.2 C 132.0 96.2 131.9 96.0 132.1 96.0 C 132.2 96.0 132.2 96.1 132.3 96.1 C 132.1 96.2 132.1 96.5 131.9 96.5 C 131.9 96.7 131.9 96.9 132.1 96.9 C 131.7 97.0 131.5 96.0 131.8 95.9 C 131.6 95.9 131.5 95.8 131.3 95.7 C 131.2 95.5 131.5 95.5 131.6 95.4 C 131.5 94.9 130.9 95.1 130.9 94.8 C 130.8 94.8 130.7 94.9 130.6 94.9 C 130.5 94.9 130.7 94.7 130.6 94.6 C 130.5 94.6 130.4 94.6 130.3 94.6 C 130.3 94.4 130.3 94.2 130.4 94.1 C 130.6 94.1 130.6 94.3 130.7 94.5 L 130.9 94.4 C 130.9 94.3 130.6 94.1 130.8 93.9 C 130.4 93.9 130.4 93.5 130.2 93.1 C 130.1 93.2 130.0 93.4 130.0 93.5 C 130.1 93.7 130.4 93.8 130.3 94.0 C 129.9 93.6 129.4 93.3 129.0 92.8 C 129.0 92.6 129.2 92.6 129.1 92.4 C 128.8 92.6 128.2 92.5 128.4 92.1 C 128.6 92.2 128.7 92.4 129.0 92.4 C 129.4 91.8 128.0 91.2 127.5 91.2 C 127.5 91.4 127.6 91.4 127.6 91.7 C 127.6 91.8 127.4 91.8 127.3 91.9 C 127.0 91.8 127.4 91.4 127.1 91.2 C 127.2 91.1 127.4 91.1 127.3 90.8 Z M 145.7 98.5 C 145.8 98.5 145.9 98.4 146.0 98.5 C 145.9 98.6 145.8 98.7 145.7 98.5 Z M 143.4 103.5 C 143.5 103.4 143.3 103.4 143.4 103.3 C 143.5 103.3 143.5 103.3 143.5 103.3 C 143.4 103.3 143.4 103.4 143.4 103.4 C 143.5 103.4 143.6 103.4 143.6 103.3 C 143.5 103.2 143.7 103.1 143.8 103.0 C 143.7 103.2 143.8 103.1 143.9 103.2 C 143.7 103.2 143.5 103.6 143.4 103.5 Z M 137.7 100.6 C 137.6 100.8 137.3 101.0 137.1 101.0 C 137.3 100.9 137.6 100.6 137.7 100.6 Z M 130.0 97.9 C 130.0 97.9 130.1 97.9 130.1 97.9 C 130.1 98.0 130.2 98.1 130.1 98.3 C 130.1 98.1 129.9 98.0 130.0 97.9 Z M 130.1 97.6 C 130.1 97.7 130.1 97.8 130.1 97.8 C 130.1 97.7 130.2 97.7 130.2 97.8 C 130.1 97.8 129.9 97.9 129.9 97.8 C 130.1 97.8 129.9 97.6 130.1 97.6 Z M 129.6 97.7 C 129.6 97.5 129.5 97.6 129.5 97.5 C 129.6 97.5 129.4 97.2 129.7 97.2 C 129.6 97.4 129.7 97.5 129.6 97.7 Z M 128.6 94.8 C 128.6 95.0 128.4 95.0 128.4 95.2 C 128.7 95.2 128.9 95.1 129.1 95.0 C 129.2 95.6 129.8 95.3 129.9 95.7 C 129.6 95.7 128.9 95.7 128.9 95.3 C 128.8 95.2 128.6 95.4 128.4 95.5 C 128.3 95.4 128.3 95.1 128.1 95.1 C 128.1 94.9 128.3 94.6 128.6 94.8 Z M 133.5 97.3 C 133.6 97.2 133.7 97.0 133.7 96.9 C 133.6 97.0 133.5 97.1 133.5 97.3 Z M 141.1 104.4 C 140.9 104.6 140.8 104.9 140.9 105.0 C 141.0 105.0 141.1 104.9 141.3 104.9 C 141.3 105.1 141.1 105.0 141.2 105.2 C 141.4 105.0 141.6 104.7 141.6 104.4 C 141.4 104.6 141.4 104.7 141.2 104.8 C 141.2 104.8 141.2 104.8 141.1 104.8 C 141.1 104.6 141.3 104.5 141.1 104.4 Z M 141.1 104.4 " fill="#62D7AD"></path></g></svg>