<?xml version="1.0" encoding="UTF-8" standalone="no"?><svg xmlns="http://www.w3.org/2000/svg" xmlns:xlink="http://www.w3.org/1999/xlink" clip-rule="evenodd" stroke-miterlimit="10" viewBox="0 0 161 52"><desc>SVG generated by Keynote</desc><defs></defs><g transform="matrix(1.00, 0.00, -0.00, -1.00, 0.0, 52.0)"><path d="M 94.6 39.9 C 94.5 40.0 94.3 40.0 94.2 40.1 C 94.3 40.1 94.3 40.2 94.3 40.3 C 94.5 40.2 94.7 40.1 95.0 40.0 C 95.0 40.0 94.8 40.0 94.7 40.0 C 94.6 40.1 94.6 40.0 94.6 39.9 C 94.6 39.9 94.6 39.9 94.6 39.9 Z M 55.1 41.4 C 55.3 41.5 55.1 41.2 55.0 41.1 C 54.9 41.2 54.9 41.2 54.8 41.2 C 54.8 41.0 55.1 41.0 55.3 40.9 C 56.0 41.2 55.4 41.5 55.1 41.4 C 55.1 41.4 55.1 41.4 55.1 41.4 Z M 20.1 28.7 C 19.5 28.3 20.0 28.9 20.0 29.0 C 19.7 28.9 19.7 29.4 19.4 29.2 C 19.4 29.1 19.3 28.9 19.3 28.8 C 19.5 28.9 19.7 29.0 19.7 28.9 C 19.5 28.8 19.3 28.7 19.3 28.6 C 19.7 28.8 19.5 28.4 19.5 28.2 C 19.8 28.5 20.1 28.4 20.1 28.7 C 20.1 28.7 20.1 28.7 20.1 28.7 Z M 135.1 22.1 C 135.2 22.0 135.4 21.9 135.4 22.1 C 135.3 22.2 135.2 22.2 135.0 22.3 C 135.1 22.4 135.2 22.4 135.1 22.5 C 134.8 22.5 134.7 22.2 134.7 22.0 C 134.8 22.2 135.3 21.7 135.1 22.1 C 135.1 22.1 135.1 22.1 135.1 22.1 Z M 122.1 31.2 C 121.5 31.4 122.2 31.5 121.7 31.7 C 121.6 31.5 121.4 31.3 121.7 31.1 C 121.8 31.2 122.0 31.1 122.1 31.2 C 122.1 31.2 122.1 31.2 122.1 31.2 Z M 33.6 37.4 C 33.6 37.2 33.3 37.1 33.4 37.0 C 33.6 37.0 33.8 37.1 34.0 37.2 C 33.9 37.4 33.8 37.5 33.6 37.4 C 33.6 37.4 33.6 37.4 33.6 37.4 Z M 15.2 28.4 C 14.8 27.8 14.0 27.7 14.3 27.6 C 14.2 27.3 15.1 27.3 14.9 27.5 C 14.8 27.8 15.6 28.6 15.2 28.4 C 15.2 28.4 15.2 28.4 15.2 28.4 Z M 51.1 44.9 C 50.4 44.5 50.4 45.2 50.1 44.8 C 50.2 44.8 50.3 44.8 50.4 44.7 C 50.3 44.7 50.1 44.7 50.1 44.6 C 50.4 44.6 50.8 44.6 51.1 44.9 C 51.1 44.9 51.1 44.9 51.1 44.9 Z M 104.0 37.9 C 104.1 37.9 104.1 37.8 104.1 37.7 C 104.5 37.6 104.4 37.4 104.7 37.5 C 104.8 37.8 104.4 37.8 104.1 37.9 C 104.1 37.9 104.0 38.0 104.0 37.9 C 104.0 37.9 104.0 37.9 104.0 37.9 Z M 115.8 34.2 C 115.7 34.0 115.5 34.1 115.8 33.8 C 116.4 33.9 116.1 34.3 115.7 34.6 C 115.7 34.7 115.8 34.8 115.8 34.9 C 116.0 34.8 116.1 34.8 116.3 34.8 C 116.2 34.4 116.8 34.9 117.3 34.4 C 117.1 34.7 117.5 34.8 117.1 34.8 C 117.3 35.0 117.0 35.1 117.1 35.3 C 117.2 35.1 117.7 34.9 117.5 34.7 C 117.7 34.5 117.9 34.5 118.0 34.5 C 118.3 34.6 117.6 34.7 117.9 34.9 C 118.0 34.8 118.1 34.9 118.2 34.8 C 118.2 34.7 118.1 34.6 118.2 34.6 C 118.7 34.4 118.3 34.9 118.8 34.6 C 118.8 34.4 118.6 34.5 118.6 34.4 C 118.8 34.1 118.9 34.3 119.1 34.0 C 119.2 34.1 119.0 34.3 119.2 34.3 C 119.2 33.8 119.8 34.2 120.0 33.7 C 119.5 33.4 120.1 33.8 120.2 33.2 C 120.4 33.3 120.3 33.7 120.6 33.5 C 120.2 33.0 121.4 32.6 120.2 32.6 C 120.7 32.4 120.7 31.9 120.2 32.0 C 121.1 31.7 120.7 31.5 121.0 31.3 C 121.3 31.2 120.9 31.5 121.2 31.6 C 120.8 31.8 121.0 31.9 120.7 31.9 C 120.7 32.0 120.7 32.1 120.6 32.1 C 120.9 31.8 121.5 31.9 121.4 32.3 C 121.2 32.4 121.2 32.0 121.0 32.2 C 121.2 32.4 120.7 32.2 120.8 32.4 C 121.1 32.6 120.7 33.1 121.2 32.9 C 121.2 32.8 121.1 32.7 121.0 32.6 C 121.2 32.5 121.3 32.4 121.4 32.4 C 121.6 32.5 121.6 32.7 121.8 32.7 C 122.0 32.6 122.1 32.5 122.1 32.4 C 121.8 32.5 121.4 32.5 121.8 32.2 C 121.9 32.7 122.4 31.9 122.2 32.4 C 122.8 32.3 122.8 31.8 123.0 32.0 C 123.2 31.9 123.0 31.8 123.3 31.6 C 123.8 31.6 123.6 31.3 124.3 31.1 C 124.2 30.7 124.4 31.2 124.6 31.0 C 124.5 30.9 124.5 30.8 124.4 30.7 C 124.7 30.8 125.3 30.6 125.6 30.1 C 125.8 30.0 125.8 30.3 126.1 30.0 C 126.3 29.5 126.9 29.6 127.2 29.0 C 127.3 29.2 127.6 29.0 127.7 28.8 C 127.8 28.8 127.8 29.2 128.0 29.0 C 128.1 28.7 127.7 28.9 128.1 28.6 C 128.2 28.8 128.3 28.2 128.5 28.4 C 128.4 28.5 128.3 28.7 128.2 28.8 C 128.4 28.7 128.4 28.9 128.6 28.8 C 128.4 28.5 128.8 28.6 128.9 28.6 C 128.8 28.5 128.8 28.3 128.9 28.2 C 129.1 28.1 129.2 28.0 129.3 27.8 C 129.6 27.8 129.3 28.1 129.6 28.0 C 129.3 27.4 130.0 27.8 130.3 27.1 C 130.6 27.1 130.8 27.1 131.2 26.8 C 131.1 26.7 130.8 27.0 130.7 26.9 C 131.3 26.6 130.5 26.8 130.9 26.6 C 131.7 26.2 132.2 25.9 133.0 25.5 C 132.9 25.3 133.4 24.8 133.5 24.9 C 133.3 25.0 134.0 24.9 134.2 24.7 C 134.1 24.3 134.2 23.7 134.1 23.6 C 134.3 23.7 134.3 23.7 134.6 23.9 C 135.1 23.7 135.0 23.3 135.6 23.4 C 135.4 23.2 135.6 23.0 135.7 22.9 C 135.8 23.0 135.8 23.2 135.8 23.4 C 136.0 23.2 136.1 23.3 136.3 23.1 C 136.0 22.4 136.9 22.9 136.6 22.2 C 137.0 22.0 137.1 22.2 137.3 22.0 C 137.3 21.9 137.2 21.8 137.3 21.6 C 137.1 21.8 137.1 22.1 136.8 22.0 C 137.2 21.6 135.6 22.1 136.1 21.3 C 136.2 21.4 136.2 21.6 136.4 21.5 C 136.7 21.1 136.4 21.1 136.2 21.2 C 136.4 20.9 136.7 20.8 136.3 20.7 C 136.9 20.2 136.6 20.6 136.9 20.6 C 137.9 19.5 139.2 18.3 140.8 17.3 C 140.6 17.0 141.5 16.5 141.9 16.4 C 142.1 15.9 142.5 15.4 142.8 15.5 C 142.7 15.3 143.4 15.2 143.3 15.0 C 143.1 15.2 142.9 15.2 143.1 15.0 C 143.7 14.5 144.6 13.8 144.8 13.3 C 145.2 13.3 145.5 12.9 145.6 12.5 C 145.8 12.6 145.6 12.8 145.8 12.7 C 145.7 12.6 146.1 11.9 146.4 11.9 C 146.2 12.0 146.3 12.4 146.5 12.2 C 146.4 12.1 146.7 11.9 146.5 11.8 C 146.9 11.5 147.0 11.2 147.3 11.0 C 147.1 11.3 147.1 11.5 147.2 11.6 C 147.3 11.3 147.3 11.1 147.6 11.1 C 147.3 10.9 147.8 10.7 148.0 10.3 C 148.1 10.3 148.3 10.3 148.5 10.0 C 148.5 9.7 148.0 10.3 148.2 9.9 C 148.3 10.0 148.7 9.8 148.4 9.7 C 148.8 9.4 148.8 9.1 149.3 8.9 C 148.9 9.3 149.4 9.2 149.5 9.2 C 149.6 9.1 149.7 8.9 149.6 8.9 C 149.5 8.8 149.4 9.0 149.3 9.0 C 149.6 8.8 149.4 8.5 149.6 8.5 C 149.5 8.6 149.6 8.7 149.8 8.6 C 149.5 8.3 150.4 7.8 150.3 8.1 C 150.2 8.1 150.0 8.4 150.0 8.5 C 150.2 8.5 150.4 7.9 150.6 8.2 C 150.4 8.5 150.2 8.3 150.0 8.7 C 150.1 8.8 150.0 9.0 150.0 9.2 C 150.4 8.7 150.3 8.4 150.6 8.6 C 150.7 8.3 150.4 8.3 150.7 8.0 C 151.2 7.5 151.1 8.1 151.2 8.0 C 151.5 7.5 151.1 7.4 150.8 7.4 C 151.1 7.1 151.0 6.9 151.4 6.5 C 151.5 6.6 151.6 6.7 151.5 6.9 C 151.4 6.9 151.0 7.1 151.2 7.2 C 151.5 7.4 151.8 7.2 152.2 6.8 C 151.9 6.7 152.0 6.8 152.4 6.4 C 152.0 6.2 152.6 6.2 152.4 6.0 C 152.4 6.0 152.2 6.2 152.1 6.3 C 152.0 6.2 152.0 6.1 152.0 5.9 C 152.2 5.9 152.2 5.7 152.5 5.5 C 152.6 5.6 152.5 5.8 152.6 6.0 C 152.7 5.8 152.6 5.7 152.7 5.5 C 153.0 5.5 153.3 5.7 153.5 6.0 C 153.4 6.2 153.2 6.5 153.5 6.3 C 153.0 7.0 153.3 6.1 153.0 6.3 C 153.1 6.8 152.8 6.4 152.5 6.8 C 152.4 7.0 152.4 7.1 152.5 7.2 C 152.5 7.1 152.9 7.1 152.7 7.4 C 152.5 7.3 152.3 7.4 152.1 7.6 C 152.2 7.7 152.7 7.3 152.3 7.7 C 152.1 8.0 152.0 7.5 151.8 7.9 C 151.8 7.9 151.8 8.0 151.8 8.1 C 152.1 7.6 151.9 8.3 152.2 8.1 C 152.0 8.6 151.9 8.0 151.8 8.3 C 151.9 8.4 151.3 8.6 151.5 8.8 C 151.5 8.6 151.8 8.3 152.0 8.5 C 151.7 8.7 150.7 10.2 150.9 9.4 C 150.8 9.7 150.2 10.9 150.2 10.7 C 150.4 10.4 150.3 10.3 150.2 10.2 C 150.0 10.9 149.6 11.0 149.3 11.8 C 149.9 11.2 149.7 12.0 150.2 11.7 C 150.4 11.6 150.6 11.3 150.6 11.2 C 150.3 11.1 150.2 11.5 150.2 11.7 C 150.0 11.5 149.8 11.4 149.7 11.2 C 150.5 10.7 150.6 10.2 151.0 9.9 C 150.8 10.2 151.7 9.6 151.5 9.9 C 151.2 10.0 150.9 10.3 150.6 10.5 C 150.7 10.6 150.8 10.6 150.8 10.7 C 150.7 10.8 150.5 11.0 150.6 11.1 C 150.9 10.6 151.3 10.6 151.4 10.2 C 151.4 10.2 151.4 10.3 151.5 10.3 C 151.5 10.2 151.6 10.2 151.6 10.2 C 151.5 10.4 151.4 10.5 151.4 10.6 C 151.7 10.4 151.9 10.5 152.2 10.2 C 152.4 10.4 153.0 10.2 152.7 10.8 C 152.4 10.7 152.1 10.9 152.0 10.8 C 151.8 10.8 151.6 11.2 151.6 11.4 C 151.8 11.4 152.1 11.1 152.3 11.3 C 152.2 11.5 152.1 11.8 151.8 11.8 C 152.1 11.2 151.4 11.9 151.1 11.9 C 151.2 11.9 151.3 11.9 151.5 11.9 C 151.2 12.2 150.9 12.3 151.1 12.5 C 150.8 13.0 150.7 12.8 150.4 13.1 C 150.8 13.1 150.3 13.4 150.8 13.4 C 150.3 13.9 150.4 13.3 150.2 13.5 C 150.1 13.7 150.2 13.8 150.0 13.9 C 149.7 14.1 149.3 14.5 149.0 14.4 C 148.8 14.6 148.7 14.5 148.5 14.7 C 148.5 14.8 148.5 15.0 148.5 15.1 C 148.4 15.1 148.2 15.1 148.2 15.3 C 149.0 15.0 148.9 15.2 149.6 14.7 C 149.6 14.6 149.6 14.5 149.4 14.6 C 149.8 14.1 150.0 14.1 150.3 13.8 C 150.5 13.9 150.8 14.0 150.9 13.6 C 151.1 13.8 151.2 13.8 151.1 13.9 C 150.9 14.0 150.6 14.2 150.3 14.4 C 150.3 14.5 150.5 14.5 150.4 14.6 C 150.2 14.7 150.0 14.8 149.9 15.0 C 149.8 15.0 149.8 14.9 149.8 14.8 C 149.3 15.2 149.7 15.3 149.2 15.6 C 149.4 15.6 149.6 15.3 149.5 15.7 C 149.2 16.1 149.0 16.1 148.8 16.2 C 148.8 16.3 148.9 16.3 148.8 16.4 C 148.4 16.6 149.0 15.5 148.3 15.7 C 148.5 16.0 148.0 16.3 147.8 16.3 C 147.8 16.0 148.3 15.9 148.2 15.8 C 147.4 16.6 147.9 15.6 147.0 16.3 C 147.1 16.4 147.1 16.5 147.2 16.5 C 147.5 16.2 147.7 16.3 147.8 16.5 C 148.1 16.2 148.4 16.3 148.5 16.0 C 148.8 16.4 148.3 16.2 148.0 16.5 C 148.2 16.7 148.5 16.4 148.7 16.5 C 147.9 17.1 148.0 17.4 147.1 17.8 C 147.4 17.9 146.7 18.2 146.9 18.3 C 147.4 17.7 147.7 18.4 147.8 18.4 C 148.2 18.0 147.7 17.8 147.8 17.5 C 148.1 17.6 148.1 17.7 148.3 18.0 C 147.9 18.3 148.0 18.3 147.8 18.6 C 147.5 18.7 147.0 18.6 147.2 18.2 C 147.1 18.2 146.8 18.8 146.6 18.7 C 147.1 18.3 146.5 18.6 146.7 18.3 C 146.2 18.5 145.9 19.3 145.3 19.5 C 145.5 19.5 145.3 19.7 145.5 19.8 C 145.7 19.2 146.1 19.6 146.5 19.2 C 146.4 19.4 146.6 19.4 146.7 19.4 C 146.2 19.6 146.2 20.0 145.7 20.1 C 145.8 20.1 145.8 20.2 145.9 20.3 C 145.3 20.6 145.4 20.6 145.2 21.0 C 144.9 21.1 144.9 20.6 144.7 20.3 C 144.6 20.6 144.0 21.1 144.5 21.0 C 144.2 21.3 144.0 21.0 143.7 21.3 C 143.8 21.5 144.2 21.2 144.2 21.5 C 143.9 21.9 143.9 21.5 143.7 21.9 C 143.6 21.7 143.5 21.6 143.2 21.9 C 143.5 21.8 143.2 22.0 143.2 22.2 C 143.4 22.1 143.5 22.0 143.6 22.0 C 143.0 22.4 142.9 22.5 142.5 23.0 C 142.5 22.6 142.2 22.8 142.4 22.4 C 142.3 22.8 141.7 22.8 141.6 23.1 C 141.9 23.0 142.2 22.8 142.4 22.8 C 141.5 23.6 141.2 24.2 140.2 24.6 C 140.3 24.5 140.6 24.3 140.5 24.2 C 140.4 24.3 140.3 24.4 140.2 24.4 C 140.5 24.1 140.8 23.9 140.9 23.7 C 141.2 23.6 140.8 24.0 141.1 23.8 C 141.1 23.7 141.6 23.4 141.3 23.3 C 141.0 23.8 140.4 24.0 140.0 23.8 C 139.9 24.5 140.2 24.2 140.1 24.9 C 140.0 24.8 139.9 24.8 139.7 24.9 C 140.1 25.1 139.4 25.4 139.4 25.4 C 139.5 25.1 140.1 24.4 139.5 24.4 C 140.1 24.8 138.5 25.0 139.0 25.2 C 138.6 25.7 138.5 25.2 138.5 25.7 C 138.4 25.6 138.3 25.5 138.2 25.6 C 138.1 25.7 138.1 25.8 138.1 25.9 C 138.8 25.5 138.8 25.9 139.3 25.5 C 139.2 25.6 139.2 25.7 139.2 25.7 C 139.2 25.7 139.3 25.8 139.2 25.9 C 138.9 25.6 138.8 26.2 138.6 26.1 C 138.7 26.0 138.8 25.9 138.7 25.8 C 138.2 26.3 138.1 26.0 137.2 26.5 C 137.5 26.4 137.2 26.7 137.0 26.9 C 136.6 27.2 136.5 26.8 136.0 27.1 C 136.5 27.6 135.5 27.5 135.2 28.2 C 135.0 27.9 134.2 28.3 134.2 28.7 C 134.1 28.6 133.9 28.8 133.7 28.9 C 133.6 28.8 133.8 28.6 133.6 28.7 C 133.4 28.9 133.7 29.0 133.5 29.2 C 133.2 29.3 133.1 29.0 132.7 29.3 C 132.8 29.5 133.0 29.3 132.9 29.6 C 132.5 29.7 132.2 29.9 132.6 30.0 C 132.1 30.3 132.1 29.8 131.7 30.1 C 131.9 30.1 131.9 30.2 131.7 30.4 C 131.4 30.4 131.3 30.3 131.2 30.2 C 131.2 30.5 131.3 30.5 130.8 30.7 C 130.9 30.8 130.9 30.9 131.0 31.0 C 130.8 31.1 130.6 31.3 130.5 31.2 C 130.8 31.0 130.6 30.9 130.7 30.8 C 130.3 31.0 129.6 31.2 130.2 31.1 C 129.8 31.5 129.8 31.1 129.5 31.3 C 129.9 31.4 129.5 31.4 129.2 31.6 C 129.4 31.9 128.9 31.8 128.7 32.0 C 128.9 32.2 128.9 32.3 128.6 32.4 C 128.6 32.3 128.4 32.4 128.2 32.5 C 128.2 32.6 128.8 32.4 128.3 32.8 C 128.0 32.8 127.9 32.6 127.5 32.8 C 127.2 32.6 127.7 32.5 127.5 32.3 C 127.3 32.7 127.1 32.6 126.6 32.8 C 127.0 33.1 126.0 33.9 126.7 33.7 C 126.5 33.8 126.4 34.3 126.2 34.1 C 126.3 34.0 125.9 34.0 125.9 33.9 C 125.7 34.1 125.1 34.2 125.2 34.4 C 125.6 34.1 125.8 34.3 126.0 34.3 C 125.3 34.9 124.7 35.1 124.6 34.8 C 124.6 34.9 124.5 35.0 124.5 35.1 C 124.8 34.9 125.1 35.1 124.8 35.3 C 124.8 35.1 124.5 35.1 124.3 35.2 C 124.4 35.4 123.3 35.6 123.6 35.8 C 123.9 35.4 124.4 35.6 124.2 35.9 C 123.8 35.8 123.2 36.0 123.2 35.8 C 123.1 35.9 123.0 36.0 123.0 36.2 C 122.9 36.4 123.2 36.3 123.3 36.5 C 123.1 36.6 122.8 36.8 122.7 36.7 C 123.2 36.4 122.4 36.7 122.8 36.2 C 122.5 36.4 122.4 36.4 122.1 36.5 C 122.1 36.5 122.0 36.6 122.0 36.7 C 122.2 36.4 122.5 36.4 122.5 36.7 C 122.1 37.0 122.0 36.7 121.6 36.9 C 121.6 37.1 121.2 37.7 120.9 37.6 C 121.4 37.4 120.8 37.5 121.0 37.3 C 121.6 37.2 121.6 36.9 121.7 36.6 C 121.4 36.6 121.0 36.7 121.0 37.0 C 121.3 36.9 121.3 36.8 121.4 36.6 C 121.4 36.8 121.4 36.9 121.2 37.1 C 120.9 37.0 120.5 37.4 120.7 37.0 C 120.4 37.3 120.0 37.2 119.7 37.6 C 120.1 37.4 120.4 37.4 120.6 37.5 C 120.3 37.7 119.9 37.6 120.0 37.8 C 120.1 38.0 120.6 37.7 120.8 37.8 C 120.5 38.2 119.5 37.9 120.3 38.1 C 120.0 38.2 119.7 38.3 119.5 38.3 C 119.8 38.1 119.4 38.0 119.2 38.0 C 119.0 38.1 118.8 38.2 118.8 38.4 C 119.1 38.1 119.5 38.3 119.3 38.4 C 119.1 38.3 119.1 38.5 119.0 38.6 C 118.9 38.5 118.6 38.8 118.4 38.7 C 118.5 38.8 118.7 38.7 118.8 38.8 C 118.6 39.0 118.4 39.5 118.0 39.3 C 118.2 39.2 118.4 39.1 118.4 39.0 C 117.5 39.0 117.2 38.8 116.3 39.1 C 116.4 39.0 116.4 38.9 116.4 38.9 C 115.8 39.1 115.4 39.1 115.4 38.9 C 115.1 39.1 115.0 39.3 114.9 39.5 C 115.3 39.5 115.3 39.2 115.6 39.3 C 115.5 39.4 116.1 39.6 116.3 39.7 C 116.8 39.2 117.0 39.6 117.5 39.2 C 117.4 39.5 117.9 39.0 117.9 39.3 C 117.2 39.2 116.8 39.7 115.9 40.0 C 115.9 39.7 115.9 39.5 115.6 39.6 C 115.0 39.7 115.4 39.9 114.9 40.0 C 114.7 39.9 114.9 39.8 114.7 39.8 C 114.6 39.9 114.2 40.1 113.9 39.9 C 114.5 39.7 113.8 39.8 114.1 39.5 C 113.9 39.6 113.8 39.6 113.6 39.6 C 114.3 39.7 113.2 40.2 113.7 40.2 C 113.0 40.6 113.4 39.7 112.8 40.0 C 113.2 40.0 112.9 40.3 112.4 40.4 C 112.2 40.2 111.7 40.4 111.3 40.4 C 111.5 40.5 111.7 40.4 111.4 40.7 C 111.6 40.7 111.9 40.6 112.1 40.4 C 112.1 40.5 112.2 40.6 112.3 40.6 C 111.9 40.8 112.1 40.9 112.0 41.0 C 111.8 40.9 111.5 41.1 111.3 41.0 C 111.4 41.1 111.3 41.1 111.3 41.2 C 111.9 41.0 111.3 41.5 111.7 41.4 C 111.9 41.3 111.7 41.2 112.0 41.1 C 112.4 41.2 111.9 41.5 111.8 41.7 C 112.1 41.8 112.3 41.4 112.5 41.6 C 112.3 42.0 111.7 42.1 111.2 42.2 C 111.3 42.5 110.4 42.4 110.4 42.8 C 110.3 42.7 110.2 42.7 110.1 42.7 C 110.0 43.0 109.8 42.7 109.6 42.7 C 109.7 42.9 109.7 43.0 109.9 43.0 C 109.2 43.1 109.1 43.1 108.5 43.5 C 108.3 43.4 108.1 43.3 108.0 43.1 C 108.2 43.1 108.3 43.0 108.4 42.8 C 107.4 43.1 108.3 43.6 107.5 43.4 C 107.5 43.5 108.1 43.6 107.8 43.8 C 107.1 43.7 106.3 44.3 106.1 43.6 C 105.5 43.6 105.3 44.1 105.0 43.9 C 104.8 44.0 104.8 44.1 104.7 44.2 C 104.9 44.2 105.2 44.3 105.4 44.4 C 105.7 44.1 105.9 44.3 105.5 44.1 C 106.0 43.9 106.1 44.0 106.4 44.0 C 105.8 44.4 105.2 44.4 105.2 44.7 C 105.0 44.7 104.8 44.6 104.5 44.5 C 104.5 44.7 103.8 45.0 103.7 44.7 C 104.2 44.7 104.6 44.2 104.1 44.2 C 102.9 44.7 102.1 44.5 101.1 45.0 C 101.0 44.9 101.1 44.7 100.9 44.8 C 100.9 44.9 100.9 45.0 100.8 45.1 C 100.5 45.2 100.2 45.1 99.8 45.3 C 99.8 45.1 99.6 44.9 99.4 44.9 C 99.3 45.2 99.0 45.8 98.7 45.8 C 98.9 45.7 98.5 45.5 98.3 45.5 C 98.5 45.8 96.9 45.6 97.4 45.8 C 96.8 46.0 96.5 45.9 96.5 45.8 C 96.3 45.9 96.1 46.0 95.9 46.1 C 95.7 45.8 94.7 46.2 94.6 46.1 C 94.9 46.2 94.9 45.8 94.7 45.9 C 94.5 46.1 93.6 46.5 93.4 46.4 C 93.4 46.3 93.5 46.1 93.9 45.9 C 93.1 46.0 93.2 46.4 93.0 46.7 C 93.0 46.4 92.6 46.7 92.5 46.8 C 92.3 46.7 92.5 46.7 92.5 46.5 C 92.2 46.5 92.1 46.4 91.7 46.4 C 91.9 46.7 91.4 46.6 91.3 46.6 C 91.3 46.8 91.1 46.9 90.8 47.0 C 91.1 46.5 88.8 46.9 89.4 47.1 C 89.0 47.4 88.9 46.9 88.3 47.0 C 88.2 47.2 87.9 47.1 88.2 47.3 C 87.8 47.4 88.0 47.0 87.5 47.2 C 87.7 47.5 86.9 47.2 87.1 47.6 C 86.8 47.2 86.4 47.8 85.9 47.5 C 85.9 47.6 85.7 47.6 85.7 47.7 C 85.7 47.8 86.3 47.8 85.9 47.9 C 85.4 47.8 85.6 47.7 85.6 47.5 C 84.2 47.8 82.6 47.9 81.1 47.9 C 81.3 48.0 81.3 48.1 81.0 48.2 C 80.5 47.7 78.9 48.1 78.6 48.2 C 78.4 47.9 77.6 48.3 77.4 48.1 C 77.6 48.2 77.9 47.9 77.6 47.9 C 77.3 48.2 77.0 48.0 76.7 48.2 C 76.5 47.9 75.5 48.3 75.9 47.8 C 75.7 47.8 75.6 47.8 75.5 47.7 C 75.5 48.0 75.3 48.0 75.7 48.1 C 74.7 47.9 74.5 48.2 73.7 48.0 C 73.6 48.1 74.2 48.3 73.7 48.3 C 73.7 48.3 73.7 48.2 73.7 48.2 C 73.6 48.2 73.5 48.3 73.4 48.2 C 73.5 48.0 73.7 48.1 73.7 47.8 C 73.4 47.9 73.1 47.5 73.0 47.8 C 73.5 47.8 73.2 48.3 72.9 48.0 C 73.1 47.9 71.7 48.0 71.2 48.2 C 71.0 47.9 71.7 48.1 71.7 47.9 C 70.8 48.0 70.9 47.9 70.8 48.2 C 70.3 48.1 70.2 47.9 69.6 48.1 C 69.3 47.9 69.8 47.9 69.5 47.8 C 69.3 47.9 69.2 48.0 68.9 48.0 C 68.1 47.5 66.2 48.2 65.4 47.4 C 65.7 47.6 65.3 47.7 64.8 47.7 C 64.8 47.6 64.8 47.4 64.7 47.4 C 64.7 47.6 64.5 47.7 64.2 47.6 C 64.2 47.5 64.3 47.4 64.1 47.4 C 63.9 47.6 63.6 47.3 63.3 47.5 C 63.3 47.2 63.9 47.4 63.9 47.2 C 63.2 47.0 63.1 47.2 62.5 47.1 C 62.8 47.1 62.3 46.8 62.2 46.7 C 62.3 47.0 61.9 47.1 62.2 47.3 C 62.0 47.2 61.6 47.3 61.6 47.1 C 61.7 47.1 61.9 47.2 61.9 47.1 C 61.6 47.1 61.3 46.8 61.2 47.0 C 61.4 47.1 61.5 47.1 61.4 47.3 C 61.4 47.4 61.3 47.4 61.1 47.5 C 61.6 46.9 60.4 47.1 60.3 47.2 C 60.2 46.8 60.1 46.8 60.2 46.7 C 59.7 46.6 59.7 46.9 59.4 46.9 C 59.5 46.6 59.7 46.4 59.2 46.2 C 59.3 46.6 58.7 46.4 58.8 46.8 C 57.6 46.8 57.4 46.4 56.7 46.3 C 56.7 46.4 56.9 46.4 56.7 46.4 C 56.4 46.3 56.1 46.2 55.9 46.0 C 55.7 46.2 55.9 46.3 55.7 46.3 C 55.2 46.0 55.4 45.7 54.9 45.4 C 54.3 45.5 54.6 45.4 54.2 45.6 C 54.3 45.7 54.5 45.8 54.3 45.8 C 54.0 45.5 53.9 45.2 53.8 45.2 C 54.1 45.2 54.3 45.3 54.4 45.3 C 54.5 45.2 54.8 45.3 54.6 45.0 C 54.9 45.2 55.3 45.3 55.8 45.3 C 55.7 45.1 56.3 45.3 56.2 45.1 C 55.6 45.0 55.5 44.8 54.9 44.8 C 55.0 45.1 54.4 44.8 54.3 44.8 C 54.3 44.9 53.9 44.8 54.0 45.0 C 53.5 45.0 53.6 44.8 53.2 44.8 C 53.1 44.7 53.2 44.6 53.1 44.5 C 52.9 44.8 52.8 44.4 52.6 44.4 C 52.7 44.7 52.1 44.4 52.0 44.6 C 52.2 44.6 52.4 44.6 52.4 44.7 C 51.7 44.6 52.3 44.9 52.4 45.1 C 52.3 45.0 52.7 44.7 52.7 45.0 C 52.1 45.0 53.4 45.5 52.9 45.3 C 52.5 45.2 52.5 45.4 52.0 45.2 C 51.6 44.7 52.3 44.6 51.8 44.1 C 51.5 44.3 51.2 44.2 51.2 44.4 C 51.1 44.3 51.1 44.2 50.9 44.1 C 50.8 44.2 51.3 44.5 50.9 44.4 C 50.7 44.3 51.0 44.0 50.5 44.0 C 50.3 44.2 51.0 44.4 50.6 44.4 C 50.2 43.9 50.7 44.5 50.1 44.4 C 50.1 44.4 50.0 44.3 49.9 44.3 C 49.9 44.2 50.0 44.0 49.8 44.0 C 49.6 44.3 49.6 43.7 49.3 43.7 C 49.0 44.0 49.6 44.0 49.4 44.2 C 49.1 43.8 48.8 44.1 48.6 44.0 C 49.0 43.9 48.1 43.7 48.1 43.5 C 48.2 43.8 48.0 43.6 47.5 43.7 C 47.5 43.3 46.9 43.5 46.9 43.1 C 46.8 43.2 46.6 43.2 46.5 43.3 C 46.7 43.4 46.9 43.4 46.8 43.6 C 46.6 43.5 46.5 43.5 46.3 43.5 C 46.2 43.2 46.9 42.9 45.9 42.7 C 46.0 43.0 45.6 43.0 45.3 43.0 C 45.2 43.3 45.6 43.1 45.6 43.3 C 45.3 43.4 45.0 43.1 44.9 42.9 C 44.3 42.9 43.7 42.6 42.9 42.4 C 42.8 42.2 43.6 42.4 43.1 42.2 C 42.9 42.1 42.9 42.3 42.7 42.2 C 43.2 41.3 40.6 41.4 40.6 40.9 C 40.5 41.1 39.9 40.8 39.8 41.1 C 40.3 41.0 40.6 41.4 40.7 41.6 C 41.2 41.6 40.4 41.3 40.8 41.3 C 40.8 41.5 41.4 41.5 41.3 41.7 C 40.7 41.6 41.5 42.0 41.0 42.1 C 40.5 41.9 39.3 41.8 39.7 41.6 C 39.6 41.7 39.9 41.8 39.9 41.7 C 39.3 41.4 38.9 41.5 38.6 41.5 C 38.4 41.3 37.2 41.2 37.5 41.2 C 37.5 40.9 38.2 41.4 38.1 41.2 C 37.0 40.7 36.9 40.9 36.2 40.4 C 36.4 40.8 35.3 40.6 35.4 40.5 C 35.5 40.3 35.4 40.0 34.8 40.1 C 35.0 39.9 34.8 39.7 34.6 39.6 C 34.4 39.7 34.7 39.8 34.6 40.0 C 34.3 39.9 34.1 39.8 33.9 39.7 C 33.9 39.6 34.0 39.5 33.8 39.5 C 33.5 39.5 32.5 39.3 32.7 39.3 C 33.2 39.1 32.1 38.8 32.8 38.8 C 32.7 38.7 32.7 38.6 32.5 38.6 C 32.4 38.7 32.4 38.8 32.3 38.9 C 31.8 38.7 32.2 38.4 31.8 38.2 C 31.7 38.3 31.6 38.3 31.5 38.3 C 31.6 38.4 31.7 38.3 31.9 38.4 C 31.5 38.7 32.3 38.8 32.1 39.0 C 31.6 38.9 31.7 38.7 31.6 38.5 C 30.9 38.4 31.2 38.4 30.6 38.1 C 30.6 38.2 30.8 38.2 30.7 38.3 C 30.0 37.9 30.2 37.5 29.6 37.5 C 29.8 37.5 30.3 37.5 30.0 37.4 C 29.6 37.3 29.4 37.5 28.9 37.3 C 28.9 37.2 29.0 37.1 28.9 37.0 C 28.6 37.0 28.5 37.2 28.3 37.2 C 28.3 37.1 28.0 37.0 27.9 37.0 C 27.8 36.8 28.1 36.8 27.9 36.7 C 27.5 36.5 27.1 36.9 26.8 36.7 C 27.0 36.4 26.5 36.3 26.2 36.2 C 26.3 35.9 25.6 35.6 25.2 35.4 C 25.2 35.6 24.8 35.3 24.7 35.6 C 25.0 35.7 25.1 35.8 25.1 35.9 C 24.5 35.7 24.6 35.2 24.1 35.3 C 23.9 35.1 23.8 34.8 23.5 34.6 C 23.4 34.7 24.0 35.1 23.6 35.0 C 23.6 34.9 23.5 34.9 23.3 34.9 C 23.5 34.7 23.2 34.4 23.1 34.2 C 22.8 34.3 22.3 33.6 22.4 34.0 C 21.9 33.8 22.5 33.6 22.1 33.4 C 22.1 33.8 21.5 33.5 21.7 33.8 C 21.2 33.6 21.4 33.3 21.7 33.3 C 21.3 33.0 21.1 33.1 20.9 32.8 C 21.0 33.2 20.3 32.9 20.7 33.0 C 20.9 32.8 20.3 32.7 20.3 32.5 C 20.4 32.7 20.1 32.6 20.4 32.9 C 20.0 32.8 19.5 32.5 19.3 32.1 C 18.8 32.0 18.4 31.8 18.7 31.7 C 18.3 31.5 18.5 31.6 18.1 31.3 C 18.1 31.4 18.2 31.5 18.2 31.5 C 17.6 31.2 17.8 31.1 17.1 30.7 C 17.4 30.5 16.9 30.2 16.9 30.0 C 17.1 30.2 17.3 30.4 17.5 30.6 C 17.7 30.5 17.5 30.3 17.7 30.4 C 17.6 30.5 17.7 30.6 17.8 30.7 C 17.5 30.2 18.6 30.7 18.2 30.7 C 18.2 30.6 18.2 30.6 18.1 30.5 C 18.0 30.8 18.1 30.7 17.9 30.9 C 18.1 31.0 18.2 31.3 18.4 31.2 C 18.4 31.1 18.2 31.0 18.2 30.9 C 18.8 31.1 18.2 31.3 18.7 31.5 C 18.9 31.3 18.7 31.1 18.7 30.9 C 19.1 31.1 19.5 31.4 19.5 31.6 C 19.9 31.7 19.6 31.4 19.9 31.4 C 20.0 31.6 19.9 31.8 20.1 31.9 C 20.4 32.0 20.0 31.7 20.4 31.8 C 20.6 32.1 20.0 32.0 20.4 32.3 C 20.5 31.9 20.8 32.6 20.9 32.4 C 20.6 32.2 20.8 31.9 20.8 32.2 C 21.2 32.9 22.1 32.3 22.4 33.1 C 22.5 33.1 22.6 33.1 22.6 33.0 C 22.3 32.7 21.6 32.3 21.6 31.9 C 21.2 31.7 21.2 32.0 21.1 32.0 C 20.8 31.5 20.9 31.5 21.3 31.3 C 22.0 31.7 22.2 32.0 22.7 32.3 C 23.0 32.3 22.7 32.3 22.7 32.1 C 24.0 33.1 23.2 31.9 23.7 32.2 C 23.7 32.3 23.7 32.4 23.9 32.5 C 23.9 32.4 24.1 32.6 24.2 32.5 C 24.1 32.5 24.1 32.4 24.2 32.3 C 24.6 32.4 24.3 32.6 24.3 32.7 C 24.0 32.6 23.8 32.5 23.7 32.6 C 24.1 32.7 24.3 33.0 24.6 32.9 C 24.8 33.4 24.1 33.5 24.2 33.8 C 24.0 33.9 24.7 33.4 25.0 33.4 C 25.5 33.7 25.6 33.4 26.0 33.6 C 26.0 33.9 25.6 33.5 25.5 33.7 C 25.6 33.8 25.6 33.9 25.7 33.9 C 26.0 34.1 26.1 33.8 26.4 33.9 C 26.4 34.2 26.5 34.1 26.8 34.1 C 27.0 34.3 26.5 34.2 26.8 34.4 C 27.1 34.6 27.5 34.4 27.5 34.5 C 27.5 34.6 27.4 34.7 27.6 34.7 C 28.0 34.8 28.1 34.8 27.7 34.4 C 28.1 34.7 28.3 34.7 28.3 34.4 C 27.8 34.1 27.6 34.1 27.5 33.6 C 27.2 33.8 27.1 33.5 27.0 33.4 C 26.9 33.8 26.7 33.3 26.5 33.4 C 26.6 33.5 26.7 33.6 26.8 33.7 C 26.2 33.4 26.2 33.4 25.5 33.5 C 25.5 33.4 25.5 33.3 25.5 33.2 C 25.7 33.2 26.1 33.5 26.2 33.3 C 26.0 32.8 25.7 33.2 25.4 32.7 C 25.1 32.8 25.6 33.1 25.3 33.0 C 25.2 32.7 25.0 32.5 24.8 32.3 C 24.5 32.2 24.3 32.2 24.1 32.2 C 24.1 32.1 24.1 32.0 23.9 31.9 C 23.9 32.0 24.0 32.2 23.8 32.1 C 23.3 31.5 22.9 31.1 22.2 30.8 C 22.4 31.0 22.8 31.5 22.6 31.4 C 22.3 31.1 21.8 31.1 21.6 30.8 C 21.5 30.6 21.9 31.0 22.0 30.6 C 21.7 30.5 21.5 30.3 21.4 30.2 C 21.4 30.3 21.1 30.1 21.0 30.3 C 21.3 30.5 21.5 30.3 21.5 30.4 C 20.9 30.9 20.7 29.7 20.2 29.4 C 19.9 29.3 20.4 29.8 20.0 29.6 C 19.7 29.6 19.9 29.0 20.2 29.1 C 20.4 29.4 20.7 29.2 20.6 29.4 C 20.7 29.5 20.8 29.6 20.9 29.5 C 20.7 29.4 20.8 29.3 20.7 29.1 C 21.0 29.3 21.2 28.9 21.3 29.3 C 21.2 29.2 21.1 29.3 21.0 29.3 C 21.7 29.6 21.8 29.9 22.1 30.2 C 22.0 29.9 22.2 30.1 22.2 29.9 C 21.9 29.8 21.5 29.4 21.8 29.5 C 21.9 29.9 22.5 29.3 22.5 29.7 C 22.3 29.6 22.3 29.8 22.2 29.8 C 22.4 29.9 22.3 30.1 22.5 30.3 C 23.5 30.4 23.8 31.3 25.4 31.5 C 25.8 31.7 24.9 31.4 24.8 31.6 C 25.0 31.7 25.0 31.7 25.1 31.8 C 25.2 31.6 25.3 31.9 25.6 31.8 C 25.4 32.0 26.1 32.1 26.3 32.4 C 26.4 32.4 26.4 32.2 26.6 32.3 C 27.3 33.0 29.2 33.4 29.8 34.0 C 29.8 33.8 30.2 34.0 30.3 33.9 C 30.7 34.1 30.4 34.2 31.2 34.3 C 31.5 34.4 31.1 34.4 31.0 34.5 C 32.0 34.8 32.8 35.4 33.5 35.3 C 33.8 35.4 33.4 35.5 34.0 35.8 C 34.2 35.5 35.0 36.4 35.3 36.1 C 35.7 36.2 36.2 36.9 36.1 36.4 C 36.6 36.6 36.1 36.8 36.3 36.9 C 36.7 37.0 36.4 36.3 36.8 36.4 C 36.7 36.6 37.0 36.6 37.2 37.0 C 36.9 36.8 36.7 36.8 36.6 36.9 C 36.9 36.9 36.8 37.1 37.3 37.2 C 37.6 37.1 38.6 37.2 38.7 37.7 C 38.8 37.6 38.7 37.5 38.7 37.4 C 38.9 37.5 39.2 37.8 39.2 37.5 C 39.8 37.7 40.0 38.1 40.4 37.9 C 40.7 37.9 40.2 38.1 41.0 38.4 C 41.1 38.1 42.4 38.6 42.7 38.9 C 42.9 38.6 42.8 38.9 43.0 39.0 C 43.1 38.9 43.1 38.8 43.2 38.8 C 43.2 38.9 43.4 38.9 43.5 38.9 C 43.3 39.2 44.0 38.9 44.0 39.2 C 43.9 39.2 43.8 39.3 43.9 39.4 C 44.0 39.1 44.5 39.7 44.5 39.5 C 44.4 39.4 44.0 39.3 44.1 39.1 C 44.7 39.2 44.4 39.5 44.7 39.6 C 44.7 39.5 44.6 39.3 44.8 39.3 C 45.2 39.5 44.8 39.4 45.0 39.6 C 45.2 39.6 45.6 39.6 45.8 39.6 C 45.7 39.6 45.8 39.8 45.8 39.8 C 46.5 40.1 48.2 40.2 48.8 40.7 C 48.9 40.6 49.0 40.6 49.0 40.4 C 49.4 40.6 49.4 40.6 49.8 40.8 C 49.8 40.6 49.8 40.5 49.8 40.4 C 50.4 40.4 49.8 40.8 50.2 40.8 C 50.3 40.3 50.4 41.1 50.7 41.1 C 50.8 41.0 50.9 41.0 50.9 40.8 C 51.4 41.0 51.3 41.3 51.8 41.3 C 51.7 41.2 51.8 40.5 51.9 40.2 C 51.9 40.4 52.1 40.5 52.2 40.5 C 52.0 40.7 51.9 41.7 52.6 41.5 C 52.2 41.5 52.1 41.4 52.3 41.2 C 52.8 41.3 52.9 41.5 53.3 41.6 C 53.4 41.3 53.1 41.2 53.3 41.0 C 53.4 41.0 53.5 41.0 53.5 40.9 C 53.9 41.0 53.9 41.2 54.4 41.1 C 54.4 41.3 54.3 41.3 54.1 41.1 C 54.1 41.3 54.1 41.5 53.8 41.5 C 53.8 41.3 54.0 41.1 53.5 41.1 C 53.5 41.3 53.5 41.4 53.5 41.5 C 53.8 41.6 54.5 41.9 54.6 41.8 C 54.4 41.7 54.2 41.6 54.4 41.4 C 54.9 41.5 55.0 41.8 55.4 42.0 C 56.1 42.1 57.5 42.3 57.4 41.9 C 57.8 42.1 57.6 42.1 58.0 42.2 C 58.0 41.9 58.5 42.1 58.5 41.9 C 58.0 41.9 58.2 41.9 57.7 41.9 C 57.7 41.7 57.8 41.6 58.0 41.6 C 58.0 41.8 58.2 41.8 58.5 41.9 C 58.5 41.8 58.2 41.5 58.6 41.5 C 58.6 41.6 58.7 41.6 58.8 41.6 C 58.8 41.8 58.8 41.9 58.8 42.0 C 58.6 42.1 58.3 42.1 58.2 42.2 C 58.3 42.2 58.3 42.3 58.4 42.3 C 58.5 42.2 59.1 42.4 59.2 42.3 C 58.9 42.3 58.8 42.1 59.0 42.1 C 59.1 42.1 59.4 42.3 59.6 42.2 C 59.1 42.0 59.3 42.0 59.1 41.7 C 59.7 41.7 59.5 42.0 60.2 42.0 C 60.2 42.2 60.1 42.4 60.0 42.4 C 60.3 43.0 61.3 42.6 61.6 42.7 C 61.4 42.7 61.1 43.0 61.5 43.0 C 61.5 42.9 61.7 43.0 61.8 42.9 C 61.9 42.4 61.7 42.2 61.4 41.9 C 61.7 41.9 61.8 41.8 62.0 41.9 C 62.1 42.0 61.8 42.4 62.1 42.4 C 62.2 42.1 62.7 42.5 62.8 42.2 C 62.6 42.2 62.4 42.0 62.7 42.0 C 62.6 42.2 63.1 42.1 63.1 42.3 C 62.7 42.4 62.6 42.6 62.4 42.5 C 62.6 42.6 62.1 42.7 62.6 42.8 C 62.8 42.7 63.0 42.4 63.5 42.5 C 63.7 42.6 63.5 42.8 63.7 42.8 C 63.7 42.6 64.2 42.6 63.9 42.8 C 64.1 42.8 64.2 42.8 64.3 42.9 C 64.0 42.6 65.4 42.4 65.2 42.2 C 65.2 42.6 65.2 42.9 65.3 43.0 C 65.5 42.7 65.8 42.9 66.5 43.0 C 66.5 42.6 66.6 42.9 67.0 42.9 C 67.0 42.8 66.8 42.7 67.0 42.7 C 67.3 42.8 67.3 42.8 67.4 42.9 C 67.6 42.9 67.8 43.0 67.9 43.0 C 67.9 42.9 67.9 42.8 67.8 42.8 C 68.7 43.1 69.2 42.8 70.0 42.9 C 69.7 42.7 69.6 43.1 69.9 43.1 C 70.1 43.1 70.2 43.0 70.3 42.9 C 70.1 42.7 70.2 42.9 70.6 42.9 C 71.0 42.8 70.5 42.5 70.7 42.5 C 71.0 42.6 70.9 42.7 71.0 42.8 C 71.2 42.8 71.3 42.8 71.4 42.8 C 71.2 42.7 71.5 42.6 71.7 42.5 C 71.5 42.8 71.6 42.8 72.1 42.7 C 72.2 42.9 71.9 42.9 72.1 43.0 C 72.2 43.0 72.6 42.7 73.0 42.9 C 72.9 42.9 72.8 43.0 72.8 43.1 C 73.2 42.9 73.5 43.2 73.8 43.3 C 73.5 43.1 73.7 42.9 73.5 42.7 C 73.9 42.9 74.3 42.7 74.5 43.0 C 74.0 42.9 74.5 43.4 74.8 43.4 C 74.9 43.2 74.4 43.3 74.5 43.0 C 74.7 42.8 75.1 43.1 75.2 42.9 C 75.2 42.7 75.0 42.9 74.9 42.8 C 75.2 42.8 74.9 42.7 75.1 42.6 C 75.2 42.9 75.4 42.5 75.5 42.5 C 75.7 42.6 76.1 42.9 76.2 42.7 C 76.2 42.6 75.9 42.7 75.9 42.6 C 76.7 42.4 76.9 42.8 77.6 42.4 C 77.7 42.6 77.8 42.6 78.0 42.7 C 78.0 42.5 78.1 42.5 78.3 42.4 C 78.6 42.5 78.9 42.6 79.3 42.7 C 79.2 42.9 79.1 43.0 79.6 43.0 C 79.6 42.9 79.4 42.9 79.6 42.8 C 79.6 42.9 79.7 42.9 79.7 42.8 C 79.7 42.7 79.7 42.7 79.7 42.6 C 79.6 42.7 79.4 42.7 79.3 42.7 C 79.3 42.5 79.2 42.4 79.1 42.4 C 79.7 42.2 79.7 42.7 80.1 42.5 C 80.2 42.8 80.4 42.9 80.0 43.2 C 80.4 43.1 80.6 42.9 80.7 42.7 C 80.3 42.8 80.4 42.5 80.3 42.4 C 80.5 42.4 80.5 42.2 80.7 42.2 C 81.0 42.3 80.4 42.6 81.0 42.6 C 80.5 42.4 81.3 42.3 81.7 42.4 C 81.6 42.3 81.5 42.3 81.6 42.2 C 82.5 41.9 82.5 42.8 82.9 42.3 C 82.9 42.4 83.1 42.4 83.2 42.5 C 82.8 42.6 82.7 42.7 82.6 42.7 C 82.6 42.8 82.7 42.8 82.8 42.9 C 82.8 42.7 82.9 42.7 83.1 42.8 C 83.2 42.6 83.2 42.2 83.5 42.0 C 83.5 42.1 83.5 42.2 83.6 42.2 C 83.8 42.0 83.6 42.6 84.2 42.5 C 84.1 42.4 84.0 42.3 84.0 42.1 C 84.4 41.9 84.3 42.1 84.7 41.9 C 84.9 42.3 84.5 42.4 84.4 42.7 C 84.7 42.6 84.9 42.3 85.2 42.4 C 85.0 42.3 85.2 42.1 85.4 42.0 C 85.7 42.0 85.5 42.4 85.8 42.4 C 86.0 42.3 86.1 42.0 85.9 41.9 C 86.4 42.0 86.2 41.7 86.7 41.7 C 86.7 41.8 86.6 41.9 86.4 41.8 C 86.5 41.9 86.4 42.0 86.6 42.0 C 86.8 41.8 87.5 41.7 87.8 41.4 C 88.5 41.8 89.1 41.1 89.8 41.2 C 89.5 41.5 90.6 41.1 90.9 41.3 C 91.1 41.2 91.6 40.6 91.4 40.8 C 91.5 41.2 91.9 41.0 92.2 41.0 C 92.2 40.9 92.2 40.8 92.1 40.8 C 92.8 40.6 92.9 40.8 93.2 41.0 C 93.9 40.6 94.8 40.8 95.7 40.3 C 96.0 40.5 96.2 40.4 96.8 40.5 C 96.7 40.2 97.1 40.1 97.5 40.0 C 97.4 39.9 97.8 39.8 97.7 39.7 C 97.4 39.7 97.4 39.4 97.2 39.4 C 97.7 39.5 97.9 39.0 98.3 39.1 C 97.9 39.3 97.8 39.7 97.8 40.0 C 98.4 39.8 98.7 39.9 98.8 40.0 C 98.8 39.8 98.7 39.7 98.6 39.7 C 98.8 39.6 99.0 39.6 99.1 39.5 C 99.2 39.7 99.0 39.8 99.2 39.8 C 99.3 39.7 99.4 39.5 99.6 39.4 C 99.8 39.6 99.4 39.7 99.4 39.8 C 100.1 39.7 99.7 39.3 100.1 39.1 C 100.2 39.3 100.3 39.5 100.6 39.5 C 100.7 39.3 100.7 39.0 101.0 38.9 C 101.3 38.9 101.1 39.3 101.4 39.2 C 101.4 39.1 101.6 39.1 101.7 39.1 C 101.6 39.0 101.7 38.9 101.9 38.8 C 102.0 38.9 102.2 38.8 102.3 38.7 C 102.4 38.8 102.9 39.0 102.9 38.8 C 102.9 38.7 102.6 38.8 102.6 38.7 C 102.9 38.6 103.1 38.5 103.2 38.4 C 103.5 38.9 103.9 38.3 104.6 38.4 C 104.9 38.1 104.4 38.0 104.8 37.7 C 105.1 37.8 104.8 38.0 105.0 38.2 C 105.0 38.2 105.5 38.2 105.5 38.0 C 105.5 37.9 105.2 38.0 105.2 38.0 C 105.5 37.6 105.5 37.9 105.8 37.9 C 105.7 37.7 105.9 37.6 105.9 37.5 C 106.8 37.0 106.9 37.4 107.4 37.4 C 107.4 37.3 107.6 37.3 107.6 37.2 C 107.4 37.4 106.9 37.3 107.3 37.1 C 107.3 37.3 107.8 36.9 107.8 36.9 C 107.7 36.8 107.3 37.0 107.4 36.7 C 107.9 36.4 107.8 36.9 108.1 36.6 C 108.2 36.7 108.0 36.8 107.9 36.9 C 108.1 36.9 108.3 36.7 108.4 36.8 C 108.2 37.0 108.3 37.1 108.2 37.3 C 108.4 37.0 109.0 37.0 108.5 36.9 C 109.1 36.7 109.5 36.4 109.1 36.3 C 109.5 36.1 109.4 36.5 109.6 36.2 C 109.7 36.4 109.6 36.6 110.0 36.7 C 110.0 36.6 110.2 36.4 110.1 36.2 C 110.7 36.0 111.0 36.2 111.3 36.3 C 111.0 36.0 111.4 36.2 111.6 35.8 C 111.8 35.8 111.8 36.2 112.2 35.9 C 111.6 35.8 112.8 35.5 112.5 35.3 C 113.2 35.2 113.2 35.2 113.8 34.9 C 113.9 35.1 113.7 35.3 113.5 35.5 C 113.6 35.2 112.8 35.5 112.9 35.6 C 112.9 35.7 113.0 35.7 113.0 35.8 C 113.5 35.5 113.8 35.4 114.1 35.5 C 114.1 35.2 114.3 35.1 114.1 34.8 C 114.7 34.9 115.0 34.3 115.3 34.4 C 115.2 34.5 115.0 34.6 115.1 34.7 C 115.3 34.6 115.5 34.4 115.4 34.2 C 115.0 34.3 114.9 34.4 114.8 34.6 C 114.9 34.3 114.3 34.5 114.6 34.2 C 114.8 34.6 115.3 33.7 115.2 34.1 C 114.8 34.4 115.7 34.1 115.8 34.2 C 115.8 34.2 115.8 34.2 115.8 34.2 Z M 22.4 30.2 C 22.0 30.1 22.3 30.6 22.6 30.7 C 22.6 30.6 22.6 30.5 22.7 30.3 C 22.5 30.3 22.4 30.3 22.4 30.2 C 22.4 30.2 22.4 30.2 22.4 30.2 Z M 24.8 35.4 C 25.1 35.3 24.3 35.1 24.1 34.9 C 24.2 35.0 24.2 35.1 24.0 35.1 C 24.2 35.4 24.5 35.1 24.8 35.4 C 24.8 35.4 24.8 35.4 24.8 35.4 Z M 40.0 40.7 C 39.8 40.7 39.5 40.7 39.6 40.6 C 39.4 40.5 39.4 40.7 39.3 40.8 C 39.0 40.7 39.5 40.4 39.0 40.4 C 38.7 40.8 39.7 41.2 40.0 40.7 C 40.0 40.7 40.0 40.7 40.0 40.7 Z M 112.2 39.7 C 112.5 39.7 112.1 40.1 112.3 40.2 C 113.0 39.8 112.3 39.7 113.4 39.4 C 113.3 39.3 113.2 39.3 113.2 39.2 C 112.7 39.5 112.7 39.7 112.7 39.2 C 112.5 39.3 112.6 39.8 112.2 39.7 C 112.2 39.7 112.2 39.7 112.2 39.7 Z M 122.3 36.2 C 122.2 36.2 122.1 36.1 122.0 36.0 C 121.8 36.3 121.9 36.3 121.4 36.4 C 121.6 36.7 122.0 36.5 122.3 36.2 C 122.3 36.2 122.3 36.2 122.3 36.2 Z M 145.5 20.4 C 145.5 20.4 145.6 20.3 145.7 20.2 C 145.5 20.2 145.5 19.7 145.2 20.2 C 145.2 20.2 145.3 20.2 145.3 20.1 C 145.3 20.2 145.2 20.4 145.3 20.5 C 145.4 20.4 145.4 20.4 145.5 20.4 C 145.5 20.4 145.5 20.4 145.5 20.4 Z M 152.0 10.4 C 151.9 11.0 153.2 10.3 152.0 10.4 C 152.0 10.4 152.0 10.4 152.0 10.4 C 152.0 10.4 152.0 10.4 152.0 10.4 Z M 149.1 9.4 C 149.1 9.4 149.0 9.5 149.1 9.5 C 148.7 9.8 148.9 9.4 148.6 9.5 C 148.5 9.9 149.1 9.7 148.9 10.1 C 149.0 10.2 149.0 9.7 149.1 9.4 C 149.1 9.4 149.1 9.4 149.1 9.4 Z M 82.4 42.5 C 82.0 42.6 81.9 42.8 81.9 43.1 C 82.1 43.1 82.4 43.1 82.4 43.2 C 82.9 43.0 82.1 43.1 82.0 43.0 C 82.0 42.8 82.4 42.7 82.4 42.5 C 82.4 42.5 82.4 42.5 82.4 42.5 Z M 81.1 42.7 C 81.0 42.8 80.7 42.9 80.7 43.1 C 81.0 43.1 81.0 43.2 81.0 43.2 C 81.2 43.1 81.0 43.0 81.1 42.7 C 81.1 42.7 81.1 42.7 81.1 42.7 Z M 83.5 42.7 C 83.4 42.7 83.4 42.9 83.4 43.0 C 83.7 43.0 83.7 43.1 84.0 43.0 C 84.0 43.0 84.0 42.9 84.0 42.8 C 83.8 42.8 83.7 42.9 83.6 42.9 C 83.5 42.8 83.5 42.8 83.5 42.7 C 83.5 42.7 83.5 42.7 83.5 42.7 Z M 79.9 43.1 C 79.1 43.1 78.8 43.6 78.4 43.9 C 78.9 43.8 79.4 43.3 79.8 43.4 C 80.2 43.3 79.6 43.3 79.6 43.2 C 79.6 43.1 79.8 43.1 79.9 43.1 C 79.9 43.1 79.9 43.1 79.9 43.1 Z M 73.4 43.4 C 73.2 43.2 73.0 43.6 72.5 43.5 C 72.6 43.6 72.7 43.7 72.7 43.8 C 73.3 43.8 72.9 43.4 73.4 43.4 C 73.4 43.4 73.4 43.4 73.4 43.4 Z M 69.9 43.5 C 69.5 43.5 70.1 43.6 69.9 43.8 C 70.3 43.8 70.7 43.8 70.7 43.6 C 70.3 43.7 70.2 43.7 69.9 43.5 C 69.9 43.5 69.9 43.5 69.9 43.5 Z M 67.4 43.4 C 66.9 43.5 67.5 43.7 67.3 44.0 C 67.5 44.0 67.5 43.8 67.5 43.7 C 67.6 43.8 67.7 43.8 67.9 43.8 C 67.8 43.7 67.3 43.7 67.4 43.4 C 67.4 43.4 67.4 43.4 67.4 43.4 Z M 92.7 41.7 C 92.5 41.8 92.6 42.0 92.1 42.0 C 92.9 41.9 92.6 42.7 93.6 42.4 C 93.4 42.3 93.5 42.2 93.6 42.3 C 94.0 42.1 93.2 42.3 93.5 41.9 C 93.2 42.0 93.5 42.2 93.2 42.3 C 92.8 42.1 92.6 42.1 92.7 41.7 C 92.7 41.7 92.7 41.7 92.7 41.7 Z M 93.7 42.6 C 94.0 42.6 93.9 42.2 94.1 42.4 C 94.2 42.4 94.2 42.3 94.2 42.2 C 94.1 42.2 94.0 42.2 94.0 42.1 C 93.8 42.3 93.6 42.4 93.7 42.6 C 93.7 42.6 93.7 42.6 93.7 42.6 Z M 91.0 43.2 C 91.4 42.9 91.6 43.1 91.8 42.8 C 92.0 43.2 92.1 42.6 92.4 42.9 C 92.9 42.7 92.5 42.7 92.3 42.6 C 92.8 42.4 92.5 42.8 92.9 42.6 C 93.0 42.3 92.4 42.5 92.4 42.2 C 92.1 42.3 92.1 42.5 91.9 42.6 C 91.7 42.6 91.8 42.5 91.7 42.4 C 91.3 42.5 91.3 42.3 91.0 42.4 C 90.9 42.6 91.1 42.7 91.5 42.6 C 91.1 42.8 91.0 43.0 90.5 42.9 C 90.8 42.6 89.3 42.8 89.5 43.2 C 89.9 43.1 89.8 43.0 89.9 42.9 C 90.4 43.0 90.7 42.9 91.0 43.2 C 91.0 43.2 91.0 43.2 91.0 43.2 Z M 83.8 43.5 C 83.6 43.4 83.5 43.4 83.3 43.4 C 83.3 43.2 83.5 43.3 83.3 43.1 C 83.0 43.1 82.9 43.2 82.7 43.3 C 82.9 43.4 83.5 43.5 83.2 43.7 C 83.3 43.8 83.5 43.8 83.8 43.8 C 83.4 43.5 84.2 43.7 84.5 43.7 C 84.4 43.3 85.0 43.7 85.2 43.5 C 85.0 43.3 84.5 43.6 84.2 43.6 C 84.3 43.5 83.4 43.1 83.8 43.5 C 83.8 43.5 83.8 43.5 83.8 43.5 Z M 94.8 42.2 C 94.8 42.1 95.1 42.0 94.9 42.0 C 95.0 41.9 95.3 42.0 95.1 41.7 C 95.2 41.6 95.4 41.6 95.5 41.6 C 95.5 41.7 95.1 41.7 95.3 41.9 C 95.6 41.8 95.5 41.9 95.9 41.8 C 95.7 42.1 95.9 42.1 95.9 42.4 C 95.9 42.2 96.3 42.2 96.2 42.0 C 96.8 41.9 96.1 42.3 96.9 42.2 C 96.9 42.4 96.4 42.5 96.2 42.4 C 96.1 42.7 97.1 42.3 97.6 42.2 C 97.1 42.1 97.4 41.8 97.6 41.6 C 97.8 41.6 97.6 41.7 98.0 41.8 C 98.2 41.8 98.3 41.6 98.4 41.7 C 98.6 41.6 98.4 41.5 98.4 41.4 C 98.8 41.3 98.6 41.7 99.1 41.5 C 98.6 41.3 99.0 41.1 99.7 41.0 C 99.6 40.9 99.4 41.0 99.4 40.9 C 99.4 40.7 99.9 40.9 100.0 40.9 C 100.2 40.8 100.0 40.8 99.8 40.8 C 99.9 40.7 100.0 40.6 100.2 40.5 C 99.5 40.7 98.4 41.0 97.0 41.0 C 97.3 41.1 97.0 41.2 96.6 41.2 C 96.5 41.1 96.7 41.1 96.9 41.0 C 96.4 40.8 96.5 41.4 95.8 41.4 C 95.4 41.4 96.2 41.2 95.7 41.1 C 95.5 41.2 95.3 41.5 95.2 41.2 C 94.7 41.5 94.7 41.8 94.0 41.9 C 94.4 42.0 94.7 42.5 95.1 42.2 C 95.1 42.2 94.9 42.2 94.8 42.2 C 94.8 42.2 94.8 42.2 94.8 42.2 Z M 81.0 43.4 C 80.8 43.4 80.7 43.6 80.6 43.4 C 80.2 43.6 80.7 43.7 80.8 43.8 C 81.0 43.7 81.0 43.6 81.0 43.4 C 81.0 43.4 81.0 43.4 81.0 43.4 Z M 38.9 38.2 C 38.4 37.9 38.4 38.2 38.0 38.1 C 38.3 38.3 38.3 38.5 38.8 38.7 C 38.9 38.5 39.0 38.3 38.9 38.2 C 38.9 38.2 38.9 38.2 38.9 38.2 Z M 82.5 43.4 C 82.8 43.1 82.1 43.8 82.1 43.6 C 81.7 43.8 82.4 43.7 82.1 44.0 C 82.4 43.8 82.7 44.0 83.1 43.8 C 83.0 43.6 82.7 43.6 82.4 43.7 C 82.3 43.6 82.5 43.5 82.5 43.4 C 82.5 43.4 82.5 43.4 82.5 43.4 Z M 43.9 40.4 C 44.3 40.3 43.7 39.9 43.5 39.7 C 43.4 40.0 43.5 40.0 43.9 40.4 C 43.9 40.4 43.9 40.4 43.9 40.4 Z M 35.3 37.3 C 35.0 37.5 35.9 37.5 35.6 37.7 C 35.8 37.8 35.8 37.8 35.9 37.7 C 36.0 37.8 36.4 37.9 36.2 38.0 C 36.2 38.3 35.6 37.8 35.7 38.1 C 35.5 38.1 35.5 38.0 35.4 37.9 C 35.7 38.1 35.6 37.7 35.2 37.5 C 35.1 37.7 35.4 37.7 35.1 37.8 C 35.1 37.7 34.9 37.4 35.1 37.1 C 34.6 37.0 34.7 37.4 34.3 37.2 C 34.2 37.4 34.5 37.5 34.7 37.6 C 34.5 37.9 34.3 37.2 34.2 37.6 C 34.2 37.4 34.0 37.2 34.0 37.0 C 34.4 37.0 34.8 37.0 35.1 37.0 C 34.9 36.7 34.3 37.1 33.9 36.6 C 33.9 36.8 33.6 36.7 33.6 37.0 C 33.2 36.7 33.5 36.5 33.6 36.5 C 33.6 36.3 32.8 36.1 32.8 36.4 C 32.8 36.1 31.9 35.8 31.8 36.1 C 31.6 35.8 31.0 36.0 31.1 35.6 C 30.9 35.7 30.6 35.5 30.2 35.4 C 30.0 35.6 30.7 35.7 30.6 35.9 C 30.7 36.1 30.1 35.6 30.1 35.8 C 30.0 35.9 30.0 35.9 30.0 36.0 C 30.3 36.0 30.6 36.0 30.9 36.1 C 31.0 36.2 30.8 36.1 30.8 36.3 C 31.0 36.2 32.0 36.3 31.8 36.7 C 32.4 36.9 32.8 37.1 33.1 37.0 C 33.4 37.2 32.9 37.1 33.0 37.3 C 34.1 37.4 35.2 38.3 36.1 38.2 C 36.3 38.3 36.2 38.4 36.2 38.6 C 37.4 38.8 36.5 38.1 37.4 38.6 C 37.3 38.8 36.9 38.6 36.8 38.8 C 37.2 38.9 37.3 38.8 37.7 39.0 C 37.7 38.9 37.7 38.8 37.8 38.7 C 38.1 38.8 37.9 39.1 38.0 39.2 C 38.5 39.3 38.4 39.1 38.6 39.5 C 39.0 39.5 39.4 39.6 39.8 39.8 C 40.1 39.7 39.7 39.2 39.3 39.1 C 39.3 39.0 39.5 39.0 39.5 39.0 C 39.9 39.3 39.9 39.8 40.6 40.1 C 40.1 39.6 40.9 40.1 41.0 40.3 C 41.3 40.4 41.2 40.0 41.0 39.9 C 41.0 39.8 41.2 40.0 41.2 40.1 C 41.3 39.8 40.7 39.4 39.8 39.2 C 40.3 39.0 39.3 39.1 39.9 38.7 C 39.2 38.6 39.6 39.1 39.0 38.8 C 39.0 38.9 39.1 39.0 39.1 39.2 C 38.6 39.0 38.8 38.8 38.3 38.6 C 38.1 38.8 38.5 38.9 38.4 39.0 C 37.9 38.6 37.7 38.4 37.4 38.1 C 37.3 38.2 37.3 38.4 36.7 38.0 C 36.7 38.0 36.7 37.9 36.7 37.9 C 37.0 38.1 37.3 37.7 36.4 37.4 C 36.3 37.5 36.6 37.6 36.8 37.7 C 36.6 37.8 36.4 37.7 36.1 37.7 C 35.9 37.6 35.8 37.4 36.0 37.5 C 35.9 37.2 35.7 37.6 35.3 37.3 C 35.3 37.3 35.3 37.3 35.3 37.3 Z M 74.1 43.9 C 74.0 44.0 73.9 44.0 73.7 44.0 C 73.6 44.2 74.0 44.2 74.0 44.3 C 74.3 44.3 74.0 44.0 74.1 43.9 C 74.1 43.9 74.1 43.9 74.1 43.9 Z M 78.1 43.9 C 78.0 43.7 77.9 44.1 77.5 44.0 C 77.4 44.2 77.8 44.1 77.8 44.3 C 78.2 44.3 77.7 43.9 78.1 43.9 C 78.1 43.9 78.1 43.9 78.1 43.9 Z M 76.4 44.0 C 76.2 43.8 76.2 44.1 76.5 44.1 C 76.5 44.2 76.4 44.4 76.3 44.4 C 76.5 44.7 76.6 44.2 77.0 44.3 C 76.8 44.2 76.6 44.1 76.4 44.0 C 76.4 44.0 76.4 44.0 76.4 44.0 Z M 75.8 44.0 C 75.6 44.2 75.5 44.0 75.1 44.1 C 75.2 44.3 76.0 44.2 76.1 44.1 C 76.2 43.9 75.4 43.9 75.8 44.0 C 75.8 44.0 75.8 44.0 75.8 44.0 Z M 49.3 42.1 C 49.2 42.1 49.2 42.2 49.1 42.3 C 48.8 41.8 48.2 41.7 48.7 41.5 C 48.2 41.6 47.9 41.2 47.6 41.0 C 47.2 40.9 47.3 41.2 47.1 41.2 C 46.7 41.0 47.3 41.1 47.3 41.0 C 47.2 40.8 47.0 41.2 46.6 40.9 C 46.6 41.3 46.2 40.7 46.2 41.2 C 46.0 41.0 45.9 41.1 45.5 41.0 C 45.5 41.2 45.8 41.3 45.8 41.4 C 46.0 41.7 46.1 41.3 45.7 41.2 C 46.0 41.1 46.4 41.5 46.6 41.4 C 46.7 41.7 46.1 41.3 46.2 41.6 C 46.4 41.6 46.5 41.6 46.5 41.5 C 46.7 41.6 46.9 41.7 46.9 41.9 C 46.8 41.9 46.8 41.8 46.8 41.8 C 46.5 41.7 46.9 42.2 46.4 42.1 C 46.5 42.2 46.7 42.2 46.6 42.4 C 46.8 42.6 46.8 41.7 47.3 42.1 C 47.7 42.0 46.5 41.7 46.9 41.3 C 47.7 41.6 47.1 41.8 47.7 42.0 C 47.8 41.9 47.8 41.8 47.9 41.8 C 47.9 41.7 47.7 41.7 47.6 41.6 C 47.6 41.5 47.8 41.6 48.0 41.6 C 48.0 41.6 47.9 41.5 47.9 41.5 C 48.4 41.7 48.2 42.1 47.7 42.2 C 47.7 42.4 48.3 42.5 48.5 42.4 C 48.4 42.2 48.6 42.3 48.5 42.0 C 48.3 42.0 48.3 42.1 48.3 42.1 C 48.1 42.0 48.3 42.0 48.3 41.9 C 48.6 42.0 48.6 42.2 48.9 42.1 C 48.8 42.2 48.7 42.2 48.7 42.3 C 48.8 42.3 49.0 42.4 49.1 42.4 C 49.1 42.3 49.3 42.3 49.3 42.1 C 49.3 42.1 49.3 42.1 49.3 42.1 Z M 42.4 39.6 C 42.0 39.4 42.1 39.7 42.3 39.8 C 42.2 39.8 42.1 39.8 41.9 39.8 C 42.0 39.9 42.1 39.9 42.5 40.1 C 42.1 40.3 42.3 40.8 43.0 41.0 C 43.3 40.6 42.8 40.4 43.1 40.2 C 42.6 40.2 42.3 39.9 42.4 39.6 C 42.4 39.6 42.4 39.6 42.4 39.6 Z M 80.8 43.8 C 80.5 43.9 80.2 43.9 79.9 43.9 C 80.0 44.1 80.9 44.2 80.8 43.8 C 80.8 43.8 80.8 43.8 80.8 43.8 Z M 100.8 40.6 C 100.9 40.6 100.9 40.6 100.9 40.7 C 101.3 40.5 100.7 40.5 100.8 40.3 C 100.7 40.3 100.6 40.4 100.4 40.4 C 100.4 40.5 101.1 40.5 100.6 40.7 C 100.7 40.8 100.8 40.7 100.8 40.6 C 100.8 40.6 100.8 40.6 100.8 40.6 Z M 74.4 44.2 C 74.1 44.3 74.3 44.7 73.7 44.6 C 73.9 44.7 74.1 44.7 74.4 44.6 C 74.4 44.5 74.4 44.4 74.4 44.2 C 74.4 44.2 74.4 44.2 74.4 44.2 Z M 51.5 42.2 C 51.2 41.9 51.0 42.4 50.3 42.1 C 50.6 42.5 51.1 42.2 51.5 42.2 C 51.5 42.2 51.5 42.2 51.5 42.2 Z M 29.0 35.3 C 29.2 35.4 28.9 35.4 29.2 35.6 C 29.4 35.6 29.6 35.5 29.8 35.6 C 29.6 35.2 28.8 35.2 28.7 34.7 C 28.4 34.6 28.3 34.8 28.1 34.9 C 28.3 35.0 28.3 35.0 28.3 35.1 C 28.7 34.9 28.7 35.5 29.0 35.3 C 29.0 35.3 29.0 35.3 29.0 35.3 Z M 44.0 40.5 C 44.2 40.7 43.8 40.7 43.7 40.8 C 43.5 40.8 43.6 40.6 43.6 40.5 C 43.4 40.4 43.3 40.5 43.2 40.7 C 43.7 40.9 44.2 41.1 43.8 41.3 C 44.2 41.5 44.1 41.1 44.3 41.1 C 44.5 41.3 44.3 41.3 44.2 41.6 C 44.3 41.5 44.7 41.4 44.6 41.7 C 45.3 41.5 45.1 41.1 44.8 40.6 C 44.3 40.7 44.7 40.9 44.0 40.5 C 44.0 40.5 44.0 40.5 44.0 40.5 Z M 61.6 44.2 C 61.6 44.1 61.3 44.1 61.4 44.0 C 61.0 44.2 60.7 44.4 60.4 44.6 C 60.5 44.8 60.9 44.6 60.7 44.5 C 60.8 44.6 61.1 44.8 61.3 44.9 C 61.5 45.0 61.7 44.5 61.7 44.9 C 62.0 44.8 61.8 44.8 62.3 44.9 C 61.6 44.5 62.5 44.8 62.6 44.5 C 62.2 44.4 61.8 44.4 61.9 44.7 C 61.6 44.5 61.2 44.4 61.2 44.2 C 61.2 44.1 61.5 44.2 61.6 44.2 C 61.6 44.2 61.6 44.2 61.6 44.2 Z M 59.9 44.7 C 60.0 44.7 60.1 44.6 60.3 44.7 C 60.2 44.6 60.1 44.5 60.2 44.3 C 59.8 44.3 59.7 44.4 59.6 44.2 C 59.3 44.1 59.7 44.5 59.2 44.4 C 59.2 44.5 59.4 44.5 59.4 44.6 C 59.5 44.4 59.7 44.4 59.9 44.7 C 59.9 44.7 59.9 44.7 59.9 44.7 Z M 55.5 43.6 C 55.2 43.5 55.7 43.8 55.5 43.9 C 55.6 43.9 56.3 44.1 56.2 44.3 C 56.3 44.6 57.1 44.1 57.0 44.5 C 57.2 44.5 57.1 44.3 57.2 44.2 C 56.7 44.2 56.7 44.0 57.1 44.1 C 57.0 43.9 56.7 43.9 56.5 43.9 C 56.5 44.0 56.6 44.1 56.6 44.2 C 56.2 44.0 55.9 43.8 55.5 43.6 C 55.5 43.6 55.5 43.6 55.5 43.6 Z M 115.6 35.7 C 115.3 35.8 115.1 35.9 115.0 36.1 C 115.1 36.2 115.2 36.0 115.4 35.9 C 115.5 36.0 115.3 36.1 115.2 36.2 C 115.4 36.3 115.9 35.9 115.6 35.7 C 115.6 35.7 115.6 35.7 115.6 35.7 Z M 113.0 36.9 C 112.7 37.0 112.5 37.1 112.5 37.2 C 112.7 37.3 112.5 37.1 112.7 37.1 C 112.9 37.1 113.0 37.1 113.1 37.2 C 113.2 37.1 113.2 37.0 113.2 37.0 C 113.3 36.9 113.3 36.9 113.3 37.0 C 113.6 36.6 112.9 37.2 113.0 36.9 C 113.0 36.9 113.0 36.9 113.0 36.9 Z M 57.9 44.1 C 58.0 44.2 58.1 44.4 58.4 44.4 C 58.4 44.2 58.7 44.3 58.9 44.3 C 58.6 44.1 58.4 44.2 57.9 44.1 C 57.9 44.1 57.9 44.1 57.9 44.1 Z M 95.9 42.6 C 95.4 42.4 95.5 42.8 94.9 42.8 C 94.9 42.9 94.9 42.9 94.9 43.0 C 95.3 42.7 95.5 42.8 95.9 42.6 C 95.9 42.6 95.9 42.6 95.9 42.6 Z M 146.8 13.9 C 146.9 14.0 147.1 13.6 147.3 13.7 C 147.0 13.4 147.7 13.7 148.2 13.0 C 148.3 13.1 148.3 13.1 148.2 13.2 C 148.7 12.8 147.9 13.2 147.6 13.1 C 147.3 13.5 147.1 13.5 146.8 13.9 C 146.8 13.9 146.8 13.9 146.8 13.9 Z M 32.7 37.6 C 32.7 37.6 32.7 37.5 32.6 37.5 C 32.5 37.5 32.4 37.4 32.3 37.4 C 32.2 37.7 32.6 38.0 32.2 38.2 C 32.3 38.2 32.3 38.2 32.3 38.2 C 33.2 37.8 33.3 39.1 34.3 39.0 C 34.5 39.0 34.5 38.9 34.5 38.9 C 34.4 38.8 34.4 38.8 34.4 38.7 C 34.2 39.0 33.6 38.4 33.9 38.4 C 34.0 38.3 33.8 38.3 33.8 38.3 C 33.7 38.3 33.6 38.3 33.5 38.2 C 33.6 38.3 33.7 38.4 33.7 38.6 C 33.3 38.3 32.8 38.0 33.2 37.8 C 33.0 37.8 32.8 37.9 32.6 37.8 C 32.4 37.8 32.5 37.6 32.7 37.6 C 32.7 37.6 32.7 37.6 32.7 37.6 Z M 29.3 36.2 C 28.9 36.0 28.9 36.3 28.5 36.1 C 28.7 36.4 29.1 36.2 29.4 36.6 C 29.4 36.4 29.2 36.3 29.3 36.2 C 29.3 36.2 29.3 36.2 29.3 36.2 Z M 36.8 39.6 C 36.7 39.9 37.0 40.0 37.4 40.2 C 37.6 39.9 37.2 39.8 36.8 39.6 C 36.8 39.6 36.8 39.6 36.8 39.6 Z M 35.1 39.0 C 34.7 38.9 35.6 39.2 35.2 39.4 C 35.4 39.5 35.6 39.5 35.6 39.6 C 35.8 39.6 35.8 39.5 36.1 39.6 C 36.1 39.5 35.6 39.4 35.8 39.2 C 35.4 39.3 35.3 39.3 35.1 39.0 C 35.1 39.0 35.1 39.0 35.1 39.0 Z M 34.8 38.9 C 34.5 38.9 34.7 39.4 35.0 39.5 C 35.0 39.3 35.0 39.1 34.8 38.9 C 34.8 38.9 34.8 38.9 34.8 38.9 Z M 67.5 45.8 C 67.3 45.8 67.5 46.0 67.2 46.0 C 67.2 46.2 68.1 46.2 67.4 46.2 C 67.6 46.5 67.8 46.1 68.1 46.2 C 68.0 46.1 67.9 46.0 68.1 46.0 C 68.2 45.8 67.4 46.0 67.5 45.8 C 67.5 45.8 67.5 45.8 67.5 45.8 Z M 66.7 45.8 C 66.5 45.8 66.6 45.8 66.7 45.8 C 66.6 45.9 66.4 45.9 66.2 45.9 C 66.2 45.8 66.5 46.3 66.5 46.5 C 67.2 46.3 66.7 46.0 66.7 45.8 C 66.7 45.8 66.7 45.8 66.7 45.8 Z M 65.9 45.9 C 65.5 45.6 64.8 45.6 64.5 45.9 C 64.8 46.2 65.7 46.2 65.9 45.9 C 65.9 45.9 65.9 45.9 65.9 45.9 Z M 70.7 46.2 C 69.8 45.8 68.1 46.2 69.7 46.5 C 69.6 46.3 70.6 46.2 71.1 46.3 C 71.1 46.2 71.7 46.0 71.7 46.2 C 72.1 46.0 70.5 45.9 70.7 46.2 C 70.7 46.2 70.7 46.2 70.7 46.2 Z M 63.9 46.3 C 64.1 46.2 63.8 45.7 64.2 45.9 C 64.4 45.9 64.2 45.8 64.2 45.7 C 63.8 45.7 62.8 45.8 62.8 45.6 C 62.5 45.6 62.5 45.8 62.0 45.7 C 62.0 45.9 63.6 45.7 63.9 46.1 C 63.8 46.2 63.3 46.2 63.9 46.3 C 63.9 46.3 63.9 46.3 63.9 46.3 Z M 96.2 44.0 C 96.2 43.7 95.6 44.0 95.7 43.7 C 95.5 44.1 95.1 44.0 94.8 44.3 C 94.7 44.2 94.6 43.9 94.1 43.9 C 94.1 44.1 94.4 44.0 94.2 44.2 C 93.7 44.4 93.8 44.1 93.3 44.3 C 93.4 44.6 92.2 44.6 92.3 44.9 C 92.6 44.8 92.6 44.7 93.0 44.6 C 93.2 44.6 93.2 44.8 93.4 44.7 C 93.3 45.0 93.0 44.7 92.8 44.9 C 92.9 45.1 93.2 45.0 93.3 45.2 C 93.5 45.1 93.2 45.1 93.3 44.9 C 93.8 44.8 93.3 45.5 93.9 45.3 C 93.8 45.1 93.7 45.1 93.8 44.8 C 94.1 44.9 94.8 44.6 94.5 44.9 C 94.5 45.1 94.9 44.7 94.8 44.6 C 95.1 44.5 95.1 44.6 95.2 44.7 C 95.8 44.4 95.8 44.2 95.6 44.0 C 95.7 43.8 95.9 44.1 96.2 44.0 C 96.2 44.0 96.2 44.0 96.2 44.0 Z M 75.3 46.2 C 75.6 46.0 74.9 46.3 74.6 46.2 C 75.0 46.3 74.9 46.6 75.3 46.6 C 75.2 46.5 75.2 46.4 75.5 46.4 C 75.5 46.3 74.9 46.3 75.3 46.2 C 75.3 46.2 75.3 46.2 75.3 46.2 Z M 61.2 45.6 C 61.0 45.4 60.3 45.5 59.9 45.4 C 59.9 45.8 60.9 45.4 61.0 45.8 C 61.2 45.8 60.9 45.6 61.2 45.6 C 61.2 45.6 61.2 45.6 61.2 45.6 Z M 90.7 44.8 C 90.5 44.8 90.6 44.8 90.7 44.8 C 90.7 44.9 90.3 45.0 90.1 45.0 C 90.5 45.1 90.1 45.2 90.2 45.5 C 90.0 45.5 89.9 45.5 89.9 45.6 C 89.8 45.2 89.0 46.0 90.0 45.9 C 89.8 45.7 89.8 45.7 90.2 45.6 C 90.6 45.7 90.9 45.4 91.1 45.6 C 91.4 45.6 91.5 45.4 91.8 45.4 C 91.9 45.5 92.3 45.6 92.1 46.0 C 92.7 45.8 92.2 45.4 92.7 45.2 C 93.2 45.2 92.5 45.5 92.6 45.7 C 92.8 45.7 92.8 45.8 92.8 45.8 C 93.0 45.8 93.0 45.6 92.8 45.6 C 92.8 45.5 93.3 45.2 93.2 45.5 C 93.5 45.3 92.6 44.9 92.2 45.2 C 92.0 45.3 91.9 44.8 92.2 44.8 C 92.0 44.6 91.7 45.2 91.7 44.7 C 91.5 44.8 91.3 44.8 91.1 44.8 C 91.2 44.9 91.3 44.9 91.3 45.0 C 91.1 45.0 90.9 45.0 90.7 45.1 C 90.9 44.9 90.9 44.8 90.7 44.8 C 90.7 44.8 90.7 44.8 90.7 44.8 Z M 63.0 45.9 C 62.7 45.9 62.6 46.0 62.3 46.0 C 62.4 46.2 63.2 46.2 63.0 45.9 C 63.0 45.9 63.0 45.9 63.0 45.9 Z M 98.8 44.1 C 98.8 44.0 98.5 44.1 98.5 44.0 C 98.9 43.8 98.4 43.8 98.6 43.3 C 98.1 43.6 98.1 44.2 98.9 44.2 C 99.4 44.0 98.3 44.2 98.8 44.1 C 98.8 44.1 98.8 44.1 98.8 44.1 Z M 97.1 44.3 C 96.7 44.5 97.6 44.4 97.9 44.5 C 97.9 44.5 97.9 44.6 97.9 44.7 C 98.3 44.2 97.6 44.3 98.0 43.7 C 97.4 43.7 97.1 43.7 96.7 43.9 C 96.7 44.0 96.8 43.9 96.8 43.9 C 97.2 43.8 97.0 44.2 96.6 44.2 C 96.7 44.3 97.1 44.2 97.3 44.2 C 97.3 44.1 97.2 44.1 97.1 44.0 C 97.4 43.9 97.4 44.1 97.6 44.0 C 97.6 44.2 97.1 44.5 97.1 44.3 C 97.1 44.3 97.1 44.3 97.1 44.3 Z M 123.7 33.6 C 123.5 33.8 124.2 33.7 124.3 34.1 C 124.6 33.9 124.6 33.8 124.8 33.7 C 124.6 33.6 124.3 33.8 124.1 33.7 C 124.0 33.4 124.5 33.5 124.5 33.3 C 124.5 32.9 124.0 33.8 123.7 33.6 C 123.7 33.6 123.7 33.6 123.7 33.6 Z M 83.9 46.1 C 83.7 46.1 83.8 46.2 83.9 46.2 C 83.9 46.3 83.6 46.3 83.6 46.2 C 83.4 46.3 83.8 46.3 83.5 46.4 C 83.5 46.6 83.9 46.3 83.9 46.3 C 84.2 46.2 84.0 46.5 84.1 46.7 C 84.4 46.6 84.3 46.4 84.7 46.4 C 84.4 46.3 84.2 46.2 83.9 46.1 C 83.9 46.1 83.9 46.1 83.9 46.1 Z M 99.7 43.3 C 99.7 43.2 99.5 43.8 99.0 43.7 C 98.5 43.8 99.4 43.9 99.0 43.9 C 99.4 43.9 99.8 43.6 100.3 43.4 C 100.4 43.2 99.5 43.6 100.0 43.3 C 100.0 43.3 99.9 43.3 99.9 43.4 C 99.8 43.4 99.7 43.4 99.7 43.3 C 99.7 43.3 99.7 43.3 99.7 43.3 Z M 99.3 44.0 C 99.3 44.1 99.4 44.0 99.4 44.0 C 99.6 44.0 99.7 44.2 99.5 44.2 C 99.8 44.4 99.7 43.9 100.2 44.0 C 99.9 43.8 99.8 43.7 100.3 43.8 C 100.6 43.4 99.4 43.8 99.3 44.0 C 99.3 44.0 99.3 44.0 99.3 44.0 Z M 119.7 35.9 C 119.8 36.0 120.0 35.8 120.2 35.7 C 120.1 36.0 119.0 36.4 118.8 36.3 C 118.7 36.4 118.6 36.5 118.5 36.5 C 118.5 36.5 118.3 36.8 118.5 36.7 C 118.5 36.8 118.2 36.9 118.3 37.0 C 117.9 37.2 118.3 36.8 118.1 36.7 C 117.8 37.2 117.8 36.9 117.2 37.2 C 117.4 37.3 118.0 37.0 118.1 37.3 C 118.4 36.8 118.9 36.8 119.3 36.9 C 118.8 36.7 120.2 35.8 120.9 35.5 C 121.0 35.7 121.2 35.5 121.6 35.5 C 121.9 35.6 121.6 35.1 121.2 35.4 C 121.2 35.3 121.8 35.1 122.0 35.0 C 121.6 35.0 121.7 34.8 121.6 34.8 C 121.1 35.1 121.6 34.9 121.6 35.1 C 121.4 35.2 121.3 35.2 121.2 35.3 C 121.7 34.6 120.2 35.8 120.7 35.4 C 120.2 35.7 120.1 35.5 119.7 35.9 C 119.7 35.9 119.7 35.9 119.7 35.9 Z M 107.0 41.1 C 106.9 41.2 106.5 41.5 106.5 41.3 C 106.0 41.7 106.5 41.7 105.9 41.9 C 105.9 42.0 106.2 41.9 106.2 42.0 C 106.4 41.8 106.7 41.7 106.5 41.5 C 106.8 41.4 106.9 41.3 107.0 41.2 C 107.0 41.3 106.9 41.4 106.7 41.5 C 106.7 41.7 106.8 41.8 107.2 41.6 C 107.3 41.4 107.1 41.3 107.0 41.1 C 107.0 41.1 107.0 41.1 107.0 41.1 Z M 105.7 41.9 C 105.6 41.9 105.5 41.8 105.5 41.7 C 105.2 41.5 105.5 42.0 105.3 42.1 C 105.2 42.1 105.2 42.0 105.1 41.9 C 104.9 42.1 104.7 42.1 104.6 42.1 C 104.2 42.3 105.1 42.2 105.2 42.2 C 105.5 42.1 105.3 42.0 105.7 41.9 C 105.7 41.9 105.7 41.9 105.7 41.9 Z M 101.4 43.0 C 101.3 42.7 101.2 43.1 101.0 43.1 C 101.2 43.3 101.6 43.1 101.4 43.5 C 101.9 43.4 101.9 43.4 102.3 43.2 C 102.6 43.3 102.2 43.0 101.8 43.3 C 101.9 43.1 102.0 43.1 102.0 42.9 C 102.4 43.3 103.0 42.4 102.6 42.9 C 102.5 42.8 102.4 42.8 102.3 42.7 C 102.2 42.9 101.3 43.1 101.4 43.0 C 101.4 43.0 101.4 43.0 101.4 43.0 Z M 87.0 46.2 C 87.6 46.1 87.6 46.1 88.2 46.0 C 88.2 46.1 88.2 46.2 88.1 46.2 C 88.2 46.3 88.4 46.2 88.6 46.1 C 88.6 46.0 88.5 46.1 88.5 46.2 C 88.0 46.1 88.4 46.0 88.4 45.8 C 87.8 45.7 87.4 46.2 87.1 45.9 C 86.9 46.0 87.2 46.0 87.0 46.2 C 87.0 46.2 87.0 46.2 87.0 46.2 Z M 147.8 15.7 C 147.8 15.6 148.0 15.4 147.9 15.3 C 147.7 15.5 147.7 15.7 147.6 15.8 C 147.9 15.6 148.1 15.9 148.5 15.5 C 148.3 15.5 148.1 15.3 147.8 15.7 C 147.8 15.7 147.8 15.7 147.8 15.7 Z M 102.9 42.6 C 102.9 42.7 103.0 42.8 102.8 42.9 C 102.8 43.1 103.2 42.9 103.3 43.0 C 103.4 42.9 103.3 42.8 103.5 42.8 C 103.4 42.7 103.1 42.8 103.1 42.5 C 103.3 42.5 103.3 42.5 103.3 42.6 C 103.6 42.4 103.1 42.4 102.9 42.6 C 102.9 42.6 102.9 42.6 102.9 42.6 Z M 125.1 33.1 C 124.9 33.2 125.2 33.2 125.3 33.1 C 125.1 33.6 125.7 33.3 125.9 33.5 C 125.6 33.5 125.2 33.9 125.0 33.8 C 124.9 34.0 125.2 34.1 124.8 34.3 C 124.9 34.5 125.3 34.1 125.1 34.0 C 125.4 34.2 125.6 33.6 125.7 33.9 C 126.3 33.6 126.4 33.4 126.3 33.1 C 125.8 33.5 125.9 33.0 125.4 33.3 C 125.4 33.3 125.5 33.2 125.6 33.1 C 125.5 33.0 125.3 33.1 125.1 33.1 C 125.1 33.1 125.1 33.1 125.1 33.1 Z M 111.4 39.6 C 111.1 39.8 111.2 40.0 111.3 40.1 C 111.4 40.0 111.6 39.9 111.8 39.8 C 111.7 39.7 111.4 39.9 111.4 39.6 C 111.4 39.6 111.4 39.6 111.4 39.6 Z M 123.2 34.5 C 123.1 34.4 123.1 34.5 123.1 34.6 C 122.8 34.7 122.6 34.7 122.5 34.6 C 122.3 34.7 122.4 34.9 122.5 35.0 C 122.7 34.6 122.8 35.0 123.2 34.7 C 123.1 34.6 123.1 34.6 123.2 34.5 C 123.2 34.5 123.2 34.5 123.2 34.5 Z M 114.3 38.6 C 114.2 38.7 114.3 38.7 114.4 38.7 C 114.3 39.0 113.7 39.0 113.5 39.2 C 113.5 39.4 114.2 39.1 113.5 39.5 C 113.7 39.6 114.3 39.2 114.7 39.1 C 114.7 39.3 114.2 39.5 114.3 39.8 C 114.7 39.4 115.1 39.1 115.0 38.8 C 114.4 39.0 114.5 38.7 114.3 38.6 C 114.3 38.6 114.3 38.6 114.3 38.6 Z M 115.1 38.5 C 115.0 38.4 114.9 38.6 114.7 38.7 C 115.1 38.8 115.3 38.6 116.0 38.3 C 116.0 38.3 115.9 38.2 115.9 38.2 C 116.0 38.1 116.2 38.1 116.3 38.0 C 115.6 38.0 115.6 38.3 115.0 38.6 C 114.9 38.6 115.0 38.5 115.1 38.5 C 115.1 38.5 115.1 38.5 115.1 38.5 Z M 96.4 44.7 C 96.6 44.7 96.8 44.8 97.2 44.8 C 97.1 44.6 96.9 44.5 96.4 44.7 C 96.4 44.7 96.4 44.7 96.4 44.7 Z M 123.8 34.4 C 124.1 34.0 123.5 34.5 123.8 34.6 C 124.1 34.6 124.4 34.5 124.6 34.6 C 125.0 34.1 123.9 34.7 123.8 34.4 C 123.8 34.4 123.8 34.4 123.8 34.4 Z M 121.7 36.1 C 121.6 36.1 121.4 35.8 121.7 35.9 C 122.0 35.8 121.3 35.9 121.8 35.7 C 121.6 35.7 121.0 35.9 120.8 36.1 C 120.9 36.3 121.3 36.0 121.4 36.2 C 121.5 36.2 121.4 36.2 121.3 36.3 C 121.5 36.4 121.5 36.2 121.7 36.1 C 121.7 36.1 121.7 36.1 121.7 36.1 Z M 119.6 36.7 C 119.9 36.7 120.2 36.7 120.6 36.5 C 120.3 36.5 120.0 36.4 119.6 36.7 C 119.6 36.7 119.6 36.7 119.6 36.7 Z M 142.7 21.6 C 142.5 21.9 142.9 21.9 142.9 21.9 C 143.2 21.6 143.1 21.5 143.4 21.3 C 143.2 21.2 143.1 21.7 142.7 21.6 C 142.7 21.6 142.7 21.6 142.7 21.6 Z M 143.8 20.9 C 144.0 21.0 144.3 20.5 144.4 20.6 C 144.3 20.1 145.2 20.3 144.9 20.1 C 145.0 20.0 145.1 20.0 145.3 19.8 C 144.7 19.8 144.1 20.5 143.8 20.9 C 143.8 20.9 143.8 20.9 143.8 20.9 Z M 117.5 38.2 C 117.2 38.4 117.8 38.5 117.4 38.7 C 117.4 38.8 118.2 38.5 117.8 38.8 C 118.4 38.7 117.5 38.3 117.5 38.2 C 117.5 38.2 117.5 38.2 117.5 38.2 Z M 111.0 41.3 C 110.9 41.1 110.5 41.4 110.3 41.5 C 110.3 41.6 110.5 41.5 110.6 41.4 C 110.5 41.5 110.5 41.6 110.4 41.7 C 110.5 41.8 110.8 41.4 111.0 41.3 C 111.0 41.3 111.0 41.3 111.0 41.3 Z M 116.4 34.2 C 116.7 34.3 117.1 34.3 117.1 33.9 C 117.4 34.0 117.1 34.3 117.4 34.2 C 117.7 34.0 117.7 34.3 118.2 33.9 C 118.2 34.2 118.6 34.0 118.8 34.1 C 118.6 34.3 118.1 34.1 118.1 34.4 C 118.3 34.3 118.3 34.6 118.2 34.5 C 117.7 34.6 118.5 34.0 117.9 34.1 C 118.0 34.4 117.0 34.2 116.6 34.5 C 116.7 34.2 116.1 34.3 116.4 34.2 C 116.4 34.2 116.4 34.2 116.4 34.2 Z M 118.9 33.5 C 119.2 33.3 119.6 33.7 119.5 33.7 C 119.5 33.6 119.1 33.8 119.1 33.9 C 119.2 33.9 119.3 33.8 119.3 33.9 C 118.7 34.2 118.8 33.9 118.6 33.8 C 118.9 33.6 119.0 33.6 119.1 33.5 C 119.0 33.5 118.9 33.5 118.9 33.5 C 118.9 33.5 118.9 33.5 118.9 33.5 Z M 127.6 33.3 C 127.4 33.2 127.5 33.4 127.4 33.5 C 127.2 33.2 126.8 34.0 126.6 33.9 C 126.7 33.7 127.0 33.5 127.1 33.3 C 126.9 33.4 126.8 33.3 126.7 33.5 C 126.6 33.3 127.0 33.1 127.0 32.9 C 127.1 33.0 127.2 32.7 127.3 32.8 C 126.9 33.2 127.9 33.1 127.6 33.3 C 127.6 33.3 127.6 33.3 127.6 33.3 Z M 114.6 39.9 C 114.6 40.2 115.4 40.4 115.0 40.9 C 114.8 40.8 114.7 40.6 114.6 40.3 C 114.3 40.6 114.1 40.5 114.0 40.8 C 113.1 40.4 114.5 40.6 114.6 39.9 C 114.6 39.9 114.6 39.9 114.6 39.9 Z M 112.5 41.0 C 112.5 40.8 112.2 40.9 112.2 40.7 C 112.5 40.8 113.3 40.2 113.0 40.5 C 112.8 40.7 112.9 40.9 112.5 41.0 C 112.5 41.0 112.5 41.0 112.5 41.0 Z M 52.7 44.7 C 53.2 44.6 53.4 45.1 53.1 45.2 C 53.2 44.9 52.5 45.0 52.7 44.7 C 52.7 44.7 52.7 44.7 52.7 44.7 Z M 69.5 42.7 C 69.1 42.5 68.8 42.6 68.8 42.4 C 69.2 42.4 69.1 42.5 69.5 42.5 C 69.5 42.4 69.7 42.3 69.8 42.4 C 69.6 42.5 69.6 42.6 69.5 42.7 C 69.5 42.7 69.5 42.7 69.5 42.7 Z M 102.3 38.6 C 102.2 38.5 102.0 38.5 102.0 38.4 C 102.5 38.3 102.9 38.0 103.2 37.7 C 103.2 37.9 103.2 38.0 103.3 38.1 C 102.6 38.2 102.5 38.4 102.3 38.6 C 102.3 38.6 102.3 38.6 102.3 38.6 Z M 101.3 38.4 C 101.3 38.5 101.6 38.8 101.3 38.8 C 101.3 38.7 100.7 38.6 100.9 38.4 C 101.0 38.6 101.2 38.5 101.3 38.4 C 101.3 38.4 101.3 38.4 101.3 38.4 Z M 123.5 30.3 C 123.8 30.1 123.2 30.2 123.2 30.1 C 123.4 30.0 123.7 29.8 123.9 29.9 C 123.7 30.0 123.7 30.4 123.5 30.3 C 123.5 30.3 123.5 30.3 123.5 30.3 Z M 119.2 33.3 C 118.5 33.6 118.6 33.1 117.9 33.4 C 118.1 33.1 118.7 32.8 118.8 32.6 C 118.8 32.7 119.0 32.7 119.1 32.8 C 118.8 32.9 118.7 32.8 118.5 33.0 C 118.7 33.1 118.7 33.1 118.7 33.3 C 118.9 33.2 119.0 33.2 119.0 33.1 C 119.1 33.2 119.3 33.2 119.2 33.3 C 119.2 33.3 119.2 33.3 119.2 33.3 Z M 123.7 30.9 C 123.9 30.7 124.3 30.9 124.1 31.0 C 123.9 30.9 123.9 31.1 123.8 31.1 C 124.1 30.8 123.4 31.1 123.5 30.9 C 123.7 30.7 123.7 30.6 123.6 30.5 C 123.8 30.4 124.0 30.3 124.0 30.4 C 123.9 30.4 123.8 30.5 123.8 30.6 C 123.9 30.5 124.0 30.5 124.0 30.6 C 123.8 30.7 123.7 30.8 123.7 30.9 C 123.7 30.9 123.7 30.9 123.7 30.9 Z M 122.0 31.9 C 122.3 31.7 122.4 31.9 122.7 32.0 C 122.1 32.2 121.9 31.9 121.5 32.0 C 121.9 31.8 122.1 31.3 122.3 31.4 C 122.2 31.6 121.9 31.7 122.0 31.9 C 122.0 31.9 122.0 31.9 122.0 31.9 Z M 18.6 30.0 C 18.8 30.3 19.0 30.6 19.2 30.9 C 19.5 30.7 19.1 29.9 19.3 30.2 C 19.6 30.4 19.2 30.6 19.5 30.7 C 19.4 30.3 20.8 31.1 20.7 31.4 C 20.5 31.3 20.4 31.3 20.4 31.5 C 19.8 31.2 19.5 31.2 19.0 31.0 C 18.8 30.5 18.0 29.9 17.3 29.9 C 17.2 29.3 16.4 29.4 16.1 28.8 C 15.9 28.8 16.3 29.2 16.0 29.0 C 15.9 28.7 16.1 28.7 15.8 28.4 C 15.8 28.5 15.7 28.7 15.6 28.6 C 15.7 28.5 15.5 28.3 15.4 28.2 C 16.1 28.7 15.6 27.9 16.1 28.2 C 16.3 28.4 15.7 28.4 16.3 28.8 C 16.5 28.9 16.8 28.9 16.9 28.7 C 17.0 28.8 17.2 28.8 17.3 28.8 C 16.9 29.0 18.2 29.3 17.5 29.3 C 17.5 29.2 17.1 29.0 16.9 28.9 C 16.9 29.3 17.3 29.3 17.7 29.5 C 17.8 29.7 17.5 29.7 17.7 29.8 C 18.1 29.9 17.7 29.5 18.0 29.5 C 18.0 29.4 17.8 29.3 17.8 29.3 C 18.2 29.8 18.6 29.7 18.8 29.9 C 18.6 29.9 19.0 30.2 18.6 30.0 C 18.6 30.0 18.6 30.0 18.6 30.0 Z M 14.0 27.5 C 13.9 27.4 13.8 27.3 13.7 27.2 C 13.8 27.0 14.2 27.3 14.0 26.9 C 14.6 27.3 13.9 27.2 14.0 27.5 C 14.0 27.5 14.0 27.5 14.0 27.5 Z M 16.0 29.8 C 16.0 30.1 16.2 29.6 16.4 29.7 C 16.1 29.5 15.7 29.4 15.9 29.2 C 16.2 29.5 16.3 29.6 16.7 29.7 C 16.2 29.8 17.0 30.2 16.9 30.5 C 16.6 30.4 16.3 30.3 16.0 30.1 C 16.1 30.0 15.6 29.6 16.0 29.8 C 16.0 29.8 16.0 29.8 16.0 29.8 Z M 14.8 29.4 C 14.8 29.3 14.2 29.0 14.5 28.9 C 14.8 29.1 15.0 29.1 15.0 28.9 C 15.2 29.0 15.2 29.2 15.4 29.3 C 15.4 29.6 15.1 29.3 14.9 29.4 C 14.9 29.4 15.0 29.5 14.8 29.4 C 14.8 29.4 14.8 29.4 14.8 29.4 Z M 150.7 13.8 C 150.4 13.7 151.0 13.3 151.1 13.3 C 150.8 13.3 150.8 13.2 151.0 12.8 C 151.1 13.1 151.4 12.7 151.9 12.6 C 151.8 12.4 151.4 12.7 151.7 12.3 C 152.0 12.0 152.1 11.7 152.5 11.2 C 152.8 11.3 152.6 11.5 152.6 11.7 C 152.8 11.3 152.9 11.6 153.1 11.3 C 153.0 11.3 153.1 11.1 153.3 11.1 C 153.0 11.5 153.9 10.7 153.6 11.2 C 153.6 11.2 153.5 11.3 153.5 11.4 C 153.3 11.1 152.9 11.7 152.7 11.7 C 152.9 12.3 152.2 12.8 151.5 13.3 C 151.4 13.2 151.5 13.0 151.3 13.1 C 151.4 13.2 151.2 13.4 151.1 13.6 C 151.1 13.5 150.9 13.5 150.8 13.6 C 150.8 13.7 150.8 13.7 150.7 13.8 C 150.7 13.8 150.7 13.8 150.7 13.8 Z M 39.0 42.3 C 38.8 42.6 39.8 42.7 40.1 42.7 C 39.9 43.1 38.4 42.5 39.0 42.3 C 39.0 42.3 39.0 42.3 39.0 42.3 Z M 33.5 40.6 C 33.8 40.7 33.7 40.4 33.9 40.5 C 33.8 40.7 34.5 40.5 34.4 40.7 C 34.1 40.8 33.9 40.8 33.5 40.6 C 33.5 40.6 33.5 40.6 33.5 40.6 Z M 28.7 38.5 C 29.1 38.7 28.5 38.3 28.7 38.2 C 29.0 38.4 29.3 38.6 29.2 38.8 C 29.0 38.5 28.6 38.7 28.7 38.5 C 28.7 38.5 28.7 38.5 28.7 38.5 Z M 35.9 41.8 C 36.2 42.0 35.6 42.1 35.6 41.9 C 36.0 42.0 35.4 41.6 35.1 41.6 C 35.2 41.3 35.3 41.4 35.2 41.1 C 35.8 41.2 35.2 41.4 35.6 41.5 C 35.8 41.4 35.6 41.4 35.7 41.2 C 35.8 41.2 35.9 41.3 36.1 41.3 C 36.0 41.4 36.0 41.6 35.9 41.7 C 35.8 41.7 35.6 41.6 35.6 41.8 C 35.8 41.8 35.8 41.8 35.9 41.8 C 35.9 41.8 35.9 41.8 35.9 41.8 Z M 156.1 8.2 C 156.2 8.0 156.0 8.1 155.9 8.2 C 156.0 8.3 156.2 8.7 155.9 8.8 C 156.1 8.2 155.5 8.7 155.6 8.4 C 155.8 8.4 155.8 8.0 156.0 7.8 C 156.3 7.8 156.4 8.3 156.1 8.2 C 156.1 8.2 156.1 8.2 156.1 8.2 Z M 155.3 8.9 C 155.4 9.0 155.5 8.9 155.6 8.7 C 155.6 9.0 155.8 8.8 155.7 9.1 C 155.7 9.0 155.1 9.6 155.4 9.2 C 155.7 8.9 155.2 9.1 155.0 9.3 C 155.2 9.1 155.2 8.7 155.4 8.8 C 155.3 8.8 155.3 8.9 155.3 8.9 C 155.3 8.9 155.3 8.9 155.3 8.9 Z M 149.2 16.4 C 149.2 16.5 149.4 16.3 149.5 16.3 C 149.0 16.9 148.5 17.3 148.2 17.5 C 148.5 17.3 148.3 17.2 148.1 17.2 C 148.4 17.0 148.4 16.9 148.6 16.9 C 148.5 17.2 148.8 16.7 149.2 16.4 C 149.2 16.4 149.2 16.4 149.2 16.4 Z M 149.2 16.4 " fill="#FF607B"></path><path d="M 9.1 45.6 C 9.2 45.5 9.4 45.4 9.4 45.6 C 9.5 45.5 9.5 45.4 9.5 45.3 C 9.6 45.3 9.6 45.4 9.6 45.5 C 9.7 45.5 9.7 45.4 9.8 45.3 C 9.8 45.2 9.5 45.3 9.4 45.2 C 9.3 45.2 9.1 45.5 9.1 45.3 C 8.9 45.3 9.1 45.4 9.1 45.6 Z M 11.2 47.3 C 11.0 47.6 11.4 47.9 11.2 47.8 C 11.0 47.9 10.5 47.6 10.8 47.6 C 11.0 47.6 11.2 47.1 11.2 47.3 Z M 8.7 44.5 C 8.8 44.5 8.9 44.4 9.0 44.4 C 9.0 44.5 8.8 44.8 8.7 44.6 C 8.8 44.6 8.8 44.5 8.7 44.5 Z M 11.4 39.2 C 11.4 39.1 11.4 39.1 11.3 39.0 C 11.2 39.2 11.1 39.3 11.3 39.5 C 11.2 39.3 11.1 39.2 11.4 39.2 Z M 9.9 31.7 C 9.9 31.6 9.9 31.6 9.9 31.5 C 9.9 31.5 9.9 31.5 9.9 31.5 C 9.7 31.3 9.2 31.3 9.1 31.6 C 9.2 31.6 9.2 31.5 9.3 31.5 C 9.3 31.6 9.3 31.7 9.4 31.7 C 9.4 31.6 9.4 31.5 9.5 31.5 C 9.5 31.5 9.6 31.5 9.7 31.5 C 9.7 31.8 9.3 31.7 9.3 32.1 C 9.7 32.2 9.7 31.6 9.9 31.7 Z M 11.2 35.9 C 11.2 35.9 11.2 35.9 11.2 35.9 C 11.2 35.9 11.3 35.9 11.2 35.9 C 11.2 35.9 11.2 35.9 11.2 35.9 Z M 10.0 40.9 C 9.9 41.0 9.9 41.0 9.9 41.1 C 10.0 41.1 10.1 41.1 10.1 41.1 C 10.1 41.0 10.1 40.9 10.0 40.9 Z M 11.1 45.0 C 11.1 44.5 11.3 44.6 11.3 44.3 C 11.2 44.3 11.2 44.4 11.1 44.4 C 11.1 44.1 11.1 44.2 11.1 44.0 C 11.3 44.1 11.3 43.9 11.1 43.6 C 11.4 43.4 11.3 43.1 11.3 43.0 C 11.1 43.2 11.1 43.0 10.9 43.1 C 11.1 43.1 10.9 42.8 11.2 42.8 C 11.3 43.0 11.2 42.6 10.9 42.8 C 11.0 42.6 10.8 42.6 10.9 42.3 C 11.0 42.4 11.5 42.4 11.4 42.1 C 11.2 42.3 11.1 42.0 10.8 42.1 C 10.8 41.9 11.2 42.0 11.2 41.8 C 11.0 41.9 11.0 41.8 11.1 41.6 C 11.0 41.6 10.9 41.6 10.9 41.4 C 11.0 41.4 11.0 41.4 11.0 41.4 C 11.1 41.3 11.2 41.2 11.5 41.2 C 11.4 41.1 11.4 41.0 11.5 41.0 C 11.4 40.8 11.3 41.2 11.1 41.2 C 11.2 41.0 11.3 40.8 11.5 40.7 C 11.1 40.5 11.6 40.4 11.6 40.1 C 11.5 40.2 11.4 40.2 11.4 40.3 C 11.2 40.4 11.2 40.2 11.0 40.2 C 11.0 40.0 11.0 39.7 11.2 39.6 C 11.0 39.6 10.9 39.7 10.7 39.8 C 10.7 39.7 10.7 39.7 10.7 39.6 C 10.7 39.6 10.7 39.5 10.7 39.5 C 10.7 39.6 11.0 39.6 11.0 39.5 C 10.9 39.4 10.7 39.4 10.7 39.3 C 11.0 39.4 11.1 39.1 11.2 38.9 C 11.1 38.9 11.1 38.9 11.1 38.9 C 11.0 38.9 11.0 39.0 10.9 39.0 C 10.9 39.0 10.9 38.9 10.9 38.9 C 10.9 38.9 10.8 38.8 10.9 38.8 C 10.9 38.8 11.0 38.8 11.0 38.8 C 10.9 38.8 10.9 38.7 10.9 38.7 C 11.0 38.6 11.0 38.7 11.2 38.6 C 11.2 38.6 11.2 38.6 11.2 38.6 C 11.2 38.6 11.2 38.6 11.2 38.5 C 11.1 38.5 11.1 38.5 11.1 38.5 C 11.1 38.5 11.1 38.5 11.1 38.4 C 11.1 38.4 11.1 38.4 11.1 38.4 C 11.1 38.4 11.2 38.4 11.2 38.4 C 11.2 38.4 11.2 38.4 11.2 38.4 C 11.2 38.4 11.2 38.4 11.2 38.4 C 11.1 38.3 10.9 38.3 10.8 38.2 C 10.8 38.1 10.9 38.1 11.0 38.1 C 11.0 37.8 10.7 37.8 10.6 37.6 C 10.6 37.5 10.8 37.7 10.8 37.7 C 10.6 37.5 11.0 37.5 11.2 37.1 C 11.1 37.2 11.1 37.2 11.0 37.2 C 11.0 37.1 11.0 37.1 11.0 37.1 C 11.0 37.1 11.0 37.1 11.0 37.1 C 11.0 37.1 11.0 37.0 11.0 37.0 C 11.0 37.0 11.0 37.0 11.0 37.0 C 11.0 37.0 11.0 37.0 11.0 36.9 C 11.0 36.9 11.0 36.9 11.0 36.9 C 11.0 36.8 11.0 36.8 10.9 36.6 C 11.0 36.5 11.3 36.5 11.2 36.2 C 11.0 36.2 11.2 36.6 10.7 36.5 C 10.7 36.6 10.8 36.6 10.8 36.7 C 10.7 36.7 10.7 36.6 10.6 36.6 C 10.6 36.4 11.0 36.4 11.0 36.2 C 10.9 36.2 10.8 36.2 10.6 36.2 C 10.6 36.1 10.7 36.1 10.7 36.0 C 10.9 36.2 10.9 36.1 10.9 36.0 C 10.9 36.0 10.9 36.0 10.9 36.0 C 10.8 35.7 11.2 35.9 11.1 35.7 C 11.0 35.7 10.9 35.8 10.9 35.7 C 11.0 35.7 10.9 35.5 10.9 35.5 C 10.9 35.5 11.0 35.5 11.0 35.5 C 11.0 35.4 11.0 35.4 10.9 35.4 C 10.9 35.3 11.1 35.3 11.2 35.3 C 11.2 35.1 11.2 35.0 11.2 34.9 C 10.9 34.9 11.0 35.1 10.7 35.0 C 10.8 34.9 10.9 34.7 11.1 34.7 C 10.8 34.5 11.0 34.4 11.3 34.4 C 11.4 34.4 11.2 33.9 10.9 34.0 C 11.1 33.6 10.9 33.6 10.9 33.0 C 11.2 32.9 10.9 33.4 11.1 33.3 C 11.3 33.4 10.9 32.9 11.1 32.7 C 10.9 32.6 10.7 32.4 10.8 32.1 C 10.9 32.1 10.9 32.2 10.8 32.2 C 11.1 32.3 10.8 31.8 10.8 31.5 C 10.6 31.2 10.4 31.7 10.3 31.4 C 10.1 31.4 10.3 31.7 10.1 31.7 C 10.2 31.9 10.3 31.5 10.4 31.7 C 10.4 31.8 10.3 31.8 10.2 31.9 C 10.4 31.9 10.5 31.9 10.4 32.0 C 10.2 32.0 10.2 32.1 10.2 32.1 C 10.2 32.1 10.1 32.1 10.1 32.1 C 10.1 32.1 10.2 32.2 10.2 32.3 C 10.0 32.3 10.0 32.1 9.9 32.0 C 9.8 32.1 9.8 32.1 9.8 32.0 C 9.8 32.0 9.8 32.0 9.8 31.9 C 9.8 31.9 9.8 31.9 9.8 31.9 C 9.7 32.0 9.6 32.1 9.6 32.2 C 9.7 32.2 9.7 32.3 9.8 32.3 C 9.5 32.4 9.7 32.1 9.4 32.2 C 9.6 32.3 9.3 32.6 9.5 32.6 C 9.5 32.5 9.9 32.4 9.7 32.5 C 9.5 32.6 9.6 32.8 9.4 32.8 C 9.4 32.6 9.2 32.6 9.4 32.4 C 8.9 32.5 9.4 32.2 8.9 32.3 C 9.1 32.1 8.6 32.0 8.8 32.0 C 9.0 31.9 9.1 32.2 9.1 32.0 C 9.1 31.9 8.8 32.0 8.8 31.8 C 8.9 31.6 9.2 31.4 9.0 31.1 L 9.8 31.1 C 9.8 30.8 10.0 30.7 10.4 30.7 C 10.4 30.5 10.2 30.6 10.2 30.5 C 10.3 30.2 10.3 30.6 10.5 30.5 C 10.4 30.1 10.5 29.8 10.4 29.5 C 10.5 29.4 10.7 29.2 10.5 29.1 C 10.4 29.1 10.7 29.2 10.4 29.3 C 10.2 29.2 10.2 28.9 9.9 29.0 C 9.8 28.6 10.3 28.8 10.5 28.7 C 10.5 28.6 10.5 28.5 10.5 28.5 C 10.3 28.4 10.3 28.5 10.3 28.6 C 10.2 28.6 10.1 28.5 10.0 28.5 C 10.3 28.4 10.0 28.1 10.5 28.1 C 9.5 25.8 8.1 28.1 7.9 28.2 L 7.0 26.7 C 6.7 27.1 7.1 29.4 7.0 29.8 C 7.0 29.8 6.9 29.9 6.9 29.8 C 6.9 29.9 7.1 30.1 7.1 30.2 C 6.9 30.3 6.9 30.1 6.9 30.4 C 7.0 30.5 7.0 30.4 7.1 30.3 C 7.1 30.5 6.8 30.4 6.9 30.7 C 7.1 30.7 7.1 30.6 7.1 30.5 C 7.4 30.4 7.0 30.8 7.2 30.8 C 7.2 30.8 7.0 30.9 7.0 30.8 C 6.7 30.8 7.3 31.1 6.9 31.1 C 6.9 31.2 7.0 31.2 6.9 31.2 C 6.9 31.3 7.0 31.3 7.1 31.3 C 7.1 31.4 6.8 31.5 7.1 31.4 C 6.9 31.7 7.0 32.4 7.2 32.4 C 7.2 32.8 6.9 32.7 7.0 32.8 C 7.3 33.0 7.0 33.1 7.0 33.5 C 7.3 33.4 7.1 33.6 7.1 33.7 C 7.2 33.7 7.2 33.7 7.4 33.6 C 7.0 33.8 7.2 34.3 7.4 34.5 C 7.5 34.7 7.3 34.7 7.4 34.8 C 7.3 34.8 7.2 34.7 7.2 34.5 C 7.0 34.7 7.1 34.9 6.9 34.9 C 6.9 35.1 7.5 34.7 7.5 35.0 C 7.5 35.1 7.2 34.9 7.2 35.2 C 7.5 35.0 7.1 35.4 7.2 35.7 C 7.6 35.7 7.1 36.3 7.4 36.3 C 7.4 36.7 7.1 36.5 7.2 36.7 C 7.5 37.0 7.3 37.5 7.5 38.1 C 7.4 38.0 7.2 37.8 7.2 38.0 C 7.5 38.4 7.3 38.3 7.3 38.5 C 7.4 38.6 7.4 38.8 7.6 38.7 C 7.3 39.1 7.9 40.1 7.6 40.6 C 7.6 40.7 7.7 40.7 7.8 40.7 C 7.6 40.9 7.9 41.2 7.6 41.2 C 7.9 41.3 7.6 41.5 7.9 41.4 C 7.8 41.5 7.8 41.5 7.8 41.6 C 7.6 41.6 7.4 41.1 7.4 41.4 C 8.0 42.1 7.4 42.5 7.8 43.0 C 7.8 43.1 7.6 43.2 7.6 43.3 C 7.5 43.3 7.3 43.3 7.3 43.2 C 7.0 43.3 7.8 43.4 7.5 43.5 C 7.6 43.7 7.7 43.4 7.6 43.2 C 7.9 43.2 7.8 43.3 8.0 43.2 C 7.9 43.4 7.7 43.6 7.8 43.9 C 7.7 43.9 7.6 43.9 7.6 43.8 C 7.3 44.0 7.8 43.9 7.8 44.1 C 7.8 44.0 8.0 44.0 8.0 43.9 C 8.1 43.9 8.1 44.0 8.1 44.1 C 7.8 44.1 8.2 44.1 8.0 44.3 C 8.2 44.5 8.7 44.4 8.6 44.2 C 8.5 44.0 8.4 44.4 8.3 44.2 C 8.3 43.9 9.2 43.4 8.5 43.4 C 8.4 43.4 8.7 43.4 8.7 43.6 C 8.4 43.6 8.5 43.4 8.3 43.5 C 8.4 43.4 8.4 43.2 8.4 43.1 C 8.8 43.0 8.6 43.3 8.7 43.2 C 8.9 43.0 8.6 42.8 8.8 42.6 C 8.8 42.5 8.5 42.8 8.5 42.9 C 8.3 42.6 8.5 42.3 8.8 41.9 C 8.7 41.7 8.7 41.9 8.5 41.9 C 8.5 41.8 8.6 41.7 8.7 41.7 C 8.6 41.6 8.5 41.5 8.4 41.4 C 8.5 41.2 8.7 41.1 8.8 41.0 C 8.8 40.8 8.7 41.1 8.5 41.0 C 8.8 40.7 8.3 40.7 8.6 40.5 C 8.8 40.5 8.8 40.7 8.9 40.8 C 9.0 40.8 9.0 40.7 9.1 40.7 C 8.7 40.5 8.8 40.5 8.8 40.1 C 8.7 40.1 8.6 40.2 8.6 40.3 C 8.4 40.3 8.8 40.0 8.4 40.1 C 8.4 40.0 8.6 39.9 8.3 39.8 C 8.7 39.6 8.6 39.6 8.6 39.2 C 8.9 39.2 9.0 39.2 9.0 39.5 C 9.1 39.2 9.1 39.3 9.3 39.4 C 9.3 39.5 9.2 39.5 9.1 39.5 C 9.0 39.6 9.4 39.7 9.3 39.9 C 9.3 40.1 9.2 39.8 9.1 40.0 C 9.2 40.1 9.3 40.1 9.1 40.2 C 9.2 40.3 9.4 40.3 9.4 40.5 C 9.4 40.5 9.4 40.5 9.4 40.6 C 9.2 40.7 9.3 40.3 9.0 40.4 C 9.0 40.7 9.3 40.7 9.3 40.9 C 9.4 41.0 9.5 41.0 9.7 41.1 C 9.7 41.0 9.6 40.9 9.6 40.8 C 9.9 40.7 9.5 40.5 9.7 40.4 C 9.4 40.4 9.3 39.9 9.5 39.9 C 9.3 39.9 9.2 39.5 9.3 39.5 C 9.4 39.5 9.7 39.6 9.7 39.3 C 9.5 39.4 9.5 39.3 9.3 39.3 C 9.6 39.0 9.0 38.8 9.1 38.7 C 9.3 38.8 9.4 38.9 9.6 39.1 C 9.8 39.1 9.9 38.9 10.1 38.9 C 9.7 39.0 10.2 38.7 9.9 38.7 C 9.9 38.8 9.9 38.9 9.7 39.0 C 9.7 38.7 9.3 38.9 9.3 38.6 C 9.6 38.6 9.8 38.5 9.9 38.4 C 9.8 38.3 9.8 38.5 9.6 38.5 C 9.7 38.2 9.9 38.1 9.9 38.3 C 9.9 38.2 10.0 38.2 10.0 38.1 C 9.7 38.2 9.9 37.8 9.7 37.9 C 9.5 37.8 9.6 38.0 9.5 38.1 C 9.6 38.1 9.7 38.1 9.7 38.2 C 9.3 38.2 9.7 38.6 9.4 38.5 C 9.5 38.2 9.0 38.2 9.3 38.1 C 9.3 38.2 9.4 38.1 9.4 38.0 C 9.4 37.9 9.3 37.7 9.1 37.7 C 9.1 37.8 9.2 38.0 9.0 37.9 C 8.9 37.5 9.4 37.5 9.4 37.7 C 9.4 37.7 9.5 37.7 9.5 37.7 C 9.7 37.3 9.4 37.3 9.3 37.3 C 9.5 37.1 9.6 37.0 9.8 36.6 C 9.6 36.6 9.7 36.8 9.5 36.8 C 9.4 36.5 9.8 36.5 9.7 36.2 C 9.6 36.3 9.5 36.4 9.4 36.4 C 9.4 36.0 9.1 36.3 9.0 36.0 C 9.6 36.2 9.1 35.7 9.5 35.9 C 9.3 35.5 9.5 35.1 9.9 35.0 C 9.8 35.1 9.7 35.2 9.8 35.2 C 9.8 35.1 10.1 34.9 10.1 35.1 C 9.9 35.2 9.8 35.7 10.1 35.3 C 10.0 35.8 9.6 35.8 9.4 36.1 C 9.4 36.1 9.5 36.2 9.5 36.2 C 9.5 36.0 9.9 35.6 10.1 35.8 C 10.0 36.0 10.1 36.2 10.2 36.4 C 9.9 36.6 10.1 36.5 10.1 36.7 C 10.0 36.8 9.7 36.8 9.7 37.0 C 9.9 37.0 10.0 37.0 10.1 37.0 C 10.0 37.2 10.2 37.2 10.2 37.4 C 10.0 37.4 10.0 37.2 9.8 37.2 C 9.7 37.7 10.0 37.1 10.2 37.8 C 10.1 37.8 9.9 37.8 9.9 37.9 C 10.3 38.3 10.0 39.0 10.3 39.5 C 10.1 39.6 10.0 39.4 10.0 39.5 C 10.2 39.7 10.1 39.9 10.3 40.2 C 9.8 40.2 10.2 40.7 10.3 40.8 C 10.2 40.8 10.1 40.7 10.1 40.8 C 10.2 40.9 10.3 41.1 10.3 41.2 C 10.3 41.2 10.2 41.2 10.2 41.2 C 10.1 41.3 10.1 41.2 10.1 41.1 C 10.1 41.1 10.1 41.2 10.1 41.1 C 10.0 41.2 9.9 41.2 9.9 41.2 C 9.8 41.2 9.8 41.3 9.7 41.3 C 9.7 41.2 9.7 41.2 9.7 41.2 C 9.5 41.1 9.3 41.1 9.1 41.2 C 9.4 41.4 9.2 41.5 9.3 41.7 C 9.1 41.7 9.1 41.6 9.1 41.5 C 9.0 41.5 8.7 41.4 8.8 41.6 C 8.9 41.6 8.9 41.6 8.9 41.6 C 9.0 41.6 9.0 41.7 9.1 41.7 C 9.1 41.8 9.0 41.8 8.9 41.8 C 8.8 42.2 9.6 41.4 9.3 42.3 C 9.5 42.3 9.4 42.1 9.6 42.2 C 9.5 42.5 9.3 42.7 9.4 43.1 C 9.8 43.3 9.8 43.3 10.1 43.0 C 10.0 43.0 9.8 43.0 9.7 42.8 C 9.9 42.7 10.0 42.5 10.1 42.3 C 9.9 42.3 9.8 42.3 9.8 42.2 C 10.2 42.0 9.9 41.6 10.1 41.4 C 10.2 41.5 10.3 41.6 10.4 41.7 C 10.3 41.8 10.2 41.7 10.1 41.8 C 10.4 41.9 10.3 42.0 10.2 42.0 C 10.3 42.1 10.3 42.1 10.4 42.1 C 10.3 42.1 10.3 42.1 10.3 42.2 C 10.3 42.2 10.3 42.2 10.3 42.2 C 10.3 42.2 10.2 42.2 10.3 42.3 C 10.2 42.3 10.2 42.3 10.2 42.3 C 10.2 42.6 10.7 42.7 10.4 43.0 C 10.2 43.1 10.6 43.1 10.5 43.0 C 10.7 42.9 10.3 43.3 10.7 43.2 C 10.7 43.4 10.5 43.2 10.3 43.3 C 10.4 43.5 10.4 43.2 10.6 43.4 C 10.5 43.5 10.3 43.6 10.2 43.6 C 10.4 43.8 10.5 43.5 10.6 43.8 C 10.4 43.8 10.4 44.1 10.4 44.3 C 10.6 44.2 10.6 44.1 10.9 44.1 C 11.0 44.4 10.5 44.2 10.7 44.5 C 10.8 44.5 10.8 44.3 10.9 44.3 C 11.1 44.4 10.8 44.5 10.9 44.6 C 10.6 44.6 10.7 44.6 10.5 44.7 C 10.5 44.6 10.5 44.6 10.5 44.6 C 10.3 44.4 10.5 45.0 10.7 44.7 C 10.7 44.8 10.7 44.8 10.6 44.9 C 10.6 45.0 10.7 44.8 10.8 44.8 C 10.8 45.0 10.7 45.1 10.7 45.3 C 10.8 45.2 10.8 44.9 11.1 45.0 Z M 8.8 36.6 C 8.9 36.5 9.1 36.5 9.3 36.5 C 9.4 36.8 9.1 36.9 9.1 37.0 C 9.1 36.8 8.8 36.9 8.8 36.6 Z M 8.7 34.0 C 8.8 33.9 9.1 33.5 9.3 33.7 C 9.0 34.0 9.1 34.0 8.7 34.0 Z M 9.8 33.3 C 9.9 33.5 10.2 33.3 10.2 33.5 C 9.8 33.4 9.8 33.7 9.8 33.9 C 9.6 34.0 9.5 34.0 9.5 33.8 C 9.6 33.8 9.8 33.8 9.8 33.7 C 9.6 33.7 9.5 33.5 9.4 33.6 C 9.5 33.2 9.5 33.5 9.2 33.3 C 9.6 33.0 10.0 32.8 10.3 33.1 C 10.0 33.1 10.3 33.3 10.3 33.3 C 10.1 33.3 10.0 33.2 9.8 33.3 Z M 9.4 34.4 C 9.4 34.7 9.4 34.7 9.3 34.8 C 9.3 34.7 9.3 34.6 9.2 34.6 C 9.2 34.7 9.0 34.9 9.0 34.6 C 9.3 34.6 9.5 34.4 9.3 34.1 C 9.6 34.2 9.6 33.9 10.1 34.0 C 10.2 34.3 9.7 34.6 9.4 34.4 Z M 9.3 43.7 C 9.5 43.6 9.4 43.5 9.3 43.4 C 9.4 43.4 9.3 43.2 9.4 43.2 C 9.5 43.3 9.5 43.2 9.5 43.1 C 9.9 43.1 9.4 43.4 9.7 43.5 C 9.7 43.4 9.8 43.4 9.9 43.3 C 9.9 43.4 10.0 43.5 9.9 43.5 C 9.8 43.3 10.1 43.7 9.8 43.7 C 9.8 43.6 9.8 43.6 9.7 43.6 C 9.8 43.8 9.5 43.8 9.5 43.9 C 9.5 43.8 9.5 43.7 9.4 43.7 C 9.4 43.7 9.3 43.7 9.3 43.7 Z M 10.8 45.7 C 10.9 45.5 11.0 45.4 11.1 45.2 C 10.8 45.2 10.5 45.5 10.6 45.4 C 10.6 45.2 10.9 45.3 10.9 45.2 C 10.6 45.3 10.5 44.6 10.8 44.6 C 10.8 44.7 10.9 44.7 11.0 44.7 C 11.0 45.0 11.2 45.1 11.3 45.3 C 11.0 45.5 11.0 45.9 11.3 46.2 C 10.9 46.3 11.4 46.6 11.1 46.9 C 11.2 46.9 11.3 46.6 11.3 46.8 C 11.1 47.0 11.0 46.9 10.9 47.1 C 11.0 47.1 11.2 47.0 11.2 47.1 C 11.1 47.1 11.1 47.2 11.0 47.2 C 11.0 46.9 10.7 47.3 10.7 47.0 C 10.8 46.9 11.0 47.1 11.0 46.8 C 10.9 46.7 10.8 46.6 10.6 46.6 C 10.6 46.6 10.6 46.5 10.5 46.5 C 10.8 46.5 10.4 46.0 10.7 46.3 C 10.7 46.3 10.7 46.4 10.8 46.6 C 11.1 46.4 10.9 46.3 10.8 46.1 C 11.0 46.0 11.0 46.1 11.1 46.0 C 10.9 45.9 10.8 46.1 10.7 46.0 C 10.6 46.1 10.7 46.1 10.6 46.1 C 10.8 45.9 10.5 45.8 10.5 45.6 C 10.7 45.7 10.7 45.5 10.8 45.7 Z M 9.2 46.2 C 9.1 46.3 9.0 46.3 8.9 46.2 C 9.0 46.2 9.0 46.1 9.1 46.0 C 9.0 46.0 8.9 46.0 8.9 46.0 C 9.1 45.9 9.1 46.1 9.2 46.2 Z M 11.2 47.9 C 11.2 48.0 11.2 48.0 11.2 48.1 C 11.0 48.1 11.0 47.9 10.8 48.1 C 10.8 47.8 11.1 48.1 11.2 47.9 Z M 9.7 43.9 C 9.9 43.8 9.4 43.9 9.4 43.8 C 9.5 43.9 9.5 44.1 9.3 44.1 C 9.4 43.9 9.3 43.8 9.3 43.7 C 9.6 43.8 9.5 43.5 9.7 43.4 C 9.8 43.5 9.9 43.6 9.9 43.8 C 9.8 43.8 9.8 44.1 9.7 43.9 Z M 9.7 44.4 C 9.6 44.5 9.7 44.7 9.5 44.7 C 9.5 44.5 9.4 44.5 9.3 44.5 C 9.2 44.4 9.3 44.4 9.3 44.3 C 9.6 44.2 9.5 44.4 9.7 44.4 C 9.7 44.4 9.7 44.3 9.7 44.4 Z M 24.4 23.1 C 24.4 23.4 24.6 23.1 24.6 23.1 C 24.7 23.2 25.0 23.0 25.1 23.2 C 25.0 23.2 24.9 23.3 24.8 23.3 C 24.8 23.3 24.8 23.2 24.7 23.2 C 24.7 23.3 24.7 23.4 24.6 23.4 C 24.6 23.2 24.4 23.4 24.3 23.4 C 24.3 23.3 24.1 23.2 24.4 23.1 Z M 24.3 22.8 C 24.1 22.8 24.3 23.1 24.0 23.0 C 24.0 22.9 24.0 22.8 23.8 22.9 C 23.7 22.8 23.8 22.7 23.8 22.6 C 24.1 22.5 24.1 22.7 24.2 22.8 C 24.2 22.7 24.2 22.7 24.3 22.8 Z M 6.4 31.2 C 6.4 31.2 6.5 31.3 6.5 31.3 C 6.6 31.4 6.7 31.3 6.8 31.2 C 6.7 31.1 6.8 31.1 6.6 31.0 C 6.6 31.2 6.5 31.1 6.4 31.2 Z M 27.1 23.2 C 27.2 23.2 27.2 23.2 27.3 23.1 C 27.2 23.0 27.2 23.0 27.1 23.0 C 27.1 23.0 27.1 23.1 27.0 23.1 L 27.1 23.2 Z M 21.8 22.4 C 21.7 22.4 21.8 22.3 21.7 22.3 C 21.7 22.3 21.6 22.3 21.6 22.4 C 21.6 22.4 21.6 22.4 21.7 22.4 C 21.6 22.4 21.6 22.4 21.6 22.4 C 21.6 22.5 21.8 22.5 21.8 22.4 Z M 10.5 25.6 C 10.6 25.7 10.6 25.6 10.7 25.5 C 10.5 25.4 10.5 25.3 10.6 25.2 C 10.5 25.1 10.5 25.2 10.4 25.1 C 10.5 25.2 10.5 25.4 10.5 25.6 Z M 29.6 26.3 C 30.2 25.1 30.1 23.7 29.5 22.6 C 29.4 22.8 29.6 22.9 29.6 23.1 C 28.6 22.8 25.9 21.9 27.2 23.8 C 27.1 23.5 26.7 23.5 26.5 23.5 C 26.4 23.4 26.5 23.3 26.5 23.2 C 26.5 23.2 26.4 23.1 26.3 23.2 C 26.2 23.3 26.1 23.4 26.0 23.5 C 26.0 23.3 26.0 23.2 26.0 23.0 C 25.7 22.9 25.7 23.4 25.6 23.6 C 25.4 23.7 25.2 23.8 25.0 24.0 C 24.8 23.7 24.7 24.1 24.5 23.9 C 24.4 24.0 24.5 24.2 24.3 24.3 C 24.2 24.2 24.4 24.0 24.3 23.9 C 24.1 24.2 23.6 24.3 23.7 24.6 C 23.8 24.6 23.9 24.4 24.0 24.2 C 24.1 24.4 24.0 24.5 23.9 24.7 C 23.3 24.6 22.7 24.6 22.1 24.5 C 22.4 24.2 22.7 24.3 23.1 24.2 C 23.1 24.2 23.1 24.3 23.2 24.3 C 23.4 24.1 23.3 23.9 23.4 23.7 C 23.5 23.7 23.5 23.6 23.7 23.6 C 23.5 23.6 23.5 23.5 23.3 23.4 C 23.4 23.3 23.4 23.4 23.6 23.5 C 23.6 23.4 23.5 23.4 23.5 23.3 C 23.7 23.4 23.6 23.2 23.7 23.3 C 23.7 23.1 23.5 23.1 23.7 22.9 C 23.4 22.9 23.8 22.8 23.5 22.7 C 23.5 22.7 23.6 22.8 23.5 22.8 C 23.4 22.9 23.5 22.7 23.4 22.6 C 23.4 22.7 23.3 22.6 23.3 22.6 C 23.2 22.7 23.3 22.8 23.3 22.8 C 23.1 22.8 23.3 22.7 23.2 22.6 C 23.3 22.6 23.4 22.6 23.5 22.6 C 23.5 22.4 23.2 22.6 23.0 22.5 C 23.0 22.5 23.0 22.6 23.1 22.5 C 23.2 22.7 23.0 22.7 23.0 22.8 C 22.9 22.7 23.1 22.7 23.0 22.6 C 22.9 22.6 22.8 22.7 22.7 22.6 C 22.6 22.6 22.6 22.7 22.6 22.7 C 22.6 22.8 22.5 22.7 22.5 22.7 C 22.4 22.6 22.4 22.5 22.3 22.4 C 22.3 22.6 22.2 22.5 22.1 22.4 C 22.0 22.5 22.1 22.5 22.2 22.5 C 22.1 22.6 22.0 22.4 21.9 22.5 C 21.8 22.6 21.9 22.5 21.9 22.7 C 21.6 22.6 21.3 22.4 21.1 22.3 C 21.0 22.4 20.9 22.4 20.8 22.3 C 20.8 22.4 20.7 22.4 20.7 22.5 C 20.5 22.3 20.8 22.5 20.4 22.3 C 20.4 22.4 20.4 22.4 20.5 22.5 C 20.3 22.5 20.4 22.4 20.3 22.3 C 20.3 22.4 20.2 22.4 20.2 22.4 C 20.1 22.4 20.1 22.5 19.9 22.5 C 19.9 22.5 19.8 22.5 19.9 22.4 C 19.8 22.4 19.6 22.4 19.5 22.5 C 19.8 22.4 19.5 22.5 19.4 22.6 C 19.3 22.5 19.6 22.6 19.4 22.5 C 18.4 22.1 17.4 22.1 16.3 22.2 C 15.7 21.8 15.2 21.9 14.7 22.0 C 14.6 22.0 14.7 22.1 14.6 22.1 L 14.5 22.0 C 14.5 22.0 14.6 22.1 14.6 22.1 C 14.5 21.9 14.1 22.1 13.9 22.1 C 13.6 22.1 13.4 22.0 13.1 22.0 C 12.9 22.0 12.7 22.1 12.4 22.0 C 12.3 21.9 12.3 21.7 12.2 21.8 C 12.1 21.7 12.3 21.7 12.3 21.7 C 12.4 21.6 12.2 21.7 12.2 21.7 C 12.1 21.7 12.2 21.6 12.2 21.6 C 11.3 21.4 10.3 21.6 9.4 21.4 C 9.1 21.6 8.8 21.5 8.9 21.1 C 8.6 21.0 8.2 21.0 7.9 21.1 C 7.9 21.1 7.8 21.0 7.7 20.9 C 7.7 20.9 7.8 20.8 7.8 20.7 C 7.6 20.6 7.6 20.7 7.7 20.5 C 7.7 20.4 7.7 20.5 7.8 20.5 C 7.9 20.3 7.9 20.2 7.8 20.0 C 7.1 20.1 6.1 20.6 5.8 21.5 C 5.9 21.4 5.9 21.4 5.9 21.3 C 6.7 21.8 6.2 22.6 6.7 23.2 C 6.2 23.7 6.0 24.2 5.9 24.7 L 6.2 25.0 C 6.3 24.9 6.4 24.8 6.5 24.7 C 6.5 25.1 6.6 25.4 6.5 25.8 C 6.4 25.9 6.3 25.9 6.2 25.9 C 5.8 26.6 6.8 26.4 7.0 26.7 C 7.2 26.9 6.9 27.2 6.8 27.4 C 6.8 27.7 7.0 27.9 7.0 28.2 C 6.9 28.2 6.8 28.2 6.6 28.1 L 6.4 28.4 C 6.6 28.7 7.0 28.7 7.0 28.4 C 7.1 28.5 7.1 28.6 7.1 28.6 C 6.8 29.0 6.3 29.2 6.3 29.7 C 6.4 29.8 6.5 29.7 6.5 29.8 C 6.7 29.6 6.8 29.2 7.0 29.3 C 7.2 29.6 6.7 29.6 6.6 30.0 C 6.7 30.4 6.6 30.8 7.0 31.1 C 7.1 31.1 7.2 31.1 7.3 31.1 C 7.4 31.2 7.4 31.4 7.7 31.5 C 7.6 31.6 7.4 31.6 7.3 31.8 C 7.3 31.7 7.3 31.6 7.2 31.7 C 7.4 31.9 7.6 31.6 7.8 32.0 C 7.5 32.1 7.1 32.2 7.1 32.6 C 7.5 32.6 8.0 32.9 8.2 33.3 C 8.4 33.1 8.6 33.4 8.8 33.3 C 8.9 33.4 8.8 33.6 8.9 33.7 C 8.4 33.6 8.0 33.4 7.6 33.8 C 7.8 33.9 7.8 34.1 7.8 34.3 L 8.5 34.6 L 9.2 35.4 L 9.2 32.9 L 9.2 30.8 L 9.6 32.3 L 11.0 34.3 L 11.0 34.3 C 10.9 33.9 10.9 33.8 11.1 33.5 C 11.1 33.4 11.0 33.4 10.9 33.4 C 11.1 33.3 10.8 33.1 10.9 33.0 C 10.9 32.9 10.8 32.9 10.7 32.9 C 10.7 32.8 10.8 32.9 10.9 32.8 C 10.7 32.7 10.7 32.6 10.6 32.6 C 10.8 32.5 10.7 32.3 10.8 32.2 C 10.7 32.0 10.5 32.2 10.5 32.4 C 10.3 32.2 10.6 32.0 10.4 31.9 C 10.6 31.8 10.6 32.2 10.7 32.1 C 10.7 32.0 10.8 31.9 10.6 31.8 C 10.6 31.8 10.6 31.9 10.6 31.9 C 10.6 31.7 10.5 31.7 10.3 31.5 C 10.4 31.5 10.5 31.6 10.5 31.5 C 10.5 31.6 10.5 31.6 10.6 31.7 C 10.7 31.5 10.5 31.4 10.6 31.3 C 10.4 31.2 10.5 31.5 10.4 31.5 C 10.3 31.4 10.4 31.3 10.4 31.3 C 10.5 31.2 10.6 31.2 10.7 31.1 C 10.8 31.0 10.5 31.1 10.5 31.1 C 10.5 31.0 10.6 31.1 10.6 31.1 C 10.7 30.9 10.6 30.9 10.5 30.9 C 10.7 30.9 10.7 30.7 10.8 30.9 C 10.9 30.8 10.7 30.7 10.8 30.6 C 10.7 30.5 10.7 30.6 10.6 30.5 C 11.0 30.6 10.4 30.2 10.8 30.0 C 10.6 30.1 10.7 29.8 10.8 29.7 C 10.7 29.3 10.5 29.1 10.8 28.8 C 10.5 28.9 10.9 28.6 10.6 28.5 C 10.7 28.5 10.6 28.4 10.7 28.4 C 10.7 28.4 10.7 28.3 10.6 28.3 C 10.7 28.2 10.7 28.2 10.7 28.1 C 10.6 28.1 10.8 28.0 10.6 27.9 C 10.7 27.9 10.7 27.8 10.8 27.7 C 10.7 27.4 10.5 27.3 10.5 27.0 C 10.4 27.0 10.4 27.0 10.3 27.0 C 10.3 27.0 10.4 26.9 10.4 26.8 C 10.4 26.9 10.0 26.9 10.2 27.0 C 10.1 27.1 10.0 26.9 9.9 26.9 C 10.0 27.0 10.0 27.0 9.8 27.0 C 9.9 27.2 10.0 27.1 10.1 27.1 C 10.1 27.2 9.9 27.1 10.0 27.3 C 9.8 27.3 10.0 27.2 9.8 27.1 C 9.8 27.1 9.8 27.2 9.8 27.2 C 9.8 27.2 9.8 27.2 9.8 27.2 C 9.9 27.3 9.8 27.5 9.8 27.4 C 9.7 27.5 9.7 28.0 9.8 27.9 C 9.8 28.0 9.7 28.0 9.7 28.1 C 9.8 28.3 9.7 28.6 9.8 28.7 C 9.7 28.7 9.6 28.4 9.6 28.3 C 9.5 28.3 9.4 28.2 9.4 28.1 C 9.5 28.1 9.5 28.2 9.6 28.2 C 9.6 28.2 9.6 28.1 9.5 28.2 C 9.6 27.9 9.2 27.6 9.5 27.2 C 9.4 27.1 9.4 27.3 9.3 27.3 C 9.3 27.0 9.4 27.1 9.4 27.0 C 9.3 26.9 9.4 26.9 9.3 27.0 C 9.2 27.0 9.3 26.9 9.3 26.9 C 9.2 26.9 9.2 26.8 9.0 26.7 C 9.2 26.6 9.1 26.8 9.2 26.9 C 9.2 26.7 9.4 26.7 9.2 26.5 C 9.3 26.5 9.3 26.5 9.4 26.6 C 9.4 26.4 9.3 26.4 9.2 26.1 C 9.2 26.2 9.3 26.1 9.4 26.1 C 9.2 26.0 9.1 25.7 9.3 25.6 C 9.3 25.6 9.0 25.3 9.2 25.2 C 9.3 25.1 9.1 25.2 9.1 25.2 C 9.0 25.1 9.1 25.1 9.1 25.0 C 8.9 24.9 8.7 24.5 8.5 24.6 C 8.6 24.3 8.9 24.7 9.1 24.4 C 9.1 24.6 8.9 24.5 8.9 24.6 C 9.1 24.6 8.9 24.7 9.1 24.8 C 9.1 24.7 9.1 24.8 9.2 24.7 C 9.0 24.6 9.1 24.6 9.1 24.5 C 9.3 24.6 9.8 24.6 10.1 24.5 C 10.1 24.7 9.8 25.0 10.2 25.1 C 10.4 25.0 10.6 24.7 10.3 24.5 C 10.4 24.5 10.5 24.5 10.6 24.5 C 10.8 24.8 10.8 25.2 11.3 25.5 C 11.5 25.3 11.5 25.1 11.4 25.0 C 11.4 25.0 11.4 25.0 11.5 24.9 C 11.7 25.3 12.1 25.1 12.5 25.1 C 12.6 25.2 12.4 25.3 12.6 25.3 L 12.8 25.1 C 13.1 25.3 13.1 25.4 13.1 25.7 C 13.0 25.8 12.9 25.6 12.9 25.6 C 12.8 25.5 13.0 25.6 13.0 25.5 C 13.0 25.3 12.8 25.1 12.7 25.3 C 12.9 25.5 12.7 25.7 12.6 26.0 C 12.6 25.9 12.7 25.8 12.5 25.8 C 12.4 25.8 12.3 25.9 12.2 26.0 C 12.0 25.9 12.1 25.7 12.1 25.6 C 12.0 25.6 12.0 25.9 12.0 26.0 C 11.7 25.9 11.3 25.2 11.0 25.6 C 11.1 25.7 11.2 25.6 11.2 25.7 C 11.3 25.8 11.2 26.0 11.1 26.1 C 11.4 26.4 11.7 26.0 12.0 26.2 C 12.0 26.3 11.9 26.4 11.9 26.5 C 12.4 26.9 12.8 26.4 13.2 26.5 C 13.1 26.3 13.1 25.9 13.4 25.8 C 13.2 26.4 13.9 26.6 14.4 26.4 C 14.5 26.5 14.5 26.6 14.6 26.7 C 14.9 26.5 14.9 26.3 15.0 26.1 C 15.2 26.2 15.1 26.3 15.0 26.4 C 15.0 26.5 15.0 26.5 15.1 26.6 C 15.3 26.5 15.6 26.5 15.9 26.1 C 15.8 26.2 15.8 26.4 16.0 26.3 L 15.8 26.6 C 16.1 26.5 16.4 26.3 16.7 26.4 C 16.7 26.5 16.7 26.5 16.7 26.6 C 16.8 26.7 16.9 26.6 17.0 26.7 C 17.0 26.5 17.0 26.4 17.0 26.2 C 17.0 26.2 17.1 26.2 17.2 26.1 C 17.2 26.3 17.1 26.4 17.3 26.5 C 17.4 26.3 17.2 26.2 17.3 26.0 C 17.5 26.3 17.5 26.7 17.9 26.8 C 18.2 26.3 17.3 26.1 17.5 25.7 C 17.5 25.6 17.6 25.6 17.7 25.7 C 17.7 25.8 17.6 25.7 17.5 25.9 C 17.8 26.2 18.0 26.0 18.2 26.1 C 18.3 26.1 18.2 26.2 18.3 26.3 L 18.1 26.6 C 18.3 26.9 18.5 26.1 18.6 26.3 C 18.7 26.3 18.6 26.0 18.6 25.8 C 18.8 25.9 19.3 26.2 19.1 26.4 C 19.0 26.5 19.0 26.3 18.9 26.3 C 18.8 26.4 18.9 26.6 19.0 26.7 C 19.1 26.6 19.3 26.4 19.5 26.2 C 19.5 26.3 19.5 26.4 19.5 26.5 C 19.6 26.3 19.8 26.6 19.9 26.6 C 20.0 26.4 19.9 26.3 19.9 26.2 C 19.9 26.1 19.9 26.2 19.8 26.3 C 19.8 26.2 19.8 26.1 19.8 26.1 C 20.0 26.1 20.1 26.3 20.2 26.3 C 20.3 26.2 20.3 26.1 20.4 26.0 C 20.5 25.9 20.5 26.1 20.6 26.2 C 20.7 26.0 20.6 25.8 20.6 25.6 C 20.8 25.6 21.0 26.1 21.4 26.1 C 21.4 26.0 21.3 25.9 21.1 25.8 C 21.2 25.8 21.4 25.8 21.5 25.9 C 21.5 25.9 21.5 25.8 21.5 25.8 C 21.7 26.0 21.9 25.8 22.1 25.7 C 22.2 25.9 22.1 26.1 22.2 26.2 C 22.3 26.3 22.1 26.1 22.3 26.1 C 22.5 26.0 22.6 26.2 22.8 26.2 C 22.9 26.1 22.8 25.9 22.9 25.7 C 22.7 25.6 22.7 25.5 22.6 25.6 C 22.5 25.7 22.7 25.7 22.6 25.9 C 22.6 26.0 22.5 25.9 22.4 25.9 C 22.5 25.7 22.2 25.5 22.4 25.3 C 22.3 25.2 22.1 25.1 22.0 25.2 C 22.2 24.8 23.0 25.4 22.9 25.7 C 23.1 25.6 23.2 25.6 23.4 25.5 C 23.6 25.6 23.4 25.8 23.4 25.9 C 23.8 26.2 24.1 25.7 24.3 25.9 C 24.4 25.8 24.4 25.7 24.5 25.6 C 24.6 25.6 24.5 25.8 24.7 25.8 C 24.7 25.8 24.8 25.7 24.9 25.6 C 25.1 25.8 25.2 25.9 25.2 26.1 C 25.0 26.2 24.9 26.1 24.7 25.9 L 24.5 26.1 C 24.7 26.2 25.1 26.2 25.0 26.4 C 25.3 26.2 25.6 26.5 25.9 26.7 C 26.0 26.5 25.9 26.3 25.8 26.2 C 25.7 26.2 25.4 26.3 25.3 26.0 C 25.9 26.0 26.4 25.9 27.0 26.0 C 27.2 26.1 27.1 26.2 27.3 26.3 C 27.3 26.0 27.8 25.7 28.0 26.1 C 27.8 26.2 27.6 26.1 27.3 26.3 C 27.5 27.0 28.9 26.5 29.3 26.2 C 29.1 26.0 29.0 26.1 28.8 25.9 C 28.8 25.8 28.8 25.6 28.9 25.5 C 29.2 25.4 29.2 26.0 29.5 25.9 C 29.5 26.0 29.4 26.2 29.6 26.3 Z M 11.0 33.4 C 11.0 33.5 11.0 33.7 10.9 33.6 C 10.9 33.5 10.8 33.4 11.0 33.4 Z M 9.3 28.2 C 9.2 28.4 9.4 28.3 9.4 28.4 C 9.4 28.4 9.3 28.5 9.3 28.4 C 9.4 28.4 9.3 28.3 9.3 28.3 C 9.2 28.4 9.2 28.5 9.2 28.5 C 9.4 28.5 9.3 28.8 9.3 28.9 C 9.3 28.7 9.2 28.7 9.2 28.8 C 9.3 28.6 9.1 28.2 9.3 28.2 Z M 15.3 26.4 C 15.3 26.2 15.4 25.8 15.5 25.7 C 15.5 25.9 15.5 26.3 15.3 26.4 Z M 22.8 23.1 C 22.8 23.0 22.8 23.1 22.7 23.1 C 22.7 23.0 22.5 23.0 22.5 22.8 C 22.6 22.9 22.8 22.9 22.8 23.1 Z M 23.0 23.3 C 22.9 23.3 22.9 23.2 22.8 23.2 C 22.8 23.2 22.8 23.3 22.8 23.2 C 22.8 23.2 22.9 23.0 22.9 23.0 C 22.8 23.1 23.1 23.2 23.0 23.3 Z M 23.3 22.9 C 23.3 23.0 23.4 22.9 23.5 22.9 C 23.4 23.1 23.7 23.1 23.5 23.3 C 23.4 23.1 23.4 23.1 23.3 22.9 Z M 26.0 24.3 C 25.8 24.2 26.0 24.0 25.9 23.8 C 25.7 24.1 25.5 24.3 25.5 24.6 C 25.0 24.1 24.8 24.8 24.4 24.5 C 24.6 24.3 25.1 23.9 25.4 24.1 C 25.6 24.1 25.6 23.8 25.6 23.7 C 25.8 23.6 26.0 23.9 26.1 23.7 C 26.2 23.9 26.3 24.2 26.0 24.3 Z M 20.7 25.9 C 20.7 26.0 20.8 26.2 20.9 26.3 C 20.9 26.2 20.8 26.0 20.7 25.9 Z M 10.3 26.0 C 10.3 25.7 10.2 25.5 10.0 25.4 C 9.9 25.5 9.9 25.6 9.8 25.7 C 9.6 25.7 9.9 25.5 9.7 25.5 C 9.6 25.7 9.7 26.1 9.9 26.3 C 9.9 26.1 9.8 25.9 9.9 25.8 C 10.0 25.7 10.0 25.8 10.0 25.7 C 10.2 25.8 10.1 26.1 10.3 26.0 Z M 10.3 26.0 " fill="#FF607B"></path></g></svg>