<?xml version="1.0" encoding="UTF-8" standalone="no"?><svg xmlns="http://www.w3.org/2000/svg" xmlns:xlink="http://www.w3.org/1999/xlink" clip-rule="evenodd" stroke-miterlimit="10" viewBox="0 0 215 27"><desc>SVG generated by Keynote</desc><defs></defs><g transform="matrix(1.00, 0.00, -0.00, -1.00, 0.0, 27.0)"><text xml:space="preserve" font-family="Helvetica,Helvetica" font-size="30.0" fill="#EDC25F" transform="matrix(1.00, 0.00, -0.00, -1.00, 1.4, 2.3)">T</text><text xml:space="preserve" font-family="Helvetica,Helvetica" font-size="30.0" fill="#EDC25F" transform="matrix(1.00, 0.00, -0.00, -1.00, 19.8, 2.3)">I</text><text xml:space="preserve" font-family="Helvetica,Helvetica" font-size="30.0" fill="#EDC25F" transform="matrix(1.00, 0.00, -0.00, -1.00, 28.1, 2.3)">T</text><text xml:space="preserve" font-family="Helvetica,Helvetica" font-size="30.0" fill="#EDC25F" transform="matrix(1.00, 0.00, -0.00, -1.00, 46.4, 2.3)">L</text><text xml:space="preserve" font-family="Helvetica,Helvetica" font-size="30.0" fill="#EDC25F" transform="matrix(1.00, 0.00, -0.00, -1.00, 63.1, 2.3)">E</text><text xml:space="preserve" font-family="Helvetica,Helvetica" font-size="30.0" fill="#EDC25F" transform="matrix(1.00, 0.00, -0.00, -1.00, 83.1, 2.3)"> </text><text xml:space="preserve" font-family="Helvetica,Helvetica" font-size="30.0" fill="#EDC25F" transform="matrix(1.00, 0.00, -0.00, -1.00, 91.4, 2.3)">S</text><text xml:space="preserve" font-family="Helvetica,Helvetica" font-size="30.0" fill="#EDC25F" transform="matrix(1.00, 0.00, -0.00, -1.00, 111.5, 2.3)">A</text><text xml:space="preserve" font-family="Helvetica,Helvetica" font-size="30.0" fill="#EDC25F" transform="matrix(1.00, 0.00, -0.00, -1.00, 131.5, 2.3)">M</text><text xml:space="preserve" font-family="Helvetica,Helvetica" font-size="30.0" fill="#EDC25F" transform="matrix(1.00, 0.00, -0.00, -1.00, 156.5, 2.3)">P</text><text xml:space="preserve" font-family="Helvetica,Helvetica" font-size="30.0" fill="#EDC25F" transform="matrix(1.00, 0.00, -0.00, -1.00, 176.5, 2.3)">L</text><text xml:space="preserve" font-family="Helvetica,Helvetica" font-size="30.0" fill="#EDC25F" transform="matrix(1.00, 0.00, -0.00, -1.00, 193.2, 2.3)">E</text></g></svg>