<?xml version="1.0" encoding="UTF-8" standalone="no"?><svg xmlns="http://www.w3.org/2000/svg" xmlns:xlink="http://www.w3.org/1999/xlink" clip-rule="evenodd" stroke-miterlimit="10" viewBox="0 0 429 129"><desc>SVG generated by Keynote</desc><defs></defs><g transform="matrix(1.00, 0.00, -0.00, -1.00, 0.0, 129.0)"><text xml:space="preserve" font-family="Helvetica,Helvetica" font-size="22.0" fill="#E2E2E2" transform="matrix(1.00, 0.00, -0.00, -1.00, 20.6, 110.9)">V</text><text xml:space="preserve" font-family="Helvetica,Helvetica" font-size="22.0" fill="#E2E2E2" transform="matrix(1.00, 0.00, -0.00, -1.00, 34.1, 110.9)">e</text><text xml:space="preserve" font-family="Helvetica,Helvetica" font-size="22.0" fill="#E2E2E2" transform="matrix(1.00, 0.00, -0.00, -1.00, 46.3, 110.9)">l</text><text xml:space="preserve" font-family="Helvetica,Helvetica" font-size="22.0" fill="#E2E2E2" transform="matrix(1.00, 0.00, -0.00, -1.00, 51.2, 110.9)"> </text><text xml:space="preserve" font-family="Helvetica,Helvetica" font-size="22.0" fill="#E2E2E2" transform="matrix(1.00, 0.00, -0.00, -1.00, 57.3, 110.9)">i</text><text xml:space="preserve" font-family="Helvetica,Helvetica" font-size="22.0" fill="#E2E2E2" transform="matrix(1.00, 0.00, -0.00, -1.00, 62.2, 110.9)">l</text><text xml:space="preserve" font-family="Helvetica,Helvetica" font-size="22.0" fill="#E2E2E2" transform="matrix(1.00, 0.00, -0.00, -1.00, 67.1, 110.9)">l</text><text xml:space="preserve" font-family="Helvetica,Helvetica" font-size="22.0" fill="#E2E2E2" transform="matrix(1.00, 0.00, -0.00, -1.00, 72.0, 110.9)">u</text><text xml:space="preserve" font-family="Helvetica,Helvetica" font-size="22.0" fill="#E2E2E2" transform="matrix(1.00, 0.00, -0.00, -1.00, 84.2, 110.9)">m</text><text xml:space="preserve" font-family="Helvetica,Helvetica" font-size="22.0" fill="#E2E2E2" transform="matrix(1.00, 0.00, -0.00, -1.00, 102.6, 110.9)"> </text><text xml:space="preserve" font-family="Helvetica,Helvetica" font-size="22.0" fill="#E2E2E2" transform="matrix(1.00, 0.00, -0.00, -1.00, 108.7, 110.9)">d</text><text xml:space="preserve" font-family="Helvetica,Helvetica" font-size="22.0" fill="#E2E2E2" transform="matrix(1.00, 0.00, -0.00, -1.00, 120.9, 110.9)">o</text><text xml:space="preserve" font-family="Helvetica,Helvetica" font-size="22.0" fill="#E2E2E2" transform="matrix(1.00, 0.00, -0.00, -1.00, 133.2, 110.9)">l</text><text xml:space="preserve" font-family="Helvetica,Helvetica" font-size="22.0" fill="#E2E2E2" transform="matrix(1.00, 0.00, -0.00, -1.00, 138.1, 110.9)">o</text><text xml:space="preserve" font-family="Helvetica,Helvetica" font-size="22.0" fill="#E2E2E2" transform="matrix(1.00, 0.00, -0.00, -1.00, 150.3, 110.9)">r</text><text xml:space="preserve" font-family="Helvetica,Helvetica" font-size="22.0" fill="#E2E2E2" transform="matrix(1.00, 0.00, -0.00, -1.00, 157.6, 110.9)">e</text><text xml:space="preserve" font-family="Helvetica,Helvetica" font-size="22.0" fill="#E2E2E2" transform="matrix(1.00, 0.00, -0.00, -1.00, 169.9, 110.9)"> </text><text xml:space="preserve" font-family="Helvetica,Helvetica" font-size="22.0" fill="#E2E2E2" transform="matrix(1.00, 0.00, -0.00, -1.00, 176.0, 110.9)">e</text><text xml:space="preserve" font-family="Helvetica,Helvetica" font-size="22.0" fill="#E2E2E2" transform="matrix(1.00, 0.00, -0.00, -1.00, 188.2, 110.9)">u</text><text xml:space="preserve" font-family="Helvetica,Helvetica" font-size="22.0" fill="#E2E2E2" transform="matrix(1.00, 0.00, -0.00, -1.00, 200.4, 110.9)"> </text><text xml:space="preserve" font-family="Helvetica,Helvetica" font-size="22.0" fill="#E2E2E2" transform="matrix(1.00, 0.00, -0.00, -1.00, 206.6, 110.9)">f</text><text xml:space="preserve" font-family="Helvetica,Helvetica" font-size="22.0" fill="#E2E2E2" transform="matrix(1.00, 0.00, -0.00, -1.00, 212.7, 110.9)">e</text><text xml:space="preserve" font-family="Helvetica,Helvetica" font-size="22.0" fill="#E2E2E2" transform="matrix(1.00, 0.00, -0.00, -1.00, 224.9, 110.9)">u</text><text xml:space="preserve" font-family="Helvetica,Helvetica" font-size="22.0" fill="#E2E2E2" transform="matrix(1.00, 0.00, -0.00, -1.00, 237.1, 110.9)">g</text><text xml:space="preserve" font-family="Helvetica,Helvetica" font-size="22.0" fill="#E2E2E2" transform="matrix(1.00, 0.00, -0.00, -1.00, 249.4, 110.9)">i</text><text xml:space="preserve" font-family="Helvetica,Helvetica" font-size="22.0" fill="#E2E2E2" transform="matrix(1.00, 0.00, -0.00, -1.00, 254.3, 110.9)">a</text><text xml:space="preserve" font-family="Helvetica,Helvetica" font-size="22.0" fill="#E2E2E2" transform="matrix(1.00, 0.00, -0.00, -1.00, 266.5, 110.9)">t</text><text xml:space="preserve" font-family="Helvetica,Helvetica" font-size="22.0" fill="#E2E2E2" transform="matrix(1.00, 0.00, -0.00, -1.00, 272.6, 110.9)"> </text><text xml:space="preserve" font-family="Helvetica,Helvetica" font-size="22.0" fill="#E2E2E2" transform="matrix(1.00, 0.00, -0.00, -1.00, 278.7, 110.9)">n</text><text xml:space="preserve" font-family="Helvetica,Helvetica" font-size="22.0" fill="#E2E2E2" transform="matrix(1.00, 0.00, -0.00, -1.00, 291.0, 110.9)">u</text><text xml:space="preserve" font-family="Helvetica,Helvetica" font-size="22.0" fill="#E2E2E2" transform="matrix(1.00, 0.00, -0.00, -1.00, 303.2, 110.9)">l</text><text xml:space="preserve" font-family="Helvetica,Helvetica" font-size="22.0" fill="#E2E2E2" transform="matrix(1.00, 0.00, -0.00, -1.00, 308.1, 110.9)">l</text><text xml:space="preserve" font-family="Helvetica,Helvetica" font-size="22.0" fill="#E2E2E2" transform="matrix(1.00, 0.00, -0.00, -1.00, 313.0, 110.9)">a</text><text xml:space="preserve" font-family="Helvetica,Helvetica" font-size="22.0" fill="#E2E2E2" transform="matrix(1.00, 0.00, -0.00, -1.00, 325.2, 110.9)"> </text><text xml:space="preserve" font-family="Helvetica,Helvetica" font-size="22.0" fill="#E2E2E2" transform="matrix(1.00, 0.00, -0.00, -1.00, 331.3, 110.9)">f</text><text xml:space="preserve" font-family="Helvetica,Helvetica" font-size="22.0" fill="#E2E2E2" transform="matrix(1.00, 0.00, -0.00, -1.00, 337.4, 110.9)">a</text><text xml:space="preserve" font-family="Helvetica,Helvetica" font-size="22.0" fill="#E2E2E2" transform="matrix(1.00, 0.00, -0.00, -1.00, 349.7, 110.9)">c</text><text xml:space="preserve" font-family="Helvetica,Helvetica" font-size="22.0" fill="#E2E2E2" transform="matrix(1.00, 0.00, -0.00, -1.00, 360.7, 110.9)">i</text><text xml:space="preserve" font-family="Helvetica,Helvetica" font-size="22.0" fill="#E2E2E2" transform="matrix(1.00, 0.00, -0.00, -1.00, 365.6, 110.9)">l</text><text xml:space="preserve" font-family="Helvetica,Helvetica" font-size="22.0" fill="#E2E2E2" transform="matrix(1.00, 0.00, -0.00, -1.00, 370.5, 110.9)">i</text><text xml:space="preserve" font-family="Helvetica,Helvetica" font-size="22.0" fill="#E2E2E2" transform="matrix(1.00, 0.00, -0.00, -1.00, 375.4, 110.9)">s</text><text xml:space="preserve" font-family="Helvetica,Helvetica" font-size="22.0" fill="#E2E2E2" transform="matrix(1.00, 0.00, -0.00, -1.00, 386.4, 110.9)">i</text><text xml:space="preserve" font-family="Helvetica,Helvetica" font-size="22.0" fill="#E2E2E2" transform="matrix(1.00, 0.00, -0.00, -1.00, 391.3, 110.9)">s</text><text xml:space="preserve" font-family="Helvetica,Helvetica" font-size="22.0" fill="#E2E2E2" transform="matrix(1.00, 0.00, -0.00, -1.00, 402.3, 110.9)"> </text><text xml:space="preserve" font-family="Helvetica,Helvetica" font-size="22.0" fill="#E2E2E2" transform="matrix(1.00, 0.00, -0.00, -1.00, 408.4, 110.9)">a</text><text xml:space="preserve" font-family="Helvetica,Helvetica" font-size="22.0" fill="#E2E2E2" transform="matrix(1.00, 0.00, -0.00, -1.00, 420.6, 110.9)">t</text><text xml:space="preserve" font-family="Helvetica,Helvetica" font-size="22.0" fill="#E2E2E2" transform="matrix(1.00, 0.00, -0.00, -1.00, 426.7, 110.9)"> </text><text xml:space="preserve" font-family="Helvetica,Helvetica" font-size="22.0" fill="#E2E2E2" transform="matrix(1.00, 0.00, -0.00, -1.00, 79.3, 84.9)">v</text><text xml:space="preserve" font-family="Helvetica,Helvetica" font-size="22.0" fill="#E2E2E2" transform="matrix(1.00, 0.00, -0.00, -1.00, 90.3, 84.9)">e</text><text xml:space="preserve" font-family="Helvetica,Helvetica" font-size="22.0" fill="#E2E2E2" transform="matrix(1.00, 0.00, -0.00, -1.00, 102.6, 84.9)">r</text><text xml:space="preserve" font-family="Helvetica,Helvetica" font-size="22.0" fill="#E2E2E2" transform="matrix(1.00, 0.00, -0.00, -1.00, 109.9, 84.9)">o</text><text xml:space="preserve" font-family="Helvetica,Helvetica" font-size="22.0" fill="#E2E2E2" transform="matrix(1.00, 0.00, -0.00, -1.00, 122.1, 84.9)"> </text><text xml:space="preserve" font-family="Helvetica,Helvetica" font-size="22.0" fill="#E2E2E2" transform="matrix(1.00, 0.00, -0.00, -1.00, 128.2, 84.9)">e</text><text xml:space="preserve" font-family="Helvetica,Helvetica" font-size="22.0" fill="#E2E2E2" transform="matrix(1.00, 0.00, -0.00, -1.00, 140.5, 84.9)">r</text><text xml:space="preserve" font-family="Helvetica,Helvetica" font-size="22.0" fill="#E2E2E2" transform="matrix(1.00, 0.00, -0.00, -1.00, 147.8, 84.9)">o</text><text xml:space="preserve" font-family="Helvetica,Helvetica" font-size="22.0" fill="#E2E2E2" transform="matrix(1.00, 0.00, -0.00, -1.00, 160.1, 84.9)">s</text><text xml:space="preserve" font-family="Helvetica,Helvetica" font-size="22.0" fill="#E2E2E2" transform="matrix(1.00, 0.00, -0.00, -1.00, 171.1, 84.9)"> </text><text xml:space="preserve" font-family="Helvetica,Helvetica" font-size="22.0" fill="#E2E2E2" transform="matrix(1.00, 0.00, -0.00, -1.00, 177.2, 84.9)">e</text><text xml:space="preserve" font-family="Helvetica,Helvetica" font-size="22.0" fill="#E2E2E2" transform="matrix(1.00, 0.00, -0.00, -1.00, 189.4, 84.9)">t</text><text xml:space="preserve" font-family="Helvetica,Helvetica" font-size="22.0" fill="#E2E2E2" transform="matrix(1.00, 0.00, -0.00, -1.00, 195.5, 84.9)"> </text><text xml:space="preserve" font-family="Helvetica,Helvetica" font-size="22.0" fill="#E2E2E2" transform="matrix(1.00, 0.00, -0.00, -1.00, 201.6, 84.9)">a</text><text xml:space="preserve" font-family="Helvetica,Helvetica" font-size="22.0" fill="#E2E2E2" transform="matrix(1.00, 0.00, -0.00, -1.00, 213.9, 84.9)">c</text><text xml:space="preserve" font-family="Helvetica,Helvetica" font-size="22.0" fill="#E2E2E2" transform="matrix(1.00, 0.00, -0.00, -1.00, 224.9, 84.9)">c</text><text xml:space="preserve" font-family="Helvetica,Helvetica" font-size="22.0" fill="#E2E2E2" transform="matrix(1.00, 0.00, -0.00, -1.00, 235.9, 84.9)">u</text><text xml:space="preserve" font-family="Helvetica,Helvetica" font-size="22.0" fill="#E2E2E2" transform="matrix(1.00, 0.00, -0.00, -1.00, 248.1, 84.9)">m</text><text xml:space="preserve" font-family="Helvetica,Helvetica" font-size="22.0" fill="#E2E2E2" transform="matrix(1.00, 0.00, -0.00, -1.00, 266.4, 84.9)">s</text><text xml:space="preserve" font-family="Helvetica,Helvetica" font-size="22.0" fill="#E2E2E2" transform="matrix(1.00, 0.00, -0.00, -1.00, 277.4, 84.9)">a</text><text xml:space="preserve" font-family="Helvetica,Helvetica" font-size="22.0" fill="#E2E2E2" transform="matrix(1.00, 0.00, -0.00, -1.00, 289.7, 84.9)">n</text><text xml:space="preserve" font-family="Helvetica,Helvetica" font-size="22.0" fill="#E2E2E2" transform="matrix(1.00, 0.00, -0.00, -1.00, 301.9, 84.9)"> </text><text xml:space="preserve" font-family="Helvetica,Helvetica" font-size="22.0" fill="#E2E2E2" transform="matrix(1.00, 0.00, -0.00, -1.00, 308.0, 84.9)">e</text><text xml:space="preserve" font-family="Helvetica,Helvetica" font-size="22.0" fill="#E2E2E2" transform="matrix(1.00, 0.00, -0.00, -1.00, 320.3, 84.9)">t</text><text xml:space="preserve" font-family="Helvetica,Helvetica" font-size="22.0" fill="#E2E2E2" transform="matrix(1.00, 0.00, -0.00, -1.00, 326.4, 84.9)"> </text><text xml:space="preserve" font-family="Helvetica,Helvetica" font-size="22.0" fill="#E2E2E2" transform="matrix(1.00, 0.00, -0.00, -1.00, 332.5, 84.9)">i</text><text xml:space="preserve" font-family="Helvetica,Helvetica" font-size="22.0" fill="#E2E2E2" transform="matrix(1.00, 0.00, -0.00, -1.00, 337.4, 84.9)">u</text><text xml:space="preserve" font-family="Helvetica,Helvetica" font-size="22.0" fill="#E2E2E2" transform="matrix(1.00, 0.00, -0.00, -1.00, 349.6, 84.9)">s</text><text xml:space="preserve" font-family="Helvetica,Helvetica" font-size="22.0" fill="#E2E2E2" transform="matrix(1.00, 0.00, -0.00, -1.00, 360.6, 84.9)">t</text><text xml:space="preserve" font-family="Helvetica,Helvetica" font-size="22.0" fill="#E2E2E2" transform="matrix(1.00, 0.00, -0.00, -1.00, 366.7, 84.9)">o</text><text xml:space="preserve" font-family="Helvetica,Helvetica" font-size="22.0" fill="#E2E2E2" transform="matrix(1.00, 0.00, -0.00, -1.00, 378.9, 84.9)"> </text><text xml:space="preserve" font-family="Helvetica,Helvetica" font-size="22.0" fill="#E2E2E2" transform="matrix(1.00, 0.00, -0.00, -1.00, 385.1, 84.9)">o</text><text xml:space="preserve" font-family="Helvetica,Helvetica" font-size="22.0" fill="#E2E2E2" transform="matrix(1.00, 0.00, -0.00, -1.00, 397.3, 84.9)">d</text><text xml:space="preserve" font-family="Helvetica,Helvetica" font-size="22.0" fill="#E2E2E2" transform="matrix(1.00, 0.00, -0.00, -1.00, 409.5, 84.9)">i</text><text xml:space="preserve" font-family="Helvetica,Helvetica" font-size="22.0" fill="#E2E2E2" transform="matrix(1.00, 0.00, -0.00, -1.00, 414.4, 84.9)">o</text><text xml:space="preserve" font-family="Helvetica,Helvetica" font-size="22.0" fill="#E2E2E2" transform="matrix(1.00, 0.00, -0.00, -1.00, 426.7, 84.9)"> </text><text xml:space="preserve" font-family="Helvetica,Helvetica" font-size="22.0" fill="#E2E2E2" transform="matrix(1.00, 0.00, -0.00, -1.00, 1.1, 58.9)">d</text><text xml:space="preserve" font-family="Helvetica,Helvetica" font-size="22.0" fill="#E2E2E2" transform="matrix(1.00, 0.00, -0.00, -1.00, 13.3, 58.9)">i</text><text xml:space="preserve" font-family="Helvetica,Helvetica" font-size="22.0" fill="#E2E2E2" transform="matrix(1.00, 0.00, -0.00, -1.00, 18.2, 58.9)">g</text><text xml:space="preserve" font-family="Helvetica,Helvetica" font-size="22.0" fill="#E2E2E2" transform="matrix(1.00, 0.00, -0.00, -1.00, 30.5, 58.9)">n</text><text xml:space="preserve" font-family="Helvetica,Helvetica" font-size="22.0" fill="#E2E2E2" transform="matrix(1.00, 0.00, -0.00, -1.00, 42.7, 58.9)">i</text><text xml:space="preserve" font-family="Helvetica,Helvetica" font-size="22.0" fill="#E2E2E2" transform="matrix(1.00, 0.00, -0.00, -1.00, 47.6, 58.9)">s</text><text xml:space="preserve" font-family="Helvetica,Helvetica" font-size="22.0" fill="#E2E2E2" transform="matrix(1.00, 0.00, -0.00, -1.00, 58.6, 58.9)">s</text><text xml:space="preserve" font-family="Helvetica,Helvetica" font-size="22.0" fill="#E2E2E2" transform="matrix(1.00, 0.00, -0.00, -1.00, 69.6, 58.9)">i</text><text xml:space="preserve" font-family="Helvetica,Helvetica" font-size="22.0" fill="#E2E2E2" transform="matrix(1.00, 0.00, -0.00, -1.00, 74.5, 58.9)">m</text><text xml:space="preserve" font-family="Helvetica,Helvetica" font-size="22.0" fill="#E2E2E2" transform="matrix(1.00, 0.00, -0.00, -1.00, 92.8, 58.9)"> </text><text xml:space="preserve" font-family="Helvetica,Helvetica" font-size="22.0" fill="#E2E2E2" transform="matrix(1.00, 0.00, -0.00, -1.00, 98.9, 58.9)">q</text><text xml:space="preserve" font-family="Helvetica,Helvetica" font-size="22.0" fill="#E2E2E2" transform="matrix(1.00, 0.00, -0.00, -1.00, 111.2, 58.9)">u</text><text xml:space="preserve" font-family="Helvetica,Helvetica" font-size="22.0" fill="#E2E2E2" transform="matrix(1.00, 0.00, -0.00, -1.00, 123.4, 58.9)">i</text><text xml:space="preserve" font-family="Helvetica,Helvetica" font-size="22.0" fill="#E2E2E2" transform="matrix(1.00, 0.00, -0.00, -1.00, 128.3, 58.9)"> </text><text xml:space="preserve" font-family="Helvetica,Helvetica" font-size="22.0" fill="#E2E2E2" transform="matrix(1.00, 0.00, -0.00, -1.00, 134.4, 58.9)">b</text><text xml:space="preserve" font-family="Helvetica,Helvetica" font-size="22.0" fill="#E2E2E2" transform="matrix(1.00, 0.00, -0.00, -1.00, 146.6, 58.9)">l</text><text xml:space="preserve" font-family="Helvetica,Helvetica" font-size="22.0" fill="#E2E2E2" transform="matrix(1.00, 0.00, -0.00, -1.00, 151.5, 58.9)">a</text><text xml:space="preserve" font-family="Helvetica,Helvetica" font-size="22.0" fill="#E2E2E2" transform="matrix(1.00, 0.00, -0.00, -1.00, 163.8, 58.9)">n</text><text xml:space="preserve" font-family="Helvetica,Helvetica" font-size="22.0" fill="#E2E2E2" transform="matrix(1.00, 0.00, -0.00, -1.00, 176.0, 58.9)">d</text><text xml:space="preserve" font-family="Helvetica,Helvetica" font-size="22.0" fill="#E2E2E2" transform="matrix(1.00, 0.00, -0.00, -1.00, 188.2, 58.9)">i</text><text xml:space="preserve" font-family="Helvetica,Helvetica" font-size="22.0" fill="#E2E2E2" transform="matrix(1.00, 0.00, -0.00, -1.00, 193.1, 58.9)">t</text><text xml:space="preserve" font-family="Helvetica,Helvetica" font-size="22.0" fill="#E2E2E2" transform="matrix(1.00, 0.00, -0.00, -1.00, 199.2, 58.9)"> </text><text xml:space="preserve" font-family="Helvetica,Helvetica" font-size="22.0" fill="#E2E2E2" transform="matrix(1.00, 0.00, -0.00, -1.00, 205.4, 58.9)">p</text><text xml:space="preserve" font-family="Helvetica,Helvetica" font-size="22.0" fill="#E2E2E2" transform="matrix(1.00, 0.00, -0.00, -1.00, 217.6, 58.9)">r</text><text xml:space="preserve" font-family="Helvetica,Helvetica" font-size="22.0" fill="#E2E2E2" transform="matrix(1.00, 0.00, -0.00, -1.00, 224.9, 58.9)">a</text><text xml:space="preserve" font-family="Helvetica,Helvetica" font-size="22.0" fill="#E2E2E2" transform="matrix(1.00, 0.00, -0.00, -1.00, 237.2, 58.9)">e</text><text xml:space="preserve" font-family="Helvetica,Helvetica" font-size="22.0" fill="#E2E2E2" transform="matrix(1.00, 0.00, -0.00, -1.00, 249.4, 58.9)">s</text><text xml:space="preserve" font-family="Helvetica,Helvetica" font-size="22.0" fill="#E2E2E2" transform="matrix(1.00, 0.00, -0.00, -1.00, 260.4, 58.9)">e</text><text xml:space="preserve" font-family="Helvetica,Helvetica" font-size="22.0" fill="#E2E2E2" transform="matrix(1.00, 0.00, -0.00, -1.00, 272.6, 58.9)">n</text><text xml:space="preserve" font-family="Helvetica,Helvetica" font-size="22.0" fill="#E2E2E2" transform="matrix(1.00, 0.00, -0.00, -1.00, 284.9, 58.9)">t</text><text xml:space="preserve" font-family="Helvetica,Helvetica" font-size="22.0" fill="#E2E2E2" transform="matrix(1.00, 0.00, -0.00, -1.00, 291.0, 58.9)"> </text><text xml:space="preserve" font-family="Helvetica,Helvetica" font-size="22.0" fill="#E2E2E2" transform="matrix(1.00, 0.00, -0.00, -1.00, 297.1, 58.9)">l</text><text xml:space="preserve" font-family="Helvetica,Helvetica" font-size="22.0" fill="#E2E2E2" transform="matrix(1.00, 0.00, -0.00, -1.00, 302.0, 58.9)">u</text><text xml:space="preserve" font-family="Helvetica,Helvetica" font-size="22.0" fill="#E2E2E2" transform="matrix(1.00, 0.00, -0.00, -1.00, 314.2, 58.9)">p</text><text xml:space="preserve" font-family="Helvetica,Helvetica" font-size="22.0" fill="#E2E2E2" transform="matrix(1.00, 0.00, -0.00, -1.00, 326.5, 58.9)">t</text><text xml:space="preserve" font-family="Helvetica,Helvetica" font-size="22.0" fill="#E2E2E2" transform="matrix(1.00, 0.00, -0.00, -1.00, 332.6, 58.9)">a</text><text xml:space="preserve" font-family="Helvetica,Helvetica" font-size="22.0" fill="#E2E2E2" transform="matrix(1.00, 0.00, -0.00, -1.00, 344.8, 58.9)">t</text><text xml:space="preserve" font-family="Helvetica,Helvetica" font-size="22.0" fill="#E2E2E2" transform="matrix(1.00, 0.00, -0.00, -1.00, 350.9, 58.9)">u</text><text xml:space="preserve" font-family="Helvetica,Helvetica" font-size="22.0" fill="#E2E2E2" transform="matrix(1.00, 0.00, -0.00, -1.00, 363.2, 58.9)">m</text><text xml:space="preserve" font-family="Helvetica,Helvetica" font-size="22.0" fill="#E2E2E2" transform="matrix(1.00, 0.00, -0.00, -1.00, 381.5, 58.9)"> </text><text xml:space="preserve" font-family="Helvetica,Helvetica" font-size="22.0" fill="#E2E2E2" transform="matrix(1.00, 0.00, -0.00, -1.00, 387.6, 58.9)">z</text><text xml:space="preserve" font-family="Helvetica,Helvetica" font-size="22.0" fill="#E2E2E2" transform="matrix(1.00, 0.00, -0.00, -1.00, 398.6, 58.9)">z</text><text xml:space="preserve" font-family="Helvetica,Helvetica" font-size="22.0" fill="#E2E2E2" transform="matrix(1.00, 0.00, -0.00, -1.00, 409.6, 58.9)">r</text><text xml:space="preserve" font-family="Helvetica,Helvetica" font-size="22.0" fill="#E2E2E2" transform="matrix(1.00, 0.00, -0.00, -1.00, 416.9, 58.9)">i</text><text xml:space="preserve" font-family="Helvetica,Helvetica" font-size="22.0" fill="#E2E2E2" transform="matrix(1.00, 0.00, -0.00, -1.00, 421.8, 58.9)">l</text><text xml:space="preserve" font-family="Helvetica,Helvetica" font-size="22.0" fill="#E2E2E2" transform="matrix(1.00, 0.00, -0.00, -1.00, 426.7, 58.9)"> </text><text xml:space="preserve" font-family="Helvetica,Helvetica" font-size="22.0" fill="#E2E2E2" transform="matrix(1.00, 0.00, -0.00, -1.00, 31.6, 32.9)">d</text><text xml:space="preserve" font-family="Helvetica,Helvetica" font-size="22.0" fill="#E2E2E2" transform="matrix(1.00, 0.00, -0.00, -1.00, 43.8, 32.9)">e</text><text xml:space="preserve" font-family="Helvetica,Helvetica" font-size="22.0" fill="#E2E2E2" transform="matrix(1.00, 0.00, -0.00, -1.00, 56.0, 32.9)">l</text><text xml:space="preserve" font-family="Helvetica,Helvetica" font-size="22.0" fill="#E2E2E2" transform="matrix(1.00, 0.00, -0.00, -1.00, 60.9, 32.9)">e</text><text xml:space="preserve" font-family="Helvetica,Helvetica" font-size="22.0" fill="#E2E2E2" transform="matrix(1.00, 0.00, -0.00, -1.00, 73.2, 32.9)">n</text><text xml:space="preserve" font-family="Helvetica,Helvetica" font-size="22.0" fill="#E2E2E2" transform="matrix(1.00, 0.00, -0.00, -1.00, 85.4, 32.9)">i</text><text xml:space="preserve" font-family="Helvetica,Helvetica" font-size="22.0" fill="#E2E2E2" transform="matrix(1.00, 0.00, -0.00, -1.00, 90.3, 32.9)">t</text><text xml:space="preserve" font-family="Helvetica,Helvetica" font-size="22.0" fill="#E2E2E2" transform="matrix(1.00, 0.00, -0.00, -1.00, 96.4, 32.9)"> </text><text xml:space="preserve" font-family="Helvetica,Helvetica" font-size="22.0" fill="#E2E2E2" transform="matrix(1.00, 0.00, -0.00, -1.00, 102.5, 32.9)">a</text><text xml:space="preserve" font-family="Helvetica,Helvetica" font-size="22.0" fill="#E2E2E2" transform="matrix(1.00, 0.00, -0.00, -1.00, 114.8, 32.9)">u</text><text xml:space="preserve" font-family="Helvetica,Helvetica" font-size="22.0" fill="#E2E2E2" transform="matrix(1.00, 0.00, -0.00, -1.00, 127.0, 32.9)">g</text><text xml:space="preserve" font-family="Helvetica,Helvetica" font-size="22.0" fill="#E2E2E2" transform="matrix(1.00, 0.00, -0.00, -1.00, 139.2, 32.9)">u</text><text xml:space="preserve" font-family="Helvetica,Helvetica" font-size="22.0" fill="#E2E2E2" transform="matrix(1.00, 0.00, -0.00, -1.00, 151.5, 32.9)">e</text><text xml:space="preserve" font-family="Helvetica,Helvetica" font-size="22.0" fill="#E2E2E2" transform="matrix(1.00, 0.00, -0.00, -1.00, 163.7, 32.9)"> </text><text xml:space="preserve" font-family="Helvetica,Helvetica" font-size="22.0" fill="#E2E2E2" transform="matrix(1.00, 0.00, -0.00, -1.00, 169.8, 32.9)">d</text><text xml:space="preserve" font-family="Helvetica,Helvetica" font-size="22.0" fill="#E2E2E2" transform="matrix(1.00, 0.00, -0.00, -1.00, 182.1, 32.9)">u</text><text xml:space="preserve" font-family="Helvetica,Helvetica" font-size="22.0" fill="#E2E2E2" transform="matrix(1.00, 0.00, -0.00, -1.00, 194.3, 32.9)">i</text><text xml:space="preserve" font-family="Helvetica,Helvetica" font-size="22.0" fill="#E2E2E2" transform="matrix(1.00, 0.00, -0.00, -1.00, 199.2, 32.9)">s</text><text xml:space="preserve" font-family="Helvetica,Helvetica" font-size="22.0" fill="#E2E2E2" transform="matrix(1.00, 0.00, -0.00, -1.00, 210.2, 32.9)"> </text><text xml:space="preserve" font-family="Helvetica,Helvetica" font-size="22.0" fill="#E2E2E2" transform="matrix(1.00, 0.00, -0.00, -1.00, 216.3, 32.9)">d</text><text xml:space="preserve" font-family="Helvetica,Helvetica" font-size="22.0" fill="#E2E2E2" transform="matrix(1.00, 0.00, -0.00, -1.00, 228.5, 32.9)">o</text><text xml:space="preserve" font-family="Helvetica,Helvetica" font-size="22.0" fill="#E2E2E2" transform="matrix(1.00, 0.00, -0.00, -1.00, 240.8, 32.9)">l</text><text xml:space="preserve" font-family="Helvetica,Helvetica" font-size="22.0" fill="#E2E2E2" transform="matrix(1.00, 0.00, -0.00, -1.00, 245.7, 32.9)">o</text><text xml:space="preserve" font-family="Helvetica,Helvetica" font-size="22.0" fill="#E2E2E2" transform="matrix(1.00, 0.00, -0.00, -1.00, 257.9, 32.9)">r</text><text xml:space="preserve" font-family="Helvetica,Helvetica" font-size="22.0" fill="#E2E2E2" transform="matrix(1.00, 0.00, -0.00, -1.00, 265.2, 32.9)">e</text><text xml:space="preserve" font-family="Helvetica,Helvetica" font-size="22.0" fill="#E2E2E2" transform="matrix(1.00, 0.00, -0.00, -1.00, 277.5, 32.9)"> </text><text xml:space="preserve" font-family="Helvetica,Helvetica" font-size="22.0" fill="#E2E2E2" transform="matrix(1.00, 0.00, -0.00, -1.00, 283.6, 32.9)">t</text><text xml:space="preserve" font-family="Helvetica,Helvetica" font-size="22.0" fill="#E2E2E2" transform="matrix(1.00, 0.00, -0.00, -1.00, 289.7, 32.9)">e</text><text xml:space="preserve" font-family="Helvetica,Helvetica" font-size="22.0" fill="#E2E2E2" transform="matrix(1.00, 0.00, -0.00, -1.00, 301.9, 32.9)"> </text><text xml:space="preserve" font-family="Helvetica,Helvetica" font-size="22.0" fill="#E2E2E2" transform="matrix(1.00, 0.00, -0.00, -1.00, 308.0, 32.9)">f</text><text xml:space="preserve" font-family="Helvetica,Helvetica" font-size="22.0" fill="#E2E2E2" transform="matrix(1.00, 0.00, -0.00, -1.00, 314.1, 32.9)">e</text><text xml:space="preserve" font-family="Helvetica,Helvetica" font-size="22.0" fill="#E2E2E2" transform="matrix(1.00, 0.00, -0.00, -1.00, 326.4, 32.9)">u</text><text xml:space="preserve" font-family="Helvetica,Helvetica" font-size="22.0" fill="#E2E2E2" transform="matrix(1.00, 0.00, -0.00, -1.00, 338.6, 32.9)">g</text><text xml:space="preserve" font-family="Helvetica,Helvetica" font-size="22.0" fill="#E2E2E2" transform="matrix(1.00, 0.00, -0.00, -1.00, 350.9, 32.9)">a</text><text xml:space="preserve" font-family="Helvetica,Helvetica" font-size="22.0" fill="#E2E2E2" transform="matrix(1.00, 0.00, -0.00, -1.00, 363.1, 32.9)">i</text><text xml:space="preserve" font-family="Helvetica,Helvetica" font-size="22.0" fill="#E2E2E2" transform="matrix(1.00, 0.00, -0.00, -1.00, 368.0, 32.9)">t</text><text xml:space="preserve" font-family="Helvetica,Helvetica" font-size="22.0" fill="#E2E2E2" transform="matrix(1.00, 0.00, -0.00, -1.00, 374.1, 32.9)"> </text><text xml:space="preserve" font-family="Helvetica,Helvetica" font-size="22.0" fill="#E2E2E2" transform="matrix(1.00, 0.00, -0.00, -1.00, 380.2, 32.9)">n</text><text xml:space="preserve" font-family="Helvetica,Helvetica" font-size="22.0" fill="#E2E2E2" transform="matrix(1.00, 0.00, -0.00, -1.00, 392.5, 32.9)">u</text><text xml:space="preserve" font-family="Helvetica,Helvetica" font-size="22.0" fill="#E2E2E2" transform="matrix(1.00, 0.00, -0.00, -1.00, 404.7, 32.9)">l</text><text xml:space="preserve" font-family="Helvetica,Helvetica" font-size="22.0" fill="#E2E2E2" transform="matrix(1.00, 0.00, -0.00, -1.00, 409.6, 32.9)">l</text><text xml:space="preserve" font-family="Helvetica,Helvetica" font-size="22.0" fill="#E2E2E2" transform="matrix(1.00, 0.00, -0.00, -1.00, 414.5, 32.9)">a</text><text xml:space="preserve" font-family="Helvetica,Helvetica" font-size="22.0" fill="#E2E2E2" transform="matrix(1.00, 0.00, -0.00, -1.00, 426.7, 32.9)"> </text><text xml:space="preserve" font-family="Helvetica,Helvetica" font-size="22.0" fill="#E2E2E2" transform="matrix(1.00, 0.00, -0.00, -1.00, 114.9, 6.9)">f</text><text xml:space="preserve" font-family="Helvetica,Helvetica" font-size="22.0" fill="#E2E2E2" transform="matrix(1.00, 0.00, -0.00, -1.00, 121.0, 6.9)">a</text><text xml:space="preserve" font-family="Helvetica,Helvetica" font-size="22.0" fill="#E2E2E2" transform="matrix(1.00, 0.00, -0.00, -1.00, 133.2, 6.9)">c</text><text xml:space="preserve" font-family="Helvetica,Helvetica" font-size="22.0" fill="#E2E2E2" transform="matrix(1.00, 0.00, -0.00, -1.00, 144.2, 6.9)">i</text><text xml:space="preserve" font-family="Helvetica,Helvetica" font-size="22.0" fill="#E2E2E2" transform="matrix(1.00, 0.00, -0.00, -1.00, 149.1, 6.9)">l</text><text xml:space="preserve" font-family="Helvetica,Helvetica" font-size="22.0" fill="#E2E2E2" transform="matrix(1.00, 0.00, -0.00, -1.00, 154.0, 6.9)">i</text><text xml:space="preserve" font-family="Helvetica,Helvetica" font-size="22.0" fill="#E2E2E2" transform="matrix(1.00, 0.00, -0.00, -1.00, 158.9, 6.9)">s</text><text xml:space="preserve" font-family="Helvetica,Helvetica" font-size="22.0" fill="#E2E2E2" transform="matrix(1.00, 0.00, -0.00, -1.00, 169.9, 6.9)">i</text><text xml:space="preserve" font-family="Helvetica,Helvetica" font-size="22.0" fill="#E2E2E2" transform="matrix(1.00, 0.00, -0.00, -1.00, 174.8, 6.9)">.</text><text xml:space="preserve" font-family="Helvetica,Helvetica" font-size="22.0" fill="#E2E2E2" transform="matrix(1.00, 0.00, -0.00, -1.00, 180.9, 6.9)"> </text><text xml:space="preserve" font-family="Helvetica,Helvetica" font-size="22.0" fill="#E2E2E2" transform="matrix(1.00, 0.00, -0.00, -1.00, 187.0, 6.9)">N</text><text xml:space="preserve" font-family="Helvetica,Helvetica" font-size="22.0" fill="#E2E2E2" transform="matrix(1.00, 0.00, -0.00, -1.00, 202.9, 6.9)">a</text><text xml:space="preserve" font-family="Helvetica,Helvetica" font-size="22.0" fill="#E2E2E2" transform="matrix(1.00, 0.00, -0.00, -1.00, 215.1, 6.9)">m</text><text xml:space="preserve" font-family="Helvetica,Helvetica" font-size="22.0" fill="#E2E2E2" transform="matrix(1.00, 0.00, -0.00, -1.00, 233.5, 6.9)"> </text><text xml:space="preserve" font-family="Helvetica,Helvetica" font-size="22.0" fill="#E2E2E2" transform="matrix(1.00, 0.00, -0.00, -1.00, 239.6, 6.9)">l</text><text xml:space="preserve" font-family="Helvetica,Helvetica" font-size="22.0" fill="#E2E2E2" transform="matrix(1.00, 0.00, -0.00, -1.00, 244.5, 6.9)">i</text><text xml:space="preserve" font-family="Helvetica,Helvetica" font-size="22.0" fill="#E2E2E2" transform="matrix(1.00, 0.00, -0.00, -1.00, 249.4, 6.9)">b</text><text xml:space="preserve" font-family="Helvetica,Helvetica" font-size="22.0" fill="#E2E2E2" transform="matrix(1.00, 0.00, -0.00, -1.00, 261.6, 6.9)">e</text><text xml:space="preserve" font-family="Helvetica,Helvetica" font-size="22.0" fill="#E2E2E2" transform="matrix(1.00, 0.00, -0.00, -1.00, 273.8, 6.9)">r</text><text xml:space="preserve" font-family="Helvetica,Helvetica" font-size="22.0" fill="#E2E2E2" transform="matrix(1.00, 0.00, -0.00, -1.00, 281.2, 6.9)"> </text><text xml:space="preserve" font-family="Helvetica,Helvetica" font-size="22.0" fill="#E2E2E2" transform="matrix(1.00, 0.00, -0.00, -1.00, 287.3, 6.9)">t</text><text xml:space="preserve" font-family="Helvetica,Helvetica" font-size="22.0" fill="#E2E2E2" transform="matrix(1.00, 0.00, -0.00, -1.00, 293.4, 6.9)">e</text><text xml:space="preserve" font-family="Helvetica,Helvetica" font-size="22.0" fill="#E2E2E2" transform="matrix(1.00, 0.00, -0.00, -1.00, 305.6, 6.9)">m</text><text xml:space="preserve" font-family="Helvetica,Helvetica" font-size="22.0" fill="#E2E2E2" transform="matrix(1.00, 0.00, -0.00, -1.00, 324.0, 6.9)">p</text><text xml:space="preserve" font-family="Helvetica,Helvetica" font-size="22.0" fill="#E2E2E2" transform="matrix(1.00, 0.00, -0.00, -1.00, 336.2, 6.9)">o</text><text xml:space="preserve" font-family="Helvetica,Helvetica" font-size="22.0" fill="#E2E2E2" transform="matrix(1.00, 0.00, -0.00, -1.00, 348.4, 6.9)">r</text><text xml:space="preserve" font-family="Helvetica,Helvetica" font-size="22.0" fill="#E2E2E2" transform="matrix(1.00, 0.00, -0.00, -1.00, 355.8, 6.9)"> </text><text xml:space="preserve" font-family="Helvetica,Helvetica" font-size="22.0" fill="#E2E2E2" transform="matrix(1.00, 0.00, -0.00, -1.00, 361.9, 6.9)">c</text><text xml:space="preserve" font-family="Helvetica,Helvetica" font-size="22.0" fill="#E2E2E2" transform="matrix(1.00, 0.00, -0.00, -1.00, 372.9, 6.9)">u</text><text xml:space="preserve" font-family="Helvetica,Helvetica" font-size="22.0" fill="#E2E2E2" transform="matrix(1.00, 0.00, -0.00, -1.00, 385.1, 6.9)">m</text><text xml:space="preserve" font-family="Helvetica,Helvetica" font-size="22.0" fill="#E2E2E2" transform="matrix(1.00, 0.00, -0.00, -1.00, 403.4, 6.9)">a</text><text xml:space="preserve" font-family="Helvetica,Helvetica" font-size="22.0" fill="#E2E2E2" transform="matrix(1.00, 0.00, -0.00, -1.00, 415.7, 6.9)">s</text></g></svg>