<?xml version="1.0" encoding="UTF-8" standalone="no"?><svg xmlns="http://www.w3.org/2000/svg" xmlns:xlink="http://www.w3.org/1999/xlink" clip-rule="evenodd" stroke-miterlimit="10" viewBox="0 0 250 171"><desc>SVG generated by Keynote</desc><defs></defs><g transform="matrix(1.00, 0.00, -0.00, -1.00, 0.0, 171.0)"><g><clipPath id="clip0x600008abfbc0"><path d="M 1.0 0.5 L 249.9 0.5 L 249.9 170.7 L 1.0 170.7 Z M 1.0 0.5 "></path></clipPath><g clip-path="url(#clip0x600008abfbc0)"><g opacity="0.87"><g><clipPath id="clip0x600008ca0240"><path d="M 1.0 1.0 L 249.0 1.0 L 249.0 170.0 L 1.0 170.0 Z M 1.0 1.0 "></path></clipPath><g clip-path="url(#clip0x600008ca0240)"><path d="M 19.1 168.0 C 16.1 167.7 14.0 165.3 14.0 162.4 L 14.0 97.6 L 4.7 87.7 L 14.0 77.8 L 14.0 8.9 C 14.0 5.9 16.1 4.0 19.1 4.0 L 241.6 4.0 C 244.5 4.0 247.0 5.9 247.0 8.9 L 247.0 162.4 C 247.0 165.3 244.5 168.0 241.6 168.0 L 19.1 168.0 Z M 19.1 167.7 " fill="#677188"></path><path d="M 5.3 -0.3 C 2.4 0.0 0.2 2.4 0.2 5.3 L 0.2 70.2 L -9.1 80.0 L 0.2 89.9 L 0.2 158.8 C 0.2 161.8 2.4 163.7 5.3 163.7 L 227.8 163.7 C 230.8 163.7 233.2 161.8 233.2 158.8 L 233.2 5.3 C 233.2 2.4 230.8 -0.3 227.8 -0.3 L 5.3 -0.3 Z M 5.3 0.0 " fill="none" stroke="#54C6E1" stroke-width="4.00" transform="matrix(1.00, 0.00, 0.00, -1.00, 13.8, 167.7)"></path></g></g></g></g></g><g><clipPath id="clip0x600008ca0540"><path d="M 30.4 107.2 L 240.4 107.2 L 240.4 152.2 L 30.4 152.2 Z M 30.4 107.2 "></path></clipPath><g clip-path="url(#clip0x600008ca0540)"><text xml:space="preserve" font-family="Helvetica,Helvetica" font-size="20.0" fill="#54C6E1" transform="matrix(1.00, 0.00, -0.00, -1.00, 65.4, 121.8)">L</text><text xml:space="preserve" font-family="Helvetica,Helvetica" font-size="20.0" fill="#54C6E1" transform="matrix(1.00, 0.00, -0.00, -1.00, 76.5, 121.8)">O</text><text xml:space="preserve" font-family="Helvetica,Helvetica" font-size="20.0" fill="#54C6E1" transform="matrix(1.00, 0.00, -0.00, -1.00, 92.1, 121.8)">R</text><text xml:space="preserve" font-family="Helvetica,Helvetica" font-size="20.0" fill="#54C6E1" transform="matrix(1.00, 0.00, -0.00, -1.00, 106.5, 121.8)">E</text><text xml:space="preserve" font-family="Helvetica,Helvetica" font-size="20.0" fill="#54C6E1" transform="matrix(1.00, 0.00, -0.00, -1.00, 119.8, 121.8)">M</text><text xml:space="preserve" font-family="Helvetica,Helvetica" font-size="20.0" fill="#54C6E1" transform="matrix(1.00, 0.00, -0.00, -1.00, 136.5, 121.8)"> </text><text xml:space="preserve" font-family="Helvetica,Helvetica" font-size="20.0" fill="#54C6E1" transform="matrix(1.00, 0.00, -0.00, -1.00, 142.1, 121.8)">I</text><text xml:space="preserve" font-family="Helvetica,Helvetica" font-size="20.0" fill="#54C6E1" transform="matrix(1.00, 0.00, -0.00, -1.00, 147.6, 121.8)">P</text><text xml:space="preserve" font-family="Helvetica,Helvetica" font-size="20.0" fill="#54C6E1" transform="matrix(1.00, 0.00, -0.00, -1.00, 161.0, 121.8)">S</text><text xml:space="preserve" font-family="Helvetica,Helvetica" font-size="20.0" fill="#54C6E1" transform="matrix(1.00, 0.00, -0.00, -1.00, 174.3, 121.8)">U</text><text xml:space="preserve" font-family="Helvetica,Helvetica" font-size="20.0" fill="#54C6E1" transform="matrix(1.00, 0.00, -0.00, -1.00, 188.7, 121.8)">M</text></g></g><g><clipPath id="clip0x600008ca0b40"><path d="M 35.9 21.0 L 234.9 21.0 L 234.9 108.5 L 35.9 108.5 Z M 35.9 21.0 "></path></clipPath><g clip-path="url(#clip0x600008ca0b40)"><text xml:space="preserve" font-family="Helvetica,Helvetica" font-size="16.0" fill="#E2E2E2" transform="matrix(1.00, 0.00, -0.00, -1.00, 58.9, 87.2)">L</text><text xml:space="preserve" font-family="Helvetica,Helvetica" font-size="16.0" fill="#E2E2E2" transform="matrix(1.00, 0.00, -0.00, -1.00, 67.8, 87.2)">o</text><text xml:space="preserve" font-family="Helvetica,Helvetica" font-size="16.0" fill="#E2E2E2" transform="matrix(1.00, 0.00, -0.00, -1.00, 76.7, 87.2)">r</text><text xml:space="preserve" font-family="Helvetica,Helvetica" font-size="16.0" fill="#E2E2E2" transform="matrix(1.00, 0.00, -0.00, -1.00, 82.1, 87.2)">e</text><text xml:space="preserve" font-family="Helvetica,Helvetica" font-size="16.0" fill="#E2E2E2" transform="matrix(1.00, 0.00, -0.00, -1.00, 91.0, 87.2)">m</text><text xml:space="preserve" font-family="Helvetica,Helvetica" font-size="16.0" fill="#E2E2E2" transform="matrix(1.00, 0.00, -0.00, -1.00, 104.3, 87.2)"> </text><text xml:space="preserve" font-family="Helvetica,Helvetica" font-size="16.0" fill="#E2E2E2" transform="matrix(1.00, 0.00, -0.00, -1.00, 108.7, 87.2)">i</text><text xml:space="preserve" font-family="Helvetica,Helvetica" font-size="16.0" fill="#E2E2E2" transform="matrix(1.00, 0.00, -0.00, -1.00, 112.3, 87.2)">p</text><text xml:space="preserve" font-family="Helvetica,Helvetica" font-size="16.0" fill="#E2E2E2" transform="matrix(1.00, 0.00, -0.00, -1.00, 121.2, 87.2)">s</text><text xml:space="preserve" font-family="Helvetica,Helvetica" font-size="16.0" fill="#E2E2E2" transform="matrix(1.00, 0.00, -0.00, -1.00, 129.2, 87.2)">u</text><text xml:space="preserve" font-family="Helvetica,Helvetica" font-size="16.0" fill="#E2E2E2" transform="matrix(1.00, 0.00, -0.00, -1.00, 138.1, 87.2)">m</text><text xml:space="preserve" font-family="Helvetica,Helvetica" font-size="16.0" fill="#E2E2E2" transform="matrix(1.00, 0.00, -0.00, -1.00, 151.4, 87.2)"> </text><text xml:space="preserve" font-family="Helvetica,Helvetica" font-size="16.0" fill="#E2E2E2" transform="matrix(1.00, 0.00, -0.00, -1.00, 155.9, 87.2)">d</text><text xml:space="preserve" font-family="Helvetica,Helvetica" font-size="16.0" fill="#E2E2E2" transform="matrix(1.00, 0.00, -0.00, -1.00, 164.8, 87.2)">o</text><text xml:space="preserve" font-family="Helvetica,Helvetica" font-size="16.0" fill="#E2E2E2" transform="matrix(1.00, 0.00, -0.00, -1.00, 173.7, 87.2)">l</text><text xml:space="preserve" font-family="Helvetica,Helvetica" font-size="16.0" fill="#E2E2E2" transform="matrix(1.00, 0.00, -0.00, -1.00, 177.2, 87.2)">o</text><text xml:space="preserve" font-family="Helvetica,Helvetica" font-size="16.0" fill="#E2E2E2" transform="matrix(1.00, 0.00, -0.00, -1.00, 186.1, 87.2)">r</text><text xml:space="preserve" font-family="Helvetica,Helvetica" font-size="16.0" fill="#E2E2E2" transform="matrix(1.00, 0.00, -0.00, -1.00, 191.4, 87.2)"> </text><text xml:space="preserve" font-family="Helvetica,Helvetica" font-size="16.0" fill="#E2E2E2" transform="matrix(1.00, 0.00, -0.00, -1.00, 195.9, 87.2)">s</text><text xml:space="preserve" font-family="Helvetica,Helvetica" font-size="16.0" fill="#E2E2E2" transform="matrix(1.00, 0.00, -0.00, -1.00, 203.9, 87.2)">i</text><text xml:space="preserve" font-family="Helvetica,Helvetica" font-size="16.0" fill="#E2E2E2" transform="matrix(1.00, 0.00, -0.00, -1.00, 207.4, 87.2)">t</text><text xml:space="preserve" font-family="Helvetica,Helvetica" font-size="16.0" fill="#E2E2E2" transform="matrix(1.00, 0.00, -0.00, -1.00, 211.9, 87.2)"> </text><text xml:space="preserve" font-family="Helvetica,Helvetica" font-size="16.0" fill="#E2E2E2" transform="matrix(1.00, 0.00, -0.00, -1.00, 67.4, 68.2)">a</text><text xml:space="preserve" font-family="Helvetica,Helvetica" font-size="16.0" fill="#E2E2E2" transform="matrix(1.00, 0.00, -0.00, -1.00, 76.3, 68.2)">m</text><text xml:space="preserve" font-family="Helvetica,Helvetica" font-size="16.0" fill="#E2E2E2" transform="matrix(1.00, 0.00, -0.00, -1.00, 89.6, 68.2)">e</text><text xml:space="preserve" font-family="Helvetica,Helvetica" font-size="16.0" fill="#E2E2E2" transform="matrix(1.00, 0.00, -0.00, -1.00, 98.5, 68.2)">t</text><text xml:space="preserve" font-family="Helvetica,Helvetica" font-size="16.0" fill="#E2E2E2" transform="matrix(1.00, 0.00, -0.00, -1.00, 102.9, 68.2)">,</text><text xml:space="preserve" font-family="Helvetica,Helvetica" font-size="16.0" fill="#E2E2E2" transform="matrix(1.00, 0.00, -0.00, -1.00, 107.4, 68.2)"> </text><text xml:space="preserve" font-family="Helvetica,Helvetica" font-size="16.0" fill="#E2E2E2" transform="matrix(1.00, 0.00, -0.00, -1.00, 111.8, 68.2)">c</text><text xml:space="preserve" font-family="Helvetica,Helvetica" font-size="16.0" fill="#E2E2E2" transform="matrix(1.00, 0.00, -0.00, -1.00, 119.8, 68.2)">o</text><text xml:space="preserve" font-family="Helvetica,Helvetica" font-size="16.0" fill="#E2E2E2" transform="matrix(1.00, 0.00, -0.00, -1.00, 128.7, 68.2)">n</text><text xml:space="preserve" font-family="Helvetica,Helvetica" font-size="16.0" fill="#E2E2E2" transform="matrix(1.00, 0.00, -0.00, -1.00, 137.6, 68.2)">s</text><text xml:space="preserve" font-family="Helvetica,Helvetica" font-size="16.0" fill="#E2E2E2" transform="matrix(1.00, 0.00, -0.00, -1.00, 145.6, 68.2)">e</text><text xml:space="preserve" font-family="Helvetica,Helvetica" font-size="16.0" fill="#E2E2E2" transform="matrix(1.00, 0.00, -0.00, -1.00, 154.5, 68.2)">c</text><text xml:space="preserve" font-family="Helvetica,Helvetica" font-size="16.0" fill="#E2E2E2" transform="matrix(1.00, 0.00, -0.00, -1.00, 162.5, 68.2)">t</text><text xml:space="preserve" font-family="Helvetica,Helvetica" font-size="16.0" fill="#E2E2E2" transform="matrix(1.00, 0.00, -0.00, -1.00, 167.0, 68.2)">e</text><text xml:space="preserve" font-family="Helvetica,Helvetica" font-size="16.0" fill="#E2E2E2" transform="matrix(1.00, 0.00, -0.00, -1.00, 175.9, 68.2)">t</text><text xml:space="preserve" font-family="Helvetica,Helvetica" font-size="16.0" fill="#E2E2E2" transform="matrix(1.00, 0.00, -0.00, -1.00, 180.3, 68.2)">u</text><text xml:space="preserve" font-family="Helvetica,Helvetica" font-size="16.0" fill="#E2E2E2" transform="matrix(1.00, 0.00, -0.00, -1.00, 189.2, 68.2)">e</text><text xml:space="preserve" font-family="Helvetica,Helvetica" font-size="16.0" fill="#E2E2E2" transform="matrix(1.00, 0.00, -0.00, -1.00, 198.1, 68.2)">r</text><text xml:space="preserve" font-family="Helvetica,Helvetica" font-size="16.0" fill="#E2E2E2" transform="matrix(1.00, 0.00, -0.00, -1.00, 203.4, 68.2)"> </text><text xml:space="preserve" font-family="Helvetica,Helvetica" font-size="16.0" fill="#E2E2E2" transform="matrix(1.00, 0.00, -0.00, -1.00, 50.5, 49.2)">a</text><text xml:space="preserve" font-family="Helvetica,Helvetica" font-size="16.0" fill="#E2E2E2" transform="matrix(1.00, 0.00, -0.00, -1.00, 59.4, 49.2)">d</text><text xml:space="preserve" font-family="Helvetica,Helvetica" font-size="16.0" fill="#E2E2E2" transform="matrix(1.00, 0.00, -0.00, -1.00, 68.3, 49.2)">i</text><text xml:space="preserve" font-family="Helvetica,Helvetica" font-size="16.0" fill="#E2E2E2" transform="matrix(1.00, 0.00, -0.00, -1.00, 71.8, 49.2)">p</text><text xml:space="preserve" font-family="Helvetica,Helvetica" font-size="16.0" fill="#E2E2E2" transform="matrix(1.00, 0.00, -0.00, -1.00, 80.7, 49.2)">i</text><text xml:space="preserve" font-family="Helvetica,Helvetica" font-size="16.0" fill="#E2E2E2" transform="matrix(1.00, 0.00, -0.00, -1.00, 84.3, 49.2)">s</text><text xml:space="preserve" font-family="Helvetica,Helvetica" font-size="16.0" fill="#E2E2E2" transform="matrix(1.00, 0.00, -0.00, -1.00, 92.3, 49.2)">c</text><text xml:space="preserve" font-family="Helvetica,Helvetica" font-size="16.0" fill="#E2E2E2" transform="matrix(1.00, 0.00, -0.00, -1.00, 100.3, 49.2)">i</text><text xml:space="preserve" font-family="Helvetica,Helvetica" font-size="16.0" fill="#E2E2E2" transform="matrix(1.00, 0.00, -0.00, -1.00, 103.8, 49.2)">n</text><text xml:space="preserve" font-family="Helvetica,Helvetica" font-size="16.0" fill="#E2E2E2" transform="matrix(1.00, 0.00, -0.00, -1.00, 112.7, 49.2)">g</text><text xml:space="preserve" font-family="Helvetica,Helvetica" font-size="16.0" fill="#E2E2E2" transform="matrix(1.00, 0.00, -0.00, -1.00, 121.6, 49.2)"> </text><text xml:space="preserve" font-family="Helvetica,Helvetica" font-size="16.0" fill="#E2E2E2" transform="matrix(1.00, 0.00, -0.00, -1.00, 126.1, 49.2)">e</text><text xml:space="preserve" font-family="Helvetica,Helvetica" font-size="16.0" fill="#E2E2E2" transform="matrix(1.00, 0.00, -0.00, -1.00, 135.0, 49.2)">l</text><text xml:space="preserve" font-family="Helvetica,Helvetica" font-size="16.0" fill="#E2E2E2" transform="matrix(1.00, 0.00, -0.00, -1.00, 138.5, 49.2)">i</text><text xml:space="preserve" font-family="Helvetica,Helvetica" font-size="16.0" fill="#E2E2E2" transform="matrix(1.00, 0.00, -0.00, -1.00, 142.1, 49.2)">t</text><text xml:space="preserve" font-family="Helvetica,Helvetica" font-size="16.0" fill="#E2E2E2" transform="matrix(1.00, 0.00, -0.00, -1.00, 146.5, 49.2)">,</text><text xml:space="preserve" font-family="Helvetica,Helvetica" font-size="16.0" fill="#E2E2E2" transform="matrix(1.00, 0.00, -0.00, -1.00, 151.0, 49.2)"> </text><text xml:space="preserve" font-family="Helvetica,Helvetica" font-size="16.0" fill="#E2E2E2" transform="matrix(1.00, 0.00, -0.00, -1.00, 155.4, 49.2)">s</text><text xml:space="preserve" font-family="Helvetica,Helvetica" font-size="16.0" fill="#E2E2E2" transform="matrix(1.00, 0.00, -0.00, -1.00, 163.4, 49.2)">e</text><text xml:space="preserve" font-family="Helvetica,Helvetica" font-size="16.0" fill="#E2E2E2" transform="matrix(1.00, 0.00, -0.00, -1.00, 172.3, 49.2)">d</text><text xml:space="preserve" font-family="Helvetica,Helvetica" font-size="16.0" fill="#E2E2E2" transform="matrix(1.00, 0.00, -0.00, -1.00, 181.2, 49.2)"> </text><text xml:space="preserve" font-family="Helvetica,Helvetica" font-size="16.0" fill="#E2E2E2" transform="matrix(1.00, 0.00, -0.00, -1.00, 185.7, 49.2)">d</text><text xml:space="preserve" font-family="Helvetica,Helvetica" font-size="16.0" fill="#E2E2E2" transform="matrix(1.00, 0.00, -0.00, -1.00, 194.6, 49.2)">i</text><text xml:space="preserve" font-family="Helvetica,Helvetica" font-size="16.0" fill="#E2E2E2" transform="matrix(1.00, 0.00, -0.00, -1.00, 198.1, 49.2)">a</text><text xml:space="preserve" font-family="Helvetica,Helvetica" font-size="16.0" fill="#E2E2E2" transform="matrix(1.00, 0.00, -0.00, -1.00, 207.0, 49.2)">m</text><text xml:space="preserve" font-family="Helvetica,Helvetica" font-size="16.0" fill="#E2E2E2" transform="matrix(1.00, 0.00, -0.00, -1.00, 220.4, 49.2)"> </text><text xml:space="preserve" font-family="Helvetica,Helvetica" font-size="16.0" fill="#E2E2E2" transform="matrix(1.00, 0.00, -0.00, -1.00, 52.7, 30.2)">n</text><text xml:space="preserve" font-family="Helvetica,Helvetica" font-size="16.0" fill="#E2E2E2" transform="matrix(1.00, 0.00, -0.00, -1.00, 61.6, 30.2)">o</text><text xml:space="preserve" font-family="Helvetica,Helvetica" font-size="16.0" fill="#E2E2E2" transform="matrix(1.00, 0.00, -0.00, -1.00, 70.5, 30.2)">n</text><text xml:space="preserve" font-family="Helvetica,Helvetica" font-size="16.0" fill="#E2E2E2" transform="matrix(1.00, 0.00, -0.00, -1.00, 79.4, 30.2)">u</text><text xml:space="preserve" font-family="Helvetica,Helvetica" font-size="16.0" fill="#E2E2E2" transform="matrix(1.00, 0.00, -0.00, -1.00, 88.3, 30.2)">m</text><text xml:space="preserve" font-family="Helvetica,Helvetica" font-size="16.0" fill="#E2E2E2" transform="matrix(1.00, 0.00, -0.00, -1.00, 101.6, 30.2)">m</text><text xml:space="preserve" font-family="Helvetica,Helvetica" font-size="16.0" fill="#E2E2E2" transform="matrix(1.00, 0.00, -0.00, -1.00, 114.9, 30.2)">y</text><text xml:space="preserve" font-family="Helvetica,Helvetica" font-size="16.0" fill="#E2E2E2" transform="matrix(1.00, 0.00, -0.00, -1.00, 122.9, 30.2)"> </text><text xml:space="preserve" font-family="Helvetica,Helvetica" font-size="16.0" fill="#E2E2E2" transform="matrix(1.00, 0.00, -0.00, -1.00, 127.4, 30.2)">n</text><text xml:space="preserve" font-family="Helvetica,Helvetica" font-size="16.0" fill="#E2E2E2" transform="matrix(1.00, 0.00, -0.00, -1.00, 136.3, 30.2)">i</text><text xml:space="preserve" font-family="Helvetica,Helvetica" font-size="16.0" fill="#E2E2E2" transform="matrix(1.00, 0.00, -0.00, -1.00, 139.8, 30.2)">b</text><text xml:space="preserve" font-family="Helvetica,Helvetica" font-size="16.0" fill="#E2E2E2" transform="matrix(1.00, 0.00, -0.00, -1.00, 148.7, 30.2)">h</text><text xml:space="preserve" font-family="Helvetica,Helvetica" font-size="16.0" fill="#E2E2E2" transform="matrix(1.00, 0.00, -0.00, -1.00, 157.6, 30.2)"> </text><text xml:space="preserve" font-family="Helvetica,Helvetica" font-size="16.0" fill="#E2E2E2" transform="matrix(1.00, 0.00, -0.00, -1.00, 162.1, 30.2)">a</text><text xml:space="preserve" font-family="Helvetica,Helvetica" font-size="16.0" fill="#E2E2E2" transform="matrix(1.00, 0.00, -0.00, -1.00, 171.0, 30.2)">l</text><text xml:space="preserve" font-family="Helvetica,Helvetica" font-size="16.0" fill="#E2E2E2" transform="matrix(1.00, 0.00, -0.00, -1.00, 174.6, 30.2)">i</text><text xml:space="preserve" font-family="Helvetica,Helvetica" font-size="16.0" fill="#E2E2E2" transform="matrix(1.00, 0.00, -0.00, -1.00, 178.1, 30.2)">q</text><text xml:space="preserve" font-family="Helvetica,Helvetica" font-size="16.0" fill="#E2E2E2" transform="matrix(1.00, 0.00, -0.00, -1.00, 187.0, 30.2)">u</text><text xml:space="preserve" font-family="Helvetica,Helvetica" font-size="16.0" fill="#E2E2E2" transform="matrix(1.00, 0.00, -0.00, -1.00, 195.9, 30.2)">a</text><text xml:space="preserve" font-family="Helvetica,Helvetica" font-size="16.0" fill="#E2E2E2" transform="matrix(1.00, 0.00, -0.00, -1.00, 204.8, 30.2)">m</text></g></g></g></svg>