<?xml version="1.0" encoding="UTF-8" standalone="no"?><svg xmlns="http://www.w3.org/2000/svg" xmlns:xlink="http://www.w3.org/1999/xlink" clip-rule="evenodd" stroke-miterlimit="10" viewBox="0 0 568 97"><desc>SVG generated by Keynote</desc><defs></defs><g transform="matrix(1.00, 0.00, -0.00, -1.00, 0.0, 97.0)"><g><clipPath id="clip0x618007cae6a0"><path d="M 499.2 -3.4 L 580.2 -3.4 L 580.2 101.6 L 499.2 101.6 Z M 499.2 -3.4 "></path></clipPath><g clip-path="url(#clip0x618007cae6a0)"></g></g><g><clipPath id="clip0x618007caeb80"><path d="M 1.7 1.7 L 494.0 1.7 L 494.0 66.7 L 1.7 66.7 Z M 1.7 1.7 "></path></clipPath><g clip-path="url(#clip0x618007caeb80)"><text xml:space="preserve" font-family="Helvetica,Helvetica" font-size="16.0" fill="#E2E2E2" transform="matrix(1.00, 0.00, -0.00, -1.00, 22.2, 47.4)">L</text><text xml:space="preserve" font-family="Helvetica,Helvetica" font-size="16.0" fill="#E2E2E2" transform="matrix(1.00, 0.00, -0.00, -1.00, 31.1, 47.4)">o</text><text xml:space="preserve" font-family="Helvetica,Helvetica" font-size="16.0" fill="#E2E2E2" transform="matrix(1.00, 0.00, -0.00, -1.00, 40.0, 47.4)">r</text><text xml:space="preserve" font-family="Helvetica,Helvetica" font-size="16.0" fill="#E2E2E2" transform="matrix(1.00, 0.00, -0.00, -1.00, 45.4, 47.4)">e</text><text xml:space="preserve" font-family="Helvetica,Helvetica" font-size="16.0" fill="#E2E2E2" transform="matrix(1.00, 0.00, -0.00, -1.00, 54.3, 47.4)">m</text><text xml:space="preserve" font-family="Helvetica,Helvetica" font-size="16.0" fill="#E2E2E2" transform="matrix(1.00, 0.00, -0.00, -1.00, 67.6, 47.4)"> </text><text xml:space="preserve" font-family="Helvetica,Helvetica" font-size="16.0" fill="#E2E2E2" transform="matrix(1.00, 0.00, -0.00, -1.00, 72.0, 47.4)">i</text><text xml:space="preserve" font-family="Helvetica,Helvetica" font-size="16.0" fill="#E2E2E2" transform="matrix(1.00, 0.00, -0.00, -1.00, 75.6, 47.4)">p</text><text xml:space="preserve" font-family="Helvetica,Helvetica" font-size="16.0" fill="#E2E2E2" transform="matrix(1.00, 0.00, -0.00, -1.00, 84.5, 47.4)">s</text><text xml:space="preserve" font-family="Helvetica,Helvetica" font-size="16.0" fill="#E2E2E2" transform="matrix(1.00, 0.00, -0.00, -1.00, 92.5, 47.4)">u</text><text xml:space="preserve" font-family="Helvetica,Helvetica" font-size="16.0" fill="#E2E2E2" transform="matrix(1.00, 0.00, -0.00, -1.00, 101.4, 47.4)">m</text><text xml:space="preserve" font-family="Helvetica,Helvetica" font-size="16.0" fill="#E2E2E2" transform="matrix(1.00, 0.00, -0.00, -1.00, 114.7, 47.4)"> </text><text xml:space="preserve" font-family="Helvetica,Helvetica" font-size="16.0" fill="#E2E2E2" transform="matrix(1.00, 0.00, -0.00, -1.00, 119.2, 47.4)">d</text><text xml:space="preserve" font-family="Helvetica,Helvetica" font-size="16.0" fill="#E2E2E2" transform="matrix(1.00, 0.00, -0.00, -1.00, 128.1, 47.4)">o</text><text xml:space="preserve" font-family="Helvetica,Helvetica" font-size="16.0" fill="#E2E2E2" transform="matrix(1.00, 0.00, -0.00, -1.00, 137.0, 47.4)">l</text><text xml:space="preserve" font-family="Helvetica,Helvetica" font-size="16.0" fill="#E2E2E2" transform="matrix(1.00, 0.00, -0.00, -1.00, 140.5, 47.4)">o</text><text xml:space="preserve" font-family="Helvetica,Helvetica" font-size="16.0" fill="#E2E2E2" transform="matrix(1.00, 0.00, -0.00, -1.00, 149.4, 47.4)">r</text><text xml:space="preserve" font-family="Helvetica,Helvetica" font-size="16.0" fill="#E2E2E2" transform="matrix(1.00, 0.00, -0.00, -1.00, 154.7, 47.4)"> </text><text xml:space="preserve" font-family="Helvetica,Helvetica" font-size="16.0" fill="#E2E2E2" transform="matrix(1.00, 0.00, -0.00, -1.00, 159.2, 47.4)">s</text><text xml:space="preserve" font-family="Helvetica,Helvetica" font-size="16.0" fill="#E2E2E2" transform="matrix(1.00, 0.00, -0.00, -1.00, 167.2, 47.4)">i</text><text xml:space="preserve" font-family="Helvetica,Helvetica" font-size="16.0" fill="#E2E2E2" transform="matrix(1.00, 0.00, -0.00, -1.00, 170.7, 47.4)">t</text><text xml:space="preserve" font-family="Helvetica,Helvetica" font-size="16.0" fill="#E2E2E2" transform="matrix(1.00, 0.00, -0.00, -1.00, 175.2, 47.4)"> </text><text xml:space="preserve" font-family="Helvetica,Helvetica" font-size="16.0" fill="#E2E2E2" transform="matrix(1.00, 0.00, -0.00, -1.00, 179.6, 47.4)">a</text><text xml:space="preserve" font-family="Helvetica,Helvetica" font-size="16.0" fill="#E2E2E2" transform="matrix(1.00, 0.00, -0.00, -1.00, 188.5, 47.4)">m</text><text xml:space="preserve" font-family="Helvetica,Helvetica" font-size="16.0" fill="#E2E2E2" transform="matrix(1.00, 0.00, -0.00, -1.00, 201.9, 47.4)">e</text><text xml:space="preserve" font-family="Helvetica,Helvetica" font-size="16.0" fill="#E2E2E2" transform="matrix(1.00, 0.00, -0.00, -1.00, 210.8, 47.4)">t</text><text xml:space="preserve" font-family="Helvetica,Helvetica" font-size="16.0" fill="#E2E2E2" transform="matrix(1.00, 0.00, -0.00, -1.00, 215.2, 47.4)">,</text><text xml:space="preserve" font-family="Helvetica,Helvetica" font-size="16.0" fill="#E2E2E2" transform="matrix(1.00, 0.00, -0.00, -1.00, 219.6, 47.4)"> </text><text xml:space="preserve" font-family="Helvetica,Helvetica" font-size="16.0" fill="#E2E2E2" transform="matrix(1.00, 0.00, -0.00, -1.00, 224.1, 47.4)">c</text><text xml:space="preserve" font-family="Helvetica,Helvetica" font-size="16.0" fill="#E2E2E2" transform="matrix(1.00, 0.00, -0.00, -1.00, 232.1, 47.4)">o</text><text xml:space="preserve" font-family="Helvetica,Helvetica" font-size="16.0" fill="#E2E2E2" transform="matrix(1.00, 0.00, -0.00, -1.00, 241.0, 47.4)">n</text><text xml:space="preserve" font-family="Helvetica,Helvetica" font-size="16.0" fill="#E2E2E2" transform="matrix(1.00, 0.00, -0.00, -1.00, 249.9, 47.4)">s</text><text xml:space="preserve" font-family="Helvetica,Helvetica" font-size="16.0" fill="#E2E2E2" transform="matrix(1.00, 0.00, -0.00, -1.00, 257.9, 47.4)">e</text><text xml:space="preserve" font-family="Helvetica,Helvetica" font-size="16.0" fill="#E2E2E2" transform="matrix(1.00, 0.00, -0.00, -1.00, 266.8, 47.4)">c</text><text xml:space="preserve" font-family="Helvetica,Helvetica" font-size="16.0" fill="#E2E2E2" transform="matrix(1.00, 0.00, -0.00, -1.00, 274.8, 47.4)">t</text><text xml:space="preserve" font-family="Helvetica,Helvetica" font-size="16.0" fill="#E2E2E2" transform="matrix(1.00, 0.00, -0.00, -1.00, 279.2, 47.4)">e</text><text xml:space="preserve" font-family="Helvetica,Helvetica" font-size="16.0" fill="#E2E2E2" transform="matrix(1.00, 0.00, -0.00, -1.00, 288.1, 47.4)">t</text><text xml:space="preserve" font-family="Helvetica,Helvetica" font-size="16.0" fill="#E2E2E2" transform="matrix(1.00, 0.00, -0.00, -1.00, 292.6, 47.4)">u</text><text xml:space="preserve" font-family="Helvetica,Helvetica" font-size="16.0" fill="#E2E2E2" transform="matrix(1.00, 0.00, -0.00, -1.00, 301.5, 47.4)">e</text><text xml:space="preserve" font-family="Helvetica,Helvetica" font-size="16.0" fill="#E2E2E2" transform="matrix(1.00, 0.00, -0.00, -1.00, 310.4, 47.4)">r</text><text xml:space="preserve" font-family="Helvetica,Helvetica" font-size="16.0" fill="#E2E2E2" transform="matrix(1.00, 0.00, -0.00, -1.00, 315.7, 47.4)"> </text><text xml:space="preserve" font-family="Helvetica,Helvetica" font-size="16.0" fill="#E2E2E2" transform="matrix(1.00, 0.00, -0.00, -1.00, 320.2, 47.4)">a</text><text xml:space="preserve" font-family="Helvetica,Helvetica" font-size="16.0" fill="#E2E2E2" transform="matrix(1.00, 0.00, -0.00, -1.00, 329.1, 47.4)">d</text><text xml:space="preserve" font-family="Helvetica,Helvetica" font-size="16.0" fill="#E2E2E2" transform="matrix(1.00, 0.00, -0.00, -1.00, 338.0, 47.4)">i</text><text xml:space="preserve" font-family="Helvetica,Helvetica" font-size="16.0" fill="#E2E2E2" transform="matrix(1.00, 0.00, -0.00, -1.00, 341.5, 47.4)">p</text><text xml:space="preserve" font-family="Helvetica,Helvetica" font-size="16.0" fill="#E2E2E2" transform="matrix(1.00, 0.00, -0.00, -1.00, 350.4, 47.4)">i</text><text xml:space="preserve" font-family="Helvetica,Helvetica" font-size="16.0" fill="#E2E2E2" transform="matrix(1.00, 0.00, -0.00, -1.00, 354.0, 47.4)">s</text><text xml:space="preserve" font-family="Helvetica,Helvetica" font-size="16.0" fill="#E2E2E2" transform="matrix(1.00, 0.00, -0.00, -1.00, 362.0, 47.4)">c</text><text xml:space="preserve" font-family="Helvetica,Helvetica" font-size="16.0" fill="#E2E2E2" transform="matrix(1.00, 0.00, -0.00, -1.00, 370.0, 47.4)">i</text><text xml:space="preserve" font-family="Helvetica,Helvetica" font-size="16.0" fill="#E2E2E2" transform="matrix(1.00, 0.00, -0.00, -1.00, 373.5, 47.4)">n</text><text xml:space="preserve" font-family="Helvetica,Helvetica" font-size="16.0" fill="#E2E2E2" transform="matrix(1.00, 0.00, -0.00, -1.00, 382.4, 47.4)">g</text><text xml:space="preserve" font-family="Helvetica,Helvetica" font-size="16.0" fill="#E2E2E2" transform="matrix(1.00, 0.00, -0.00, -1.00, 391.3, 47.4)"> </text><text xml:space="preserve" font-family="Helvetica,Helvetica" font-size="16.0" fill="#E2E2E2" transform="matrix(1.00, 0.00, -0.00, -1.00, 395.8, 47.4)">e</text><text xml:space="preserve" font-family="Helvetica,Helvetica" font-size="16.0" fill="#E2E2E2" transform="matrix(1.00, 0.00, -0.00, -1.00, 404.7, 47.4)">l</text><text xml:space="preserve" font-family="Helvetica,Helvetica" font-size="16.0" fill="#E2E2E2" transform="matrix(1.00, 0.00, -0.00, -1.00, 408.2, 47.4)">i</text><text xml:space="preserve" font-family="Helvetica,Helvetica" font-size="16.0" fill="#E2E2E2" transform="matrix(1.00, 0.00, -0.00, -1.00, 411.8, 47.4)">t</text><text xml:space="preserve" font-family="Helvetica,Helvetica" font-size="16.0" fill="#E2E2E2" transform="matrix(1.00, 0.00, -0.00, -1.00, 416.2, 47.4)">,</text><text xml:space="preserve" font-family="Helvetica,Helvetica" font-size="16.0" fill="#E2E2E2" transform="matrix(1.00, 0.00, -0.00, -1.00, 420.7, 47.4)"> </text><text xml:space="preserve" font-family="Helvetica,Helvetica" font-size="16.0" fill="#E2E2E2" transform="matrix(1.00, 0.00, -0.00, -1.00, 425.1, 47.4)">s</text><text xml:space="preserve" font-family="Helvetica,Helvetica" font-size="16.0" fill="#E2E2E2" transform="matrix(1.00, 0.00, -0.00, -1.00, 433.1, 47.4)">e</text><text xml:space="preserve" font-family="Helvetica,Helvetica" font-size="16.0" fill="#E2E2E2" transform="matrix(1.00, 0.00, -0.00, -1.00, 442.0, 47.4)">d</text><text xml:space="preserve" font-family="Helvetica,Helvetica" font-size="16.0" fill="#E2E2E2" transform="matrix(1.00, 0.00, -0.00, -1.00, 450.9, 47.4)"> </text><text xml:space="preserve" font-family="Helvetica,Helvetica" font-size="16.0" fill="#E2E2E2" transform="matrix(1.00, 0.00, -0.00, -1.00, 455.4, 47.4)">d</text><text xml:space="preserve" font-family="Helvetica,Helvetica" font-size="16.0" fill="#E2E2E2" transform="matrix(1.00, 0.00, -0.00, -1.00, 464.3, 47.4)">i</text><text xml:space="preserve" font-family="Helvetica,Helvetica" font-size="16.0" fill="#E2E2E2" transform="matrix(1.00, 0.00, -0.00, -1.00, 467.8, 47.4)">a</text><text xml:space="preserve" font-family="Helvetica,Helvetica" font-size="16.0" fill="#E2E2E2" transform="matrix(1.00, 0.00, -0.00, -1.00, 476.7, 47.4)">m</text><text xml:space="preserve" font-family="Helvetica,Helvetica" font-size="16.0" fill="#E2E2E2" transform="matrix(1.00, 0.00, -0.00, -1.00, 490.1, 47.4)"> </text><text xml:space="preserve" font-family="Helvetica,Helvetica" font-size="16.0" fill="#E2E2E2" transform="matrix(1.00, 0.00, -0.00, -1.00, 22.2, 28.4)">n</text><text xml:space="preserve" font-family="Helvetica,Helvetica" font-size="16.0" fill="#E2E2E2" transform="matrix(1.00, 0.00, -0.00, -1.00, 31.1, 28.4)">o</text><text xml:space="preserve" font-family="Helvetica,Helvetica" font-size="16.0" fill="#E2E2E2" transform="matrix(1.00, 0.00, -0.00, -1.00, 40.0, 28.4)">n</text><text xml:space="preserve" font-family="Helvetica,Helvetica" font-size="16.0" fill="#E2E2E2" transform="matrix(1.00, 0.00, -0.00, -1.00, 48.9, 28.4)">u</text><text xml:space="preserve" font-family="Helvetica,Helvetica" font-size="16.0" fill="#E2E2E2" transform="matrix(1.00, 0.00, -0.00, -1.00, 57.8, 28.4)">m</text><text xml:space="preserve" font-family="Helvetica,Helvetica" font-size="16.0" fill="#E2E2E2" transform="matrix(1.00, 0.00, -0.00, -1.00, 71.1, 28.4)">m</text><text xml:space="preserve" font-family="Helvetica,Helvetica" font-size="16.0" fill="#E2E2E2" transform="matrix(1.00, 0.00, -0.00, -1.00, 84.4, 28.4)">y</text><text xml:space="preserve" font-family="Helvetica,Helvetica" font-size="16.0" fill="#E2E2E2" transform="matrix(1.00, 0.00, -0.00, -1.00, 92.4, 28.4)"> </text><text xml:space="preserve" font-family="Helvetica,Helvetica" font-size="16.0" fill="#E2E2E2" transform="matrix(1.00, 0.00, -0.00, -1.00, 96.9, 28.4)">n</text><text xml:space="preserve" font-family="Helvetica,Helvetica" font-size="16.0" fill="#E2E2E2" transform="matrix(1.00, 0.00, -0.00, -1.00, 105.8, 28.4)">i</text><text xml:space="preserve" font-family="Helvetica,Helvetica" font-size="16.0" fill="#E2E2E2" transform="matrix(1.00, 0.00, -0.00, -1.00, 109.3, 28.4)">b</text><text xml:space="preserve" font-family="Helvetica,Helvetica" font-size="16.0" fill="#E2E2E2" transform="matrix(1.00, 0.00, -0.00, -1.00, 118.2, 28.4)">h</text><text xml:space="preserve" font-family="Helvetica,Helvetica" font-size="16.0" fill="#E2E2E2" transform="matrix(1.00, 0.00, -0.00, -1.00, 127.1, 28.4)"> </text><text xml:space="preserve" font-family="Helvetica,Helvetica" font-size="16.0" fill="#E2E2E2" transform="matrix(1.00, 0.00, -0.00, -1.00, 131.6, 28.4)">e</text><text xml:space="preserve" font-family="Helvetica,Helvetica" font-size="16.0" fill="#E2E2E2" transform="matrix(1.00, 0.00, -0.00, -1.00, 140.5, 28.4)">u</text><text xml:space="preserve" font-family="Helvetica,Helvetica" font-size="16.0" fill="#E2E2E2" transform="matrix(1.00, 0.00, -0.00, -1.00, 149.4, 28.4)">i</text><text xml:space="preserve" font-family="Helvetica,Helvetica" font-size="16.0" fill="#E2E2E2" transform="matrix(1.00, 0.00, -0.00, -1.00, 152.9, 28.4)">s</text><text xml:space="preserve" font-family="Helvetica,Helvetica" font-size="16.0" fill="#E2E2E2" transform="matrix(1.00, 0.00, -0.00, -1.00, 160.9, 28.4)">m</text><text xml:space="preserve" font-family="Helvetica,Helvetica" font-size="16.0" fill="#E2E2E2" transform="matrix(1.00, 0.00, -0.00, -1.00, 174.3, 28.4)">o</text><text xml:space="preserve" font-family="Helvetica,Helvetica" font-size="16.0" fill="#E2E2E2" transform="matrix(1.00, 0.00, -0.00, -1.00, 183.2, 28.4)">d</text><text xml:space="preserve" font-family="Helvetica,Helvetica" font-size="16.0" fill="#E2E2E2" transform="matrix(1.00, 0.00, -0.00, -1.00, 192.1, 28.4)"> </text><text xml:space="preserve" font-family="Helvetica,Helvetica" font-size="16.0" fill="#E2E2E2" transform="matrix(1.00, 0.00, -0.00, -1.00, 196.5, 28.4)">t</text><text xml:space="preserve" font-family="Helvetica,Helvetica" font-size="16.0" fill="#E2E2E2" transform="matrix(1.00, 0.00, -0.00, -1.00, 201.0, 28.4)">i</text><text xml:space="preserve" font-family="Helvetica,Helvetica" font-size="16.0" fill="#E2E2E2" transform="matrix(1.00, 0.00, -0.00, -1.00, 204.5, 28.4)">n</text><text xml:space="preserve" font-family="Helvetica,Helvetica" font-size="16.0" fill="#E2E2E2" transform="matrix(1.00, 0.00, -0.00, -1.00, 213.4, 28.4)">c</text><text xml:space="preserve" font-family="Helvetica,Helvetica" font-size="16.0" fill="#E2E2E2" transform="matrix(1.00, 0.00, -0.00, -1.00, 221.4, 28.4)">i</text><text xml:space="preserve" font-family="Helvetica,Helvetica" font-size="16.0" fill="#E2E2E2" transform="matrix(1.00, 0.00, -0.00, -1.00, 225.0, 28.4)">d</text><text xml:space="preserve" font-family="Helvetica,Helvetica" font-size="16.0" fill="#E2E2E2" transform="matrix(1.00, 0.00, -0.00, -1.00, 233.9, 28.4)">u</text><text xml:space="preserve" font-family="Helvetica,Helvetica" font-size="16.0" fill="#E2E2E2" transform="matrix(1.00, 0.00, -0.00, -1.00, 242.8, 28.4)">n</text><text xml:space="preserve" font-family="Helvetica,Helvetica" font-size="16.0" fill="#E2E2E2" transform="matrix(1.00, 0.00, -0.00, -1.00, 251.7, 28.4)">t</text><text xml:space="preserve" font-family="Helvetica,Helvetica" font-size="16.0" fill="#E2E2E2" transform="matrix(1.00, 0.00, -0.00, -1.00, 256.1, 28.4)"> </text><text xml:space="preserve" font-family="Helvetica,Helvetica" font-size="16.0" fill="#E2E2E2" transform="matrix(1.00, 0.00, -0.00, -1.00, 260.6, 28.4)">u</text><text xml:space="preserve" font-family="Helvetica,Helvetica" font-size="16.0" fill="#E2E2E2" transform="matrix(1.00, 0.00, -0.00, -1.00, 269.5, 28.4)">t</text><text xml:space="preserve" font-family="Helvetica,Helvetica" font-size="16.0" fill="#E2E2E2" transform="matrix(1.00, 0.00, -0.00, -1.00, 273.9, 28.4)"> </text><text xml:space="preserve" font-family="Helvetica,Helvetica" font-size="16.0" fill="#E2E2E2" transform="matrix(1.00, 0.00, -0.00, -1.00, 278.3, 28.4)">l</text><text xml:space="preserve" font-family="Helvetica,Helvetica" font-size="16.0" fill="#E2E2E2" transform="matrix(1.00, 0.00, -0.00, -1.00, 281.9, 28.4)">a</text><text xml:space="preserve" font-family="Helvetica,Helvetica" font-size="16.0" fill="#E2E2E2" transform="matrix(1.00, 0.00, -0.00, -1.00, 290.8, 28.4)">o</text><text xml:space="preserve" font-family="Helvetica,Helvetica" font-size="16.0" fill="#E2E2E2" transform="matrix(1.00, 0.00, -0.00, -1.00, 299.7, 28.4)">r</text><text xml:space="preserve" font-family="Helvetica,Helvetica" font-size="16.0" fill="#E2E2E2" transform="matrix(1.00, 0.00, -0.00, -1.00, 305.0, 28.4)">e</text><text xml:space="preserve" font-family="Helvetica,Helvetica" font-size="16.0" fill="#E2E2E2" transform="matrix(1.00, 0.00, -0.00, -1.00, 313.9, 28.4)">e</text><text xml:space="preserve" font-family="Helvetica,Helvetica" font-size="16.0" fill="#E2E2E2" transform="matrix(1.00, 0.00, -0.00, -1.00, 322.8, 28.4)">t</text><text xml:space="preserve" font-family="Helvetica,Helvetica" font-size="16.0" fill="#E2E2E2" transform="matrix(1.00, 0.00, -0.00, -1.00, 327.3, 28.4)"> </text><text xml:space="preserve" font-family="Helvetica,Helvetica" font-size="16.0" fill="#E2E2E2" transform="matrix(1.00, 0.00, -0.00, -1.00, 331.7, 28.4)">d</text><text xml:space="preserve" font-family="Helvetica,Helvetica" font-size="16.0" fill="#E2E2E2" transform="matrix(1.00, 0.00, -0.00, -1.00, 340.6, 28.4)">o</text><text xml:space="preserve" font-family="Helvetica,Helvetica" font-size="16.0" fill="#E2E2E2" transform="matrix(1.00, 0.00, -0.00, -1.00, 349.5, 28.4)">l</text><text xml:space="preserve" font-family="Helvetica,Helvetica" font-size="16.0" fill="#E2E2E2" transform="matrix(1.00, 0.00, -0.00, -1.00, 353.1, 28.4)">o</text><text xml:space="preserve" font-family="Helvetica,Helvetica" font-size="16.0" fill="#E2E2E2" transform="matrix(1.00, 0.00, -0.00, -1.00, 362.0, 28.4)">r</text><text xml:space="preserve" font-family="Helvetica,Helvetica" font-size="16.0" fill="#E2E2E2" transform="matrix(1.00, 0.00, -0.00, -1.00, 367.3, 28.4)">e</text><text xml:space="preserve" font-family="Helvetica,Helvetica" font-size="16.0" fill="#E2E2E2" transform="matrix(1.00, 0.00, -0.00, -1.00, 376.2, 28.4)"> </text><text xml:space="preserve" font-family="Helvetica,Helvetica" font-size="16.0" fill="#E2E2E2" transform="matrix(1.00, 0.00, -0.00, -1.00, 380.7, 28.4)">m</text><text xml:space="preserve" font-family="Helvetica,Helvetica" font-size="16.0" fill="#E2E2E2" transform="matrix(1.00, 0.00, -0.00, -1.00, 394.0, 28.4)">a</text><text xml:space="preserve" font-family="Helvetica,Helvetica" font-size="16.0" fill="#E2E2E2" transform="matrix(1.00, 0.00, -0.00, -1.00, 402.9, 28.4)">g</text><text xml:space="preserve" font-family="Helvetica,Helvetica" font-size="16.0" fill="#E2E2E2" transform="matrix(1.00, 0.00, -0.00, -1.00, 411.8, 28.4)">n</text><text xml:space="preserve" font-family="Helvetica,Helvetica" font-size="16.0" fill="#E2E2E2" transform="matrix(1.00, 0.00, -0.00, -1.00, 420.7, 28.4)">a</text><text xml:space="preserve" font-family="Helvetica,Helvetica" font-size="16.0" fill="#E2E2E2" transform="matrix(1.00, 0.00, -0.00, -1.00, 429.6, 28.4)"> </text><text xml:space="preserve" font-family="Helvetica,Helvetica" font-size="16.0" fill="#E2E2E2" transform="matrix(1.00, 0.00, -0.00, -1.00, 434.0, 28.4)">a</text><text xml:space="preserve" font-family="Helvetica,Helvetica" font-size="16.0" fill="#E2E2E2" transform="matrix(1.00, 0.00, -0.00, -1.00, 442.9, 28.4)">l</text><text xml:space="preserve" font-family="Helvetica,Helvetica" font-size="16.0" fill="#E2E2E2" transform="matrix(1.00, 0.00, -0.00, -1.00, 446.5, 28.4)">i</text><text xml:space="preserve" font-family="Helvetica,Helvetica" font-size="16.0" fill="#E2E2E2" transform="matrix(1.00, 0.00, -0.00, -1.00, 450.0, 28.4)">q</text><text xml:space="preserve" font-family="Helvetica,Helvetica" font-size="16.0" fill="#E2E2E2" transform="matrix(1.00, 0.00, -0.00, -1.00, 459.0, 28.4)">u</text><text xml:space="preserve" font-family="Helvetica,Helvetica" font-size="16.0" fill="#E2E2E2" transform="matrix(1.00, 0.00, -0.00, -1.00, 467.9, 28.4)">a</text><text xml:space="preserve" font-family="Helvetica,Helvetica" font-size="16.0" fill="#E2E2E2" transform="matrix(1.00, 0.00, -0.00, -1.00, 476.8, 28.4)">m</text><text xml:space="preserve" font-family="Helvetica,Helvetica" font-size="16.0" fill="#E2E2E2" transform="matrix(1.00, 0.00, -0.00, -1.00, 490.1, 28.4)"> </text><text xml:space="preserve" font-family="Helvetica,Helvetica" font-size="16.0" fill="#E2E2E2" transform="matrix(1.00, 0.00, -0.00, -1.00, 302.4, 9.4)">e</text><text xml:space="preserve" font-family="Helvetica,Helvetica" font-size="16.0" fill="#E2E2E2" transform="matrix(1.00, 0.00, -0.00, -1.00, 311.3, 9.4)">r</text><text xml:space="preserve" font-family="Helvetica,Helvetica" font-size="16.0" fill="#E2E2E2" transform="matrix(1.00, 0.00, -0.00, -1.00, 316.6, 9.4)">a</text><text xml:space="preserve" font-family="Helvetica,Helvetica" font-size="16.0" fill="#E2E2E2" transform="matrix(1.00, 0.00, -0.00, -1.00, 325.5, 9.4)">t</text><text xml:space="preserve" font-family="Helvetica,Helvetica" font-size="16.0" fill="#E2E2E2" transform="matrix(1.00, 0.00, -0.00, -1.00, 329.9, 9.4)"> </text><text xml:space="preserve" font-family="Helvetica,Helvetica" font-size="16.0" fill="#E2E2E2" transform="matrix(1.00, 0.00, -0.00, -1.00, 334.4, 9.4)">v</text><text xml:space="preserve" font-family="Helvetica,Helvetica" font-size="16.0" fill="#E2E2E2" transform="matrix(1.00, 0.00, -0.00, -1.00, 342.4, 9.4)">o</text><text xml:space="preserve" font-family="Helvetica,Helvetica" font-size="16.0" fill="#E2E2E2" transform="matrix(1.00, 0.00, -0.00, -1.00, 351.3, 9.4)">l</text><text xml:space="preserve" font-family="Helvetica,Helvetica" font-size="16.0" fill="#E2E2E2" transform="matrix(1.00, 0.00, -0.00, -1.00, 354.8, 9.4)">u</text><text xml:space="preserve" font-family="Helvetica,Helvetica" font-size="16.0" fill="#E2E2E2" transform="matrix(1.00, 0.00, -0.00, -1.00, 363.7, 9.4)">t</text><text xml:space="preserve" font-family="Helvetica,Helvetica" font-size="16.0" fill="#E2E2E2" transform="matrix(1.00, 0.00, -0.00, -1.00, 368.2, 9.4)">p</text><text xml:space="preserve" font-family="Helvetica,Helvetica" font-size="16.0" fill="#E2E2E2" transform="matrix(1.00, 0.00, -0.00, -1.00, 377.1, 9.4)">a</text><text xml:space="preserve" font-family="Helvetica,Helvetica" font-size="16.0" fill="#E2E2E2" transform="matrix(1.00, 0.00, -0.00, -1.00, 386.0, 9.4)">t</text><text xml:space="preserve" font-family="Helvetica,Helvetica" font-size="16.0" fill="#E2E2E2" transform="matrix(1.00, 0.00, -0.00, -1.00, 390.4, 9.4)">.</text><text xml:space="preserve" font-family="Helvetica,Helvetica" font-size="16.0" fill="#E2E2E2" transform="matrix(1.00, 0.00, -0.00, -1.00, 394.9, 9.4)"> </text><text xml:space="preserve" font-family="Helvetica,Helvetica" font-size="16.0" fill="#E2E2E2" transform="matrix(1.00, 0.00, -0.00, -1.00, 399.3, 9.4)">U</text><text xml:space="preserve" font-family="Helvetica,Helvetica" font-size="16.0" fill="#E2E2E2" transform="matrix(1.00, 0.00, -0.00, -1.00, 410.9, 9.4)">t</text><text xml:space="preserve" font-family="Helvetica,Helvetica" font-size="16.0" fill="#E2E2E2" transform="matrix(1.00, 0.00, -0.00, -1.00, 415.3, 9.4)"> </text><text xml:space="preserve" font-family="Helvetica,Helvetica" font-size="16.0" fill="#E2E2E2" transform="matrix(1.00, 0.00, -0.00, -1.00, 419.8, 9.4)">w</text><text xml:space="preserve" font-family="Helvetica,Helvetica" font-size="16.0" fill="#E2E2E2" transform="matrix(1.00, 0.00, -0.00, -1.00, 431.3, 9.4)">i</text><text xml:space="preserve" font-family="Helvetica,Helvetica" font-size="16.0" fill="#E2E2E2" transform="matrix(1.00, 0.00, -0.00, -1.00, 434.9, 9.4)">s</text><text xml:space="preserve" font-family="Helvetica,Helvetica" font-size="16.0" fill="#E2E2E2" transform="matrix(1.00, 0.00, -0.00, -1.00, 442.9, 9.4)">i</text><text xml:space="preserve" font-family="Helvetica,Helvetica" font-size="16.0" fill="#E2E2E2" transform="matrix(1.00, 0.00, -0.00, -1.00, 446.4, 9.4)"> </text><text xml:space="preserve" font-family="Helvetica,Helvetica" font-size="16.0" fill="#E2E2E2" transform="matrix(1.00, 0.00, -0.00, -1.00, 450.9, 9.4)">e</text><text xml:space="preserve" font-family="Helvetica,Helvetica" font-size="16.0" fill="#E2E2E2" transform="matrix(1.00, 0.00, -0.00, -1.00, 459.8, 9.4)">n</text><text xml:space="preserve" font-family="Helvetica,Helvetica" font-size="16.0" fill="#E2E2E2" transform="matrix(1.00, 0.00, -0.00, -1.00, 468.7, 9.4)">i</text><text xml:space="preserve" font-family="Helvetica,Helvetica" font-size="16.0" fill="#E2E2E2" transform="matrix(1.00, 0.00, -0.00, -1.00, 472.2, 9.4)">m</text><text xml:space="preserve" font-family="Helvetica,Helvetica" font-size="16.0" fill="#E2E2E2" transform="matrix(1.00, 0.00, -0.00, -1.00, 485.6, 9.4)">.</text></g></g><g><clipPath id="clip0x6080076b7c40"><path d="M 247.9 65.1 L 488.6 65.1 L 488.6 96.1 L 247.9 96.1 Z M 247.9 65.1 "></path></clipPath><g clip-path="url(#clip0x6080076b7c40)"><text xml:space="preserve" font-family="Helvetica,Helvetica" font-size="18.0" fill="#E2E2E2" transform="matrix(1.00, 0.00, -0.00, -1.00, 253.4, 73.8)">S</text><text xml:space="preserve" font-family="Helvetica,Helvetica" font-size="18.0" fill="#E2E2E2" transform="matrix(1.00, 0.00, -0.00, -1.00, 265.4, 73.8)">O</text><text xml:space="preserve" font-family="Helvetica,Helvetica" font-size="18.0" fill="#E2E2E2" transform="matrix(1.00, 0.00, -0.00, -1.00, 279.4, 73.8)">M</text><text xml:space="preserve" font-family="Helvetica,Helvetica" font-size="18.0" fill="#E2E2E2" transform="matrix(1.00, 0.00, -0.00, -1.00, 294.4, 73.8)">E</text><text xml:space="preserve" font-family="Helvetica,Helvetica" font-size="18.0" fill="#E2E2E2" transform="matrix(1.00, 0.00, -0.00, -1.00, 306.4, 73.8)"> </text><text xml:space="preserve" font-family="Helvetica,Helvetica" font-size="18.0" fill="#E2E2E2" transform="matrix(1.00, 0.00, -0.00, -1.00, 311.1, 73.8)">T</text><text xml:space="preserve" font-family="Helvetica,Helvetica" font-size="18.0" fill="#E2E2E2" transform="matrix(1.00, 0.00, -0.00, -1.00, 322.1, 73.8)">I</text><text xml:space="preserve" font-family="Helvetica,Helvetica" font-size="18.0" fill="#E2E2E2" transform="matrix(1.00, 0.00, -0.00, -1.00, 327.1, 73.8)">T</text><text xml:space="preserve" font-family="Helvetica,Helvetica" font-size="18.0" fill="#E2E2E2" transform="matrix(1.00, 0.00, -0.00, -1.00, 338.1, 73.8)">L</text><text xml:space="preserve" font-family="Helvetica,Helvetica" font-size="18.0" fill="#E2E2E2" transform="matrix(1.00, 0.00, -0.00, -1.00, 348.1, 73.8)">E</text><text xml:space="preserve" font-family="Helvetica,Helvetica" font-size="18.0" fill="#E2E2E2" transform="matrix(1.00, 0.00, -0.00, -1.00, 360.1, 73.8)"> </text><text xml:space="preserve" font-family="Helvetica,Helvetica" font-size="18.0" fill="#E2E2E2" transform="matrix(1.00, 0.00, -0.00, -1.00, 365.1, 73.8)">H</text><text xml:space="preserve" font-family="Helvetica,Helvetica" font-size="18.0" fill="#E2E2E2" transform="matrix(1.00, 0.00, -0.00, -1.00, 378.1, 73.8)">E</text><text xml:space="preserve" font-family="Helvetica,Helvetica" font-size="18.0" fill="#E2E2E2" transform="matrix(1.00, 0.00, -0.00, -1.00, 390.1, 73.8)">R</text><text xml:space="preserve" font-family="Helvetica,Helvetica" font-size="18.0" fill="#E2E2E2" transform="matrix(1.00, 0.00, -0.00, -1.00, 403.1, 73.8)">E</text><text xml:space="preserve" font-family="Helvetica,Helvetica" font-size="18.0" fill="#E2E2E2" transform="matrix(1.00, 0.00, -0.00, -1.00, 415.1, 73.8)"> </text><text xml:space="preserve" font-family="Helvetica,Helvetica" font-size="18.0" fill="#E2E2E2" transform="matrix(1.00, 0.00, -0.00, -1.00, 420.1, 73.8)">L</text><text xml:space="preserve" font-family="Helvetica,Helvetica" font-size="18.0" fill="#E2E2E2" transform="matrix(1.00, 0.00, -0.00, -1.00, 430.1, 73.8)">O</text><text xml:space="preserve" font-family="Helvetica,Helvetica" font-size="18.0" fill="#E2E2E2" transform="matrix(1.00, 0.00, -0.00, -1.00, 444.1, 73.8)">R</text><text xml:space="preserve" font-family="Helvetica,Helvetica" font-size="18.0" fill="#E2E2E2" transform="matrix(1.00, 0.00, -0.00, -1.00, 457.1, 73.8)">E</text><text xml:space="preserve" font-family="Helvetica,Helvetica" font-size="18.0" fill="#E2E2E2" transform="matrix(1.00, 0.00, -0.00, -1.00, 469.1, 73.8)">M</text></g></g></g></svg>