<?xml version="1.0" encoding="UTF-8" standalone="no"?><svg xmlns="http://www.w3.org/2000/svg" xmlns:xlink="http://www.w3.org/1999/xlink" clip-rule="evenodd" stroke-miterlimit="10" viewBox="0 0 1490 345"><desc>SVG generated by Keynote</desc><defs></defs><g transform="matrix(1.00, 0.00, -0.00, -1.00, 0.0, 345.0)"><g><g><clipPath id="clip0x6180052a3060"><path d="M 9.1 1.2 L 1481.7 1.2 L 1481.7 343.8 L 9.1 343.8 Z M 9.1 1.2 "></path></clipPath><g clip-path="url(#clip0x6180052a3060)"><path d="M 0.0 244.1 L 183.6 166.1 L 367.2 233.9 L 550.9 159.3 L 734.5 210.2 L 918.1 40.7 L 1101.8 210.2 L 1285.4 10.2 L 1469.0 0.0 " fill="none" stroke="#EDC25F" stroke-width="3.00" transform="matrix(1.00, 0.00, 0.00, -1.00, 10.9, 314.9)"></path></g></g><g><clipPath id="clip0x6180052a3d80"><path d="M 15.9 70.8 C 15.9 68.0 13.6 65.8 10.9 65.8 C 8.1 65.8 5.9 68.0 5.9 70.8 C 5.9 73.6 8.1 75.8 10.9 75.8 C 13.6 75.8 15.9 73.6 15.9 70.8 Z M 15.9 70.8 "></path></clipPath><g clip-path="url(#clip0x6180052a3d80)"><g><clipPath id="clip0x6180052a3f00"><path d="M 0.0 0.0 L 1490.0 0.0 L 1490.0 345.0 L 0.0 345.0 Z M 0.0 0.0 "></path></clipPath><g clip-path="url(#clip0x6180052a3f00)"><path d="M 3.0 78.0 L 18.0 78.0 L 18.0 63.0 L 3.0 63.0 Z M 3.0 78.0 " fill="#EDC25F"></path></g></g></g></g><g><clipPath id="clip0x6180052a4140"><path d="M 0.0 0.0 L 1490.0 0.0 L 1490.0 345.0 L 0.0 345.0 Z M 0.0 0.0 "></path></clipPath><g clip-path="url(#clip0x6180052a4140)"><path d="M 53.2 294.2 C 53.2 297.0 50.9 299.2 48.2 299.2 C 45.4 299.2 43.2 297.0 43.2 294.2 C 43.2 291.4 45.4 289.2 48.2 289.2 C 50.9 289.2 53.2 291.4 53.2 294.2 Z M 53.2 294.2 " fill="none" stroke="#EDC25F" stroke-width="4.00" transform="matrix(1.00, 0.00, 0.00, -1.00, -37.3, 365.0)"></path></g></g><g><clipPath id="clip0x6180052a4380"><path d="M 199.5 148.8 C 199.5 146.0 197.2 143.8 194.5 143.8 C 191.7 143.8 189.5 146.0 189.5 148.8 C 189.5 151.5 191.7 153.8 194.5 153.8 C 197.2 153.8 199.5 151.5 199.5 148.8 Z M 199.5 148.8 "></path></clipPath><g clip-path="url(#clip0x6180052a4380)"><g><clipPath id="clip0x6180052a4500"><path d="M 0.0 0.0 L 1490.0 0.0 L 1490.0 345.0 L 0.0 345.0 Z M 0.0 0.0 "></path></clipPath><g clip-path="url(#clip0x6180052a4500)"><path d="M 187.0 156.0 L 202.0 156.0 L 202.0 141.0 L 187.0 141.0 Z M 187.0 156.0 " fill="#EDC25F"></path></g></g></g></g><g><clipPath id="clip0x6180052a4740"><path d="M 0.0 0.0 L 1490.0 0.0 L 1490.0 345.0 L 0.0 345.0 Z M 0.0 0.0 "></path></clipPath><g clip-path="url(#clip0x6180052a4740)"><path d="M 236.8 216.2 C 236.8 219.0 234.5 221.2 231.8 221.2 C 229.0 221.2 226.8 219.0 226.8 216.2 C 226.8 213.5 229.0 211.2 231.8 211.2 C 234.5 211.2 236.8 213.5 236.8 216.2 Z M 236.8 216.2 " fill="none" stroke="#EDC25F" stroke-width="4.00" transform="matrix(1.00, 0.00, 0.00, -1.00, -37.3, 365.0)"></path></g></g><g><clipPath id="clip0x6180052a4980"><path d="M 383.1 81.0 C 383.1 78.2 380.9 76.0 378.1 76.0 C 375.4 76.0 373.1 78.2 373.1 81.0 C 373.1 83.7 375.4 86.0 378.1 86.0 C 380.9 86.0 383.1 83.7 383.1 81.0 Z M 383.1 81.0 "></path></clipPath><g clip-path="url(#clip0x6180052a4980)"><g><clipPath id="clip0x6180052a4aa0"><path d="M 0.0 0.0 L 1490.0 0.0 L 1490.0 345.0 L 0.0 345.0 Z M 0.0 0.0 "></path></clipPath><g clip-path="url(#clip0x6180052a4aa0)"><path d="M 371.0 88.0 L 386.0 88.0 L 386.0 73.0 L 371.0 73.0 Z M 371.0 88.0 " fill="#EDC25F"></path></g></g></g></g><g><clipPath id="clip0x6180052a4da0"><path d="M 0.0 0.0 L 1490.0 0.0 L 1490.0 345.0 L 0.0 345.0 Z M 0.0 0.0 "></path></clipPath><g clip-path="url(#clip0x6180052a4da0)"><path d="M 420.4 284.0 C 420.4 286.8 418.2 289.0 415.4 289.0 C 412.6 289.0 410.4 286.8 410.4 284.0 C 410.4 281.3 412.6 279.0 415.4 279.0 C 418.2 279.0 420.4 281.3 420.4 284.0 Z M 420.4 284.0 " fill="none" stroke="#EDC25F" stroke-width="4.00" transform="matrix(1.00, 0.00, 0.00, -1.00, -37.3, 365.0)"></path></g></g><g><clipPath id="clip0x6180052a4f20"><path d="M 566.7 155.6 C 566.7 152.8 564.5 150.6 561.7 150.6 C 559.0 150.6 556.7 152.8 556.7 155.6 C 556.7 158.3 559.0 160.6 561.7 160.6 C 564.5 160.6 566.7 158.3 566.7 155.6 Z M 566.7 155.6 "></path></clipPath><g clip-path="url(#clip0x6180052a4f20)"><g><clipPath id="clip0x6180052a5100"><path d="M 0.0 0.0 L 1490.0 0.0 L 1490.0 345.0 L 0.0 345.0 Z M 0.0 0.0 "></path></clipPath><g clip-path="url(#clip0x6180052a5100)"><path d="M 554.0 163.0 L 569.0 163.0 L 569.0 148.0 L 554.0 148.0 Z M 554.0 163.0 " fill="#EDC25F"></path></g></g></g></g><g><clipPath id="clip0x6180052a51c0"><path d="M 0.0 0.0 L 1490.0 0.0 L 1490.0 345.0 L 0.0 345.0 Z M 0.0 0.0 "></path></clipPath><g clip-path="url(#clip0x6180052a51c0)"><path d="M 604.0 209.5 C 604.0 212.2 601.8 214.5 599.0 214.5 C 596.3 214.5 594.0 212.2 594.0 209.5 C 594.0 206.7 596.3 204.5 599.0 204.5 C 601.8 204.5 604.0 206.7 604.0 209.5 Z M 604.0 209.5 " fill="none" stroke="#EDC25F" stroke-width="4.00" transform="matrix(1.00, 0.00, 0.00, -1.00, -37.3, 365.0)"></path></g></g><g><clipPath id="clip0x6180052a5400"><path d="M 750.4 104.7 C 750.4 101.9 748.1 99.7 745.4 99.7 C 742.6 99.7 740.4 101.9 740.4 104.7 C 740.4 107.5 742.6 109.7 745.4 109.7 C 748.1 109.7 750.4 107.5 750.4 104.7 Z M 750.4 104.7 "></path></clipPath><g clip-path="url(#clip0x6180052a5400)"><g><clipPath id="clip0x6180052a5700"><path d="M 0.0 0.0 L 1490.0 0.0 L 1490.0 345.0 L 0.0 345.0 Z M 0.0 0.0 "></path></clipPath><g clip-path="url(#clip0x6180052a5700)"><path d="M 738.0 112.0 L 753.0 112.0 L 753.0 97.0 L 738.0 97.0 Z M 738.0 112.0 " fill="#EDC25F"></path></g></g></g></g><g><clipPath id="clip0x6180052a5940"><path d="M 0.0 0.0 L 1490.0 0.0 L 1490.0 345.0 L 0.0 345.0 Z M 0.0 0.0 "></path></clipPath><g clip-path="url(#clip0x6180052a5940)"><path d="M 787.7 260.3 C 787.7 263.1 785.4 265.3 782.7 265.3 C 779.9 265.3 777.7 263.1 777.7 260.3 C 777.7 257.5 779.9 255.3 782.7 255.3 C 785.4 255.3 787.7 257.5 787.7 260.3 Z M 787.7 260.3 " fill="none" stroke="#EDC25F" stroke-width="4.00" transform="matrix(1.00, 0.00, 0.00, -1.00, -37.3, 365.0)"></path></g></g><g><clipPath id="clip0x6180052a5b80"><path d="M 934.0 274.2 C 934.0 271.4 931.7 269.2 929.0 269.2 C 926.2 269.2 924.0 271.4 924.0 274.2 C 924.0 277.0 926.2 279.2 929.0 279.2 C 931.7 279.2 934.0 277.0 934.0 274.2 Z M 934.0 274.2 "></path></clipPath><g clip-path="url(#clip0x6180052a5b80)"><g><clipPath id="clip0x6180052a5d00"><path d="M 0.0 0.0 L 1490.0 0.0 L 1490.0 345.0 L 0.0 345.0 Z M 0.0 0.0 "></path></clipPath><g clip-path="url(#clip0x6180052a5d00)"><path d="M 921.0 282.0 L 936.0 282.0 L 936.0 267.0 L 921.0 267.0 Z M 921.0 282.0 " fill="#EDC25F"></path></g></g></g></g><g><clipPath id="clip0x6180052a5f40"><path d="M 0.0 0.0 L 1490.0 0.0 L 1490.0 345.0 L 0.0 345.0 Z M 0.0 0.0 "></path></clipPath><g clip-path="url(#clip0x6180052a5f40)"><path d="M 971.3 90.8 C 971.3 93.6 969.0 95.8 966.3 95.8 C 963.5 95.8 961.3 93.6 961.3 90.8 C 961.3 88.0 963.5 85.8 966.3 85.8 C 969.0 85.8 971.3 88.0 971.3 90.8 Z M 971.3 90.8 " fill="none" stroke="#EDC25F" stroke-width="4.00" transform="matrix(1.00, 0.00, 0.00, -1.00, -37.3, 365.0)"></path></g></g><g><clipPath id="clip0x6180052a6180"><path d="M 1117.6 104.7 C 1117.6 101.9 1115.4 99.7 1112.6 99.7 C 1109.9 99.7 1107.6 101.9 1107.6 104.7 C 1107.6 107.5 1109.9 109.7 1112.6 109.7 C 1115.4 109.7 1117.6 107.5 1117.6 104.7 Z M 1117.6 104.7 "></path></clipPath><g clip-path="url(#clip0x6180052a6180)"><g><clipPath id="clip0x6180052a6300"><path d="M 0.0 0.0 L 1490.0 0.0 L 1490.0 345.0 L 0.0 345.0 Z M 0.0 0.0 "></path></clipPath><g clip-path="url(#clip0x6180052a6300)"><path d="M 1105.0 112.0 L 1120.0 112.0 L 1120.0 97.0 L 1105.0 97.0 Z M 1105.0 112.0 " fill="#EDC25F"></path></g></g></g></g><g><clipPath id="clip0x6180052a6540"><path d="M 0.0 0.0 L 1490.0 0.0 L 1490.0 345.0 L 0.0 345.0 Z M 0.0 0.0 "></path></clipPath><g clip-path="url(#clip0x6180052a6540)"><path d="M 1154.9 260.3 C 1154.9 263.1 1152.7 265.3 1149.9 265.3 C 1147.1 265.3 1144.9 263.1 1144.9 260.3 C 1144.9 257.5 1147.1 255.3 1149.9 255.3 C 1152.7 255.3 1154.9 257.5 1154.9 260.3 Z M 1154.9 260.3 " fill="none" stroke="#EDC25F" stroke-width="4.00" transform="matrix(1.00, 0.00, 0.00, -1.00, -37.3, 365.0)"></path></g></g><g><clipPath id="clip0x6180052a6780"><path d="M 1301.2 304.7 C 1301.2 301.9 1299.0 299.7 1296.2 299.7 C 1293.5 299.7 1291.2 301.9 1291.2 304.7 C 1291.2 307.5 1293.5 309.7 1296.2 309.7 C 1299.0 309.7 1301.2 307.5 1301.2 304.7 Z M 1301.2 304.7 "></path></clipPath><g clip-path="url(#clip0x6180052a6780)"><g><clipPath id="clip0x6180052a6900"><path d="M 0.0 0.0 L 1490.0 0.0 L 1490.0 345.0 L 0.0 345.0 Z M 0.0 0.0 "></path></clipPath><g clip-path="url(#clip0x6180052a6900)"><path d="M 1289.0 312.0 L 1304.0 312.0 L 1304.0 297.0 L 1289.0 297.0 Z M 1289.0 312.0 " fill="#EDC25F"></path></g></g></g></g><g><clipPath id="clip0x6180052a6b40"><path d="M 0.0 0.0 L 1490.0 0.0 L 1490.0 345.0 L 0.0 345.0 Z M 0.0 0.0 "></path></clipPath><g clip-path="url(#clip0x6180052a6b40)"><path d="M 1338.5 60.3 C 1338.5 63.1 1336.3 65.3 1333.5 65.3 C 1330.8 65.3 1328.5 63.1 1328.5 60.3 C 1328.5 57.5 1330.8 55.3 1333.5 55.3 C 1336.3 55.3 1338.5 57.5 1338.5 60.3 Z M 1338.5 60.3 " fill="none" stroke="#EDC25F" stroke-width="4.00" transform="matrix(1.00, 0.00, 0.00, -1.00, -37.3, 365.0)"></path></g></g><g><clipPath id="clip0x6180052a6d80"><path d="M 1484.9 314.9 C 1484.9 312.1 1482.6 309.9 1479.9 309.9 C 1477.1 309.9 1474.9 312.1 1474.9 314.9 C 1474.9 317.6 1477.1 319.9 1479.9 319.9 C 1482.6 319.9 1484.9 317.6 1484.9 314.9 Z M 1484.9 314.9 "></path></clipPath><g clip-path="url(#clip0x6180052a6d80)"><g><clipPath id="clip0x6180052a6f00"><path d="M 0.0 0.0 L 1490.0 0.0 L 1490.0 345.0 L 0.0 345.0 Z M 0.0 0.0 "></path></clipPath><g clip-path="url(#clip0x6180052a6f00)"><path d="M 1472.0 322.0 L 1487.0 322.0 L 1487.0 307.0 L 1472.0 307.0 Z M 1472.0 322.0 " fill="#EDC25F"></path></g></g></g></g><g><clipPath id="clip0x6180052a7140"><path d="M 0.0 0.0 L 1490.0 0.0 L 1490.0 345.0 L 0.0 345.0 Z M 0.0 0.0 "></path></clipPath><g clip-path="url(#clip0x6180052a7140)"><path d="M 1522.2 50.1 C 1522.2 52.9 1519.9 55.1 1517.2 55.1 C 1514.4 55.1 1512.2 52.9 1512.2 50.1 C 1512.2 47.4 1514.4 45.1 1517.2 45.1 C 1519.9 45.1 1522.2 47.4 1522.2 50.1 Z M 1522.2 50.1 " fill="none" stroke="#EDC25F" stroke-width="4.00" transform="matrix(1.00, 0.00, 0.00, -1.00, -37.3, 365.0)"></path></g></g></g></g></svg>