<?xml version="1.0" encoding="UTF-8" standalone="no"?><svg xmlns="http://www.w3.org/2000/svg" xmlns:xlink="http://www.w3.org/1999/xlink" clip-rule="evenodd" stroke-miterlimit="10" viewBox="0 0 1490 345"><desc>SVG generated by Keynote</desc><defs></defs><g transform="matrix(1.00, 0.00, -0.00, -1.00, 0.0, 345.0)"><g><g><clipPath id="clip0x6180050bf3e0"><path d="M 9.1 1.2 L 1481.7 1.2 L 1481.7 343.8 L 9.1 343.8 Z M 9.1 1.2 "></path></clipPath><g clip-path="url(#clip0x6180050bf3e0)"><path d="M 0.0 57.6 L 183.6 98.3 L 367.2 6.8 L 550.9 47.5 L 734.5 33.9 L 918.1 91.5 L 1101.8 10.2 L 1285.4 0.0 L 1469.0 108.5 " fill="none" stroke="#54C6E1" stroke-width="3.00" transform="matrix(1.00, 0.00, 0.00, -1.00, 10.9, 247.1)"></path></g></g><g><clipPath id="clip0x6180050bf800"><path d="M 15.9 189.5 C 15.9 186.7 13.6 184.5 10.9 184.5 C 8.1 184.5 5.9 186.7 5.9 189.5 C 5.9 192.2 8.1 194.5 10.9 194.5 C 13.6 194.5 15.9 192.2 15.9 189.5 Z M 15.9 189.5 "></path></clipPath><g clip-path="url(#clip0x6180050bf800)"><g><clipPath id="clip0x6180050bfbc0"><path d="M 0.0 0.0 L 1490.0 0.0 L 1490.0 345.0 L 0.0 345.0 Z M 0.0 0.0 "></path></clipPath><g clip-path="url(#clip0x6180050bfbc0)"><path d="M 3.0 197.0 L 18.0 197.0 L 18.0 182.0 L 3.0 182.0 Z M 3.0 197.0 " fill="#54C6E1"></path></g></g></g></g><g><clipPath id="clip0x6180050bf980"><path d="M 0.0 0.0 L 1490.0 0.0 L 1490.0 345.0 L 0.0 345.0 Z M 0.0 0.0 "></path></clipPath><g clip-path="url(#clip0x6180050bf980)"><path d="M 53.2 175.6 C 53.2 178.3 50.9 180.6 48.2 180.6 C 45.4 180.6 43.2 178.3 43.2 175.6 C 43.2 172.8 45.4 170.6 48.2 170.6 C 50.9 170.6 53.2 172.8 53.2 175.6 Z M 53.2 175.6 " fill="none" stroke="#54C6E1" stroke-width="4.00" transform="matrix(1.00, 0.00, 0.00, -1.00, -37.3, 365.0)"></path></g></g><g><clipPath id="clip0x6180050bfe00"><path d="M 199.5 148.8 C 199.5 146.0 197.2 143.8 194.5 143.8 C 191.7 143.8 189.5 146.0 189.5 148.8 C 189.5 151.5 191.7 153.8 194.5 153.8 C 197.2 153.8 199.5 151.5 199.5 148.8 Z M 199.5 148.8 "></path></clipPath><g clip-path="url(#clip0x6180050bfe00)"><g><clipPath id="clip0x6180050bff80"><path d="M 0.0 0.0 L 1490.0 0.0 L 1490.0 345.0 L 0.0 345.0 Z M 0.0 0.0 "></path></clipPath><g clip-path="url(#clip0x6180050bff80)"><path d="M 187.0 156.0 L 202.0 156.0 L 202.0 141.0 L 187.0 141.0 Z M 187.0 156.0 " fill="#54C6E1"></path></g></g></g></g><g><clipPath id="clip0x6180052a01e0"><path d="M 0.0 0.0 L 1490.0 0.0 L 1490.0 345.0 L 0.0 345.0 Z M 0.0 0.0 "></path></clipPath><g clip-path="url(#clip0x6180052a01e0)"><path d="M 236.8 216.2 C 236.8 219.0 234.5 221.2 231.8 221.2 C 229.0 221.2 226.8 219.0 226.8 216.2 C 226.8 213.5 229.0 211.2 231.8 211.2 C 234.5 211.2 236.8 213.5 236.8 216.2 Z M 236.8 216.2 " fill="none" stroke="#54C6E1" stroke-width="4.00" transform="matrix(1.00, 0.00, 0.00, -1.00, -37.3, 365.0)"></path></g></g><g><clipPath id="clip0x6180052a0420"><path d="M 383.1 240.3 C 383.1 237.5 380.9 235.3 378.1 235.3 C 375.4 235.3 373.1 237.5 373.1 240.3 C 373.1 243.1 375.4 245.3 378.1 245.3 C 380.9 245.3 383.1 243.1 383.1 240.3 Z M 383.1 240.3 "></path></clipPath><g clip-path="url(#clip0x6180052a0420)"><g><clipPath id="clip0x6180052a05a0"><path d="M 0.0 0.0 L 1490.0 0.0 L 1490.0 345.0 L 0.0 345.0 Z M 0.0 0.0 "></path></clipPath><g clip-path="url(#clip0x6180052a05a0)"><path d="M 371.0 248.0 L 386.0 248.0 L 386.0 233.0 L 371.0 233.0 Z M 371.0 248.0 " fill="#54C6E1"></path></g></g></g></g><g><clipPath id="clip0x6180052a07e0"><path d="M 0.0 0.0 L 1490.0 0.0 L 1490.0 345.0 L 0.0 345.0 Z M 0.0 0.0 "></path></clipPath><g clip-path="url(#clip0x6180052a07e0)"><path d="M 420.4 124.7 C 420.4 127.5 418.2 129.7 415.4 129.7 C 412.6 129.7 410.4 127.5 410.4 124.7 C 410.4 121.9 412.6 119.7 415.4 119.7 C 418.2 119.7 420.4 121.9 420.4 124.7 Z M 420.4 124.7 " fill="none" stroke="#54C6E1" stroke-width="4.00" transform="matrix(1.00, 0.00, 0.00, -1.00, -37.3, 365.0)"></path></g></g><g><clipPath id="clip0x6180052a0a20"><path d="M 566.7 199.6 C 566.7 196.9 564.5 194.6 561.7 194.6 C 559.0 194.6 556.7 196.9 556.7 199.6 C 556.7 202.4 559.0 204.6 561.7 204.6 C 564.5 204.6 566.7 202.4 566.7 199.6 Z M 566.7 199.6 "></path></clipPath><g clip-path="url(#clip0x6180052a0a20)"><g><clipPath id="clip0x6180052a0ba0"><path d="M 0.0 0.0 L 1490.0 0.0 L 1490.0 345.0 L 0.0 345.0 Z M 0.0 0.0 "></path></clipPath><g clip-path="url(#clip0x6180052a0ba0)"><path d="M 554.0 207.0 L 569.0 207.0 L 569.0 192.0 L 554.0 192.0 Z M 554.0 207.0 " fill="#54C6E1"></path></g></g></g></g><g><clipPath id="clip0x6180052a0de0"><path d="M 0.0 0.0 L 1490.0 0.0 L 1490.0 345.0 L 0.0 345.0 Z M 0.0 0.0 "></path></clipPath><g clip-path="url(#clip0x6180052a0de0)"><path d="M 604.0 165.4 C 604.0 168.1 601.8 170.4 599.0 170.4 C 596.3 170.4 594.0 168.1 594.0 165.4 C 594.0 162.6 596.3 160.4 599.0 160.4 C 601.8 160.4 604.0 162.6 604.0 165.4 Z M 604.0 165.4 " fill="none" stroke="#54C6E1" stroke-width="4.00" transform="matrix(1.00, 0.00, 0.00, -1.00, -37.3, 365.0)"></path></g></g><g><clipPath id="clip0x6180052a1020"><path d="M 750.4 213.2 C 750.4 210.4 748.1 208.2 745.4 208.2 C 742.6 208.2 740.4 210.4 740.4 213.2 C 740.4 215.9 742.6 218.2 745.4 218.2 C 748.1 218.2 750.4 215.9 750.4 213.2 Z M 750.4 213.2 "></path></clipPath><g clip-path="url(#clip0x6180052a1020)"><g><clipPath id="clip0x6180052a11a0"><path d="M 0.0 0.0 L 1490.0 0.0 L 1490.0 345.0 L 0.0 345.0 Z M 0.0 0.0 "></path></clipPath><g clip-path="url(#clip0x6180052a11a0)"><path d="M 738.0 221.0 L 753.0 221.0 L 753.0 206.0 L 738.0 206.0 Z M 738.0 221.0 " fill="#54C6E1"></path></g></g></g></g><g><clipPath id="clip0x6180052a13e0"><path d="M 0.0 0.0 L 1490.0 0.0 L 1490.0 345.0 L 0.0 345.0 Z M 0.0 0.0 "></path></clipPath><g clip-path="url(#clip0x6180052a13e0)"><path d="M 787.7 151.8 C 787.7 154.6 785.4 156.8 782.7 156.8 C 779.9 156.8 777.7 154.6 777.7 151.8 C 777.7 149.1 779.9 146.8 782.7 146.8 C 785.4 146.8 787.7 149.1 787.7 151.8 Z M 787.7 151.8 " fill="none" stroke="#54C6E1" stroke-width="4.00" transform="matrix(1.00, 0.00, 0.00, -1.00, -37.3, 365.0)"></path></g></g><g><clipPath id="clip0x6180052a1620"><path d="M 934.0 155.6 C 934.0 152.8 931.7 150.6 929.0 150.6 C 926.2 150.6 924.0 152.8 924.0 155.6 C 924.0 158.3 926.2 160.6 929.0 160.6 C 931.7 160.6 934.0 158.3 934.0 155.6 Z M 934.0 155.6 "></path></clipPath><g clip-path="url(#clip0x6180052a1620)"><g><clipPath id="clip0x6180052a17a0"><path d="M 0.0 0.0 L 1490.0 0.0 L 1490.0 345.0 L 0.0 345.0 Z M 0.0 0.0 "></path></clipPath><g clip-path="url(#clip0x6180052a17a0)"><path d="M 921.0 163.0 L 936.0 163.0 L 936.0 148.0 L 921.0 148.0 Z M 921.0 163.0 " fill="#54C6E1"></path></g></g></g></g><g><clipPath id="clip0x6180052a19e0"><path d="M 0.0 0.0 L 1490.0 0.0 L 1490.0 345.0 L 0.0 345.0 Z M 0.0 0.0 "></path></clipPath><g clip-path="url(#clip0x6180052a19e0)"><path d="M 971.3 209.5 C 971.3 212.2 969.0 214.5 966.3 214.5 C 963.5 214.5 961.3 212.2 961.3 209.5 C 961.3 206.7 963.5 204.5 966.3 204.5 C 969.0 204.5 971.3 206.7 971.3 209.5 Z M 971.3 209.5 " fill="none" stroke="#54C6E1" stroke-width="4.00" transform="matrix(1.00, 0.00, 0.00, -1.00, -37.3, 365.0)"></path></g></g><g><clipPath id="clip0x6180052a1c20"><path d="M 1117.6 236.9 C 1117.6 234.1 1115.4 231.9 1112.6 231.9 C 1109.9 231.9 1107.6 234.1 1107.6 236.9 C 1107.6 239.7 1109.9 241.9 1112.6 241.9 C 1115.4 241.9 1117.6 239.7 1117.6 236.9 Z M 1117.6 236.9 "></path></clipPath><g clip-path="url(#clip0x6180052a1c20)"><g><clipPath id="clip0x6180052a1da0"><path d="M 0.0 0.0 L 1490.0 0.0 L 1490.0 345.0 L 0.0 345.0 Z M 0.0 0.0 "></path></clipPath><g clip-path="url(#clip0x6180052a1da0)"><path d="M 1105.0 244.0 L 1120.0 244.0 L 1120.0 229.0 L 1105.0 229.0 Z M 1105.0 244.0 " fill="#54C6E1"></path></g></g></g></g><g><clipPath id="clip0x6180052a1fe0"><path d="M 0.0 0.0 L 1490.0 0.0 L 1490.0 345.0 L 0.0 345.0 Z M 0.0 0.0 "></path></clipPath><g clip-path="url(#clip0x6180052a1fe0)"><path d="M 1154.9 128.1 C 1154.9 130.9 1152.7 133.1 1149.9 133.1 C 1147.1 133.1 1144.9 130.9 1144.9 128.1 C 1144.9 125.3 1147.1 123.1 1149.9 123.1 C 1152.7 123.1 1154.9 125.3 1154.9 128.1 Z M 1154.9 128.1 " fill="none" stroke="#54C6E1" stroke-width="4.00" transform="matrix(1.00, 0.00, 0.00, -1.00, -37.3, 365.0)"></path></g></g><g><clipPath id="clip0x6180052a2220"><path d="M 1301.2 247.1 C 1301.2 244.3 1299.0 242.1 1296.2 242.1 C 1293.5 242.1 1291.2 244.3 1291.2 247.1 C 1291.2 249.8 1293.5 252.1 1296.2 252.1 C 1299.0 252.1 1301.2 249.8 1301.2 247.1 Z M 1301.2 247.1 "></path></clipPath><g clip-path="url(#clip0x6180052a2220)"><g><clipPath id="clip0x6180052a23a0"><path d="M 0.0 0.0 L 1490.0 0.0 L 1490.0 345.0 L 0.0 345.0 Z M 0.0 0.0 "></path></clipPath><g clip-path="url(#clip0x6180052a23a0)"><path d="M 1289.0 255.0 L 1304.0 255.0 L 1304.0 240.0 L 1289.0 240.0 Z M 1289.0 255.0 " fill="#54C6E1"></path></g></g></g></g><g><clipPath id="clip0x6180052a25e0"><path d="M 0.0 0.0 L 1490.0 0.0 L 1490.0 345.0 L 0.0 345.0 Z M 0.0 0.0 "></path></clipPath><g clip-path="url(#clip0x6180052a25e0)"><path d="M 1338.5 117.9 C 1338.5 120.7 1336.3 122.9 1333.5 122.9 C 1330.8 122.9 1328.5 120.7 1328.5 117.9 C 1328.5 115.2 1330.8 112.9 1333.5 112.9 C 1336.3 112.9 1338.5 115.2 1338.5 117.9 Z M 1338.5 117.9 " fill="none" stroke="#54C6E1" stroke-width="4.00" transform="matrix(1.00, 0.00, 0.00, -1.00, -37.3, 365.0)"></path></g></g><g><clipPath id="clip0x6180052a2820"><path d="M 1484.9 138.6 C 1484.9 135.8 1482.6 133.6 1479.9 133.6 C 1477.1 133.6 1474.9 135.8 1474.9 138.6 C 1474.9 141.4 1477.1 143.6 1479.9 143.6 C 1482.6 143.6 1484.9 141.4 1484.9 138.6 Z M 1484.9 138.6 "></path></clipPath><g clip-path="url(#clip0x6180052a2820)"><g><clipPath id="clip0x6180052a29a0"><path d="M 0.0 0.0 L 1490.0 0.0 L 1490.0 345.0 L 0.0 345.0 Z M 0.0 0.0 "></path></clipPath><g clip-path="url(#clip0x6180052a29a0)"><path d="M 1472.0 146.0 L 1487.0 146.0 L 1487.0 131.0 L 1472.0 131.0 Z M 1472.0 146.0 " fill="#54C6E1"></path></g></g></g></g><g><clipPath id="clip0x6180052a2be0"><path d="M 0.0 0.0 L 1490.0 0.0 L 1490.0 345.0 L 0.0 345.0 Z M 0.0 0.0 "></path></clipPath><g clip-path="url(#clip0x6180052a2be0)"><path d="M 1522.2 226.4 C 1522.2 229.2 1519.9 231.4 1517.2 231.4 C 1514.4 231.4 1512.2 229.2 1512.2 226.4 C 1512.2 223.6 1514.4 221.4 1517.2 221.4 C 1519.9 221.4 1522.2 223.6 1522.2 226.4 Z M 1522.2 226.4 " fill="none" stroke="#54C6E1" stroke-width="4.00" transform="matrix(1.00, 0.00, 0.00, -1.00, -37.3, 365.0)"></path></g></g></g></g></svg>