<?xml version="1.0" encoding="UTF-8" standalone="no"?><svg xmlns="http://www.w3.org/2000/svg" xmlns:xlink="http://www.w3.org/1999/xlink" clip-rule="evenodd" stroke-miterlimit="10" viewBox="0 0 1542 397"><desc>SVG generated by Keynote</desc><defs></defs><g transform="matrix(1.00, 0.00, -0.00, -1.00, 0.0, 397.0)"><path d="M 48.3 277.5 L 1517.3 277.5 " fill="none" stroke="#677188" stroke-width="1.00" stroke-dasharray="2.0, 2.0" transform="matrix(1.00, 0.00, 0.00, -1.00, 1.7, 395.0)"></path><path d="M 48.3 192.5 L 1517.3 192.5 " fill="none" stroke="#677188" stroke-width="1.00" stroke-dasharray="2.0, 2.0" transform="matrix(1.00, 0.00, 0.00, -1.00, 1.7, 395.0)"></path><path d="M 48.3 107.5 L 1517.3 107.5 " fill="none" stroke="#677188" stroke-width="1.00" stroke-dasharray="2.0, 2.0" transform="matrix(1.00, 0.00, 0.00, -1.00, 1.7, 395.0)"></path><path d="M 48.3 22.5 L 1517.3 22.5 " fill="none" stroke="#677188" stroke-width="1.00" stroke-dasharray="2.0, 2.0" transform="matrix(1.00, 0.00, 0.00, -1.00, 1.7, 395.0)"></path><g><clipPath id="clip0x6000058aee20"><path d="M 11.5 105.3 L 36.1 105.3 L 36.1 130.3 L 11.5 130.3 Z M 11.5 105.3 "></path></clipPath><g clip-path="url(#clip0x6000058aee20)"><text xml:space="preserve" font-family="Helvetica,Helvetica" font-size="19.4" fill="#E2E2E2" transform="matrix(1.00, 0.00, -0.00, -1.00, 13.0, 110.7)">2</text><text xml:space="preserve" font-family="Helvetica,Helvetica" font-size="19.4" fill="#E2E2E2" transform="matrix(1.00, 0.00, -0.00, -1.00, 23.8, 110.7)">5</text></g></g><g><clipPath id="clip0x6180050bb840"><path d="M 11.5 190.0 L 36.1 190.0 L 36.1 215.0 L 11.5 215.0 Z M 11.5 190.0 "></path></clipPath><g clip-path="url(#clip0x6180050bb840)"><text xml:space="preserve" font-family="Helvetica,Helvetica" font-size="19.4" fill="#E2E2E2" transform="matrix(1.00, 0.00, -0.00, -1.00, 13.0, 195.5)">5</text><text xml:space="preserve" font-family="Helvetica,Helvetica" font-size="19.4" fill="#E2E2E2" transform="matrix(1.00, 0.00, -0.00, -1.00, 23.8, 195.5)">0</text></g></g><g><clipPath id="clip0x6180050bbae0"><path d="M 11.5 274.8 L 36.1 274.8 L 36.1 299.8 L 11.5 299.8 Z M 11.5 274.8 "></path></clipPath><g clip-path="url(#clip0x6180050bbae0)"><text xml:space="preserve" font-family="Helvetica,Helvetica" font-size="19.4" fill="#E2E2E2" transform="matrix(1.00, 0.00, -0.00, -1.00, 13.0, 280.2)">7</text><text xml:space="preserve" font-family="Helvetica,Helvetica" font-size="19.4" fill="#E2E2E2" transform="matrix(1.00, 0.00, -0.00, -1.00, 23.8, 280.2)">5</text></g></g><g><clipPath id="clip0x6180050bbc60"><path d="M 0.7 359.5 L 36.1 359.5 L 36.1 384.5 L 0.7 384.5 Z M 0.7 359.5 "></path></clipPath><g clip-path="url(#clip0x6180050bbc60)"><text xml:space="preserve" font-family="Helvetica,Helvetica" font-size="19.4" fill="#E2E2E2" transform="matrix(1.00, 0.00, -0.00, -1.00, 2.2, 365.0)">1</text><text xml:space="preserve" font-family="Helvetica,Helvetica" font-size="19.4" fill="#E2E2E2" transform="matrix(1.00, 0.00, -0.00, -1.00, 13.0, 365.0)">0</text><text xml:space="preserve" font-family="Helvetica,Helvetica" font-size="19.4" fill="#E2E2E2" transform="matrix(1.00, 0.00, -0.00, -1.00, 23.8, 365.0)">0</text></g></g><path d="M 47.8 361.5 L 1516.8 361.5 " fill="none" stroke="#677188" stroke-width="1.00" stroke-linecap="square" transform="matrix(1.00, 0.00, 0.00, -1.00, 1.7, 395.0)"></path><g><clipPath id="clip0x6180050bc020"><path d="M 26.7 0.8 L 73.0 0.8 L 73.0 25.8 L 26.7 25.8 Z M 26.7 0.8 "></path></clipPath><g clip-path="url(#clip0x6180050bc020)"><text xml:space="preserve" font-family="Helvetica,Helvetica" font-size="19.4" fill="#E2E2E2" transform="matrix(1.00, 0.00, -0.00, -1.00, 28.2, 6.3)">2</text><text xml:space="preserve" font-family="Helvetica,Helvetica" font-size="19.4" fill="#E2E2E2" transform="matrix(1.00, 0.00, -0.00, -1.00, 39.1, 6.3)">0</text><text xml:space="preserve" font-family="Helvetica,Helvetica" font-size="19.4" fill="#E2E2E2" transform="matrix(1.00, 0.00, -0.00, -1.00, 49.9, 6.3)">0</text><text xml:space="preserve" font-family="Helvetica,Helvetica" font-size="19.4" fill="#E2E2E2" transform="matrix(1.00, 0.00, -0.00, -1.00, 60.7, 6.3)">9</text></g></g><g><clipPath id="clip0x6180050bc380"><path d="M 210.4 0.8 L 256.6 0.8 L 256.6 25.8 L 210.4 25.8 Z M 210.4 0.8 "></path></clipPath><g clip-path="url(#clip0x6180050bc380)"><text xml:space="preserve" font-family="Helvetica,Helvetica" font-size="19.4" fill="#E2E2E2" transform="matrix(1.00, 0.00, -0.00, -1.00, 211.9, 6.3)">2</text><text xml:space="preserve" font-family="Helvetica,Helvetica" font-size="19.4" fill="#E2E2E2" transform="matrix(1.00, 0.00, -0.00, -1.00, 222.7, 6.3)">0</text><text xml:space="preserve" font-family="Helvetica,Helvetica" font-size="19.4" fill="#E2E2E2" transform="matrix(1.00, 0.00, -0.00, -1.00, 233.5, 6.3)">1</text><text xml:space="preserve" font-family="Helvetica,Helvetica" font-size="19.4" fill="#E2E2E2" transform="matrix(1.00, 0.00, -0.00, -1.00, 244.3, 6.3)">0</text></g></g><g><clipPath id="clip0x6180050bc6e0"><path d="M 394.7 0.8 L 439.5 0.8 L 439.5 25.8 L 394.7 25.8 Z M 394.7 0.8 "></path></clipPath><g clip-path="url(#clip0x6180050bc6e0)"><text xml:space="preserve" font-family="Helvetica,Helvetica" font-size="19.4" fill="#E2E2E2" transform="matrix(1.00, 0.00, -0.00, -1.00, 396.2, 6.3)">2</text><text xml:space="preserve" font-family="Helvetica,Helvetica" font-size="19.4" fill="#E2E2E2" transform="matrix(1.00, 0.00, -0.00, -1.00, 407.0, 6.3)">0</text><text xml:space="preserve" font-family="Helvetica,Helvetica" font-size="19.4" fill="#E2E2E2" transform="matrix(1.00, 0.00, -0.00, -1.00, 417.8, 6.3)">1</text><text xml:space="preserve" font-family="Helvetica,Helvetica" font-size="19.4" fill="#E2E2E2" transform="matrix(1.00, 0.00, -0.00, -1.00, 427.2, 6.3)">1</text></g></g><g><clipPath id="clip0x6180050bca40"><path d="M 577.6 0.8 L 623.9 0.8 L 623.9 25.8 L 577.6 25.8 Z M 577.6 0.8 "></path></clipPath><g clip-path="url(#clip0x6180050bca40)"><text xml:space="preserve" font-family="Helvetica,Helvetica" font-size="19.4" fill="#E2E2E2" transform="matrix(1.00, 0.00, -0.00, -1.00, 579.1, 6.3)">2</text><text xml:space="preserve" font-family="Helvetica,Helvetica" font-size="19.4" fill="#E2E2E2" transform="matrix(1.00, 0.00, -0.00, -1.00, 589.9, 6.3)">0</text><text xml:space="preserve" font-family="Helvetica,Helvetica" font-size="19.4" fill="#E2E2E2" transform="matrix(1.00, 0.00, -0.00, -1.00, 600.7, 6.3)">1</text><text xml:space="preserve" font-family="Helvetica,Helvetica" font-size="19.4" fill="#E2E2E2" transform="matrix(1.00, 0.00, -0.00, -1.00, 611.6, 6.3)">2</text></g></g><g><clipPath id="clip0x6180050bcda0"><path d="M 761.2 0.8 L 807.5 0.8 L 807.5 25.8 L 761.2 25.8 Z M 761.2 0.8 "></path></clipPath><g clip-path="url(#clip0x6180050bcda0)"><text xml:space="preserve" font-family="Helvetica,Helvetica" font-size="19.4" fill="#E2E2E2" transform="matrix(1.00, 0.00, -0.00, -1.00, 762.7, 6.3)">2</text><text xml:space="preserve" font-family="Helvetica,Helvetica" font-size="19.4" fill="#E2E2E2" transform="matrix(1.00, 0.00, -0.00, -1.00, 773.6, 6.3)">0</text><text xml:space="preserve" font-family="Helvetica,Helvetica" font-size="19.4" fill="#E2E2E2" transform="matrix(1.00, 0.00, -0.00, -1.00, 784.4, 6.3)">1</text><text xml:space="preserve" font-family="Helvetica,Helvetica" font-size="19.4" fill="#E2E2E2" transform="matrix(1.00, 0.00, -0.00, -1.00, 795.2, 6.3)">3</text></g></g><g><clipPath id="clip0x6180050bd100"><path d="M 944.9 0.8 L 991.1 0.8 L 991.1 25.8 L 944.9 25.8 Z M 944.9 0.8 "></path></clipPath><g clip-path="url(#clip0x6180050bd100)"><text xml:space="preserve" font-family="Helvetica,Helvetica" font-size="19.4" fill="#E2E2E2" transform="matrix(1.00, 0.00, -0.00, -1.00, 946.4, 6.3)">2</text><text xml:space="preserve" font-family="Helvetica,Helvetica" font-size="19.4" fill="#E2E2E2" transform="matrix(1.00, 0.00, -0.00, -1.00, 957.2, 6.3)">0</text><text xml:space="preserve" font-family="Helvetica,Helvetica" font-size="19.4" fill="#E2E2E2" transform="matrix(1.00, 0.00, -0.00, -1.00, 968.0, 6.3)">1</text><text xml:space="preserve" font-family="Helvetica,Helvetica" font-size="19.4" fill="#E2E2E2" transform="matrix(1.00, 0.00, -0.00, -1.00, 978.8, 6.3)">4</text></g></g><g><clipPath id="clip0x6180050bd460"><path d="M 1128.5 0.8 L 1174.7 0.8 L 1174.7 25.8 L 1128.5 25.8 Z M 1128.5 0.8 "></path></clipPath><g clip-path="url(#clip0x6180050bd460)"><text xml:space="preserve" font-family="Helvetica,Helvetica" font-size="19.4" fill="#E2E2E2" transform="matrix(1.00, 0.00, -0.00, -1.00, 1130.0, 6.3)">2</text><text xml:space="preserve" font-family="Helvetica,Helvetica" font-size="19.4" fill="#E2E2E2" transform="matrix(1.00, 0.00, -0.00, -1.00, 1140.8, 6.3)">0</text><text xml:space="preserve" font-family="Helvetica,Helvetica" font-size="19.4" fill="#E2E2E2" transform="matrix(1.00, 0.00, -0.00, -1.00, 1151.6, 6.3)">1</text><text xml:space="preserve" font-family="Helvetica,Helvetica" font-size="19.4" fill="#E2E2E2" transform="matrix(1.00, 0.00, -0.00, -1.00, 1162.4, 6.3)">5</text></g></g><g><clipPath id="clip0x6180050bd7c0"><path d="M 1312.1 0.8 L 1358.4 0.8 L 1358.4 25.8 L 1312.1 25.8 Z M 1312.1 0.8 "></path></clipPath><g clip-path="url(#clip0x6180050bd7c0)"><text xml:space="preserve" font-family="Helvetica,Helvetica" font-size="19.4" fill="#E2E2E2" transform="matrix(1.00, 0.00, -0.00, -1.00, 1313.6, 6.3)">2</text><text xml:space="preserve" font-family="Helvetica,Helvetica" font-size="19.4" fill="#E2E2E2" transform="matrix(1.00, 0.00, -0.00, -1.00, 1324.4, 6.3)">0</text><text xml:space="preserve" font-family="Helvetica,Helvetica" font-size="19.4" fill="#E2E2E2" transform="matrix(1.00, 0.00, -0.00, -1.00, 1335.2, 6.3)">1</text><text xml:space="preserve" font-family="Helvetica,Helvetica" font-size="19.4" fill="#E2E2E2" transform="matrix(1.00, 0.00, -0.00, -1.00, 1346.1, 6.3)">6</text></g></g><g><clipPath id="clip0x6180050bdb20"><path d="M 1495.7 0.8 L 1542.0 0.8 L 1542.0 25.8 L 1495.7 25.8 Z M 1495.7 0.8 "></path></clipPath><g clip-path="url(#clip0x6180050bdb20)"><text xml:space="preserve" font-family="Helvetica,Helvetica" font-size="19.4" fill="#E2E2E2" transform="matrix(1.00, 0.00, -0.00, -1.00, 1497.2, 6.3)">2</text><text xml:space="preserve" font-family="Helvetica,Helvetica" font-size="19.4" fill="#E2E2E2" transform="matrix(1.00, 0.00, -0.00, -1.00, 1508.1, 6.3)">0</text><text xml:space="preserve" font-family="Helvetica,Helvetica" font-size="19.4" fill="#E2E2E2" transform="matrix(1.00, 0.00, -0.00, -1.00, 1518.9, 6.3)">1</text><text xml:space="preserve" font-family="Helvetica,Helvetica" font-size="19.4" fill="#E2E2E2" transform="matrix(1.00, 0.00, -0.00, -1.00, 1529.7, 6.3)">7</text></g></g></g></svg>