<?xml version="1.0" encoding="UTF-8" standalone="no"?><svg xmlns="http://www.w3.org/2000/svg" xmlns:xlink="http://www.w3.org/1999/xlink" clip-rule="evenodd" stroke-miterlimit="10" viewBox="0 0 435 283"><desc>SVG generated by Keynote</desc><defs></defs><g transform="matrix(1.00, 0.00, -0.00, -1.00, 0.0, 283.0)"><g><clipPath id="clip0x6080074b8f60"><path d="M 0.3 0.3 L 434.9 0.3 L 434.9 282.3 L 0.3 282.3 Z M 0.3 0.3 "></path></clipPath><g clip-path="url(#clip0x6080074b8f60)"><image xlink:href="E93C60BE86C268A276822E8EC8C2B9E4.png" width="433.00" height="280.00" transform="matrix(1.00, 0.00, -0.00, -1.00, 1.3, 281.3)" opacity="0.50"></image><path d="M 22.0 18.8 C 27.7 36.3 37.6 52.0 51.2 64.2 C 70.0 81.0 94.5 90.2 119.8 89.7 L 328.9 90.7 C 376.4 89.2 415.9 127.2 416.1 174.8 C 416.4 223.1 376.4 261.8 328.1 260.0 L 69.5 261.0 C 56.6 261.9 43.8 256.8 34.6 247.6 C 25.4 238.4 21.1 225.7 22.0 212.7 L 22.0 18.8 Z M 22.5 18.8 " fill="#4FB18F"></path></g></g><g><clipPath id="clip0x6080074b9680"><path d="M 20.5 32.1 L 416.9 32.1 L 416.9 275.9 L 20.5 275.9 Z M 20.5 32.1 "></path></clipPath><g clip-path="url(#clip0x6080074b9680)"><path d="M 22.0 33.1 C 27.7 50.5 37.6 66.2 51.2 78.4 C 70.0 95.3 94.5 104.4 119.7 104.0 L 328.7 105.0 C 376.2 103.5 415.6 141.4 415.9 189.0 C 416.2 237.2 376.2 275.8 328.0 274.0 L 69.5 275.0 C 56.5 275.9 43.8 271.0 34.6 261.8 C 25.4 252.6 21.1 239.8 22.0 226.9 L 22.0 33.1 Z M 22.5 33.1 " fill="#62D7AD"></path></g></g><g><clipPath id="clip0x6080074b98c0"><path d="M 133.8 125.9 L 349.7 125.9 L 349.7 222.8 L 133.8 222.8 Z M 133.8 125.9 "></path></clipPath><g clip-path="url(#clip0x6080074b98c0)"><text xml:space="preserve" font-family="Helvetica,Helvetica" font-size="16.0" fill="#367E63" transform="matrix(1.00, 0.00, -0.00, -1.00, 148.3, 187.5)">L</text><text xml:space="preserve" font-family="Helvetica,Helvetica" font-size="16.0" fill="#367E63" transform="matrix(1.00, 0.00, -0.00, -1.00, 157.2, 187.5)">o</text><text xml:space="preserve" font-family="Helvetica,Helvetica" font-size="16.0" fill="#367E63" transform="matrix(1.00, 0.00, -0.00, -1.00, 166.1, 187.5)">r</text><text xml:space="preserve" font-family="Helvetica,Helvetica" font-size="16.0" fill="#367E63" transform="matrix(1.00, 0.00, -0.00, -1.00, 171.4, 187.5)">e</text><text xml:space="preserve" font-family="Helvetica,Helvetica" font-size="16.0" fill="#367E63" transform="matrix(1.00, 0.00, -0.00, -1.00, 180.3, 187.5)">m</text><text xml:space="preserve" font-family="Helvetica,Helvetica" font-size="16.0" fill="#367E63" transform="matrix(1.00, 0.00, -0.00, -1.00, 193.7, 187.5)"> </text><text xml:space="preserve" font-family="Helvetica,Helvetica" font-size="16.0" fill="#367E63" transform="matrix(1.00, 0.00, -0.00, -1.00, 198.1, 187.5)">i</text><text xml:space="preserve" font-family="Helvetica,Helvetica" font-size="16.0" fill="#367E63" transform="matrix(1.00, 0.00, -0.00, -1.00, 201.7, 187.5)">p</text><text xml:space="preserve" font-family="Helvetica,Helvetica" font-size="16.0" fill="#367E63" transform="matrix(1.00, 0.00, -0.00, -1.00, 210.6, 187.5)">s</text><text xml:space="preserve" font-family="Helvetica,Helvetica" font-size="16.0" fill="#367E63" transform="matrix(1.00, 0.00, -0.00, -1.00, 218.6, 187.5)">u</text><text xml:space="preserve" font-family="Helvetica,Helvetica" font-size="16.0" fill="#367E63" transform="matrix(1.00, 0.00, -0.00, -1.00, 227.5, 187.5)">m</text><text xml:space="preserve" font-family="Helvetica,Helvetica" font-size="16.0" fill="#367E63" transform="matrix(1.00, 0.00, -0.00, -1.00, 240.8, 187.5)"> </text><text xml:space="preserve" font-family="Helvetica,Helvetica" font-size="16.0" fill="#367E63" transform="matrix(1.00, 0.00, -0.00, -1.00, 245.2, 187.5)">d</text><text xml:space="preserve" font-family="Helvetica,Helvetica" font-size="16.0" fill="#367E63" transform="matrix(1.00, 0.00, -0.00, -1.00, 254.1, 187.5)">o</text><text xml:space="preserve" font-family="Helvetica,Helvetica" font-size="16.0" fill="#367E63" transform="matrix(1.00, 0.00, -0.00, -1.00, 263.0, 187.5)">l</text><text xml:space="preserve" font-family="Helvetica,Helvetica" font-size="16.0" fill="#367E63" transform="matrix(1.00, 0.00, -0.00, -1.00, 266.6, 187.5)">o</text><text xml:space="preserve" font-family="Helvetica,Helvetica" font-size="16.0" fill="#367E63" transform="matrix(1.00, 0.00, -0.00, -1.00, 275.5, 187.5)">r</text><text xml:space="preserve" font-family="Helvetica,Helvetica" font-size="16.0" fill="#367E63" transform="matrix(1.00, 0.00, -0.00, -1.00, 280.8, 187.5)"> </text><text xml:space="preserve" font-family="Helvetica,Helvetica" font-size="16.0" fill="#367E63" transform="matrix(1.00, 0.00, -0.00, -1.00, 285.3, 187.5)">s</text><text xml:space="preserve" font-family="Helvetica,Helvetica" font-size="16.0" fill="#367E63" transform="matrix(1.00, 0.00, -0.00, -1.00, 293.3, 187.5)">i</text><text xml:space="preserve" font-family="Helvetica,Helvetica" font-size="16.0" fill="#367E63" transform="matrix(1.00, 0.00, -0.00, -1.00, 296.8, 187.5)">t</text><text xml:space="preserve" font-family="Helvetica,Helvetica" font-size="16.0" fill="#367E63" transform="matrix(1.00, 0.00, -0.00, -1.00, 301.3, 187.5)"> </text><text xml:space="preserve" font-family="Helvetica,Helvetica" font-size="16.0" fill="#367E63" transform="matrix(1.00, 0.00, -0.00, -1.00, 305.7, 187.5)">a</text><text xml:space="preserve" font-family="Helvetica,Helvetica" font-size="16.0" fill="#367E63" transform="matrix(1.00, 0.00, -0.00, -1.00, 314.6, 187.5)">m</text><text xml:space="preserve" font-family="Helvetica,Helvetica" font-size="16.0" fill="#367E63" transform="matrix(1.00, 0.00, -0.00, -1.00, 327.9, 187.5)">e</text><text xml:space="preserve" font-family="Helvetica,Helvetica" font-size="16.0" fill="#367E63" transform="matrix(1.00, 0.00, -0.00, -1.00, 336.8, 187.5)">t</text><text xml:space="preserve" font-family="Helvetica,Helvetica" font-size="16.0" fill="#367E63" transform="matrix(1.00, 0.00, -0.00, -1.00, 341.3, 187.5)">,</text><text xml:space="preserve" font-family="Helvetica,Helvetica" font-size="16.0" fill="#367E63" transform="matrix(1.00, 0.00, -0.00, -1.00, 345.7, 187.5)"> </text><text xml:space="preserve" font-family="Helvetica,Helvetica" font-size="16.0" fill="#367E63" transform="matrix(1.00, 0.00, -0.00, -1.00, 186.5, 168.5)">c</text><text xml:space="preserve" font-family="Helvetica,Helvetica" font-size="16.0" fill="#367E63" transform="matrix(1.00, 0.00, -0.00, -1.00, 194.5, 168.5)">o</text><text xml:space="preserve" font-family="Helvetica,Helvetica" font-size="16.0" fill="#367E63" transform="matrix(1.00, 0.00, -0.00, -1.00, 203.4, 168.5)">n</text><text xml:space="preserve" font-family="Helvetica,Helvetica" font-size="16.0" fill="#367E63" transform="matrix(1.00, 0.00, -0.00, -1.00, 212.3, 168.5)">s</text><text xml:space="preserve" font-family="Helvetica,Helvetica" font-size="16.0" fill="#367E63" transform="matrix(1.00, 0.00, -0.00, -1.00, 220.3, 168.5)">e</text><text xml:space="preserve" font-family="Helvetica,Helvetica" font-size="16.0" fill="#367E63" transform="matrix(1.00, 0.00, -0.00, -1.00, 229.2, 168.5)">c</text><text xml:space="preserve" font-family="Helvetica,Helvetica" font-size="16.0" fill="#367E63" transform="matrix(1.00, 0.00, -0.00, -1.00, 237.2, 168.5)">t</text><text xml:space="preserve" font-family="Helvetica,Helvetica" font-size="16.0" fill="#367E63" transform="matrix(1.00, 0.00, -0.00, -1.00, 241.7, 168.5)">e</text><text xml:space="preserve" font-family="Helvetica,Helvetica" font-size="16.0" fill="#367E63" transform="matrix(1.00, 0.00, -0.00, -1.00, 250.6, 168.5)">t</text><text xml:space="preserve" font-family="Helvetica,Helvetica" font-size="16.0" fill="#367E63" transform="matrix(1.00, 0.00, -0.00, -1.00, 255.0, 168.5)">u</text><text xml:space="preserve" font-family="Helvetica,Helvetica" font-size="16.0" fill="#367E63" transform="matrix(1.00, 0.00, -0.00, -1.00, 263.9, 168.5)">e</text><text xml:space="preserve" font-family="Helvetica,Helvetica" font-size="16.0" fill="#367E63" transform="matrix(1.00, 0.00, -0.00, -1.00, 272.8, 168.5)">r</text><text xml:space="preserve" font-family="Helvetica,Helvetica" font-size="16.0" fill="#367E63" transform="matrix(1.00, 0.00, -0.00, -1.00, 278.1, 168.5)"> </text><text xml:space="preserve" font-family="Helvetica,Helvetica" font-size="16.0" fill="#367E63" transform="matrix(1.00, 0.00, -0.00, -1.00, 282.6, 168.5)">a</text><text xml:space="preserve" font-family="Helvetica,Helvetica" font-size="16.0" fill="#367E63" transform="matrix(1.00, 0.00, -0.00, -1.00, 291.5, 168.5)">d</text><text xml:space="preserve" font-family="Helvetica,Helvetica" font-size="16.0" fill="#367E63" transform="matrix(1.00, 0.00, -0.00, -1.00, 300.4, 168.5)">i</text><text xml:space="preserve" font-family="Helvetica,Helvetica" font-size="16.0" fill="#367E63" transform="matrix(1.00, 0.00, -0.00, -1.00, 303.9, 168.5)">p</text><text xml:space="preserve" font-family="Helvetica,Helvetica" font-size="16.0" fill="#367E63" transform="matrix(1.00, 0.00, -0.00, -1.00, 312.8, 168.5)">i</text><text xml:space="preserve" font-family="Helvetica,Helvetica" font-size="16.0" fill="#367E63" transform="matrix(1.00, 0.00, -0.00, -1.00, 316.4, 168.5)">s</text><text xml:space="preserve" font-family="Helvetica,Helvetica" font-size="16.0" fill="#367E63" transform="matrix(1.00, 0.00, -0.00, -1.00, 324.4, 168.5)">c</text><text xml:space="preserve" font-family="Helvetica,Helvetica" font-size="16.0" fill="#367E63" transform="matrix(1.00, 0.00, -0.00, -1.00, 332.4, 168.5)">m</text><text xml:space="preserve" font-family="Helvetica,Helvetica" font-size="16.0" fill="#367E63" transform="matrix(1.00, 0.00, -0.00, -1.00, 345.7, 168.5)"> </text><text xml:space="preserve" font-family="Helvetica,Helvetica" font-size="16.0" fill="#367E63" transform="matrix(1.00, 0.00, -0.00, -1.00, 145.6, 149.5)">n</text><text xml:space="preserve" font-family="Helvetica,Helvetica" font-size="16.0" fill="#367E63" transform="matrix(1.00, 0.00, -0.00, -1.00, 154.5, 149.5)">o</text><text xml:space="preserve" font-family="Helvetica,Helvetica" font-size="16.0" fill="#367E63" transform="matrix(1.00, 0.00, -0.00, -1.00, 163.4, 149.5)">n</text><text xml:space="preserve" font-family="Helvetica,Helvetica" font-size="16.0" fill="#367E63" transform="matrix(1.00, 0.00, -0.00, -1.00, 172.3, 149.5)">u</text><text xml:space="preserve" font-family="Helvetica,Helvetica" font-size="16.0" fill="#367E63" transform="matrix(1.00, 0.00, -0.00, -1.00, 181.2, 149.5)">m</text><text xml:space="preserve" font-family="Helvetica,Helvetica" font-size="16.0" fill="#367E63" transform="matrix(1.00, 0.00, -0.00, -1.00, 194.5, 149.5)">m</text><text xml:space="preserve" font-family="Helvetica,Helvetica" font-size="16.0" fill="#367E63" transform="matrix(1.00, 0.00, -0.00, -1.00, 207.9, 149.5)">y</text><text xml:space="preserve" font-family="Helvetica,Helvetica" font-size="16.0" fill="#367E63" transform="matrix(1.00, 0.00, -0.00, -1.00, 215.9, 149.5)"> </text><text xml:space="preserve" font-family="Helvetica,Helvetica" font-size="16.0" fill="#367E63" transform="matrix(1.00, 0.00, -0.00, -1.00, 220.3, 149.5)">n</text><text xml:space="preserve" font-family="Helvetica,Helvetica" font-size="16.0" fill="#367E63" transform="matrix(1.00, 0.00, -0.00, -1.00, 229.2, 149.5)">i</text><text xml:space="preserve" font-family="Helvetica,Helvetica" font-size="16.0" fill="#367E63" transform="matrix(1.00, 0.00, -0.00, -1.00, 232.8, 149.5)">b</text><text xml:space="preserve" font-family="Helvetica,Helvetica" font-size="16.0" fill="#367E63" transform="matrix(1.00, 0.00, -0.00, -1.00, 241.7, 149.5)">h</text><text xml:space="preserve" font-family="Helvetica,Helvetica" font-size="16.0" fill="#367E63" transform="matrix(1.00, 0.00, -0.00, -1.00, 250.6, 149.5)"> </text><text xml:space="preserve" font-family="Helvetica,Helvetica" font-size="16.0" fill="#367E63" transform="matrix(1.00, 0.00, -0.00, -1.00, 255.0, 149.5)">e</text><text xml:space="preserve" font-family="Helvetica,Helvetica" font-size="16.0" fill="#367E63" transform="matrix(1.00, 0.00, -0.00, -1.00, 263.9, 149.5)">u</text><text xml:space="preserve" font-family="Helvetica,Helvetica" font-size="16.0" fill="#367E63" transform="matrix(1.00, 0.00, -0.00, -1.00, 272.8, 149.5)">i</text><text xml:space="preserve" font-family="Helvetica,Helvetica" font-size="16.0" fill="#367E63" transform="matrix(1.00, 0.00, -0.00, -1.00, 276.4, 149.5)"> </text><text xml:space="preserve" font-family="Helvetica,Helvetica" font-size="16.0" fill="#367E63" transform="matrix(1.00, 0.00, -0.00, -1.00, 280.8, 149.5)">a</text><text xml:space="preserve" font-family="Helvetica,Helvetica" font-size="16.0" fill="#367E63" transform="matrix(1.00, 0.00, -0.00, -1.00, 289.7, 149.5)">l</text><text xml:space="preserve" font-family="Helvetica,Helvetica" font-size="16.0" fill="#367E63" transform="matrix(1.00, 0.00, -0.00, -1.00, 293.3, 149.5)">i</text><text xml:space="preserve" font-family="Helvetica,Helvetica" font-size="16.0" fill="#367E63" transform="matrix(1.00, 0.00, -0.00, -1.00, 296.8, 149.5)">q</text><text xml:space="preserve" font-family="Helvetica,Helvetica" font-size="16.0" fill="#367E63" transform="matrix(1.00, 0.00, -0.00, -1.00, 305.7, 149.5)">u</text><text xml:space="preserve" font-family="Helvetica,Helvetica" font-size="16.0" fill="#367E63" transform="matrix(1.00, 0.00, -0.00, -1.00, 314.6, 149.5)">a</text><text xml:space="preserve" font-family="Helvetica,Helvetica" font-size="16.0" fill="#367E63" transform="matrix(1.00, 0.00, -0.00, -1.00, 323.5, 149.5)">m</text><text xml:space="preserve" font-family="Helvetica,Helvetica" font-size="16.0" fill="#367E63" transform="matrix(1.00, 0.00, -0.00, -1.00, 336.9, 149.5)"> </text><text xml:space="preserve" font-family="Helvetica,Helvetica" font-size="16.0" fill="#367E63" transform="matrix(1.00, 0.00, -0.00, -1.00, 341.3, 149.5)">.</text></g></g><g><clipPath id="clip0x6080074bb720"><path d="M 132.4 213.4 L 352.2 213.4 L 352.2 241.4 L 132.4 241.4 Z M 132.4 213.4 "></path></clipPath><g clip-path="url(#clip0x6080074bb720)"><text xml:space="preserve" font-family="Helvetica,Helvetica" font-size="24.0" fill="#307058" transform="matrix(1.00, 0.00, -0.00, -1.00, 143.5, 217.9)">T</text><text xml:space="preserve" font-family="Helvetica,Helvetica" font-size="24.0" fill="#307058" transform="matrix(1.00, 0.00, -0.00, -1.00, 158.2, 217.9)">I</text><text xml:space="preserve" font-family="Helvetica,Helvetica" font-size="24.0" fill="#307058" transform="matrix(1.00, 0.00, -0.00, -1.00, 164.8, 217.9)">T</text><text xml:space="preserve" font-family="Helvetica,Helvetica" font-size="24.0" fill="#307058" transform="matrix(1.00, 0.00, -0.00, -1.00, 179.5, 217.9)">L</text><text xml:space="preserve" font-family="Helvetica,Helvetica" font-size="24.0" fill="#307058" transform="matrix(1.00, 0.00, -0.00, -1.00, 192.8, 217.9)">E</text><text xml:space="preserve" font-family="Helvetica,Helvetica" font-size="24.0" fill="#307058" transform="matrix(1.00, 0.00, -0.00, -1.00, 208.9, 217.9)"> </text><text xml:space="preserve" font-family="Helvetica,Helvetica" font-size="24.0" fill="#307058" transform="matrix(1.00, 0.00, -0.00, -1.00, 215.5, 217.9)">L</text><text xml:space="preserve" font-family="Helvetica,Helvetica" font-size="24.0" fill="#307058" transform="matrix(1.00, 0.00, -0.00, -1.00, 228.9, 217.9)">O</text><text xml:space="preserve" font-family="Helvetica,Helvetica" font-size="24.0" fill="#307058" transform="matrix(1.00, 0.00, -0.00, -1.00, 247.5, 217.9)">R</text><text xml:space="preserve" font-family="Helvetica,Helvetica" font-size="24.0" fill="#307058" transform="matrix(1.00, 0.00, -0.00, -1.00, 264.9, 217.9)">E</text><text xml:space="preserve" font-family="Helvetica,Helvetica" font-size="24.0" fill="#307058" transform="matrix(1.00, 0.00, -0.00, -1.00, 280.9, 217.9)">M</text><text xml:space="preserve" font-family="Helvetica,Helvetica" font-size="24.0" fill="#307058" transform="matrix(1.00, 0.00, -0.00, -1.00, 300.9, 217.9)"> </text><text xml:space="preserve" font-family="Helvetica,Helvetica" font-size="24.0" fill="#307058" transform="matrix(1.00, 0.00, -0.00, -1.00, 307.5, 217.9)">I</text><text xml:space="preserve" font-family="Helvetica,Helvetica" font-size="24.0" fill="#307058" transform="matrix(1.00, 0.00, -0.00, -1.00, 314.2, 217.9)">P</text><text xml:space="preserve" font-family="Helvetica,Helvetica" font-size="24.0" fill="#307058" transform="matrix(1.00, 0.00, -0.00, -1.00, 330.2, 217.9)">S</text></g></g><g><clipPath id="clip0x6080074bbea0"><path d="M 27.8 143.0 L 141.2 143.0 L 141.2 250.9 L 27.8 250.9 Z M 27.8 143.0 "></path></clipPath><g clip-path="url(#clip0x6080074bbea0)"><text xml:space="preserve" font-family="Sosa-Regular,Sosa" font-size="70.0" fill="#2F6F57" transform="matrix(1.00, 0.00, -0.00, -1.00, 49.5, 181.9)">Z</text></g></g></g></svg>