<?xml version="1.0" encoding="UTF-8" standalone="no"?><svg xmlns="http://www.w3.org/2000/svg" xmlns:xlink="http://www.w3.org/1999/xlink" clip-rule="evenodd" stroke-miterlimit="10" viewBox="0 0 435 289"><desc>SVG generated by Keynote</desc><defs></defs><g transform="matrix(1.00, 0.00, -0.00, -1.00, 0.0, 289.0)"><g><clipPath id="clip0x618007aa3720"><path d="M 0.5 0.2 L 434.4 0.2 L 434.4 288.7 L 0.5 288.7 Z M 0.5 0.2 "></path></clipPath><g clip-path="url(#clip0x618007aa3720)"><image xlink:href="AD60E127E7E5143BCA90DEA37DA8F571.png" width="432.00" height="286.00" transform="matrix(1.00, 0.00, -0.00, -1.00, 1.5, 287.7)"></image><path d="M 30.0 29.2 C 35.4 45.9 44.9 60.8 57.8 72.4 C 75.8 88.5 99.1 97.4 123.2 97.0 L 322.3 98.0 C 367.5 96.6 405.1 132.5 405.4 177.8 C 405.7 223.8 367.5 260.7 321.6 259.0 L 75.3 260.0 C 62.9 260.9 50.8 255.9 42.0 247.2 C 33.3 238.4 29.1 226.3 30.0 213.9 L 30.0 29.2 Z M 30.5 29.2 " fill="#DC526B"></path></g></g><g><clipPath id="clip0x6000086bf740"><path d="M 28.5 41.8 L 406.4 41.8 L 406.4 274.2 L 28.5 274.2 Z M 28.5 41.8 "></path></clipPath><g clip-path="url(#clip0x6000086bf740)"><path d="M 30.0 42.8 C 35.4 59.4 44.9 74.4 57.8 86.0 C 75.8 102.1 99.1 110.4 123.2 110.0 L 322.3 111.0 C 367.5 109.6 405.1 146.0 405.4 191.3 C 405.7 237.3 367.5 274.7 321.6 273.0 L 75.3 273.0 C 62.9 273.9 50.8 269.5 42.0 260.7 C 33.3 251.9 29.1 239.8 30.0 227.5 L 30.0 42.8 Z M 30.5 42.8 " fill="#FF607B"></path></g></g><g><clipPath id="clip0x6000086bfb60"><path d="M 92.5 132.2 L 299.0 132.2 L 299.0 197.2 L 92.5 197.2 Z M 92.5 132.2 "></path></clipPath><g clip-path="url(#clip0x6000086bfb60)"><text xml:space="preserve" font-family="Helvetica,Helvetica" font-size="16.0" fill="#581A25" transform="matrix(1.00, 0.00, -0.00, -1.00, 96.5, 177.9)">L</text><text xml:space="preserve" font-family="Helvetica,Helvetica" font-size="16.0" fill="#581A25" transform="matrix(1.00, 0.00, -0.00, -1.00, 105.4, 177.9)">o</text><text xml:space="preserve" font-family="Helvetica,Helvetica" font-size="16.0" fill="#581A25" transform="matrix(1.00, 0.00, -0.00, -1.00, 114.3, 177.9)">r</text><text xml:space="preserve" font-family="Helvetica,Helvetica" font-size="16.0" fill="#581A25" transform="matrix(1.00, 0.00, -0.00, -1.00, 119.7, 177.9)">e</text><text xml:space="preserve" font-family="Helvetica,Helvetica" font-size="16.0" fill="#581A25" transform="matrix(1.00, 0.00, -0.00, -1.00, 128.6, 177.9)">m</text><text xml:space="preserve" font-family="Helvetica,Helvetica" font-size="16.0" fill="#581A25" transform="matrix(1.00, 0.00, -0.00, -1.00, 141.9, 177.9)"> </text><text xml:space="preserve" font-family="Helvetica,Helvetica" font-size="16.0" fill="#581A25" transform="matrix(1.00, 0.00, -0.00, -1.00, 146.3, 177.9)">i</text><text xml:space="preserve" font-family="Helvetica,Helvetica" font-size="16.0" fill="#581A25" transform="matrix(1.00, 0.00, -0.00, -1.00, 149.9, 177.9)">p</text><text xml:space="preserve" font-family="Helvetica,Helvetica" font-size="16.0" fill="#581A25" transform="matrix(1.00, 0.00, -0.00, -1.00, 158.8, 177.9)">s</text><text xml:space="preserve" font-family="Helvetica,Helvetica" font-size="16.0" fill="#581A25" transform="matrix(1.00, 0.00, -0.00, -1.00, 166.8, 177.9)">u</text><text xml:space="preserve" font-family="Helvetica,Helvetica" font-size="16.0" fill="#581A25" transform="matrix(1.00, 0.00, -0.00, -1.00, 175.7, 177.9)">m</text><text xml:space="preserve" font-family="Helvetica,Helvetica" font-size="16.0" fill="#581A25" transform="matrix(1.00, 0.00, -0.00, -1.00, 189.0, 177.9)"> </text><text xml:space="preserve" font-family="Helvetica,Helvetica" font-size="16.0" fill="#581A25" transform="matrix(1.00, 0.00, -0.00, -1.00, 193.5, 177.9)">d</text><text xml:space="preserve" font-family="Helvetica,Helvetica" font-size="16.0" fill="#581A25" transform="matrix(1.00, 0.00, -0.00, -1.00, 202.4, 177.9)">o</text><text xml:space="preserve" font-family="Helvetica,Helvetica" font-size="16.0" fill="#581A25" transform="matrix(1.00, 0.00, -0.00, -1.00, 211.3, 177.9)">l</text><text xml:space="preserve" font-family="Helvetica,Helvetica" font-size="16.0" fill="#581A25" transform="matrix(1.00, 0.00, -0.00, -1.00, 214.8, 177.9)">o</text><text xml:space="preserve" font-family="Helvetica,Helvetica" font-size="16.0" fill="#581A25" transform="matrix(1.00, 0.00, -0.00, -1.00, 223.7, 177.9)">r</text><text xml:space="preserve" font-family="Helvetica,Helvetica" font-size="16.0" fill="#581A25" transform="matrix(1.00, 0.00, -0.00, -1.00, 229.1, 177.9)"> </text><text xml:space="preserve" font-family="Helvetica,Helvetica" font-size="16.0" fill="#581A25" transform="matrix(1.00, 0.00, -0.00, -1.00, 233.5, 177.9)">s</text><text xml:space="preserve" font-family="Helvetica,Helvetica" font-size="16.0" fill="#581A25" transform="matrix(1.00, 0.00, -0.00, -1.00, 241.5, 177.9)">i</text><text xml:space="preserve" font-family="Helvetica,Helvetica" font-size="16.0" fill="#581A25" transform="matrix(1.00, 0.00, -0.00, -1.00, 245.1, 177.9)">t</text><text xml:space="preserve" font-family="Helvetica,Helvetica" font-size="16.0" fill="#581A25" transform="matrix(1.00, 0.00, -0.00, -1.00, 249.5, 177.9)"> </text><text xml:space="preserve" font-family="Helvetica,Helvetica" font-size="16.0" fill="#581A25" transform="matrix(1.00, 0.00, -0.00, -1.00, 253.9, 177.9)">a</text><text xml:space="preserve" font-family="Helvetica,Helvetica" font-size="16.0" fill="#581A25" transform="matrix(1.00, 0.00, -0.00, -1.00, 262.8, 177.9)">m</text><text xml:space="preserve" font-family="Helvetica,Helvetica" font-size="16.0" fill="#581A25" transform="matrix(1.00, 0.00, -0.00, -1.00, 276.2, 177.9)">e</text><text xml:space="preserve" font-family="Helvetica,Helvetica" font-size="16.0" fill="#581A25" transform="matrix(1.00, 0.00, -0.00, -1.00, 285.1, 177.9)">t</text><text xml:space="preserve" font-family="Helvetica,Helvetica" font-size="16.0" fill="#581A25" transform="matrix(1.00, 0.00, -0.00, -1.00, 289.5, 177.9)">,</text><text xml:space="preserve" font-family="Helvetica,Helvetica" font-size="16.0" fill="#581A25" transform="matrix(1.00, 0.00, -0.00, -1.00, 294.0, 177.9)"> </text><text xml:space="preserve" font-family="Helvetica,Helvetica" font-size="16.0" fill="#581A25" transform="matrix(1.00, 0.00, -0.00, -1.00, 96.5, 158.9)">c</text><text xml:space="preserve" font-family="Helvetica,Helvetica" font-size="16.0" fill="#581A25" transform="matrix(1.00, 0.00, -0.00, -1.00, 104.5, 158.9)">o</text><text xml:space="preserve" font-family="Helvetica,Helvetica" font-size="16.0" fill="#581A25" transform="matrix(1.00, 0.00, -0.00, -1.00, 113.4, 158.9)">n</text><text xml:space="preserve" font-family="Helvetica,Helvetica" font-size="16.0" fill="#581A25" transform="matrix(1.00, 0.00, -0.00, -1.00, 122.3, 158.9)">s</text><text xml:space="preserve" font-family="Helvetica,Helvetica" font-size="16.0" fill="#581A25" transform="matrix(1.00, 0.00, -0.00, -1.00, 130.3, 158.9)">e</text><text xml:space="preserve" font-family="Helvetica,Helvetica" font-size="16.0" fill="#581A25" transform="matrix(1.00, 0.00, -0.00, -1.00, 139.2, 158.9)">c</text><text xml:space="preserve" font-family="Helvetica,Helvetica" font-size="16.0" fill="#581A25" transform="matrix(1.00, 0.00, -0.00, -1.00, 147.2, 158.9)">t</text><text xml:space="preserve" font-family="Helvetica,Helvetica" font-size="16.0" fill="#581A25" transform="matrix(1.00, 0.00, -0.00, -1.00, 151.7, 158.9)">e</text><text xml:space="preserve" font-family="Helvetica,Helvetica" font-size="16.0" fill="#581A25" transform="matrix(1.00, 0.00, -0.00, -1.00, 160.6, 158.9)">t</text><text xml:space="preserve" font-family="Helvetica,Helvetica" font-size="16.0" fill="#581A25" transform="matrix(1.00, 0.00, -0.00, -1.00, 165.0, 158.9)">u</text><text xml:space="preserve" font-family="Helvetica,Helvetica" font-size="16.0" fill="#581A25" transform="matrix(1.00, 0.00, -0.00, -1.00, 173.9, 158.9)">e</text><text xml:space="preserve" font-family="Helvetica,Helvetica" font-size="16.0" fill="#581A25" transform="matrix(1.00, 0.00, -0.00, -1.00, 182.8, 158.9)">r</text><text xml:space="preserve" font-family="Helvetica,Helvetica" font-size="16.0" fill="#581A25" transform="matrix(1.00, 0.00, -0.00, -1.00, 188.2, 158.9)"> </text><text xml:space="preserve" font-family="Helvetica,Helvetica" font-size="16.0" fill="#581A25" transform="matrix(1.00, 0.00, -0.00, -1.00, 192.6, 158.9)">a</text><text xml:space="preserve" font-family="Helvetica,Helvetica" font-size="16.0" fill="#581A25" transform="matrix(1.00, 0.00, -0.00, -1.00, 201.5, 158.9)">d</text><text xml:space="preserve" font-family="Helvetica,Helvetica" font-size="16.0" fill="#581A25" transform="matrix(1.00, 0.00, -0.00, -1.00, 210.4, 158.9)">i</text><text xml:space="preserve" font-family="Helvetica,Helvetica" font-size="16.0" fill="#581A25" transform="matrix(1.00, 0.00, -0.00, -1.00, 214.0, 158.9)">p</text><text xml:space="preserve" font-family="Helvetica,Helvetica" font-size="16.0" fill="#581A25" transform="matrix(1.00, 0.00, -0.00, -1.00, 222.9, 158.9)">i</text><text xml:space="preserve" font-family="Helvetica,Helvetica" font-size="16.0" fill="#581A25" transform="matrix(1.00, 0.00, -0.00, -1.00, 226.4, 158.9)">s</text><text xml:space="preserve" font-family="Helvetica,Helvetica" font-size="16.0" fill="#581A25" transform="matrix(1.00, 0.00, -0.00, -1.00, 234.4, 158.9)">c</text><text xml:space="preserve" font-family="Helvetica,Helvetica" font-size="16.0" fill="#581A25" transform="matrix(1.00, 0.00, -0.00, -1.00, 242.4, 158.9)">i</text><text xml:space="preserve" font-family="Helvetica,Helvetica" font-size="16.0" fill="#581A25" transform="matrix(1.00, 0.00, -0.00, -1.00, 246.0, 158.9)">n</text><text xml:space="preserve" font-family="Helvetica,Helvetica" font-size="16.0" fill="#581A25" transform="matrix(1.00, 0.00, -0.00, -1.00, 254.9, 158.9)">g</text><text xml:space="preserve" font-family="Helvetica,Helvetica" font-size="16.0" fill="#581A25" transform="matrix(1.00, 0.00, -0.00, -1.00, 263.8, 158.9)"> </text><text xml:space="preserve" font-family="Helvetica,Helvetica" font-size="16.0" fill="#581A25" transform="matrix(1.00, 0.00, -0.00, -1.00, 268.2, 158.9)">e</text><text xml:space="preserve" font-family="Helvetica,Helvetica" font-size="16.0" fill="#581A25" transform="matrix(1.00, 0.00, -0.00, -1.00, 277.1, 158.9)">l</text><text xml:space="preserve" font-family="Helvetica,Helvetica" font-size="16.0" fill="#581A25" transform="matrix(1.00, 0.00, -0.00, -1.00, 280.7, 158.9)">i</text><text xml:space="preserve" font-family="Helvetica,Helvetica" font-size="16.0" fill="#581A25" transform="matrix(1.00, 0.00, -0.00, -1.00, 284.2, 158.9)">t</text><text xml:space="preserve" font-family="Helvetica,Helvetica" font-size="16.0" fill="#581A25" transform="matrix(1.00, 0.00, -0.00, -1.00, 288.7, 158.9)">,</text><text xml:space="preserve" font-family="Helvetica,Helvetica" font-size="16.0" fill="#581A25" transform="matrix(1.00, 0.00, -0.00, -1.00, 293.1, 158.9)"> </text><text xml:space="preserve" font-family="Helvetica,Helvetica" font-size="16.0" fill="#581A25" transform="matrix(1.00, 0.00, -0.00, -1.00, 96.5, 139.9)">s</text><text xml:space="preserve" font-family="Helvetica,Helvetica" font-size="16.0" fill="#581A25" transform="matrix(1.00, 0.00, -0.00, -1.00, 104.5, 139.9)">e</text><text xml:space="preserve" font-family="Helvetica,Helvetica" font-size="16.0" fill="#581A25" transform="matrix(1.00, 0.00, -0.00, -1.00, 113.4, 139.9)">d</text><text xml:space="preserve" font-family="Helvetica,Helvetica" font-size="16.0" fill="#581A25" transform="matrix(1.00, 0.00, -0.00, -1.00, 122.3, 139.9)"> </text><text xml:space="preserve" font-family="Helvetica,Helvetica" font-size="16.0" fill="#581A25" transform="matrix(1.00, 0.00, -0.00, -1.00, 126.8, 139.9)">d</text><text xml:space="preserve" font-family="Helvetica,Helvetica" font-size="16.0" fill="#581A25" transform="matrix(1.00, 0.00, -0.00, -1.00, 135.7, 139.9)">i</text><text xml:space="preserve" font-family="Helvetica,Helvetica" font-size="16.0" fill="#581A25" transform="matrix(1.00, 0.00, -0.00, -1.00, 139.2, 139.9)">a</text><text xml:space="preserve" font-family="Helvetica,Helvetica" font-size="16.0" fill="#581A25" transform="matrix(1.00, 0.00, -0.00, -1.00, 148.1, 139.9)">m</text><text xml:space="preserve" font-family="Helvetica,Helvetica" font-size="16.0" fill="#581A25" transform="matrix(1.00, 0.00, -0.00, -1.00, 161.5, 139.9)"> </text><text xml:space="preserve" font-family="Helvetica,Helvetica" font-size="16.0" fill="#581A25" transform="matrix(1.00, 0.00, -0.00, -1.00, 165.9, 139.9)">n</text><text xml:space="preserve" font-family="Helvetica,Helvetica" font-size="16.0" fill="#581A25" transform="matrix(1.00, 0.00, -0.00, -1.00, 174.8, 139.9)">o</text><text xml:space="preserve" font-family="Helvetica,Helvetica" font-size="16.0" fill="#581A25" transform="matrix(1.00, 0.00, -0.00, -1.00, 183.7, 139.9)">n</text><text xml:space="preserve" font-family="Helvetica,Helvetica" font-size="16.0" fill="#581A25" transform="matrix(1.00, 0.00, -0.00, -1.00, 192.6, 139.9)">u</text><text xml:space="preserve" font-family="Helvetica,Helvetica" font-size="16.0" fill="#581A25" transform="matrix(1.00, 0.00, -0.00, -1.00, 201.5, 139.9)">m</text><text xml:space="preserve" font-family="Helvetica,Helvetica" font-size="16.0" fill="#581A25" transform="matrix(1.00, 0.00, -0.00, -1.00, 214.8, 139.9)">m</text><text xml:space="preserve" font-family="Helvetica,Helvetica" font-size="16.0" fill="#581A25" transform="matrix(1.00, 0.00, -0.00, -1.00, 228.2, 139.9)">.</text></g></g><g><clipPath id="clip0x6000088a1920"><path d="M 89.9 196.0 L 270.9 196.0 L 270.9 237.0 L 89.9 237.0 Z M 89.9 196.0 "></path></clipPath><g clip-path="url(#clip0x6000088a1920)"><text xml:space="preserve" font-family="Helvetica,Helvetica" font-size="24.0" fill="#8B2E3E" transform="matrix(1.00, 0.00, -0.00, -1.00, 95.9, 207.6)">L</text><text xml:space="preserve" font-family="Helvetica,Helvetica" font-size="24.0" fill="#8B2E3E" transform="matrix(1.00, 0.00, -0.00, -1.00, 109.3, 207.6)">O</text><text xml:space="preserve" font-family="Helvetica,Helvetica" font-size="24.0" fill="#8B2E3E" transform="matrix(1.00, 0.00, -0.00, -1.00, 127.9, 207.6)">R</text><text xml:space="preserve" font-family="Helvetica,Helvetica" font-size="24.0" fill="#8B2E3E" transform="matrix(1.00, 0.00, -0.00, -1.00, 145.3, 207.6)">E</text><text xml:space="preserve" font-family="Helvetica,Helvetica" font-size="24.0" fill="#8B2E3E" transform="matrix(1.00, 0.00, -0.00, -1.00, 161.3, 207.6)">M</text><text xml:space="preserve" font-family="Helvetica,Helvetica" font-size="24.0" fill="#8B2E3E" transform="matrix(1.00, 0.00, -0.00, -1.00, 181.3, 207.6)"> </text><text xml:space="preserve" font-family="Helvetica,Helvetica" font-size="24.0" fill="#8B2E3E" transform="matrix(1.00, 0.00, -0.00, -1.00, 187.9, 207.6)">I</text><text xml:space="preserve" font-family="Helvetica,Helvetica" font-size="24.0" fill="#8B2E3E" transform="matrix(1.00, 0.00, -0.00, -1.00, 194.6, 207.6)">P</text><text xml:space="preserve" font-family="Helvetica,Helvetica" font-size="24.0" fill="#8B2E3E" transform="matrix(1.00, 0.00, -0.00, -1.00, 210.6, 207.6)">S</text><text xml:space="preserve" font-family="Helvetica,Helvetica" font-size="24.0" fill="#8B2E3E" transform="matrix(1.00, 0.00, -0.00, -1.00, 226.6, 207.6)">U</text><text xml:space="preserve" font-family="Helvetica,Helvetica" font-size="24.0" fill="#8B2E3E" transform="matrix(1.00, 0.00, -0.00, -1.00, 243.9, 207.6)">M</text></g></g><g><clipPath id="clip0x6000088a1f20"><path d="M 318.4 135.9 L 369.9 135.9 L 369.9 254.9 L 318.4 254.9 Z M 318.4 135.9 "></path></clipPath><g clip-path="url(#clip0x6000088a1f20)"><text xml:space="preserve" font-family="Helvetica,Helvetica" font-size="70.0" fill="#943243" transform="matrix(1.00, 0.00, -0.00, -1.00, 336.4, 169.5)">l</text></g></g></g></svg>