<?xml version="1.0" encoding="UTF-8" standalone="no"?><svg xmlns="http://www.w3.org/2000/svg" xmlns:xlink="http://www.w3.org/1999/xlink" clip-rule="evenodd" stroke-miterlimit="10" viewBox="0 0 506 326"><desc>SVG generated by Keynote</desc><defs></defs><g transform="matrix(1.00, 0.00, -0.00, -1.00, 0.0, 326.0)"><g><clipPath id="clip0x6180078be900"><path d="M 0.6 0.2 L 505.9 0.2 L 505.9 325.5 L 0.6 325.5 Z M 0.6 0.2 "></path></clipPath><g clip-path="url(#clip0x6180078be900)"><image xlink:href="F8978E700FEB0C7014725724523BA6D6.png" width="503.00" height="323.00" transform="matrix(1.00, 0.00, -0.00, -1.00, 1.6, 324.5)" opacity="0.50"></image><path d="M 22.9 18.6 C 29.1 39.2 40.8 57.8 56.8 72.1 C 79.0 92.0 107.9 102.8 137.7 102.3 L 384.2 103.5 C 440.3 101.7 486.8 146.5 487.1 202.6 C 487.5 259.5 440.3 305.2 383.4 303.0 L 78.4 304.0 C 63.1 305.1 48.1 299.3 37.3 288.5 C 26.4 277.6 20.8 262.6 21.9 247.3 L 22.9 18.6 Z M 22.9 18.6 " fill="#5D667C"></path></g></g><g><clipPath id="clip0x6180078bef00"><path d="M 20.8 34.5 L 487.9 34.5 L 487.9 321.6 L 20.8 321.6 Z M 20.8 34.5 "></path></clipPath><g clip-path="url(#clip0x6180078bef00)"><path d="M 22.9 35.5 C 29.1 56.1 40.8 74.6 56.8 89.0 C 79.0 108.8 107.8 119.6 137.6 119.1 L 384.0 120.3 C 440.1 118.5 486.5 163.2 486.9 219.3 C 487.2 276.2 440.0 322.2 383.2 320.0 L 78.4 320.0 C 63.1 321.1 48.1 316.0 37.3 305.1 C 26.4 294.3 20.8 279.3 21.9 264.0 L 22.9 35.5 Z M 22.9 35.5 " fill="#7D89A5"></path></g></g><g><clipPath id="clip0x6180078bf140"><path d="M 144.7 142.9 L 421.8 142.9 L 421.8 244.5 L 144.7 244.5 Z M 144.7 142.9 "></path></clipPath><g clip-path="url(#clip0x6180078bf140)"><text xml:space="preserve" font-family="Helvetica,Helvetica" font-size="16.0" fill="#474E60" transform="matrix(1.00, 0.00, -0.00, -1.00, 158.1, 216.2)">L</text><text xml:space="preserve" font-family="Helvetica,Helvetica" font-size="16.0" fill="#474E60" transform="matrix(1.00, 0.00, -0.00, -1.00, 167.0, 216.2)">o</text><text xml:space="preserve" font-family="Helvetica,Helvetica" font-size="16.0" fill="#474E60" transform="matrix(1.00, 0.00, -0.00, -1.00, 175.9, 216.2)">r</text><text xml:space="preserve" font-family="Helvetica,Helvetica" font-size="16.0" fill="#474E60" transform="matrix(1.00, 0.00, -0.00, -1.00, 181.3, 216.2)">e</text><text xml:space="preserve" font-family="Helvetica,Helvetica" font-size="16.0" fill="#474E60" transform="matrix(1.00, 0.00, -0.00, -1.00, 190.2, 216.2)">m</text><text xml:space="preserve" font-family="Helvetica,Helvetica" font-size="16.0" fill="#474E60" transform="matrix(1.00, 0.00, -0.00, -1.00, 203.5, 216.2)"> </text><text xml:space="preserve" font-family="Helvetica,Helvetica" font-size="16.0" fill="#474E60" transform="matrix(1.00, 0.00, -0.00, -1.00, 207.9, 216.2)">i</text><text xml:space="preserve" font-family="Helvetica,Helvetica" font-size="16.0" fill="#474E60" transform="matrix(1.00, 0.00, -0.00, -1.00, 211.5, 216.2)">p</text><text xml:space="preserve" font-family="Helvetica,Helvetica" font-size="16.0" fill="#474E60" transform="matrix(1.00, 0.00, -0.00, -1.00, 220.4, 216.2)">s</text><text xml:space="preserve" font-family="Helvetica,Helvetica" font-size="16.0" fill="#474E60" transform="matrix(1.00, 0.00, -0.00, -1.00, 228.4, 216.2)">u</text><text xml:space="preserve" font-family="Helvetica,Helvetica" font-size="16.0" fill="#474E60" transform="matrix(1.00, 0.00, -0.00, -1.00, 237.3, 216.2)">m</text><text xml:space="preserve" font-family="Helvetica,Helvetica" font-size="16.0" fill="#474E60" transform="matrix(1.00, 0.00, -0.00, -1.00, 250.6, 216.2)"> </text><text xml:space="preserve" font-family="Helvetica,Helvetica" font-size="16.0" fill="#474E60" transform="matrix(1.00, 0.00, -0.00, -1.00, 255.1, 216.2)">d</text><text xml:space="preserve" font-family="Helvetica,Helvetica" font-size="16.0" fill="#474E60" transform="matrix(1.00, 0.00, -0.00, -1.00, 264.0, 216.2)">o</text><text xml:space="preserve" font-family="Helvetica,Helvetica" font-size="16.0" fill="#474E60" transform="matrix(1.00, 0.00, -0.00, -1.00, 272.9, 216.2)">l</text><text xml:space="preserve" font-family="Helvetica,Helvetica" font-size="16.0" fill="#474E60" transform="matrix(1.00, 0.00, -0.00, -1.00, 276.4, 216.2)">o</text><text xml:space="preserve" font-family="Helvetica,Helvetica" font-size="16.0" fill="#474E60" transform="matrix(1.00, 0.00, -0.00, -1.00, 285.3, 216.2)">r</text><text xml:space="preserve" font-family="Helvetica,Helvetica" font-size="16.0" fill="#474E60" transform="matrix(1.00, 0.00, -0.00, -1.00, 290.7, 216.2)"> </text><text xml:space="preserve" font-family="Helvetica,Helvetica" font-size="16.0" fill="#474E60" transform="matrix(1.00, 0.00, -0.00, -1.00, 295.1, 216.2)">s</text><text xml:space="preserve" font-family="Helvetica,Helvetica" font-size="16.0" fill="#474E60" transform="matrix(1.00, 0.00, -0.00, -1.00, 303.1, 216.2)">i</text><text xml:space="preserve" font-family="Helvetica,Helvetica" font-size="16.0" fill="#474E60" transform="matrix(1.00, 0.00, -0.00, -1.00, 306.7, 216.2)">t</text><text xml:space="preserve" font-family="Helvetica,Helvetica" font-size="16.0" fill="#474E60" transform="matrix(1.00, 0.00, -0.00, -1.00, 311.1, 216.2)"> </text><text xml:space="preserve" font-family="Helvetica,Helvetica" font-size="16.0" fill="#474E60" transform="matrix(1.00, 0.00, -0.00, -1.00, 315.5, 216.2)">a</text><text xml:space="preserve" font-family="Helvetica,Helvetica" font-size="16.0" fill="#474E60" transform="matrix(1.00, 0.00, -0.00, -1.00, 324.4, 216.2)">m</text><text xml:space="preserve" font-family="Helvetica,Helvetica" font-size="16.0" fill="#474E60" transform="matrix(1.00, 0.00, -0.00, -1.00, 337.8, 216.2)">e</text><text xml:space="preserve" font-family="Helvetica,Helvetica" font-size="16.0" fill="#474E60" transform="matrix(1.00, 0.00, -0.00, -1.00, 346.7, 216.2)">t</text><text xml:space="preserve" font-family="Helvetica,Helvetica" font-size="16.0" fill="#474E60" transform="matrix(1.00, 0.00, -0.00, -1.00, 351.1, 216.2)">,</text><text xml:space="preserve" font-family="Helvetica,Helvetica" font-size="16.0" fill="#474E60" transform="matrix(1.00, 0.00, -0.00, -1.00, 355.6, 216.2)"> </text><text xml:space="preserve" font-family="Helvetica,Helvetica" font-size="16.0" fill="#474E60" transform="matrix(1.00, 0.00, -0.00, -1.00, 360.0, 216.2)">c</text><text xml:space="preserve" font-family="Helvetica,Helvetica" font-size="16.0" fill="#474E60" transform="matrix(1.00, 0.00, -0.00, -1.00, 368.0, 216.2)">o</text><text xml:space="preserve" font-family="Helvetica,Helvetica" font-size="16.0" fill="#474E60" transform="matrix(1.00, 0.00, -0.00, -1.00, 376.9, 216.2)">t</text><text xml:space="preserve" font-family="Helvetica,Helvetica" font-size="16.0" fill="#474E60" transform="matrix(1.00, 0.00, -0.00, -1.00, 381.3, 216.2)">e</text><text xml:space="preserve" font-family="Helvetica,Helvetica" font-size="16.0" fill="#474E60" transform="matrix(1.00, 0.00, -0.00, -1.00, 390.2, 216.2)">t</text><text xml:space="preserve" font-family="Helvetica,Helvetica" font-size="16.0" fill="#474E60" transform="matrix(1.00, 0.00, -0.00, -1.00, 394.7, 216.2)">u</text><text xml:space="preserve" font-family="Helvetica,Helvetica" font-size="16.0" fill="#474E60" transform="matrix(1.00, 0.00, -0.00, -1.00, 403.6, 216.2)">e</text><text xml:space="preserve" font-family="Helvetica,Helvetica" font-size="16.0" fill="#474E60" transform="matrix(1.00, 0.00, -0.00, -1.00, 412.5, 216.2)">r</text><text xml:space="preserve" font-family="Helvetica,Helvetica" font-size="16.0" fill="#474E60" transform="matrix(1.00, 0.00, -0.00, -1.00, 417.8, 216.2)"> </text><text xml:space="preserve" font-family="Helvetica,Helvetica" font-size="16.0" fill="#474E60" transform="matrix(1.00, 0.00, -0.00, -1.00, 173.2, 197.2)">a</text><text xml:space="preserve" font-family="Helvetica,Helvetica" font-size="16.0" fill="#474E60" transform="matrix(1.00, 0.00, -0.00, -1.00, 182.1, 197.2)">d</text><text xml:space="preserve" font-family="Helvetica,Helvetica" font-size="16.0" fill="#474E60" transform="matrix(1.00, 0.00, -0.00, -1.00, 191.0, 197.2)">i</text><text xml:space="preserve" font-family="Helvetica,Helvetica" font-size="16.0" fill="#474E60" transform="matrix(1.00, 0.00, -0.00, -1.00, 194.6, 197.2)">p</text><text xml:space="preserve" font-family="Helvetica,Helvetica" font-size="16.0" fill="#474E60" transform="matrix(1.00, 0.00, -0.00, -1.00, 203.5, 197.2)">i</text><text xml:space="preserve" font-family="Helvetica,Helvetica" font-size="16.0" fill="#474E60" transform="matrix(1.00, 0.00, -0.00, -1.00, 207.1, 197.2)">s</text><text xml:space="preserve" font-family="Helvetica,Helvetica" font-size="16.0" fill="#474E60" transform="matrix(1.00, 0.00, -0.00, -1.00, 215.1, 197.2)">c</text><text xml:space="preserve" font-family="Helvetica,Helvetica" font-size="16.0" fill="#474E60" transform="matrix(1.00, 0.00, -0.00, -1.00, 223.1, 197.2)">i</text><text xml:space="preserve" font-family="Helvetica,Helvetica" font-size="16.0" fill="#474E60" transform="matrix(1.00, 0.00, -0.00, -1.00, 226.6, 197.2)">n</text><text xml:space="preserve" font-family="Helvetica,Helvetica" font-size="16.0" fill="#474E60" transform="matrix(1.00, 0.00, -0.00, -1.00, 235.5, 197.2)">g</text><text xml:space="preserve" font-family="Helvetica,Helvetica" font-size="16.0" fill="#474E60" transform="matrix(1.00, 0.00, -0.00, -1.00, 244.4, 197.2)"> </text><text xml:space="preserve" font-family="Helvetica,Helvetica" font-size="16.0" fill="#474E60" transform="matrix(1.00, 0.00, -0.00, -1.00, 248.9, 197.2)">e</text><text xml:space="preserve" font-family="Helvetica,Helvetica" font-size="16.0" fill="#474E60" transform="matrix(1.00, 0.00, -0.00, -1.00, 257.8, 197.2)">l</text><text xml:space="preserve" font-family="Helvetica,Helvetica" font-size="16.0" fill="#474E60" transform="matrix(1.00, 0.00, -0.00, -1.00, 261.3, 197.2)">i</text><text xml:space="preserve" font-family="Helvetica,Helvetica" font-size="16.0" fill="#474E60" transform="matrix(1.00, 0.00, -0.00, -1.00, 264.9, 197.2)">t</text><text xml:space="preserve" font-family="Helvetica,Helvetica" font-size="16.0" fill="#474E60" transform="matrix(1.00, 0.00, -0.00, -1.00, 269.3, 197.2)">,</text><text xml:space="preserve" font-family="Helvetica,Helvetica" font-size="16.0" fill="#474E60" transform="matrix(1.00, 0.00, -0.00, -1.00, 273.8, 197.2)"> </text><text xml:space="preserve" font-family="Helvetica,Helvetica" font-size="16.0" fill="#474E60" transform="matrix(1.00, 0.00, -0.00, -1.00, 278.2, 197.2)">s</text><text xml:space="preserve" font-family="Helvetica,Helvetica" font-size="16.0" fill="#474E60" transform="matrix(1.00, 0.00, -0.00, -1.00, 286.2, 197.2)">e</text><text xml:space="preserve" font-family="Helvetica,Helvetica" font-size="16.0" fill="#474E60" transform="matrix(1.00, 0.00, -0.00, -1.00, 295.1, 197.2)">d</text><text xml:space="preserve" font-family="Helvetica,Helvetica" font-size="16.0" fill="#474E60" transform="matrix(1.00, 0.00, -0.00, -1.00, 304.0, 197.2)"> </text><text xml:space="preserve" font-family="Helvetica,Helvetica" font-size="16.0" fill="#474E60" transform="matrix(1.00, 0.00, -0.00, -1.00, 308.5, 197.2)">d</text><text xml:space="preserve" font-family="Helvetica,Helvetica" font-size="16.0" fill="#474E60" transform="matrix(1.00, 0.00, -0.00, -1.00, 317.4, 197.2)">i</text><text xml:space="preserve" font-family="Helvetica,Helvetica" font-size="16.0" fill="#474E60" transform="matrix(1.00, 0.00, -0.00, -1.00, 320.9, 197.2)">a</text><text xml:space="preserve" font-family="Helvetica,Helvetica" font-size="16.0" fill="#474E60" transform="matrix(1.00, 0.00, -0.00, -1.00, 329.8, 197.2)">m</text><text xml:space="preserve" font-family="Helvetica,Helvetica" font-size="16.0" fill="#474E60" transform="matrix(1.00, 0.00, -0.00, -1.00, 343.1, 197.2)"> </text><text xml:space="preserve" font-family="Helvetica,Helvetica" font-size="16.0" fill="#474E60" transform="matrix(1.00, 0.00, -0.00, -1.00, 347.6, 197.2)">n</text><text xml:space="preserve" font-family="Helvetica,Helvetica" font-size="16.0" fill="#474E60" transform="matrix(1.00, 0.00, -0.00, -1.00, 356.5, 197.2)">o</text><text xml:space="preserve" font-family="Helvetica,Helvetica" font-size="16.0" fill="#474E60" transform="matrix(1.00, 0.00, -0.00, -1.00, 365.4, 197.2)">n</text><text xml:space="preserve" font-family="Helvetica,Helvetica" font-size="16.0" fill="#474E60" transform="matrix(1.00, 0.00, -0.00, -1.00, 374.3, 197.2)">u</text><text xml:space="preserve" font-family="Helvetica,Helvetica" font-size="16.0" fill="#474E60" transform="matrix(1.00, 0.00, -0.00, -1.00, 383.2, 197.2)">m</text><text xml:space="preserve" font-family="Helvetica,Helvetica" font-size="16.0" fill="#474E60" transform="matrix(1.00, 0.00, -0.00, -1.00, 396.5, 197.2)">m</text><text xml:space="preserve" font-family="Helvetica,Helvetica" font-size="16.0" fill="#474E60" transform="matrix(1.00, 0.00, -0.00, -1.00, 409.8, 197.2)">y</text><text xml:space="preserve" font-family="Helvetica,Helvetica" font-size="16.0" fill="#474E60" transform="matrix(1.00, 0.00, -0.00, -1.00, 417.8, 197.2)"> </text><text xml:space="preserve" font-family="Helvetica,Helvetica" font-size="16.0" fill="#474E60" transform="matrix(1.00, 0.00, -0.00, -1.00, 187.4, 178.2)">n</text><text xml:space="preserve" font-family="Helvetica,Helvetica" font-size="16.0" fill="#474E60" transform="matrix(1.00, 0.00, -0.00, -1.00, 196.3, 178.2)">i</text><text xml:space="preserve" font-family="Helvetica,Helvetica" font-size="16.0" fill="#474E60" transform="matrix(1.00, 0.00, -0.00, -1.00, 199.9, 178.2)">b</text><text xml:space="preserve" font-family="Helvetica,Helvetica" font-size="16.0" fill="#474E60" transform="matrix(1.00, 0.00, -0.00, -1.00, 208.8, 178.2)">h</text><text xml:space="preserve" font-family="Helvetica,Helvetica" font-size="16.0" fill="#474E60" transform="matrix(1.00, 0.00, -0.00, -1.00, 217.7, 178.2)"> </text><text xml:space="preserve" font-family="Helvetica,Helvetica" font-size="16.0" fill="#474E60" transform="matrix(1.00, 0.00, -0.00, -1.00, 222.1, 178.2)">e</text><text xml:space="preserve" font-family="Helvetica,Helvetica" font-size="16.0" fill="#474E60" transform="matrix(1.00, 0.00, -0.00, -1.00, 231.0, 178.2)">u</text><text xml:space="preserve" font-family="Helvetica,Helvetica" font-size="16.0" fill="#474E60" transform="matrix(1.00, 0.00, -0.00, -1.00, 239.9, 178.2)">i</text><text xml:space="preserve" font-family="Helvetica,Helvetica" font-size="16.0" fill="#474E60" transform="matrix(1.00, 0.00, -0.00, -1.00, 243.5, 178.2)">s</text><text xml:space="preserve" font-family="Helvetica,Helvetica" font-size="16.0" fill="#474E60" transform="matrix(1.00, 0.00, -0.00, -1.00, 251.5, 178.2)">m</text><text xml:space="preserve" font-family="Helvetica,Helvetica" font-size="16.0" fill="#474E60" transform="matrix(1.00, 0.00, -0.00, -1.00, 264.8, 178.2)">o</text><text xml:space="preserve" font-family="Helvetica,Helvetica" font-size="16.0" fill="#474E60" transform="matrix(1.00, 0.00, -0.00, -1.00, 273.7, 178.2)">d</text><text xml:space="preserve" font-family="Helvetica,Helvetica" font-size="16.0" fill="#474E60" transform="matrix(1.00, 0.00, -0.00, -1.00, 282.6, 178.2)"> </text><text xml:space="preserve" font-family="Helvetica,Helvetica" font-size="16.0" fill="#474E60" transform="matrix(1.00, 0.00, -0.00, -1.00, 287.1, 178.2)">t</text><text xml:space="preserve" font-family="Helvetica,Helvetica" font-size="16.0" fill="#474E60" transform="matrix(1.00, 0.00, -0.00, -1.00, 291.5, 178.2)">i</text><text xml:space="preserve" font-family="Helvetica,Helvetica" font-size="16.0" fill="#474E60" transform="matrix(1.00, 0.00, -0.00, -1.00, 295.1, 178.2)">n</text><text xml:space="preserve" font-family="Helvetica,Helvetica" font-size="16.0" fill="#474E60" transform="matrix(1.00, 0.00, -0.00, -1.00, 304.0, 178.2)">c</text><text xml:space="preserve" font-family="Helvetica,Helvetica" font-size="16.0" fill="#474E60" transform="matrix(1.00, 0.00, -0.00, -1.00, 312.0, 178.2)">i</text><text xml:space="preserve" font-family="Helvetica,Helvetica" font-size="16.0" fill="#474E60" transform="matrix(1.00, 0.00, -0.00, -1.00, 315.5, 178.2)">d</text><text xml:space="preserve" font-family="Helvetica,Helvetica" font-size="16.0" fill="#474E60" transform="matrix(1.00, 0.00, -0.00, -1.00, 324.4, 178.2)">u</text><text xml:space="preserve" font-family="Helvetica,Helvetica" font-size="16.0" fill="#474E60" transform="matrix(1.00, 0.00, -0.00, -1.00, 333.3, 178.2)">n</text><text xml:space="preserve" font-family="Helvetica,Helvetica" font-size="16.0" fill="#474E60" transform="matrix(1.00, 0.00, -0.00, -1.00, 342.2, 178.2)">t</text><text xml:space="preserve" font-family="Helvetica,Helvetica" font-size="16.0" fill="#474E60" transform="matrix(1.00, 0.00, -0.00, -1.00, 346.7, 178.2)"> </text><text xml:space="preserve" font-family="Helvetica,Helvetica" font-size="16.0" fill="#474E60" transform="matrix(1.00, 0.00, -0.00, -1.00, 351.1, 178.2)">u</text><text xml:space="preserve" font-family="Helvetica,Helvetica" font-size="16.0" fill="#474E60" transform="matrix(1.00, 0.00, -0.00, -1.00, 360.0, 178.2)">t</text><text xml:space="preserve" font-family="Helvetica,Helvetica" font-size="16.0" fill="#474E60" transform="matrix(1.00, 0.00, -0.00, -1.00, 364.5, 178.2)"> </text><text xml:space="preserve" font-family="Helvetica,Helvetica" font-size="16.0" fill="#474E60" transform="matrix(1.00, 0.00, -0.00, -1.00, 368.9, 178.2)">l</text><text xml:space="preserve" font-family="Helvetica,Helvetica" font-size="16.0" fill="#474E60" transform="matrix(1.00, 0.00, -0.00, -1.00, 372.5, 178.2)">a</text><text xml:space="preserve" font-family="Helvetica,Helvetica" font-size="16.0" fill="#474E60" transform="matrix(1.00, 0.00, -0.00, -1.00, 381.4, 178.2)">o</text><text xml:space="preserve" font-family="Helvetica,Helvetica" font-size="16.0" fill="#474E60" transform="matrix(1.00, 0.00, -0.00, -1.00, 390.3, 178.2)">r</text><text xml:space="preserve" font-family="Helvetica,Helvetica" font-size="16.0" fill="#474E60" transform="matrix(1.00, 0.00, -0.00, -1.00, 395.6, 178.2)">e</text><text xml:space="preserve" font-family="Helvetica,Helvetica" font-size="16.0" fill="#474E60" transform="matrix(1.00, 0.00, -0.00, -1.00, 404.5, 178.2)">e</text><text xml:space="preserve" font-family="Helvetica,Helvetica" font-size="16.0" fill="#474E60" transform="matrix(1.00, 0.00, -0.00, -1.00, 413.4, 178.2)">t</text><text xml:space="preserve" font-family="Helvetica,Helvetica" font-size="16.0" fill="#474E60" transform="matrix(1.00, 0.00, -0.00, -1.00, 417.8, 178.2)"> </text><text xml:space="preserve" font-family="Helvetica,Helvetica" font-size="16.0" fill="#474E60" transform="matrix(1.00, 0.00, -0.00, -1.00, 150.1, 159.2)">d</text><text xml:space="preserve" font-family="Helvetica,Helvetica" font-size="16.0" fill="#474E60" transform="matrix(1.00, 0.00, -0.00, -1.00, 159.0, 159.2)">o</text><text xml:space="preserve" font-family="Helvetica,Helvetica" font-size="16.0" fill="#474E60" transform="matrix(1.00, 0.00, -0.00, -1.00, 167.9, 159.2)">l</text><text xml:space="preserve" font-family="Helvetica,Helvetica" font-size="16.0" fill="#474E60" transform="matrix(1.00, 0.00, -0.00, -1.00, 171.5, 159.2)">o</text><text xml:space="preserve" font-family="Helvetica,Helvetica" font-size="16.0" fill="#474E60" transform="matrix(1.00, 0.00, -0.00, -1.00, 180.4, 159.2)">r</text><text xml:space="preserve" font-family="Helvetica,Helvetica" font-size="16.0" fill="#474E60" transform="matrix(1.00, 0.00, -0.00, -1.00, 185.7, 159.2)">e</text><text xml:space="preserve" font-family="Helvetica,Helvetica" font-size="16.0" fill="#474E60" transform="matrix(1.00, 0.00, -0.00, -1.00, 194.6, 159.2)"> </text><text xml:space="preserve" font-family="Helvetica,Helvetica" font-size="16.0" fill="#474E60" transform="matrix(1.00, 0.00, -0.00, -1.00, 199.0, 159.2)">m</text><text xml:space="preserve" font-family="Helvetica,Helvetica" font-size="16.0" fill="#474E60" transform="matrix(1.00, 0.00, -0.00, -1.00, 212.4, 159.2)">a</text><text xml:space="preserve" font-family="Helvetica,Helvetica" font-size="16.0" fill="#474E60" transform="matrix(1.00, 0.00, -0.00, -1.00, 221.3, 159.2)">g</text><text xml:space="preserve" font-family="Helvetica,Helvetica" font-size="16.0" fill="#474E60" transform="matrix(1.00, 0.00, -0.00, -1.00, 230.2, 159.2)">n</text><text xml:space="preserve" font-family="Helvetica,Helvetica" font-size="16.0" fill="#474E60" transform="matrix(1.00, 0.00, -0.00, -1.00, 239.1, 159.2)">a</text><text xml:space="preserve" font-family="Helvetica,Helvetica" font-size="16.0" fill="#474E60" transform="matrix(1.00, 0.00, -0.00, -1.00, 248.0, 159.2)"> </text><text xml:space="preserve" font-family="Helvetica,Helvetica" font-size="16.0" fill="#474E60" transform="matrix(1.00, 0.00, -0.00, -1.00, 252.4, 159.2)">e</text><text xml:space="preserve" font-family="Helvetica,Helvetica" font-size="16.0" fill="#474E60" transform="matrix(1.00, 0.00, -0.00, -1.00, 261.3, 159.2)">r</text><text xml:space="preserve" font-family="Helvetica,Helvetica" font-size="16.0" fill="#474E60" transform="matrix(1.00, 0.00, -0.00, -1.00, 266.7, 159.2)">a</text><text xml:space="preserve" font-family="Helvetica,Helvetica" font-size="16.0" fill="#474E60" transform="matrix(1.00, 0.00, -0.00, -1.00, 275.6, 159.2)">t</text><text xml:space="preserve" font-family="Helvetica,Helvetica" font-size="16.0" fill="#474E60" transform="matrix(1.00, 0.00, -0.00, -1.00, 280.0, 159.2)"> </text><text xml:space="preserve" font-family="Helvetica,Helvetica" font-size="16.0" fill="#474E60" transform="matrix(1.00, 0.00, -0.00, -1.00, 284.4, 159.2)">v</text><text xml:space="preserve" font-family="Helvetica,Helvetica" font-size="16.0" fill="#474E60" transform="matrix(1.00, 0.00, -0.00, -1.00, 292.4, 159.2)">o</text><text xml:space="preserve" font-family="Helvetica,Helvetica" font-size="16.0" fill="#474E60" transform="matrix(1.00, 0.00, -0.00, -1.00, 301.3, 159.2)">l</text><text xml:space="preserve" font-family="Helvetica,Helvetica" font-size="16.0" fill="#474E60" transform="matrix(1.00, 0.00, -0.00, -1.00, 304.9, 159.2)">u</text><text xml:space="preserve" font-family="Helvetica,Helvetica" font-size="16.0" fill="#474E60" transform="matrix(1.00, 0.00, -0.00, -1.00, 313.8, 159.2)">t</text><text xml:space="preserve" font-family="Helvetica,Helvetica" font-size="16.0" fill="#474E60" transform="matrix(1.00, 0.00, -0.00, -1.00, 318.2, 159.2)">p</text><text xml:space="preserve" font-family="Helvetica,Helvetica" font-size="16.0" fill="#474E60" transform="matrix(1.00, 0.00, -0.00, -1.00, 327.1, 159.2)">a</text><text xml:space="preserve" font-family="Helvetica,Helvetica" font-size="16.0" fill="#474E60" transform="matrix(1.00, 0.00, -0.00, -1.00, 336.0, 159.2)">t</text><text xml:space="preserve" font-family="Helvetica,Helvetica" font-size="16.0" fill="#474E60" transform="matrix(1.00, 0.00, -0.00, -1.00, 340.5, 159.2)">.</text><text xml:space="preserve" font-family="Helvetica,Helvetica" font-size="16.0" fill="#474E60" transform="matrix(1.00, 0.00, -0.00, -1.00, 344.9, 159.2)"> </text><text xml:space="preserve" font-family="Helvetica,Helvetica" font-size="16.0" fill="#474E60" transform="matrix(1.00, 0.00, -0.00, -1.00, 349.4, 159.2)">U</text><text xml:space="preserve" font-family="Helvetica,Helvetica" font-size="16.0" fill="#474E60" transform="matrix(1.00, 0.00, -0.00, -1.00, 360.9, 159.2)">m</text><text xml:space="preserve" font-family="Helvetica,Helvetica" font-size="16.0" fill="#474E60" transform="matrix(1.00, 0.00, -0.00, -1.00, 374.3, 159.2)"> </text><text xml:space="preserve" font-family="Helvetica,Helvetica" font-size="16.0" fill="#474E60" transform="matrix(1.00, 0.00, -0.00, -1.00, 378.7, 159.2)">e</text><text xml:space="preserve" font-family="Helvetica,Helvetica" font-size="16.0" fill="#474E60" transform="matrix(1.00, 0.00, -0.00, -1.00, 387.6, 159.2)">n</text><text xml:space="preserve" font-family="Helvetica,Helvetica" font-size="16.0" fill="#474E60" transform="matrix(1.00, 0.00, -0.00, -1.00, 396.5, 159.2)">i</text><text xml:space="preserve" font-family="Helvetica,Helvetica" font-size="16.0" fill="#474E60" transform="matrix(1.00, 0.00, -0.00, -1.00, 400.1, 159.2)">m</text><text xml:space="preserve" font-family="Helvetica,Helvetica" font-size="16.0" fill="#474E60" transform="matrix(1.00, 0.00, -0.00, -1.00, 413.4, 159.2)">.</text></g></g><g><clipPath id="clip0x618007aa2820"><path d="M 163.9 240.3 L 422.4 240.3 L 422.4 282.6 L 163.9 282.6 Z M 163.9 240.3 "></path></clipPath><g clip-path="url(#clip0x618007aa2820)"><text xml:space="preserve" font-family="Helvetica,Helvetica" font-size="24.0" fill="#525A6E" transform="matrix(1.00, 0.00, -0.00, -1.00, 248.4, 252.2)">L</text><text xml:space="preserve" font-family="Helvetica,Helvetica" font-size="24.0" fill="#525A6E" transform="matrix(1.00, 0.00, -0.00, -1.00, 261.8, 252.2)">O</text><text xml:space="preserve" font-family="Helvetica,Helvetica" font-size="24.0" fill="#525A6E" transform="matrix(1.00, 0.00, -0.00, -1.00, 280.4, 252.2)">R</text><text xml:space="preserve" font-family="Helvetica,Helvetica" font-size="24.0" fill="#525A6E" transform="matrix(1.00, 0.00, -0.00, -1.00, 297.8, 252.2)">E</text><text xml:space="preserve" font-family="Helvetica,Helvetica" font-size="24.0" fill="#525A6E" transform="matrix(1.00, 0.00, -0.00, -1.00, 313.8, 252.2)">M</text><text xml:space="preserve" font-family="Helvetica,Helvetica" font-size="24.0" fill="#525A6E" transform="matrix(1.00, 0.00, -0.00, -1.00, 333.8, 252.2)"> </text><text xml:space="preserve" font-family="Helvetica,Helvetica" font-size="24.0" fill="#525A6E" transform="matrix(1.00, 0.00, -0.00, -1.00, 340.4, 252.2)">I</text><text xml:space="preserve" font-family="Helvetica,Helvetica" font-size="24.0" fill="#525A6E" transform="matrix(1.00, 0.00, -0.00, -1.00, 347.1, 252.2)">P</text><text xml:space="preserve" font-family="Helvetica,Helvetica" font-size="24.0" fill="#525A6E" transform="matrix(1.00, 0.00, -0.00, -1.00, 363.1, 252.2)">S</text><text xml:space="preserve" font-family="Helvetica,Helvetica" font-size="24.0" fill="#525A6E" transform="matrix(1.00, 0.00, -0.00, -1.00, 379.1, 252.2)">U</text><text xml:space="preserve" font-family="Helvetica,Helvetica" font-size="24.0" fill="#525A6E" transform="matrix(1.00, 0.00, -0.00, -1.00, 396.4, 252.2)">M</text></g></g><g><clipPath id="clip0x618007aa2e20"><path d="M 26.5 154.1 L 165.5 154.1 L 165.5 293.4 L 26.5 293.4 Z M 26.5 154.1 "></path></clipPath><g clip-path="url(#clip0x618007aa2e20)"><text xml:space="preserve" font-family="Sosa-Regular,Sosa" font-size="90.0" fill="#4F576A" transform="matrix(1.00, 0.00, -0.00, -1.00, 51.0, 204.2)">a</text></g></g></g></svg>