<?xml version="1.0" encoding="UTF-8" standalone="no"?><svg xmlns="http://www.w3.org/2000/svg" xmlns:xlink="http://www.w3.org/1999/xlink" clip-rule="evenodd" stroke-miterlimit="10" viewBox="0 0 36 36"><desc>SVG generated by Keynote</desc><defs></defs><g transform="matrix(1.00, 0.00, -0.00, -1.00, 0.0, 36.0)"><g><clipPath id="clip0x6000084b0e00"><path d="M 1.7 1.3 L 34.7 1.3 L 34.7 34.3 L 1.7 34.3 Z M 1.7 1.3 "></path></clipPath><g clip-path="url(#clip0x6000084b0e00)"><path d="M 28.1 27.7 C 33.5 22.2 33.5 13.4 28.1 7.9 C 22.6 2.4 13.7 2.4 8.3 7.9 C 2.8 13.4 2.8 22.2 8.3 27.7 C 13.7 33.2 22.6 33.2 28.1 27.7 Z M 28.1 27.7 " fill="#62D7AD"></path><path d="M 23.9 4.1 C 29.4 9.6 29.4 18.4 23.9 23.9 C 18.4 29.4 9.6 29.4 4.1 23.9 C -1.4 18.4 -1.4 9.6 4.1 4.1 C 9.6 -1.4 18.4 -1.4 23.9 4.1 Z M 23.9 4.1 " fill="none" stroke="#5A6378" stroke-width="3.00" transform="matrix(1.00, 0.00, 0.00, -1.00, 4.2, 31.8)"></path></g></g><g><clipPath id="clip0x610007ca3de0"><path d="M 0.7 0.3 L 35.7 0.3 L 35.7 35.3 L 0.7 35.3 Z M 0.7 0.3 "></path></clipPath><g clip-path="url(#clip0x610007ca3de0)"><path d="M 26.5 4.5 C 32.5 10.6 32.5 20.4 26.5 26.5 C 20.4 32.5 10.6 32.5 4.5 26.5 C -1.5 20.4 -1.5 10.6 4.5 4.5 C 10.6 -1.5 20.4 -1.5 26.5 4.5 Z M 26.5 4.5 " fill="none" stroke="#E2E2E2" stroke-opacity="0.60" stroke-width="2.00" transform="matrix(1.00, 0.00, 0.00, -1.00, 2.7, 33.3)"></path></g></g></g></svg>