<?xml version="1.0" encoding="UTF-8" standalone="no"?><svg xmlns="http://www.w3.org/2000/svg" xmlns:xlink="http://www.w3.org/1999/xlink" clip-rule="evenodd" stroke-miterlimit="10" viewBox="0 0 220 155"><desc>SVG generated by Keynote</desc><defs></defs><g transform="matrix(1.00, 0.00, -0.00, -1.00, 0.0, 155.0)"><g><clipPath id="clip0x6180076b9d40"><path d="M 5.6 1.5 L 218.0 1.5 L 218.0 123.5 L 5.6 123.5 Z M 5.6 1.5 "></path></clipPath><g clip-path="url(#clip0x6180076b9d40)"><text xml:space="preserve" font-family="Helvetica,Helvetica" font-size="16.0" fill="#E2E2E2" transform="matrix(1.00, 0.00, -0.00, -1.00, 9.6, 104.2)">L</text><text xml:space="preserve" font-family="Helvetica,Helvetica" font-size="16.0" fill="#E2E2E2" transform="matrix(1.00, 0.00, -0.00, -1.00, 18.5, 104.2)">o</text><text xml:space="preserve" font-family="Helvetica,Helvetica" font-size="16.0" fill="#E2E2E2" transform="matrix(1.00, 0.00, -0.00, -1.00, 27.4, 104.2)">r</text><text xml:space="preserve" font-family="Helvetica,Helvetica" font-size="16.0" fill="#E2E2E2" transform="matrix(1.00, 0.00, -0.00, -1.00, 32.7, 104.2)">e</text><text xml:space="preserve" font-family="Helvetica,Helvetica" font-size="16.0" fill="#E2E2E2" transform="matrix(1.00, 0.00, -0.00, -1.00, 41.6, 104.2)">m</text><text xml:space="preserve" font-family="Helvetica,Helvetica" font-size="16.0" fill="#E2E2E2" transform="matrix(1.00, 0.00, -0.00, -1.00, 55.0, 104.2)"> </text><text xml:space="preserve" font-family="Helvetica,Helvetica" font-size="16.0" fill="#E2E2E2" transform="matrix(1.00, 0.00, -0.00, -1.00, 59.4, 104.2)">i</text><text xml:space="preserve" font-family="Helvetica,Helvetica" font-size="16.0" fill="#E2E2E2" transform="matrix(1.00, 0.00, -0.00, -1.00, 63.0, 104.2)">p</text><text xml:space="preserve" font-family="Helvetica,Helvetica" font-size="16.0" fill="#E2E2E2" transform="matrix(1.00, 0.00, -0.00, -1.00, 71.9, 104.2)">s</text><text xml:space="preserve" font-family="Helvetica,Helvetica" font-size="16.0" fill="#E2E2E2" transform="matrix(1.00, 0.00, -0.00, -1.00, 79.9, 104.2)">u</text><text xml:space="preserve" font-family="Helvetica,Helvetica" font-size="16.0" fill="#E2E2E2" transform="matrix(1.00, 0.00, -0.00, -1.00, 88.8, 104.2)">m</text><text xml:space="preserve" font-family="Helvetica,Helvetica" font-size="16.0" fill="#E2E2E2" transform="matrix(1.00, 0.00, -0.00, -1.00, 102.1, 104.2)"> </text><text xml:space="preserve" font-family="Helvetica,Helvetica" font-size="16.0" fill="#E2E2E2" transform="matrix(1.00, 0.00, -0.00, -1.00, 106.5, 104.2)">d</text><text xml:space="preserve" font-family="Helvetica,Helvetica" font-size="16.0" fill="#E2E2E2" transform="matrix(1.00, 0.00, -0.00, -1.00, 115.4, 104.2)">o</text><text xml:space="preserve" font-family="Helvetica,Helvetica" font-size="16.0" fill="#E2E2E2" transform="matrix(1.00, 0.00, -0.00, -1.00, 124.3, 104.2)">l</text><text xml:space="preserve" font-family="Helvetica,Helvetica" font-size="16.0" fill="#E2E2E2" transform="matrix(1.00, 0.00, -0.00, -1.00, 127.9, 104.2)">o</text><text xml:space="preserve" font-family="Helvetica,Helvetica" font-size="16.0" fill="#E2E2E2" transform="matrix(1.00, 0.00, -0.00, -1.00, 136.8, 104.2)">r</text><text xml:space="preserve" font-family="Helvetica,Helvetica" font-size="16.0" fill="#E2E2E2" transform="matrix(1.00, 0.00, -0.00, -1.00, 142.1, 104.2)"> </text><text xml:space="preserve" font-family="Helvetica,Helvetica" font-size="16.0" fill="#E2E2E2" transform="matrix(1.00, 0.00, -0.00, -1.00, 146.6, 104.2)">s</text><text xml:space="preserve" font-family="Helvetica,Helvetica" font-size="16.0" fill="#E2E2E2" transform="matrix(1.00, 0.00, -0.00, -1.00, 154.6, 104.2)">i</text><text xml:space="preserve" font-family="Helvetica,Helvetica" font-size="16.0" fill="#E2E2E2" transform="matrix(1.00, 0.00, -0.00, -1.00, 158.1, 104.2)">t</text><text xml:space="preserve" font-family="Helvetica,Helvetica" font-size="16.0" fill="#E2E2E2" transform="matrix(1.00, 0.00, -0.00, -1.00, 162.6, 104.2)"> </text><text xml:space="preserve" font-family="Helvetica,Helvetica" font-size="16.0" fill="#E2E2E2" transform="matrix(1.00, 0.00, -0.00, -1.00, 167.0, 104.2)">a</text><text xml:space="preserve" font-family="Helvetica,Helvetica" font-size="16.0" fill="#E2E2E2" transform="matrix(1.00, 0.00, -0.00, -1.00, 175.9, 104.2)">m</text><text xml:space="preserve" font-family="Helvetica,Helvetica" font-size="16.0" fill="#E2E2E2" transform="matrix(1.00, 0.00, -0.00, -1.00, 189.2, 104.2)">e</text><text xml:space="preserve" font-family="Helvetica,Helvetica" font-size="16.0" fill="#E2E2E2" transform="matrix(1.00, 0.00, -0.00, -1.00, 198.1, 104.2)">t</text><text xml:space="preserve" font-family="Helvetica,Helvetica" font-size="16.0" fill="#E2E2E2" transform="matrix(1.00, 0.00, -0.00, -1.00, 202.6, 104.2)">,</text><text xml:space="preserve" font-family="Helvetica,Helvetica" font-size="16.0" fill="#E2E2E2" transform="matrix(1.00, 0.00, -0.00, -1.00, 207.0, 104.2)"> </text><text xml:space="preserve" font-family="Helvetica,Helvetica" font-size="16.0" fill="#E2E2E2" transform="matrix(1.00, 0.00, -0.00, -1.00, 9.6, 85.2)">c</text><text xml:space="preserve" font-family="Helvetica,Helvetica" font-size="16.0" fill="#E2E2E2" transform="matrix(1.00, 0.00, -0.00, -1.00, 17.6, 85.2)">o</text><text xml:space="preserve" font-family="Helvetica,Helvetica" font-size="16.0" fill="#E2E2E2" transform="matrix(1.00, 0.00, -0.00, -1.00, 26.5, 85.2)">n</text><text xml:space="preserve" font-family="Helvetica,Helvetica" font-size="16.0" fill="#E2E2E2" transform="matrix(1.00, 0.00, -0.00, -1.00, 35.4, 85.2)">s</text><text xml:space="preserve" font-family="Helvetica,Helvetica" font-size="16.0" fill="#E2E2E2" transform="matrix(1.00, 0.00, -0.00, -1.00, 43.4, 85.2)">e</text><text xml:space="preserve" font-family="Helvetica,Helvetica" font-size="16.0" fill="#E2E2E2" transform="matrix(1.00, 0.00, -0.00, -1.00, 52.3, 85.2)">c</text><text xml:space="preserve" font-family="Helvetica,Helvetica" font-size="16.0" fill="#E2E2E2" transform="matrix(1.00, 0.00, -0.00, -1.00, 60.3, 85.2)">t</text><text xml:space="preserve" font-family="Helvetica,Helvetica" font-size="16.0" fill="#E2E2E2" transform="matrix(1.00, 0.00, -0.00, -1.00, 64.8, 85.2)">e</text><text xml:space="preserve" font-family="Helvetica,Helvetica" font-size="16.0" fill="#E2E2E2" transform="matrix(1.00, 0.00, -0.00, -1.00, 73.7, 85.2)">t</text><text xml:space="preserve" font-family="Helvetica,Helvetica" font-size="16.0" fill="#E2E2E2" transform="matrix(1.00, 0.00, -0.00, -1.00, 78.1, 85.2)">u</text><text xml:space="preserve" font-family="Helvetica,Helvetica" font-size="16.0" fill="#E2E2E2" transform="matrix(1.00, 0.00, -0.00, -1.00, 87.0, 85.2)">e</text><text xml:space="preserve" font-family="Helvetica,Helvetica" font-size="16.0" fill="#E2E2E2" transform="matrix(1.00, 0.00, -0.00, -1.00, 95.9, 85.2)">r</text><text xml:space="preserve" font-family="Helvetica,Helvetica" font-size="16.0" fill="#E2E2E2" transform="matrix(1.00, 0.00, -0.00, -1.00, 101.2, 85.2)"> </text><text xml:space="preserve" font-family="Helvetica,Helvetica" font-size="16.0" fill="#E2E2E2" transform="matrix(1.00, 0.00, -0.00, -1.00, 105.7, 85.2)">a</text><text xml:space="preserve" font-family="Helvetica,Helvetica" font-size="16.0" fill="#E2E2E2" transform="matrix(1.00, 0.00, -0.00, -1.00, 114.6, 85.2)">d</text><text xml:space="preserve" font-family="Helvetica,Helvetica" font-size="16.0" fill="#E2E2E2" transform="matrix(1.00, 0.00, -0.00, -1.00, 123.5, 85.2)">i</text><text xml:space="preserve" font-family="Helvetica,Helvetica" font-size="16.0" fill="#E2E2E2" transform="matrix(1.00, 0.00, -0.00, -1.00, 127.0, 85.2)">p</text><text xml:space="preserve" font-family="Helvetica,Helvetica" font-size="16.0" fill="#E2E2E2" transform="matrix(1.00, 0.00, -0.00, -1.00, 135.9, 85.2)">i</text><text xml:space="preserve" font-family="Helvetica,Helvetica" font-size="16.0" fill="#E2E2E2" transform="matrix(1.00, 0.00, -0.00, -1.00, 139.5, 85.2)">s</text><text xml:space="preserve" font-family="Helvetica,Helvetica" font-size="16.0" fill="#E2E2E2" transform="matrix(1.00, 0.00, -0.00, -1.00, 147.5, 85.2)">c</text><text xml:space="preserve" font-family="Helvetica,Helvetica" font-size="16.0" fill="#E2E2E2" transform="matrix(1.00, 0.00, -0.00, -1.00, 155.5, 85.2)">i</text><text xml:space="preserve" font-family="Helvetica,Helvetica" font-size="16.0" fill="#E2E2E2" transform="matrix(1.00, 0.00, -0.00, -1.00, 159.0, 85.2)">n</text><text xml:space="preserve" font-family="Helvetica,Helvetica" font-size="16.0" fill="#E2E2E2" transform="matrix(1.00, 0.00, -0.00, -1.00, 168.0, 85.2)">g</text><text xml:space="preserve" font-family="Helvetica,Helvetica" font-size="16.0" fill="#E2E2E2" transform="matrix(1.00, 0.00, -0.00, -1.00, 176.9, 85.2)"> </text><text xml:space="preserve" font-family="Helvetica,Helvetica" font-size="16.0" fill="#E2E2E2" transform="matrix(1.00, 0.00, -0.00, -1.00, 181.3, 85.2)">e</text><text xml:space="preserve" font-family="Helvetica,Helvetica" font-size="16.0" fill="#E2E2E2" transform="matrix(1.00, 0.00, -0.00, -1.00, 190.2, 85.2)">l</text><text xml:space="preserve" font-family="Helvetica,Helvetica" font-size="16.0" fill="#E2E2E2" transform="matrix(1.00, 0.00, -0.00, -1.00, 193.8, 85.2)">i</text><text xml:space="preserve" font-family="Helvetica,Helvetica" font-size="16.0" fill="#E2E2E2" transform="matrix(1.00, 0.00, -0.00, -1.00, 197.3, 85.2)">t</text><text xml:space="preserve" font-family="Helvetica,Helvetica" font-size="16.0" fill="#E2E2E2" transform="matrix(1.00, 0.00, -0.00, -1.00, 201.8, 85.2)">,</text><text xml:space="preserve" font-family="Helvetica,Helvetica" font-size="16.0" fill="#E2E2E2" transform="matrix(1.00, 0.00, -0.00, -1.00, 206.2, 85.2)"> </text><text xml:space="preserve" font-family="Helvetica,Helvetica" font-size="16.0" fill="#E2E2E2" transform="matrix(1.00, 0.00, -0.00, -1.00, 9.6, 66.2)">s</text><text xml:space="preserve" font-family="Helvetica,Helvetica" font-size="16.0" fill="#E2E2E2" transform="matrix(1.00, 0.00, -0.00, -1.00, 17.6, 66.2)">e</text><text xml:space="preserve" font-family="Helvetica,Helvetica" font-size="16.0" fill="#E2E2E2" transform="matrix(1.00, 0.00, -0.00, -1.00, 26.5, 66.2)">d</text><text xml:space="preserve" font-family="Helvetica,Helvetica" font-size="16.0" fill="#E2E2E2" transform="matrix(1.00, 0.00, -0.00, -1.00, 35.4, 66.2)"> </text><text xml:space="preserve" font-family="Helvetica,Helvetica" font-size="16.0" fill="#E2E2E2" transform="matrix(1.00, 0.00, -0.00, -1.00, 39.9, 66.2)">d</text><text xml:space="preserve" font-family="Helvetica,Helvetica" font-size="16.0" fill="#E2E2E2" transform="matrix(1.00, 0.00, -0.00, -1.00, 48.8, 66.2)">i</text><text xml:space="preserve" font-family="Helvetica,Helvetica" font-size="16.0" fill="#E2E2E2" transform="matrix(1.00, 0.00, -0.00, -1.00, 52.3, 66.2)">a</text><text xml:space="preserve" font-family="Helvetica,Helvetica" font-size="16.0" fill="#E2E2E2" transform="matrix(1.00, 0.00, -0.00, -1.00, 61.2, 66.2)">m</text><text xml:space="preserve" font-family="Helvetica,Helvetica" font-size="16.0" fill="#E2E2E2" transform="matrix(1.00, 0.00, -0.00, -1.00, 74.5, 66.2)"> </text><text xml:space="preserve" font-family="Helvetica,Helvetica" font-size="16.0" fill="#E2E2E2" transform="matrix(1.00, 0.00, -0.00, -1.00, 79.0, 66.2)">n</text><text xml:space="preserve" font-family="Helvetica,Helvetica" font-size="16.0" fill="#E2E2E2" transform="matrix(1.00, 0.00, -0.00, -1.00, 87.9, 66.2)">o</text><text xml:space="preserve" font-family="Helvetica,Helvetica" font-size="16.0" fill="#E2E2E2" transform="matrix(1.00, 0.00, -0.00, -1.00, 96.8, 66.2)">n</text><text xml:space="preserve" font-family="Helvetica,Helvetica" font-size="16.0" fill="#E2E2E2" transform="matrix(1.00, 0.00, -0.00, -1.00, 105.7, 66.2)">u</text><text xml:space="preserve" font-family="Helvetica,Helvetica" font-size="16.0" fill="#E2E2E2" transform="matrix(1.00, 0.00, -0.00, -1.00, 114.6, 66.2)">m</text><text xml:space="preserve" font-family="Helvetica,Helvetica" font-size="16.0" fill="#E2E2E2" transform="matrix(1.00, 0.00, -0.00, -1.00, 127.9, 66.2)">m</text><text xml:space="preserve" font-family="Helvetica,Helvetica" font-size="16.0" fill="#E2E2E2" transform="matrix(1.00, 0.00, -0.00, -1.00, 141.2, 66.2)">y</text><text xml:space="preserve" font-family="Helvetica,Helvetica" font-size="16.0" fill="#E2E2E2" transform="matrix(1.00, 0.00, -0.00, -1.00, 149.2, 66.2)"> </text><text xml:space="preserve" font-family="Helvetica,Helvetica" font-size="16.0" fill="#E2E2E2" transform="matrix(1.00, 0.00, -0.00, -1.00, 153.7, 66.2)">n</text><text xml:space="preserve" font-family="Helvetica,Helvetica" font-size="16.0" fill="#E2E2E2" transform="matrix(1.00, 0.00, -0.00, -1.00, 162.6, 66.2)">i</text><text xml:space="preserve" font-family="Helvetica,Helvetica" font-size="16.0" fill="#E2E2E2" transform="matrix(1.00, 0.00, -0.00, -1.00, 166.1, 66.2)">b</text><text xml:space="preserve" font-family="Helvetica,Helvetica" font-size="16.0" fill="#E2E2E2" transform="matrix(1.00, 0.00, -0.00, -1.00, 175.0, 66.2)">h</text><text xml:space="preserve" font-family="Helvetica,Helvetica" font-size="16.0" fill="#E2E2E2" transform="matrix(1.00, 0.00, -0.00, -1.00, 184.0, 66.2)"> </text><text xml:space="preserve" font-family="Helvetica,Helvetica" font-size="16.0" fill="#E2E2E2" transform="matrix(1.00, 0.00, -0.00, -1.00, 9.6, 47.2)">e</text><text xml:space="preserve" font-family="Helvetica,Helvetica" font-size="16.0" fill="#E2E2E2" transform="matrix(1.00, 0.00, -0.00, -1.00, 18.5, 47.2)">u</text><text xml:space="preserve" font-family="Helvetica,Helvetica" font-size="16.0" fill="#E2E2E2" transform="matrix(1.00, 0.00, -0.00, -1.00, 27.4, 47.2)">i</text><text xml:space="preserve" font-family="Helvetica,Helvetica" font-size="16.0" fill="#E2E2E2" transform="matrix(1.00, 0.00, -0.00, -1.00, 31.0, 47.2)">s</text><text xml:space="preserve" font-family="Helvetica,Helvetica" font-size="16.0" fill="#E2E2E2" transform="matrix(1.00, 0.00, -0.00, -1.00, 39.0, 47.2)">m</text><text xml:space="preserve" font-family="Helvetica,Helvetica" font-size="16.0" fill="#E2E2E2" transform="matrix(1.00, 0.00, -0.00, -1.00, 52.3, 47.2)">o</text><text xml:space="preserve" font-family="Helvetica,Helvetica" font-size="16.0" fill="#E2E2E2" transform="matrix(1.00, 0.00, -0.00, -1.00, 61.2, 47.2)">d</text><text xml:space="preserve" font-family="Helvetica,Helvetica" font-size="16.0" fill="#E2E2E2" transform="matrix(1.00, 0.00, -0.00, -1.00, 70.1, 47.2)"> </text><text xml:space="preserve" font-family="Helvetica,Helvetica" font-size="16.0" fill="#E2E2E2" transform="matrix(1.00, 0.00, -0.00, -1.00, 74.5, 47.2)">t</text><text xml:space="preserve" font-family="Helvetica,Helvetica" font-size="16.0" fill="#E2E2E2" transform="matrix(1.00, 0.00, -0.00, -1.00, 79.0, 47.2)">i</text><text xml:space="preserve" font-family="Helvetica,Helvetica" font-size="16.0" fill="#E2E2E2" transform="matrix(1.00, 0.00, -0.00, -1.00, 82.5, 47.2)">n</text><text xml:space="preserve" font-family="Helvetica,Helvetica" font-size="16.0" fill="#E2E2E2" transform="matrix(1.00, 0.00, -0.00, -1.00, 91.4, 47.2)">c</text><text xml:space="preserve" font-family="Helvetica,Helvetica" font-size="16.0" fill="#E2E2E2" transform="matrix(1.00, 0.00, -0.00, -1.00, 99.4, 47.2)">i</text><text xml:space="preserve" font-family="Helvetica,Helvetica" font-size="16.0" fill="#E2E2E2" transform="matrix(1.00, 0.00, -0.00, -1.00, 103.0, 47.2)">d</text><text xml:space="preserve" font-family="Helvetica,Helvetica" font-size="16.0" fill="#E2E2E2" transform="matrix(1.00, 0.00, -0.00, -1.00, 111.9, 47.2)">u</text><text xml:space="preserve" font-family="Helvetica,Helvetica" font-size="16.0" fill="#E2E2E2" transform="matrix(1.00, 0.00, -0.00, -1.00, 120.8, 47.2)">n</text><text xml:space="preserve" font-family="Helvetica,Helvetica" font-size="16.0" fill="#E2E2E2" transform="matrix(1.00, 0.00, -0.00, -1.00, 129.7, 47.2)">t</text><text xml:space="preserve" font-family="Helvetica,Helvetica" font-size="16.0" fill="#E2E2E2" transform="matrix(1.00, 0.00, -0.00, -1.00, 134.1, 47.2)"> </text><text xml:space="preserve" font-family="Helvetica,Helvetica" font-size="16.0" fill="#E2E2E2" transform="matrix(1.00, 0.00, -0.00, -1.00, 138.6, 47.2)">u</text><text xml:space="preserve" font-family="Helvetica,Helvetica" font-size="16.0" fill="#E2E2E2" transform="matrix(1.00, 0.00, -0.00, -1.00, 147.5, 47.2)">t</text><text xml:space="preserve" font-family="Helvetica,Helvetica" font-size="16.0" fill="#E2E2E2" transform="matrix(1.00, 0.00, -0.00, -1.00, 151.9, 47.2)"> </text><text xml:space="preserve" font-family="Helvetica,Helvetica" font-size="16.0" fill="#E2E2E2" transform="matrix(1.00, 0.00, -0.00, -1.00, 156.4, 47.2)">l</text><text xml:space="preserve" font-family="Helvetica,Helvetica" font-size="16.0" fill="#E2E2E2" transform="matrix(1.00, 0.00, -0.00, -1.00, 159.9, 47.2)">a</text><text xml:space="preserve" font-family="Helvetica,Helvetica" font-size="16.0" fill="#E2E2E2" transform="matrix(1.00, 0.00, -0.00, -1.00, 168.8, 47.2)">o</text><text xml:space="preserve" font-family="Helvetica,Helvetica" font-size="16.0" fill="#E2E2E2" transform="matrix(1.00, 0.00, -0.00, -1.00, 177.7, 47.2)">r</text><text xml:space="preserve" font-family="Helvetica,Helvetica" font-size="16.0" fill="#E2E2E2" transform="matrix(1.00, 0.00, -0.00, -1.00, 183.1, 47.2)">e</text><text xml:space="preserve" font-family="Helvetica,Helvetica" font-size="16.0" fill="#E2E2E2" transform="matrix(1.00, 0.00, -0.00, -1.00, 192.0, 47.2)">e</text><text xml:space="preserve" font-family="Helvetica,Helvetica" font-size="16.0" fill="#E2E2E2" transform="matrix(1.00, 0.00, -0.00, -1.00, 200.9, 47.2)">t</text><text xml:space="preserve" font-family="Helvetica,Helvetica" font-size="16.0" fill="#E2E2E2" transform="matrix(1.00, 0.00, -0.00, -1.00, 205.3, 47.2)"> </text><text xml:space="preserve" font-family="Helvetica,Helvetica" font-size="16.0" fill="#E2E2E2" transform="matrix(1.00, 0.00, -0.00, -1.00, 9.6, 28.2)">d</text><text xml:space="preserve" font-family="Helvetica,Helvetica" font-size="16.0" fill="#E2E2E2" transform="matrix(1.00, 0.00, -0.00, -1.00, 18.5, 28.2)">o</text><text xml:space="preserve" font-family="Helvetica,Helvetica" font-size="16.0" fill="#E2E2E2" transform="matrix(1.00, 0.00, -0.00, -1.00, 27.4, 28.2)">l</text><text xml:space="preserve" font-family="Helvetica,Helvetica" font-size="16.0" fill="#E2E2E2" transform="matrix(1.00, 0.00, -0.00, -1.00, 31.0, 28.2)">o</text><text xml:space="preserve" font-family="Helvetica,Helvetica" font-size="16.0" fill="#E2E2E2" transform="matrix(1.00, 0.00, -0.00, -1.00, 39.9, 28.2)">r</text><text xml:space="preserve" font-family="Helvetica,Helvetica" font-size="16.0" fill="#E2E2E2" transform="matrix(1.00, 0.00, -0.00, -1.00, 45.2, 28.2)">e</text><text xml:space="preserve" font-family="Helvetica,Helvetica" font-size="16.0" fill="#E2E2E2" transform="matrix(1.00, 0.00, -0.00, -1.00, 54.1, 28.2)"> </text><text xml:space="preserve" font-family="Helvetica,Helvetica" font-size="16.0" fill="#E2E2E2" transform="matrix(1.00, 0.00, -0.00, -1.00, 58.5, 28.2)">m</text><text xml:space="preserve" font-family="Helvetica,Helvetica" font-size="16.0" fill="#E2E2E2" transform="matrix(1.00, 0.00, -0.00, -1.00, 71.9, 28.2)">a</text><text xml:space="preserve" font-family="Helvetica,Helvetica" font-size="16.0" fill="#E2E2E2" transform="matrix(1.00, 0.00, -0.00, -1.00, 80.8, 28.2)">g</text><text xml:space="preserve" font-family="Helvetica,Helvetica" font-size="16.0" fill="#E2E2E2" transform="matrix(1.00, 0.00, -0.00, -1.00, 89.7, 28.2)">n</text><text xml:space="preserve" font-family="Helvetica,Helvetica" font-size="16.0" fill="#E2E2E2" transform="matrix(1.00, 0.00, -0.00, -1.00, 98.6, 28.2)">a</text><text xml:space="preserve" font-family="Helvetica,Helvetica" font-size="16.0" fill="#E2E2E2" transform="matrix(1.00, 0.00, -0.00, -1.00, 107.5, 28.2)"> </text><text xml:space="preserve" font-family="Helvetica,Helvetica" font-size="16.0" fill="#E2E2E2" transform="matrix(1.00, 0.00, -0.00, -1.00, 111.9, 28.2)">a</text><text xml:space="preserve" font-family="Helvetica,Helvetica" font-size="16.0" fill="#E2E2E2" transform="matrix(1.00, 0.00, -0.00, -1.00, 120.8, 28.2)">l</text><text xml:space="preserve" font-family="Helvetica,Helvetica" font-size="16.0" fill="#E2E2E2" transform="matrix(1.00, 0.00, -0.00, -1.00, 124.4, 28.2)">i</text><text xml:space="preserve" font-family="Helvetica,Helvetica" font-size="16.0" fill="#E2E2E2" transform="matrix(1.00, 0.00, -0.00, -1.00, 127.9, 28.2)">q</text><text xml:space="preserve" font-family="Helvetica,Helvetica" font-size="16.0" fill="#E2E2E2" transform="matrix(1.00, 0.00, -0.00, -1.00, 136.8, 28.2)">u</text><text xml:space="preserve" font-family="Helvetica,Helvetica" font-size="16.0" fill="#E2E2E2" transform="matrix(1.00, 0.00, -0.00, -1.00, 145.7, 28.2)">a</text><text xml:space="preserve" font-family="Helvetica,Helvetica" font-size="16.0" fill="#E2E2E2" transform="matrix(1.00, 0.00, -0.00, -1.00, 154.6, 28.2)">m</text><text xml:space="preserve" font-family="Helvetica,Helvetica" font-size="16.0" fill="#E2E2E2" transform="matrix(1.00, 0.00, -0.00, -1.00, 168.0, 28.2)"> </text><text xml:space="preserve" font-family="Helvetica,Helvetica" font-size="16.0" fill="#E2E2E2" transform="matrix(1.00, 0.00, -0.00, -1.00, 172.4, 28.2)">e</text><text xml:space="preserve" font-family="Helvetica,Helvetica" font-size="16.0" fill="#E2E2E2" transform="matrix(1.00, 0.00, -0.00, -1.00, 181.3, 28.2)">r</text><text xml:space="preserve" font-family="Helvetica,Helvetica" font-size="16.0" fill="#E2E2E2" transform="matrix(1.00, 0.00, -0.00, -1.00, 186.6, 28.2)">a</text><text xml:space="preserve" font-family="Helvetica,Helvetica" font-size="16.0" fill="#E2E2E2" transform="matrix(1.00, 0.00, -0.00, -1.00, 195.5, 28.2)">t</text><text xml:space="preserve" font-family="Helvetica,Helvetica" font-size="16.0" fill="#E2E2E2" transform="matrix(1.00, 0.00, -0.00, -1.00, 200.0, 28.2)"> </text><text xml:space="preserve" font-family="Helvetica,Helvetica" font-size="16.0" fill="#E2E2E2" transform="matrix(1.00, 0.00, -0.00, -1.00, 9.6, 9.2)">v</text><text xml:space="preserve" font-family="Helvetica,Helvetica" font-size="16.0" fill="#E2E2E2" transform="matrix(1.00, 0.00, -0.00, -1.00, 17.6, 9.2)">o</text><text xml:space="preserve" font-family="Helvetica,Helvetica" font-size="16.0" fill="#E2E2E2" transform="matrix(1.00, 0.00, -0.00, -1.00, 26.5, 9.2)">l</text><text xml:space="preserve" font-family="Helvetica,Helvetica" font-size="16.0" fill="#E2E2E2" transform="matrix(1.00, 0.00, -0.00, -1.00, 30.1, 9.2)">u</text><text xml:space="preserve" font-family="Helvetica,Helvetica" font-size="16.0" fill="#E2E2E2" transform="matrix(1.00, 0.00, -0.00, -1.00, 39.0, 9.2)">t</text><text xml:space="preserve" font-family="Helvetica,Helvetica" font-size="16.0" fill="#E2E2E2" transform="matrix(1.00, 0.00, -0.00, -1.00, 43.4, 9.2)">p</text><text xml:space="preserve" font-family="Helvetica,Helvetica" font-size="16.0" fill="#E2E2E2" transform="matrix(1.00, 0.00, -0.00, -1.00, 52.3, 9.2)">a</text><text xml:space="preserve" font-family="Helvetica,Helvetica" font-size="16.0" fill="#E2E2E2" transform="matrix(1.00, 0.00, -0.00, -1.00, 61.2, 9.2)">t</text><text xml:space="preserve" font-family="Helvetica,Helvetica" font-size="16.0" fill="#E2E2E2" transform="matrix(1.00, 0.00, -0.00, -1.00, 65.7, 9.2)">.</text><text xml:space="preserve" font-family="Helvetica,Helvetica" font-size="16.0" fill="#E2E2E2" transform="matrix(1.00, 0.00, -0.00, -1.00, 70.1, 9.2)"> </text><text xml:space="preserve" font-family="Helvetica,Helvetica" font-size="16.0" fill="#E2E2E2" transform="matrix(1.00, 0.00, -0.00, -1.00, 74.5, 9.2)">U</text><text xml:space="preserve" font-family="Helvetica,Helvetica" font-size="16.0" fill="#E2E2E2" transform="matrix(1.00, 0.00, -0.00, -1.00, 86.1, 9.2)">t</text><text xml:space="preserve" font-family="Helvetica,Helvetica" font-size="16.0" fill="#E2E2E2" transform="matrix(1.00, 0.00, -0.00, -1.00, 90.5, 9.2)"> </text><text xml:space="preserve" font-family="Helvetica,Helvetica" font-size="16.0" fill="#E2E2E2" transform="matrix(1.00, 0.00, -0.00, -1.00, 95.0, 9.2)">w</text><text xml:space="preserve" font-family="Helvetica,Helvetica" font-size="16.0" fill="#E2E2E2" transform="matrix(1.00, 0.00, -0.00, -1.00, 106.5, 9.2)">i</text><text xml:space="preserve" font-family="Helvetica,Helvetica" font-size="16.0" fill="#E2E2E2" transform="matrix(1.00, 0.00, -0.00, -1.00, 110.1, 9.2)">s</text><text xml:space="preserve" font-family="Helvetica,Helvetica" font-size="16.0" fill="#E2E2E2" transform="matrix(1.00, 0.00, -0.00, -1.00, 118.1, 9.2)">i</text><text xml:space="preserve" font-family="Helvetica,Helvetica" font-size="16.0" fill="#E2E2E2" transform="matrix(1.00, 0.00, -0.00, -1.00, 121.7, 9.2)"> </text><text xml:space="preserve" font-family="Helvetica,Helvetica" font-size="16.0" fill="#E2E2E2" transform="matrix(1.00, 0.00, -0.00, -1.00, 126.1, 9.2)">e</text><text xml:space="preserve" font-family="Helvetica,Helvetica" font-size="16.0" fill="#E2E2E2" transform="matrix(1.00, 0.00, -0.00, -1.00, 135.0, 9.2)">n</text><text xml:space="preserve" font-family="Helvetica,Helvetica" font-size="16.0" fill="#E2E2E2" transform="matrix(1.00, 0.00, -0.00, -1.00, 143.9, 9.2)">i</text><text xml:space="preserve" font-family="Helvetica,Helvetica" font-size="16.0" fill="#E2E2E2" transform="matrix(1.00, 0.00, -0.00, -1.00, 147.5, 9.2)">m</text><text xml:space="preserve" font-family="Helvetica,Helvetica" font-size="16.0" fill="#E2E2E2" transform="matrix(1.00, 0.00, -0.00, -1.00, 160.8, 9.2)">.</text></g></g><g><clipPath id="clip0x610007ca3540"><path d="M 1.2 123.4 L 128.9 123.4 L 128.9 154.4 L 1.2 154.4 Z M 1.2 123.4 "></path></clipPath><g clip-path="url(#clip0x610007ca3540)"><text xml:space="preserve" font-family="Helvetica,Helvetica" font-size="18.0" fill="#E2E2E2" transform="matrix(1.00, 0.00, -0.00, -1.00, 6.2, 132.0)">F</text><text xml:space="preserve" font-family="Helvetica,Helvetica" font-size="18.0" fill="#E2E2E2" transform="matrix(1.00, 0.00, -0.00, -1.00, 17.2, 132.0)">O</text><text xml:space="preserve" font-family="Helvetica,Helvetica" font-size="18.0" fill="#E2E2E2" transform="matrix(1.00, 0.00, -0.00, -1.00, 31.2, 132.0)">U</text><text xml:space="preserve" font-family="Helvetica,Helvetica" font-size="18.0" fill="#E2E2E2" transform="matrix(1.00, 0.00, -0.00, -1.00, 44.2, 132.0)">N</text><text xml:space="preserve" font-family="Helvetica,Helvetica" font-size="18.0" fill="#E2E2E2" transform="matrix(1.00, 0.00, -0.00, -1.00, 57.2, 132.0)">D</text><text xml:space="preserve" font-family="Helvetica,Helvetica" font-size="18.0" fill="#E2E2E2" transform="matrix(1.00, 0.00, -0.00, -1.00, 70.2, 132.0)">A</text><text xml:space="preserve" font-family="Helvetica,Helvetica" font-size="18.0" fill="#E2E2E2" transform="matrix(1.00, 0.00, -0.00, -1.00, 80.9, 132.0)">T</text><text xml:space="preserve" font-family="Helvetica,Helvetica" font-size="18.0" fill="#E2E2E2" transform="matrix(1.00, 0.00, -0.00, -1.00, 91.8, 132.0)">I</text><text xml:space="preserve" font-family="Helvetica,Helvetica" font-size="18.0" fill="#E2E2E2" transform="matrix(1.00, 0.00, -0.00, -1.00, 96.8, 132.0)">O</text><text xml:space="preserve" font-family="Helvetica,Helvetica" font-size="18.0" fill="#E2E2E2" transform="matrix(1.00, 0.00, -0.00, -1.00, 110.8, 132.0)">N</text></g></g></g></svg>