<?xml version="1.0" encoding="UTF-8" standalone="no"?><svg xmlns="http://www.w3.org/2000/svg" xmlns:xlink="http://www.w3.org/1999/xlink" clip-rule="evenodd" stroke-miterlimit="10" viewBox="0 0 258 266"><desc>SVG generated by Keynote</desc><defs></defs><g transform="matrix(1.00, 0.00, -0.00, -1.00, 0.0, 266.0)"><g><clipPath id="clip0x608006eb4e80"><path d="M 1.7 185.0 L 256.9 185.0 L 256.9 231.0 L 1.7 231.0 Z M 1.7 185.0 "></path></clipPath><g clip-path="url(#clip0x608006eb4e80)"><text xml:space="preserve" font-family="Helvetica,Helvetica" font-size="16.0" fill="#E2E2E2" transform="matrix(1.00, 0.00, -0.00, -1.00, 5.7, 211.7)">L</text><text xml:space="preserve" font-family="Helvetica,Helvetica" font-size="16.0" fill="#E2E2E2" transform="matrix(1.00, 0.00, -0.00, -1.00, 14.6, 211.7)">o</text><text xml:space="preserve" font-family="Helvetica,Helvetica" font-size="16.0" fill="#E2E2E2" transform="matrix(1.00, 0.00, -0.00, -1.00, 23.5, 211.7)">r</text><text xml:space="preserve" font-family="Helvetica,Helvetica" font-size="16.0" fill="#E2E2E2" transform="matrix(1.00, 0.00, -0.00, -1.00, 28.8, 211.7)">e</text><text xml:space="preserve" font-family="Helvetica,Helvetica" font-size="16.0" fill="#E2E2E2" transform="matrix(1.00, 0.00, -0.00, -1.00, 37.7, 211.7)">m</text><text xml:space="preserve" font-family="Helvetica,Helvetica" font-size="16.0" fill="#E2E2E2" transform="matrix(1.00, 0.00, -0.00, -1.00, 51.1, 211.7)"> </text><text xml:space="preserve" font-family="Helvetica,Helvetica" font-size="16.0" fill="#E2E2E2" transform="matrix(1.00, 0.00, -0.00, -1.00, 55.5, 211.7)">i</text><text xml:space="preserve" font-family="Helvetica,Helvetica" font-size="16.0" fill="#E2E2E2" transform="matrix(1.00, 0.00, -0.00, -1.00, 59.1, 211.7)">p</text><text xml:space="preserve" font-family="Helvetica,Helvetica" font-size="16.0" fill="#E2E2E2" transform="matrix(1.00, 0.00, -0.00, -1.00, 68.0, 211.7)">s</text><text xml:space="preserve" font-family="Helvetica,Helvetica" font-size="16.0" fill="#E2E2E2" transform="matrix(1.00, 0.00, -0.00, -1.00, 76.0, 211.7)">u</text><text xml:space="preserve" font-family="Helvetica,Helvetica" font-size="16.0" fill="#E2E2E2" transform="matrix(1.00, 0.00, -0.00, -1.00, 84.9, 211.7)">m</text><text xml:space="preserve" font-family="Helvetica,Helvetica" font-size="16.0" fill="#E2E2E2" transform="matrix(1.00, 0.00, -0.00, -1.00, 98.2, 211.7)"> </text><text xml:space="preserve" font-family="Helvetica,Helvetica" font-size="16.0" fill="#E2E2E2" transform="matrix(1.00, 0.00, -0.00, -1.00, 102.6, 211.7)">d</text><text xml:space="preserve" font-family="Helvetica,Helvetica" font-size="16.0" fill="#E2E2E2" transform="matrix(1.00, 0.00, -0.00, -1.00, 111.5, 211.7)">o</text><text xml:space="preserve" font-family="Helvetica,Helvetica" font-size="16.0" fill="#E2E2E2" transform="matrix(1.00, 0.00, -0.00, -1.00, 120.4, 211.7)">l</text><text xml:space="preserve" font-family="Helvetica,Helvetica" font-size="16.0" fill="#E2E2E2" transform="matrix(1.00, 0.00, -0.00, -1.00, 124.0, 211.7)">o</text><text xml:space="preserve" font-family="Helvetica,Helvetica" font-size="16.0" fill="#E2E2E2" transform="matrix(1.00, 0.00, -0.00, -1.00, 132.9, 211.7)">r</text><text xml:space="preserve" font-family="Helvetica,Helvetica" font-size="16.0" fill="#E2E2E2" transform="matrix(1.00, 0.00, -0.00, -1.00, 138.2, 211.7)"> </text><text xml:space="preserve" font-family="Helvetica,Helvetica" font-size="16.0" fill="#E2E2E2" transform="matrix(1.00, 0.00, -0.00, -1.00, 142.7, 211.7)">s</text><text xml:space="preserve" font-family="Helvetica,Helvetica" font-size="16.0" fill="#E2E2E2" transform="matrix(1.00, 0.00, -0.00, -1.00, 150.7, 211.7)">i</text><text xml:space="preserve" font-family="Helvetica,Helvetica" font-size="16.0" fill="#E2E2E2" transform="matrix(1.00, 0.00, -0.00, -1.00, 154.2, 211.7)">t</text><text xml:space="preserve" font-family="Helvetica,Helvetica" font-size="16.0" fill="#E2E2E2" transform="matrix(1.00, 0.00, -0.00, -1.00, 158.7, 211.7)"> </text><text xml:space="preserve" font-family="Helvetica,Helvetica" font-size="16.0" fill="#E2E2E2" transform="matrix(1.00, 0.00, -0.00, -1.00, 163.1, 211.7)">a</text><text xml:space="preserve" font-family="Helvetica,Helvetica" font-size="16.0" fill="#E2E2E2" transform="matrix(1.00, 0.00, -0.00, -1.00, 172.0, 211.7)">m</text><text xml:space="preserve" font-family="Helvetica,Helvetica" font-size="16.0" fill="#E2E2E2" transform="matrix(1.00, 0.00, -0.00, -1.00, 185.3, 211.7)">e</text><text xml:space="preserve" font-family="Helvetica,Helvetica" font-size="16.0" fill="#E2E2E2" transform="matrix(1.00, 0.00, -0.00, -1.00, 194.2, 211.7)">t</text><text xml:space="preserve" font-family="Helvetica,Helvetica" font-size="16.0" fill="#E2E2E2" transform="matrix(1.00, 0.00, -0.00, -1.00, 198.7, 211.7)">,</text><text xml:space="preserve" font-family="Helvetica,Helvetica" font-size="16.0" fill="#E2E2E2" transform="matrix(1.00, 0.00, -0.00, -1.00, 203.1, 211.7)"> </text><text xml:space="preserve" font-family="Helvetica,Helvetica" font-size="16.0" fill="#E2E2E2" transform="matrix(1.00, 0.00, -0.00, -1.00, 207.6, 211.7)">c</text><text xml:space="preserve" font-family="Helvetica,Helvetica" font-size="16.0" fill="#E2E2E2" transform="matrix(1.00, 0.00, -0.00, -1.00, 215.6, 211.7)">o</text><text xml:space="preserve" font-family="Helvetica,Helvetica" font-size="16.0" fill="#E2E2E2" transform="matrix(1.00, 0.00, -0.00, -1.00, 224.5, 211.7)">n</text><text xml:space="preserve" font-family="Helvetica,Helvetica" font-size="16.0" fill="#E2E2E2" transform="matrix(1.00, 0.00, -0.00, -1.00, 233.4, 211.7)">e</text><text xml:space="preserve" font-family="Helvetica,Helvetica" font-size="16.0" fill="#E2E2E2" transform="matrix(1.00, 0.00, -0.00, -1.00, 242.3, 211.7)">r</text><text xml:space="preserve" font-family="Helvetica,Helvetica" font-size="16.0" fill="#E2E2E2" transform="matrix(1.00, 0.00, -0.00, -1.00, 247.6, 211.7)"> </text><text xml:space="preserve" font-family="Helvetica,Helvetica" font-size="16.0" fill="#E2E2E2" transform="matrix(1.00, 0.00, -0.00, -1.00, 5.7, 192.7)">a</text><text xml:space="preserve" font-family="Helvetica,Helvetica" font-size="16.0" fill="#E2E2E2" transform="matrix(1.00, 0.00, -0.00, -1.00, 14.6, 192.7)">d</text><text xml:space="preserve" font-family="Helvetica,Helvetica" font-size="16.0" fill="#E2E2E2" transform="matrix(1.00, 0.00, -0.00, -1.00, 23.5, 192.7)">i</text><text xml:space="preserve" font-family="Helvetica,Helvetica" font-size="16.0" fill="#E2E2E2" transform="matrix(1.00, 0.00, -0.00, -1.00, 27.1, 192.7)">p</text><text xml:space="preserve" font-family="Helvetica,Helvetica" font-size="16.0" fill="#E2E2E2" transform="matrix(1.00, 0.00, -0.00, -1.00, 36.0, 192.7)">i</text><text xml:space="preserve" font-family="Helvetica,Helvetica" font-size="16.0" fill="#E2E2E2" transform="matrix(1.00, 0.00, -0.00, -1.00, 39.5, 192.7)">s</text><text xml:space="preserve" font-family="Helvetica,Helvetica" font-size="16.0" fill="#E2E2E2" transform="matrix(1.00, 0.00, -0.00, -1.00, 47.5, 192.7)">c</text><text xml:space="preserve" font-family="Helvetica,Helvetica" font-size="16.0" fill="#E2E2E2" transform="matrix(1.00, 0.00, -0.00, -1.00, 55.5, 192.7)">i</text><text xml:space="preserve" font-family="Helvetica,Helvetica" font-size="16.0" fill="#E2E2E2" transform="matrix(1.00, 0.00, -0.00, -1.00, 59.1, 192.7)">n</text><text xml:space="preserve" font-family="Helvetica,Helvetica" font-size="16.0" fill="#E2E2E2" transform="matrix(1.00, 0.00, -0.00, -1.00, 68.0, 192.7)">g</text><text xml:space="preserve" font-family="Helvetica,Helvetica" font-size="16.0" fill="#E2E2E2" transform="matrix(1.00, 0.00, -0.00, -1.00, 76.9, 192.7)"> </text><text xml:space="preserve" font-family="Helvetica,Helvetica" font-size="16.0" fill="#E2E2E2" transform="matrix(1.00, 0.00, -0.00, -1.00, 81.3, 192.7)">e</text><text xml:space="preserve" font-family="Helvetica,Helvetica" font-size="16.0" fill="#E2E2E2" transform="matrix(1.00, 0.00, -0.00, -1.00, 90.2, 192.7)">l</text><text xml:space="preserve" font-family="Helvetica,Helvetica" font-size="16.0" fill="#E2E2E2" transform="matrix(1.00, 0.00, -0.00, -1.00, 93.8, 192.7)">i</text><text xml:space="preserve" font-family="Helvetica,Helvetica" font-size="16.0" fill="#E2E2E2" transform="matrix(1.00, 0.00, -0.00, -1.00, 97.3, 192.7)">t</text><text xml:space="preserve" font-family="Helvetica,Helvetica" font-size="16.0" fill="#E2E2E2" transform="matrix(1.00, 0.00, -0.00, -1.00, 101.8, 192.7)"> </text><text xml:space="preserve" font-family="Helvetica,Helvetica" font-size="16.0" fill="#E2E2E2" transform="matrix(1.00, 0.00, -0.00, -1.00, 106.2, 192.7)">s</text><text xml:space="preserve" font-family="Helvetica,Helvetica" font-size="16.0" fill="#E2E2E2" transform="matrix(1.00, 0.00, -0.00, -1.00, 114.2, 192.7)">o</text><text xml:space="preserve" font-family="Helvetica,Helvetica" font-size="16.0" fill="#E2E2E2" transform="matrix(1.00, 0.00, -0.00, -1.00, 123.1, 192.7)">m</text><text xml:space="preserve" font-family="Helvetica,Helvetica" font-size="16.0" fill="#E2E2E2" transform="matrix(1.00, 0.00, -0.00, -1.00, 136.5, 192.7)">e</text><text xml:space="preserve" font-family="Helvetica,Helvetica" font-size="16.0" fill="#E2E2E2" transform="matrix(1.00, 0.00, -0.00, -1.00, 145.4, 192.7)"> </text><text xml:space="preserve" font-family="Helvetica,Helvetica" font-size="16.0" fill="#E2E2E2" transform="matrix(1.00, 0.00, -0.00, -1.00, 149.8, 192.7)">t</text><text xml:space="preserve" font-family="Helvetica,Helvetica" font-size="16.0" fill="#E2E2E2" transform="matrix(1.00, 0.00, -0.00, -1.00, 154.2, 192.7)">e</text><text xml:space="preserve" font-family="Helvetica,Helvetica" font-size="16.0" fill="#E2E2E2" transform="matrix(1.00, 0.00, -0.00, -1.00, 163.2, 192.7)"> </text><text xml:space="preserve" font-family="Helvetica,Helvetica" font-size="16.0" fill="#E2E2E2" transform="matrix(1.00, 0.00, -0.00, -1.00, 167.6, 192.7)">h</text><text xml:space="preserve" font-family="Helvetica,Helvetica" font-size="16.0" fill="#E2E2E2" transform="matrix(1.00, 0.00, -0.00, -1.00, 176.5, 192.7)">e</text><text xml:space="preserve" font-family="Helvetica,Helvetica" font-size="16.0" fill="#E2E2E2" transform="matrix(1.00, 0.00, -0.00, -1.00, 185.4, 192.7)">r</text><text xml:space="preserve" font-family="Helvetica,Helvetica" font-size="16.0" fill="#E2E2E2" transform="matrix(1.00, 0.00, -0.00, -1.00, 190.7, 192.7)">a</text><text xml:space="preserve" font-family="Helvetica,Helvetica" font-size="16.0" fill="#E2E2E2" transform="matrix(1.00, 0.00, -0.00, -1.00, 199.6, 192.7)"> </text><text xml:space="preserve" font-family="Helvetica,Helvetica" font-size="16.0" fill="#E2E2E2" transform="matrix(1.00, 0.00, -0.00, -1.00, 204.1, 192.7)">r</text><text xml:space="preserve" font-family="Helvetica,Helvetica" font-size="16.0" fill="#E2E2E2" transform="matrix(1.00, 0.00, -0.00, -1.00, 209.4, 192.7)">e</text><text xml:space="preserve" font-family="Helvetica,Helvetica" font-size="16.0" fill="#E2E2E2" transform="matrix(1.00, 0.00, -0.00, -1.00, 218.3, 192.7)">t</text><text xml:space="preserve" font-family="Helvetica,Helvetica" font-size="16.0" fill="#E2E2E2" transform="matrix(1.00, 0.00, -0.00, -1.00, 222.7, 192.7)">.</text></g></g><g><clipPath id="clip0x608006eb7160"><path d="M 1.3 233.7 L 172.4 233.7 L 172.4 264.7 L 1.3 264.7 Z M 1.3 233.7 "></path></clipPath><g clip-path="url(#clip0x608006eb7160)"><text xml:space="preserve" font-family="Helvetica,Helvetica" font-size="18.0" fill="#E2E2E2" transform="matrix(1.00, 0.00, -0.00, -1.00, 5.8, 242.4)">T</text><text xml:space="preserve" font-family="Helvetica,Helvetica" font-size="18.0" fill="#E2E2E2" transform="matrix(1.00, 0.00, -0.00, -1.00, 16.8, 242.4)">I</text><text xml:space="preserve" font-family="Helvetica,Helvetica" font-size="18.0" fill="#E2E2E2" transform="matrix(1.00, 0.00, -0.00, -1.00, 21.8, 242.4)">T</text><text xml:space="preserve" font-family="Helvetica,Helvetica" font-size="18.0" fill="#E2E2E2" transform="matrix(1.00, 0.00, -0.00, -1.00, 32.8, 242.4)">L</text><text xml:space="preserve" font-family="Helvetica,Helvetica" font-size="18.0" fill="#E2E2E2" transform="matrix(1.00, 0.00, -0.00, -1.00, 42.8, 242.4)">E</text><text xml:space="preserve" font-family="Helvetica,Helvetica" font-size="18.0" fill="#E2E2E2" transform="matrix(1.00, 0.00, -0.00, -1.00, 54.8, 242.4)"> </text><text xml:space="preserve" font-family="Helvetica,Helvetica" font-size="18.0" fill="#E2E2E2" transform="matrix(1.00, 0.00, -0.00, -1.00, 59.8, 242.4)">G</text><text xml:space="preserve" font-family="Helvetica,Helvetica" font-size="18.0" fill="#E2E2E2" transform="matrix(1.00, 0.00, -0.00, -1.00, 73.8, 242.4)">O</text><text xml:space="preserve" font-family="Helvetica,Helvetica" font-size="18.0" fill="#E2E2E2" transform="matrix(1.00, 0.00, -0.00, -1.00, 87.8, 242.4)">E</text><text xml:space="preserve" font-family="Helvetica,Helvetica" font-size="18.0" fill="#E2E2E2" transform="matrix(1.00, 0.00, -0.00, -1.00, 99.8, 242.4)">S</text><text xml:space="preserve" font-family="Helvetica,Helvetica" font-size="18.0" fill="#E2E2E2" transform="matrix(1.00, 0.00, -0.00, -1.00, 111.8, 242.4)"> </text><text xml:space="preserve" font-family="Helvetica,Helvetica" font-size="18.0" fill="#E2E2E2" transform="matrix(1.00, 0.00, -0.00, -1.00, 116.8, 242.4)">H</text><text xml:space="preserve" font-family="Helvetica,Helvetica" font-size="18.0" fill="#E2E2E2" transform="matrix(1.00, 0.00, -0.00, -1.00, 129.8, 242.4)">E</text><text xml:space="preserve" font-family="Helvetica,Helvetica" font-size="18.0" fill="#E2E2E2" transform="matrix(1.00, 0.00, -0.00, -1.00, 141.8, 242.4)">R</text><text xml:space="preserve" font-family="Helvetica,Helvetica" font-size="18.0" fill="#E2E2E2" transform="matrix(1.00, 0.00, -0.00, -1.00, 154.8, 242.4)">E</text></g></g><g><clipPath id="clip0x608006eb78e0"><path d="M 5.6 0.8 L 253.4 0.8 L 253.4 179.8 L 5.6 179.8 Z M 5.6 0.8 "></path></clipPath><g clip-path="url(#clip0x608006eb78e0)"><path d="M 17.4 157.3 L 235.4 157.3 " fill="none" stroke="#919191" stroke-width="1.00" stroke-dasharray="2.0, 2.0" transform="matrix(1.00, 0.00, 0.00, -1.00, 5.6, 179.8)"></path><path d="M 17.4 122.3 L 235.4 122.3 " fill="none" stroke="#919191" stroke-width="1.00" stroke-dasharray="2.0, 2.0" transform="matrix(1.00, 0.00, 0.00, -1.00, 5.6, 179.8)"></path><path d="M 17.4 87.3 L 235.4 87.3 " fill="none" stroke="#919191" stroke-width="1.00" stroke-dasharray="2.0, 2.0" transform="matrix(1.00, 0.00, 0.00, -1.00, 5.6, 179.8)"></path><path d="M 17.4 52.3 L 235.4 52.3 " fill="none" stroke="#919191" stroke-width="1.00" stroke-dasharray="2.0, 2.0" transform="matrix(1.00, 0.00, 0.00, -1.00, 5.6, 179.8)"></path><path d="M 17.4 17.3 L 235.4 17.3 " fill="none" stroke="#919191" stroke-width="1.00" stroke-dasharray="2.0, 2.0" transform="matrix(1.00, 0.00, 0.00, -1.00, 5.6, 179.8)"></path></g></g><g><clipPath id="clip0x608006eb7ca0"><path d="M 5.6 0.8 L 41.8 0.8 L 41.8 18.8 L 5.6 18.8 Z M 5.6 0.8 "></path></clipPath><g clip-path="url(#clip0x608006eb7ca0)"><text xml:space="preserve" font-family="Helvetica-Light,Helvetica" font-size="14.0" fill="#E2E2E2" transform="matrix(1.00, 0.00, -0.00, -1.00, 6.1, 4.1)">S</text><text xml:space="preserve" font-family="Helvetica-Light,Helvetica" font-size="14.0" fill="#E2E2E2" transform="matrix(1.00, 0.00, -0.00, -1.00, 14.7, 4.1)">a</text><text xml:space="preserve" font-family="Helvetica-Light,Helvetica" font-size="14.0" fill="#E2E2E2" transform="matrix(1.00, 0.00, -0.00, -1.00, 22.5, 4.1)">l</text><text xml:space="preserve" font-family="Helvetica-Light,Helvetica" font-size="14.0" fill="#E2E2E2" transform="matrix(1.00, 0.00, -0.00, -1.00, 25.6, 4.1)">e</text><text xml:space="preserve" font-family="Helvetica-Light,Helvetica" font-size="14.0" fill="#E2E2E2" transform="matrix(1.00, 0.00, -0.00, -1.00, 33.3, 4.1)">s</text></g></g><g><clipPath id="clip0x608006eb8060"><path d="M 73.0 0.8 L 118.8 0.8 L 118.8 18.8 L 73.0 18.8 Z M 73.0 0.8 "></path></clipPath><g clip-path="url(#clip0x608006eb8060)"><text xml:space="preserve" font-family="Helvetica-Light,Helvetica" font-size="14.0" fill="#E2E2E2" transform="matrix(1.00, 0.00, -0.00, -1.00, 74.5, 4.1)">M</text><text xml:space="preserve" font-family="Helvetica-Light,Helvetica" font-size="14.0" fill="#E2E2E2" transform="matrix(1.00, 0.00, -0.00, -1.00, 86.2, 4.1)">a</text><text xml:space="preserve" font-family="Helvetica-Light,Helvetica" font-size="14.0" fill="#E2E2E2" transform="matrix(1.00, 0.00, -0.00, -1.00, 94.0, 4.1)">r</text><text xml:space="preserve" font-family="Helvetica-Light,Helvetica" font-size="14.0" fill="#E2E2E2" transform="matrix(1.00, 0.00, -0.00, -1.00, 98.6, 4.1)">k</text><text xml:space="preserve" font-family="Helvetica-Light,Helvetica" font-size="14.0" fill="#E2E2E2" transform="matrix(1.00, 0.00, -0.00, -1.00, 105.6, 4.1)">e</text><text xml:space="preserve" font-family="Helvetica-Light,Helvetica" font-size="14.0" fill="#E2E2E2" transform="matrix(1.00, 0.00, -0.00, -1.00, 113.4, 4.1)">t</text></g></g><g><clipPath id="clip0x608006eb8480"><path d="M 147.7 0.8 L 189.4 0.8 L 189.4 18.8 L 147.7 18.8 Z M 147.7 0.8 "></path></clipPath><g clip-path="url(#clip0x608006eb8480)"><text xml:space="preserve" font-family="Helvetica-Light,Helvetica" font-size="14.0" fill="#E2E2E2" transform="matrix(1.00, 0.00, -0.00, -1.00, 149.2, 4.1)">W</text><text xml:space="preserve" font-family="Helvetica-Light,Helvetica" font-size="14.0" fill="#E2E2E2" transform="matrix(1.00, 0.00, -0.00, -1.00, 161.4, 4.1)">o</text><text xml:space="preserve" font-family="Helvetica-Light,Helvetica" font-size="14.0" fill="#E2E2E2" transform="matrix(1.00, 0.00, -0.00, -1.00, 169.2, 4.1)">r</text><text xml:space="preserve" font-family="Helvetica-Light,Helvetica" font-size="14.0" fill="#E2E2E2" transform="matrix(1.00, 0.00, -0.00, -1.00, 173.9, 4.1)">k</text><text xml:space="preserve" font-family="Helvetica-Light,Helvetica" font-size="14.0" fill="#E2E2E2" transform="matrix(1.00, 0.00, -0.00, -1.00, 180.9, 4.1)">s</text></g></g><g><clipPath id="clip0x608006eb8840"><path d="M 228.1 0.8 L 253.4 0.8 L 253.4 18.8 L 228.1 18.8 Z M 228.1 0.8 "></path></clipPath><g clip-path="url(#clip0x608006eb8840)"><text xml:space="preserve" font-family="Helvetica-Light,Helvetica" font-size="14.0" fill="#E2E2E2" transform="matrix(1.00, 0.00, -0.00, -1.00, 229.6, 4.1)">I</text><text xml:space="preserve" font-family="Helvetica-Light,Helvetica" font-size="14.0" fill="#E2E2E2" transform="matrix(1.00, 0.00, -0.00, -1.00, 233.4, 4.1)">n</text><text xml:space="preserve" font-family="Helvetica-Light,Helvetica" font-size="14.0" fill="#E2E2E2" transform="matrix(1.00, 0.00, -0.00, -1.00, 241.2, 4.1)">f</text><text xml:space="preserve" font-family="Helvetica-Light,Helvetica" font-size="14.0" fill="#E2E2E2" transform="matrix(1.00, 0.00, -0.00, -1.00, 245.1, 4.1)">o</text></g></g><g><clipPath id="clip0x608006eb8ba0"><path d="M 5.6 0.8 L 253.4 0.8 L 253.4 179.8 L 5.6 179.8 Z M 5.6 0.8 "></path></clipPath><g clip-path="url(#clip0x608006eb8ba0)"><g><g><clipPath id="clip0x608006eb8d80"><path d="M 21.4 21.0 L 243.0 21.0 L 243.0 164.6 L 21.4 164.6 Z M 21.4 21.0 "></path></clipPath><g clip-path="url(#clip0x608006eb8d80)"><path d="M 0.0 21.0 L 72.7 37.8 L 145.3 0.0 L 218.0 16.8 " fill="none" stroke="#62D7AD" stroke-width="3.00" transform="matrix(1.00, 0.00, 0.00, -1.00, 23.2, 120.8)"></path></g></g><g><clipPath id="clip0x608006eb8fc0"><path d="M 28.2 99.8 C 28.2 97.1 26.0 94.8 23.2 94.8 C 20.5 94.8 18.2 97.1 18.2 99.8 C 18.2 102.6 20.5 104.8 23.2 104.8 C 26.0 104.8 28.2 102.6 28.2 99.8 Z M 28.2 99.8 "></path></clipPath><g clip-path="url(#clip0x608006eb8fc0)"><g><clipPath id="clip0x608006eb9140"><path d="M 5.0 0.0 L 254.0 0.0 L 254.0 180.0 L 5.0 180.0 Z M 5.0 0.0 "></path></clipPath><g clip-path="url(#clip0x608006eb9140)"><path d="M 16.0 107.0 L 31.0 107.0 L 31.0 92.0 L 16.0 92.0 Z M 16.0 107.0 " fill="#62D7AD"></path></g></g></g></g><g><clipPath id="clip0x608006eb9380"><path d="M 5.0 0.0 L 254.0 0.0 L 254.0 180.0 L 5.0 180.0 Z M 5.0 0.0 "></path></clipPath><g clip-path="url(#clip0x608006eb9380)"><path d="M 22.6 80.0 C 22.6 82.8 20.4 85.0 17.6 85.0 C 14.9 85.0 12.6 82.8 12.6 80.0 C 12.6 77.2 14.9 75.0 17.6 75.0 C 20.4 75.0 22.6 77.2 22.6 80.0 Z M 22.6 80.0 " fill="none" stroke="#62D7AD" stroke-width="2.00" transform="matrix(1.00, 0.00, 0.00, -1.00, 5.6, 179.8)"></path></g></g><g><clipPath id="clip0x608006eb95c0"><path d="M 100.9 83.0 C 100.9 80.3 98.7 78.0 95.9 78.0 C 93.1 78.0 90.9 80.3 90.9 83.0 C 90.9 85.8 93.1 88.0 95.9 88.0 C 98.7 88.0 100.9 85.8 100.9 83.0 Z M 100.9 83.0 "></path></clipPath><g clip-path="url(#clip0x608006eb95c0)"><g><clipPath id="clip0x608006eb9740"><path d="M 5.0 0.0 L 254.0 0.0 L 254.0 180.0 L 5.0 180.0 Z M 5.0 0.0 "></path></clipPath><g clip-path="url(#clip0x608006eb9740)"><path d="M 88.0 91.0 L 103.0 91.0 L 103.0 76.0 L 88.0 76.0 Z M 88.0 91.0 " fill="#62D7AD"></path></g></g></g></g><g><clipPath id="clip0x608006eb9980"><path d="M 5.0 0.0 L 254.0 0.0 L 254.0 180.0 L 5.0 180.0 Z M 5.0 0.0 "></path></clipPath><g clip-path="url(#clip0x608006eb9980)"><path d="M 95.3 96.8 C 95.3 99.6 93.0 101.8 90.3 101.8 C 87.5 101.8 85.3 99.6 85.3 96.8 C 85.3 94.0 87.5 91.8 90.3 91.8 C 93.0 91.8 95.3 94.0 95.3 96.8 Z M 95.3 96.8 " fill="none" stroke="#62D7AD" stroke-width="2.00" transform="matrix(1.00, 0.00, 0.00, -1.00, 5.6, 179.8)"></path></g></g><g><clipPath id="clip0x608006eb9bc0"><path d="M 173.6 120.8 C 173.6 118.1 171.3 115.8 168.6 115.8 C 165.8 115.8 163.6 118.1 163.6 120.8 C 163.6 123.6 165.8 125.8 168.6 125.8 C 171.3 125.8 173.6 123.6 173.6 120.8 Z M 173.6 120.8 "></path></clipPath><g clip-path="url(#clip0x608006eb9bc0)"><g><clipPath id="clip0x608006eb9d40"><path d="M 5.0 0.0 L 254.0 0.0 L 254.0 180.0 L 5.0 180.0 Z M 5.0 0.0 "></path></clipPath><g clip-path="url(#clip0x608006eb9d40)"><path d="M 161.0 128.0 L 176.0 128.0 L 176.0 113.0 L 161.0 113.0 Z M 161.0 128.0 " fill="#62D7AD"></path></g></g></g></g><g><clipPath id="clip0x608006eb9f80"><path d="M 5.0 0.0 L 254.0 0.0 L 254.0 180.0 L 5.0 180.0 Z M 5.0 0.0 "></path></clipPath><g clip-path="url(#clip0x608006eb9f80)"><path d="M 167.9 59.0 C 167.9 61.8 165.7 64.0 162.9 64.0 C 160.2 64.0 157.9 61.8 157.9 59.0 C 157.9 56.2 160.2 54.0 162.9 54.0 C 165.7 54.0 167.9 56.2 167.9 59.0 Z M 167.9 59.0 " fill="none" stroke="#62D7AD" stroke-width="2.00" transform="matrix(1.00, 0.00, 0.00, -1.00, 5.6, 179.8)"></path></g></g><g><clipPath id="clip0x608006eba1c0"><path d="M 246.2 104.0 C 246.2 101.3 244.0 99.0 241.2 99.0 C 238.5 99.0 236.2 101.3 236.2 104.0 C 236.2 106.8 238.5 109.0 241.2 109.0 C 244.0 109.0 246.2 106.8 246.2 104.0 Z M 246.2 104.0 "></path></clipPath><g clip-path="url(#clip0x608006eba1c0)"><g><clipPath id="clip0x608006eba340"><path d="M 5.0 0.0 L 254.0 0.0 L 254.0 180.0 L 5.0 180.0 Z M 5.0 0.0 "></path></clipPath><g clip-path="url(#clip0x608006eba340)"><path d="M 234.0 112.0 L 249.0 112.0 L 249.0 97.0 L 234.0 97.0 Z M 234.0 112.0 " fill="#62D7AD"></path></g></g></g></g><g><clipPath id="clip0x608006eba580"><path d="M 5.0 0.0 L 254.0 0.0 L 254.0 180.0 L 5.0 180.0 Z M 5.0 0.0 "></path></clipPath><g clip-path="url(#clip0x608006eba580)"><path d="M 240.6 75.8 C 240.6 78.6 238.4 80.8 235.6 80.8 C 232.9 80.8 230.6 78.6 230.6 75.8 C 230.6 73.0 232.9 70.8 235.6 70.8 C 238.4 70.8 240.6 73.0 240.6 75.8 Z M 240.6 75.8 " fill="none" stroke="#62D7AD" stroke-width="2.00" transform="matrix(1.00, 0.00, 0.00, -1.00, 5.6, 179.8)"></path></g></g></g></g></g><g><clipPath id="clip0x608006eba7c0"><path d="M 5.6 0.8 L 253.4 0.8 L 253.4 179.8 L 5.6 179.8 Z M 5.6 0.8 "></path></clipPath><g clip-path="url(#clip0x608006eba7c0)"><g><g><clipPath id="clip0x608006eba9a0"><path d="M 22.0 21.6 L 242.4 21.6 L 242.4 164.0 L 22.0 164.0 Z M 22.0 21.6 "></path></clipPath><g clip-path="url(#clip0x608006eba9a0)"><path d="M 0.0 110.6 L 72.7 98.0 L 145.3 60.2 L 218.0 0.0 " fill="none" stroke="#54C6E1" stroke-width="2.00" transform="matrix(1.00, 0.00, 0.00, -1.00, 23.2, 157.2)"></path></g></g><g><clipPath id="clip0x608006ebabe0"><path d="M 28.2 46.6 C 28.2 43.9 26.0 41.6 23.2 41.6 C 20.5 41.6 18.2 43.9 18.2 46.6 C 18.2 49.4 20.5 51.6 23.2 51.6 C 26.0 51.6 28.2 49.4 28.2 46.6 Z M 28.2 46.6 "></path></clipPath><g clip-path="url(#clip0x608006ebabe0)"><g><clipPath id="clip0x608006ebad60"><path d="M 5.0 0.0 L 254.0 0.0 L 254.0 180.0 L 5.0 180.0 Z M 5.0 0.0 "></path></clipPath><g clip-path="url(#clip0x608006ebad60)"><path d="M 16.0 54.0 L 31.0 54.0 L 31.0 39.0 L 16.0 39.0 Z M 16.0 54.0 " fill="#54C6E1"></path></g></g></g></g><g><clipPath id="clip0x608006ebafa0"><path d="M 5.0 0.0 L 254.0 0.0 L 254.0 180.0 L 5.0 180.0 Z M 5.0 0.0 "></path></clipPath><g clip-path="url(#clip0x608006ebafa0)"><path d="M 22.6 133.2 C 22.6 136.0 20.4 138.2 17.6 138.2 C 14.9 138.2 12.6 136.0 12.6 133.2 C 12.6 130.4 14.9 128.2 17.6 128.2 C 20.4 128.2 22.6 130.4 22.6 133.2 Z M 22.6 133.2 " fill="none" stroke="#54C6E1" stroke-width="2.00" transform="matrix(1.00, 0.00, 0.00, -1.00, 5.6, 179.8)"></path></g></g><g><clipPath id="clip0x608006ebb1e0"><path d="M 100.9 59.2 C 100.9 56.5 98.7 54.2 95.9 54.2 C 93.1 54.2 90.9 56.5 90.9 59.2 C 90.9 62.0 93.1 64.2 95.9 64.2 C 98.7 64.2 100.9 62.0 100.9 59.2 Z M 100.9 59.2 "></path></clipPath><g clip-path="url(#clip0x608006ebb1e0)"><g><clipPath id="clip0x608006ebb360"><path d="M 5.0 0.0 L 254.0 0.0 L 254.0 180.0 L 5.0 180.0 Z M 5.0 0.0 "></path></clipPath><g clip-path="url(#clip0x608006ebb360)"><path d="M 88.0 67.0 L 103.0 67.0 L 103.0 52.0 L 88.0 52.0 Z M 88.0 67.0 " fill="#54C6E1"></path></g></g></g></g><g><clipPath id="clip0x608006ebb5a0"><path d="M 5.0 0.0 L 254.0 0.0 L 254.0 180.0 L 5.0 180.0 Z M 5.0 0.0 "></path></clipPath><g clip-path="url(#clip0x608006ebb5a0)"><path d="M 95.3 120.6 C 95.3 123.4 93.0 125.6 90.3 125.6 C 87.5 125.6 85.3 123.4 85.3 120.6 C 85.3 117.8 87.5 115.6 90.3 115.6 C 93.0 115.6 95.3 117.8 95.3 120.6 Z M 95.3 120.6 " fill="none" stroke="#54C6E1" stroke-width="2.00" transform="matrix(1.00, 0.00, 0.00, -1.00, 5.6, 179.8)"></path></g></g><g><clipPath id="clip0x608006ebb7e0"><path d="M 173.6 97.0 C 173.6 94.3 171.3 92.0 168.6 92.0 C 165.8 92.0 163.6 94.3 163.6 97.0 C 163.6 99.8 165.8 102.0 168.6 102.0 C 171.3 102.0 173.6 99.8 173.6 97.0 Z M 173.6 97.0 "></path></clipPath><g clip-path="url(#clip0x608006ebb7e0)"><g><clipPath id="clip0x608006ebb960"><path d="M 5.0 0.0 L 254.0 0.0 L 254.0 180.0 L 5.0 180.0 Z M 5.0 0.0 "></path></clipPath><g clip-path="url(#clip0x608006ebb960)"><path d="M 161.0 105.0 L 176.0 105.0 L 176.0 90.0 L 161.0 90.0 Z M 161.0 105.0 " fill="#54C6E1"></path></g></g></g></g><g><clipPath id="clip0x608006ebbba0"><path d="M 5.0 0.0 L 254.0 0.0 L 254.0 180.0 L 5.0 180.0 Z M 5.0 0.0 "></path></clipPath><g clip-path="url(#clip0x608006ebbba0)"><path d="M 167.9 82.8 C 167.9 85.6 165.7 87.8 162.9 87.8 C 160.2 87.8 157.9 85.6 157.9 82.8 C 157.9 80.0 160.2 77.8 162.9 77.8 C 165.7 77.8 167.9 80.0 167.9 82.8 Z M 167.9 82.8 " fill="none" stroke="#54C6E1" stroke-width="2.00" transform="matrix(1.00, 0.00, 0.00, -1.00, 5.6, 179.8)"></path></g></g><g><clipPath id="clip0x608006ebbde0"><path d="M 246.2 157.2 C 246.2 154.5 244.0 152.2 241.2 152.2 C 238.5 152.2 236.2 154.5 236.2 157.2 C 236.2 160.0 238.5 162.2 241.2 162.2 C 244.0 162.2 246.2 160.0 246.2 157.2 Z M 246.2 157.2 "></path></clipPath><g clip-path="url(#clip0x608006ebbde0)"><g><clipPath id="clip0x608006ebbf60"><path d="M 5.0 0.0 L 254.0 0.0 L 254.0 180.0 L 5.0 180.0 Z M 5.0 0.0 "></path></clipPath><g clip-path="url(#clip0x608006ebbf60)"><path d="M 234.0 165.0 L 249.0 165.0 L 249.0 150.0 L 234.0 150.0 Z M 234.0 165.0 " fill="#54C6E1"></path></g></g></g></g><g><clipPath id="clip0x608006ebc1a0"><path d="M 5.0 0.0 L 254.0 0.0 L 254.0 180.0 L 5.0 180.0 Z M 5.0 0.0 "></path></clipPath><g clip-path="url(#clip0x608006ebc1a0)"><path d="M 240.6 22.6 C 240.6 25.4 238.4 27.6 235.6 27.6 C 232.9 27.6 230.6 25.4 230.6 22.6 C 230.6 19.8 232.9 17.6 235.6 17.6 C 238.4 17.6 240.6 19.8 240.6 22.6 Z M 240.6 22.6 " fill="none" stroke="#54C6E1" stroke-width="2.00" transform="matrix(1.00, 0.00, 0.00, -1.00, 5.6, 179.8)"></path></g></g></g></g></g></g></svg>