<?xml version="1.0" encoding="UTF-8" standalone="no"?><svg xmlns="http://www.w3.org/2000/svg" xmlns:xlink="http://www.w3.org/1999/xlink" clip-rule="evenodd" stroke-miterlimit="10" viewBox="0 0 74 73"><desc>SVG generated by Keynote</desc><defs></defs><g transform="matrix(1.00, 0.00, -0.00, -1.00, 0.0, 73.0)"><g><clipPath id="clip0x6000084b1460"><path d="M 0.9 0.3 L 73.5 0.3 L 73.5 72.9 L 0.9 72.9 Z M 0.9 0.3 "></path></clipPath><g clip-path="url(#clip0x6000084b1460)"><path d="M 58.5 10.0 C 71.9 23.4 71.9 45.1 58.5 58.5 C 45.1 71.9 23.4 71.9 10.0 58.5 C -3.3 45.1 -3.3 23.4 10.0 10.0 C 23.4 -3.3 45.1 -3.3 58.5 10.0 Z M 58.5 10.0 " fill="none" stroke="#677188" stroke-opacity="0.60" stroke-width="2.00" transform="matrix(1.00, 0.00, 0.00, -1.00, 2.9, 70.9)"></path></g></g><g><clipPath id="clip0x6000084b18e0"><path d="M 10.4 12.6 L 64.0 12.6 L 64.0 60.6 L 10.4 60.6 Z M 10.4 12.6 "></path></clipPath><g clip-path="url(#clip0x6000084b18e0)"></g></g></g></svg>