<?xml version="1.0" encoding="UTF-8" standalone="no"?><svg xmlns="http://www.w3.org/2000/svg" xmlns:xlink="http://www.w3.org/1999/xlink" clip-rule="evenodd" stroke-miterlimit="10" viewBox="0 0 1860 27"><desc>SVG generated by Keynote</desc><defs></defs><g transform="matrix(1.00, 0.00, -0.00, -1.00, 0.0, 27.0)"><g><clipPath id="clip0x6000084a2700"><path d="M 22.3 11.5 L 1859.2 11.5 L 1859.2 15.5 L 22.3 15.5 Z M 22.3 11.5 "></path></clipPath><g clip-path="url(#clip0x6000084a2700)"><path d="M -0.3 0.5 L 1834.7 0.5 " fill="none" stroke="#E2E2E2" stroke-opacity="0.60" stroke-width="2.00" transform="matrix(1.00, 0.00, 0.00, -1.00, 23.3, 13.5)"></path></g></g><g><clipPath id="clip0x6000084a28e0"><path d="M 0.7 0.8 L 26.1 0.8 L 26.1 26.2 L 0.7 26.2 Z M 0.7 0.8 "></path></clipPath><g clip-path="url(#clip0x6000084a28e0)"><path d="M 18.3 3.1 C 22.5 7.3 22.5 14.1 18.3 18.3 C 14.1 22.5 7.3 22.5 3.1 18.3 C -1.0 14.1 -1.0 7.3 3.1 3.1 C 7.3 -1.0 14.1 -1.0 18.3 3.1 Z M 18.3 3.1 " fill="none" stroke="#E2E2E2" stroke-opacity="0.60" stroke-width="2.00" transform="matrix(1.00, 0.00, 0.00, -1.00, 2.7, 24.2)"></path></g></g></g></svg>