<?xml version="1.0" encoding="UTF-8" standalone="no"?><svg xmlns="http://www.w3.org/2000/svg" xmlns:xlink="http://www.w3.org/1999/xlink" clip-rule="evenodd" stroke-miterlimit="10" viewBox="0 0 36 36"><desc>SVG generated by Keynote</desc><defs></defs><g transform="matrix(1.00, 0.00, -0.00, -1.00, 0.0, 36.0)"><g><clipPath id="clip0x6180076bce00"><path d="M 1.6 1.0 L 34.6 1.0 L 34.6 34.0 L 1.6 34.0 Z M 1.6 1.0 "></path></clipPath><g clip-path="url(#clip0x6180076bce00)"><path d="M 28.0 27.4 C 33.4 21.9 33.4 13.1 28.0 7.6 C 22.5 2.1 13.7 2.1 8.2 7.6 C 2.7 13.1 2.7 21.9 8.2 27.4 C 13.7 32.9 22.5 32.9 28.0 27.4 Z M 28.0 27.4 " fill="#54C6E1"></path><path d="M 23.9 4.1 C 29.4 9.6 29.4 18.4 23.9 23.9 C 18.4 29.4 9.6 29.4 4.1 23.9 C -1.4 18.4 -1.4 9.6 4.1 4.1 C 9.6 -1.4 18.4 -1.4 23.9 4.1 Z M 23.9 4.1 " fill="none" stroke="#5A6378" stroke-width="3.00" transform="matrix(1.00, 0.00, 0.00, -1.00, 4.1, 31.5)"></path></g></g><g><clipPath id="clip0x6180076bd0a0"><path d="M 0.6 0.0 L 35.6 0.0 L 35.6 35.0 L 0.6 35.0 Z M 0.6 0.0 "></path></clipPath><g clip-path="url(#clip0x6180076bd0a0)"><path d="M 26.5 4.5 C 32.5 10.6 32.5 20.4 26.5 26.5 C 20.4 32.5 10.6 32.5 4.5 26.5 C -1.5 20.4 -1.5 10.6 4.5 4.5 C 10.6 -1.5 20.4 -1.5 26.5 4.5 Z M 26.5 4.5 " fill="none" stroke="#E2E2E2" stroke-opacity="0.60" stroke-width="2.00" transform="matrix(1.00, 0.00, 0.00, -1.00, 2.6, 33.0)"></path></g></g></g></svg>