<?xml version="1.0" encoding="UTF-8" standalone="no"?><svg xmlns="http://www.w3.org/2000/svg" xmlns:xlink="http://www.w3.org/1999/xlink" clip-rule="evenodd" stroke-miterlimit="10" viewBox="0 0 927 159"><desc>SVG generated by Keynote</desc><defs></defs><g transform="matrix(1.00, 0.00, -0.00, -1.00, 0.0, 159.0)"><g><clipPath id="clip0x60000a0b8fc0"><path d="M 0.7 0.0 L 926.4 0.0 L 926.4 158.4 L 0.7 158.4 Z M 0.7 0.0 "></path></clipPath><g clip-path="url(#clip0x60000a0b8fc0)"><path d="M 2.0 157.0 L 925.0 157.0 L 925.0 1.0 L 2.0 1.0 Z M 1.7 157.4 " fill="#EDC25F"></path></g></g><g><clipPath id="clip0x60000a0b97a0"><path d="M 29.7 14.2 L 132.9 14.2 L 132.9 150.2 L 29.7 150.2 Z M 29.7 14.2 "></path></clipPath><g clip-path="url(#clip0x60000a0b97a0)"><text xml:space="preserve" font-family="Helvetica,Helvetica" font-size="80.0" fill="#F6F6F6" transform="matrix(1.00, 0.00, -0.00, -1.00, 50.2, 52.6)">G</text></g></g><g><clipPath id="clip0x60000a0b99e0"><path d="M 161.4 86.6 L 501.2 86.6 L 501.2 127.6 L 161.4 127.6 Z M 161.4 86.6 "></path></clipPath><g clip-path="url(#clip0x60000a0b99e0)"><text xml:space="preserve" font-family="Helvetica,Helvetica" font-size="24.0" fill="#F6F6F6" transform="matrix(1.00, 0.00, -0.00, -1.00, 167.4, 98.2)">S</text><text xml:space="preserve" font-family="Helvetica,Helvetica" font-size="24.0" fill="#F6F6F6" transform="matrix(1.00, 0.00, -0.00, -1.00, 183.4, 98.2)">h</text><text xml:space="preserve" font-family="Helvetica,Helvetica" font-size="24.0" fill="#F6F6F6" transform="matrix(1.00, 0.00, -0.00, -1.00, 196.8, 98.2)">a</text><text xml:space="preserve" font-family="Helvetica,Helvetica" font-size="24.0" fill="#F6F6F6" transform="matrix(1.00, 0.00, -0.00, -1.00, 210.1, 98.2)">r</text><text xml:space="preserve" font-family="Helvetica,Helvetica" font-size="24.0" fill="#F6F6F6" transform="matrix(1.00, 0.00, -0.00, -1.00, 218.1, 98.2)">e</text><text xml:space="preserve" font-family="Helvetica,Helvetica" font-size="24.0" fill="#F6F6F6" transform="matrix(1.00, 0.00, -0.00, -1.00, 231.5, 98.2)"> </text><text xml:space="preserve" font-family="Helvetica,Helvetica" font-size="24.0" fill="#F6F6F6" transform="matrix(1.00, 0.00, -0.00, -1.00, 238.1, 98.2)">y</text><text xml:space="preserve" font-family="Helvetica,Helvetica" font-size="24.0" fill="#F6F6F6" transform="matrix(1.00, 0.00, -0.00, -1.00, 250.1, 98.2)">o</text><text xml:space="preserve" font-family="Helvetica,Helvetica" font-size="24.0" fill="#F6F6F6" transform="matrix(1.00, 0.00, -0.00, -1.00, 263.5, 98.2)">u</text><text xml:space="preserve" font-family="Helvetica,Helvetica" font-size="24.0" fill="#F6F6F6" transform="matrix(1.00, 0.00, -0.00, -1.00, 276.8, 98.2)">r</text><text xml:space="preserve" font-family="Helvetica,Helvetica" font-size="24.0" fill="#F6F6F6" transform="matrix(1.00, 0.00, -0.00, -1.00, 284.8, 98.2)"> </text><text xml:space="preserve" font-family="Helvetica,Helvetica" font-size="24.0" fill="#F6F6F6" transform="matrix(1.00, 0.00, -0.00, -1.00, 291.5, 98.2)">d</text><text xml:space="preserve" font-family="Helvetica,Helvetica" font-size="24.0" fill="#F6F6F6" transform="matrix(1.00, 0.00, -0.00, -1.00, 304.8, 98.2)">r</text><text xml:space="preserve" font-family="Helvetica,Helvetica" font-size="24.0" fill="#F6F6F6" transform="matrix(1.00, 0.00, -0.00, -1.00, 312.8, 98.2)">e</text><text xml:space="preserve" font-family="Helvetica,Helvetica" font-size="24.0" fill="#F6F6F6" transform="matrix(1.00, 0.00, -0.00, -1.00, 326.2, 98.2)">a</text><text xml:space="preserve" font-family="Helvetica,Helvetica" font-size="24.0" fill="#F6F6F6" transform="matrix(1.00, 0.00, -0.00, -1.00, 339.5, 98.2)">m</text><text xml:space="preserve" font-family="Helvetica,Helvetica" font-size="24.0" fill="#F6F6F6" transform="matrix(1.00, 0.00, -0.00, -1.00, 359.5, 98.2)">s</text><text xml:space="preserve" font-family="Helvetica,Helvetica" font-size="24.0" fill="#F6F6F6" transform="matrix(1.00, 0.00, -0.00, -1.00, 371.5, 98.2)"> </text><text xml:space="preserve" font-family="Helvetica,Helvetica" font-size="24.0" fill="#F6F6F6" transform="matrix(1.00, 0.00, -0.00, -1.00, 378.2, 98.2)">w</text><text xml:space="preserve" font-family="Helvetica,Helvetica" font-size="24.0" fill="#F6F6F6" transform="matrix(1.00, 0.00, -0.00, -1.00, 395.5, 98.2)">i</text><text xml:space="preserve" font-family="Helvetica,Helvetica" font-size="24.0" fill="#F6F6F6" transform="matrix(1.00, 0.00, -0.00, -1.00, 400.9, 98.2)">t</text><text xml:space="preserve" font-family="Helvetica,Helvetica" font-size="24.0" fill="#F6F6F6" transform="matrix(1.00, 0.00, -0.00, -1.00, 407.5, 98.2)">h</text><text xml:space="preserve" font-family="Helvetica,Helvetica" font-size="24.0" fill="#F6F6F6" transform="matrix(1.00, 0.00, -0.00, -1.00, 420.9, 98.2)"> </text><text xml:space="preserve" font-family="Helvetica,Helvetica" font-size="24.0" fill="#F6F6F6" transform="matrix(1.00, 0.00, -0.00, -1.00, 427.5, 98.2)">o</text><text xml:space="preserve" font-family="Helvetica,Helvetica" font-size="24.0" fill="#F6F6F6" transform="matrix(1.00, 0.00, -0.00, -1.00, 440.9, 98.2)">t</text><text xml:space="preserve" font-family="Helvetica,Helvetica" font-size="24.0" fill="#F6F6F6" transform="matrix(1.00, 0.00, -0.00, -1.00, 447.6, 98.2)">h</text><text xml:space="preserve" font-family="Helvetica,Helvetica" font-size="24.0" fill="#F6F6F6" transform="matrix(1.00, 0.00, -0.00, -1.00, 460.9, 98.2)">e</text><text xml:space="preserve" font-family="Helvetica,Helvetica" font-size="24.0" fill="#F6F6F6" transform="matrix(1.00, 0.00, -0.00, -1.00, 474.3, 98.2)">r</text><text xml:space="preserve" font-family="Helvetica,Helvetica" font-size="24.0" fill="#F6F6F6" transform="matrix(1.00, 0.00, -0.00, -1.00, 482.3, 98.2)">s</text></g></g><g><clipPath id="clip0x608007eb86c0"><path d="M 162.9 30.3 L 757.1 30.3 L 757.1 88.3 L 162.9 88.3 Z M 162.9 30.3 "></path></clipPath><g clip-path="url(#clip0x608007eb86c0)"><text xml:space="preserve" font-family="Helvetica,Helvetica" font-size="20.0" fill="#F6F6F6" transform="matrix(1.00, 0.00, -0.00, -1.00, 167.9, 63.9)">L</text><text xml:space="preserve" font-family="Helvetica,Helvetica" font-size="20.0" fill="#F6F6F6" transform="matrix(1.00, 0.00, -0.00, -1.00, 179.0, 63.9)">o</text><text xml:space="preserve" font-family="Helvetica,Helvetica" font-size="20.0" fill="#F6F6F6" transform="matrix(1.00, 0.00, -0.00, -1.00, 190.2, 63.9)">r</text><text xml:space="preserve" font-family="Helvetica,Helvetica" font-size="20.0" fill="#F6F6F6" transform="matrix(1.00, 0.00, -0.00, -1.00, 196.8, 63.9)">e</text><text xml:space="preserve" font-family="Helvetica,Helvetica" font-size="20.0" fill="#F6F6F6" transform="matrix(1.00, 0.00, -0.00, -1.00, 208.0, 63.9)">m</text><text xml:space="preserve" font-family="Helvetica,Helvetica" font-size="20.0" fill="#F6F6F6" transform="matrix(1.00, 0.00, -0.00, -1.00, 224.6, 63.9)"> </text><text xml:space="preserve" font-family="Helvetica,Helvetica" font-size="20.0" fill="#F6F6F6" transform="matrix(1.00, 0.00, -0.00, -1.00, 230.2, 63.9)">i</text><text xml:space="preserve" font-family="Helvetica,Helvetica" font-size="20.0" fill="#F6F6F6" transform="matrix(1.00, 0.00, -0.00, -1.00, 234.6, 63.9)">p</text><text xml:space="preserve" font-family="Helvetica,Helvetica" font-size="20.0" fill="#F6F6F6" transform="matrix(1.00, 0.00, -0.00, -1.00, 245.7, 63.9)">s</text><text xml:space="preserve" font-family="Helvetica,Helvetica" font-size="20.0" fill="#F6F6F6" transform="matrix(1.00, 0.00, -0.00, -1.00, 255.7, 63.9)">u</text><text xml:space="preserve" font-family="Helvetica,Helvetica" font-size="20.0" fill="#F6F6F6" transform="matrix(1.00, 0.00, -0.00, -1.00, 266.9, 63.9)">m</text><text xml:space="preserve" font-family="Helvetica,Helvetica" font-size="20.0" fill="#F6F6F6" transform="matrix(1.00, 0.00, -0.00, -1.00, 283.5, 63.9)"> </text><text xml:space="preserve" font-family="Helvetica,Helvetica" font-size="20.0" fill="#F6F6F6" transform="matrix(1.00, 0.00, -0.00, -1.00, 289.1, 63.9)">d</text><text xml:space="preserve" font-family="Helvetica,Helvetica" font-size="20.0" fill="#F6F6F6" transform="matrix(1.00, 0.00, -0.00, -1.00, 300.2, 63.9)">o</text><text xml:space="preserve" font-family="Helvetica,Helvetica" font-size="20.0" fill="#F6F6F6" transform="matrix(1.00, 0.00, -0.00, -1.00, 311.3, 63.9)">l</text><text xml:space="preserve" font-family="Helvetica,Helvetica" font-size="20.0" fill="#F6F6F6" transform="matrix(1.00, 0.00, -0.00, -1.00, 315.8, 63.9)">o</text><text xml:space="preserve" font-family="Helvetica,Helvetica" font-size="20.0" fill="#F6F6F6" transform="matrix(1.00, 0.00, -0.00, -1.00, 326.9, 63.9)">r</text><text xml:space="preserve" font-family="Helvetica,Helvetica" font-size="20.0" fill="#F6F6F6" transform="matrix(1.00, 0.00, -0.00, -1.00, 333.6, 63.9)"> </text><text xml:space="preserve" font-family="Helvetica,Helvetica" font-size="20.0" fill="#F6F6F6" transform="matrix(1.00, 0.00, -0.00, -1.00, 339.1, 63.9)">s</text><text xml:space="preserve" font-family="Helvetica,Helvetica" font-size="20.0" fill="#F6F6F6" transform="matrix(1.00, 0.00, -0.00, -1.00, 349.1, 63.9)">i</text><text xml:space="preserve" font-family="Helvetica,Helvetica" font-size="20.0" fill="#F6F6F6" transform="matrix(1.00, 0.00, -0.00, -1.00, 353.6, 63.9)">t</text><text xml:space="preserve" font-family="Helvetica,Helvetica" font-size="20.0" fill="#F6F6F6" transform="matrix(1.00, 0.00, -0.00, -1.00, 359.1, 63.9)"> </text><text xml:space="preserve" font-family="Helvetica,Helvetica" font-size="20.0" fill="#F6F6F6" transform="matrix(1.00, 0.00, -0.00, -1.00, 364.7, 63.9)">a</text><text xml:space="preserve" font-family="Helvetica,Helvetica" font-size="20.0" fill="#F6F6F6" transform="matrix(1.00, 0.00, -0.00, -1.00, 375.8, 63.9)">m</text><text xml:space="preserve" font-family="Helvetica,Helvetica" font-size="20.0" fill="#F6F6F6" transform="matrix(1.00, 0.00, -0.00, -1.00, 392.5, 63.9)">e</text><text xml:space="preserve" font-family="Helvetica,Helvetica" font-size="20.0" fill="#F6F6F6" transform="matrix(1.00, 0.00, -0.00, -1.00, 403.6, 63.9)">t</text><text xml:space="preserve" font-family="Helvetica,Helvetica" font-size="20.0" fill="#F6F6F6" transform="matrix(1.00, 0.00, -0.00, -1.00, 409.1, 63.9)">,</text><text xml:space="preserve" font-family="Helvetica,Helvetica" font-size="20.0" fill="#F6F6F6" transform="matrix(1.00, 0.00, -0.00, -1.00, 414.7, 63.9)"> </text><text xml:space="preserve" font-family="Helvetica,Helvetica" font-size="20.0" fill="#F6F6F6" transform="matrix(1.00, 0.00, -0.00, -1.00, 420.3, 63.9)">c</text><text xml:space="preserve" font-family="Helvetica,Helvetica" font-size="20.0" fill="#F6F6F6" transform="matrix(1.00, 0.00, -0.00, -1.00, 430.3, 63.9)">o</text><text xml:space="preserve" font-family="Helvetica,Helvetica" font-size="20.0" fill="#F6F6F6" transform="matrix(1.00, 0.00, -0.00, -1.00, 441.4, 63.9)">n</text><text xml:space="preserve" font-family="Helvetica,Helvetica" font-size="20.0" fill="#F6F6F6" transform="matrix(1.00, 0.00, -0.00, -1.00, 452.5, 63.9)">s</text><text xml:space="preserve" font-family="Helvetica,Helvetica" font-size="20.0" fill="#F6F6F6" transform="matrix(1.00, 0.00, -0.00, -1.00, 462.5, 63.9)">e</text><text xml:space="preserve" font-family="Helvetica,Helvetica" font-size="20.0" fill="#F6F6F6" transform="matrix(1.00, 0.00, -0.00, -1.00, 473.6, 63.9)">c</text><text xml:space="preserve" font-family="Helvetica,Helvetica" font-size="20.0" fill="#F6F6F6" transform="matrix(1.00, 0.00, -0.00, -1.00, 483.6, 63.9)">t</text><text xml:space="preserve" font-family="Helvetica,Helvetica" font-size="20.0" fill="#F6F6F6" transform="matrix(1.00, 0.00, -0.00, -1.00, 489.2, 63.9)">e</text><text xml:space="preserve" font-family="Helvetica,Helvetica" font-size="20.0" fill="#F6F6F6" transform="matrix(1.00, 0.00, -0.00, -1.00, 500.3, 63.9)">t</text><text xml:space="preserve" font-family="Helvetica,Helvetica" font-size="20.0" fill="#F6F6F6" transform="matrix(1.00, 0.00, -0.00, -1.00, 505.9, 63.9)">u</text><text xml:space="preserve" font-family="Helvetica,Helvetica" font-size="20.0" fill="#F6F6F6" transform="matrix(1.00, 0.00, -0.00, -1.00, 517.0, 63.9)">e</text><text xml:space="preserve" font-family="Helvetica,Helvetica" font-size="20.0" fill="#F6F6F6" transform="matrix(1.00, 0.00, -0.00, -1.00, 528.1, 63.9)">r</text><text xml:space="preserve" font-family="Helvetica,Helvetica" font-size="20.0" fill="#F6F6F6" transform="matrix(1.00, 0.00, -0.00, -1.00, 534.8, 63.9)"> </text><text xml:space="preserve" font-family="Helvetica,Helvetica" font-size="20.0" fill="#F6F6F6" transform="matrix(1.00, 0.00, -0.00, -1.00, 540.3, 63.9)">a</text><text xml:space="preserve" font-family="Helvetica,Helvetica" font-size="20.0" fill="#F6F6F6" transform="matrix(1.00, 0.00, -0.00, -1.00, 551.5, 63.9)">d</text><text xml:space="preserve" font-family="Helvetica,Helvetica" font-size="20.0" fill="#F6F6F6" transform="matrix(1.00, 0.00, -0.00, -1.00, 562.6, 63.9)">i</text><text xml:space="preserve" font-family="Helvetica,Helvetica" font-size="20.0" fill="#F6F6F6" transform="matrix(1.00, 0.00, -0.00, -1.00, 567.0, 63.9)">p</text><text xml:space="preserve" font-family="Helvetica,Helvetica" font-size="20.0" fill="#F6F6F6" transform="matrix(1.00, 0.00, -0.00, -1.00, 578.2, 63.9)">i</text><text xml:space="preserve" font-family="Helvetica,Helvetica" font-size="20.0" fill="#F6F6F6" transform="matrix(1.00, 0.00, -0.00, -1.00, 582.6, 63.9)">s</text><text xml:space="preserve" font-family="Helvetica,Helvetica" font-size="20.0" fill="#F6F6F6" transform="matrix(1.00, 0.00, -0.00, -1.00, 592.6, 63.9)">c</text><text xml:space="preserve" font-family="Helvetica,Helvetica" font-size="20.0" fill="#F6F6F6" transform="matrix(1.00, 0.00, -0.00, -1.00, 602.6, 63.9)">i</text><text xml:space="preserve" font-family="Helvetica,Helvetica" font-size="20.0" fill="#F6F6F6" transform="matrix(1.00, 0.00, -0.00, -1.00, 607.1, 63.9)">n</text><text xml:space="preserve" font-family="Helvetica,Helvetica" font-size="20.0" fill="#F6F6F6" transform="matrix(1.00, 0.00, -0.00, -1.00, 618.2, 63.9)">g</text><text xml:space="preserve" font-family="Helvetica,Helvetica" font-size="20.0" fill="#F6F6F6" transform="matrix(1.00, 0.00, -0.00, -1.00, 629.3, 63.9)"> </text><text xml:space="preserve" font-family="Helvetica,Helvetica" font-size="20.0" fill="#F6F6F6" transform="matrix(1.00, 0.00, -0.00, -1.00, 634.9, 63.9)">e</text><text xml:space="preserve" font-family="Helvetica,Helvetica" font-size="20.0" fill="#F6F6F6" transform="matrix(1.00, 0.00, -0.00, -1.00, 646.0, 63.9)">l</text><text xml:space="preserve" font-family="Helvetica,Helvetica" font-size="20.0" fill="#F6F6F6" transform="matrix(1.00, 0.00, -0.00, -1.00, 650.4, 63.9)">i</text><text xml:space="preserve" font-family="Helvetica,Helvetica" font-size="20.0" fill="#F6F6F6" transform="matrix(1.00, 0.00, -0.00, -1.00, 654.9, 63.9)">t</text><text xml:space="preserve" font-family="Helvetica,Helvetica" font-size="20.0" fill="#F6F6F6" transform="matrix(1.00, 0.00, -0.00, -1.00, 660.4, 63.9)">,</text><text xml:space="preserve" font-family="Helvetica,Helvetica" font-size="20.0" fill="#F6F6F6" transform="matrix(1.00, 0.00, -0.00, -1.00, 666.0, 63.9)"> </text><text xml:space="preserve" font-family="Helvetica,Helvetica" font-size="20.0" fill="#F6F6F6" transform="matrix(1.00, 0.00, -0.00, -1.00, 671.5, 63.9)">s</text><text xml:space="preserve" font-family="Helvetica,Helvetica" font-size="20.0" fill="#F6F6F6" transform="matrix(1.00, 0.00, -0.00, -1.00, 681.5, 63.9)">e</text><text xml:space="preserve" font-family="Helvetica,Helvetica" font-size="20.0" fill="#F6F6F6" transform="matrix(1.00, 0.00, -0.00, -1.00, 692.7, 63.9)">d</text><text xml:space="preserve" font-family="Helvetica,Helvetica" font-size="20.0" fill="#F6F6F6" transform="matrix(1.00, 0.00, -0.00, -1.00, 703.8, 63.9)"> </text><text xml:space="preserve" font-family="Helvetica,Helvetica" font-size="20.0" fill="#F6F6F6" transform="matrix(1.00, 0.00, -0.00, -1.00, 167.9, 39.9)">d</text><text xml:space="preserve" font-family="Helvetica,Helvetica" font-size="20.0" fill="#F6F6F6" transform="matrix(1.00, 0.00, -0.00, -1.00, 179.0, 39.9)">i</text><text xml:space="preserve" font-family="Helvetica,Helvetica" font-size="20.0" fill="#F6F6F6" transform="matrix(1.00, 0.00, -0.00, -1.00, 183.5, 39.9)">a</text><text xml:space="preserve" font-family="Helvetica,Helvetica" font-size="20.0" fill="#F6F6F6" transform="matrix(1.00, 0.00, -0.00, -1.00, 194.6, 39.9)">m</text><text xml:space="preserve" font-family="Helvetica,Helvetica" font-size="20.0" fill="#F6F6F6" transform="matrix(1.00, 0.00, -0.00, -1.00, 211.3, 39.9)"> </text><text xml:space="preserve" font-family="Helvetica,Helvetica" font-size="20.0" fill="#F6F6F6" transform="matrix(1.00, 0.00, -0.00, -1.00, 216.8, 39.9)">n</text><text xml:space="preserve" font-family="Helvetica,Helvetica" font-size="20.0" fill="#F6F6F6" transform="matrix(1.00, 0.00, -0.00, -1.00, 228.0, 39.9)">o</text><text xml:space="preserve" font-family="Helvetica,Helvetica" font-size="20.0" fill="#F6F6F6" transform="matrix(1.00, 0.00, -0.00, -1.00, 239.1, 39.9)">n</text><text xml:space="preserve" font-family="Helvetica,Helvetica" font-size="20.0" fill="#F6F6F6" transform="matrix(1.00, 0.00, -0.00, -1.00, 250.2, 39.9)">u</text><text xml:space="preserve" font-family="Helvetica,Helvetica" font-size="20.0" fill="#F6F6F6" transform="matrix(1.00, 0.00, -0.00, -1.00, 261.3, 39.9)">m</text><text xml:space="preserve" font-family="Helvetica,Helvetica" font-size="20.0" fill="#F6F6F6" transform="matrix(1.00, 0.00, -0.00, -1.00, 278.0, 39.9)">m</text><text xml:space="preserve" font-family="Helvetica,Helvetica" font-size="20.0" fill="#F6F6F6" transform="matrix(1.00, 0.00, -0.00, -1.00, 294.7, 39.9)">y</text><text xml:space="preserve" font-family="Helvetica,Helvetica" font-size="20.0" fill="#F6F6F6" transform="matrix(1.00, 0.00, -0.00, -1.00, 304.7, 39.9)"> </text><text xml:space="preserve" font-family="Helvetica,Helvetica" font-size="20.0" fill="#F6F6F6" transform="matrix(1.00, 0.00, -0.00, -1.00, 310.2, 39.9)">n</text><text xml:space="preserve" font-family="Helvetica,Helvetica" font-size="20.0" fill="#F6F6F6" transform="matrix(1.00, 0.00, -0.00, -1.00, 321.3, 39.9)">i</text><text xml:space="preserve" font-family="Helvetica,Helvetica" font-size="20.0" fill="#F6F6F6" transform="matrix(1.00, 0.00, -0.00, -1.00, 325.8, 39.9)">b</text><text xml:space="preserve" font-family="Helvetica,Helvetica" font-size="20.0" fill="#F6F6F6" transform="matrix(1.00, 0.00, -0.00, -1.00, 336.9, 39.9)">h</text><text xml:space="preserve" font-family="Helvetica,Helvetica" font-size="20.0" fill="#F6F6F6" transform="matrix(1.00, 0.00, -0.00, -1.00, 348.0, 39.9)"> </text><text xml:space="preserve" font-family="Helvetica,Helvetica" font-size="20.0" fill="#F6F6F6" transform="matrix(1.00, 0.00, -0.00, -1.00, 353.6, 39.9)">a</text><text xml:space="preserve" font-family="Helvetica,Helvetica" font-size="20.0" fill="#F6F6F6" transform="matrix(1.00, 0.00, -0.00, -1.00, 364.7, 39.9)">l</text><text xml:space="preserve" font-family="Helvetica,Helvetica" font-size="20.0" fill="#F6F6F6" transform="matrix(1.00, 0.00, -0.00, -1.00, 369.2, 39.9)">i</text><text xml:space="preserve" font-family="Helvetica,Helvetica" font-size="20.0" fill="#F6F6F6" transform="matrix(1.00, 0.00, -0.00, -1.00, 373.6, 39.9)">q</text><text xml:space="preserve" font-family="Helvetica,Helvetica" font-size="20.0" fill="#F6F6F6" transform="matrix(1.00, 0.00, -0.00, -1.00, 384.7, 39.9)">u</text><text xml:space="preserve" font-family="Helvetica,Helvetica" font-size="20.0" fill="#F6F6F6" transform="matrix(1.00, 0.00, -0.00, -1.00, 395.9, 39.9)">a</text><text xml:space="preserve" font-family="Helvetica,Helvetica" font-size="20.0" fill="#F6F6F6" transform="matrix(1.00, 0.00, -0.00, -1.00, 407.0, 39.9)">m</text><text xml:space="preserve" font-family="Helvetica,Helvetica" font-size="20.0" fill="#F6F6F6" transform="matrix(1.00, 0.00, -0.00, -1.00, 423.7, 39.9)"> </text><text xml:space="preserve" font-family="Helvetica,Helvetica" font-size="20.0" fill="#F6F6F6" transform="matrix(1.00, 0.00, -0.00, -1.00, 429.2, 39.9)">e</text><text xml:space="preserve" font-family="Helvetica,Helvetica" font-size="20.0" fill="#F6F6F6" transform="matrix(1.00, 0.00, -0.00, -1.00, 440.3, 39.9)">r</text><text xml:space="preserve" font-family="Helvetica,Helvetica" font-size="20.0" fill="#F6F6F6" transform="matrix(1.00, 0.00, -0.00, -1.00, 447.0, 39.9)">a</text><text xml:space="preserve" font-family="Helvetica,Helvetica" font-size="20.0" fill="#F6F6F6" transform="matrix(1.00, 0.00, -0.00, -1.00, 458.1, 39.9)">t</text><text xml:space="preserve" font-family="Helvetica,Helvetica" font-size="20.0" fill="#F6F6F6" transform="matrix(1.00, 0.00, -0.00, -1.00, 463.7, 39.9)"> </text><text xml:space="preserve" font-family="Helvetica,Helvetica" font-size="20.0" fill="#F6F6F6" transform="matrix(1.00, 0.00, -0.00, -1.00, 469.2, 39.9)">v</text><text xml:space="preserve" font-family="Helvetica,Helvetica" font-size="20.0" fill="#F6F6F6" transform="matrix(1.00, 0.00, -0.00, -1.00, 479.2, 39.9)">o</text><text xml:space="preserve" font-family="Helvetica,Helvetica" font-size="20.0" fill="#F6F6F6" transform="matrix(1.00, 0.00, -0.00, -1.00, 490.4, 39.9)">l</text><text xml:space="preserve" font-family="Helvetica,Helvetica" font-size="20.0" fill="#F6F6F6" transform="matrix(1.00, 0.00, -0.00, -1.00, 494.8, 39.9)">u</text><text xml:space="preserve" font-family="Helvetica,Helvetica" font-size="20.0" fill="#F6F6F6" transform="matrix(1.00, 0.00, -0.00, -1.00, 505.9, 39.9)">t</text><text xml:space="preserve" font-family="Helvetica,Helvetica" font-size="20.0" fill="#F6F6F6" transform="matrix(1.00, 0.00, -0.00, -1.00, 511.5, 39.9)">p</text><text xml:space="preserve" font-family="Helvetica,Helvetica" font-size="20.0" fill="#F6F6F6" transform="matrix(1.00, 0.00, -0.00, -1.00, 522.6, 39.9)">a</text><text xml:space="preserve" font-family="Helvetica,Helvetica" font-size="20.0" fill="#F6F6F6" transform="matrix(1.00, 0.00, -0.00, -1.00, 533.7, 39.9)">t</text><text xml:space="preserve" font-family="Helvetica,Helvetica" font-size="20.0" fill="#F6F6F6" transform="matrix(1.00, 0.00, -0.00, -1.00, 539.3, 39.9)">.</text><text xml:space="preserve" font-family="Helvetica,Helvetica" font-size="20.0" fill="#F6F6F6" transform="matrix(1.00, 0.00, -0.00, -1.00, 544.8, 39.9)"> </text><text xml:space="preserve" font-family="Helvetica,Helvetica" font-size="20.0" fill="#F6F6F6" transform="matrix(1.00, 0.00, -0.00, -1.00, 550.4, 39.9)">U</text><text xml:space="preserve" font-family="Helvetica,Helvetica" font-size="20.0" fill="#F6F6F6" transform="matrix(1.00, 0.00, -0.00, -1.00, 564.8, 39.9)">t</text><text xml:space="preserve" font-family="Helvetica,Helvetica" font-size="20.0" fill="#F6F6F6" transform="matrix(1.00, 0.00, -0.00, -1.00, 570.4, 39.9)"> </text><text xml:space="preserve" font-family="Helvetica,Helvetica" font-size="20.0" fill="#F6F6F6" transform="matrix(1.00, 0.00, -0.00, -1.00, 576.0, 39.9)">w</text><text xml:space="preserve" font-family="Helvetica,Helvetica" font-size="20.0" fill="#F6F6F6" transform="matrix(1.00, 0.00, -0.00, -1.00, 590.4, 39.9)">i</text><text xml:space="preserve" font-family="Helvetica,Helvetica" font-size="20.0" fill="#F6F6F6" transform="matrix(1.00, 0.00, -0.00, -1.00, 594.8, 39.9)">s</text><text xml:space="preserve" font-family="Helvetica,Helvetica" font-size="20.0" fill="#F6F6F6" transform="matrix(1.00, 0.00, -0.00, -1.00, 604.8, 39.9)">i</text><text xml:space="preserve" font-family="Helvetica,Helvetica" font-size="20.0" fill="#F6F6F6" transform="matrix(1.00, 0.00, -0.00, -1.00, 609.3, 39.9)"> </text><text xml:space="preserve" font-family="Helvetica,Helvetica" font-size="20.0" fill="#F6F6F6" transform="matrix(1.00, 0.00, -0.00, -1.00, 614.8, 39.9)">e</text><text xml:space="preserve" font-family="Helvetica,Helvetica" font-size="20.0" fill="#F6F6F6" transform="matrix(1.00, 0.00, -0.00, -1.00, 626.0, 39.9)">n</text><text xml:space="preserve" font-family="Helvetica,Helvetica" font-size="20.0" fill="#F6F6F6" transform="matrix(1.00, 0.00, -0.00, -1.00, 637.1, 39.9)">i</text><text xml:space="preserve" font-family="Helvetica,Helvetica" font-size="20.0" fill="#F6F6F6" transform="matrix(1.00, 0.00, -0.00, -1.00, 641.5, 39.9)">m</text><text xml:space="preserve" font-family="Helvetica,Helvetica" font-size="20.0" fill="#F6F6F6" transform="matrix(1.00, 0.00, -0.00, -1.00, 658.2, 39.9)"> </text><text xml:space="preserve" font-family="Helvetica,Helvetica" font-size="20.0" fill="#F6F6F6" transform="matrix(1.00, 0.00, -0.00, -1.00, 663.8, 39.9)">a</text><text xml:space="preserve" font-family="Helvetica,Helvetica" font-size="20.0" fill="#F6F6F6" transform="matrix(1.00, 0.00, -0.00, -1.00, 674.9, 39.9)">d</text><text xml:space="preserve" font-family="Helvetica,Helvetica" font-size="20.0" fill="#F6F6F6" transform="matrix(1.00, 0.00, -0.00, -1.00, 686.0, 39.9)"> </text><text xml:space="preserve" font-family="Helvetica,Helvetica" font-size="20.0" fill="#F6F6F6" transform="matrix(1.00, 0.00, -0.00, -1.00, 691.6, 39.9)">m</text><text xml:space="preserve" font-family="Helvetica,Helvetica" font-size="20.0" fill="#F6F6F6" transform="matrix(1.00, 0.00, -0.00, -1.00, 708.2, 39.9)">i</text><text xml:space="preserve" font-family="Helvetica,Helvetica" font-size="20.0" fill="#F6F6F6" transform="matrix(1.00, 0.00, -0.00, -1.00, 712.7, 39.9)">n</text><text xml:space="preserve" font-family="Helvetica,Helvetica" font-size="20.0" fill="#F6F6F6" transform="matrix(1.00, 0.00, -0.00, -1.00, 723.8, 39.9)">i</text><text xml:space="preserve" font-family="Helvetica,Helvetica" font-size="20.0" fill="#F6F6F6" transform="matrix(1.00, 0.00, -0.00, -1.00, 728.2, 39.9)">m</text><text xml:space="preserve" font-family="Helvetica,Helvetica" font-size="20.0" fill="#F6F6F6" transform="matrix(1.00, 0.00, -0.00, -1.00, 744.9, 39.9)">.</text></g></g><g><clipPath id="clip0x6180044abc40"><path d="M 783.4 2.7 L 929.5 2.7 L 929.5 155.7 L 783.4 155.7 Z M 783.4 2.7 "></path></clipPath><g clip-path="url(#clip0x6180044abc40)"><text xml:space="preserve" font-family="Helvetica,Helvetica" font-size="90.0" fill="#F6F6F6" transform="matrix(1.00, 0.00, -0.00, -1.00, 806.4, 45.9)">0</text><text xml:space="preserve" font-family="Helvetica,Helvetica" font-size="90.0" fill="#F6F6F6" transform="matrix(1.00, 0.00, -0.00, -1.00, 856.5, 45.9)">3</text></g></g></g></svg>