<?xml version="1.0" encoding="UTF-8" standalone="no"?><svg xmlns="http://www.w3.org/2000/svg" xmlns:xlink="http://www.w3.org/1999/xlink" clip-rule="evenodd" stroke-miterlimit="10" viewBox="0 0 339 60"><desc>SVG generated by Keynote</desc><defs></defs><g transform="matrix(1.00, 0.00, -0.00, -1.00, 0.0, 60.0)"><g><clipPath id="clip0x608007ebed80"><path d="M -6.7 -6.5 L 62.9 -6.5 L 62.9 65.5 L -6.7 65.5 Z M -6.7 -6.5 "></path></clipPath><g clip-path="url(#clip0x608007ebed80)"></g></g><g><clipPath id="clip0x608007ebe480"><path d="M 58.7 12.5 L 339.0 12.5 L 339.0 47.5 L 58.7 47.5 Z M 58.7 12.5 "></path></clipPath><g clip-path="url(#clip0x608007ebe480)"><text xml:space="preserve" font-family="Helvetica,Helvetica" font-size="30.0" fill="#F6F6F6" transform="matrix(1.00, 0.00, -0.00, -1.00, 66.2, 18.4)">i</text><text xml:space="preserve" font-family="Helvetica,Helvetica" font-size="30.0" fill="#F6F6F6" transform="matrix(1.00, 0.00, -0.00, -1.00, 72.8, 18.4)">n</text><text xml:space="preserve" font-family="Helvetica,Helvetica" font-size="30.0" fill="#F6F6F6" transform="matrix(1.00, 0.00, -0.00, -1.00, 89.5, 18.4)">s</text><text xml:space="preserve" font-family="Helvetica,Helvetica" font-size="30.0" fill="#F6F6F6" transform="matrix(1.00, 0.00, -0.00, -1.00, 104.5, 18.4)">t</text><text xml:space="preserve" font-family="Helvetica,Helvetica" font-size="30.0" fill="#F6F6F6" transform="matrix(1.00, 0.00, -0.00, -1.00, 112.8, 18.4)">a</text><text xml:space="preserve" font-family="Helvetica,Helvetica" font-size="30.0" fill="#F6F6F6" transform="matrix(1.00, 0.00, -0.00, -1.00, 129.5, 18.4)">g</text><text xml:space="preserve" font-family="Helvetica,Helvetica" font-size="30.0" fill="#F6F6F6" transform="matrix(1.00, 0.00, -0.00, -1.00, 146.2, 18.4)">r</text><text xml:space="preserve" font-family="Helvetica,Helvetica" font-size="30.0" fill="#F6F6F6" transform="matrix(1.00, 0.00, -0.00, -1.00, 156.2, 18.4)">a</text><text xml:space="preserve" font-family="Helvetica,Helvetica" font-size="30.0" fill="#F6F6F6" transform="matrix(1.00, 0.00, -0.00, -1.00, 172.9, 18.4)">m</text><text xml:space="preserve" font-family="Helvetica,Helvetica" font-size="30.0" fill="#F6F6F6" transform="matrix(1.00, 0.00, -0.00, -1.00, 197.9, 18.4)">.</text><text xml:space="preserve" font-family="Helvetica,Helvetica" font-size="30.0" fill="#F6F6F6" transform="matrix(1.00, 0.00, -0.00, -1.00, 206.2, 18.4)">c</text><text xml:space="preserve" font-family="Helvetica,Helvetica" font-size="30.0" fill="#F6F6F6" transform="matrix(1.00, 0.00, -0.00, -1.00, 221.2, 18.4)">o</text><text xml:space="preserve" font-family="Helvetica,Helvetica" font-size="30.0" fill="#F6F6F6" transform="matrix(1.00, 0.00, -0.00, -1.00, 237.9, 18.4)">m</text><text xml:space="preserve" font-family="Helvetica,Helvetica" font-size="30.0" fill="#F6F6F6" transform="matrix(1.00, 0.00, -0.00, -1.00, 262.9, 18.4)">/</text></g></g></g></svg>