<?xml version="1.0" encoding="UTF-8" standalone="no"?><svg xmlns="http://www.w3.org/2000/svg" xmlns:xlink="http://www.w3.org/1999/xlink" clip-rule="evenodd" stroke-miterlimit="10" viewBox="0 0 405 28"><desc>SVG generated by Keynote</desc><defs></defs><g transform="matrix(1.00, 0.00, -0.00, -1.00, 0.0, 28.0)"><text xml:space="preserve" font-family="Helvetica,Helvetica" font-size="26.0" fill="#F6F6F6" transform="matrix(1.00, 0.00, -0.00, -1.00, -0.4, 7.6)">P</text><text xml:space="preserve" font-family="Helvetica,Helvetica" font-size="26.0" fill="#F6F6F6" transform="matrix(1.00, 0.00, -0.00, -1.00, 17.0, 7.6)">o</text><text xml:space="preserve" font-family="Helvetica,Helvetica" font-size="26.0" fill="#F6F6F6" transform="matrix(1.00, 0.00, -0.00, -1.00, 31.5, 7.6)">s</text><text xml:space="preserve" font-family="Helvetica,Helvetica" font-size="26.0" fill="#F6F6F6" transform="matrix(1.00, 0.00, -0.00, -1.00, 44.5, 7.6)">t</text><text xml:space="preserve" font-family="Helvetica,Helvetica" font-size="26.0" fill="#F6F6F6" transform="matrix(1.00, 0.00, -0.00, -1.00, 51.7, 7.6)">a</text><text xml:space="preserve" font-family="Helvetica,Helvetica" font-size="26.0" fill="#F6F6F6" transform="matrix(1.00, 0.00, -0.00, -1.00, 66.1, 7.6)">l</text><text xml:space="preserve" font-family="Helvetica,Helvetica" font-size="26.0" fill="#F6F6F6" transform="matrix(1.00, 0.00, -0.00, -1.00, 71.9, 7.6)">:</text><text xml:space="preserve" font-family="Helvetica,Helvetica" font-size="26.0" fill="#F6F6F6" transform="matrix(1.00, 0.00, -0.00, -1.00, 79.1, 7.6)"> </text><text xml:space="preserve" font-family="Helvetica,Helvetica" font-size="26.0" fill="#F6F6F6" transform="matrix(1.00, 0.00, -0.00, -1.00, 86.4, 7.6)">3</text><text xml:space="preserve" font-family="Helvetica,Helvetica" font-size="26.0" fill="#F6F6F6" transform="matrix(1.00, 0.00, -0.00, -1.00, 100.8, 7.6)">4</text><text xml:space="preserve" font-family="Helvetica,Helvetica" font-size="26.0" fill="#F6F6F6" transform="matrix(1.00, 0.00, -0.00, -1.00, 115.3, 7.6)">5</text><text xml:space="preserve" font-family="Helvetica,Helvetica" font-size="26.0" fill="#F6F6F6" transform="matrix(1.00, 0.00, -0.00, -1.00, 129.8, 7.6)">0</text><text xml:space="preserve" font-family="Helvetica,Helvetica" font-size="26.0" fill="#F6F6F6" transform="matrix(1.00, 0.00, -0.00, -1.00, 144.2, 7.6)">0</text><text xml:space="preserve" font-family="Helvetica,Helvetica" font-size="26.0" fill="#F6F6F6" transform="matrix(1.00, 0.00, -0.00, -1.00, 158.7, 7.6)"> </text><text xml:space="preserve" font-family="Helvetica,Helvetica" font-size="26.0" fill="#F6F6F6" transform="matrix(1.00, 0.00, -0.00, -1.00, 165.9, 7.6)">B</text><text xml:space="preserve" font-family="Helvetica,Helvetica" font-size="26.0" fill="#F6F6F6" transform="matrix(1.00, 0.00, -0.00, -1.00, 183.2, 7.6)">e</text><text xml:space="preserve" font-family="Helvetica,Helvetica" font-size="26.0" fill="#F6F6F6" transform="matrix(1.00, 0.00, -0.00, -1.00, 197.7, 7.6)">y</text><text xml:space="preserve" font-family="Helvetica,Helvetica" font-size="26.0" fill="#F6F6F6" transform="matrix(1.00, 0.00, -0.00, -1.00, 210.7, 7.6)">l</text><text xml:space="preserve" font-family="Helvetica,Helvetica" font-size="26.0" fill="#F6F6F6" transform="matrix(1.00, 0.00, -0.00, -1.00, 216.5, 7.6)">i</text><text xml:space="preserve" font-family="Helvetica,Helvetica" font-size="26.0" fill="#F6F6F6" transform="matrix(1.00, 0.00, -0.00, -1.00, 222.3, 7.6)">k</text><text xml:space="preserve" font-family="Helvetica,Helvetica" font-size="26.0" fill="#F6F6F6" transform="matrix(1.00, 0.00, -0.00, -1.00, 235.3, 7.6)">d</text><text xml:space="preserve" font-family="Helvetica,Helvetica" font-size="26.0" fill="#F6F6F6" transform="matrix(1.00, 0.00, -0.00, -1.00, 249.7, 7.6)">u</text><text xml:space="preserve" font-family="Helvetica,Helvetica" font-size="26.0" fill="#F6F6F6" transform="matrix(1.00, 0.00, -0.00, -1.00, 264.2, 7.6)">z</text><text xml:space="preserve" font-family="Helvetica,Helvetica" font-size="26.0" fill="#F6F6F6" transform="matrix(1.00, 0.00, -0.00, -1.00, 277.2, 7.6)">u</text><text xml:space="preserve" font-family="Helvetica,Helvetica" font-size="26.0" fill="#F6F6F6" transform="matrix(1.00, 0.00, -0.00, -1.00, 291.7, 7.6)"> </text><text xml:space="preserve" font-family="Helvetica,Helvetica" font-size="26.0" fill="#F6F6F6" transform="matrix(1.00, 0.00, -0.00, -1.00, 298.9, 7.6)">/</text><text xml:space="preserve" font-family="Helvetica,Helvetica" font-size="26.0" fill="#F6F6F6" transform="matrix(1.00, 0.00, -0.00, -1.00, 306.1, 7.6)"> </text><text xml:space="preserve" font-family="Helvetica,Helvetica" font-size="26.0" fill="#F6F6F6" transform="matrix(1.00, 0.00, -0.00, -1.00, 313.3, 7.6)">I</text><text xml:space="preserve" font-family="Helvetica,Helvetica" font-size="26.0" fill="#F6F6F6" transform="matrix(1.00, 0.00, -0.00, -1.00, 320.5, 7.6)">s</text><text xml:space="preserve" font-family="Helvetica,Helvetica" font-size="26.0" fill="#F6F6F6" transform="matrix(1.00, 0.00, -0.00, -1.00, 333.5, 7.6)">t</text><text xml:space="preserve" font-family="Helvetica,Helvetica" font-size="26.0" fill="#F6F6F6" transform="matrix(1.00, 0.00, -0.00, -1.00, 340.8, 7.6)">a</text><text xml:space="preserve" font-family="Helvetica,Helvetica" font-size="26.0" fill="#F6F6F6" transform="matrix(1.00, 0.00, -0.00, -1.00, 355.2, 7.6)">n</text><text xml:space="preserve" font-family="Helvetica,Helvetica" font-size="26.0" fill="#F6F6F6" transform="matrix(1.00, 0.00, -0.00, -1.00, 369.7, 7.6)">b</text><text xml:space="preserve" font-family="Helvetica,Helvetica" font-size="26.0" fill="#F6F6F6" transform="matrix(1.00, 0.00, -0.00, -1.00, 384.2, 7.6)">u</text><text xml:space="preserve" font-family="Helvetica,Helvetica" font-size="26.0" fill="#F6F6F6" transform="matrix(1.00, 0.00, -0.00, -1.00, 398.6, 7.6)">l</text></g></svg>