<?xml version="1.0" encoding="UTF-8" standalone="no"?><svg xmlns="http://www.w3.org/2000/svg" xmlns:xlink="http://www.w3.org/1999/xlink" clip-rule="evenodd" stroke-miterlimit="10" viewBox="0 0 450 29"><desc>SVG generated by Keynote</desc><defs></defs><g transform="matrix(1.00, 0.00, -0.00, -1.00, 0.0, 29.0)"><text xml:space="preserve" font-family="Helvetica,Helvetica" font-size="26.0" fill="#F6F6F6" transform="matrix(1.00, 0.00, -0.00, -1.00, 1.2, 7.9)">2</text><text xml:space="preserve" font-family="Helvetica,Helvetica" font-size="26.0" fill="#F6F6F6" transform="matrix(1.00, 0.00, -0.00, -1.00, 15.7, 7.9)">4</text><text xml:space="preserve" font-family="Helvetica,Helvetica" font-size="26.0" fill="#F6F6F6" transform="matrix(1.00, 0.00, -0.00, -1.00, 30.1, 7.9)">t</text><text xml:space="preserve" font-family="Helvetica,Helvetica" font-size="26.0" fill="#F6F6F6" transform="matrix(1.00, 0.00, -0.00, -1.00, 37.3, 7.9)">h</text><text xml:space="preserve" font-family="Helvetica,Helvetica" font-size="26.0" fill="#F6F6F6" transform="matrix(1.00, 0.00, -0.00, -1.00, 51.8, 7.9)"> </text><text xml:space="preserve" font-family="Helvetica,Helvetica" font-size="26.0" fill="#F6F6F6" transform="matrix(1.00, 0.00, -0.00, -1.00, 59.0, 7.9)">S</text><text xml:space="preserve" font-family="Helvetica,Helvetica" font-size="26.0" fill="#F6F6F6" transform="matrix(1.00, 0.00, -0.00, -1.00, 76.4, 7.9)">t</text><text xml:space="preserve" font-family="Helvetica,Helvetica" font-size="26.0" fill="#F6F6F6" transform="matrix(1.00, 0.00, -0.00, -1.00, 83.6, 7.9)">r</text><text xml:space="preserve" font-family="Helvetica,Helvetica" font-size="26.0" fill="#F6F6F6" transform="matrix(1.00, 0.00, -0.00, -1.00, 92.2, 7.9)">e</text><text xml:space="preserve" font-family="Helvetica,Helvetica" font-size="26.0" fill="#F6F6F6" transform="matrix(1.00, 0.00, -0.00, -1.00, 106.7, 7.9)">e</text><text xml:space="preserve" font-family="Helvetica,Helvetica" font-size="26.0" fill="#F6F6F6" transform="matrix(1.00, 0.00, -0.00, -1.00, 121.2, 7.9)">t</text><text xml:space="preserve" font-family="Helvetica,Helvetica" font-size="26.0" fill="#F6F6F6" transform="matrix(1.00, 0.00, -0.00, -1.00, 128.4, 7.9)"> </text><text xml:space="preserve" font-family="Helvetica,Helvetica" font-size="26.0" fill="#F6F6F6" transform="matrix(1.00, 0.00, -0.00, -1.00, 135.6, 7.9)">R</text><text xml:space="preserve" font-family="Helvetica,Helvetica" font-size="26.0" fill="#F6F6F6" transform="matrix(1.00, 0.00, -0.00, -1.00, 154.4, 7.9)">e</text><text xml:space="preserve" font-family="Helvetica,Helvetica" font-size="26.0" fill="#F6F6F6" transform="matrix(1.00, 0.00, -0.00, -1.00, 168.9, 7.9)">d</text><text xml:space="preserve" font-family="Helvetica,Helvetica" font-size="26.0" fill="#F6F6F6" transform="matrix(1.00, 0.00, -0.00, -1.00, 183.3, 7.9)"> </text><text xml:space="preserve" font-family="Helvetica,Helvetica" font-size="26.0" fill="#F6F6F6" transform="matrix(1.00, 0.00, -0.00, -1.00, 189.1, 7.9)">A</text><text xml:space="preserve" font-family="Helvetica,Helvetica" font-size="26.0" fill="#F6F6F6" transform="matrix(1.00, 0.00, -0.00, -1.00, 206.0, 7.9)">v</text><text xml:space="preserve" font-family="Helvetica,Helvetica" font-size="26.0" fill="#F6F6F6" transform="matrix(1.00, 0.00, -0.00, -1.00, 219.0, 7.9)">e</text><text xml:space="preserve" font-family="Helvetica,Helvetica" font-size="26.0" fill="#F6F6F6" transform="matrix(1.00, 0.00, -0.00, -1.00, 233.5, 7.9)">n</text><text xml:space="preserve" font-family="Helvetica,Helvetica" font-size="26.0" fill="#F6F6F6" transform="matrix(1.00, 0.00, -0.00, -1.00, 247.9, 7.9)">u</text><text xml:space="preserve" font-family="Helvetica,Helvetica" font-size="26.0" fill="#F6F6F6" transform="matrix(1.00, 0.00, -0.00, -1.00, 262.4, 7.9)">e</text><text xml:space="preserve" font-family="Helvetica,Helvetica" font-size="26.0" fill="#F6F6F6" transform="matrix(1.00, 0.00, -0.00, -1.00, 276.9, 7.9)"> </text><text xml:space="preserve" font-family="Helvetica,Helvetica" font-size="26.0" fill="#F6F6F6" transform="matrix(1.00, 0.00, -0.00, -1.00, 284.1, 7.9)">C</text><text xml:space="preserve" font-family="Helvetica,Helvetica" font-size="26.0" fill="#F6F6F6" transform="matrix(1.00, 0.00, -0.00, -1.00, 302.9, 7.9)">i</text><text xml:space="preserve" font-family="Helvetica,Helvetica" font-size="26.0" fill="#F6F6F6" transform="matrix(1.00, 0.00, -0.00, -1.00, 308.6, 7.9)">t</text><text xml:space="preserve" font-family="Helvetica,Helvetica" font-size="26.0" fill="#F6F6F6" transform="matrix(1.00, 0.00, -0.00, -1.00, 315.9, 7.9)">y</text><text xml:space="preserve" font-family="Helvetica,Helvetica" font-size="26.0" fill="#F6F6F6" transform="matrix(1.00, 0.00, -0.00, -1.00, 328.9, 7.9)"> </text><text xml:space="preserve" font-family="Helvetica,Helvetica" font-size="26.0" fill="#F6F6F6" transform="matrix(1.00, 0.00, -0.00, -1.00, 336.1, 7.9)">o</text><text xml:space="preserve" font-family="Helvetica,Helvetica" font-size="26.0" fill="#F6F6F6" transform="matrix(1.00, 0.00, -0.00, -1.00, 350.5, 7.9)">f</text><text xml:space="preserve" font-family="Helvetica,Helvetica" font-size="26.0" fill="#F6F6F6" transform="matrix(1.00, 0.00, -0.00, -1.00, 357.8, 7.9)"> </text><text xml:space="preserve" font-family="Helvetica,Helvetica" font-size="26.0" fill="#F6F6F6" transform="matrix(1.00, 0.00, -0.00, -1.00, 365.0, 7.9)">E</text><text xml:space="preserve" font-family="Helvetica,Helvetica" font-size="26.0" fill="#F6F6F6" transform="matrix(1.00, 0.00, -0.00, -1.00, 382.3, 7.9)">u</text><text xml:space="preserve" font-family="Helvetica,Helvetica" font-size="26.0" fill="#F6F6F6" transform="matrix(1.00, 0.00, -0.00, -1.00, 396.8, 7.9)">r</text><text xml:space="preserve" font-family="Helvetica,Helvetica" font-size="26.0" fill="#F6F6F6" transform="matrix(1.00, 0.00, -0.00, -1.00, 405.5, 7.9)">o</text><text xml:space="preserve" font-family="Helvetica,Helvetica" font-size="26.0" fill="#F6F6F6" transform="matrix(1.00, 0.00, -0.00, -1.00, 419.9, 7.9)">p</text><text xml:space="preserve" font-family="Helvetica,Helvetica" font-size="26.0" fill="#F6F6F6" transform="matrix(1.00, 0.00, -0.00, -1.00, 434.4, 7.9)">e</text></g></svg>