<?xml version="1.0" encoding="UTF-8" standalone="no"?><svg xmlns="http://www.w3.org/2000/svg" xmlns:xlink="http://www.w3.org/1999/xlink" clip-rule="evenodd" stroke-miterlimit="10" viewBox="0 0 371 59"><desc>SVG generated by Keynote</desc><defs></defs><g transform="matrix(1.00, 0.00, -0.00, -1.00, 0.0, 59.0)"><g><clipPath id="clip0x60000a0bd460"><path d="M -6.6 -6.0 L 45.9 -6.0 L 45.9 66.0 L -6.6 66.0 Z M -6.6 -6.0 "></path></clipPath><g clip-path="url(#clip0x60000a0bd460)"></g></g><g><clipPath id="clip0x60000a0bd820"><path d="M 50.2 4.5 L 373.0 4.5 L 373.0 55.5 L 50.2 55.5 Z M 50.2 4.5 "></path></clipPath><g clip-path="url(#clip0x60000a0bd820)"><text xml:space="preserve" font-family="Helvetica,Helvetica" font-size="30.0" fill="#F6F6F6" transform="matrix(1.00, 0.00, -0.00, -1.00, 57.7, 18.9)">f</text><text xml:space="preserve" font-family="Helvetica,Helvetica" font-size="30.0" fill="#F6F6F6" transform="matrix(1.00, 0.00, -0.00, -1.00, 66.0, 18.9)">a</text><text xml:space="preserve" font-family="Helvetica,Helvetica" font-size="30.0" fill="#F6F6F6" transform="matrix(1.00, 0.00, -0.00, -1.00, 82.7, 18.9)">c</text><text xml:space="preserve" font-family="Helvetica,Helvetica" font-size="30.0" fill="#F6F6F6" transform="matrix(1.00, 0.00, -0.00, -1.00, 97.7, 18.9)">e</text><text xml:space="preserve" font-family="Helvetica,Helvetica" font-size="30.0" fill="#F6F6F6" transform="matrix(1.00, 0.00, -0.00, -1.00, 114.4, 18.9)">b</text><text xml:space="preserve" font-family="Helvetica,Helvetica" font-size="30.0" fill="#F6F6F6" transform="matrix(1.00, 0.00, -0.00, -1.00, 131.1, 18.9)">o</text><text xml:space="preserve" font-family="Helvetica,Helvetica" font-size="30.0" fill="#F6F6F6" transform="matrix(1.00, 0.00, -0.00, -1.00, 147.8, 18.9)">o</text><text xml:space="preserve" font-family="Helvetica,Helvetica" font-size="30.0" fill="#F6F6F6" transform="matrix(1.00, 0.00, -0.00, -1.00, 164.5, 18.9)">k</text><text xml:space="preserve" font-family="Helvetica,Helvetica" font-size="30.0" fill="#F6F6F6" transform="matrix(1.00, 0.00, -0.00, -1.00, 179.5, 18.9)">.</text><text xml:space="preserve" font-family="Helvetica,Helvetica" font-size="30.0" fill="#F6F6F6" transform="matrix(1.00, 0.00, -0.00, -1.00, 187.8, 18.9)">c</text><text xml:space="preserve" font-family="Helvetica,Helvetica" font-size="30.0" fill="#F6F6F6" transform="matrix(1.00, 0.00, -0.00, -1.00, 202.8, 18.9)">o</text><text xml:space="preserve" font-family="Helvetica,Helvetica" font-size="30.0" fill="#F6F6F6" transform="matrix(1.00, 0.00, -0.00, -1.00, 219.5, 18.9)">m</text><text xml:space="preserve" font-family="Helvetica,Helvetica" font-size="30.0" fill="#F6F6F6" transform="matrix(1.00, 0.00, -0.00, -1.00, 244.5, 18.9)">/</text><text xml:space="preserve" font-family="Helvetica,Helvetica" font-size="30.0" fill="#F6F6F6" transform="matrix(1.00, 0.00, -0.00, -1.00, 252.8, 18.9)">v</text><text xml:space="preserve" font-family="Helvetica,Helvetica" font-size="30.0" fill="#F6F6F6" transform="matrix(1.00, 0.00, -0.00, -1.00, 267.8, 18.9)">i</text><text xml:space="preserve" font-family="Helvetica,Helvetica" font-size="30.0" fill="#F6F6F6" transform="matrix(1.00, 0.00, -0.00, -1.00, 274.5, 18.9)">g</text><text xml:space="preserve" font-family="Helvetica,Helvetica" font-size="30.0" fill="#F6F6F6" transform="matrix(1.00, 0.00, -0.00, -1.00, 291.2, 18.9)">i</text><text xml:space="preserve" font-family="Helvetica,Helvetica" font-size="30.0" fill="#F6F6F6" transform="matrix(1.00, 0.00, -0.00, -1.00, 297.8, 18.9)">t</text><text xml:space="preserve" font-family="Helvetica,Helvetica" font-size="30.0" fill="#F6F6F6" transform="matrix(1.00, 0.00, -0.00, -1.00, 306.2, 18.9)">a</text><text xml:space="preserve" font-family="Helvetica,Helvetica" font-size="30.0" fill="#F6F6F6" transform="matrix(1.00, 0.00, -0.00, -1.00, 322.9, 18.9)">l</text><text xml:space="preserve" font-family="Helvetica,Helvetica" font-size="30.0" fill="#F6F6F6" transform="matrix(1.00, 0.00, -0.00, -1.00, 329.5, 18.9)">a</text><text xml:space="preserve" font-family="Helvetica,Helvetica" font-size="30.0" fill="#F6F6F6" transform="matrix(1.00, 0.00, -0.00, -1.00, 346.2, 18.9)">r</text><text xml:space="preserve" font-family="Helvetica,Helvetica" font-size="30.0" fill="#F6F6F6" transform="matrix(1.00, 0.00, -0.00, -1.00, 356.2, 18.9)">t</text></g></g></g></svg>