<?xml version="1.0" encoding="UTF-8" standalone="no"?><svg xmlns="http://www.w3.org/2000/svg" xmlns:xlink="http://www.w3.org/1999/xlink" clip-rule="evenodd" stroke-miterlimit="10" viewBox="0 0 1006 161"><desc>SVG generated by Keynote</desc><defs></defs><g transform="matrix(1.00, 0.00, -0.00, -1.00, 0.0, 161.0)"><g><clipPath id="clip0x6180056bc140"><path d="M 79.7 1.6 L 1005.4 1.6 L 1005.4 160.0 L 79.7 160.0 Z M 79.7 1.6 "></path></clipPath><g clip-path="url(#clip0x6180056bc140)"><path d="M 81.0 159.0 L 1004.0 159.0 L 1004.0 3.0 L 81.0 3.0 Z M 80.7 159.0 " fill="#62D7AD"></path></g></g><g><clipPath id="clip0x6180088acba0"><path d="M 87.2 4.3 L 233.4 4.3 L 233.4 157.3 L 87.2 157.3 Z M 87.2 4.3 "></path></clipPath><g clip-path="url(#clip0x6180088acba0)"><text xml:space="preserve" font-family="Helvetica,Helvetica" font-size="90.0" fill="#F6F6F6" transform="matrix(1.00, 0.00, -0.00, -1.00, 110.2, 47.5)">0</text><text xml:space="preserve" font-family="Helvetica,Helvetica" font-size="90.0" fill="#F6F6F6" transform="matrix(1.00, 0.00, -0.00, -1.00, 160.3, 47.5)">4</text></g></g><g><clipPath id="clip0x6180088acc00"><path d="M 890.0 15.8 L 971.0 15.8 L 971.0 151.8 L 890.0 151.8 Z M 890.0 15.8 "></path></clipPath><g clip-path="url(#clip0x6180088acc00)"><text xml:space="preserve" font-family="Helvetica,Helvetica" font-size="80.0" fill="#F6F6F6" transform="matrix(1.00, 0.00, -0.00, -1.00, 910.5, 54.2)">c</text></g></g><g><clipPath id="clip0x6180088ace40"><path d="M 630.7 88.2 L 831.8 88.2 L 831.8 129.2 L 630.7 129.2 Z M 630.7 88.2 "></path></clipPath><g clip-path="url(#clip0x6180088ace40)"><text xml:space="preserve" font-family="Helvetica,Helvetica" font-size="24.0" fill="#F6F6F6" transform="matrix(1.00, 0.00, -0.00, -1.00, 637.7, 99.7)">E</text><text xml:space="preserve" font-family="Helvetica,Helvetica" font-size="24.0" fill="#F6F6F6" transform="matrix(1.00, 0.00, -0.00, -1.00, 653.8, 99.7)">n</text><text xml:space="preserve" font-family="Helvetica,Helvetica" font-size="24.0" fill="#F6F6F6" transform="matrix(1.00, 0.00, -0.00, -1.00, 667.1, 99.7)">j</text><text xml:space="preserve" font-family="Helvetica,Helvetica" font-size="24.0" fill="#F6F6F6" transform="matrix(1.00, 0.00, -0.00, -1.00, 672.4, 99.7)">o</text><text xml:space="preserve" font-family="Helvetica,Helvetica" font-size="24.0" fill="#F6F6F6" transform="matrix(1.00, 0.00, -0.00, -1.00, 685.8, 99.7)">y</text><text xml:space="preserve" font-family="Helvetica,Helvetica" font-size="24.0" fill="#F6F6F6" transform="matrix(1.00, 0.00, -0.00, -1.00, 697.8, 99.7)"> </text><text xml:space="preserve" font-family="Helvetica,Helvetica" font-size="24.0" fill="#F6F6F6" transform="matrix(1.00, 0.00, -0.00, -1.00, 704.5, 99.7)">y</text><text xml:space="preserve" font-family="Helvetica,Helvetica" font-size="24.0" fill="#F6F6F6" transform="matrix(1.00, 0.00, -0.00, -1.00, 716.5, 99.7)">o</text><text xml:space="preserve" font-family="Helvetica,Helvetica" font-size="24.0" fill="#F6F6F6" transform="matrix(1.00, 0.00, -0.00, -1.00, 729.8, 99.7)">u</text><text xml:space="preserve" font-family="Helvetica,Helvetica" font-size="24.0" fill="#F6F6F6" transform="matrix(1.00, 0.00, -0.00, -1.00, 743.2, 99.7)">r</text><text xml:space="preserve" font-family="Helvetica,Helvetica" font-size="24.0" fill="#F6F6F6" transform="matrix(1.00, 0.00, -0.00, -1.00, 751.2, 99.7)"> </text><text xml:space="preserve" font-family="Helvetica,Helvetica" font-size="24.0" fill="#F6F6F6" transform="matrix(1.00, 0.00, -0.00, -1.00, 757.8, 99.7)">d</text><text xml:space="preserve" font-family="Helvetica,Helvetica" font-size="24.0" fill="#F6F6F6" transform="matrix(1.00, 0.00, -0.00, -1.00, 771.2, 99.7)">r</text><text xml:space="preserve" font-family="Helvetica,Helvetica" font-size="24.0" fill="#F6F6F6" transform="matrix(1.00, 0.00, -0.00, -1.00, 779.2, 99.7)">e</text><text xml:space="preserve" font-family="Helvetica,Helvetica" font-size="24.0" fill="#F6F6F6" transform="matrix(1.00, 0.00, -0.00, -1.00, 792.5, 99.7)">a</text><text xml:space="preserve" font-family="Helvetica,Helvetica" font-size="24.0" fill="#F6F6F6" transform="matrix(1.00, 0.00, -0.00, -1.00, 805.9, 99.7)">m</text></g></g><g><clipPath id="clip0x6180088ad620"><path d="M 241.9 31.8 L 836.1 31.8 L 836.1 89.8 L 241.9 89.8 Z M 241.9 31.8 "></path></clipPath><g clip-path="url(#clip0x6180088ad620)"><text xml:space="preserve" font-family="Helvetica,Helvetica" font-size="20.0" fill="#F6F6F6" transform="matrix(1.00, 0.00, -0.00, -1.00, 295.3, 65.4)">L</text><text xml:space="preserve" font-family="Helvetica,Helvetica" font-size="20.0" fill="#F6F6F6" transform="matrix(1.00, 0.00, -0.00, -1.00, 306.4, 65.4)">o</text><text xml:space="preserve" font-family="Helvetica,Helvetica" font-size="20.0" fill="#F6F6F6" transform="matrix(1.00, 0.00, -0.00, -1.00, 317.5, 65.4)">r</text><text xml:space="preserve" font-family="Helvetica,Helvetica" font-size="20.0" fill="#F6F6F6" transform="matrix(1.00, 0.00, -0.00, -1.00, 324.2, 65.4)">e</text><text xml:space="preserve" font-family="Helvetica,Helvetica" font-size="20.0" fill="#F6F6F6" transform="matrix(1.00, 0.00, -0.00, -1.00, 335.3, 65.4)">m</text><text xml:space="preserve" font-family="Helvetica,Helvetica" font-size="20.0" fill="#F6F6F6" transform="matrix(1.00, 0.00, -0.00, -1.00, 352.0, 65.4)"> </text><text xml:space="preserve" font-family="Helvetica,Helvetica" font-size="20.0" fill="#F6F6F6" transform="matrix(1.00, 0.00, -0.00, -1.00, 357.5, 65.4)">i</text><text xml:space="preserve" font-family="Helvetica,Helvetica" font-size="20.0" fill="#F6F6F6" transform="matrix(1.00, 0.00, -0.00, -1.00, 362.0, 65.4)">p</text><text xml:space="preserve" font-family="Helvetica,Helvetica" font-size="20.0" fill="#F6F6F6" transform="matrix(1.00, 0.00, -0.00, -1.00, 373.1, 65.4)">s</text><text xml:space="preserve" font-family="Helvetica,Helvetica" font-size="20.0" fill="#F6F6F6" transform="matrix(1.00, 0.00, -0.00, -1.00, 383.1, 65.4)">u</text><text xml:space="preserve" font-family="Helvetica,Helvetica" font-size="20.0" fill="#F6F6F6" transform="matrix(1.00, 0.00, -0.00, -1.00, 394.2, 65.4)">m</text><text xml:space="preserve" font-family="Helvetica,Helvetica" font-size="20.0" fill="#F6F6F6" transform="matrix(1.00, 0.00, -0.00, -1.00, 410.9, 65.4)"> </text><text xml:space="preserve" font-family="Helvetica,Helvetica" font-size="20.0" fill="#F6F6F6" transform="matrix(1.00, 0.00, -0.00, -1.00, 416.4, 65.4)">d</text><text xml:space="preserve" font-family="Helvetica,Helvetica" font-size="20.0" fill="#F6F6F6" transform="matrix(1.00, 0.00, -0.00, -1.00, 427.6, 65.4)">o</text><text xml:space="preserve" font-family="Helvetica,Helvetica" font-size="20.0" fill="#F6F6F6" transform="matrix(1.00, 0.00, -0.00, -1.00, 438.7, 65.4)">l</text><text xml:space="preserve" font-family="Helvetica,Helvetica" font-size="20.0" fill="#F6F6F6" transform="matrix(1.00, 0.00, -0.00, -1.00, 443.1, 65.4)">o</text><text xml:space="preserve" font-family="Helvetica,Helvetica" font-size="20.0" fill="#F6F6F6" transform="matrix(1.00, 0.00, -0.00, -1.00, 454.3, 65.4)">r</text><text xml:space="preserve" font-family="Helvetica,Helvetica" font-size="20.0" fill="#F6F6F6" transform="matrix(1.00, 0.00, -0.00, -1.00, 460.9, 65.4)"> </text><text xml:space="preserve" font-family="Helvetica,Helvetica" font-size="20.0" fill="#F6F6F6" transform="matrix(1.00, 0.00, -0.00, -1.00, 466.5, 65.4)">s</text><text xml:space="preserve" font-family="Helvetica,Helvetica" font-size="20.0" fill="#F6F6F6" transform="matrix(1.00, 0.00, -0.00, -1.00, 476.5, 65.4)">i</text><text xml:space="preserve" font-family="Helvetica,Helvetica" font-size="20.0" fill="#F6F6F6" transform="matrix(1.00, 0.00, -0.00, -1.00, 480.9, 65.4)">t</text><text xml:space="preserve" font-family="Helvetica,Helvetica" font-size="20.0" fill="#F6F6F6" transform="matrix(1.00, 0.00, -0.00, -1.00, 486.5, 65.4)"> </text><text xml:space="preserve" font-family="Helvetica,Helvetica" font-size="20.0" fill="#F6F6F6" transform="matrix(1.00, 0.00, -0.00, -1.00, 492.0, 65.4)">a</text><text xml:space="preserve" font-family="Helvetica,Helvetica" font-size="20.0" fill="#F6F6F6" transform="matrix(1.00, 0.00, -0.00, -1.00, 503.2, 65.4)">m</text><text xml:space="preserve" font-family="Helvetica,Helvetica" font-size="20.0" fill="#F6F6F6" transform="matrix(1.00, 0.00, -0.00, -1.00, 519.8, 65.4)">e</text><text xml:space="preserve" font-family="Helvetica,Helvetica" font-size="20.0" fill="#F6F6F6" transform="matrix(1.00, 0.00, -0.00, -1.00, 530.9, 65.4)">t</text><text xml:space="preserve" font-family="Helvetica,Helvetica" font-size="20.0" fill="#F6F6F6" transform="matrix(1.00, 0.00, -0.00, -1.00, 536.5, 65.4)">,</text><text xml:space="preserve" font-family="Helvetica,Helvetica" font-size="20.0" fill="#F6F6F6" transform="matrix(1.00, 0.00, -0.00, -1.00, 542.1, 65.4)"> </text><text xml:space="preserve" font-family="Helvetica,Helvetica" font-size="20.0" fill="#F6F6F6" transform="matrix(1.00, 0.00, -0.00, -1.00, 547.6, 65.4)">c</text><text xml:space="preserve" font-family="Helvetica,Helvetica" font-size="20.0" fill="#F6F6F6" transform="matrix(1.00, 0.00, -0.00, -1.00, 557.6, 65.4)">o</text><text xml:space="preserve" font-family="Helvetica,Helvetica" font-size="20.0" fill="#F6F6F6" transform="matrix(1.00, 0.00, -0.00, -1.00, 568.7, 65.4)">n</text><text xml:space="preserve" font-family="Helvetica,Helvetica" font-size="20.0" fill="#F6F6F6" transform="matrix(1.00, 0.00, -0.00, -1.00, 579.9, 65.4)">s</text><text xml:space="preserve" font-family="Helvetica,Helvetica" font-size="20.0" fill="#F6F6F6" transform="matrix(1.00, 0.00, -0.00, -1.00, 589.9, 65.4)">e</text><text xml:space="preserve" font-family="Helvetica,Helvetica" font-size="20.0" fill="#F6F6F6" transform="matrix(1.00, 0.00, -0.00, -1.00, 601.0, 65.4)">c</text><text xml:space="preserve" font-family="Helvetica,Helvetica" font-size="20.0" fill="#F6F6F6" transform="matrix(1.00, 0.00, -0.00, -1.00, 611.0, 65.4)">t</text><text xml:space="preserve" font-family="Helvetica,Helvetica" font-size="20.0" fill="#F6F6F6" transform="matrix(1.00, 0.00, -0.00, -1.00, 616.5, 65.4)">e</text><text xml:space="preserve" font-family="Helvetica,Helvetica" font-size="20.0" fill="#F6F6F6" transform="matrix(1.00, 0.00, -0.00, -1.00, 627.7, 65.4)">t</text><text xml:space="preserve" font-family="Helvetica,Helvetica" font-size="20.0" fill="#F6F6F6" transform="matrix(1.00, 0.00, -0.00, -1.00, 633.2, 65.4)">u</text><text xml:space="preserve" font-family="Helvetica,Helvetica" font-size="20.0" fill="#F6F6F6" transform="matrix(1.00, 0.00, -0.00, -1.00, 644.3, 65.4)">e</text><text xml:space="preserve" font-family="Helvetica,Helvetica" font-size="20.0" fill="#F6F6F6" transform="matrix(1.00, 0.00, -0.00, -1.00, 655.5, 65.4)">r</text><text xml:space="preserve" font-family="Helvetica,Helvetica" font-size="20.0" fill="#F6F6F6" transform="matrix(1.00, 0.00, -0.00, -1.00, 662.1, 65.4)"> </text><text xml:space="preserve" font-family="Helvetica,Helvetica" font-size="20.0" fill="#F6F6F6" transform="matrix(1.00, 0.00, -0.00, -1.00, 667.7, 65.4)">a</text><text xml:space="preserve" font-family="Helvetica,Helvetica" font-size="20.0" fill="#F6F6F6" transform="matrix(1.00, 0.00, -0.00, -1.00, 678.8, 65.4)">d</text><text xml:space="preserve" font-family="Helvetica,Helvetica" font-size="20.0" fill="#F6F6F6" transform="matrix(1.00, 0.00, -0.00, -1.00, 689.9, 65.4)">i</text><text xml:space="preserve" font-family="Helvetica,Helvetica" font-size="20.0" fill="#F6F6F6" transform="matrix(1.00, 0.00, -0.00, -1.00, 694.4, 65.4)">p</text><text xml:space="preserve" font-family="Helvetica,Helvetica" font-size="20.0" fill="#F6F6F6" transform="matrix(1.00, 0.00, -0.00, -1.00, 705.5, 65.4)">i</text><text xml:space="preserve" font-family="Helvetica,Helvetica" font-size="20.0" fill="#F6F6F6" transform="matrix(1.00, 0.00, -0.00, -1.00, 710.0, 65.4)">s</text><text xml:space="preserve" font-family="Helvetica,Helvetica" font-size="20.0" fill="#F6F6F6" transform="matrix(1.00, 0.00, -0.00, -1.00, 720.0, 65.4)">c</text><text xml:space="preserve" font-family="Helvetica,Helvetica" font-size="20.0" fill="#F6F6F6" transform="matrix(1.00, 0.00, -0.00, -1.00, 730.0, 65.4)">i</text><text xml:space="preserve" font-family="Helvetica,Helvetica" font-size="20.0" fill="#F6F6F6" transform="matrix(1.00, 0.00, -0.00, -1.00, 734.4, 65.4)">n</text><text xml:space="preserve" font-family="Helvetica,Helvetica" font-size="20.0" fill="#F6F6F6" transform="matrix(1.00, 0.00, -0.00, -1.00, 745.5, 65.4)">g</text><text xml:space="preserve" font-family="Helvetica,Helvetica" font-size="20.0" fill="#F6F6F6" transform="matrix(1.00, 0.00, -0.00, -1.00, 756.7, 65.4)"> </text><text xml:space="preserve" font-family="Helvetica,Helvetica" font-size="20.0" fill="#F6F6F6" transform="matrix(1.00, 0.00, -0.00, -1.00, 762.2, 65.4)">e</text><text xml:space="preserve" font-family="Helvetica,Helvetica" font-size="20.0" fill="#F6F6F6" transform="matrix(1.00, 0.00, -0.00, -1.00, 773.3, 65.4)">l</text><text xml:space="preserve" font-family="Helvetica,Helvetica" font-size="20.0" fill="#F6F6F6" transform="matrix(1.00, 0.00, -0.00, -1.00, 777.8, 65.4)">i</text><text xml:space="preserve" font-family="Helvetica,Helvetica" font-size="20.0" fill="#F6F6F6" transform="matrix(1.00, 0.00, -0.00, -1.00, 782.2, 65.4)">t</text><text xml:space="preserve" font-family="Helvetica,Helvetica" font-size="20.0" fill="#F6F6F6" transform="matrix(1.00, 0.00, -0.00, -1.00, 787.8, 65.4)">,</text><text xml:space="preserve" font-family="Helvetica,Helvetica" font-size="20.0" fill="#F6F6F6" transform="matrix(1.00, 0.00, -0.00, -1.00, 793.3, 65.4)"> </text><text xml:space="preserve" font-family="Helvetica,Helvetica" font-size="20.0" fill="#F6F6F6" transform="matrix(1.00, 0.00, -0.00, -1.00, 798.9, 65.4)">s</text><text xml:space="preserve" font-family="Helvetica,Helvetica" font-size="20.0" fill="#F6F6F6" transform="matrix(1.00, 0.00, -0.00, -1.00, 808.9, 65.4)">e</text><text xml:space="preserve" font-family="Helvetica,Helvetica" font-size="20.0" fill="#F6F6F6" transform="matrix(1.00, 0.00, -0.00, -1.00, 820.0, 65.4)">d</text><text xml:space="preserve" font-family="Helvetica,Helvetica" font-size="20.0" fill="#F6F6F6" transform="matrix(1.00, 0.00, -0.00, -1.00, 831.2, 65.4)"> </text><text xml:space="preserve" font-family="Helvetica,Helvetica" font-size="20.0" fill="#F6F6F6" transform="matrix(1.00, 0.00, -0.00, -1.00, 248.6, 41.4)">d</text><text xml:space="preserve" font-family="Helvetica,Helvetica" font-size="20.0" fill="#F6F6F6" transform="matrix(1.00, 0.00, -0.00, -1.00, 259.7, 41.4)">i</text><text xml:space="preserve" font-family="Helvetica,Helvetica" font-size="20.0" fill="#F6F6F6" transform="matrix(1.00, 0.00, -0.00, -1.00, 264.2, 41.4)">a</text><text xml:space="preserve" font-family="Helvetica,Helvetica" font-size="20.0" fill="#F6F6F6" transform="matrix(1.00, 0.00, -0.00, -1.00, 275.3, 41.4)">m</text><text xml:space="preserve" font-family="Helvetica,Helvetica" font-size="20.0" fill="#F6F6F6" transform="matrix(1.00, 0.00, -0.00, -1.00, 292.0, 41.4)"> </text><text xml:space="preserve" font-family="Helvetica,Helvetica" font-size="20.0" fill="#F6F6F6" transform="matrix(1.00, 0.00, -0.00, -1.00, 297.5, 41.4)">n</text><text xml:space="preserve" font-family="Helvetica,Helvetica" font-size="20.0" fill="#F6F6F6" transform="matrix(1.00, 0.00, -0.00, -1.00, 308.7, 41.4)">o</text><text xml:space="preserve" font-family="Helvetica,Helvetica" font-size="20.0" fill="#F6F6F6" transform="matrix(1.00, 0.00, -0.00, -1.00, 319.8, 41.4)">n</text><text xml:space="preserve" font-family="Helvetica,Helvetica" font-size="20.0" fill="#F6F6F6" transform="matrix(1.00, 0.00, -0.00, -1.00, 330.9, 41.4)">u</text><text xml:space="preserve" font-family="Helvetica,Helvetica" font-size="20.0" fill="#F6F6F6" transform="matrix(1.00, 0.00, -0.00, -1.00, 342.0, 41.4)">m</text><text xml:space="preserve" font-family="Helvetica,Helvetica" font-size="20.0" fill="#F6F6F6" transform="matrix(1.00, 0.00, -0.00, -1.00, 358.7, 41.4)">m</text><text xml:space="preserve" font-family="Helvetica,Helvetica" font-size="20.0" fill="#F6F6F6" transform="matrix(1.00, 0.00, -0.00, -1.00, 375.4, 41.4)">y</text><text xml:space="preserve" font-family="Helvetica,Helvetica" font-size="20.0" fill="#F6F6F6" transform="matrix(1.00, 0.00, -0.00, -1.00, 385.4, 41.4)"> </text><text xml:space="preserve" font-family="Helvetica,Helvetica" font-size="20.0" fill="#F6F6F6" transform="matrix(1.00, 0.00, -0.00, -1.00, 390.9, 41.4)">n</text><text xml:space="preserve" font-family="Helvetica,Helvetica" font-size="20.0" fill="#F6F6F6" transform="matrix(1.00, 0.00, -0.00, -1.00, 402.0, 41.4)">i</text><text xml:space="preserve" font-family="Helvetica,Helvetica" font-size="20.0" fill="#F6F6F6" transform="matrix(1.00, 0.00, -0.00, -1.00, 406.5, 41.4)">b</text><text xml:space="preserve" font-family="Helvetica,Helvetica" font-size="20.0" fill="#F6F6F6" transform="matrix(1.00, 0.00, -0.00, -1.00, 417.6, 41.4)">h</text><text xml:space="preserve" font-family="Helvetica,Helvetica" font-size="20.0" fill="#F6F6F6" transform="matrix(1.00, 0.00, -0.00, -1.00, 428.7, 41.4)"> </text><text xml:space="preserve" font-family="Helvetica,Helvetica" font-size="20.0" fill="#F6F6F6" transform="matrix(1.00, 0.00, -0.00, -1.00, 434.3, 41.4)">a</text><text xml:space="preserve" font-family="Helvetica,Helvetica" font-size="20.0" fill="#F6F6F6" transform="matrix(1.00, 0.00, -0.00, -1.00, 445.4, 41.4)">l</text><text xml:space="preserve" font-family="Helvetica,Helvetica" font-size="20.0" fill="#F6F6F6" transform="matrix(1.00, 0.00, -0.00, -1.00, 449.9, 41.4)">i</text><text xml:space="preserve" font-family="Helvetica,Helvetica" font-size="20.0" fill="#F6F6F6" transform="matrix(1.00, 0.00, -0.00, -1.00, 454.3, 41.4)">q</text><text xml:space="preserve" font-family="Helvetica,Helvetica" font-size="20.0" fill="#F6F6F6" transform="matrix(1.00, 0.00, -0.00, -1.00, 465.4, 41.4)">u</text><text xml:space="preserve" font-family="Helvetica,Helvetica" font-size="20.0" fill="#F6F6F6" transform="matrix(1.00, 0.00, -0.00, -1.00, 476.6, 41.4)">a</text><text xml:space="preserve" font-family="Helvetica,Helvetica" font-size="20.0" fill="#F6F6F6" transform="matrix(1.00, 0.00, -0.00, -1.00, 487.7, 41.4)">m</text><text xml:space="preserve" font-family="Helvetica,Helvetica" font-size="20.0" fill="#F6F6F6" transform="matrix(1.00, 0.00, -0.00, -1.00, 504.4, 41.4)"> </text><text xml:space="preserve" font-family="Helvetica,Helvetica" font-size="20.0" fill="#F6F6F6" transform="matrix(1.00, 0.00, -0.00, -1.00, 509.9, 41.4)">e</text><text xml:space="preserve" font-family="Helvetica,Helvetica" font-size="20.0" fill="#F6F6F6" transform="matrix(1.00, 0.00, -0.00, -1.00, 521.0, 41.4)">r</text><text xml:space="preserve" font-family="Helvetica,Helvetica" font-size="20.0" fill="#F6F6F6" transform="matrix(1.00, 0.00, -0.00, -1.00, 527.7, 41.4)">a</text><text xml:space="preserve" font-family="Helvetica,Helvetica" font-size="20.0" fill="#F6F6F6" transform="matrix(1.00, 0.00, -0.00, -1.00, 538.8, 41.4)">t</text><text xml:space="preserve" font-family="Helvetica,Helvetica" font-size="20.0" fill="#F6F6F6" transform="matrix(1.00, 0.00, -0.00, -1.00, 544.4, 41.4)"> </text><text xml:space="preserve" font-family="Helvetica,Helvetica" font-size="20.0" fill="#F6F6F6" transform="matrix(1.00, 0.00, -0.00, -1.00, 549.9, 41.4)">v</text><text xml:space="preserve" font-family="Helvetica,Helvetica" font-size="20.0" fill="#F6F6F6" transform="matrix(1.00, 0.00, -0.00, -1.00, 559.9, 41.4)">o</text><text xml:space="preserve" font-family="Helvetica,Helvetica" font-size="20.0" fill="#F6F6F6" transform="matrix(1.00, 0.00, -0.00, -1.00, 571.1, 41.4)">l</text><text xml:space="preserve" font-family="Helvetica,Helvetica" font-size="20.0" fill="#F6F6F6" transform="matrix(1.00, 0.00, -0.00, -1.00, 575.5, 41.4)">u</text><text xml:space="preserve" font-family="Helvetica,Helvetica" font-size="20.0" fill="#F6F6F6" transform="matrix(1.00, 0.00, -0.00, -1.00, 586.6, 41.4)">t</text><text xml:space="preserve" font-family="Helvetica,Helvetica" font-size="20.0" fill="#F6F6F6" transform="matrix(1.00, 0.00, -0.00, -1.00, 592.2, 41.4)">p</text><text xml:space="preserve" font-family="Helvetica,Helvetica" font-size="20.0" fill="#F6F6F6" transform="matrix(1.00, 0.00, -0.00, -1.00, 603.3, 41.4)">a</text><text xml:space="preserve" font-family="Helvetica,Helvetica" font-size="20.0" fill="#F6F6F6" transform="matrix(1.00, 0.00, -0.00, -1.00, 614.4, 41.4)">t</text><text xml:space="preserve" font-family="Helvetica,Helvetica" font-size="20.0" fill="#F6F6F6" transform="matrix(1.00, 0.00, -0.00, -1.00, 620.0, 41.4)">.</text><text xml:space="preserve" font-family="Helvetica,Helvetica" font-size="20.0" fill="#F6F6F6" transform="matrix(1.00, 0.00, -0.00, -1.00, 625.5, 41.4)"> </text><text xml:space="preserve" font-family="Helvetica,Helvetica" font-size="20.0" fill="#F6F6F6" transform="matrix(1.00, 0.00, -0.00, -1.00, 631.1, 41.4)">U</text><text xml:space="preserve" font-family="Helvetica,Helvetica" font-size="20.0" fill="#F6F6F6" transform="matrix(1.00, 0.00, -0.00, -1.00, 645.5, 41.4)">t</text><text xml:space="preserve" font-family="Helvetica,Helvetica" font-size="20.0" fill="#F6F6F6" transform="matrix(1.00, 0.00, -0.00, -1.00, 651.1, 41.4)"> </text><text xml:space="preserve" font-family="Helvetica,Helvetica" font-size="20.0" fill="#F6F6F6" transform="matrix(1.00, 0.00, -0.00, -1.00, 656.7, 41.4)">w</text><text xml:space="preserve" font-family="Helvetica,Helvetica" font-size="20.0" fill="#F6F6F6" transform="matrix(1.00, 0.00, -0.00, -1.00, 671.1, 41.4)">i</text><text xml:space="preserve" font-family="Helvetica,Helvetica" font-size="20.0" fill="#F6F6F6" transform="matrix(1.00, 0.00, -0.00, -1.00, 675.5, 41.4)">s</text><text xml:space="preserve" font-family="Helvetica,Helvetica" font-size="20.0" fill="#F6F6F6" transform="matrix(1.00, 0.00, -0.00, -1.00, 685.5, 41.4)">i</text><text xml:space="preserve" font-family="Helvetica,Helvetica" font-size="20.0" fill="#F6F6F6" transform="matrix(1.00, 0.00, -0.00, -1.00, 690.0, 41.4)"> </text><text xml:space="preserve" font-family="Helvetica,Helvetica" font-size="20.0" fill="#F6F6F6" transform="matrix(1.00, 0.00, -0.00, -1.00, 695.5, 41.4)">e</text><text xml:space="preserve" font-family="Helvetica,Helvetica" font-size="20.0" fill="#F6F6F6" transform="matrix(1.00, 0.00, -0.00, -1.00, 706.7, 41.4)">n</text><text xml:space="preserve" font-family="Helvetica,Helvetica" font-size="20.0" fill="#F6F6F6" transform="matrix(1.00, 0.00, -0.00, -1.00, 717.8, 41.4)">i</text><text xml:space="preserve" font-family="Helvetica,Helvetica" font-size="20.0" fill="#F6F6F6" transform="matrix(1.00, 0.00, -0.00, -1.00, 722.2, 41.4)">m</text><text xml:space="preserve" font-family="Helvetica,Helvetica" font-size="20.0" fill="#F6F6F6" transform="matrix(1.00, 0.00, -0.00, -1.00, 738.9, 41.4)"> </text><text xml:space="preserve" font-family="Helvetica,Helvetica" font-size="20.0" fill="#F6F6F6" transform="matrix(1.00, 0.00, -0.00, -1.00, 744.5, 41.4)">a</text><text xml:space="preserve" font-family="Helvetica,Helvetica" font-size="20.0" fill="#F6F6F6" transform="matrix(1.00, 0.00, -0.00, -1.00, 755.6, 41.4)">d</text><text xml:space="preserve" font-family="Helvetica,Helvetica" font-size="20.0" fill="#F6F6F6" transform="matrix(1.00, 0.00, -0.00, -1.00, 766.7, 41.4)"> </text><text xml:space="preserve" font-family="Helvetica,Helvetica" font-size="20.0" fill="#F6F6F6" transform="matrix(1.00, 0.00, -0.00, -1.00, 772.3, 41.4)">m</text><text xml:space="preserve" font-family="Helvetica,Helvetica" font-size="20.0" fill="#F6F6F6" transform="matrix(1.00, 0.00, -0.00, -1.00, 788.9, 41.4)">i</text><text xml:space="preserve" font-family="Helvetica,Helvetica" font-size="20.0" fill="#F6F6F6" transform="matrix(1.00, 0.00, -0.00, -1.00, 793.4, 41.4)">n</text><text xml:space="preserve" font-family="Helvetica,Helvetica" font-size="20.0" fill="#F6F6F6" transform="matrix(1.00, 0.00, -0.00, -1.00, 804.5, 41.4)">i</text><text xml:space="preserve" font-family="Helvetica,Helvetica" font-size="20.0" fill="#F6F6F6" transform="matrix(1.00, 0.00, -0.00, -1.00, 809.0, 41.4)">m</text><text xml:space="preserve" font-family="Helvetica,Helvetica" font-size="20.0" fill="#F6F6F6" transform="matrix(1.00, 0.00, -0.00, -1.00, 825.6, 41.4)">.</text></g></g><g><clipPath id="clip0x6180088b06e0"><path d="M 80.7 160.9 L 160.8 80.8 L 80.7 0.6 L 0.5 80.8 Z M 80.7 160.9 "></path></clipPath><g clip-path="url(#clip0x6180088b06e0)"><path d="M 80.7 159.5 L 1.9 80.8 L 80.7 2.0 Z M 80.7 159.5 " fill="#62D7AD"></path></g></g></g></svg>