<?xml version="1.0" encoding="UTF-8" standalone="no"?><svg xmlns="http://www.w3.org/2000/svg" xmlns:xlink="http://www.w3.org/1999/xlink" clip-rule="evenodd" stroke-miterlimit="10" viewBox="0 0 564 70"><desc>SVG generated by Keynote</desc><defs></defs><g transform="matrix(1.00, 0.00, -0.00, -1.00, 0.0, 70.0)"><g><clipPath id="clip0x608004aa04e0"><path d="M 1.9 1.6 L 487.2 1.6 L 487.2 33.6 L 1.9 33.6 Z M 1.9 1.6 "></path></clipPath><g clip-path="url(#clip0x608004aa04e0)"><path d="M 3.0 33.0 L 486.0 33.0 L 486.0 3.0 L 3.0 3.0 Z M 2.9 32.6 " fill="#677188"></path></g></g><g><clipPath id="clip0x608004aa0cc0"><path d="M 1.9 1.4 L 377.9 1.4 L 377.9 33.6 L 1.9 33.6 Z M 1.9 1.4 "></path></clipPath><g clip-path="url(#clip0x608004aa0cc0)"><path d="M 3.0 33.0 L 377.0 33.0 L 377.0 2.0 L 3.0 2.0 Z M 2.9 32.6 " fill="#EDC25F"></path></g></g><g><clipPath id="clip0x608004aa0f00"><path d="M -0.3 32.9 L 117.7 32.9 L 117.7 69.9 L -0.3 69.9 Z M -0.3 32.9 "></path></clipPath><g clip-path="url(#clip0x608004aa0f00)"><text xml:space="preserve" font-family="Helvetica,Helvetica" font-size="22.0" fill="#E2E2E2" transform="matrix(1.00, 0.00, -0.00, -1.00, 5.2, 43.4)">W</text><text xml:space="preserve" font-family="Helvetica,Helvetica" font-size="22.0" fill="#E2E2E2" transform="matrix(1.00, 0.00, -0.00, -1.00, 25.6, 43.4)">o</text><text xml:space="preserve" font-family="Helvetica,Helvetica" font-size="22.0" fill="#E2E2E2" transform="matrix(1.00, 0.00, -0.00, -1.00, 37.8, 43.4)">r</text><text xml:space="preserve" font-family="Helvetica,Helvetica" font-size="22.0" fill="#E2E2E2" transform="matrix(1.00, 0.00, -0.00, -1.00, 45.2, 43.4)">d</text><text xml:space="preserve" font-family="Helvetica,Helvetica" font-size="22.0" fill="#E2E2E2" transform="matrix(1.00, 0.00, -0.00, -1.00, 57.4, 43.4)">p</text><text xml:space="preserve" font-family="Helvetica,Helvetica" font-size="22.0" fill="#E2E2E2" transform="matrix(1.00, 0.00, -0.00, -1.00, 69.6, 43.4)">r</text><text xml:space="preserve" font-family="Helvetica,Helvetica" font-size="22.0" fill="#E2E2E2" transform="matrix(1.00, 0.00, -0.00, -1.00, 77.0, 43.4)">e</text><text xml:space="preserve" font-family="Helvetica,Helvetica" font-size="22.0" fill="#E2E2E2" transform="matrix(1.00, 0.00, -0.00, -1.00, 89.2, 43.4)">s</text><text xml:space="preserve" font-family="Helvetica,Helvetica" font-size="22.0" fill="#E2E2E2" transform="matrix(1.00, 0.00, -0.00, -1.00, 100.2, 43.4)">s</text></g></g><g><clipPath id="clip0x608004aa1440"><path d="M 491.2 0.5 L 564.0 0.5 L 564.0 34.6 L 491.2 34.6 Z M 491.2 0.5 "></path></clipPath><g clip-path="url(#clip0x608004aa1440)"><path d="M 499.7 34.0 C 498.3 33.6 497.0 32.4 497.0 31.0 L 497.0 22.5 L 492.2 17.3 L 497.0 12.0 L 497.0 4.0 C 497.0 2.6 498.3 1.0 499.7 1.0 L 560.5 1.0 C 561.8 1.0 563.0 2.6 563.0 4.0 L 563.0 31.0 C 563.0 32.4 561.8 34.0 560.5 34.0 L 499.7 34.0 Z M 499.7 33.6 " fill="#E2E2E2"></path></g></g><g><clipPath id="clip0x608004aa1680"><path d="M 507.1 3.2 L 553.1 3.2 L 553.1 34.2 L 507.1 34.2 Z M 507.1 3.2 "></path></clipPath><g clip-path="url(#clip0x608004aa1680)"><text xml:space="preserve" font-family="Helvetica,Helvetica" font-size="18.0" fill="#5A6378" transform="matrix(1.00, 0.00, -0.00, -1.00, 512.1, 11.9)">8</text><text xml:space="preserve" font-family="Helvetica,Helvetica" font-size="18.0" fill="#5A6378" transform="matrix(1.00, 0.00, -0.00, -1.00, 522.1, 11.9)">6</text><text xml:space="preserve" font-family="Helvetica,Helvetica" font-size="18.0" fill="#5A6378" transform="matrix(1.00, 0.00, -0.00, -1.00, 532.1, 11.9)">%</text></g></g></g></svg>