<?xml version="1.0" encoding="UTF-8" standalone="no"?><svg xmlns="http://www.w3.org/2000/svg" xmlns:xlink="http://www.w3.org/1999/xlink" clip-rule="evenodd" stroke-miterlimit="10" viewBox="0 0 565 70"><desc>SVG generated by Keynote</desc><defs></defs><g transform="matrix(1.00, 0.00, -0.00, -1.00, 0.0, 70.0)"><g><clipPath id="clip0x600004ca6d80"><path d="M 1.9 1.5 L 487.2 1.5 L 487.2 33.8 L 1.9 33.8 Z M 1.9 1.5 "></path></clipPath><g clip-path="url(#clip0x600004ca6d80)"><path d="M 3.0 33.0 L 486.0 33.0 L 486.0 3.0 L 3.0 3.0 Z M 2.9 32.8 " fill="#677188"></path></g></g><g><clipPath id="clip0x600004ca7560"><path d="M 1.9 1.7 L 419.7 1.7 L 419.7 33.8 L 1.9 33.8 Z M 1.9 1.7 "></path></clipPath><g clip-path="url(#clip0x600004ca7560)"><path d="M 3.0 33.0 L 419.0 33.0 L 419.0 3.0 L 3.0 3.0 Z M 2.9 32.8 " fill="#54C6E1"></path></g></g><g><clipPath id="clip0x600004ca77a0"><path d="M -0.3 33.1 L 131.2 33.1 L 131.2 70.1 L -0.3 70.1 Z M -0.3 33.1 "></path></clipPath><g clip-path="url(#clip0x600004ca77a0)"><text xml:space="preserve" font-family="Helvetica,Helvetica" font-size="22.0" fill="#F6F6F6" transform="matrix(1.00, 0.00, -0.00, -1.00, 5.2, 43.7)">W</text><text xml:space="preserve" font-family="Helvetica,Helvetica" font-size="22.0" fill="#F6F6F6" transform="matrix(1.00, 0.00, -0.00, -1.00, 25.6, 43.7)">e</text><text xml:space="preserve" font-family="Helvetica,Helvetica" font-size="22.0" fill="#F6F6F6" transform="matrix(1.00, 0.00, -0.00, -1.00, 37.8, 43.7)">b</text><text xml:space="preserve" font-family="Helvetica,Helvetica" font-size="22.0" fill="#F6F6F6" transform="matrix(1.00, 0.00, -0.00, -1.00, 50.1, 43.7)"> </text><text xml:space="preserve" font-family="Helvetica,Helvetica" font-size="22.0" fill="#F6F6F6" transform="matrix(1.00, 0.00, -0.00, -1.00, 56.2, 43.7)">D</text><text xml:space="preserve" font-family="Helvetica,Helvetica" font-size="22.0" fill="#F6F6F6" transform="matrix(1.00, 0.00, -0.00, -1.00, 72.1, 43.7)">e</text><text xml:space="preserve" font-family="Helvetica,Helvetica" font-size="22.0" fill="#F6F6F6" transform="matrix(1.00, 0.00, -0.00, -1.00, 84.3, 43.7)">s</text><text xml:space="preserve" font-family="Helvetica,Helvetica" font-size="22.0" fill="#F6F6F6" transform="matrix(1.00, 0.00, -0.00, -1.00, 95.3, 43.7)">i</text><text xml:space="preserve" font-family="Helvetica,Helvetica" font-size="22.0" fill="#F6F6F6" transform="matrix(1.00, 0.00, -0.00, -1.00, 100.2, 43.7)">g</text><text xml:space="preserve" font-family="Helvetica,Helvetica" font-size="22.0" fill="#F6F6F6" transform="matrix(1.00, 0.00, -0.00, -1.00, 112.4, 43.7)">n</text></g></g><g><clipPath id="clip0x600004ca7d40"><path d="M 491.9 0.5 L 564.3 0.5 L 564.3 34.5 L 491.9 34.5 Z M 491.9 0.5 "></path></clipPath><g clip-path="url(#clip0x600004ca7d40)"><path d="M 500.0 34.0 C 498.6 33.5 497.0 32.4 497.0 31.0 L 497.0 21.6 L 492.9 16.4 L 497.0 11.2 L 497.0 4.0 C 497.0 2.6 498.6 1.0 500.0 1.0 L 560.8 1.0 C 562.2 1.0 563.0 2.6 563.0 4.0 L 563.0 31.0 C 563.0 32.4 562.2 34.0 560.8 34.0 L 500.0 34.0 Z M 500.0 33.5 " fill="#E2E2E2"></path></g></g><g><clipPath id="clip0x600004ca7f80"><path d="M 507.4 3.2 L 553.4 3.2 L 553.4 34.2 L 507.4 34.2 Z M 507.4 3.2 "></path></clipPath><g clip-path="url(#clip0x600004ca7f80)"><text xml:space="preserve" font-family="Helvetica,Helvetica" font-size="18.0" fill="#5A6378" transform="matrix(1.00, 0.00, -0.00, -1.00, 512.4, 11.8)">9</text><text xml:space="preserve" font-family="Helvetica,Helvetica" font-size="18.0" fill="#5A6378" transform="matrix(1.00, 0.00, -0.00, -1.00, 522.4, 11.8)">3</text><text xml:space="preserve" font-family="Helvetica,Helvetica" font-size="18.0" fill="#5A6378" transform="matrix(1.00, 0.00, -0.00, -1.00, 532.4, 11.8)">%</text></g></g></g></svg>