<?xml version="1.0" encoding="UTF-8" standalone="no"?><svg xmlns="http://www.w3.org/2000/svg" xmlns:xlink="http://www.w3.org/1999/xlink" clip-rule="evenodd" stroke-miterlimit="10" viewBox="0 0 566 70"><desc>SVG generated by Keynote</desc><defs></defs><g transform="matrix(1.00, 0.00, -0.00, -1.00, 0.0, 70.0)"><g><clipPath id="clip0x600004ca56a0"><path d="M 3.9 1.7 L 489.2 1.7 L 489.2 33.7 L 3.9 33.7 Z M 3.9 1.7 "></path></clipPath><g clip-path="url(#clip0x600004ca56a0)"><path d="M 5.0 33.0 L 488.0 33.0 L 488.0 3.0 L 5.0 3.0 Z M 4.9 32.7 " fill="#677188"></path></g></g><g><clipPath id="clip0x600004ca5e80"><path d="M 3.9 2.2 L 407.1 2.2 L 407.1 33.7 L 3.9 33.7 Z M 3.9 2.2 "></path></clipPath><g clip-path="url(#clip0x600004ca5e80)"><path d="M 5.0 33.0 L 406.0 33.0 L 406.0 3.0 L 5.0 3.0 Z M 4.9 32.7 " fill="#FF607B"></path></g></g><g><clipPath id="clip0x600004ca60c0"><path d="M -0.1 33.0 L 117.1 33.0 L 117.1 70.0 L -0.1 70.0 Z M -0.1 33.0 "></path></clipPath><g clip-path="url(#clip0x600004ca60c0)"><text xml:space="preserve" font-family="Helvetica,Helvetica" font-size="22.0" fill="#E2E2E2" transform="matrix(1.00, 0.00, -0.00, -1.00, 5.9, 43.5)">P</text><text xml:space="preserve" font-family="Helvetica,Helvetica" font-size="22.0" fill="#E2E2E2" transform="matrix(1.00, 0.00, -0.00, -1.00, 20.6, 43.5)">h</text><text xml:space="preserve" font-family="Helvetica,Helvetica" font-size="22.0" fill="#E2E2E2" transform="matrix(1.00, 0.00, -0.00, -1.00, 32.8, 43.5)">o</text><text xml:space="preserve" font-family="Helvetica,Helvetica" font-size="22.0" fill="#E2E2E2" transform="matrix(1.00, 0.00, -0.00, -1.00, 45.1, 43.5)">t</text><text xml:space="preserve" font-family="Helvetica,Helvetica" font-size="22.0" fill="#E2E2E2" transform="matrix(1.00, 0.00, -0.00, -1.00, 51.2, 43.5)">o</text><text xml:space="preserve" font-family="Helvetica,Helvetica" font-size="22.0" fill="#E2E2E2" transform="matrix(1.00, 0.00, -0.00, -1.00, 63.4, 43.5)">s</text><text xml:space="preserve" font-family="Helvetica,Helvetica" font-size="22.0" fill="#E2E2E2" transform="matrix(1.00, 0.00, -0.00, -1.00, 74.4, 43.5)">h</text><text xml:space="preserve" font-family="Helvetica,Helvetica" font-size="22.0" fill="#E2E2E2" transform="matrix(1.00, 0.00, -0.00, -1.00, 86.7, 43.5)">o</text><text xml:space="preserve" font-family="Helvetica,Helvetica" font-size="22.0" fill="#E2E2E2" transform="matrix(1.00, 0.00, -0.00, -1.00, 98.9, 43.5)">p</text></g></g><g><clipPath id="clip0x600004ca6600"><path d="M 492.8 0.7 L 566.0 0.7 L 566.0 34.8 L 492.8 34.8 Z M 492.8 0.7 "></path></clipPath><g clip-path="url(#clip0x600004ca6600)"><path d="M 501.7 34.0 C 500.3 33.8 499.0 32.6 499.0 31.2 L 499.0 21.9 L 493.8 16.7 L 499.0 11.5 L 499.0 4.2 C 499.0 2.8 500.3 2.0 501.7 2.0 L 562.4 2.0 C 563.8 2.0 565.0 2.8 565.0 4.2 L 565.0 31.2 C 565.0 32.6 563.8 34.0 562.4 34.0 L 501.7 34.0 Z M 501.7 33.8 " fill="#E2E2E2"></path></g></g><g><clipPath id="clip0x600004ca6840"><path d="M 509.0 3.4 L 555.1 3.4 L 555.1 34.4 L 509.0 34.4 Z M 509.0 3.4 "></path></clipPath><g clip-path="url(#clip0x600004ca6840)"><text xml:space="preserve" font-family="Helvetica,Helvetica" font-size="18.0" fill="#5A6378" transform="matrix(1.00, 0.00, -0.00, -1.00, 514.0, 12.1)">9</text><text xml:space="preserve" font-family="Helvetica,Helvetica" font-size="18.0" fill="#5A6378" transform="matrix(1.00, 0.00, -0.00, -1.00, 524.1, 12.1)">0</text><text xml:space="preserve" font-family="Helvetica,Helvetica" font-size="18.0" fill="#5A6378" transform="matrix(1.00, 0.00, -0.00, -1.00, 534.1, 12.1)">%</text></g></g></g></svg>