<?xml version="1.0" encoding="UTF-8" standalone="no"?><svg xmlns="http://www.w3.org/2000/svg" xmlns:xlink="http://www.w3.org/1999/xlink" clip-rule="evenodd" stroke-miterlimit="10" viewBox="0 0 564 70"><desc>SVG generated by Keynote</desc><defs></defs><g transform="matrix(1.00, 0.00, -0.00, -1.00, 0.0, 70.0)"><g><clipPath id="clip0x600004ca83a0"><path d="M 1.9 1.4 L 487.2 1.4 L 487.2 33.6 L 1.9 33.6 Z M 1.9 1.4 "></path></clipPath><g clip-path="url(#clip0x600004ca83a0)"><path d="M 3.0 33.0 L 486.0 33.0 L 486.0 2.0 L 3.0 2.0 Z M 2.9 32.6 " fill="#677188"></path></g></g><g><clipPath id="clip0x600004ca8640"><path d="M 1.9 1.5 L 393.6 1.5 L 393.6 33.6 L 1.9 33.6 Z M 1.9 1.5 "></path></clipPath><g clip-path="url(#clip0x600004ca8640)"><path d="M 3.0 33.0 L 393.0 33.0 L 393.0 2.0 L 3.0 2.0 Z M 2.9 32.6 " fill="#62D7AD"></path></g></g><g><clipPath id="clip0x600004ca8880"><path d="M -0.3 32.9 L 102.2 32.9 L 102.2 69.9 L -0.3 69.9 Z M -0.3 32.9 "></path></clipPath><g clip-path="url(#clip0x600004ca8880)"><text xml:space="preserve" font-family="Helvetica,Helvetica" font-size="22.0" fill="#E2E2E2" transform="matrix(1.00, 0.00, -0.00, -1.00, 5.2, 43.5)">I</text><text xml:space="preserve" font-family="Helvetica,Helvetica" font-size="22.0" fill="#E2E2E2" transform="matrix(1.00, 0.00, -0.00, -1.00, 11.3, 43.5)">l</text><text xml:space="preserve" font-family="Helvetica,Helvetica" font-size="22.0" fill="#E2E2E2" transform="matrix(1.00, 0.00, -0.00, -1.00, 16.2, 43.5)">l</text><text xml:space="preserve" font-family="Helvetica,Helvetica" font-size="22.0" fill="#E2E2E2" transform="matrix(1.00, 0.00, -0.00, -1.00, 21.1, 43.5)">u</text><text xml:space="preserve" font-family="Helvetica,Helvetica" font-size="22.0" fill="#E2E2E2" transform="matrix(1.00, 0.00, -0.00, -1.00, 33.4, 43.5)">s</text><text xml:space="preserve" font-family="Helvetica,Helvetica" font-size="22.0" fill="#E2E2E2" transform="matrix(1.00, 0.00, -0.00, -1.00, 44.4, 43.5)">t</text><text xml:space="preserve" font-family="Helvetica,Helvetica" font-size="22.0" fill="#E2E2E2" transform="matrix(1.00, 0.00, -0.00, -1.00, 50.5, 43.5)">r</text><text xml:space="preserve" font-family="Helvetica,Helvetica" font-size="22.0" fill="#E2E2E2" transform="matrix(1.00, 0.00, -0.00, -1.00, 57.8, 43.5)">a</text><text xml:space="preserve" font-family="Helvetica,Helvetica" font-size="22.0" fill="#E2E2E2" transform="matrix(1.00, 0.00, -0.00, -1.00, 70.0, 43.5)">t</text><text xml:space="preserve" font-family="Helvetica,Helvetica" font-size="22.0" fill="#E2E2E2" transform="matrix(1.00, 0.00, -0.00, -1.00, 76.1, 43.5)">o</text><text xml:space="preserve" font-family="Helvetica,Helvetica" font-size="22.0" fill="#E2E2E2" transform="matrix(1.00, 0.00, -0.00, -1.00, 88.4, 43.5)">r</text></g></g><g><clipPath id="clip0x600004ca8e80"><path d="M 491.1 0.6 L 563.9 0.6 L 563.9 34.7 L 491.1 34.7 Z M 491.1 0.6 "></path></clipPath><g clip-path="url(#clip0x600004ca8e80)"><path d="M 499.6 34.0 C 498.2 33.7 497.0 32.6 497.0 31.2 L 497.0 22.7 L 492.1 17.5 L 497.0 12.3 L 497.0 4.2 C 497.0 2.8 498.2 2.0 499.6 2.0 L 560.3 2.0 C 561.7 2.0 563.0 2.8 563.0 4.2 L 563.0 31.2 C 563.0 32.6 561.7 34.0 560.3 34.0 L 499.6 34.0 Z M 499.6 33.7 " fill="#E2E2E2"></path></g></g><g><clipPath id="clip0x600004ca90c0"><path d="M 506.9 3.4 L 553.0 3.4 L 553.0 34.4 L 506.9 34.4 Z M 506.9 3.4 "></path></clipPath><g clip-path="url(#clip0x600004ca90c0)"><text xml:space="preserve" font-family="Helvetica,Helvetica" font-size="18.0" fill="#5A6378" transform="matrix(1.00, 0.00, -0.00, -1.00, 511.9, 12.0)">8</text><text xml:space="preserve" font-family="Helvetica,Helvetica" font-size="18.0" fill="#5A6378" transform="matrix(1.00, 0.00, -0.00, -1.00, 522.0, 12.0)">9</text><text xml:space="preserve" font-family="Helvetica,Helvetica" font-size="18.0" fill="#5A6378" transform="matrix(1.00, 0.00, -0.00, -1.00, 532.0, 12.0)">%</text></g></g></g></svg>