<?xml version="1.0" encoding="UTF-8" standalone="no"?><svg xmlns="http://www.w3.org/2000/svg" xmlns:xlink="http://www.w3.org/1999/xlink" clip-rule="evenodd" stroke-miterlimit="10" viewBox="0 0 40 40"><desc>SVG generated by Keynote</desc><defs></defs><g transform="matrix(1.00, 0.00, -0.00, -1.00, 0.0, 40.0)"><path d="M 31.0 30.8 C 37.0 24.7 37.0 14.9 31.0 8.8 C 24.9 2.8 15.1 2.8 9.0 8.8 C 3.0 14.9 3.0 24.7 9.0 30.8 C 15.1 36.8 24.9 36.8 31.0 30.8 Z M 31.0 30.8 " fill="#5A6378"></path><path d="M 26.5 4.5 C 32.6 10.6 32.6 20.4 26.5 26.5 C 20.4 32.6 10.6 32.6 4.5 26.5 C -1.5 20.4 -1.5 10.6 4.5 4.5 C 10.6 -1.5 20.4 -1.5 26.5 4.5 Z M 26.5 4.5 " fill="none" stroke="#F6F6F6" stroke-width="6.00" transform="matrix(1.00, 0.00, 0.00, -1.00, 4.5, 35.3)"></path></g></svg>