<?xml version="1.0" encoding="UTF-8" standalone="no"?><svg xmlns="http://www.w3.org/2000/svg" xmlns:xlink="http://www.w3.org/1999/xlink" clip-rule="evenodd" stroke-miterlimit="10" viewBox="0 0 737 51"><desc>SVG generated by Keynote</desc><defs></defs><g transform="matrix(1.00, 0.00, -0.00, -1.00, 0.0, 51.0)"><text xml:space="preserve" font-family="Helvetica,Helvetica" font-size="50.0" fill="#F6F6F6" transform="matrix(1.00, 0.00, -0.00, -1.00, 1.1, 13.2)">T</text><text xml:space="preserve" font-family="Helvetica,Helvetica" font-size="50.0" fill="#F6F6F6" transform="matrix(1.00, 0.00, -0.00, -1.00, 30.7, 13.2)"> </text><text xml:space="preserve" font-family="Helvetica,Helvetica" font-size="50.0" fill="#F6F6F6" transform="matrix(1.00, 0.00, -0.00, -1.00, 44.6, 13.2)">U</text><text xml:space="preserve" font-family="Helvetica,Helvetica" font-size="50.0" fill="#F6F6F6" transform="matrix(1.00, 0.00, -0.00, -1.00, 80.7, 13.2)"> </text><text xml:space="preserve" font-family="Helvetica,Helvetica" font-size="50.0" fill="#F6F6F6" transform="matrix(1.00, 0.00, -0.00, -1.00, 94.6, 13.2)">V</text><text xml:space="preserve" font-family="Helvetica,Helvetica" font-size="50.0" fill="#F6F6F6" transform="matrix(1.00, 0.00, -0.00, -1.00, 128.0, 13.2)"> </text><text xml:space="preserve" font-family="Helvetica,Helvetica" font-size="50.0" fill="#F6F6F6" transform="matrix(1.00, 0.00, -0.00, -1.00, 141.0, 13.2)">Y</text><text xml:space="preserve" font-family="Helvetica,Helvetica" font-size="50.0" fill="#F6F6F6" transform="matrix(1.00, 0.00, -0.00, -1.00, 173.5, 13.2)"> </text><text xml:space="preserve" font-family="Helvetica,Helvetica" font-size="50.0" fill="#F6F6F6" transform="matrix(1.00, 0.00, -0.00, -1.00, 187.3, 13.2)">Z</text><text xml:space="preserve" font-family="Helvetica,Helvetica" font-size="50.0" fill="#F6F6F6" transform="matrix(1.00, 0.00, -0.00, -1.00, 217.9, 13.2)"> </text><text xml:space="preserve" font-family="Helvetica,Helvetica" font-size="50.0" fill="#F6F6F6" transform="matrix(1.00, 0.00, -0.00, -1.00, 231.7, 13.2)">a</text><text xml:space="preserve" font-family="Helvetica,Helvetica" font-size="50.0" fill="#F6F6F6" transform="matrix(1.00, 0.00, -0.00, -1.00, 259.6, 13.2)"> </text><text xml:space="preserve" font-family="Helvetica,Helvetica" font-size="50.0" fill="#F6F6F6" transform="matrix(1.00, 0.00, -0.00, -1.00, 273.4, 13.2)">b</text><text xml:space="preserve" font-family="Helvetica,Helvetica" font-size="50.0" fill="#F6F6F6" transform="matrix(1.00, 0.00, -0.00, -1.00, 301.3, 13.2)"> </text><text xml:space="preserve" font-family="Helvetica,Helvetica" font-size="50.0" fill="#F6F6F6" transform="matrix(1.00, 0.00, -0.00, -1.00, 315.1, 13.2)">c</text><text xml:space="preserve" font-family="Helvetica,Helvetica" font-size="50.0" fill="#F6F6F6" transform="matrix(1.00, 0.00, -0.00, -1.00, 340.1, 13.2)"> </text><text xml:space="preserve" font-family="Helvetica,Helvetica" font-size="50.0" fill="#F6F6F6" transform="matrix(1.00, 0.00, -0.00, -1.00, 354.0, 13.2)">d</text><text xml:space="preserve" font-family="Helvetica,Helvetica" font-size="50.0" fill="#F6F6F6" transform="matrix(1.00, 0.00, -0.00, -1.00, 381.8, 13.2)"> </text><text xml:space="preserve" font-family="Helvetica,Helvetica" font-size="50.0" fill="#F6F6F6" transform="matrix(1.00, 0.00, -0.00, -1.00, 395.7, 13.2)">e</text><text xml:space="preserve" font-family="Helvetica,Helvetica" font-size="50.0" fill="#F6F6F6" transform="matrix(1.00, 0.00, -0.00, -1.00, 423.5, 13.2)"> </text><text xml:space="preserve" font-family="Helvetica,Helvetica" font-size="50.0" fill="#F6F6F6" transform="matrix(1.00, 0.00, -0.00, -1.00, 437.4, 13.2)">f</text><text xml:space="preserve" font-family="Helvetica,Helvetica" font-size="50.0" fill="#F6F6F6" transform="matrix(1.00, 0.00, -0.00, -1.00, 451.3, 13.2)"> </text><text xml:space="preserve" font-family="Helvetica,Helvetica" font-size="50.0" fill="#F6F6F6" transform="matrix(1.00, 0.00, -0.00, -1.00, 465.2, 13.2)">g</text><text xml:space="preserve" font-family="Helvetica,Helvetica" font-size="50.0" fill="#F6F6F6" transform="matrix(1.00, 0.00, -0.00, -1.00, 493.0, 13.2)"> </text><text xml:space="preserve" font-family="Helvetica,Helvetica" font-size="50.0" fill="#F6F6F6" transform="matrix(1.00, 0.00, -0.00, -1.00, 506.9, 13.2)">h</text><text xml:space="preserve" font-family="Helvetica,Helvetica" font-size="50.0" fill="#F6F6F6" transform="matrix(1.00, 0.00, -0.00, -1.00, 534.7, 13.2)"> </text><text xml:space="preserve" font-family="Helvetica,Helvetica" font-size="50.0" fill="#F6F6F6" transform="matrix(1.00, 0.00, -0.00, -1.00, 548.6, 13.2)">i</text><text xml:space="preserve" font-family="Helvetica,Helvetica" font-size="50.0" fill="#F6F6F6" transform="matrix(1.00, 0.00, -0.00, -1.00, 559.7, 13.2)"> </text><text xml:space="preserve" font-family="Helvetica,Helvetica" font-size="50.0" fill="#F6F6F6" transform="matrix(1.00, 0.00, -0.00, -1.00, 573.6, 13.2)">k</text><text xml:space="preserve" font-family="Helvetica,Helvetica" font-size="50.0" fill="#F6F6F6" transform="matrix(1.00, 0.00, -0.00, -1.00, 598.6, 13.2)"> </text><text xml:space="preserve" font-family="Helvetica,Helvetica" font-size="50.0" fill="#F6F6F6" transform="matrix(1.00, 0.00, -0.00, -1.00, 612.5, 13.2)">l</text><text xml:space="preserve" font-family="Helvetica,Helvetica" font-size="50.0" fill="#F6F6F6" transform="matrix(1.00, 0.00, -0.00, -1.00, 623.6, 13.2)"> </text><text xml:space="preserve" font-family="Helvetica,Helvetica" font-size="50.0" fill="#F6F6F6" transform="matrix(1.00, 0.00, -0.00, -1.00, 637.5, 13.2)">m</text><text xml:space="preserve" font-family="Helvetica,Helvetica" font-size="50.0" fill="#F6F6F6" transform="matrix(1.00, 0.00, -0.00, -1.00, 679.1, 13.2)"> </text><text xml:space="preserve" font-family="Helvetica,Helvetica" font-size="50.0" fill="#F6F6F6" transform="matrix(1.00, 0.00, -0.00, -1.00, 693.0, 13.2)">n</text><text xml:space="preserve" font-family="Helvetica,Helvetica" font-size="50.0" fill="#F6F6F6" transform="matrix(1.00, 0.00, -0.00, -1.00, 720.8, 13.2)"> </text><text xml:space="preserve" font-family="Helvetica,Helvetica" font-size="50.0" fill="#F6F6F6" transform="matrix(1.00, 0.00, -0.00, -1.00, 734.7, 13.2)"> </text></g></svg>