<?xml version="1.0" encoding="UTF-8" standalone="no"?><svg xmlns="http://www.w3.org/2000/svg" xmlns:xlink="http://www.w3.org/1999/xlink" clip-rule="evenodd" stroke-miterlimit="10" viewBox="0 0 829 42"><desc>SVG generated by Keynote</desc><defs></defs><g transform="matrix(1.00, 0.00, -0.00, -1.00, 0.0, 42.0)"><text xml:space="preserve" font-family="Helvetica,Helvetica" font-size="50.0" fill="#F6F6F6" transform="matrix(1.00, 0.00, -0.00, -1.00, 1.0, 2.8)">A</text><text xml:space="preserve" font-family="Helvetica,Helvetica" font-size="50.0" fill="#F6F6F6" transform="matrix(1.00, 0.00, -0.00, -1.00, 31.6, 2.8)"> </text><text xml:space="preserve" font-family="Helvetica,Helvetica" font-size="50.0" fill="#F6F6F6" transform="matrix(1.00, 0.00, -0.00, -1.00, 45.5, 2.8)">B</text><text xml:space="preserve" font-family="Helvetica,Helvetica" font-size="50.0" fill="#F6F6F6" transform="matrix(1.00, 0.00, -0.00, -1.00, 78.8, 2.8)"> </text><text xml:space="preserve" font-family="Helvetica,Helvetica" font-size="50.0" fill="#F6F6F6" transform="matrix(1.00, 0.00, -0.00, -1.00, 92.7, 2.8)">C</text><text xml:space="preserve" font-family="Helvetica,Helvetica" font-size="50.0" fill="#F6F6F6" transform="matrix(1.00, 0.00, -0.00, -1.00, 128.8, 2.8)"> </text><text xml:space="preserve" font-family="Helvetica,Helvetica" font-size="50.0" fill="#F6F6F6" transform="matrix(1.00, 0.00, -0.00, -1.00, 142.7, 2.8)">D</text><text xml:space="preserve" font-family="Helvetica,Helvetica" font-size="50.0" fill="#F6F6F6" transform="matrix(1.00, 0.00, -0.00, -1.00, 178.8, 2.8)"> </text><text xml:space="preserve" font-family="Helvetica,Helvetica" font-size="50.0" fill="#F6F6F6" transform="matrix(1.00, 0.00, -0.00, -1.00, 192.7, 2.8)">E</text><text xml:space="preserve" font-family="Helvetica,Helvetica" font-size="50.0" fill="#F6F6F6" transform="matrix(1.00, 0.00, -0.00, -1.00, 226.1, 2.8)"> </text><text xml:space="preserve" font-family="Helvetica,Helvetica" font-size="50.0" fill="#F6F6F6" transform="matrix(1.00, 0.00, -0.00, -1.00, 239.9, 2.8)">F</text><text xml:space="preserve" font-family="Helvetica,Helvetica" font-size="50.0" fill="#F6F6F6" transform="matrix(1.00, 0.00, -0.00, -1.00, 270.5, 2.8)"> </text><text xml:space="preserve" font-family="Helvetica,Helvetica" font-size="50.0" fill="#F6F6F6" transform="matrix(1.00, 0.00, -0.00, -1.00, 284.4, 2.8)">G</text><text xml:space="preserve" font-family="Helvetica,Helvetica" font-size="50.0" fill="#F6F6F6" transform="matrix(1.00, 0.00, -0.00, -1.00, 323.2, 2.8)"> </text><text xml:space="preserve" font-family="Helvetica,Helvetica" font-size="50.0" fill="#F6F6F6" transform="matrix(1.00, 0.00, -0.00, -1.00, 337.1, 2.8)">H</text><text xml:space="preserve" font-family="Helvetica,Helvetica" font-size="50.0" fill="#F6F6F6" transform="matrix(1.00, 0.00, -0.00, -1.00, 373.2, 2.8)"> </text><text xml:space="preserve" font-family="Helvetica,Helvetica" font-size="50.0" fill="#F6F6F6" transform="matrix(1.00, 0.00, -0.00, -1.00, 387.1, 2.8)">I</text><text xml:space="preserve" font-family="Helvetica,Helvetica" font-size="50.0" fill="#F6F6F6" transform="matrix(1.00, 0.00, -0.00, -1.00, 401.0, 2.8)"> </text><text xml:space="preserve" font-family="Helvetica,Helvetica" font-size="50.0" fill="#F6F6F6" transform="matrix(1.00, 0.00, -0.00, -1.00, 414.9, 2.8)">J</text><text xml:space="preserve" font-family="Helvetica,Helvetica" font-size="50.0" fill="#F6F6F6" transform="matrix(1.00, 0.00, -0.00, -1.00, 439.9, 2.8)"> </text><text xml:space="preserve" font-family="Helvetica,Helvetica" font-size="50.0" fill="#F6F6F6" transform="matrix(1.00, 0.00, -0.00, -1.00, 453.8, 2.8)">K</text><text xml:space="preserve" font-family="Helvetica,Helvetica" font-size="50.0" fill="#F6F6F6" transform="matrix(1.00, 0.00, -0.00, -1.00, 487.1, 2.8)"> </text><text xml:space="preserve" font-family="Helvetica,Helvetica" font-size="50.0" fill="#F6F6F6" transform="matrix(1.00, 0.00, -0.00, -1.00, 501.0, 2.8)">L</text><text xml:space="preserve" font-family="Helvetica,Helvetica" font-size="50.0" fill="#F6F6F6" transform="matrix(1.00, 0.00, -0.00, -1.00, 527.0, 2.8)"> </text><text xml:space="preserve" font-family="Helvetica,Helvetica" font-size="50.0" fill="#F6F6F6" transform="matrix(1.00, 0.00, -0.00, -1.00, 540.9, 2.8)">M</text><text xml:space="preserve" font-family="Helvetica,Helvetica" font-size="50.0" fill="#F6F6F6" transform="matrix(1.00, 0.00, -0.00, -1.00, 582.5, 2.8)"> </text><text xml:space="preserve" font-family="Helvetica,Helvetica" font-size="50.0" fill="#F6F6F6" transform="matrix(1.00, 0.00, -0.00, -1.00, 596.4, 2.8)">N</text><text xml:space="preserve" font-family="Helvetica,Helvetica" font-size="50.0" fill="#F6F6F6" transform="matrix(1.00, 0.00, -0.00, -1.00, 632.5, 2.8)"> </text><text xml:space="preserve" font-family="Helvetica,Helvetica" font-size="50.0" fill="#F6F6F6" transform="matrix(1.00, 0.00, -0.00, -1.00, 646.4, 2.8)">O</text><text xml:space="preserve" font-family="Helvetica,Helvetica" font-size="50.0" fill="#F6F6F6" transform="matrix(1.00, 0.00, -0.00, -1.00, 685.3, 2.8)"> </text><text xml:space="preserve" font-family="Helvetica,Helvetica" font-size="50.0" fill="#F6F6F6" transform="matrix(1.00, 0.00, -0.00, -1.00, 699.2, 2.8)">P</text><text xml:space="preserve" font-family="Helvetica,Helvetica" font-size="50.0" fill="#F6F6F6" transform="matrix(1.00, 0.00, -0.00, -1.00, 731.6, 2.8)"> </text><text xml:space="preserve" font-family="Helvetica,Helvetica" font-size="50.0" fill="#F6F6F6" transform="matrix(1.00, 0.00, -0.00, -1.00, 745.5, 2.8)">R</text><text xml:space="preserve" font-family="Helvetica,Helvetica" font-size="50.0" fill="#F6F6F6" transform="matrix(1.00, 0.00, -0.00, -1.00, 781.6, 2.8)"> </text><text xml:space="preserve" font-family="Helvetica,Helvetica" font-size="50.0" fill="#F6F6F6" transform="matrix(1.00, 0.00, -0.00, -1.00, 795.5, 2.8)">S</text></g></svg>