<?xml version="1.0" encoding="UTF-8" standalone="no"?><svg xmlns="http://www.w3.org/2000/svg" xmlns:xlink="http://www.w3.org/1999/xlink" clip-rule="evenodd" stroke-miterlimit="10" viewBox="0 0 437 56"><desc>SVG generated by Keynote</desc><defs></defs><g transform="matrix(1.00, 0.00, -0.00, -1.00, 0.0, 56.0)"><text xml:space="preserve" font-family="Helvetica,Helvetica" font-size="54.0" fill="#E2E2E2" transform="matrix(1.00, 0.00, -0.00, -1.00, -2.1, 13.7)">H</text><text xml:space="preserve" font-family="Helvetica,Helvetica" font-size="54.0" fill="#E2E2E2" transform="matrix(1.00, 0.00, -0.00, -1.00, 36.9, 13.7)">e</text><text xml:space="preserve" font-family="Helvetica,Helvetica" font-size="54.0" fill="#E2E2E2" transform="matrix(1.00, 0.00, -0.00, -1.00, 66.9, 13.7)">y</text><text xml:space="preserve" font-family="Helvetica,Helvetica" font-size="54.0" fill="#E2E2E2" transform="matrix(1.00, 0.00, -0.00, -1.00, 93.9, 13.7)">d</text><text xml:space="preserve" font-family="Helvetica,Helvetica" font-size="54.0" fill="#E2E2E2" transform="matrix(1.00, 0.00, -0.00, -1.00, 124.0, 13.7)">i</text><text xml:space="preserve" font-family="Helvetica,Helvetica" font-size="54.0" fill="#E2E2E2" transform="matrix(1.00, 0.00, -0.00, -1.00, 136.0, 13.7)">n</text><text xml:space="preserve" font-family="Helvetica,Helvetica" font-size="54.0" fill="#E2E2E2" transform="matrix(1.00, 0.00, -0.00, -1.00, 166.0, 13.7)">g</text><text xml:space="preserve" font-family="Helvetica,Helvetica" font-size="54.0" fill="#E2E2E2" transform="matrix(1.00, 0.00, -0.00, -1.00, 196.1, 13.7)">s</text><text xml:space="preserve" font-family="Helvetica,Helvetica" font-size="54.0" fill="#E2E2E2" transform="matrix(1.00, 0.00, -0.00, -1.00, 223.1, 13.7)"> </text><text xml:space="preserve" font-family="Helvetica,Helvetica" font-size="54.0" fill="#E2E2E2" transform="matrix(1.00, 0.00, -0.00, -1.00, 238.1, 13.7)">I</text><text xml:space="preserve" font-family="Helvetica,Helvetica" font-size="54.0" fill="#E2E2E2" transform="matrix(1.00, 0.00, -0.00, -1.00, 253.0, 13.7)">c</text><text xml:space="preserve" font-family="Helvetica,Helvetica" font-size="54.0" fill="#E2E2E2" transform="matrix(1.00, 0.00, -0.00, -1.00, 280.0, 13.7)">o</text><text xml:space="preserve" font-family="Helvetica,Helvetica" font-size="54.0" fill="#E2E2E2" transform="matrix(1.00, 0.00, -0.00, -1.00, 310.1, 13.7)">n</text><text xml:space="preserve" font-family="Helvetica,Helvetica" font-size="54.0" fill="#E2E2E2" transform="matrix(1.00, 0.00, -0.00, -1.00, 340.1, 13.7)"> </text><text xml:space="preserve" font-family="Helvetica,Helvetica" font-size="54.0" fill="#E2E2E2" transform="matrix(1.00, 0.00, -0.00, -1.00, 355.1, 13.7)">S</text><text xml:space="preserve" font-family="Helvetica,Helvetica" font-size="54.0" fill="#E2E2E2" transform="matrix(1.00, 0.00, -0.00, -1.00, 391.1, 13.7)">e</text><text xml:space="preserve" font-family="Helvetica,Helvetica" font-size="54.0" fill="#E2E2E2" transform="matrix(1.00, 0.00, -0.00, -1.00, 421.2, 13.7)">t</text></g></svg>