<?xml version="1.0" encoding="UTF-8" standalone="no"?><svg xmlns="http://www.w3.org/2000/svg" xmlns:xlink="http://www.w3.org/1999/xlink" clip-rule="evenodd" stroke-miterlimit="10" viewBox="0 0 678 52"><desc>SVG generated by Keynote</desc><defs></defs><g transform="matrix(1.00, 0.00, -0.00, -1.00, 0.0, 52.0)"><text xml:space="preserve" font-family="Helvetica,Helvetica" font-size="50.0" fill="#F6F6F6" transform="matrix(1.00, 0.00, -0.00, -1.00, 0.6, 12.5)">o</text><text xml:space="preserve" font-family="Helvetica,Helvetica" font-size="50.0" fill="#F6F6F6" transform="matrix(1.00, 0.00, -0.00, -1.00, 28.4, 12.5)"> </text><text xml:space="preserve" font-family="Helvetica,Helvetica" font-size="50.0" fill="#F6F6F6" transform="matrix(1.00, 0.00, -0.00, -1.00, 42.3, 12.5)">p</text><text xml:space="preserve" font-family="Helvetica,Helvetica" font-size="50.0" fill="#F6F6F6" transform="matrix(1.00, 0.00, -0.00, -1.00, 70.1, 12.5)"> </text><text xml:space="preserve" font-family="Helvetica,Helvetica" font-size="50.0" fill="#F6F6F6" transform="matrix(1.00, 0.00, -0.00, -1.00, 84.0, 12.5)">r</text><text xml:space="preserve" font-family="Helvetica,Helvetica" font-size="50.0" fill="#F6F6F6" transform="matrix(1.00, 0.00, -0.00, -1.00, 100.6, 12.5)"> </text><text xml:space="preserve" font-family="Helvetica,Helvetica" font-size="50.0" fill="#F6F6F6" transform="matrix(1.00, 0.00, -0.00, -1.00, 114.5, 12.5)">s</text><text xml:space="preserve" font-family="Helvetica,Helvetica" font-size="50.0" fill="#F6F6F6" transform="matrix(1.00, 0.00, -0.00, -1.00, 139.5, 12.5)"> </text><text xml:space="preserve" font-family="Helvetica,Helvetica" font-size="50.0" fill="#F6F6F6" transform="matrix(1.00, 0.00, -0.00, -1.00, 153.4, 12.5)">t</text><text xml:space="preserve" font-family="Helvetica,Helvetica" font-size="50.0" fill="#F6F6F6" transform="matrix(1.00, 0.00, -0.00, -1.00, 167.3, 12.5)"> </text><text xml:space="preserve" font-family="Helvetica,Helvetica" font-size="50.0" fill="#F6F6F6" transform="matrix(1.00, 0.00, -0.00, -1.00, 181.2, 12.5)">u</text><text xml:space="preserve" font-family="Helvetica,Helvetica" font-size="50.0" fill="#F6F6F6" transform="matrix(1.00, 0.00, -0.00, -1.00, 209.0, 12.5)"> </text><text xml:space="preserve" font-family="Helvetica,Helvetica" font-size="50.0" fill="#F6F6F6" transform="matrix(1.00, 0.00, -0.00, -1.00, 222.9, 12.5)">v</text><text xml:space="preserve" font-family="Helvetica,Helvetica" font-size="50.0" fill="#F6F6F6" transform="matrix(1.00, 0.00, -0.00, -1.00, 247.9, 12.5)"> </text><text xml:space="preserve" font-family="Helvetica,Helvetica" font-size="50.0" fill="#F6F6F6" transform="matrix(1.00, 0.00, -0.00, -1.00, 261.7, 12.5)">y</text><text xml:space="preserve" font-family="Helvetica,Helvetica" font-size="50.0" fill="#F6F6F6" transform="matrix(1.00, 0.00, -0.00, -1.00, 286.7, 12.5)"> </text><text xml:space="preserve" font-family="Helvetica,Helvetica" font-size="50.0" fill="#F6F6F6" transform="matrix(1.00, 0.00, -0.00, -1.00, 300.6, 12.5)">w</text><text xml:space="preserve" font-family="Helvetica,Helvetica" font-size="50.0" fill="#F6F6F6" transform="matrix(1.00, 0.00, -0.00, -1.00, 336.7, 12.5)"> </text><text xml:space="preserve" font-family="Helvetica,Helvetica" font-size="50.0" fill="#F6F6F6" transform="matrix(1.00, 0.00, -0.00, -1.00, 350.6, 12.5)">1</text><text xml:space="preserve" font-family="Helvetica,Helvetica" font-size="50.0" fill="#F6F6F6" transform="matrix(1.00, 0.00, -0.00, -1.00, 378.4, 12.5)"> </text><text xml:space="preserve" font-family="Helvetica,Helvetica" font-size="50.0" fill="#F6F6F6" transform="matrix(1.00, 0.00, -0.00, -1.00, 392.3, 12.5)">2</text><text xml:space="preserve" font-family="Helvetica,Helvetica" font-size="50.0" fill="#F6F6F6" transform="matrix(1.00, 0.00, -0.00, -1.00, 420.1, 12.5)"> </text><text xml:space="preserve" font-family="Helvetica,Helvetica" font-size="50.0" fill="#F6F6F6" transform="matrix(1.00, 0.00, -0.00, -1.00, 434.0, 12.5)">3</text><text xml:space="preserve" font-family="Helvetica,Helvetica" font-size="50.0" fill="#F6F6F6" transform="matrix(1.00, 0.00, -0.00, -1.00, 461.8, 12.5)"> </text><text xml:space="preserve" font-family="Helvetica,Helvetica" font-size="50.0" fill="#F6F6F6" transform="matrix(1.00, 0.00, -0.00, -1.00, 475.7, 12.5)">4</text><text xml:space="preserve" font-family="Helvetica,Helvetica" font-size="50.0" fill="#F6F6F6" transform="matrix(1.00, 0.00, -0.00, -1.00, 503.5, 12.5)"> </text><text xml:space="preserve" font-family="Helvetica,Helvetica" font-size="50.0" fill="#F6F6F6" transform="matrix(1.00, 0.00, -0.00, -1.00, 517.4, 12.5)">5</text><text xml:space="preserve" font-family="Helvetica,Helvetica" font-size="50.0" fill="#F6F6F6" transform="matrix(1.00, 0.00, -0.00, -1.00, 545.2, 12.5)"> </text><text xml:space="preserve" font-family="Helvetica,Helvetica" font-size="50.0" fill="#F6F6F6" transform="matrix(1.00, 0.00, -0.00, -1.00, 559.1, 12.5)">8</text><text xml:space="preserve" font-family="Helvetica,Helvetica" font-size="50.0" fill="#F6F6F6" transform="matrix(1.00, 0.00, -0.00, -1.00, 586.9, 12.5)"> </text><text xml:space="preserve" font-family="Helvetica,Helvetica" font-size="50.0" fill="#F6F6F6" transform="matrix(1.00, 0.00, -0.00, -1.00, 600.8, 12.5)">@</text><text xml:space="preserve" font-family="Helvetica,Helvetica" font-size="50.0" fill="#F6F6F6" transform="matrix(1.00, 0.00, -0.00, -1.00, 651.6, 12.5)"> </text><text xml:space="preserve" font-family="Helvetica,Helvetica" font-size="50.0" fill="#F6F6F6" transform="matrix(1.00, 0.00, -0.00, -1.00, 665.5, 12.5)">!</text></g></svg>