<?xml version="1.0" encoding="UTF-8" standalone="no"?><svg xmlns="http://www.w3.org/2000/svg" xmlns:xlink="http://www.w3.org/1999/xlink" clip-rule="evenodd" stroke-miterlimit="10" viewBox="0 0 781 208"><desc>SVG generated by Keynote</desc><defs></defs><g transform="matrix(1.00, 0.00, -0.00, -1.00, 0.0, 208.0)"><g><clipPath id="clip0x6180038a4200"><path d="M 1.0 151.6 L 115.2 151.6 L 115.2 207.2 L 1.0 207.2 Z M 1.0 151.6 "></path></clipPath><g clip-path="url(#clip0x6180038a4200)"><path d="M 17.0 206.0 C 15.5 206.2 14.0 205.0 14.0 203.4 L 14.0 189.9 L 2.0 179.9 L 14.0 169.9 L 14.0 155.3 C 14.0 153.8 15.5 153.0 17.0 153.0 L 111.5 153.0 C 113.0 153.0 114.0 153.8 114.0 155.3 L 114.0 203.4 C 114.0 205.0 113.0 206.0 111.5 206.0 L 17.0 206.0 Z M 17.0 206.2 " fill="#47AFC7"></path></g></g><g><clipPath id="clip0x6180038a49e0"><path d="M 110.6 151.6 L 471.6 151.6 L 471.6 207.2 L 110.6 207.2 Z M 110.6 151.6 "></path></clipPath><g clip-path="url(#clip0x6180038a49e0)"><path d="M 112.0 206.0 L 471.0 206.0 L 471.0 153.0 L 112.0 153.0 Z M 111.6 206.2 " fill="#54C6E1"></path></g></g><g><clipPath id="clip0x6180038a4c20"><path d="M 18.7 152.4 L 106.9 152.4 L 106.9 206.4 L 18.7 206.4 Z M 18.7 152.4 "></path></clipPath><g clip-path="url(#clip0x6180038a4c20)"><text xml:space="preserve" font-family="Helvetica,Helvetica" font-size="32.0" fill="#F6F6F6" transform="matrix(1.00, 0.00, -0.00, -1.00, 27.2, 167.8)">1</text><text xml:space="preserve" font-family="Helvetica,Helvetica" font-size="32.0" fill="#F6F6F6" transform="matrix(1.00, 0.00, -0.00, -1.00, 45.0, 167.8)">9</text><text xml:space="preserve" font-family="Helvetica,Helvetica" font-size="32.0" fill="#F6F6F6" transform="matrix(1.00, 0.00, -0.00, -1.00, 62.8, 167.8)">9</text><text xml:space="preserve" font-family="Helvetica,Helvetica" font-size="32.0" fill="#F6F6F6" transform="matrix(1.00, 0.00, -0.00, -1.00, 80.6, 167.8)">4</text></g></g><g><clipPath id="clip0x6180038a4f80"><path d="M 125.1 160.9 L 359.7 160.9 L 359.7 197.9 L 125.1 197.9 Z M 125.1 160.9 "></path></clipPath><g clip-path="url(#clip0x6180038a4f80)"><text xml:space="preserve" font-family="Helvetica,Helvetica" font-size="22.0" fill="#F6F6F6" transform="matrix(1.00, 0.00, -0.00, -1.00, 130.6, 171.5)">D</text><text xml:space="preserve" font-family="Helvetica,Helvetica" font-size="22.0" fill="#F6F6F6" transform="matrix(1.00, 0.00, -0.00, -1.00, 146.5, 171.5)">e</text><text xml:space="preserve" font-family="Helvetica,Helvetica" font-size="22.0" fill="#F6F6F6" transform="matrix(1.00, 0.00, -0.00, -1.00, 158.7, 171.5)">v</text><text xml:space="preserve" font-family="Helvetica,Helvetica" font-size="22.0" fill="#F6F6F6" transform="matrix(1.00, 0.00, -0.00, -1.00, 169.7, 171.5)">e</text><text xml:space="preserve" font-family="Helvetica,Helvetica" font-size="22.0" fill="#F6F6F6" transform="matrix(1.00, 0.00, -0.00, -1.00, 182.0, 171.5)">l</text><text xml:space="preserve" font-family="Helvetica,Helvetica" font-size="22.0" fill="#F6F6F6" transform="matrix(1.00, 0.00, -0.00, -1.00, 186.9, 171.5)">o</text><text xml:space="preserve" font-family="Helvetica,Helvetica" font-size="22.0" fill="#F6F6F6" transform="matrix(1.00, 0.00, -0.00, -1.00, 199.1, 171.5)">p</text><text xml:space="preserve" font-family="Helvetica,Helvetica" font-size="22.0" fill="#F6F6F6" transform="matrix(1.00, 0.00, -0.00, -1.00, 211.4, 171.5)">i</text><text xml:space="preserve" font-family="Helvetica,Helvetica" font-size="22.0" fill="#F6F6F6" transform="matrix(1.00, 0.00, -0.00, -1.00, 216.2, 171.5)">n</text><text xml:space="preserve" font-family="Helvetica,Helvetica" font-size="22.0" fill="#F6F6F6" transform="matrix(1.00, 0.00, -0.00, -1.00, 228.5, 171.5)">g</text><text xml:space="preserve" font-family="Helvetica,Helvetica" font-size="22.0" fill="#F6F6F6" transform="matrix(1.00, 0.00, -0.00, -1.00, 240.7, 171.5)"> </text><text xml:space="preserve" font-family="Helvetica,Helvetica" font-size="22.0" fill="#F6F6F6" transform="matrix(1.00, 0.00, -0.00, -1.00, 246.8, 171.5)">d</text><text xml:space="preserve" font-family="Helvetica,Helvetica" font-size="22.0" fill="#F6F6F6" transform="matrix(1.00, 0.00, -0.00, -1.00, 259.1, 171.5)">a</text><text xml:space="preserve" font-family="Helvetica,Helvetica" font-size="22.0" fill="#F6F6F6" transform="matrix(1.00, 0.00, -0.00, -1.00, 271.3, 171.5)">y</text><text xml:space="preserve" font-family="Helvetica,Helvetica" font-size="22.0" fill="#F6F6F6" transform="matrix(1.00, 0.00, -0.00, -1.00, 282.3, 171.5)"> </text><text xml:space="preserve" font-family="Helvetica,Helvetica" font-size="22.0" fill="#F6F6F6" transform="matrix(1.00, 0.00, -0.00, -1.00, 288.4, 171.5)">b</text><text xml:space="preserve" font-family="Helvetica,Helvetica" font-size="22.0" fill="#F6F6F6" transform="matrix(1.00, 0.00, -0.00, -1.00, 300.7, 171.5)">y</text><text xml:space="preserve" font-family="Helvetica,Helvetica" font-size="22.0" fill="#F6F6F6" transform="matrix(1.00, 0.00, -0.00, -1.00, 311.7, 171.5)"> </text><text xml:space="preserve" font-family="Helvetica,Helvetica" font-size="22.0" fill="#F6F6F6" transform="matrix(1.00, 0.00, -0.00, -1.00, 317.8, 171.5)">d</text><text xml:space="preserve" font-family="Helvetica,Helvetica" font-size="22.0" fill="#F6F6F6" transform="matrix(1.00, 0.00, -0.00, -1.00, 330.0, 171.5)">a</text><text xml:space="preserve" font-family="Helvetica,Helvetica" font-size="22.0" fill="#F6F6F6" transform="matrix(1.00, 0.00, -0.00, -1.00, 342.2, 171.5)">y</text></g></g><g><clipPath id="clip0x6180038a5940"><path d="M 14.8 0.9 L 369.1 0.9 L 369.1 130.9 L 14.8 130.9 Z M 14.8 0.9 "></path></clipPath><g clip-path="url(#clip0x6180038a5940)"><text xml:space="preserve" font-family="Helvetica,Helvetica" font-size="20.0" fill="#E2E2E2" transform="matrix(1.00, 0.00, -0.00, -1.00, 19.8, 106.5)">V</text><text xml:space="preserve" font-family="Helvetica,Helvetica" font-size="20.0" fill="#E2E2E2" transform="matrix(1.00, 0.00, -0.00, -1.00, 32.1, 106.5)">e</text><text xml:space="preserve" font-family="Helvetica,Helvetica" font-size="20.0" fill="#E2E2E2" transform="matrix(1.00, 0.00, -0.00, -1.00, 43.2, 106.5)">l</text><text xml:space="preserve" font-family="Helvetica,Helvetica" font-size="20.0" fill="#E2E2E2" transform="matrix(1.00, 0.00, -0.00, -1.00, 47.6, 106.5)"> </text><text xml:space="preserve" font-family="Helvetica,Helvetica" font-size="20.0" fill="#E2E2E2" transform="matrix(1.00, 0.00, -0.00, -1.00, 53.2, 106.5)">i</text><text xml:space="preserve" font-family="Helvetica,Helvetica" font-size="20.0" fill="#E2E2E2" transform="matrix(1.00, 0.00, -0.00, -1.00, 57.6, 106.5)">l</text><text xml:space="preserve" font-family="Helvetica,Helvetica" font-size="20.0" fill="#E2E2E2" transform="matrix(1.00, 0.00, -0.00, -1.00, 62.1, 106.5)">l</text><text xml:space="preserve" font-family="Helvetica,Helvetica" font-size="20.0" fill="#E2E2E2" transform="matrix(1.00, 0.00, -0.00, -1.00, 66.5, 106.5)">u</text><text xml:space="preserve" font-family="Helvetica,Helvetica" font-size="20.0" fill="#E2E2E2" transform="matrix(1.00, 0.00, -0.00, -1.00, 77.7, 106.5)">m</text><text xml:space="preserve" font-family="Helvetica,Helvetica" font-size="20.0" fill="#E2E2E2" transform="matrix(1.00, 0.00, -0.00, -1.00, 94.3, 106.5)"> </text><text xml:space="preserve" font-family="Helvetica,Helvetica" font-size="20.0" fill="#E2E2E2" transform="matrix(1.00, 0.00, -0.00, -1.00, 99.9, 106.5)">d</text><text xml:space="preserve" font-family="Helvetica,Helvetica" font-size="20.0" fill="#E2E2E2" transform="matrix(1.00, 0.00, -0.00, -1.00, 111.0, 106.5)">o</text><text xml:space="preserve" font-family="Helvetica,Helvetica" font-size="20.0" fill="#E2E2E2" transform="matrix(1.00, 0.00, -0.00, -1.00, 122.1, 106.5)">l</text><text xml:space="preserve" font-family="Helvetica,Helvetica" font-size="20.0" fill="#E2E2E2" transform="matrix(1.00, 0.00, -0.00, -1.00, 126.6, 106.5)">o</text><text xml:space="preserve" font-family="Helvetica,Helvetica" font-size="20.0" fill="#E2E2E2" transform="matrix(1.00, 0.00, -0.00, -1.00, 137.7, 106.5)">r</text><text xml:space="preserve" font-family="Helvetica,Helvetica" font-size="20.0" fill="#E2E2E2" transform="matrix(1.00, 0.00, -0.00, -1.00, 144.4, 106.5)">e</text><text xml:space="preserve" font-family="Helvetica,Helvetica" font-size="20.0" fill="#E2E2E2" transform="matrix(1.00, 0.00, -0.00, -1.00, 155.5, 106.5)"> </text><text xml:space="preserve" font-family="Helvetica,Helvetica" font-size="20.0" fill="#E2E2E2" transform="matrix(1.00, 0.00, -0.00, -1.00, 161.0, 106.5)">e</text><text xml:space="preserve" font-family="Helvetica,Helvetica" font-size="20.0" fill="#E2E2E2" transform="matrix(1.00, 0.00, -0.00, -1.00, 172.2, 106.5)">u</text><text xml:space="preserve" font-family="Helvetica,Helvetica" font-size="20.0" fill="#E2E2E2" transform="matrix(1.00, 0.00, -0.00, -1.00, 183.3, 106.5)"> </text><text xml:space="preserve" font-family="Helvetica,Helvetica" font-size="20.0" fill="#E2E2E2" transform="matrix(1.00, 0.00, -0.00, -1.00, 188.9, 106.5)">f</text><text xml:space="preserve" font-family="Helvetica,Helvetica" font-size="20.0" fill="#E2E2E2" transform="matrix(1.00, 0.00, -0.00, -1.00, 194.4, 106.5)">e</text><text xml:space="preserve" font-family="Helvetica,Helvetica" font-size="20.0" fill="#E2E2E2" transform="matrix(1.00, 0.00, -0.00, -1.00, 205.5, 106.5)">u</text><text xml:space="preserve" font-family="Helvetica,Helvetica" font-size="20.0" fill="#E2E2E2" transform="matrix(1.00, 0.00, -0.00, -1.00, 216.7, 106.5)">g</text><text xml:space="preserve" font-family="Helvetica,Helvetica" font-size="20.0" fill="#E2E2E2" transform="matrix(1.00, 0.00, -0.00, -1.00, 227.8, 106.5)">i</text><text xml:space="preserve" font-family="Helvetica,Helvetica" font-size="20.0" fill="#E2E2E2" transform="matrix(1.00, 0.00, -0.00, -1.00, 232.2, 106.5)">a</text><text xml:space="preserve" font-family="Helvetica,Helvetica" font-size="20.0" fill="#E2E2E2" transform="matrix(1.00, 0.00, -0.00, -1.00, 243.4, 106.5)">t</text><text xml:space="preserve" font-family="Helvetica,Helvetica" font-size="20.0" fill="#E2E2E2" transform="matrix(1.00, 0.00, -0.00, -1.00, 248.9, 106.5)"> </text><text xml:space="preserve" font-family="Helvetica,Helvetica" font-size="20.0" fill="#E2E2E2" transform="matrix(1.00, 0.00, -0.00, -1.00, 254.5, 106.5)">n</text><text xml:space="preserve" font-family="Helvetica,Helvetica" font-size="20.0" fill="#E2E2E2" transform="matrix(1.00, 0.00, -0.00, -1.00, 265.6, 106.5)">u</text><text xml:space="preserve" font-family="Helvetica,Helvetica" font-size="20.0" fill="#E2E2E2" transform="matrix(1.00, 0.00, -0.00, -1.00, 276.7, 106.5)">l</text><text xml:space="preserve" font-family="Helvetica,Helvetica" font-size="20.0" fill="#E2E2E2" transform="matrix(1.00, 0.00, -0.00, -1.00, 281.2, 106.5)">l</text><text xml:space="preserve" font-family="Helvetica,Helvetica" font-size="20.0" fill="#E2E2E2" transform="matrix(1.00, 0.00, -0.00, -1.00, 285.6, 106.5)">a</text><text xml:space="preserve" font-family="Helvetica,Helvetica" font-size="20.0" fill="#E2E2E2" transform="matrix(1.00, 0.00, -0.00, -1.00, 296.7, 106.5)"> </text><text xml:space="preserve" font-family="Helvetica,Helvetica" font-size="20.0" fill="#E2E2E2" transform="matrix(1.00, 0.00, -0.00, -1.00, 19.8, 82.5)">f</text><text xml:space="preserve" font-family="Helvetica,Helvetica" font-size="20.0" fill="#E2E2E2" transform="matrix(1.00, 0.00, -0.00, -1.00, 25.4, 82.5)">a</text><text xml:space="preserve" font-family="Helvetica,Helvetica" font-size="20.0" fill="#E2E2E2" transform="matrix(1.00, 0.00, -0.00, -1.00, 36.5, 82.5)">c</text><text xml:space="preserve" font-family="Helvetica,Helvetica" font-size="20.0" fill="#E2E2E2" transform="matrix(1.00, 0.00, -0.00, -1.00, 46.5, 82.5)">i</text><text xml:space="preserve" font-family="Helvetica,Helvetica" font-size="20.0" fill="#E2E2E2" transform="matrix(1.00, 0.00, -0.00, -1.00, 50.9, 82.5)">l</text><text xml:space="preserve" font-family="Helvetica,Helvetica" font-size="20.0" fill="#E2E2E2" transform="matrix(1.00, 0.00, -0.00, -1.00, 55.4, 82.5)">i</text><text xml:space="preserve" font-family="Helvetica,Helvetica" font-size="20.0" fill="#E2E2E2" transform="matrix(1.00, 0.00, -0.00, -1.00, 59.8, 82.5)">s</text><text xml:space="preserve" font-family="Helvetica,Helvetica" font-size="20.0" fill="#E2E2E2" transform="matrix(1.00, 0.00, -0.00, -1.00, 69.8, 82.5)">i</text><text xml:space="preserve" font-family="Helvetica,Helvetica" font-size="20.0" fill="#E2E2E2" transform="matrix(1.00, 0.00, -0.00, -1.00, 74.3, 82.5)">s</text><text xml:space="preserve" font-family="Helvetica,Helvetica" font-size="20.0" fill="#E2E2E2" transform="matrix(1.00, 0.00, -0.00, -1.00, 84.3, 82.5)"> </text><text xml:space="preserve" font-family="Helvetica,Helvetica" font-size="20.0" fill="#E2E2E2" transform="matrix(1.00, 0.00, -0.00, -1.00, 89.8, 82.5)">a</text><text xml:space="preserve" font-family="Helvetica,Helvetica" font-size="20.0" fill="#E2E2E2" transform="matrix(1.00, 0.00, -0.00, -1.00, 101.0, 82.5)">t</text><text xml:space="preserve" font-family="Helvetica,Helvetica" font-size="20.0" fill="#E2E2E2" transform="matrix(1.00, 0.00, -0.00, -1.00, 106.5, 82.5)"> </text><text xml:space="preserve" font-family="Helvetica,Helvetica" font-size="20.0" fill="#E2E2E2" transform="matrix(1.00, 0.00, -0.00, -1.00, 112.1, 82.5)">v</text><text xml:space="preserve" font-family="Helvetica,Helvetica" font-size="20.0" fill="#E2E2E2" transform="matrix(1.00, 0.00, -0.00, -1.00, 122.1, 82.5)">e</text><text xml:space="preserve" font-family="Helvetica,Helvetica" font-size="20.0" fill="#E2E2E2" transform="matrix(1.00, 0.00, -0.00, -1.00, 133.2, 82.5)">r</text><text xml:space="preserve" font-family="Helvetica,Helvetica" font-size="20.0" fill="#E2E2E2" transform="matrix(1.00, 0.00, -0.00, -1.00, 139.9, 82.5)">o</text><text xml:space="preserve" font-family="Helvetica,Helvetica" font-size="20.0" fill="#E2E2E2" transform="matrix(1.00, 0.00, -0.00, -1.00, 151.0, 82.5)"> </text><text xml:space="preserve" font-family="Helvetica,Helvetica" font-size="20.0" fill="#E2E2E2" transform="matrix(1.00, 0.00, -0.00, -1.00, 156.5, 82.5)">e</text><text xml:space="preserve" font-family="Helvetica,Helvetica" font-size="20.0" fill="#E2E2E2" transform="matrix(1.00, 0.00, -0.00, -1.00, 167.7, 82.5)">r</text><text xml:space="preserve" font-family="Helvetica,Helvetica" font-size="20.0" fill="#E2E2E2" transform="matrix(1.00, 0.00, -0.00, -1.00, 174.3, 82.5)">o</text><text xml:space="preserve" font-family="Helvetica,Helvetica" font-size="20.0" fill="#E2E2E2" transform="matrix(1.00, 0.00, -0.00, -1.00, 185.5, 82.5)">s</text><text xml:space="preserve" font-family="Helvetica,Helvetica" font-size="20.0" fill="#E2E2E2" transform="matrix(1.00, 0.00, -0.00, -1.00, 195.5, 82.5)"> </text><text xml:space="preserve" font-family="Helvetica,Helvetica" font-size="20.0" fill="#E2E2E2" transform="matrix(1.00, 0.00, -0.00, -1.00, 201.0, 82.5)">e</text><text xml:space="preserve" font-family="Helvetica,Helvetica" font-size="20.0" fill="#E2E2E2" transform="matrix(1.00, 0.00, -0.00, -1.00, 212.1, 82.5)">t</text><text xml:space="preserve" font-family="Helvetica,Helvetica" font-size="20.0" fill="#E2E2E2" transform="matrix(1.00, 0.00, -0.00, -1.00, 217.7, 82.5)"> </text><text xml:space="preserve" font-family="Helvetica,Helvetica" font-size="20.0" fill="#E2E2E2" transform="matrix(1.00, 0.00, -0.00, -1.00, 223.2, 82.5)">a</text><text xml:space="preserve" font-family="Helvetica,Helvetica" font-size="20.0" fill="#E2E2E2" transform="matrix(1.00, 0.00, -0.00, -1.00, 234.4, 82.5)">c</text><text xml:space="preserve" font-family="Helvetica,Helvetica" font-size="20.0" fill="#E2E2E2" transform="matrix(1.00, 0.00, -0.00, -1.00, 244.4, 82.5)">c</text><text xml:space="preserve" font-family="Helvetica,Helvetica" font-size="20.0" fill="#E2E2E2" transform="matrix(1.00, 0.00, -0.00, -1.00, 254.4, 82.5)">u</text><text xml:space="preserve" font-family="Helvetica,Helvetica" font-size="20.0" fill="#E2E2E2" transform="matrix(1.00, 0.00, -0.00, -1.00, 265.5, 82.5)">m</text><text xml:space="preserve" font-family="Helvetica,Helvetica" font-size="20.0" fill="#E2E2E2" transform="matrix(1.00, 0.00, -0.00, -1.00, 282.2, 82.5)">s</text><text xml:space="preserve" font-family="Helvetica,Helvetica" font-size="20.0" fill="#E2E2E2" transform="matrix(1.00, 0.00, -0.00, -1.00, 292.2, 82.5)">a</text><text xml:space="preserve" font-family="Helvetica,Helvetica" font-size="20.0" fill="#E2E2E2" transform="matrix(1.00, 0.00, -0.00, -1.00, 303.3, 82.5)">n</text><text xml:space="preserve" font-family="Helvetica,Helvetica" font-size="20.0" fill="#E2E2E2" transform="matrix(1.00, 0.00, -0.00, -1.00, 314.4, 82.5)"> </text><text xml:space="preserve" font-family="Helvetica,Helvetica" font-size="20.0" fill="#E2E2E2" transform="matrix(1.00, 0.00, -0.00, -1.00, 320.0, 82.5)">e</text><text xml:space="preserve" font-family="Helvetica,Helvetica" font-size="20.0" fill="#E2E2E2" transform="matrix(1.00, 0.00, -0.00, -1.00, 331.1, 82.5)">t</text><text xml:space="preserve" font-family="Helvetica,Helvetica" font-size="20.0" fill="#E2E2E2" transform="matrix(1.00, 0.00, -0.00, -1.00, 336.6, 82.5)"> </text><text xml:space="preserve" font-family="Helvetica,Helvetica" font-size="20.0" fill="#E2E2E2" transform="matrix(1.00, 0.00, -0.00, -1.00, 19.8, 58.5)">i</text><text xml:space="preserve" font-family="Helvetica,Helvetica" font-size="20.0" fill="#E2E2E2" transform="matrix(1.00, 0.00, -0.00, -1.00, 24.3, 58.5)">u</text><text xml:space="preserve" font-family="Helvetica,Helvetica" font-size="20.0" fill="#E2E2E2" transform="matrix(1.00, 0.00, -0.00, -1.00, 35.4, 58.5)">s</text><text xml:space="preserve" font-family="Helvetica,Helvetica" font-size="20.0" fill="#E2E2E2" transform="matrix(1.00, 0.00, -0.00, -1.00, 45.4, 58.5)">t</text><text xml:space="preserve" font-family="Helvetica,Helvetica" font-size="20.0" fill="#E2E2E2" transform="matrix(1.00, 0.00, -0.00, -1.00, 50.9, 58.5)">o</text><text xml:space="preserve" font-family="Helvetica,Helvetica" font-size="20.0" fill="#E2E2E2" transform="matrix(1.00, 0.00, -0.00, -1.00, 62.1, 58.5)"> </text><text xml:space="preserve" font-family="Helvetica,Helvetica" font-size="20.0" fill="#E2E2E2" transform="matrix(1.00, 0.00, -0.00, -1.00, 67.6, 58.5)">o</text><text xml:space="preserve" font-family="Helvetica,Helvetica" font-size="20.0" fill="#E2E2E2" transform="matrix(1.00, 0.00, -0.00, -1.00, 78.8, 58.5)">d</text><text xml:space="preserve" font-family="Helvetica,Helvetica" font-size="20.0" fill="#E2E2E2" transform="matrix(1.00, 0.00, -0.00, -1.00, 89.9, 58.5)">i</text><text xml:space="preserve" font-family="Helvetica,Helvetica" font-size="20.0" fill="#E2E2E2" transform="matrix(1.00, 0.00, -0.00, -1.00, 94.3, 58.5)">o</text><text xml:space="preserve" font-family="Helvetica,Helvetica" font-size="20.0" fill="#E2E2E2" transform="matrix(1.00, 0.00, -0.00, -1.00, 105.5, 58.5)"> </text><text xml:space="preserve" font-family="Helvetica,Helvetica" font-size="20.0" fill="#E2E2E2" transform="matrix(1.00, 0.00, -0.00, -1.00, 111.0, 58.5)">d</text><text xml:space="preserve" font-family="Helvetica,Helvetica" font-size="20.0" fill="#E2E2E2" transform="matrix(1.00, 0.00, -0.00, -1.00, 122.1, 58.5)">i</text><text xml:space="preserve" font-family="Helvetica,Helvetica" font-size="20.0" fill="#E2E2E2" transform="matrix(1.00, 0.00, -0.00, -1.00, 126.6, 58.5)">g</text><text xml:space="preserve" font-family="Helvetica,Helvetica" font-size="20.0" fill="#E2E2E2" transform="matrix(1.00, 0.00, -0.00, -1.00, 137.7, 58.5)">n</text><text xml:space="preserve" font-family="Helvetica,Helvetica" font-size="20.0" fill="#E2E2E2" transform="matrix(1.00, 0.00, -0.00, -1.00, 148.8, 58.5)">i</text><text xml:space="preserve" font-family="Helvetica,Helvetica" font-size="20.0" fill="#E2E2E2" transform="matrix(1.00, 0.00, -0.00, -1.00, 153.3, 58.5)">s</text><text xml:space="preserve" font-family="Helvetica,Helvetica" font-size="20.0" fill="#E2E2E2" transform="matrix(1.00, 0.00, -0.00, -1.00, 163.3, 58.5)">s</text><text xml:space="preserve" font-family="Helvetica,Helvetica" font-size="20.0" fill="#E2E2E2" transform="matrix(1.00, 0.00, -0.00, -1.00, 173.3, 58.5)">i</text><text xml:space="preserve" font-family="Helvetica,Helvetica" font-size="20.0" fill="#E2E2E2" transform="matrix(1.00, 0.00, -0.00, -1.00, 177.7, 58.5)">m</text><text xml:space="preserve" font-family="Helvetica,Helvetica" font-size="20.0" fill="#E2E2E2" transform="matrix(1.00, 0.00, -0.00, -1.00, 194.4, 58.5)"> </text><text xml:space="preserve" font-family="Helvetica,Helvetica" font-size="20.0" fill="#E2E2E2" transform="matrix(1.00, 0.00, -0.00, -1.00, 199.9, 58.5)">q</text><text xml:space="preserve" font-family="Helvetica,Helvetica" font-size="20.0" fill="#E2E2E2" transform="matrix(1.00, 0.00, -0.00, -1.00, 211.1, 58.5)">u</text><text xml:space="preserve" font-family="Helvetica,Helvetica" font-size="20.0" fill="#E2E2E2" transform="matrix(1.00, 0.00, -0.00, -1.00, 222.2, 58.5)">i</text><text xml:space="preserve" font-family="Helvetica,Helvetica" font-size="20.0" fill="#E2E2E2" transform="matrix(1.00, 0.00, -0.00, -1.00, 226.6, 58.5)"> </text><text xml:space="preserve" font-family="Helvetica,Helvetica" font-size="20.0" fill="#E2E2E2" transform="matrix(1.00, 0.00, -0.00, -1.00, 232.2, 58.5)">b</text><text xml:space="preserve" font-family="Helvetica,Helvetica" font-size="20.0" fill="#E2E2E2" transform="matrix(1.00, 0.00, -0.00, -1.00, 243.3, 58.5)">l</text><text xml:space="preserve" font-family="Helvetica,Helvetica" font-size="20.0" fill="#E2E2E2" transform="matrix(1.00, 0.00, -0.00, -1.00, 247.8, 58.5)">a</text><text xml:space="preserve" font-family="Helvetica,Helvetica" font-size="20.0" fill="#E2E2E2" transform="matrix(1.00, 0.00, -0.00, -1.00, 258.9, 58.5)">n</text><text xml:space="preserve" font-family="Helvetica,Helvetica" font-size="20.0" fill="#E2E2E2" transform="matrix(1.00, 0.00, -0.00, -1.00, 270.0, 58.5)">d</text><text xml:space="preserve" font-family="Helvetica,Helvetica" font-size="20.0" fill="#E2E2E2" transform="matrix(1.00, 0.00, -0.00, -1.00, 281.2, 58.5)">i</text><text xml:space="preserve" font-family="Helvetica,Helvetica" font-size="20.0" fill="#E2E2E2" transform="matrix(1.00, 0.00, -0.00, -1.00, 285.6, 58.5)">t</text><text xml:space="preserve" font-family="Helvetica,Helvetica" font-size="20.0" fill="#E2E2E2" transform="matrix(1.00, 0.00, -0.00, -1.00, 291.2, 58.5)"> </text><text xml:space="preserve" font-family="Helvetica,Helvetica" font-size="20.0" fill="#E2E2E2" transform="matrix(1.00, 0.00, -0.00, -1.00, 19.8, 34.5)">p</text><text xml:space="preserve" font-family="Helvetica,Helvetica" font-size="20.0" fill="#E2E2E2" transform="matrix(1.00, 0.00, -0.00, -1.00, 30.9, 34.5)">r</text><text xml:space="preserve" font-family="Helvetica,Helvetica" font-size="20.0" fill="#E2E2E2" transform="matrix(1.00, 0.00, -0.00, -1.00, 37.6, 34.5)">a</text><text xml:space="preserve" font-family="Helvetica,Helvetica" font-size="20.0" fill="#E2E2E2" transform="matrix(1.00, 0.00, -0.00, -1.00, 48.7, 34.5)">e</text><text xml:space="preserve" font-family="Helvetica,Helvetica" font-size="20.0" fill="#E2E2E2" transform="matrix(1.00, 0.00, -0.00, -1.00, 59.9, 34.5)">s</text><text xml:space="preserve" font-family="Helvetica,Helvetica" font-size="20.0" fill="#E2E2E2" transform="matrix(1.00, 0.00, -0.00, -1.00, 69.9, 34.5)">e</text><text xml:space="preserve" font-family="Helvetica,Helvetica" font-size="20.0" fill="#E2E2E2" transform="matrix(1.00, 0.00, -0.00, -1.00, 81.0, 34.5)">n</text><text xml:space="preserve" font-family="Helvetica,Helvetica" font-size="20.0" fill="#E2E2E2" transform="matrix(1.00, 0.00, -0.00, -1.00, 92.1, 34.5)">t</text><text xml:space="preserve" font-family="Helvetica,Helvetica" font-size="20.0" fill="#E2E2E2" transform="matrix(1.00, 0.00, -0.00, -1.00, 97.7, 34.5)"> </text><text xml:space="preserve" font-family="Helvetica,Helvetica" font-size="20.0" fill="#E2E2E2" transform="matrix(1.00, 0.00, -0.00, -1.00, 103.2, 34.5)">l</text><text xml:space="preserve" font-family="Helvetica,Helvetica" font-size="20.0" fill="#E2E2E2" transform="matrix(1.00, 0.00, -0.00, -1.00, 107.7, 34.5)">u</text><text xml:space="preserve" font-family="Helvetica,Helvetica" font-size="20.0" fill="#E2E2E2" transform="matrix(1.00, 0.00, -0.00, -1.00, 118.8, 34.5)">p</text><text xml:space="preserve" font-family="Helvetica,Helvetica" font-size="20.0" fill="#E2E2E2" transform="matrix(1.00, 0.00, -0.00, -1.00, 129.9, 34.5)">t</text><text xml:space="preserve" font-family="Helvetica,Helvetica" font-size="20.0" fill="#E2E2E2" transform="matrix(1.00, 0.00, -0.00, -1.00, 135.5, 34.5)">a</text><text xml:space="preserve" font-family="Helvetica,Helvetica" font-size="20.0" fill="#E2E2E2" transform="matrix(1.00, 0.00, -0.00, -1.00, 146.6, 34.5)">t</text><text xml:space="preserve" font-family="Helvetica,Helvetica" font-size="20.0" fill="#E2E2E2" transform="matrix(1.00, 0.00, -0.00, -1.00, 152.2, 34.5)">u</text><text xml:space="preserve" font-family="Helvetica,Helvetica" font-size="20.0" fill="#E2E2E2" transform="matrix(1.00, 0.00, -0.00, -1.00, 163.3, 34.5)">m</text><text xml:space="preserve" font-family="Helvetica,Helvetica" font-size="20.0" fill="#E2E2E2" transform="matrix(1.00, 0.00, -0.00, -1.00, 179.9, 34.5)"> </text><text xml:space="preserve" font-family="Helvetica,Helvetica" font-size="20.0" fill="#E2E2E2" transform="matrix(1.00, 0.00, -0.00, -1.00, 185.5, 34.5)">z</text><text xml:space="preserve" font-family="Helvetica,Helvetica" font-size="20.0" fill="#E2E2E2" transform="matrix(1.00, 0.00, -0.00, -1.00, 195.5, 34.5)">z</text><text xml:space="preserve" font-family="Helvetica,Helvetica" font-size="20.0" fill="#E2E2E2" transform="matrix(1.00, 0.00, -0.00, -1.00, 205.5, 34.5)">r</text><text xml:space="preserve" font-family="Helvetica,Helvetica" font-size="20.0" fill="#E2E2E2" transform="matrix(1.00, 0.00, -0.00, -1.00, 212.2, 34.5)">i</text><text xml:space="preserve" font-family="Helvetica,Helvetica" font-size="20.0" fill="#E2E2E2" transform="matrix(1.00, 0.00, -0.00, -1.00, 216.6, 34.5)">l</text><text xml:space="preserve" font-family="Helvetica,Helvetica" font-size="20.0" fill="#E2E2E2" transform="matrix(1.00, 0.00, -0.00, -1.00, 221.1, 34.5)"> </text><text xml:space="preserve" font-family="Helvetica,Helvetica" font-size="20.0" fill="#E2E2E2" transform="matrix(1.00, 0.00, -0.00, -1.00, 226.6, 34.5)">d</text><text xml:space="preserve" font-family="Helvetica,Helvetica" font-size="20.0" fill="#E2E2E2" transform="matrix(1.00, 0.00, -0.00, -1.00, 237.7, 34.5)">e</text><text xml:space="preserve" font-family="Helvetica,Helvetica" font-size="20.0" fill="#E2E2E2" transform="matrix(1.00, 0.00, -0.00, -1.00, 248.9, 34.5)">l</text><text xml:space="preserve" font-family="Helvetica,Helvetica" font-size="20.0" fill="#E2E2E2" transform="matrix(1.00, 0.00, -0.00, -1.00, 253.3, 34.5)">e</text><text xml:space="preserve" font-family="Helvetica,Helvetica" font-size="20.0" fill="#E2E2E2" transform="matrix(1.00, 0.00, -0.00, -1.00, 264.4, 34.5)">n</text><text xml:space="preserve" font-family="Helvetica,Helvetica" font-size="20.0" fill="#E2E2E2" transform="matrix(1.00, 0.00, -0.00, -1.00, 275.6, 34.5)">i</text><text xml:space="preserve" font-family="Helvetica,Helvetica" font-size="20.0" fill="#E2E2E2" transform="matrix(1.00, 0.00, -0.00, -1.00, 280.0, 34.5)">t</text><text xml:space="preserve" font-family="Helvetica,Helvetica" font-size="20.0" fill="#E2E2E2" transform="matrix(1.00, 0.00, -0.00, -1.00, 285.6, 34.5)"> </text><text xml:space="preserve" font-family="Helvetica,Helvetica" font-size="20.0" fill="#E2E2E2" transform="matrix(1.00, 0.00, -0.00, -1.00, 291.1, 34.5)">a</text><text xml:space="preserve" font-family="Helvetica,Helvetica" font-size="20.0" fill="#E2E2E2" transform="matrix(1.00, 0.00, -0.00, -1.00, 302.2, 34.5)">u</text><text xml:space="preserve" font-family="Helvetica,Helvetica" font-size="20.0" fill="#E2E2E2" transform="matrix(1.00, 0.00, -0.00, -1.00, 313.4, 34.5)">g</text><text xml:space="preserve" font-family="Helvetica,Helvetica" font-size="20.0" fill="#E2E2E2" transform="matrix(1.00, 0.00, -0.00, -1.00, 324.5, 34.5)">u</text><text xml:space="preserve" font-family="Helvetica,Helvetica" font-size="20.0" fill="#E2E2E2" transform="matrix(1.00, 0.00, -0.00, -1.00, 335.6, 34.5)">e</text><text xml:space="preserve" font-family="Helvetica,Helvetica" font-size="20.0" fill="#E2E2E2" transform="matrix(1.00, 0.00, -0.00, -1.00, 346.7, 34.5)"> </text><text xml:space="preserve" font-family="Helvetica,Helvetica" font-size="20.0" fill="#E2E2E2" transform="matrix(1.00, 0.00, -0.00, -1.00, 19.8, 10.5)">d</text><text xml:space="preserve" font-family="Helvetica,Helvetica" font-size="20.0" fill="#E2E2E2" transform="matrix(1.00, 0.00, -0.00, -1.00, 30.9, 10.5)">u</text><text xml:space="preserve" font-family="Helvetica,Helvetica" font-size="20.0" fill="#E2E2E2" transform="matrix(1.00, 0.00, -0.00, -1.00, 42.1, 10.5)">i</text><text xml:space="preserve" font-family="Helvetica,Helvetica" font-size="20.0" fill="#E2E2E2" transform="matrix(1.00, 0.00, -0.00, -1.00, 46.5, 10.5)">s</text><text xml:space="preserve" font-family="Helvetica,Helvetica" font-size="20.0" fill="#E2E2E2" transform="matrix(1.00, 0.00, -0.00, -1.00, 56.5, 10.5)"> </text><text xml:space="preserve" font-family="Helvetica,Helvetica" font-size="20.0" fill="#E2E2E2" transform="matrix(1.00, 0.00, -0.00, -1.00, 62.1, 10.5)">d</text><text xml:space="preserve" font-family="Helvetica,Helvetica" font-size="20.0" fill="#E2E2E2" transform="matrix(1.00, 0.00, -0.00, -1.00, 73.2, 10.5)">o</text><text xml:space="preserve" font-family="Helvetica,Helvetica" font-size="20.0" fill="#E2E2E2" transform="matrix(1.00, 0.00, -0.00, -1.00, 84.3, 10.5)">l</text><text xml:space="preserve" font-family="Helvetica,Helvetica" font-size="20.0" fill="#E2E2E2" transform="matrix(1.00, 0.00, -0.00, -1.00, 88.8, 10.5)">o</text><text xml:space="preserve" font-family="Helvetica,Helvetica" font-size="20.0" fill="#E2E2E2" transform="matrix(1.00, 0.00, -0.00, -1.00, 99.9, 10.5)">r</text><text xml:space="preserve" font-family="Helvetica,Helvetica" font-size="20.0" fill="#E2E2E2" transform="matrix(1.00, 0.00, -0.00, -1.00, 106.6, 10.5)">e</text></g></g><g><clipPath id="clip0x6180038a94e0"><path d="M 362.4 -9.2 L 496.0 -9.2 L 496.0 175.5 L 362.4 175.5 Z M 362.4 -9.2 "></path></clipPath><g clip-path="url(#clip0x6180038a94e0)"><text xml:space="preserve" font-family="Sosa-Regular,Sosa" font-size="80.0" fill="#E2E2E2" transform="matrix(1.00, 0.00, -0.00, -1.00, 393.3, 57.6)">n</text><text xml:space="preserve" font-family="Sosa-Regular,Sosa" font-size="80.0" fill="#E2E2E2" transform="matrix(1.00, 0.00, -0.00, -1.00, 473.3, 57.6)"> </text><text xml:space="preserve" font-family="Sosa-Regular,Sosa" font-size="120.0" fill="#E2E2E2" transform="matrix(1.00, 0.00, -0.00, -1.00, 490.4, 57.6)"> </text><text xml:space="preserve" font-family="Sosa-Regular,Sosa" font-size="120.0" fill="#E2E2E2" transform="matrix(1.00, 0.00, -0.00, -1.00, 516.0, 57.6)"> </text></g></g><g><clipPath id="clip0x6180038a9840"><path d="M 528.9 10.8 L 776.4 10.8 L 776.4 202.3 L 528.9 202.3 Z M 528.9 10.8 "></path></clipPath><g clip-path="url(#clip0x6180038a9840)"><path d="M 530.0 201.0 L 775.0 201.0 L 775.0 12.0 L 530.0 12.0 Z M 529.9 201.3 " fill="#677188"></path></g></g><g><clipPath id="clip0x6180038a9a80"><path d="M 528.9 11.8 L 776.4 11.8 L 776.4 201.3 L 528.9 201.3 Z M 528.9 11.8 "></path></clipPath><g clip-path="url(#clip0x6180038a9a80)"><text xml:space="preserve" font-family="Helvetica-Light,Helvetica" font-size="20.0" fill="#FEFFFE" transform="matrix(1.00, 0.00, -0.00, -1.00, 546.0, 98.9)">I</text><text xml:space="preserve" font-family="Helvetica-Light,Helvetica" font-size="20.0" fill="#FEFFFE" transform="matrix(1.00, 0.00, -0.00, -1.00, 551.5, 98.9)">M</text><text xml:space="preserve" font-family="Helvetica-Light,Helvetica" font-size="20.0" fill="#FEFFFE" transform="matrix(1.00, 0.00, -0.00, -1.00, 568.2, 98.9)">A</text><text xml:space="preserve" font-family="Helvetica-Light,Helvetica" font-size="20.0" fill="#FEFFFE" transform="matrix(1.00, 0.00, -0.00, -1.00, 581.5, 98.9)">G</text><text xml:space="preserve" font-family="Helvetica-Light,Helvetica" font-size="20.0" fill="#FEFFFE" transform="matrix(1.00, 0.00, -0.00, -1.00, 597.1, 98.9)">E</text><text xml:space="preserve" font-family="Helvetica-Light,Helvetica" font-size="20.0" fill="#FEFFFE" transform="matrix(1.00, 0.00, -0.00, -1.00, 609.3, 98.9)"> </text><text xml:space="preserve" font-family="Helvetica-Light,Helvetica" font-size="20.0" fill="#FEFFFE" transform="matrix(1.00, 0.00, -0.00, -1.00, 614.9, 98.9)">P</text><text xml:space="preserve" font-family="Helvetica-Light,Helvetica" font-size="20.0" fill="#FEFFFE" transform="matrix(1.00, 0.00, -0.00, -1.00, 627.1, 98.9)">L</text><text xml:space="preserve" font-family="Helvetica-Light,Helvetica" font-size="20.0" fill="#FEFFFE" transform="matrix(1.00, 0.00, -0.00, -1.00, 638.2, 98.9)">A</text><text xml:space="preserve" font-family="Helvetica-Light,Helvetica" font-size="20.0" fill="#FEFFFE" transform="matrix(1.00, 0.00, -0.00, -1.00, 651.6, 98.9)">C</text><text xml:space="preserve" font-family="Helvetica-Light,Helvetica" font-size="20.0" fill="#FEFFFE" transform="matrix(1.00, 0.00, -0.00, -1.00, 666.0, 98.9)">E</text><text xml:space="preserve" font-family="Helvetica-Light,Helvetica" font-size="20.0" fill="#FEFFFE" transform="matrix(1.00, 0.00, -0.00, -1.00, 678.2, 98.9)">H</text><text xml:space="preserve" font-family="Helvetica-Light,Helvetica" font-size="20.0" fill="#FEFFFE" transform="matrix(1.00, 0.00, -0.00, -1.00, 692.7, 98.9)">O</text><text xml:space="preserve" font-family="Helvetica-Light,Helvetica" font-size="20.0" fill="#FEFFFE" transform="matrix(1.00, 0.00, -0.00, -1.00, 708.2, 98.9)">L</text><text xml:space="preserve" font-family="Helvetica-Light,Helvetica" font-size="20.0" fill="#FEFFFE" transform="matrix(1.00, 0.00, -0.00, -1.00, 719.3, 98.9)">D</text><text xml:space="preserve" font-family="Helvetica-Light,Helvetica" font-size="20.0" fill="#FEFFFE" transform="matrix(1.00, 0.00, -0.00, -1.00, 733.8, 98.9)">E</text><text xml:space="preserve" font-family="Helvetica-Light,Helvetica" font-size="20.0" fill="#FEFFFE" transform="matrix(1.00, 0.00, -0.00, -1.00, 746.0, 98.9)">R</text></g></g><g><clipPath id="clip0x6180038aa2c0"><path d="M 525.0 6.3 L 780.3 6.3 L 780.3 206.9 L 525.0 206.9 Z M 525.0 6.3 "></path></clipPath><g clip-path="url(#clip0x6180038aa2c0)"><path d="M 0.0 -0.1 L 251.0 -0.1 L 251.0 196.9 L 0.0 196.9 Z M 0.0 0.0 " fill="none" stroke="#677188" stroke-width="2.00" transform="matrix(1.00, 0.00, 0.00, -1.00, 527.0, 204.9)"></path></g></g></g></svg>