<?xml version="1.0" encoding="UTF-8" standalone="no"?><svg xmlns="http://www.w3.org/2000/svg" xmlns:xlink="http://www.w3.org/1999/xlink" clip-rule="evenodd" stroke-miterlimit="10" viewBox="0 0 27 28"><desc>SVG generated by Keynote</desc><defs></defs><g transform="matrix(1.00, 0.00, -0.00, -1.00, 0.0, 28.0)"><g><clipPath id="clip0x600007ea62a0"><path d="M 7.1 7.9 L 19.2 7.9 L 19.2 20.0 L 7.1 20.0 Z M 7.1 7.9 "></path></clipPath><g clip-path="url(#clip0x600007ea62a0)"><path d="M 16.7 17.6 C 18.7 15.6 18.7 12.4 16.7 10.4 C 14.8 8.4 11.5 8.4 9.6 10.4 C 7.6 12.4 7.6 15.6 9.6 17.6 C 11.5 19.5 14.8 19.5 16.7 17.6 Z M 16.7 17.6 " fill="#62D7AD"></path></g></g><g><clipPath id="clip0x600007ea6480"><path d="M 0.0 0.8 L 26.3 0.8 L 26.3 27.1 L 0.0 27.1 Z M 0.0 0.8 "></path></clipPath><g clip-path="url(#clip0x600007ea6480)"><path d="M 19.9 3.4 C 24.4 8.0 24.4 15.3 19.9 19.9 C 15.3 24.4 8.0 24.4 3.4 19.9 C -1.1 15.3 -1.1 8.0 3.4 3.4 C 8.0 -1.1 15.3 -1.1 19.9 3.4 Z M 19.9 3.4 " fill="none" stroke="#62D7AD" stroke-width="1.00" transform="matrix(1.00, 0.00, 0.00, -1.00, 1.5, 25.6)"></path></g></g></g></svg>