<?xml version="1.0" encoding="UTF-8" standalone="no"?><svg xmlns="http://www.w3.org/2000/svg" xmlns:xlink="http://www.w3.org/1999/xlink" clip-rule="evenodd" stroke-miterlimit="10" viewBox="0 0 283 311"><desc>SVG generated by Keynote</desc><defs></defs><g transform="matrix(1.00, 0.00, -0.00, -1.00, 0.0, 311.0)"><g><clipPath id="clip0x600007cbbf60"><path d="M 30.6 89.3 L 251.6 89.3 L 251.6 310.3 L 30.6 310.3 Z M 30.6 89.3 "></path></clipPath><g clip-path="url(#clip0x600007cbbf60)"><path d="M 31.0 310.0 L 252.0 310.0 L 252.0 89.0 L 31.0 89.0 Z M 31.0 310.0 " fill="#000000" fill-opacity="0.00"></path></g></g><g><clipPath id="clip0x600007cbc200"><path d="M 30.6 89.3 L 251.6 89.3 L 251.6 310.3 L 30.6 310.3 Z M 30.6 89.3 "></path></clipPath><g clip-path="url(#clip0x600007cbc200)"><g><g><clipPath id="clip0x600007cbc3e0"><path d="M 30.0 89.0 L 252.0 89.0 L 252.0 311.0 L 30.0 311.0 Z M 30.0 89.0 "></path></clipPath><g clip-path="url(#clip0x600007cbc3e0)"><g><g><clipPath id="clip0x600007cbc5c0"><path d="M 30.0 89.0 L 252.0 89.0 L 252.0 311.0 L 30.0 311.0 Z M 30.0 89.0 "></path></clipPath><g clip-path="url(#clip0x600007cbc5c0)"><path d="M 141.0 200.0 L 248.2 224.7 C 237.5 271.2 198.1 305.4 150.6 309.6 Z M 141.0 200.0 " fill="#CB485F"></path></g></g></g></g></g><g><clipPath id="clip0x600007cbc800"><path d="M 30.0 89.0 L 252.0 89.0 L 252.0 311.0 L 30.0 311.0 Z M 30.0 89.0 "></path></clipPath><g clip-path="url(#clip0x600007cbc800)"><g><g><clipPath id="clip0x600007cbc9e0"><path d="M 30.0 89.0 L 252.0 89.0 L 252.0 311.0 L 30.0 311.0 Z M 30.0 89.0 "></path></clipPath><g clip-path="url(#clip0x600007cbc9e0)"><path d="M 141.0 200.0 L 150.6 309.6 C 90.1 314.9 36.7 270.1 31.4 209.6 C 26.1 149.1 70.9 95.7 131.4 90.4 C 191.9 85.1 245.3 129.9 250.6 190.4 C 251.6 201.9 250.8 213.5 248.2 224.7 Z M 141.0 200.0 " fill="#FF607B"></path></g></g></g></g></g></g></g></g><g><clipPath id="clip0x600007cbcc20"><path d="M 48.7 107.2 L 233.8 107.2 L 233.8 292.2 L 48.7 292.2 Z M 48.7 107.2 "></path></clipPath><g clip-path="url(#clip0x600007cbcc20)"><path d="M 206.0 264.4 C 241.7 228.7 241.7 170.7 206.0 135.0 C 170.2 99.2 112.2 99.2 76.5 135.0 C 40.7 170.7 40.7 228.7 76.5 264.4 C 112.2 300.2 170.2 300.2 206.0 264.4 Z M 206.0 264.4 " fill="#5A6378"></path></g></g><g><clipPath id="clip0x600007cbce60"><path d="M 95.3 153.3 L 187.1 153.3 L 187.1 246.1 L 95.3 246.1 Z M 95.3 153.3 "></path></clipPath><g clip-path="url(#clip0x600007cbce60)"><text xml:space="preserve" font-family="Sosa-Regular,Sosa" font-size="60.0" fill="#E2E2E2" transform="matrix(1.00, 0.00, -0.00, -1.00, 111.2, 186.7)">5</text></g></g><g><clipPath id="clip0x600007cbd0a0"><path d="M 12.8 35.7 L 269.6 35.7 L 269.6 79.7 L 12.8 79.7 Z M 12.8 35.7 "></path></clipPath><g clip-path="url(#clip0x600007cbd0a0)"><text xml:space="preserve" font-family="Helvetica,Helvetica" font-size="26.0" fill="#E2E2E2" transform="matrix(1.00, 0.00, -0.00, -1.00, 58.9, 48.1)">S</text><text xml:space="preserve" font-family="Helvetica,Helvetica" font-size="26.0" fill="#E2E2E2" transform="matrix(1.00, 0.00, -0.00, -1.00, 76.2, 48.1)">m</text><text xml:space="preserve" font-family="Helvetica,Helvetica" font-size="26.0" fill="#E2E2E2" transform="matrix(1.00, 0.00, -0.00, -1.00, 97.9, 48.1)">a</text><text xml:space="preserve" font-family="Helvetica,Helvetica" font-size="26.0" fill="#E2E2E2" transform="matrix(1.00, 0.00, -0.00, -1.00, 112.3, 48.1)">r</text><text xml:space="preserve" font-family="Helvetica,Helvetica" font-size="26.0" fill="#E2E2E2" transform="matrix(1.00, 0.00, -0.00, -1.00, 121.0, 48.1)">t</text><text xml:space="preserve" font-family="Helvetica,Helvetica" font-size="26.0" fill="#E2E2E2" transform="matrix(1.00, 0.00, -0.00, -1.00, 128.2, 48.1)"> </text><text xml:space="preserve" font-family="Helvetica,Helvetica" font-size="26.0" fill="#E2E2E2" transform="matrix(1.00, 0.00, -0.00, -1.00, 135.4, 48.1)">P</text><text xml:space="preserve" font-family="Helvetica,Helvetica" font-size="26.0" fill="#E2E2E2" transform="matrix(1.00, 0.00, -0.00, -1.00, 152.8, 48.1)">h</text><text xml:space="preserve" font-family="Helvetica,Helvetica" font-size="26.0" fill="#E2E2E2" transform="matrix(1.00, 0.00, -0.00, -1.00, 167.2, 48.1)">o</text><text xml:space="preserve" font-family="Helvetica,Helvetica" font-size="26.0" fill="#E2E2E2" transform="matrix(1.00, 0.00, -0.00, -1.00, 181.7, 48.1)">n</text><text xml:space="preserve" font-family="Helvetica,Helvetica" font-size="26.0" fill="#E2E2E2" transform="matrix(1.00, 0.00, -0.00, -1.00, 196.1, 48.1)">e</text><text xml:space="preserve" font-family="Helvetica,Helvetica" font-size="26.0" fill="#E2E2E2" transform="matrix(1.00, 0.00, -0.00, -1.00, 210.6, 48.1)">s</text></g></g><g><clipPath id="clip0x600007cbd700"><path d="M -0.1 0.4 L 282.6 0.4 L 282.6 37.4 L -0.1 37.4 Z M -0.1 0.4 "></path></clipPath><g clip-path="url(#clip0x600007cbd700)"><text xml:space="preserve" font-family="Helvetica,Helvetica" font-size="22.0" fill="#E2E2E2" transform="matrix(1.00, 0.00, -0.00, -1.00, 14.7, 11.0)">L</text><text xml:space="preserve" font-family="Helvetica,Helvetica" font-size="22.0" fill="#E2E2E2" transform="matrix(1.00, 0.00, -0.00, -1.00, 26.9, 11.0)">o</text><text xml:space="preserve" font-family="Helvetica,Helvetica" font-size="22.0" fill="#E2E2E2" transform="matrix(1.00, 0.00, -0.00, -1.00, 39.2, 11.0)">r</text><text xml:space="preserve" font-family="Helvetica,Helvetica" font-size="22.0" fill="#E2E2E2" transform="matrix(1.00, 0.00, -0.00, -1.00, 46.5, 11.0)">e</text><text xml:space="preserve" font-family="Helvetica,Helvetica" font-size="22.0" fill="#E2E2E2" transform="matrix(1.00, 0.00, -0.00, -1.00, 58.7, 11.0)">m</text><text xml:space="preserve" font-family="Helvetica,Helvetica" font-size="22.0" fill="#E2E2E2" transform="matrix(1.00, 0.00, -0.00, -1.00, 77.1, 11.0)"> </text><text xml:space="preserve" font-family="Helvetica,Helvetica" font-size="22.0" fill="#E2E2E2" transform="matrix(1.00, 0.00, -0.00, -1.00, 83.2, 11.0)">i</text><text xml:space="preserve" font-family="Helvetica,Helvetica" font-size="22.0" fill="#E2E2E2" transform="matrix(1.00, 0.00, -0.00, -1.00, 88.1, 11.0)">p</text><text xml:space="preserve" font-family="Helvetica,Helvetica" font-size="22.0" fill="#E2E2E2" transform="matrix(1.00, 0.00, -0.00, -1.00, 100.3, 11.0)">s</text><text xml:space="preserve" font-family="Helvetica,Helvetica" font-size="22.0" fill="#E2E2E2" transform="matrix(1.00, 0.00, -0.00, -1.00, 111.3, 11.0)">m</text><text xml:space="preserve" font-family="Helvetica,Helvetica" font-size="22.0" fill="#E2E2E2" transform="matrix(1.00, 0.00, -0.00, -1.00, 129.6, 11.0)"> </text><text xml:space="preserve" font-family="Helvetica,Helvetica" font-size="22.0" fill="#E2E2E2" transform="matrix(1.00, 0.00, -0.00, -1.00, 135.7, 11.0)">d</text><text xml:space="preserve" font-family="Helvetica,Helvetica" font-size="22.0" fill="#E2E2E2" transform="matrix(1.00, 0.00, -0.00, -1.00, 148.0, 11.0)">o</text><text xml:space="preserve" font-family="Helvetica,Helvetica" font-size="22.0" fill="#E2E2E2" transform="matrix(1.00, 0.00, -0.00, -1.00, 160.2, 11.0)">l</text><text xml:space="preserve" font-family="Helvetica,Helvetica" font-size="22.0" fill="#E2E2E2" transform="matrix(1.00, 0.00, -0.00, -1.00, 165.1, 11.0)">o</text><text xml:space="preserve" font-family="Helvetica,Helvetica" font-size="22.0" fill="#E2E2E2" transform="matrix(1.00, 0.00, -0.00, -1.00, 177.3, 11.0)">r</text><text xml:space="preserve" font-family="Helvetica,Helvetica" font-size="22.0" fill="#E2E2E2" transform="matrix(1.00, 0.00, -0.00, -1.00, 184.7, 11.0)"> </text><text xml:space="preserve" font-family="Helvetica,Helvetica" font-size="22.0" fill="#E2E2E2" transform="matrix(1.00, 0.00, -0.00, -1.00, 190.8, 11.0)">s</text><text xml:space="preserve" font-family="Helvetica,Helvetica" font-size="22.0" fill="#E2E2E2" transform="matrix(1.00, 0.00, -0.00, -1.00, 201.8, 11.0)">i</text><text xml:space="preserve" font-family="Helvetica,Helvetica" font-size="22.0" fill="#E2E2E2" transform="matrix(1.00, 0.00, -0.00, -1.00, 206.7, 11.0)">t</text><text xml:space="preserve" font-family="Helvetica,Helvetica" font-size="22.0" fill="#E2E2E2" transform="matrix(1.00, 0.00, -0.00, -1.00, 212.8, 11.0)"> </text><text xml:space="preserve" font-family="Helvetica,Helvetica" font-size="22.0" fill="#E2E2E2" transform="matrix(1.00, 0.00, -0.00, -1.00, 218.9, 11.0)">a</text><text xml:space="preserve" font-family="Helvetica,Helvetica" font-size="22.0" fill="#E2E2E2" transform="matrix(1.00, 0.00, -0.00, -1.00, 231.1, 11.0)">m</text><text xml:space="preserve" font-family="Helvetica,Helvetica" font-size="22.0" fill="#E2E2E2" transform="matrix(1.00, 0.00, -0.00, -1.00, 249.4, 11.0)">e</text><text xml:space="preserve" font-family="Helvetica,Helvetica" font-size="22.0" fill="#E2E2E2" transform="matrix(1.00, 0.00, -0.00, -1.00, 261.7, 11.0)">t</text></g></g></g></svg>