<?xml version="1.0" encoding="UTF-8" standalone="no"?><svg xmlns="http://www.w3.org/2000/svg" xmlns:xlink="http://www.w3.org/1999/xlink" clip-rule="evenodd" stroke-miterlimit="10" viewBox="0 0 28 28"><desc>SVG generated by Keynote</desc><defs></defs><g transform="matrix(1.00, 0.00, -0.00, -1.00, 0.0, 28.0)"><g><clipPath id="clip0x6080068b9e00"><path d="M 7.9 7.9 L 20.0 7.9 L 20.0 20.1 L 7.9 20.1 Z M 7.9 7.9 "></path></clipPath><g clip-path="url(#clip0x6080068b9e00)"><path d="M 17.5 17.6 C 19.5 15.6 19.5 12.4 17.5 10.4 C 15.6 8.4 12.3 8.4 10.4 10.4 C 8.4 12.4 8.4 15.6 10.4 17.6 C 12.3 19.6 15.6 19.6 17.5 17.6 Z M 17.5 17.6 " fill="#62D7AD"></path></g></g><g><clipPath id="clip0x6080068b9fe0"><path d="M 0.8 0.9 L 27.1 0.9 L 27.1 27.1 L 0.8 27.1 Z M 0.8 0.9 "></path></clipPath><g clip-path="url(#clip0x6080068b9fe0)"><path d="M 19.9 3.4 C 24.4 8.0 24.4 15.3 19.9 19.9 C 15.3 24.4 8.0 24.4 3.4 19.9 C -1.1 15.3 -1.1 8.0 3.4 3.4 C 8.0 -1.1 15.3 -1.1 19.9 3.4 Z M 19.9 3.4 " fill="none" stroke="#62D7AD" stroke-width="1.00" transform="matrix(1.00, 0.00, 0.00, -1.00, 2.3, 25.6)"></path></g></g></g></svg>