<?xml version="1.0" encoding="UTF-8" standalone="no"?><svg xmlns="http://www.w3.org/2000/svg" xmlns:xlink="http://www.w3.org/1999/xlink" clip-rule="evenodd" stroke-miterlimit="10" viewBox="0 0 27 27"><desc>SVG generated by Keynote</desc><defs></defs><g transform="matrix(1.00, 0.00, -0.00, -1.00, 0.0, 27.0)"><g><clipPath id="clip0x6100076be3c0"><path d="M 7.7 7.5 L 19.8 7.5 L 19.8 19.7 L 7.7 19.7 Z M 7.7 7.5 "></path></clipPath><g clip-path="url(#clip0x6100076be3c0)"><path d="M 17.4 17.2 C 19.3 15.2 19.3 12.0 17.4 10.0 C 15.4 8.0 12.2 8.0 10.2 10.0 C 8.2 12.0 8.2 15.2 10.2 17.2 C 12.2 19.2 15.4 19.2 17.4 17.2 Z M 17.4 17.2 " fill="#62D7AD"></path></g></g><g><clipPath id="clip0x6100076be600"><path d="M 0.6 0.4 L 26.9 0.4 L 26.9 26.7 L 0.6 26.7 Z M 0.6 0.4 "></path></clipPath><g clip-path="url(#clip0x6100076be600)"><path d="M 19.9 3.4 C 24.4 8.0 24.4 15.3 19.9 19.9 C 15.3 24.4 8.0 24.4 3.4 19.9 C -1.1 15.3 -1.1 8.0 3.4 3.4 C 8.0 -1.1 15.3 -1.1 19.9 3.4 Z M 19.9 3.4 " fill="none" stroke="#62D7AD" stroke-width="1.00" transform="matrix(1.00, 0.00, 0.00, -1.00, 2.1, 25.2)"></path></g></g></g></svg>