<?xml version="1.0" encoding="UTF-8" standalone="no"?><svg xmlns="http://www.w3.org/2000/svg" xmlns:xlink="http://www.w3.org/1999/xlink" clip-rule="evenodd" stroke-miterlimit="10" viewBox="0 0 27 28"><desc>SVG generated by Keynote</desc><defs></defs><g transform="matrix(1.00, 0.00, -0.00, -1.00, 0.0, 28.0)"><g><clipPath id="clip0x600007ea50a0"><path d="M 7.5 8.0 L 19.7 8.0 L 19.7 20.1 L 7.5 20.1 Z M 7.5 8.0 "></path></clipPath><g clip-path="url(#clip0x600007ea50a0)"><path d="M 17.2 17.7 C 19.2 15.7 19.2 12.5 17.2 10.5 C 15.2 8.5 12.0 8.5 10.0 10.5 C 8.0 12.5 8.0 15.7 10.0 17.7 C 12.0 19.6 15.2 19.6 17.2 17.7 Z M 17.2 17.7 " fill="#FF607B"></path></g></g><g><clipPath id="clip0x600007ea5280"><path d="M 0.5 0.9 L 26.8 0.9 L 26.8 27.2 L 0.5 27.2 Z M 0.5 0.9 "></path></clipPath><g clip-path="url(#clip0x600007ea5280)"><path d="M 19.9 3.4 C 24.4 8.0 24.4 15.3 19.9 19.9 C 15.3 24.4 8.0 24.4 3.4 19.9 C -1.1 15.3 -1.1 8.0 3.4 3.4 C 8.0 -1.1 15.3 -1.1 19.9 3.4 Z M 19.9 3.4 " fill="none" stroke="#FF607B" stroke-width="1.00" transform="matrix(1.00, 0.00, 0.00, -1.00, 2.0, 25.7)"></path></g></g></g></svg>