<?xml version="1.0" encoding="UTF-8" standalone="no"?><svg xmlns="http://www.w3.org/2000/svg" xmlns:xlink="http://www.w3.org/1999/xlink" clip-rule="evenodd" stroke-miterlimit="10" viewBox="0 0 27 27"><desc>SVG generated by Keynote</desc><defs></defs><g transform="matrix(1.00, 0.00, -0.00, -1.00, 0.0, 27.0)"><g><clipPath id="clip0x600007ea77a0"><path d="M 7.4 7.2 L 19.5 7.2 L 19.5 19.3 L 7.4 19.3 Z M 7.4 7.2 "></path></clipPath><g clip-path="url(#clip0x600007ea77a0)"><path d="M 17.0 16.9 C 19.0 14.9 19.0 11.7 17.0 9.7 C 15.1 7.7 11.8 7.7 9.9 9.7 C 7.9 11.7 7.9 14.9 9.9 16.9 C 11.8 18.8 15.1 18.8 17.0 16.9 Z M 17.0 16.9 " fill="#EDC25F"></path></g></g><g><clipPath id="clip0x600007ea7980"><path d="M 0.3 0.1 L 26.6 0.1 L 26.6 26.4 L 0.3 26.4 Z M 0.3 0.1 "></path></clipPath><g clip-path="url(#clip0x600007ea7980)"><path d="M 19.9 3.4 C 24.4 8.0 24.4 15.3 19.9 19.9 C 15.3 24.4 8.0 24.4 3.4 19.9 C -1.1 15.3 -1.1 8.0 3.4 3.4 C 8.0 -1.1 15.3 -1.1 19.9 3.4 Z M 19.9 3.4 " fill="none" stroke="#EDC25F" stroke-width="1.00" transform="matrix(1.00, 0.00, 0.00, -1.00, 1.8, 24.9)"></path></g></g></g></svg>