<?xml version="1.0" encoding="UTF-8" standalone="no"?><svg xmlns="http://www.w3.org/2000/svg" xmlns:xlink="http://www.w3.org/1999/xlink" clip-rule="evenodd" stroke-miterlimit="10" viewBox="0 0 27 27"><desc>SVG generated by Keynote</desc><defs></defs><g transform="matrix(1.00, 0.00, -0.00, -1.00, 0.0, 27.0)"><g><clipPath id="clip0x600007ea80a0"><path d="M 7.4 7.4 L 19.6 7.4 L 19.6 19.6 L 7.4 19.6 Z M 7.4 7.4 "></path></clipPath><g clip-path="url(#clip0x600007ea80a0)"><path d="M 17.1 17.1 C 19.1 15.1 19.1 11.9 17.1 9.9 C 15.1 7.9 11.9 7.9 9.9 9.9 C 7.9 11.9 7.9 15.1 9.9 17.1 C 11.9 19.1 15.1 19.1 17.1 17.1 Z M 17.1 17.1 " fill="#EDC25F"></path></g></g><g><clipPath id="clip0x600007ea8280"><path d="M 0.4 0.3 L 26.6 0.3 L 26.6 26.6 L 0.4 26.6 Z M 0.4 0.3 "></path></clipPath><g clip-path="url(#clip0x600007ea8280)"><path d="M 19.9 3.4 C 24.4 8.0 24.4 15.3 19.9 19.9 C 15.3 24.4 8.0 24.4 3.4 19.9 C -1.1 15.3 -1.1 8.0 3.4 3.4 C 8.0 -1.1 15.3 -1.1 19.9 3.4 Z M 19.9 3.4 " fill="none" stroke="#EDC25F" stroke-width="1.00" transform="matrix(1.00, 0.00, 0.00, -1.00, 1.9, 25.1)"></path></g></g></g></svg>