<?xml version="1.0" encoding="UTF-8" standalone="no"?><svg xmlns="http://www.w3.org/2000/svg" xmlns:xlink="http://www.w3.org/1999/xlink" clip-rule="evenodd" stroke-miterlimit="10" viewBox="0 0 27 28"><desc>SVG generated by Keynote</desc><defs></defs><g transform="matrix(1.00, 0.00, -0.00, -1.00, 0.0, 28.0)"><g><clipPath id="clip0x600007ea47a0"><path d="M 7.5 8.0 L 19.6 8.0 L 19.6 20.1 L 7.5 20.1 Z M 7.5 8.0 "></path></clipPath><g clip-path="url(#clip0x600007ea47a0)"><path d="M 17.1 17.6 C 19.1 15.6 19.1 12.4 17.1 10.4 C 15.1 8.5 11.9 8.5 9.9 10.4 C 8.0 12.4 8.0 15.6 9.9 17.6 C 11.9 19.6 15.1 19.6 17.1 17.6 Z M 17.1 17.6 " fill="#54C6E1"></path></g></g><g><clipPath id="clip0x600007ea4980"><path d="M 0.4 0.9 L 26.7 0.9 L 26.7 27.2 L 0.4 27.2 Z M 0.4 0.9 "></path></clipPath><g clip-path="url(#clip0x600007ea4980)"><path d="M 19.9 3.4 C 24.4 8.0 24.4 15.3 19.9 19.9 C 15.3 24.4 8.0 24.4 3.4 19.9 C -1.1 15.3 -1.1 8.0 3.4 3.4 C 8.0 -1.1 15.3 -1.1 19.9 3.4 Z M 19.9 3.4 " fill="none" stroke="#54C6E1" stroke-width="1.00" transform="matrix(1.00, 0.00, 0.00, -1.00, 1.9, 25.7)"></path></g></g></g></svg>