<?xml version="1.0" encoding="UTF-8" standalone="no"?><svg xmlns="http://www.w3.org/2000/svg" xmlns:xlink="http://www.w3.org/1999/xlink" clip-rule="evenodd" stroke-miterlimit="10" viewBox="0 0 28 27"><desc>SVG generated by Keynote</desc><defs></defs><g transform="matrix(1.00, 0.00, -0.00, -1.00, 0.0, 27.0)"><g><clipPath id="clip0x6100076bde20"><path d="M 8.0 7.4 L 20.2 7.4 L 20.2 19.6 L 8.0 19.6 Z M 8.0 7.4 "></path></clipPath><g clip-path="url(#clip0x6100076bde20)"><path d="M 17.7 17.1 C 19.7 15.1 19.7 11.9 17.7 9.9 C 15.7 7.9 12.5 7.9 10.5 9.9 C 8.5 11.9 8.5 15.1 10.5 17.1 C 12.5 19.1 15.7 19.1 17.7 17.1 Z M 17.7 17.1 " fill="#62D7AD"></path></g></g><g><clipPath id="clip0x6100076be000"><path d="M 1.0 0.3 L 27.2 0.3 L 27.2 26.6 L 1.0 26.6 Z M 1.0 0.3 "></path></clipPath><g clip-path="url(#clip0x6100076be000)"><path d="M 19.9 3.4 C 24.4 8.0 24.4 15.3 19.9 19.9 C 15.3 24.4 8.0 24.4 3.4 19.9 C -1.1 15.3 -1.1 8.0 3.4 3.4 C 8.0 -1.1 15.3 -1.1 19.9 3.4 Z M 19.9 3.4 " fill="none" stroke="#62D7AD" stroke-width="1.00" transform="matrix(1.00, 0.00, 0.00, -1.00, 2.5, 25.1)"></path></g></g></g></svg>