<?xml version="1.0" encoding="UTF-8" standalone="no"?><svg xmlns="http://www.w3.org/2000/svg" xmlns:xlink="http://www.w3.org/1999/xlink" clip-rule="evenodd" stroke-miterlimit="10" viewBox="0 0 283 311"><desc>SVG generated by Keynote</desc><defs></defs><g transform="matrix(1.00, 0.00, -0.00, -1.00, 0.0, 311.0)"><g><clipPath id="clip0x600007ea0a80"><path d="M 30.6 89.3 L 251.6 89.3 L 251.6 310.3 L 30.6 310.3 Z M 30.6 89.3 "></path></clipPath><g clip-path="url(#clip0x600007ea0a80)"><path d="M 31.0 310.0 L 252.0 310.0 L 252.0 89.0 L 31.0 89.0 Z M 31.0 310.0 " fill="#000000" fill-opacity="0.00"></path></g></g><g><clipPath id="clip0x600007ea0ba0"><path d="M 30.6 89.3 L 251.6 89.3 L 251.6 310.3 L 30.6 310.3 Z M 30.6 89.3 "></path></clipPath><g clip-path="url(#clip0x600007ea0ba0)"><g><g><clipPath id="clip0x600007ea0d80"><path d="M 30.0 89.0 L 252.0 89.0 L 252.0 311.0 L 30.0 311.0 Z M 30.0 89.0 "></path></clipPath><g clip-path="url(#clip0x600007ea0d80)"><g><g><clipPath id="clip0x600007ea0f60"><path d="M 30.0 89.0 L 252.0 89.0 L 252.0 311.0 L 30.0 311.0 Z M 30.0 89.0 "></path></clipPath><g clip-path="url(#clip0x600007ea0f60)"><path d="M 141.0 200.0 L 248.2 224.7 C 237.5 271.2 198.1 305.4 150.6 309.6 Z M 141.0 200.0 " fill="#55BE97"></path></g></g></g></g></g><g><clipPath id="clip0x600007ea11a0"><path d="M 30.0 89.0 L 252.0 89.0 L 252.0 311.0 L 30.0 311.0 Z M 30.0 89.0 "></path></clipPath><g clip-path="url(#clip0x600007ea11a0)"><g><g><clipPath id="clip0x600007ea1380"><path d="M 30.0 89.0 L 252.0 89.0 L 252.0 311.0 L 30.0 311.0 Z M 30.0 89.0 "></path></clipPath><g clip-path="url(#clip0x600007ea1380)"><path d="M 141.0 200.0 L 150.6 309.6 C 90.1 314.9 36.7 270.1 31.4 209.6 C 26.1 149.1 70.9 95.7 131.4 90.4 C 191.9 85.1 245.3 129.9 250.6 190.4 C 251.6 201.9 250.8 213.5 248.2 224.7 Z M 141.0 200.0 " fill="#62D7AD"></path></g></g></g></g></g></g></g></g><g><clipPath id="clip0x600007ea15c0"><path d="M 48.7 107.1 L 233.7 107.1 L 233.7 292.2 L 48.7 292.2 Z M 48.7 107.1 "></path></clipPath><g clip-path="url(#clip0x600007ea15c0)"><path d="M 205.9 264.4 C 241.7 228.7 241.7 170.7 205.9 134.9 C 170.2 99.2 112.2 99.2 76.5 134.9 C 40.7 170.7 40.7 228.7 76.5 264.4 C 112.2 300.2 170.2 300.2 205.9 264.4 Z M 205.9 264.4 " fill="#5A6378"></path></g></g><g><clipPath id="clip0x600007ea1800"><path d="M 82.5 153.3 L 199.9 153.3 L 199.9 246.1 L 82.5 246.1 Z M 82.5 153.3 "></path></clipPath><g clip-path="url(#clip0x600007ea1800)"><text xml:space="preserve" font-family="Sosa-Regular,Sosa" font-size="60.0" fill="#E2E2E2" transform="matrix(1.00, 0.00, -0.00, -1.00, 111.2, 186.6)">Ö</text><text xml:space="preserve" font-family="Sosa-Regular,Sosa" font-size="60.0" fill="#E2E2E2" transform="matrix(1.00, 0.00, -0.00, -1.00, 171.2, 186.6)"> </text><text xml:space="preserve" font-family="Sosa-Regular,Sosa" font-size="60.0" fill="#E2E2E2" transform="matrix(1.00, 0.00, -0.00, -1.00, 184.0, 186.6)"> </text></g></g><g><clipPath id="clip0x600007ea1b00"><path d="M 12.8 35.6 L 269.6 35.6 L 269.6 79.6 L 12.8 79.6 Z M 12.8 35.6 "></path></clipPath><g clip-path="url(#clip0x600007ea1b00)"><text xml:space="preserve" font-family="Helvetica,Helvetica" font-size="26.0" fill="#E2E2E2" transform="matrix(1.00, 0.00, -0.00, -1.00, 44.4, 48.1)">D</text><text xml:space="preserve" font-family="Helvetica,Helvetica" font-size="26.0" fill="#E2E2E2" transform="matrix(1.00, 0.00, -0.00, -1.00, 63.2, 48.1)">i</text><text xml:space="preserve" font-family="Helvetica,Helvetica" font-size="26.0" fill="#E2E2E2" transform="matrix(1.00, 0.00, -0.00, -1.00, 69.0, 48.1)">r</text><text xml:space="preserve" font-family="Helvetica,Helvetica" font-size="26.0" fill="#E2E2E2" transform="matrix(1.00, 0.00, -0.00, -1.00, 77.6, 48.1)">e</text><text xml:space="preserve" font-family="Helvetica,Helvetica" font-size="26.0" fill="#E2E2E2" transform="matrix(1.00, 0.00, -0.00, -1.00, 92.1, 48.1)">c</text><text xml:space="preserve" font-family="Helvetica,Helvetica" font-size="26.0" fill="#E2E2E2" transform="matrix(1.00, 0.00, -0.00, -1.00, 105.1, 48.1)">t</text><text xml:space="preserve" font-family="Helvetica,Helvetica" font-size="26.0" fill="#E2E2E2" transform="matrix(1.00, 0.00, -0.00, -1.00, 112.3, 48.1)"> </text><text xml:space="preserve" font-family="Helvetica,Helvetica" font-size="26.0" fill="#E2E2E2" transform="matrix(1.00, 0.00, -0.00, -1.00, 119.5, 48.1)">M</text><text xml:space="preserve" font-family="Helvetica,Helvetica" font-size="26.0" fill="#E2E2E2" transform="matrix(1.00, 0.00, -0.00, -1.00, 141.2, 48.1)">e</text><text xml:space="preserve" font-family="Helvetica,Helvetica" font-size="26.0" fill="#E2E2E2" transform="matrix(1.00, 0.00, -0.00, -1.00, 155.6, 48.1)">s</text><text xml:space="preserve" font-family="Helvetica,Helvetica" font-size="26.0" fill="#E2E2E2" transform="matrix(1.00, 0.00, -0.00, -1.00, 168.6, 48.1)">s</text><text xml:space="preserve" font-family="Helvetica,Helvetica" font-size="26.0" fill="#E2E2E2" transform="matrix(1.00, 0.00, -0.00, -1.00, 181.6, 48.1)">a</text><text xml:space="preserve" font-family="Helvetica,Helvetica" font-size="26.0" fill="#E2E2E2" transform="matrix(1.00, 0.00, -0.00, -1.00, 196.1, 48.1)">g</text><text xml:space="preserve" font-family="Helvetica,Helvetica" font-size="26.0" fill="#E2E2E2" transform="matrix(1.00, 0.00, -0.00, -1.00, 210.6, 48.1)">e</text><text xml:space="preserve" font-family="Helvetica,Helvetica" font-size="26.0" fill="#E2E2E2" transform="matrix(1.00, 0.00, -0.00, -1.00, 225.0, 48.1)">s</text></g></g><g><clipPath id="clip0x600007ea2280"><path d="M -0.2 0.4 L 282.6 0.4 L 282.6 37.4 L -0.2 37.4 Z M -0.2 0.4 "></path></clipPath><g clip-path="url(#clip0x600007ea2280)"><text xml:space="preserve" font-family="Helvetica,Helvetica" font-size="22.0" fill="#E2E2E2" transform="matrix(1.00, 0.00, -0.00, -1.00, 14.7, 10.9)">L</text><text xml:space="preserve" font-family="Helvetica,Helvetica" font-size="22.0" fill="#E2E2E2" transform="matrix(1.00, 0.00, -0.00, -1.00, 26.9, 10.9)">o</text><text xml:space="preserve" font-family="Helvetica,Helvetica" font-size="22.0" fill="#E2E2E2" transform="matrix(1.00, 0.00, -0.00, -1.00, 39.1, 10.9)">r</text><text xml:space="preserve" font-family="Helvetica,Helvetica" font-size="22.0" fill="#E2E2E2" transform="matrix(1.00, 0.00, -0.00, -1.00, 46.5, 10.9)">e</text><text xml:space="preserve" font-family="Helvetica,Helvetica" font-size="22.0" fill="#E2E2E2" transform="matrix(1.00, 0.00, -0.00, -1.00, 58.7, 10.9)">m</text><text xml:space="preserve" font-family="Helvetica,Helvetica" font-size="22.0" fill="#E2E2E2" transform="matrix(1.00, 0.00, -0.00, -1.00, 77.0, 10.9)"> </text><text xml:space="preserve" font-family="Helvetica,Helvetica" font-size="22.0" fill="#E2E2E2" transform="matrix(1.00, 0.00, -0.00, -1.00, 83.1, 10.9)">i</text><text xml:space="preserve" font-family="Helvetica,Helvetica" font-size="22.0" fill="#E2E2E2" transform="matrix(1.00, 0.00, -0.00, -1.00, 88.0, 10.9)">p</text><text xml:space="preserve" font-family="Helvetica,Helvetica" font-size="22.0" fill="#E2E2E2" transform="matrix(1.00, 0.00, -0.00, -1.00, 100.3, 10.9)">s</text><text xml:space="preserve" font-family="Helvetica,Helvetica" font-size="22.0" fill="#E2E2E2" transform="matrix(1.00, 0.00, -0.00, -1.00, 111.3, 10.9)">m</text><text xml:space="preserve" font-family="Helvetica,Helvetica" font-size="22.0" fill="#E2E2E2" transform="matrix(1.00, 0.00, -0.00, -1.00, 129.6, 10.9)"> </text><text xml:space="preserve" font-family="Helvetica,Helvetica" font-size="22.0" fill="#E2E2E2" transform="matrix(1.00, 0.00, -0.00, -1.00, 135.7, 10.9)">d</text><text xml:space="preserve" font-family="Helvetica,Helvetica" font-size="22.0" fill="#E2E2E2" transform="matrix(1.00, 0.00, -0.00, -1.00, 147.9, 10.9)">o</text><text xml:space="preserve" font-family="Helvetica,Helvetica" font-size="22.0" fill="#E2E2E2" transform="matrix(1.00, 0.00, -0.00, -1.00, 160.2, 10.9)">l</text><text xml:space="preserve" font-family="Helvetica,Helvetica" font-size="22.0" fill="#E2E2E2" transform="matrix(1.00, 0.00, -0.00, -1.00, 165.1, 10.9)">o</text><text xml:space="preserve" font-family="Helvetica,Helvetica" font-size="22.0" fill="#E2E2E2" transform="matrix(1.00, 0.00, -0.00, -1.00, 177.3, 10.9)">r</text><text xml:space="preserve" font-family="Helvetica,Helvetica" font-size="22.0" fill="#E2E2E2" transform="matrix(1.00, 0.00, -0.00, -1.00, 184.6, 10.9)"> </text><text xml:space="preserve" font-family="Helvetica,Helvetica" font-size="22.0" fill="#E2E2E2" transform="matrix(1.00, 0.00, -0.00, -1.00, 190.8, 10.9)">s</text><text xml:space="preserve" font-family="Helvetica,Helvetica" font-size="22.0" fill="#E2E2E2" transform="matrix(1.00, 0.00, -0.00, -1.00, 201.8, 10.9)">i</text><text xml:space="preserve" font-family="Helvetica,Helvetica" font-size="22.0" fill="#E2E2E2" transform="matrix(1.00, 0.00, -0.00, -1.00, 206.6, 10.9)">t</text><text xml:space="preserve" font-family="Helvetica,Helvetica" font-size="22.0" fill="#E2E2E2" transform="matrix(1.00, 0.00, -0.00, -1.00, 212.8, 10.9)"> </text><text xml:space="preserve" font-family="Helvetica,Helvetica" font-size="22.0" fill="#E2E2E2" transform="matrix(1.00, 0.00, -0.00, -1.00, 218.9, 10.9)">a</text><text xml:space="preserve" font-family="Helvetica,Helvetica" font-size="22.0" fill="#E2E2E2" transform="matrix(1.00, 0.00, -0.00, -1.00, 231.1, 10.9)">m</text><text xml:space="preserve" font-family="Helvetica,Helvetica" font-size="22.0" fill="#E2E2E2" transform="matrix(1.00, 0.00, -0.00, -1.00, 249.4, 10.9)">e</text><text xml:space="preserve" font-family="Helvetica,Helvetica" font-size="22.0" fill="#E2E2E2" transform="matrix(1.00, 0.00, -0.00, -1.00, 261.7, 10.9)">t</text></g></g></g></svg>