<?xml version="1.0" encoding="UTF-8" standalone="no"?><svg xmlns="http://www.w3.org/2000/svg" xmlns:xlink="http://www.w3.org/1999/xlink" clip-rule="evenodd" stroke-miterlimit="10" viewBox="0 0 27 27"><desc>SVG generated by Keynote</desc><defs></defs><g transform="matrix(1.00, 0.00, -0.00, -1.00, 0.0, 27.0)"><g><clipPath id="clip0x600007cbba20"><path d="M 7.4 7.7 L 19.6 7.7 L 19.6 19.8 L 7.4 19.8 Z M 7.4 7.7 "></path></clipPath><g clip-path="url(#clip0x600007cbba20)"><path d="M 17.1 17.3 C 19.1 15.4 19.1 12.1 17.1 10.2 C 15.1 8.2 11.9 8.2 9.9 10.2 C 7.9 12.1 7.9 15.4 9.9 17.3 C 11.9 19.3 15.1 19.3 17.1 17.3 Z M 17.1 17.3 " fill="#EDC25F"></path></g></g><g><clipPath id="clip0x600007cbbc00"><path d="M 0.4 0.6 L 26.6 0.6 L 26.6 26.9 L 0.4 26.9 Z M 0.4 0.6 "></path></clipPath><g clip-path="url(#clip0x600007cbbc00)"><path d="M 19.9 3.4 C 24.4 8.0 24.4 15.3 19.9 19.9 C 15.3 24.4 8.0 24.4 3.4 19.9 C -1.1 15.3 -1.1 8.0 3.4 3.4 C 8.0 -1.1 15.3 -1.1 19.9 3.4 Z M 19.9 3.4 " fill="none" stroke="#EDC25F" stroke-width="1.00" transform="matrix(1.00, 0.00, 0.00, -1.00, 1.9, 25.4)"></path></g></g></g></svg>