<?xml version="1.0" encoding="UTF-8" standalone="no"?><svg xmlns="http://www.w3.org/2000/svg" xmlns:xlink="http://www.w3.org/1999/xlink" clip-rule="evenodd" stroke-miterlimit="10" viewBox="0 0 28 28"><desc>SVG generated by Keynote</desc><defs></defs><g transform="matrix(1.00, 0.00, -0.00, -1.00, 0.0, 28.0)"><g><clipPath id="clip0x6080068ba700"><path d="M 8.0 7.9 L 20.2 7.9 L 20.2 20.1 L 8.0 20.1 Z M 8.0 7.9 "></path></clipPath><g clip-path="url(#clip0x6080068ba700)"><path d="M 17.7 17.6 C 19.6 15.6 19.6 12.4 17.7 10.4 C 15.7 8.4 12.5 8.4 10.5 10.4 C 8.5 12.4 8.5 15.6 10.5 17.6 C 12.5 19.6 15.7 19.6 17.7 17.6 Z M 17.7 17.6 " fill="#EDC25F"></path></g></g><g><clipPath id="clip0x6080068ba8e0"><path d="M 0.9 0.8 L 27.2 0.8 L 27.2 27.1 L 0.9 27.1 Z M 0.9 0.8 "></path></clipPath><g clip-path="url(#clip0x6080068ba8e0)"><path d="M 19.9 3.4 C 24.4 8.0 24.4 15.3 19.9 19.9 C 15.3 24.4 8.0 24.4 3.4 19.9 C -1.1 15.3 -1.1 8.0 3.4 3.4 C 8.0 -1.1 15.3 -1.1 19.9 3.4 Z M 19.9 3.4 " fill="none" stroke="#EDC25F" stroke-width="1.00" transform="matrix(1.00, 0.00, 0.00, -1.00, 2.4, 25.6)"></path></g></g></g></svg>