<?xml version="1.0" encoding="UTF-8" standalone="no"?><svg xmlns="http://www.w3.org/2000/svg" xmlns:xlink="http://www.w3.org/1999/xlink" clip-rule="evenodd" stroke-miterlimit="10" viewBox="0 0 274 318"><desc>SVG generated by Keynote</desc><defs></defs><g transform="matrix(1.00, 0.00, -0.00, -1.00, 0.0, 318.0)"><g><clipPath id="clip0x600005eaa080"><path d="M 14.7 72.7 L 259.2 72.7 L 259.2 317.2 L 14.7 317.2 Z M 14.7 72.7 "></path></clipPath><g clip-path="url(#clip0x600005eaa080)"><path d="M 220.9 278.9 C 267.2 232.5 267.2 157.4 220.9 111.0 C 174.5 64.6 99.4 64.6 53.0 111.0 C 6.6 157.4 6.6 232.5 53.0 278.9 C 99.4 325.2 174.5 325.2 220.9 278.9 Z M 220.9 278.9 " fill="#F6F6F6"></path><path d="M 202.7 34.8 C 249.0 81.1 249.0 156.3 202.7 202.7 C 156.3 249.0 81.1 249.0 34.8 202.7 C -11.6 156.3 -11.6 81.1 34.8 34.8 C 81.1 -11.6 156.3 -11.6 202.7 34.8 Z M 202.7 34.8 " fill="none" stroke="#FF607B" stroke-width="5.00" transform="matrix(1.00, 0.00, 0.00, -1.00, 18.2, 313.7)"></path></g></g><g><clipPath id="clip0x600005eaa6e0"><path d="M 18.2 76.2 L 255.7 76.2 L 255.7 313.7 L 18.2 313.7 Z M 18.2 76.2 "></path></clipPath><g clip-path="url(#clip0x600005eaa6e0)"><text xml:space="preserve" font-family="Helvetica,Helvetica" font-size="19.0" fill="#677188" transform="matrix(1.00, 0.00, -0.00, -1.00, 66.7, 188.0)">D</text><text xml:space="preserve" font-family="Helvetica,Helvetica" font-size="19.0" fill="#677188" transform="matrix(1.00, 0.00, -0.00, -1.00, 80.5, 188.0)">r</text><text xml:space="preserve" font-family="Helvetica,Helvetica" font-size="19.0" fill="#677188" transform="matrix(1.00, 0.00, -0.00, -1.00, 86.8, 188.0)">a</text><text xml:space="preserve" font-family="Helvetica,Helvetica" font-size="19.0" fill="#677188" transform="matrix(1.00, 0.00, -0.00, -1.00, 97.4, 188.0)">g</text><text xml:space="preserve" font-family="Helvetica,Helvetica" font-size="19.0" fill="#677188" transform="matrix(1.00, 0.00, -0.00, -1.00, 107.9, 188.0)"> </text><text xml:space="preserve" font-family="Helvetica,Helvetica" font-size="19.0" fill="#677188" transform="matrix(1.00, 0.00, -0.00, -1.00, 113.2, 188.0)">y</text><text xml:space="preserve" font-family="Helvetica,Helvetica" font-size="19.0" fill="#677188" transform="matrix(1.00, 0.00, -0.00, -1.00, 122.7, 188.0)">o</text><text xml:space="preserve" font-family="Helvetica,Helvetica" font-size="19.0" fill="#677188" transform="matrix(1.00, 0.00, -0.00, -1.00, 133.3, 188.0)">u</text><text xml:space="preserve" font-family="Helvetica,Helvetica" font-size="19.0" fill="#677188" transform="matrix(1.00, 0.00, -0.00, -1.00, 143.8, 188.0)">r</text><text xml:space="preserve" font-family="Helvetica,Helvetica" font-size="19.0" fill="#677188" transform="matrix(1.00, 0.00, -0.00, -1.00, 150.2, 188.0)"> </text><text xml:space="preserve" font-family="Helvetica,Helvetica" font-size="19.0" fill="#677188" transform="matrix(1.00, 0.00, -0.00, -1.00, 155.4, 188.0)">i</text><text xml:space="preserve" font-family="Helvetica,Helvetica" font-size="19.0" fill="#677188" transform="matrix(1.00, 0.00, -0.00, -1.00, 159.7, 188.0)">m</text><text xml:space="preserve" font-family="Helvetica,Helvetica" font-size="19.0" fill="#677188" transform="matrix(1.00, 0.00, -0.00, -1.00, 175.5, 188.0)">a</text><text xml:space="preserve" font-family="Helvetica,Helvetica" font-size="19.0" fill="#677188" transform="matrix(1.00, 0.00, -0.00, -1.00, 186.1, 188.0)">g</text><text xml:space="preserve" font-family="Helvetica,Helvetica" font-size="19.0" fill="#677188" transform="matrix(1.00, 0.00, -0.00, -1.00, 196.6, 188.0)">e</text></g></g><g><clipPath id="clip0x6080054a9000"><path d="M 73.5 31.3 L 200.4 31.3 L 200.4 68.3 L 73.5 68.3 Z M 73.5 31.3 "></path></clipPath><g clip-path="url(#clip0x6080054a9000)"><text xml:space="preserve" font-family="Helvetica,Helvetica" font-size="22.0" fill="#E2E2E2" transform="matrix(1.00, 0.00, -0.00, -1.00, 79.5, 41.8)">P</text><text xml:space="preserve" font-family="Helvetica,Helvetica" font-size="22.0" fill="#E2E2E2" transform="matrix(1.00, 0.00, -0.00, -1.00, 94.1, 41.8)">r</text><text xml:space="preserve" font-family="Helvetica,Helvetica" font-size="22.0" fill="#E2E2E2" transform="matrix(1.00, 0.00, -0.00, -1.00, 101.5, 41.8)">o</text><text xml:space="preserve" font-family="Helvetica,Helvetica" font-size="22.0" fill="#E2E2E2" transform="matrix(1.00, 0.00, -0.00, -1.00, 113.7, 41.8)">j</text><text xml:space="preserve" font-family="Helvetica,Helvetica" font-size="22.0" fill="#E2E2E2" transform="matrix(1.00, 0.00, -0.00, -1.00, 118.6, 41.8)">e</text><text xml:space="preserve" font-family="Helvetica,Helvetica" font-size="22.0" fill="#E2E2E2" transform="matrix(1.00, 0.00, -0.00, -1.00, 130.8, 41.8)">c</text><text xml:space="preserve" font-family="Helvetica,Helvetica" font-size="22.0" fill="#E2E2E2" transform="matrix(1.00, 0.00, -0.00, -1.00, 141.8, 41.8)">t</text><text xml:space="preserve" font-family="Helvetica,Helvetica" font-size="22.0" fill="#E2E2E2" transform="matrix(1.00, 0.00, -0.00, -1.00, 147.9, 41.8)"> </text><text xml:space="preserve" font-family="Helvetica,Helvetica" font-size="22.0" fill="#E2E2E2" transform="matrix(1.00, 0.00, -0.00, -1.00, 153.7, 41.8)">T</text><text xml:space="preserve" font-family="Helvetica,Helvetica" font-size="22.0" fill="#E2E2E2" transform="matrix(1.00, 0.00, -0.00, -1.00, 166.3, 41.8)">i</text><text xml:space="preserve" font-family="Helvetica,Helvetica" font-size="22.0" fill="#E2E2E2" transform="matrix(1.00, 0.00, -0.00, -1.00, 171.2, 41.8)">t</text><text xml:space="preserve" font-family="Helvetica,Helvetica" font-size="22.0" fill="#E2E2E2" transform="matrix(1.00, 0.00, -0.00, -1.00, 177.3, 41.8)">l</text><text xml:space="preserve" font-family="Helvetica,Helvetica" font-size="22.0" fill="#E2E2E2" transform="matrix(1.00, 0.00, -0.00, -1.00, 182.2, 41.8)">e</text></g></g><g><clipPath id="clip0x6080054a96c0"><path d="M 0.8 0.6 L 273.1 0.6 L 273.1 31.6 L 0.8 31.6 Z M 0.8 0.6 "></path></clipPath><g clip-path="url(#clip0x6080054a96c0)"><text xml:space="preserve" font-family="Helvetica,Helvetica" font-size="18.0" fill="#E2E2E2" transform="matrix(1.00, 0.00, -0.00, -1.00, 25.9, 9.3)">L</text><text xml:space="preserve" font-family="Helvetica,Helvetica" font-size="18.0" fill="#E2E2E2" transform="matrix(1.00, 0.00, -0.00, -1.00, 35.9, 9.3)">o</text><text xml:space="preserve" font-family="Helvetica,Helvetica" font-size="18.0" fill="#E2E2E2" transform="matrix(1.00, 0.00, -0.00, -1.00, 45.9, 9.3)">r</text><text xml:space="preserve" font-family="Helvetica,Helvetica" font-size="18.0" fill="#E2E2E2" transform="matrix(1.00, 0.00, -0.00, -1.00, 51.9, 9.3)">e</text><text xml:space="preserve" font-family="Helvetica,Helvetica" font-size="18.0" fill="#E2E2E2" transform="matrix(1.00, 0.00, -0.00, -1.00, 61.9, 9.3)">m</text><text xml:space="preserve" font-family="Helvetica,Helvetica" font-size="18.0" fill="#E2E2E2" transform="matrix(1.00, 0.00, -0.00, -1.00, 76.9, 9.3)"> </text><text xml:space="preserve" font-family="Helvetica,Helvetica" font-size="18.0" fill="#E2E2E2" transform="matrix(1.00, 0.00, -0.00, -1.00, 81.9, 9.3)">i</text><text xml:space="preserve" font-family="Helvetica,Helvetica" font-size="18.0" fill="#E2E2E2" transform="matrix(1.00, 0.00, -0.00, -1.00, 85.9, 9.3)">p</text><text xml:space="preserve" font-family="Helvetica,Helvetica" font-size="18.0" fill="#E2E2E2" transform="matrix(1.00, 0.00, -0.00, -1.00, 96.0, 9.3)">s</text><text xml:space="preserve" font-family="Helvetica,Helvetica" font-size="18.0" fill="#E2E2E2" transform="matrix(1.00, 0.00, -0.00, -1.00, 105.0, 9.3)">u</text><text xml:space="preserve" font-family="Helvetica,Helvetica" font-size="18.0" fill="#E2E2E2" transform="matrix(1.00, 0.00, -0.00, -1.00, 115.0, 9.3)">m</text><text xml:space="preserve" font-family="Helvetica,Helvetica" font-size="18.0" fill="#E2E2E2" transform="matrix(1.00, 0.00, -0.00, -1.00, 130.0, 9.3)"> </text><text xml:space="preserve" font-family="Helvetica,Helvetica" font-size="18.0" fill="#E2E2E2" transform="matrix(1.00, 0.00, -0.00, -1.00, 135.0, 9.3)">d</text><text xml:space="preserve" font-family="Helvetica,Helvetica" font-size="18.0" fill="#E2E2E2" transform="matrix(1.00, 0.00, -0.00, -1.00, 145.0, 9.3)">o</text><text xml:space="preserve" font-family="Helvetica,Helvetica" font-size="18.0" fill="#E2E2E2" transform="matrix(1.00, 0.00, -0.00, -1.00, 155.0, 9.3)">l</text><text xml:space="preserve" font-family="Helvetica,Helvetica" font-size="18.0" fill="#E2E2E2" transform="matrix(1.00, 0.00, -0.00, -1.00, 159.0, 9.3)">o</text><text xml:space="preserve" font-family="Helvetica,Helvetica" font-size="18.0" fill="#E2E2E2" transform="matrix(1.00, 0.00, -0.00, -1.00, 169.0, 9.3)">r</text><text xml:space="preserve" font-family="Helvetica,Helvetica" font-size="18.0" fill="#E2E2E2" transform="matrix(1.00, 0.00, -0.00, -1.00, 175.0, 9.3)"> </text><text xml:space="preserve" font-family="Helvetica,Helvetica" font-size="18.0" fill="#E2E2E2" transform="matrix(1.00, 0.00, -0.00, -1.00, 180.0, 9.3)">s</text><text xml:space="preserve" font-family="Helvetica,Helvetica" font-size="18.0" fill="#E2E2E2" transform="matrix(1.00, 0.00, -0.00, -1.00, 189.0, 9.3)">i</text><text xml:space="preserve" font-family="Helvetica,Helvetica" font-size="18.0" fill="#E2E2E2" transform="matrix(1.00, 0.00, -0.00, -1.00, 193.0, 9.3)">t</text><text xml:space="preserve" font-family="Helvetica,Helvetica" font-size="18.0" fill="#E2E2E2" transform="matrix(1.00, 0.00, -0.00, -1.00, 198.0, 9.3)"> </text><text xml:space="preserve" font-family="Helvetica,Helvetica" font-size="18.0" fill="#E2E2E2" transform="matrix(1.00, 0.00, -0.00, -1.00, 203.0, 9.3)">a</text><text xml:space="preserve" font-family="Helvetica,Helvetica" font-size="18.0" fill="#E2E2E2" transform="matrix(1.00, 0.00, -0.00, -1.00, 213.0, 9.3)">m</text><text xml:space="preserve" font-family="Helvetica,Helvetica" font-size="18.0" fill="#E2E2E2" transform="matrix(1.00, 0.00, -0.00, -1.00, 228.0, 9.3)">e</text><text xml:space="preserve" font-family="Helvetica,Helvetica" font-size="18.0" fill="#E2E2E2" transform="matrix(1.00, 0.00, -0.00, -1.00, 238.0, 9.3)">t</text><text xml:space="preserve" font-family="Helvetica,Helvetica" font-size="18.0" fill="#E2E2E2" transform="matrix(1.00, 0.00, -0.00, -1.00, 243.0, 9.3)">.</text></g></g></g></svg>