<?xml version="1.0" encoding="UTF-8" standalone="no"?><svg xmlns="http://www.w3.org/2000/svg" xmlns:xlink="http://www.w3.org/1999/xlink" clip-rule="evenodd" stroke-miterlimit="10" viewBox="0 0 274 318"><desc>SVG generated by Keynote</desc><defs></defs><g transform="matrix(1.00, 0.00, -0.00, -1.00, 0.0, 318.0)"><g><clipPath id="clip0x6080054a6c00"><path d="M 14.7 72.7 L 259.1 72.7 L 259.1 317.2 L 14.7 317.2 Z M 14.7 72.7 "></path></clipPath><g clip-path="url(#clip0x6080054a6c00)"><path d="M 220.8 278.9 C 267.2 232.5 267.2 157.4 220.8 111.0 C 174.5 64.6 99.3 64.6 53.0 111.0 C 6.6 157.4 6.6 232.5 53.0 278.9 C 99.3 325.2 174.5 325.2 220.8 278.9 Z M 220.8 278.9 " fill="#F6F6F6"></path><path d="M 202.7 34.8 C 249.0 81.1 249.0 156.3 202.7 202.7 C 156.3 249.0 81.1 249.0 34.8 202.7 C -11.6 156.3 -11.6 81.1 34.8 34.8 C 81.1 -11.6 156.3 -11.6 202.7 34.8 Z M 202.7 34.8 " fill="none" stroke="#FF607B" stroke-width="5.00" transform="matrix(1.00, 0.00, 0.00, -1.00, 18.2, 313.7)"></path></g></g><g><clipPath id="clip0x6080054a7260"><path d="M 18.2 76.2 L 255.6 76.2 L 255.6 313.7 L 18.2 313.7 Z M 18.2 76.2 "></path></clipPath><g clip-path="url(#clip0x6080054a7260)"><text xml:space="preserve" font-family="Helvetica,Helvetica" font-size="19.0" fill="#677188" transform="matrix(1.00, 0.00, -0.00, -1.00, 66.7, 188.0)">D</text><text xml:space="preserve" font-family="Helvetica,Helvetica" font-size="19.0" fill="#677188" transform="matrix(1.00, 0.00, -0.00, -1.00, 80.4, 188.0)">r</text><text xml:space="preserve" font-family="Helvetica,Helvetica" font-size="19.0" fill="#677188" transform="matrix(1.00, 0.00, -0.00, -1.00, 86.7, 188.0)">a</text><text xml:space="preserve" font-family="Helvetica,Helvetica" font-size="19.0" fill="#677188" transform="matrix(1.00, 0.00, -0.00, -1.00, 97.3, 188.0)">g</text><text xml:space="preserve" font-family="Helvetica,Helvetica" font-size="19.0" fill="#677188" transform="matrix(1.00, 0.00, -0.00, -1.00, 107.9, 188.0)"> </text><text xml:space="preserve" font-family="Helvetica,Helvetica" font-size="19.0" fill="#677188" transform="matrix(1.00, 0.00, -0.00, -1.00, 113.1, 188.0)">y</text><text xml:space="preserve" font-family="Helvetica,Helvetica" font-size="19.0" fill="#677188" transform="matrix(1.00, 0.00, -0.00, -1.00, 122.6, 188.0)">o</text><text xml:space="preserve" font-family="Helvetica,Helvetica" font-size="19.0" fill="#677188" transform="matrix(1.00, 0.00, -0.00, -1.00, 133.2, 188.0)">u</text><text xml:space="preserve" font-family="Helvetica,Helvetica" font-size="19.0" fill="#677188" transform="matrix(1.00, 0.00, -0.00, -1.00, 143.8, 188.0)">r</text><text xml:space="preserve" font-family="Helvetica,Helvetica" font-size="19.0" fill="#677188" transform="matrix(1.00, 0.00, -0.00, -1.00, 150.1, 188.0)"> </text><text xml:space="preserve" font-family="Helvetica,Helvetica" font-size="19.0" fill="#677188" transform="matrix(1.00, 0.00, -0.00, -1.00, 155.4, 188.0)">i</text><text xml:space="preserve" font-family="Helvetica,Helvetica" font-size="19.0" fill="#677188" transform="matrix(1.00, 0.00, -0.00, -1.00, 159.6, 188.0)">m</text><text xml:space="preserve" font-family="Helvetica,Helvetica" font-size="19.0" fill="#677188" transform="matrix(1.00, 0.00, -0.00, -1.00, 175.4, 188.0)">a</text><text xml:space="preserve" font-family="Helvetica,Helvetica" font-size="19.0" fill="#677188" transform="matrix(1.00, 0.00, -0.00, -1.00, 186.0, 188.0)">g</text><text xml:space="preserve" font-family="Helvetica,Helvetica" font-size="19.0" fill="#677188" transform="matrix(1.00, 0.00, -0.00, -1.00, 196.6, 188.0)">e</text></g></g><g><clipPath id="clip0x6080054a79e0"><path d="M 73.4 31.3 L 200.4 31.3 L 200.4 68.3 L 73.4 68.3 Z M 73.4 31.3 "></path></clipPath><g clip-path="url(#clip0x6080054a79e0)"><text xml:space="preserve" font-family="Helvetica,Helvetica" font-size="22.0" fill="#E2E2E2" transform="matrix(1.00, 0.00, -0.00, -1.00, 79.4, 41.8)">P</text><text xml:space="preserve" font-family="Helvetica,Helvetica" font-size="22.0" fill="#E2E2E2" transform="matrix(1.00, 0.00, -0.00, -1.00, 94.1, 41.8)">r</text><text xml:space="preserve" font-family="Helvetica,Helvetica" font-size="22.0" fill="#E2E2E2" transform="matrix(1.00, 0.00, -0.00, -1.00, 101.4, 41.8)">o</text><text xml:space="preserve" font-family="Helvetica,Helvetica" font-size="22.0" fill="#E2E2E2" transform="matrix(1.00, 0.00, -0.00, -1.00, 113.7, 41.8)">j</text><text xml:space="preserve" font-family="Helvetica,Helvetica" font-size="22.0" fill="#E2E2E2" transform="matrix(1.00, 0.00, -0.00, -1.00, 118.5, 41.8)">e</text><text xml:space="preserve" font-family="Helvetica,Helvetica" font-size="22.0" fill="#E2E2E2" transform="matrix(1.00, 0.00, -0.00, -1.00, 130.8, 41.8)">c</text><text xml:space="preserve" font-family="Helvetica,Helvetica" font-size="22.0" fill="#E2E2E2" transform="matrix(1.00, 0.00, -0.00, -1.00, 141.8, 41.8)">t</text><text xml:space="preserve" font-family="Helvetica,Helvetica" font-size="22.0" fill="#E2E2E2" transform="matrix(1.00, 0.00, -0.00, -1.00, 147.9, 41.8)"> </text><text xml:space="preserve" font-family="Helvetica,Helvetica" font-size="22.0" fill="#E2E2E2" transform="matrix(1.00, 0.00, -0.00, -1.00, 153.6, 41.8)">T</text><text xml:space="preserve" font-family="Helvetica,Helvetica" font-size="22.0" fill="#E2E2E2" transform="matrix(1.00, 0.00, -0.00, -1.00, 166.2, 41.8)">i</text><text xml:space="preserve" font-family="Helvetica,Helvetica" font-size="22.0" fill="#E2E2E2" transform="matrix(1.00, 0.00, -0.00, -1.00, 171.1, 41.8)">t</text><text xml:space="preserve" font-family="Helvetica,Helvetica" font-size="22.0" fill="#E2E2E2" transform="matrix(1.00, 0.00, -0.00, -1.00, 177.2, 41.8)">l</text><text xml:space="preserve" font-family="Helvetica,Helvetica" font-size="22.0" fill="#E2E2E2" transform="matrix(1.00, 0.00, -0.00, -1.00, 182.1, 41.8)">e</text></g></g><g><clipPath id="clip0x6080054a80a0"><path d="M 0.8 0.6 L 273.0 0.6 L 273.0 31.6 L 0.8 31.6 Z M 0.8 0.6 "></path></clipPath><g clip-path="url(#clip0x6080054a80a0)"><text xml:space="preserve" font-family="Helvetica,Helvetica" font-size="18.0" fill="#E2E2E2" transform="matrix(1.00, 0.00, -0.00, -1.00, 25.9, 9.3)">L</text><text xml:space="preserve" font-family="Helvetica,Helvetica" font-size="18.0" fill="#E2E2E2" transform="matrix(1.00, 0.00, -0.00, -1.00, 35.9, 9.3)">o</text><text xml:space="preserve" font-family="Helvetica,Helvetica" font-size="18.0" fill="#E2E2E2" transform="matrix(1.00, 0.00, -0.00, -1.00, 45.9, 9.3)">r</text><text xml:space="preserve" font-family="Helvetica,Helvetica" font-size="18.0" fill="#E2E2E2" transform="matrix(1.00, 0.00, -0.00, -1.00, 51.9, 9.3)">e</text><text xml:space="preserve" font-family="Helvetica,Helvetica" font-size="18.0" fill="#E2E2E2" transform="matrix(1.00, 0.00, -0.00, -1.00, 61.9, 9.3)">m</text><text xml:space="preserve" font-family="Helvetica,Helvetica" font-size="18.0" fill="#E2E2E2" transform="matrix(1.00, 0.00, -0.00, -1.00, 76.9, 9.3)"> </text><text xml:space="preserve" font-family="Helvetica,Helvetica" font-size="18.0" fill="#E2E2E2" transform="matrix(1.00, 0.00, -0.00, -1.00, 81.9, 9.3)">i</text><text xml:space="preserve" font-family="Helvetica,Helvetica" font-size="18.0" fill="#E2E2E2" transform="matrix(1.00, 0.00, -0.00, -1.00, 85.9, 9.3)">p</text><text xml:space="preserve" font-family="Helvetica,Helvetica" font-size="18.0" fill="#E2E2E2" transform="matrix(1.00, 0.00, -0.00, -1.00, 95.9, 9.3)">s</text><text xml:space="preserve" font-family="Helvetica,Helvetica" font-size="18.0" fill="#E2E2E2" transform="matrix(1.00, 0.00, -0.00, -1.00, 104.9, 9.3)">u</text><text xml:space="preserve" font-family="Helvetica,Helvetica" font-size="18.0" fill="#E2E2E2" transform="matrix(1.00, 0.00, -0.00, -1.00, 114.9, 9.3)">m</text><text xml:space="preserve" font-family="Helvetica,Helvetica" font-size="18.0" fill="#E2E2E2" transform="matrix(1.00, 0.00, -0.00, -1.00, 129.9, 9.3)"> </text><text xml:space="preserve" font-family="Helvetica,Helvetica" font-size="18.0" fill="#E2E2E2" transform="matrix(1.00, 0.00, -0.00, -1.00, 134.9, 9.3)">d</text><text xml:space="preserve" font-family="Helvetica,Helvetica" font-size="18.0" fill="#E2E2E2" transform="matrix(1.00, 0.00, -0.00, -1.00, 144.9, 9.3)">o</text><text xml:space="preserve" font-family="Helvetica,Helvetica" font-size="18.0" fill="#E2E2E2" transform="matrix(1.00, 0.00, -0.00, -1.00, 154.9, 9.3)">l</text><text xml:space="preserve" font-family="Helvetica,Helvetica" font-size="18.0" fill="#E2E2E2" transform="matrix(1.00, 0.00, -0.00, -1.00, 158.9, 9.3)">o</text><text xml:space="preserve" font-family="Helvetica,Helvetica" font-size="18.0" fill="#E2E2E2" transform="matrix(1.00, 0.00, -0.00, -1.00, 168.9, 9.3)">r</text><text xml:space="preserve" font-family="Helvetica,Helvetica" font-size="18.0" fill="#E2E2E2" transform="matrix(1.00, 0.00, -0.00, -1.00, 174.9, 9.3)"> </text><text xml:space="preserve" font-family="Helvetica,Helvetica" font-size="18.0" fill="#E2E2E2" transform="matrix(1.00, 0.00, -0.00, -1.00, 179.9, 9.3)">s</text><text xml:space="preserve" font-family="Helvetica,Helvetica" font-size="18.0" fill="#E2E2E2" transform="matrix(1.00, 0.00, -0.00, -1.00, 188.9, 9.3)">i</text><text xml:space="preserve" font-family="Helvetica,Helvetica" font-size="18.0" fill="#E2E2E2" transform="matrix(1.00, 0.00, -0.00, -1.00, 192.9, 9.3)">t</text><text xml:space="preserve" font-family="Helvetica,Helvetica" font-size="18.0" fill="#E2E2E2" transform="matrix(1.00, 0.00, -0.00, -1.00, 197.9, 9.3)"> </text><text xml:space="preserve" font-family="Helvetica,Helvetica" font-size="18.0" fill="#E2E2E2" transform="matrix(1.00, 0.00, -0.00, -1.00, 202.9, 9.3)">a</text><text xml:space="preserve" font-family="Helvetica,Helvetica" font-size="18.0" fill="#E2E2E2" transform="matrix(1.00, 0.00, -0.00, -1.00, 213.0, 9.3)">m</text><text xml:space="preserve" font-family="Helvetica,Helvetica" font-size="18.0" fill="#E2E2E2" transform="matrix(1.00, 0.00, -0.00, -1.00, 227.9, 9.3)">e</text><text xml:space="preserve" font-family="Helvetica,Helvetica" font-size="18.0" fill="#E2E2E2" transform="matrix(1.00, 0.00, -0.00, -1.00, 238.0, 9.3)">t</text><text xml:space="preserve" font-family="Helvetica,Helvetica" font-size="18.0" fill="#E2E2E2" transform="matrix(1.00, 0.00, -0.00, -1.00, 243.0, 9.3)">.</text></g></g></g></svg>