<?xml version="1.0" encoding="UTF-8" standalone="no"?><svg xmlns="http://www.w3.org/2000/svg" xmlns:xlink="http://www.w3.org/1999/xlink" clip-rule="evenodd" stroke-miterlimit="10" viewBox="0 0 274 318"><desc>SVG generated by Keynote</desc><defs></defs><g transform="matrix(1.00, 0.00, -0.00, -1.00, 0.0, 318.0)"><g><clipPath id="clip0x6180054aa440"><path d="M 14.7 73.4 L 259.1 73.4 L 259.1 317.8 L 14.7 317.8 Z M 14.7 73.4 "></path></clipPath><g clip-path="url(#clip0x6180054aa440)"><path d="M 220.8 279.5 C 267.2 233.2 267.2 158.0 220.8 111.7 C 174.5 65.3 99.3 65.3 53.0 111.7 C 6.6 158.0 6.6 233.2 53.0 279.5 C 99.3 325.9 174.5 325.9 220.8 279.5 Z M 220.8 279.5 " fill="#F6F6F6"></path><path d="M 202.7 34.8 C 249.0 81.1 249.0 156.3 202.7 202.7 C 156.3 249.0 81.1 249.0 34.8 202.7 C -11.6 156.3 -11.6 81.1 34.8 34.8 C 81.1 -11.6 156.3 -11.6 202.7 34.8 Z M 202.7 34.8 " fill="none" stroke="#FF607B" stroke-width="5.00" transform="matrix(1.00, 0.00, 0.00, -1.00, 18.2, 314.3)"></path></g></g><g><clipPath id="clip0x6180054aaaa0"><path d="M 18.2 76.9 L 255.6 76.9 L 255.6 314.3 L 18.2 314.3 Z M 18.2 76.9 "></path></clipPath><g clip-path="url(#clip0x6180054aaaa0)"><text xml:space="preserve" font-family="Helvetica,Helvetica" font-size="19.0" fill="#677188" transform="matrix(1.00, 0.00, -0.00, -1.00, 66.7, 188.7)">D</text><text xml:space="preserve" font-family="Helvetica,Helvetica" font-size="19.0" fill="#677188" transform="matrix(1.00, 0.00, -0.00, -1.00, 80.4, 188.7)">r</text><text xml:space="preserve" font-family="Helvetica,Helvetica" font-size="19.0" fill="#677188" transform="matrix(1.00, 0.00, -0.00, -1.00, 86.7, 188.7)">a</text><text xml:space="preserve" font-family="Helvetica,Helvetica" font-size="19.0" fill="#677188" transform="matrix(1.00, 0.00, -0.00, -1.00, 97.3, 188.7)">g</text><text xml:space="preserve" font-family="Helvetica,Helvetica" font-size="19.0" fill="#677188" transform="matrix(1.00, 0.00, -0.00, -1.00, 107.9, 188.7)"> </text><text xml:space="preserve" font-family="Helvetica,Helvetica" font-size="19.0" fill="#677188" transform="matrix(1.00, 0.00, -0.00, -1.00, 113.1, 188.7)">y</text><text xml:space="preserve" font-family="Helvetica,Helvetica" font-size="19.0" fill="#677188" transform="matrix(1.00, 0.00, -0.00, -1.00, 122.6, 188.7)">o</text><text xml:space="preserve" font-family="Helvetica,Helvetica" font-size="19.0" fill="#677188" transform="matrix(1.00, 0.00, -0.00, -1.00, 133.2, 188.7)">u</text><text xml:space="preserve" font-family="Helvetica,Helvetica" font-size="19.0" fill="#677188" transform="matrix(1.00, 0.00, -0.00, -1.00, 143.8, 188.7)">r</text><text xml:space="preserve" font-family="Helvetica,Helvetica" font-size="19.0" fill="#677188" transform="matrix(1.00, 0.00, -0.00, -1.00, 150.1, 188.7)"> </text><text xml:space="preserve" font-family="Helvetica,Helvetica" font-size="19.0" fill="#677188" transform="matrix(1.00, 0.00, -0.00, -1.00, 155.4, 188.7)">i</text><text xml:space="preserve" font-family="Helvetica,Helvetica" font-size="19.0" fill="#677188" transform="matrix(1.00, 0.00, -0.00, -1.00, 159.6, 188.7)">m</text><text xml:space="preserve" font-family="Helvetica,Helvetica" font-size="19.0" fill="#677188" transform="matrix(1.00, 0.00, -0.00, -1.00, 175.4, 188.7)">a</text><text xml:space="preserve" font-family="Helvetica,Helvetica" font-size="19.0" fill="#677188" transform="matrix(1.00, 0.00, -0.00, -1.00, 186.0, 188.7)">g</text><text xml:space="preserve" font-family="Helvetica,Helvetica" font-size="19.0" fill="#677188" transform="matrix(1.00, 0.00, -0.00, -1.00, 196.6, 188.7)">e</text></g></g><g><clipPath id="clip0x6180054ab220"><path d="M 73.4 31.9 L 200.4 31.9 L 200.4 68.9 L 73.4 68.9 Z M 73.4 31.9 "></path></clipPath><g clip-path="url(#clip0x6180054ab220)"><text xml:space="preserve" font-family="Helvetica,Helvetica" font-size="22.0" fill="#E2E2E2" transform="matrix(1.00, 0.00, -0.00, -1.00, 79.4, 42.5)">P</text><text xml:space="preserve" font-family="Helvetica,Helvetica" font-size="22.0" fill="#E2E2E2" transform="matrix(1.00, 0.00, -0.00, -1.00, 94.1, 42.5)">r</text><text xml:space="preserve" font-family="Helvetica,Helvetica" font-size="22.0" fill="#E2E2E2" transform="matrix(1.00, 0.00, -0.00, -1.00, 101.4, 42.5)">o</text><text xml:space="preserve" font-family="Helvetica,Helvetica" font-size="22.0" fill="#E2E2E2" transform="matrix(1.00, 0.00, -0.00, -1.00, 113.7, 42.5)">j</text><text xml:space="preserve" font-family="Helvetica,Helvetica" font-size="22.0" fill="#E2E2E2" transform="matrix(1.00, 0.00, -0.00, -1.00, 118.5, 42.5)">e</text><text xml:space="preserve" font-family="Helvetica,Helvetica" font-size="22.0" fill="#E2E2E2" transform="matrix(1.00, 0.00, -0.00, -1.00, 130.8, 42.5)">c</text><text xml:space="preserve" font-family="Helvetica,Helvetica" font-size="22.0" fill="#E2E2E2" transform="matrix(1.00, 0.00, -0.00, -1.00, 141.8, 42.5)">t</text><text xml:space="preserve" font-family="Helvetica,Helvetica" font-size="22.0" fill="#E2E2E2" transform="matrix(1.00, 0.00, -0.00, -1.00, 147.9, 42.5)"> </text><text xml:space="preserve" font-family="Helvetica,Helvetica" font-size="22.0" fill="#E2E2E2" transform="matrix(1.00, 0.00, -0.00, -1.00, 153.6, 42.5)">T</text><text xml:space="preserve" font-family="Helvetica,Helvetica" font-size="22.0" fill="#E2E2E2" transform="matrix(1.00, 0.00, -0.00, -1.00, 166.2, 42.5)">i</text><text xml:space="preserve" font-family="Helvetica,Helvetica" font-size="22.0" fill="#E2E2E2" transform="matrix(1.00, 0.00, -0.00, -1.00, 171.1, 42.5)">t</text><text xml:space="preserve" font-family="Helvetica,Helvetica" font-size="22.0" fill="#E2E2E2" transform="matrix(1.00, 0.00, -0.00, -1.00, 177.2, 42.5)">l</text><text xml:space="preserve" font-family="Helvetica,Helvetica" font-size="22.0" fill="#E2E2E2" transform="matrix(1.00, 0.00, -0.00, -1.00, 182.1, 42.5)">e</text></g></g><g><clipPath id="clip0x6180054ab8e0"><path d="M 0.8 1.3 L 273.0 1.3 L 273.0 32.3 L 0.8 32.3 Z M 0.8 1.3 "></path></clipPath><g clip-path="url(#clip0x6180054ab8e0)"><text xml:space="preserve" font-family="Helvetica,Helvetica" font-size="18.0" fill="#E2E2E2" transform="matrix(1.00, 0.00, -0.00, -1.00, 25.9, 9.9)">L</text><text xml:space="preserve" font-family="Helvetica,Helvetica" font-size="18.0" fill="#E2E2E2" transform="matrix(1.00, 0.00, -0.00, -1.00, 35.9, 9.9)">o</text><text xml:space="preserve" font-family="Helvetica,Helvetica" font-size="18.0" fill="#E2E2E2" transform="matrix(1.00, 0.00, -0.00, -1.00, 45.9, 9.9)">r</text><text xml:space="preserve" font-family="Helvetica,Helvetica" font-size="18.0" fill="#E2E2E2" transform="matrix(1.00, 0.00, -0.00, -1.00, 51.9, 9.9)">e</text><text xml:space="preserve" font-family="Helvetica,Helvetica" font-size="18.0" fill="#E2E2E2" transform="matrix(1.00, 0.00, -0.00, -1.00, 61.9, 9.9)">m</text><text xml:space="preserve" font-family="Helvetica,Helvetica" font-size="18.0" fill="#E2E2E2" transform="matrix(1.00, 0.00, -0.00, -1.00, 76.9, 9.9)"> </text><text xml:space="preserve" font-family="Helvetica,Helvetica" font-size="18.0" fill="#E2E2E2" transform="matrix(1.00, 0.00, -0.00, -1.00, 81.9, 9.9)">i</text><text xml:space="preserve" font-family="Helvetica,Helvetica" font-size="18.0" fill="#E2E2E2" transform="matrix(1.00, 0.00, -0.00, -1.00, 85.9, 9.9)">p</text><text xml:space="preserve" font-family="Helvetica,Helvetica" font-size="18.0" fill="#E2E2E2" transform="matrix(1.00, 0.00, -0.00, -1.00, 95.9, 9.9)">s</text><text xml:space="preserve" font-family="Helvetica,Helvetica" font-size="18.0" fill="#E2E2E2" transform="matrix(1.00, 0.00, -0.00, -1.00, 104.9, 9.9)">u</text><text xml:space="preserve" font-family="Helvetica,Helvetica" font-size="18.0" fill="#E2E2E2" transform="matrix(1.00, 0.00, -0.00, -1.00, 114.9, 9.9)">m</text><text xml:space="preserve" font-family="Helvetica,Helvetica" font-size="18.0" fill="#E2E2E2" transform="matrix(1.00, 0.00, -0.00, -1.00, 129.9, 9.9)"> </text><text xml:space="preserve" font-family="Helvetica,Helvetica" font-size="18.0" fill="#E2E2E2" transform="matrix(1.00, 0.00, -0.00, -1.00, 134.9, 9.9)">d</text><text xml:space="preserve" font-family="Helvetica,Helvetica" font-size="18.0" fill="#E2E2E2" transform="matrix(1.00, 0.00, -0.00, -1.00, 144.9, 9.9)">o</text><text xml:space="preserve" font-family="Helvetica,Helvetica" font-size="18.0" fill="#E2E2E2" transform="matrix(1.00, 0.00, -0.00, -1.00, 154.9, 9.9)">l</text><text xml:space="preserve" font-family="Helvetica,Helvetica" font-size="18.0" fill="#E2E2E2" transform="matrix(1.00, 0.00, -0.00, -1.00, 158.9, 9.9)">o</text><text xml:space="preserve" font-family="Helvetica,Helvetica" font-size="18.0" fill="#E2E2E2" transform="matrix(1.00, 0.00, -0.00, -1.00, 168.9, 9.9)">r</text><text xml:space="preserve" font-family="Helvetica,Helvetica" font-size="18.0" fill="#E2E2E2" transform="matrix(1.00, 0.00, -0.00, -1.00, 174.9, 9.9)"> </text><text xml:space="preserve" font-family="Helvetica,Helvetica" font-size="18.0" fill="#E2E2E2" transform="matrix(1.00, 0.00, -0.00, -1.00, 179.9, 9.9)">s</text><text xml:space="preserve" font-family="Helvetica,Helvetica" font-size="18.0" fill="#E2E2E2" transform="matrix(1.00, 0.00, -0.00, -1.00, 188.9, 9.9)">i</text><text xml:space="preserve" font-family="Helvetica,Helvetica" font-size="18.0" fill="#E2E2E2" transform="matrix(1.00, 0.00, -0.00, -1.00, 192.9, 9.9)">t</text><text xml:space="preserve" font-family="Helvetica,Helvetica" font-size="18.0" fill="#E2E2E2" transform="matrix(1.00, 0.00, -0.00, -1.00, 197.9, 9.9)"> </text><text xml:space="preserve" font-family="Helvetica,Helvetica" font-size="18.0" fill="#E2E2E2" transform="matrix(1.00, 0.00, -0.00, -1.00, 202.9, 9.9)">a</text><text xml:space="preserve" font-family="Helvetica,Helvetica" font-size="18.0" fill="#E2E2E2" transform="matrix(1.00, 0.00, -0.00, -1.00, 213.0, 9.9)">m</text><text xml:space="preserve" font-family="Helvetica,Helvetica" font-size="18.0" fill="#E2E2E2" transform="matrix(1.00, 0.00, -0.00, -1.00, 227.9, 9.9)">e</text><text xml:space="preserve" font-family="Helvetica,Helvetica" font-size="18.0" fill="#E2E2E2" transform="matrix(1.00, 0.00, -0.00, -1.00, 238.0, 9.9)">t</text><text xml:space="preserve" font-family="Helvetica,Helvetica" font-size="18.0" fill="#E2E2E2" transform="matrix(1.00, 0.00, -0.00, -1.00, 243.0, 9.9)">.</text></g></g></g></svg>