<?xml version="1.0" encoding="UTF-8" standalone="no"?><svg xmlns="http://www.w3.org/2000/svg" xmlns:xlink="http://www.w3.org/1999/xlink" clip-rule="evenodd" stroke-miterlimit="10" viewBox="0 0 274 318"><desc>SVG generated by Keynote</desc><defs></defs><g transform="matrix(1.00, 0.00, -0.00, -1.00, 0.0, 318.0)"><g><clipPath id="clip0x6080054ac060"><path d="M 14.8 72.7 L 259.3 72.7 L 259.3 317.2 L 14.8 317.2 Z M 14.8 72.7 "></path></clipPath><g clip-path="url(#clip0x6080054ac060)"><path d="M 221.0 278.9 C 267.4 232.5 267.4 157.4 221.0 111.0 C 174.6 64.6 99.5 64.6 53.1 111.0 C 6.8 157.4 6.8 232.5 53.1 278.9 C 99.5 325.2 174.6 325.2 221.0 278.9 Z M 221.0 278.9 " fill="#F6F6F6"></path><path d="M 202.7 34.8 C 249.0 81.1 249.0 156.3 202.7 202.7 C 156.3 249.0 81.1 249.0 34.8 202.7 C -11.6 156.3 -11.6 81.1 34.8 34.8 C 81.1 -11.6 156.3 -11.6 202.7 34.8 Z M 202.7 34.8 " fill="none" stroke="#FF607B" stroke-width="5.00" transform="matrix(1.00, 0.00, 0.00, -1.00, 18.3, 313.7)"></path></g></g><g><clipPath id="clip0x6080054ac6c0"><path d="M 18.3 76.2 L 255.8 76.2 L 255.8 313.7 L 18.3 313.7 Z M 18.3 76.2 "></path></clipPath><g clip-path="url(#clip0x6080054ac6c0)"><text xml:space="preserve" font-family="Helvetica,Helvetica" font-size="19.0" fill="#677188" transform="matrix(1.00, 0.00, -0.00, -1.00, 66.8, 188.0)">D</text><text xml:space="preserve" font-family="Helvetica,Helvetica" font-size="19.0" fill="#677188" transform="matrix(1.00, 0.00, -0.00, -1.00, 80.6, 188.0)">r</text><text xml:space="preserve" font-family="Helvetica,Helvetica" font-size="19.0" fill="#677188" transform="matrix(1.00, 0.00, -0.00, -1.00, 86.9, 188.0)">a</text><text xml:space="preserve" font-family="Helvetica,Helvetica" font-size="19.0" fill="#677188" transform="matrix(1.00, 0.00, -0.00, -1.00, 97.5, 188.0)">g</text><text xml:space="preserve" font-family="Helvetica,Helvetica" font-size="19.0" fill="#677188" transform="matrix(1.00, 0.00, -0.00, -1.00, 108.0, 188.0)"> </text><text xml:space="preserve" font-family="Helvetica,Helvetica" font-size="19.0" fill="#677188" transform="matrix(1.00, 0.00, -0.00, -1.00, 113.3, 188.0)">y</text><text xml:space="preserve" font-family="Helvetica,Helvetica" font-size="19.0" fill="#677188" transform="matrix(1.00, 0.00, -0.00, -1.00, 122.8, 188.0)">o</text><text xml:space="preserve" font-family="Helvetica,Helvetica" font-size="19.0" fill="#677188" transform="matrix(1.00, 0.00, -0.00, -1.00, 133.4, 188.0)">u</text><text xml:space="preserve" font-family="Helvetica,Helvetica" font-size="19.0" fill="#677188" transform="matrix(1.00, 0.00, -0.00, -1.00, 143.9, 188.0)">r</text><text xml:space="preserve" font-family="Helvetica,Helvetica" font-size="19.0" fill="#677188" transform="matrix(1.00, 0.00, -0.00, -1.00, 150.3, 188.0)"> </text><text xml:space="preserve" font-family="Helvetica,Helvetica" font-size="19.0" fill="#677188" transform="matrix(1.00, 0.00, -0.00, -1.00, 155.5, 188.0)">i</text><text xml:space="preserve" font-family="Helvetica,Helvetica" font-size="19.0" fill="#677188" transform="matrix(1.00, 0.00, -0.00, -1.00, 159.8, 188.0)">m</text><text xml:space="preserve" font-family="Helvetica,Helvetica" font-size="19.0" fill="#677188" transform="matrix(1.00, 0.00, -0.00, -1.00, 175.6, 188.0)">a</text><text xml:space="preserve" font-family="Helvetica,Helvetica" font-size="19.0" fill="#677188" transform="matrix(1.00, 0.00, -0.00, -1.00, 186.2, 188.0)">g</text><text xml:space="preserve" font-family="Helvetica,Helvetica" font-size="19.0" fill="#677188" transform="matrix(1.00, 0.00, -0.00, -1.00, 196.7, 188.0)">e</text></g></g><g><clipPath id="clip0x6080054ace40"><path d="M 73.6 31.3 L 200.5 31.3 L 200.5 68.3 L 73.6 68.3 Z M 73.6 31.3 "></path></clipPath><g clip-path="url(#clip0x6080054ace40)"><text xml:space="preserve" font-family="Helvetica,Helvetica" font-size="22.0" fill="#E2E2E2" transform="matrix(1.00, 0.00, -0.00, -1.00, 79.6, 41.8)">P</text><text xml:space="preserve" font-family="Helvetica,Helvetica" font-size="22.0" fill="#E2E2E2" transform="matrix(1.00, 0.00, -0.00, -1.00, 94.3, 41.8)">r</text><text xml:space="preserve" font-family="Helvetica,Helvetica" font-size="22.0" fill="#E2E2E2" transform="matrix(1.00, 0.00, -0.00, -1.00, 101.6, 41.8)">o</text><text xml:space="preserve" font-family="Helvetica,Helvetica" font-size="22.0" fill="#E2E2E2" transform="matrix(1.00, 0.00, -0.00, -1.00, 113.8, 41.8)">j</text><text xml:space="preserve" font-family="Helvetica,Helvetica" font-size="22.0" fill="#E2E2E2" transform="matrix(1.00, 0.00, -0.00, -1.00, 118.7, 41.8)">e</text><text xml:space="preserve" font-family="Helvetica,Helvetica" font-size="22.0" fill="#E2E2E2" transform="matrix(1.00, 0.00, -0.00, -1.00, 130.9, 41.8)">c</text><text xml:space="preserve" font-family="Helvetica,Helvetica" font-size="22.0" fill="#E2E2E2" transform="matrix(1.00, 0.00, -0.00, -1.00, 141.9, 41.8)">t</text><text xml:space="preserve" font-family="Helvetica,Helvetica" font-size="22.0" fill="#E2E2E2" transform="matrix(1.00, 0.00, -0.00, -1.00, 148.1, 41.8)"> </text><text xml:space="preserve" font-family="Helvetica,Helvetica" font-size="22.0" fill="#E2E2E2" transform="matrix(1.00, 0.00, -0.00, -1.00, 153.8, 41.8)">T</text><text xml:space="preserve" font-family="Helvetica,Helvetica" font-size="22.0" fill="#E2E2E2" transform="matrix(1.00, 0.00, -0.00, -1.00, 166.4, 41.8)">i</text><text xml:space="preserve" font-family="Helvetica,Helvetica" font-size="22.0" fill="#E2E2E2" transform="matrix(1.00, 0.00, -0.00, -1.00, 171.3, 41.8)">t</text><text xml:space="preserve" font-family="Helvetica,Helvetica" font-size="22.0" fill="#E2E2E2" transform="matrix(1.00, 0.00, -0.00, -1.00, 177.4, 41.8)">l</text><text xml:space="preserve" font-family="Helvetica,Helvetica" font-size="22.0" fill="#E2E2E2" transform="matrix(1.00, 0.00, -0.00, -1.00, 182.3, 41.8)">e</text></g></g><g><clipPath id="clip0x6080054ad500"><path d="M 0.9 0.6 L 273.2 0.6 L 273.2 31.6 L 0.9 31.6 Z M 0.9 0.6 "></path></clipPath><g clip-path="url(#clip0x6080054ad500)"><text xml:space="preserve" font-family="Helvetica,Helvetica" font-size="18.0" fill="#E2E2E2" transform="matrix(1.00, 0.00, -0.00, -1.00, 26.0, 9.3)">L</text><text xml:space="preserve" font-family="Helvetica,Helvetica" font-size="18.0" fill="#E2E2E2" transform="matrix(1.00, 0.00, -0.00, -1.00, 36.0, 9.3)">o</text><text xml:space="preserve" font-family="Helvetica,Helvetica" font-size="18.0" fill="#E2E2E2" transform="matrix(1.00, 0.00, -0.00, -1.00, 46.0, 9.3)">r</text><text xml:space="preserve" font-family="Helvetica,Helvetica" font-size="18.0" fill="#E2E2E2" transform="matrix(1.00, 0.00, -0.00, -1.00, 52.0, 9.3)">e</text><text xml:space="preserve" font-family="Helvetica,Helvetica" font-size="18.0" fill="#E2E2E2" transform="matrix(1.00, 0.00, -0.00, -1.00, 62.0, 9.3)">m</text><text xml:space="preserve" font-family="Helvetica,Helvetica" font-size="18.0" fill="#E2E2E2" transform="matrix(1.00, 0.00, -0.00, -1.00, 77.0, 9.3)"> </text><text xml:space="preserve" font-family="Helvetica,Helvetica" font-size="18.0" fill="#E2E2E2" transform="matrix(1.00, 0.00, -0.00, -1.00, 82.0, 9.3)">i</text><text xml:space="preserve" font-family="Helvetica,Helvetica" font-size="18.0" fill="#E2E2E2" transform="matrix(1.00, 0.00, -0.00, -1.00, 86.0, 9.3)">p</text><text xml:space="preserve" font-family="Helvetica,Helvetica" font-size="18.0" fill="#E2E2E2" transform="matrix(1.00, 0.00, -0.00, -1.00, 96.1, 9.3)">s</text><text xml:space="preserve" font-family="Helvetica,Helvetica" font-size="18.0" fill="#E2E2E2" transform="matrix(1.00, 0.00, -0.00, -1.00, 105.1, 9.3)">u</text><text xml:space="preserve" font-family="Helvetica,Helvetica" font-size="18.0" fill="#E2E2E2" transform="matrix(1.00, 0.00, -0.00, -1.00, 115.1, 9.3)">m</text><text xml:space="preserve" font-family="Helvetica,Helvetica" font-size="18.0" fill="#E2E2E2" transform="matrix(1.00, 0.00, -0.00, -1.00, 130.1, 9.3)"> </text><text xml:space="preserve" font-family="Helvetica,Helvetica" font-size="18.0" fill="#E2E2E2" transform="matrix(1.00, 0.00, -0.00, -1.00, 135.1, 9.3)">d</text><text xml:space="preserve" font-family="Helvetica,Helvetica" font-size="18.0" fill="#E2E2E2" transform="matrix(1.00, 0.00, -0.00, -1.00, 145.1, 9.3)">o</text><text xml:space="preserve" font-family="Helvetica,Helvetica" font-size="18.0" fill="#E2E2E2" transform="matrix(1.00, 0.00, -0.00, -1.00, 155.1, 9.3)">l</text><text xml:space="preserve" font-family="Helvetica,Helvetica" font-size="18.0" fill="#E2E2E2" transform="matrix(1.00, 0.00, -0.00, -1.00, 159.1, 9.3)">o</text><text xml:space="preserve" font-family="Helvetica,Helvetica" font-size="18.0" fill="#E2E2E2" transform="matrix(1.00, 0.00, -0.00, -1.00, 169.1, 9.3)">r</text><text xml:space="preserve" font-family="Helvetica,Helvetica" font-size="18.0" fill="#E2E2E2" transform="matrix(1.00, 0.00, -0.00, -1.00, 175.1, 9.3)"> </text><text xml:space="preserve" font-family="Helvetica,Helvetica" font-size="18.0" fill="#E2E2E2" transform="matrix(1.00, 0.00, -0.00, -1.00, 180.1, 9.3)">s</text><text xml:space="preserve" font-family="Helvetica,Helvetica" font-size="18.0" fill="#E2E2E2" transform="matrix(1.00, 0.00, -0.00, -1.00, 189.1, 9.3)">i</text><text xml:space="preserve" font-family="Helvetica,Helvetica" font-size="18.0" fill="#E2E2E2" transform="matrix(1.00, 0.00, -0.00, -1.00, 193.1, 9.3)">t</text><text xml:space="preserve" font-family="Helvetica,Helvetica" font-size="18.0" fill="#E2E2E2" transform="matrix(1.00, 0.00, -0.00, -1.00, 198.1, 9.3)"> </text><text xml:space="preserve" font-family="Helvetica,Helvetica" font-size="18.0" fill="#E2E2E2" transform="matrix(1.00, 0.00, -0.00, -1.00, 203.1, 9.3)">a</text><text xml:space="preserve" font-family="Helvetica,Helvetica" font-size="18.0" fill="#E2E2E2" transform="matrix(1.00, 0.00, -0.00, -1.00, 213.1, 9.3)">m</text><text xml:space="preserve" font-family="Helvetica,Helvetica" font-size="18.0" fill="#E2E2E2" transform="matrix(1.00, 0.00, -0.00, -1.00, 228.1, 9.3)">e</text><text xml:space="preserve" font-family="Helvetica,Helvetica" font-size="18.0" fill="#E2E2E2" transform="matrix(1.00, 0.00, -0.00, -1.00, 238.1, 9.3)">t</text><text xml:space="preserve" font-family="Helvetica,Helvetica" font-size="18.0" fill="#E2E2E2" transform="matrix(1.00, 0.00, -0.00, -1.00, 243.1, 9.3)">.</text></g></g></g></svg>