<?xml version="1.0" encoding="UTF-8" standalone="no"?><svg xmlns="http://www.w3.org/2000/svg" xmlns:xlink="http://www.w3.org/1999/xlink" clip-rule="evenodd" stroke-miterlimit="10" viewBox="0 0 274 318"><desc>SVG generated by Keynote</desc><defs></defs><g transform="matrix(1.00, 0.00, -0.00, -1.00, 0.0, 318.0)"><g><clipPath id="clip0x600005eb0aa0"><path d="M 14.9 73.4 L 259.3 73.4 L 259.3 317.8 L 14.9 317.8 Z M 14.9 73.4 "></path></clipPath><g clip-path="url(#clip0x600005eb0aa0)"><path d="M 221.0 279.5 C 267.4 233.2 267.4 158.0 221.0 111.7 C 174.7 65.3 99.5 65.3 53.2 111.7 C 6.8 158.0 6.8 233.2 53.2 279.5 C 99.5 325.9 174.7 325.9 221.0 279.5 Z M 221.0 279.5 " fill="#F6F6F6"></path><path d="M 202.7 34.8 C 249.0 81.1 249.0 156.3 202.7 202.7 C 156.3 249.0 81.1 249.0 34.8 202.7 C -11.6 156.3 -11.6 81.1 34.8 34.8 C 81.1 -11.6 156.3 -11.6 202.7 34.8 Z M 202.7 34.8 " fill="none" stroke="#FF607B" stroke-width="5.00" transform="matrix(1.00, 0.00, 0.00, -1.00, 18.4, 314.3)"></path></g></g><g><clipPath id="clip0x600005eb1100"><path d="M 18.4 76.9 L 255.8 76.9 L 255.8 314.3 L 18.4 314.3 Z M 18.4 76.9 "></path></clipPath><g clip-path="url(#clip0x600005eb1100)"><text xml:space="preserve" font-family="Helvetica,Helvetica" font-size="19.0" fill="#677188" transform="matrix(1.00, 0.00, -0.00, -1.00, 66.9, 188.7)">D</text><text xml:space="preserve" font-family="Helvetica,Helvetica" font-size="19.0" fill="#677188" transform="matrix(1.00, 0.00, -0.00, -1.00, 80.6, 188.7)">r</text><text xml:space="preserve" font-family="Helvetica,Helvetica" font-size="19.0" fill="#677188" transform="matrix(1.00, 0.00, -0.00, -1.00, 86.9, 188.7)">a</text><text xml:space="preserve" font-family="Helvetica,Helvetica" font-size="19.0" fill="#677188" transform="matrix(1.00, 0.00, -0.00, -1.00, 97.5, 188.7)">g</text><text xml:space="preserve" font-family="Helvetica,Helvetica" font-size="19.0" fill="#677188" transform="matrix(1.00, 0.00, -0.00, -1.00, 108.1, 188.7)"> </text><text xml:space="preserve" font-family="Helvetica,Helvetica" font-size="19.0" fill="#677188" transform="matrix(1.00, 0.00, -0.00, -1.00, 113.4, 188.7)">y</text><text xml:space="preserve" font-family="Helvetica,Helvetica" font-size="19.0" fill="#677188" transform="matrix(1.00, 0.00, -0.00, -1.00, 122.9, 188.7)">o</text><text xml:space="preserve" font-family="Helvetica,Helvetica" font-size="19.0" fill="#677188" transform="matrix(1.00, 0.00, -0.00, -1.00, 133.4, 188.7)">u</text><text xml:space="preserve" font-family="Helvetica,Helvetica" font-size="19.0" fill="#677188" transform="matrix(1.00, 0.00, -0.00, -1.00, 144.0, 188.7)">r</text><text xml:space="preserve" font-family="Helvetica,Helvetica" font-size="19.0" fill="#677188" transform="matrix(1.00, 0.00, -0.00, -1.00, 150.3, 188.7)"> </text><text xml:space="preserve" font-family="Helvetica,Helvetica" font-size="19.0" fill="#677188" transform="matrix(1.00, 0.00, -0.00, -1.00, 155.6, 188.7)">i</text><text xml:space="preserve" font-family="Helvetica,Helvetica" font-size="19.0" fill="#677188" transform="matrix(1.00, 0.00, -0.00, -1.00, 159.8, 188.7)">m</text><text xml:space="preserve" font-family="Helvetica,Helvetica" font-size="19.0" fill="#677188" transform="matrix(1.00, 0.00, -0.00, -1.00, 175.7, 188.7)">a</text><text xml:space="preserve" font-family="Helvetica,Helvetica" font-size="19.0" fill="#677188" transform="matrix(1.00, 0.00, -0.00, -1.00, 186.2, 188.7)">g</text><text xml:space="preserve" font-family="Helvetica,Helvetica" font-size="19.0" fill="#677188" transform="matrix(1.00, 0.00, -0.00, -1.00, 196.8, 188.7)">e</text></g></g><g><clipPath id="clip0x600005eb1880"><path d="M 73.6 31.9 L 200.6 31.9 L 200.6 68.9 L 73.6 68.9 Z M 73.6 31.9 "></path></clipPath><g clip-path="url(#clip0x600005eb1880)"><text xml:space="preserve" font-family="Helvetica,Helvetica" font-size="22.0" fill="#E2E2E2" transform="matrix(1.00, 0.00, -0.00, -1.00, 79.6, 42.5)">P</text><text xml:space="preserve" font-family="Helvetica,Helvetica" font-size="22.0" fill="#E2E2E2" transform="matrix(1.00, 0.00, -0.00, -1.00, 94.3, 42.5)">r</text><text xml:space="preserve" font-family="Helvetica,Helvetica" font-size="22.0" fill="#E2E2E2" transform="matrix(1.00, 0.00, -0.00, -1.00, 101.6, 42.5)">o</text><text xml:space="preserve" font-family="Helvetica,Helvetica" font-size="22.0" fill="#E2E2E2" transform="matrix(1.00, 0.00, -0.00, -1.00, 113.9, 42.5)">j</text><text xml:space="preserve" font-family="Helvetica,Helvetica" font-size="22.0" fill="#E2E2E2" transform="matrix(1.00, 0.00, -0.00, -1.00, 118.8, 42.5)">e</text><text xml:space="preserve" font-family="Helvetica,Helvetica" font-size="22.0" fill="#E2E2E2" transform="matrix(1.00, 0.00, -0.00, -1.00, 131.0, 42.5)">c</text><text xml:space="preserve" font-family="Helvetica,Helvetica" font-size="22.0" fill="#E2E2E2" transform="matrix(1.00, 0.00, -0.00, -1.00, 142.0, 42.5)">t</text><text xml:space="preserve" font-family="Helvetica,Helvetica" font-size="22.0" fill="#E2E2E2" transform="matrix(1.00, 0.00, -0.00, -1.00, 148.1, 42.5)"> </text><text xml:space="preserve" font-family="Helvetica,Helvetica" font-size="22.0" fill="#E2E2E2" transform="matrix(1.00, 0.00, -0.00, -1.00, 153.8, 42.5)">T</text><text xml:space="preserve" font-family="Helvetica,Helvetica" font-size="22.0" fill="#E2E2E2" transform="matrix(1.00, 0.00, -0.00, -1.00, 166.5, 42.5)">i</text><text xml:space="preserve" font-family="Helvetica,Helvetica" font-size="22.0" fill="#E2E2E2" transform="matrix(1.00, 0.00, -0.00, -1.00, 171.4, 42.5)">t</text><text xml:space="preserve" font-family="Helvetica,Helvetica" font-size="22.0" fill="#E2E2E2" transform="matrix(1.00, 0.00, -0.00, -1.00, 177.5, 42.5)">l</text><text xml:space="preserve" font-family="Helvetica,Helvetica" font-size="22.0" fill="#E2E2E2" transform="matrix(1.00, 0.00, -0.00, -1.00, 182.4, 42.5)">e</text></g></g><g><clipPath id="clip0x600005eb1f40"><path d="M 1.0 1.3 L 273.2 1.3 L 273.2 32.3 L 1.0 32.3 Z M 1.0 1.3 "></path></clipPath><g clip-path="url(#clip0x600005eb1f40)"><text xml:space="preserve" font-family="Helvetica,Helvetica" font-size="18.0" fill="#E2E2E2" transform="matrix(1.00, 0.00, -0.00, -1.00, 26.1, 9.9)">L</text><text xml:space="preserve" font-family="Helvetica,Helvetica" font-size="18.0" fill="#E2E2E2" transform="matrix(1.00, 0.00, -0.00, -1.00, 36.1, 9.9)">o</text><text xml:space="preserve" font-family="Helvetica,Helvetica" font-size="18.0" fill="#E2E2E2" transform="matrix(1.00, 0.00, -0.00, -1.00, 46.1, 9.9)">r</text><text xml:space="preserve" font-family="Helvetica,Helvetica" font-size="18.0" fill="#E2E2E2" transform="matrix(1.00, 0.00, -0.00, -1.00, 52.1, 9.9)">e</text><text xml:space="preserve" font-family="Helvetica,Helvetica" font-size="18.0" fill="#E2E2E2" transform="matrix(1.00, 0.00, -0.00, -1.00, 62.1, 9.9)">m</text><text xml:space="preserve" font-family="Helvetica,Helvetica" font-size="18.0" fill="#E2E2E2" transform="matrix(1.00, 0.00, -0.00, -1.00, 77.1, 9.9)"> </text><text xml:space="preserve" font-family="Helvetica,Helvetica" font-size="18.0" fill="#E2E2E2" transform="matrix(1.00, 0.00, -0.00, -1.00, 82.1, 9.9)">i</text><text xml:space="preserve" font-family="Helvetica,Helvetica" font-size="18.0" fill="#E2E2E2" transform="matrix(1.00, 0.00, -0.00, -1.00, 86.1, 9.9)">p</text><text xml:space="preserve" font-family="Helvetica,Helvetica" font-size="18.0" fill="#E2E2E2" transform="matrix(1.00, 0.00, -0.00, -1.00, 96.1, 9.9)">s</text><text xml:space="preserve" font-family="Helvetica,Helvetica" font-size="18.0" fill="#E2E2E2" transform="matrix(1.00, 0.00, -0.00, -1.00, 105.1, 9.9)">u</text><text xml:space="preserve" font-family="Helvetica,Helvetica" font-size="18.0" fill="#E2E2E2" transform="matrix(1.00, 0.00, -0.00, -1.00, 115.1, 9.9)">m</text><text xml:space="preserve" font-family="Helvetica,Helvetica" font-size="18.0" fill="#E2E2E2" transform="matrix(1.00, 0.00, -0.00, -1.00, 130.1, 9.9)"> </text><text xml:space="preserve" font-family="Helvetica,Helvetica" font-size="18.0" fill="#E2E2E2" transform="matrix(1.00, 0.00, -0.00, -1.00, 135.1, 9.9)">d</text><text xml:space="preserve" font-family="Helvetica,Helvetica" font-size="18.0" fill="#E2E2E2" transform="matrix(1.00, 0.00, -0.00, -1.00, 145.1, 9.9)">o</text><text xml:space="preserve" font-family="Helvetica,Helvetica" font-size="18.0" fill="#E2E2E2" transform="matrix(1.00, 0.00, -0.00, -1.00, 155.1, 9.9)">l</text><text xml:space="preserve" font-family="Helvetica,Helvetica" font-size="18.0" fill="#E2E2E2" transform="matrix(1.00, 0.00, -0.00, -1.00, 159.1, 9.9)">o</text><text xml:space="preserve" font-family="Helvetica,Helvetica" font-size="18.0" fill="#E2E2E2" transform="matrix(1.00, 0.00, -0.00, -1.00, 169.2, 9.9)">r</text><text xml:space="preserve" font-family="Helvetica,Helvetica" font-size="18.0" fill="#E2E2E2" transform="matrix(1.00, 0.00, -0.00, -1.00, 175.2, 9.9)"> </text><text xml:space="preserve" font-family="Helvetica,Helvetica" font-size="18.0" fill="#E2E2E2" transform="matrix(1.00, 0.00, -0.00, -1.00, 180.2, 9.9)">s</text><text xml:space="preserve" font-family="Helvetica,Helvetica" font-size="18.0" fill="#E2E2E2" transform="matrix(1.00, 0.00, -0.00, -1.00, 189.2, 9.9)">i</text><text xml:space="preserve" font-family="Helvetica,Helvetica" font-size="18.0" fill="#E2E2E2" transform="matrix(1.00, 0.00, -0.00, -1.00, 193.2, 9.9)">t</text><text xml:space="preserve" font-family="Helvetica,Helvetica" font-size="18.0" fill="#E2E2E2" transform="matrix(1.00, 0.00, -0.00, -1.00, 198.2, 9.9)"> </text><text xml:space="preserve" font-family="Helvetica,Helvetica" font-size="18.0" fill="#E2E2E2" transform="matrix(1.00, 0.00, -0.00, -1.00, 203.2, 9.9)">a</text><text xml:space="preserve" font-family="Helvetica,Helvetica" font-size="18.0" fill="#E2E2E2" transform="matrix(1.00, 0.00, -0.00, -1.00, 213.2, 9.9)">m</text><text xml:space="preserve" font-family="Helvetica,Helvetica" font-size="18.0" fill="#E2E2E2" transform="matrix(1.00, 0.00, -0.00, -1.00, 228.2, 9.9)">e</text><text xml:space="preserve" font-family="Helvetica,Helvetica" font-size="18.0" fill="#E2E2E2" transform="matrix(1.00, 0.00, -0.00, -1.00, 238.2, 9.9)">t</text><text xml:space="preserve" font-family="Helvetica,Helvetica" font-size="18.0" fill="#E2E2E2" transform="matrix(1.00, 0.00, -0.00, -1.00, 243.2, 9.9)">.</text></g></g></g></svg>