<?xml version="1.0" encoding="UTF-8" standalone="no"?><svg xmlns="http://www.w3.org/2000/svg" xmlns:xlink="http://www.w3.org/1999/xlink" clip-rule="evenodd" stroke-miterlimit="10" viewBox="0 0 398 25"><desc>SVG generated by Keynote</desc><defs></defs><g transform="matrix(1.00, 0.00, -0.00, -1.00, 0.0, 25.0)"><text xml:space="preserve" font-family="Helvetica,Helvetica" font-size="22.0" fill="#E2E2E2" transform="matrix(1.00, 0.00, -0.00, -1.00, 1.6, 6.6)">d</text><text xml:space="preserve" font-family="Helvetica,Helvetica" font-size="22.0" fill="#E2E2E2" transform="matrix(1.00, 0.00, -0.00, -1.00, 13.8, 6.6)">e</text><text xml:space="preserve" font-family="Helvetica,Helvetica" font-size="22.0" fill="#E2E2E2" transform="matrix(1.00, 0.00, -0.00, -1.00, 26.1, 6.6)">l</text><text xml:space="preserve" font-family="Helvetica,Helvetica" font-size="22.0" fill="#E2E2E2" transform="matrix(1.00, 0.00, -0.00, -1.00, 31.0, 6.6)">e</text><text xml:space="preserve" font-family="Helvetica,Helvetica" font-size="22.0" fill="#E2E2E2" transform="matrix(1.00, 0.00, -0.00, -1.00, 43.2, 6.6)">n</text><text xml:space="preserve" font-family="Helvetica,Helvetica" font-size="22.0" fill="#E2E2E2" transform="matrix(1.00, 0.00, -0.00, -1.00, 55.4, 6.6)">i</text><text xml:space="preserve" font-family="Helvetica,Helvetica" font-size="22.0" fill="#E2E2E2" transform="matrix(1.00, 0.00, -0.00, -1.00, 60.3, 6.6)">t</text><text xml:space="preserve" font-family="Helvetica,Helvetica" font-size="22.0" fill="#E2E2E2" transform="matrix(1.00, 0.00, -0.00, -1.00, 66.4, 6.6)"> </text><text xml:space="preserve" font-family="Helvetica,Helvetica" font-size="22.0" fill="#E2E2E2" transform="matrix(1.00, 0.00, -0.00, -1.00, 72.6, 6.6)">a</text><text xml:space="preserve" font-family="Helvetica,Helvetica" font-size="22.0" fill="#E2E2E2" transform="matrix(1.00, 0.00, -0.00, -1.00, 84.8, 6.6)">u</text><text xml:space="preserve" font-family="Helvetica,Helvetica" font-size="22.0" fill="#E2E2E2" transform="matrix(1.00, 0.00, -0.00, -1.00, 97.0, 6.6)">g</text><text xml:space="preserve" font-family="Helvetica,Helvetica" font-size="22.0" fill="#E2E2E2" transform="matrix(1.00, 0.00, -0.00, -1.00, 109.3, 6.6)">u</text><text xml:space="preserve" font-family="Helvetica,Helvetica" font-size="22.0" fill="#E2E2E2" transform="matrix(1.00, 0.00, -0.00, -1.00, 121.5, 6.6)">e</text><text xml:space="preserve" font-family="Helvetica,Helvetica" font-size="22.0" fill="#E2E2E2" transform="matrix(1.00, 0.00, -0.00, -1.00, 133.8, 6.6)"> </text><text xml:space="preserve" font-family="Helvetica,Helvetica" font-size="22.0" fill="#E2E2E2" transform="matrix(1.00, 0.00, -0.00, -1.00, 139.9, 6.6)">d</text><text xml:space="preserve" font-family="Helvetica,Helvetica" font-size="22.0" fill="#E2E2E2" transform="matrix(1.00, 0.00, -0.00, -1.00, 152.1, 6.6)">u</text><text xml:space="preserve" font-family="Helvetica,Helvetica" font-size="22.0" fill="#E2E2E2" transform="matrix(1.00, 0.00, -0.00, -1.00, 164.3, 6.6)">i</text><text xml:space="preserve" font-family="Helvetica,Helvetica" font-size="22.0" fill="#E2E2E2" transform="matrix(1.00, 0.00, -0.00, -1.00, 169.2, 6.6)">s</text><text xml:space="preserve" font-family="Helvetica,Helvetica" font-size="22.0" fill="#E2E2E2" transform="matrix(1.00, 0.00, -0.00, -1.00, 180.2, 6.6)"> </text><text xml:space="preserve" font-family="Helvetica,Helvetica" font-size="22.0" fill="#E2E2E2" transform="matrix(1.00, 0.00, -0.00, -1.00, 186.3, 6.6)">d</text><text xml:space="preserve" font-family="Helvetica,Helvetica" font-size="22.0" fill="#E2E2E2" transform="matrix(1.00, 0.00, -0.00, -1.00, 198.6, 6.6)">o</text><text xml:space="preserve" font-family="Helvetica,Helvetica" font-size="22.0" fill="#E2E2E2" transform="matrix(1.00, 0.00, -0.00, -1.00, 210.8, 6.6)">l</text><text xml:space="preserve" font-family="Helvetica,Helvetica" font-size="22.0" fill="#E2E2E2" transform="matrix(1.00, 0.00, -0.00, -1.00, 215.7, 6.6)">o</text><text xml:space="preserve" font-family="Helvetica,Helvetica" font-size="22.0" fill="#E2E2E2" transform="matrix(1.00, 0.00, -0.00, -1.00, 228.0, 6.6)">r</text><text xml:space="preserve" font-family="Helvetica,Helvetica" font-size="22.0" fill="#E2E2E2" transform="matrix(1.00, 0.00, -0.00, -1.00, 235.3, 6.6)">e</text><text xml:space="preserve" font-family="Helvetica,Helvetica" font-size="22.0" fill="#E2E2E2" transform="matrix(1.00, 0.00, -0.00, -1.00, 247.5, 6.6)"> </text><text xml:space="preserve" font-family="Helvetica,Helvetica" font-size="22.0" fill="#E2E2E2" transform="matrix(1.00, 0.00, -0.00, -1.00, 253.6, 6.6)">t</text><text xml:space="preserve" font-family="Helvetica,Helvetica" font-size="22.0" fill="#E2E2E2" transform="matrix(1.00, 0.00, -0.00, -1.00, 259.7, 6.6)">e</text><text xml:space="preserve" font-family="Helvetica,Helvetica" font-size="22.0" fill="#E2E2E2" transform="matrix(1.00, 0.00, -0.00, -1.00, 272.0, 6.6)"> </text><text xml:space="preserve" font-family="Helvetica,Helvetica" font-size="22.0" fill="#E2E2E2" transform="matrix(1.00, 0.00, -0.00, -1.00, 278.1, 6.6)">f</text><text xml:space="preserve" font-family="Helvetica,Helvetica" font-size="22.0" fill="#E2E2E2" transform="matrix(1.00, 0.00, -0.00, -1.00, 284.2, 6.6)">e</text><text xml:space="preserve" font-family="Helvetica,Helvetica" font-size="22.0" fill="#E2E2E2" transform="matrix(1.00, 0.00, -0.00, -1.00, 296.4, 6.6)">u</text><text xml:space="preserve" font-family="Helvetica,Helvetica" font-size="22.0" fill="#E2E2E2" transform="matrix(1.00, 0.00, -0.00, -1.00, 308.7, 6.6)">g</text><text xml:space="preserve" font-family="Helvetica,Helvetica" font-size="22.0" fill="#E2E2E2" transform="matrix(1.00, 0.00, -0.00, -1.00, 320.9, 6.6)">a</text><text xml:space="preserve" font-family="Helvetica,Helvetica" font-size="22.0" fill="#E2E2E2" transform="matrix(1.00, 0.00, -0.00, -1.00, 333.1, 6.6)">i</text><text xml:space="preserve" font-family="Helvetica,Helvetica" font-size="22.0" fill="#E2E2E2" transform="matrix(1.00, 0.00, -0.00, -1.00, 338.0, 6.6)">t</text><text xml:space="preserve" font-family="Helvetica,Helvetica" font-size="22.0" fill="#E2E2E2" transform="matrix(1.00, 0.00, -0.00, -1.00, 344.1, 6.6)"> </text><text xml:space="preserve" font-family="Helvetica,Helvetica" font-size="22.0" fill="#E2E2E2" transform="matrix(1.00, 0.00, -0.00, -1.00, 350.3, 6.6)">n</text><text xml:space="preserve" font-family="Helvetica,Helvetica" font-size="22.0" fill="#E2E2E2" transform="matrix(1.00, 0.00, -0.00, -1.00, 362.5, 6.6)">u</text><text xml:space="preserve" font-family="Helvetica,Helvetica" font-size="22.0" fill="#E2E2E2" transform="matrix(1.00, 0.00, -0.00, -1.00, 374.7, 6.6)">l</text><text xml:space="preserve" font-family="Helvetica,Helvetica" font-size="22.0" fill="#E2E2E2" transform="matrix(1.00, 0.00, -0.00, -1.00, 379.6, 6.6)">l</text><text xml:space="preserve" font-family="Helvetica,Helvetica" font-size="22.0" fill="#E2E2E2" transform="matrix(1.00, 0.00, -0.00, -1.00, 384.5, 6.6)">a</text></g></svg>