<?xml version="1.0" encoding="UTF-8" standalone="no"?><svg xmlns="http://www.w3.org/2000/svg" xmlns:xlink="http://www.w3.org/1999/xlink" clip-rule="evenodd" stroke-miterlimit="10" viewBox="0 0 164 70"><desc>SVG generated by Keynote</desc><defs></defs><g transform="matrix(1.00, 0.00, -0.00, -1.00, 0.0, 70.0)"><path d="M 65.1 19.5 C 65.2 19.4 65.3 19.3 65.5 19.3 C 65.4 19.2 65.3 19.2 65.3 19.1 C 65.1 19.2 64.9 19.3 64.6 19.4 C 64.6 19.5 64.8 19.4 64.9 19.4 C 65.0 19.4 65.1 19.5 65.1 19.5 C 65.1 19.5 65.1 19.5 65.1 19.5 Z M 105.0 14.5 C 104.7 14.4 105.0 14.7 105.1 14.7 C 105.2 14.7 105.2 14.6 105.3 14.7 C 105.3 14.9 105.0 14.9 104.8 14.9 C 104.1 14.7 104.7 14.4 105.0 14.5 C 105.0 14.5 105.0 14.5 105.0 14.5 Z M 141.8 27.4 C 142.3 27.7 141.9 27.1 141.8 27.0 C 142.1 27.1 142.1 26.7 142.4 26.8 C 142.4 27.0 142.5 27.1 142.5 27.3 C 142.4 27.2 142.2 27.0 142.1 27.1 C 142.3 27.2 142.6 27.4 142.6 27.5 C 142.1 27.3 142.4 27.6 142.4 27.8 C 142.0 27.6 141.7 27.7 141.8 27.4 C 141.8 27.4 141.8 27.4 141.8 27.4 Z M 27.2 43.7 C 27.0 43.8 26.9 43.9 26.8 43.8 C 27.0 43.6 27.1 43.6 27.2 43.5 C 27.2 43.4 27.0 43.4 27.1 43.3 C 27.4 43.2 27.6 43.5 27.6 43.7 C 27.4 43.6 27.1 44.1 27.2 43.7 C 27.2 43.7 27.2 43.7 27.2 43.7 Z M 39.1 32.2 C 39.6 31.9 38.9 31.9 39.4 31.6 C 39.5 31.8 39.7 32.0 39.4 32.2 C 39.3 32.1 39.2 32.2 39.1 32.2 C 39.1 32.2 39.1 32.2 39.1 32.2 Z M 127.3 18.1 C 127.3 18.3 127.7 18.4 127.5 18.6 C 127.3 18.5 127.2 18.4 127.0 18.3 C 127.0 18.2 127.1 18.1 127.3 18.1 C 127.3 18.1 127.3 18.1 127.3 18.1 Z M 146.9 27.9 C 147.4 28.5 148.2 28.7 147.9 28.7 C 148.0 29.1 147.1 29.0 147.3 28.8 C 147.3 28.5 146.4 27.6 146.9 27.9 C 146.9 27.9 146.9 27.9 146.9 27.9 Z M 108.9 10.9 C 109.6 11.2 109.6 10.5 110.0 10.9 C 109.8 10.8 109.8 10.9 109.7 11.0 C 109.8 11.0 110.0 11.0 110.0 11.1 C 109.6 11.1 109.2 11.1 108.9 10.9 C 108.9 10.9 108.9 10.9 108.9 10.9 Z M 56.1 22.7 C 56.0 22.8 56.0 22.8 56.0 22.9 C 55.6 23.1 55.7 23.2 55.4 23.2 C 55.3 22.9 55.6 22.9 56.0 22.8 C 56.0 22.7 56.0 22.6 56.1 22.7 C 56.1 22.7 56.1 22.7 56.1 22.7 Z M 44.9 28.2 C 45.0 28.3 45.2 28.2 44.9 28.5 C 44.4 28.5 44.6 28.1 44.9 27.7 C 44.9 27.7 44.8 27.6 44.8 27.5 C 44.6 27.6 44.5 27.6 44.4 27.6 C 44.5 28.0 43.8 27.6 43.4 28.2 C 43.6 27.9 43.1 27.9 43.5 27.7 C 43.3 27.6 43.6 27.4 43.4 27.3 C 43.3 27.5 42.9 27.8 43.2 28.0 C 43.0 28.1 42.8 28.2 42.7 28.2 C 42.4 28.1 43.0 27.9 42.7 27.8 C 42.6 27.9 42.5 27.9 42.4 27.9 C 42.5 28.0 42.6 28.1 42.4 28.2 C 42.0 28.4 42.3 27.9 41.8 28.3 C 41.8 28.4 42.0 28.3 42.1 28.4 C 41.9 28.7 41.8 28.6 41.7 28.8 C 41.5 28.8 41.7 28.6 41.5 28.6 C 41.6 29.1 40.9 28.8 40.7 29.3 C 41.3 29.6 40.6 29.3 40.6 29.9 C 40.5 29.8 40.5 29.4 40.2 29.6 C 40.7 30.0 39.5 30.7 40.7 30.4 C 40.2 30.8 40.4 31.3 40.8 31.1 C 39.9 31.5 40.4 31.6 40.1 31.9 C 39.8 32.1 40.2 31.6 39.9 31.6 C 40.2 31.4 40.1 31.3 40.4 31.3 C 40.3 31.2 40.3 31.1 40.3 31.0 C 40.1 31.4 39.5 31.4 39.6 31.0 C 39.8 30.9 39.8 31.2 40.0 31.0 C 39.7 30.8 40.3 30.9 40.2 30.7 C 39.8 30.6 40.1 30.0 39.6 30.3 C 39.7 30.4 39.8 30.5 39.9 30.6 C 39.8 30.7 39.7 30.8 39.5 30.9 C 39.3 30.8 39.3 30.6 39.1 30.6 C 38.9 30.7 38.9 30.9 38.9 31.0 C 39.1 30.9 39.6 30.8 39.2 31.2 C 39.1 30.7 38.6 31.5 38.7 31.0 C 38.2 31.2 38.2 31.7 38.0 31.5 C 37.8 31.7 38.1 31.8 37.8 32.0 C 37.2 32.1 37.5 32.3 36.8 32.6 C 37.0 33.0 36.7 32.6 36.5 32.8 C 36.6 32.9 36.7 33.0 36.8 33.1 C 36.5 33.1 35.9 33.4 35.6 33.9 C 35.4 34.0 35.4 33.7 35.1 34.0 C 35.0 34.6 34.4 34.6 34.2 35.2 C 34.1 35.1 33.8 35.4 33.7 35.6 C 33.6 35.5 33.6 35.2 33.3 35.4 C 33.3 35.7 33.7 35.5 33.4 35.9 C 33.3 35.7 33.2 36.3 33.0 36.1 C 33.1 36.0 33.1 35.8 33.2 35.6 C 33.0 35.8 33.0 35.6 32.8 35.7 C 33.1 35.9 32.6 36.0 32.5 36.0 C 32.6 36.1 32.7 36.2 32.6 36.4 C 32.4 36.5 32.3 36.7 32.2 36.8 C 31.9 37.0 32.2 36.5 32.0 36.7 C 32.3 37.3 31.6 37.0 31.3 37.8 C 31.1 37.8 30.8 37.9 30.5 38.2 C 30.5 38.3 30.8 37.9 30.9 38.0 C 30.4 38.4 31.1 38.1 30.8 38.4 C 30.1 38.9 29.6 39.3 28.8 39.9 C 28.9 40.0 28.5 40.7 28.5 40.6 C 28.6 40.4 27.9 40.7 27.7 40.9 C 27.9 41.2 27.9 41.9 28.0 42.0 C 27.8 42.0 27.8 41.9 27.5 41.7 C 27.0 42.0 27.1 42.5 26.5 42.5 C 26.7 42.6 26.6 42.8 26.5 43.0 C 26.4 42.9 26.3 42.7 26.3 42.5 C 26.1 42.7 26.0 42.7 25.8 42.9 C 26.2 43.5 25.2 43.3 25.6 43.9 C 25.3 44.2 25.2 44.0 24.9 44.3 C 25.0 44.3 25.1 44.5 25.0 44.6 C 25.2 44.3 25.2 44.1 25.4 44.1 C 25.1 44.6 26.7 43.8 26.3 44.7 C 26.2 44.6 26.1 44.4 25.9 44.6 C 25.6 45.0 26.0 45.0 26.2 44.8 C 26.0 45.1 25.7 45.4 26.1 45.3 C 25.6 46.0 25.8 45.5 25.5 45.6 C 24.7 46.9 23.6 48.3 22.1 49.8 C 22.3 50.0 21.4 50.7 21.0 50.8 C 20.8 51.5 20.5 52.0 20.2 51.9 C 20.3 52.2 19.6 52.4 19.8 52.6 C 19.9 52.4 20.1 52.3 20.0 52.6 C 19.4 53.1 18.6 54.1 18.5 54.7 C 18.0 54.7 17.8 55.2 17.7 55.6 C 17.6 55.6 17.7 55.3 17.5 55.5 C 17.6 55.6 17.3 56.4 17.0 56.4 C 17.2 56.3 17.1 55.8 16.9 56.1 C 17.0 56.2 16.7 56.5 16.9 56.6 C 16.6 56.9 16.5 57.3 16.2 57.5 C 16.4 57.2 16.4 57.0 16.3 56.9 C 16.2 57.2 16.2 57.4 15.8 57.5 C 16.2 57.6 15.7 57.9 15.6 58.4 C 15.4 58.5 15.3 58.5 15.1 58.8 C 15.1 59.1 15.6 58.5 15.4 58.9 C 15.3 58.8 15.0 59.1 15.2 59.1 C 14.9 59.5 14.9 59.9 14.4 60.1 C 14.8 59.7 14.3 59.8 14.2 59.9 C 14.1 60.0 14.0 60.2 14.1 60.2 C 14.2 60.3 14.3 60.0 14.4 60.1 C 14.1 60.3 14.4 60.6 14.1 60.6 C 14.2 60.5 14.1 60.4 14.0 60.5 C 14.3 60.8 13.5 61.6 13.5 61.2 C 13.6 61.2 13.8 60.9 13.8 60.8 C 13.6 60.8 13.4 61.4 13.2 61.2 C 13.4 60.8 13.5 61.0 13.7 60.5 C 13.6 60.4 13.7 60.2 13.7 60.0 C 13.3 60.6 13.5 60.9 13.2 60.8 C 13.0 61.1 13.4 61.0 13.1 61.4 C 12.6 62.0 12.7 61.4 12.6 61.5 C 12.3 62.1 12.7 62.1 13.1 62.0 C 12.8 62.4 12.9 62.6 12.5 63.1 C 12.4 63.0 12.3 62.9 12.4 62.7 C 12.5 62.7 12.9 62.4 12.7 62.3 C 12.4 62.2 12.0 62.5 11.7 63.0 C 12.1 63.0 11.9 62.9 11.6 63.5 C 11.9 63.6 11.4 63.7 11.6 63.8 C 11.7 63.9 11.8 63.7 11.9 63.5 C 12.0 63.6 12.0 63.7 12.0 63.9 C 11.8 64.0 11.9 64.1 11.6 64.4 C 11.4 64.3 11.5 64.1 11.4 63.9 C 11.3 64.1 11.4 64.2 11.3 64.4 C 11.0 64.5 10.8 64.3 10.5 64.1 C 10.5 63.9 10.7 63.5 10.4 63.7 C 10.9 62.9 10.7 63.9 10.9 63.7 C 10.8 63.2 11.1 63.6 11.4 63.0 C 11.5 62.8 11.4 62.8 11.4 62.7 C 11.3 62.7 10.9 62.8 11.1 62.5 C 11.3 62.5 11.5 62.4 11.7 62.1 C 11.6 62.0 11.2 62.6 11.5 62.0 C 11.7 61.7 11.8 62.1 12.0 61.7 C 12.0 61.7 12.0 61.6 12.0 61.5 C 11.7 62.1 11.9 61.3 11.5 61.6 C 11.7 61.1 11.8 61.7 12.0 61.4 C 11.9 61.3 12.4 60.9 12.2 60.7 C 12.2 61.0 11.9 61.4 11.7 61.2 C 12.0 60.9 12.8 59.1 12.7 60.0 C 12.8 59.6 13.2 58.3 13.3 58.5 C 13.1 58.8 13.2 58.9 13.3 59.0 C 13.5 58.2 13.9 58.0 14.1 57.1 C 13.5 57.8 13.6 57.0 13.1 57.4 C 13.0 57.6 12.8 57.9 12.8 58.0 C 13.1 58.0 13.2 57.6 13.2 57.4 C 13.4 57.6 13.6 57.7 13.7 57.8 C 13.0 58.5 12.9 59.1 12.6 59.5 C 12.8 59.1 11.9 60.0 12.1 59.5 C 12.3 59.5 12.6 59.0 12.9 58.7 C 12.8 58.7 12.7 58.6 12.7 58.6 C 12.7 58.4 12.9 58.2 12.8 58.2 C 12.6 58.7 12.2 58.8 12.2 59.2 C 12.1 59.2 12.1 59.2 12.0 59.1 C 12.0 59.2 11.9 59.3 11.9 59.2 C 12.0 59.1 12.1 58.9 12.1 58.8 C 11.8 59.1 11.6 59.1 11.3 59.4 C 11.1 59.2 10.5 59.6 10.8 58.9 C 11.0 59.0 11.3 58.7 11.4 58.8 C 11.6 58.6 11.8 58.3 11.8 58.0 C 11.5 58.1 11.3 58.4 11.0 58.3 C 11.2 58.0 11.2 57.7 11.5 57.7 C 11.3 58.3 11.9 57.5 12.3 57.4 C 12.1 57.4 12.0 57.5 11.8 57.5 C 12.1 57.1 12.4 57.0 12.1 56.8 C 12.4 56.2 12.5 56.4 12.8 56.0 C 12.3 56.1 12.8 55.7 12.4 55.8 C 12.7 55.1 12.8 55.8 12.9 55.6 C 13.0 55.3 12.9 55.3 13.0 55.1 C 13.4 54.9 13.8 54.3 14.1 54.4 C 14.2 54.2 14.3 54.2 14.5 53.9 C 14.5 53.8 14.4 53.7 14.5 53.5 C 14.6 53.6 14.8 53.4 14.7 53.3 C 13.9 53.8 14.1 53.6 13.4 54.1 C 13.4 54.3 13.4 54.4 13.6 54.3 C 13.3 54.8 13.1 54.9 12.8 55.3 C 12.6 55.2 12.2 55.1 12.2 55.6 C 12.0 55.4 11.9 55.5 11.9 55.3 C 12.2 55.2 12.5 54.9 12.7 54.7 C 12.7 54.6 12.5 54.6 12.6 54.4 C 12.8 54.3 13.0 54.1 13.0 53.9 C 13.1 54.0 13.2 54.1 13.2 54.2 C 13.7 53.6 13.2 53.6 13.7 53.2 C 13.5 53.2 13.3 53.5 13.4 53.2 C 13.6 52.7 13.8 52.7 14.0 52.5 C 14.0 52.4 13.9 52.4 14.0 52.2 C 14.4 52.0 13.9 53.2 14.6 52.8 C 14.4 52.7 14.8 52.2 15.0 52.2 C 15.1 52.5 14.6 52.6 14.7 52.7 C 15.4 51.8 15.0 52.9 15.9 52.0 C 15.8 51.9 15.7 51.9 15.6 51.8 C 15.3 52.2 15.2 52.1 15.0 52.0 C 14.7 52.3 14.4 52.3 14.3 52.7 C 14.0 52.3 14.5 52.3 14.8 52.0 C 14.6 51.9 14.3 52.2 14.1 52.1 C 14.9 51.4 14.7 51.0 15.6 50.5 C 15.2 50.5 15.9 50.0 15.7 49.9 C 15.2 50.6 14.9 49.9 14.7 50.0 C 14.4 50.5 14.9 50.5 14.9 50.9 C 14.6 50.9 14.5 50.7 14.3 50.5 C 14.6 50.1 14.6 50.2 14.7 49.8 C 15.1 49.6 15.6 49.7 15.4 50.1 C 15.5 50.0 15.7 49.4 15.9 49.5 C 15.5 50.0 16.0 49.5 15.9 49.9 C 16.3 49.6 16.6 48.7 17.1 48.4 C 17.0 48.4 17.1 48.2 17.0 48.1 C 16.8 48.7 16.3 48.5 15.9 48.9 C 16.1 48.7 15.9 48.7 15.7 48.8 C 16.2 48.4 16.2 48.0 16.6 47.9 C 16.6 47.8 16.5 47.8 16.4 47.7 C 17.0 47.3 16.9 47.3 17.1 46.8 C 17.3 46.7 17.5 47.2 17.6 47.4 C 17.7 47.1 18.3 46.5 17.7 46.7 C 18.1 46.3 18.3 46.6 18.6 46.2 C 18.4 46.0 18.1 46.4 18.0 46.1 C 18.2 45.6 18.3 46.1 18.4 45.6 C 18.6 45.7 18.7 45.9 19.0 45.5 C 18.7 45.6 19.0 45.4 18.9 45.2 C 18.8 45.4 18.6 45.5 18.5 45.5 C 19.1 44.9 19.1 44.8 19.5 44.3 C 19.6 44.6 19.9 44.4 19.7 44.8 C 19.8 44.4 20.4 44.2 20.4 44.0 C 20.2 44.1 19.9 44.4 19.7 44.4 C 20.4 43.4 20.6 42.7 21.6 42.2 C 21.5 42.3 21.3 42.5 21.4 42.6 C 21.5 42.5 21.6 42.3 21.6 42.4 C 21.4 42.7 21.1 43.0 21.1 43.2 C 20.8 43.3 21.1 42.9 20.8 43.1 C 20.9 43.3 20.3 43.7 20.7 43.7 C 21.0 43.1 21.5 42.8 22.0 42.9 C 22.0 42.2 21.7 42.6 21.7 41.8 C 21.8 41.9 22.0 41.9 22.1 41.8 C 21.7 41.7 22.3 41.2 22.4 41.2 C 22.3 41.5 21.8 42.4 22.4 42.2 C 21.7 42.0 23.3 41.4 22.7 41.3 C 23.1 40.8 23.2 41.2 23.3 40.7 C 23.3 40.8 23.4 40.9 23.5 40.8 C 23.7 40.6 23.6 40.5 23.6 40.4 C 22.9 41.0 22.9 40.6 22.4 41.0 C 22.5 40.9 22.6 40.9 22.5 40.8 C 22.5 40.8 22.4 40.8 22.5 40.7 C 22.8 40.9 22.8 40.3 23.1 40.3 C 23.0 40.5 22.8 40.6 23.0 40.7 C 23.5 40.0 23.6 40.4 24.4 39.7 C 24.1 39.8 24.4 39.5 24.6 39.2 C 25.0 38.8 25.1 39.2 25.5 38.8 C 25.0 38.4 26.0 38.4 26.3 37.6 C 26.4 37.9 27.2 37.3 27.1 36.9 C 27.2 37.0 27.5 36.7 27.6 36.5 C 27.8 36.6 27.6 36.8 27.8 36.7 C 27.9 36.5 27.6 36.5 27.8 36.3 C 28.1 36.1 28.2 36.3 28.6 36.0 C 28.4 35.8 28.3 36.0 28.3 35.8 C 28.7 35.5 29.0 35.2 28.6 35.3 C 29.0 34.8 29.1 35.4 29.5 35.0 C 29.3 35.0 29.3 34.9 29.5 34.7 C 29.8 34.7 29.8 34.7 30.0 34.8 C 29.9 34.5 29.9 34.5 30.3 34.2 C 30.2 34.2 30.2 34.1 30.1 34.0 C 30.3 33.9 30.5 33.6 30.6 33.6 C 30.2 33.9 30.5 34.0 30.4 34.1 C 30.7 33.9 31.5 33.5 30.9 33.7 C 31.2 33.3 31.2 33.7 31.5 33.3 C 31.1 33.3 31.5 33.3 31.8 33.0 C 31.6 32.8 32.0 32.7 32.2 32.5 C 32.1 32.4 32.0 32.3 32.2 32.1 C 32.3 32.2 32.5 32.1 32.7 31.9 C 32.6 31.8 32.0 32.1 32.5 31.7 C 32.8 31.6 33.0 31.8 33.4 31.5 C 33.6 31.6 33.2 31.9 33.4 32.0 C 33.5 31.6 33.8 31.7 34.2 31.3 C 33.8 31.1 34.7 30.2 34.1 30.4 C 34.2 30.3 34.2 29.9 34.5 30.0 C 34.4 30.2 34.8 30.1 34.8 30.1 C 35.0 29.9 35.5 29.7 35.4 29.5 C 35.0 29.9 34.9 29.7 34.7 29.7 C 35.2 29.1 35.9 28.7 36.0 29.0 C 35.9 28.9 36.0 28.8 36.0 28.8 C 35.8 29.0 35.4 28.8 35.7 28.5 C 35.7 28.8 36.0 28.7 36.2 28.6 C 36.1 28.4 37.2 28.0 36.8 27.8 C 36.6 28.3 36.1 28.2 36.3 27.9 C 36.6 27.9 37.2 27.6 37.2 27.8 C 37.3 27.7 37.4 27.5 37.4 27.4 C 37.4 27.1 37.1 27.3 37.1 27.1 C 37.3 27.0 37.5 26.8 37.6 26.8 C 37.1 27.2 37.9 26.8 37.5 27.3 C 37.8 27.0 38.0 27.1 38.3 27.0 C 38.2 26.9 38.3 26.8 38.3 26.7 C 38.2 27.0 37.9 27.1 37.8 26.8 C 38.2 26.4 38.3 26.7 38.6 26.5 C 38.7 26.2 39.0 25.6 39.3 25.6 C 38.8 25.9 39.4 25.7 39.2 26.0 C 38.7 26.1 38.7 26.4 38.7 26.7 C 38.9 26.7 39.4 26.5 39.2 26.2 C 39.0 26.4 39.1 26.5 39.0 26.6 C 38.9 26.5 38.9 26.4 39.0 26.2 C 39.3 26.2 39.7 25.7 39.6 26.2 C 39.8 25.9 40.3 25.8 40.5 25.4 C 40.1 25.7 39.8 25.8 39.6 25.7 C 39.8 25.4 40.3 25.4 40.2 25.3 C 40.0 25.1 39.6 25.5 39.4 25.4 C 39.6 25.0 40.6 25.1 39.8 25.0 C 40.1 24.9 40.4 24.7 40.6 24.7 C 40.3 24.9 40.8 25.0 40.9 25.0 C 41.1 24.8 41.3 24.6 41.3 24.5 C 41.0 24.8 40.6 24.7 40.8 24.5 C 40.9 24.6 40.9 24.4 41.0 24.3 C 41.1 24.4 41.5 24.1 41.6 24.1 C 41.5 24.0 41.3 24.1 41.2 24.1 C 41.4 23.8 41.6 23.3 41.9 23.5 C 41.8 23.6 41.6 23.7 41.6 23.8 C 42.4 23.7 42.8 23.8 43.7 23.4 C 43.6 23.5 43.6 23.5 43.6 23.6 C 44.1 23.3 44.5 23.2 44.6 23.4 C 44.8 23.2 44.9 22.9 45.0 22.7 C 44.6 22.8 44.6 23.1 44.3 23.1 C 44.4 22.9 43.8 22.8 43.6 22.8 C 43.2 23.3 42.9 23.0 42.5 23.5 C 42.5 23.2 42.0 23.7 42.1 23.4 C 42.8 23.4 43.1 22.8 44.0 22.5 C 44.0 22.7 44.0 22.9 44.3 22.8 C 44.9 22.6 44.5 22.4 44.9 22.2 C 45.2 22.3 45.0 22.5 45.2 22.4 C 45.3 22.3 45.7 22.1 45.9 22.2 C 45.4 22.5 46.1 22.3 45.8 22.6 C 46.0 22.5 46.1 22.5 46.3 22.4 C 45.6 22.5 46.6 21.8 46.1 21.9 C 46.7 21.4 46.5 22.4 47.0 22.0 C 46.6 22.0 47.0 21.7 47.4 21.5 C 47.6 21.6 48.1 21.4 48.5 21.3 C 48.2 21.2 48.1 21.3 48.3 21.0 C 48.1 21.0 47.8 21.2 47.7 21.4 C 47.7 21.3 47.6 21.3 47.4 21.3 C 47.8 21.0 47.6 21.0 47.7 20.8 C 47.9 20.9 48.2 20.7 48.4 20.7 C 48.3 20.7 48.4 20.6 48.4 20.5 C 47.8 20.8 48.3 20.2 47.9 20.3 C 47.7 20.5 48.0 20.6 47.7 20.8 C 47.2 20.7 47.8 20.3 47.8 20.1 C 47.4 20.0 47.3 20.5 47.1 20.3 C 47.2 19.8 47.9 19.7 48.4 19.5 C 48.2 19.3 49.1 19.2 49.0 18.8 C 49.1 18.9 49.2 18.9 49.4 18.9 C 49.4 18.6 49.7 18.8 49.8 18.7 C 49.8 18.6 49.7 18.5 49.5 18.5 C 50.1 18.3 50.3 18.3 50.9 17.8 C 51.0 17.9 51.2 18.0 51.4 18.1 C 51.2 18.2 51.1 18.3 51.0 18.5 C 51.9 18.0 51.0 17.7 51.9 17.8 C 51.8 17.7 51.2 17.6 51.5 17.4 C 52.2 17.4 52.9 16.7 53.2 17.4 C 53.8 17.3 53.9 16.8 54.3 16.9 C 54.4 16.8 54.4 16.7 54.5 16.6 C 54.3 16.6 54.0 16.6 53.8 16.5 C 53.5 16.8 53.3 16.7 53.7 16.8 C 53.3 17.1 53.1 17.0 52.8 17.0 C 53.4 16.5 54.0 16.5 53.9 16.1 C 54.2 16.2 54.4 16.2 54.6 16.3 C 54.6 16.1 55.3 15.7 55.5 15.9 C 55.0 16.1 54.6 16.6 55.1 16.5 C 56.2 15.8 57.0 16.0 58.0 15.3 C 58.0 15.4 58.0 15.6 58.2 15.5 C 58.2 15.4 58.2 15.3 58.2 15.1 C 58.6 15.0 58.8 15.0 59.2 14.8 C 59.3 15.0 59.4 15.2 59.7 15.1 C 59.7 14.9 60.0 14.2 60.3 14.2 C 60.0 14.3 60.5 14.5 60.7 14.4 C 60.4 14.2 62.0 14.2 61.5 14.0 C 62.0 13.8 62.4 13.8 62.4 13.9 C 62.6 13.8 62.7 13.7 62.9 13.6 C 63.2 13.8 64.2 13.2 64.4 13.3 C 64.0 13.3 64.0 13.7 64.3 13.6 C 64.4 13.3 65.3 12.8 65.5 12.8 C 65.5 12.9 65.5 13.2 65.0 13.4 C 65.8 13.2 65.7 12.8 65.9 12.5 C 66.0 12.9 66.3 12.5 66.4 12.4 C 66.6 12.5 66.4 12.5 66.4 12.7 C 66.7 12.6 66.9 12.7 67.2 12.6 C 67.1 12.4 67.5 12.4 67.7 12.4 C 67.7 12.2 67.8 12.1 68.2 11.9 C 67.8 12.5 70.2 11.8 69.5 11.7 C 69.9 11.3 70.1 11.8 70.6 11.6 C 70.7 11.5 71.1 11.5 70.7 11.4 C 71.2 11.2 71.0 11.6 71.5 11.3 C 71.2 11.1 72.1 11.3 71.9 10.9 C 72.2 11.3 72.6 10.6 73.1 10.8 C 73.1 10.8 73.2 10.7 73.3 10.7 C 73.3 10.5 72.6 10.6 73.0 10.5 C 73.6 10.5 73.3 10.7 73.4 10.8 C 74.8 10.3 76.5 10.1 78.0 9.9 C 77.8 9.8 77.8 9.8 78.1 9.7 C 78.6 10.0 80.2 9.5 80.5 9.3 C 80.7 9.6 81.5 9.2 81.7 9.3 C 81.5 9.3 81.2 9.6 81.6 9.6 C 81.8 9.2 82.1 9.4 82.4 9.1 C 82.7 9.4 83.7 9.0 83.3 9.5 C 83.5 9.5 83.6 9.5 83.7 9.5 C 83.7 9.2 83.9 9.3 83.5 9.2 C 84.5 9.2 84.7 9.0 85.5 9.1 C 85.6 9.0 85.0 8.9 85.5 8.8 C 85.5 8.8 85.5 8.9 85.5 9.0 C 85.7 8.9 85.7 8.8 85.8 8.9 C 85.8 9.1 85.5 9.0 85.5 9.3 C 85.9 9.2 86.2 9.5 86.3 9.3 C 85.8 9.3 86.1 8.8 86.4 9.0 C 86.1 9.2 87.6 8.9 88.0 8.7 C 88.3 9.0 87.5 8.8 87.6 9.0 C 88.5 8.9 88.4 9.0 88.5 8.7 C 89.0 8.8 89.2 8.9 89.7 8.7 C 90.0 8.8 89.5 8.9 89.9 9.0 C 90.1 8.9 90.2 8.7 90.5 8.7 C 91.3 9.2 93.2 8.3 94.1 9.1 C 93.7 8.9 94.2 8.7 94.7 8.8 C 94.7 8.9 94.7 9.0 94.8 9.0 C 94.8 8.8 95.0 8.8 95.3 8.8 C 95.3 8.9 95.3 9.0 95.4 9.0 C 95.6 8.7 96.0 9.0 96.2 8.9 C 96.3 9.1 95.6 9.0 95.6 9.2 C 96.4 9.4 96.5 9.1 97.1 9.2 C 96.8 9.2 97.3 9.5 97.4 9.5 C 97.3 9.2 97.7 9.2 97.4 9.0 C 97.6 9.0 98.0 9.0 98.0 9.1 C 97.9 9.1 97.7 9.1 97.7 9.2 C 98.0 9.1 98.3 9.4 98.4 9.2 C 98.3 9.1 98.1 9.1 98.1 8.9 C 98.2 8.8 98.3 8.8 98.5 8.7 C 98.0 9.3 99.3 9.1 99.3 8.9 C 99.4 9.3 99.5 9.3 99.5 9.5 C 100.0 9.5 99.9 9.3 100.2 9.2 C 100.1 9.5 100.0 9.7 100.5 9.9 C 100.4 9.5 101.0 9.6 100.8 9.2 C 102.1 9.2 102.3 9.6 103.1 9.7 C 103.1 9.6 102.9 9.5 103.1 9.5 C 103.4 9.6 103.7 9.8 103.9 9.9 C 104.1 9.7 103.9 9.7 104.1 9.6 C 104.6 9.9 104.5 10.2 104.9 10.4 C 105.5 10.3 105.3 10.4 105.7 10.2 C 105.6 10.2 105.4 10.0 105.6 10.0 C 105.9 10.3 106.0 10.6 106.1 10.7 C 105.8 10.6 105.6 10.6 105.5 10.5 C 105.4 10.7 105.1 10.6 105.3 10.8 C 105.0 10.7 104.6 10.6 104.0 10.6 C 104.2 10.9 103.5 10.6 103.7 10.9 C 104.3 10.9 104.4 11.1 105.0 11.1 C 104.9 10.8 105.5 11.0 105.6 11.1 C 105.6 10.9 106.0 11.0 105.9 10.8 C 106.4 10.8 106.4 11.0 106.8 11.0 C 106.8 11.1 106.7 11.2 106.9 11.3 C 107.1 11.0 107.2 11.4 107.3 11.4 C 107.3 11.1 107.9 11.4 108.0 11.2 C 107.8 11.1 107.6 11.1 107.6 11.0 C 108.3 11.2 107.7 10.8 107.6 10.6 C 107.6 10.7 107.3 11.0 107.3 10.8 C 107.9 10.7 106.5 10.3 107.0 10.5 C 107.5 10.6 107.5 10.4 107.9 10.5 C 108.4 11.0 107.7 11.2 108.2 11.6 C 108.6 11.5 108.8 11.5 108.9 11.3 C 108.9 11.4 109.0 11.5 109.1 11.6 C 109.3 11.5 108.7 11.3 109.2 11.3 C 109.4 11.4 109.1 11.7 109.6 11.7 C 109.8 11.5 109.0 11.3 109.5 11.3 C 109.9 11.8 109.4 11.2 109.9 11.3 C 110.0 11.3 110.0 11.4 110.2 11.4 C 110.2 11.5 110.1 11.7 110.3 11.7 C 110.5 11.3 110.5 11.9 110.9 11.9 C 111.1 11.7 110.5 11.7 110.7 11.5 C 111.1 11.8 111.4 11.6 111.5 11.6 C 111.1 11.8 112.1 11.9 112.0 12.1 C 112.0 11.8 112.2 12.0 112.7 11.9 C 112.7 12.3 113.3 12.1 113.3 12.5 C 113.4 12.4 113.6 12.3 113.7 12.2 C 113.5 12.2 113.4 12.2 113.4 12.0 C 113.6 12.1 113.7 12.1 113.9 12.1 C 114.1 12.4 113.4 12.7 114.3 12.9 C 114.3 12.5 114.7 12.6 115.0 12.5 C 115.0 12.3 114.6 12.5 114.6 12.3 C 115.0 12.2 115.3 12.5 115.4 12.7 C 116.0 12.7 116.7 13.0 117.5 13.1 C 117.6 13.3 116.8 13.1 117.3 13.4 C 117.5 13.4 117.5 13.2 117.8 13.3 C 117.2 14.3 119.9 14.1 119.9 14.6 C 120.1 14.4 120.7 14.7 120.7 14.4 C 120.2 14.5 120.0 14.1 119.8 13.9 C 119.3 13.9 120.1 14.2 119.7 14.2 C 119.7 14.0 119.1 14.0 119.2 13.8 C 119.8 13.9 118.9 13.5 119.5 13.4 C 120.0 13.6 121.2 13.7 120.9 13.9 C 120.9 13.8 120.7 13.7 120.6 13.8 C 121.2 14.1 121.7 14.0 122.0 14.0 C 122.2 14.2 123.5 14.3 123.1 14.3 C 123.2 14.6 122.5 14.1 122.5 14.3 C 123.7 14.8 123.8 14.6 124.5 15.0 C 124.3 14.7 125.5 14.9 125.3 15.0 C 125.2 15.2 125.4 15.5 126.0 15.4 C 125.8 15.6 126.0 15.8 126.3 15.9 C 126.5 15.8 126.1 15.7 126.3 15.5 C 126.5 15.6 126.7 15.7 127.0 15.8 C 127.0 15.9 126.9 16.0 127.0 16.1 C 127.4 16.0 128.4 16.2 128.3 16.3 C 127.7 16.4 128.8 16.8 128.1 16.7 C 128.3 16.8 128.2 16.9 128.5 17.0 C 128.5 16.9 128.6 16.8 128.6 16.7 C 129.1 16.8 128.7 17.1 129.2 17.3 C 129.2 17.2 129.4 17.3 129.5 17.2 C 129.4 17.1 129.3 17.2 129.1 17.1 C 129.5 16.9 128.7 16.7 128.8 16.5 C 129.3 16.7 129.3 16.9 129.4 17.1 C 130.1 17.2 129.8 17.1 130.4 17.5 C 130.4 17.4 130.3 17.3 130.4 17.2 C 131.1 17.6 130.8 18.0 131.5 18.1 C 131.3 18.1 130.8 18.0 131.1 18.2 C 131.5 18.3 131.7 18.1 132.2 18.3 C 132.2 18.4 132.1 18.5 132.3 18.6 C 132.5 18.6 132.6 18.4 132.9 18.4 C 132.8 18.5 133.1 18.6 133.3 18.6 C 133.4 18.8 133.1 18.8 133.3 18.9 C 133.7 19.1 134.2 18.7 134.5 19.0 C 134.3 19.2 134.7 19.3 135.1 19.4 C 135.0 19.8 135.8 20.0 136.2 20.3 C 136.2 20.1 136.7 20.4 136.7 20.1 C 136.4 20.0 136.3 19.9 136.3 19.8 C 136.9 20.0 136.8 20.6 137.4 20.4 C 137.5 20.7 137.7 20.9 138.0 21.2 C 138.1 21.1 137.5 20.6 137.9 20.8 C 137.9 20.9 138.0 20.9 138.2 20.9 C 138.0 21.1 138.3 21.3 138.4 21.6 C 138.8 21.6 139.3 22.2 139.1 21.8 C 139.7 22.0 139.1 22.2 139.5 22.4 C 139.5 22.0 140.1 22.4 139.9 22.0 C 140.5 22.2 140.2 22.6 139.9 22.6 C 140.4 22.9 140.6 22.8 140.8 23.0 C 140.6 22.7 141.4 23.0 141.0 22.9 C 140.8 23.1 141.4 23.3 141.4 23.4 C 141.3 23.2 141.6 23.3 141.3 23.0 C 141.7 23.2 142.3 23.4 142.5 23.9 C 143.0 24.0 143.4 24.2 143.1 24.3 C 143.5 24.5 143.4 24.4 143.8 24.7 C 143.8 24.7 143.7 24.6 143.7 24.5 C 144.3 24.9 144.1 24.9 144.8 25.4 C 144.6 25.6 145.1 25.9 145.1 26.1 C 144.8 25.9 144.6 25.7 144.4 25.5 C 144.3 25.6 144.5 25.8 144.3 25.7 C 144.3 25.6 144.2 25.5 144.1 25.4 C 144.4 25.9 143.2 25.4 143.7 25.4 C 143.7 25.4 143.7 25.5 143.8 25.5 C 143.9 25.3 143.8 25.3 144.0 25.2 C 143.7 25.1 143.7 24.7 143.5 24.9 C 143.4 25.0 143.7 25.1 143.7 25.2 C 143.0 24.9 143.7 24.8 143.1 24.5 C 142.9 24.7 143.1 24.9 143.2 25.1 C 142.7 24.9 142.3 24.6 142.3 24.4 C 141.8 24.3 142.2 24.6 141.9 24.5 C 141.8 24.4 141.9 24.2 141.6 24.0 C 141.3 23.9 141.7 24.3 141.4 24.1 C 141.1 23.8 141.8 24.0 141.3 23.6 C 141.2 24.0 140.9 23.3 140.8 23.5 C 141.1 23.7 140.9 24.0 140.9 23.7 C 140.4 23.0 139.5 23.6 139.2 22.7 C 139.1 22.8 139.0 22.7 138.9 22.8 C 139.3 23.2 140.1 23.6 140.0 24.0 C 140.4 24.2 140.5 23.9 140.6 23.9 C 140.9 24.4 140.9 24.4 140.4 24.6 C 139.6 24.2 139.4 23.9 138.9 23.5 C 138.5 23.5 138.9 23.6 138.9 23.8 C 137.5 22.7 138.3 24.0 137.8 23.6 C 137.9 23.5 137.8 23.4 137.6 23.3 C 137.6 23.4 137.4 23.2 137.3 23.3 C 137.4 23.3 137.4 23.4 137.3 23.5 C 136.9 23.3 137.2 23.2 137.2 23.0 C 137.5 23.2 137.7 23.3 137.9 23.2 C 137.4 23.1 137.2 22.7 136.8 22.8 C 136.6 22.3 137.4 22.3 137.3 22.0 C 137.4 21.8 136.7 22.4 136.4 22.3 C 135.9 22.1 135.8 22.3 135.3 22.1 C 135.3 21.8 135.8 22.2 135.9 22.0 C 135.8 21.9 135.8 21.9 135.7 21.8 C 135.3 21.6 135.2 21.9 135.0 21.8 C 134.9 21.5 134.8 21.6 134.6 21.6 C 134.3 21.3 134.8 21.5 134.5 21.3 C 134.2 21.1 133.8 21.3 133.7 21.2 C 133.8 21.1 133.9 21.0 133.7 20.9 C 133.3 20.9 133.2 20.9 133.6 21.2 C 133.2 21.0 132.9 21.0 132.9 21.2 C 133.5 21.6 133.7 21.6 133.8 22.0 C 134.1 21.9 134.2 22.1 134.4 22.3 C 134.4 21.9 134.7 22.4 134.9 22.3 C 134.8 22.2 134.6 22.1 134.6 21.9 C 135.2 22.3 135.2 22.3 135.9 22.3 C 135.9 22.4 135.9 22.5 135.9 22.6 C 135.7 22.6 135.3 22.3 135.2 22.4 C 135.4 22.9 135.8 22.5 136.0 23.1 C 136.3 23.0 135.8 22.6 136.2 22.8 C 136.3 23.0 136.4 23.2 136.7 23.5 C 137.0 23.6 137.2 23.5 137.4 23.6 C 137.4 23.7 137.4 23.8 137.6 23.9 C 137.7 23.8 137.5 23.6 137.8 23.7 C 138.3 24.3 138.7 24.8 139.4 25.1 C 139.2 24.9 138.8 24.3 139.1 24.5 C 139.3 24.8 139.9 24.8 140.1 25.2 C 140.1 25.3 139.7 24.9 139.6 25.3 C 140.0 25.4 140.1 25.6 140.3 25.7 C 140.3 25.6 140.7 25.8 140.7 25.6 C 140.5 25.4 140.2 25.6 140.2 25.5 C 140.8 25.1 141.1 26.3 141.5 26.6 C 141.9 26.7 141.4 26.2 141.8 26.4 C 142.1 26.4 142.0 27.0 141.5 26.9 C 141.4 26.6 141.1 26.8 141.2 26.6 C 141.1 26.5 140.9 26.4 140.9 26.5 C 141.1 26.6 140.9 26.7 141.0 26.8 C 140.8 26.6 140.5 27.0 140.4 26.7 C 140.6 26.7 140.7 26.7 140.8 26.7 C 140.0 26.3 139.9 26.0 139.6 25.7 C 139.7 26.0 139.5 25.8 139.4 26.0 C 139.8 26.1 140.3 26.6 139.9 26.4 C 139.8 26.0 139.2 26.6 139.1 26.2 C 139.3 26.3 139.4 26.1 139.5 26.1 C 139.3 25.9 139.4 25.8 139.1 25.6 C 138.1 25.4 137.7 24.5 136.1 24.2 C 135.6 24.0 136.6 24.4 136.6 24.2 C 136.5 24.1 136.5 24.0 136.4 24.0 C 136.3 24.2 136.2 23.8 135.9 24.0 C 136.0 23.8 135.3 23.6 135.1 23.3 C 135.0 23.4 135.0 23.5 134.8 23.4 C 134.0 22.6 132.0 22.2 131.4 21.6 C 131.3 21.8 131.0 21.6 130.9 21.7 C 130.4 21.5 130.7 21.4 129.9 21.3 C 129.6 21.2 130.1 21.2 130.1 21.1 C 129.1 20.8 128.3 20.2 127.5 20.2 C 127.1 20.1 127.6 20.0 126.9 19.7 C 126.8 20.0 125.9 19.1 125.6 19.5 C 125.2 19.3 124.6 18.6 124.8 19.1 C 124.2 18.9 124.7 18.7 124.5 18.6 C 124.1 18.5 124.4 19.2 124.0 19.1 C 124.1 18.9 123.8 18.9 123.6 18.6 C 123.9 18.7 124.1 18.7 124.2 18.6 C 123.9 18.6 123.9 18.5 123.5 18.4 C 123.1 18.4 122.1 18.3 122.0 17.8 C 121.9 17.9 122.0 18.0 122.0 18.1 C 121.8 18.1 121.5 17.7 121.5 18.0 C 120.8 17.8 120.6 17.5 120.2 17.6 C 119.9 17.6 120.4 17.4 119.6 17.2 C 119.5 17.4 118.1 16.9 117.8 16.6 C 117.7 17.0 117.7 16.6 117.5 16.6 C 117.4 16.7 117.5 16.8 117.3 16.8 C 117.3 16.7 117.1 16.7 117.0 16.7 C 117.2 16.3 116.5 16.7 116.5 16.4 C 116.6 16.4 116.7 16.2 116.6 16.1 C 116.4 16.4 116.0 15.8 116.0 16.1 C 116.1 16.2 116.5 16.2 116.3 16.4 C 115.8 16.4 116.1 16.1 115.7 16.0 C 115.7 16.1 115.9 16.2 115.6 16.2 C 115.3 16.1 115.6 16.2 115.4 15.9 C 115.2 15.9 114.8 16.0 114.6 16.0 C 114.7 16.0 114.6 15.8 114.5 15.8 C 113.8 15.5 112.1 15.5 111.5 15.0 C 111.4 15.1 111.3 15.1 111.3 15.3 C 110.9 15.0 110.9 15.1 110.5 14.9 C 110.4 15.0 110.4 15.1 110.4 15.2 C 109.8 15.3 110.4 14.9 110.0 14.9 C 109.9 15.4 109.8 14.6 109.5 14.6 C 109.4 14.7 109.3 14.7 109.3 14.9 C 108.8 14.8 108.8 14.4 108.4 14.5 C 108.5 14.5 108.4 15.3 108.3 15.5 C 108.3 15.4 108.1 15.3 107.9 15.2 C 108.2 15.0 108.2 14.1 107.5 14.3 C 107.9 14.3 108.0 14.4 107.9 14.6 C 107.4 14.5 107.2 14.3 106.8 14.2 C 106.7 14.5 107.0 14.6 106.8 14.8 C 106.7 14.8 106.7 14.9 106.7 15.0 C 106.2 14.8 106.2 14.6 105.7 14.7 C 105.7 14.6 105.8 14.6 106.0 14.7 C 106.0 14.5 106.0 14.3 106.3 14.3 C 106.4 14.5 106.1 14.7 106.6 14.7 C 106.6 14.6 106.6 14.4 106.6 14.3 C 106.3 14.2 105.6 14.0 105.5 14.1 C 105.7 14.2 105.9 14.3 105.7 14.5 C 105.2 14.4 105.1 14.1 104.7 13.9 C 103.9 13.9 102.5 13.7 102.6 14.1 C 102.2 13.9 102.3 13.9 101.9 13.8 C 102.0 14.1 101.5 13.9 101.5 14.1 C 102.0 14.1 101.8 14.1 102.3 14.1 C 102.3 14.3 102.2 14.4 102.0 14.4 C 102.0 14.3 101.8 14.2 101.5 14.2 C 101.5 14.2 101.8 14.5 101.4 14.5 C 101.4 14.4 101.3 14.4 101.2 14.4 C 101.2 14.3 101.2 14.1 101.2 14.0 C 101.4 13.9 101.6 13.9 101.8 13.8 C 101.7 13.8 101.6 13.7 101.5 13.7 C 101.4 13.8 100.8 13.7 100.8 13.8 C 101.0 13.8 101.2 14.0 100.9 14.0 C 100.9 13.9 100.5 13.8 100.3 13.9 C 100.8 14.1 100.6 14.1 100.9 14.4 C 100.3 14.4 100.4 14.1 99.8 14.1 C 99.8 14.0 99.8 13.8 99.9 13.7 C 99.6 13.2 98.6 13.6 98.2 13.5 C 98.5 13.5 98.7 13.2 98.4 13.2 C 98.4 13.3 98.1 13.3 98.1 13.3 C 98.0 13.8 98.2 14.0 98.5 14.3 C 98.2 14.3 98.2 14.4 97.9 14.4 C 97.8 14.2 98.1 13.8 97.8 13.8 C 97.7 14.2 97.2 13.8 97.1 14.1 C 97.3 14.1 97.4 14.2 97.2 14.3 C 97.3 14.1 96.8 14.2 96.8 14.0 C 97.2 13.9 97.3 13.7 97.5 13.7 C 97.2 13.7 97.7 13.5 97.2 13.5 C 97.0 13.6 96.9 13.8 96.4 13.8 C 96.2 13.8 96.4 13.5 96.1 13.5 C 96.2 13.8 95.6 13.8 95.9 13.6 C 95.7 13.6 95.6 13.5 95.5 13.5 C 95.8 13.7 94.5 14.0 94.7 14.2 C 94.7 13.9 94.6 13.6 94.5 13.5 C 94.3 13.8 94.0 13.5 93.2 13.6 C 93.3 13.9 93.1 13.6 92.8 13.7 C 92.8 13.8 93.0 13.9 92.8 13.9 C 92.5 13.8 92.5 13.8 92.4 13.7 C 92.1 13.7 91.9 13.7 91.8 13.6 C 91.8 13.7 91.9 13.8 92.0 13.8 C 91.0 13.6 90.5 13.9 89.7 13.9 C 90.0 14.0 90.1 13.6 89.8 13.7 C 89.6 13.7 89.5 13.8 89.4 13.9 C 89.6 14.1 89.5 14.0 89.1 14.0 C 88.8 14.1 89.3 14.3 89.0 14.4 C 88.7 14.2 88.9 14.1 88.7 14.1 C 88.6 14.1 88.4 14.1 88.3 14.1 C 88.5 14.2 88.3 14.3 88.0 14.4 C 88.2 14.1 88.1 14.1 87.6 14.2 C 87.5 14.1 87.8 14.0 87.5 14.0 C 87.4 14.0 87.1 14.3 86.7 14.1 C 86.8 14.1 86.9 14.1 86.8 14.0 C 86.5 14.2 86.1 13.9 85.8 13.8 C 86.2 14.0 86.0 14.2 86.2 14.3 C 85.8 14.2 85.4 14.5 85.1 14.2 C 85.6 14.2 85.1 13.7 84.8 13.8 C 84.7 14.0 85.3 13.9 85.1 14.2 C 85.0 14.4 84.6 14.1 84.4 14.4 C 84.5 14.5 84.6 14.3 84.7 14.4 C 84.5 14.5 84.8 14.5 84.6 14.6 C 84.4 14.3 84.3 14.7 84.2 14.7 C 84.0 14.7 83.6 14.4 83.4 14.6 C 83.5 14.7 83.7 14.6 83.7 14.7 C 83.0 14.9 82.7 14.6 82.1 15.0 C 82.0 14.9 81.8 14.8 81.6 14.8 C 81.6 15.0 81.5 15.0 81.4 15.1 C 81.0 15.0 80.7 14.9 80.3 14.9 C 80.4 14.7 80.5 14.6 80.0 14.7 C 80.0 14.8 80.2 14.8 80.0 14.8 C 80.0 14.8 79.9 14.8 79.9 14.9 C 79.9 14.9 79.9 15.0 79.9 15.0 C 80.0 15.0 80.2 15.0 80.3 14.9 C 80.3 15.1 80.4 15.2 80.5 15.2 C 79.9 15.4 79.9 15.0 79.5 15.2 C 79.4 14.9 79.2 14.8 79.5 14.5 C 79.2 14.6 78.9 14.8 78.9 15.0 C 79.3 14.9 79.2 15.2 79.4 15.3 C 79.1 15.4 79.1 15.5 79.0 15.6 C 78.6 15.5 79.2 15.1 78.6 15.2 C 79.1 15.4 78.3 15.5 77.9 15.4 C 78.0 15.5 78.1 15.5 78.0 15.7 C 77.2 16.0 77.1 15.2 76.7 15.7 C 76.7 15.5 76.4 15.6 76.3 15.5 C 76.7 15.4 76.8 15.3 77.0 15.2 C 77.0 15.1 76.8 15.1 76.7 15.1 C 76.7 15.3 76.6 15.3 76.4 15.3 C 76.3 15.4 76.4 15.8 76.2 16.1 C 76.1 16.0 76.1 15.8 76.0 15.9 C 75.8 16.1 76.0 15.4 75.3 15.7 C 75.5 15.7 75.6 15.8 75.5 16.0 C 75.2 16.2 75.3 16.1 74.9 16.3 C 74.6 15.9 75.1 15.7 75.1 15.5 C 74.8 15.6 74.7 15.9 74.3 15.8 C 74.6 15.9 74.4 16.1 74.1 16.3 C 73.9 16.3 74.1 15.9 73.7 15.9 C 73.5 16.1 73.5 16.3 73.7 16.4 C 73.2 16.4 73.4 16.7 72.9 16.7 C 72.9 16.6 73.0 16.5 73.2 16.6 C 73.1 16.5 73.1 16.4 73.0 16.4 C 72.7 16.7 72.1 16.9 71.8 17.1 C 71.1 16.8 70.5 17.6 69.8 17.6 C 70.0 17.3 69.0 17.8 68.6 17.6 C 68.5 17.8 68.0 18.4 68.2 18.2 C 68.0 17.9 67.7 18.1 67.4 18.1 C 67.4 18.2 67.4 18.3 67.5 18.3 C 66.9 18.6 66.6 18.4 66.4 18.3 C 65.7 18.7 64.7 18.7 63.9 19.3 C 63.5 19.1 63.4 19.2 62.8 19.2 C 62.9 19.4 62.5 19.6 62.2 19.7 C 62.3 19.9 61.9 20.0 62.0 20.2 C 62.3 20.0 62.3 20.3 62.5 20.4 C 62.0 20.3 62.0 20.9 61.5 20.8 C 61.9 20.5 61.9 20.1 61.9 19.8 C 61.3 20.1 61.0 20.1 60.9 19.9 C 60.9 20.1 61.0 20.2 61.1 20.2 C 61.0 20.3 60.8 20.4 60.6 20.5 C 60.5 20.3 60.7 20.2 60.5 20.2 C 60.4 20.4 60.3 20.5 60.2 20.6 C 60.0 20.5 60.4 20.4 60.4 20.2 C 59.6 20.4 60.1 20.7 59.8 21.0 C 59.6 20.9 59.5 20.6 59.2 20.7 C 59.1 20.9 59.2 21.1 58.9 21.3 C 58.6 21.4 58.7 21.0 58.4 21.1 C 58.4 21.2 58.3 21.2 58.2 21.2 C 58.2 21.3 58.2 21.4 58.0 21.5 C 57.9 21.4 57.7 21.6 57.6 21.7 C 57.6 21.6 57.0 21.5 57.0 21.7 C 57.1 21.8 57.3 21.7 57.3 21.7 C 57.0 21.8 56.9 22.0 56.7 22.1 C 56.4 21.6 56.1 22.3 55.4 22.3 C 55.2 22.6 55.7 22.6 55.3 23.0 C 55.0 23.0 55.3 22.8 55.1 22.6 C 55.0 22.6 54.5 22.6 54.6 22.8 C 54.6 22.9 54.8 22.8 54.9 22.8 C 54.7 23.2 54.6 22.9 54.3 23.0 C 54.4 23.1 54.2 23.3 54.3 23.4 C 53.4 24.0 53.2 23.6 52.8 23.7 C 52.8 23.8 52.6 23.8 52.6 23.9 C 52.8 23.7 53.3 23.7 52.9 23.9 C 52.9 23.8 52.5 24.2 52.5 24.3 C 52.6 24.4 52.9 24.1 52.9 24.4 C 52.5 24.8 52.4 24.2 52.2 24.6 C 52.1 24.5 52.3 24.4 52.3 24.3 C 52.2 24.3 52.0 24.5 51.9 24.4 C 52.1 24.3 52.0 24.1 52.0 23.9 C 51.8 24.2 51.3 24.3 51.8 24.4 C 51.2 24.6 50.8 25.0 51.3 25.0 C 50.9 25.3 51.0 24.9 50.8 25.3 C 50.7 25.0 50.7 24.8 50.3 24.8 C 50.3 24.9 50.2 25.1 50.3 25.3 C 49.7 25.6 49.4 25.5 49.0 25.4 C 49.4 25.6 49.0 25.5 48.8 25.9 C 48.6 25.9 48.6 25.6 48.2 25.9 C 48.9 25.9 47.6 26.4 48.1 26.6 C 47.4 26.8 47.4 26.8 46.7 27.1 C 46.7 26.9 46.8 26.7 47.0 26.5 C 47.0 26.9 47.7 26.4 47.6 26.3 C 47.5 26.3 47.5 26.2 47.5 26.2 C 47.0 26.5 46.7 26.6 46.4 26.6 C 46.4 26.9 46.3 27.1 46.5 27.3 C 45.9 27.3 45.7 27.9 45.3 27.8 C 45.5 27.7 45.6 27.6 45.5 27.5 C 45.3 27.7 45.2 27.9 45.3 28.1 C 45.7 27.9 45.8 27.9 45.8 27.6 C 45.8 27.9 46.4 27.6 46.1 27.9 C 45.9 27.6 45.5 28.5 45.5 28.2 C 45.8 27.8 45.0 28.3 44.9 28.2 C 44.9 28.2 44.9 28.2 44.9 28.2 Z M 139.2 25.7 C 139.7 25.8 139.3 25.3 139.0 25.2 C 139.1 25.3 139.0 25.4 139.0 25.5 C 139.1 25.6 139.3 25.6 139.2 25.7 C 139.2 25.7 139.2 25.7 139.2 25.7 Z M 136.6 20.3 C 136.3 20.5 137.1 20.6 137.3 20.8 C 137.3 20.7 137.2 20.6 137.4 20.7 C 137.2 20.4 136.9 20.7 136.6 20.3 C 136.6 20.3 136.6 20.3 136.6 20.3 Z M 120.6 14.8 C 120.7 14.8 121.0 14.8 121.0 14.9 C 121.2 15.0 121.2 14.8 121.3 14.7 C 121.6 14.8 121.1 15.1 121.6 15.1 C 121.9 14.7 120.9 14.3 120.6 14.8 C 120.6 14.8 120.6 14.8 120.6 14.8 Z M 47.6 22.2 C 47.4 22.2 47.7 21.7 47.5 21.6 C 46.9 22.2 47.6 22.1 46.5 22.6 C 46.6 22.7 46.7 22.7 46.8 22.8 C 47.2 22.4 47.1 22.2 47.3 22.7 C 47.5 22.6 47.3 22.1 47.6 22.2 C 47.6 22.2 47.6 22.2 47.6 22.2 Z M 38.1 27.3 C 38.2 27.3 38.3 27.3 38.4 27.4 C 38.6 27.1 38.5 27.1 38.9 26.9 C 38.7 26.6 38.3 26.9 38.1 27.3 C 38.1 27.3 38.1 27.3 38.1 27.3 Z M 16.9 47.4 C 16.8 47.5 16.7 47.6 16.7 47.7 C 16.8 47.7 16.9 48.2 17.2 47.7 C 17.2 47.6 17.1 47.7 17.0 47.7 C 17.0 47.6 17.2 47.4 17.0 47.4 C 17.0 47.5 16.9 47.5 16.9 47.4 C 16.9 47.4 16.9 47.4 16.9 47.4 Z M 11.5 59.2 C 11.6 58.5 10.3 59.5 11.5 59.2 C 11.5 59.2 11.5 59.2 11.5 59.2 C 11.5 59.2 11.5 59.2 11.5 59.2 Z M 14.5 59.6 C 14.6 59.6 14.6 59.5 14.6 59.4 C 14.9 59.0 14.8 59.5 15.0 59.4 C 15.1 58.9 14.5 59.3 14.7 58.8 C 14.5 58.8 14.7 59.3 14.5 59.6 C 14.5 59.6 14.5 59.6 14.5 59.6 Z M 77.2 15.4 C 77.6 15.3 77.6 15.0 77.7 14.8 C 77.4 14.8 77.2 14.8 77.1 14.7 C 76.6 15.0 77.4 14.8 77.5 14.9 C 77.5 15.1 77.2 15.2 77.2 15.4 C 77.2 15.4 77.2 15.4 77.2 15.4 Z M 78.5 15.1 C 78.6 15.0 78.8 14.8 78.8 14.6 C 78.6 14.7 78.5 14.6 78.5 14.5 C 78.3 14.7 78.6 14.8 78.5 15.1 C 78.5 15.1 78.5 15.1 78.5 15.1 Z M 76.0 15.4 C 76.2 15.3 76.1 15.1 76.1 15.0 C 75.8 15.1 75.8 15.0 75.5 15.1 C 75.5 15.1 75.5 15.2 75.5 15.3 C 75.8 15.3 75.8 15.2 76.0 15.1 C 76.0 15.2 76.0 15.3 76.0 15.4 C 76.0 15.4 76.0 15.4 76.0 15.4 Z M 79.7 14.6 C 80.4 14.5 80.7 14.0 81.1 13.6 C 80.6 13.7 80.2 14.3 79.8 14.2 C 79.3 14.4 80.0 14.4 79.9 14.4 C 79.9 14.5 79.8 14.5 79.7 14.6 C 79.7 14.6 79.7 14.6 79.7 14.6 Z M 86.2 13.7 C 86.4 13.9 86.6 13.4 87.1 13.5 C 87.0 13.4 86.9 13.4 86.9 13.2 C 86.3 13.2 86.7 13.7 86.2 13.7 C 86.2 13.7 86.2 13.7 86.2 13.7 Z M 89.8 13.3 C 90.2 13.2 89.6 13.2 89.8 13.0 C 89.4 13.0 88.9 13.0 88.9 13.3 C 89.4 13.1 89.5 13.1 89.8 13.3 C 89.8 13.3 89.8 13.3 89.8 13.3 Z M 92.4 13.2 C 92.8 13.1 92.2 12.9 92.4 12.6 C 92.2 12.6 92.2 12.8 92.2 12.9 C 92.1 12.8 92.0 12.8 91.8 12.8 C 91.9 13.0 92.4 12.9 92.4 13.2 C 92.4 13.2 92.4 13.2 92.4 13.2 Z M 66.7 17.5 C 67.0 17.3 66.8 17.1 67.4 17.0 C 66.6 17.3 66.8 16.4 65.8 16.9 C 66.0 16.9 65.9 17.1 65.8 17.0 C 65.4 17.3 66.2 17.0 65.9 17.3 C 66.2 17.2 65.9 17.0 66.2 16.9 C 66.6 17.0 66.8 17.1 66.7 17.5 C 66.7 17.5 66.7 17.5 66.7 17.5 Z M 65.7 16.7 C 65.4 16.7 65.5 17.2 65.3 17.0 C 65.2 17.0 65.2 17.1 65.2 17.2 C 65.3 17.1 65.4 17.2 65.4 17.2 C 65.6 17.0 65.8 16.9 65.7 16.7 C 65.7 16.7 65.7 16.7 65.7 16.7 Z M 68.4 15.8 C 67.9 16.1 67.7 15.9 67.6 16.2 C 67.3 15.9 67.3 16.5 67.0 16.2 C 66.5 16.5 66.9 16.5 67.1 16.5 C 66.6 16.8 66.9 16.3 66.4 16.6 C 66.4 16.9 67.0 16.6 67.0 16.9 C 67.4 16.8 67.3 16.6 67.5 16.5 C 67.7 16.4 67.7 16.6 67.7 16.7 C 68.1 16.5 68.1 16.7 68.4 16.5 C 68.5 16.3 68.3 16.3 67.9 16.4 C 68.3 16.2 68.4 16.0 68.9 16.0 C 68.6 16.3 70.1 16.0 69.9 15.6 C 69.5 15.7 69.6 15.8 69.5 16.0 C 68.9 15.9 68.7 16.0 68.4 15.8 C 68.4 15.8 68.4 15.8 68.4 15.8 Z M 75.7 14.6 C 75.8 14.6 75.9 14.6 76.1 14.6 C 76.2 14.8 75.9 14.8 76.2 14.9 C 76.5 14.9 76.6 14.8 76.8 14.7 C 76.6 14.6 75.9 14.5 76.2 14.3 C 76.1 14.2 75.9 14.3 75.6 14.3 C 76.0 14.6 75.2 14.4 74.9 14.5 C 75.0 14.8 74.4 14.5 74.2 14.8 C 74.4 15.0 75.0 14.6 75.2 14.6 C 75.1 14.6 76.1 14.9 75.7 14.6 C 75.7 14.6 75.7 14.6 75.7 14.6 Z M 64.6 17.2 C 64.5 17.3 64.2 17.5 64.5 17.4 C 64.4 17.6 64.1 17.5 64.3 17.8 C 64.2 17.9 64.0 17.9 63.9 18.0 C 63.9 17.8 64.3 17.8 64.1 17.6 C 63.8 17.8 63.9 17.6 63.5 17.8 C 63.6 17.5 63.4 17.6 63.5 17.2 C 63.4 17.4 63.1 17.5 63.2 17.7 C 62.6 17.8 63.2 17.3 62.5 17.6 C 62.5 17.4 62.9 17.2 63.1 17.2 C 63.2 17.0 62.3 17.5 61.8 17.6 C 62.3 17.6 62.0 18.0 61.9 18.2 C 61.7 18.2 61.8 18.1 61.5 18.1 C 61.3 18.1 61.2 18.3 61.1 18.2 C 60.9 18.3 61.0 18.4 61.1 18.6 C 60.7 18.7 60.8 18.2 60.4 18.5 C 60.9 18.7 60.5 18.9 59.9 19.1 C 60.0 19.1 60.2 19.1 60.2 19.2 C 60.2 19.4 59.7 19.2 59.6 19.2 C 59.4 19.3 59.6 19.4 59.8 19.3 C 59.7 19.4 59.6 19.5 59.5 19.6 C 60.2 19.4 61.2 18.9 62.5 18.8 C 62.2 18.7 62.5 18.5 62.9 18.5 C 63.0 18.6 62.8 18.6 62.6 18.7 C 63.2 18.8 62.9 18.2 63.6 18.2 C 64.0 18.1 63.3 18.5 63.7 18.5 C 64.0 18.3 64.1 18.0 64.3 18.3 C 64.7 18.0 64.8 17.6 65.5 17.4 C 65.0 17.4 64.7 17.0 64.3 17.2 C 64.3 17.3 64.5 17.2 64.6 17.2 C 64.6 17.2 64.6 17.2 64.6 17.2 Z M 78.5 14.4 C 78.7 14.4 78.8 14.2 78.9 14.3 C 79.3 14.1 78.8 14.0 78.7 14.0 C 78.5 14.1 78.5 14.2 78.5 14.4 C 78.5 14.4 78.5 14.4 78.5 14.4 Z M 121.8 17.4 C 122.3 17.6 122.3 17.3 122.7 17.4 C 122.4 17.2 122.4 17.0 121.8 16.9 C 121.7 17.0 121.7 17.2 121.8 17.4 C 121.8 17.4 121.8 17.4 121.8 17.4 Z M 77.0 14.5 C 76.7 14.8 77.4 14.1 77.4 14.3 C 77.8 14.1 77.0 14.3 77.3 13.9 C 77.0 14.2 76.8 14.0 76.4 14.2 C 76.4 14.4 76.8 14.3 77.1 14.2 C 77.2 14.4 77.0 14.4 77.0 14.5 C 77.0 14.5 77.0 14.5 77.0 14.5 Z M 116.5 15.1 C 116.1 15.2 116.7 15.7 116.9 15.8 C 117.0 15.5 116.9 15.5 116.5 15.1 C 116.5 15.1 116.5 15.1 116.5 15.1 Z M 125.6 18.2 C 125.9 18.0 125.0 18.0 125.3 17.8 C 125.0 17.7 125.0 17.7 124.9 17.8 C 124.8 17.7 124.4 17.6 124.6 17.5 C 124.6 17.3 125.2 17.7 125.1 17.4 C 125.3 17.4 125.3 17.5 125.5 17.6 C 125.1 17.4 125.2 17.8 125.7 18.0 C 125.7 17.8 125.5 17.8 125.8 17.7 C 125.8 17.8 126.0 18.1 125.8 18.4 C 126.3 18.6 126.1 18.1 126.6 18.3 C 126.7 18.1 126.3 18.0 126.2 17.9 C 126.3 17.6 126.6 18.3 126.7 17.9 C 126.7 18.1 127.0 18.3 126.9 18.6 C 126.4 18.5 126.1 18.6 125.8 18.6 C 126.0 18.8 126.6 18.5 127.1 18.9 C 127.1 18.7 127.4 18.8 127.4 18.6 C 127.7 18.8 127.4 19.0 127.3 19.0 C 127.4 19.2 128.2 19.4 128.2 19.2 C 128.2 19.4 129.2 19.7 129.3 19.4 C 129.5 19.7 130.0 19.6 130.0 19.9 C 130.2 19.9 130.5 20.1 130.9 20.2 C 131.1 20.0 130.4 19.9 130.5 19.7 C 130.4 19.4 131.1 20.0 131.1 19.8 C 131.1 19.7 131.1 19.7 131.1 19.6 C 130.8 19.6 130.5 19.5 130.2 19.5 C 130.0 19.4 130.3 19.4 130.3 19.3 C 130.1 19.3 129.0 19.2 129.2 18.8 C 128.6 18.7 128.2 18.4 127.8 18.5 C 127.5 18.4 128.1 18.5 128.0 18.2 C 126.8 18.1 125.7 17.3 124.7 17.3 C 124.5 17.2 124.6 17.1 124.6 16.9 C 123.3 16.7 124.3 17.4 123.4 16.9 C 123.4 16.7 123.9 16.9 123.9 16.7 C 123.6 16.6 123.5 16.7 123.0 16.5 C 123.0 16.6 123.0 16.7 122.9 16.8 C 122.6 16.7 122.8 16.4 122.6 16.3 C 122.2 16.2 122.2 16.4 122.1 16.0 C 121.6 16.0 121.2 15.9 120.8 15.7 C 120.5 15.8 120.9 16.3 121.3 16.4 C 121.3 16.5 121.2 16.5 121.1 16.5 C 120.7 16.2 120.7 15.7 119.9 15.4 C 120.5 15.9 119.6 15.4 119.5 15.2 C 119.2 15.1 119.4 15.5 119.6 15.6 C 119.5 15.7 119.3 15.5 119.3 15.4 C 119.2 15.8 119.9 16.2 120.8 16.3 C 120.3 16.5 121.4 16.4 120.8 16.8 C 121.5 16.9 121.0 16.4 121.7 16.7 C 121.7 16.6 121.6 16.5 121.5 16.3 C 122.1 16.5 121.8 16.7 122.4 16.9 C 122.6 16.7 122.2 16.6 122.3 16.5 C 122.8 16.9 123.0 17.1 123.3 17.4 C 123.5 17.3 123.4 17.1 124.1 17.5 C 124.1 17.5 124.1 17.6 124.1 17.6 C 123.7 17.4 123.5 17.8 124.4 18.1 C 124.5 18.0 124.2 17.9 124.0 17.8 C 124.1 17.7 124.4 17.8 124.8 17.9 C 124.9 17.9 125.1 18.1 124.8 18.1 C 124.9 18.3 125.2 18.0 125.6 18.2 C 125.6 18.2 125.6 18.2 125.6 18.2 Z M 85.5 13.2 C 85.6 13.2 85.7 13.1 85.9 13.1 C 86.0 12.9 85.6 13.0 85.6 12.8 C 85.3 12.8 85.5 13.1 85.5 13.2 C 85.5 13.2 85.5 13.2 85.5 13.2 Z M 81.4 13.6 C 81.5 13.8 81.6 13.4 82.0 13.5 C 82.1 13.2 81.7 13.4 81.7 13.2 C 81.3 13.2 81.8 13.6 81.4 13.6 C 81.4 13.6 81.4 13.6 81.4 13.6 Z M 83.1 13.3 C 83.3 13.5 83.3 13.2 83.0 13.3 C 83.0 13.1 83.0 13.0 83.2 12.9 C 83.0 12.7 82.9 13.1 82.5 13.1 C 82.7 13.2 82.9 13.3 83.1 13.3 C 83.1 13.3 83.1 13.3 83.1 13.3 Z M 83.7 13.2 C 83.9 13.1 84.1 13.3 84.4 13.1 C 84.3 12.9 83.5 13.1 83.4 13.2 C 83.3 13.4 84.2 13.3 83.7 13.2 C 83.7 13.2 83.7 13.2 83.7 13.2 Z M 110.9 13.5 C 111.0 13.6 111.0 13.5 111.0 13.4 C 111.4 13.9 112.0 13.9 111.5 14.2 C 112.0 14.0 112.4 14.4 112.7 14.6 C 113.1 14.7 113.0 14.4 113.2 14.4 C 113.6 14.6 113.0 14.5 113.0 14.6 C 113.1 14.8 113.3 14.5 113.8 14.7 C 113.7 14.3 114.2 14.8 114.1 14.4 C 114.4 14.6 114.5 14.5 114.8 14.6 C 114.8 14.4 114.5 14.3 114.5 14.1 C 114.4 13.9 114.2 14.3 114.6 14.3 C 114.3 14.5 113.9 14.1 113.7 14.2 C 113.6 13.9 114.2 14.3 114.1 14.0 C 113.9 14.0 113.8 14.0 113.8 14.1 C 113.6 14.0 113.4 13.9 113.4 13.7 C 113.5 13.7 113.5 13.8 113.5 13.8 C 113.8 13.9 113.3 13.4 113.9 13.5 C 113.8 13.4 113.6 13.4 113.6 13.2 C 113.5 13.0 113.5 13.9 113.0 13.5 C 112.5 13.6 113.8 13.9 113.4 14.3 C 112.6 14.1 113.1 13.8 112.5 13.6 C 112.5 13.7 112.5 13.9 112.3 13.8 C 112.3 13.9 112.6 14.0 112.7 14.0 C 112.7 14.1 112.4 14.0 112.3 14.0 C 112.3 14.1 112.4 14.1 112.4 14.2 C 111.9 14.0 112.0 13.5 112.5 13.5 C 112.6 13.3 111.9 13.1 111.7 13.2 C 111.8 13.4 111.6 13.4 111.7 13.6 C 111.9 13.7 111.9 13.6 111.9 13.5 C 112.2 13.6 111.9 13.7 111.9 13.7 C 111.6 13.6 111.6 13.4 111.3 13.6 C 111.4 13.5 111.5 13.5 111.5 13.3 C 111.4 13.3 111.2 13.3 111.1 13.3 C 111.1 13.4 110.9 13.4 110.9 13.5 C 110.9 13.5 110.9 13.5 110.9 13.5 Z M 118.1 15.9 C 118.6 16.1 118.4 15.8 118.2 15.7 C 118.3 15.7 118.5 15.7 118.6 15.7 C 118.5 15.6 118.4 15.6 118.0 15.4 C 118.4 15.2 118.1 14.7 117.4 14.6 C 117.1 14.9 117.7 15.2 117.4 15.4 C 117.9 15.3 118.2 15.6 118.1 15.9 C 118.1 15.9 118.1 15.9 118.1 15.9 Z M 78.7 13.9 C 79.0 13.9 79.3 13.8 79.5 13.8 C 79.5 13.6 78.5 13.6 78.7 13.9 C 78.7 13.9 78.7 13.9 78.7 13.9 Z M 58.9 19.6 C 58.8 19.6 58.7 19.6 58.7 19.6 C 58.3 19.8 59.0 19.7 58.9 19.9 C 59.0 19.9 59.1 19.8 59.2 19.8 C 59.2 19.7 58.6 19.8 59.0 19.5 C 58.9 19.5 58.9 19.5 58.9 19.6 C 58.9 19.6 58.9 19.6 58.9 19.6 Z M 85.1 12.9 C 85.4 12.8 85.2 12.5 85.8 12.5 C 85.6 12.4 85.5 12.5 85.1 12.5 C 85.1 12.7 85.1 12.8 85.1 12.9 C 85.1 12.9 85.1 12.9 85.1 12.9 Z M 108.6 13.6 C 109.0 13.9 109.2 13.3 109.8 13.6 C 109.5 13.2 109.1 13.5 108.6 13.6 C 108.6 13.6 108.6 13.6 108.6 13.6 Z M 132.1 20.4 C 132.0 20.2 132.2 20.3 132.0 20.0 C 131.7 20.0 131.6 20.1 131.3 20.0 C 131.6 20.4 132.4 20.5 132.5 21.0 C 132.9 21.1 132.9 20.8 133.1 20.7 C 133.0 20.7 132.9 20.6 132.9 20.5 C 132.5 20.7 132.5 20.1 132.1 20.4 C 132.1 20.4 132.1 20.4 132.1 20.4 Z M 116.4 15.0 C 116.2 14.8 116.6 14.8 116.8 14.7 C 117.0 14.8 116.8 14.9 116.8 15.1 C 117.1 15.1 117.2 15.0 117.2 14.8 C 116.7 14.6 116.2 14.5 116.6 14.3 C 116.1 14.1 116.3 14.5 116.1 14.5 C 115.9 14.2 116.1 14.2 116.2 14.0 C 116.1 14.0 115.7 14.2 115.8 13.9 C 115.0 14.0 115.2 14.5 115.6 15.0 C 116.2 14.9 115.7 14.6 116.4 15.0 C 116.4 15.0 116.4 15.0 116.4 15.0 Z M 98.2 12.1 C 98.2 12.1 98.4 12.1 98.4 12.2 C 98.8 12.0 99.0 11.8 99.3 11.6 C 99.3 11.3 98.9 11.5 99.1 11.7 C 98.9 11.5 98.7 11.4 98.5 11.3 C 98.2 11.2 98.1 11.7 98.0 11.3 C 97.7 11.5 97.9 11.5 97.5 11.4 C 98.2 11.7 97.2 11.5 97.1 11.8 C 97.6 11.8 97.9 11.8 97.9 11.6 C 98.2 11.7 98.5 11.8 98.6 12.0 C 98.6 12.1 98.3 12.1 98.2 12.1 C 98.2 12.1 98.2 12.1 98.2 12.1 Z M 99.9 11.4 C 99.8 11.5 99.7 11.5 99.5 11.5 C 99.6 11.6 99.7 11.7 99.6 11.8 C 100.0 11.8 100.1 11.7 100.2 11.9 C 100.5 12.0 100.1 11.6 100.7 11.7 C 100.6 11.6 100.4 11.6 100.4 11.5 C 100.3 11.7 100.1 11.7 99.9 11.4 C 99.9 11.4 99.9 11.4 99.9 11.4 Z M 104.4 12.3 C 104.8 12.3 104.2 12.2 104.4 12.0 C 104.3 12.0 103.6 11.9 103.7 11.7 C 103.6 11.3 102.8 11.9 102.9 11.5 C 102.7 11.5 102.7 11.6 102.7 11.7 C 103.2 11.7 103.2 11.9 102.8 11.9 C 102.9 12.0 103.2 12.0 103.4 12.0 C 103.5 11.9 103.3 11.9 103.3 11.7 C 103.7 11.9 104.0 12.1 104.4 12.3 C 104.4 12.3 104.4 12.3 104.4 12.3 Z M 44.9 26.6 C 45.2 26.5 45.3 26.3 45.5 26.2 C 45.3 26.1 45.2 26.3 45.1 26.4 C 45.0 26.3 45.1 26.2 45.2 26.1 C 45.0 26.0 44.6 26.5 44.9 26.6 C 44.9 26.6 44.9 26.6 44.9 26.6 Z M 47.3 25.1 C 47.6 24.9 47.8 24.8 47.7 24.6 C 47.6 24.6 47.7 24.7 47.5 24.8 C 47.4 24.9 47.3 24.8 47.2 24.8 C 47.0 24.9 47.1 24.9 47.1 25.0 C 47.0 25.1 47.0 25.1 47.0 25.0 C 46.7 25.4 47.3 24.7 47.3 25.1 C 47.3 25.1 47.3 25.1 47.3 25.1 Z M 102.0 11.9 C 101.8 11.8 101.8 11.6 101.4 11.6 C 101.5 11.8 101.2 11.8 100.9 11.7 C 101.3 12.0 101.4 11.9 102.0 11.9 C 102.0 11.9 102.0 11.9 102.0 11.9 Z M 63.4 17.1 C 63.9 17.1 63.7 16.7 64.4 16.7 C 64.4 16.6 64.4 16.5 64.3 16.5 C 64.0 16.8 63.8 16.7 63.4 17.1 C 63.4 17.1 63.4 17.1 63.4 17.1 Z M 16.4 54.5 C 16.2 54.3 16.0 54.8 15.9 54.7 C 16.2 55.0 15.5 54.8 15.1 55.7 C 15.0 55.6 15.0 55.5 15.0 55.4 C 14.5 56.0 15.4 55.4 15.6 55.4 C 15.9 54.9 16.1 55.0 16.4 54.5 C 16.4 54.5 16.4 54.5 16.4 54.5 Z M 128.3 17.9 C 128.2 18.0 128.3 18.0 128.4 18.0 C 128.5 18.1 128.6 18.1 128.6 18.1 C 128.7 17.8 128.3 17.5 128.8 17.4 C 128.7 17.3 128.7 17.3 128.6 17.4 C 127.7 17.8 127.6 16.4 126.5 16.5 C 126.4 16.5 126.4 16.6 126.3 16.6 C 126.4 16.7 126.4 16.7 126.4 16.8 C 126.7 16.5 127.3 17.2 126.9 17.1 C 126.9 17.2 127.1 17.2 127.1 17.2 C 127.2 17.2 127.3 17.3 127.4 17.3 C 127.3 17.2 127.2 17.1 127.2 17.0 C 127.6 17.2 128.1 17.5 127.7 17.7 C 128.0 17.8 128.1 17.7 128.4 17.7 C 128.5 17.8 128.4 18.0 128.3 17.9 C 128.3 17.9 128.3 17.9 128.3 17.9 Z M 131.9 19.4 C 132.3 19.6 132.3 19.3 132.7 19.5 C 132.5 19.2 132.0 19.4 131.7 19.0 C 131.7 19.1 131.9 19.3 131.9 19.4 C 131.9 19.4 131.9 19.4 131.9 19.4 Z M 123.9 15.9 C 124.1 15.6 123.7 15.5 123.3 15.3 C 123.1 15.6 123.5 15.7 123.9 15.9 C 123.9 15.9 123.9 15.9 123.9 15.9 Z M 125.7 16.5 C 126.2 16.6 125.2 16.3 125.6 16.1 C 125.4 16.0 125.1 16.0 125.2 15.9 C 125.0 15.9 124.9 16.0 124.7 15.9 C 124.6 16.0 125.1 16.1 125.0 16.3 C 125.4 16.2 125.5 16.2 125.7 16.5 C 125.7 16.5 125.7 16.5 125.7 16.5 Z M 126.0 16.6 C 126.3 16.6 126.1 16.1 125.8 16.0 C 125.8 16.2 125.8 16.4 126.0 16.6 C 126.0 16.6 126.0 16.6 126.0 16.6 Z M 92.0 10.8 C 92.2 10.8 92.1 10.6 92.3 10.5 C 92.3 10.4 91.4 10.5 92.2 10.4 C 91.9 10.1 91.8 10.5 91.4 10.5 C 91.5 10.6 91.6 10.6 91.4 10.7 C 91.3 10.9 92.1 10.6 92.0 10.8 C 92.0 10.8 92.0 10.8 92.0 10.8 Z M 92.9 10.8 C 93.1 10.8 93.0 10.7 92.9 10.7 C 92.9 10.6 93.2 10.6 93.4 10.6 C 93.4 10.7 93.0 10.3 93.0 10.1 C 92.3 10.3 92.9 10.5 92.9 10.8 C 92.9 10.8 92.9 10.8 92.9 10.8 Z M 93.6 10.6 C 94.1 10.8 94.8 10.8 95.1 10.5 C 94.8 10.2 93.9 10.3 93.6 10.6 C 93.6 10.6 93.6 10.6 93.6 10.6 Z M 88.8 10.7 C 89.7 10.9 91.4 10.5 89.8 10.3 C 89.9 10.5 88.8 10.7 88.3 10.6 C 88.3 10.7 87.8 10.9 87.7 10.8 C 87.4 11.0 89.0 10.9 88.8 10.7 C 88.8 10.7 88.8 10.7 88.8 10.7 Z M 95.7 10.1 C 95.5 10.2 95.8 10.6 95.4 10.5 C 95.2 10.5 95.5 10.6 95.4 10.7 C 95.9 10.7 96.8 10.5 96.9 10.7 C 97.1 10.6 97.2 10.5 97.6 10.5 C 97.6 10.4 96.1 10.7 95.7 10.2 C 95.7 10.1 96.3 10.1 95.7 10.1 C 95.7 10.1 95.7 10.1 95.7 10.1 Z M 62.9 15.7 C 62.9 15.9 63.5 15.6 63.5 15.8 C 63.7 15.5 64.1 15.5 64.3 15.2 C 64.5 15.2 64.6 15.6 65.1 15.4 C 65.0 15.2 64.8 15.4 65.0 15.1 C 65.4 14.9 65.4 15.2 65.9 15.0 C 65.7 14.6 67.0 14.6 66.8 14.2 C 66.5 14.3 66.6 14.5 66.1 14.6 C 65.9 14.6 65.9 14.5 65.8 14.5 C 65.8 14.3 66.2 14.5 66.3 14.3 C 66.2 14.1 65.9 14.2 65.8 14.1 C 65.6 14.2 65.9 14.2 65.8 14.3 C 65.3 14.6 65.7 13.8 65.1 14.1 C 65.3 14.3 65.3 14.3 65.3 14.5 C 65.0 14.5 64.3 14.9 64.6 14.5 C 64.5 14.4 64.1 14.8 64.2 14.9 C 64.0 15.0 64.0 14.9 63.9 14.8 C 63.3 15.1 63.3 15.4 63.5 15.6 C 63.5 15.8 63.2 15.5 62.9 15.7 C 62.9 15.7 62.9 15.7 62.9 15.7 Z M 84.0 11.0 C 83.7 11.3 84.4 10.9 84.8 11.0 C 84.4 11.0 84.5 10.6 84.0 10.6 C 84.2 10.7 84.2 10.8 83.9 10.8 C 83.8 10.9 84.5 10.9 84.0 11.0 C 84.0 11.0 84.0 11.0 84.0 11.0 Z M 98.5 10.6 C 98.7 10.7 99.4 10.6 99.8 10.7 C 99.8 10.3 98.8 10.8 98.7 10.4 C 98.4 10.4 98.8 10.5 98.5 10.6 C 98.5 10.6 98.5 10.6 98.5 10.6 Z M 68.5 14.2 C 68.7 14.1 68.6 14.1 68.5 14.1 C 68.5 14.0 68.8 13.9 69.0 13.8 C 68.7 13.8 69.1 13.6 68.9 13.4 C 69.1 13.3 69.2 13.3 69.2 13.2 C 69.3 13.6 70.0 12.7 69.1 12.9 C 69.3 13.1 69.2 13.1 68.9 13.3 C 68.4 13.2 68.2 13.6 67.9 13.3 C 67.7 13.4 67.6 13.6 67.3 13.7 C 67.1 13.5 66.8 13.6 66.9 13.1 C 66.3 13.3 66.9 13.8 66.4 14.0 C 65.8 14.0 66.5 13.6 66.4 13.5 C 66.2 13.5 66.2 13.4 66.2 13.4 C 66.0 13.5 66.1 13.7 66.3 13.6 C 66.2 13.7 65.8 14.1 65.8 13.8 C 65.6 14.0 66.5 14.3 66.8 13.9 C 67.1 13.8 67.2 14.3 67.0 14.3 C 67.1 14.5 67.4 13.8 67.4 14.3 C 67.6 14.3 67.8 14.2 68.0 14.1 C 68.0 14.1 67.9 14.1 67.8 14.0 C 68.0 14.0 68.2 13.9 68.4 13.9 C 68.3 14.0 68.3 14.1 68.5 14.2 C 68.5 14.2 68.5 14.2 68.5 14.2 Z M 96.6 10.4 C 97.0 10.4 97.1 10.3 97.3 10.3 C 97.2 10.1 96.4 10.2 96.6 10.4 C 96.6 10.4 96.6 10.4 96.6 10.4 Z M 60.3 15.9 C 60.4 16.0 60.6 15.9 60.6 16.0 C 60.3 16.2 60.8 16.1 60.6 16.7 C 61.1 16.3 61.0 15.7 60.2 15.8 C 59.7 16.0 60.8 15.7 60.3 15.9 C 60.3 15.9 60.3 15.9 60.3 15.9 Z M 62.0 15.4 C 62.3 15.2 61.4 15.4 61.2 15.4 C 61.2 15.3 61.1 15.3 61.1 15.2 C 60.8 15.7 61.5 15.6 61.2 16.2 C 61.8 16.1 62.0 16.1 62.5 15.8 C 62.4 15.7 62.3 15.8 62.3 15.8 C 62.0 15.9 62.1 15.5 62.5 15.5 C 62.4 15.4 62.0 15.6 61.8 15.6 C 61.9 15.7 62.0 15.7 62.0 15.8 C 61.7 15.9 61.7 15.7 61.5 15.8 C 61.5 15.7 61.9 15.3 62.0 15.4 C 62.0 15.4 62.0 15.4 62.0 15.4 Z M 37.1 30.1 C 37.3 29.9 36.6 30.0 36.4 29.7 C 36.1 29.9 36.1 30.0 36.0 30.1 C 36.1 30.2 36.4 30.0 36.6 30.0 C 36.8 30.3 36.2 30.3 36.3 30.5 C 36.3 30.9 36.8 29.9 37.1 30.1 C 37.1 30.1 37.1 30.1 37.1 30.1 Z M 75.3 12.0 C 75.4 12.0 75.3 11.9 75.3 11.9 C 75.3 11.8 75.5 11.8 75.5 11.9 C 75.8 11.8 75.4 11.8 75.7 11.7 C 75.7 11.5 75.2 11.8 75.2 11.8 C 74.9 11.9 75.1 11.6 75.0 11.5 C 74.7 11.6 74.9 11.7 74.4 11.8 C 74.7 11.9 75.0 12.0 75.3 12.0 C 75.3 12.0 75.3 12.0 75.3 12.0 Z M 59.6 16.8 C 59.5 16.9 59.7 16.3 60.2 16.3 C 60.6 16.1 59.8 16.2 60.2 16.1 C 59.8 16.2 59.5 16.5 58.9 16.8 C 58.8 17.0 59.7 16.5 59.2 16.8 C 59.3 16.9 59.4 16.8 59.4 16.7 C 59.5 16.7 59.5 16.7 59.6 16.8 C 59.6 16.8 59.6 16.8 59.6 16.8 Z M 59.9 16.0 C 59.8 15.9 59.7 16.0 59.7 16.1 C 59.6 16.1 59.5 15.9 59.6 15.9 C 59.3 15.7 59.5 16.2 59.0 16.2 C 59.3 16.3 59.4 16.4 58.9 16.4 C 58.7 16.8 59.8 16.2 59.9 16.0 C 59.9 16.0 59.9 16.0 59.9 16.0 Z M 40.8 27.1 C 40.7 27.0 40.4 27.3 40.2 27.4 C 40.4 27.1 41.4 26.5 41.6 26.5 C 41.7 26.4 41.8 26.3 41.9 26.3 C 41.8 26.3 42.0 26.0 41.9 26.1 C 41.8 26.0 42.1 25.8 42.0 25.8 C 42.4 25.6 42.0 26.0 42.2 26.0 C 42.5 25.5 42.5 25.8 43.0 25.4 C 42.8 25.3 42.3 25.8 42.2 25.5 C 41.9 26.0 41.4 26.1 41.0 26.1 C 41.6 26.1 40.2 27.3 39.5 27.7 C 39.5 27.6 39.3 27.8 38.9 27.9 C 38.6 27.8 39.0 28.2 39.3 27.8 C 39.3 28.0 38.8 28.2 38.6 28.4 C 38.9 28.3 38.8 28.5 39.0 28.5 C 39.5 28.1 39.0 28.4 39.0 28.2 C 39.1 28.1 39.2 28.0 39.4 27.9 C 39.0 28.7 40.3 27.3 39.8 27.7 C 40.2 27.4 40.4 27.6 40.8 27.1 C 40.8 27.1 40.8 27.1 40.8 27.1 Z M 52.6 20.0 C 52.7 19.9 53.1 19.5 53.2 19.7 C 53.6 19.3 53.0 19.3 53.6 19.0 C 53.6 19.0 53.4 19.1 53.3 19.0 C 53.1 19.2 52.9 19.4 53.1 19.6 C 52.8 19.7 52.8 19.8 52.6 19.9 C 52.6 19.8 52.7 19.7 52.9 19.6 C 52.9 19.3 52.7 19.3 52.4 19.5 C 52.3 19.7 52.5 19.8 52.6 20.0 C 52.6 20.0 52.6 20.0 52.6 20.0 Z M 53.8 19.0 C 53.9 19.0 54.0 19.1 54.0 19.2 C 54.4 19.3 54.0 18.8 54.2 18.8 C 54.3 18.7 54.3 18.8 54.4 18.9 C 54.6 18.7 54.8 18.6 54.9 18.7 C 55.2 18.4 54.4 18.6 54.3 18.6 C 54.0 18.7 54.2 18.9 53.8 19.0 C 53.8 19.0 53.8 19.0 53.8 19.0 Z M 57.9 17.4 C 58.1 17.6 58.1 17.2 58.3 17.1 C 58.0 17.0 57.7 17.3 57.8 16.9 C 57.4 17.0 57.4 17.0 57.0 17.2 C 56.7 17.2 57.1 17.4 57.5 17.1 C 57.5 17.3 57.3 17.4 57.3 17.5 C 56.8 17.1 56.5 18.1 56.7 17.6 C 56.9 17.6 57.0 17.7 57.1 17.7 C 57.1 17.5 58.1 17.2 57.9 17.4 C 57.9 17.4 57.9 17.4 57.9 17.4 Z M 72.1 12.3 C 71.5 12.5 71.5 12.5 70.9 12.6 C 70.9 12.5 70.9 12.4 71.0 12.4 C 70.8 12.3 70.7 12.4 70.4 12.5 C 70.5 12.6 70.6 12.5 70.6 12.5 C 71.1 12.5 70.7 12.6 70.7 12.9 C 71.3 12.9 71.7 12.4 72.0 12.6 C 72.2 12.5 71.9 12.5 72.1 12.3 C 72.1 12.3 72.1 12.3 72.1 12.3 Z M 15.1 52.8 C 15.1 52.9 14.9 53.1 15.1 53.2 C 15.2 53.0 15.2 52.8 15.3 52.6 C 15.0 52.9 14.8 52.7 14.5 53.1 C 14.7 53.1 14.8 53.2 15.1 52.8 C 15.1 52.8 15.1 52.8 15.1 52.8 Z M 56.5 17.9 C 56.5 17.8 56.4 17.7 56.6 17.6 C 56.5 17.4 56.1 17.7 56.1 17.6 C 55.9 17.7 56.0 17.8 55.9 17.9 C 56.0 17.9 56.3 17.7 56.3 18.0 C 56.2 18.1 56.1 18.1 56.1 18.0 C 55.9 18.2 56.3 18.1 56.5 17.9 C 56.5 17.9 56.5 17.9 56.5 17.9 Z M 35.7 30.8 C 35.9 30.7 35.7 30.7 35.5 30.8 C 35.7 30.3 35.1 30.7 34.9 30.5 C 35.2 30.5 35.6 30.1 35.7 30.1 C 35.8 29.9 35.5 29.9 35.8 29.5 C 35.7 29.4 35.4 29.9 35.6 29.9 C 35.3 29.8 35.1 30.4 35.0 30.1 C 34.4 30.5 34.4 30.8 34.5 31.0 C 35.0 30.5 35.0 31.0 35.4 30.6 C 35.4 30.7 35.3 30.8 35.2 30.9 C 35.3 31.0 35.6 30.8 35.7 30.8 C 35.7 30.8 35.7 30.8 35.7 30.8 Z M 48.4 22.1 C 48.7 21.9 48.6 21.7 48.5 21.6 C 48.4 21.7 48.3 21.8 48.0 22.0 C 48.1 22.0 48.5 21.8 48.4 22.1 C 48.4 22.1 48.4 22.1 48.4 22.1 Z M 37.4 29.1 C 37.5 29.1 37.6 29.0 37.5 29.0 C 37.8 28.8 38.0 28.8 38.2 28.8 C 38.3 28.7 38.1 28.6 38.1 28.5 C 37.9 28.9 37.8 28.6 37.4 28.9 C 37.5 28.9 37.5 29.0 37.4 29.1 C 37.4 29.1 37.4 29.1 37.4 29.1 Z M 45.7 23.5 C 45.8 23.4 45.7 23.4 45.7 23.5 C 45.7 23.1 46.3 23.0 46.5 22.8 C 46.4 22.6 45.8 23.0 46.5 22.5 C 46.2 22.4 45.6 23.0 45.3 23.1 C 45.2 22.9 45.7 22.6 45.5 22.4 C 45.2 22.8 44.9 23.2 45.0 23.5 C 45.6 23.2 45.5 23.5 45.7 23.5 C 45.7 23.5 45.7 23.5 45.7 23.5 Z M 45.0 23.8 C 45.1 23.9 45.1 23.7 45.4 23.6 C 44.9 23.5 44.8 23.7 44.1 24.1 C 44.1 24.1 44.2 24.2 44.2 24.2 C 44.1 24.3 43.9 24.4 43.8 24.5 C 44.5 24.3 44.5 24.1 45.1 23.6 C 45.1 23.7 45.1 23.7 45.0 23.8 C 45.0 23.8 45.0 23.8 45.0 23.8 Z M 62.7 15.0 C 62.4 15.0 62.2 14.9 61.8 15.0 C 62.0 15.2 62.2 15.2 62.7 15.0 C 62.7 15.0 62.7 15.0 62.7 15.0 Z M 36.9 29.3 C 36.6 29.7 37.2 29.1 36.8 29.1 C 36.5 29.2 36.2 29.3 36.0 29.2 C 35.7 29.8 36.7 29.0 36.9 29.3 C 36.9 29.3 36.9 29.3 36.9 29.3 Z M 38.7 27.3 C 38.8 27.2 39.0 27.5 38.8 27.4 C 38.4 27.6 39.2 27.3 38.6 27.7 C 38.9 27.6 39.5 27.3 39.6 27.0 C 39.5 26.9 39.1 27.3 39.0 27.1 C 38.9 27.1 39.0 27.0 39.0 27.0 C 38.9 26.9 38.9 27.1 38.7 27.3 C 38.7 27.3 38.7 27.3 38.7 27.3 Z M 40.7 26.3 C 40.4 26.3 40.1 26.4 39.7 26.7 C 40.1 26.6 40.4 26.7 40.7 26.3 C 40.7 26.3 40.7 26.3 40.7 26.3 Z M 19.5 45.7 C 19.7 45.4 19.3 45.5 19.2 45.5 C 19.0 45.8 19.1 45.8 18.8 46.2 C 19.1 46.2 19.1 45.7 19.5 45.7 C 19.5 45.7 19.5 45.7 19.5 45.7 Z M 18.5 46.7 C 18.3 46.6 18.0 47.1 17.9 47.0 C 18.1 47.6 17.2 47.5 17.5 47.7 C 17.4 47.8 17.3 47.8 17.1 48.0 C 17.7 47.9 18.2 47.1 18.5 46.7 C 18.5 46.7 18.5 46.7 18.5 46.7 Z M 42.6 24.4 C 42.9 24.2 42.3 24.2 42.6 24.0 C 42.6 23.9 41.9 24.3 42.2 24.0 C 41.6 24.2 42.6 24.3 42.6 24.4 C 42.6 24.4 42.6 24.4 42.6 24.4 Z M 48.7 20.4 C 48.7 20.6 49.1 20.2 49.4 20.1 C 49.3 20.0 49.2 20.1 49.1 20.2 C 49.1 20.1 49.1 20.0 49.2 19.9 C 49.0 19.8 48.8 20.3 48.7 20.4 C 48.7 20.4 48.7 20.4 48.7 20.4 Z M 44.3 28.3 C 43.9 28.2 43.6 28.2 43.6 28.6 C 43.3 28.6 43.6 28.3 43.3 28.4 C 43.0 28.7 43.0 28.4 42.6 28.9 C 42.5 28.6 42.1 28.9 41.9 28.7 C 42.1 28.5 42.6 28.6 42.5 28.3 C 42.4 28.4 42.3 28.2 42.5 28.3 C 42.9 28.1 42.2 28.8 42.8 28.6 C 42.7 28.3 43.7 28.3 44.1 28.0 C 44.0 28.3 44.6 28.1 44.3 28.3 C 44.3 28.3 44.3 28.3 44.3 28.3 Z M 41.9 29.4 C 41.6 29.6 41.1 29.3 41.2 29.2 C 41.3 29.3 41.6 29.1 41.6 29.0 C 41.5 29.0 41.4 29.1 41.4 29.0 C 42.0 28.7 41.9 29.0 42.1 29.0 C 41.9 29.3 41.7 29.2 41.7 29.4 C 41.8 29.4 41.8 29.3 41.9 29.4 C 41.9 29.4 41.9 29.4 41.9 29.4 Z M 33.2 31.1 C 33.3 31.1 33.3 30.9 33.4 30.8 C 33.6 31.1 33.9 30.2 34.1 30.3 C 34.1 30.5 33.8 30.8 33.7 31.0 C 33.9 30.8 34.0 30.9 34.0 30.7 C 34.2 30.9 33.8 31.2 33.8 31.4 C 33.7 31.3 33.7 31.6 33.6 31.5 C 33.9 31.0 32.9 31.3 33.2 31.1 C 33.2 31.1 33.2 31.1 33.2 31.1 Z M 45.3 22.3 C 45.2 22.1 44.3 21.9 44.7 21.3 C 44.9 21.4 45.1 21.6 45.2 21.9 C 45.4 21.5 45.7 21.7 45.8 21.3 C 46.7 21.6 45.3 21.6 45.3 22.3 C 45.3 22.3 45.3 22.3 45.3 22.3 Z M 47.2 20.8 C 47.2 21.1 47.5 20.9 47.5 21.1 C 47.2 21.1 46.5 21.8 46.7 21.5 C 47.0 21.3 46.8 21.1 47.2 20.8 C 47.2 20.8 47.2 20.8 47.2 20.8 Z M 107.3 11.1 C 106.8 11.2 106.6 10.7 106.9 10.6 C 106.7 10.9 107.5 10.8 107.3 11.1 C 107.3 11.1 107.3 11.1 107.3 11.1 Z M 90.3 14.1 C 90.7 14.2 90.9 14.1 91.0 14.3 C 90.6 14.4 90.6 14.2 90.3 14.2 C 90.2 14.3 90.0 14.4 90.0 14.3 C 90.2 14.3 90.1 14.1 90.3 14.1 C 90.3 14.1 90.3 14.1 90.3 14.1 Z M 57.7 21.8 C 57.8 21.9 57.9 21.8 57.9 22.0 C 57.5 22.1 57.2 22.5 56.9 22.8 C 56.9 22.7 56.8 22.6 56.8 22.5 C 57.4 22.3 57.5 22.0 57.7 21.8 C 57.7 21.8 57.7 21.8 57.7 21.8 Z M 58.7 21.9 C 58.7 21.7 58.3 21.6 58.6 21.4 C 58.7 21.6 59.3 21.6 59.1 21.8 C 58.9 21.6 58.8 21.7 58.7 21.9 C 58.7 21.9 58.7 21.9 58.7 21.9 Z M 37.8 33.3 C 37.5 33.6 38.0 33.4 38.1 33.5 C 37.8 33.6 37.6 33.8 37.4 33.8 C 37.6 33.7 37.5 33.2 37.8 33.3 C 37.8 33.3 37.8 33.3 37.8 33.3 Z M 41.7 29.6 C 42.3 29.2 42.2 29.7 42.9 29.3 C 42.7 29.6 42.2 30.0 42.1 30.3 C 42.1 30.1 41.9 30.2 41.8 30.1 C 42.0 29.9 42.1 30.0 42.4 29.8 C 42.1 29.7 42.2 29.7 42.1 29.5 C 42.0 29.6 41.9 29.7 41.8 29.8 C 41.8 29.7 41.5 29.8 41.7 29.6 C 41.7 29.6 41.7 29.6 41.7 29.6 Z M 37.5 32.7 C 37.3 33.0 36.9 32.9 37.1 32.7 C 37.2 32.8 37.2 32.5 37.4 32.6 C 37.1 32.9 37.7 32.5 37.7 32.8 C 37.5 32.9 37.5 33.0 37.6 33.1 C 37.5 33.2 37.3 33.4 37.2 33.3 C 37.3 33.3 37.4 33.2 37.4 33.1 C 37.3 33.2 37.2 33.2 37.2 33.1 C 37.4 33.0 37.5 32.9 37.5 32.7 C 37.5 32.7 37.5 32.7 37.5 32.7 Z M 39.1 31.5 C 38.7 31.7 38.6 31.6 38.4 31.5 C 38.8 31.2 39.1 31.4 39.5 31.3 C 39.1 31.5 39.0 32.1 38.7 32.0 C 38.9 31.8 39.1 31.6 39.1 31.5 C 39.1 31.5 39.1 31.5 39.1 31.5 Z M 143.3 26.0 C 143.0 25.7 142.9 25.4 142.6 25.1 C 142.3 25.3 142.7 26.1 142.5 25.8 C 142.2 25.6 142.6 25.5 142.3 25.3 C 142.4 25.7 140.9 24.8 141.0 24.5 C 141.2 24.6 141.3 24.6 141.4 24.4 C 142.0 24.8 142.3 24.8 142.8 25.0 C 143.0 25.5 143.9 26.2 144.6 26.2 C 144.7 26.8 145.7 26.8 145.9 27.4 C 146.1 27.4 145.7 27.0 146.1 27.2 C 146.2 27.6 146.0 27.5 146.2 27.8 C 146.3 27.8 146.3 27.6 146.5 27.7 C 146.4 27.8 146.6 27.9 146.7 28.0 C 146.0 27.5 146.5 28.3 145.9 28.0 C 145.8 27.8 146.4 27.8 145.7 27.4 C 145.5 27.3 145.2 27.3 145.1 27.5 C 145.0 27.4 144.8 27.4 144.7 27.3 C 145.1 27.2 143.8 26.8 144.4 26.9 C 144.5 26.9 144.8 27.1 145.1 27.2 C 145.0 26.8 144.7 26.8 144.2 26.6 C 144.2 26.4 144.4 26.5 144.3 26.3 C 143.8 26.2 144.2 26.6 143.9 26.6 C 144.0 26.7 144.1 26.8 144.1 26.8 C 143.7 26.3 143.3 26.4 143.0 26.2 C 143.3 26.2 142.8 25.8 143.3 26.0 C 143.3 26.0 143.3 26.0 143.3 26.0 Z M 148.2 28.9 C 148.3 29.0 148.4 29.1 148.6 29.2 C 148.5 29.4 147.9 29.0 148.2 29.4 C 147.6 29.0 148.4 29.2 148.2 28.9 C 148.2 28.9 148.2 28.9 148.2 28.9 Z M 146.1 26.4 C 146.0 26.0 145.8 26.6 145.6 26.5 C 146.0 26.6 146.3 26.8 146.2 27.0 C 145.9 26.7 145.7 26.6 145.3 26.4 C 145.8 26.4 145.0 25.9 145.0 25.6 C 145.4 25.8 145.7 25.8 146.0 26.1 C 145.9 26.1 146.5 26.6 146.1 26.4 C 146.1 26.4 146.1 26.4 146.1 26.4 Z M 147.3 26.8 C 147.3 27.0 147.9 27.3 147.6 27.4 C 147.3 27.2 147.1 27.1 147.1 27.4 C 146.8 27.2 146.9 27.1 146.6 26.9 C 146.7 26.6 147.0 26.9 147.2 26.9 C 147.2 26.8 147.1 26.7 147.3 26.8 C 147.3 26.8 147.3 26.8 147.3 26.8 Z M 12.4 55.4 C 12.7 55.4 12.2 55.9 12.1 56.0 C 12.4 55.9 12.4 56.0 12.2 56.4 C 12.0 56.1 11.8 56.7 11.3 56.8 C 11.5 57.0 11.8 56.7 11.6 57.2 C 11.3 57.5 11.2 57.8 10.9 58.4 C 10.6 58.4 10.7 58.1 10.7 57.9 C 10.5 58.3 10.4 58.1 10.2 58.4 C 10.4 58.4 10.3 58.7 10.1 58.7 C 10.4 58.2 9.5 59.2 9.7 58.6 C 9.8 58.7 9.8 58.5 9.9 58.4 C 10.1 58.7 10.4 58.0 10.6 57.9 C 10.3 57.3 10.9 56.7 11.6 56.0 C 11.8 56.1 11.7 56.3 11.8 56.2 C 11.8 56.1 11.9 55.8 12.0 55.7 C 12.1 55.8 12.2 55.7 12.3 55.5 C 12.3 55.5 12.3 55.5 12.4 55.4 C 12.4 55.4 12.4 55.4 12.4 55.4 Z M 121.5 13.2 C 121.7 12.8 120.7 12.8 120.4 12.8 C 120.6 12.4 122.2 13.0 121.5 13.2 C 121.5 13.2 121.5 13.2 121.5 13.2 Z M 127.3 14.9 C 127.1 14.8 127.2 15.1 126.9 15.0 C 127.0 14.8 126.3 15.0 126.4 14.8 C 126.7 14.7 126.9 14.7 127.3 14.9 C 127.3 14.9 127.3 14.9 127.3 14.9 Z M 132.4 17.1 C 132.0 16.9 132.6 17.3 132.5 17.3 C 132.1 17.2 131.8 17.0 131.9 16.8 C 132.1 17.1 132.5 16.9 132.4 17.1 C 132.4 17.1 132.4 17.1 132.4 17.1 Z M 124.8 13.7 C 124.5 13.5 125.2 13.4 125.2 13.6 C 124.7 13.5 125.3 13.9 125.7 13.9 C 125.6 14.2 125.4 14.1 125.5 14.4 C 125.0 14.3 125.5 14.1 125.2 14.0 C 124.9 14.1 125.1 14.1 125.1 14.3 C 124.9 14.3 124.8 14.2 124.6 14.2 C 124.7 14.0 124.7 13.9 124.8 13.8 C 124.9 13.8 125.1 13.9 125.1 13.7 C 125.0 13.7 124.9 13.7 124.8 13.7 C 124.8 13.7 124.8 13.7 124.8 13.7 Z M 7.6 62.3 C 7.5 62.5 7.7 62.4 7.8 62.2 C 7.7 62.1 7.4 61.8 7.7 61.6 C 7.6 62.3 8.1 61.7 8.1 62.0 C 7.8 62.0 7.9 62.5 7.7 62.7 C 7.5 62.8 7.3 62.3 7.6 62.3 C 7.6 62.3 7.6 62.3 7.6 62.3 Z M 8.3 61.4 C 8.2 61.4 8.1 61.5 8.0 61.6 C 8.0 61.3 7.8 61.6 7.8 61.3 C 7.9 61.4 8.4 60.7 8.2 61.2 C 7.9 61.5 8.4 61.1 8.5 61.0 C 8.4 61.1 8.4 61.6 8.3 61.6 C 8.3 61.5 8.3 61.4 8.3 61.4 C 8.3 61.4 8.3 61.4 8.3 61.4 Z M 13.6 52.4 C 13.5 52.2 13.4 52.5 13.2 52.5 C 13.7 51.8 14.2 51.3 14.4 51.0 C 14.2 51.3 14.4 51.4 14.6 51.3 C 14.3 51.5 14.3 51.7 14.2 51.8 C 14.2 51.4 13.9 52.0 13.6 52.4 C 13.6 52.4 13.6 52.4 13.6 52.4 Z M 13.6 52.4 " fill="#62D7AD"></path><path d="M 153.5 10.9 C 153.3 10.9 153.2 11.1 153.1 10.9 C 153.0 10.9 153.1 11.1 153.1 11.2 C 153.0 11.2 153.0 11.1 153.0 11.0 C 152.9 11.0 152.8 11.1 152.7 11.1 C 152.7 11.3 153.1 11.2 153.1 11.3 C 153.2 11.2 153.4 10.9 153.4 11.2 C 153.6 11.1 153.4 11.1 153.5 10.9 Z M 151.3 9.2 C 151.5 8.9 151.2 8.6 151.4 8.7 C 151.6 8.5 152.0 8.8 151.8 8.8 C 151.6 8.9 151.4 9.4 151.3 9.2 Z M 153.8 12.0 C 153.7 12.0 153.6 12.1 153.5 12.1 C 153.5 12.0 153.7 11.7 153.8 11.9 C 153.7 11.9 153.8 12.0 153.8 12.0 Z M 151.0 17.3 C 151.0 17.3 151.1 17.4 151.1 17.4 C 151.3 17.3 151.4 17.1 151.2 17.0 C 151.3 17.1 151.3 17.3 151.0 17.3 Z M 152.4 24.8 C 152.4 24.8 152.4 24.9 152.4 25.0 C 152.4 25.0 152.4 25.0 152.4 25.0 C 152.6 25.2 153.1 25.2 153.2 24.9 C 153.1 24.9 153.1 25.0 153.0 25.0 C 153.0 24.9 153.0 24.8 152.9 24.8 C 152.9 24.9 153.0 25.0 152.9 25.0 C 152.8 24.9 152.7 25.0 152.6 25.0 C 152.6 24.6 153.0 24.8 153.1 24.4 C 152.6 24.3 152.6 24.8 152.4 24.8 Z M 151.2 20.5 C 151.2 20.5 151.2 20.5 151.2 20.5 C 151.1 20.5 151.1 20.5 151.1 20.6 C 151.2 20.6 151.2 20.5 151.2 20.5 Z M 152.5 15.5 C 152.6 15.5 152.6 15.4 152.6 15.4 C 152.5 15.3 152.4 15.3 152.4 15.3 C 152.4 15.4 152.3 15.6 152.5 15.5 Z M 151.4 11.5 C 151.4 11.9 151.2 11.9 151.3 12.2 C 151.3 12.2 151.3 12.1 151.4 12.1 C 151.4 12.3 151.4 12.2 151.4 12.4 C 151.2 12.4 151.2 12.6 151.4 12.8 C 151.1 13.0 151.2 13.3 151.3 13.5 C 151.4 13.3 151.4 13.4 151.6 13.3 C 151.4 13.4 151.6 13.7 151.3 13.6 C 151.2 13.4 151.3 13.8 151.6 13.7 C 151.4 13.8 151.7 13.9 151.6 14.1 C 151.5 14.0 151.0 14.0 151.1 14.3 C 151.3 14.1 151.4 14.5 151.7 14.3 C 151.7 14.6 151.2 14.4 151.3 14.7 C 151.5 14.6 151.4 14.7 151.4 14.8 C 151.5 14.9 151.6 14.9 151.5 15.0 C 151.5 15.0 151.5 15.0 151.5 15.1 C 151.3 15.2 151.3 15.3 151.0 15.3 C 151.1 15.4 151.1 15.4 151.0 15.4 C 151.1 15.6 151.2 15.3 151.3 15.3 C 151.3 15.5 151.1 15.6 150.9 15.7 C 151.4 15.9 150.9 16.0 150.9 16.3 C 151.0 16.3 151.1 16.2 151.1 16.1 C 151.3 16.0 151.2 16.3 151.5 16.2 C 151.4 16.4 151.5 16.8 151.2 16.9 C 151.4 16.9 151.6 16.7 151.8 16.7 C 151.8 16.7 151.8 16.8 151.8 16.8 C 151.8 16.9 151.8 16.9 151.7 16.9 C 151.7 16.8 151.5 16.8 151.5 16.9 C 151.6 17.0 151.7 17.1 151.7 17.2 C 151.5 17.1 151.4 17.3 151.3 17.5 C 151.3 17.5 151.3 17.6 151.3 17.6 C 151.4 17.5 151.4 17.5 151.5 17.4 C 151.5 17.5 151.5 17.5 151.5 17.6 C 151.6 17.6 151.6 17.6 151.5 17.7 C 151.5 17.7 151.5 17.7 151.5 17.7 C 151.5 17.7 151.5 17.7 151.5 17.8 C 151.5 17.9 151.4 17.8 151.2 17.9 C 151.2 17.9 151.2 17.9 151.2 17.9 C 151.2 17.9 151.3 17.9 151.3 17.9 C 151.3 17.9 151.3 18.0 151.4 18.0 C 151.3 18.0 151.3 18.0 151.3 18.0 C 151.3 18.0 151.3 18.0 151.3 18.0 C 151.3 18.0 151.3 18.1 151.3 18.1 C 151.3 18.1 151.3 18.1 151.3 18.1 C 151.3 18.1 151.3 18.1 151.2 18.1 C 151.3 18.2 151.5 18.2 151.6 18.3 C 151.6 18.4 151.5 18.3 151.4 18.4 C 151.5 18.6 151.7 18.7 151.8 18.8 C 151.8 19.0 151.6 18.8 151.6 18.7 C 151.8 19.0 151.4 19.0 151.2 19.3 C 151.3 19.3 151.3 19.3 151.4 19.3 C 151.4 19.3 151.4 19.3 151.4 19.3 C 151.4 19.3 151.4 19.3 151.5 19.3 C 151.4 19.4 151.4 19.4 151.4 19.5 C 151.4 19.5 151.4 19.5 151.4 19.5 C 151.4 19.5 151.4 19.5 151.4 19.5 C 151.4 19.5 151.4 19.6 151.4 19.6 C 151.4 19.6 151.4 19.7 151.5 19.8 C 151.4 19.9 151.1 20.0 151.2 20.2 C 151.4 20.2 151.2 19.9 151.7 20.0 C 151.7 19.8 151.6 19.8 151.6 19.7 C 151.7 19.8 151.7 19.9 151.8 19.9 C 151.8 20.1 151.4 20.0 151.4 20.3 C 151.5 20.3 151.6 20.3 151.8 20.3 C 151.8 20.4 151.7 20.4 151.7 20.5 C 151.5 20.3 151.5 20.4 151.4 20.5 C 151.5 20.5 151.5 20.5 151.5 20.5 C 151.6 20.7 151.2 20.5 151.3 20.7 C 151.3 20.7 151.5 20.7 151.5 20.8 C 151.4 20.8 151.4 20.9 151.5 21.0 C 151.4 21.0 151.4 21.0 151.3 21.0 C 151.4 21.0 151.4 21.1 151.5 21.1 C 151.5 21.2 151.3 21.2 151.2 21.2 C 151.2 21.3 151.2 21.4 151.2 21.6 C 151.4 21.6 151.4 21.4 151.6 21.4 C 151.6 21.6 151.5 21.7 151.2 21.7 C 151.5 21.9 151.3 22.1 151.1 22.1 C 151.0 22.0 151.2 22.6 151.4 22.4 C 151.3 22.8 151.5 22.8 151.4 23.5 C 151.2 23.5 151.5 23.1 151.2 23.2 C 151.1 23.0 151.4 23.6 151.3 23.8 C 151.4 23.9 151.6 24.1 151.5 24.4 C 151.4 24.4 151.5 24.3 151.5 24.3 C 151.2 24.1 151.5 24.7 151.5 25.0 C 151.7 25.2 151.9 24.7 152.0 25.0 C 152.2 25.0 152.0 24.8 152.2 24.7 C 152.1 24.5 152.0 25.0 151.9 24.7 C 151.9 24.7 152.0 24.6 152.1 24.6 C 152.0 24.5 151.9 24.5 151.9 24.5 C 152.1 24.5 152.1 24.4 152.2 24.3 C 152.2 24.4 152.2 24.4 152.2 24.4 C 152.2 24.3 152.2 24.3 152.1 24.2 C 152.3 24.2 152.3 24.3 152.4 24.4 C 152.5 24.4 152.6 24.4 152.6 24.4 C 152.5 24.5 152.5 24.5 152.5 24.5 C 152.5 24.5 152.5 24.5 152.5 24.5 C 152.6 24.5 152.7 24.4 152.7 24.3 C 152.6 24.3 152.6 24.2 152.6 24.2 C 152.8 24.0 152.6 24.4 152.9 24.3 C 152.7 24.2 153.1 23.9 152.8 23.8 C 152.9 24.0 152.4 24.0 152.6 23.9 C 152.8 23.9 152.8 23.7 153.0 23.7 C 153.0 23.9 153.1 23.9 153.0 24.1 C 153.4 23.9 153.0 24.3 153.4 24.2 C 153.2 24.4 153.7 24.5 153.5 24.5 C 153.4 24.6 153.3 24.3 153.2 24.5 C 153.3 24.6 153.5 24.5 153.5 24.7 C 153.4 24.9 153.1 25.1 153.4 25.3 L 152.5 25.4 C 152.5 25.6 152.4 25.8 151.9 25.8 C 151.9 25.9 152.1 25.9 152.1 26.0 C 152.0 26.3 152.0 25.8 151.8 25.9 C 151.9 26.3 151.8 26.7 151.9 27.0 C 151.8 27.1 151.6 27.3 151.8 27.4 C 151.9 27.4 151.6 27.2 151.9 27.2 C 152.1 27.3 152.1 27.5 152.4 27.4 C 152.5 27.9 152.0 27.6 151.8 27.8 C 151.8 27.8 151.8 27.9 151.8 28.0 C 151.9 28.0 152.0 27.9 152.0 27.8 C 152.1 27.9 152.2 27.9 152.3 28.0 C 151.9 28.1 152.3 28.3 151.8 28.4 C 152.8 30.7 154.1 28.4 154.4 28.3 L 155.2 29.8 C 155.6 29.4 155.2 27.2 155.3 26.8 C 155.3 26.7 155.4 26.7 155.4 26.7 C 155.4 26.6 155.2 26.4 155.2 26.3 C 155.4 26.2 155.4 26.4 155.4 26.2 C 155.4 26.0 155.3 26.2 155.2 26.2 C 155.2 26.0 155.5 26.1 155.4 25.8 C 155.2 25.8 155.3 26.0 155.2 26.0 C 154.9 26.1 155.4 25.7 155.1 25.7 C 155.1 25.7 155.3 25.7 155.3 25.7 C 155.6 25.7 155.0 25.4 155.5 25.4 C 155.4 25.4 155.4 25.3 155.5 25.3 C 155.4 25.2 155.3 25.2 155.2 25.2 C 155.2 25.1 155.5 25.1 155.2 25.1 C 155.4 24.9 155.4 24.1 155.2 24.1 C 155.1 23.7 155.5 23.9 155.4 23.7 C 155.1 23.6 155.4 23.4 155.3 23.1 C 155.0 23.1 155.3 22.9 155.3 22.8 C 155.2 22.8 155.1 22.9 155.0 22.9 C 155.4 22.7 155.1 22.2 155.0 22.1 C 154.9 21.8 155.1 21.8 154.9 21.7 C 155.1 21.7 155.1 21.8 155.1 22.0 C 155.4 21.8 155.2 21.6 155.5 21.6 C 155.5 21.4 154.9 21.8 154.9 21.6 C 154.9 21.4 155.2 21.6 155.2 21.3 C 154.8 21.5 155.3 21.1 155.2 20.9 C 154.8 20.8 155.3 20.2 155.0 20.2 C 155.0 19.8 155.3 20.0 155.2 19.8 C 154.9 19.5 155.1 19.0 155.0 18.4 C 155.0 18.5 155.3 18.7 155.2 18.5 C 154.9 18.1 155.1 18.2 155.2 18.0 C 155.0 17.9 155.0 17.8 154.8 17.8 C 155.1 17.4 154.6 16.4 154.9 15.9 C 154.9 15.8 154.8 15.8 154.7 15.8 C 154.9 15.6 154.6 15.3 154.9 15.3 C 154.6 15.2 154.9 15.1 154.6 15.1 C 154.6 15.0 154.7 15.0 154.7 14.9 C 154.9 14.9 155.0 15.4 155.0 15.1 C 154.4 14.4 155.1 14.0 154.7 13.5 C 154.7 13.4 154.9 13.3 154.9 13.2 C 155.0 13.3 155.2 13.2 155.2 13.3 C 155.5 13.2 154.7 13.1 155.0 13.0 C 154.9 12.8 154.8 13.1 154.9 13.3 C 154.6 13.3 154.7 13.2 154.5 13.3 C 154.6 13.1 154.8 12.9 154.7 12.6 C 154.8 12.6 154.9 12.6 154.9 12.7 C 155.2 12.5 154.7 12.6 154.7 12.4 C 154.7 12.5 154.5 12.5 154.5 12.6 C 154.4 12.6 154.4 12.5 154.4 12.4 C 154.7 12.4 154.4 12.4 154.5 12.2 C 154.4 12.0 153.8 12.1 153.9 12.2 C 154.0 12.4 154.1 12.1 154.2 12.3 C 154.2 12.6 153.3 13.1 154.0 13.1 C 154.1 13.1 153.8 13.1 153.9 12.9 C 154.1 12.9 154.0 13.1 154.2 13.0 C 154.1 13.1 154.1 13.2 154.1 13.4 C 153.7 13.5 153.9 13.2 153.8 13.3 C 153.6 13.5 153.9 13.7 153.7 13.9 C 153.7 14.0 154.0 13.7 154.1 13.6 C 154.2 13.9 154.0 14.2 153.7 14.6 C 153.8 14.8 153.8 14.6 153.9 14.6 C 154.0 14.7 153.9 14.8 153.8 14.8 C 153.9 14.9 154.0 15.0 154.0 15.1 C 153.9 15.3 153.8 15.4 153.7 15.5 C 153.7 15.7 153.8 15.4 154.0 15.5 C 153.7 15.8 154.1 15.8 153.8 16.0 C 153.6 16.0 153.7 15.8 153.6 15.7 C 153.5 15.7 153.4 15.8 153.3 15.8 C 153.7 16.0 153.7 16.0 153.7 16.4 C 153.8 16.3 153.8 16.3 153.8 16.2 C 154.1 16.2 153.7 16.5 154.1 16.4 C 154.0 16.5 153.8 16.6 154.1 16.7 C 153.8 16.8 153.8 16.9 153.8 17.3 C 153.6 17.3 153.5 17.2 153.5 17.0 C 153.4 17.3 153.3 17.2 153.1 17.0 C 153.2 17.0 153.3 17.0 153.4 16.9 C 153.4 16.9 153.1 16.8 153.1 16.6 C 153.2 16.4 153.3 16.7 153.4 16.5 C 153.3 16.4 153.1 16.4 153.4 16.3 C 153.3 16.2 153.1 16.2 153.0 16.0 C 153.0 16.0 153.1 15.9 153.1 15.9 C 153.3 15.8 153.2 16.1 153.4 16.1 C 153.4 15.8 153.2 15.8 153.2 15.6 C 153.1 15.5 153.0 15.5 152.8 15.4 C 152.8 15.5 152.8 15.6 152.9 15.6 C 152.5 15.7 152.9 15.9 152.7 16.1 C 153.1 16.1 153.1 16.5 152.9 16.6 C 153.1 16.5 153.3 17.0 153.1 17.0 C 153.1 17.0 152.8 16.9 152.7 17.1 C 152.9 17.0 152.9 17.2 153.1 17.2 C 152.9 17.5 153.5 17.6 153.3 17.8 C 153.2 17.7 153.0 17.5 152.9 17.3 C 152.6 17.4 152.5 17.5 152.3 17.6 C 152.7 17.5 152.2 17.8 152.5 17.8 C 152.6 17.7 152.6 17.5 152.7 17.5 C 152.7 17.8 153.1 17.6 153.2 17.8 C 152.8 17.8 152.6 18.0 152.5 18.0 C 152.7 18.1 152.6 18.0 152.8 18.0 C 152.8 18.3 152.5 18.4 152.5 18.2 C 152.5 18.3 152.4 18.3 152.4 18.4 C 152.7 18.3 152.5 18.6 152.7 18.6 C 152.9 18.6 152.9 18.4 152.9 18.4 C 152.8 18.4 152.7 18.4 152.8 18.2 C 153.1 18.3 152.8 17.9 153.1 18.0 C 153.0 18.2 153.4 18.3 153.2 18.3 C 153.2 18.2 153.0 18.3 153.0 18.4 C 153.1 18.6 153.1 18.7 153.3 18.8 C 153.3 18.7 153.3 18.5 153.4 18.5 C 153.5 19.0 153.0 19.0 153.0 18.8 C 153.0 18.8 152.9 18.8 152.9 18.8 C 152.7 19.2 153.0 19.1 153.1 19.2 C 152.9 19.4 152.8 19.5 152.6 19.9 C 152.8 19.9 152.7 19.7 152.9 19.7 C 153.0 20.0 152.6 19.9 152.7 20.2 C 152.8 20.2 152.9 20.1 153.0 20.1 C 153.0 20.5 153.3 20.1 153.4 20.5 C 152.8 20.3 153.3 20.8 152.9 20.6 C 153.1 21.0 152.9 21.4 152.5 21.4 C 152.6 21.4 152.7 21.3 152.6 21.3 C 152.6 21.4 152.3 21.5 152.3 21.4 C 152.5 21.3 152.6 20.8 152.3 21.1 C 152.4 20.7 152.8 20.6 153.0 20.3 C 153.0 20.4 152.9 20.3 152.9 20.3 C 152.9 20.5 152.5 20.8 152.3 20.7 C 152.4 20.5 152.3 20.3 152.2 20.0 C 152.5 19.9 152.3 20.0 152.3 19.7 C 152.4 19.6 152.7 19.7 152.7 19.5 C 152.6 19.5 152.4 19.5 152.3 19.5 C 152.4 19.3 152.2 19.3 152.2 19.1 C 152.5 19.1 152.4 19.3 152.7 19.3 C 152.7 18.8 152.4 19.3 152.2 18.7 C 152.3 18.7 152.5 18.7 152.5 18.6 C 152.1 18.2 152.5 17.5 152.1 16.9 C 152.3 16.8 152.4 17.1 152.5 16.9 C 152.3 16.8 152.3 16.6 152.2 16.3 C 152.6 16.2 152.3 15.8 152.1 15.7 C 152.3 15.6 152.4 15.8 152.4 15.7 C 152.3 15.5 152.2 15.4 152.1 15.3 C 152.2 15.2 152.2 15.2 152.3 15.2 C 152.4 15.2 152.4 15.3 152.4 15.3 C 152.4 15.3 152.4 15.3 152.4 15.3 C 152.5 15.3 152.5 15.3 152.6 15.3 C 152.6 15.2 152.7 15.2 152.8 15.2 C 152.8 15.2 152.8 15.3 152.8 15.3 C 153.0 15.3 153.2 15.4 153.4 15.2 C 153.1 15.1 153.3 14.9 153.2 14.7 C 153.3 14.7 153.4 14.9 153.4 15.0 C 153.5 15.0 153.8 15.1 153.7 14.8 C 153.6 14.8 153.6 14.9 153.5 14.9 C 153.5 14.9 153.5 14.8 153.4 14.8 C 153.4 14.7 153.5 14.6 153.6 14.6 C 153.6 14.3 152.9 15.0 153.2 14.1 C 153.0 14.2 153.1 14.4 152.9 14.2 C 153.0 14.0 153.2 13.8 153.1 13.3 C 152.8 13.2 152.7 13.2 152.4 13.5 C 152.5 13.5 152.7 13.5 152.8 13.7 C 152.6 13.7 152.5 13.9 152.4 14.2 C 152.6 14.2 152.7 14.2 152.7 14.3 C 152.3 14.5 152.6 14.9 152.4 15.1 C 152.3 14.9 152.2 14.9 152.1 14.8 C 152.2 14.6 152.3 14.8 152.3 14.6 C 152.1 14.6 152.2 14.5 152.2 14.4 C 152.2 14.4 152.2 14.4 152.1 14.4 C 152.1 14.4 152.2 14.3 152.2 14.3 C 152.2 14.3 152.2 14.3 152.2 14.3 C 152.2 14.3 152.2 14.2 152.2 14.1 C 152.2 14.1 152.3 14.1 152.3 14.1 C 152.3 13.9 151.8 13.7 152.1 13.4 C 152.3 13.3 151.9 13.4 152.0 13.5 C 151.8 13.5 152.2 13.2 151.8 13.3 C 151.9 13.0 152.1 13.3 152.2 13.1 C 152.2 13.0 152.1 13.2 152.0 13.1 C 152.0 12.9 152.2 12.9 152.3 12.8 C 152.1 12.7 152.0 12.9 151.9 12.7 C 152.1 12.6 152.1 12.4 152.1 12.2 C 151.9 12.2 151.9 12.4 151.6 12.4 C 151.5 12.1 152.0 12.3 151.8 12.0 C 151.7 12.0 151.8 12.1 151.7 12.1 C 151.4 12.1 151.7 12.0 151.7 11.8 C 151.9 11.9 151.8 11.9 152.1 11.8 C 152.1 11.9 152.0 11.9 152.0 11.9 C 152.3 12.1 152.0 11.5 151.8 11.8 C 151.8 11.7 151.9 11.6 152.0 11.6 C 151.9 11.5 151.9 11.6 151.7 11.6 C 151.8 11.5 151.8 11.3 151.9 11.2 C 151.7 11.3 151.7 11.5 151.4 11.5 Z M 153.6 19.9 C 153.5 20.0 153.3 20.0 153.1 20.0 C 153.0 19.7 153.3 19.6 153.3 19.4 C 153.3 19.7 153.7 19.6 153.6 19.9 Z M 153.6 22.4 C 153.5 22.6 153.3 23.0 153.1 22.8 C 153.3 22.5 153.3 22.5 153.6 22.4 Z M 152.5 23.1 C 152.5 23.0 152.1 23.2 152.2 22.9 C 152.5 23.1 152.5 22.8 152.6 22.5 C 152.8 22.5 152.9 22.5 152.9 22.7 C 152.8 22.7 152.6 22.6 152.6 22.7 C 152.8 22.8 152.9 23.0 153.0 22.9 C 152.8 23.3 152.9 23.0 153.2 23.2 C 152.8 23.5 152.4 23.7 152.0 23.4 C 152.4 23.4 152.1 23.2 152.0 23.2 C 152.3 23.1 152.4 23.3 152.5 23.1 Z M 153.0 22.1 C 153.0 21.8 152.9 21.8 153.0 21.7 C 153.1 21.8 153.1 21.8 153.2 21.9 C 153.2 21.8 153.4 21.6 153.4 21.9 C 153.1 21.9 152.9 22.1 153.1 22.3 C 152.8 22.2 152.7 22.6 152.2 22.5 C 152.2 22.1 152.6 21.9 153.0 22.1 Z M 153.2 12.8 C 153.0 12.9 153.1 13.0 153.2 13.1 C 153.1 13.1 153.2 13.2 153.1 13.3 C 153.1 13.2 153.0 13.3 153.0 13.4 C 152.6 13.4 153.1 13.1 152.9 13.0 C 152.8 13.1 152.7 13.1 152.6 13.2 C 152.6 13.1 152.5 13.0 152.6 13.0 C 152.8 13.1 152.4 12.8 152.7 12.8 C 152.7 12.8 152.7 12.9 152.8 12.9 C 152.7 12.7 153.0 12.7 153.0 12.6 C 153.1 12.7 153.0 12.8 153.1 12.8 C 153.1 12.8 153.2 12.7 153.2 12.8 Z M 151.8 10.8 C 151.7 10.9 151.5 11.0 151.5 11.2 C 151.7 11.3 152.1 10.9 151.9 11.1 C 152.0 11.2 151.7 11.1 151.7 11.3 C 152.0 11.1 152.0 11.8 151.7 11.9 C 151.7 11.8 151.6 11.7 151.5 11.8 C 151.5 11.5 151.3 11.4 151.2 11.2 C 151.5 11.0 151.6 10.5 151.3 10.3 C 151.7 10.1 151.2 9.8 151.5 9.6 C 151.4 9.5 151.3 9.8 151.2 9.6 C 151.4 9.5 151.5 9.6 151.6 9.4 C 151.5 9.4 151.4 9.4 151.3 9.4 C 151.5 9.4 151.5 9.3 151.5 9.2 C 151.5 9.6 151.8 9.2 151.9 9.4 C 151.8 9.6 151.5 9.4 151.6 9.7 C 151.6 9.8 151.7 9.9 151.9 9.8 C 151.9 9.9 152.0 10.0 152.0 10.0 C 151.7 9.9 152.1 10.4 151.8 10.2 C 151.8 10.2 151.8 10.0 151.7 9.9 C 151.5 10.0 151.6 10.1 151.8 10.3 C 151.6 10.4 151.5 10.3 151.5 10.4 C 151.6 10.6 151.8 10.3 151.9 10.4 C 151.9 10.4 151.9 10.3 152.0 10.3 C 151.8 10.6 152.0 10.7 152.0 10.8 C 151.9 10.7 151.8 11.0 151.8 10.8 Z M 153.3 10.3 C 153.4 10.2 153.5 10.2 153.6 10.3 C 153.5 10.3 153.5 10.4 153.5 10.5 C 153.5 10.5 153.6 10.5 153.6 10.5 C 153.4 10.6 153.4 10.4 153.3 10.3 Z M 151.4 8.5 C 151.4 8.5 151.4 8.4 151.3 8.4 C 151.6 8.3 151.6 8.6 151.8 8.4 C 151.7 8.7 151.5 8.4 151.4 8.5 Z M 152.8 12.6 C 152.6 12.7 153.1 12.6 153.1 12.7 C 153.1 12.5 153.0 12.4 153.2 12.4 C 153.2 12.5 153.2 12.6 153.3 12.8 C 152.9 12.7 153.0 13.0 152.8 13.1 C 152.7 12.9 152.6 12.8 152.6 12.7 C 152.7 12.7 152.8 12.4 152.8 12.6 Z M 152.8 12.1 C 152.9 12.0 152.8 11.7 153.1 11.8 C 153.0 12.0 153.1 12.0 153.3 12.0 C 153.3 12.1 153.2 12.1 153.2 12.2 C 153.0 12.3 153.0 12.1 152.9 12.1 C 152.9 12.1 152.8 12.1 152.8 12.1 Z M 137.9 33.1 C 137.9 32.8 137.6 33.1 137.6 33.2 C 137.5 33.1 137.2 33.2 137.1 33.0 C 137.3 33.0 137.3 32.9 137.4 32.9 C 137.4 33.0 137.4 33.1 137.5 33.1 C 137.5 33.0 137.5 32.8 137.6 32.8 C 137.6 33.0 137.8 32.8 137.9 32.8 C 137.9 33.0 138.1 33.0 137.9 33.1 Z M 137.9 33.5 C 138.1 33.4 137.9 33.2 138.2 33.2 C 138.2 33.4 138.2 33.4 138.4 33.4 C 138.5 33.5 138.4 33.5 138.4 33.6 C 138.1 33.7 138.1 33.5 138.0 33.5 C 138.0 33.5 138.0 33.5 137.9 33.5 Z M 155.9 25.4 C 155.9 25.3 155.8 25.3 155.8 25.2 C 155.7 25.2 155.6 25.2 155.6 25.3 C 155.6 25.4 155.6 25.5 155.7 25.5 C 155.7 25.3 155.8 25.5 155.9 25.4 Z M 135.1 33.0 C 135.0 33.0 135.0 33.0 134.9 33.1 C 135.0 33.2 135.0 33.2 135.1 33.2 C 135.1 33.2 135.1 33.1 135.2 33.1 L 135.1 33.0 Z M 140.4 33.9 C 140.5 33.9 140.4 34.0 140.5 34.0 C 140.5 34.0 140.6 34.0 140.6 33.9 C 140.6 33.9 140.6 33.9 140.5 33.9 C 140.6 33.9 140.6 33.9 140.6 33.9 C 140.6 33.7 140.4 33.8 140.4 33.9 Z M 151.8 30.9 C 151.7 30.8 151.6 30.9 151.5 31.0 C 151.7 31.1 151.7 31.2 151.6 31.3 C 151.7 31.4 151.8 31.3 151.8 31.4 C 151.7 31.2 151.8 31.1 151.8 30.9 Z M 132.6 29.9 C 132.1 31.1 132.1 32.5 132.7 33.6 C 132.8 33.4 132.6 33.3 132.6 33.1 C 133.6 33.4 136.3 34.3 135.0 32.4 C 135.1 32.7 135.5 32.7 135.7 32.7 C 135.8 32.8 135.7 32.9 135.7 33.0 C 135.7 33.0 135.8 33.1 135.9 33.1 C 136.0 32.9 136.1 32.8 136.2 32.7 C 136.2 32.9 136.2 33.0 136.2 33.2 C 136.5 33.3 136.5 32.8 136.6 32.6 C 136.8 32.5 137.0 32.4 137.2 32.3 C 137.5 32.5 137.6 32.1 137.7 32.4 C 137.8 32.2 137.7 32.1 137.9 31.9 C 138.1 32.0 137.8 32.2 137.9 32.3 C 138.1 32.1 138.6 32.0 138.5 31.6 C 138.4 31.6 138.3 31.9 138.2 32.0 C 138.1 31.8 138.2 31.8 138.4 31.6 C 138.9 31.6 139.5 31.7 140.1 31.7 C 139.9 32.1 139.6 31.9 139.1 32.1 C 139.1 32.0 139.2 31.9 139.0 32.0 C 138.8 32.2 138.9 32.3 138.9 32.5 C 138.7 32.6 138.7 32.6 138.5 32.7 C 138.7 32.7 138.7 32.8 138.9 32.9 C 138.8 33.0 138.8 32.8 138.6 32.7 C 138.6 32.8 138.7 32.9 138.7 32.9 C 138.5 32.8 138.6 33.1 138.5 33.0 C 138.5 33.2 138.7 33.2 138.5 33.4 C 138.8 33.4 138.4 33.4 138.7 33.6 C 138.7 33.5 138.6 33.5 138.7 33.4 C 138.8 33.4 138.7 33.6 138.8 33.6 C 138.8 33.6 138.8 33.6 138.9 33.6 C 139.0 33.6 138.9 33.5 138.9 33.5 C 139.1 33.5 138.9 33.6 139.0 33.7 C 138.9 33.7 138.8 33.7 138.7 33.6 C 138.7 33.8 139.0 33.7 139.2 33.8 C 139.2 33.7 139.1 33.7 139.1 33.7 C 138.9 33.6 139.2 33.6 139.2 33.4 C 139.3 33.6 139.1 33.6 139.2 33.6 C 139.3 33.7 139.4 33.6 139.5 33.7 C 139.6 33.7 139.6 33.6 139.5 33.6 C 139.6 33.5 139.7 33.6 139.7 33.5 C 139.8 33.6 139.8 33.8 139.9 33.9 C 139.9 33.7 140.0 33.7 140.1 33.9 C 140.2 33.8 140.1 33.7 140.0 33.7 C 140.1 33.6 140.2 33.8 140.3 33.8 C 140.4 33.6 140.2 33.7 140.3 33.6 C 140.6 33.7 140.9 33.9 141.1 34.0 C 141.2 33.9 141.3 33.9 141.4 34.0 C 141.4 33.9 141.5 33.9 141.5 33.8 C 141.7 34.0 141.4 33.8 141.8 34.0 C 141.8 33.9 141.8 33.9 141.7 33.8 C 141.8 33.8 141.8 33.9 141.9 34.0 C 141.9 33.9 142.0 33.9 142.0 33.9 C 142.1 33.9 142.1 33.8 142.3 33.8 C 142.3 33.8 142.4 33.9 142.3 33.9 C 142.4 33.9 142.6 34.0 142.7 33.8 C 142.4 33.9 142.7 33.8 142.8 33.7 C 142.9 33.8 142.6 33.8 142.8 33.9 C 143.8 34.2 144.7 34.2 145.9 34.2 C 146.4 34.6 147.0 34.5 147.5 34.4 C 147.5 34.4 147.5 34.3 147.6 34.3 L 147.7 34.4 C 147.6 34.4 147.6 34.3 147.6 34.3 C 147.6 34.5 148.1 34.3 148.3 34.3 C 148.6 34.3 148.8 34.5 149.1 34.5 C 149.3 34.5 149.5 34.4 149.8 34.5 C 149.9 34.5 149.8 34.8 150.0 34.6 C 150.1 34.7 149.9 34.7 149.9 34.8 C 149.8 34.9 150.0 34.8 150.0 34.7 C 150.1 34.8 150.0 34.8 149.9 34.9 C 150.9 35.1 151.9 34.9 152.7 35.1 C 153.1 34.9 153.3 35.0 153.2 35.4 C 153.6 35.5 153.9 35.5 154.3 35.4 C 154.3 35.4 154.3 35.5 154.4 35.6 C 154.5 35.6 154.3 35.7 154.4 35.8 C 154.6 35.9 154.6 35.8 154.5 36.0 C 154.5 36.1 154.4 36.0 154.4 36.0 C 154.2 36.2 154.2 36.3 154.4 36.5 C 155.0 36.4 156.1 36.0 156.3 35.0 C 156.3 35.1 156.2 35.2 156.2 35.2 C 155.5 34.8 156.0 33.9 155.5 33.3 C 156.0 32.8 156.2 32.3 156.3 31.8 L 156.0 31.6 C 155.9 31.7 155.8 31.7 155.8 31.8 C 155.7 31.5 155.7 31.1 155.8 30.7 C 155.8 30.6 156.0 30.6 156.1 30.7 C 156.4 30.0 155.5 30.1 155.2 29.8 C 155.1 29.6 155.4 29.4 155.4 29.1 C 155.5 28.8 155.3 28.6 155.3 28.4 C 155.4 28.3 155.5 28.4 155.6 28.4 L 155.9 28.1 C 155.7 27.9 155.3 27.8 155.3 28.1 C 155.1 28.0 155.2 27.9 155.2 27.9 C 155.5 27.5 156.0 27.3 156.0 26.9 C 155.9 26.8 155.8 26.8 155.8 26.8 C 155.6 26.9 155.5 27.3 155.3 27.3 C 155.0 26.9 155.6 26.9 155.7 26.6 C 155.6 26.2 155.7 25.7 155.3 25.4 C 155.2 25.4 155.1 25.4 155.0 25.4 C 155.0 25.3 154.9 25.1 154.7 25.0 C 154.8 24.9 154.9 24.9 155.0 24.7 C 155.1 24.8 155.0 24.9 155.1 24.8 C 155.0 24.6 154.7 24.9 154.6 24.5 C 154.8 24.4 155.3 24.3 155.2 23.9 C 154.8 23.9 154.4 23.6 154.1 23.2 C 153.9 23.4 153.7 23.1 153.5 23.2 C 153.4 23.1 153.6 22.9 153.5 22.8 C 153.9 22.9 154.4 23.1 154.8 22.7 C 154.5 22.6 154.5 22.4 154.5 22.2 L 153.8 21.9 L 153.2 21.1 L 153.2 23.6 L 153.1 25.7 L 152.7 24.1 L 151.4 22.1 L 151.4 22.2 C 151.5 22.5 151.5 22.7 151.3 23.0 C 151.3 23.0 151.4 23.1 151.5 23.1 C 151.2 23.2 151.6 23.3 151.4 23.5 C 151.5 23.5 151.5 23.5 151.6 23.5 C 151.7 23.6 151.5 23.6 151.5 23.7 C 151.6 23.7 151.6 23.9 151.7 23.9 C 151.6 24.0 151.6 24.1 151.5 24.2 C 151.7 24.4 151.9 24.2 151.9 24.1 C 152.0 24.2 151.8 24.4 151.9 24.6 C 151.8 24.6 151.7 24.3 151.7 24.4 C 151.7 24.5 151.6 24.6 151.7 24.7 C 151.7 24.6 151.7 24.6 151.7 24.6 C 151.8 24.8 151.8 24.8 152.0 24.9 C 152.0 25.0 151.9 24.9 151.8 25.0 C 151.8 24.9 151.8 24.8 151.8 24.8 C 151.6 24.9 151.8 25.1 151.7 25.2 C 151.9 25.3 151.8 25.0 151.9 25.0 C 152.0 25.1 151.9 25.1 151.9 25.2 C 151.8 25.3 151.7 25.3 151.6 25.3 C 151.6 25.5 151.8 25.3 151.9 25.4 C 151.8 25.5 151.7 25.4 151.7 25.4 C 151.6 25.5 151.7 25.5 151.8 25.6 C 151.6 25.6 151.7 25.7 151.5 25.6 C 151.4 25.7 151.7 25.7 151.5 25.9 C 151.6 25.9 151.6 25.9 151.7 25.9 C 151.3 25.9 151.9 26.3 151.5 26.4 C 151.7 26.4 151.6 26.7 151.5 26.8 C 151.6 27.1 151.7 27.4 151.5 27.6 C 151.8 27.5 151.4 27.9 151.7 27.9 C 151.5 27.9 151.6 28.1 151.5 28.0 C 151.6 28.1 151.6 28.2 151.7 28.2 C 151.6 28.2 151.6 28.2 151.5 28.3 C 151.6 28.4 151.5 28.5 151.7 28.6 C 151.6 28.6 151.6 28.6 151.5 28.7 C 151.6 29.0 151.8 29.2 151.8 29.5 C 151.8 29.5 151.9 29.5 151.9 29.5 C 152.0 29.5 151.9 29.6 151.8 29.6 C 151.9 29.6 152.2 29.6 152.1 29.5 C 152.1 29.4 152.2 29.6 152.3 29.6 C 152.3 29.5 152.3 29.5 152.4 29.4 C 152.3 29.3 152.3 29.4 152.2 29.4 C 152.2 29.3 152.3 29.3 152.3 29.2 C 152.4 29.2 152.3 29.3 152.4 29.4 C 152.4 29.3 152.4 29.3 152.4 29.3 C 152.4 29.3 152.5 29.3 152.5 29.3 C 152.4 29.2 152.5 29.0 152.5 29.0 C 152.5 29.0 152.6 28.5 152.5 28.5 C 152.5 28.5 152.6 28.5 152.6 28.4 C 152.5 28.2 152.6 27.9 152.5 27.7 C 152.6 27.8 152.7 28.1 152.7 28.2 C 152.8 28.2 152.9 28.2 152.9 28.4 C 152.8 28.4 152.8 28.2 152.7 28.3 C 152.6 28.3 152.7 28.4 152.8 28.3 C 152.6 28.6 153.0 28.9 152.8 29.3 C 152.9 29.4 152.9 29.2 153.0 29.2 C 152.9 29.5 152.9 29.3 152.8 29.5 C 152.9 29.6 152.9 29.5 153.0 29.5 C 153.0 29.5 153.0 29.5 152.9 29.6 C 153.1 29.6 153.1 29.6 153.2 29.8 C 153.1 29.8 153.1 29.6 153.0 29.6 C 153.1 29.8 152.8 29.8 153.0 29.9 C 153.0 30.0 152.9 30.0 152.9 29.9 C 152.9 30.1 153.0 30.1 153.1 30.4 C 153.0 30.3 153.0 30.4 152.9 30.4 C 153.0 30.5 153.1 30.7 152.9 30.9 C 153.0 30.9 153.2 31.2 153.0 31.3 C 153.0 31.4 153.1 31.3 153.2 31.3 C 153.2 31.3 153.1 31.4 153.1 31.5 C 153.3 31.5 153.5 32.0 153.7 31.9 C 153.6 32.2 153.4 31.8 153.2 32.1 C 153.1 31.9 153.3 32.0 153.3 31.9 C 153.1 31.9 153.3 31.7 153.2 31.6 C 153.1 31.8 153.1 31.7 153.0 31.8 C 153.2 31.9 153.1 31.9 153.1 32.0 C 152.9 31.8 152.5 31.9 152.2 31.9 C 152.1 31.7 152.4 31.5 152.1 31.3 C 151.8 31.4 151.6 31.8 151.9 31.9 C 151.8 32.0 151.7 31.9 151.6 32.0 C 151.4 31.6 151.4 31.2 150.9 31.0 C 150.8 31.2 150.8 31.3 150.9 31.4 C 150.8 31.4 150.8 31.5 150.8 31.5 C 150.5 31.1 150.1 31.3 149.8 31.3 C 149.7 31.2 149.8 31.1 149.7 31.1 L 149.5 31.3 C 149.1 31.1 149.2 31.0 149.1 30.7 C 149.2 30.6 149.3 30.8 149.4 30.8 C 149.4 31.0 149.3 30.8 149.2 31.0 C 149.2 31.1 149.4 31.3 149.5 31.1 C 149.4 30.9 149.6 30.7 149.6 30.4 C 149.7 30.5 149.6 30.6 149.7 30.7 C 149.8 30.6 150.0 30.5 150.1 30.4 C 150.2 30.5 150.1 30.7 150.1 30.8 C 150.2 30.8 150.2 30.5 150.2 30.4 C 150.6 30.5 150.9 31.2 151.3 30.9 C 151.2 30.7 151.1 30.8 151.0 30.7 C 150.9 30.6 151.0 30.5 151.1 30.4 C 150.8 30.1 150.6 30.5 150.3 30.3 C 150.2 30.2 150.3 30.1 150.4 30.0 C 149.9 29.5 149.5 30.0 149.1 29.9 C 149.1 30.1 149.1 30.5 148.8 30.7 C 149.1 30.0 148.3 29.8 147.9 30.0 C 147.8 29.9 147.7 29.8 147.6 29.7 C 147.4 29.9 147.4 30.1 147.2 30.3 C 147.1 30.2 147.2 30.1 147.3 30.0 C 147.2 29.9 147.2 29.8 147.1 29.8 C 146.9 29.9 146.6 29.8 146.4 30.3 C 146.4 30.2 146.5 30.0 146.3 30.0 L 146.5 29.8 C 146.2 29.9 145.9 30.1 145.5 29.9 C 145.5 29.9 145.5 29.8 145.6 29.8 C 145.4 29.7 145.4 29.8 145.3 29.7 C 145.2 29.9 145.3 30.0 145.3 30.1 C 145.2 30.2 145.1 30.2 145.1 30.2 C 145.0 30.1 145.1 30.0 144.9 29.9 C 144.8 30.0 145.0 30.2 144.9 30.3 C 144.7 30.1 144.8 29.7 144.4 29.6 C 144.1 30.0 144.9 30.3 144.8 30.7 C 144.7 30.8 144.6 30.7 144.5 30.7 C 144.6 30.6 144.7 30.6 144.7 30.5 C 144.5 30.2 144.3 30.4 144.1 30.3 C 144.0 30.2 144.0 30.1 143.9 30.0 L 144.2 29.7 C 143.9 29.5 143.8 30.2 143.7 30.0 C 143.6 30.1 143.7 30.4 143.7 30.5 C 143.4 30.4 143.0 30.1 143.1 29.9 C 143.3 29.8 143.3 30.0 143.4 30.1 C 143.4 29.9 143.4 29.7 143.3 29.6 C 143.1 29.7 143.0 30.0 142.8 30.1 C 142.8 30.0 142.8 29.9 142.8 29.8 C 142.7 30.0 142.5 29.8 142.4 29.7 C 142.2 29.9 142.3 30.0 142.3 30.1 C 142.4 30.2 142.4 30.1 142.4 30.1 C 142.4 30.1 142.4 30.2 142.4 30.2 C 142.3 30.3 142.1 30.0 142.0 30.0 C 141.9 30.1 141.9 30.2 141.8 30.3 C 141.7 30.4 141.8 30.2 141.7 30.1 C 141.6 30.3 141.6 30.5 141.7 30.7 C 141.4 30.7 141.2 30.2 140.9 30.2 C 140.9 30.3 141.0 30.4 141.1 30.5 C 141.0 30.5 140.9 30.4 140.8 30.4 C 140.7 30.4 140.8 30.4 140.7 30.5 C 140.5 30.3 140.3 30.5 140.2 30.5 C 140.1 30.4 140.1 30.2 140.1 30.0 C 139.9 29.9 140.1 30.2 140.0 30.2 C 139.8 30.2 139.6 30.0 139.4 30.0 C 139.4 30.2 139.4 30.4 139.3 30.5 C 139.5 30.6 139.5 30.8 139.7 30.7 C 139.7 30.6 139.5 30.6 139.6 30.4 C 139.7 30.3 139.8 30.4 139.8 30.4 C 139.7 30.6 140.0 30.8 139.8 30.9 C 140.0 31.0 140.1 31.2 140.2 31.1 C 140.1 31.4 139.2 30.9 139.3 30.5 C 139.2 30.7 139.0 30.7 138.8 30.8 C 138.6 30.6 138.9 30.5 138.8 30.3 C 138.5 30.0 138.1 30.6 137.9 30.4 C 137.9 30.5 137.9 30.6 137.8 30.6 C 137.7 30.7 137.7 30.4 137.6 30.4 C 137.5 30.5 137.4 30.5 137.3 30.6 C 137.2 30.5 137.1 30.3 137.1 30.2 C 137.2 30.0 137.4 30.2 137.5 30.3 L 137.7 30.1 C 137.6 30.0 137.2 30.0 137.3 29.8 C 137.0 30.1 136.6 29.8 136.3 29.6 C 136.3 29.7 136.3 29.9 136.4 30.0 C 136.6 30.1 136.9 30.0 136.9 30.2 C 136.4 30.2 135.8 30.3 135.2 30.2 C 135.1 30.1 135.2 30.0 135.0 29.9 C 134.9 30.2 134.4 30.5 134.2 30.1 C 134.5 30.0 134.7 30.1 134.9 29.9 C 134.8 29.2 133.3 29.7 133.0 30.0 C 133.1 30.2 133.3 30.1 133.4 30.3 C 133.5 30.4 133.4 30.5 133.3 30.7 C 133.0 30.8 133.1 30.2 132.7 30.3 C 132.7 30.2 132.8 30.0 132.6 29.9 Z M 151.3 23.0 C 151.4 23.0 151.4 22.8 151.5 22.8 C 151.5 22.9 151.5 23.1 151.3 23.0 Z M 153.0 28.3 C 153.1 28.1 152.8 28.2 152.9 28.1 C 152.9 28.0 153.0 28.0 152.9 28.1 C 152.9 28.1 152.9 28.1 153.0 28.2 C 153.0 28.1 153.1 28.0 153.0 27.9 C 152.9 27.9 153.0 27.7 153.0 27.6 C 153.0 27.8 153.0 27.7 153.1 27.7 C 153.0 27.9 153.2 28.3 153.0 28.3 Z M 146.9 30.0 C 146.9 30.2 146.8 30.6 146.7 30.7 C 146.7 30.5 146.8 30.1 146.9 30.0 Z M 139.4 33.2 C 139.4 33.2 139.4 33.2 139.5 33.2 C 139.5 33.3 139.7 33.3 139.7 33.5 C 139.6 33.4 139.4 33.4 139.4 33.2 Z M 139.2 33.0 C 139.3 33.0 139.3 33.1 139.4 33.1 C 139.4 33.0 139.4 33.0 139.5 33.1 C 139.4 33.1 139.3 33.3 139.3 33.2 C 139.4 33.1 139.1 33.1 139.2 33.0 Z M 138.9 33.4 C 138.9 33.2 138.8 33.4 138.7 33.3 C 138.8 33.2 138.5 33.1 138.7 33.0 C 138.8 33.2 138.8 33.2 138.9 33.4 Z M 136.2 31.9 C 136.4 32.1 136.2 32.3 136.4 32.4 C 136.5 32.1 136.7 32.0 136.8 31.7 C 137.2 32.1 137.5 31.4 137.9 31.7 C 137.7 31.9 137.1 32.4 136.8 32.1 C 136.7 32.1 136.6 32.4 136.6 32.6 C 136.4 32.6 136.2 32.3 136.1 32.5 C 136.0 32.3 135.9 32.0 136.2 31.9 Z M 141.5 30.4 C 141.5 30.3 141.5 30.1 141.4 30.0 C 141.4 30.1 141.4 30.3 141.5 30.4 Z M 151.9 30.4 C 152.0 30.7 152.0 31.0 152.2 31.1 C 152.3 31.0 152.3 30.9 152.4 30.7 C 152.6 30.8 152.3 30.9 152.5 31.0 C 152.6 30.7 152.5 30.3 152.3 30.2 C 152.3 30.4 152.4 30.5 152.3 30.7 C 152.3 30.7 152.2 30.7 152.2 30.7 C 152.1 30.6 152.2 30.4 151.9 30.4 Z M 151.9 30.4 " fill="#62D7AD"></path></g></svg>