<?xml version="1.0" encoding="UTF-8" standalone="no"?><svg xmlns="http://www.w3.org/2000/svg" xmlns:xlink="http://www.w3.org/1999/xlink" clip-rule="evenodd" stroke-miterlimit="10" viewBox="0 0 801 795"><desc>SVG generated by Keynote</desc><defs></defs><g transform="matrix(1.00, 0.00, -0.00, -1.00, 0.0, 795.0)"><g><clipPath id="clip0x618003ca34e0"><path d="M 376.5 594.3 L 544.1 594.3 L 544.1 738.0 L 376.5 738.0 Z M 376.5 594.3 "></path></clipPath><g clip-path="url(#clip0x618003ca34e0)"><path d="M 403.7 737.0 L 464.7 737.0 C 485.3 737.0 505.1 728.8 519.8 714.1 C 534.6 699.3 542.9 679.0 543.0 657.9 L 543.0 595.0 L 378.0 595.0 L 378.0 737.0 L 403.7 737.0 Z M 403.7 737.0 " fill="#FF607B"></path></g></g><g><clipPath id="clip0x618003ca3ae0"><path d="M 257.5 594.3 L 408.9 594.3 L 408.9 738.0 L 257.5 738.0 Z M 257.5 594.3 "></path></clipPath><g clip-path="url(#clip0x618003ca3ae0)"><path d="M 259.0 737.0 L 408.0 737.0 L 408.0 595.0 L 259.0 595.0 Z M 258.5 737.0 " fill="#FF607B"></path></g></g><g><clipPath id="clip0x618003ca3cc0"><path d="M 257.5 452.7 L 543.6 452.7 L 543.6 596.5 L 257.5 596.5 Z M 257.5 452.7 "></path></clipPath><g clip-path="url(#clip0x618003ca3cc0)"><path d="M 259.0 595.0 L 543.0 595.0 L 543.0 454.0 L 259.0 454.0 Z M 258.5 595.5 " fill="#54C6E1"></path></g></g><g><clipPath id="clip0x618003ca3f00"><path d="M 82.2 420.8 L 313.8 420.8 L 313.8 794.0 L 82.2 794.0 Z M 82.2 420.8 "></path></clipPath><g clip-path="url(#clip0x618003ca3f00)"><image xlink:href="0C9EF2B77B82AAB2A10928A976AA870B.png" width="230.00" height="371.00" transform="matrix(1.00, 0.00, -0.00, -1.00, 83.2, 793.0)" opacity="0.96"></image><path d="M 259.0 736.0 L 143.0 620.4 L 143.0 478.8 L 259.0 594.6 L 259.0 736.0 Z M 258.7 736.0 " fill="#C5485E"></path></g></g><g><clipPath id="clip0x6000040a9240"><path d="M 481.3 280.6 L 712.9 280.6 L 712.9 653.9 L 481.3 653.9 Z M 481.3 280.6 "></path></clipPath><g clip-path="url(#clip0x6000040a9240)"><image xlink:href="E4A0B6DF0A19B1D59F19C4E78C076F82.png" width="230.00" height="371.00" transform="matrix(1.00, 0.00, -0.00, -1.00, 482.3, 652.9)" opacity="0.96"></image><path d="M 658.0 595.9 L 542.0 480.3 L 542.0 338.6 L 658.0 454.4 L 658.0 595.9 Z M 657.8 595.9 " fill="#409EB4"></path></g></g><g><clipPath id="clip0x6000040a9540"><path d="M 257.2 312.3 L 543.3 312.3 L 543.3 456.0 L 257.2 456.0 Z M 257.2 312.3 "></path></clipPath><g clip-path="url(#clip0x6000040a9540)"><path d="M 258.0 455.0 L 542.0 455.0 L 542.0 313.0 L 258.0 313.0 Z M 258.2 455.0 " fill="#EDC25F"></path></g></g><g><clipPath id="clip0x6000040a9780"><path d="M 81.9 139.9 L 313.5 139.9 L 313.5 513.1 L 81.9 513.1 Z M 81.9 139.9 "></path></clipPath><g clip-path="url(#clip0x6000040a9780)"><image xlink:href="196B5A95AC1F011E1BD67E27B91185DB.png" width="230.00" height="371.00" transform="matrix(1.00, 0.00, -0.00, -1.00, 82.9, 512.1)" opacity="0.96"></image><path d="M 258.0 455.1 L 143.0 339.5 L 143.0 197.9 L 259.0 313.7 L 258.0 455.1 Z M 258.4 455.1 " fill="#C9A550"></path></g></g><g><clipPath id="clip0x6000040a9a20"><path d="M 257.1 172.9 L 543.2 172.9 L 543.2 316.6 L 257.1 316.6 Z M 257.1 172.9 "></path></clipPath><g clip-path="url(#clip0x6000040a9a20)"><path d="M 258.0 316.0 L 542.0 316.0 L 542.0 174.0 L 258.0 174.0 Z M 258.1 315.6 " fill="#62D7AD"></path></g></g><g><clipPath id="clip0x6000040a9c60"><path d="M 481.0 0.7 L 713.2 0.7 L 713.2 374.0 L 481.0 374.0 Z M 481.0 0.7 "></path></clipPath><g clip-path="url(#clip0x6000040a9c60)"><image xlink:href="388EE7E9960A52AF7312F67E97419312.png" width="230.00" height="371.00" transform="matrix(1.00, 0.00, -0.00, -1.00, 482.0, 373.0)" opacity="0.96"></image><path d="M 658.0 316.0 L 542.0 200.3 L 542.0 58.7 L 658.0 174.5 L 658.0 316.0 Z M 658.1 316.0 " fill="#4DAD8B"></path></g></g><g><clipPath id="clip0x608003ea85e0"><path d="M 309.0 499.4 L 492.0 499.4 L 492.0 570.4 L 309.0 570.4 Z M 309.0 499.4 "></path></clipPath><g clip-path="url(#clip0x608003ea85e0)"><text xml:space="preserve" font-family="Helvetica,Helvetica" font-size="42.0" fill="#F6F6F6" transform="matrix(1.00, 0.00, -0.00, -1.00, 320.0, 519.5)">D</text><text xml:space="preserve" font-family="Helvetica,Helvetica" font-size="42.0" fill="#F6F6F6" transform="matrix(1.00, 0.00, -0.00, -1.00, 350.3, 519.5)">E</text><text xml:space="preserve" font-family="Helvetica,Helvetica" font-size="42.0" fill="#F6F6F6" transform="matrix(1.00, 0.00, -0.00, -1.00, 378.3, 519.5)">S</text><text xml:space="preserve" font-family="Helvetica,Helvetica" font-size="42.0" fill="#F6F6F6" transform="matrix(1.00, 0.00, -0.00, -1.00, 406.4, 519.5)">I</text><text xml:space="preserve" font-family="Helvetica,Helvetica" font-size="42.0" fill="#F6F6F6" transform="matrix(1.00, 0.00, -0.00, -1.00, 418.0, 519.5)">G</text><text xml:space="preserve" font-family="Helvetica,Helvetica" font-size="42.0" fill="#F6F6F6" transform="matrix(1.00, 0.00, -0.00, -1.00, 450.7, 519.5)">N</text></g></g><g><clipPath id="clip0x608003ea8a00"><path d="M 311.0 645.5 L 481.6 645.5 L 481.6 716.5 L 311.0 716.5 Z M 311.0 645.5 "></path></clipPath><g clip-path="url(#clip0x608003ea8a00)"><text xml:space="preserve" font-family="Helvetica,Helvetica" font-size="42.0" fill="#F6F6F6" transform="matrix(1.00, 0.00, -0.00, -1.00, 322.0, 665.6)">I</text><text xml:space="preserve" font-family="Helvetica,Helvetica" font-size="42.0" fill="#F6F6F6" transform="matrix(1.00, 0.00, -0.00, -1.00, 333.7, 665.6)">D</text><text xml:space="preserve" font-family="Helvetica,Helvetica" font-size="42.0" fill="#F6F6F6" transform="matrix(1.00, 0.00, -0.00, -1.00, 364.0, 665.6)">E</text><text xml:space="preserve" font-family="Helvetica,Helvetica" font-size="42.0" fill="#F6F6F6" transform="matrix(1.00, 0.00, -0.00, -1.00, 392.0, 665.6)">A</text><text xml:space="preserve" font-family="Helvetica,Helvetica" font-size="42.0" fill="#F6F6F6" transform="matrix(1.00, 0.00, -0.00, -1.00, 416.9, 665.6)">T</text><text xml:space="preserve" font-family="Helvetica,Helvetica" font-size="42.0" fill="#F6F6F6" transform="matrix(1.00, 0.00, -0.00, -1.00, 442.6, 665.6)">E</text></g></g><g><clipPath id="clip0x608003ea8e20"><path d="M 328.5 358.2 L 471.9 358.2 L 471.9 429.2 L 328.5 429.2 Z M 328.5 358.2 "></path></clipPath><g clip-path="url(#clip0x608003ea8e20)"><text xml:space="preserve" font-family="Helvetica,Helvetica" font-size="42.0" fill="#F6F6F6" transform="matrix(1.00, 0.00, -0.00, -1.00, 339.5, 378.4)">C</text><text xml:space="preserve" font-family="Helvetica,Helvetica" font-size="42.0" fill="#F6F6F6" transform="matrix(1.00, 0.00, -0.00, -1.00, 369.9, 378.4)">O</text><text xml:space="preserve" font-family="Helvetica,Helvetica" font-size="42.0" fill="#F6F6F6" transform="matrix(1.00, 0.00, -0.00, -1.00, 402.5, 378.4)">D</text><text xml:space="preserve" font-family="Helvetica,Helvetica" font-size="42.0" fill="#F6F6F6" transform="matrix(1.00, 0.00, -0.00, -1.00, 432.9, 378.4)">E</text></g></g><g><clipPath id="clip0x608003ea9180"><path d="M 303.1 213.6 L 497.8 213.6 L 497.8 284.6 L 303.1 284.6 Z M 303.1 213.6 "></path></clipPath><g clip-path="url(#clip0x608003ea9180)"><text xml:space="preserve" font-family="Helvetica,Helvetica" font-size="42.0" fill="#F6F6F6" transform="matrix(1.00, 0.00, -0.00, -1.00, 314.1, 233.8)">L</text><text xml:space="preserve" font-family="Helvetica,Helvetica" font-size="42.0" fill="#F6F6F6" transform="matrix(1.00, 0.00, -0.00, -1.00, 337.4, 233.8)">A</text><text xml:space="preserve" font-family="Helvetica,Helvetica" font-size="42.0" fill="#F6F6F6" transform="matrix(1.00, 0.00, -0.00, -1.00, 365.4, 233.8)">U</text><text xml:space="preserve" font-family="Helvetica,Helvetica" font-size="42.0" fill="#F6F6F6" transform="matrix(1.00, 0.00, -0.00, -1.00, 395.8, 233.8)">N</text><text xml:space="preserve" font-family="Helvetica,Helvetica" font-size="42.0" fill="#F6F6F6" transform="matrix(1.00, 0.00, -0.00, -1.00, 426.1, 233.8)">C</text><text xml:space="preserve" font-family="Helvetica,Helvetica" font-size="42.0" fill="#F6F6F6" transform="matrix(1.00, 0.00, -0.00, -1.00, 456.5, 233.8)">H</text></g></g><g><clipPath id="clip0x608003ea95a0"><path d="M 0.2 197.7 L 144.0 197.7 L 144.0 341.4 L 0.2 341.4 Z M 0.2 197.7 "></path></clipPath><g clip-path="url(#clip0x608003ea95a0)"><path d="M 1.0 340.0 L 143.0 340.0 L 143.0 199.0 L 1.0 199.0 Z M 1.2 340.4 " fill="#EDC25F"></path></g></g><g><clipPath id="clip0x608003ea97e0"><path d="M 25.2 214.2 L 119.6 214.2 L 119.6 350.2 L 25.2 350.2 Z M 25.2 214.2 "></path></clipPath><g clip-path="url(#clip0x608003ea97e0)"><text xml:space="preserve" font-family="Helvetica,Helvetica" font-size="80.0" fill="#F6F6F6" transform="matrix(1.00, 0.00, -0.00, -1.00, 45.7, 252.6)">Y</text></g></g><g><clipPath id="clip0x608003ea9a20"><path d="M 0.5 477.8 L 144.3 477.8 L 144.3 621.5 L 0.5 621.5 Z M 0.5 477.8 "></path></clipPath><g clip-path="url(#clip0x608003ea9a20)"><path d="M 2.0 621.0 L 143.0 621.0 L 143.0 479.0 L 2.0 479.0 Z M 1.5 620.5 " fill="#FF607B"></path></g></g><g><clipPath id="clip0x608003ea9c60"><path d="M 42.7 484.7 L 101.5 484.7 L 101.5 620.7 L 42.7 620.7 Z M 42.7 484.7 "></path></clipPath><g clip-path="url(#clip0x608003ea9c60)"><text xml:space="preserve" font-family="Helvetica,Helvetica" font-size="80.0" fill="#F6F6F6" transform="matrix(1.00, 0.00, -0.00, -1.00, 63.2, 523.1)">l</text></g></g><g><clipPath id="clip0x608003ea9ea0"><path d="M 656.4 337.6 L 800.2 337.6 L 800.2 481.4 L 656.4 481.4 Z M 656.4 337.6 "></path></clipPath><g clip-path="url(#clip0x608003ea9ea0)"><path d="M 657.0 480.0 L 799.0 480.0 L 799.0 339.0 L 657.0 339.0 Z M 657.4 480.4 " fill="#54C6E1"></path></g></g><g><clipPath id="clip0x608003eaa0e0"><path d="M 685.6 344.5 L 771.1 344.5 L 771.1 480.5 L 685.6 480.5 Z M 685.6 344.5 "></path></clipPath><g clip-path="url(#clip0x608003eaa0e0)"><text xml:space="preserve" font-family="Helvetica,Helvetica" font-size="80.0" fill="#F6F6F6" transform="matrix(1.00, 0.00, -0.00, -1.00, 706.1, 382.9)">o</text></g></g><g><clipPath id="clip0x608003eaa320"><path d="M 656.4 57.1 L 800.2 57.1 L 800.2 200.8 L 656.4 200.8 Z M 656.4 57.1 "></path></clipPath><g clip-path="url(#clip0x608003eaa320)"><path d="M 657.0 200.0 L 799.0 200.0 L 799.0 58.0 L 657.0 58.0 Z M 657.4 199.8 " fill="#62D7AD"></path></g></g><g><clipPath id="clip0x608003eaa560"><path d="M 694.5 61.0 L 762.1 61.0 L 762.1 197.0 L 694.5 197.0 Z M 694.5 61.0 "></path></clipPath><g clip-path="url(#clip0x608003eaa560)"><text xml:space="preserve" font-family="Helvetica,Helvetica" font-size="80.0" fill="#F6F6F6" transform="matrix(1.00, 0.00, -0.00, -1.00, 715.0, 99.4)">r</text></g></g><g><clipPath id="clip0x608003eaa7a0"><path d="M 314.7 629.0 L 495.3 629.0 L 495.3 656.0 L 314.7 656.0 Z M 314.7 629.0 "></path></clipPath><g clip-path="url(#clip0x608003eaa7a0)"><text xml:space="preserve" font-family="Helvetica,Helvetica" font-size="16.0" fill="#F6F6F6" transform="matrix(1.00, 0.00, -0.00, -1.00, 319.2, 636.6)">S</text><text xml:space="preserve" font-family="Helvetica,Helvetica" font-size="16.0" fill="#F6F6F6" transform="matrix(1.00, 0.00, -0.00, -1.00, 329.9, 636.6)">O</text><text xml:space="preserve" font-family="Helvetica,Helvetica" font-size="16.0" fill="#F6F6F6" transform="matrix(1.00, 0.00, -0.00, -1.00, 342.4, 636.6)">M</text><text xml:space="preserve" font-family="Helvetica,Helvetica" font-size="16.0" fill="#F6F6F6" transform="matrix(1.00, 0.00, -0.00, -1.00, 355.7, 636.6)">E</text><text xml:space="preserve" font-family="Helvetica,Helvetica" font-size="16.0" fill="#F6F6F6" transform="matrix(1.00, 0.00, -0.00, -1.00, 366.4, 636.6)"> </text><text xml:space="preserve" font-family="Helvetica,Helvetica" font-size="16.0" fill="#F6F6F6" transform="matrix(1.00, 0.00, -0.00, -1.00, 370.8, 636.6)">C</text><text xml:space="preserve" font-family="Helvetica,Helvetica" font-size="16.0" fill="#F6F6F6" transform="matrix(1.00, 0.00, -0.00, -1.00, 382.4, 636.6)">A</text><text xml:space="preserve" font-family="Helvetica,Helvetica" font-size="16.0" fill="#F6F6F6" transform="matrix(1.00, 0.00, -0.00, -1.00, 393.0, 636.6)">P</text><text xml:space="preserve" font-family="Helvetica,Helvetica" font-size="16.0" fill="#F6F6F6" transform="matrix(1.00, 0.00, -0.00, -1.00, 403.7, 636.6)">T</text><text xml:space="preserve" font-family="Helvetica,Helvetica" font-size="16.0" fill="#F6F6F6" transform="matrix(1.00, 0.00, -0.00, -1.00, 413.5, 636.6)">I</text><text xml:space="preserve" font-family="Helvetica,Helvetica" font-size="16.0" fill="#F6F6F6" transform="matrix(1.00, 0.00, -0.00, -1.00, 417.9, 636.6)">O</text><text xml:space="preserve" font-family="Helvetica,Helvetica" font-size="16.0" fill="#F6F6F6" transform="matrix(1.00, 0.00, -0.00, -1.00, 430.4, 636.6)">N</text><text xml:space="preserve" font-family="Helvetica,Helvetica" font-size="16.0" fill="#F6F6F6" transform="matrix(1.00, 0.00, -0.00, -1.00, 441.9, 636.6)"> </text><text xml:space="preserve" font-family="Helvetica,Helvetica" font-size="16.0" fill="#F6F6F6" transform="matrix(1.00, 0.00, -0.00, -1.00, 446.4, 636.6)">H</text><text xml:space="preserve" font-family="Helvetica,Helvetica" font-size="16.0" fill="#F6F6F6" transform="matrix(1.00, 0.00, -0.00, -1.00, 457.9, 636.6)">E</text><text xml:space="preserve" font-family="Helvetica,Helvetica" font-size="16.0" fill="#F6F6F6" transform="matrix(1.00, 0.00, -0.00, -1.00, 468.6, 636.6)">R</text><text xml:space="preserve" font-family="Helvetica,Helvetica" font-size="16.0" fill="#F6F6F6" transform="matrix(1.00, 0.00, -0.00, -1.00, 480.1, 636.6)">E</text></g></g><g><clipPath id="clip0x608003eaafe0"><path d="M 310.3 483.9 L 490.8 483.9 L 490.8 510.9 L 310.3 510.9 Z M 310.3 483.9 "></path></clipPath><g clip-path="url(#clip0x608003eaafe0)"><text xml:space="preserve" font-family="Helvetica,Helvetica" font-size="16.0" fill="#F6F6F6" transform="matrix(1.00, 0.00, -0.00, -1.00, 314.8, 491.5)">S</text><text xml:space="preserve" font-family="Helvetica,Helvetica" font-size="16.0" fill="#F6F6F6" transform="matrix(1.00, 0.00, -0.00, -1.00, 325.4, 491.5)">O</text><text xml:space="preserve" font-family="Helvetica,Helvetica" font-size="16.0" fill="#F6F6F6" transform="matrix(1.00, 0.00, -0.00, -1.00, 337.9, 491.5)">M</text><text xml:space="preserve" font-family="Helvetica,Helvetica" font-size="16.0" fill="#F6F6F6" transform="matrix(1.00, 0.00, -0.00, -1.00, 351.2, 491.5)">E</text><text xml:space="preserve" font-family="Helvetica,Helvetica" font-size="16.0" fill="#F6F6F6" transform="matrix(1.00, 0.00, -0.00, -1.00, 361.9, 491.5)"> </text><text xml:space="preserve" font-family="Helvetica,Helvetica" font-size="16.0" fill="#F6F6F6" transform="matrix(1.00, 0.00, -0.00, -1.00, 366.3, 491.5)">C</text><text xml:space="preserve" font-family="Helvetica,Helvetica" font-size="16.0" fill="#F6F6F6" transform="matrix(1.00, 0.00, -0.00, -1.00, 377.9, 491.5)">A</text><text xml:space="preserve" font-family="Helvetica,Helvetica" font-size="16.0" fill="#F6F6F6" transform="matrix(1.00, 0.00, -0.00, -1.00, 388.6, 491.5)">P</text><text xml:space="preserve" font-family="Helvetica,Helvetica" font-size="16.0" fill="#F6F6F6" transform="matrix(1.00, 0.00, -0.00, -1.00, 399.2, 491.5)">T</text><text xml:space="preserve" font-family="Helvetica,Helvetica" font-size="16.0" fill="#F6F6F6" transform="matrix(1.00, 0.00, -0.00, -1.00, 409.0, 491.5)">I</text><text xml:space="preserve" font-family="Helvetica,Helvetica" font-size="16.0" fill="#F6F6F6" transform="matrix(1.00, 0.00, -0.00, -1.00, 413.4, 491.5)">O</text><text xml:space="preserve" font-family="Helvetica,Helvetica" font-size="16.0" fill="#F6F6F6" transform="matrix(1.00, 0.00, -0.00, -1.00, 425.9, 491.5)">N</text><text xml:space="preserve" font-family="Helvetica,Helvetica" font-size="16.0" fill="#F6F6F6" transform="matrix(1.00, 0.00, -0.00, -1.00, 437.4, 491.5)"> </text><text xml:space="preserve" font-family="Helvetica,Helvetica" font-size="16.0" fill="#F6F6F6" transform="matrix(1.00, 0.00, -0.00, -1.00, 441.9, 491.5)">H</text><text xml:space="preserve" font-family="Helvetica,Helvetica" font-size="16.0" fill="#F6F6F6" transform="matrix(1.00, 0.00, -0.00, -1.00, 453.4, 491.5)">E</text><text xml:space="preserve" font-family="Helvetica,Helvetica" font-size="16.0" fill="#F6F6F6" transform="matrix(1.00, 0.00, -0.00, -1.00, 464.1, 491.5)">R</text><text xml:space="preserve" font-family="Helvetica,Helvetica" font-size="16.0" fill="#F6F6F6" transform="matrix(1.00, 0.00, -0.00, -1.00, 475.7, 491.5)">E</text></g></g><g><clipPath id="clip0x608003eab820"><path d="M 310.3 344.1 L 490.8 344.1 L 490.8 371.1 L 310.3 371.1 Z M 310.3 344.1 "></path></clipPath><g clip-path="url(#clip0x608003eab820)"><text xml:space="preserve" font-family="Helvetica,Helvetica" font-size="16.0" fill="#F6F6F6" transform="matrix(1.00, 0.00, -0.00, -1.00, 314.8, 351.8)">S</text><text xml:space="preserve" font-family="Helvetica,Helvetica" font-size="16.0" fill="#F6F6F6" transform="matrix(1.00, 0.00, -0.00, -1.00, 325.4, 351.8)">O</text><text xml:space="preserve" font-family="Helvetica,Helvetica" font-size="16.0" fill="#F6F6F6" transform="matrix(1.00, 0.00, -0.00, -1.00, 337.9, 351.8)">M</text><text xml:space="preserve" font-family="Helvetica,Helvetica" font-size="16.0" fill="#F6F6F6" transform="matrix(1.00, 0.00, -0.00, -1.00, 351.2, 351.8)">E</text><text xml:space="preserve" font-family="Helvetica,Helvetica" font-size="16.0" fill="#F6F6F6" transform="matrix(1.00, 0.00, -0.00, -1.00, 361.9, 351.8)"> </text><text xml:space="preserve" font-family="Helvetica,Helvetica" font-size="16.0" fill="#F6F6F6" transform="matrix(1.00, 0.00, -0.00, -1.00, 366.3, 351.8)">C</text><text xml:space="preserve" font-family="Helvetica,Helvetica" font-size="16.0" fill="#F6F6F6" transform="matrix(1.00, 0.00, -0.00, -1.00, 377.9, 351.8)">A</text><text xml:space="preserve" font-family="Helvetica,Helvetica" font-size="16.0" fill="#F6F6F6" transform="matrix(1.00, 0.00, -0.00, -1.00, 388.6, 351.8)">P</text><text xml:space="preserve" font-family="Helvetica,Helvetica" font-size="16.0" fill="#F6F6F6" transform="matrix(1.00, 0.00, -0.00, -1.00, 399.2, 351.8)">T</text><text xml:space="preserve" font-family="Helvetica,Helvetica" font-size="16.0" fill="#F6F6F6" transform="matrix(1.00, 0.00, -0.00, -1.00, 409.0, 351.8)">I</text><text xml:space="preserve" font-family="Helvetica,Helvetica" font-size="16.0" fill="#F6F6F6" transform="matrix(1.00, 0.00, -0.00, -1.00, 413.4, 351.8)">O</text><text xml:space="preserve" font-family="Helvetica,Helvetica" font-size="16.0" fill="#F6F6F6" transform="matrix(1.00, 0.00, -0.00, -1.00, 425.9, 351.8)">N</text><text xml:space="preserve" font-family="Helvetica,Helvetica" font-size="16.0" fill="#F6F6F6" transform="matrix(1.00, 0.00, -0.00, -1.00, 437.4, 351.8)"> </text><text xml:space="preserve" font-family="Helvetica,Helvetica" font-size="16.0" fill="#F6F6F6" transform="matrix(1.00, 0.00, -0.00, -1.00, 441.9, 351.8)">H</text><text xml:space="preserve" font-family="Helvetica,Helvetica" font-size="16.0" fill="#F6F6F6" transform="matrix(1.00, 0.00, -0.00, -1.00, 453.4, 351.8)">E</text><text xml:space="preserve" font-family="Helvetica,Helvetica" font-size="16.0" fill="#F6F6F6" transform="matrix(1.00, 0.00, -0.00, -1.00, 464.1, 351.8)">R</text><text xml:space="preserve" font-family="Helvetica,Helvetica" font-size="16.0" fill="#F6F6F6" transform="matrix(1.00, 0.00, -0.00, -1.00, 475.7, 351.8)">E</text></g></g><g><clipPath id="clip0x608003eac060"><path d="M 310.2 199.5 L 490.7 199.5 L 490.7 226.5 L 310.2 226.5 Z M 310.2 199.5 "></path></clipPath><g clip-path="url(#clip0x608003eac060)"><text xml:space="preserve" font-family="Helvetica,Helvetica" font-size="16.0" fill="#F6F6F6" transform="matrix(1.00, 0.00, -0.00, -1.00, 314.7, 207.1)">S</text><text xml:space="preserve" font-family="Helvetica,Helvetica" font-size="16.0" fill="#F6F6F6" transform="matrix(1.00, 0.00, -0.00, -1.00, 325.3, 207.1)">O</text><text xml:space="preserve" font-family="Helvetica,Helvetica" font-size="16.0" fill="#F6F6F6" transform="matrix(1.00, 0.00, -0.00, -1.00, 337.8, 207.1)">M</text><text xml:space="preserve" font-family="Helvetica,Helvetica" font-size="16.0" fill="#F6F6F6" transform="matrix(1.00, 0.00, -0.00, -1.00, 351.1, 207.1)">E</text><text xml:space="preserve" font-family="Helvetica,Helvetica" font-size="16.0" fill="#F6F6F6" transform="matrix(1.00, 0.00, -0.00, -1.00, 361.8, 207.1)"> </text><text xml:space="preserve" font-family="Helvetica,Helvetica" font-size="16.0" fill="#F6F6F6" transform="matrix(1.00, 0.00, -0.00, -1.00, 366.2, 207.1)">C</text><text xml:space="preserve" font-family="Helvetica,Helvetica" font-size="16.0" fill="#F6F6F6" transform="matrix(1.00, 0.00, -0.00, -1.00, 377.8, 207.1)">A</text><text xml:space="preserve" font-family="Helvetica,Helvetica" font-size="16.0" fill="#F6F6F6" transform="matrix(1.00, 0.00, -0.00, -1.00, 388.4, 207.1)">P</text><text xml:space="preserve" font-family="Helvetica,Helvetica" font-size="16.0" fill="#F6F6F6" transform="matrix(1.00, 0.00, -0.00, -1.00, 399.1, 207.1)">T</text><text xml:space="preserve" font-family="Helvetica,Helvetica" font-size="16.0" fill="#F6F6F6" transform="matrix(1.00, 0.00, -0.00, -1.00, 408.9, 207.1)">I</text><text xml:space="preserve" font-family="Helvetica,Helvetica" font-size="16.0" fill="#F6F6F6" transform="matrix(1.00, 0.00, -0.00, -1.00, 413.3, 207.1)">O</text><text xml:space="preserve" font-family="Helvetica,Helvetica" font-size="16.0" fill="#F6F6F6" transform="matrix(1.00, 0.00, -0.00, -1.00, 425.8, 207.1)">N</text><text xml:space="preserve" font-family="Helvetica,Helvetica" font-size="16.0" fill="#F6F6F6" transform="matrix(1.00, 0.00, -0.00, -1.00, 437.3, 207.1)"> </text><text xml:space="preserve" font-family="Helvetica,Helvetica" font-size="16.0" fill="#F6F6F6" transform="matrix(1.00, 0.00, -0.00, -1.00, 441.8, 207.1)">H</text><text xml:space="preserve" font-family="Helvetica,Helvetica" font-size="16.0" fill="#F6F6F6" transform="matrix(1.00, 0.00, -0.00, -1.00, 453.3, 207.1)">E</text><text xml:space="preserve" font-family="Helvetica,Helvetica" font-size="16.0" fill="#F6F6F6" transform="matrix(1.00, 0.00, -0.00, -1.00, 464.0, 207.1)">R</text><text xml:space="preserve" font-family="Helvetica,Helvetica" font-size="16.0" fill="#F6F6F6" transform="matrix(1.00, 0.00, -0.00, -1.00, 475.6, 207.1)">E</text></g></g></g></svg>