<?xml version="1.0" encoding="UTF-8" standalone="no"?><svg xmlns="http://www.w3.org/2000/svg" xmlns:xlink="http://www.w3.org/1999/xlink" clip-rule="evenodd" stroke-miterlimit="10" viewBox="0 0 161 52"><desc>SVG generated by Keynote</desc><defs></defs><g transform="matrix(1.00, 0.00, -0.00, -1.00, 0.0, 52.0)"><path d="M 95.1 40.3 C 95.0 40.4 94.9 40.4 94.7 40.5 C 94.8 40.5 94.9 40.6 94.9 40.7 C 95.0 40.6 95.2 40.5 95.6 40.4 C 95.5 40.4 95.4 40.4 95.3 40.4 C 95.1 40.5 95.1 40.3 95.1 40.3 C 95.1 40.3 95.1 40.3 95.1 40.3 Z M 55.6 41.8 C 55.9 41.9 55.6 41.6 55.5 41.5 C 55.5 41.6 55.5 41.6 55.4 41.6 C 55.4 41.4 55.6 41.4 55.8 41.3 C 56.5 41.6 55.9 41.9 55.6 41.8 C 55.6 41.8 55.6 41.8 55.6 41.8 Z M 20.6 29.0 C 20.1 28.7 20.5 29.3 20.5 29.4 C 20.3 29.3 20.3 29.8 19.9 29.6 C 19.9 29.4 19.9 29.3 19.9 29.2 C 20.0 29.2 20.2 29.4 20.3 29.3 C 20.1 29.2 19.8 29.1 19.8 29.0 C 20.3 29.2 20.0 28.8 20.0 28.6 C 20.4 28.9 20.6 28.7 20.6 29.0 C 20.6 29.0 20.6 29.0 20.6 29.0 Z M 135.6 22.5 C 135.8 22.4 135.9 22.3 136.0 22.5 C 135.8 22.6 135.7 22.6 135.6 22.7 C 135.6 22.7 135.7 22.8 135.6 22.9 C 135.3 22.9 135.2 22.6 135.2 22.4 C 135.4 22.6 135.8 22.1 135.6 22.5 C 135.6 22.5 135.6 22.5 135.6 22.5 Z M 122.6 31.6 C 122.1 31.8 122.7 31.9 122.2 32.1 C 122.1 31.9 121.9 31.7 122.2 31.5 C 122.3 31.6 122.5 31.5 122.6 31.6 C 122.6 31.6 122.6 31.6 122.6 31.6 Z M 34.1 37.8 C 34.2 37.6 33.8 37.5 34.0 37.4 C 34.1 37.4 34.3 37.5 34.5 37.6 C 34.5 37.8 34.4 37.8 34.1 37.8 C 34.1 37.8 34.1 37.8 34.1 37.8 Z M 15.7 28.8 C 15.3 28.2 14.5 28.1 14.8 28.0 C 14.8 27.7 15.6 27.7 15.4 27.9 C 15.3 28.2 16.2 29.0 15.7 28.8 C 15.7 28.8 15.7 28.8 15.7 28.8 Z M 51.6 45.3 C 51.0 44.9 51.0 45.6 50.6 45.2 C 50.7 45.2 50.8 45.2 50.9 45.1 C 50.8 45.1 50.6 45.1 50.6 45.0 C 51.0 45.0 51.4 45.0 51.6 45.3 C 51.6 45.3 51.6 45.3 51.6 45.3 Z M 104.5 38.3 C 104.6 38.3 104.6 38.2 104.6 38.1 C 105.0 38.0 105.0 37.8 105.3 37.9 C 105.4 38.2 105.0 38.2 104.6 38.3 C 104.6 38.3 104.6 38.4 104.5 38.3 C 104.5 38.3 104.5 38.3 104.5 38.3 Z M 116.4 34.6 C 116.3 34.4 116.0 34.5 116.3 34.2 C 116.9 34.3 116.6 34.7 116.2 35.0 C 116.3 35.1 116.3 35.2 116.4 35.3 C 116.5 35.2 116.7 35.2 116.8 35.2 C 116.7 34.8 117.3 35.3 117.9 34.8 C 117.6 35.1 118.1 35.2 117.6 35.2 C 117.8 35.4 117.5 35.5 117.6 35.7 C 117.8 35.5 118.2 35.3 118.0 35.1 C 118.2 34.9 118.4 34.9 118.5 34.9 C 118.8 35.0 118.2 35.1 118.4 35.3 C 118.6 35.2 118.6 35.3 118.7 35.2 C 118.7 35.1 118.6 35.0 118.7 35.0 C 119.2 34.8 118.8 35.3 119.4 35.0 C 119.4 34.8 119.2 34.9 119.1 34.8 C 119.3 34.5 119.4 34.7 119.6 34.4 C 119.7 34.5 119.5 34.7 119.7 34.7 C 119.7 34.2 120.3 34.6 120.6 34.1 C 120.1 33.8 120.7 34.2 120.8 33.6 C 120.9 33.7 120.8 34.1 121.1 33.9 C 120.7 33.4 121.9 33.0 120.8 33.0 C 121.3 32.8 121.2 32.3 120.8 32.4 C 121.7 32.1 121.2 31.9 121.5 31.7 C 121.9 31.6 121.4 31.9 121.7 32.0 C 121.4 32.2 121.5 32.2 121.2 32.3 C 121.2 32.4 121.2 32.4 121.2 32.5 C 121.4 32.2 122.0 32.3 121.9 32.7 C 121.7 32.7 121.7 32.4 121.5 32.6 C 121.8 32.8 121.2 32.6 121.3 32.8 C 121.6 33.0 121.3 33.5 121.8 33.3 C 121.7 33.2 121.6 33.1 121.6 33.0 C 121.7 32.9 121.8 32.8 121.9 32.8 C 122.2 32.9 122.2 33.1 122.3 33.1 C 122.5 33.0 122.6 32.9 122.6 32.8 C 122.3 32.9 121.9 32.8 122.3 32.6 C 122.4 33.1 123.0 32.3 122.8 32.8 C 123.3 32.7 123.3 32.2 123.5 32.4 C 123.8 32.3 123.5 32.2 123.8 32.0 C 124.4 32.0 124.1 31.7 124.8 31.5 C 124.7 31.1 124.9 31.6 125.1 31.4 C 125.1 31.3 125.0 31.2 124.9 31.1 C 125.3 31.2 125.8 31.0 126.2 30.4 C 126.4 30.4 126.4 30.7 126.7 30.4 C 126.9 29.9 127.5 30.0 127.7 29.4 C 127.8 29.6 128.1 29.4 128.2 29.2 C 128.4 29.2 128.3 29.6 128.6 29.4 C 128.6 29.1 128.3 29.3 128.6 29.0 C 128.7 29.2 128.8 28.6 129.0 28.8 C 128.9 28.9 128.8 29.1 128.8 29.2 C 128.9 29.1 129.0 29.3 129.1 29.2 C 128.9 28.9 129.3 29.0 129.5 29.0 C 129.4 28.9 129.4 28.7 129.4 28.6 C 129.6 28.5 129.8 28.4 129.8 28.2 C 130.2 28.2 129.8 28.5 130.1 28.4 C 129.9 27.8 130.5 28.2 130.9 27.5 C 131.1 27.5 131.4 27.5 131.8 27.2 C 131.7 27.1 131.4 27.4 131.3 27.3 C 131.8 27.0 131.1 27.2 131.4 27.0 C 132.2 26.6 132.7 26.3 133.6 25.9 C 133.5 25.7 134.0 25.2 134.0 25.3 C 133.9 25.4 134.5 25.3 134.8 25.1 C 134.6 24.7 134.7 24.1 134.6 24.0 C 134.9 24.1 134.8 24.1 135.1 24.3 C 135.6 24.1 135.6 23.7 136.1 23.8 C 136.0 23.6 136.1 23.4 136.2 23.3 C 136.3 23.4 136.3 23.6 136.3 23.8 C 136.5 23.6 136.6 23.7 136.8 23.5 C 136.6 22.8 137.4 23.2 137.2 22.6 C 137.5 22.4 137.6 22.6 137.9 22.4 C 137.8 22.3 137.8 22.2 137.8 22.0 C 137.6 22.2 137.6 22.5 137.4 22.4 C 137.7 22.0 136.1 22.5 136.6 21.7 C 136.7 21.8 136.8 22.0 137.0 21.9 C 137.3 21.5 136.9 21.5 136.8 21.6 C 136.9 21.3 137.3 21.2 136.9 21.1 C 137.4 20.6 137.2 21.0 137.5 21.0 C 138.4 19.9 139.7 18.7 141.3 17.6 C 141.1 17.4 142.1 16.9 142.5 16.8 C 142.7 16.3 143.0 15.8 143.4 15.9 C 143.2 15.7 144.0 15.6 143.8 15.4 C 143.7 15.6 143.5 15.6 143.6 15.4 C 144.3 14.9 145.2 14.2 145.3 13.7 C 145.8 13.7 146.1 13.3 146.2 12.9 C 146.3 13.0 146.2 13.2 146.3 13.1 C 146.3 12.9 146.7 12.3 146.9 12.3 C 146.7 12.4 146.8 12.8 147.0 12.6 C 146.9 12.5 147.2 12.3 147.0 12.2 C 147.4 11.9 147.5 11.6 147.8 11.4 C 147.7 11.7 147.6 11.9 147.7 12.0 C 147.8 11.7 147.9 11.5 148.2 11.5 C 147.9 11.3 148.3 11.1 148.5 10.7 C 148.7 10.7 148.8 10.7 149.1 10.4 C 149.0 10.1 148.5 10.7 148.7 10.3 C 148.8 10.4 149.2 10.2 148.9 10.1 C 149.3 9.8 149.4 9.5 149.8 9.3 C 149.4 9.7 149.9 9.6 150.0 9.6 C 150.1 9.5 150.2 9.3 150.2 9.3 C 150.1 9.2 149.9 9.4 149.9 9.4 C 150.2 9.2 149.9 8.9 150.2 8.9 C 150.1 9.0 150.2 9.1 150.3 9.0 C 150.0 8.7 150.9 8.2 150.8 8.5 C 150.7 8.5 150.5 8.8 150.5 8.9 C 150.7 8.9 151.0 8.3 151.1 8.6 C 150.9 8.9 150.8 8.7 150.6 9.1 C 150.7 9.2 150.5 9.4 150.5 9.6 C 150.9 9.1 150.8 8.8 151.1 9.0 C 151.3 8.7 150.9 8.7 151.3 8.4 C 151.8 7.9 151.6 8.5 151.8 8.4 C 152.0 7.9 151.7 7.8 151.3 7.8 C 151.6 7.5 151.6 7.3 152.0 6.9 C 152.1 7.0 152.1 7.1 152.0 7.3 C 152.0 7.3 151.5 7.5 151.7 7.6 C 152.0 7.8 152.4 7.6 152.8 7.2 C 152.4 7.1 152.6 7.2 152.9 6.7 C 152.6 6.6 153.1 6.6 153.0 6.4 C 152.9 6.4 152.8 6.5 152.6 6.7 C 152.5 6.6 152.5 6.5 152.6 6.3 C 152.7 6.3 152.7 6.1 153.0 5.9 C 153.2 6.0 153.0 6.2 153.1 6.4 C 153.2 6.2 153.2 6.1 153.3 5.9 C 153.6 5.9 153.8 6.1 154.1 6.4 C 154.0 6.6 153.7 6.9 154.1 6.7 C 153.6 7.4 153.8 6.5 153.6 6.7 C 153.6 7.2 153.4 6.8 153.1 7.2 C 153.0 7.4 153.0 7.4 153.0 7.5 C 153.1 7.5 153.5 7.5 153.2 7.7 C 153.1 7.7 152.9 7.8 152.6 8.0 C 152.7 8.1 153.2 7.7 152.8 8.1 C 152.6 8.4 152.5 7.9 152.3 8.3 C 152.4 8.3 152.3 8.4 152.3 8.5 C 152.7 8.0 152.4 8.7 152.8 8.5 C 152.5 8.9 152.5 8.4 152.3 8.6 C 152.4 8.8 151.8 9.0 152.0 9.2 C 152.1 9.0 152.4 8.7 152.5 8.9 C 152.3 9.1 151.3 10.6 151.4 9.8 C 151.4 10.1 150.8 11.3 150.7 11.1 C 151.0 10.8 150.8 10.7 150.8 10.6 C 150.5 11.3 150.1 11.4 149.8 12.2 C 150.4 11.6 150.3 12.4 150.8 12.1 C 150.9 11.9 151.1 11.7 151.1 11.6 C 150.8 11.5 150.7 11.9 150.7 12.1 C 150.5 11.9 150.4 11.8 150.2 11.6 C 151.0 11.1 151.2 10.6 151.5 10.3 C 151.3 10.6 152.3 10.0 152.0 10.3 C 151.8 10.4 151.5 10.7 151.2 10.9 C 151.2 11.0 151.3 11.0 151.4 11.1 C 151.3 11.2 151.1 11.4 151.1 11.5 C 151.4 11.0 151.8 11.0 151.9 10.6 C 151.9 10.6 152.0 10.7 152.0 10.7 C 152.1 10.6 152.1 10.6 152.2 10.6 C 152.1 10.8 151.9 10.9 151.9 11.0 C 152.2 10.8 152.5 10.9 152.8 10.6 C 152.9 10.8 153.5 10.6 153.2 11.2 C 152.9 11.1 152.7 11.3 152.6 11.2 C 152.4 11.2 152.2 11.6 152.1 11.8 C 152.4 11.8 152.7 11.5 152.9 11.7 C 152.7 11.9 152.6 12.2 152.3 12.2 C 152.7 11.6 152.0 12.3 151.6 12.3 C 151.7 12.3 151.9 12.3 152.0 12.3 C 151.7 12.6 151.4 12.7 151.7 12.9 C 151.3 13.4 151.2 13.2 150.9 13.5 C 151.4 13.5 150.9 13.8 151.3 13.8 C 150.9 14.3 150.9 13.7 150.8 13.9 C 150.6 14.1 150.7 14.2 150.6 14.3 C 150.2 14.5 149.8 14.9 149.5 14.8 C 149.4 15.0 149.2 14.9 149.1 15.1 C 149.1 15.2 149.1 15.4 149.0 15.5 C 148.9 15.5 148.7 15.5 148.8 15.7 C 149.6 15.4 149.4 15.5 150.2 15.1 C 150.1 15.0 150.2 14.9 150.0 15.0 C 150.3 14.5 150.5 14.5 150.8 14.2 C 151.0 14.3 151.4 14.4 151.5 14.0 C 151.6 14.2 151.7 14.2 151.7 14.3 C 151.4 14.4 151.1 14.6 150.8 14.8 C 150.9 14.9 151.0 14.9 150.9 15.0 C 150.7 15.1 150.5 15.2 150.4 15.4 C 150.4 15.4 150.4 15.3 150.4 15.1 C 149.8 15.6 150.2 15.7 149.7 16.0 C 149.9 16.0 150.1 15.7 150.0 16.1 C 149.7 16.5 149.5 16.5 149.3 16.6 C 149.3 16.7 149.4 16.7 149.3 16.8 C 148.9 17.0 149.5 15.9 148.9 16.1 C 149.0 16.4 148.5 16.7 148.3 16.7 C 148.3 16.4 148.8 16.3 148.7 16.2 C 147.9 17.0 148.4 16.0 147.5 16.7 C 147.6 16.8 147.7 16.8 147.7 16.9 C 148.0 16.6 148.2 16.7 148.3 16.9 C 148.6 16.6 149.0 16.7 149.1 16.4 C 149.3 16.8 148.9 16.6 148.6 16.9 C 148.7 17.1 149.0 16.8 149.2 16.9 C 148.4 17.5 148.5 17.8 147.6 18.2 C 147.9 18.3 147.3 18.6 147.4 18.7 C 148.0 18.1 148.2 18.8 148.4 18.8 C 148.7 18.4 148.2 18.2 148.3 17.9 C 148.6 18.0 148.7 18.1 148.8 18.4 C 148.5 18.7 148.5 18.7 148.4 19.0 C 148.0 19.1 147.5 18.9 147.7 18.5 C 147.7 18.6 147.3 19.2 147.2 19.1 C 147.6 18.7 147.0 19.0 147.2 18.7 C 146.8 18.9 146.4 19.7 145.9 19.9 C 146.0 19.9 145.9 20.1 146.0 20.2 C 146.2 19.6 146.7 20.0 147.1 19.6 C 146.9 19.8 147.1 19.8 147.2 19.8 C 146.8 20.0 146.7 20.4 146.3 20.5 C 146.3 20.5 146.4 20.6 146.4 20.7 C 145.8 20.9 146.0 20.9 145.7 21.4 C 145.5 21.4 145.4 21.0 145.3 20.7 C 145.2 21.0 144.5 21.5 145.1 21.4 C 144.7 21.7 144.6 21.4 144.2 21.7 C 144.3 21.9 144.7 21.6 144.8 21.9 C 144.5 22.3 144.4 21.9 144.3 22.3 C 144.1 22.1 144.0 22.0 143.7 22.3 C 144.0 22.2 143.7 22.4 143.7 22.6 C 143.9 22.5 144.1 22.4 144.2 22.4 C 143.6 22.8 143.5 22.9 143.1 23.3 C 143.1 23.0 142.8 23.2 143.0 22.8 C 142.8 23.2 142.2 23.2 142.2 23.5 C 142.4 23.4 142.7 23.2 142.9 23.2 C 142.1 24.0 141.8 24.6 140.8 25.0 C 140.9 24.9 141.1 24.7 141.1 24.6 C 141.0 24.7 140.8 24.8 140.8 24.8 C 141.1 24.5 141.3 24.3 141.4 24.1 C 141.7 24.0 141.4 24.4 141.7 24.2 C 141.6 24.1 142.2 23.8 141.8 23.7 C 141.5 24.2 140.9 24.4 140.5 24.2 C 140.4 24.9 140.8 24.6 140.6 25.3 C 140.5 25.2 140.4 25.2 140.3 25.3 C 140.6 25.5 140.0 25.7 139.9 25.8 C 140.0 25.5 140.6 24.7 140.1 24.8 C 140.6 25.2 139.1 25.4 139.6 25.6 C 139.1 26.1 139.1 25.6 139.0 26.1 C 138.9 26.0 138.9 25.9 138.7 26.0 C 138.6 26.1 138.6 26.2 138.6 26.3 C 139.4 25.9 139.4 26.3 139.8 25.9 C 139.8 26.0 139.7 26.1 139.8 26.1 C 139.8 26.1 139.8 26.2 139.7 26.3 C 139.5 26.0 139.4 26.6 139.1 26.5 C 139.3 26.4 139.4 26.3 139.3 26.2 C 138.7 26.7 138.6 26.4 137.7 26.9 C 138.1 26.8 137.8 27.1 137.5 27.3 C 137.1 27.6 137.0 27.2 136.6 27.5 C 137.0 28.0 136.1 27.9 135.7 28.6 C 135.6 28.3 134.8 28.7 134.8 29.0 C 134.7 29.0 134.4 29.2 134.2 29.3 C 134.1 29.2 134.3 29.0 134.1 29.1 C 134.0 29.3 134.3 29.4 134.1 29.5 C 133.8 29.7 133.6 29.4 133.3 29.7 C 133.4 29.9 133.6 29.7 133.5 30.0 C 133.1 30.1 132.8 30.3 133.2 30.3 C 132.7 30.7 132.7 30.2 132.2 30.5 C 132.4 30.5 132.5 30.6 132.2 30.8 C 131.9 30.8 131.9 30.7 131.8 30.6 C 131.7 30.9 131.8 30.9 131.4 31.1 C 131.4 31.2 131.5 31.3 131.5 31.4 C 131.3 31.5 131.1 31.7 131.0 31.6 C 131.4 31.4 131.1 31.3 131.2 31.2 C 130.9 31.3 130.1 31.6 130.7 31.5 C 130.3 31.9 130.4 31.5 130.0 31.7 C 130.4 31.8 130.1 31.8 129.7 32.0 C 129.9 32.3 129.5 32.2 129.3 32.4 C 129.4 32.6 129.4 32.7 129.2 32.8 C 129.1 32.7 128.9 32.8 128.7 32.9 C 128.8 33.0 129.4 32.8 128.8 33.1 C 128.5 33.2 128.4 33.0 128.0 33.2 C 127.8 33.0 128.3 32.8 128.0 32.7 C 127.9 33.1 127.7 33.0 127.2 33.2 C 127.6 33.5 126.5 34.3 127.2 34.1 C 127.0 34.2 127.0 34.6 126.7 34.5 C 126.9 34.4 126.5 34.4 126.4 34.3 C 126.2 34.5 125.6 34.6 125.7 34.8 C 126.2 34.5 126.3 34.7 126.5 34.7 C 125.9 35.2 125.2 35.5 125.1 35.2 C 125.1 35.3 125.1 35.4 125.1 35.5 C 125.3 35.3 125.7 35.5 125.4 35.7 C 125.3 35.5 125.1 35.5 124.8 35.6 C 124.9 35.8 123.8 36.0 124.1 36.2 C 124.4 35.8 124.9 36.0 124.7 36.3 C 124.3 36.2 123.8 36.4 123.8 36.2 C 123.7 36.3 123.6 36.4 123.5 36.6 C 123.5 36.8 123.8 36.7 123.8 36.9 C 123.6 37.0 123.3 37.1 123.3 37.1 C 123.8 36.8 122.9 37.1 123.4 36.6 C 123.0 36.8 122.9 36.7 122.6 36.8 C 122.7 36.9 122.6 37.0 122.6 37.1 C 122.7 36.8 123.0 36.8 123.1 37.1 C 122.6 37.4 122.6 37.1 122.2 37.3 C 122.1 37.5 121.8 38.1 121.4 38.0 C 121.9 37.8 121.3 37.9 121.6 37.7 C 122.1 37.6 122.1 37.3 122.2 37.0 C 121.9 37.0 121.5 37.1 121.6 37.4 C 121.8 37.3 121.8 37.2 121.9 37.0 C 122.0 37.2 121.9 37.3 121.8 37.5 C 121.5 37.4 121.1 37.8 121.3 37.4 C 121.0 37.7 120.5 37.6 120.2 38.0 C 120.6 37.8 121.0 37.8 121.2 37.9 C 120.9 38.1 120.4 38.0 120.5 38.2 C 120.6 38.4 121.1 38.0 121.3 38.2 C 121.0 38.6 120.1 38.3 120.8 38.5 C 120.6 38.6 120.2 38.7 120.1 38.7 C 120.4 38.5 119.9 38.4 119.8 38.4 C 119.5 38.5 119.3 38.6 119.3 38.8 C 119.6 38.5 120.1 38.7 119.8 38.8 C 119.7 38.7 119.7 38.9 119.6 39.0 C 119.5 38.9 119.1 39.2 119.0 39.1 C 119.0 39.2 119.3 39.1 119.3 39.2 C 119.1 39.4 118.9 39.9 118.6 39.7 C 118.7 39.6 119.0 39.5 118.9 39.4 C 118.1 39.4 117.7 39.2 116.8 39.5 C 116.9 39.4 117.0 39.3 116.9 39.3 C 116.4 39.5 116.0 39.5 116.0 39.3 C 115.7 39.5 115.6 39.7 115.4 39.9 C 115.8 39.9 115.9 39.6 116.1 39.7 C 116.0 39.8 116.6 40.0 116.8 40.1 C 117.3 39.6 117.5 40.0 118.0 39.6 C 118.0 39.9 118.5 39.4 118.4 39.7 C 117.7 39.6 117.3 40.1 116.4 40.4 C 116.5 40.1 116.5 39.9 116.1 40.0 C 115.5 40.1 115.9 40.3 115.5 40.4 C 115.2 40.3 115.5 40.2 115.2 40.2 C 115.1 40.3 114.7 40.5 114.5 40.3 C 115.1 40.1 114.3 40.2 114.6 39.9 C 114.4 40.0 114.3 40.0 114.2 40.0 C 114.8 40.1 113.8 40.6 114.3 40.6 C 113.6 41.0 114.0 40.0 113.4 40.3 C 113.7 40.4 113.4 40.7 112.9 40.8 C 112.7 40.6 112.2 40.8 111.8 40.8 C 112.1 40.9 112.2 40.8 111.9 41.1 C 112.2 41.1 112.5 41.0 112.6 40.8 C 112.7 40.9 112.7 41.0 112.8 41.0 C 112.4 41.2 112.6 41.3 112.5 41.4 C 112.3 41.3 112.0 41.5 111.9 41.4 C 111.9 41.5 111.8 41.5 111.8 41.6 C 112.4 41.4 111.8 41.9 112.2 41.8 C 112.5 41.7 112.2 41.6 112.5 41.5 C 113.0 41.6 112.4 41.9 112.3 42.1 C 112.7 42.2 112.9 41.8 113.1 42.0 C 112.8 42.4 112.2 42.5 111.7 42.6 C 111.8 42.9 110.9 42.8 111.0 43.2 C 110.9 43.1 110.8 43.1 110.6 43.1 C 110.6 43.4 110.3 43.1 110.2 43.1 C 110.2 43.3 110.3 43.4 110.4 43.4 C 109.8 43.5 109.7 43.5 109.0 43.9 C 108.8 43.8 108.7 43.7 108.6 43.5 C 108.7 43.4 108.8 43.4 108.9 43.2 C 108.0 43.5 108.8 44.0 108.0 43.8 C 108.1 43.9 108.6 44.0 108.3 44.2 C 107.6 44.1 106.9 44.7 106.7 44.0 C 106.1 44.0 105.9 44.5 105.5 44.3 C 105.3 44.4 105.3 44.5 105.3 44.5 C 105.5 44.6 105.7 44.7 106.0 44.7 C 106.2 44.5 106.5 44.7 106.0 44.5 C 106.5 44.3 106.7 44.4 107.0 44.4 C 106.4 44.8 105.7 44.8 105.8 45.1 C 105.5 45.1 105.3 45.0 105.1 44.9 C 105.0 45.1 104.3 45.4 104.2 45.1 C 104.7 45.0 105.1 44.6 104.6 44.6 C 103.5 45.1 102.7 44.9 101.6 45.4 C 101.6 45.3 101.6 45.1 101.4 45.2 C 101.5 45.3 101.4 45.4 101.3 45.5 C 101.0 45.6 100.8 45.5 100.3 45.7 C 100.3 45.5 100.2 45.3 99.9 45.3 C 99.8 45.6 99.5 46.2 99.2 46.2 C 99.5 46.1 99.0 45.9 98.8 45.9 C 99.1 46.2 97.4 46.0 98.0 46.2 C 97.4 46.4 97.1 46.3 97.0 46.2 C 96.8 46.3 96.7 46.4 96.5 46.5 C 96.3 46.2 95.3 46.6 95.1 46.5 C 95.5 46.6 95.5 46.2 95.2 46.3 C 95.0 46.5 94.1 46.9 93.9 46.8 C 94.0 46.7 94.0 46.5 94.5 46.3 C 93.7 46.4 93.7 46.8 93.5 47.1 C 93.5 46.7 93.2 47.1 93.1 47.2 C 92.8 47.1 93.1 47.1 93.0 46.9 C 92.7 46.9 92.6 46.8 92.3 46.8 C 92.4 47.1 92.0 47.0 91.8 47.0 C 91.8 47.2 91.6 47.3 91.3 47.4 C 91.7 46.9 89.4 47.3 89.9 47.5 C 89.5 47.8 89.4 47.3 88.9 47.4 C 88.8 47.6 88.4 47.5 88.8 47.7 C 88.3 47.8 88.5 47.4 88.0 47.6 C 88.3 47.9 87.4 47.6 87.6 48.0 C 87.3 47.6 86.9 48.2 86.4 47.9 C 86.4 48.0 86.3 48.0 86.3 48.1 C 86.2 48.2 86.9 48.2 86.4 48.3 C 85.9 48.2 86.2 48.1 86.1 47.9 C 84.8 48.2 83.1 48.3 81.7 48.3 C 81.8 48.4 81.8 48.5 81.5 48.6 C 81.1 48.1 79.4 48.5 79.2 48.6 C 79.0 48.3 78.1 48.7 78.0 48.5 C 78.1 48.6 78.5 48.3 78.1 48.3 C 77.9 48.6 77.6 48.4 77.2 48.6 C 77.1 48.3 76.0 48.7 76.5 48.2 C 76.3 48.2 76.2 48.2 76.0 48.1 C 76.0 48.4 75.8 48.4 76.2 48.5 C 75.2 48.3 75.0 48.6 74.3 48.4 C 74.1 48.5 74.7 48.7 74.3 48.7 C 74.3 48.7 74.3 48.6 74.3 48.6 C 74.1 48.6 74.1 48.7 74.0 48.6 C 74.0 48.4 74.3 48.5 74.3 48.2 C 73.9 48.3 73.7 47.9 73.5 48.2 C 74.0 48.2 73.7 48.6 73.4 48.4 C 73.7 48.3 72.2 48.4 71.8 48.6 C 71.5 48.3 72.3 48.5 72.2 48.3 C 71.4 48.4 71.4 48.3 71.3 48.6 C 70.9 48.5 70.7 48.3 70.2 48.4 C 69.8 48.3 70.3 48.3 70.0 48.2 C 69.8 48.3 69.7 48.4 69.4 48.4 C 68.7 47.9 66.8 48.6 65.9 47.8 C 66.3 48.0 65.8 48.1 65.3 48.1 C 65.3 48.0 65.4 47.8 65.2 47.8 C 65.2 48.0 65.1 48.0 64.7 48.0 C 64.7 47.9 64.8 47.8 64.6 47.8 C 64.5 48.0 64.1 47.7 63.9 47.9 C 63.8 47.6 64.4 47.8 64.5 47.6 C 63.7 47.4 63.6 47.6 63.0 47.5 C 63.3 47.5 62.8 47.2 62.8 47.1 C 62.9 47.4 62.4 47.5 62.7 47.7 C 62.5 47.6 62.2 47.6 62.1 47.5 C 62.3 47.5 62.4 47.6 62.4 47.5 C 62.2 47.5 61.9 47.2 61.7 47.4 C 61.9 47.5 62.0 47.5 62.0 47.7 C 61.9 47.8 61.8 47.8 61.7 47.9 C 62.1 47.3 60.9 47.5 60.8 47.6 C 60.7 47.2 60.7 47.2 60.7 47.1 C 60.2 47.0 60.3 47.3 60.0 47.3 C 60.1 47.0 60.2 46.8 59.8 46.6 C 59.8 47.0 59.3 46.8 59.4 47.2 C 58.2 47.2 58.0 46.8 57.3 46.7 C 57.2 46.8 57.4 46.8 57.2 46.8 C 56.9 46.7 56.6 46.6 56.4 46.4 C 56.2 46.6 56.5 46.7 56.2 46.7 C 55.7 46.4 55.9 46.1 55.5 45.8 C 54.9 45.9 55.1 45.8 54.7 46.0 C 54.9 46.1 55.0 46.2 54.8 46.2 C 54.5 45.9 54.4 45.6 54.4 45.6 C 54.6 45.6 54.8 45.7 54.9 45.7 C 55.0 45.6 55.4 45.7 55.1 45.4 C 55.5 45.6 55.8 45.7 56.4 45.7 C 56.2 45.5 56.8 45.7 56.7 45.5 C 56.1 45.4 56.0 45.2 55.4 45.2 C 55.5 45.5 55.0 45.2 54.9 45.2 C 54.8 45.3 54.5 45.2 54.5 45.4 C 54.1 45.4 54.1 45.2 53.7 45.2 C 53.7 45.1 53.8 45.0 53.6 44.9 C 53.4 45.2 53.3 44.8 53.2 44.8 C 53.2 45.1 52.6 44.8 52.6 45.0 C 52.7 45.0 53.0 45.0 53.0 45.1 C 52.3 45.0 52.8 45.3 52.9 45.5 C 52.9 45.4 53.2 45.1 53.2 45.3 C 52.6 45.4 54.0 45.9 53.4 45.7 C 53.0 45.6 53.0 45.8 52.6 45.6 C 52.1 45.1 52.8 45.0 52.3 44.5 C 52.0 44.7 51.8 44.6 51.7 44.8 C 51.7 44.7 51.6 44.6 51.5 44.5 C 51.3 44.6 51.8 44.9 51.4 44.8 C 51.2 44.7 51.5 44.4 51.1 44.4 C 50.8 44.6 51.5 44.8 51.1 44.8 C 50.8 44.3 51.2 44.9 50.7 44.8 C 50.6 44.8 50.6 44.7 50.4 44.7 C 50.4 44.6 50.5 44.4 50.3 44.3 C 50.1 44.7 50.2 44.1 49.8 44.1 C 49.5 44.4 50.1 44.4 50.0 44.6 C 49.6 44.2 49.3 44.5 49.1 44.4 C 49.5 44.3 48.6 44.1 48.7 43.9 C 48.7 44.2 48.5 44.0 48.0 44.1 C 48.1 43.7 47.5 43.9 47.4 43.5 C 47.3 43.6 47.2 43.6 47.1 43.7 C 47.2 43.8 47.4 43.8 47.3 44.0 C 47.2 43.9 47.0 43.9 46.9 43.9 C 46.7 43.6 47.4 43.3 46.5 43.1 C 46.5 43.4 46.1 43.4 45.8 43.4 C 45.8 43.7 46.2 43.5 46.2 43.7 C 45.8 43.8 45.6 43.5 45.4 43.3 C 44.8 43.3 44.2 43.0 43.4 42.8 C 43.3 42.6 44.1 42.8 43.6 42.6 C 43.4 42.5 43.5 42.7 43.2 42.6 C 43.8 41.7 41.2 41.8 41.2 41.3 C 41.0 41.5 40.4 41.2 40.4 41.5 C 40.9 41.4 41.1 41.8 41.3 42.0 C 41.7 42.0 41.0 41.7 41.4 41.7 C 41.3 41.9 42.0 41.9 41.8 42.1 C 41.2 42.0 42.1 42.4 41.6 42.5 C 41.0 42.3 39.8 42.2 40.2 42.0 C 40.2 42.1 40.4 42.2 40.5 42.1 C 39.9 41.8 39.5 41.9 39.2 41.9 C 38.9 41.7 37.7 41.6 38.1 41.6 C 38.0 41.3 38.7 41.8 38.7 41.6 C 37.6 41.1 37.5 41.3 36.8 40.8 C 36.9 41.2 35.8 41.0 36.0 40.9 C 36.1 40.7 35.9 40.4 35.4 40.5 C 35.5 40.3 35.3 40.1 35.1 40.0 C 34.9 40.1 35.2 40.2 35.1 40.4 C 34.9 40.3 34.6 40.2 34.4 40.1 C 34.4 40.0 34.5 39.9 34.4 39.8 C 34.1 39.9 33.1 39.7 33.2 39.6 C 33.7 39.5 32.7 39.2 33.4 39.2 C 33.2 39.1 33.2 39.0 33.0 39.0 C 33.0 39.1 32.9 39.2 32.9 39.3 C 32.4 39.1 32.8 38.8 32.4 38.6 C 32.3 38.7 32.1 38.6 32.0 38.7 C 32.2 38.8 32.2 38.7 32.4 38.8 C 32.0 39.1 32.8 39.2 32.7 39.4 C 32.2 39.3 32.3 39.0 32.1 38.9 C 31.5 38.8 31.8 38.8 31.2 38.5 C 31.1 38.6 31.3 38.6 31.2 38.7 C 30.5 38.3 30.8 37.9 30.2 37.9 C 30.3 37.9 30.8 37.9 30.5 37.8 C 30.1 37.7 29.9 37.9 29.5 37.7 C 29.5 37.6 29.6 37.5 29.4 37.4 C 29.2 37.4 29.1 37.6 28.9 37.6 C 28.9 37.5 28.6 37.4 28.5 37.4 C 28.4 37.2 28.6 37.2 28.5 37.1 C 28.1 36.9 27.6 37.3 27.3 37.1 C 27.5 36.8 27.1 36.7 26.7 36.6 C 26.8 36.3 26.1 36.0 25.7 35.8 C 25.7 36.0 25.3 35.7 25.3 36.0 C 25.5 36.1 25.6 36.2 25.6 36.3 C 25.1 36.1 25.2 35.6 24.6 35.7 C 24.5 35.5 24.3 35.2 24.0 35.0 C 23.9 35.1 24.5 35.5 24.1 35.4 C 24.1 35.3 24.0 35.3 23.9 35.3 C 24.0 35.1 23.8 34.8 23.7 34.6 C 23.3 34.6 22.8 34.0 23.0 34.4 C 22.5 34.2 23.0 34.0 22.6 33.8 C 22.7 34.2 22.0 33.9 22.2 34.2 C 21.7 34.0 22.0 33.7 22.2 33.7 C 21.8 33.4 21.6 33.5 21.5 33.2 C 21.6 33.6 20.8 33.3 21.2 33.4 C 21.5 33.2 20.9 33.1 20.8 32.9 C 20.9 33.1 20.7 33.0 20.9 33.3 C 20.6 33.2 20.0 32.9 19.9 32.5 C 19.4 32.4 19.0 32.2 19.3 32.1 C 18.9 31.9 19.0 32.0 18.6 31.7 C 18.6 31.8 18.7 31.9 18.7 31.9 C 18.2 31.6 18.4 31.5 17.7 31.1 C 17.9 30.9 17.4 30.6 17.4 30.4 C 17.7 30.6 17.9 30.8 18.1 31.0 C 18.2 30.9 18.0 30.7 18.2 30.8 C 18.2 30.9 18.3 31.0 18.4 31.1 C 18.0 30.6 19.2 31.1 18.7 31.1 C 18.7 31.0 18.7 31.0 18.6 30.9 C 18.6 31.2 18.6 31.1 18.4 31.3 C 18.7 31.4 18.7 31.7 18.9 31.6 C 18.9 31.5 18.7 31.4 18.7 31.3 C 19.4 31.5 18.7 31.7 19.2 31.9 C 19.5 31.7 19.3 31.5 19.2 31.3 C 19.7 31.5 20.0 31.8 20.0 32.0 C 20.5 32.1 20.1 31.8 20.4 31.8 C 20.5 32.0 20.4 32.2 20.6 32.3 C 21.0 32.4 20.6 32.1 20.9 32.2 C 21.1 32.5 20.5 32.4 21.0 32.7 C 21.0 32.3 21.3 33.0 21.4 32.8 C 21.1 32.6 21.3 32.3 21.3 32.6 C 21.8 33.2 22.6 32.7 23.0 33.5 C 23.0 33.5 23.1 33.5 23.2 33.4 C 22.8 33.0 22.1 32.7 22.2 32.3 C 21.8 32.1 21.7 32.4 21.6 32.4 C 21.3 31.9 21.4 31.9 21.8 31.7 C 22.6 32.1 22.8 32.4 23.2 32.7 C 23.6 32.7 23.2 32.6 23.2 32.5 C 24.6 33.5 23.8 32.2 24.3 32.6 C 24.2 32.7 24.3 32.8 24.4 32.9 C 24.5 32.8 24.7 33.0 24.7 32.9 C 24.7 32.9 24.6 32.8 24.7 32.7 C 25.1 32.8 24.8 33.0 24.8 33.1 C 24.5 33.0 24.3 32.9 24.2 33.0 C 24.6 33.1 24.8 33.4 25.2 33.3 C 25.4 33.8 24.7 33.8 24.7 34.2 C 24.6 34.3 25.3 33.8 25.6 33.8 C 26.0 34.1 26.2 33.8 26.6 34.0 C 26.6 34.3 26.1 33.9 26.0 34.1 C 26.2 34.2 26.2 34.3 26.3 34.3 C 26.6 34.5 26.7 34.2 26.9 34.3 C 26.9 34.6 27.1 34.5 27.3 34.5 C 27.5 34.7 27.1 34.6 27.3 34.8 C 27.6 35.0 28.0 34.8 28.1 34.9 C 28.1 35.0 28.0 35.0 28.1 35.1 C 28.5 35.1 28.6 35.2 28.2 34.8 C 28.6 35.1 28.8 35.1 28.9 34.8 C 28.3 34.5 28.1 34.5 28.0 34.0 C 27.8 34.2 27.7 33.9 27.5 33.8 C 27.4 34.2 27.2 33.7 27.0 33.8 C 27.1 33.9 27.3 34.0 27.3 34.1 C 26.7 33.8 26.7 33.8 26.0 33.9 C 26.1 33.8 26.0 33.7 26.0 33.6 C 26.2 33.6 26.7 33.9 26.8 33.7 C 26.5 33.2 26.2 33.6 25.9 33.1 C 25.7 33.2 26.1 33.5 25.8 33.4 C 25.7 33.1 25.6 32.9 25.3 32.7 C 25.1 32.6 24.9 32.6 24.6 32.6 C 24.6 32.5 24.6 32.4 24.4 32.3 C 24.4 32.4 24.6 32.6 24.3 32.5 C 23.8 31.9 23.5 31.5 22.8 31.2 C 22.9 31.4 23.3 31.9 23.1 31.8 C 22.9 31.5 22.3 31.5 22.1 31.1 C 22.1 31.0 22.5 31.4 22.6 31.0 C 22.2 30.9 22.1 30.7 22.0 30.6 C 21.9 30.7 21.6 30.5 21.6 30.7 C 21.8 30.9 22.0 30.7 22.0 30.8 C 21.5 31.3 21.2 30.1 20.8 29.8 C 20.4 29.7 20.9 30.2 20.5 30.0 C 20.2 30.0 20.4 29.4 20.8 29.5 C 21.0 29.8 21.2 29.6 21.1 29.8 C 21.2 29.9 21.4 30.0 21.4 29.9 C 21.2 29.8 21.4 29.7 21.3 29.5 C 21.5 29.7 21.8 29.3 21.8 29.7 C 21.7 29.6 21.6 29.7 21.5 29.7 C 22.2 30.0 22.3 30.3 22.6 30.6 C 22.5 30.3 22.7 30.5 22.8 30.3 C 22.5 30.2 22.0 29.8 22.4 29.9 C 22.4 30.3 23.0 29.7 23.1 30.1 C 22.9 30.0 22.8 30.2 22.7 30.2 C 22.9 30.3 22.8 30.5 23.1 30.7 C 24.1 30.8 24.4 31.7 25.9 31.9 C 26.4 32.1 25.4 31.8 25.4 32.0 C 25.5 32.1 25.5 32.1 25.6 32.2 C 25.7 31.9 25.8 32.3 26.1 32.2 C 26.0 32.4 26.7 32.5 26.9 32.8 C 26.9 32.8 26.9 32.6 27.1 32.7 C 27.9 33.4 29.7 33.8 30.3 34.4 C 30.4 34.2 30.7 34.4 30.8 34.3 C 31.3 34.5 31.0 34.6 31.7 34.7 C 32.1 34.8 31.6 34.8 31.5 34.8 C 32.5 35.2 33.3 35.8 34.0 35.7 C 34.4 35.8 34.0 35.9 34.6 36.2 C 34.7 35.9 35.5 36.8 35.8 36.5 C 36.2 36.6 36.8 37.3 36.6 36.8 C 37.1 37.0 36.7 37.2 36.9 37.3 C 37.3 37.4 37.0 36.7 37.4 36.8 C 37.2 37.0 37.6 37.0 37.7 37.4 C 37.5 37.2 37.2 37.2 37.2 37.3 C 37.5 37.3 37.4 37.4 37.8 37.6 C 38.2 37.5 39.1 37.6 39.3 38.1 C 39.3 38.0 39.3 37.9 39.2 37.8 C 39.5 37.9 39.7 38.2 39.8 37.9 C 40.4 38.1 40.5 38.4 41.0 38.3 C 41.2 38.3 40.8 38.5 41.6 38.8 C 41.6 38.5 43.0 39.0 43.3 39.3 C 43.4 39.0 43.4 39.3 43.5 39.4 C 43.6 39.3 43.6 39.1 43.8 39.2 C 43.8 39.3 43.9 39.3 44.0 39.3 C 43.8 39.6 44.5 39.3 44.5 39.6 C 44.4 39.6 44.3 39.7 44.4 39.8 C 44.6 39.5 45.0 40.1 45.0 39.9 C 44.9 39.8 44.5 39.7 44.7 39.5 C 45.2 39.6 44.9 39.8 45.3 40.0 C 45.3 39.9 45.1 39.7 45.3 39.7 C 45.7 39.9 45.4 39.8 45.5 40.0 C 45.8 40.0 46.2 40.0 46.3 40.0 C 46.3 40.0 46.3 40.1 46.4 40.2 C 47.1 40.5 48.7 40.6 49.3 41.1 C 49.4 41.0 49.6 41.0 49.5 40.8 C 49.9 41.0 49.9 41.0 50.3 41.1 C 50.3 41.0 50.4 40.9 50.4 40.8 C 51.0 40.8 50.4 41.2 50.7 41.2 C 50.9 40.7 50.9 41.5 51.2 41.5 C 51.3 41.4 51.5 41.4 51.4 41.2 C 52.0 41.4 51.9 41.7 52.3 41.7 C 52.2 41.6 52.3 40.8 52.4 40.6 C 52.5 40.8 52.6 40.9 52.8 40.9 C 52.5 41.1 52.4 42.1 53.2 41.9 C 52.8 41.9 52.7 41.8 52.8 41.6 C 53.3 41.7 53.4 41.9 53.9 42.0 C 54.0 41.7 53.7 41.6 53.8 41.4 C 53.9 41.4 54.0 41.4 54.0 41.3 C 54.4 41.4 54.4 41.6 54.9 41.5 C 54.9 41.7 54.8 41.7 54.6 41.5 C 54.6 41.7 54.6 41.9 54.3 41.9 C 54.3 41.7 54.5 41.5 54.1 41.5 C 54.1 41.7 54.0 41.8 54.0 41.9 C 54.3 42.0 55.0 42.3 55.1 42.2 C 55.0 42.1 54.7 42.0 54.9 41.7 C 55.4 41.9 55.5 42.2 55.9 42.4 C 56.7 42.5 58.0 42.7 57.9 42.3 C 58.3 42.5 58.2 42.5 58.6 42.6 C 58.5 42.3 59.1 42.5 59.0 42.3 C 58.5 42.3 58.7 42.3 58.2 42.3 C 58.2 42.1 58.3 42.0 58.5 42.0 C 58.5 42.2 58.7 42.2 59.1 42.2 C 59.0 42.2 58.7 41.9 59.1 41.9 C 59.1 42.0 59.2 42.0 59.4 42.0 C 59.3 42.2 59.3 42.3 59.3 42.4 C 59.1 42.5 58.9 42.5 58.7 42.6 C 58.8 42.6 58.9 42.7 59.0 42.7 C 59.1 42.6 59.6 42.8 59.7 42.7 C 59.5 42.6 59.3 42.5 59.6 42.5 C 59.6 42.5 60.0 42.7 60.1 42.5 C 59.7 42.4 59.9 42.4 59.6 42.1 C 60.2 42.1 60.1 42.4 60.7 42.4 C 60.7 42.6 60.7 42.8 60.5 42.8 C 60.9 43.4 61.9 43.0 62.2 43.1 C 62.0 43.1 61.7 43.4 62.0 43.4 C 62.0 43.3 62.3 43.4 62.3 43.3 C 62.5 42.8 62.2 42.6 62.0 42.3 C 62.2 42.3 62.3 42.2 62.5 42.3 C 62.6 42.4 62.3 42.8 62.6 42.8 C 62.7 42.5 63.2 42.9 63.3 42.6 C 63.1 42.6 63.0 42.4 63.2 42.4 C 63.2 42.6 63.6 42.5 63.6 42.7 C 63.2 42.8 63.1 43.0 62.9 42.9 C 63.2 43.0 62.7 43.1 63.1 43.2 C 63.4 43.1 63.5 42.8 64.0 42.9 C 64.2 43.0 64.0 43.2 64.3 43.2 C 64.2 43.0 64.8 43.0 64.4 43.2 C 64.6 43.2 64.7 43.2 64.8 43.3 C 64.6 43.0 65.9 42.8 65.7 42.6 C 65.7 43.0 65.7 43.3 65.8 43.4 C 66.1 43.1 66.4 43.3 67.1 43.4 C 67.1 43.0 67.2 43.3 67.5 43.3 C 67.6 43.2 67.3 43.1 67.5 43.1 C 67.8 43.2 67.9 43.2 67.9 43.3 C 68.2 43.3 68.3 43.4 68.5 43.4 C 68.5 43.3 68.4 43.2 68.3 43.2 C 69.3 43.5 69.8 43.2 70.6 43.3 C 70.2 43.1 70.2 43.5 70.4 43.5 C 70.6 43.5 70.8 43.4 70.8 43.3 C 70.7 43.1 70.7 43.2 71.1 43.3 C 71.5 43.2 71.0 42.9 71.3 42.9 C 71.6 43.0 71.4 43.1 71.6 43.2 C 71.7 43.2 71.8 43.2 72.0 43.2 C 71.7 43.1 72.0 43.0 72.3 42.9 C 72.1 43.2 72.2 43.2 72.7 43.1 C 72.7 43.3 72.5 43.3 72.7 43.4 C 72.8 43.4 73.2 43.1 73.5 43.3 C 73.4 43.3 73.3 43.4 73.4 43.4 C 73.7 43.3 74.0 43.6 74.4 43.7 C 74.0 43.5 74.2 43.3 74.1 43.1 C 74.4 43.3 74.8 43.1 75.1 43.3 C 74.6 43.3 75.1 43.8 75.4 43.8 C 75.4 43.6 74.9 43.7 75.1 43.3 C 75.2 43.2 75.6 43.5 75.8 43.3 C 75.7 43.1 75.5 43.3 75.5 43.2 C 75.7 43.2 75.4 43.1 75.6 43.0 C 75.8 43.3 75.9 42.9 76.0 42.9 C 76.2 43.0 76.6 43.3 76.7 43.1 C 76.7 43.0 76.5 43.1 76.5 43.0 C 77.2 42.8 77.5 43.2 78.1 42.8 C 78.2 43.0 78.4 43.0 78.6 43.1 C 78.5 42.9 78.7 42.9 78.8 42.8 C 79.1 42.9 79.4 43.0 79.8 43.1 C 79.8 43.3 79.6 43.4 80.1 43.4 C 80.1 43.3 79.9 43.3 80.1 43.2 C 80.1 43.2 80.2 43.3 80.3 43.2 C 80.3 43.1 80.3 43.1 80.3 43.0 C 80.1 43.0 80.0 43.1 79.8 43.1 C 79.8 42.9 79.8 42.8 79.7 42.7 C 80.3 42.6 80.3 43.1 80.7 42.8 C 80.7 43.2 80.9 43.3 80.6 43.6 C 80.9 43.5 81.2 43.3 81.2 43.1 C 80.8 43.2 80.9 42.9 80.8 42.8 C 81.1 42.8 81.1 42.6 81.2 42.6 C 81.5 42.7 80.9 43.0 81.5 43.0 C 81.0 42.8 81.9 42.7 82.2 42.8 C 82.1 42.7 82.0 42.7 82.2 42.6 C 83.0 42.3 83.0 43.2 83.5 42.7 C 83.4 42.8 83.7 42.8 83.8 42.9 C 83.4 43.0 83.3 43.1 83.1 43.1 C 83.1 43.2 83.3 43.2 83.4 43.3 C 83.4 43.1 83.5 43.1 83.7 43.1 C 83.8 43.0 83.7 42.6 84.0 42.4 C 84.0 42.5 84.0 42.6 84.2 42.6 C 84.3 42.4 84.1 43.0 84.8 42.9 C 84.6 42.8 84.6 42.7 84.6 42.5 C 84.9 42.3 84.8 42.5 85.3 42.3 C 85.5 42.7 85.0 42.8 84.9 43.1 C 85.2 43.0 85.4 42.7 85.8 42.8 C 85.5 42.7 85.7 42.5 86.0 42.4 C 86.2 42.4 86.0 42.8 86.3 42.8 C 86.5 42.7 86.6 42.4 86.4 42.3 C 86.9 42.4 86.8 42.1 87.2 42.1 C 87.3 42.2 87.1 42.3 87.0 42.2 C 87.0 42.3 87.0 42.4 87.1 42.4 C 87.4 42.2 88.0 42.0 88.3 41.8 C 89.0 42.2 89.6 41.5 90.3 41.6 C 90.1 41.9 91.1 41.5 91.5 41.7 C 91.6 41.6 92.1 41.0 92.0 41.2 C 92.1 41.5 92.4 41.4 92.7 41.4 C 92.7 41.3 92.7 41.2 92.7 41.1 C 93.3 41.0 93.5 41.2 93.7 41.3 C 94.4 41.0 95.4 41.2 96.2 40.7 C 96.5 40.9 96.7 40.8 97.3 40.9 C 97.2 40.6 97.6 40.5 98.1 40.4 C 97.9 40.2 98.3 40.2 98.3 40.1 C 97.9 40.1 97.9 39.8 97.7 39.8 C 98.3 39.9 98.4 39.4 98.8 39.5 C 98.4 39.7 98.3 40.1 98.4 40.4 C 98.9 40.2 99.2 40.3 99.4 40.4 C 99.4 40.2 99.3 40.1 99.1 40.1 C 99.3 40.0 99.5 40.0 99.7 39.9 C 99.8 40.1 99.5 40.2 99.7 40.2 C 99.9 40.1 100.0 39.9 100.1 39.8 C 100.3 40.0 99.9 40.1 99.9 40.2 C 100.7 40.1 100.2 39.7 100.6 39.5 C 100.8 39.7 100.8 39.9 101.1 39.9 C 101.2 39.7 101.2 39.4 101.6 39.3 C 101.8 39.3 101.7 39.7 102.0 39.6 C 102.0 39.5 102.1 39.5 102.2 39.5 C 102.2 39.4 102.3 39.3 102.4 39.2 C 102.5 39.3 102.7 39.2 102.8 39.1 C 102.9 39.2 103.4 39.4 103.4 39.2 C 103.4 39.1 103.2 39.2 103.1 39.1 C 103.4 39.0 103.6 38.9 103.8 38.8 C 104.0 39.3 104.4 38.7 105.1 38.8 C 105.4 38.5 104.9 38.4 105.3 38.1 C 105.7 38.2 105.3 38.4 105.5 38.6 C 105.6 38.6 106.1 38.6 106.0 38.4 C 106.0 38.3 105.8 38.4 105.7 38.4 C 106.0 38.0 106.1 38.3 106.3 38.3 C 106.2 38.1 106.4 38.0 106.4 37.9 C 107.3 37.4 107.5 37.8 107.9 37.8 C 107.9 37.7 108.1 37.7 108.1 37.6 C 107.9 37.8 107.5 37.7 107.8 37.5 C 107.8 37.7 108.3 37.3 108.3 37.3 C 108.2 37.2 107.9 37.4 107.9 37.1 C 108.4 36.8 108.4 37.3 108.7 37.0 C 108.8 37.1 108.5 37.2 108.5 37.3 C 108.6 37.3 108.8 37.1 108.9 37.2 C 108.7 37.4 108.8 37.5 108.8 37.7 C 109.0 37.4 109.5 37.4 109.1 37.2 C 109.6 37.1 110.1 36.8 109.6 36.7 C 110.0 36.5 109.9 36.9 110.2 36.6 C 110.2 36.8 110.2 37.0 110.5 37.1 C 110.5 36.9 110.7 36.8 110.6 36.6 C 111.3 36.4 111.5 36.6 111.9 36.7 C 111.5 36.4 111.9 36.6 112.1 36.2 C 112.4 36.2 112.3 36.6 112.8 36.3 C 112.1 36.2 113.4 35.9 113.0 35.7 C 113.7 35.6 113.7 35.6 114.4 35.3 C 114.4 35.5 114.3 35.7 114.0 35.9 C 114.1 35.6 113.3 35.9 113.4 36.0 C 113.5 36.1 113.5 36.1 113.5 36.1 C 114.0 35.9 114.3 35.8 114.6 35.8 C 114.6 35.6 114.8 35.5 114.6 35.2 C 115.2 35.3 115.5 34.7 115.9 34.8 C 115.7 34.9 115.6 35.0 115.7 35.1 C 115.8 35.0 116.0 34.8 115.9 34.6 C 115.5 34.7 115.4 34.7 115.3 35.0 C 115.4 34.7 114.8 34.9 115.2 34.6 C 115.3 35.0 115.8 34.1 115.7 34.5 C 115.4 34.8 116.3 34.4 116.4 34.6 C 116.4 34.6 116.4 34.6 116.4 34.6 Z M 23.0 30.6 C 22.5 30.5 22.9 31.0 23.2 31.1 C 23.1 31.0 23.1 30.8 23.2 30.7 C 23.1 30.7 22.9 30.7 23.0 30.6 C 23.0 30.6 23.0 30.6 23.0 30.6 Z M 25.4 35.8 C 25.6 35.7 24.9 35.5 24.6 35.3 C 24.7 35.4 24.7 35.5 24.6 35.4 C 24.8 35.8 25.0 35.5 25.4 35.8 C 25.4 35.8 25.4 35.8 25.4 35.8 Z M 40.5 41.1 C 40.4 41.1 40.1 41.1 40.1 41.0 C 39.9 40.9 39.9 41.1 39.9 41.2 C 39.5 41.1 40.1 40.8 39.5 40.8 C 39.2 41.2 40.2 41.6 40.5 41.1 C 40.5 41.1 40.5 41.1 40.5 41.1 Z M 112.8 40.1 C 113.0 40.1 112.6 40.5 112.9 40.6 C 113.6 40.2 112.9 40.1 113.9 39.8 C 113.8 39.7 113.7 39.7 113.7 39.6 C 113.3 39.9 113.3 40.1 113.2 39.6 C 113.0 39.7 113.2 40.2 112.8 40.1 C 112.8 40.1 112.8 40.1 112.8 40.1 Z M 122.8 36.6 C 122.7 36.5 122.6 36.5 122.6 36.4 C 122.3 36.7 122.4 36.7 122.0 36.8 C 122.2 37.1 122.6 36.9 122.8 36.6 C 122.8 36.6 122.8 36.6 122.8 36.6 Z M 146.0 20.8 C 146.1 20.8 146.1 20.7 146.2 20.6 C 146.1 20.6 146.0 20.1 145.7 20.5 C 145.7 20.6 145.8 20.6 145.9 20.5 C 145.9 20.6 145.7 20.8 145.8 20.9 C 145.9 20.8 146.0 20.8 146.0 20.8 C 146.0 20.8 146.0 20.8 146.0 20.8 Z M 152.6 10.8 C 152.4 11.4 153.7 10.7 152.6 10.8 C 152.6 10.8 152.6 10.8 152.6 10.8 C 152.6 10.8 152.6 10.8 152.6 10.8 Z M 149.7 9.8 C 149.6 9.8 149.6 9.9 149.6 9.9 C 149.2 10.2 149.4 9.8 149.2 9.9 C 149.1 10.3 149.6 10.1 149.4 10.5 C 149.6 10.6 149.5 10.0 149.7 9.8 C 149.7 9.8 149.7 9.8 149.7 9.8 Z M 82.9 42.9 C 82.5 43.0 82.4 43.2 82.4 43.5 C 82.7 43.5 82.9 43.5 83.0 43.6 C 83.5 43.4 82.6 43.5 82.5 43.4 C 82.6 43.2 82.9 43.1 82.9 42.9 C 82.9 42.9 82.9 42.9 82.9 42.9 Z M 81.7 43.1 C 81.5 43.2 81.3 43.3 81.3 43.5 C 81.5 43.5 81.5 43.5 81.6 43.6 C 81.8 43.5 81.5 43.4 81.7 43.1 C 81.7 43.1 81.7 43.1 81.7 43.1 Z M 84.1 43.1 C 83.9 43.1 84.0 43.3 84.0 43.4 C 84.2 43.4 84.3 43.5 84.5 43.4 C 84.5 43.4 84.5 43.3 84.5 43.2 C 84.3 43.2 84.3 43.3 84.1 43.3 C 84.1 43.2 84.1 43.2 84.1 43.1 C 84.1 43.1 84.1 43.1 84.1 43.1 Z M 80.4 43.5 C 79.7 43.5 79.4 44.0 78.9 44.3 C 79.4 44.2 79.9 43.7 80.3 43.8 C 80.8 43.7 80.1 43.7 80.1 43.6 C 80.1 43.5 80.3 43.5 80.4 43.5 C 80.4 43.5 80.4 43.5 80.4 43.5 Z M 73.9 43.8 C 73.8 43.6 73.5 44.0 73.1 43.9 C 73.2 44.0 73.2 44.1 73.2 44.2 C 73.8 44.2 73.5 43.8 73.9 43.8 C 73.9 43.8 73.9 43.8 73.9 43.8 Z M 70.4 43.9 C 70.1 43.9 70.6 44.0 70.4 44.2 C 70.8 44.2 71.3 44.2 71.3 44.0 C 70.8 44.1 70.7 44.1 70.4 43.9 C 70.4 43.9 70.4 43.9 70.4 43.9 Z M 67.9 43.8 C 67.5 43.9 68.1 44.1 67.9 44.4 C 68.0 44.4 68.0 44.2 68.0 44.1 C 68.1 44.2 68.2 44.2 68.4 44.2 C 68.3 44.1 67.8 44.1 67.9 43.8 C 67.9 43.8 67.9 43.8 67.9 43.8 Z M 93.3 42.1 C 93.1 42.2 93.2 42.4 92.6 42.4 C 93.4 42.3 93.1 43.1 94.2 42.8 C 94.0 42.7 94.1 42.6 94.1 42.7 C 94.5 42.5 93.7 42.7 94.1 42.3 C 93.8 42.4 94.0 42.6 93.7 42.7 C 93.4 42.5 93.2 42.5 93.3 42.1 C 93.3 42.1 93.3 42.1 93.3 42.1 Z M 94.2 43.0 C 94.5 43.0 94.4 42.6 94.6 42.8 C 94.7 42.7 94.7 42.7 94.7 42.6 C 94.6 42.6 94.6 42.6 94.6 42.5 C 94.3 42.7 94.1 42.8 94.2 43.0 C 94.2 43.0 94.2 43.0 94.2 43.0 Z M 91.5 43.5 C 92.0 43.3 92.1 43.5 92.3 43.2 C 92.6 43.6 92.6 43.0 92.9 43.3 C 93.4 43.1 93.0 43.1 92.9 43.0 C 93.3 42.8 93.0 43.2 93.5 43.0 C 93.5 42.7 92.9 42.9 93.0 42.6 C 92.6 42.7 92.6 42.9 92.4 43.0 C 92.3 43.0 92.3 42.8 92.2 42.8 C 91.9 42.9 91.9 42.7 91.5 42.8 C 91.5 43.0 91.6 43.1 92.0 43.0 C 91.6 43.1 91.5 43.4 91.0 43.3 C 91.3 43.0 89.9 43.2 90.1 43.6 C 90.4 43.5 90.3 43.3 90.4 43.2 C 91.0 43.4 91.3 43.3 91.5 43.5 C 91.5 43.5 91.5 43.5 91.5 43.5 Z M 84.3 43.9 C 84.2 43.8 84.1 43.8 83.9 43.8 C 83.8 43.6 84.1 43.6 83.8 43.5 C 83.5 43.5 83.5 43.6 83.3 43.7 C 83.4 43.8 84.1 43.9 83.7 44.1 C 83.9 44.2 84.1 44.2 84.3 44.2 C 84.0 43.9 84.8 44.1 85.1 44.1 C 85.0 43.7 85.6 44.1 85.7 43.9 C 85.5 43.7 85.0 44.0 84.7 44.0 C 84.9 43.9 84.0 43.5 84.3 43.9 C 84.3 43.9 84.3 43.9 84.3 43.9 Z M 95.3 42.6 C 95.4 42.5 95.7 42.4 95.4 42.4 C 95.5 42.3 95.8 42.4 95.6 42.1 C 95.8 42.0 95.9 42.0 96.1 42.0 C 96.0 42.1 95.6 42.1 95.8 42.3 C 96.1 42.1 96.0 42.3 96.4 42.2 C 96.3 42.5 96.5 42.5 96.4 42.8 C 96.5 42.6 96.8 42.6 96.8 42.4 C 97.3 42.3 96.7 42.7 97.4 42.6 C 97.4 42.8 96.9 42.9 96.7 42.8 C 96.7 43.1 97.6 42.7 98.2 42.6 C 97.6 42.5 98.0 42.2 98.1 42.0 C 98.3 42.0 98.2 42.1 98.5 42.2 C 98.7 42.2 98.8 42.0 98.9 42.1 C 99.1 42.0 99.0 41.9 99.0 41.8 C 99.3 41.7 99.2 42.1 99.6 41.9 C 99.2 41.7 99.6 41.5 100.2 41.4 C 100.2 41.3 100.0 41.4 99.9 41.3 C 99.9 41.1 100.4 41.3 100.5 41.3 C 100.7 41.2 100.5 41.1 100.3 41.2 C 100.5 41.1 100.6 41.0 100.7 40.9 C 100.0 41.0 98.9 41.4 97.6 41.4 C 97.9 41.5 97.6 41.6 97.2 41.6 C 97.1 41.5 97.3 41.4 97.4 41.4 C 96.9 41.2 97.1 41.8 96.3 41.8 C 95.9 41.8 96.7 41.6 96.3 41.5 C 96.0 41.6 95.9 41.9 95.7 41.6 C 95.3 41.9 95.2 42.2 94.5 42.3 C 94.9 42.3 95.2 42.9 95.6 42.6 C 95.6 42.6 95.4 42.6 95.3 42.6 C 95.3 42.6 95.3 42.6 95.3 42.6 Z M 81.6 43.8 C 81.3 43.8 81.2 44.0 81.2 43.8 C 80.7 44.0 81.2 44.1 81.3 44.2 C 81.5 44.1 81.6 44.0 81.6 43.8 C 81.6 43.8 81.6 43.8 81.6 43.8 Z M 39.4 38.5 C 38.9 38.3 38.9 38.6 38.5 38.5 C 38.8 38.7 38.8 38.9 39.4 39.0 C 39.5 38.9 39.5 38.7 39.4 38.5 C 39.4 38.5 39.4 38.5 39.4 38.5 Z M 83.0 43.8 C 83.3 43.5 82.6 44.2 82.6 44.0 C 82.2 44.2 83.0 44.1 82.6 44.4 C 83.0 44.2 83.2 44.4 83.6 44.2 C 83.6 44.0 83.2 44.0 82.9 44.1 C 82.8 44.0 83.0 43.9 83.0 43.8 C 83.0 43.8 83.0 43.8 83.0 43.8 Z M 44.5 40.8 C 44.9 40.7 44.2 40.3 44.1 40.1 C 44.0 40.4 44.1 40.4 44.5 40.8 C 44.5 40.8 44.5 40.8 44.5 40.8 Z M 35.8 37.7 C 35.5 37.9 36.4 37.9 36.1 38.1 C 36.3 38.2 36.4 38.2 36.4 38.1 C 36.5 38.2 36.9 38.3 36.7 38.4 C 36.7 38.6 36.2 38.2 36.3 38.5 C 36.0 38.5 36.1 38.4 35.9 38.3 C 36.3 38.5 36.2 38.1 35.7 37.9 C 35.7 38.1 35.9 38.1 35.6 38.2 C 35.6 38.1 35.5 37.8 35.6 37.5 C 35.2 37.4 35.3 37.8 34.8 37.6 C 34.8 37.8 35.1 37.9 35.2 38.0 C 35.1 38.3 34.8 37.6 34.8 38.0 C 34.7 37.8 34.5 37.6 34.6 37.4 C 35.0 37.4 35.3 37.4 35.6 37.3 C 35.4 37.1 34.8 37.5 34.4 37.0 C 34.4 37.2 34.1 37.1 34.1 37.3 C 33.8 37.1 34.1 36.9 34.1 36.9 C 34.1 36.7 33.3 36.5 33.3 36.8 C 33.3 36.5 32.4 36.2 32.3 36.5 C 32.1 36.2 31.6 36.4 31.6 36.0 C 31.4 36.1 31.1 35.9 30.8 35.8 C 30.6 36.0 31.2 36.1 31.2 36.3 C 31.2 36.5 30.6 36.0 30.6 36.2 C 30.6 36.2 30.5 36.3 30.5 36.3 C 30.8 36.4 31.1 36.4 31.4 36.5 C 31.6 36.6 31.3 36.5 31.3 36.7 C 31.6 36.6 32.5 36.7 32.4 37.1 C 33.0 37.3 33.3 37.5 33.6 37.4 C 34.0 37.6 33.4 37.5 33.5 37.7 C 34.6 37.8 35.7 38.6 36.7 38.6 C 36.9 38.7 36.7 38.8 36.7 39.0 C 37.9 39.2 37.1 38.5 37.9 39.0 C 37.8 39.2 37.4 39.0 37.4 39.2 C 37.7 39.3 37.8 39.2 38.2 39.4 C 38.3 39.3 38.3 39.2 38.3 39.1 C 38.7 39.2 38.4 39.5 38.6 39.6 C 39.0 39.7 39.0 39.5 39.1 39.9 C 39.5 39.9 40.0 40.0 40.3 40.2 C 40.7 40.1 40.3 39.6 39.8 39.5 C 39.9 39.4 40.0 39.4 40.0 39.4 C 40.5 39.7 40.4 40.2 41.1 40.5 C 40.6 40.0 41.5 40.5 41.5 40.7 C 41.9 40.8 41.7 40.4 41.5 40.3 C 41.6 40.2 41.7 40.4 41.7 40.5 C 41.9 40.2 41.2 39.8 40.4 39.6 C 40.9 39.4 39.8 39.5 40.4 39.1 C 39.7 39.0 40.2 39.5 39.5 39.2 C 39.5 39.3 39.6 39.4 39.7 39.6 C 39.1 39.4 39.4 39.2 38.8 39.0 C 38.6 39.2 39.0 39.3 39.0 39.4 C 38.4 39.0 38.3 38.8 37.9 38.5 C 37.8 38.6 37.8 38.8 37.2 38.4 C 37.2 38.4 37.2 38.3 37.2 38.3 C 37.6 38.5 37.8 38.1 37.0 37.8 C 36.9 37.9 37.1 38.0 37.3 38.1 C 37.2 38.2 36.9 38.1 36.6 38.0 C 36.4 38.0 36.3 37.8 36.5 37.9 C 36.5 37.6 36.2 38.0 35.8 37.7 C 35.8 37.7 35.8 37.7 35.8 37.7 Z M 74.6 44.3 C 74.5 44.4 74.4 44.4 74.2 44.4 C 74.1 44.6 74.5 44.6 74.5 44.7 C 74.8 44.7 74.6 44.4 74.6 44.3 C 74.6 44.3 74.6 44.3 74.6 44.3 Z M 78.6 44.3 C 78.6 44.1 78.4 44.5 78.1 44.4 C 78.0 44.6 78.4 44.5 78.4 44.7 C 78.8 44.7 78.2 44.3 78.6 44.3 C 78.6 44.3 78.6 44.3 78.6 44.3 Z M 76.9 44.4 C 76.8 44.2 76.8 44.5 77.1 44.5 C 77.1 44.6 77.0 44.8 76.8 44.8 C 77.0 45.1 77.1 44.6 77.5 44.7 C 77.4 44.6 77.2 44.5 76.9 44.4 C 76.9 44.4 76.9 44.4 76.9 44.4 Z M 76.4 44.4 C 76.1 44.6 76.0 44.4 75.6 44.5 C 75.7 44.7 76.5 44.6 76.6 44.5 C 76.8 44.3 75.9 44.3 76.4 44.4 C 76.4 44.4 76.4 44.4 76.4 44.4 Z M 49.9 42.5 C 49.7 42.5 49.7 42.6 49.7 42.6 C 49.3 42.2 48.7 42.1 49.3 41.9 C 48.8 42.0 48.4 41.6 48.1 41.4 C 47.8 41.3 47.9 41.6 47.6 41.6 C 47.2 41.4 47.9 41.5 47.8 41.4 C 47.8 41.2 47.5 41.6 47.1 41.3 C 47.1 41.7 46.7 41.1 46.7 41.6 C 46.5 41.4 46.4 41.5 46.1 41.4 C 46.0 41.6 46.4 41.7 46.4 41.8 C 46.5 42.1 46.6 41.7 46.3 41.6 C 46.5 41.4 46.9 41.9 47.1 41.8 C 47.2 42.1 46.7 41.7 46.8 42.0 C 46.9 42.0 47.0 42.0 47.1 41.9 C 47.3 42.0 47.4 42.1 47.4 42.3 C 47.3 42.3 47.3 42.2 47.3 42.2 C 47.1 42.1 47.5 42.6 46.9 42.5 C 47.0 42.6 47.2 42.6 47.2 42.8 C 47.3 43.0 47.3 42.1 47.8 42.5 C 48.2 42.4 47.0 42.1 47.4 41.7 C 48.2 42.0 47.7 42.2 48.3 42.4 C 48.3 42.3 48.3 42.2 48.5 42.2 C 48.5 42.1 48.2 42.1 48.1 42.0 C 48.1 41.9 48.4 42.0 48.5 42.0 C 48.5 42.0 48.4 41.9 48.4 41.9 C 48.9 42.1 48.7 42.5 48.2 42.6 C 48.2 42.8 48.9 42.9 49.1 42.8 C 48.9 42.6 49.1 42.7 49.0 42.4 C 48.9 42.4 48.9 42.5 48.8 42.5 C 48.6 42.4 48.9 42.4 48.9 42.3 C 49.2 42.4 49.1 42.6 49.4 42.5 C 49.3 42.5 49.3 42.6 49.2 42.7 C 49.4 42.7 49.5 42.8 49.7 42.8 C 49.7 42.7 49.9 42.7 49.9 42.5 C 49.9 42.5 49.9 42.5 49.9 42.5 Z M 42.9 40.0 C 42.5 39.8 42.7 40.1 42.9 40.2 C 42.8 40.2 42.6 40.2 42.4 40.2 C 42.5 40.3 42.7 40.3 43.1 40.5 C 42.6 40.7 42.9 41.2 43.6 41.4 C 43.9 41.0 43.3 40.8 43.6 40.6 C 43.1 40.6 42.9 40.3 42.9 40.0 C 42.9 40.0 42.9 40.0 42.9 40.0 Z M 81.3 44.2 C 81.0 44.3 80.8 44.3 80.5 44.3 C 80.5 44.5 81.4 44.6 81.3 44.2 C 81.3 44.2 81.3 44.2 81.3 44.2 Z M 101.3 41.0 C 101.4 41.0 101.5 41.0 101.5 41.1 C 101.9 40.9 101.2 40.9 101.4 40.7 C 101.2 40.7 101.1 40.8 101.0 40.8 C 101.0 40.9 101.6 40.9 101.2 41.1 C 101.2 41.2 101.3 41.1 101.3 41.0 C 101.3 41.0 101.3 41.0 101.3 41.0 Z M 74.9 44.6 C 74.7 44.7 74.9 45.0 74.2 45.0 C 74.5 45.1 74.6 45.1 75.0 45.0 C 74.9 44.9 74.9 44.8 74.9 44.6 C 74.9 44.6 74.9 44.6 74.9 44.6 Z M 52.0 42.6 C 51.7 42.3 51.5 42.8 50.9 42.5 C 51.1 42.9 51.6 42.6 52.0 42.6 C 52.0 42.6 52.0 42.6 52.0 42.6 Z M 29.6 35.7 C 29.7 35.8 29.5 35.8 29.8 36.0 C 30.0 36.0 30.1 35.9 30.4 36.0 C 30.1 35.6 29.3 35.6 29.3 35.1 C 28.9 35.0 28.8 35.2 28.7 35.3 C 28.8 35.4 28.9 35.4 28.9 35.5 C 29.2 35.3 29.2 35.9 29.6 35.7 C 29.6 35.7 29.6 35.7 29.6 35.7 Z M 44.6 40.9 C 44.8 41.1 44.3 41.1 44.2 41.2 C 44.0 41.1 44.1 41.0 44.1 40.9 C 43.9 40.8 43.8 40.9 43.8 41.1 C 44.2 41.3 44.8 41.5 44.3 41.7 C 44.8 41.9 44.6 41.5 44.9 41.5 C 45.0 41.7 44.8 41.7 44.7 42.0 C 44.8 41.9 45.3 41.8 45.1 42.1 C 45.9 41.9 45.7 41.5 45.3 41.0 C 44.8 41.1 45.3 41.3 44.6 40.9 C 44.6 40.9 44.6 40.9 44.6 40.9 Z M 62.2 44.6 C 62.1 44.5 61.9 44.5 61.9 44.4 C 61.6 44.6 61.3 44.8 61.0 45.0 C 61.0 45.2 61.4 45.0 61.3 44.9 C 61.4 45.0 61.6 45.2 61.8 45.3 C 62.1 45.4 62.2 44.9 62.2 45.3 C 62.5 45.2 62.4 45.2 62.8 45.3 C 62.1 44.9 63.1 45.2 63.1 44.9 C 62.7 44.8 62.4 44.8 62.4 45.1 C 62.1 44.9 61.8 44.8 61.7 44.6 C 61.8 44.5 62.0 44.6 62.2 44.6 C 62.2 44.6 62.2 44.6 62.2 44.6 Z M 60.4 45.1 C 60.5 45.1 60.6 45.0 60.8 45.1 C 60.7 45.0 60.7 44.9 60.7 44.7 C 60.4 44.7 60.3 44.8 60.2 44.6 C 59.8 44.5 60.2 44.9 59.7 44.8 C 59.7 44.8 60.0 44.8 60.0 45.0 C 60.0 44.8 60.2 44.8 60.4 45.1 C 60.4 45.1 60.4 45.1 60.4 45.1 Z M 56.1 44.0 C 55.7 43.9 56.3 44.2 56.0 44.3 C 56.1 44.3 56.8 44.5 56.7 44.7 C 56.9 45.0 57.7 44.5 57.5 44.9 C 57.7 44.9 57.7 44.7 57.7 44.6 C 57.2 44.6 57.2 44.4 57.6 44.5 C 57.6 44.3 57.2 44.3 57.0 44.3 C 57.0 44.4 57.2 44.5 57.1 44.6 C 56.7 44.4 56.4 44.2 56.1 44.0 C 56.1 44.0 56.1 44.0 56.1 44.0 Z M 116.1 36.1 C 115.8 36.2 115.6 36.3 115.5 36.5 C 115.6 36.6 115.7 36.4 115.9 36.3 C 116.0 36.4 115.9 36.5 115.7 36.6 C 115.9 36.7 116.4 36.3 116.1 36.1 C 116.1 36.1 116.1 36.1 116.1 36.1 Z M 113.5 37.3 C 113.2 37.4 113.0 37.5 113.0 37.6 C 113.2 37.7 113.1 37.5 113.3 37.4 C 113.4 37.5 113.5 37.5 113.6 37.6 C 113.8 37.5 113.7 37.4 113.7 37.3 C 113.8 37.3 113.8 37.3 113.9 37.4 C 114.1 37.0 113.5 37.6 113.5 37.3 C 113.5 37.3 113.5 37.3 113.5 37.3 Z M 58.4 44.5 C 58.6 44.6 58.6 44.8 59.0 44.8 C 58.9 44.6 59.2 44.7 59.4 44.7 C 59.1 44.5 58.9 44.6 58.4 44.5 C 58.4 44.5 58.4 44.5 58.4 44.5 Z M 96.4 43.0 C 96.0 42.8 96.1 43.2 95.4 43.2 C 95.4 43.3 95.5 43.3 95.5 43.4 C 95.8 43.1 96.0 43.2 96.4 43.0 C 96.4 43.0 96.4 43.0 96.4 43.0 Z M 147.3 14.3 C 147.4 14.4 147.7 14.0 147.8 14.1 C 147.6 13.8 148.2 14.1 148.7 13.4 C 148.8 13.4 148.8 13.5 148.7 13.6 C 149.3 13.2 148.4 13.6 148.2 13.5 C 147.9 13.9 147.7 13.8 147.3 14.3 C 147.3 14.3 147.3 14.3 147.3 14.3 Z M 33.2 38.0 C 33.3 38.0 33.2 37.9 33.1 37.9 C 33.0 37.9 33.0 37.8 32.9 37.8 C 32.8 38.1 33.2 38.4 32.7 38.6 C 32.8 38.6 32.8 38.6 32.9 38.6 C 33.8 38.2 33.9 39.5 34.9 39.4 C 35.0 39.4 35.0 39.3 35.1 39.3 C 34.9 39.2 35.0 39.2 35.0 39.1 C 34.7 39.4 34.1 38.8 34.5 38.8 C 34.5 38.7 34.4 38.7 34.4 38.7 C 34.3 38.7 34.2 38.7 34.1 38.6 C 34.1 38.7 34.3 38.8 34.3 39.0 C 33.9 38.7 33.4 38.4 33.8 38.2 C 33.5 38.2 33.4 38.2 33.1 38.2 C 33.0 38.2 33.1 38.0 33.2 38.0 C 33.2 38.0 33.2 38.0 33.2 38.0 Z M 29.8 36.6 C 29.4 36.4 29.4 36.7 29.1 36.5 C 29.2 36.8 29.7 36.6 29.9 37.0 C 29.9 36.8 29.8 36.7 29.8 36.6 C 29.8 36.6 29.8 36.6 29.8 36.6 Z M 37.4 40.0 C 37.2 40.3 37.6 40.4 37.9 40.6 C 38.1 40.3 37.8 40.2 37.4 40.0 C 37.4 40.0 37.4 40.0 37.4 40.0 Z M 35.6 39.4 C 35.2 39.3 36.1 39.6 35.8 39.8 C 36.0 39.9 36.2 39.9 36.2 40.0 C 36.3 40.0 36.4 39.9 36.6 40.0 C 36.7 39.9 36.2 39.8 36.3 39.6 C 35.9 39.7 35.9 39.7 35.6 39.4 C 35.6 39.4 35.6 39.4 35.6 39.4 Z M 35.4 39.3 C 35.1 39.3 35.3 39.8 35.6 39.9 C 35.5 39.7 35.5 39.5 35.4 39.3 C 35.4 39.3 35.4 39.3 35.4 39.3 Z M 68.1 46.2 C 67.9 46.2 68.0 46.4 67.8 46.4 C 67.8 46.6 68.6 46.6 67.9 46.6 C 68.1 46.9 68.3 46.5 68.6 46.6 C 68.5 46.5 68.4 46.4 68.6 46.4 C 68.7 46.2 67.9 46.4 68.1 46.2 C 68.1 46.2 68.1 46.2 68.1 46.2 Z M 67.2 46.2 C 67.0 46.2 67.1 46.2 67.2 46.2 C 67.2 46.3 66.9 46.3 66.8 46.3 C 66.7 46.2 67.0 46.7 67.0 46.9 C 67.8 46.7 67.2 46.4 67.2 46.2 C 67.2 46.2 67.2 46.2 67.2 46.2 Z M 66.5 46.3 C 66.0 46.0 65.3 46.0 65.0 46.3 C 65.3 46.6 66.2 46.6 66.5 46.3 C 66.5 46.3 66.5 46.3 66.5 46.3 Z M 71.2 46.5 C 70.4 46.2 68.6 46.6 70.2 46.8 C 70.1 46.7 71.2 46.6 71.7 46.7 C 71.7 46.6 72.2 46.4 72.2 46.6 C 72.6 46.4 71.0 46.3 71.2 46.5 C 71.2 46.5 71.2 46.5 71.2 46.5 Z M 64.4 46.7 C 64.7 46.6 64.4 46.1 64.7 46.3 C 64.9 46.3 64.7 46.2 64.8 46.1 C 64.3 46.1 63.4 46.2 63.3 46.0 C 63.1 46.0 63.0 46.2 62.6 46.1 C 62.6 46.2 64.1 46.0 64.4 46.5 C 64.4 46.6 63.8 46.6 64.4 46.7 C 64.4 46.7 64.4 46.7 64.4 46.7 Z M 96.8 44.4 C 96.8 44.1 96.2 44.4 96.2 44.1 C 96.0 44.5 95.6 44.4 95.3 44.7 C 95.2 44.6 95.2 44.3 94.6 44.3 C 94.7 44.5 94.9 44.4 94.7 44.6 C 94.3 44.8 94.3 44.5 93.8 44.7 C 94.0 45.0 92.7 45.0 92.9 45.3 C 93.2 45.2 93.1 45.1 93.6 45.0 C 93.7 45.0 93.7 45.2 93.9 45.1 C 93.8 45.4 93.5 45.1 93.3 45.3 C 93.4 45.5 93.8 45.4 93.8 45.5 C 94.0 45.5 93.8 45.5 93.8 45.3 C 94.3 45.2 93.9 45.9 94.5 45.7 C 94.3 45.5 94.3 45.5 94.4 45.2 C 94.6 45.3 95.3 44.9 95.0 45.3 C 95.1 45.5 95.5 45.1 95.4 45.0 C 95.6 44.9 95.7 45.0 95.7 45.1 C 96.3 44.8 96.3 44.6 96.2 44.4 C 96.2 44.1 96.4 44.5 96.8 44.4 C 96.8 44.4 96.8 44.4 96.8 44.4 Z M 75.8 46.6 C 76.2 46.4 75.5 46.7 75.1 46.6 C 75.5 46.7 75.4 47.0 75.9 47.0 C 75.7 46.9 75.7 46.8 76.0 46.8 C 76.1 46.7 75.4 46.7 75.8 46.6 C 75.8 46.6 75.8 46.6 75.8 46.6 Z M 61.7 46.0 C 61.6 45.8 60.8 45.9 60.4 45.8 C 60.5 46.2 61.5 45.8 61.6 46.2 C 61.8 46.2 61.4 46.0 61.7 46.0 C 61.7 46.0 61.7 46.0 61.7 46.0 Z M 91.2 45.1 C 91.0 45.2 91.1 45.2 91.2 45.2 C 91.2 45.3 90.9 45.4 90.6 45.4 C 91.0 45.5 90.6 45.6 90.7 45.9 C 90.6 45.9 90.5 45.9 90.5 46.0 C 90.4 45.6 89.6 46.4 90.5 46.3 C 90.3 46.1 90.4 46.1 90.7 46.0 C 91.2 46.1 91.5 45.8 91.7 46.0 C 91.9 46.0 92.0 45.8 92.4 45.8 C 92.5 45.9 92.8 46.0 92.6 46.4 C 93.3 46.2 92.7 45.7 93.2 45.6 C 93.8 45.6 93.0 45.9 93.2 46.1 C 93.3 46.1 93.3 46.2 93.4 46.2 C 93.5 46.2 93.5 45.9 93.3 46.0 C 93.4 45.9 93.8 45.6 93.7 45.9 C 94.0 45.7 93.1 45.2 92.8 45.6 C 92.5 45.7 92.5 45.2 92.7 45.2 C 92.6 45.0 92.2 45.6 92.2 45.1 C 92.0 45.2 91.9 45.2 91.7 45.2 C 91.7 45.3 91.8 45.3 91.8 45.4 C 91.7 45.4 91.5 45.4 91.3 45.5 C 91.4 45.3 91.4 45.2 91.2 45.1 C 91.2 45.1 91.2 45.1 91.2 45.1 Z M 63.6 46.3 C 63.2 46.3 63.1 46.4 62.8 46.4 C 62.9 46.6 63.7 46.6 63.6 46.3 C 63.6 46.3 63.6 46.3 63.6 46.3 Z M 99.4 44.5 C 99.3 44.4 99.1 44.5 99.1 44.4 C 99.5 44.2 98.9 44.2 99.2 43.7 C 98.7 44.0 98.6 44.6 99.4 44.6 C 100.0 44.4 98.8 44.6 99.4 44.5 C 99.4 44.5 99.4 44.5 99.4 44.5 Z M 97.6 44.7 C 97.3 44.9 98.2 44.8 98.4 44.9 C 98.4 44.9 98.4 45.0 98.5 45.1 C 98.9 44.6 98.2 44.7 98.5 44.1 C 97.9 44.1 97.7 44.1 97.2 44.3 C 97.3 44.4 97.4 44.3 97.3 44.3 C 97.7 44.2 97.5 44.6 97.1 44.6 C 97.3 44.7 97.6 44.6 97.9 44.6 C 97.8 44.5 97.7 44.5 97.7 44.4 C 98.0 44.3 97.9 44.5 98.1 44.4 C 98.2 44.5 97.6 44.9 97.6 44.7 C 97.6 44.7 97.6 44.7 97.6 44.7 Z M 124.2 34.0 C 124.0 34.2 124.7 34.1 124.8 34.5 C 125.1 34.3 125.2 34.2 125.3 34.1 C 125.1 34.0 124.8 34.2 124.6 34.1 C 124.5 33.8 125.1 33.9 125.1 33.7 C 125.1 33.3 124.5 34.2 124.2 34.0 C 124.2 34.0 124.2 34.0 124.2 34.0 Z M 84.4 46.5 C 84.3 46.5 84.4 46.6 84.4 46.6 C 84.4 46.7 84.2 46.7 84.2 46.6 C 83.9 46.7 84.3 46.7 84.0 46.8 C 84.0 47.0 84.5 46.7 84.5 46.7 C 84.8 46.6 84.6 46.9 84.7 47.0 C 84.9 47.0 84.8 46.8 85.2 46.8 C 85.0 46.7 84.7 46.6 84.4 46.5 C 84.4 46.5 84.4 46.5 84.4 46.5 Z M 100.2 43.7 C 100.3 43.6 100.0 44.2 99.6 44.1 C 99.1 44.2 100.0 44.3 99.5 44.3 C 99.9 44.3 100.3 44.0 100.9 43.8 C 101.0 43.6 100.1 44.0 100.6 43.7 C 100.5 43.7 100.4 43.7 100.4 43.8 C 100.3 43.8 100.3 43.8 100.2 43.7 C 100.2 43.7 100.2 43.7 100.2 43.7 Z M 99.8 44.4 C 99.9 44.5 100.0 44.4 100.0 44.4 C 100.2 44.4 100.2 44.6 100.0 44.6 C 100.3 44.8 100.2 44.3 100.7 44.4 C 100.5 44.2 100.3 44.1 100.8 44.2 C 101.1 43.8 99.9 44.2 99.8 44.4 C 99.8 44.4 99.8 44.4 99.8 44.4 Z M 120.2 36.3 C 120.3 36.4 120.6 36.2 120.8 36.1 C 120.6 36.4 119.5 36.8 119.3 36.7 C 119.2 36.8 119.1 36.9 119.0 36.9 C 119.1 36.9 118.8 37.2 119.0 37.1 C 119.0 37.2 118.8 37.3 118.8 37.4 C 118.4 37.6 118.9 37.2 118.7 37.1 C 118.3 37.6 118.3 37.3 117.8 37.6 C 117.9 37.7 118.5 37.4 118.6 37.7 C 118.9 37.2 119.5 37.2 119.9 37.3 C 119.3 37.1 120.7 36.2 121.5 35.9 C 121.5 36.1 121.8 35.9 122.1 35.9 C 122.4 36.0 122.1 35.5 121.8 35.8 C 121.7 35.7 122.3 35.5 122.5 35.4 C 122.2 35.4 122.3 35.2 122.1 35.2 C 121.6 35.5 122.1 35.3 122.1 35.5 C 122.0 35.6 121.8 35.6 121.7 35.7 C 122.2 35.0 120.7 36.2 121.3 35.8 C 120.8 36.1 120.6 35.9 120.2 36.3 C 120.2 36.3 120.2 36.3 120.2 36.3 Z M 107.5 41.5 C 107.5 41.6 107.1 41.9 107.0 41.7 C 106.5 42.1 107.1 42.1 106.4 42.3 C 106.5 42.4 106.7 42.3 106.8 42.4 C 107.0 42.2 107.2 42.1 107.0 41.9 C 107.3 41.8 107.4 41.7 107.6 41.6 C 107.5 41.7 107.5 41.8 107.2 41.9 C 107.2 42.1 107.4 42.2 107.7 42.0 C 107.8 41.8 107.7 41.7 107.5 41.5 C 107.5 41.5 107.5 41.5 107.5 41.5 Z M 106.3 42.3 C 106.2 42.2 106.1 42.2 106.0 42.1 C 105.8 41.9 106.1 42.4 105.9 42.5 C 105.7 42.5 105.7 42.4 105.6 42.3 C 105.4 42.4 105.2 42.5 105.1 42.5 C 104.7 42.7 105.6 42.6 105.7 42.6 C 106.0 42.5 105.9 42.4 106.3 42.3 C 106.3 42.3 106.3 42.3 106.3 42.3 Z M 102.0 43.3 C 101.8 43.1 101.8 43.5 101.6 43.5 C 101.8 43.7 102.2 43.5 102.0 43.8 C 102.4 43.8 102.4 43.8 102.8 43.6 C 103.1 43.7 102.8 43.4 102.4 43.6 C 102.4 43.5 102.6 43.5 102.6 43.3 C 103.0 43.7 103.5 42.8 103.2 43.3 C 103.0 43.2 102.9 43.2 102.8 43.1 C 102.8 43.3 101.8 43.5 102.0 43.3 C 102.0 43.3 102.0 43.3 102.0 43.3 Z M 87.6 46.6 C 88.1 46.5 88.1 46.5 88.7 46.4 C 88.8 46.5 88.7 46.6 88.6 46.6 C 88.8 46.7 88.9 46.6 89.2 46.5 C 89.2 46.4 89.0 46.5 89.0 46.6 C 88.5 46.5 88.9 46.4 89.0 46.2 C 88.4 46.1 88.0 46.5 87.7 46.3 C 87.5 46.4 87.7 46.4 87.6 46.6 C 87.6 46.6 87.6 46.6 87.6 46.6 Z M 148.4 16.1 C 148.4 16.0 148.5 15.8 148.4 15.7 C 148.3 15.9 148.2 16.1 148.1 16.2 C 148.4 16.0 148.6 16.3 149.0 15.9 C 148.8 15.9 148.7 15.7 148.4 16.1 C 148.4 16.1 148.4 16.1 148.4 16.1 Z M 103.4 43.0 C 103.5 43.1 103.5 43.2 103.3 43.3 C 103.3 43.5 103.8 43.2 103.8 43.4 C 104.0 43.3 103.9 43.2 104.1 43.1 C 104.0 43.1 103.6 43.2 103.7 42.9 C 103.8 42.9 103.8 42.9 103.9 43.0 C 104.1 42.8 103.7 42.8 103.4 43.0 C 103.4 43.0 103.4 43.0 103.4 43.0 Z M 125.6 33.5 C 125.5 33.6 125.7 33.6 125.8 33.5 C 125.6 34.0 126.2 33.7 126.4 33.9 C 126.1 33.9 125.7 34.3 125.6 34.2 C 125.4 34.4 125.7 34.5 125.3 34.7 C 125.5 34.9 125.8 34.5 125.6 34.4 C 125.9 34.6 126.2 34.0 126.3 34.3 C 126.9 34.0 126.9 33.8 126.8 33.5 C 126.3 33.9 126.4 33.4 126.0 33.7 C 125.9 33.7 126.1 33.6 126.2 33.5 C 126.0 33.4 125.8 33.5 125.6 33.5 C 125.6 33.5 125.6 33.5 125.6 33.5 Z M 112.0 40.0 C 111.7 40.2 111.8 40.3 111.9 40.5 C 112.0 40.4 112.1 40.3 112.4 40.2 C 112.3 40.1 111.9 40.3 112.0 40.0 C 112.0 40.0 112.0 40.0 112.0 40.0 Z M 123.7 34.9 C 123.7 34.8 123.6 34.9 123.6 35.0 C 123.3 35.1 123.2 35.1 123.0 35.0 C 122.8 35.1 123.0 35.3 123.0 35.4 C 123.2 35.0 123.3 35.4 123.7 35.1 C 123.6 35.0 123.7 35.0 123.7 34.9 C 123.7 34.9 123.7 34.9 123.7 34.9 Z M 114.9 39.0 C 114.7 39.1 114.8 39.1 114.9 39.1 C 114.8 39.4 114.2 39.4 114.0 39.6 C 114.1 39.8 114.8 39.5 114.0 39.9 C 114.2 40.0 114.9 39.6 115.2 39.5 C 115.2 39.7 114.7 39.9 114.9 40.2 C 115.2 39.8 115.7 39.5 115.6 39.2 C 115.0 39.4 115.1 39.1 114.9 39.0 C 114.9 39.0 114.9 39.0 114.9 39.0 Z M 115.6 38.9 C 115.5 38.8 115.5 39.0 115.2 39.0 C 115.7 39.2 115.8 39.0 116.5 38.7 C 116.5 38.7 116.5 38.6 116.5 38.6 C 116.6 38.5 116.7 38.5 116.9 38.4 C 116.2 38.4 116.1 38.7 115.5 39.0 C 115.5 39.0 115.5 38.9 115.6 38.9 C 115.6 38.9 115.6 38.9 115.6 38.9 Z M 96.9 45.1 C 97.1 45.1 97.3 45.2 97.7 45.2 C 97.6 45.0 97.4 44.9 96.9 45.1 C 96.9 45.1 96.9 45.1 96.9 45.1 Z M 124.3 34.7 C 124.6 34.4 124.0 34.9 124.3 35.0 C 124.6 35.0 125.0 34.9 125.2 35.0 C 125.5 34.5 124.4 35.1 124.3 34.7 C 124.3 34.7 124.3 34.7 124.3 34.7 Z M 122.3 36.5 C 122.1 36.5 121.9 36.2 122.2 36.3 C 122.6 36.2 121.8 36.3 122.4 36.1 C 122.1 36.1 121.5 36.3 121.3 36.5 C 121.4 36.7 121.9 36.4 122.0 36.6 C 122.0 36.6 122.0 36.6 121.9 36.7 C 122.0 36.8 122.0 36.6 122.3 36.5 C 122.3 36.5 122.3 36.5 122.3 36.5 Z M 120.1 37.1 C 120.4 37.1 120.7 37.1 121.2 36.9 C 120.8 36.9 120.5 36.8 120.1 37.1 C 120.1 37.1 120.1 37.1 120.1 37.1 Z M 143.3 22.0 C 143.0 22.3 143.4 22.2 143.5 22.3 C 143.8 22.0 143.6 21.9 144.0 21.7 C 143.7 21.6 143.6 22.1 143.3 22.0 C 143.3 22.0 143.3 22.0 143.3 22.0 Z M 144.4 21.3 C 144.5 21.4 144.8 20.9 145.0 21.0 C 144.9 20.5 145.7 20.7 145.5 20.5 C 145.6 20.4 145.7 20.4 145.8 20.2 C 145.2 20.2 144.7 20.9 144.4 21.3 C 144.4 21.3 144.4 21.3 144.4 21.3 Z M 118.1 38.6 C 117.7 38.8 118.3 38.9 118.0 39.1 C 118.0 39.2 118.7 38.9 118.3 39.2 C 118.9 39.1 118.1 38.7 118.1 38.6 C 118.1 38.6 118.1 38.6 118.1 38.6 Z M 111.5 41.7 C 111.5 41.5 111.0 41.8 110.8 41.9 C 110.8 41.9 111.0 41.9 111.1 41.8 C 111.1 41.9 111.0 42.0 110.9 42.1 C 111.1 42.2 111.3 41.8 111.5 41.7 C 111.5 41.7 111.5 41.7 111.5 41.7 Z M 117.0 34.6 C 117.3 34.7 117.6 34.7 117.6 34.3 C 118.0 34.4 117.6 34.7 117.9 34.6 C 118.3 34.4 118.2 34.7 118.7 34.3 C 118.7 34.6 119.2 34.4 119.3 34.5 C 119.1 34.7 118.7 34.5 118.7 34.8 C 118.9 34.7 118.9 35.0 118.7 34.9 C 118.2 34.9 119.0 34.4 118.5 34.5 C 118.5 34.8 117.6 34.6 117.1 34.8 C 117.2 34.6 116.6 34.7 117.0 34.6 C 117.0 34.6 117.0 34.6 117.0 34.6 Z M 119.5 33.9 C 119.8 33.7 120.2 34.1 120.1 34.1 C 120.0 34.0 119.7 34.2 119.7 34.3 C 119.8 34.3 119.9 34.2 119.9 34.3 C 119.3 34.6 119.4 34.3 119.2 34.2 C 119.4 34.0 119.6 34.0 119.6 33.9 C 119.6 33.9 119.5 33.9 119.5 33.9 C 119.5 33.9 119.5 33.9 119.5 33.9 Z M 128.1 33.7 C 128.0 33.6 128.0 33.8 127.9 33.9 C 127.7 33.6 127.3 34.4 127.1 34.3 C 127.2 34.1 127.5 33.9 127.6 33.7 C 127.4 33.8 127.4 33.7 127.2 33.9 C 127.2 33.7 127.5 33.5 127.5 33.3 C 127.6 33.4 127.7 33.1 127.8 33.2 C 127.4 33.6 128.4 33.5 128.1 33.7 C 128.1 33.7 128.1 33.7 128.1 33.7 Z M 115.1 40.3 C 115.2 40.6 116.0 40.8 115.6 41.3 C 115.4 41.2 115.2 41.0 115.1 40.7 C 114.9 41.0 114.6 40.9 114.5 41.2 C 113.6 40.8 115.0 41.0 115.1 40.3 C 115.1 40.3 115.1 40.3 115.1 40.3 Z M 113.0 41.4 C 113.0 41.2 112.7 41.3 112.7 41.1 C 113.1 41.2 113.8 40.6 113.6 40.9 C 113.3 41.1 113.4 41.3 113.0 41.4 C 113.0 41.4 113.0 41.4 113.0 41.4 Z M 53.3 45.1 C 53.8 45.0 53.9 45.5 53.6 45.6 C 53.8 45.3 53.1 45.4 53.3 45.1 C 53.3 45.1 53.3 45.1 53.3 45.1 Z M 70.0 43.1 C 69.6 42.9 69.4 43.0 69.3 42.8 C 69.7 42.8 69.7 42.9 70.0 42.9 C 70.1 42.8 70.3 42.7 70.3 42.8 C 70.1 42.9 70.1 43.0 70.0 43.1 C 70.0 43.1 70.0 43.1 70.0 43.1 Z M 102.8 39.0 C 102.7 38.9 102.6 38.9 102.6 38.7 C 103.0 38.7 103.4 38.4 103.7 38.1 C 103.7 38.2 103.8 38.4 103.8 38.4 C 103.1 38.6 103.0 38.8 102.8 39.0 C 102.8 39.0 102.8 39.0 102.8 39.0 Z M 101.9 38.8 C 101.8 38.9 102.1 39.2 101.8 39.2 C 101.8 39.1 101.2 39.0 101.4 38.8 C 101.6 39.0 101.7 38.9 101.9 38.8 C 101.9 38.8 101.9 38.8 101.9 38.8 Z M 124.0 30.7 C 124.3 30.5 123.8 30.6 123.7 30.5 C 124.0 30.4 124.3 30.2 124.4 30.3 C 124.2 30.4 124.3 30.8 124.0 30.7 C 124.0 30.7 124.0 30.7 124.0 30.7 Z M 119.7 33.7 C 119.1 34.0 119.1 33.5 118.5 33.8 C 118.7 33.5 119.3 33.2 119.3 33.0 C 119.4 33.1 119.5 33.1 119.6 33.2 C 119.4 33.3 119.3 33.2 119.1 33.4 C 119.3 33.5 119.2 33.5 119.2 33.7 C 119.4 33.6 119.5 33.5 119.6 33.5 C 119.6 33.6 119.9 33.6 119.7 33.7 C 119.7 33.7 119.7 33.7 119.7 33.7 Z M 124.2 31.3 C 124.4 31.1 124.8 31.3 124.6 31.4 C 124.5 31.3 124.4 31.5 124.3 31.5 C 124.6 31.2 124.0 31.5 124.0 31.2 C 124.2 31.1 124.3 31.0 124.1 30.9 C 124.3 30.8 124.5 30.7 124.6 30.8 C 124.5 30.8 124.3 30.9 124.4 31.0 C 124.4 30.9 124.5 30.9 124.5 31.0 C 124.3 31.1 124.2 31.2 124.2 31.3 C 124.2 31.3 124.2 31.3 124.2 31.3 Z M 122.5 32.3 C 122.8 32.1 123.0 32.3 123.2 32.4 C 122.7 32.5 122.5 32.3 122.0 32.4 C 122.5 32.2 122.7 31.7 122.9 31.8 C 122.7 32.0 122.4 32.1 122.5 32.3 C 122.5 32.3 122.5 32.3 122.5 32.3 Z M 19.1 30.4 C 19.3 30.7 19.5 31.0 19.8 31.3 C 20.0 31.1 19.6 30.3 19.8 30.6 C 20.2 30.8 19.8 31.0 20.0 31.1 C 19.9 30.7 21.4 31.5 21.3 31.8 C 21.1 31.7 20.9 31.7 20.9 31.9 C 20.3 31.6 20.0 31.6 19.5 31.4 C 19.4 30.9 18.5 30.3 17.8 30.3 C 17.8 29.7 16.9 29.8 16.7 29.2 C 16.5 29.2 16.9 29.6 16.5 29.4 C 16.4 29.1 16.6 29.1 16.4 28.8 C 16.3 28.9 16.3 29.1 16.1 29.0 C 16.2 28.9 16.0 28.7 16.0 28.6 C 16.6 29.1 16.1 28.3 16.7 28.6 C 16.8 28.8 16.2 28.8 16.8 29.2 C 17.1 29.2 17.3 29.3 17.4 29.1 C 17.6 29.2 17.7 29.2 17.8 29.2 C 17.4 29.3 18.7 29.7 18.0 29.7 C 18.0 29.6 17.7 29.4 17.4 29.3 C 17.5 29.7 17.8 29.7 18.3 29.9 C 18.3 30.1 18.1 30.1 18.2 30.2 C 18.6 30.3 18.3 29.9 18.6 29.9 C 18.5 29.8 18.3 29.7 18.4 29.7 C 18.8 30.2 19.1 30.1 19.4 30.3 C 19.1 30.3 19.6 30.6 19.1 30.4 C 19.1 30.4 19.1 30.4 19.1 30.4 Z M 14.6 27.9 C 14.4 27.8 14.3 27.7 14.2 27.6 C 14.3 27.4 14.8 27.7 14.6 27.3 C 15.1 27.7 14.4 27.6 14.6 27.9 C 14.6 27.9 14.6 27.9 14.6 27.9 Z M 16.5 30.2 C 16.5 30.5 16.8 30.0 16.9 30.1 C 16.6 29.9 16.3 29.8 16.4 29.6 C 16.7 29.9 16.9 30.0 17.3 30.1 C 16.7 30.2 17.5 30.6 17.5 30.9 C 17.2 30.8 16.9 30.7 16.5 30.5 C 16.6 30.4 16.1 30.0 16.5 30.2 C 16.5 30.2 16.5 30.2 16.5 30.2 Z M 15.4 29.8 C 15.4 29.7 14.8 29.4 15.0 29.3 C 15.3 29.5 15.5 29.5 15.5 29.3 C 15.8 29.4 15.8 29.6 16.0 29.7 C 16.0 30.0 15.6 29.7 15.4 29.8 C 15.5 29.8 15.5 29.9 15.4 29.8 C 15.4 29.8 15.4 29.8 15.4 29.8 Z M 151.3 14.2 C 151.0 14.1 151.5 13.7 151.6 13.7 C 151.3 13.7 151.3 13.5 151.5 13.2 C 151.7 13.5 151.9 13.0 152.4 13.0 C 152.3 12.8 151.9 13.1 152.2 12.6 C 152.5 12.4 152.7 12.1 153.0 11.6 C 153.3 11.7 153.2 11.9 153.2 12.1 C 153.4 11.7 153.5 12.0 153.7 11.7 C 153.5 11.7 153.6 11.5 153.8 11.5 C 153.5 11.9 154.5 11.1 154.2 11.6 C 154.1 11.6 154.0 11.7 154.0 11.8 C 153.8 11.5 153.5 12.1 153.2 12.1 C 153.4 12.7 152.8 13.2 152.0 13.7 C 151.9 13.6 152.0 13.4 151.9 13.5 C 151.9 13.6 151.7 13.8 151.7 14.0 C 151.6 13.9 151.5 13.9 151.3 14.0 C 151.3 14.1 151.4 14.1 151.3 14.2 C 151.3 14.2 151.3 14.2 151.3 14.2 Z M 39.5 42.6 C 39.4 43.0 40.4 43.1 40.6 43.1 C 40.5 43.5 38.9 42.9 39.5 42.6 C 39.5 42.6 39.5 42.6 39.5 42.6 Z M 34.1 41.0 C 34.3 41.1 34.2 40.8 34.4 40.9 C 34.4 41.1 35.0 40.9 35.0 41.1 C 34.6 41.2 34.5 41.1 34.1 41.0 C 34.1 41.0 34.1 41.0 34.1 41.0 Z M 29.2 38.9 C 29.6 39.1 29.1 38.7 29.2 38.6 C 29.5 38.8 29.9 39.0 29.8 39.2 C 29.5 38.9 29.2 39.1 29.2 38.9 C 29.2 38.9 29.2 38.9 29.2 38.9 Z M 36.5 42.2 C 36.8 42.4 36.1 42.5 36.1 42.3 C 36.5 42.4 35.9 42.0 35.6 41.9 C 35.7 41.7 35.8 41.8 35.8 41.5 C 36.3 41.6 35.8 41.8 36.1 41.9 C 36.4 41.8 36.1 41.8 36.2 41.6 C 36.3 41.6 36.5 41.7 36.6 41.7 C 36.6 41.8 36.5 42.0 36.5 42.1 C 36.3 42.0 36.1 42.0 36.2 42.2 C 36.3 42.2 36.3 42.2 36.5 42.2 C 36.5 42.2 36.5 42.2 36.5 42.2 Z M 156.7 8.6 C 156.8 8.4 156.6 8.5 156.4 8.6 C 156.5 8.7 156.8 9.1 156.4 9.2 C 156.6 8.6 156.0 9.1 156.1 8.8 C 156.4 8.8 156.4 8.4 156.6 8.2 C 156.8 8.2 156.9 8.6 156.7 8.6 C 156.7 8.6 156.7 8.6 156.7 8.6 Z M 155.9 9.3 C 155.9 9.3 156.0 9.3 156.1 9.1 C 156.2 9.4 156.4 9.2 156.3 9.5 C 156.2 9.4 155.7 10.0 155.9 9.5 C 156.3 9.3 155.7 9.5 155.6 9.7 C 155.7 9.5 155.7 9.1 155.9 9.2 C 155.8 9.2 155.8 9.3 155.9 9.3 C 155.9 9.3 155.9 9.3 155.9 9.3 Z M 149.7 16.8 C 149.8 16.9 150.0 16.7 150.1 16.7 C 149.5 17.2 149.1 17.7 148.8 17.9 C 149.0 17.7 148.9 17.5 148.6 17.6 C 149.0 17.4 148.9 17.3 149.1 17.3 C 149.0 17.6 149.4 17.1 149.7 16.8 C 149.7 16.8 149.7 16.8 149.7 16.8 Z M 149.7 16.8 " fill="#EDC25F"></path><path d="M 9.6 46.0 C 9.8 45.9 9.9 45.8 10.0 46.0 C 10.1 45.9 10.0 45.8 10.0 45.7 C 10.1 45.7 10.1 45.8 10.1 45.9 C 10.2 45.8 10.3 45.8 10.4 45.7 C 10.3 45.6 10.0 45.7 9.9 45.6 C 9.9 45.6 9.7 45.9 9.7 45.7 C 9.4 45.7 9.6 45.8 9.6 46.0 Z M 11.8 47.7 C 11.6 48.0 11.9 48.3 11.7 48.2 C 11.5 48.3 11.1 48.0 11.3 48.0 C 11.6 48.0 11.7 47.5 11.8 47.7 Z M 9.3 44.9 C 9.4 44.9 9.5 44.8 9.5 44.8 C 9.6 44.9 9.4 45.2 9.3 45.0 C 9.3 45.0 9.3 44.9 9.3 44.9 Z M 12.0 39.6 C 12.0 39.5 11.9 39.4 11.8 39.4 C 11.7 39.6 11.6 39.7 11.8 39.9 C 11.7 39.7 11.7 39.6 12.0 39.6 Z M 10.5 32.1 C 10.5 32.0 10.4 32.0 10.4 31.9 C 10.4 31.9 10.4 31.9 10.4 31.9 C 10.3 31.7 9.8 31.7 9.7 32.0 C 9.8 32.0 9.8 31.9 9.8 31.9 C 9.9 32.0 9.8 32.1 9.9 32.1 C 9.9 32.0 9.9 31.9 10.0 31.9 C 10.0 31.9 10.1 31.9 10.3 31.9 C 10.2 32.2 9.8 32.1 9.8 32.5 C 10.2 32.6 10.3 32.0 10.5 32.1 Z M 11.7 36.3 C 11.7 36.3 11.7 36.3 11.7 36.3 C 11.8 36.3 11.8 36.3 11.8 36.3 C 11.8 36.3 11.8 36.3 11.7 36.3 Z M 10.5 41.3 C 10.4 41.4 10.4 41.4 10.4 41.5 C 10.5 41.5 10.6 41.5 10.6 41.5 C 10.6 41.4 10.7 41.3 10.5 41.3 Z M 11.7 45.4 C 11.6 44.9 11.8 45.0 11.8 44.7 C 11.7 44.7 11.7 44.8 11.6 44.8 C 11.7 44.5 11.7 44.6 11.6 44.4 C 11.9 44.5 11.8 44.3 11.7 44.0 C 11.9 43.8 11.9 43.5 11.8 43.4 C 11.7 43.6 11.7 43.4 11.5 43.5 C 11.6 43.5 11.4 43.2 11.7 43.2 C 11.9 43.4 11.7 43.0 11.4 43.2 C 11.6 43.0 11.4 43.0 11.4 42.7 C 11.6 42.8 12.0 42.8 11.9 42.5 C 11.7 42.7 11.7 42.4 11.3 42.5 C 11.3 42.3 11.8 42.4 11.7 42.2 C 11.5 42.3 11.6 42.2 11.6 42.0 C 11.5 42.0 11.4 42.0 11.5 41.8 C 11.5 41.8 11.5 41.8 11.6 41.8 C 11.7 41.7 11.8 41.6 12.0 41.6 C 11.9 41.5 11.9 41.4 12.0 41.4 C 11.9 41.2 11.8 41.6 11.7 41.6 C 11.7 41.4 11.9 41.2 12.1 41.1 C 11.6 40.9 12.1 40.8 12.1 40.5 C 12.0 40.6 11.9 40.6 11.9 40.7 C 11.7 40.8 11.8 40.6 11.5 40.6 C 11.6 40.4 11.5 40.1 11.8 40.0 C 11.6 40.0 11.4 40.1 11.2 40.2 C 11.2 40.1 11.2 40.1 11.2 40.0 C 11.2 40.0 11.2 39.9 11.3 39.9 C 11.3 40.0 11.5 40.0 11.5 39.9 C 11.4 39.8 11.3 39.8 11.2 39.6 C 11.5 39.8 11.6 39.5 11.7 39.3 C 11.7 39.3 11.6 39.3 11.6 39.3 C 11.6 39.3 11.6 39.4 11.5 39.4 C 11.5 39.4 11.5 39.3 11.5 39.3 C 11.4 39.3 11.4 39.2 11.5 39.2 C 11.5 39.2 11.5 39.2 11.5 39.2 C 11.5 39.2 11.4 39.1 11.4 39.1 C 11.5 39.0 11.6 39.1 11.7 39.0 C 11.7 39.0 11.7 39.0 11.7 39.0 C 11.7 39.0 11.7 38.9 11.7 38.9 C 11.7 38.9 11.7 38.9 11.6 38.9 C 11.6 38.9 11.7 38.9 11.7 38.8 C 11.7 38.8 11.7 38.8 11.7 38.8 C 11.7 38.8 11.7 38.8 11.7 38.8 C 11.7 38.8 11.7 38.8 11.7 38.8 C 11.7 38.8 11.7 38.8 11.7 38.8 C 11.6 38.7 11.4 38.7 11.3 38.6 C 11.3 38.5 11.5 38.5 11.6 38.5 C 11.5 38.2 11.2 38.2 11.1 38.0 C 11.1 37.8 11.3 38.1 11.4 38.1 C 11.2 37.9 11.6 37.9 11.7 37.5 C 11.7 37.6 11.6 37.6 11.5 37.6 C 11.5 37.5 11.5 37.5 11.5 37.5 C 11.5 37.5 11.5 37.5 11.5 37.5 C 11.5 37.5 11.5 37.4 11.5 37.4 C 11.5 37.4 11.5 37.4 11.5 37.4 C 11.5 37.4 11.5 37.4 11.5 37.3 C 11.5 37.3 11.6 37.3 11.6 37.3 C 11.6 37.2 11.6 37.2 11.5 37.0 C 11.6 36.9 11.8 36.9 11.8 36.6 C 11.5 36.6 11.7 37.0 11.3 36.9 C 11.3 37.0 11.4 37.0 11.4 37.1 C 11.3 37.1 11.3 37.0 11.1 37.0 C 11.1 36.7 11.6 36.8 11.5 36.6 C 11.4 36.6 11.3 36.6 11.2 36.6 C 11.2 36.5 11.3 36.5 11.3 36.4 C 11.4 36.6 11.4 36.5 11.5 36.4 C 11.5 36.4 11.5 36.4 11.4 36.4 C 11.3 36.1 11.7 36.3 11.7 36.1 C 11.6 36.1 11.5 36.2 11.4 36.1 C 11.6 36.0 11.5 35.9 11.4 35.9 C 11.5 35.9 11.5 35.9 11.6 35.9 C 11.5 35.8 11.5 35.8 11.5 35.8 C 11.5 35.7 11.6 35.7 11.7 35.7 C 11.7 35.5 11.7 35.4 11.7 35.3 C 11.5 35.3 11.5 35.5 11.3 35.4 C 11.3 35.3 11.4 35.1 11.7 35.1 C 11.4 34.9 11.6 34.8 11.8 34.8 C 11.9 34.8 11.8 34.3 11.5 34.4 C 11.6 34.0 11.4 34.0 11.5 33.4 C 11.7 33.3 11.4 33.7 11.7 33.7 C 11.8 33.8 11.4 33.3 11.6 33.1 C 11.5 33.0 11.2 32.8 11.3 32.4 C 11.4 32.5 11.4 32.6 11.3 32.6 C 11.7 32.7 11.3 32.1 11.4 31.9 C 11.1 31.6 10.9 32.1 10.9 31.8 C 10.7 31.8 10.8 32.1 10.7 32.1 C 10.7 32.3 10.8 31.9 11.0 32.1 C 10.9 32.2 10.8 32.2 10.8 32.3 C 10.9 32.3 11.0 32.3 10.9 32.4 C 10.8 32.3 10.8 32.5 10.7 32.5 C 10.7 32.5 10.7 32.5 10.7 32.5 C 10.7 32.5 10.7 32.6 10.8 32.7 C 10.6 32.7 10.5 32.5 10.5 32.4 C 10.4 32.4 10.3 32.5 10.3 32.4 C 10.3 32.4 10.4 32.4 10.4 32.3 C 10.4 32.3 10.4 32.3 10.4 32.3 C 10.2 32.4 10.2 32.5 10.1 32.6 C 10.2 32.6 10.3 32.7 10.3 32.7 C 10.0 32.8 10.2 32.5 10.0 32.6 C 10.2 32.7 9.8 33.0 10.1 33.0 C 10.0 32.9 10.5 32.8 10.2 32.9 C 10.1 33.0 10.1 33.2 9.9 33.2 C 9.9 33.0 9.8 33.0 9.9 32.8 C 9.5 32.9 9.9 32.6 9.5 32.7 C 9.6 32.4 9.2 32.4 9.4 32.4 C 9.5 32.3 9.6 32.6 9.6 32.4 C 9.6 32.3 9.4 32.4 9.4 32.2 C 9.4 32.0 9.7 31.8 9.5 31.5 L 10.4 31.5 C 10.4 31.2 10.5 31.1 10.9 31.1 C 10.9 30.9 10.8 31.0 10.7 30.9 C 10.9 30.6 10.9 31.0 11.1 30.9 C 10.9 30.5 11.1 30.2 10.9 29.9 C 11.0 29.8 11.3 29.6 11.1 29.4 C 10.9 29.5 11.2 29.6 10.9 29.7 C 10.8 29.6 10.7 29.3 10.4 29.4 C 10.3 29.0 10.8 29.2 11.0 29.1 C 11.0 29.0 11.0 28.9 11.0 28.9 C 10.9 28.8 10.9 28.9 10.9 29.0 C 10.7 29.0 10.6 28.9 10.5 28.9 C 10.9 28.8 10.5 28.5 11.0 28.5 C 10.0 26.2 8.7 28.5 8.4 28.6 L 7.6 27.1 C 7.2 27.5 7.6 29.8 7.6 30.1 C 7.6 30.2 7.4 30.3 7.4 30.2 C 7.4 30.3 7.6 30.5 7.7 30.6 C 7.5 30.7 7.5 30.5 7.4 30.8 C 7.5 30.9 7.6 30.7 7.7 30.7 C 7.7 30.9 7.3 30.8 7.5 31.1 C 7.7 31.1 7.6 30.9 7.7 30.9 C 7.9 30.8 7.5 31.2 7.8 31.2 C 7.8 31.2 7.6 31.3 7.5 31.2 C 7.3 31.2 7.8 31.5 7.4 31.5 C 7.4 31.6 7.5 31.6 7.4 31.6 C 7.4 31.7 7.6 31.7 7.7 31.7 C 7.6 31.8 7.3 31.9 7.7 31.8 C 7.5 32.1 7.5 32.8 7.7 32.8 C 7.8 33.2 7.4 33.1 7.5 33.2 C 7.8 33.3 7.5 33.5 7.5 33.8 C 7.9 33.8 7.6 34.0 7.6 34.1 C 7.7 34.1 7.8 34.0 7.9 34.0 C 7.5 34.2 7.8 34.7 7.9 34.8 C 8.0 35.1 7.8 35.1 8.0 35.2 C 7.8 35.2 7.8 35.1 7.8 34.9 C 7.6 35.1 7.7 35.3 7.4 35.3 C 7.4 35.5 8.0 35.1 8.1 35.3 C 8.1 35.5 7.7 35.3 7.7 35.6 C 8.1 35.4 7.6 35.8 7.7 36.0 C 8.1 36.1 7.6 36.7 8.0 36.7 C 7.9 37.1 7.7 36.9 7.8 37.1 C 8.1 37.4 7.9 37.9 8.0 38.5 C 7.9 38.4 7.7 38.2 7.8 38.4 C 8.0 38.8 7.8 38.7 7.8 38.9 C 7.9 39.0 7.9 39.1 8.1 39.1 C 7.9 39.5 8.4 40.5 8.1 41.0 C 8.1 41.1 8.3 41.1 8.3 41.1 C 8.1 41.3 8.4 41.6 8.1 41.6 C 8.4 41.7 8.1 41.8 8.4 41.8 C 8.4 41.9 8.3 41.9 8.3 42.0 C 8.1 42.0 8.0 41.5 8.0 41.8 C 8.6 42.5 7.9 42.9 8.3 43.4 C 8.3 43.5 8.1 43.6 8.1 43.7 C 8.0 43.6 7.9 43.7 7.8 43.6 C 7.5 43.7 8.4 43.8 8.0 43.9 C 8.1 44.1 8.3 43.8 8.2 43.6 C 8.4 43.6 8.4 43.7 8.5 43.6 C 8.4 43.8 8.2 44.0 8.3 44.3 C 8.2 44.3 8.2 44.3 8.1 44.2 C 7.9 44.4 8.4 44.3 8.3 44.5 C 8.4 44.4 8.5 44.4 8.6 44.3 C 8.6 44.3 8.6 44.4 8.6 44.5 C 8.4 44.5 8.7 44.5 8.6 44.7 C 8.7 44.9 9.3 44.8 9.2 44.6 C 9.1 44.4 8.9 44.8 8.8 44.6 C 8.8 44.3 9.7 43.8 9.0 43.8 C 8.9 43.8 9.2 43.8 9.2 44.0 C 9.0 44.0 9.0 43.8 8.9 43.9 C 8.9 43.8 9.0 43.6 8.9 43.5 C 9.3 43.4 9.2 43.7 9.3 43.6 C 9.5 43.4 9.1 43.2 9.3 43.0 C 9.3 42.8 9.1 43.2 9.0 43.3 C 8.8 42.9 9.0 42.7 9.3 42.3 C 9.3 42.1 9.2 42.3 9.1 42.3 C 9.1 42.2 9.1 42.1 9.2 42.1 C 9.2 42.0 9.0 41.9 9.0 41.8 C 9.1 41.6 9.2 41.5 9.4 41.4 C 9.3 41.2 9.2 41.5 9.0 41.4 C 9.3 41.1 8.9 41.1 9.2 40.9 C 9.4 40.9 9.3 41.1 9.4 41.2 C 9.5 41.2 9.6 41.1 9.7 41.1 C 9.3 40.8 9.3 40.9 9.3 40.5 C 9.2 40.5 9.2 40.6 9.2 40.7 C 8.9 40.7 9.3 40.4 8.9 40.5 C 9.0 40.4 9.2 40.3 8.9 40.2 C 9.2 40.0 9.1 40.0 9.2 39.6 C 9.4 39.6 9.5 39.6 9.5 39.9 C 9.6 39.6 9.7 39.7 9.8 39.8 C 9.8 39.9 9.7 39.9 9.6 39.9 C 9.6 40.0 9.9 40.1 9.9 40.3 C 9.8 40.4 9.7 40.2 9.6 40.4 C 9.7 40.5 9.9 40.5 9.6 40.6 C 9.7 40.7 9.9 40.7 10.0 40.9 C 10.0 40.9 9.9 40.9 9.9 41.0 C 9.7 41.1 9.8 40.7 9.6 40.8 C 9.6 41.1 9.9 41.1 9.8 41.3 C 9.9 41.4 10.1 41.4 10.2 41.5 C 10.2 41.4 10.2 41.3 10.1 41.2 C 10.5 41.1 10.1 40.9 10.3 40.8 C 9.9 40.8 9.9 40.3 10.1 40.3 C 9.9 40.3 9.7 39.9 9.9 39.9 C 9.9 39.9 10.2 40.0 10.3 39.7 C 10.0 39.8 10.1 39.7 9.9 39.7 C 10.1 39.4 9.5 39.2 9.7 39.1 C 9.8 39.2 10.0 39.3 10.1 39.5 C 10.4 39.5 10.5 39.3 10.7 39.3 C 10.3 39.4 10.8 39.1 10.5 39.1 C 10.4 39.2 10.4 39.3 10.3 39.4 C 10.3 39.1 9.8 39.3 9.8 39.0 C 10.2 39.0 10.4 38.9 10.5 38.8 C 10.3 38.7 10.4 38.9 10.1 38.9 C 10.2 38.6 10.5 38.5 10.4 38.7 C 10.5 38.6 10.6 38.6 10.5 38.5 C 10.2 38.6 10.5 38.2 10.3 38.3 C 10.0 38.2 10.1 38.4 10.0 38.5 C 10.1 38.5 10.2 38.5 10.2 38.6 C 9.9 38.6 10.2 39.0 9.9 38.9 C 10.0 38.6 9.6 38.6 9.8 38.5 C 9.8 38.6 9.9 38.5 9.9 38.4 C 9.9 38.3 9.8 38.1 9.7 38.1 C 9.7 38.2 9.7 38.4 9.5 38.3 C 9.5 37.9 10.0 37.9 9.9 38.1 C 10.0 38.1 10.0 38.1 10.1 38.1 C 10.2 37.7 10.0 37.7 9.8 37.7 C 10.1 37.5 10.1 37.4 10.3 37.0 C 10.2 37.0 10.3 37.2 10.0 37.2 C 9.9 36.9 10.3 36.9 10.2 36.6 C 10.1 36.7 10.0 36.8 9.9 36.8 C 10.0 36.4 9.7 36.7 9.6 36.4 C 10.1 36.6 9.6 36.1 10.1 36.3 C 9.9 35.9 10.0 35.5 10.4 35.4 C 10.3 35.5 10.2 35.6 10.3 35.6 C 10.3 35.5 10.6 35.3 10.7 35.5 C 10.5 35.6 10.3 36.1 10.6 35.7 C 10.6 36.1 10.1 36.2 9.9 36.5 C 10.0 36.5 10.0 36.6 10.1 36.6 C 10.1 36.3 10.4 36.0 10.6 36.2 C 10.5 36.4 10.6 36.6 10.7 36.8 C 10.4 37.0 10.6 36.9 10.7 37.1 C 10.6 37.2 10.3 37.2 10.3 37.4 C 10.4 37.4 10.5 37.4 10.6 37.3 C 10.6 37.6 10.7 37.6 10.7 37.8 C 10.5 37.8 10.5 37.6 10.3 37.6 C 10.2 38.1 10.5 37.5 10.8 38.1 C 10.6 38.2 10.4 38.1 10.4 38.3 C 10.8 38.7 10.5 39.4 10.9 39.9 C 10.7 40.0 10.5 39.8 10.5 39.9 C 10.7 40.1 10.7 40.3 10.8 40.6 C 10.3 40.6 10.7 41.1 10.9 41.2 C 10.7 41.2 10.6 41.1 10.6 41.2 C 10.7 41.3 10.8 41.5 10.9 41.6 C 10.8 41.6 10.8 41.6 10.7 41.6 C 10.6 41.7 10.6 41.6 10.6 41.5 C 10.6 41.5 10.6 41.5 10.6 41.5 C 10.5 41.6 10.5 41.6 10.4 41.6 C 10.4 41.6 10.3 41.7 10.2 41.7 C 10.2 41.6 10.2 41.6 10.2 41.6 C 10.0 41.5 9.8 41.5 9.6 41.6 C 9.9 41.7 9.7 41.9 9.8 42.1 C 9.7 42.1 9.6 42.0 9.6 41.9 C 9.5 41.9 9.2 41.8 9.3 42.0 C 9.4 42.0 9.5 42.0 9.5 41.9 C 9.6 42.0 9.5 42.1 9.7 42.1 C 9.6 42.2 9.6 42.2 9.4 42.2 C 9.4 42.6 10.1 41.8 9.9 42.7 C 10.0 42.7 9.9 42.5 10.1 42.6 C 10.0 42.9 9.8 43.1 9.9 43.5 C 10.3 43.7 10.4 43.7 10.6 43.4 C 10.6 43.4 10.3 43.4 10.2 43.2 C 10.5 43.1 10.6 42.9 10.6 42.7 C 10.5 42.7 10.3 42.7 10.3 42.6 C 10.7 42.4 10.4 42.0 10.7 41.8 C 10.7 41.9 10.8 42.0 10.9 42.1 C 10.8 42.2 10.8 42.1 10.7 42.2 C 10.9 42.3 10.8 42.4 10.8 42.4 C 10.8 42.5 10.9 42.5 10.9 42.5 C 10.9 42.5 10.9 42.5 10.8 42.6 C 10.9 42.6 10.8 42.6 10.9 42.6 C 10.8 42.6 10.8 42.6 10.8 42.7 C 10.8 42.7 10.8 42.7 10.7 42.7 C 10.7 43.0 11.2 43.1 11.0 43.4 C 10.8 43.5 11.1 43.5 11.1 43.4 C 11.3 43.3 10.9 43.7 11.2 43.6 C 11.2 43.8 11.0 43.6 10.8 43.7 C 10.9 43.9 11.0 43.6 11.1 43.8 C 11.1 43.9 10.9 44.0 10.8 44.0 C 10.9 44.2 11.0 43.9 11.1 44.2 C 10.9 44.2 10.9 44.4 11.0 44.7 C 11.1 44.6 11.2 44.5 11.5 44.5 C 11.6 44.8 11.1 44.6 11.2 44.9 C 11.3 44.9 11.3 44.7 11.4 44.7 C 11.6 44.7 11.3 44.9 11.4 45.0 C 11.2 45.0 11.3 45.0 11.0 45.1 C 11.0 45.0 11.0 45.0 11.1 45.0 C 10.8 44.8 11.0 45.4 11.3 45.1 C 11.2 45.2 11.2 45.2 11.1 45.3 C 11.1 45.4 11.2 45.2 11.3 45.2 C 11.3 45.4 11.2 45.5 11.2 45.7 C 11.4 45.6 11.3 45.3 11.7 45.4 Z M 9.3 37.0 C 9.4 36.9 9.6 36.9 9.8 36.9 C 9.9 37.2 9.7 37.3 9.6 37.4 C 9.6 37.2 9.3 37.3 9.3 37.0 Z M 9.3 34.4 C 9.4 34.3 9.6 33.9 9.8 34.1 C 9.6 34.4 9.6 34.4 9.3 34.4 Z M 10.4 33.7 C 10.4 33.9 10.8 33.7 10.7 33.9 C 10.4 33.8 10.4 34.1 10.3 34.3 C 10.1 34.4 10.0 34.4 10.0 34.2 C 10.1 34.2 10.3 34.2 10.3 34.1 C 10.1 34.1 10.0 33.9 9.9 34.0 C 10.1 33.6 10.0 33.9 9.7 33.7 C 10.1 33.4 10.5 33.2 10.8 33.5 C 10.5 33.5 10.8 33.6 10.9 33.7 C 10.6 33.7 10.5 33.6 10.4 33.7 Z M 9.9 34.8 C 9.9 35.1 10.0 35.1 9.9 35.2 C 9.8 35.1 9.8 35.0 9.7 35.0 C 9.7 35.1 9.5 35.3 9.5 35.0 C 9.9 34.9 10.0 34.8 9.8 34.5 C 10.1 34.6 10.2 34.3 10.7 34.4 C 10.7 34.7 10.3 35.0 9.9 34.8 Z M 9.9 44.1 C 10.0 44.0 10.0 43.9 9.8 43.8 C 10.0 43.8 9.9 43.6 10.0 43.6 C 10.0 43.7 10.1 43.6 10.0 43.5 C 10.5 43.5 10.0 43.8 10.2 43.9 C 10.3 43.8 10.4 43.8 10.5 43.7 C 10.4 43.8 10.6 43.9 10.5 43.9 C 10.3 43.7 10.6 44.1 10.4 44.1 C 10.3 44.0 10.3 44.0 10.3 44.0 C 10.3 44.2 10.1 44.2 10.0 44.3 C 10.0 44.2 10.0 44.1 9.9 44.0 C 9.9 44.1 9.9 44.1 9.9 44.1 Z M 11.3 46.1 C 11.4 45.9 11.5 45.8 11.6 45.6 C 11.4 45.6 11.0 45.9 11.1 45.8 C 11.1 45.6 11.4 45.7 11.4 45.6 C 11.1 45.7 11.1 45.0 11.4 45.0 C 11.4 45.1 11.4 45.1 11.6 45.1 C 11.6 45.4 11.8 45.5 11.8 45.7 C 11.6 45.9 11.5 46.3 11.8 46.5 C 11.4 46.7 11.9 47.0 11.6 47.3 C 11.7 47.3 11.8 47.0 11.9 47.2 C 11.7 47.4 11.6 47.3 11.5 47.4 C 11.6 47.4 11.7 47.4 11.8 47.5 C 11.6 47.5 11.6 47.6 11.6 47.6 C 11.6 47.3 11.3 47.7 11.2 47.4 C 11.3 47.3 11.6 47.5 11.5 47.2 C 11.5 47.1 11.4 47.0 11.2 47.0 C 11.2 46.9 11.1 46.9 11.1 46.9 C 11.4 46.9 11.0 46.4 11.3 46.7 C 11.3 46.7 11.3 46.8 11.4 47.0 C 11.6 46.8 11.4 46.7 11.3 46.5 C 11.5 46.4 11.6 46.5 11.6 46.4 C 11.4 46.3 11.3 46.5 11.2 46.4 C 11.2 46.5 11.2 46.5 11.1 46.5 C 11.3 46.3 11.1 46.2 11.1 46.0 C 11.2 46.1 11.3 45.9 11.3 46.1 Z M 9.8 46.6 C 9.6 46.7 9.6 46.7 9.5 46.6 C 9.6 46.6 9.6 46.5 9.6 46.4 C 9.6 46.4 9.5 46.4 9.5 46.4 C 9.7 46.3 9.7 46.5 9.8 46.6 Z M 11.8 48.3 C 11.8 48.4 11.8 48.4 11.8 48.5 C 11.6 48.5 11.5 48.3 11.4 48.5 C 11.4 48.2 11.6 48.5 11.8 48.3 Z M 10.2 44.3 C 10.4 44.2 10.0 44.3 9.9 44.2 C 10.0 44.3 10.1 44.5 9.8 44.5 C 9.9 44.3 9.9 44.2 9.8 44.1 C 10.1 44.2 10.0 43.9 10.3 43.8 C 10.3 43.9 10.4 44.0 10.4 44.2 C 10.3 44.2 10.3 44.5 10.2 44.3 Z M 10.3 44.8 C 10.1 44.9 10.3 45.1 10.0 45.1 C 10.0 44.9 10.0 44.9 9.8 44.9 C 9.8 44.8 9.9 44.8 9.8 44.7 C 10.1 44.6 10.1 44.8 10.2 44.8 C 10.2 44.8 10.3 44.7 10.3 44.8 Z M 24.9 23.5 C 24.9 23.8 25.1 23.5 25.2 23.4 C 25.2 23.6 25.6 23.4 25.6 23.6 C 25.5 23.6 25.4 23.7 25.3 23.7 C 25.3 23.7 25.3 23.6 25.2 23.6 C 25.2 23.7 25.3 23.8 25.2 23.8 C 25.1 23.6 25.0 23.8 24.8 23.8 C 24.9 23.7 24.7 23.6 24.9 23.5 Z M 24.8 23.2 C 24.7 23.2 24.8 23.5 24.5 23.4 C 24.6 23.3 24.5 23.2 24.3 23.3 C 24.3 23.2 24.4 23.1 24.4 23.0 C 24.6 22.9 24.6 23.1 24.7 23.2 C 24.7 23.1 24.8 23.1 24.8 23.2 Z M 6.9 31.6 C 6.9 31.6 7.1 31.7 7.0 31.7 C 7.1 31.8 7.2 31.7 7.3 31.6 C 7.2 31.5 7.3 31.5 7.2 31.4 C 7.1 31.6 7.0 31.5 6.9 31.6 Z M 27.7 23.6 C 27.7 23.6 27.8 23.6 27.8 23.5 C 27.8 23.4 27.7 23.4 27.6 23.4 C 27.6 23.4 27.6 23.5 27.6 23.5 L 27.7 23.6 Z M 22.3 22.8 C 22.3 22.8 22.3 22.7 22.2 22.7 C 22.2 22.7 22.1 22.7 22.1 22.8 C 22.1 22.8 22.2 22.8 22.2 22.8 C 22.2 22.8 22.2 22.8 22.1 22.8 C 22.1 22.9 22.3 22.9 22.3 22.8 Z M 11.0 26.0 C 11.1 26.1 11.2 26.0 11.2 25.9 C 11.0 25.8 11.1 25.7 11.1 25.6 C 11.0 25.5 11.0 25.6 10.9 25.5 C 11.0 25.6 11.0 25.8 11.0 26.0 Z M 30.2 26.7 C 30.7 25.5 30.7 24.1 30.0 23.0 C 29.9 23.2 30.2 23.3 30.1 23.5 C 29.1 23.2 26.4 22.3 27.7 24.2 C 27.6 23.9 27.3 23.9 27.1 23.9 C 27.0 23.8 27.1 23.7 27.1 23.6 C 27.0 23.6 26.9 23.5 26.9 23.6 C 26.7 23.7 26.6 23.8 26.5 23.9 C 26.5 23.7 26.5 23.6 26.5 23.4 C 26.2 23.3 26.2 23.8 26.1 24.0 C 25.9 24.1 25.7 24.2 25.6 24.3 C 25.3 24.1 25.2 24.5 25.1 24.3 C 25.0 24.4 25.0 24.6 24.8 24.7 C 24.7 24.6 25.0 24.4 24.8 24.3 C 24.6 24.5 24.1 24.6 24.2 25.0 C 24.4 25.0 24.5 24.8 24.6 24.6 C 24.7 24.8 24.5 24.9 24.4 25.1 C 23.8 25.0 23.2 25.0 22.7 24.9 C 22.9 24.6 23.2 24.7 23.6 24.6 C 23.7 24.6 23.6 24.7 23.7 24.7 C 23.9 24.5 23.9 24.3 23.9 24.1 C 24.0 24.1 24.0 24.0 24.2 24.0 C 24.0 24.0 24.0 23.9 23.8 23.8 C 24.0 23.7 24.0 23.8 24.1 23.9 C 24.1 23.8 24.1 23.8 24.0 23.7 C 24.2 23.8 24.1 23.6 24.2 23.7 C 24.3 23.5 24.1 23.5 24.2 23.3 C 24.0 23.3 24.3 23.2 24.1 23.1 C 24.0 23.1 24.1 23.2 24.1 23.2 C 23.9 23.3 24.0 23.1 23.9 23.0 C 23.9 23.1 23.9 23.0 23.8 23.0 C 23.7 23.1 23.8 23.1 23.8 23.2 C 23.7 23.2 23.8 23.1 23.8 23.0 C 23.9 23.0 24.0 23.0 24.1 23.0 C 24.0 22.8 23.7 23.0 23.6 22.8 C 23.5 22.9 23.6 23.0 23.7 22.9 C 23.8 23.1 23.5 23.1 23.5 23.2 C 23.4 23.1 23.6 23.1 23.6 23.0 C 23.4 23.0 23.3 23.0 23.2 23.0 C 23.1 23.0 23.2 23.1 23.2 23.1 C 23.1 23.2 23.1 23.1 23.0 23.1 C 22.9 23.0 22.9 22.9 22.8 22.8 C 22.9 23.0 22.8 22.9 22.6 22.8 C 22.6 22.9 22.6 22.9 22.7 22.9 C 22.6 23.0 22.5 22.8 22.4 22.9 C 22.3 23.0 22.5 22.9 22.5 23.1 C 22.1 23.0 21.8 22.8 21.6 22.7 C 21.5 22.8 21.5 22.8 21.3 22.7 C 21.3 22.8 21.2 22.8 21.2 22.9 C 21.0 22.7 21.3 22.8 20.9 22.7 C 20.9 22.8 20.9 22.8 21.0 22.9 C 20.9 22.9 20.9 22.8 20.8 22.7 C 20.8 22.8 20.7 22.8 20.7 22.8 C 20.6 22.8 20.6 22.9 20.5 22.9 C 20.4 22.9 20.4 22.9 20.4 22.8 C 20.3 22.8 20.2 22.8 20.1 22.9 C 20.3 22.8 20.0 22.9 19.9 23.0 C 19.8 22.9 20.1 23.0 20.0 22.9 C 18.9 22.5 18.0 22.5 16.9 22.6 C 16.3 22.2 15.8 22.3 15.2 22.4 C 15.2 22.4 15.2 22.5 15.2 22.5 L 15.1 22.4 C 15.1 22.4 15.1 22.4 15.1 22.5 C 15.1 22.3 14.7 22.5 14.4 22.5 C 14.1 22.5 13.9 22.4 13.7 22.4 C 13.5 22.4 13.2 22.5 12.9 22.4 C 12.9 22.3 12.9 22.0 12.7 22.2 C 12.7 22.1 12.8 22.1 12.8 22.1 C 12.9 22.0 12.7 22.1 12.7 22.1 C 12.7 22.1 12.7 22.0 12.8 22.0 C 11.8 21.8 10.8 22.0 10.0 21.8 C 9.7 22.0 9.4 21.8 9.5 21.5 C 9.1 21.4 8.8 21.4 8.4 21.5 C 8.4 21.5 8.4 21.4 8.3 21.3 C 8.2 21.3 8.4 21.2 8.3 21.1 C 8.1 21.0 8.1 21.1 8.2 20.8 C 8.2 20.8 8.3 20.9 8.3 20.9 C 8.4 20.7 8.4 20.6 8.3 20.4 C 7.7 20.5 6.6 21.0 6.4 21.9 C 6.5 21.8 6.5 21.8 6.5 21.7 C 7.2 22.1 6.7 23.0 7.2 23.6 C 6.8 24.1 6.5 24.6 6.4 25.1 L 6.7 25.4 C 6.8 25.3 6.9 25.2 7.0 25.1 C 7.1 25.5 7.1 25.8 7.0 26.2 C 6.9 26.3 6.8 26.3 6.7 26.3 C 6.3 27.0 7.3 26.8 7.5 27.1 C 7.7 27.3 7.4 27.5 7.4 27.8 C 7.3 28.1 7.5 28.3 7.5 28.6 C 7.4 28.6 7.3 28.6 7.2 28.5 L 7.0 28.8 C 7.2 29.1 7.5 29.1 7.5 28.8 C 7.7 28.9 7.6 29.0 7.7 29.0 C 7.4 29.4 6.9 29.6 6.8 30.1 C 6.9 30.2 7.0 30.1 7.1 30.2 C 7.2 30.0 7.4 29.6 7.6 29.7 C 7.8 30.0 7.3 30.0 7.1 30.4 C 7.3 30.8 7.1 31.2 7.6 31.5 C 7.7 31.5 7.8 31.5 7.9 31.5 C 7.9 31.6 8.0 31.8 8.2 31.9 C 8.1 32.0 8.0 32.0 7.9 32.2 C 7.8 32.1 7.9 32.0 7.8 32.1 C 7.9 32.3 8.1 32.0 8.3 32.4 C 8.1 32.5 7.6 32.6 7.7 33.0 C 8.1 33.0 8.5 33.3 8.8 33.7 C 8.9 33.5 9.2 33.8 9.4 33.7 C 9.5 33.8 9.3 34.0 9.4 34.1 C 9.0 34.0 8.5 33.8 8.1 34.2 C 8.4 34.3 8.4 34.5 8.4 34.7 L 9.1 35.0 L 9.7 35.8 L 9.7 33.3 L 9.8 31.2 L 10.2 32.7 L 11.5 34.7 L 11.5 34.7 C 11.4 34.3 11.4 34.2 11.6 33.9 C 11.6 33.8 11.5 33.8 11.4 33.8 C 11.7 33.7 11.3 33.5 11.5 33.4 C 11.4 33.3 11.3 33.3 11.3 33.3 C 11.2 33.2 11.4 33.3 11.4 33.2 C 11.3 33.1 11.3 33.0 11.1 33.0 C 11.3 32.8 11.2 32.7 11.3 32.6 C 11.2 32.4 11.0 32.6 11.0 32.8 C 10.9 32.6 11.1 32.4 10.9 32.3 C 11.1 32.2 11.2 32.6 11.2 32.5 C 11.2 32.4 11.3 32.3 11.2 32.2 C 11.1 32.2 11.2 32.2 11.1 32.3 C 11.1 32.1 11.0 32.1 10.8 31.9 C 10.9 31.9 11.0 32.0 11.1 31.9 C 11.1 32.0 11.0 32.0 11.1 32.1 C 11.2 31.9 11.1 31.8 11.1 31.7 C 10.9 31.6 11.1 31.9 10.9 31.9 C 10.9 31.8 10.9 31.7 10.9 31.6 C 11.0 31.6 11.2 31.6 11.3 31.5 C 11.3 31.4 11.1 31.5 11.0 31.5 C 11.0 31.4 11.1 31.5 11.2 31.5 C 11.2 31.3 11.1 31.3 11.0 31.3 C 11.2 31.3 11.2 31.1 11.3 31.3 C 11.4 31.2 11.2 31.1 11.4 31.0 C 11.3 30.9 11.2 31.0 11.2 30.9 C 11.5 31.0 11.0 30.6 11.3 30.4 C 11.1 30.5 11.2 30.2 11.3 30.1 C 11.2 29.7 11.1 29.5 11.3 29.2 C 11.1 29.3 11.4 29.0 11.2 28.9 C 11.3 28.9 11.2 28.8 11.3 28.8 C 11.3 28.7 11.2 28.7 11.1 28.7 C 11.2 28.6 11.2 28.6 11.3 28.5 C 11.2 28.5 11.3 28.3 11.1 28.3 C 11.2 28.3 11.2 28.2 11.3 28.1 C 11.2 27.8 11.0 27.7 11.0 27.3 C 11.0 27.3 10.9 27.4 10.9 27.4 C 10.8 27.4 10.9 27.3 11.0 27.2 C 10.9 27.3 10.6 27.3 10.7 27.4 C 10.7 27.5 10.5 27.3 10.5 27.3 C 10.5 27.4 10.5 27.4 10.4 27.4 C 10.5 27.6 10.5 27.5 10.6 27.5 C 10.6 27.6 10.5 27.5 10.5 27.7 C 10.4 27.6 10.5 27.6 10.4 27.5 C 10.4 27.5 10.4 27.5 10.4 27.6 C 10.4 27.6 10.3 27.6 10.3 27.6 C 10.4 27.7 10.3 27.9 10.3 27.8 C 10.3 27.9 10.2 28.4 10.3 28.3 C 10.3 28.4 10.2 28.4 10.2 28.5 C 10.3 28.7 10.3 29.0 10.3 29.1 C 10.2 29.1 10.2 28.8 10.1 28.7 C 10.0 28.7 9.9 28.6 9.9 28.5 C 10.0 28.5 10.0 28.6 10.1 28.6 C 10.2 28.6 10.1 28.5 10.1 28.6 C 10.2 28.3 9.8 28.0 10.0 27.6 C 9.9 27.5 9.9 27.7 9.8 27.7 C 9.9 27.4 9.9 27.5 10.0 27.4 C 9.9 27.3 9.9 27.3 9.8 27.4 C 9.8 27.4 9.8 27.3 9.8 27.3 C 9.7 27.3 9.7 27.2 9.6 27.1 C 9.7 27.0 9.7 27.2 9.8 27.2 C 9.7 27.1 9.9 27.0 9.8 26.9 C 9.8 26.9 9.9 26.9 9.9 27.0 C 9.9 26.8 9.8 26.8 9.7 26.5 C 9.8 26.5 9.8 26.5 9.9 26.5 C 9.8 26.4 9.6 26.1 9.8 26.0 C 9.8 26.0 9.6 25.7 9.7 25.6 C 9.8 25.5 9.6 25.6 9.6 25.6 C 9.6 25.5 9.6 25.5 9.7 25.4 C 9.5 25.3 9.3 24.9 9.0 25.0 C 9.2 24.7 9.4 25.1 9.6 24.8 C 9.7 25.0 9.5 24.9 9.4 25.0 C 9.7 25.0 9.4 25.1 9.6 25.2 C 9.7 25.1 9.6 25.2 9.7 25.1 C 9.6 25.0 9.7 25.0 9.6 24.9 C 9.9 25.0 10.3 25.0 10.6 24.9 C 10.6 25.1 10.3 25.4 10.7 25.5 C 10.9 25.4 11.1 25.1 10.8 24.9 C 10.9 24.9 11.0 24.9 11.1 24.9 C 11.4 25.2 11.4 25.6 11.8 25.9 C 12.0 25.7 12.0 25.5 11.9 25.4 C 11.9 25.4 12.0 25.4 12.0 25.3 C 12.3 25.7 12.7 25.5 13.0 25.5 C 13.1 25.6 13.0 25.7 13.1 25.7 L 13.3 25.5 C 13.7 25.7 13.6 25.8 13.6 26.1 C 13.6 26.2 13.5 26.0 13.4 26.0 C 13.4 25.9 13.5 26.0 13.6 25.9 C 13.6 25.7 13.3 25.5 13.2 25.7 C 13.4 25.9 13.2 26.1 13.2 26.4 C 13.1 26.3 13.2 26.2 13.0 26.2 C 12.9 26.2 12.8 26.3 12.7 26.4 C 12.5 26.3 12.7 26.1 12.6 26.0 C 12.5 26.0 12.5 26.3 12.6 26.4 C 12.2 26.3 11.9 25.6 11.5 26.0 C 11.6 26.1 11.7 26.0 11.8 26.1 C 11.8 26.2 11.8 26.4 11.7 26.5 C 12.0 26.8 12.2 26.4 12.5 26.6 C 12.6 26.6 12.5 26.8 12.4 26.9 C 12.9 27.3 13.3 26.8 13.7 26.9 C 13.7 26.7 13.6 26.3 14.0 26.2 C 13.7 26.8 14.5 27.0 14.9 26.8 C 15.0 26.9 15.1 27.0 15.2 27.1 C 15.4 26.9 15.4 26.7 15.6 26.5 C 15.7 26.6 15.6 26.7 15.5 26.8 C 15.6 26.8 15.5 26.9 15.7 27.0 C 15.9 26.9 16.2 26.9 16.4 26.5 C 16.4 26.6 16.3 26.8 16.5 26.7 L 16.3 27.0 C 16.6 26.9 16.9 26.7 17.2 26.8 C 17.3 26.9 17.3 26.9 17.2 27.0 C 17.3 27.1 17.4 27.0 17.5 27.0 C 17.6 26.9 17.5 26.8 17.5 26.6 C 17.6 26.6 17.6 26.6 17.7 26.5 C 17.7 26.7 17.7 26.8 17.9 26.9 C 18.0 26.7 17.8 26.6 17.8 26.4 C 18.0 26.7 18.0 27.1 18.4 27.2 C 18.7 26.7 17.8 26.5 18.0 26.1 C 18.1 26.0 18.2 26.0 18.3 26.0 C 18.2 26.2 18.1 26.1 18.1 26.3 C 18.3 26.6 18.5 26.4 18.7 26.4 C 18.8 26.5 18.8 26.6 18.9 26.7 L 18.6 27.0 C 18.9 27.3 19.0 26.5 19.1 26.7 C 19.2 26.7 19.1 26.4 19.1 26.2 C 19.4 26.3 19.8 26.6 19.6 26.8 C 19.5 26.9 19.5 26.7 19.4 26.7 C 19.4 26.8 19.4 27.0 19.5 27.1 C 19.7 27.0 19.8 26.8 20.0 26.6 C 20.0 26.7 20.0 26.8 20.0 26.9 C 20.1 26.7 20.3 26.9 20.4 27.0 C 20.5 26.8 20.4 26.7 20.5 26.6 C 20.4 26.5 20.4 26.6 20.4 26.6 C 20.3 26.6 20.4 26.5 20.4 26.5 C 20.5 26.5 20.6 26.7 20.8 26.7 C 20.9 26.6 20.8 26.5 21.0 26.4 C 21.1 26.3 21.0 26.5 21.1 26.6 C 21.2 26.4 21.2 26.2 21.1 26.0 C 21.3 26.0 21.6 26.5 21.9 26.5 C 21.9 26.4 21.8 26.3 21.7 26.2 C 21.8 26.2 21.9 26.2 22.0 26.3 C 22.1 26.3 22.0 26.2 22.1 26.2 C 22.3 26.4 22.4 26.2 22.6 26.1 C 22.7 26.3 22.7 26.5 22.7 26.6 C 22.9 26.7 22.7 26.5 22.8 26.5 C 23.0 26.4 23.2 26.6 23.3 26.6 C 23.4 26.5 23.4 26.3 23.5 26.1 C 23.3 26.0 23.2 25.9 23.1 26.0 C 23.0 26.1 23.2 26.1 23.2 26.3 C 23.1 26.3 23.0 26.3 23.0 26.3 C 23.0 26.1 22.8 25.8 22.9 25.7 C 22.8 25.6 22.7 25.5 22.6 25.6 C 22.7 25.2 23.5 25.8 23.5 26.1 C 23.6 26.0 23.8 26.0 23.9 25.9 C 24.1 26.0 23.9 26.2 24.0 26.3 C 24.3 26.6 24.6 26.1 24.9 26.3 C 24.9 26.2 24.9 26.1 25.0 26.0 C 25.1 26.0 25.0 26.2 25.2 26.2 C 25.3 26.2 25.4 26.1 25.5 26.0 C 25.6 26.2 25.7 26.3 25.7 26.5 C 25.6 26.6 25.4 26.5 25.2 26.3 L 25.1 26.5 C 25.2 26.6 25.6 26.6 25.5 26.8 C 25.8 26.6 26.2 26.9 26.5 27.0 C 26.5 26.9 26.5 26.7 26.4 26.6 C 26.2 26.6 25.9 26.7 25.8 26.4 C 26.4 26.4 27.0 26.3 27.6 26.4 C 27.7 26.5 27.6 26.6 27.8 26.7 C 27.9 26.4 28.4 26.1 28.6 26.5 C 28.3 26.6 28.1 26.5 27.9 26.7 C 28.0 27.4 29.5 26.9 29.8 26.5 C 29.7 26.4 29.5 26.5 29.4 26.3 C 29.3 26.2 29.4 26.0 29.5 25.9 C 29.7 25.8 29.7 26.4 30.0 26.3 C 30.1 26.4 30.0 26.5 30.2 26.7 Z M 11.5 33.8 C 11.5 33.9 11.5 34.1 11.4 34.0 C 11.4 33.9 11.4 33.8 11.5 33.8 Z M 9.9 28.6 C 9.7 28.8 10.0 28.7 9.9 28.8 C 9.9 28.8 9.9 28.9 9.9 28.8 C 9.9 28.8 9.9 28.7 9.8 28.7 C 9.8 28.8 9.7 28.9 9.8 28.9 C 10.0 28.9 9.8 29.2 9.9 29.3 C 9.8 29.1 9.8 29.1 9.7 29.2 C 9.8 29.0 9.6 28.6 9.9 28.6 Z M 15.9 26.8 C 15.9 26.6 16.0 26.2 16.1 26.1 C 16.1 26.3 16.0 26.7 15.9 26.8 Z M 23.4 23.5 C 23.3 23.4 23.3 23.5 23.3 23.5 C 23.2 23.4 23.0 23.4 23.0 23.2 C 23.2 23.3 23.3 23.3 23.4 23.5 Z M 23.5 23.7 C 23.5 23.6 23.4 23.6 23.3 23.6 C 23.4 23.6 23.3 23.7 23.3 23.6 C 23.4 23.6 23.4 23.4 23.5 23.4 C 23.4 23.5 23.6 23.6 23.5 23.7 Z M 23.8 23.3 C 23.9 23.4 23.9 23.3 24.0 23.3 C 23.9 23.5 24.2 23.5 24.1 23.7 C 23.9 23.5 23.9 23.5 23.8 23.3 Z M 26.5 24.7 C 26.4 24.6 26.5 24.4 26.4 24.2 C 26.2 24.5 26.1 24.7 26.0 25.0 C 25.6 24.5 25.3 25.2 24.9 24.9 C 25.1 24.7 25.7 24.3 25.9 24.5 C 26.1 24.5 26.1 24.2 26.2 24.1 C 26.3 24.0 26.5 24.3 26.7 24.1 C 26.8 24.3 26.8 24.6 26.5 24.7 Z M 21.3 26.3 C 21.3 26.4 21.3 26.6 21.4 26.7 C 21.4 26.6 21.4 26.4 21.3 26.3 Z M 10.9 26.4 C 10.8 26.1 10.7 25.9 10.6 25.8 C 10.4 25.9 10.5 26.0 10.3 26.1 C 10.2 26.1 10.4 25.9 10.3 25.9 C 10.2 26.1 10.3 26.5 10.5 26.7 C 10.5 26.5 10.4 26.3 10.5 26.2 C 10.5 26.1 10.5 26.2 10.6 26.1 C 10.7 26.2 10.6 26.5 10.9 26.4 Z M 10.9 26.4 " fill="#EDC25F"></path></g></svg>