<?xml version="1.0" encoding="UTF-8" standalone="no"?><svg xmlns="http://www.w3.org/2000/svg" xmlns:xlink="http://www.w3.org/1999/xlink" clip-rule="evenodd" stroke-miterlimit="10" viewBox="0 0 319 25"><desc>SVG generated by Keynote</desc><defs></defs><g transform="matrix(1.00, 0.00, -0.00, -1.00, 0.0, 25.0)"><text xml:space="preserve" font-family="Helvetica,Helvetica" font-size="22.0" fill="#E2E2E2" transform="matrix(1.00, 0.00, -0.00, -1.00, 1.6, 7.0)">f</text><text xml:space="preserve" font-family="Helvetica,Helvetica" font-size="22.0" fill="#E2E2E2" transform="matrix(1.00, 0.00, -0.00, -1.00, 7.7, 7.0)">a</text><text xml:space="preserve" font-family="Helvetica,Helvetica" font-size="22.0" fill="#E2E2E2" transform="matrix(1.00, 0.00, -0.00, -1.00, 19.9, 7.0)">c</text><text xml:space="preserve" font-family="Helvetica,Helvetica" font-size="22.0" fill="#E2E2E2" transform="matrix(1.00, 0.00, -0.00, -1.00, 30.9, 7.0)">i</text><text xml:space="preserve" font-family="Helvetica,Helvetica" font-size="22.0" fill="#E2E2E2" transform="matrix(1.00, 0.00, -0.00, -1.00, 35.8, 7.0)">l</text><text xml:space="preserve" font-family="Helvetica,Helvetica" font-size="22.0" fill="#E2E2E2" transform="matrix(1.00, 0.00, -0.00, -1.00, 40.7, 7.0)">i</text><text xml:space="preserve" font-family="Helvetica,Helvetica" font-size="22.0" fill="#E2E2E2" transform="matrix(1.00, 0.00, -0.00, -1.00, 45.6, 7.0)">s</text><text xml:space="preserve" font-family="Helvetica,Helvetica" font-size="22.0" fill="#E2E2E2" transform="matrix(1.00, 0.00, -0.00, -1.00, 56.6, 7.0)">i</text><text xml:space="preserve" font-family="Helvetica,Helvetica" font-size="22.0" fill="#E2E2E2" transform="matrix(1.00, 0.00, -0.00, -1.00, 61.5, 7.0)">.</text><text xml:space="preserve" font-family="Helvetica,Helvetica" font-size="22.0" fill="#E2E2E2" transform="matrix(1.00, 0.00, -0.00, -1.00, 67.6, 7.0)"> </text><text xml:space="preserve" font-family="Helvetica,Helvetica" font-size="22.0" fill="#E2E2E2" transform="matrix(1.00, 0.00, -0.00, -1.00, 73.7, 7.0)">N</text><text xml:space="preserve" font-family="Helvetica,Helvetica" font-size="22.0" fill="#E2E2E2" transform="matrix(1.00, 0.00, -0.00, -1.00, 89.6, 7.0)">a</text><text xml:space="preserve" font-family="Helvetica,Helvetica" font-size="22.0" fill="#E2E2E2" transform="matrix(1.00, 0.00, -0.00, -1.00, 101.9, 7.0)">m</text><text xml:space="preserve" font-family="Helvetica,Helvetica" font-size="22.0" fill="#E2E2E2" transform="matrix(1.00, 0.00, -0.00, -1.00, 120.2, 7.0)"> </text><text xml:space="preserve" font-family="Helvetica,Helvetica" font-size="22.0" fill="#E2E2E2" transform="matrix(1.00, 0.00, -0.00, -1.00, 126.3, 7.0)">l</text><text xml:space="preserve" font-family="Helvetica,Helvetica" font-size="22.0" fill="#E2E2E2" transform="matrix(1.00, 0.00, -0.00, -1.00, 131.2, 7.0)">i</text><text xml:space="preserve" font-family="Helvetica,Helvetica" font-size="22.0" fill="#E2E2E2" transform="matrix(1.00, 0.00, -0.00, -1.00, 136.1, 7.0)">b</text><text xml:space="preserve" font-family="Helvetica,Helvetica" font-size="22.0" fill="#E2E2E2" transform="matrix(1.00, 0.00, -0.00, -1.00, 148.3, 7.0)">e</text><text xml:space="preserve" font-family="Helvetica,Helvetica" font-size="22.0" fill="#E2E2E2" transform="matrix(1.00, 0.00, -0.00, -1.00, 160.6, 7.0)">r</text><text xml:space="preserve" font-family="Helvetica,Helvetica" font-size="22.0" fill="#E2E2E2" transform="matrix(1.00, 0.00, -0.00, -1.00, 167.9, 7.0)"> </text><text xml:space="preserve" font-family="Helvetica,Helvetica" font-size="22.0" fill="#E2E2E2" transform="matrix(1.00, 0.00, -0.00, -1.00, 174.0, 7.0)">t</text><text xml:space="preserve" font-family="Helvetica,Helvetica" font-size="22.0" fill="#E2E2E2" transform="matrix(1.00, 0.00, -0.00, -1.00, 180.1, 7.0)">e</text><text xml:space="preserve" font-family="Helvetica,Helvetica" font-size="22.0" fill="#E2E2E2" transform="matrix(1.00, 0.00, -0.00, -1.00, 192.3, 7.0)">m</text><text xml:space="preserve" font-family="Helvetica,Helvetica" font-size="22.0" fill="#E2E2E2" transform="matrix(1.00, 0.00, -0.00, -1.00, 210.7, 7.0)">p</text><text xml:space="preserve" font-family="Helvetica,Helvetica" font-size="22.0" fill="#E2E2E2" transform="matrix(1.00, 0.00, -0.00, -1.00, 222.9, 7.0)">o</text><text xml:space="preserve" font-family="Helvetica,Helvetica" font-size="22.0" fill="#E2E2E2" transform="matrix(1.00, 0.00, -0.00, -1.00, 235.1, 7.0)">r</text><text xml:space="preserve" font-family="Helvetica,Helvetica" font-size="22.0" fill="#E2E2E2" transform="matrix(1.00, 0.00, -0.00, -1.00, 242.5, 7.0)"> </text><text xml:space="preserve" font-family="Helvetica,Helvetica" font-size="22.0" fill="#E2E2E2" transform="matrix(1.00, 0.00, -0.00, -1.00, 248.6, 7.0)">c</text><text xml:space="preserve" font-family="Helvetica,Helvetica" font-size="22.0" fill="#E2E2E2" transform="matrix(1.00, 0.00, -0.00, -1.00, 259.6, 7.0)">u</text><text xml:space="preserve" font-family="Helvetica,Helvetica" font-size="22.0" fill="#E2E2E2" transform="matrix(1.00, 0.00, -0.00, -1.00, 271.8, 7.0)">m</text><text xml:space="preserve" font-family="Helvetica,Helvetica" font-size="22.0" fill="#E2E2E2" transform="matrix(1.00, 0.00, -0.00, -1.00, 290.1, 7.0)">a</text><text xml:space="preserve" font-family="Helvetica,Helvetica" font-size="22.0" fill="#E2E2E2" transform="matrix(1.00, 0.00, -0.00, -1.00, 302.4, 7.0)">s</text><text xml:space="preserve" font-family="Helvetica,Helvetica" font-size="22.0" fill="#E2E2E2" transform="matrix(1.00, 0.00, -0.00, -1.00, 313.4, 7.0)">.</text></g></svg>