<?xml version="1.0" encoding="UTF-8" standalone="no"?><svg xmlns="http://www.w3.org/2000/svg" xmlns:xlink="http://www.w3.org/1999/xlink" clip-rule="evenodd" stroke-miterlimit="10" viewBox="0 0 408 94"><desc>SVG generated by Keynote</desc><defs></defs><g transform="matrix(1.00, 0.00, -0.00, -1.00, 0.0, 94.0)"><text xml:space="preserve" font-family="Helvetica,Helvetica" font-size="46.0" fill="#E2E2E2" transform="matrix(1.00, 0.00, -0.00, -1.00, -0.7, 58.4)">S</text><text xml:space="preserve" font-family="Helvetica,Helvetica" font-size="46.0" fill="#E2E2E2" transform="matrix(1.00, 0.00, -0.00, -1.00, 30.0, 58.4)">O</text><text xml:space="preserve" font-family="Helvetica,Helvetica" font-size="46.0" fill="#E2E2E2" transform="matrix(1.00, 0.00, -0.00, -1.00, 65.8, 58.4)">M</text><text xml:space="preserve" font-family="Helvetica,Helvetica" font-size="46.0" fill="#E2E2E2" transform="matrix(1.00, 0.00, -0.00, -1.00, 104.1, 58.4)">E</text><text xml:space="preserve" font-family="Helvetica,Helvetica" font-size="46.0" fill="#E2E2E2" transform="matrix(1.00, 0.00, -0.00, -1.00, 134.8, 58.4)"> </text><text xml:space="preserve" font-family="Helvetica,Helvetica" font-size="46.0" fill="#E2E2E2" transform="matrix(1.00, 0.00, -0.00, -1.00, 147.5, 58.4)">I</text><text xml:space="preserve" font-family="Helvetica,Helvetica" font-size="46.0" fill="#E2E2E2" transform="matrix(1.00, 0.00, -0.00, -1.00, 160.3, 58.4)">N</text><text xml:space="preserve" font-family="Helvetica,Helvetica" font-size="46.0" fill="#E2E2E2" transform="matrix(1.00, 0.00, -0.00, -1.00, 193.5, 58.4)">F</text><text xml:space="preserve" font-family="Helvetica,Helvetica" font-size="46.0" fill="#E2E2E2" transform="matrix(1.00, 0.00, -0.00, -1.00, 221.6, 58.4)">O</text><text xml:space="preserve" font-family="Helvetica,Helvetica" font-size="46.0" fill="#E2E2E2" transform="matrix(1.00, 0.00, -0.00, -1.00, 257.4, 58.4)"> </text><text xml:space="preserve" font-family="Helvetica,Helvetica" font-size="46.0" fill="#E2E2E2" transform="matrix(1.00, 0.00, -0.00, -1.00, 270.2, 58.4)">F</text><text xml:space="preserve" font-family="Helvetica,Helvetica" font-size="46.0" fill="#E2E2E2" transform="matrix(1.00, 0.00, -0.00, -1.00, 298.3, 58.4)">R</text><text xml:space="preserve" font-family="Helvetica,Helvetica" font-size="46.0" fill="#E2E2E2" transform="matrix(1.00, 0.00, -0.00, -1.00, 331.5, 58.4)">O</text><text xml:space="preserve" font-family="Helvetica,Helvetica" font-size="46.0" fill="#E2E2E2" transform="matrix(1.00, 0.00, -0.00, -1.00, 367.3, 58.4)">M</text><text xml:space="preserve" font-family="Helvetica,Helvetica" font-size="46.0" fill="#E2E2E2" transform="matrix(1.00, 0.00, -0.00, -1.00, -0.7, 3.4)">E</text><text xml:space="preserve" font-family="Helvetica,Helvetica" font-size="46.0" fill="#E2E2E2" transform="matrix(1.00, 0.00, -0.00, -1.00, 30.0, 3.4)">U</text><text xml:space="preserve" font-family="Helvetica,Helvetica" font-size="46.0" fill="#E2E2E2" transform="matrix(1.00, 0.00, -0.00, -1.00, 63.2, 3.4)">R</text><text xml:space="preserve" font-family="Helvetica,Helvetica" font-size="46.0" fill="#E2E2E2" transform="matrix(1.00, 0.00, -0.00, -1.00, 96.5, 3.4)">O</text><text xml:space="preserve" font-family="Helvetica,Helvetica" font-size="46.0" fill="#E2E2E2" transform="matrix(1.00, 0.00, -0.00, -1.00, 132.2, 3.4)">P</text><text xml:space="preserve" font-family="Helvetica,Helvetica" font-size="46.0" fill="#E2E2E2" transform="matrix(1.00, 0.00, -0.00, -1.00, 162.9, 3.4)">E</text></g></svg>