<?xml version="1.0" encoding="UTF-8" standalone="no"?><svg xmlns="http://www.w3.org/2000/svg" xmlns:xlink="http://www.w3.org/1999/xlink" clip-rule="evenodd" stroke-miterlimit="10" viewBox="0 0 168 157"><desc>SVG generated by Keynote</desc><defs></defs><g transform="matrix(1.00, 0.00, -0.00, -1.00, 0.0, 157.0)"><g><clipPath id="clip0x600007eb90e0"><path d="M -19.2 6.1 L 187.5 6.1 L 187.5 176.1 L -19.2 176.1 Z M -19.2 6.1 "></path></clipPath><g clip-path="url(#clip0x600007eb90e0)"><text xml:space="preserve" font-family="Helvetica,Helvetica" font-size="100.0" fill="#EDC25F" transform="matrix(1.00, 0.00, -0.00, -1.00, 5.8, 54.1)">7</text><text xml:space="preserve" font-family="Helvetica,Helvetica" font-size="100.0" fill="#EDC25F" transform="matrix(1.00, 0.00, -0.00, -1.00, 61.4, 54.1)">2</text><text xml:space="preserve" font-family="Helvetica,Helvetica" font-size="50.0" fill="#EDC25F" transform="matrix(1.00, 0.00, -0.00, -1.00, 117.0, 54.1)">%</text></g></g><g><clipPath id="clip0x600007eb93e0"><path d="M 9.0 -0.5 L 151.4 -0.5 L 151.4 40.5 L 9.0 40.5 Z M 9.0 -0.5 "></path></clipPath><g clip-path="url(#clip0x600007eb93e0)"><text xml:space="preserve" font-family="Helvetica,Helvetica" font-size="24.0" fill="#E2E2E2" transform="matrix(1.00, 0.00, -0.00, -1.00, 15.5, 11.1)">C</text><text xml:space="preserve" font-family="Helvetica,Helvetica" font-size="24.0" fill="#E2E2E2" transform="matrix(1.00, 0.00, -0.00, -1.00, 32.8, 11.1)">o</text><text xml:space="preserve" font-family="Helvetica,Helvetica" font-size="24.0" fill="#E2E2E2" transform="matrix(1.00, 0.00, -0.00, -1.00, 46.2, 11.1)">n</text><text xml:space="preserve" font-family="Helvetica,Helvetica" font-size="24.0" fill="#E2E2E2" transform="matrix(1.00, 0.00, -0.00, -1.00, 59.5, 11.1)">s</text><text xml:space="preserve" font-family="Helvetica,Helvetica" font-size="24.0" fill="#E2E2E2" transform="matrix(1.00, 0.00, -0.00, -1.00, 71.5, 11.1)">t</text><text xml:space="preserve" font-family="Helvetica,Helvetica" font-size="24.0" fill="#E2E2E2" transform="matrix(1.00, 0.00, -0.00, -1.00, 78.2, 11.1)">a</text><text xml:space="preserve" font-family="Helvetica,Helvetica" font-size="24.0" fill="#E2E2E2" transform="matrix(1.00, 0.00, -0.00, -1.00, 91.5, 11.1)">c</text><text xml:space="preserve" font-family="Helvetica,Helvetica" font-size="24.0" fill="#E2E2E2" transform="matrix(1.00, 0.00, -0.00, -1.00, 103.5, 11.1)">t</text><text xml:space="preserve" font-family="Helvetica,Helvetica" font-size="24.0" fill="#E2E2E2" transform="matrix(1.00, 0.00, -0.00, -1.00, 110.2, 11.1)">u</text><text xml:space="preserve" font-family="Helvetica,Helvetica" font-size="24.0" fill="#E2E2E2" transform="matrix(1.00, 0.00, -0.00, -1.00, 123.5, 11.1)">r</text><text xml:space="preserve" font-family="Helvetica,Helvetica" font-size="24.0" fill="#E2E2E2" transform="matrix(1.00, 0.00, -0.00, -1.00, 131.5, 11.1)">e</text></g></g></g></svg>