<?xml version="1.0" encoding="UTF-8" standalone="no"?><svg xmlns="http://www.w3.org/2000/svg" xmlns:xlink="http://www.w3.org/1999/xlink" clip-rule="evenodd" stroke-miterlimit="10" viewBox="0 0 323 279"><desc>SVG generated by Keynote</desc><defs></defs><g transform="matrix(1.00, 0.00, -0.00, -1.00, 0.0, 279.0)"><g><clipPath id="clip0x6000050bfaa0"><path d="M -44.5 -16.1 L 367.8 -16.1 L 367.8 323.9 L -44.5 323.9 Z M -44.5 -16.1 "></path></clipPath><g clip-path="url(#clip0x6000050bfaa0)"><text xml:space="preserve" font-family="Helvetica,Helvetica" font-size="200.0" fill="#62D7AD" transform="matrix(1.00, 0.00, -0.00, -1.00, 5.5, 79.9)">4</text><text xml:space="preserve" font-family="Helvetica,Helvetica" font-size="200.0" fill="#62D7AD" transform="matrix(1.00, 0.00, -0.00, -1.00, 116.7, 79.9)">7</text><text xml:space="preserve" font-family="Helvetica,Helvetica" font-size="100.0" fill="#62D7AD" transform="matrix(1.00, 0.00, -0.00, -1.00, 227.9, 79.9)">%</text></g></g><g><clipPath id="clip0x6000052a0060"><path d="M 5.3 -5.4 L 309.8 -5.4 L 309.8 68.1 L 5.3 68.1 Z M 5.3 -5.4 "></path></clipPath><g clip-path="url(#clip0x6000052a0060)"><text xml:space="preserve" font-family="Helvetica,Helvetica" font-size="43.0" fill="#E2E2E2" transform="matrix(1.00, 0.00, -0.00, -1.00, 16.0, 15.2)">w</text><text xml:space="preserve" font-family="Helvetica,Helvetica" font-size="43.0" fill="#E2E2E2" transform="matrix(1.00, 0.00, -0.00, -1.00, 47.1, 15.2)">e</text><text xml:space="preserve" font-family="Helvetica,Helvetica" font-size="43.0" fill="#E2E2E2" transform="matrix(1.00, 0.00, -0.00, -1.00, 71.0, 15.2)">e</text><text xml:space="preserve" font-family="Helvetica,Helvetica" font-size="43.0" fill="#E2E2E2" transform="matrix(1.00, 0.00, -0.00, -1.00, 94.9, 15.2)">k</text><text xml:space="preserve" font-family="Helvetica,Helvetica" font-size="43.0" fill="#E2E2E2" transform="matrix(1.00, 0.00, -0.00, -1.00, 116.4, 15.2)">d</text><text xml:space="preserve" font-family="Helvetica,Helvetica" font-size="43.0" fill="#E2E2E2" transform="matrix(1.00, 0.00, -0.00, -1.00, 140.3, 15.2)">a</text><text xml:space="preserve" font-family="Helvetica,Helvetica" font-size="43.0" fill="#E2E2E2" transform="matrix(1.00, 0.00, -0.00, -1.00, 164.3, 15.2)">y</text><text xml:space="preserve" font-family="Helvetica,Helvetica" font-size="43.0" fill="#E2E2E2" transform="matrix(1.00, 0.00, -0.00, -1.00, 185.8, 15.2)"> </text><text xml:space="preserve" font-family="Helvetica,Helvetica" font-size="43.0" fill="#E2E2E2" transform="matrix(1.00, 0.00, -0.00, -1.00, 197.7, 15.2)">s</text><text xml:space="preserve" font-family="Helvetica,Helvetica" font-size="43.0" fill="#E2E2E2" transform="matrix(1.00, 0.00, -0.00, -1.00, 219.2, 15.2)">a</text><text xml:space="preserve" font-family="Helvetica,Helvetica" font-size="43.0" fill="#E2E2E2" transform="matrix(1.00, 0.00, -0.00, -1.00, 243.1, 15.2)">l</text><text xml:space="preserve" font-family="Helvetica,Helvetica" font-size="43.0" fill="#E2E2E2" transform="matrix(1.00, 0.00, -0.00, -1.00, 252.7, 15.2)">e</text><text xml:space="preserve" font-family="Helvetica,Helvetica" font-size="43.0" fill="#E2E2E2" transform="matrix(1.00, 0.00, -0.00, -1.00, 276.6, 15.2)">s</text></g></g></g></svg>