<?xml version="1.0" encoding="UTF-8" standalone="no"?><svg xmlns="http://www.w3.org/2000/svg" xmlns:xlink="http://www.w3.org/1999/xlink" clip-rule="evenodd" stroke-miterlimit="10" viewBox="0 0 103 480"><desc>SVG generated by Keynote</desc><defs></defs><g transform="matrix(1.00, 0.00, -0.00, -1.00, 0.0, 480.0)"><g><clipPath id="clip0x6000050b8240"><path d="M 0.6 0.2 L 102.6 0.2 L 102.6 26.3 L 0.6 26.3 Z M 0.6 0.2 "></path></clipPath><g clip-path="url(#clip0x6000050b8240)"><path d="M 1.6 8.2 L 2.0 18.3 C 2.0 22.2 4.8 25.0 8.6 25.0 L 94.6 25.0 C 98.5 25.0 102.0 22.2 102.0 18.3 L 102.0 8.2 C 102.0 4.3 98.5 1.0 94.6 1.0 L 8.6 1.0 C 4.8 1.0 1.6 4.3 1.6 8.2 Z M 1.6 8.2 " fill="#FF607B"></path></g></g><g><clipPath id="clip0x6000050b9620"><path d="M 0.6 30.5 L 102.6 30.5 L 102.6 56.5 L 0.6 56.5 Z M 0.6 30.5 "></path></clipPath><g clip-path="url(#clip0x6000050b9620)"><path d="M 1.6 38.5 L 2.0 48.5 C 2.0 52.4 4.8 56.0 8.6 56.0 L 94.6 56.0 C 98.5 56.0 102.0 52.4 102.0 48.5 L 102.0 38.5 C 102.0 34.6 98.5 31.0 94.6 31.0 L 8.6 31.0 C 4.8 31.0 1.6 34.6 1.6 38.5 Z M 1.6 38.5 " fill="#FF607B"></path></g></g><g><clipPath id="clip0x6000050b9860"><path d="M 0.6 60.7 L 102.6 60.7 L 102.6 86.8 L 0.6 86.8 Z M 0.6 60.7 "></path></clipPath><g clip-path="url(#clip0x6000050b9860)"><path d="M 1.6 68.7 L 2.0 78.8 C 2.0 82.7 4.8 86.0 8.6 86.0 L 94.6 86.0 C 98.5 86.0 102.0 82.7 102.0 78.8 L 102.0 68.7 C 102.0 64.8 98.5 62.0 94.6 62.0 L 8.6 62.0 C 4.8 62.0 1.6 64.8 1.6 68.7 Z M 1.6 68.7 " fill="#FF607B"></path></g></g><g><clipPath id="clip0x6000050b9aa0"><path d="M 0.6 90.9 L 102.6 90.9 L 102.6 117.0 L 0.6 117.0 Z M 0.6 90.9 "></path></clipPath><g clip-path="url(#clip0x6000050b9aa0)"><path d="M 1.6 98.9 L 2.0 109.0 C 2.0 112.9 4.8 116.0 8.6 116.0 L 94.6 116.0 C 98.5 116.0 102.0 112.9 102.0 109.0 L 102.0 98.9 C 102.0 95.1 98.5 92.0 94.6 92.0 L 8.6 92.0 C 4.8 92.0 1.6 95.1 1.6 98.9 Z M 1.6 98.9 " fill="#FF607B"></path></g></g><g><clipPath id="clip0x6000050b9ce0"><path d="M 0.6 121.2 L 102.6 121.2 L 102.6 147.3 L 0.6 147.3 Z M 0.6 121.2 "></path></clipPath><g clip-path="url(#clip0x6000050b9ce0)"><path d="M 1.6 129.2 L 2.0 139.3 C 2.0 143.1 4.8 146.0 8.6 146.0 L 94.6 146.0 C 98.5 146.0 102.0 143.1 102.0 139.3 L 102.0 129.2 C 102.0 125.3 98.5 122.0 94.6 122.0 L 8.6 122.0 C 4.8 122.0 1.6 125.3 1.6 129.2 Z M 1.6 129.2 " fill="#FF607B"></path></g></g><g><clipPath id="clip0x6000050b9f20"><path d="M 0.6 151.4 L 102.6 151.4 L 102.6 177.5 L 0.6 177.5 Z M 0.6 151.4 "></path></clipPath><g clip-path="url(#clip0x6000050b9f20)"><path d="M 1.6 159.4 L 2.0 169.5 C 2.0 173.4 4.8 177.0 8.6 177.0 L 94.6 177.0 C 98.5 177.0 102.0 173.4 102.0 169.5 L 102.0 159.4 C 102.0 155.6 98.5 152.0 94.6 152.0 L 8.6 152.0 C 4.8 152.0 1.6 155.6 1.6 159.4 Z M 1.6 159.4 " fill="#FF607B"></path></g></g><g><clipPath id="clip0x6000050ba160"><path d="M 0.6 332.9 L 102.6 332.9 L 102.6 359.0 L 0.6 359.0 Z M 0.6 332.9 "></path></clipPath><g clip-path="url(#clip0x6000050ba160)"><path d="M 1.6 340.9 L 2.0 351.0 C 2.0 354.8 4.8 358.0 8.6 358.0 L 94.6 358.0 C 98.5 358.0 102.0 354.8 102.0 351.0 L 102.0 340.9 C 102.0 337.0 98.5 334.0 94.6 334.0 L 8.6 334.0 C 4.8 334.0 1.6 337.0 1.6 340.9 Z M 1.6 340.9 " fill="#E2E2E2"></path></g></g><g><clipPath id="clip0x6000050ba3a0"><path d="M 0.6 363.1 L 102.6 363.1 L 102.6 389.2 L 0.6 389.2 Z M 0.6 363.1 "></path></clipPath><g clip-path="url(#clip0x6000050ba3a0)"><path d="M 1.6 371.1 L 2.0 381.2 C 2.0 385.1 4.8 388.0 8.6 388.0 L 94.6 388.0 C 98.5 388.0 102.0 385.1 102.0 381.2 L 102.0 371.1 C 102.0 367.2 98.5 364.0 94.6 364.0 L 8.6 364.0 C 4.8 364.0 1.6 367.2 1.6 371.1 Z M 1.6 371.1 " fill="#E2E2E2"></path></g></g><g><clipPath id="clip0x6000050ba5e0"><path d="M 0.6 393.4 L 102.6 393.4 L 102.6 419.4 L 0.6 419.4 Z M 0.6 393.4 "></path></clipPath><g clip-path="url(#clip0x6000050ba5e0)"><path d="M 1.6 401.4 L 2.0 411.4 C 2.0 415.3 4.8 418.0 8.6 418.0 L 94.6 418.0 C 98.5 418.0 102.0 415.3 102.0 411.4 L 102.0 401.4 C 102.0 397.5 98.5 394.0 94.6 394.0 L 8.6 394.0 C 4.8 394.0 1.6 397.5 1.6 401.4 Z M 1.6 401.4 " fill="#E2E2E2"></path></g></g><g><clipPath id="clip0x6000050ba820"><path d="M 0.6 423.6 L 102.6 423.6 L 102.6 449.7 L 0.6 449.7 Z M 0.6 423.6 "></path></clipPath><g clip-path="url(#clip0x6000050ba820)"><path d="M 1.6 431.6 L 2.0 441.7 C 2.0 445.6 4.8 449.0 8.6 449.0 L 94.6 449.0 C 98.5 449.0 102.0 445.6 102.0 441.7 L 102.0 431.6 C 102.0 427.7 98.5 425.0 94.6 425.0 L 8.6 425.0 C 4.8 425.0 1.6 427.7 1.6 431.6 Z M 1.6 431.6 " fill="#E2E2E2"></path></g></g><g><clipPath id="clip0x6000050baa60"><path d="M 0.6 453.8 L 102.6 453.8 L 102.6 479.9 L 0.6 479.9 Z M 0.6 453.8 "></path></clipPath><g clip-path="url(#clip0x6000050baa60)"><path d="M 1.6 461.8 L 2.0 471.9 C 2.0 475.8 4.8 479.0 8.6 479.0 L 94.6 479.0 C 98.5 479.0 102.0 475.8 102.0 471.9 L 102.0 461.8 C 102.0 458.0 98.5 455.0 94.6 455.0 L 8.6 455.0 C 4.8 455.0 1.6 458.0 1.6 461.8 Z M 1.6 461.8 " fill="#E2E2E2"></path></g></g><g><clipPath id="clip0x6000050baca0"><path d="M 0.6 302.6 L 102.6 302.6 L 102.6 328.7 L 0.6 328.7 Z M 0.6 302.6 "></path></clipPath><g clip-path="url(#clip0x6000050baca0)"><path d="M 1.6 310.6 L 2.0 320.7 C 2.0 324.6 4.8 328.0 8.6 328.0 L 94.6 328.0 C 98.5 328.0 102.0 324.6 102.0 320.7 L 102.0 310.6 C 102.0 306.8 98.5 304.0 94.6 304.0 L 8.6 304.0 C 4.8 304.0 1.6 306.8 1.6 310.6 Z M 1.6 310.6 " fill="#E2E2E2"></path></g></g><g><clipPath id="clip0x6000050baee0"><path d="M 0.6 272.4 L 102.6 272.4 L 102.6 298.5 L 0.6 298.5 Z M 0.6 272.4 "></path></clipPath><g clip-path="url(#clip0x6000050baee0)"><path d="M 1.6 280.4 L 2.0 290.5 C 2.0 294.3 4.8 297.0 8.6 297.0 L 94.6 297.0 C 98.5 297.0 102.0 294.3 102.0 290.5 L 102.0 280.4 C 102.0 276.5 98.5 273.0 94.6 273.0 L 8.6 273.0 C 4.8 273.0 1.6 276.5 1.6 280.4 Z M 1.6 280.4 " fill="#E2E2E2"></path></g></g><g><clipPath id="clip0x6000050bb120"><path d="M 0.6 181.7 L 102.6 181.7 L 102.6 207.8 L 0.6 207.8 Z M 0.6 181.7 "></path></clipPath><g clip-path="url(#clip0x6000050bb120)"><path d="M 1.6 189.7 L 2.0 199.8 C 2.0 203.6 4.8 207.0 8.6 207.0 L 94.6 207.0 C 98.5 207.0 102.0 203.6 102.0 199.8 L 102.0 189.7 C 102.0 185.8 98.5 183.0 94.6 183.0 L 8.6 183.0 C 4.8 183.0 1.6 185.8 1.6 189.7 Z M 1.6 189.7 " fill="#FF607B"></path></g></g><g><clipPath id="clip0x6000050bb360"><path d="M 0.6 211.9 L 102.6 211.9 L 102.6 238.0 L 0.6 238.0 Z M 0.6 211.9 "></path></clipPath><g clip-path="url(#clip0x6000050bb360)"><path d="M 1.6 219.9 L 2.0 230.0 C 2.0 233.9 4.8 237.0 8.6 237.0 L 94.6 237.0 C 98.5 237.0 102.0 233.9 102.0 230.0 L 102.0 219.9 C 102.0 216.0 98.5 213.0 94.6 213.0 L 8.6 213.0 C 4.8 213.0 1.6 216.0 1.6 219.9 Z M 1.6 219.9 " fill="#FF607B"></path></g></g><g><clipPath id="clip0x6000050bb5a0"><path d="M 0.6 242.1 L 102.6 242.1 L 102.6 268.2 L 0.6 268.2 Z M 0.6 242.1 "></path></clipPath><g clip-path="url(#clip0x6000050bb5a0)"><path d="M 1.6 250.1 L 2.0 260.2 C 2.0 264.1 4.8 267.0 8.6 267.0 L 94.6 267.0 C 98.5 267.0 102.0 264.1 102.0 260.2 L 102.0 250.1 C 102.0 246.3 98.5 243.0 94.6 243.0 L 8.6 243.0 C 4.8 243.0 1.6 246.3 1.6 250.1 Z M 1.6 250.1 " fill="#FF607B"></path></g></g></g></svg>