<?xml version="1.0" encoding="UTF-8" standalone="no"?><svg xmlns="http://www.w3.org/2000/svg" xmlns:xlink="http://www.w3.org/1999/xlink" clip-rule="evenodd" stroke-miterlimit="10" viewBox="0 0 855 28"><desc>SVG generated by Keynote</desc><defs></defs><g transform="matrix(1.00, 0.00, -0.00, -1.00, 0.0, 28.0)"><text xml:space="preserve" font-family="Helvetica,Helvetica" font-size="32.0" fill="#E2E2E2" transform="matrix(1.00, 0.00, -0.00, -1.00, -0.9, 3.2)">M</text><text xml:space="preserve" font-family="Helvetica,Helvetica" font-size="32.0" fill="#E2E2E2" transform="matrix(1.00, 0.00, -0.00, -1.00, 25.8, 3.2)">O</text><text xml:space="preserve" font-family="Helvetica,Helvetica" font-size="32.0" fill="#E2E2E2" transform="matrix(1.00, 0.00, -0.00, -1.00, 50.7, 3.2)">N</text><text xml:space="preserve" font-family="Helvetica,Helvetica" font-size="32.0" fill="#E2E2E2" transform="matrix(1.00, 0.00, -0.00, -1.00, 73.8, 3.2)"> </text><text xml:space="preserve" font-family="Helvetica,Helvetica" font-size="32.0" fill="#E2E2E2" transform="matrix(1.00, 0.00, -0.00, -1.00, 82.7, 3.2)"> </text><text xml:space="preserve" font-family="Helvetica,Helvetica" font-size="32.0" fill="#E2E2E2" transform="matrix(1.00, 0.00, -0.00, -1.00, 91.6, 3.2)"> </text><text xml:space="preserve" font-family="Helvetica,Helvetica" font-size="32.0" fill="#E2E2E2" transform="matrix(1.00, 0.00, -0.00, -1.00, 100.4, 3.2)"> </text><text xml:space="preserve" font-family="Helvetica,Helvetica" font-size="32.0" fill="#E2E2E2" transform="matrix(1.00, 0.00, -0.00, -1.00, 109.3, 3.2)"> </text><text xml:space="preserve" font-family="Helvetica,Helvetica" font-size="32.0" fill="#E2E2E2" transform="matrix(1.00, 0.00, -0.00, -1.00, 118.2, 3.2)"> </text><text xml:space="preserve" font-family="Helvetica,Helvetica" font-size="32.0" fill="#E2E2E2" transform="matrix(1.00, 0.00, -0.00, -1.00, 127.1, 3.2)"> </text><text xml:space="preserve" font-family="Helvetica,Helvetica" font-size="32.0" fill="#E2E2E2" transform="matrix(1.00, 0.00, -0.00, -1.00, 135.4, 3.2)">T</text><text xml:space="preserve" font-family="Helvetica,Helvetica" font-size="32.0" fill="#E2E2E2" transform="matrix(1.00, 0.00, -0.00, -1.00, 155.0, 3.2)">U</text><text xml:space="preserve" font-family="Helvetica,Helvetica" font-size="32.0" fill="#E2E2E2" transform="matrix(1.00, 0.00, -0.00, -1.00, 178.1, 3.2)">E</text><text xml:space="preserve" font-family="Helvetica,Helvetica" font-size="32.0" fill="#E2E2E2" transform="matrix(1.00, 0.00, -0.00, -1.00, 199.4, 3.2)"> </text><text xml:space="preserve" font-family="Helvetica,Helvetica" font-size="32.0" fill="#E2E2E2" transform="matrix(1.00, 0.00, -0.00, -1.00, 208.3, 3.2)"> </text><text xml:space="preserve" font-family="Helvetica,Helvetica" font-size="32.0" fill="#E2E2E2" transform="matrix(1.00, 0.00, -0.00, -1.00, 217.2, 3.2)"> </text><text xml:space="preserve" font-family="Helvetica,Helvetica" font-size="32.0" fill="#E2E2E2" transform="matrix(1.00, 0.00, -0.00, -1.00, 226.1, 3.2)"> </text><text xml:space="preserve" font-family="Helvetica,Helvetica" font-size="32.0" fill="#E2E2E2" transform="matrix(1.00, 0.00, -0.00, -1.00, 235.0, 3.2)"> </text><text xml:space="preserve" font-family="Helvetica,Helvetica" font-size="32.0" fill="#E2E2E2" transform="matrix(1.00, 0.00, -0.00, -1.00, 243.8, 3.2)"> </text><text xml:space="preserve" font-family="Helvetica,Helvetica" font-size="32.0" fill="#E2E2E2" transform="matrix(1.00, 0.00, -0.00, -1.00, 252.7, 3.2)"> </text><text xml:space="preserve" font-family="Helvetica,Helvetica" font-size="32.0" fill="#E2E2E2" transform="matrix(1.00, 0.00, -0.00, -1.00, 261.6, 3.2)"> </text><text xml:space="preserve" font-family="Helvetica,Helvetica" font-size="32.0" fill="#E2E2E2" transform="matrix(1.00, 0.00, -0.00, -1.00, 270.5, 3.2)">W</text><text xml:space="preserve" font-family="Helvetica,Helvetica" font-size="32.0" fill="#E2E2E2" transform="matrix(1.00, 0.00, -0.00, -1.00, 300.7, 3.2)">E</text><text xml:space="preserve" font-family="Helvetica,Helvetica" font-size="32.0" fill="#E2E2E2" transform="matrix(1.00, 0.00, -0.00, -1.00, 322.0, 3.2)">D</text><text xml:space="preserve" font-family="Helvetica,Helvetica" font-size="32.0" fill="#E2E2E2" transform="matrix(1.00, 0.00, -0.00, -1.00, 345.1, 3.2)"> </text><text xml:space="preserve" font-family="Helvetica,Helvetica" font-size="32.0" fill="#E2E2E2" transform="matrix(1.00, 0.00, -0.00, -1.00, 354.0, 3.2)"> </text><text xml:space="preserve" font-family="Helvetica,Helvetica" font-size="32.0" fill="#E2E2E2" transform="matrix(1.00, 0.00, -0.00, -1.00, 362.9, 3.2)"> </text><text xml:space="preserve" font-family="Helvetica,Helvetica" font-size="32.0" fill="#E2E2E2" transform="matrix(1.00, 0.00, -0.00, -1.00, 371.8, 3.2)"> </text><text xml:space="preserve" font-family="Helvetica,Helvetica" font-size="32.0" fill="#E2E2E2" transform="matrix(1.00, 0.00, -0.00, -1.00, 380.7, 3.2)"> </text><text xml:space="preserve" font-family="Helvetica,Helvetica" font-size="32.0" fill="#E2E2E2" transform="matrix(1.00, 0.00, -0.00, -1.00, 389.6, 3.2)"> </text><text xml:space="preserve" font-family="Helvetica,Helvetica" font-size="32.0" fill="#E2E2E2" transform="matrix(1.00, 0.00, -0.00, -1.00, 398.5, 3.2)"> </text><text xml:space="preserve" font-family="Helvetica,Helvetica" font-size="32.0" fill="#E2E2E2" transform="matrix(1.00, 0.00, -0.00, -1.00, 406.8, 3.2)">T</text><text xml:space="preserve" font-family="Helvetica,Helvetica" font-size="32.0" fill="#E2E2E2" transform="matrix(1.00, 0.00, -0.00, -1.00, 426.3, 3.2)">H</text><text xml:space="preserve" font-family="Helvetica,Helvetica" font-size="32.0" fill="#E2E2E2" transform="matrix(1.00, 0.00, -0.00, -1.00, 449.4, 3.2)">U</text><text xml:space="preserve" font-family="Helvetica,Helvetica" font-size="32.0" fill="#E2E2E2" transform="matrix(1.00, 0.00, -0.00, -1.00, 472.5, 3.2)"> </text><text xml:space="preserve" font-family="Helvetica,Helvetica" font-size="32.0" fill="#E2E2E2" transform="matrix(1.00, 0.00, -0.00, -1.00, 481.4, 3.2)"> </text><text xml:space="preserve" font-family="Helvetica,Helvetica" font-size="32.0" fill="#E2E2E2" transform="matrix(1.00, 0.00, -0.00, -1.00, 490.3, 3.2)"> </text><text xml:space="preserve" font-family="Helvetica,Helvetica" font-size="32.0" fill="#E2E2E2" transform="matrix(1.00, 0.00, -0.00, -1.00, 499.2, 3.2)"> </text><text xml:space="preserve" font-family="Helvetica,Helvetica" font-size="32.0" fill="#E2E2E2" transform="matrix(1.00, 0.00, -0.00, -1.00, 508.1, 3.2)"> </text><text xml:space="preserve" font-family="Helvetica,Helvetica" font-size="32.0" fill="#E2E2E2" transform="matrix(1.00, 0.00, -0.00, -1.00, 517.0, 3.2)"> </text><text xml:space="preserve" font-family="Helvetica,Helvetica" font-size="32.0" fill="#E2E2E2" transform="matrix(1.00, 0.00, -0.00, -1.00, 525.9, 3.2)"> </text><text xml:space="preserve" font-family="Helvetica,Helvetica" font-size="32.0" fill="#E2E2E2" transform="matrix(1.00, 0.00, -0.00, -1.00, 534.7, 3.2)"> </text><text xml:space="preserve" font-family="Helvetica,Helvetica" font-size="32.0" fill="#E2E2E2" transform="matrix(1.00, 0.00, -0.00, -1.00, 543.6, 3.2)">F</text><text xml:space="preserve" font-family="Helvetica,Helvetica" font-size="32.0" fill="#E2E2E2" transform="matrix(1.00, 0.00, -0.00, -1.00, 563.2, 3.2)">R</text><text xml:space="preserve" font-family="Helvetica,Helvetica" font-size="32.0" fill="#E2E2E2" transform="matrix(1.00, 0.00, -0.00, -1.00, 586.3, 3.2)">I</text><text xml:space="preserve" font-family="Helvetica,Helvetica" font-size="32.0" fill="#E2E2E2" transform="matrix(1.00, 0.00, -0.00, -1.00, 595.2, 3.2)"> </text><text xml:space="preserve" font-family="Helvetica,Helvetica" font-size="32.0" fill="#E2E2E2" transform="matrix(1.00, 0.00, -0.00, -1.00, 604.0, 3.2)"> </text><text xml:space="preserve" font-family="Helvetica,Helvetica" font-size="32.0" fill="#E2E2E2" transform="matrix(1.00, 0.00, -0.00, -1.00, 612.9, 3.2)"> </text><text xml:space="preserve" font-family="Helvetica,Helvetica" font-size="32.0" fill="#E2E2E2" transform="matrix(1.00, 0.00, -0.00, -1.00, 621.8, 3.2)"> </text><text xml:space="preserve" font-family="Helvetica,Helvetica" font-size="32.0" fill="#E2E2E2" transform="matrix(1.00, 0.00, -0.00, -1.00, 630.7, 3.2)"> </text><text xml:space="preserve" font-family="Helvetica,Helvetica" font-size="32.0" fill="#E2E2E2" transform="matrix(1.00, 0.00, -0.00, -1.00, 639.6, 3.2)"> </text><text xml:space="preserve" font-family="Helvetica,Helvetica" font-size="32.0" fill="#E2E2E2" transform="matrix(1.00, 0.00, -0.00, -1.00, 648.5, 3.2)"> </text><text xml:space="preserve" font-family="Helvetica,Helvetica" font-size="32.0" fill="#E2E2E2" transform="matrix(1.00, 0.00, -0.00, -1.00, 657.4, 3.2)"> </text><text xml:space="preserve" font-family="Helvetica,Helvetica" font-size="32.0" fill="#E2E2E2" transform="matrix(1.00, 0.00, -0.00, -1.00, 666.2, 3.2)">S</text><text xml:space="preserve" font-family="Helvetica,Helvetica" font-size="32.0" fill="#E2E2E2" transform="matrix(1.00, 0.00, -0.00, -1.00, 687.6, 3.2)">A</text><text xml:space="preserve" font-family="Helvetica,Helvetica" font-size="32.0" fill="#E2E2E2" transform="matrix(1.00, 0.00, -0.00, -1.00, 706.6, 3.2)">T</text><text xml:space="preserve" font-family="Helvetica,Helvetica" font-size="32.0" fill="#E2E2E2" transform="matrix(1.00, 0.00, -0.00, -1.00, 725.5, 3.2)"> </text><text xml:space="preserve" font-family="Helvetica,Helvetica" font-size="32.0" fill="#E2E2E2" transform="matrix(1.00, 0.00, -0.00, -1.00, 734.4, 3.2)"> </text><text xml:space="preserve" font-family="Helvetica,Helvetica" font-size="32.0" fill="#E2E2E2" transform="matrix(1.00, 0.00, -0.00, -1.00, 743.3, 3.2)"> </text><text xml:space="preserve" font-family="Helvetica,Helvetica" font-size="32.0" fill="#E2E2E2" transform="matrix(1.00, 0.00, -0.00, -1.00, 752.2, 3.2)"> </text><text xml:space="preserve" font-family="Helvetica,Helvetica" font-size="32.0" fill="#E2E2E2" transform="matrix(1.00, 0.00, -0.00, -1.00, 761.1, 3.2)"> </text><text xml:space="preserve" font-family="Helvetica,Helvetica" font-size="32.0" fill="#E2E2E2" transform="matrix(1.00, 0.00, -0.00, -1.00, 770.0, 3.2)"> </text><text xml:space="preserve" font-family="Helvetica,Helvetica" font-size="32.0" fill="#E2E2E2" transform="matrix(1.00, 0.00, -0.00, -1.00, 778.9, 3.2)"> </text><text xml:space="preserve" font-family="Helvetica,Helvetica" font-size="32.0" fill="#E2E2E2" transform="matrix(1.00, 0.00, -0.00, -1.00, 787.7, 3.2)">S</text><text xml:space="preserve" font-family="Helvetica,Helvetica" font-size="32.0" fill="#E2E2E2" transform="matrix(1.00, 0.00, -0.00, -1.00, 809.1, 3.2)">U</text><text xml:space="preserve" font-family="Helvetica,Helvetica" font-size="32.0" fill="#E2E2E2" transform="matrix(1.00, 0.00, -0.00, -1.00, 832.2, 3.2)">N</text></g></svg>