<?xml version="1.0" encoding="UTF-8" standalone="no"?><svg xmlns="http://www.w3.org/2000/svg" xmlns:xlink="http://www.w3.org/1999/xlink" clip-rule="evenodd" stroke-miterlimit="10" viewBox="0 0 103 480"><desc>SVG generated by Keynote</desc><defs></defs><g transform="matrix(1.00, 0.00, -0.00, -1.00, 0.0, 480.0)"><g><clipPath id="clip0x6100048ac5a0"><path d="M 0.0 0.2 L 102.0 0.2 L 102.0 26.3 L 0.0 26.3 Z M 0.0 0.2 "></path></clipPath><g clip-path="url(#clip0x6100048ac5a0)"><path d="M 1.0 8.2 L 1.0 18.3 C 1.0 22.2 4.2 25.0 8.0 25.0 L 94.0 25.0 C 97.9 25.0 101.0 22.2 101.0 18.3 L 101.0 8.2 C 101.0 4.3 97.9 1.0 94.0 1.0 L 8.0 1.0 C 4.2 1.0 1.0 4.3 1.0 8.2 Z M 1.0 8.2 " fill="#62D7AD"></path></g></g><g><clipPath id="clip0x6100048ac780"><path d="M 0.0 30.5 L 102.0 30.5 L 102.0 56.5 L 0.0 56.5 Z M 0.0 30.5 "></path></clipPath><g clip-path="url(#clip0x6100048ac780)"><path d="M 1.0 38.5 L 1.0 48.5 C 1.0 52.4 4.2 56.0 8.0 56.0 L 94.0 56.0 C 97.9 56.0 101.0 52.4 101.0 48.5 L 101.0 38.5 C 101.0 34.6 97.9 31.0 94.0 31.0 L 8.0 31.0 C 4.2 31.0 1.0 34.6 1.0 38.5 Z M 1.0 38.5 " fill="#62D7AD"></path></g></g><g><clipPath id="clip0x6100048abe20"><path d="M 0.0 60.7 L 102.0 60.7 L 102.0 86.8 L 0.0 86.8 Z M 0.0 60.7 "></path></clipPath><g clip-path="url(#clip0x6100048abe20)"><path d="M 1.0 68.7 L 1.0 78.8 C 1.0 82.7 4.2 86.0 8.0 86.0 L 94.0 86.0 C 97.9 86.0 101.0 82.7 101.0 78.8 L 101.0 68.7 C 101.0 64.8 97.9 62.0 94.0 62.0 L 8.0 62.0 C 4.2 62.0 1.0 64.8 1.0 68.7 Z M 1.0 68.7 " fill="#62D7AD"></path></g></g><g><clipPath id="clip0x6100048acc60"><path d="M 0.0 90.9 L 102.0 90.9 L 102.0 117.0 L 0.0 117.0 Z M 0.0 90.9 "></path></clipPath><g clip-path="url(#clip0x6100048acc60)"><path d="M 1.0 98.9 L 1.0 109.0 C 1.0 112.9 4.2 116.0 8.0 116.0 L 94.0 116.0 C 97.9 116.0 101.0 112.9 101.0 109.0 L 101.0 98.9 C 101.0 95.1 97.9 92.0 94.0 92.0 L 8.0 92.0 C 4.2 92.0 1.0 95.1 1.0 98.9 Z M 1.0 98.9 " fill="#62D7AD"></path></g></g><g><clipPath id="clip0x6100048ab760"><path d="M 0.0 121.2 L 102.0 121.2 L 102.0 147.3 L 0.0 147.3 Z M 0.0 121.2 "></path></clipPath><g clip-path="url(#clip0x6100048ab760)"><path d="M 1.0 129.2 L 1.0 139.3 C 1.0 143.1 4.2 146.0 8.0 146.0 L 94.0 146.0 C 97.9 146.0 101.0 143.1 101.0 139.3 L 101.0 129.2 C 101.0 125.3 97.9 122.0 94.0 122.0 L 8.0 122.0 C 4.2 122.0 1.0 125.3 1.0 129.2 Z M 1.0 129.2 " fill="#62D7AD"></path></g></g><g><clipPath id="clip0x6100048ad440"><path d="M 0.0 151.4 L 102.0 151.4 L 102.0 177.5 L 0.0 177.5 Z M 0.0 151.4 "></path></clipPath><g clip-path="url(#clip0x6100048ad440)"><path d="M 1.0 159.4 L 1.0 169.5 C 1.0 173.4 4.2 177.0 8.0 177.0 L 94.0 177.0 C 97.9 177.0 101.0 173.4 101.0 169.5 L 101.0 159.4 C 101.0 155.6 97.9 152.0 94.0 152.0 L 8.0 152.0 C 4.2 152.0 1.0 155.6 1.0 159.4 Z M 1.0 159.4 " fill="#62D7AD"></path></g></g><g><clipPath id="clip0x6100048ad680"><path d="M 0.0 332.9 L 102.0 332.9 L 102.0 359.0 L 0.0 359.0 Z M 0.0 332.9 "></path></clipPath><g clip-path="url(#clip0x6100048ad680)"><path d="M 1.0 340.9 L 1.0 351.0 C 1.0 354.8 4.2 358.0 8.0 358.0 L 94.0 358.0 C 97.9 358.0 101.0 354.8 101.0 351.0 L 101.0 340.9 C 101.0 337.0 97.9 334.0 94.0 334.0 L 8.0 334.0 C 4.2 334.0 1.0 337.0 1.0 340.9 Z M 1.0 340.9 " fill="#E2E2E2"></path></g></g><g><clipPath id="clip0x6100048ad8c0"><path d="M 0.0 363.1 L 102.0 363.1 L 102.0 389.2 L 0.0 389.2 Z M 0.0 363.1 "></path></clipPath><g clip-path="url(#clip0x6100048ad8c0)"><path d="M 1.0 371.1 L 1.0 381.2 C 1.0 385.1 4.2 388.0 8.0 388.0 L 94.0 388.0 C 97.9 388.0 101.0 385.1 101.0 381.2 L 101.0 371.1 C 101.0 367.2 97.9 364.0 94.0 364.0 L 8.0 364.0 C 4.2 364.0 1.0 367.2 1.0 371.1 Z M 1.0 371.1 " fill="#E2E2E2"></path></g></g><g><clipPath id="clip0x6100048adb00"><path d="M 0.0 393.4 L 102.0 393.4 L 102.0 419.4 L 0.0 419.4 Z M 0.0 393.4 "></path></clipPath><g clip-path="url(#clip0x6100048adb00)"><path d="M 1.0 401.4 L 1.0 411.4 C 1.0 415.3 4.2 418.0 8.0 418.0 L 94.0 418.0 C 97.9 418.0 101.0 415.3 101.0 411.4 L 101.0 401.4 C 101.0 397.5 97.9 394.0 94.0 394.0 L 8.0 394.0 C 4.2 394.0 1.0 397.5 1.0 401.4 Z M 1.0 401.4 " fill="#E2E2E2"></path></g></g><g><clipPath id="clip0x6100048add40"><path d="M 0.0 423.6 L 102.0 423.6 L 102.0 449.7 L 0.0 449.7 Z M 0.0 423.6 "></path></clipPath><g clip-path="url(#clip0x6100048add40)"><path d="M 1.0 431.6 L 1.0 441.7 C 1.0 445.6 4.2 449.0 8.0 449.0 L 94.0 449.0 C 97.9 449.0 101.0 445.6 101.0 441.7 L 101.0 431.6 C 101.0 427.7 97.9 425.0 94.0 425.0 L 8.0 425.0 C 4.2 425.0 1.0 427.7 1.0 431.6 Z M 1.0 431.6 " fill="#E2E2E2"></path></g></g><g><clipPath id="clip0x6100048adf80"><path d="M 0.0 453.8 L 102.0 453.8 L 102.0 479.9 L 0.0 479.9 Z M 0.0 453.8 "></path></clipPath><g clip-path="url(#clip0x6100048adf80)"><path d="M 1.0 461.8 L 1.0 471.9 C 1.0 475.8 4.2 479.0 8.0 479.0 L 94.0 479.0 C 97.9 479.0 101.0 475.8 101.0 471.9 L 101.0 461.8 C 101.0 458.0 97.9 455.0 94.0 455.0 L 8.0 455.0 C 4.2 455.0 1.0 458.0 1.0 461.8 Z M 1.0 461.8 " fill="#E2E2E2"></path></g></g><g><clipPath id="clip0x6100048ae1c0"><path d="M 0.0 302.6 L 102.0 302.6 L 102.0 328.7 L 0.0 328.7 Z M 0.0 302.6 "></path></clipPath><g clip-path="url(#clip0x6100048ae1c0)"><path d="M 1.0 310.6 L 1.0 320.7 C 1.0 324.6 4.2 328.0 8.0 328.0 L 94.0 328.0 C 97.9 328.0 101.0 324.6 101.0 320.7 L 101.0 310.6 C 101.0 306.8 97.9 304.0 94.0 304.0 L 8.0 304.0 C 4.2 304.0 1.0 306.8 1.0 310.6 Z M 1.0 310.6 " fill="#E2E2E2"></path></g></g><g><clipPath id="clip0x6100048ae400"><path d="M 0.0 272.4 L 102.0 272.4 L 102.0 298.5 L 0.0 298.5 Z M 0.0 272.4 "></path></clipPath><g clip-path="url(#clip0x6100048ae400)"><path d="M 1.0 280.4 L 1.0 290.5 C 1.0 294.3 4.2 297.0 8.0 297.0 L 94.0 297.0 C 97.9 297.0 101.0 294.3 101.0 290.5 L 101.0 280.4 C 101.0 276.5 97.9 273.0 94.0 273.0 L 8.0 273.0 C 4.2 273.0 1.0 276.5 1.0 280.4 Z M 1.0 280.4 " fill="#E2E2E2"></path></g></g><g><clipPath id="clip0x618004cb92c0"><path d="M 0.0 242.1 L 102.0 242.1 L 102.0 268.2 L 0.0 268.2 Z M 0.0 242.1 "></path></clipPath><g clip-path="url(#clip0x618004cb92c0)"><path d="M 1.0 250.1 L 1.0 260.2 C 1.0 264.1 4.2 267.0 8.0 267.0 L 94.0 267.0 C 97.9 267.0 101.0 264.1 101.0 260.2 L 101.0 250.1 C 101.0 246.3 97.9 243.0 94.0 243.0 L 8.0 243.0 C 4.2 243.0 1.0 246.3 1.0 250.1 Z M 1.0 250.1 " fill="#E2E2E2"></path></g></g><g><clipPath id="clip0x618004cb9500"><path d="M 0.0 211.9 L 102.0 211.9 L 102.0 238.0 L 0.0 238.0 Z M 0.0 211.9 "></path></clipPath><g clip-path="url(#clip0x618004cb9500)"><path d="M 1.0 219.9 L 1.0 230.0 C 1.0 233.9 4.2 237.0 8.0 237.0 L 94.0 237.0 C 97.9 237.0 101.0 233.9 101.0 230.0 L 101.0 219.9 C 101.0 216.0 97.9 213.0 94.0 213.0 L 8.0 213.0 C 4.2 213.0 1.0 216.0 1.0 219.9 Z M 1.0 219.9 " fill="#E2E2E2"></path></g></g><g><clipPath id="clip0x618004cb9740"><path d="M 0.0 181.7 L 102.0 181.7 L 102.0 207.8 L 0.0 207.8 Z M 0.0 181.7 "></path></clipPath><g clip-path="url(#clip0x618004cb9740)"><path d="M 1.0 189.7 L 1.0 199.8 C 1.0 203.6 4.2 207.0 8.0 207.0 L 94.0 207.0 C 97.9 207.0 101.0 203.6 101.0 199.8 L 101.0 189.7 C 101.0 185.8 97.9 183.0 94.0 183.0 L 8.0 183.0 C 4.2 183.0 1.0 185.8 1.0 189.7 Z M 1.0 189.7 " fill="#E2E2E2"></path></g></g></g></svg>