<?xml version="1.0" encoding="UTF-8" standalone="no"?><svg xmlns="http://www.w3.org/2000/svg" xmlns:xlink="http://www.w3.org/1999/xlink" clip-rule="evenodd" stroke-miterlimit="10" viewBox="0 0 103 480"><desc>SVG generated by Keynote</desc><defs></defs><g transform="matrix(1.00, 0.00, -0.00, -1.00, 0.0, 480.0)"><g><clipPath id="clip0x6100048aefa0"><path d="M 0.3 0.2 L 102.3 0.2 L 102.3 26.3 L 0.3 26.3 Z M 0.3 0.2 "></path></clipPath><g clip-path="url(#clip0x6100048aefa0)"><path d="M 1.3 8.2 L 1.0 18.3 C 1.0 22.2 4.4 25.0 8.3 25.0 L 94.3 25.0 C 98.1 25.0 101.0 22.2 101.0 18.3 L 101.0 8.2 C 101.0 4.3 98.1 1.0 94.3 1.0 L 8.3 1.0 C 4.4 1.0 1.3 4.3 1.3 8.2 Z M 1.3 8.2 " fill="#54C6E1"></path></g></g><g><clipPath id="clip0x6100048af240"><path d="M 0.3 30.5 L 102.3 30.5 L 102.3 56.5 L 0.3 56.5 Z M 0.3 30.5 "></path></clipPath><g clip-path="url(#clip0x6100048af240)"><path d="M 1.3 38.5 L 1.0 48.5 C 1.0 52.4 4.4 56.0 8.3 56.0 L 94.3 56.0 C 98.1 56.0 101.0 52.4 101.0 48.5 L 101.0 38.5 C 101.0 34.6 98.1 31.0 94.3 31.0 L 8.3 31.0 C 4.4 31.0 1.3 34.6 1.3 38.5 Z M 1.3 38.5 " fill="#54C6E1"></path></g></g><g><clipPath id="clip0x6100048af480"><path d="M 0.3 60.7 L 102.3 60.7 L 102.3 86.8 L 0.3 86.8 Z M 0.3 60.7 "></path></clipPath><g clip-path="url(#clip0x6100048af480)"><path d="M 1.3 68.7 L 1.0 78.8 C 1.0 82.7 4.4 86.0 8.3 86.0 L 94.3 86.0 C 98.1 86.0 101.0 82.7 101.0 78.8 L 101.0 68.7 C 101.0 64.8 98.1 62.0 94.3 62.0 L 8.3 62.0 C 4.4 62.0 1.3 64.8 1.3 68.7 Z M 1.3 68.7 " fill="#54C6E1"></path></g></g><g><clipPath id="clip0x6100048af6c0"><path d="M 0.3 90.9 L 102.3 90.9 L 102.3 117.0 L 0.3 117.0 Z M 0.3 90.9 "></path></clipPath><g clip-path="url(#clip0x6100048af6c0)"><path d="M 1.3 98.9 L 1.0 109.0 C 1.0 112.9 4.4 116.0 8.3 116.0 L 94.3 116.0 C 98.1 116.0 101.0 112.9 101.0 109.0 L 101.0 98.9 C 101.0 95.1 98.1 92.0 94.3 92.0 L 8.3 92.0 C 4.4 92.0 1.3 95.1 1.3 98.9 Z M 1.3 98.9 " fill="#54C6E1"></path></g></g><g><clipPath id="clip0x6100048af900"><path d="M 0.3 121.2 L 102.3 121.2 L 102.3 147.3 L 0.3 147.3 Z M 0.3 121.2 "></path></clipPath><g clip-path="url(#clip0x6100048af900)"><path d="M 1.3 129.2 L 1.0 139.3 C 1.0 143.1 4.4 146.0 8.3 146.0 L 94.3 146.0 C 98.1 146.0 101.0 143.1 101.0 139.3 L 101.0 129.2 C 101.0 125.3 98.1 122.0 94.3 122.0 L 8.3 122.0 C 4.4 122.0 1.3 125.3 1.3 129.2 Z M 1.3 129.2 " fill="#54C6E1"></path></g></g><g><clipPath id="clip0x6100048afb40"><path d="M 0.3 151.4 L 102.3 151.4 L 102.3 177.5 L 0.3 177.5 Z M 0.3 151.4 "></path></clipPath><g clip-path="url(#clip0x6100048afb40)"><path d="M 1.3 159.4 L 1.0 169.5 C 1.0 173.4 4.4 177.0 8.3 177.0 L 94.3 177.0 C 98.1 177.0 101.0 173.4 101.0 169.5 L 101.0 159.4 C 101.0 155.6 98.1 152.0 94.3 152.0 L 8.3 152.0 C 4.4 152.0 1.3 155.6 1.3 159.4 Z M 1.3 159.4 " fill="#54C6E1"></path></g></g><g><clipPath id="clip0x6100048afd80"><path d="M 0.3 363.1 L 102.3 363.1 L 102.3 389.2 L 0.3 389.2 Z M 0.3 363.1 "></path></clipPath><g clip-path="url(#clip0x6100048afd80)"><path d="M 1.3 371.1 L 1.0 381.2 C 1.0 385.1 4.4 388.0 8.3 388.0 L 94.3 388.0 C 98.1 388.0 101.0 385.1 101.0 381.2 L 101.0 371.1 C 101.0 367.2 98.1 364.0 94.3 364.0 L 8.3 364.0 C 4.4 364.0 1.3 367.2 1.3 371.1 Z M 1.3 371.1 " fill="#E2E2E2"></path></g></g><g><clipPath id="clip0x6100048affc0"><path d="M 0.3 393.4 L 102.3 393.4 L 102.3 419.4 L 0.3 419.4 Z M 0.3 393.4 "></path></clipPath><g clip-path="url(#clip0x6100048affc0)"><path d="M 1.3 401.4 L 1.0 411.4 C 1.0 415.3 4.4 418.0 8.3 418.0 L 94.3 418.0 C 98.1 418.0 101.0 415.3 101.0 411.4 L 101.0 401.4 C 101.0 397.5 98.1 394.0 94.3 394.0 L 8.3 394.0 C 4.4 394.0 1.3 397.5 1.3 401.4 Z M 1.3 401.4 " fill="#E2E2E2"></path></g></g><g><clipPath id="clip0x6100048b0200"><path d="M 0.3 423.6 L 102.3 423.6 L 102.3 449.7 L 0.3 449.7 Z M 0.3 423.6 "></path></clipPath><g clip-path="url(#clip0x6100048b0200)"><path d="M 1.3 431.6 L 1.0 441.7 C 1.0 445.6 4.4 449.0 8.3 449.0 L 94.3 449.0 C 98.1 449.0 101.0 445.6 101.0 441.7 L 101.0 431.6 C 101.0 427.7 98.1 425.0 94.3 425.0 L 8.3 425.0 C 4.4 425.0 1.3 427.7 1.3 431.6 Z M 1.3 431.6 " fill="#E2E2E2"></path></g></g><g><clipPath id="clip0x6100048b0440"><path d="M 0.3 453.8 L 102.3 453.8 L 102.3 479.9 L 0.3 479.9 Z M 0.3 453.8 "></path></clipPath><g clip-path="url(#clip0x6100048b0440)"><path d="M 1.3 461.8 L 1.0 471.9 C 1.0 475.8 4.4 479.0 8.3 479.0 L 94.3 479.0 C 98.1 479.0 101.0 475.8 101.0 471.9 L 101.0 461.8 C 101.0 458.0 98.1 455.0 94.3 455.0 L 8.3 455.0 C 4.4 455.0 1.3 458.0 1.3 461.8 Z M 1.3 461.8 " fill="#E2E2E2"></path></g></g><g><clipPath id="clip0x6100048b0680"><path d="M 0.3 181.7 L 102.3 181.7 L 102.3 207.8 L 0.3 207.8 Z M 0.3 181.7 "></path></clipPath><g clip-path="url(#clip0x6100048b0680)"><path d="M 1.3 189.7 L 1.0 199.8 C 1.0 203.6 4.4 207.0 8.3 207.0 L 94.3 207.0 C 98.1 207.0 101.0 203.6 101.0 199.8 L 101.0 189.7 C 101.0 185.8 98.1 183.0 94.3 183.0 L 8.3 183.0 C 4.4 183.0 1.3 185.8 1.3 189.7 Z M 1.3 189.7 " fill="#54C6E1"></path></g></g><g><clipPath id="clip0x6100048b08c0"><path d="M 0.3 211.9 L 102.3 211.9 L 102.3 238.0 L 0.3 238.0 Z M 0.3 211.9 "></path></clipPath><g clip-path="url(#clip0x6100048b08c0)"><path d="M 1.3 219.9 L 1.0 230.0 C 1.0 233.9 4.4 237.0 8.3 237.0 L 94.3 237.0 C 98.1 237.0 101.0 233.9 101.0 230.0 L 101.0 219.9 C 101.0 216.0 98.1 213.0 94.3 213.0 L 8.3 213.0 C 4.4 213.0 1.3 216.0 1.3 219.9 Z M 1.3 219.9 " fill="#54C6E1"></path></g></g><g><clipPath id="clip0x6100048b0b00"><path d="M 0.3 242.1 L 102.3 242.1 L 102.3 268.2 L 0.3 268.2 Z M 0.3 242.1 "></path></clipPath><g clip-path="url(#clip0x6100048b0b00)"><path d="M 1.3 250.1 L 1.0 260.2 C 1.0 264.1 4.4 267.0 8.3 267.0 L 94.3 267.0 C 98.1 267.0 101.0 264.1 101.0 260.2 L 101.0 250.1 C 101.0 246.3 98.1 243.0 94.3 243.0 L 8.3 243.0 C 4.4 243.0 1.3 246.3 1.3 250.1 Z M 1.3 250.1 " fill="#54C6E1"></path></g></g><g><clipPath id="clip0x6100048b0d40"><path d="M 0.3 272.4 L 102.3 272.4 L 102.3 298.5 L 0.3 298.5 Z M 0.3 272.4 "></path></clipPath><g clip-path="url(#clip0x6100048b0d40)"><path d="M 1.3 280.4 L 1.0 290.5 C 1.0 294.3 4.4 297.0 8.3 297.0 L 94.3 297.0 C 98.1 297.0 101.0 294.3 101.0 290.5 L 101.0 280.4 C 101.0 276.5 98.1 273.0 94.3 273.0 L 8.3 273.0 C 4.4 273.0 1.3 276.5 1.3 280.4 Z M 1.3 280.4 " fill="#54C6E1"></path></g></g><g><clipPath id="clip0x6100048b0f80"><path d="M 0.3 302.6 L 102.3 302.6 L 102.3 328.7 L 0.3 328.7 Z M 0.3 302.6 "></path></clipPath><g clip-path="url(#clip0x6100048b0f80)"><path d="M 1.3 310.6 L 1.0 320.7 C 1.0 324.6 4.4 328.0 8.3 328.0 L 94.3 328.0 C 98.1 328.0 101.0 324.6 101.0 320.7 L 101.0 310.6 C 101.0 306.8 98.1 304.0 94.3 304.0 L 8.3 304.0 C 4.4 304.0 1.3 306.8 1.3 310.6 Z M 1.3 310.6 " fill="#54C6E1"></path></g></g><g><clipPath id="clip0x6100048b11c0"><path d="M 0.3 332.9 L 102.3 332.9 L 102.3 359.0 L 0.3 359.0 Z M 0.3 332.9 "></path></clipPath><g clip-path="url(#clip0x6100048b11c0)"><path d="M 1.3 340.9 L 1.0 351.0 C 1.0 354.8 4.4 358.0 8.3 358.0 L 94.3 358.0 C 98.1 358.0 101.0 354.8 101.0 351.0 L 101.0 340.9 C 101.0 337.0 98.1 334.0 94.3 334.0 L 8.3 334.0 C 4.4 334.0 1.3 337.0 1.3 340.9 Z M 1.3 340.9 " fill="#54C6E1"></path></g></g></g></svg>