<?xml version="1.0" encoding="UTF-8" standalone="no"?><svg xmlns="http://www.w3.org/2000/svg" xmlns:xlink="http://www.w3.org/1999/xlink" clip-rule="evenodd" stroke-miterlimit="10" viewBox="0 0 103 480"><desc>SVG generated by Keynote</desc><defs></defs><g transform="matrix(1.00, 0.00, -0.00, -1.00, 0.0, 480.0)"><g><clipPath id="clip0x618004cb5b40"><path d="M 0.4 0.2 L 102.4 0.2 L 102.4 26.3 L 0.4 26.3 Z M 0.4 0.2 "></path></clipPath><g clip-path="url(#clip0x618004cb5b40)"><path d="M 1.4 8.2 L 1.0 18.3 C 1.0 22.2 4.5 25.0 8.4 25.0 L 94.4 25.0 C 98.3 25.0 101.0 22.2 101.0 18.3 L 101.0 8.2 C 101.0 4.3 98.3 1.0 94.4 1.0 L 8.4 1.0 C 4.5 1.0 1.4 4.3 1.4 8.2 Z M 1.4 8.2 " fill="#EDC25F"></path></g></g><g><clipPath id="clip0x618004cb6f20"><path d="M 0.4 30.5 L 102.4 30.5 L 102.4 56.5 L 0.4 56.5 Z M 0.4 30.5 "></path></clipPath><g clip-path="url(#clip0x618004cb6f20)"><path d="M 1.4 38.5 L 1.0 48.5 C 1.0 52.4 4.5 56.0 8.4 56.0 L 94.4 56.0 C 98.3 56.0 101.0 52.4 101.0 48.5 L 101.0 38.5 C 101.0 34.6 98.3 31.0 94.4 31.0 L 8.4 31.0 C 4.5 31.0 1.4 34.6 1.4 38.5 Z M 1.4 38.5 " fill="#EDC25F"></path></g></g><g><clipPath id="clip0x618004cb7160"><path d="M 0.4 60.7 L 102.4 60.7 L 102.4 86.8 L 0.4 86.8 Z M 0.4 60.7 "></path></clipPath><g clip-path="url(#clip0x618004cb7160)"><path d="M 1.4 68.7 L 1.0 78.8 C 1.0 82.7 4.5 86.0 8.4 86.0 L 94.4 86.0 C 98.3 86.0 101.0 82.7 101.0 78.8 L 101.0 68.7 C 101.0 64.8 98.3 62.0 94.4 62.0 L 8.4 62.0 C 4.5 62.0 1.4 64.8 1.4 68.7 Z M 1.4 68.7 " fill="#EDC25F"></path></g></g><g><clipPath id="clip0x618004cb73a0"><path d="M 0.4 90.9 L 102.4 90.9 L 102.4 117.0 L 0.4 117.0 Z M 0.4 90.9 "></path></clipPath><g clip-path="url(#clip0x618004cb73a0)"><path d="M 1.4 98.9 L 1.0 109.0 C 1.0 112.9 4.5 116.0 8.4 116.0 L 94.4 116.0 C 98.3 116.0 101.0 112.9 101.0 109.0 L 101.0 98.9 C 101.0 95.1 98.3 92.0 94.4 92.0 L 8.4 92.0 C 4.5 92.0 1.4 95.1 1.4 98.9 Z M 1.4 98.9 " fill="#EDC25F"></path></g></g><g><clipPath id="clip0x618004cb75e0"><path d="M 0.4 121.2 L 102.4 121.2 L 102.4 147.3 L 0.4 147.3 Z M 0.4 121.2 "></path></clipPath><g clip-path="url(#clip0x618004cb75e0)"><path d="M 1.4 129.2 L 1.0 139.3 C 1.0 143.1 4.5 146.0 8.4 146.0 L 94.4 146.0 C 98.3 146.0 101.0 143.1 101.0 139.3 L 101.0 129.2 C 101.0 125.3 98.3 122.0 94.4 122.0 L 8.4 122.0 C 4.5 122.0 1.4 125.3 1.4 129.2 Z M 1.4 129.2 " fill="#EDC25F"></path></g></g><g><clipPath id="clip0x618004cb7820"><path d="M 0.4 151.4 L 102.4 151.4 L 102.4 177.5 L 0.4 177.5 Z M 0.4 151.4 "></path></clipPath><g clip-path="url(#clip0x618004cb7820)"><path d="M 1.4 159.4 L 1.0 169.5 C 1.0 173.4 4.5 177.0 8.4 177.0 L 94.4 177.0 C 98.3 177.0 101.0 173.4 101.0 169.5 L 101.0 159.4 C 101.0 155.6 98.3 152.0 94.4 152.0 L 8.4 152.0 C 4.5 152.0 1.4 155.6 1.4 159.4 Z M 1.4 159.4 " fill="#EDC25F"></path></g></g><g><clipPath id="clip0x618004cb7a60"><path d="M 0.4 181.7 L 102.4 181.7 L 102.4 207.8 L 0.4 207.8 Z M 0.4 181.7 "></path></clipPath><g clip-path="url(#clip0x618004cb7a60)"><path d="M 1.4 189.7 L 1.0 199.8 C 1.0 203.6 4.5 207.0 8.4 207.0 L 94.4 207.0 C 98.3 207.0 101.0 203.6 101.0 199.8 L 101.0 189.7 C 101.0 185.8 98.3 183.0 94.4 183.0 L 8.4 183.0 C 4.5 183.0 1.4 185.8 1.4 189.7 Z M 1.4 189.7 " fill="#EDC25F"></path></g></g><g><clipPath id="clip0x618004cb7ca0"><path d="M 0.4 211.9 L 102.4 211.9 L 102.4 238.0 L 0.4 238.0 Z M 0.4 211.9 "></path></clipPath><g clip-path="url(#clip0x618004cb7ca0)"><path d="M 1.4 219.9 L 1.0 230.0 C 1.0 233.9 4.5 237.0 8.4 237.0 L 94.4 237.0 C 98.3 237.0 101.0 233.9 101.0 230.0 L 101.0 219.9 C 101.0 216.0 98.3 213.0 94.4 213.0 L 8.4 213.0 C 4.5 213.0 1.4 216.0 1.4 219.9 Z M 1.4 219.9 " fill="#EDC25F"></path></g></g><g><clipPath id="clip0x618004cb7ee0"><path d="M 0.4 242.1 L 102.4 242.1 L 102.4 268.2 L 0.4 268.2 Z M 0.4 242.1 "></path></clipPath><g clip-path="url(#clip0x618004cb7ee0)"><path d="M 1.4 250.1 L 1.0 260.2 C 1.0 264.1 4.5 267.0 8.4 267.0 L 94.4 267.0 C 98.3 267.0 101.0 264.1 101.0 260.2 L 101.0 250.1 C 101.0 246.3 98.3 243.0 94.4 243.0 L 8.4 243.0 C 4.5 243.0 1.4 246.3 1.4 250.1 Z M 1.4 250.1 " fill="#EDC25F"></path></g></g><g><clipPath id="clip0x618004cb8120"><path d="M 0.4 272.4 L 102.4 272.4 L 102.4 298.5 L 0.4 298.5 Z M 0.4 272.4 "></path></clipPath><g clip-path="url(#clip0x618004cb8120)"><path d="M 1.4 280.4 L 1.0 290.5 C 1.0 294.3 4.5 297.0 8.4 297.0 L 94.4 297.0 C 98.3 297.0 101.0 294.3 101.0 290.5 L 101.0 280.4 C 101.0 276.5 98.3 273.0 94.4 273.0 L 8.4 273.0 C 4.5 273.0 1.4 276.5 1.4 280.4 Z M 1.4 280.4 " fill="#EDC25F"></path></g></g><g><clipPath id="clip0x618004cb8360"><path d="M 0.4 302.6 L 102.4 302.6 L 102.4 328.7 L 0.4 328.7 Z M 0.4 302.6 "></path></clipPath><g clip-path="url(#clip0x618004cb8360)"><path d="M 1.4 310.6 L 1.0 320.7 C 1.0 324.6 4.5 328.0 8.4 328.0 L 94.4 328.0 C 98.3 328.0 101.0 324.6 101.0 320.7 L 101.0 310.6 C 101.0 306.8 98.3 304.0 94.4 304.0 L 8.4 304.0 C 4.5 304.0 1.4 306.8 1.4 310.6 Z M 1.4 310.6 " fill="#EDC25F"></path></g></g><g><clipPath id="clip0x618004cb85a0"><path d="M 0.4 453.8 L 102.4 453.8 L 102.4 479.9 L 0.4 479.9 Z M 0.4 453.8 "></path></clipPath><g clip-path="url(#clip0x618004cb85a0)"><path d="M 1.4 461.8 L 1.0 471.9 C 1.0 475.8 4.5 479.0 8.4 479.0 L 94.4 479.0 C 98.3 479.0 101.0 475.8 101.0 471.9 L 101.0 461.8 C 101.0 458.0 98.3 455.0 94.4 455.0 L 8.4 455.0 C 4.5 455.0 1.4 458.0 1.4 461.8 Z M 1.4 461.8 " fill="#E2E2E2"></path></g></g><g><clipPath id="clip0x618004cb87e0"><path d="M 0.4 332.9 L 102.4 332.9 L 102.4 359.0 L 0.4 359.0 Z M 0.4 332.9 "></path></clipPath><g clip-path="url(#clip0x618004cb87e0)"><path d="M 1.4 340.9 L 1.0 351.0 C 1.0 354.8 4.5 358.0 8.4 358.0 L 94.4 358.0 C 98.3 358.0 101.0 354.8 101.0 351.0 L 101.0 340.9 C 101.0 337.0 98.3 334.0 94.4 334.0 L 8.4 334.0 C 4.5 334.0 1.4 337.0 1.4 340.9 Z M 1.4 340.9 " fill="#EDC25F"></path></g></g><g><clipPath id="clip0x618004cb8a20"><path d="M 0.4 363.1 L 102.4 363.1 L 102.4 389.2 L 0.4 389.2 Z M 0.4 363.1 "></path></clipPath><g clip-path="url(#clip0x618004cb8a20)"><path d="M 1.4 371.1 L 1.0 381.2 C 1.0 385.1 4.5 388.0 8.4 388.0 L 94.4 388.0 C 98.3 388.0 101.0 385.1 101.0 381.2 L 101.0 371.1 C 101.0 367.2 98.3 364.0 94.4 364.0 L 8.4 364.0 C 4.5 364.0 1.4 367.2 1.4 371.1 Z M 1.4 371.1 " fill="#EDC25F"></path></g></g><g><clipPath id="clip0x618004cb8c60"><path d="M 0.4 393.4 L 102.4 393.4 L 102.4 419.4 L 0.4 419.4 Z M 0.4 393.4 "></path></clipPath><g clip-path="url(#clip0x618004cb8c60)"><path d="M 1.4 401.4 L 1.0 411.4 C 1.0 415.3 4.5 418.0 8.4 418.0 L 94.4 418.0 C 98.3 418.0 101.0 415.3 101.0 411.4 L 101.0 401.4 C 101.0 397.5 98.3 394.0 94.4 394.0 L 8.4 394.0 C 4.5 394.0 1.4 397.5 1.4 401.4 Z M 1.4 401.4 " fill="#EDC25F"></path></g></g><g><clipPath id="clip0x618004cb8ea0"><path d="M 0.4 423.6 L 102.4 423.6 L 102.4 449.7 L 0.4 449.7 Z M 0.4 423.6 "></path></clipPath><g clip-path="url(#clip0x618004cb8ea0)"><path d="M 1.4 431.6 L 1.0 441.7 C 1.0 445.6 4.5 449.0 8.4 449.0 L 94.4 449.0 C 98.3 449.0 101.0 445.6 101.0 441.7 L 101.0 431.6 C 101.0 427.7 98.3 425.0 94.4 425.0 L 8.4 425.0 C 4.5 425.0 1.4 427.7 1.4 431.6 Z M 1.4 431.6 " fill="#EDC25F"></path></g></g></g></svg>